G04 #@! TF.GenerationSoftware,KiCad,Pcbnew,5.1.5-52549c5~84~ubuntu19.10.1*
G04 #@! TF.CreationDate,2020-02-14T19:35:02+02:00*
G04 #@! TF.ProjectId,GB-CART32K-A,47422d43-4152-4543-9332-4b2d412e6b69,v1.1*
G04 #@! TF.SameCoordinates,Original*
G04 #@! TF.FileFunction,Copper,L1,Top*
G04 #@! TF.FilePolarity,Positive*
%FSLAX46Y46*%
G04 Gerber Fmt 4.6, Leading zero omitted, Abs format (unit mm)*
G04 Created by KiCad (PCBNEW 5.1.5-52549c5~84~ubuntu19.10.1) date 2020-02-14 19:35:02*
%MOMM*%
%LPD*%
G04 APERTURE LIST*
%ADD10C,0.150000*%
%ADD11C,2.000000*%
%ADD12C,0.100000*%
%ADD13R,1.000000X5.500000*%
%ADD14R,1.300000X6.000000*%
%ADD15C,0.700000*%
%ADD16C,0.600000*%
%ADD17C,0.300000*%
G04 APERTURE END LIST*
D10*
X74800000Y-91400000D02*
G75*
G02X74300000Y-90900000I0J500000D01*
G01*
X74300000Y-39500000D02*
G75*
G02X74800000Y-39000000I500000J0D01*
G01*
X121200000Y-39000000D02*
G75*
G02X121700000Y-39500000I0J-500000D01*
G01*
X125200000Y-41600000D02*
G75*
G02X125700000Y-42100000I0J-500000D01*
G01*
X125700000Y-90900000D02*
G75*
G02X125200000Y-91400000I-500000J0D01*
G01*
X76300000Y-100000000D02*
G75*
G02X75400000Y-99100000I0J900000D01*
G01*
X124600000Y-99100000D02*
G75*
G02X123700000Y-100000000I-900000J0D01*
G01*
X121700000Y-39500000D02*
X121700000Y-41600000D01*
X74800000Y-39000000D02*
X121200000Y-39000000D01*
X125200000Y-41600000D02*
X121700000Y-41600000D01*
X74300000Y-90900000D02*
X74300000Y-39500000D01*
X75400000Y-91400000D02*
X74800000Y-91400000D01*
X75400000Y-99100000D02*
X75400000Y-91400000D01*
X125700000Y-90900000D02*
X125700000Y-42100000D01*
X124600000Y-91400000D02*
X125200000Y-91400000D01*
X124600000Y-99100000D02*
X124600000Y-91400000D01*
X76300000Y-100000000D02*
X123700000Y-100000000D01*
D11*
X111300000Y-55400000D03*
X109100000Y-69600000D03*
X80000000Y-57100000D03*
X85700000Y-53100000D03*
G04 #@! TA.AperFunction,SMDPad,CuDef*
D12*
G36*
X90434703Y-58225722D02*
G01*
X90449264Y-58227882D01*
X90463543Y-58231459D01*
X90477403Y-58236418D01*
X90490710Y-58242712D01*
X90503336Y-58250280D01*
X90515159Y-58259048D01*
X90526066Y-58268934D01*
X90535952Y-58279841D01*
X90544720Y-58291664D01*
X90552288Y-58304290D01*
X90558582Y-58317597D01*
X90563541Y-58331457D01*
X90567118Y-58345736D01*
X90569278Y-58360297D01*
X90570000Y-58375000D01*
X90570000Y-59550000D01*
X90569278Y-59564703D01*
X90567118Y-59579264D01*
X90563541Y-59593543D01*
X90558582Y-59607403D01*
X90552288Y-59620710D01*
X90544720Y-59633336D01*
X90535952Y-59645159D01*
X90526066Y-59656066D01*
X90515159Y-59665952D01*
X90503336Y-59674720D01*
X90490710Y-59682288D01*
X90477403Y-59688582D01*
X90463543Y-59693541D01*
X90449264Y-59697118D01*
X90434703Y-59699278D01*
X90420000Y-59700000D01*
X90120000Y-59700000D01*
X90105297Y-59699278D01*
X90090736Y-59697118D01*
X90076457Y-59693541D01*
X90062597Y-59688582D01*
X90049290Y-59682288D01*
X90036664Y-59674720D01*
X90024841Y-59665952D01*
X90013934Y-59656066D01*
X90004048Y-59645159D01*
X89995280Y-59633336D01*
X89987712Y-59620710D01*
X89981418Y-59607403D01*
X89976459Y-59593543D01*
X89972882Y-59579264D01*
X89970722Y-59564703D01*
X89970000Y-59550000D01*
X89970000Y-58375000D01*
X89970722Y-58360297D01*
X89972882Y-58345736D01*
X89976459Y-58331457D01*
X89981418Y-58317597D01*
X89987712Y-58304290D01*
X89995280Y-58291664D01*
X90004048Y-58279841D01*
X90013934Y-58268934D01*
X90024841Y-58259048D01*
X90036664Y-58250280D01*
X90049290Y-58242712D01*
X90062597Y-58236418D01*
X90076457Y-58231459D01*
X90090736Y-58227882D01*
X90105297Y-58225722D01*
X90120000Y-58225000D01*
X90420000Y-58225000D01*
X90434703Y-58225722D01*
G37*
G04 #@! TD.AperFunction*
G04 #@! TA.AperFunction,SMDPad,CuDef*
G36*
X91704703Y-58225722D02*
G01*
X91719264Y-58227882D01*
X91733543Y-58231459D01*
X91747403Y-58236418D01*
X91760710Y-58242712D01*
X91773336Y-58250280D01*
X91785159Y-58259048D01*
X91796066Y-58268934D01*
X91805952Y-58279841D01*
X91814720Y-58291664D01*
X91822288Y-58304290D01*
X91828582Y-58317597D01*
X91833541Y-58331457D01*
X91837118Y-58345736D01*
X91839278Y-58360297D01*
X91840000Y-58375000D01*
X91840000Y-59550000D01*
X91839278Y-59564703D01*
X91837118Y-59579264D01*
X91833541Y-59593543D01*
X91828582Y-59607403D01*
X91822288Y-59620710D01*
X91814720Y-59633336D01*
X91805952Y-59645159D01*
X91796066Y-59656066D01*
X91785159Y-59665952D01*
X91773336Y-59674720D01*
X91760710Y-59682288D01*
X91747403Y-59688582D01*
X91733543Y-59693541D01*
X91719264Y-59697118D01*
X91704703Y-59699278D01*
X91690000Y-59700000D01*
X91390000Y-59700000D01*
X91375297Y-59699278D01*
X91360736Y-59697118D01*
X91346457Y-59693541D01*
X91332597Y-59688582D01*
X91319290Y-59682288D01*
X91306664Y-59674720D01*
X91294841Y-59665952D01*
X91283934Y-59656066D01*
X91274048Y-59645159D01*
X91265280Y-59633336D01*
X91257712Y-59620710D01*
X91251418Y-59607403D01*
X91246459Y-59593543D01*
X91242882Y-59579264D01*
X91240722Y-59564703D01*
X91240000Y-59550000D01*
X91240000Y-58375000D01*
X91240722Y-58360297D01*
X91242882Y-58345736D01*
X91246459Y-58331457D01*
X91251418Y-58317597D01*
X91257712Y-58304290D01*
X91265280Y-58291664D01*
X91274048Y-58279841D01*
X91283934Y-58268934D01*
X91294841Y-58259048D01*
X91306664Y-58250280D01*
X91319290Y-58242712D01*
X91332597Y-58236418D01*
X91346457Y-58231459D01*
X91360736Y-58227882D01*
X91375297Y-58225722D01*
X91390000Y-58225000D01*
X91690000Y-58225000D01*
X91704703Y-58225722D01*
G37*
G04 #@! TD.AperFunction*
G04 #@! TA.AperFunction,SMDPad,CuDef*
G36*
X92974703Y-58225722D02*
G01*
X92989264Y-58227882D01*
X93003543Y-58231459D01*
X93017403Y-58236418D01*
X93030710Y-58242712D01*
X93043336Y-58250280D01*
X93055159Y-58259048D01*
X93066066Y-58268934D01*
X93075952Y-58279841D01*
X93084720Y-58291664D01*
X93092288Y-58304290D01*
X93098582Y-58317597D01*
X93103541Y-58331457D01*
X93107118Y-58345736D01*
X93109278Y-58360297D01*
X93110000Y-58375000D01*
X93110000Y-59550000D01*
X93109278Y-59564703D01*
X93107118Y-59579264D01*
X93103541Y-59593543D01*
X93098582Y-59607403D01*
X93092288Y-59620710D01*
X93084720Y-59633336D01*
X93075952Y-59645159D01*
X93066066Y-59656066D01*
X93055159Y-59665952D01*
X93043336Y-59674720D01*
X93030710Y-59682288D01*
X93017403Y-59688582D01*
X93003543Y-59693541D01*
X92989264Y-59697118D01*
X92974703Y-59699278D01*
X92960000Y-59700000D01*
X92660000Y-59700000D01*
X92645297Y-59699278D01*
X92630736Y-59697118D01*
X92616457Y-59693541D01*
X92602597Y-59688582D01*
X92589290Y-59682288D01*
X92576664Y-59674720D01*
X92564841Y-59665952D01*
X92553934Y-59656066D01*
X92544048Y-59645159D01*
X92535280Y-59633336D01*
X92527712Y-59620710D01*
X92521418Y-59607403D01*
X92516459Y-59593543D01*
X92512882Y-59579264D01*
X92510722Y-59564703D01*
X92510000Y-59550000D01*
X92510000Y-58375000D01*
X92510722Y-58360297D01*
X92512882Y-58345736D01*
X92516459Y-58331457D01*
X92521418Y-58317597D01*
X92527712Y-58304290D01*
X92535280Y-58291664D01*
X92544048Y-58279841D01*
X92553934Y-58268934D01*
X92564841Y-58259048D01*
X92576664Y-58250280D01*
X92589290Y-58242712D01*
X92602597Y-58236418D01*
X92616457Y-58231459D01*
X92630736Y-58227882D01*
X92645297Y-58225722D01*
X92660000Y-58225000D01*
X92960000Y-58225000D01*
X92974703Y-58225722D01*
G37*
G04 #@! TD.AperFunction*
G04 #@! TA.AperFunction,SMDPad,CuDef*
G36*
X95164703Y-60420722D02*
G01*
X95179264Y-60422882D01*
X95193543Y-60426459D01*
X95207403Y-60431418D01*
X95220710Y-60437712D01*
X95233336Y-60445280D01*
X95245159Y-60454048D01*
X95256066Y-60463934D01*
X95265952Y-60474841D01*
X95274720Y-60486664D01*
X95282288Y-60499290D01*
X95288582Y-60512597D01*
X95293541Y-60526457D01*
X95297118Y-60540736D01*
X95299278Y-60555297D01*
X95300000Y-60570000D01*
X95300000Y-60870000D01*
X95299278Y-60884703D01*
X95297118Y-60899264D01*
X95293541Y-60913543D01*
X95288582Y-60927403D01*
X95282288Y-60940710D01*
X95274720Y-60953336D01*
X95265952Y-60965159D01*
X95256066Y-60976066D01*
X95245159Y-60985952D01*
X95233336Y-60994720D01*
X95220710Y-61002288D01*
X95207403Y-61008582D01*
X95193543Y-61013541D01*
X95179264Y-61017118D01*
X95164703Y-61019278D01*
X95150000Y-61020000D01*
X93975000Y-61020000D01*
X93960297Y-61019278D01*
X93945736Y-61017118D01*
X93931457Y-61013541D01*
X93917597Y-61008582D01*
X93904290Y-61002288D01*
X93891664Y-60994720D01*
X93879841Y-60985952D01*
X93868934Y-60976066D01*
X93859048Y-60965159D01*
X93850280Y-60953336D01*
X93842712Y-60940710D01*
X93836418Y-60927403D01*
X93831459Y-60913543D01*
X93827882Y-60899264D01*
X93825722Y-60884703D01*
X93825000Y-60870000D01*
X93825000Y-60570000D01*
X93825722Y-60555297D01*
X93827882Y-60540736D01*
X93831459Y-60526457D01*
X93836418Y-60512597D01*
X93842712Y-60499290D01*
X93850280Y-60486664D01*
X93859048Y-60474841D01*
X93868934Y-60463934D01*
X93879841Y-60454048D01*
X93891664Y-60445280D01*
X93904290Y-60437712D01*
X93917597Y-60431418D01*
X93931457Y-60426459D01*
X93945736Y-60422882D01*
X93960297Y-60420722D01*
X93975000Y-60420000D01*
X95150000Y-60420000D01*
X95164703Y-60420722D01*
G37*
G04 #@! TD.AperFunction*
G04 #@! TA.AperFunction,SMDPad,CuDef*
G36*
X95164703Y-61690722D02*
G01*
X95179264Y-61692882D01*
X95193543Y-61696459D01*
X95207403Y-61701418D01*
X95220710Y-61707712D01*
X95233336Y-61715280D01*
X95245159Y-61724048D01*
X95256066Y-61733934D01*
X95265952Y-61744841D01*
X95274720Y-61756664D01*
X95282288Y-61769290D01*
X95288582Y-61782597D01*
X95293541Y-61796457D01*
X95297118Y-61810736D01*
X95299278Y-61825297D01*
X95300000Y-61840000D01*
X95300000Y-62140000D01*
X95299278Y-62154703D01*
X95297118Y-62169264D01*
X95293541Y-62183543D01*
X95288582Y-62197403D01*
X95282288Y-62210710D01*
X95274720Y-62223336D01*
X95265952Y-62235159D01*
X95256066Y-62246066D01*
X95245159Y-62255952D01*
X95233336Y-62264720D01*
X95220710Y-62272288D01*
X95207403Y-62278582D01*
X95193543Y-62283541D01*
X95179264Y-62287118D01*
X95164703Y-62289278D01*
X95150000Y-62290000D01*
X93975000Y-62290000D01*
X93960297Y-62289278D01*
X93945736Y-62287118D01*
X93931457Y-62283541D01*
X93917597Y-62278582D01*
X93904290Y-62272288D01*
X93891664Y-62264720D01*
X93879841Y-62255952D01*
X93868934Y-62246066D01*
X93859048Y-62235159D01*
X93850280Y-62223336D01*
X93842712Y-62210710D01*
X93836418Y-62197403D01*
X93831459Y-62183543D01*
X93827882Y-62169264D01*
X93825722Y-62154703D01*
X93825000Y-62140000D01*
X93825000Y-61840000D01*
X93825722Y-61825297D01*
X93827882Y-61810736D01*
X93831459Y-61796457D01*
X93836418Y-61782597D01*
X93842712Y-61769290D01*
X93850280Y-61756664D01*
X93859048Y-61744841D01*
X93868934Y-61733934D01*
X93879841Y-61724048D01*
X93891664Y-61715280D01*
X93904290Y-61707712D01*
X93917597Y-61701418D01*
X93931457Y-61696459D01*
X93945736Y-61692882D01*
X93960297Y-61690722D01*
X93975000Y-61690000D01*
X95150000Y-61690000D01*
X95164703Y-61690722D01*
G37*
G04 #@! TD.AperFunction*
G04 #@! TA.AperFunction,SMDPad,CuDef*
G36*
X95164703Y-62960722D02*
G01*
X95179264Y-62962882D01*
X95193543Y-62966459D01*
X95207403Y-62971418D01*
X95220710Y-62977712D01*
X95233336Y-62985280D01*
X95245159Y-62994048D01*
X95256066Y-63003934D01*
X95265952Y-63014841D01*
X95274720Y-63026664D01*
X95282288Y-63039290D01*
X95288582Y-63052597D01*
X95293541Y-63066457D01*
X95297118Y-63080736D01*
X95299278Y-63095297D01*
X95300000Y-63110000D01*
X95300000Y-63410000D01*
X95299278Y-63424703D01*
X95297118Y-63439264D01*
X95293541Y-63453543D01*
X95288582Y-63467403D01*
X95282288Y-63480710D01*
X95274720Y-63493336D01*
X95265952Y-63505159D01*
X95256066Y-63516066D01*
X95245159Y-63525952D01*
X95233336Y-63534720D01*
X95220710Y-63542288D01*
X95207403Y-63548582D01*
X95193543Y-63553541D01*
X95179264Y-63557118D01*
X95164703Y-63559278D01*
X95150000Y-63560000D01*
X93975000Y-63560000D01*
X93960297Y-63559278D01*
X93945736Y-63557118D01*
X93931457Y-63553541D01*
X93917597Y-63548582D01*
X93904290Y-63542288D01*
X93891664Y-63534720D01*
X93879841Y-63525952D01*
X93868934Y-63516066D01*
X93859048Y-63505159D01*
X93850280Y-63493336D01*
X93842712Y-63480710D01*
X93836418Y-63467403D01*
X93831459Y-63453543D01*
X93827882Y-63439264D01*
X93825722Y-63424703D01*
X93825000Y-63410000D01*
X93825000Y-63110000D01*
X93825722Y-63095297D01*
X93827882Y-63080736D01*
X93831459Y-63066457D01*
X93836418Y-63052597D01*
X93842712Y-63039290D01*
X93850280Y-63026664D01*
X93859048Y-63014841D01*
X93868934Y-63003934D01*
X93879841Y-62994048D01*
X93891664Y-62985280D01*
X93904290Y-62977712D01*
X93917597Y-62971418D01*
X93931457Y-62966459D01*
X93945736Y-62962882D01*
X93960297Y-62960722D01*
X93975000Y-62960000D01*
X95150000Y-62960000D01*
X95164703Y-62960722D01*
G37*
G04 #@! TD.AperFunction*
G04 #@! TA.AperFunction,SMDPad,CuDef*
G36*
X95164703Y-64230722D02*
G01*
X95179264Y-64232882D01*
X95193543Y-64236459D01*
X95207403Y-64241418D01*
X95220710Y-64247712D01*
X95233336Y-64255280D01*
X95245159Y-64264048D01*
X95256066Y-64273934D01*
X95265952Y-64284841D01*
X95274720Y-64296664D01*
X95282288Y-64309290D01*
X95288582Y-64322597D01*
X95293541Y-64336457D01*
X95297118Y-64350736D01*
X95299278Y-64365297D01*
X95300000Y-64380000D01*
X95300000Y-64680000D01*
X95299278Y-64694703D01*
X95297118Y-64709264D01*
X95293541Y-64723543D01*
X95288582Y-64737403D01*
X95282288Y-64750710D01*
X95274720Y-64763336D01*
X95265952Y-64775159D01*
X95256066Y-64786066D01*
X95245159Y-64795952D01*
X95233336Y-64804720D01*
X95220710Y-64812288D01*
X95207403Y-64818582D01*
X95193543Y-64823541D01*
X95179264Y-64827118D01*
X95164703Y-64829278D01*
X95150000Y-64830000D01*
X93975000Y-64830000D01*
X93960297Y-64829278D01*
X93945736Y-64827118D01*
X93931457Y-64823541D01*
X93917597Y-64818582D01*
X93904290Y-64812288D01*
X93891664Y-64804720D01*
X93879841Y-64795952D01*
X93868934Y-64786066D01*
X93859048Y-64775159D01*
X93850280Y-64763336D01*
X93842712Y-64750710D01*
X93836418Y-64737403D01*
X93831459Y-64723543D01*
X93827882Y-64709264D01*
X93825722Y-64694703D01*
X93825000Y-64680000D01*
X93825000Y-64380000D01*
X93825722Y-64365297D01*
X93827882Y-64350736D01*
X93831459Y-64336457D01*
X93836418Y-64322597D01*
X93842712Y-64309290D01*
X93850280Y-64296664D01*
X93859048Y-64284841D01*
X93868934Y-64273934D01*
X93879841Y-64264048D01*
X93891664Y-64255280D01*
X93904290Y-64247712D01*
X93917597Y-64241418D01*
X93931457Y-64236459D01*
X93945736Y-64232882D01*
X93960297Y-64230722D01*
X93975000Y-64230000D01*
X95150000Y-64230000D01*
X95164703Y-64230722D01*
G37*
G04 #@! TD.AperFunction*
G04 #@! TA.AperFunction,SMDPad,CuDef*
G36*
X95164703Y-65500722D02*
G01*
X95179264Y-65502882D01*
X95193543Y-65506459D01*
X95207403Y-65511418D01*
X95220710Y-65517712D01*
X95233336Y-65525280D01*
X95245159Y-65534048D01*
X95256066Y-65543934D01*
X95265952Y-65554841D01*
X95274720Y-65566664D01*
X95282288Y-65579290D01*
X95288582Y-65592597D01*
X95293541Y-65606457D01*
X95297118Y-65620736D01*
X95299278Y-65635297D01*
X95300000Y-65650000D01*
X95300000Y-65950000D01*
X95299278Y-65964703D01*
X95297118Y-65979264D01*
X95293541Y-65993543D01*
X95288582Y-66007403D01*
X95282288Y-66020710D01*
X95274720Y-66033336D01*
X95265952Y-66045159D01*
X95256066Y-66056066D01*
X95245159Y-66065952D01*
X95233336Y-66074720D01*
X95220710Y-66082288D01*
X95207403Y-66088582D01*
X95193543Y-66093541D01*
X95179264Y-66097118D01*
X95164703Y-66099278D01*
X95150000Y-66100000D01*
X93975000Y-66100000D01*
X93960297Y-66099278D01*
X93945736Y-66097118D01*
X93931457Y-66093541D01*
X93917597Y-66088582D01*
X93904290Y-66082288D01*
X93891664Y-66074720D01*
X93879841Y-66065952D01*
X93868934Y-66056066D01*
X93859048Y-66045159D01*
X93850280Y-66033336D01*
X93842712Y-66020710D01*
X93836418Y-66007403D01*
X93831459Y-65993543D01*
X93827882Y-65979264D01*
X93825722Y-65964703D01*
X93825000Y-65950000D01*
X93825000Y-65650000D01*
X93825722Y-65635297D01*
X93827882Y-65620736D01*
X93831459Y-65606457D01*
X93836418Y-65592597D01*
X93842712Y-65579290D01*
X93850280Y-65566664D01*
X93859048Y-65554841D01*
X93868934Y-65543934D01*
X93879841Y-65534048D01*
X93891664Y-65525280D01*
X93904290Y-65517712D01*
X93917597Y-65511418D01*
X93931457Y-65506459D01*
X93945736Y-65502882D01*
X93960297Y-65500722D01*
X93975000Y-65500000D01*
X95150000Y-65500000D01*
X95164703Y-65500722D01*
G37*
G04 #@! TD.AperFunction*
G04 #@! TA.AperFunction,SMDPad,CuDef*
G36*
X95164703Y-66770722D02*
G01*
X95179264Y-66772882D01*
X95193543Y-66776459D01*
X95207403Y-66781418D01*
X95220710Y-66787712D01*
X95233336Y-66795280D01*
X95245159Y-66804048D01*
X95256066Y-66813934D01*
X95265952Y-66824841D01*
X95274720Y-66836664D01*
X95282288Y-66849290D01*
X95288582Y-66862597D01*
X95293541Y-66876457D01*
X95297118Y-66890736D01*
X95299278Y-66905297D01*
X95300000Y-66920000D01*
X95300000Y-67220000D01*
X95299278Y-67234703D01*
X95297118Y-67249264D01*
X95293541Y-67263543D01*
X95288582Y-67277403D01*
X95282288Y-67290710D01*
X95274720Y-67303336D01*
X95265952Y-67315159D01*
X95256066Y-67326066D01*
X95245159Y-67335952D01*
X95233336Y-67344720D01*
X95220710Y-67352288D01*
X95207403Y-67358582D01*
X95193543Y-67363541D01*
X95179264Y-67367118D01*
X95164703Y-67369278D01*
X95150000Y-67370000D01*
X93975000Y-67370000D01*
X93960297Y-67369278D01*
X93945736Y-67367118D01*
X93931457Y-67363541D01*
X93917597Y-67358582D01*
X93904290Y-67352288D01*
X93891664Y-67344720D01*
X93879841Y-67335952D01*
X93868934Y-67326066D01*
X93859048Y-67315159D01*
X93850280Y-67303336D01*
X93842712Y-67290710D01*
X93836418Y-67277403D01*
X93831459Y-67263543D01*
X93827882Y-67249264D01*
X93825722Y-67234703D01*
X93825000Y-67220000D01*
X93825000Y-66920000D01*
X93825722Y-66905297D01*
X93827882Y-66890736D01*
X93831459Y-66876457D01*
X93836418Y-66862597D01*
X93842712Y-66849290D01*
X93850280Y-66836664D01*
X93859048Y-66824841D01*
X93868934Y-66813934D01*
X93879841Y-66804048D01*
X93891664Y-66795280D01*
X93904290Y-66787712D01*
X93917597Y-66781418D01*
X93931457Y-66776459D01*
X93945736Y-66772882D01*
X93960297Y-66770722D01*
X93975000Y-66770000D01*
X95150000Y-66770000D01*
X95164703Y-66770722D01*
G37*
G04 #@! TD.AperFunction*
G04 #@! TA.AperFunction,SMDPad,CuDef*
G36*
X95164703Y-68040722D02*
G01*
X95179264Y-68042882D01*
X95193543Y-68046459D01*
X95207403Y-68051418D01*
X95220710Y-68057712D01*
X95233336Y-68065280D01*
X95245159Y-68074048D01*
X95256066Y-68083934D01*
X95265952Y-68094841D01*
X95274720Y-68106664D01*
X95282288Y-68119290D01*
X95288582Y-68132597D01*
X95293541Y-68146457D01*
X95297118Y-68160736D01*
X95299278Y-68175297D01*
X95300000Y-68190000D01*
X95300000Y-68490000D01*
X95299278Y-68504703D01*
X95297118Y-68519264D01*
X95293541Y-68533543D01*
X95288582Y-68547403D01*
X95282288Y-68560710D01*
X95274720Y-68573336D01*
X95265952Y-68585159D01*
X95256066Y-68596066D01*
X95245159Y-68605952D01*
X95233336Y-68614720D01*
X95220710Y-68622288D01*
X95207403Y-68628582D01*
X95193543Y-68633541D01*
X95179264Y-68637118D01*
X95164703Y-68639278D01*
X95150000Y-68640000D01*
X93975000Y-68640000D01*
X93960297Y-68639278D01*
X93945736Y-68637118D01*
X93931457Y-68633541D01*
X93917597Y-68628582D01*
X93904290Y-68622288D01*
X93891664Y-68614720D01*
X93879841Y-68605952D01*
X93868934Y-68596066D01*
X93859048Y-68585159D01*
X93850280Y-68573336D01*
X93842712Y-68560710D01*
X93836418Y-68547403D01*
X93831459Y-68533543D01*
X93827882Y-68519264D01*
X93825722Y-68504703D01*
X93825000Y-68490000D01*
X93825000Y-68190000D01*
X93825722Y-68175297D01*
X93827882Y-68160736D01*
X93831459Y-68146457D01*
X93836418Y-68132597D01*
X93842712Y-68119290D01*
X93850280Y-68106664D01*
X93859048Y-68094841D01*
X93868934Y-68083934D01*
X93879841Y-68074048D01*
X93891664Y-68065280D01*
X93904290Y-68057712D01*
X93917597Y-68051418D01*
X93931457Y-68046459D01*
X93945736Y-68042882D01*
X93960297Y-68040722D01*
X93975000Y-68040000D01*
X95150000Y-68040000D01*
X95164703Y-68040722D01*
G37*
G04 #@! TD.AperFunction*
G04 #@! TA.AperFunction,SMDPad,CuDef*
G36*
X95164703Y-69310722D02*
G01*
X95179264Y-69312882D01*
X95193543Y-69316459D01*
X95207403Y-69321418D01*
X95220710Y-69327712D01*
X95233336Y-69335280D01*
X95245159Y-69344048D01*
X95256066Y-69353934D01*
X95265952Y-69364841D01*
X95274720Y-69376664D01*
X95282288Y-69389290D01*
X95288582Y-69402597D01*
X95293541Y-69416457D01*
X95297118Y-69430736D01*
X95299278Y-69445297D01*
X95300000Y-69460000D01*
X95300000Y-69760000D01*
X95299278Y-69774703D01*
X95297118Y-69789264D01*
X95293541Y-69803543D01*
X95288582Y-69817403D01*
X95282288Y-69830710D01*
X95274720Y-69843336D01*
X95265952Y-69855159D01*
X95256066Y-69866066D01*
X95245159Y-69875952D01*
X95233336Y-69884720D01*
X95220710Y-69892288D01*
X95207403Y-69898582D01*
X95193543Y-69903541D01*
X95179264Y-69907118D01*
X95164703Y-69909278D01*
X95150000Y-69910000D01*
X93975000Y-69910000D01*
X93960297Y-69909278D01*
X93945736Y-69907118D01*
X93931457Y-69903541D01*
X93917597Y-69898582D01*
X93904290Y-69892288D01*
X93891664Y-69884720D01*
X93879841Y-69875952D01*
X93868934Y-69866066D01*
X93859048Y-69855159D01*
X93850280Y-69843336D01*
X93842712Y-69830710D01*
X93836418Y-69817403D01*
X93831459Y-69803543D01*
X93827882Y-69789264D01*
X93825722Y-69774703D01*
X93825000Y-69760000D01*
X93825000Y-69460000D01*
X93825722Y-69445297D01*
X93827882Y-69430736D01*
X93831459Y-69416457D01*
X93836418Y-69402597D01*
X93842712Y-69389290D01*
X93850280Y-69376664D01*
X93859048Y-69364841D01*
X93868934Y-69353934D01*
X93879841Y-69344048D01*
X93891664Y-69335280D01*
X93904290Y-69327712D01*
X93917597Y-69321418D01*
X93931457Y-69316459D01*
X93945736Y-69312882D01*
X93960297Y-69310722D01*
X93975000Y-69310000D01*
X95150000Y-69310000D01*
X95164703Y-69310722D01*
G37*
G04 #@! TD.AperFunction*
G04 #@! TA.AperFunction,SMDPad,CuDef*
G36*
X95164703Y-70580722D02*
G01*
X95179264Y-70582882D01*
X95193543Y-70586459D01*
X95207403Y-70591418D01*
X95220710Y-70597712D01*
X95233336Y-70605280D01*
X95245159Y-70614048D01*
X95256066Y-70623934D01*
X95265952Y-70634841D01*
X95274720Y-70646664D01*
X95282288Y-70659290D01*
X95288582Y-70672597D01*
X95293541Y-70686457D01*
X95297118Y-70700736D01*
X95299278Y-70715297D01*
X95300000Y-70730000D01*
X95300000Y-71030000D01*
X95299278Y-71044703D01*
X95297118Y-71059264D01*
X95293541Y-71073543D01*
X95288582Y-71087403D01*
X95282288Y-71100710D01*
X95274720Y-71113336D01*
X95265952Y-71125159D01*
X95256066Y-71136066D01*
X95245159Y-71145952D01*
X95233336Y-71154720D01*
X95220710Y-71162288D01*
X95207403Y-71168582D01*
X95193543Y-71173541D01*
X95179264Y-71177118D01*
X95164703Y-71179278D01*
X95150000Y-71180000D01*
X93975000Y-71180000D01*
X93960297Y-71179278D01*
X93945736Y-71177118D01*
X93931457Y-71173541D01*
X93917597Y-71168582D01*
X93904290Y-71162288D01*
X93891664Y-71154720D01*
X93879841Y-71145952D01*
X93868934Y-71136066D01*
X93859048Y-71125159D01*
X93850280Y-71113336D01*
X93842712Y-71100710D01*
X93836418Y-71087403D01*
X93831459Y-71073543D01*
X93827882Y-71059264D01*
X93825722Y-71044703D01*
X93825000Y-71030000D01*
X93825000Y-70730000D01*
X93825722Y-70715297D01*
X93827882Y-70700736D01*
X93831459Y-70686457D01*
X93836418Y-70672597D01*
X93842712Y-70659290D01*
X93850280Y-70646664D01*
X93859048Y-70634841D01*
X93868934Y-70623934D01*
X93879841Y-70614048D01*
X93891664Y-70605280D01*
X93904290Y-70597712D01*
X93917597Y-70591418D01*
X93931457Y-70586459D01*
X93945736Y-70582882D01*
X93960297Y-70580722D01*
X93975000Y-70580000D01*
X95150000Y-70580000D01*
X95164703Y-70580722D01*
G37*
G04 #@! TD.AperFunction*
G04 #@! TA.AperFunction,SMDPad,CuDef*
G36*
X92974703Y-71900722D02*
G01*
X92989264Y-71902882D01*
X93003543Y-71906459D01*
X93017403Y-71911418D01*
X93030710Y-71917712D01*
X93043336Y-71925280D01*
X93055159Y-71934048D01*
X93066066Y-71943934D01*
X93075952Y-71954841D01*
X93084720Y-71966664D01*
X93092288Y-71979290D01*
X93098582Y-71992597D01*
X93103541Y-72006457D01*
X93107118Y-72020736D01*
X93109278Y-72035297D01*
X93110000Y-72050000D01*
X93110000Y-73225000D01*
X93109278Y-73239703D01*
X93107118Y-73254264D01*
X93103541Y-73268543D01*
X93098582Y-73282403D01*
X93092288Y-73295710D01*
X93084720Y-73308336D01*
X93075952Y-73320159D01*
X93066066Y-73331066D01*
X93055159Y-73340952D01*
X93043336Y-73349720D01*
X93030710Y-73357288D01*
X93017403Y-73363582D01*
X93003543Y-73368541D01*
X92989264Y-73372118D01*
X92974703Y-73374278D01*
X92960000Y-73375000D01*
X92660000Y-73375000D01*
X92645297Y-73374278D01*
X92630736Y-73372118D01*
X92616457Y-73368541D01*
X92602597Y-73363582D01*
X92589290Y-73357288D01*
X92576664Y-73349720D01*
X92564841Y-73340952D01*
X92553934Y-73331066D01*
X92544048Y-73320159D01*
X92535280Y-73308336D01*
X92527712Y-73295710D01*
X92521418Y-73282403D01*
X92516459Y-73268543D01*
X92512882Y-73254264D01*
X92510722Y-73239703D01*
X92510000Y-73225000D01*
X92510000Y-72050000D01*
X92510722Y-72035297D01*
X92512882Y-72020736D01*
X92516459Y-72006457D01*
X92521418Y-71992597D01*
X92527712Y-71979290D01*
X92535280Y-71966664D01*
X92544048Y-71954841D01*
X92553934Y-71943934D01*
X92564841Y-71934048D01*
X92576664Y-71925280D01*
X92589290Y-71917712D01*
X92602597Y-71911418D01*
X92616457Y-71906459D01*
X92630736Y-71902882D01*
X92645297Y-71900722D01*
X92660000Y-71900000D01*
X92960000Y-71900000D01*
X92974703Y-71900722D01*
G37*
G04 #@! TD.AperFunction*
G04 #@! TA.AperFunction,SMDPad,CuDef*
G36*
X91704703Y-71900722D02*
G01*
X91719264Y-71902882D01*
X91733543Y-71906459D01*
X91747403Y-71911418D01*
X91760710Y-71917712D01*
X91773336Y-71925280D01*
X91785159Y-71934048D01*
X91796066Y-71943934D01*
X91805952Y-71954841D01*
X91814720Y-71966664D01*
X91822288Y-71979290D01*
X91828582Y-71992597D01*
X91833541Y-72006457D01*
X91837118Y-72020736D01*
X91839278Y-72035297D01*
X91840000Y-72050000D01*
X91840000Y-73225000D01*
X91839278Y-73239703D01*
X91837118Y-73254264D01*
X91833541Y-73268543D01*
X91828582Y-73282403D01*
X91822288Y-73295710D01*
X91814720Y-73308336D01*
X91805952Y-73320159D01*
X91796066Y-73331066D01*
X91785159Y-73340952D01*
X91773336Y-73349720D01*
X91760710Y-73357288D01*
X91747403Y-73363582D01*
X91733543Y-73368541D01*
X91719264Y-73372118D01*
X91704703Y-73374278D01*
X91690000Y-73375000D01*
X91390000Y-73375000D01*
X91375297Y-73374278D01*
X91360736Y-73372118D01*
X91346457Y-73368541D01*
X91332597Y-73363582D01*
X91319290Y-73357288D01*
X91306664Y-73349720D01*
X91294841Y-73340952D01*
X91283934Y-73331066D01*
X91274048Y-73320159D01*
X91265280Y-73308336D01*
X91257712Y-73295710D01*
X91251418Y-73282403D01*
X91246459Y-73268543D01*
X91242882Y-73254264D01*
X91240722Y-73239703D01*
X91240000Y-73225000D01*
X91240000Y-72050000D01*
X91240722Y-72035297D01*
X91242882Y-72020736D01*
X91246459Y-72006457D01*
X91251418Y-71992597D01*
X91257712Y-71979290D01*
X91265280Y-71966664D01*
X91274048Y-71954841D01*
X91283934Y-71943934D01*
X91294841Y-71934048D01*
X91306664Y-71925280D01*
X91319290Y-71917712D01*
X91332597Y-71911418D01*
X91346457Y-71906459D01*
X91360736Y-71902882D01*
X91375297Y-71900722D01*
X91390000Y-71900000D01*
X91690000Y-71900000D01*
X91704703Y-71900722D01*
G37*
G04 #@! TD.AperFunction*
G04 #@! TA.AperFunction,SMDPad,CuDef*
G36*
X90434703Y-71900722D02*
G01*
X90449264Y-71902882D01*
X90463543Y-71906459D01*
X90477403Y-71911418D01*
X90490710Y-71917712D01*
X90503336Y-71925280D01*
X90515159Y-71934048D01*
X90526066Y-71943934D01*
X90535952Y-71954841D01*
X90544720Y-71966664D01*
X90552288Y-71979290D01*
X90558582Y-71992597D01*
X90563541Y-72006457D01*
X90567118Y-72020736D01*
X90569278Y-72035297D01*
X90570000Y-72050000D01*
X90570000Y-73225000D01*
X90569278Y-73239703D01*
X90567118Y-73254264D01*
X90563541Y-73268543D01*
X90558582Y-73282403D01*
X90552288Y-73295710D01*
X90544720Y-73308336D01*
X90535952Y-73320159D01*
X90526066Y-73331066D01*
X90515159Y-73340952D01*
X90503336Y-73349720D01*
X90490710Y-73357288D01*
X90477403Y-73363582D01*
X90463543Y-73368541D01*
X90449264Y-73372118D01*
X90434703Y-73374278D01*
X90420000Y-73375000D01*
X90120000Y-73375000D01*
X90105297Y-73374278D01*
X90090736Y-73372118D01*
X90076457Y-73368541D01*
X90062597Y-73363582D01*
X90049290Y-73357288D01*
X90036664Y-73349720D01*
X90024841Y-73340952D01*
X90013934Y-73331066D01*
X90004048Y-73320159D01*
X89995280Y-73308336D01*
X89987712Y-73295710D01*
X89981418Y-73282403D01*
X89976459Y-73268543D01*
X89972882Y-73254264D01*
X89970722Y-73239703D01*
X89970000Y-73225000D01*
X89970000Y-72050000D01*
X89970722Y-72035297D01*
X89972882Y-72020736D01*
X89976459Y-72006457D01*
X89981418Y-71992597D01*
X89987712Y-71979290D01*
X89995280Y-71966664D01*
X90004048Y-71954841D01*
X90013934Y-71943934D01*
X90024841Y-71934048D01*
X90036664Y-71925280D01*
X90049290Y-71917712D01*
X90062597Y-71911418D01*
X90076457Y-71906459D01*
X90090736Y-71902882D01*
X90105297Y-71900722D01*
X90120000Y-71900000D01*
X90420000Y-71900000D01*
X90434703Y-71900722D01*
G37*
G04 #@! TD.AperFunction*
G04 #@! TA.AperFunction,SMDPad,CuDef*
G36*
X89164703Y-71900722D02*
G01*
X89179264Y-71902882D01*
X89193543Y-71906459D01*
X89207403Y-71911418D01*
X89220710Y-71917712D01*
X89233336Y-71925280D01*
X89245159Y-71934048D01*
X89256066Y-71943934D01*
X89265952Y-71954841D01*
X89274720Y-71966664D01*
X89282288Y-71979290D01*
X89288582Y-71992597D01*
X89293541Y-72006457D01*
X89297118Y-72020736D01*
X89299278Y-72035297D01*
X89300000Y-72050000D01*
X89300000Y-73225000D01*
X89299278Y-73239703D01*
X89297118Y-73254264D01*
X89293541Y-73268543D01*
X89288582Y-73282403D01*
X89282288Y-73295710D01*
X89274720Y-73308336D01*
X89265952Y-73320159D01*
X89256066Y-73331066D01*
X89245159Y-73340952D01*
X89233336Y-73349720D01*
X89220710Y-73357288D01*
X89207403Y-73363582D01*
X89193543Y-73368541D01*
X89179264Y-73372118D01*
X89164703Y-73374278D01*
X89150000Y-73375000D01*
X88850000Y-73375000D01*
X88835297Y-73374278D01*
X88820736Y-73372118D01*
X88806457Y-73368541D01*
X88792597Y-73363582D01*
X88779290Y-73357288D01*
X88766664Y-73349720D01*
X88754841Y-73340952D01*
X88743934Y-73331066D01*
X88734048Y-73320159D01*
X88725280Y-73308336D01*
X88717712Y-73295710D01*
X88711418Y-73282403D01*
X88706459Y-73268543D01*
X88702882Y-73254264D01*
X88700722Y-73239703D01*
X88700000Y-73225000D01*
X88700000Y-72050000D01*
X88700722Y-72035297D01*
X88702882Y-72020736D01*
X88706459Y-72006457D01*
X88711418Y-71992597D01*
X88717712Y-71979290D01*
X88725280Y-71966664D01*
X88734048Y-71954841D01*
X88743934Y-71943934D01*
X88754841Y-71934048D01*
X88766664Y-71925280D01*
X88779290Y-71917712D01*
X88792597Y-71911418D01*
X88806457Y-71906459D01*
X88820736Y-71902882D01*
X88835297Y-71900722D01*
X88850000Y-71900000D01*
X89150000Y-71900000D01*
X89164703Y-71900722D01*
G37*
G04 #@! TD.AperFunction*
G04 #@! TA.AperFunction,SMDPad,CuDef*
G36*
X87894703Y-71900722D02*
G01*
X87909264Y-71902882D01*
X87923543Y-71906459D01*
X87937403Y-71911418D01*
X87950710Y-71917712D01*
X87963336Y-71925280D01*
X87975159Y-71934048D01*
X87986066Y-71943934D01*
X87995952Y-71954841D01*
X88004720Y-71966664D01*
X88012288Y-71979290D01*
X88018582Y-71992597D01*
X88023541Y-72006457D01*
X88027118Y-72020736D01*
X88029278Y-72035297D01*
X88030000Y-72050000D01*
X88030000Y-73225000D01*
X88029278Y-73239703D01*
X88027118Y-73254264D01*
X88023541Y-73268543D01*
X88018582Y-73282403D01*
X88012288Y-73295710D01*
X88004720Y-73308336D01*
X87995952Y-73320159D01*
X87986066Y-73331066D01*
X87975159Y-73340952D01*
X87963336Y-73349720D01*
X87950710Y-73357288D01*
X87937403Y-73363582D01*
X87923543Y-73368541D01*
X87909264Y-73372118D01*
X87894703Y-73374278D01*
X87880000Y-73375000D01*
X87580000Y-73375000D01*
X87565297Y-73374278D01*
X87550736Y-73372118D01*
X87536457Y-73368541D01*
X87522597Y-73363582D01*
X87509290Y-73357288D01*
X87496664Y-73349720D01*
X87484841Y-73340952D01*
X87473934Y-73331066D01*
X87464048Y-73320159D01*
X87455280Y-73308336D01*
X87447712Y-73295710D01*
X87441418Y-73282403D01*
X87436459Y-73268543D01*
X87432882Y-73254264D01*
X87430722Y-73239703D01*
X87430000Y-73225000D01*
X87430000Y-72050000D01*
X87430722Y-72035297D01*
X87432882Y-72020736D01*
X87436459Y-72006457D01*
X87441418Y-71992597D01*
X87447712Y-71979290D01*
X87455280Y-71966664D01*
X87464048Y-71954841D01*
X87473934Y-71943934D01*
X87484841Y-71934048D01*
X87496664Y-71925280D01*
X87509290Y-71917712D01*
X87522597Y-71911418D01*
X87536457Y-71906459D01*
X87550736Y-71902882D01*
X87565297Y-71900722D01*
X87580000Y-71900000D01*
X87880000Y-71900000D01*
X87894703Y-71900722D01*
G37*
G04 #@! TD.AperFunction*
G04 #@! TA.AperFunction,SMDPad,CuDef*
G36*
X86624703Y-71900722D02*
G01*
X86639264Y-71902882D01*
X86653543Y-71906459D01*
X86667403Y-71911418D01*
X86680710Y-71917712D01*
X86693336Y-71925280D01*
X86705159Y-71934048D01*
X86716066Y-71943934D01*
X86725952Y-71954841D01*
X86734720Y-71966664D01*
X86742288Y-71979290D01*
X86748582Y-71992597D01*
X86753541Y-72006457D01*
X86757118Y-72020736D01*
X86759278Y-72035297D01*
X86760000Y-72050000D01*
X86760000Y-73225000D01*
X86759278Y-73239703D01*
X86757118Y-73254264D01*
X86753541Y-73268543D01*
X86748582Y-73282403D01*
X86742288Y-73295710D01*
X86734720Y-73308336D01*
X86725952Y-73320159D01*
X86716066Y-73331066D01*
X86705159Y-73340952D01*
X86693336Y-73349720D01*
X86680710Y-73357288D01*
X86667403Y-73363582D01*
X86653543Y-73368541D01*
X86639264Y-73372118D01*
X86624703Y-73374278D01*
X86610000Y-73375000D01*
X86310000Y-73375000D01*
X86295297Y-73374278D01*
X86280736Y-73372118D01*
X86266457Y-73368541D01*
X86252597Y-73363582D01*
X86239290Y-73357288D01*
X86226664Y-73349720D01*
X86214841Y-73340952D01*
X86203934Y-73331066D01*
X86194048Y-73320159D01*
X86185280Y-73308336D01*
X86177712Y-73295710D01*
X86171418Y-73282403D01*
X86166459Y-73268543D01*
X86162882Y-73254264D01*
X86160722Y-73239703D01*
X86160000Y-73225000D01*
X86160000Y-72050000D01*
X86160722Y-72035297D01*
X86162882Y-72020736D01*
X86166459Y-72006457D01*
X86171418Y-71992597D01*
X86177712Y-71979290D01*
X86185280Y-71966664D01*
X86194048Y-71954841D01*
X86203934Y-71943934D01*
X86214841Y-71934048D01*
X86226664Y-71925280D01*
X86239290Y-71917712D01*
X86252597Y-71911418D01*
X86266457Y-71906459D01*
X86280736Y-71902882D01*
X86295297Y-71900722D01*
X86310000Y-71900000D01*
X86610000Y-71900000D01*
X86624703Y-71900722D01*
G37*
G04 #@! TD.AperFunction*
G04 #@! TA.AperFunction,SMDPad,CuDef*
G36*
X85354703Y-71900722D02*
G01*
X85369264Y-71902882D01*
X85383543Y-71906459D01*
X85397403Y-71911418D01*
X85410710Y-71917712D01*
X85423336Y-71925280D01*
X85435159Y-71934048D01*
X85446066Y-71943934D01*
X85455952Y-71954841D01*
X85464720Y-71966664D01*
X85472288Y-71979290D01*
X85478582Y-71992597D01*
X85483541Y-72006457D01*
X85487118Y-72020736D01*
X85489278Y-72035297D01*
X85490000Y-72050000D01*
X85490000Y-73225000D01*
X85489278Y-73239703D01*
X85487118Y-73254264D01*
X85483541Y-73268543D01*
X85478582Y-73282403D01*
X85472288Y-73295710D01*
X85464720Y-73308336D01*
X85455952Y-73320159D01*
X85446066Y-73331066D01*
X85435159Y-73340952D01*
X85423336Y-73349720D01*
X85410710Y-73357288D01*
X85397403Y-73363582D01*
X85383543Y-73368541D01*
X85369264Y-73372118D01*
X85354703Y-73374278D01*
X85340000Y-73375000D01*
X85040000Y-73375000D01*
X85025297Y-73374278D01*
X85010736Y-73372118D01*
X84996457Y-73368541D01*
X84982597Y-73363582D01*
X84969290Y-73357288D01*
X84956664Y-73349720D01*
X84944841Y-73340952D01*
X84933934Y-73331066D01*
X84924048Y-73320159D01*
X84915280Y-73308336D01*
X84907712Y-73295710D01*
X84901418Y-73282403D01*
X84896459Y-73268543D01*
X84892882Y-73254264D01*
X84890722Y-73239703D01*
X84890000Y-73225000D01*
X84890000Y-72050000D01*
X84890722Y-72035297D01*
X84892882Y-72020736D01*
X84896459Y-72006457D01*
X84901418Y-71992597D01*
X84907712Y-71979290D01*
X84915280Y-71966664D01*
X84924048Y-71954841D01*
X84933934Y-71943934D01*
X84944841Y-71934048D01*
X84956664Y-71925280D01*
X84969290Y-71917712D01*
X84982597Y-71911418D01*
X84996457Y-71906459D01*
X85010736Y-71902882D01*
X85025297Y-71900722D01*
X85040000Y-71900000D01*
X85340000Y-71900000D01*
X85354703Y-71900722D01*
G37*
G04 #@! TD.AperFunction*
G04 #@! TA.AperFunction,SMDPad,CuDef*
G36*
X84039703Y-70580722D02*
G01*
X84054264Y-70582882D01*
X84068543Y-70586459D01*
X84082403Y-70591418D01*
X84095710Y-70597712D01*
X84108336Y-70605280D01*
X84120159Y-70614048D01*
X84131066Y-70623934D01*
X84140952Y-70634841D01*
X84149720Y-70646664D01*
X84157288Y-70659290D01*
X84163582Y-70672597D01*
X84168541Y-70686457D01*
X84172118Y-70700736D01*
X84174278Y-70715297D01*
X84175000Y-70730000D01*
X84175000Y-71030000D01*
X84174278Y-71044703D01*
X84172118Y-71059264D01*
X84168541Y-71073543D01*
X84163582Y-71087403D01*
X84157288Y-71100710D01*
X84149720Y-71113336D01*
X84140952Y-71125159D01*
X84131066Y-71136066D01*
X84120159Y-71145952D01*
X84108336Y-71154720D01*
X84095710Y-71162288D01*
X84082403Y-71168582D01*
X84068543Y-71173541D01*
X84054264Y-71177118D01*
X84039703Y-71179278D01*
X84025000Y-71180000D01*
X82850000Y-71180000D01*
X82835297Y-71179278D01*
X82820736Y-71177118D01*
X82806457Y-71173541D01*
X82792597Y-71168582D01*
X82779290Y-71162288D01*
X82766664Y-71154720D01*
X82754841Y-71145952D01*
X82743934Y-71136066D01*
X82734048Y-71125159D01*
X82725280Y-71113336D01*
X82717712Y-71100710D01*
X82711418Y-71087403D01*
X82706459Y-71073543D01*
X82702882Y-71059264D01*
X82700722Y-71044703D01*
X82700000Y-71030000D01*
X82700000Y-70730000D01*
X82700722Y-70715297D01*
X82702882Y-70700736D01*
X82706459Y-70686457D01*
X82711418Y-70672597D01*
X82717712Y-70659290D01*
X82725280Y-70646664D01*
X82734048Y-70634841D01*
X82743934Y-70623934D01*
X82754841Y-70614048D01*
X82766664Y-70605280D01*
X82779290Y-70597712D01*
X82792597Y-70591418D01*
X82806457Y-70586459D01*
X82820736Y-70582882D01*
X82835297Y-70580722D01*
X82850000Y-70580000D01*
X84025000Y-70580000D01*
X84039703Y-70580722D01*
G37*
G04 #@! TD.AperFunction*
G04 #@! TA.AperFunction,SMDPad,CuDef*
G36*
X84039703Y-69310722D02*
G01*
X84054264Y-69312882D01*
X84068543Y-69316459D01*
X84082403Y-69321418D01*
X84095710Y-69327712D01*
X84108336Y-69335280D01*
X84120159Y-69344048D01*
X84131066Y-69353934D01*
X84140952Y-69364841D01*
X84149720Y-69376664D01*
X84157288Y-69389290D01*
X84163582Y-69402597D01*
X84168541Y-69416457D01*
X84172118Y-69430736D01*
X84174278Y-69445297D01*
X84175000Y-69460000D01*
X84175000Y-69760000D01*
X84174278Y-69774703D01*
X84172118Y-69789264D01*
X84168541Y-69803543D01*
X84163582Y-69817403D01*
X84157288Y-69830710D01*
X84149720Y-69843336D01*
X84140952Y-69855159D01*
X84131066Y-69866066D01*
X84120159Y-69875952D01*
X84108336Y-69884720D01*
X84095710Y-69892288D01*
X84082403Y-69898582D01*
X84068543Y-69903541D01*
X84054264Y-69907118D01*
X84039703Y-69909278D01*
X84025000Y-69910000D01*
X82850000Y-69910000D01*
X82835297Y-69909278D01*
X82820736Y-69907118D01*
X82806457Y-69903541D01*
X82792597Y-69898582D01*
X82779290Y-69892288D01*
X82766664Y-69884720D01*
X82754841Y-69875952D01*
X82743934Y-69866066D01*
X82734048Y-69855159D01*
X82725280Y-69843336D01*
X82717712Y-69830710D01*
X82711418Y-69817403D01*
X82706459Y-69803543D01*
X82702882Y-69789264D01*
X82700722Y-69774703D01*
X82700000Y-69760000D01*
X82700000Y-69460000D01*
X82700722Y-69445297D01*
X82702882Y-69430736D01*
X82706459Y-69416457D01*
X82711418Y-69402597D01*
X82717712Y-69389290D01*
X82725280Y-69376664D01*
X82734048Y-69364841D01*
X82743934Y-69353934D01*
X82754841Y-69344048D01*
X82766664Y-69335280D01*
X82779290Y-69327712D01*
X82792597Y-69321418D01*
X82806457Y-69316459D01*
X82820736Y-69312882D01*
X82835297Y-69310722D01*
X82850000Y-69310000D01*
X84025000Y-69310000D01*
X84039703Y-69310722D01*
G37*
G04 #@! TD.AperFunction*
G04 #@! TA.AperFunction,SMDPad,CuDef*
G36*
X84039703Y-68040722D02*
G01*
X84054264Y-68042882D01*
X84068543Y-68046459D01*
X84082403Y-68051418D01*
X84095710Y-68057712D01*
X84108336Y-68065280D01*
X84120159Y-68074048D01*
X84131066Y-68083934D01*
X84140952Y-68094841D01*
X84149720Y-68106664D01*
X84157288Y-68119290D01*
X84163582Y-68132597D01*
X84168541Y-68146457D01*
X84172118Y-68160736D01*
X84174278Y-68175297D01*
X84175000Y-68190000D01*
X84175000Y-68490000D01*
X84174278Y-68504703D01*
X84172118Y-68519264D01*
X84168541Y-68533543D01*
X84163582Y-68547403D01*
X84157288Y-68560710D01*
X84149720Y-68573336D01*
X84140952Y-68585159D01*
X84131066Y-68596066D01*
X84120159Y-68605952D01*
X84108336Y-68614720D01*
X84095710Y-68622288D01*
X84082403Y-68628582D01*
X84068543Y-68633541D01*
X84054264Y-68637118D01*
X84039703Y-68639278D01*
X84025000Y-68640000D01*
X82850000Y-68640000D01*
X82835297Y-68639278D01*
X82820736Y-68637118D01*
X82806457Y-68633541D01*
X82792597Y-68628582D01*
X82779290Y-68622288D01*
X82766664Y-68614720D01*
X82754841Y-68605952D01*
X82743934Y-68596066D01*
X82734048Y-68585159D01*
X82725280Y-68573336D01*
X82717712Y-68560710D01*
X82711418Y-68547403D01*
X82706459Y-68533543D01*
X82702882Y-68519264D01*
X82700722Y-68504703D01*
X82700000Y-68490000D01*
X82700000Y-68190000D01*
X82700722Y-68175297D01*
X82702882Y-68160736D01*
X82706459Y-68146457D01*
X82711418Y-68132597D01*
X82717712Y-68119290D01*
X82725280Y-68106664D01*
X82734048Y-68094841D01*
X82743934Y-68083934D01*
X82754841Y-68074048D01*
X82766664Y-68065280D01*
X82779290Y-68057712D01*
X82792597Y-68051418D01*
X82806457Y-68046459D01*
X82820736Y-68042882D01*
X82835297Y-68040722D01*
X82850000Y-68040000D01*
X84025000Y-68040000D01*
X84039703Y-68040722D01*
G37*
G04 #@! TD.AperFunction*
G04 #@! TA.AperFunction,SMDPad,CuDef*
G36*
X84039703Y-66770722D02*
G01*
X84054264Y-66772882D01*
X84068543Y-66776459D01*
X84082403Y-66781418D01*
X84095710Y-66787712D01*
X84108336Y-66795280D01*
X84120159Y-66804048D01*
X84131066Y-66813934D01*
X84140952Y-66824841D01*
X84149720Y-66836664D01*
X84157288Y-66849290D01*
X84163582Y-66862597D01*
X84168541Y-66876457D01*
X84172118Y-66890736D01*
X84174278Y-66905297D01*
X84175000Y-66920000D01*
X84175000Y-67220000D01*
X84174278Y-67234703D01*
X84172118Y-67249264D01*
X84168541Y-67263543D01*
X84163582Y-67277403D01*
X84157288Y-67290710D01*
X84149720Y-67303336D01*
X84140952Y-67315159D01*
X84131066Y-67326066D01*
X84120159Y-67335952D01*
X84108336Y-67344720D01*
X84095710Y-67352288D01*
X84082403Y-67358582D01*
X84068543Y-67363541D01*
X84054264Y-67367118D01*
X84039703Y-67369278D01*
X84025000Y-67370000D01*
X82850000Y-67370000D01*
X82835297Y-67369278D01*
X82820736Y-67367118D01*
X82806457Y-67363541D01*
X82792597Y-67358582D01*
X82779290Y-67352288D01*
X82766664Y-67344720D01*
X82754841Y-67335952D01*
X82743934Y-67326066D01*
X82734048Y-67315159D01*
X82725280Y-67303336D01*
X82717712Y-67290710D01*
X82711418Y-67277403D01*
X82706459Y-67263543D01*
X82702882Y-67249264D01*
X82700722Y-67234703D01*
X82700000Y-67220000D01*
X82700000Y-66920000D01*
X82700722Y-66905297D01*
X82702882Y-66890736D01*
X82706459Y-66876457D01*
X82711418Y-66862597D01*
X82717712Y-66849290D01*
X82725280Y-66836664D01*
X82734048Y-66824841D01*
X82743934Y-66813934D01*
X82754841Y-66804048D01*
X82766664Y-66795280D01*
X82779290Y-66787712D01*
X82792597Y-66781418D01*
X82806457Y-66776459D01*
X82820736Y-66772882D01*
X82835297Y-66770722D01*
X82850000Y-66770000D01*
X84025000Y-66770000D01*
X84039703Y-66770722D01*
G37*
G04 #@! TD.AperFunction*
G04 #@! TA.AperFunction,SMDPad,CuDef*
G36*
X84039703Y-65500722D02*
G01*
X84054264Y-65502882D01*
X84068543Y-65506459D01*
X84082403Y-65511418D01*
X84095710Y-65517712D01*
X84108336Y-65525280D01*
X84120159Y-65534048D01*
X84131066Y-65543934D01*
X84140952Y-65554841D01*
X84149720Y-65566664D01*
X84157288Y-65579290D01*
X84163582Y-65592597D01*
X84168541Y-65606457D01*
X84172118Y-65620736D01*
X84174278Y-65635297D01*
X84175000Y-65650000D01*
X84175000Y-65950000D01*
X84174278Y-65964703D01*
X84172118Y-65979264D01*
X84168541Y-65993543D01*
X84163582Y-66007403D01*
X84157288Y-66020710D01*
X84149720Y-66033336D01*
X84140952Y-66045159D01*
X84131066Y-66056066D01*
X84120159Y-66065952D01*
X84108336Y-66074720D01*
X84095710Y-66082288D01*
X84082403Y-66088582D01*
X84068543Y-66093541D01*
X84054264Y-66097118D01*
X84039703Y-66099278D01*
X84025000Y-66100000D01*
X82850000Y-66100000D01*
X82835297Y-66099278D01*
X82820736Y-66097118D01*
X82806457Y-66093541D01*
X82792597Y-66088582D01*
X82779290Y-66082288D01*
X82766664Y-66074720D01*
X82754841Y-66065952D01*
X82743934Y-66056066D01*
X82734048Y-66045159D01*
X82725280Y-66033336D01*
X82717712Y-66020710D01*
X82711418Y-66007403D01*
X82706459Y-65993543D01*
X82702882Y-65979264D01*
X82700722Y-65964703D01*
X82700000Y-65950000D01*
X82700000Y-65650000D01*
X82700722Y-65635297D01*
X82702882Y-65620736D01*
X82706459Y-65606457D01*
X82711418Y-65592597D01*
X82717712Y-65579290D01*
X82725280Y-65566664D01*
X82734048Y-65554841D01*
X82743934Y-65543934D01*
X82754841Y-65534048D01*
X82766664Y-65525280D01*
X82779290Y-65517712D01*
X82792597Y-65511418D01*
X82806457Y-65506459D01*
X82820736Y-65502882D01*
X82835297Y-65500722D01*
X82850000Y-65500000D01*
X84025000Y-65500000D01*
X84039703Y-65500722D01*
G37*
G04 #@! TD.AperFunction*
G04 #@! TA.AperFunction,SMDPad,CuDef*
G36*
X84039703Y-64230722D02*
G01*
X84054264Y-64232882D01*
X84068543Y-64236459D01*
X84082403Y-64241418D01*
X84095710Y-64247712D01*
X84108336Y-64255280D01*
X84120159Y-64264048D01*
X84131066Y-64273934D01*
X84140952Y-64284841D01*
X84149720Y-64296664D01*
X84157288Y-64309290D01*
X84163582Y-64322597D01*
X84168541Y-64336457D01*
X84172118Y-64350736D01*
X84174278Y-64365297D01*
X84175000Y-64380000D01*
X84175000Y-64680000D01*
X84174278Y-64694703D01*
X84172118Y-64709264D01*
X84168541Y-64723543D01*
X84163582Y-64737403D01*
X84157288Y-64750710D01*
X84149720Y-64763336D01*
X84140952Y-64775159D01*
X84131066Y-64786066D01*
X84120159Y-64795952D01*
X84108336Y-64804720D01*
X84095710Y-64812288D01*
X84082403Y-64818582D01*
X84068543Y-64823541D01*
X84054264Y-64827118D01*
X84039703Y-64829278D01*
X84025000Y-64830000D01*
X82850000Y-64830000D01*
X82835297Y-64829278D01*
X82820736Y-64827118D01*
X82806457Y-64823541D01*
X82792597Y-64818582D01*
X82779290Y-64812288D01*
X82766664Y-64804720D01*
X82754841Y-64795952D01*
X82743934Y-64786066D01*
X82734048Y-64775159D01*
X82725280Y-64763336D01*
X82717712Y-64750710D01*
X82711418Y-64737403D01*
X82706459Y-64723543D01*
X82702882Y-64709264D01*
X82700722Y-64694703D01*
X82700000Y-64680000D01*
X82700000Y-64380000D01*
X82700722Y-64365297D01*
X82702882Y-64350736D01*
X82706459Y-64336457D01*
X82711418Y-64322597D01*
X82717712Y-64309290D01*
X82725280Y-64296664D01*
X82734048Y-64284841D01*
X82743934Y-64273934D01*
X82754841Y-64264048D01*
X82766664Y-64255280D01*
X82779290Y-64247712D01*
X82792597Y-64241418D01*
X82806457Y-64236459D01*
X82820736Y-64232882D01*
X82835297Y-64230722D01*
X82850000Y-64230000D01*
X84025000Y-64230000D01*
X84039703Y-64230722D01*
G37*
G04 #@! TD.AperFunction*
G04 #@! TA.AperFunction,SMDPad,CuDef*
G36*
X84039703Y-62960722D02*
G01*
X84054264Y-62962882D01*
X84068543Y-62966459D01*
X84082403Y-62971418D01*
X84095710Y-62977712D01*
X84108336Y-62985280D01*
X84120159Y-62994048D01*
X84131066Y-63003934D01*
X84140952Y-63014841D01*
X84149720Y-63026664D01*
X84157288Y-63039290D01*
X84163582Y-63052597D01*
X84168541Y-63066457D01*
X84172118Y-63080736D01*
X84174278Y-63095297D01*
X84175000Y-63110000D01*
X84175000Y-63410000D01*
X84174278Y-63424703D01*
X84172118Y-63439264D01*
X84168541Y-63453543D01*
X84163582Y-63467403D01*
X84157288Y-63480710D01*
X84149720Y-63493336D01*
X84140952Y-63505159D01*
X84131066Y-63516066D01*
X84120159Y-63525952D01*
X84108336Y-63534720D01*
X84095710Y-63542288D01*
X84082403Y-63548582D01*
X84068543Y-63553541D01*
X84054264Y-63557118D01*
X84039703Y-63559278D01*
X84025000Y-63560000D01*
X82850000Y-63560000D01*
X82835297Y-63559278D01*
X82820736Y-63557118D01*
X82806457Y-63553541D01*
X82792597Y-63548582D01*
X82779290Y-63542288D01*
X82766664Y-63534720D01*
X82754841Y-63525952D01*
X82743934Y-63516066D01*
X82734048Y-63505159D01*
X82725280Y-63493336D01*
X82717712Y-63480710D01*
X82711418Y-63467403D01*
X82706459Y-63453543D01*
X82702882Y-63439264D01*
X82700722Y-63424703D01*
X82700000Y-63410000D01*
X82700000Y-63110000D01*
X82700722Y-63095297D01*
X82702882Y-63080736D01*
X82706459Y-63066457D01*
X82711418Y-63052597D01*
X82717712Y-63039290D01*
X82725280Y-63026664D01*
X82734048Y-63014841D01*
X82743934Y-63003934D01*
X82754841Y-62994048D01*
X82766664Y-62985280D01*
X82779290Y-62977712D01*
X82792597Y-62971418D01*
X82806457Y-62966459D01*
X82820736Y-62962882D01*
X82835297Y-62960722D01*
X82850000Y-62960000D01*
X84025000Y-62960000D01*
X84039703Y-62960722D01*
G37*
G04 #@! TD.AperFunction*
G04 #@! TA.AperFunction,SMDPad,CuDef*
G36*
X84039703Y-61690722D02*
G01*
X84054264Y-61692882D01*
X84068543Y-61696459D01*
X84082403Y-61701418D01*
X84095710Y-61707712D01*
X84108336Y-61715280D01*
X84120159Y-61724048D01*
X84131066Y-61733934D01*
X84140952Y-61744841D01*
X84149720Y-61756664D01*
X84157288Y-61769290D01*
X84163582Y-61782597D01*
X84168541Y-61796457D01*
X84172118Y-61810736D01*
X84174278Y-61825297D01*
X84175000Y-61840000D01*
X84175000Y-62140000D01*
X84174278Y-62154703D01*
X84172118Y-62169264D01*
X84168541Y-62183543D01*
X84163582Y-62197403D01*
X84157288Y-62210710D01*
X84149720Y-62223336D01*
X84140952Y-62235159D01*
X84131066Y-62246066D01*
X84120159Y-62255952D01*
X84108336Y-62264720D01*
X84095710Y-62272288D01*
X84082403Y-62278582D01*
X84068543Y-62283541D01*
X84054264Y-62287118D01*
X84039703Y-62289278D01*
X84025000Y-62290000D01*
X82850000Y-62290000D01*
X82835297Y-62289278D01*
X82820736Y-62287118D01*
X82806457Y-62283541D01*
X82792597Y-62278582D01*
X82779290Y-62272288D01*
X82766664Y-62264720D01*
X82754841Y-62255952D01*
X82743934Y-62246066D01*
X82734048Y-62235159D01*
X82725280Y-62223336D01*
X82717712Y-62210710D01*
X82711418Y-62197403D01*
X82706459Y-62183543D01*
X82702882Y-62169264D01*
X82700722Y-62154703D01*
X82700000Y-62140000D01*
X82700000Y-61840000D01*
X82700722Y-61825297D01*
X82702882Y-61810736D01*
X82706459Y-61796457D01*
X82711418Y-61782597D01*
X82717712Y-61769290D01*
X82725280Y-61756664D01*
X82734048Y-61744841D01*
X82743934Y-61733934D01*
X82754841Y-61724048D01*
X82766664Y-61715280D01*
X82779290Y-61707712D01*
X82792597Y-61701418D01*
X82806457Y-61696459D01*
X82820736Y-61692882D01*
X82835297Y-61690722D01*
X82850000Y-61690000D01*
X84025000Y-61690000D01*
X84039703Y-61690722D01*
G37*
G04 #@! TD.AperFunction*
G04 #@! TA.AperFunction,SMDPad,CuDef*
G36*
X84039703Y-60420722D02*
G01*
X84054264Y-60422882D01*
X84068543Y-60426459D01*
X84082403Y-60431418D01*
X84095710Y-60437712D01*
X84108336Y-60445280D01*
X84120159Y-60454048D01*
X84131066Y-60463934D01*
X84140952Y-60474841D01*
X84149720Y-60486664D01*
X84157288Y-60499290D01*
X84163582Y-60512597D01*
X84168541Y-60526457D01*
X84172118Y-60540736D01*
X84174278Y-60555297D01*
X84175000Y-60570000D01*
X84175000Y-60870000D01*
X84174278Y-60884703D01*
X84172118Y-60899264D01*
X84168541Y-60913543D01*
X84163582Y-60927403D01*
X84157288Y-60940710D01*
X84149720Y-60953336D01*
X84140952Y-60965159D01*
X84131066Y-60976066D01*
X84120159Y-60985952D01*
X84108336Y-60994720D01*
X84095710Y-61002288D01*
X84082403Y-61008582D01*
X84068543Y-61013541D01*
X84054264Y-61017118D01*
X84039703Y-61019278D01*
X84025000Y-61020000D01*
X82850000Y-61020000D01*
X82835297Y-61019278D01*
X82820736Y-61017118D01*
X82806457Y-61013541D01*
X82792597Y-61008582D01*
X82779290Y-61002288D01*
X82766664Y-60994720D01*
X82754841Y-60985952D01*
X82743934Y-60976066D01*
X82734048Y-60965159D01*
X82725280Y-60953336D01*
X82717712Y-60940710D01*
X82711418Y-60927403D01*
X82706459Y-60913543D01*
X82702882Y-60899264D01*
X82700722Y-60884703D01*
X82700000Y-60870000D01*
X82700000Y-60570000D01*
X82700722Y-60555297D01*
X82702882Y-60540736D01*
X82706459Y-60526457D01*
X82711418Y-60512597D01*
X82717712Y-60499290D01*
X82725280Y-60486664D01*
X82734048Y-60474841D01*
X82743934Y-60463934D01*
X82754841Y-60454048D01*
X82766664Y-60445280D01*
X82779290Y-60437712D01*
X82792597Y-60431418D01*
X82806457Y-60426459D01*
X82820736Y-60422882D01*
X82835297Y-60420722D01*
X82850000Y-60420000D01*
X84025000Y-60420000D01*
X84039703Y-60420722D01*
G37*
G04 #@! TD.AperFunction*
G04 #@! TA.AperFunction,SMDPad,CuDef*
G36*
X85354703Y-58225722D02*
G01*
X85369264Y-58227882D01*
X85383543Y-58231459D01*
X85397403Y-58236418D01*
X85410710Y-58242712D01*
X85423336Y-58250280D01*
X85435159Y-58259048D01*
X85446066Y-58268934D01*
X85455952Y-58279841D01*
X85464720Y-58291664D01*
X85472288Y-58304290D01*
X85478582Y-58317597D01*
X85483541Y-58331457D01*
X85487118Y-58345736D01*
X85489278Y-58360297D01*
X85490000Y-58375000D01*
X85490000Y-59550000D01*
X85489278Y-59564703D01*
X85487118Y-59579264D01*
X85483541Y-59593543D01*
X85478582Y-59607403D01*
X85472288Y-59620710D01*
X85464720Y-59633336D01*
X85455952Y-59645159D01*
X85446066Y-59656066D01*
X85435159Y-59665952D01*
X85423336Y-59674720D01*
X85410710Y-59682288D01*
X85397403Y-59688582D01*
X85383543Y-59693541D01*
X85369264Y-59697118D01*
X85354703Y-59699278D01*
X85340000Y-59700000D01*
X85040000Y-59700000D01*
X85025297Y-59699278D01*
X85010736Y-59697118D01*
X84996457Y-59693541D01*
X84982597Y-59688582D01*
X84969290Y-59682288D01*
X84956664Y-59674720D01*
X84944841Y-59665952D01*
X84933934Y-59656066D01*
X84924048Y-59645159D01*
X84915280Y-59633336D01*
X84907712Y-59620710D01*
X84901418Y-59607403D01*
X84896459Y-59593543D01*
X84892882Y-59579264D01*
X84890722Y-59564703D01*
X84890000Y-59550000D01*
X84890000Y-58375000D01*
X84890722Y-58360297D01*
X84892882Y-58345736D01*
X84896459Y-58331457D01*
X84901418Y-58317597D01*
X84907712Y-58304290D01*
X84915280Y-58291664D01*
X84924048Y-58279841D01*
X84933934Y-58268934D01*
X84944841Y-58259048D01*
X84956664Y-58250280D01*
X84969290Y-58242712D01*
X84982597Y-58236418D01*
X84996457Y-58231459D01*
X85010736Y-58227882D01*
X85025297Y-58225722D01*
X85040000Y-58225000D01*
X85340000Y-58225000D01*
X85354703Y-58225722D01*
G37*
G04 #@! TD.AperFunction*
G04 #@! TA.AperFunction,SMDPad,CuDef*
G36*
X86624703Y-58225722D02*
G01*
X86639264Y-58227882D01*
X86653543Y-58231459D01*
X86667403Y-58236418D01*
X86680710Y-58242712D01*
X86693336Y-58250280D01*
X86705159Y-58259048D01*
X86716066Y-58268934D01*
X86725952Y-58279841D01*
X86734720Y-58291664D01*
X86742288Y-58304290D01*
X86748582Y-58317597D01*
X86753541Y-58331457D01*
X86757118Y-58345736D01*
X86759278Y-58360297D01*
X86760000Y-58375000D01*
X86760000Y-59550000D01*
X86759278Y-59564703D01*
X86757118Y-59579264D01*
X86753541Y-59593543D01*
X86748582Y-59607403D01*
X86742288Y-59620710D01*
X86734720Y-59633336D01*
X86725952Y-59645159D01*
X86716066Y-59656066D01*
X86705159Y-59665952D01*
X86693336Y-59674720D01*
X86680710Y-59682288D01*
X86667403Y-59688582D01*
X86653543Y-59693541D01*
X86639264Y-59697118D01*
X86624703Y-59699278D01*
X86610000Y-59700000D01*
X86310000Y-59700000D01*
X86295297Y-59699278D01*
X86280736Y-59697118D01*
X86266457Y-59693541D01*
X86252597Y-59688582D01*
X86239290Y-59682288D01*
X86226664Y-59674720D01*
X86214841Y-59665952D01*
X86203934Y-59656066D01*
X86194048Y-59645159D01*
X86185280Y-59633336D01*
X86177712Y-59620710D01*
X86171418Y-59607403D01*
X86166459Y-59593543D01*
X86162882Y-59579264D01*
X86160722Y-59564703D01*
X86160000Y-59550000D01*
X86160000Y-58375000D01*
X86160722Y-58360297D01*
X86162882Y-58345736D01*
X86166459Y-58331457D01*
X86171418Y-58317597D01*
X86177712Y-58304290D01*
X86185280Y-58291664D01*
X86194048Y-58279841D01*
X86203934Y-58268934D01*
X86214841Y-58259048D01*
X86226664Y-58250280D01*
X86239290Y-58242712D01*
X86252597Y-58236418D01*
X86266457Y-58231459D01*
X86280736Y-58227882D01*
X86295297Y-58225722D01*
X86310000Y-58225000D01*
X86610000Y-58225000D01*
X86624703Y-58225722D01*
G37*
G04 #@! TD.AperFunction*
G04 #@! TA.AperFunction,SMDPad,CuDef*
G36*
X87894703Y-58225722D02*
G01*
X87909264Y-58227882D01*
X87923543Y-58231459D01*
X87937403Y-58236418D01*
X87950710Y-58242712D01*
X87963336Y-58250280D01*
X87975159Y-58259048D01*
X87986066Y-58268934D01*
X87995952Y-58279841D01*
X88004720Y-58291664D01*
X88012288Y-58304290D01*
X88018582Y-58317597D01*
X88023541Y-58331457D01*
X88027118Y-58345736D01*
X88029278Y-58360297D01*
X88030000Y-58375000D01*
X88030000Y-59550000D01*
X88029278Y-59564703D01*
X88027118Y-59579264D01*
X88023541Y-59593543D01*
X88018582Y-59607403D01*
X88012288Y-59620710D01*
X88004720Y-59633336D01*
X87995952Y-59645159D01*
X87986066Y-59656066D01*
X87975159Y-59665952D01*
X87963336Y-59674720D01*
X87950710Y-59682288D01*
X87937403Y-59688582D01*
X87923543Y-59693541D01*
X87909264Y-59697118D01*
X87894703Y-59699278D01*
X87880000Y-59700000D01*
X87580000Y-59700000D01*
X87565297Y-59699278D01*
X87550736Y-59697118D01*
X87536457Y-59693541D01*
X87522597Y-59688582D01*
X87509290Y-59682288D01*
X87496664Y-59674720D01*
X87484841Y-59665952D01*
X87473934Y-59656066D01*
X87464048Y-59645159D01*
X87455280Y-59633336D01*
X87447712Y-59620710D01*
X87441418Y-59607403D01*
X87436459Y-59593543D01*
X87432882Y-59579264D01*
X87430722Y-59564703D01*
X87430000Y-59550000D01*
X87430000Y-58375000D01*
X87430722Y-58360297D01*
X87432882Y-58345736D01*
X87436459Y-58331457D01*
X87441418Y-58317597D01*
X87447712Y-58304290D01*
X87455280Y-58291664D01*
X87464048Y-58279841D01*
X87473934Y-58268934D01*
X87484841Y-58259048D01*
X87496664Y-58250280D01*
X87509290Y-58242712D01*
X87522597Y-58236418D01*
X87536457Y-58231459D01*
X87550736Y-58227882D01*
X87565297Y-58225722D01*
X87580000Y-58225000D01*
X87880000Y-58225000D01*
X87894703Y-58225722D01*
G37*
G04 #@! TD.AperFunction*
G04 #@! TA.AperFunction,SMDPad,CuDef*
G36*
X89164703Y-58225722D02*
G01*
X89179264Y-58227882D01*
X89193543Y-58231459D01*
X89207403Y-58236418D01*
X89220710Y-58242712D01*
X89233336Y-58250280D01*
X89245159Y-58259048D01*
X89256066Y-58268934D01*
X89265952Y-58279841D01*
X89274720Y-58291664D01*
X89282288Y-58304290D01*
X89288582Y-58317597D01*
X89293541Y-58331457D01*
X89297118Y-58345736D01*
X89299278Y-58360297D01*
X89300000Y-58375000D01*
X89300000Y-59550000D01*
X89299278Y-59564703D01*
X89297118Y-59579264D01*
X89293541Y-59593543D01*
X89288582Y-59607403D01*
X89282288Y-59620710D01*
X89274720Y-59633336D01*
X89265952Y-59645159D01*
X89256066Y-59656066D01*
X89245159Y-59665952D01*
X89233336Y-59674720D01*
X89220710Y-59682288D01*
X89207403Y-59688582D01*
X89193543Y-59693541D01*
X89179264Y-59697118D01*
X89164703Y-59699278D01*
X89150000Y-59700000D01*
X88850000Y-59700000D01*
X88835297Y-59699278D01*
X88820736Y-59697118D01*
X88806457Y-59693541D01*
X88792597Y-59688582D01*
X88779290Y-59682288D01*
X88766664Y-59674720D01*
X88754841Y-59665952D01*
X88743934Y-59656066D01*
X88734048Y-59645159D01*
X88725280Y-59633336D01*
X88717712Y-59620710D01*
X88711418Y-59607403D01*
X88706459Y-59593543D01*
X88702882Y-59579264D01*
X88700722Y-59564703D01*
X88700000Y-59550000D01*
X88700000Y-58375000D01*
X88700722Y-58360297D01*
X88702882Y-58345736D01*
X88706459Y-58331457D01*
X88711418Y-58317597D01*
X88717712Y-58304290D01*
X88725280Y-58291664D01*
X88734048Y-58279841D01*
X88743934Y-58268934D01*
X88754841Y-58259048D01*
X88766664Y-58250280D01*
X88779290Y-58242712D01*
X88792597Y-58236418D01*
X88806457Y-58231459D01*
X88820736Y-58227882D01*
X88835297Y-58225722D01*
X88850000Y-58225000D01*
X89150000Y-58225000D01*
X89164703Y-58225722D01*
G37*
G04 #@! TD.AperFunction*
G04 #@! TA.AperFunction,SMDPad,CuDef*
G36*
X108449504Y-54676204D02*
G01*
X108473773Y-54679804D01*
X108497571Y-54685765D01*
X108520671Y-54694030D01*
X108542849Y-54704520D01*
X108563893Y-54717133D01*
X108583598Y-54731747D01*
X108601777Y-54748223D01*
X108618253Y-54766402D01*
X108632867Y-54786107D01*
X108645480Y-54807151D01*
X108655970Y-54829329D01*
X108664235Y-54852429D01*
X108670196Y-54876227D01*
X108673796Y-54900496D01*
X108675000Y-54925000D01*
X108675000Y-55675000D01*
X108673796Y-55699504D01*
X108670196Y-55723773D01*
X108664235Y-55747571D01*
X108655970Y-55770671D01*
X108645480Y-55792849D01*
X108632867Y-55813893D01*
X108618253Y-55833598D01*
X108601777Y-55851777D01*
X108583598Y-55868253D01*
X108563893Y-55882867D01*
X108542849Y-55895480D01*
X108520671Y-55905970D01*
X108497571Y-55914235D01*
X108473773Y-55920196D01*
X108449504Y-55923796D01*
X108425000Y-55925000D01*
X107175000Y-55925000D01*
X107150496Y-55923796D01*
X107126227Y-55920196D01*
X107102429Y-55914235D01*
X107079329Y-55905970D01*
X107057151Y-55895480D01*
X107036107Y-55882867D01*
X107016402Y-55868253D01*
X106998223Y-55851777D01*
X106981747Y-55833598D01*
X106967133Y-55813893D01*
X106954520Y-55792849D01*
X106944030Y-55770671D01*
X106935765Y-55747571D01*
X106929804Y-55723773D01*
X106926204Y-55699504D01*
X106925000Y-55675000D01*
X106925000Y-54925000D01*
X106926204Y-54900496D01*
X106929804Y-54876227D01*
X106935765Y-54852429D01*
X106944030Y-54829329D01*
X106954520Y-54807151D01*
X106967133Y-54786107D01*
X106981747Y-54766402D01*
X106998223Y-54748223D01*
X107016402Y-54731747D01*
X107036107Y-54717133D01*
X107057151Y-54704520D01*
X107079329Y-54694030D01*
X107102429Y-54685765D01*
X107126227Y-54679804D01*
X107150496Y-54676204D01*
X107175000Y-54675000D01*
X108425000Y-54675000D01*
X108449504Y-54676204D01*
G37*
G04 #@! TD.AperFunction*
G04 #@! TA.AperFunction,SMDPad,CuDef*
G36*
X108449504Y-51876204D02*
G01*
X108473773Y-51879804D01*
X108497571Y-51885765D01*
X108520671Y-51894030D01*
X108542849Y-51904520D01*
X108563893Y-51917133D01*
X108583598Y-51931747D01*
X108601777Y-51948223D01*
X108618253Y-51966402D01*
X108632867Y-51986107D01*
X108645480Y-52007151D01*
X108655970Y-52029329D01*
X108664235Y-52052429D01*
X108670196Y-52076227D01*
X108673796Y-52100496D01*
X108675000Y-52125000D01*
X108675000Y-52875000D01*
X108673796Y-52899504D01*
X108670196Y-52923773D01*
X108664235Y-52947571D01*
X108655970Y-52970671D01*
X108645480Y-52992849D01*
X108632867Y-53013893D01*
X108618253Y-53033598D01*
X108601777Y-53051777D01*
X108583598Y-53068253D01*
X108563893Y-53082867D01*
X108542849Y-53095480D01*
X108520671Y-53105970D01*
X108497571Y-53114235D01*
X108473773Y-53120196D01*
X108449504Y-53123796D01*
X108425000Y-53125000D01*
X107175000Y-53125000D01*
X107150496Y-53123796D01*
X107126227Y-53120196D01*
X107102429Y-53114235D01*
X107079329Y-53105970D01*
X107057151Y-53095480D01*
X107036107Y-53082867D01*
X107016402Y-53068253D01*
X106998223Y-53051777D01*
X106981747Y-53033598D01*
X106967133Y-53013893D01*
X106954520Y-52992849D01*
X106944030Y-52970671D01*
X106935765Y-52947571D01*
X106929804Y-52923773D01*
X106926204Y-52899504D01*
X106925000Y-52875000D01*
X106925000Y-52125000D01*
X106926204Y-52100496D01*
X106929804Y-52076227D01*
X106935765Y-52052429D01*
X106944030Y-52029329D01*
X106954520Y-52007151D01*
X106967133Y-51986107D01*
X106981747Y-51966402D01*
X106998223Y-51948223D01*
X107016402Y-51931747D01*
X107036107Y-51917133D01*
X107057151Y-51904520D01*
X107079329Y-51894030D01*
X107102429Y-51885765D01*
X107126227Y-51879804D01*
X107150496Y-51876204D01*
X107175000Y-51875000D01*
X108425000Y-51875000D01*
X108449504Y-51876204D01*
G37*
G04 #@! TD.AperFunction*
G04 #@! TA.AperFunction,SMDPad,CuDef*
G36*
X105980142Y-54951174D02*
G01*
X106003803Y-54954684D01*
X106027007Y-54960496D01*
X106049529Y-54968554D01*
X106071153Y-54978782D01*
X106091670Y-54991079D01*
X106110883Y-55005329D01*
X106128607Y-55021393D01*
X106144671Y-55039117D01*
X106158921Y-55058330D01*
X106171218Y-55078847D01*
X106181446Y-55100471D01*
X106189504Y-55122993D01*
X106195316Y-55146197D01*
X106198826Y-55169858D01*
X106200000Y-55193750D01*
X106200000Y-55681250D01*
X106198826Y-55705142D01*
X106195316Y-55728803D01*
X106189504Y-55752007D01*
X106181446Y-55774529D01*
X106171218Y-55796153D01*
X106158921Y-55816670D01*
X106144671Y-55835883D01*
X106128607Y-55853607D01*
X106110883Y-55869671D01*
X106091670Y-55883921D01*
X106071153Y-55896218D01*
X106049529Y-55906446D01*
X106027007Y-55914504D01*
X106003803Y-55920316D01*
X105980142Y-55923826D01*
X105956250Y-55925000D01*
X105043750Y-55925000D01*
X105019858Y-55923826D01*
X104996197Y-55920316D01*
X104972993Y-55914504D01*
X104950471Y-55906446D01*
X104928847Y-55896218D01*
X104908330Y-55883921D01*
X104889117Y-55869671D01*
X104871393Y-55853607D01*
X104855329Y-55835883D01*
X104841079Y-55816670D01*
X104828782Y-55796153D01*
X104818554Y-55774529D01*
X104810496Y-55752007D01*
X104804684Y-55728803D01*
X104801174Y-55705142D01*
X104800000Y-55681250D01*
X104800000Y-55193750D01*
X104801174Y-55169858D01*
X104804684Y-55146197D01*
X104810496Y-55122993D01*
X104818554Y-55100471D01*
X104828782Y-55078847D01*
X104841079Y-55058330D01*
X104855329Y-55039117D01*
X104871393Y-55021393D01*
X104889117Y-55005329D01*
X104908330Y-54991079D01*
X104928847Y-54978782D01*
X104950471Y-54968554D01*
X104972993Y-54960496D01*
X104996197Y-54954684D01*
X105019858Y-54951174D01*
X105043750Y-54950000D01*
X105956250Y-54950000D01*
X105980142Y-54951174D01*
G37*
G04 #@! TD.AperFunction*
G04 #@! TA.AperFunction,SMDPad,CuDef*
G36*
X105980142Y-53076174D02*
G01*
X106003803Y-53079684D01*
X106027007Y-53085496D01*
X106049529Y-53093554D01*
X106071153Y-53103782D01*
X106091670Y-53116079D01*
X106110883Y-53130329D01*
X106128607Y-53146393D01*
X106144671Y-53164117D01*
X106158921Y-53183330D01*
X106171218Y-53203847D01*
X106181446Y-53225471D01*
X106189504Y-53247993D01*
X106195316Y-53271197D01*
X106198826Y-53294858D01*
X106200000Y-53318750D01*
X106200000Y-53806250D01*
X106198826Y-53830142D01*
X106195316Y-53853803D01*
X106189504Y-53877007D01*
X106181446Y-53899529D01*
X106171218Y-53921153D01*
X106158921Y-53941670D01*
X106144671Y-53960883D01*
X106128607Y-53978607D01*
X106110883Y-53994671D01*
X106091670Y-54008921D01*
X106071153Y-54021218D01*
X106049529Y-54031446D01*
X106027007Y-54039504D01*
X106003803Y-54045316D01*
X105980142Y-54048826D01*
X105956250Y-54050000D01*
X105043750Y-54050000D01*
X105019858Y-54048826D01*
X104996197Y-54045316D01*
X104972993Y-54039504D01*
X104950471Y-54031446D01*
X104928847Y-54021218D01*
X104908330Y-54008921D01*
X104889117Y-53994671D01*
X104871393Y-53978607D01*
X104855329Y-53960883D01*
X104841079Y-53941670D01*
X104828782Y-53921153D01*
X104818554Y-53899529D01*
X104810496Y-53877007D01*
X104804684Y-53853803D01*
X104801174Y-53830142D01*
X104800000Y-53806250D01*
X104800000Y-53318750D01*
X104801174Y-53294858D01*
X104804684Y-53271197D01*
X104810496Y-53247993D01*
X104818554Y-53225471D01*
X104828782Y-53203847D01*
X104841079Y-53183330D01*
X104855329Y-53164117D01*
X104871393Y-53146393D01*
X104889117Y-53130329D01*
X104908330Y-53116079D01*
X104928847Y-53103782D01*
X104950471Y-53093554D01*
X104972993Y-53085496D01*
X104996197Y-53079684D01*
X105019858Y-53076174D01*
X105043750Y-53075000D01*
X105956250Y-53075000D01*
X105980142Y-53076174D01*
G37*
G04 #@! TD.AperFunction*
G04 #@! TA.AperFunction,SMDPad,CuDef*
G36*
X103877691Y-55051053D02*
G01*
X103898926Y-55054203D01*
X103919750Y-55059419D01*
X103939962Y-55066651D01*
X103959368Y-55075830D01*
X103977781Y-55086866D01*
X103995024Y-55099654D01*
X104010930Y-55114070D01*
X104025346Y-55129976D01*
X104038134Y-55147219D01*
X104049170Y-55165632D01*
X104058349Y-55185038D01*
X104065581Y-55205250D01*
X104070797Y-55226074D01*
X104073947Y-55247309D01*
X104075000Y-55268750D01*
X104075000Y-55706250D01*
X104073947Y-55727691D01*
X104070797Y-55748926D01*
X104065581Y-55769750D01*
X104058349Y-55789962D01*
X104049170Y-55809368D01*
X104038134Y-55827781D01*
X104025346Y-55845024D01*
X104010930Y-55860930D01*
X103995024Y-55875346D01*
X103977781Y-55888134D01*
X103959368Y-55899170D01*
X103939962Y-55908349D01*
X103919750Y-55915581D01*
X103898926Y-55920797D01*
X103877691Y-55923947D01*
X103856250Y-55925000D01*
X103343750Y-55925000D01*
X103322309Y-55923947D01*
X103301074Y-55920797D01*
X103280250Y-55915581D01*
X103260038Y-55908349D01*
X103240632Y-55899170D01*
X103222219Y-55888134D01*
X103204976Y-55875346D01*
X103189070Y-55860930D01*
X103174654Y-55845024D01*
X103161866Y-55827781D01*
X103150830Y-55809368D01*
X103141651Y-55789962D01*
X103134419Y-55769750D01*
X103129203Y-55748926D01*
X103126053Y-55727691D01*
X103125000Y-55706250D01*
X103125000Y-55268750D01*
X103126053Y-55247309D01*
X103129203Y-55226074D01*
X103134419Y-55205250D01*
X103141651Y-55185038D01*
X103150830Y-55165632D01*
X103161866Y-55147219D01*
X103174654Y-55129976D01*
X103189070Y-55114070D01*
X103204976Y-55099654D01*
X103222219Y-55086866D01*
X103240632Y-55075830D01*
X103260038Y-55066651D01*
X103280250Y-55059419D01*
X103301074Y-55054203D01*
X103322309Y-55051053D01*
X103343750Y-55050000D01*
X103856250Y-55050000D01*
X103877691Y-55051053D01*
G37*
G04 #@! TD.AperFunction*
G04 #@! TA.AperFunction,SMDPad,CuDef*
G36*
X103877691Y-53476053D02*
G01*
X103898926Y-53479203D01*
X103919750Y-53484419D01*
X103939962Y-53491651D01*
X103959368Y-53500830D01*
X103977781Y-53511866D01*
X103995024Y-53524654D01*
X104010930Y-53539070D01*
X104025346Y-53554976D01*
X104038134Y-53572219D01*
X104049170Y-53590632D01*
X104058349Y-53610038D01*
X104065581Y-53630250D01*
X104070797Y-53651074D01*
X104073947Y-53672309D01*
X104075000Y-53693750D01*
X104075000Y-54131250D01*
X104073947Y-54152691D01*
X104070797Y-54173926D01*
X104065581Y-54194750D01*
X104058349Y-54214962D01*
X104049170Y-54234368D01*
X104038134Y-54252781D01*
X104025346Y-54270024D01*
X104010930Y-54285930D01*
X103995024Y-54300346D01*
X103977781Y-54313134D01*
X103959368Y-54324170D01*
X103939962Y-54333349D01*
X103919750Y-54340581D01*
X103898926Y-54345797D01*
X103877691Y-54348947D01*
X103856250Y-54350000D01*
X103343750Y-54350000D01*
X103322309Y-54348947D01*
X103301074Y-54345797D01*
X103280250Y-54340581D01*
X103260038Y-54333349D01*
X103240632Y-54324170D01*
X103222219Y-54313134D01*
X103204976Y-54300346D01*
X103189070Y-54285930D01*
X103174654Y-54270024D01*
X103161866Y-54252781D01*
X103150830Y-54234368D01*
X103141651Y-54214962D01*
X103134419Y-54194750D01*
X103129203Y-54173926D01*
X103126053Y-54152691D01*
X103125000Y-54131250D01*
X103125000Y-53693750D01*
X103126053Y-53672309D01*
X103129203Y-53651074D01*
X103134419Y-53630250D01*
X103141651Y-53610038D01*
X103150830Y-53590632D01*
X103161866Y-53572219D01*
X103174654Y-53554976D01*
X103189070Y-53539070D01*
X103204976Y-53524654D01*
X103222219Y-53511866D01*
X103240632Y-53500830D01*
X103260038Y-53491651D01*
X103280250Y-53484419D01*
X103301074Y-53479203D01*
X103322309Y-53476053D01*
X103343750Y-53475000D01*
X103856250Y-53475000D01*
X103877691Y-53476053D01*
G37*
G04 #@! TD.AperFunction*
G04 #@! TA.AperFunction,SMDPad,CuDef*
G36*
X92899504Y-50226204D02*
G01*
X92923773Y-50229804D01*
X92947571Y-50235765D01*
X92970671Y-50244030D01*
X92992849Y-50254520D01*
X93013893Y-50267133D01*
X93033598Y-50281747D01*
X93051777Y-50298223D01*
X93068253Y-50316402D01*
X93082867Y-50336107D01*
X93095480Y-50357151D01*
X93105970Y-50379329D01*
X93114235Y-50402429D01*
X93120196Y-50426227D01*
X93123796Y-50450496D01*
X93125000Y-50475000D01*
X93125000Y-51725000D01*
X93123796Y-51749504D01*
X93120196Y-51773773D01*
X93114235Y-51797571D01*
X93105970Y-51820671D01*
X93095480Y-51842849D01*
X93082867Y-51863893D01*
X93068253Y-51883598D01*
X93051777Y-51901777D01*
X93033598Y-51918253D01*
X93013893Y-51932867D01*
X92992849Y-51945480D01*
X92970671Y-51955970D01*
X92947571Y-51964235D01*
X92923773Y-51970196D01*
X92899504Y-51973796D01*
X92875000Y-51975000D01*
X92125000Y-51975000D01*
X92100496Y-51973796D01*
X92076227Y-51970196D01*
X92052429Y-51964235D01*
X92029329Y-51955970D01*
X92007151Y-51945480D01*
X91986107Y-51932867D01*
X91966402Y-51918253D01*
X91948223Y-51901777D01*
X91931747Y-51883598D01*
X91917133Y-51863893D01*
X91904520Y-51842849D01*
X91894030Y-51820671D01*
X91885765Y-51797571D01*
X91879804Y-51773773D01*
X91876204Y-51749504D01*
X91875000Y-51725000D01*
X91875000Y-50475000D01*
X91876204Y-50450496D01*
X91879804Y-50426227D01*
X91885765Y-50402429D01*
X91894030Y-50379329D01*
X91904520Y-50357151D01*
X91917133Y-50336107D01*
X91931747Y-50316402D01*
X91948223Y-50298223D01*
X91966402Y-50281747D01*
X91986107Y-50267133D01*
X92007151Y-50254520D01*
X92029329Y-50244030D01*
X92052429Y-50235765D01*
X92076227Y-50229804D01*
X92100496Y-50226204D01*
X92125000Y-50225000D01*
X92875000Y-50225000D01*
X92899504Y-50226204D01*
G37*
G04 #@! TD.AperFunction*
G04 #@! TA.AperFunction,SMDPad,CuDef*
G36*
X90099504Y-50226204D02*
G01*
X90123773Y-50229804D01*
X90147571Y-50235765D01*
X90170671Y-50244030D01*
X90192849Y-50254520D01*
X90213893Y-50267133D01*
X90233598Y-50281747D01*
X90251777Y-50298223D01*
X90268253Y-50316402D01*
X90282867Y-50336107D01*
X90295480Y-50357151D01*
X90305970Y-50379329D01*
X90314235Y-50402429D01*
X90320196Y-50426227D01*
X90323796Y-50450496D01*
X90325000Y-50475000D01*
X90325000Y-51725000D01*
X90323796Y-51749504D01*
X90320196Y-51773773D01*
X90314235Y-51797571D01*
X90305970Y-51820671D01*
X90295480Y-51842849D01*
X90282867Y-51863893D01*
X90268253Y-51883598D01*
X90251777Y-51901777D01*
X90233598Y-51918253D01*
X90213893Y-51932867D01*
X90192849Y-51945480D01*
X90170671Y-51955970D01*
X90147571Y-51964235D01*
X90123773Y-51970196D01*
X90099504Y-51973796D01*
X90075000Y-51975000D01*
X89325000Y-51975000D01*
X89300496Y-51973796D01*
X89276227Y-51970196D01*
X89252429Y-51964235D01*
X89229329Y-51955970D01*
X89207151Y-51945480D01*
X89186107Y-51932867D01*
X89166402Y-51918253D01*
X89148223Y-51901777D01*
X89131747Y-51883598D01*
X89117133Y-51863893D01*
X89104520Y-51842849D01*
X89094030Y-51820671D01*
X89085765Y-51797571D01*
X89079804Y-51773773D01*
X89076204Y-51749504D01*
X89075000Y-51725000D01*
X89075000Y-50475000D01*
X89076204Y-50450496D01*
X89079804Y-50426227D01*
X89085765Y-50402429D01*
X89094030Y-50379329D01*
X89104520Y-50357151D01*
X89117133Y-50336107D01*
X89131747Y-50316402D01*
X89148223Y-50298223D01*
X89166402Y-50281747D01*
X89186107Y-50267133D01*
X89207151Y-50254520D01*
X89229329Y-50244030D01*
X89252429Y-50235765D01*
X89276227Y-50229804D01*
X89300496Y-50226204D01*
X89325000Y-50225000D01*
X90075000Y-50225000D01*
X90099504Y-50226204D01*
G37*
G04 #@! TD.AperFunction*
G04 #@! TA.AperFunction,SMDPad,CuDef*
G36*
X92305142Y-52701174D02*
G01*
X92328803Y-52704684D01*
X92352007Y-52710496D01*
X92374529Y-52718554D01*
X92396153Y-52728782D01*
X92416670Y-52741079D01*
X92435883Y-52755329D01*
X92453607Y-52771393D01*
X92469671Y-52789117D01*
X92483921Y-52808330D01*
X92496218Y-52828847D01*
X92506446Y-52850471D01*
X92514504Y-52872993D01*
X92520316Y-52896197D01*
X92523826Y-52919858D01*
X92525000Y-52943750D01*
X92525000Y-53856250D01*
X92523826Y-53880142D01*
X92520316Y-53903803D01*
X92514504Y-53927007D01*
X92506446Y-53949529D01*
X92496218Y-53971153D01*
X92483921Y-53991670D01*
X92469671Y-54010883D01*
X92453607Y-54028607D01*
X92435883Y-54044671D01*
X92416670Y-54058921D01*
X92396153Y-54071218D01*
X92374529Y-54081446D01*
X92352007Y-54089504D01*
X92328803Y-54095316D01*
X92305142Y-54098826D01*
X92281250Y-54100000D01*
X91793750Y-54100000D01*
X91769858Y-54098826D01*
X91746197Y-54095316D01*
X91722993Y-54089504D01*
X91700471Y-54081446D01*
X91678847Y-54071218D01*
X91658330Y-54058921D01*
X91639117Y-54044671D01*
X91621393Y-54028607D01*
X91605329Y-54010883D01*
X91591079Y-53991670D01*
X91578782Y-53971153D01*
X91568554Y-53949529D01*
X91560496Y-53927007D01*
X91554684Y-53903803D01*
X91551174Y-53880142D01*
X91550000Y-53856250D01*
X91550000Y-52943750D01*
X91551174Y-52919858D01*
X91554684Y-52896197D01*
X91560496Y-52872993D01*
X91568554Y-52850471D01*
X91578782Y-52828847D01*
X91591079Y-52808330D01*
X91605329Y-52789117D01*
X91621393Y-52771393D01*
X91639117Y-52755329D01*
X91658330Y-52741079D01*
X91678847Y-52728782D01*
X91700471Y-52718554D01*
X91722993Y-52710496D01*
X91746197Y-52704684D01*
X91769858Y-52701174D01*
X91793750Y-52700000D01*
X92281250Y-52700000D01*
X92305142Y-52701174D01*
G37*
G04 #@! TD.AperFunction*
G04 #@! TA.AperFunction,SMDPad,CuDef*
G36*
X90430142Y-52701174D02*
G01*
X90453803Y-52704684D01*
X90477007Y-52710496D01*
X90499529Y-52718554D01*
X90521153Y-52728782D01*
X90541670Y-52741079D01*
X90560883Y-52755329D01*
X90578607Y-52771393D01*
X90594671Y-52789117D01*
X90608921Y-52808330D01*
X90621218Y-52828847D01*
X90631446Y-52850471D01*
X90639504Y-52872993D01*
X90645316Y-52896197D01*
X90648826Y-52919858D01*
X90650000Y-52943750D01*
X90650000Y-53856250D01*
X90648826Y-53880142D01*
X90645316Y-53903803D01*
X90639504Y-53927007D01*
X90631446Y-53949529D01*
X90621218Y-53971153D01*
X90608921Y-53991670D01*
X90594671Y-54010883D01*
X90578607Y-54028607D01*
X90560883Y-54044671D01*
X90541670Y-54058921D01*
X90521153Y-54071218D01*
X90499529Y-54081446D01*
X90477007Y-54089504D01*
X90453803Y-54095316D01*
X90430142Y-54098826D01*
X90406250Y-54100000D01*
X89918750Y-54100000D01*
X89894858Y-54098826D01*
X89871197Y-54095316D01*
X89847993Y-54089504D01*
X89825471Y-54081446D01*
X89803847Y-54071218D01*
X89783330Y-54058921D01*
X89764117Y-54044671D01*
X89746393Y-54028607D01*
X89730329Y-54010883D01*
X89716079Y-53991670D01*
X89703782Y-53971153D01*
X89693554Y-53949529D01*
X89685496Y-53927007D01*
X89679684Y-53903803D01*
X89676174Y-53880142D01*
X89675000Y-53856250D01*
X89675000Y-52943750D01*
X89676174Y-52919858D01*
X89679684Y-52896197D01*
X89685496Y-52872993D01*
X89693554Y-52850471D01*
X89703782Y-52828847D01*
X89716079Y-52808330D01*
X89730329Y-52789117D01*
X89746393Y-52771393D01*
X89764117Y-52755329D01*
X89783330Y-52741079D01*
X89803847Y-52728782D01*
X89825471Y-52718554D01*
X89847993Y-52710496D01*
X89871197Y-52704684D01*
X89894858Y-52701174D01*
X89918750Y-52700000D01*
X90406250Y-52700000D01*
X90430142Y-52701174D01*
G37*
G04 #@! TD.AperFunction*
G04 #@! TA.AperFunction,SMDPad,CuDef*
G36*
X92127691Y-54826053D02*
G01*
X92148926Y-54829203D01*
X92169750Y-54834419D01*
X92189962Y-54841651D01*
X92209368Y-54850830D01*
X92227781Y-54861866D01*
X92245024Y-54874654D01*
X92260930Y-54889070D01*
X92275346Y-54904976D01*
X92288134Y-54922219D01*
X92299170Y-54940632D01*
X92308349Y-54960038D01*
X92315581Y-54980250D01*
X92320797Y-55001074D01*
X92323947Y-55022309D01*
X92325000Y-55043750D01*
X92325000Y-55556250D01*
X92323947Y-55577691D01*
X92320797Y-55598926D01*
X92315581Y-55619750D01*
X92308349Y-55639962D01*
X92299170Y-55659368D01*
X92288134Y-55677781D01*
X92275346Y-55695024D01*
X92260930Y-55710930D01*
X92245024Y-55725346D01*
X92227781Y-55738134D01*
X92209368Y-55749170D01*
X92189962Y-55758349D01*
X92169750Y-55765581D01*
X92148926Y-55770797D01*
X92127691Y-55773947D01*
X92106250Y-55775000D01*
X91668750Y-55775000D01*
X91647309Y-55773947D01*
X91626074Y-55770797D01*
X91605250Y-55765581D01*
X91585038Y-55758349D01*
X91565632Y-55749170D01*
X91547219Y-55738134D01*
X91529976Y-55725346D01*
X91514070Y-55710930D01*
X91499654Y-55695024D01*
X91486866Y-55677781D01*
X91475830Y-55659368D01*
X91466651Y-55639962D01*
X91459419Y-55619750D01*
X91454203Y-55598926D01*
X91451053Y-55577691D01*
X91450000Y-55556250D01*
X91450000Y-55043750D01*
X91451053Y-55022309D01*
X91454203Y-55001074D01*
X91459419Y-54980250D01*
X91466651Y-54960038D01*
X91475830Y-54940632D01*
X91486866Y-54922219D01*
X91499654Y-54904976D01*
X91514070Y-54889070D01*
X91529976Y-54874654D01*
X91547219Y-54861866D01*
X91565632Y-54850830D01*
X91585038Y-54841651D01*
X91605250Y-54834419D01*
X91626074Y-54829203D01*
X91647309Y-54826053D01*
X91668750Y-54825000D01*
X92106250Y-54825000D01*
X92127691Y-54826053D01*
G37*
G04 #@! TD.AperFunction*
G04 #@! TA.AperFunction,SMDPad,CuDef*
G36*
X90552691Y-54826053D02*
G01*
X90573926Y-54829203D01*
X90594750Y-54834419D01*
X90614962Y-54841651D01*
X90634368Y-54850830D01*
X90652781Y-54861866D01*
X90670024Y-54874654D01*
X90685930Y-54889070D01*
X90700346Y-54904976D01*
X90713134Y-54922219D01*
X90724170Y-54940632D01*
X90733349Y-54960038D01*
X90740581Y-54980250D01*
X90745797Y-55001074D01*
X90748947Y-55022309D01*
X90750000Y-55043750D01*
X90750000Y-55556250D01*
X90748947Y-55577691D01*
X90745797Y-55598926D01*
X90740581Y-55619750D01*
X90733349Y-55639962D01*
X90724170Y-55659368D01*
X90713134Y-55677781D01*
X90700346Y-55695024D01*
X90685930Y-55710930D01*
X90670024Y-55725346D01*
X90652781Y-55738134D01*
X90634368Y-55749170D01*
X90614962Y-55758349D01*
X90594750Y-55765581D01*
X90573926Y-55770797D01*
X90552691Y-55773947D01*
X90531250Y-55775000D01*
X90093750Y-55775000D01*
X90072309Y-55773947D01*
X90051074Y-55770797D01*
X90030250Y-55765581D01*
X90010038Y-55758349D01*
X89990632Y-55749170D01*
X89972219Y-55738134D01*
X89954976Y-55725346D01*
X89939070Y-55710930D01*
X89924654Y-55695024D01*
X89911866Y-55677781D01*
X89900830Y-55659368D01*
X89891651Y-55639962D01*
X89884419Y-55619750D01*
X89879203Y-55598926D01*
X89876053Y-55577691D01*
X89875000Y-55556250D01*
X89875000Y-55043750D01*
X89876053Y-55022309D01*
X89879203Y-55001074D01*
X89884419Y-54980250D01*
X89891651Y-54960038D01*
X89900830Y-54940632D01*
X89911866Y-54922219D01*
X89924654Y-54904976D01*
X89939070Y-54889070D01*
X89954976Y-54874654D01*
X89972219Y-54861866D01*
X89990632Y-54850830D01*
X90010038Y-54841651D01*
X90030250Y-54834419D01*
X90051074Y-54829203D01*
X90072309Y-54826053D01*
X90093750Y-54825000D01*
X90531250Y-54825000D01*
X90552691Y-54826053D01*
G37*
G04 #@! TD.AperFunction*
D13*
X78250000Y-95750000D03*
D14*
X76600000Y-96000000D03*
D13*
X79750000Y-95750000D03*
X81250000Y-95750000D03*
X82750000Y-95750000D03*
X84250000Y-95750000D03*
X85750000Y-95750000D03*
X87250000Y-95750000D03*
X88750000Y-95750000D03*
X90250000Y-95750000D03*
X91750000Y-95750000D03*
X93250000Y-95750000D03*
X94750000Y-95750000D03*
X96250000Y-95750000D03*
X97750000Y-95750000D03*
X99250000Y-95750000D03*
X100750000Y-95750000D03*
X102250000Y-95750000D03*
X103750000Y-95750000D03*
X105250000Y-95750000D03*
X106750000Y-95750000D03*
X108250000Y-95750000D03*
X109750000Y-95750000D03*
X111250000Y-95750000D03*
X112750000Y-95750000D03*
X114250000Y-95750000D03*
X115750000Y-95750000D03*
X117250000Y-95750000D03*
X118750000Y-95750000D03*
X120250000Y-95750000D03*
X121750000Y-95750000D03*
D14*
X123400000Y-96000000D03*
D15*
X103600000Y-49000000D03*
X105500000Y-49000000D03*
X107800000Y-49000000D03*
X87800000Y-74400000D03*
X93000000Y-55300000D03*
X93200000Y-53400000D03*
X93800000Y-51100000D03*
X123400000Y-90200000D03*
X123400000Y-89000000D03*
X123400000Y-87800000D03*
X105800000Y-68700000D03*
X103400000Y-64900000D03*
X106700000Y-83100000D03*
X92199998Y-61600002D03*
X107300000Y-85100000D03*
X117700002Y-74700002D03*
X107300000Y-88000000D03*
X119099998Y-76100128D03*
X94700000Y-91300000D03*
X83100000Y-91300000D03*
X83100000Y-89300000D03*
X93249996Y-89300000D03*
X91750000Y-87350000D03*
X83100000Y-87300000D03*
X83100000Y-85400000D03*
X90250000Y-85450000D03*
X83100002Y-83500000D03*
X88750000Y-83550000D03*
X83200000Y-81600000D03*
X87250000Y-81750006D03*
X83199999Y-79500000D03*
X85800000Y-79500000D03*
X100439998Y-68340000D03*
X103300000Y-80500000D03*
X105100000Y-81700000D03*
X103199998Y-68700000D03*
X96600000Y-80900000D03*
X98800000Y-64600000D03*
X96800000Y-63300000D03*
X94100000Y-81000000D03*
X107300000Y-90100000D03*
X120100000Y-78300000D03*
D16*
X90312500Y-58920000D02*
X90270000Y-58962500D01*
X90162500Y-55150000D02*
X90312500Y-55300000D01*
X90162500Y-53400000D02*
X90162500Y-55150000D01*
X90162500Y-51562500D02*
X89700000Y-51100000D01*
X90162500Y-53400000D02*
X90162500Y-51562500D01*
X87800000Y-51100000D02*
X89700000Y-51100000D01*
X85700000Y-53100000D02*
X85800000Y-53100000D01*
X85800000Y-53100000D02*
X87800000Y-51100000D01*
X86000000Y-53400000D02*
X90162500Y-53400000D01*
X85700000Y-53100000D02*
X86000000Y-53400000D01*
X85700000Y-53100000D02*
X85700000Y-53700000D01*
D17*
X89000000Y-55400000D02*
X89100000Y-55300000D01*
X89000000Y-58962500D02*
X89000000Y-55400000D01*
D16*
X89100000Y-55300000D02*
X90312500Y-55300000D01*
D17*
X87730000Y-55330000D02*
X87700000Y-55300000D01*
X87730000Y-58962500D02*
X87730000Y-55330000D01*
D16*
X87300000Y-55300000D02*
X87700000Y-55300000D01*
X87700000Y-55300000D02*
X89100000Y-55300000D01*
D17*
X86460000Y-55140000D02*
X86460000Y-58962500D01*
X86800000Y-54800000D02*
X86460000Y-55140000D01*
D16*
X86800000Y-54800000D02*
X87300000Y-55300000D01*
X85700000Y-53700000D02*
X86800000Y-54800000D01*
X90312500Y-56687500D02*
X90312500Y-58920000D01*
X90312500Y-55300000D02*
X90312500Y-56687500D01*
D17*
X92087500Y-56687500D02*
X90312500Y-56687500D01*
X92800000Y-57400000D02*
X92087500Y-56687500D01*
X92810000Y-58962500D02*
X92800000Y-58952500D01*
X92800000Y-58952500D02*
X92800000Y-57400000D01*
X103600000Y-53912500D02*
X103600000Y-49000000D01*
X105500000Y-53562500D02*
X105500000Y-49000000D01*
X107800000Y-52500000D02*
X107800000Y-49000000D01*
D16*
X75249991Y-57150009D02*
X75249991Y-86349991D01*
X85700000Y-53100000D02*
X79300000Y-53100000D01*
X76600000Y-87700000D02*
X76600000Y-96000000D01*
X75249991Y-86349991D02*
X76600000Y-87700000D01*
X79300000Y-53100000D02*
X75249991Y-57150009D01*
X87730000Y-72637500D02*
X87730000Y-74330000D01*
X87730000Y-74330000D02*
X87800000Y-74400000D01*
X92037500Y-51562500D02*
X92500000Y-51100000D01*
X92037500Y-53400000D02*
X92037500Y-51562500D01*
X91887500Y-53550000D02*
X92037500Y-53400000D01*
X91887500Y-55300000D02*
X91887500Y-53550000D01*
X91887500Y-55300000D02*
X93000000Y-55300000D01*
X92037500Y-53400000D02*
X93200000Y-53400000D01*
X92500000Y-51100000D02*
X93800000Y-51100000D01*
X123400000Y-96000000D02*
X123400000Y-90200000D01*
X123400000Y-90200000D02*
X123400000Y-89000000D01*
X123400000Y-89000000D02*
X123400000Y-87800000D01*
D17*
X81800000Y-73500000D02*
X87700000Y-79400000D01*
X87700000Y-79400000D02*
X104500000Y-79400000D01*
X81800000Y-71500000D02*
X81800000Y-73500000D01*
X83437500Y-70880000D02*
X82420000Y-70880000D01*
X82420000Y-70880000D02*
X81800000Y-71500000D01*
X104500000Y-79400000D02*
X108250000Y-83150000D01*
X108250000Y-92700000D02*
X108250000Y-95750000D01*
X108250000Y-83150000D02*
X108250000Y-92700000D01*
X109750000Y-92700000D02*
X109750000Y-95750000D01*
X85200000Y-72647500D02*
X85200000Y-75300000D01*
X85190000Y-72637500D02*
X85200000Y-72647500D01*
X109750000Y-82650000D02*
X109750000Y-92700000D01*
X85200000Y-75300000D02*
X88500000Y-78600000D01*
X88500000Y-78600000D02*
X105700000Y-78600000D01*
X105700000Y-78600000D02*
X109750000Y-82650000D01*
X111250000Y-82150000D02*
X111250000Y-92700000D01*
X86500000Y-72677500D02*
X86500000Y-75000000D01*
X86460000Y-72637500D02*
X86500000Y-72677500D01*
X111250000Y-92700000D02*
X111250000Y-95750000D01*
X86500000Y-75000000D02*
X89300000Y-77800000D01*
X89300000Y-77800000D02*
X106900000Y-77800000D01*
X106900000Y-77800000D02*
X111250000Y-82150000D01*
X89000000Y-74900000D02*
X91000000Y-76900000D01*
X89000000Y-72637500D02*
X89000000Y-74900000D01*
X91000000Y-76900000D02*
X108000000Y-76900000D01*
X112750000Y-92700000D02*
X112750000Y-95750000D01*
X108000000Y-76900000D02*
X112750000Y-81650000D01*
X112750000Y-81650000D02*
X112750000Y-92700000D01*
X114250000Y-81250000D02*
X114250000Y-95750000D01*
X90300000Y-72667500D02*
X90300000Y-74200000D01*
X90270000Y-72637500D02*
X90300000Y-72667500D01*
X90300000Y-74200000D02*
X92100000Y-76000000D01*
X92100000Y-76000000D02*
X109000000Y-76000000D01*
X109000000Y-76000000D02*
X114250000Y-81250000D01*
X115750000Y-80650000D02*
X115750000Y-95750000D01*
X91500000Y-73900000D02*
X92700000Y-75100000D01*
X92700000Y-75100000D02*
X110200000Y-75100000D01*
X91500000Y-72677500D02*
X91500000Y-73900000D01*
X91540000Y-72637500D02*
X91500000Y-72677500D01*
X110200000Y-75100000D02*
X115750000Y-80650000D01*
X93200000Y-74100000D02*
X111200000Y-74100000D01*
X92810000Y-72637500D02*
X92810000Y-73710000D01*
X117250000Y-80150000D02*
X117250000Y-95750000D01*
X111200000Y-74100000D02*
X117250000Y-80150000D01*
X92810000Y-73710000D02*
X93200000Y-74100000D01*
X118750000Y-79750000D02*
X118750000Y-95750000D01*
X112100000Y-73100000D02*
X118750000Y-79750000D01*
X94562500Y-70880000D02*
X95680000Y-70880000D01*
X97900000Y-73100000D02*
X112100000Y-73100000D01*
X95680000Y-70880000D02*
X97900000Y-73100000D01*
X105800000Y-68700000D02*
X105800000Y-67300000D01*
X105800000Y-67300000D02*
X103400000Y-64900000D01*
X102250000Y-90450000D02*
X106250001Y-86449999D01*
X106350001Y-83449999D02*
X106700000Y-83100000D01*
X106250001Y-83549999D02*
X106350001Y-83449999D01*
X102250000Y-95750000D02*
X102250000Y-90450000D01*
X106250001Y-86449999D02*
X106250001Y-83549999D01*
X85190000Y-58962500D02*
X85190000Y-59800000D01*
X91705024Y-61600002D02*
X92199998Y-61600002D01*
X85190000Y-59800000D02*
X86990002Y-61600002D01*
X86990002Y-61600002D02*
X91705024Y-61600002D01*
X103750000Y-95750000D02*
X103750000Y-90050000D01*
X107300000Y-86500000D02*
X107300000Y-85100000D01*
X103750000Y-90050000D02*
X107300000Y-86500000D01*
X97690000Y-61990000D02*
X94562500Y-61990000D01*
X99600000Y-63900000D02*
X97690000Y-61990000D01*
X108900000Y-63900000D02*
X99600000Y-63900000D01*
X117700002Y-74700002D02*
X117700002Y-72700002D01*
X117700002Y-72700002D02*
X108900000Y-63900000D01*
X105250000Y-95750000D02*
X105250000Y-89950000D01*
X105250000Y-89950000D02*
X107100000Y-88100000D01*
X107100000Y-88100000D02*
X107200000Y-88100000D01*
X107200000Y-88100000D02*
X107300000Y-88000000D01*
X104900000Y-62700000D02*
X105699870Y-62700000D01*
X110100000Y-62700000D02*
X104900000Y-62700000D01*
X119099998Y-76100128D02*
X119099998Y-71699998D01*
X119099998Y-71699998D02*
X110100000Y-62700000D01*
X99700000Y-62700000D02*
X104900000Y-62700000D01*
X97750000Y-60750000D02*
X99700000Y-62700000D01*
X94562500Y-60720000D02*
X94592500Y-60750000D01*
X94592500Y-60750000D02*
X97750000Y-60750000D01*
X94750000Y-95750000D02*
X94750000Y-91350000D01*
X94750000Y-91350000D02*
X94700000Y-91300000D01*
X82750001Y-90950001D02*
X83100000Y-91300000D01*
X83417500Y-60700000D02*
X81200000Y-60700000D01*
X76900000Y-65000000D02*
X76900000Y-85100000D01*
X83437500Y-60720000D02*
X83417500Y-60700000D01*
X81200000Y-60700000D02*
X76900000Y-65000000D01*
X76900000Y-85100000D02*
X82750001Y-90950001D01*
X93250000Y-89300004D02*
X93249996Y-89300000D01*
X93250000Y-95750000D02*
X93250000Y-89300004D01*
X82750001Y-88950001D02*
X83100000Y-89300000D01*
X83427500Y-62000000D02*
X81200000Y-62000000D01*
X83437500Y-61990000D02*
X83427500Y-62000000D01*
X81200000Y-62000000D02*
X77500000Y-65700000D01*
X77500000Y-65700000D02*
X77500000Y-83700000D01*
X77500000Y-83700000D02*
X82750001Y-88950001D01*
X91750000Y-95750000D02*
X91750000Y-87350000D01*
X82750001Y-86950001D02*
X83100000Y-87300000D01*
X83397500Y-63300000D02*
X81300000Y-63300000D01*
X83437500Y-63260000D02*
X83397500Y-63300000D01*
X81300000Y-63300000D02*
X78100000Y-66500000D01*
X78100000Y-66500000D02*
X78100000Y-82300000D01*
X78100000Y-82300000D02*
X82750001Y-86950001D01*
X90250000Y-95750000D02*
X90250000Y-85450000D01*
X82750001Y-85050001D02*
X83100000Y-85400000D01*
X83407500Y-64500000D02*
X81400000Y-64500000D01*
X83437500Y-64530000D02*
X83407500Y-64500000D01*
X81400000Y-64500000D02*
X78700000Y-67200000D01*
X78700000Y-67200000D02*
X78700000Y-81000000D01*
X78700000Y-81000000D02*
X82750001Y-85050001D01*
X88750000Y-95750000D02*
X88750000Y-83550000D01*
X79300000Y-68000000D02*
X79300000Y-79699998D01*
X82750003Y-83150001D02*
X83100002Y-83500000D01*
X79300000Y-79699998D02*
X82750003Y-83150001D01*
X83437500Y-65800000D02*
X81500000Y-65800000D01*
X81500000Y-65800000D02*
X79300000Y-68000000D01*
X87250000Y-95750000D02*
X87250000Y-81750006D01*
X83407500Y-67100000D02*
X81700000Y-67100000D01*
X82850001Y-81250001D02*
X83200000Y-81600000D01*
X83437500Y-67070000D02*
X83407500Y-67100000D01*
X81700000Y-67100000D02*
X79900000Y-68900000D01*
X79900000Y-78300000D02*
X82850001Y-81250001D01*
X79900000Y-68900000D02*
X79900000Y-78300000D01*
X85750000Y-95750000D02*
X85750000Y-79550000D01*
X85750000Y-79550000D02*
X85800000Y-79500000D01*
X83377500Y-68400000D02*
X81800000Y-68400000D01*
X83437500Y-68340000D02*
X83377500Y-68400000D01*
X81800000Y-68400000D02*
X80500000Y-69700000D01*
X80500000Y-76800001D02*
X82850000Y-79150001D01*
X82850000Y-79150001D02*
X83199999Y-79500000D01*
X80500000Y-69700000D02*
X80500000Y-76800001D01*
X81990000Y-69610000D02*
X83437500Y-69610000D01*
X81100000Y-70500000D02*
X81990000Y-69610000D01*
X81100000Y-75000000D02*
X81100000Y-70500000D01*
X84250000Y-95750000D02*
X84250000Y-78150000D01*
X84250000Y-78150000D02*
X81100000Y-75000000D01*
X94562500Y-68340000D02*
X100439998Y-68340000D01*
X104300000Y-81500000D02*
X103649999Y-80849999D01*
X104300000Y-86400000D02*
X104300000Y-81500000D01*
X99250000Y-91450000D02*
X104300000Y-86400000D01*
X99250000Y-95750000D02*
X99250000Y-91450000D01*
X103649999Y-80849999D02*
X103300000Y-80500000D01*
X81250000Y-95750000D02*
X81250000Y-90950000D01*
X76299990Y-60800010D02*
X80000000Y-57100000D01*
X76299990Y-85999990D02*
X76299990Y-60800010D01*
X81250000Y-90950000D02*
X76299990Y-85999990D01*
X81500000Y-57100000D02*
X80000000Y-57100000D01*
X91500000Y-67100000D02*
X81500000Y-57100000D01*
X94562500Y-67070000D02*
X94532500Y-67100000D01*
X94532500Y-67100000D02*
X91500000Y-67100000D01*
X105100000Y-82194974D02*
X105100000Y-81700000D01*
X105100000Y-86448542D02*
X105100000Y-82194974D01*
X100750000Y-95750000D02*
X100750000Y-90798542D01*
X100750000Y-90798542D02*
X105100000Y-86448542D01*
X94562500Y-65800000D02*
X100299998Y-65800000D01*
X102849999Y-68350001D02*
X103199998Y-68700000D01*
X100299998Y-65800000D02*
X102849999Y-68350001D01*
X98730000Y-64530000D02*
X98800000Y-64600000D01*
X94562500Y-64530000D02*
X98730000Y-64530000D01*
X95200000Y-87400000D02*
X95200000Y-82300000D01*
X97750000Y-95750000D02*
X97750000Y-89950000D01*
X95200000Y-82300000D02*
X96600000Y-80900000D01*
X97750000Y-89950000D02*
X95200000Y-87400000D01*
X94562500Y-63260000D02*
X96760000Y-63260000D01*
X96760000Y-63260000D02*
X96800000Y-63300000D01*
X94100000Y-81494974D02*
X94100000Y-81000000D01*
X94100000Y-88100000D02*
X94100000Y-81494974D01*
X96250000Y-95750000D02*
X96250000Y-90250000D01*
X96250000Y-90250000D02*
X94100000Y-88100000D01*
X106750000Y-95750000D02*
X106750000Y-90650000D01*
X106750000Y-90650000D02*
X107300000Y-90100000D01*
X111400000Y-69600000D02*
X109100000Y-69600000D01*
X120100000Y-78300000D02*
X111400000Y-69600000D01*
X94572500Y-69600000D02*
X94562500Y-69610000D01*
X109100000Y-69600000D02*
X94572500Y-69600000D01*
X105450000Y-55487500D02*
X105500000Y-55437500D01*
X103600000Y-55487500D02*
X105450000Y-55487500D01*
X107662500Y-55437500D02*
X107800000Y-55300000D01*
X105500000Y-55437500D02*
X107662500Y-55437500D01*
X111200000Y-55300000D02*
X111300000Y-55400000D01*
X107800000Y-55300000D02*
X111200000Y-55300000D01*
X121750000Y-65850000D02*
X121750000Y-95750000D01*
X111300000Y-55400000D02*
X121750000Y-65850000D01*
X92900000Y-60600000D02*
X98012500Y-55487500D01*
X92200000Y-60600000D02*
X92900000Y-60600000D01*
X91540000Y-58962500D02*
X91540000Y-59940000D01*
X98012500Y-55487500D02*
X103600000Y-55487500D01*
X91540000Y-59940000D02*
X92200000Y-60600000D01*
M02*
