G04 #@! TF.GenerationSoftware,KiCad,Pcbnew,5.1.2-f72e74a~84~ubuntu19.04.1*
G04 #@! TF.CreationDate,2019-06-20T20:45:38+03:00*
G04 #@! TF.ProjectId,GB-CART32K-A,47422d43-4152-4543-9332-4b2d412e6b69,v1.0*
G04 #@! TF.SameCoordinates,Original*
G04 #@! TF.FileFunction,Soldermask,Bot*
G04 #@! TF.FilePolarity,Negative*
%FSLAX46Y46*%
G04 Gerber Fmt 4.6, Leading zero omitted, Abs format (unit mm)*
G04 Created by KiCad (PCBNEW 5.1.2-f72e74a~84~ubuntu19.04.1) date 2019-06-20 20:45:38*
%MOMM*%
%LPD*%
G04 APERTURE LIST*
%ADD10C,0.150000*%
%ADD11C,2.000000*%
%ADD12C,2.300000*%
%ADD13C,7.200000*%
G04 APERTURE END LIST*
D10*
X74800000Y-91400000D02*
G75*
G02X74300000Y-90900000I0J500000D01*
G01*
X74300000Y-39500000D02*
G75*
G02X74800000Y-39000000I500000J0D01*
G01*
X121200000Y-39000000D02*
G75*
G02X121700000Y-39500000I0J-500000D01*
G01*
X125200000Y-41600000D02*
G75*
G02X125700000Y-42100000I0J-500000D01*
G01*
X125700000Y-90900000D02*
G75*
G02X125200000Y-91400000I-500000J0D01*
G01*
X76300000Y-100000000D02*
G75*
G02X75400000Y-99100000I0J900000D01*
G01*
X124600000Y-99100000D02*
G75*
G02X123700000Y-100000000I-900000J0D01*
G01*
X121700000Y-39500000D02*
X121700000Y-41600000D01*
X74800000Y-39000000D02*
X121200000Y-39000000D01*
X125200000Y-41600000D02*
X121700000Y-41600000D01*
X74300000Y-90900000D02*
X74300000Y-39500000D01*
X75400000Y-91400000D02*
X74800000Y-91400000D01*
X75400000Y-99100000D02*
X75400000Y-91400000D01*
X125700000Y-90900000D02*
X125700000Y-42100000D01*
X124600000Y-91400000D02*
X125200000Y-91400000D01*
X124600000Y-99100000D02*
X124600000Y-91400000D01*
X76300000Y-100000000D02*
X123700000Y-100000000D01*
D11*
X111300000Y-55400000D03*
X109100000Y-69600000D03*
X80000000Y-57100000D03*
X85700000Y-53100000D03*
D12*
X100000000Y-59650000D03*
D13*
X100000000Y-84650000D03*
M02*
