G04 #@! TF.GenerationSoftware,KiCad,Pcbnew,5.0.1-33cea8e~68~ubuntu18.10.1*
G04 #@! TF.CreationDate,2018-11-26T23:49:52+02:00*
G04 #@! TF.ProjectId,GB-CART2M-A,47422D43415254324D2D412E6B696361,v1.0*
G04 #@! TF.SameCoordinates,Original*
G04 #@! TF.FileFunction,Soldermask,Top*
G04 #@! TF.FilePolarity,Negative*
%FSLAX46Y46*%
G04 Gerber Fmt 4.6, Leading zero omitted, Abs format (unit mm)*
G04 Created by KiCad (PCBNEW 5.0.1-33cea8e~68~ubuntu18.10.1) date ma 26. marraskuuta 2018 23.49.52*
%MOMM*%
%LPD*%
G01*
G04 APERTURE LIST*
%ADD10C,0.150000*%
%ADD11C,0.100000*%
G04 APERTURE END LIST*
D10*
X121700000Y-39000000D02*
X121700000Y-41600000D01*
X74300000Y-39000000D02*
X121700000Y-39000000D01*
X125700000Y-41600000D02*
X121700000Y-41600000D01*
X74300000Y-91400000D02*
X74300000Y-39000000D01*
X75400000Y-91400000D02*
X74300000Y-91400000D01*
X75400000Y-100000000D02*
X75400000Y-91400000D01*
X125700000Y-91400000D02*
X125700000Y-41600000D01*
X124600000Y-91400000D02*
X125700000Y-91400000D01*
X124600000Y-100000000D02*
X124600000Y-91400000D01*
X75400000Y-100000000D02*
X124600000Y-100000000D01*
D11*
G36*
X77250000Y-99000000D02*
X75950000Y-99000000D01*
X75950000Y-93000000D01*
X77250000Y-93000000D01*
X77250000Y-99000000D01*
X77250000Y-99000000D01*
G37*
G36*
X124050000Y-99000000D02*
X122750000Y-99000000D01*
X122750000Y-93000000D01*
X124050000Y-93000000D01*
X124050000Y-99000000D01*
X124050000Y-99000000D01*
G37*
G36*
X122250000Y-98500000D02*
X121250000Y-98500000D01*
X121250000Y-93000000D01*
X122250000Y-93000000D01*
X122250000Y-98500000D01*
X122250000Y-98500000D01*
G37*
G36*
X78750000Y-98500000D02*
X77750000Y-98500000D01*
X77750000Y-93000000D01*
X78750000Y-93000000D01*
X78750000Y-98500000D01*
X78750000Y-98500000D01*
G37*
G36*
X120750000Y-98500000D02*
X119750000Y-98500000D01*
X119750000Y-93000000D01*
X120750000Y-93000000D01*
X120750000Y-98500000D01*
X120750000Y-98500000D01*
G37*
G36*
X119250000Y-98500000D02*
X118250000Y-98500000D01*
X118250000Y-93000000D01*
X119250000Y-93000000D01*
X119250000Y-98500000D01*
X119250000Y-98500000D01*
G37*
G36*
X117750000Y-98500000D02*
X116750000Y-98500000D01*
X116750000Y-93000000D01*
X117750000Y-93000000D01*
X117750000Y-98500000D01*
X117750000Y-98500000D01*
G37*
G36*
X116250000Y-98500000D02*
X115250000Y-98500000D01*
X115250000Y-93000000D01*
X116250000Y-93000000D01*
X116250000Y-98500000D01*
X116250000Y-98500000D01*
G37*
G36*
X114750000Y-98500000D02*
X113750000Y-98500000D01*
X113750000Y-93000000D01*
X114750000Y-93000000D01*
X114750000Y-98500000D01*
X114750000Y-98500000D01*
G37*
G36*
X113250000Y-98500000D02*
X112250000Y-98500000D01*
X112250000Y-93000000D01*
X113250000Y-93000000D01*
X113250000Y-98500000D01*
X113250000Y-98500000D01*
G37*
G36*
X111750000Y-98500000D02*
X110750000Y-98500000D01*
X110750000Y-93000000D01*
X111750000Y-93000000D01*
X111750000Y-98500000D01*
X111750000Y-98500000D01*
G37*
G36*
X110250000Y-98500000D02*
X109250000Y-98500000D01*
X109250000Y-93000000D01*
X110250000Y-93000000D01*
X110250000Y-98500000D01*
X110250000Y-98500000D01*
G37*
G36*
X108750000Y-98500000D02*
X107750000Y-98500000D01*
X107750000Y-93000000D01*
X108750000Y-93000000D01*
X108750000Y-98500000D01*
X108750000Y-98500000D01*
G37*
G36*
X107250000Y-98500000D02*
X106250000Y-98500000D01*
X106250000Y-93000000D01*
X107250000Y-93000000D01*
X107250000Y-98500000D01*
X107250000Y-98500000D01*
G37*
G36*
X105750000Y-98500000D02*
X104750000Y-98500000D01*
X104750000Y-93000000D01*
X105750000Y-93000000D01*
X105750000Y-98500000D01*
X105750000Y-98500000D01*
G37*
G36*
X104250000Y-98500000D02*
X103250000Y-98500000D01*
X103250000Y-93000000D01*
X104250000Y-93000000D01*
X104250000Y-98500000D01*
X104250000Y-98500000D01*
G37*
G36*
X102750000Y-98500000D02*
X101750000Y-98500000D01*
X101750000Y-93000000D01*
X102750000Y-93000000D01*
X102750000Y-98500000D01*
X102750000Y-98500000D01*
G37*
G36*
X99750000Y-98500000D02*
X98750000Y-98500000D01*
X98750000Y-93000000D01*
X99750000Y-93000000D01*
X99750000Y-98500000D01*
X99750000Y-98500000D01*
G37*
G36*
X80250000Y-98500000D02*
X79250000Y-98500000D01*
X79250000Y-93000000D01*
X80250000Y-93000000D01*
X80250000Y-98500000D01*
X80250000Y-98500000D01*
G37*
G36*
X81750000Y-98500000D02*
X80750000Y-98500000D01*
X80750000Y-93000000D01*
X81750000Y-93000000D01*
X81750000Y-98500000D01*
X81750000Y-98500000D01*
G37*
G36*
X83250000Y-98500000D02*
X82250000Y-98500000D01*
X82250000Y-93000000D01*
X83250000Y-93000000D01*
X83250000Y-98500000D01*
X83250000Y-98500000D01*
G37*
G36*
X84750000Y-98500000D02*
X83750000Y-98500000D01*
X83750000Y-93000000D01*
X84750000Y-93000000D01*
X84750000Y-98500000D01*
X84750000Y-98500000D01*
G37*
G36*
X86250000Y-98500000D02*
X85250000Y-98500000D01*
X85250000Y-93000000D01*
X86250000Y-93000000D01*
X86250000Y-98500000D01*
X86250000Y-98500000D01*
G37*
G36*
X87750000Y-98500000D02*
X86750000Y-98500000D01*
X86750000Y-93000000D01*
X87750000Y-93000000D01*
X87750000Y-98500000D01*
X87750000Y-98500000D01*
G37*
G36*
X89250000Y-98500000D02*
X88250000Y-98500000D01*
X88250000Y-93000000D01*
X89250000Y-93000000D01*
X89250000Y-98500000D01*
X89250000Y-98500000D01*
G37*
G36*
X92250000Y-98500000D02*
X91250000Y-98500000D01*
X91250000Y-93000000D01*
X92250000Y-93000000D01*
X92250000Y-98500000D01*
X92250000Y-98500000D01*
G37*
G36*
X93750000Y-98500000D02*
X92750000Y-98500000D01*
X92750000Y-93000000D01*
X93750000Y-93000000D01*
X93750000Y-98500000D01*
X93750000Y-98500000D01*
G37*
G36*
X95250000Y-98500000D02*
X94250000Y-98500000D01*
X94250000Y-93000000D01*
X95250000Y-93000000D01*
X95250000Y-98500000D01*
X95250000Y-98500000D01*
G37*
G36*
X96750000Y-98500000D02*
X95750000Y-98500000D01*
X95750000Y-93000000D01*
X96750000Y-93000000D01*
X96750000Y-98500000D01*
X96750000Y-98500000D01*
G37*
G36*
X98250000Y-98500000D02*
X97250000Y-98500000D01*
X97250000Y-93000000D01*
X98250000Y-93000000D01*
X98250000Y-98500000D01*
X98250000Y-98500000D01*
G37*
G36*
X101250000Y-98500000D02*
X100250000Y-98500000D01*
X100250000Y-93000000D01*
X101250000Y-93000000D01*
X101250000Y-98500000D01*
X101250000Y-98500000D01*
G37*
G36*
X90750000Y-98500000D02*
X89750000Y-98500000D01*
X89750000Y-93000000D01*
X90750000Y-93000000D01*
X90750000Y-98500000D01*
X90750000Y-98500000D01*
G37*
G36*
X101050081Y-81188346D02*
X101050083Y-81188347D01*
X101050084Y-81188347D01*
X101292095Y-81288591D01*
X101705240Y-81459721D01*
X102294866Y-81853697D01*
X102796303Y-82355134D01*
X103190279Y-82944760D01*
X103461654Y-83599919D01*
X103600000Y-84295431D01*
X103600000Y-85004569D01*
X103461654Y-85700081D01*
X103190279Y-86355240D01*
X102796303Y-86944866D01*
X102294866Y-87446303D01*
X101705240Y-87840279D01*
X101292095Y-88011409D01*
X101050084Y-88111653D01*
X101050083Y-88111653D01*
X101050081Y-88111654D01*
X100354569Y-88250000D01*
X99645431Y-88250000D01*
X98949919Y-88111654D01*
X98949917Y-88111653D01*
X98949916Y-88111653D01*
X98707905Y-88011409D01*
X98294760Y-87840279D01*
X97705134Y-87446303D01*
X97203697Y-86944866D01*
X96809721Y-86355240D01*
X96538346Y-85700081D01*
X96400000Y-85004569D01*
X96400000Y-84295431D01*
X96538346Y-83599919D01*
X96809721Y-82944760D01*
X97203697Y-82355134D01*
X97705134Y-81853697D01*
X98294760Y-81459721D01*
X98707905Y-81288591D01*
X98949916Y-81188347D01*
X98949917Y-81188347D01*
X98949919Y-81188346D01*
X99645431Y-81050000D01*
X100354569Y-81050000D01*
X101050081Y-81188346D01*
X101050081Y-81188346D01*
G37*
G36*
X99642146Y-75333356D02*
X99660815Y-75339019D01*
X99678021Y-75348216D01*
X99693101Y-75360591D01*
X99705476Y-75375671D01*
X99714673Y-75392877D01*
X99720336Y-75411546D01*
X99722732Y-75435868D01*
X99722732Y-76701052D01*
X99720336Y-76725374D01*
X99714673Y-76744043D01*
X99705476Y-76761249D01*
X99693101Y-76776329D01*
X99678021Y-76788704D01*
X99660815Y-76797901D01*
X99642146Y-76803564D01*
X99617824Y-76805960D01*
X99227640Y-76805960D01*
X99203318Y-76803564D01*
X99184649Y-76797901D01*
X99167443Y-76788704D01*
X99152363Y-76776329D01*
X99139988Y-76761249D01*
X99130791Y-76744043D01*
X99125128Y-76725374D01*
X99122732Y-76701052D01*
X99122732Y-75435868D01*
X99125128Y-75411546D01*
X99130791Y-75392877D01*
X99139988Y-75375671D01*
X99152363Y-75360591D01*
X99167443Y-75348216D01*
X99184649Y-75339019D01*
X99203318Y-75333356D01*
X99227640Y-75330960D01*
X99617824Y-75330960D01*
X99642146Y-75333356D01*
X99642146Y-75333356D01*
G37*
G36*
X90752146Y-75333356D02*
X90770815Y-75339019D01*
X90788021Y-75348216D01*
X90803101Y-75360591D01*
X90815476Y-75375671D01*
X90824673Y-75392877D01*
X90830336Y-75411546D01*
X90832732Y-75435868D01*
X90832732Y-76701052D01*
X90830336Y-76725374D01*
X90824673Y-76744043D01*
X90815476Y-76761249D01*
X90803101Y-76776329D01*
X90788021Y-76788704D01*
X90770815Y-76797901D01*
X90752146Y-76803564D01*
X90727824Y-76805960D01*
X90337640Y-76805960D01*
X90313318Y-76803564D01*
X90294649Y-76797901D01*
X90277443Y-76788704D01*
X90262363Y-76776329D01*
X90249988Y-76761249D01*
X90240791Y-76744043D01*
X90235128Y-76725374D01*
X90232732Y-76701052D01*
X90232732Y-75435868D01*
X90235128Y-75411546D01*
X90240791Y-75392877D01*
X90249988Y-75375671D01*
X90262363Y-75360591D01*
X90277443Y-75348216D01*
X90294649Y-75339019D01*
X90313318Y-75333356D01*
X90337640Y-75330960D01*
X90727824Y-75330960D01*
X90752146Y-75333356D01*
X90752146Y-75333356D01*
G37*
G36*
X92022146Y-75333356D02*
X92040815Y-75339019D01*
X92058021Y-75348216D01*
X92073101Y-75360591D01*
X92085476Y-75375671D01*
X92094673Y-75392877D01*
X92100336Y-75411546D01*
X92102732Y-75435868D01*
X92102732Y-76701052D01*
X92100336Y-76725374D01*
X92094673Y-76744043D01*
X92085476Y-76761249D01*
X92073101Y-76776329D01*
X92058021Y-76788704D01*
X92040815Y-76797901D01*
X92022146Y-76803564D01*
X91997824Y-76805960D01*
X91607640Y-76805960D01*
X91583318Y-76803564D01*
X91564649Y-76797901D01*
X91547443Y-76788704D01*
X91532363Y-76776329D01*
X91519988Y-76761249D01*
X91510791Y-76744043D01*
X91505128Y-76725374D01*
X91502732Y-76701052D01*
X91502732Y-75435868D01*
X91505128Y-75411546D01*
X91510791Y-75392877D01*
X91519988Y-75375671D01*
X91532363Y-75360591D01*
X91547443Y-75348216D01*
X91564649Y-75339019D01*
X91583318Y-75333356D01*
X91607640Y-75330960D01*
X91997824Y-75330960D01*
X92022146Y-75333356D01*
X92022146Y-75333356D01*
G37*
G36*
X93292146Y-75333356D02*
X93310815Y-75339019D01*
X93328021Y-75348216D01*
X93343101Y-75360591D01*
X93355476Y-75375671D01*
X93364673Y-75392877D01*
X93370336Y-75411546D01*
X93372732Y-75435868D01*
X93372732Y-76701052D01*
X93370336Y-76725374D01*
X93364673Y-76744043D01*
X93355476Y-76761249D01*
X93343101Y-76776329D01*
X93328021Y-76788704D01*
X93310815Y-76797901D01*
X93292146Y-76803564D01*
X93267824Y-76805960D01*
X92877640Y-76805960D01*
X92853318Y-76803564D01*
X92834649Y-76797901D01*
X92817443Y-76788704D01*
X92802363Y-76776329D01*
X92789988Y-76761249D01*
X92780791Y-76744043D01*
X92775128Y-76725374D01*
X92772732Y-76701052D01*
X92772732Y-75435868D01*
X92775128Y-75411546D01*
X92780791Y-75392877D01*
X92789988Y-75375671D01*
X92802363Y-75360591D01*
X92817443Y-75348216D01*
X92834649Y-75339019D01*
X92853318Y-75333356D01*
X92877640Y-75330960D01*
X93267824Y-75330960D01*
X93292146Y-75333356D01*
X93292146Y-75333356D01*
G37*
G36*
X94562146Y-75333356D02*
X94580815Y-75339019D01*
X94598021Y-75348216D01*
X94613101Y-75360591D01*
X94625476Y-75375671D01*
X94634673Y-75392877D01*
X94640336Y-75411546D01*
X94642732Y-75435868D01*
X94642732Y-76701052D01*
X94640336Y-76725374D01*
X94634673Y-76744043D01*
X94625476Y-76761249D01*
X94613101Y-76776329D01*
X94598021Y-76788704D01*
X94580815Y-76797901D01*
X94562146Y-76803564D01*
X94537824Y-76805960D01*
X94147640Y-76805960D01*
X94123318Y-76803564D01*
X94104649Y-76797901D01*
X94087443Y-76788704D01*
X94072363Y-76776329D01*
X94059988Y-76761249D01*
X94050791Y-76744043D01*
X94045128Y-76725374D01*
X94042732Y-76701052D01*
X94042732Y-75435868D01*
X94045128Y-75411546D01*
X94050791Y-75392877D01*
X94059988Y-75375671D01*
X94072363Y-75360591D01*
X94087443Y-75348216D01*
X94104649Y-75339019D01*
X94123318Y-75333356D01*
X94147640Y-75330960D01*
X94537824Y-75330960D01*
X94562146Y-75333356D01*
X94562146Y-75333356D01*
G37*
G36*
X95832146Y-75333356D02*
X95850815Y-75339019D01*
X95868021Y-75348216D01*
X95883101Y-75360591D01*
X95895476Y-75375671D01*
X95904673Y-75392877D01*
X95910336Y-75411546D01*
X95912732Y-75435868D01*
X95912732Y-76701052D01*
X95910336Y-76725374D01*
X95904673Y-76744043D01*
X95895476Y-76761249D01*
X95883101Y-76776329D01*
X95868021Y-76788704D01*
X95850815Y-76797901D01*
X95832146Y-76803564D01*
X95807824Y-76805960D01*
X95417640Y-76805960D01*
X95393318Y-76803564D01*
X95374649Y-76797901D01*
X95357443Y-76788704D01*
X95342363Y-76776329D01*
X95329988Y-76761249D01*
X95320791Y-76744043D01*
X95315128Y-76725374D01*
X95312732Y-76701052D01*
X95312732Y-75435868D01*
X95315128Y-75411546D01*
X95320791Y-75392877D01*
X95329988Y-75375671D01*
X95342363Y-75360591D01*
X95357443Y-75348216D01*
X95374649Y-75339019D01*
X95393318Y-75333356D01*
X95417640Y-75330960D01*
X95807824Y-75330960D01*
X95832146Y-75333356D01*
X95832146Y-75333356D01*
G37*
G36*
X97102146Y-75333356D02*
X97120815Y-75339019D01*
X97138021Y-75348216D01*
X97153101Y-75360591D01*
X97165476Y-75375671D01*
X97174673Y-75392877D01*
X97180336Y-75411546D01*
X97182732Y-75435868D01*
X97182732Y-76701052D01*
X97180336Y-76725374D01*
X97174673Y-76744043D01*
X97165476Y-76761249D01*
X97153101Y-76776329D01*
X97138021Y-76788704D01*
X97120815Y-76797901D01*
X97102146Y-76803564D01*
X97077824Y-76805960D01*
X96687640Y-76805960D01*
X96663318Y-76803564D01*
X96644649Y-76797901D01*
X96627443Y-76788704D01*
X96612363Y-76776329D01*
X96599988Y-76761249D01*
X96590791Y-76744043D01*
X96585128Y-76725374D01*
X96582732Y-76701052D01*
X96582732Y-75435868D01*
X96585128Y-75411546D01*
X96590791Y-75392877D01*
X96599988Y-75375671D01*
X96612363Y-75360591D01*
X96627443Y-75348216D01*
X96644649Y-75339019D01*
X96663318Y-75333356D01*
X96687640Y-75330960D01*
X97077824Y-75330960D01*
X97102146Y-75333356D01*
X97102146Y-75333356D01*
G37*
G36*
X98372146Y-75333356D02*
X98390815Y-75339019D01*
X98408021Y-75348216D01*
X98423101Y-75360591D01*
X98435476Y-75375671D01*
X98444673Y-75392877D01*
X98450336Y-75411546D01*
X98452732Y-75435868D01*
X98452732Y-76701052D01*
X98450336Y-76725374D01*
X98444673Y-76744043D01*
X98435476Y-76761249D01*
X98423101Y-76776329D01*
X98408021Y-76788704D01*
X98390815Y-76797901D01*
X98372146Y-76803564D01*
X98347824Y-76805960D01*
X97957640Y-76805960D01*
X97933318Y-76803564D01*
X97914649Y-76797901D01*
X97897443Y-76788704D01*
X97882363Y-76776329D01*
X97869988Y-76761249D01*
X97860791Y-76744043D01*
X97855128Y-76725374D01*
X97852732Y-76701052D01*
X97852732Y-75435868D01*
X97855128Y-75411546D01*
X97860791Y-75392877D01*
X97869988Y-75375671D01*
X97882363Y-75360591D01*
X97897443Y-75348216D01*
X97914649Y-75339019D01*
X97933318Y-75333356D01*
X97957640Y-75330960D01*
X98347824Y-75330960D01*
X98372146Y-75333356D01*
X98372146Y-75333356D01*
G37*
G36*
X100912146Y-75333356D02*
X100930815Y-75339019D01*
X100948021Y-75348216D01*
X100963101Y-75360591D01*
X100975476Y-75375671D01*
X100984673Y-75392877D01*
X100990336Y-75411546D01*
X100992732Y-75435868D01*
X100992732Y-76701052D01*
X100990336Y-76725374D01*
X100984673Y-76744043D01*
X100975476Y-76761249D01*
X100963101Y-76776329D01*
X100948021Y-76788704D01*
X100930815Y-76797901D01*
X100912146Y-76803564D01*
X100887824Y-76805960D01*
X100497640Y-76805960D01*
X100473318Y-76803564D01*
X100454649Y-76797901D01*
X100437443Y-76788704D01*
X100422363Y-76776329D01*
X100409988Y-76761249D01*
X100400791Y-76744043D01*
X100395128Y-76725374D01*
X100392732Y-76701052D01*
X100392732Y-75435868D01*
X100395128Y-75411546D01*
X100400791Y-75392877D01*
X100409988Y-75375671D01*
X100422363Y-75360591D01*
X100437443Y-75348216D01*
X100454649Y-75339019D01*
X100473318Y-75333356D01*
X100497640Y-75330960D01*
X100887824Y-75330960D01*
X100912146Y-75333356D01*
X100912146Y-75333356D01*
G37*
G36*
X103107146Y-74018356D02*
X103125815Y-74024019D01*
X103143021Y-74033216D01*
X103158101Y-74045591D01*
X103170476Y-74060671D01*
X103179673Y-74077877D01*
X103185336Y-74096546D01*
X103187732Y-74120868D01*
X103187732Y-74511052D01*
X103185336Y-74535374D01*
X103179673Y-74554043D01*
X103170476Y-74571249D01*
X103158101Y-74586329D01*
X103143021Y-74598704D01*
X103125815Y-74607901D01*
X103107146Y-74613564D01*
X103082824Y-74615960D01*
X101817640Y-74615960D01*
X101793318Y-74613564D01*
X101774649Y-74607901D01*
X101757443Y-74598704D01*
X101742363Y-74586329D01*
X101729988Y-74571249D01*
X101720791Y-74554043D01*
X101715128Y-74535374D01*
X101712732Y-74511052D01*
X101712732Y-74120868D01*
X101715128Y-74096546D01*
X101720791Y-74077877D01*
X101729988Y-74060671D01*
X101742363Y-74045591D01*
X101757443Y-74033216D01*
X101774649Y-74024019D01*
X101793318Y-74018356D01*
X101817640Y-74015960D01*
X103082824Y-74015960D01*
X103107146Y-74018356D01*
X103107146Y-74018356D01*
G37*
G36*
X89432146Y-74018356D02*
X89450815Y-74024019D01*
X89468021Y-74033216D01*
X89483101Y-74045591D01*
X89495476Y-74060671D01*
X89504673Y-74077877D01*
X89510336Y-74096546D01*
X89512732Y-74120868D01*
X89512732Y-74511052D01*
X89510336Y-74535374D01*
X89504673Y-74554043D01*
X89495476Y-74571249D01*
X89483101Y-74586329D01*
X89468021Y-74598704D01*
X89450815Y-74607901D01*
X89432146Y-74613564D01*
X89407824Y-74615960D01*
X88142640Y-74615960D01*
X88118318Y-74613564D01*
X88099649Y-74607901D01*
X88082443Y-74598704D01*
X88067363Y-74586329D01*
X88054988Y-74571249D01*
X88045791Y-74554043D01*
X88040128Y-74535374D01*
X88037732Y-74511052D01*
X88037732Y-74120868D01*
X88040128Y-74096546D01*
X88045791Y-74077877D01*
X88054988Y-74060671D01*
X88067363Y-74045591D01*
X88082443Y-74033216D01*
X88099649Y-74024019D01*
X88118318Y-74018356D01*
X88142640Y-74015960D01*
X89407824Y-74015960D01*
X89432146Y-74018356D01*
X89432146Y-74018356D01*
G37*
G36*
X89432146Y-72748356D02*
X89450815Y-72754019D01*
X89468021Y-72763216D01*
X89483101Y-72775591D01*
X89495476Y-72790671D01*
X89504673Y-72807877D01*
X89510336Y-72826546D01*
X89512732Y-72850868D01*
X89512732Y-73241052D01*
X89510336Y-73265374D01*
X89504673Y-73284043D01*
X89495476Y-73301249D01*
X89483101Y-73316329D01*
X89468021Y-73328704D01*
X89450815Y-73337901D01*
X89432146Y-73343564D01*
X89407824Y-73345960D01*
X88142640Y-73345960D01*
X88118318Y-73343564D01*
X88099649Y-73337901D01*
X88082443Y-73328704D01*
X88067363Y-73316329D01*
X88054988Y-73301249D01*
X88045791Y-73284043D01*
X88040128Y-73265374D01*
X88037732Y-73241052D01*
X88037732Y-72850868D01*
X88040128Y-72826546D01*
X88045791Y-72807877D01*
X88054988Y-72790671D01*
X88067363Y-72775591D01*
X88082443Y-72763216D01*
X88099649Y-72754019D01*
X88118318Y-72748356D01*
X88142640Y-72745960D01*
X89407824Y-72745960D01*
X89432146Y-72748356D01*
X89432146Y-72748356D01*
G37*
G36*
X103107146Y-72748356D02*
X103125815Y-72754019D01*
X103143021Y-72763216D01*
X103158101Y-72775591D01*
X103170476Y-72790671D01*
X103179673Y-72807877D01*
X103185336Y-72826546D01*
X103187732Y-72850868D01*
X103187732Y-73241052D01*
X103185336Y-73265374D01*
X103179673Y-73284043D01*
X103170476Y-73301249D01*
X103158101Y-73316329D01*
X103143021Y-73328704D01*
X103125815Y-73337901D01*
X103107146Y-73343564D01*
X103082824Y-73345960D01*
X101817640Y-73345960D01*
X101793318Y-73343564D01*
X101774649Y-73337901D01*
X101757443Y-73328704D01*
X101742363Y-73316329D01*
X101729988Y-73301249D01*
X101720791Y-73284043D01*
X101715128Y-73265374D01*
X101712732Y-73241052D01*
X101712732Y-72850868D01*
X101715128Y-72826546D01*
X101720791Y-72807877D01*
X101729988Y-72790671D01*
X101742363Y-72775591D01*
X101757443Y-72763216D01*
X101774649Y-72754019D01*
X101793318Y-72748356D01*
X101817640Y-72745960D01*
X103082824Y-72745960D01*
X103107146Y-72748356D01*
X103107146Y-72748356D01*
G37*
G36*
X89432146Y-71478356D02*
X89450815Y-71484019D01*
X89468021Y-71493216D01*
X89483101Y-71505591D01*
X89495476Y-71520671D01*
X89504673Y-71537877D01*
X89510336Y-71556546D01*
X89512732Y-71580868D01*
X89512732Y-71971052D01*
X89510336Y-71995374D01*
X89504673Y-72014043D01*
X89495476Y-72031249D01*
X89483101Y-72046329D01*
X89468021Y-72058704D01*
X89450815Y-72067901D01*
X89432146Y-72073564D01*
X89407824Y-72075960D01*
X88142640Y-72075960D01*
X88118318Y-72073564D01*
X88099649Y-72067901D01*
X88082443Y-72058704D01*
X88067363Y-72046329D01*
X88054988Y-72031249D01*
X88045791Y-72014043D01*
X88040128Y-71995374D01*
X88037732Y-71971052D01*
X88037732Y-71580868D01*
X88040128Y-71556546D01*
X88045791Y-71537877D01*
X88054988Y-71520671D01*
X88067363Y-71505591D01*
X88082443Y-71493216D01*
X88099649Y-71484019D01*
X88118318Y-71478356D01*
X88142640Y-71475960D01*
X89407824Y-71475960D01*
X89432146Y-71478356D01*
X89432146Y-71478356D01*
G37*
G36*
X103107146Y-71478356D02*
X103125815Y-71484019D01*
X103143021Y-71493216D01*
X103158101Y-71505591D01*
X103170476Y-71520671D01*
X103179673Y-71537877D01*
X103185336Y-71556546D01*
X103187732Y-71580868D01*
X103187732Y-71971052D01*
X103185336Y-71995374D01*
X103179673Y-72014043D01*
X103170476Y-72031249D01*
X103158101Y-72046329D01*
X103143021Y-72058704D01*
X103125815Y-72067901D01*
X103107146Y-72073564D01*
X103082824Y-72075960D01*
X101817640Y-72075960D01*
X101793318Y-72073564D01*
X101774649Y-72067901D01*
X101757443Y-72058704D01*
X101742363Y-72046329D01*
X101729988Y-72031249D01*
X101720791Y-72014043D01*
X101715128Y-71995374D01*
X101712732Y-71971052D01*
X101712732Y-71580868D01*
X101715128Y-71556546D01*
X101720791Y-71537877D01*
X101729988Y-71520671D01*
X101742363Y-71505591D01*
X101757443Y-71493216D01*
X101774649Y-71484019D01*
X101793318Y-71478356D01*
X101817640Y-71475960D01*
X103082824Y-71475960D01*
X103107146Y-71478356D01*
X103107146Y-71478356D01*
G37*
G36*
X89432146Y-70208356D02*
X89450815Y-70214019D01*
X89468021Y-70223216D01*
X89483101Y-70235591D01*
X89495476Y-70250671D01*
X89504673Y-70267877D01*
X89510336Y-70286546D01*
X89512732Y-70310868D01*
X89512732Y-70701052D01*
X89510336Y-70725374D01*
X89504673Y-70744043D01*
X89495476Y-70761249D01*
X89483101Y-70776329D01*
X89468021Y-70788704D01*
X89450815Y-70797901D01*
X89432146Y-70803564D01*
X89407824Y-70805960D01*
X88142640Y-70805960D01*
X88118318Y-70803564D01*
X88099649Y-70797901D01*
X88082443Y-70788704D01*
X88067363Y-70776329D01*
X88054988Y-70761249D01*
X88045791Y-70744043D01*
X88040128Y-70725374D01*
X88037732Y-70701052D01*
X88037732Y-70310868D01*
X88040128Y-70286546D01*
X88045791Y-70267877D01*
X88054988Y-70250671D01*
X88067363Y-70235591D01*
X88082443Y-70223216D01*
X88099649Y-70214019D01*
X88118318Y-70208356D01*
X88142640Y-70205960D01*
X89407824Y-70205960D01*
X89432146Y-70208356D01*
X89432146Y-70208356D01*
G37*
G36*
X103107146Y-70208356D02*
X103125815Y-70214019D01*
X103143021Y-70223216D01*
X103158101Y-70235591D01*
X103170476Y-70250671D01*
X103179673Y-70267877D01*
X103185336Y-70286546D01*
X103187732Y-70310868D01*
X103187732Y-70701052D01*
X103185336Y-70725374D01*
X103179673Y-70744043D01*
X103170476Y-70761249D01*
X103158101Y-70776329D01*
X103143021Y-70788704D01*
X103125815Y-70797901D01*
X103107146Y-70803564D01*
X103082824Y-70805960D01*
X101817640Y-70805960D01*
X101793318Y-70803564D01*
X101774649Y-70797901D01*
X101757443Y-70788704D01*
X101742363Y-70776329D01*
X101729988Y-70761249D01*
X101720791Y-70744043D01*
X101715128Y-70725374D01*
X101712732Y-70701052D01*
X101712732Y-70310868D01*
X101715128Y-70286546D01*
X101720791Y-70267877D01*
X101729988Y-70250671D01*
X101742363Y-70235591D01*
X101757443Y-70223216D01*
X101774649Y-70214019D01*
X101793318Y-70208356D01*
X101817640Y-70205960D01*
X103082824Y-70205960D01*
X103107146Y-70208356D01*
X103107146Y-70208356D01*
G37*
G36*
X87251808Y-68734677D02*
X87283373Y-68744251D01*
X87312467Y-68759803D01*
X87337964Y-68780728D01*
X87358889Y-68806225D01*
X87374441Y-68835319D01*
X87384015Y-68866884D01*
X87387732Y-68904618D01*
X87387732Y-69507302D01*
X87384015Y-69545036D01*
X87374441Y-69576601D01*
X87358889Y-69605695D01*
X87337964Y-69631192D01*
X87312467Y-69652117D01*
X87283373Y-69667669D01*
X87251808Y-69677243D01*
X87214074Y-69680960D01*
X86686390Y-69680960D01*
X86648656Y-69677243D01*
X86617091Y-69667669D01*
X86587997Y-69652117D01*
X86562500Y-69631192D01*
X86541575Y-69605695D01*
X86526023Y-69576601D01*
X86516449Y-69545036D01*
X86512732Y-69507302D01*
X86512732Y-68904618D01*
X86516449Y-68866884D01*
X86526023Y-68835319D01*
X86541575Y-68806225D01*
X86562500Y-68780728D01*
X86587997Y-68759803D01*
X86617091Y-68744251D01*
X86648656Y-68734677D01*
X86686390Y-68730960D01*
X87214074Y-68730960D01*
X87251808Y-68734677D01*
X87251808Y-68734677D01*
G37*
G36*
X85676808Y-68734677D02*
X85708373Y-68744251D01*
X85737467Y-68759803D01*
X85762964Y-68780728D01*
X85783889Y-68806225D01*
X85799441Y-68835319D01*
X85809015Y-68866884D01*
X85812732Y-68904618D01*
X85812732Y-69507302D01*
X85809015Y-69545036D01*
X85799441Y-69576601D01*
X85783889Y-69605695D01*
X85762964Y-69631192D01*
X85737467Y-69652117D01*
X85708373Y-69667669D01*
X85676808Y-69677243D01*
X85639074Y-69680960D01*
X85111390Y-69680960D01*
X85073656Y-69677243D01*
X85042091Y-69667669D01*
X85012997Y-69652117D01*
X84987500Y-69631192D01*
X84966575Y-69605695D01*
X84951023Y-69576601D01*
X84941449Y-69545036D01*
X84937732Y-69507302D01*
X84937732Y-68904618D01*
X84941449Y-68866884D01*
X84951023Y-68835319D01*
X84966575Y-68806225D01*
X84987500Y-68780728D01*
X85012997Y-68759803D01*
X85042091Y-68744251D01*
X85073656Y-68734677D01*
X85111390Y-68730960D01*
X85639074Y-68730960D01*
X85676808Y-68734677D01*
X85676808Y-68734677D01*
G37*
G36*
X89432146Y-68938356D02*
X89450815Y-68944019D01*
X89468021Y-68953216D01*
X89483101Y-68965591D01*
X89495476Y-68980671D01*
X89504673Y-68997877D01*
X89510336Y-69016546D01*
X89512732Y-69040868D01*
X89512732Y-69431052D01*
X89510336Y-69455374D01*
X89504673Y-69474043D01*
X89495476Y-69491249D01*
X89483101Y-69506329D01*
X89468021Y-69518704D01*
X89450815Y-69527901D01*
X89432146Y-69533564D01*
X89407824Y-69535960D01*
X88142640Y-69535960D01*
X88118318Y-69533564D01*
X88099649Y-69527901D01*
X88082443Y-69518704D01*
X88067363Y-69506329D01*
X88054988Y-69491249D01*
X88045791Y-69474043D01*
X88040128Y-69455374D01*
X88037732Y-69431052D01*
X88037732Y-69040868D01*
X88040128Y-69016546D01*
X88045791Y-68997877D01*
X88054988Y-68980671D01*
X88067363Y-68965591D01*
X88082443Y-68953216D01*
X88099649Y-68944019D01*
X88118318Y-68938356D01*
X88142640Y-68935960D01*
X89407824Y-68935960D01*
X89432146Y-68938356D01*
X89432146Y-68938356D01*
G37*
G36*
X103107146Y-68938356D02*
X103125815Y-68944019D01*
X103143021Y-68953216D01*
X103158101Y-68965591D01*
X103170476Y-68980671D01*
X103179673Y-68997877D01*
X103185336Y-69016546D01*
X103187732Y-69040868D01*
X103187732Y-69431052D01*
X103185336Y-69455374D01*
X103179673Y-69474043D01*
X103170476Y-69491249D01*
X103158101Y-69506329D01*
X103143021Y-69518704D01*
X103125815Y-69527901D01*
X103107146Y-69533564D01*
X103082824Y-69535960D01*
X101817640Y-69535960D01*
X101793318Y-69533564D01*
X101774649Y-69527901D01*
X101757443Y-69518704D01*
X101742363Y-69506329D01*
X101729988Y-69491249D01*
X101720791Y-69474043D01*
X101715128Y-69455374D01*
X101712732Y-69431052D01*
X101712732Y-69040868D01*
X101715128Y-69016546D01*
X101720791Y-68997877D01*
X101729988Y-68980671D01*
X101742363Y-68965591D01*
X101757443Y-68953216D01*
X101774649Y-68944019D01*
X101793318Y-68938356D01*
X101817640Y-68935960D01*
X103082824Y-68935960D01*
X103107146Y-68938356D01*
X103107146Y-68938356D01*
G37*
G36*
X103107146Y-67668356D02*
X103125815Y-67674019D01*
X103143021Y-67683216D01*
X103158101Y-67695591D01*
X103170476Y-67710671D01*
X103179673Y-67727877D01*
X103185336Y-67746546D01*
X103187732Y-67770868D01*
X103187732Y-68161052D01*
X103185336Y-68185374D01*
X103179673Y-68204043D01*
X103170476Y-68221249D01*
X103158101Y-68236329D01*
X103143021Y-68248704D01*
X103125815Y-68257901D01*
X103107146Y-68263564D01*
X103082824Y-68265960D01*
X101817640Y-68265960D01*
X101793318Y-68263564D01*
X101774649Y-68257901D01*
X101757443Y-68248704D01*
X101742363Y-68236329D01*
X101729988Y-68221249D01*
X101720791Y-68204043D01*
X101715128Y-68185374D01*
X101712732Y-68161052D01*
X101712732Y-67770868D01*
X101715128Y-67746546D01*
X101720791Y-67727877D01*
X101729988Y-67710671D01*
X101742363Y-67695591D01*
X101757443Y-67683216D01*
X101774649Y-67674019D01*
X101793318Y-67668356D01*
X101817640Y-67665960D01*
X103082824Y-67665960D01*
X103107146Y-67668356D01*
X103107146Y-67668356D01*
G37*
G36*
X89432146Y-67668356D02*
X89450815Y-67674019D01*
X89468021Y-67683216D01*
X89483101Y-67695591D01*
X89495476Y-67710671D01*
X89504673Y-67727877D01*
X89510336Y-67746546D01*
X89512732Y-67770868D01*
X89512732Y-68161052D01*
X89510336Y-68185374D01*
X89504673Y-68204043D01*
X89495476Y-68221249D01*
X89483101Y-68236329D01*
X89468021Y-68248704D01*
X89450815Y-68257901D01*
X89432146Y-68263564D01*
X89407824Y-68265960D01*
X88142640Y-68265960D01*
X88118318Y-68263564D01*
X88099649Y-68257901D01*
X88082443Y-68248704D01*
X88067363Y-68236329D01*
X88054988Y-68221249D01*
X88045791Y-68204043D01*
X88040128Y-68185374D01*
X88037732Y-68161052D01*
X88037732Y-67770868D01*
X88040128Y-67746546D01*
X88045791Y-67727877D01*
X88054988Y-67710671D01*
X88067363Y-67695591D01*
X88082443Y-67683216D01*
X88099649Y-67674019D01*
X88118318Y-67668356D01*
X88142640Y-67665960D01*
X89407824Y-67665960D01*
X89432146Y-67668356D01*
X89432146Y-67668356D01*
G37*
G36*
X89432146Y-66398356D02*
X89450815Y-66404019D01*
X89468021Y-66413216D01*
X89483101Y-66425591D01*
X89495476Y-66440671D01*
X89504673Y-66457877D01*
X89510336Y-66476546D01*
X89512732Y-66500868D01*
X89512732Y-66891052D01*
X89510336Y-66915374D01*
X89504673Y-66934043D01*
X89495476Y-66951249D01*
X89483101Y-66966329D01*
X89468021Y-66978704D01*
X89450815Y-66987901D01*
X89432146Y-66993564D01*
X89407824Y-66995960D01*
X88142640Y-66995960D01*
X88118318Y-66993564D01*
X88099649Y-66987901D01*
X88082443Y-66978704D01*
X88067363Y-66966329D01*
X88054988Y-66951249D01*
X88045791Y-66934043D01*
X88040128Y-66915374D01*
X88037732Y-66891052D01*
X88037732Y-66500868D01*
X88040128Y-66476546D01*
X88045791Y-66457877D01*
X88054988Y-66440671D01*
X88067363Y-66425591D01*
X88082443Y-66413216D01*
X88099649Y-66404019D01*
X88118318Y-66398356D01*
X88142640Y-66395960D01*
X89407824Y-66395960D01*
X89432146Y-66398356D01*
X89432146Y-66398356D01*
G37*
G36*
X103107146Y-66398356D02*
X103125815Y-66404019D01*
X103143021Y-66413216D01*
X103158101Y-66425591D01*
X103170476Y-66440671D01*
X103179673Y-66457877D01*
X103185336Y-66476546D01*
X103187732Y-66500868D01*
X103187732Y-66891052D01*
X103185336Y-66915374D01*
X103179673Y-66934043D01*
X103170476Y-66951249D01*
X103158101Y-66966329D01*
X103143021Y-66978704D01*
X103125815Y-66987901D01*
X103107146Y-66993564D01*
X103082824Y-66995960D01*
X101817640Y-66995960D01*
X101793318Y-66993564D01*
X101774649Y-66987901D01*
X101757443Y-66978704D01*
X101742363Y-66966329D01*
X101729988Y-66951249D01*
X101720791Y-66934043D01*
X101715128Y-66915374D01*
X101712732Y-66891052D01*
X101712732Y-66500868D01*
X101715128Y-66476546D01*
X101720791Y-66457877D01*
X101729988Y-66440671D01*
X101742363Y-66425591D01*
X101757443Y-66413216D01*
X101774649Y-66404019D01*
X101793318Y-66398356D01*
X101817640Y-66395960D01*
X103082824Y-66395960D01*
X103107146Y-66398356D01*
X103107146Y-66398356D01*
G37*
G36*
X90752146Y-64208356D02*
X90770815Y-64214019D01*
X90788021Y-64223216D01*
X90803101Y-64235591D01*
X90815476Y-64250671D01*
X90824673Y-64267877D01*
X90830336Y-64286546D01*
X90832732Y-64310868D01*
X90832732Y-65576052D01*
X90830336Y-65600374D01*
X90824673Y-65619043D01*
X90815476Y-65636249D01*
X90803101Y-65651329D01*
X90788021Y-65663704D01*
X90770815Y-65672901D01*
X90752146Y-65678564D01*
X90727824Y-65680960D01*
X90337640Y-65680960D01*
X90313318Y-65678564D01*
X90294649Y-65672901D01*
X90277443Y-65663704D01*
X90262363Y-65651329D01*
X90249988Y-65636249D01*
X90240791Y-65619043D01*
X90235128Y-65600374D01*
X90232732Y-65576052D01*
X90232732Y-64310868D01*
X90235128Y-64286546D01*
X90240791Y-64267877D01*
X90249988Y-64250671D01*
X90262363Y-64235591D01*
X90277443Y-64223216D01*
X90294649Y-64214019D01*
X90313318Y-64208356D01*
X90337640Y-64205960D01*
X90727824Y-64205960D01*
X90752146Y-64208356D01*
X90752146Y-64208356D01*
G37*
G36*
X99642146Y-64208356D02*
X99660815Y-64214019D01*
X99678021Y-64223216D01*
X99693101Y-64235591D01*
X99705476Y-64250671D01*
X99714673Y-64267877D01*
X99720336Y-64286546D01*
X99722732Y-64310868D01*
X99722732Y-65576052D01*
X99720336Y-65600374D01*
X99714673Y-65619043D01*
X99705476Y-65636249D01*
X99693101Y-65651329D01*
X99678021Y-65663704D01*
X99660815Y-65672901D01*
X99642146Y-65678564D01*
X99617824Y-65680960D01*
X99227640Y-65680960D01*
X99203318Y-65678564D01*
X99184649Y-65672901D01*
X99167443Y-65663704D01*
X99152363Y-65651329D01*
X99139988Y-65636249D01*
X99130791Y-65619043D01*
X99125128Y-65600374D01*
X99122732Y-65576052D01*
X99122732Y-64310868D01*
X99125128Y-64286546D01*
X99130791Y-64267877D01*
X99139988Y-64250671D01*
X99152363Y-64235591D01*
X99167443Y-64223216D01*
X99184649Y-64214019D01*
X99203318Y-64208356D01*
X99227640Y-64205960D01*
X99617824Y-64205960D01*
X99642146Y-64208356D01*
X99642146Y-64208356D01*
G37*
G36*
X98372146Y-64208356D02*
X98390815Y-64214019D01*
X98408021Y-64223216D01*
X98423101Y-64235591D01*
X98435476Y-64250671D01*
X98444673Y-64267877D01*
X98450336Y-64286546D01*
X98452732Y-64310868D01*
X98452732Y-65576052D01*
X98450336Y-65600374D01*
X98444673Y-65619043D01*
X98435476Y-65636249D01*
X98423101Y-65651329D01*
X98408021Y-65663704D01*
X98390815Y-65672901D01*
X98372146Y-65678564D01*
X98347824Y-65680960D01*
X97957640Y-65680960D01*
X97933318Y-65678564D01*
X97914649Y-65672901D01*
X97897443Y-65663704D01*
X97882363Y-65651329D01*
X97869988Y-65636249D01*
X97860791Y-65619043D01*
X97855128Y-65600374D01*
X97852732Y-65576052D01*
X97852732Y-64310868D01*
X97855128Y-64286546D01*
X97860791Y-64267877D01*
X97869988Y-64250671D01*
X97882363Y-64235591D01*
X97897443Y-64223216D01*
X97914649Y-64214019D01*
X97933318Y-64208356D01*
X97957640Y-64205960D01*
X98347824Y-64205960D01*
X98372146Y-64208356D01*
X98372146Y-64208356D01*
G37*
G36*
X97102146Y-64208356D02*
X97120815Y-64214019D01*
X97138021Y-64223216D01*
X97153101Y-64235591D01*
X97165476Y-64250671D01*
X97174673Y-64267877D01*
X97180336Y-64286546D01*
X97182732Y-64310868D01*
X97182732Y-65576052D01*
X97180336Y-65600374D01*
X97174673Y-65619043D01*
X97165476Y-65636249D01*
X97153101Y-65651329D01*
X97138021Y-65663704D01*
X97120815Y-65672901D01*
X97102146Y-65678564D01*
X97077824Y-65680960D01*
X96687640Y-65680960D01*
X96663318Y-65678564D01*
X96644649Y-65672901D01*
X96627443Y-65663704D01*
X96612363Y-65651329D01*
X96599988Y-65636249D01*
X96590791Y-65619043D01*
X96585128Y-65600374D01*
X96582732Y-65576052D01*
X96582732Y-64310868D01*
X96585128Y-64286546D01*
X96590791Y-64267877D01*
X96599988Y-64250671D01*
X96612363Y-64235591D01*
X96627443Y-64223216D01*
X96644649Y-64214019D01*
X96663318Y-64208356D01*
X96687640Y-64205960D01*
X97077824Y-64205960D01*
X97102146Y-64208356D01*
X97102146Y-64208356D01*
G37*
G36*
X94562146Y-64208356D02*
X94580815Y-64214019D01*
X94598021Y-64223216D01*
X94613101Y-64235591D01*
X94625476Y-64250671D01*
X94634673Y-64267877D01*
X94640336Y-64286546D01*
X94642732Y-64310868D01*
X94642732Y-65576052D01*
X94640336Y-65600374D01*
X94634673Y-65619043D01*
X94625476Y-65636249D01*
X94613101Y-65651329D01*
X94598021Y-65663704D01*
X94580815Y-65672901D01*
X94562146Y-65678564D01*
X94537824Y-65680960D01*
X94147640Y-65680960D01*
X94123318Y-65678564D01*
X94104649Y-65672901D01*
X94087443Y-65663704D01*
X94072363Y-65651329D01*
X94059988Y-65636249D01*
X94050791Y-65619043D01*
X94045128Y-65600374D01*
X94042732Y-65576052D01*
X94042732Y-64310868D01*
X94045128Y-64286546D01*
X94050791Y-64267877D01*
X94059988Y-64250671D01*
X94072363Y-64235591D01*
X94087443Y-64223216D01*
X94104649Y-64214019D01*
X94123318Y-64208356D01*
X94147640Y-64205960D01*
X94537824Y-64205960D01*
X94562146Y-64208356D01*
X94562146Y-64208356D01*
G37*
G36*
X93292146Y-64208356D02*
X93310815Y-64214019D01*
X93328021Y-64223216D01*
X93343101Y-64235591D01*
X93355476Y-64250671D01*
X93364673Y-64267877D01*
X93370336Y-64286546D01*
X93372732Y-64310868D01*
X93372732Y-65576052D01*
X93370336Y-65600374D01*
X93364673Y-65619043D01*
X93355476Y-65636249D01*
X93343101Y-65651329D01*
X93328021Y-65663704D01*
X93310815Y-65672901D01*
X93292146Y-65678564D01*
X93267824Y-65680960D01*
X92877640Y-65680960D01*
X92853318Y-65678564D01*
X92834649Y-65672901D01*
X92817443Y-65663704D01*
X92802363Y-65651329D01*
X92789988Y-65636249D01*
X92780791Y-65619043D01*
X92775128Y-65600374D01*
X92772732Y-65576052D01*
X92772732Y-64310868D01*
X92775128Y-64286546D01*
X92780791Y-64267877D01*
X92789988Y-64250671D01*
X92802363Y-64235591D01*
X92817443Y-64223216D01*
X92834649Y-64214019D01*
X92853318Y-64208356D01*
X92877640Y-64205960D01*
X93267824Y-64205960D01*
X93292146Y-64208356D01*
X93292146Y-64208356D01*
G37*
G36*
X92022146Y-64208356D02*
X92040815Y-64214019D01*
X92058021Y-64223216D01*
X92073101Y-64235591D01*
X92085476Y-64250671D01*
X92094673Y-64267877D01*
X92100336Y-64286546D01*
X92102732Y-64310868D01*
X92102732Y-65576052D01*
X92100336Y-65600374D01*
X92094673Y-65619043D01*
X92085476Y-65636249D01*
X92073101Y-65651329D01*
X92058021Y-65663704D01*
X92040815Y-65672901D01*
X92022146Y-65678564D01*
X91997824Y-65680960D01*
X91607640Y-65680960D01*
X91583318Y-65678564D01*
X91564649Y-65672901D01*
X91547443Y-65663704D01*
X91532363Y-65651329D01*
X91519988Y-65636249D01*
X91510791Y-65619043D01*
X91505128Y-65600374D01*
X91502732Y-65576052D01*
X91502732Y-64310868D01*
X91505128Y-64286546D01*
X91510791Y-64267877D01*
X91519988Y-64250671D01*
X91532363Y-64235591D01*
X91547443Y-64223216D01*
X91564649Y-64214019D01*
X91583318Y-64208356D01*
X91607640Y-64205960D01*
X91997824Y-64205960D01*
X92022146Y-64208356D01*
X92022146Y-64208356D01*
G37*
G36*
X100912146Y-64208356D02*
X100930815Y-64214019D01*
X100948021Y-64223216D01*
X100963101Y-64235591D01*
X100975476Y-64250671D01*
X100984673Y-64267877D01*
X100990336Y-64286546D01*
X100992732Y-64310868D01*
X100992732Y-65576052D01*
X100990336Y-65600374D01*
X100984673Y-65619043D01*
X100975476Y-65636249D01*
X100963101Y-65651329D01*
X100948021Y-65663704D01*
X100930815Y-65672901D01*
X100912146Y-65678564D01*
X100887824Y-65680960D01*
X100497640Y-65680960D01*
X100473318Y-65678564D01*
X100454649Y-65672901D01*
X100437443Y-65663704D01*
X100422363Y-65651329D01*
X100409988Y-65636249D01*
X100400791Y-65619043D01*
X100395128Y-65600374D01*
X100392732Y-65576052D01*
X100392732Y-64310868D01*
X100395128Y-64286546D01*
X100400791Y-64267877D01*
X100409988Y-64250671D01*
X100422363Y-64235591D01*
X100437443Y-64223216D01*
X100454649Y-64214019D01*
X100473318Y-64208356D01*
X100497640Y-64205960D01*
X100887824Y-64205960D01*
X100912146Y-64208356D01*
X100912146Y-64208356D01*
G37*
G36*
X95832146Y-64208356D02*
X95850815Y-64214019D01*
X95868021Y-64223216D01*
X95883101Y-64235591D01*
X95895476Y-64250671D01*
X95904673Y-64267877D01*
X95910336Y-64286546D01*
X95912732Y-64310868D01*
X95912732Y-65576052D01*
X95910336Y-65600374D01*
X95904673Y-65619043D01*
X95895476Y-65636249D01*
X95883101Y-65651329D01*
X95868021Y-65663704D01*
X95850815Y-65672901D01*
X95832146Y-65678564D01*
X95807824Y-65680960D01*
X95417640Y-65680960D01*
X95393318Y-65678564D01*
X95374649Y-65672901D01*
X95357443Y-65663704D01*
X95342363Y-65651329D01*
X95329988Y-65636249D01*
X95320791Y-65619043D01*
X95315128Y-65600374D01*
X95312732Y-65576052D01*
X95312732Y-64310868D01*
X95315128Y-64286546D01*
X95320791Y-64267877D01*
X95329988Y-64250671D01*
X95342363Y-64235591D01*
X95357443Y-64223216D01*
X95374649Y-64214019D01*
X95393318Y-64208356D01*
X95417640Y-64205960D01*
X95807824Y-64205960D01*
X95832146Y-64208356D01*
X95832146Y-64208356D01*
G37*
G36*
X79239076Y-61253717D02*
X79270641Y-61263291D01*
X79299735Y-61278843D01*
X79325232Y-61299768D01*
X79346157Y-61325265D01*
X79361709Y-61354359D01*
X79371283Y-61385924D01*
X79375000Y-61423658D01*
X79375000Y-61951342D01*
X79371283Y-61989076D01*
X79361709Y-62020641D01*
X79346157Y-62049735D01*
X79325232Y-62075232D01*
X79299735Y-62096157D01*
X79270641Y-62111709D01*
X79239076Y-62121283D01*
X79201342Y-62125000D01*
X78598658Y-62125000D01*
X78560924Y-62121283D01*
X78529359Y-62111709D01*
X78500265Y-62096157D01*
X78474768Y-62075232D01*
X78453843Y-62049735D01*
X78438291Y-62020641D01*
X78428717Y-61989076D01*
X78425000Y-61951342D01*
X78425000Y-61423658D01*
X78428717Y-61385924D01*
X78438291Y-61354359D01*
X78453843Y-61325265D01*
X78474768Y-61299768D01*
X78500265Y-61278843D01*
X78529359Y-61263291D01*
X78560924Y-61253717D01*
X78598658Y-61250000D01*
X79201342Y-61250000D01*
X79239076Y-61253717D01*
X79239076Y-61253717D01*
G37*
G36*
X76814410Y-59123057D02*
X76891689Y-59138429D01*
X77073678Y-59213811D01*
X77237463Y-59323249D01*
X77376751Y-59462537D01*
X77486189Y-59626322D01*
X77561571Y-59808311D01*
X77569596Y-59848658D01*
X77600000Y-60001506D01*
X77600000Y-60198494D01*
X77576943Y-60314410D01*
X77561571Y-60391689D01*
X77486189Y-60573678D01*
X77376751Y-60737463D01*
X77237463Y-60876751D01*
X77073678Y-60986189D01*
X76891689Y-61061571D01*
X76814410Y-61076943D01*
X76698494Y-61100000D01*
X76501506Y-61100000D01*
X76385590Y-61076943D01*
X76308311Y-61061571D01*
X76126322Y-60986189D01*
X75962537Y-60876751D01*
X75823249Y-60737463D01*
X75713811Y-60573678D01*
X75638429Y-60391689D01*
X75623057Y-60314410D01*
X75600000Y-60198494D01*
X75600000Y-60001506D01*
X75630404Y-59848658D01*
X75638429Y-59808311D01*
X75713811Y-59626322D01*
X75823249Y-59462537D01*
X75962537Y-59323249D01*
X76126322Y-59213811D01*
X76308311Y-59138429D01*
X76385590Y-59123057D01*
X76501506Y-59100000D01*
X76698494Y-59100000D01*
X76814410Y-59123057D01*
X76814410Y-59123057D01*
G37*
G36*
X100335443Y-58544194D02*
X100544729Y-58630884D01*
X100733082Y-58756737D01*
X100893263Y-58916918D01*
X101019116Y-59105271D01*
X101105806Y-59314557D01*
X101150000Y-59536735D01*
X101150000Y-59763265D01*
X101105806Y-59985443D01*
X101019116Y-60194729D01*
X100893263Y-60383082D01*
X100733082Y-60543263D01*
X100544729Y-60669116D01*
X100335443Y-60755806D01*
X100113265Y-60800000D01*
X99886735Y-60800000D01*
X99664557Y-60755806D01*
X99455271Y-60669116D01*
X99266918Y-60543263D01*
X99106737Y-60383082D01*
X98980884Y-60194729D01*
X98894194Y-59985443D01*
X98850000Y-59763265D01*
X98850000Y-59536735D01*
X98894194Y-59314557D01*
X98980884Y-59105271D01*
X99106737Y-58916918D01*
X99266918Y-58756737D01*
X99455271Y-58630884D01*
X99664557Y-58544194D01*
X99886735Y-58500000D01*
X100113265Y-58500000D01*
X100335443Y-58544194D01*
X100335443Y-58544194D01*
G37*
G36*
X85449996Y-59549999D02*
X85450000Y-59550000D01*
X85450001Y-59550004D01*
X85450484Y-59554910D01*
X85450484Y-60045090D01*
X85449035Y-60059800D01*
X85449752Y-60059871D01*
X85448076Y-60071176D01*
X85448076Y-60094099D01*
X85447109Y-60103913D01*
X85429901Y-60190424D01*
X85427037Y-60199865D01*
X85393287Y-60281348D01*
X85388636Y-60290048D01*
X85339635Y-60363383D01*
X85333377Y-60371009D01*
X85271009Y-60433377D01*
X85263383Y-60439635D01*
X85190048Y-60488636D01*
X85181348Y-60493287D01*
X85099865Y-60527037D01*
X85095144Y-60528469D01*
X85095142Y-60528470D01*
X85095140Y-60528470D01*
X85090424Y-60529901D01*
X85003913Y-60547109D01*
X84994099Y-60548076D01*
X84971176Y-60548076D01*
X84959871Y-60549752D01*
X84959800Y-60549035D01*
X84945090Y-60550484D01*
X84454910Y-60550484D01*
X84440200Y-60549035D01*
X84440129Y-60549752D01*
X84428824Y-60548076D01*
X84405901Y-60548076D01*
X84396087Y-60547109D01*
X84309576Y-60529901D01*
X84304860Y-60528470D01*
X84304858Y-60528470D01*
X84304856Y-60528469D01*
X84300135Y-60527037D01*
X84218652Y-60493287D01*
X84209952Y-60488636D01*
X84136617Y-60439635D01*
X84128991Y-60433377D01*
X84066623Y-60371009D01*
X84060365Y-60363383D01*
X84011364Y-60290048D01*
X84006713Y-60281348D01*
X83972963Y-60199865D01*
X83970099Y-60190424D01*
X83952891Y-60103913D01*
X83951924Y-60094099D01*
X83951924Y-60071176D01*
X83950248Y-60059871D01*
X83950965Y-60059800D01*
X83950000Y-60050000D01*
X83949516Y-60045090D01*
X83949516Y-59554910D01*
X83949999Y-59550004D01*
X83950000Y-59550000D01*
X83950004Y-59549999D01*
X83954910Y-59549516D01*
X85445090Y-59549516D01*
X85449996Y-59549999D01*
X85449996Y-59549999D01*
G37*
G36*
X82849996Y-59549999D02*
X82850000Y-59550000D01*
X82850001Y-59550004D01*
X82850484Y-59554910D01*
X82850484Y-60045090D01*
X82849035Y-60059800D01*
X82849752Y-60059871D01*
X82848076Y-60071176D01*
X82848076Y-60094099D01*
X82847109Y-60103913D01*
X82829901Y-60190424D01*
X82827037Y-60199865D01*
X82793287Y-60281348D01*
X82788636Y-60290048D01*
X82739635Y-60363383D01*
X82733377Y-60371009D01*
X82671009Y-60433377D01*
X82663383Y-60439635D01*
X82590048Y-60488636D01*
X82581348Y-60493287D01*
X82499865Y-60527037D01*
X82495144Y-60528469D01*
X82495142Y-60528470D01*
X82495140Y-60528470D01*
X82490424Y-60529901D01*
X82403913Y-60547109D01*
X82394099Y-60548076D01*
X82371176Y-60548076D01*
X82359871Y-60549752D01*
X82359800Y-60549035D01*
X82345090Y-60550484D01*
X81854910Y-60550484D01*
X81840200Y-60549035D01*
X81840129Y-60549752D01*
X81828824Y-60548076D01*
X81805901Y-60548076D01*
X81796087Y-60547109D01*
X81709576Y-60529901D01*
X81704860Y-60528470D01*
X81704858Y-60528470D01*
X81704856Y-60528469D01*
X81700135Y-60527037D01*
X81618652Y-60493287D01*
X81609952Y-60488636D01*
X81536617Y-60439635D01*
X81528991Y-60433377D01*
X81466623Y-60371009D01*
X81460365Y-60363383D01*
X81411364Y-60290048D01*
X81406713Y-60281348D01*
X81372963Y-60199865D01*
X81370099Y-60190424D01*
X81352891Y-60103913D01*
X81351924Y-60094099D01*
X81351924Y-60071176D01*
X81350248Y-60059871D01*
X81350965Y-60059800D01*
X81350000Y-60050000D01*
X81349516Y-60045090D01*
X81349516Y-59554910D01*
X81349999Y-59550004D01*
X81350000Y-59550000D01*
X81350004Y-59549999D01*
X81354910Y-59549516D01*
X82845090Y-59549516D01*
X82849996Y-59549999D01*
X82849996Y-59549999D01*
G37*
G36*
X79239076Y-59678717D02*
X79270641Y-59688291D01*
X79299735Y-59703843D01*
X79325232Y-59724768D01*
X79346157Y-59750265D01*
X79361709Y-59779359D01*
X79371283Y-59810924D01*
X79375000Y-59848658D01*
X79375000Y-60376342D01*
X79371283Y-60414076D01*
X79361709Y-60445641D01*
X79346157Y-60474735D01*
X79325232Y-60500232D01*
X79299735Y-60521157D01*
X79270641Y-60536709D01*
X79239076Y-60546283D01*
X79201342Y-60550000D01*
X78598658Y-60550000D01*
X78560924Y-60546283D01*
X78529359Y-60536709D01*
X78500265Y-60521157D01*
X78474768Y-60500232D01*
X78453843Y-60474735D01*
X78438291Y-60445641D01*
X78428717Y-60414076D01*
X78425000Y-60376342D01*
X78425000Y-59848658D01*
X78428717Y-59810924D01*
X78438291Y-59779359D01*
X78453843Y-59750265D01*
X78474768Y-59724768D01*
X78500265Y-59703843D01*
X78529359Y-59688291D01*
X78560924Y-59678717D01*
X78598658Y-59675000D01*
X79201342Y-59675000D01*
X79239076Y-59678717D01*
X79239076Y-59678717D01*
G37*
G36*
X107039076Y-58753717D02*
X107070641Y-58763291D01*
X107099735Y-58778843D01*
X107125232Y-58799768D01*
X107146157Y-58825265D01*
X107161709Y-58854359D01*
X107171283Y-58885924D01*
X107175000Y-58923658D01*
X107175000Y-59451342D01*
X107171283Y-59489076D01*
X107161709Y-59520641D01*
X107146157Y-59549735D01*
X107125232Y-59575232D01*
X107099735Y-59596157D01*
X107070641Y-59611709D01*
X107039076Y-59621283D01*
X107001342Y-59625000D01*
X106398658Y-59625000D01*
X106360924Y-59621283D01*
X106329359Y-59611709D01*
X106300265Y-59596157D01*
X106274768Y-59575232D01*
X106253843Y-59549735D01*
X106238291Y-59520641D01*
X106228717Y-59489076D01*
X106225000Y-59451342D01*
X106225000Y-58923658D01*
X106228717Y-58885924D01*
X106238291Y-58854359D01*
X106253843Y-58825265D01*
X106274768Y-58799768D01*
X106300265Y-58778843D01*
X106329359Y-58763291D01*
X106360924Y-58753717D01*
X106398658Y-58750000D01*
X107001342Y-58750000D01*
X107039076Y-58753717D01*
X107039076Y-58753717D01*
G37*
G36*
X112175000Y-59600000D02*
X111925000Y-59600000D01*
X111925000Y-58300000D01*
X112175000Y-58300000D01*
X112175000Y-59600000D01*
X112175000Y-59600000D01*
G37*
G36*
X112675000Y-59600000D02*
X112425000Y-59600000D01*
X112425000Y-58300000D01*
X112675000Y-58300000D01*
X112675000Y-59600000D01*
X112675000Y-59600000D01*
G37*
G36*
X113175000Y-59600000D02*
X112925000Y-59600000D01*
X112925000Y-58300000D01*
X113175000Y-58300000D01*
X113175000Y-59600000D01*
X113175000Y-59600000D01*
G37*
G36*
X113675000Y-59600000D02*
X113425000Y-59600000D01*
X113425000Y-58300000D01*
X113675000Y-58300000D01*
X113675000Y-59600000D01*
X113675000Y-59600000D01*
G37*
G36*
X114175000Y-59600000D02*
X113925000Y-59600000D01*
X113925000Y-58300000D01*
X114175000Y-58300000D01*
X114175000Y-59600000D01*
X114175000Y-59600000D01*
G37*
G36*
X114675000Y-59600000D02*
X114425000Y-59600000D01*
X114425000Y-58300000D01*
X114675000Y-58300000D01*
X114675000Y-59600000D01*
X114675000Y-59600000D01*
G37*
G36*
X110175000Y-59600000D02*
X109925000Y-59600000D01*
X109925000Y-58300000D01*
X110175000Y-58300000D01*
X110175000Y-59600000D01*
X110175000Y-59600000D01*
G37*
G36*
X115175000Y-59600000D02*
X114925000Y-59600000D01*
X114925000Y-58300000D01*
X115175000Y-58300000D01*
X115175000Y-59600000D01*
X115175000Y-59600000D01*
G37*
G36*
X115675000Y-59600000D02*
X115425000Y-59600000D01*
X115425000Y-58300000D01*
X115675000Y-58300000D01*
X115675000Y-59600000D01*
X115675000Y-59600000D01*
G37*
G36*
X111675000Y-59600000D02*
X111425000Y-59600000D01*
X111425000Y-58300000D01*
X111675000Y-58300000D01*
X111675000Y-59600000D01*
X111675000Y-59600000D01*
G37*
G36*
X110675000Y-59600000D02*
X110425000Y-59600000D01*
X110425000Y-58300000D01*
X110675000Y-58300000D01*
X110675000Y-59600000D01*
X110675000Y-59600000D01*
G37*
G36*
X111175000Y-59600000D02*
X110925000Y-59600000D01*
X110925000Y-58300000D01*
X111175000Y-58300000D01*
X111175000Y-59600000D01*
X111175000Y-59600000D01*
G37*
G36*
X82359800Y-58250965D02*
X82359871Y-58250248D01*
X82371176Y-58251924D01*
X82394099Y-58251924D01*
X82403913Y-58252891D01*
X82490424Y-58270099D01*
X82495140Y-58271530D01*
X82495142Y-58271530D01*
X82495144Y-58271531D01*
X82499865Y-58272963D01*
X82581348Y-58306713D01*
X82590048Y-58311364D01*
X82663383Y-58360365D01*
X82671009Y-58366623D01*
X82733377Y-58428991D01*
X82739635Y-58436617D01*
X82788636Y-58509952D01*
X82793287Y-58518652D01*
X82827037Y-58600135D01*
X82829901Y-58609576D01*
X82847109Y-58696087D01*
X82848076Y-58705901D01*
X82848076Y-58728824D01*
X82849752Y-58740129D01*
X82849035Y-58740200D01*
X82850484Y-58754910D01*
X82850484Y-59245090D01*
X82850001Y-59249996D01*
X82850000Y-59250000D01*
X82849996Y-59250001D01*
X82845090Y-59250484D01*
X81354910Y-59250484D01*
X81350004Y-59250001D01*
X81350000Y-59250000D01*
X81349999Y-59249996D01*
X81349516Y-59245090D01*
X81349516Y-58754910D01*
X81350965Y-58740200D01*
X81350248Y-58740129D01*
X81351924Y-58728824D01*
X81351924Y-58705901D01*
X81352891Y-58696087D01*
X81370099Y-58609576D01*
X81372963Y-58600135D01*
X81406713Y-58518652D01*
X81411364Y-58509952D01*
X81460365Y-58436617D01*
X81466623Y-58428991D01*
X81528991Y-58366623D01*
X81536617Y-58360365D01*
X81609952Y-58311364D01*
X81618652Y-58306713D01*
X81700135Y-58272963D01*
X81704856Y-58271531D01*
X81704858Y-58271530D01*
X81704860Y-58271530D01*
X81709576Y-58270099D01*
X81796087Y-58252891D01*
X81805901Y-58251924D01*
X81828824Y-58251924D01*
X81840129Y-58250248D01*
X81840200Y-58250965D01*
X81854910Y-58249516D01*
X82345090Y-58249516D01*
X82359800Y-58250965D01*
X82359800Y-58250965D01*
G37*
G36*
X84959800Y-58250965D02*
X84959871Y-58250248D01*
X84971176Y-58251924D01*
X84994099Y-58251924D01*
X85003913Y-58252891D01*
X85090424Y-58270099D01*
X85095140Y-58271530D01*
X85095142Y-58271530D01*
X85095144Y-58271531D01*
X85099865Y-58272963D01*
X85181348Y-58306713D01*
X85190048Y-58311364D01*
X85263383Y-58360365D01*
X85271009Y-58366623D01*
X85333377Y-58428991D01*
X85339635Y-58436617D01*
X85388636Y-58509952D01*
X85393287Y-58518652D01*
X85427037Y-58600135D01*
X85429901Y-58609576D01*
X85447109Y-58696087D01*
X85448076Y-58705901D01*
X85448076Y-58728824D01*
X85449752Y-58740129D01*
X85449035Y-58740200D01*
X85450484Y-58754910D01*
X85450484Y-59245090D01*
X85450001Y-59249996D01*
X85450000Y-59250000D01*
X85449996Y-59250001D01*
X85445090Y-59250484D01*
X83954910Y-59250484D01*
X83950004Y-59250001D01*
X83950000Y-59250000D01*
X83949999Y-59249996D01*
X83949516Y-59245090D01*
X83949516Y-58754910D01*
X83950965Y-58740200D01*
X83950248Y-58740129D01*
X83951924Y-58728824D01*
X83951924Y-58705901D01*
X83952891Y-58696087D01*
X83970099Y-58609576D01*
X83972963Y-58600135D01*
X84006713Y-58518652D01*
X84011364Y-58509952D01*
X84060365Y-58436617D01*
X84066623Y-58428991D01*
X84128991Y-58366623D01*
X84136617Y-58360365D01*
X84209952Y-58311364D01*
X84218652Y-58306713D01*
X84300135Y-58272963D01*
X84304856Y-58271531D01*
X84304858Y-58271530D01*
X84304860Y-58271530D01*
X84309576Y-58270099D01*
X84396087Y-58252891D01*
X84405901Y-58251924D01*
X84428824Y-58251924D01*
X84440129Y-58250248D01*
X84440200Y-58250965D01*
X84454910Y-58249516D01*
X84945090Y-58249516D01*
X84959800Y-58250965D01*
X84959800Y-58250965D01*
G37*
G36*
X107039076Y-57178717D02*
X107070641Y-57188291D01*
X107099735Y-57203843D01*
X107125232Y-57224768D01*
X107146157Y-57250265D01*
X107161709Y-57279359D01*
X107171283Y-57310924D01*
X107175000Y-57348658D01*
X107175000Y-57876342D01*
X107171283Y-57914076D01*
X107161709Y-57945641D01*
X107146157Y-57974735D01*
X107125232Y-58000232D01*
X107099735Y-58021157D01*
X107070641Y-58036709D01*
X107039076Y-58046283D01*
X107001342Y-58050000D01*
X106398658Y-58050000D01*
X106360924Y-58046283D01*
X106329359Y-58036709D01*
X106300265Y-58021157D01*
X106274768Y-58000232D01*
X106253843Y-57974735D01*
X106238291Y-57945641D01*
X106228717Y-57914076D01*
X106225000Y-57876342D01*
X106225000Y-57348658D01*
X106228717Y-57310924D01*
X106238291Y-57279359D01*
X106253843Y-57250265D01*
X106274768Y-57224768D01*
X106300265Y-57203843D01*
X106329359Y-57188291D01*
X106360924Y-57178717D01*
X106398658Y-57175000D01*
X107001342Y-57175000D01*
X107039076Y-57178717D01*
X107039076Y-57178717D01*
G37*
G36*
X117800000Y-57475000D02*
X116500000Y-57475000D01*
X116500000Y-57225000D01*
X117800000Y-57225000D01*
X117800000Y-57475000D01*
X117800000Y-57475000D01*
G37*
G36*
X109100000Y-57475000D02*
X107800000Y-57475000D01*
X107800000Y-57225000D01*
X109100000Y-57225000D01*
X109100000Y-57475000D01*
X109100000Y-57475000D01*
G37*
G36*
X109100000Y-56975000D02*
X107800000Y-56975000D01*
X107800000Y-56725000D01*
X109100000Y-56725000D01*
X109100000Y-56975000D01*
X109100000Y-56975000D01*
G37*
G36*
X117800000Y-56975000D02*
X116500000Y-56975000D01*
X116500000Y-56725000D01*
X117800000Y-56725000D01*
X117800000Y-56975000D01*
X117800000Y-56975000D01*
G37*
G36*
X76993956Y-55454198D02*
X77030210Y-55465195D01*
X77063621Y-55483054D01*
X77092910Y-55507090D01*
X77116946Y-55536379D01*
X77134805Y-55569790D01*
X77145802Y-55606044D01*
X77150000Y-55648667D01*
X77150000Y-56651333D01*
X77145802Y-56693956D01*
X77134805Y-56730210D01*
X77116946Y-56763621D01*
X77092910Y-56792910D01*
X77063621Y-56816946D01*
X77030210Y-56834805D01*
X76993956Y-56845802D01*
X76951333Y-56850000D01*
X76373667Y-56850000D01*
X76331044Y-56845802D01*
X76294790Y-56834805D01*
X76261379Y-56816946D01*
X76232090Y-56792910D01*
X76208054Y-56763621D01*
X76190195Y-56730210D01*
X76179198Y-56693956D01*
X76175000Y-56651333D01*
X76175000Y-55648667D01*
X76179198Y-55606044D01*
X76190195Y-55569790D01*
X76208054Y-55536379D01*
X76232090Y-55507090D01*
X76261379Y-55483054D01*
X76294790Y-55465195D01*
X76331044Y-55454198D01*
X76373667Y-55450000D01*
X76951333Y-55450000D01*
X76993956Y-55454198D01*
X76993956Y-55454198D01*
G37*
G36*
X78868956Y-55454198D02*
X78905210Y-55465195D01*
X78938621Y-55483054D01*
X78967910Y-55507090D01*
X78991946Y-55536379D01*
X79009805Y-55569790D01*
X79020802Y-55606044D01*
X79025000Y-55648667D01*
X79025000Y-56651333D01*
X79020802Y-56693956D01*
X79009805Y-56730210D01*
X78991946Y-56763621D01*
X78967910Y-56792910D01*
X78938621Y-56816946D01*
X78905210Y-56834805D01*
X78868956Y-56845802D01*
X78826333Y-56850000D01*
X78248667Y-56850000D01*
X78206044Y-56845802D01*
X78169790Y-56834805D01*
X78136379Y-56816946D01*
X78107090Y-56792910D01*
X78083054Y-56763621D01*
X78065195Y-56730210D01*
X78054198Y-56693956D01*
X78050000Y-56651333D01*
X78050000Y-55648667D01*
X78054198Y-55606044D01*
X78065195Y-55569790D01*
X78083054Y-55536379D01*
X78107090Y-55507090D01*
X78136379Y-55483054D01*
X78169790Y-55465195D01*
X78206044Y-55454198D01*
X78248667Y-55450000D01*
X78826333Y-55450000D01*
X78868956Y-55454198D01*
X78868956Y-55454198D01*
G37*
G36*
X122143956Y-55554198D02*
X122180210Y-55565195D01*
X122213621Y-55583054D01*
X122242910Y-55607090D01*
X122266946Y-55636379D01*
X122284805Y-55669790D01*
X122295802Y-55706044D01*
X122300000Y-55748667D01*
X122300000Y-56326333D01*
X122295802Y-56368956D01*
X122284805Y-56405210D01*
X122266946Y-56438621D01*
X122242910Y-56467910D01*
X122213621Y-56491946D01*
X122180210Y-56509805D01*
X122143956Y-56520802D01*
X122101333Y-56525000D01*
X121098667Y-56525000D01*
X121056044Y-56520802D01*
X121019790Y-56509805D01*
X120986379Y-56491946D01*
X120957090Y-56467910D01*
X120933054Y-56438621D01*
X120915195Y-56405210D01*
X120904198Y-56368956D01*
X120900000Y-56326333D01*
X120900000Y-55748667D01*
X120904198Y-55706044D01*
X120915195Y-55669790D01*
X120933054Y-55636379D01*
X120957090Y-55607090D01*
X120986379Y-55583054D01*
X121019790Y-55565195D01*
X121056044Y-55554198D01*
X121098667Y-55550000D01*
X122101333Y-55550000D01*
X122143956Y-55554198D01*
X122143956Y-55554198D01*
G37*
G36*
X109100000Y-56475000D02*
X107800000Y-56475000D01*
X107800000Y-56225000D01*
X109100000Y-56225000D01*
X109100000Y-56475000D01*
X109100000Y-56475000D01*
G37*
G36*
X117800000Y-56475000D02*
X116500000Y-56475000D01*
X116500000Y-56225000D01*
X117800000Y-56225000D01*
X117800000Y-56475000D01*
X117800000Y-56475000D01*
G37*
G36*
X119239076Y-55453717D02*
X119270641Y-55463291D01*
X119299735Y-55478843D01*
X119325232Y-55499768D01*
X119346157Y-55525265D01*
X119361709Y-55554359D01*
X119371283Y-55585924D01*
X119375000Y-55623658D01*
X119375000Y-56151342D01*
X119371283Y-56189076D01*
X119361709Y-56220641D01*
X119346157Y-56249735D01*
X119325232Y-56275232D01*
X119299735Y-56296157D01*
X119270641Y-56311709D01*
X119239076Y-56321283D01*
X119201342Y-56325000D01*
X118598658Y-56325000D01*
X118560924Y-56321283D01*
X118529359Y-56311709D01*
X118500265Y-56296157D01*
X118474768Y-56275232D01*
X118453843Y-56249735D01*
X118438291Y-56220641D01*
X118428717Y-56189076D01*
X118425000Y-56151342D01*
X118425000Y-55623658D01*
X118428717Y-55585924D01*
X118438291Y-55554359D01*
X118453843Y-55525265D01*
X118474768Y-55499768D01*
X118500265Y-55478843D01*
X118529359Y-55463291D01*
X118560924Y-55453717D01*
X118598658Y-55450000D01*
X119201342Y-55450000D01*
X119239076Y-55453717D01*
X119239076Y-55453717D01*
G37*
G36*
X117800000Y-55975000D02*
X116500000Y-55975000D01*
X116500000Y-55725000D01*
X117800000Y-55725000D01*
X117800000Y-55975000D01*
X117800000Y-55975000D01*
G37*
G36*
X109100000Y-55975000D02*
X107800000Y-55975000D01*
X107800000Y-55725000D01*
X109100000Y-55725000D01*
X109100000Y-55975000D01*
X109100000Y-55975000D01*
G37*
G36*
X117800000Y-55475000D02*
X116500000Y-55475000D01*
X116500000Y-55225000D01*
X117800000Y-55225000D01*
X117800000Y-55475000D01*
X117800000Y-55475000D01*
G37*
G36*
X109100000Y-55475000D02*
X107800000Y-55475000D01*
X107800000Y-55225000D01*
X109100000Y-55225000D01*
X109100000Y-55475000D01*
X109100000Y-55475000D01*
G37*
G36*
X107039076Y-54453717D02*
X107070641Y-54463291D01*
X107099735Y-54478843D01*
X107125232Y-54499768D01*
X107146157Y-54525265D01*
X107161709Y-54554359D01*
X107171283Y-54585924D01*
X107175000Y-54623658D01*
X107175000Y-55151342D01*
X107171283Y-55189076D01*
X107161709Y-55220641D01*
X107146157Y-55249735D01*
X107125232Y-55275232D01*
X107099735Y-55296157D01*
X107070641Y-55311709D01*
X107039076Y-55321283D01*
X107001342Y-55325000D01*
X106398658Y-55325000D01*
X106360924Y-55321283D01*
X106329359Y-55311709D01*
X106300265Y-55296157D01*
X106274768Y-55275232D01*
X106253843Y-55249735D01*
X106238291Y-55220641D01*
X106228717Y-55189076D01*
X106225000Y-55151342D01*
X106225000Y-54623658D01*
X106228717Y-54585924D01*
X106238291Y-54554359D01*
X106253843Y-54525265D01*
X106274768Y-54499768D01*
X106300265Y-54478843D01*
X106329359Y-54463291D01*
X106360924Y-54453717D01*
X106398658Y-54450000D01*
X107001342Y-54450000D01*
X107039076Y-54453717D01*
X107039076Y-54453717D01*
G37*
G36*
X117800000Y-54975000D02*
X116500000Y-54975000D01*
X116500000Y-54725000D01*
X117800000Y-54725000D01*
X117800000Y-54975000D01*
X117800000Y-54975000D01*
G37*
G36*
X109100000Y-54975000D02*
X107800000Y-54975000D01*
X107800000Y-54725000D01*
X109100000Y-54725000D01*
X109100000Y-54975000D01*
X109100000Y-54975000D01*
G37*
G36*
X119239076Y-53878717D02*
X119270641Y-53888291D01*
X119299735Y-53903843D01*
X119325232Y-53924768D01*
X119346157Y-53950265D01*
X119361709Y-53979359D01*
X119371283Y-54010924D01*
X119375000Y-54048658D01*
X119375000Y-54576342D01*
X119371283Y-54614076D01*
X119361709Y-54645641D01*
X119346157Y-54674735D01*
X119325232Y-54700232D01*
X119299735Y-54721157D01*
X119270641Y-54736709D01*
X119239076Y-54746283D01*
X119201342Y-54750000D01*
X118598658Y-54750000D01*
X118560924Y-54746283D01*
X118529359Y-54736709D01*
X118500265Y-54721157D01*
X118474768Y-54700232D01*
X118453843Y-54674735D01*
X118438291Y-54645641D01*
X118428717Y-54614076D01*
X118425000Y-54576342D01*
X118425000Y-54048658D01*
X118428717Y-54010924D01*
X118438291Y-53979359D01*
X118453843Y-53950265D01*
X118474768Y-53924768D01*
X118500265Y-53903843D01*
X118529359Y-53888291D01*
X118560924Y-53878717D01*
X118598658Y-53875000D01*
X119201342Y-53875000D01*
X119239076Y-53878717D01*
X119239076Y-53878717D01*
G37*
G36*
X122143956Y-53679198D02*
X122180210Y-53690195D01*
X122213621Y-53708054D01*
X122242910Y-53732090D01*
X122266946Y-53761379D01*
X122284805Y-53794790D01*
X122295802Y-53831044D01*
X122300000Y-53873667D01*
X122300000Y-54451333D01*
X122295802Y-54493956D01*
X122284805Y-54530210D01*
X122266946Y-54563621D01*
X122242910Y-54592910D01*
X122213621Y-54616946D01*
X122180210Y-54634805D01*
X122143956Y-54645802D01*
X122101333Y-54650000D01*
X121098667Y-54650000D01*
X121056044Y-54645802D01*
X121019790Y-54634805D01*
X120986379Y-54616946D01*
X120957090Y-54592910D01*
X120933054Y-54563621D01*
X120915195Y-54530210D01*
X120904198Y-54493956D01*
X120900000Y-54451333D01*
X120900000Y-53873667D01*
X120904198Y-53831044D01*
X120915195Y-53794790D01*
X120933054Y-53761379D01*
X120957090Y-53732090D01*
X120986379Y-53708054D01*
X121019790Y-53690195D01*
X121056044Y-53679198D01*
X121098667Y-53675000D01*
X122101333Y-53675000D01*
X122143956Y-53679198D01*
X122143956Y-53679198D01*
G37*
G36*
X117800000Y-54475000D02*
X116500000Y-54475000D01*
X116500000Y-54225000D01*
X117800000Y-54225000D01*
X117800000Y-54475000D01*
X117800000Y-54475000D01*
G37*
G36*
X109100000Y-54475000D02*
X107800000Y-54475000D01*
X107800000Y-54225000D01*
X109100000Y-54225000D01*
X109100000Y-54475000D01*
X109100000Y-54475000D01*
G37*
G36*
X117800000Y-53975000D02*
X116500000Y-53975000D01*
X116500000Y-53725000D01*
X117800000Y-53725000D01*
X117800000Y-53975000D01*
X117800000Y-53975000D01*
G37*
G36*
X109100000Y-53975000D02*
X107800000Y-53975000D01*
X107800000Y-53725000D01*
X109100000Y-53725000D01*
X109100000Y-53975000D01*
X109100000Y-53975000D01*
G37*
G36*
X107039076Y-52878717D02*
X107070641Y-52888291D01*
X107099735Y-52903843D01*
X107125232Y-52924768D01*
X107146157Y-52950265D01*
X107161709Y-52979359D01*
X107171283Y-53010924D01*
X107175000Y-53048658D01*
X107175000Y-53576342D01*
X107171283Y-53614076D01*
X107161709Y-53645641D01*
X107146157Y-53674735D01*
X107125232Y-53700232D01*
X107099735Y-53721157D01*
X107070641Y-53736709D01*
X107039076Y-53746283D01*
X107001342Y-53750000D01*
X106398658Y-53750000D01*
X106360924Y-53746283D01*
X106329359Y-53736709D01*
X106300265Y-53721157D01*
X106274768Y-53700232D01*
X106253843Y-53674735D01*
X106238291Y-53645641D01*
X106228717Y-53614076D01*
X106225000Y-53576342D01*
X106225000Y-53048658D01*
X106228717Y-53010924D01*
X106238291Y-52979359D01*
X106253843Y-52950265D01*
X106274768Y-52924768D01*
X106300265Y-52903843D01*
X106329359Y-52888291D01*
X106360924Y-52878717D01*
X106398658Y-52875000D01*
X107001342Y-52875000D01*
X107039076Y-52878717D01*
X107039076Y-52878717D01*
G37*
G36*
X109100000Y-53475000D02*
X107800000Y-53475000D01*
X107800000Y-53225000D01*
X109100000Y-53225000D01*
X109100000Y-53475000D01*
X109100000Y-53475000D01*
G37*
G36*
X117800000Y-53475000D02*
X116500000Y-53475000D01*
X116500000Y-53225000D01*
X117800000Y-53225000D01*
X117800000Y-53475000D01*
X117800000Y-53475000D01*
G37*
G36*
X77627700Y-52613440D02*
X77641562Y-52627302D01*
X77657861Y-52638193D01*
X77675973Y-52645694D01*
X77705000Y-52650000D01*
X77757590Y-52650000D01*
X77764841Y-52650714D01*
X77767097Y-52651399D01*
X77769180Y-52652512D01*
X77770997Y-52654003D01*
X77772488Y-52655820D01*
X77773601Y-52657903D01*
X77774286Y-52660159D01*
X77775000Y-52667410D01*
X77775000Y-53332590D01*
X77774286Y-53339841D01*
X77773601Y-53342097D01*
X77772488Y-53344180D01*
X77770997Y-53345997D01*
X77769180Y-53347488D01*
X77767097Y-53348601D01*
X77764841Y-53349286D01*
X77757590Y-53350000D01*
X77542410Y-53350000D01*
X77535159Y-53349286D01*
X77532903Y-53348601D01*
X77530820Y-53347488D01*
X77529003Y-53345997D01*
X77527512Y-53344180D01*
X77526399Y-53342097D01*
X77525714Y-53339841D01*
X77525000Y-53332590D01*
X77525000Y-52667410D01*
X77525714Y-52660159D01*
X77526399Y-52657903D01*
X77527512Y-52655820D01*
X77529003Y-52654003D01*
X77530820Y-52652512D01*
X77532903Y-52651399D01*
X77535159Y-52650714D01*
X77547303Y-52649518D01*
X77566530Y-52645694D01*
X77584641Y-52638191D01*
X77600940Y-52627300D01*
X77614802Y-52613438D01*
X77621250Y-52603788D01*
X77627700Y-52613440D01*
X77627700Y-52613440D01*
G37*
G36*
X77621853Y-51905557D02*
X77634289Y-51920711D01*
X77649443Y-51933147D01*
X77666732Y-51942388D01*
X77695197Y-51949518D01*
X77719538Y-51951916D01*
X77733512Y-51956154D01*
X77746402Y-51963044D01*
X77757691Y-51972309D01*
X77766956Y-51983598D01*
X77773846Y-51996488D01*
X77778084Y-52010462D01*
X77780000Y-52029910D01*
X77780000Y-52370090D01*
X77778084Y-52389538D01*
X77773846Y-52403512D01*
X77766956Y-52416402D01*
X77757691Y-52427691D01*
X77746402Y-52436956D01*
X77733512Y-52443846D01*
X77719538Y-52448084D01*
X77695197Y-52450482D01*
X77675970Y-52454306D01*
X77657859Y-52461808D01*
X77641560Y-52472700D01*
X77627698Y-52486562D01*
X77621250Y-52496212D01*
X77614800Y-52486560D01*
X77600938Y-52472698D01*
X77584638Y-52461807D01*
X77566527Y-52454306D01*
X77537500Y-52450000D01*
X77262500Y-52450000D01*
X77242991Y-52451921D01*
X77224232Y-52457612D01*
X77206943Y-52466853D01*
X77191789Y-52479289D01*
X77179353Y-52494443D01*
X77170112Y-52511732D01*
X77164421Y-52530491D01*
X77162500Y-52550000D01*
X77164421Y-52569509D01*
X77170112Y-52588268D01*
X77179353Y-52605557D01*
X77191789Y-52620711D01*
X77206943Y-52633147D01*
X77224232Y-52642388D01*
X77252697Y-52649518D01*
X77264841Y-52650714D01*
X77267097Y-52651399D01*
X77269180Y-52652512D01*
X77270997Y-52654003D01*
X77272488Y-52655820D01*
X77273601Y-52657903D01*
X77274286Y-52660159D01*
X77275000Y-52667410D01*
X77275000Y-53332590D01*
X77274286Y-53339841D01*
X77273601Y-53342097D01*
X77272488Y-53344180D01*
X77270997Y-53345997D01*
X77269180Y-53347488D01*
X77267097Y-53348601D01*
X77264841Y-53349286D01*
X77257590Y-53350000D01*
X77042410Y-53350000D01*
X77035159Y-53349286D01*
X77032903Y-53348601D01*
X77030820Y-53347488D01*
X77029003Y-53345997D01*
X77027512Y-53344180D01*
X77026399Y-53342097D01*
X77025714Y-53339841D01*
X77025000Y-53332590D01*
X77025000Y-52667410D01*
X77025714Y-52660159D01*
X77026399Y-52657903D01*
X77027512Y-52655820D01*
X77029003Y-52654003D01*
X77030820Y-52652512D01*
X77032903Y-52651399D01*
X77035159Y-52650714D01*
X77047303Y-52649518D01*
X77066530Y-52645694D01*
X77084641Y-52638191D01*
X77100940Y-52627300D01*
X77114802Y-52613438D01*
X77125693Y-52597138D01*
X77133194Y-52579027D01*
X77137019Y-52559800D01*
X77137018Y-52540197D01*
X77133194Y-52520970D01*
X77125691Y-52502859D01*
X77114800Y-52486560D01*
X77100938Y-52472698D01*
X77084638Y-52461807D01*
X77066527Y-52454306D01*
X77037500Y-52450000D01*
X76762500Y-52450000D01*
X76742991Y-52451921D01*
X76724232Y-52457612D01*
X76706943Y-52466853D01*
X76691789Y-52479289D01*
X76679353Y-52494443D01*
X76678750Y-52495571D01*
X76678147Y-52494443D01*
X76665711Y-52479289D01*
X76650557Y-52466853D01*
X76633268Y-52457612D01*
X76604803Y-52450482D01*
X76580462Y-52448084D01*
X76566488Y-52443846D01*
X76553598Y-52436956D01*
X76542309Y-52427691D01*
X76533044Y-52416402D01*
X76526154Y-52403512D01*
X76521916Y-52389538D01*
X76520000Y-52370090D01*
X76520000Y-52029910D01*
X76521916Y-52010462D01*
X76526154Y-51996488D01*
X76533044Y-51983598D01*
X76542309Y-51972309D01*
X76553598Y-51963044D01*
X76566488Y-51956154D01*
X76580462Y-51951916D01*
X76599910Y-51950000D01*
X77537500Y-51950000D01*
X77557009Y-51948079D01*
X77575768Y-51942388D01*
X77593057Y-51933147D01*
X77608211Y-51920711D01*
X77620647Y-51905557D01*
X77621250Y-51904429D01*
X77621853Y-51905557D01*
X77621853Y-51905557D01*
G37*
G36*
X76679353Y-52605557D02*
X76691789Y-52620711D01*
X76706943Y-52633147D01*
X76724232Y-52642388D01*
X76752697Y-52649518D01*
X76764841Y-52650714D01*
X76767097Y-52651399D01*
X76769180Y-52652512D01*
X76770997Y-52654003D01*
X76772488Y-52655820D01*
X76773601Y-52657903D01*
X76774286Y-52660159D01*
X76775000Y-52667410D01*
X76775000Y-53332590D01*
X76774286Y-53339841D01*
X76773601Y-53342097D01*
X76772488Y-53344180D01*
X76770997Y-53345997D01*
X76769180Y-53347488D01*
X76767097Y-53348601D01*
X76764841Y-53349286D01*
X76757590Y-53350000D01*
X76542410Y-53350000D01*
X76535159Y-53349286D01*
X76532903Y-53348601D01*
X76530820Y-53347488D01*
X76529003Y-53345997D01*
X76527512Y-53344180D01*
X76526399Y-53342097D01*
X76525714Y-53339841D01*
X76525000Y-53332590D01*
X76525000Y-52667410D01*
X76525714Y-52660159D01*
X76526399Y-52657903D01*
X76527512Y-52655820D01*
X76529003Y-52654003D01*
X76530820Y-52652512D01*
X76532903Y-52651399D01*
X76535159Y-52650714D01*
X76542410Y-52650000D01*
X76595000Y-52650000D01*
X76614509Y-52648079D01*
X76633268Y-52642388D01*
X76650557Y-52633147D01*
X76665711Y-52620711D01*
X76678147Y-52605557D01*
X76678750Y-52604429D01*
X76679353Y-52605557D01*
X76679353Y-52605557D01*
G37*
G36*
X117800000Y-52975000D02*
X116500000Y-52975000D01*
X116500000Y-52725000D01*
X117800000Y-52725000D01*
X117800000Y-52975000D01*
X117800000Y-52975000D01*
G37*
G36*
X109100000Y-52975000D02*
X107800000Y-52975000D01*
X107800000Y-52725000D01*
X109100000Y-52725000D01*
X109100000Y-52975000D01*
X109100000Y-52975000D01*
G37*
G36*
X117800000Y-52475000D02*
X116500000Y-52475000D01*
X116500000Y-52225000D01*
X117800000Y-52225000D01*
X117800000Y-52475000D01*
X117800000Y-52475000D01*
G37*
G36*
X109100000Y-52475000D02*
X107800000Y-52475000D01*
X107800000Y-52225000D01*
X109100000Y-52225000D01*
X109100000Y-52475000D01*
X109100000Y-52475000D01*
G37*
G36*
X122143956Y-51054198D02*
X122180210Y-51065195D01*
X122213621Y-51083054D01*
X122242910Y-51107090D01*
X122266946Y-51136379D01*
X122284805Y-51169790D01*
X122295802Y-51206044D01*
X122300000Y-51248667D01*
X122300000Y-51826333D01*
X122295802Y-51868956D01*
X122284805Y-51905210D01*
X122266946Y-51938621D01*
X122242910Y-51967910D01*
X122213621Y-51991946D01*
X122180210Y-52009805D01*
X122143956Y-52020802D01*
X122101333Y-52025000D01*
X121098667Y-52025000D01*
X121056044Y-52020802D01*
X121019790Y-52009805D01*
X120986379Y-51991946D01*
X120957090Y-51967910D01*
X120933054Y-51938621D01*
X120915195Y-51905210D01*
X120904198Y-51868956D01*
X120900000Y-51826333D01*
X120900000Y-51248667D01*
X120904198Y-51206044D01*
X120915195Y-51169790D01*
X120933054Y-51136379D01*
X120957090Y-51107090D01*
X120986379Y-51083054D01*
X121019790Y-51065195D01*
X121056044Y-51054198D01*
X121098667Y-51050000D01*
X122101333Y-51050000D01*
X122143956Y-51054198D01*
X122143956Y-51054198D01*
G37*
G36*
X119239076Y-51153717D02*
X119270641Y-51163291D01*
X119299735Y-51178843D01*
X119325232Y-51199768D01*
X119346157Y-51225265D01*
X119361709Y-51254359D01*
X119371283Y-51285924D01*
X119375000Y-51323658D01*
X119375000Y-51851342D01*
X119371283Y-51889076D01*
X119361709Y-51920641D01*
X119346157Y-51949735D01*
X119325232Y-51975232D01*
X119299735Y-51996157D01*
X119270641Y-52011709D01*
X119239076Y-52021283D01*
X119201342Y-52025000D01*
X118598658Y-52025000D01*
X118560924Y-52021283D01*
X118529359Y-52011709D01*
X118500265Y-51996157D01*
X118474768Y-51975232D01*
X118453843Y-51949735D01*
X118438291Y-51920641D01*
X118428717Y-51889076D01*
X118425000Y-51851342D01*
X118425000Y-51323658D01*
X118428717Y-51285924D01*
X118438291Y-51254359D01*
X118453843Y-51225265D01*
X118474768Y-51199768D01*
X118500265Y-51178843D01*
X118529359Y-51163291D01*
X118560924Y-51153717D01*
X118598658Y-51150000D01*
X119201342Y-51150000D01*
X119239076Y-51153717D01*
X119239076Y-51153717D01*
G37*
G36*
X109100000Y-51975000D02*
X107800000Y-51975000D01*
X107800000Y-51725000D01*
X109100000Y-51725000D01*
X109100000Y-51975000D01*
X109100000Y-51975000D01*
G37*
G36*
X117800000Y-51975000D02*
X116500000Y-51975000D01*
X116500000Y-51725000D01*
X117800000Y-51725000D01*
X117800000Y-51975000D01*
X117800000Y-51975000D01*
G37*
G36*
X77764841Y-51050714D02*
X77767097Y-51051399D01*
X77769180Y-51052512D01*
X77770997Y-51054003D01*
X77772488Y-51055820D01*
X77773601Y-51057903D01*
X77774286Y-51060159D01*
X77775000Y-51067410D01*
X77775000Y-51732590D01*
X77774286Y-51739841D01*
X77773601Y-51742097D01*
X77772488Y-51744180D01*
X77770997Y-51745997D01*
X77769180Y-51747488D01*
X77767097Y-51748601D01*
X77764841Y-51749286D01*
X77757590Y-51750000D01*
X77705000Y-51750000D01*
X77685491Y-51751921D01*
X77666732Y-51757612D01*
X77649443Y-51766853D01*
X77634289Y-51779289D01*
X77621853Y-51794443D01*
X77621250Y-51795571D01*
X77620647Y-51794443D01*
X77608211Y-51779289D01*
X77593057Y-51766853D01*
X77575768Y-51757612D01*
X77547303Y-51750482D01*
X77535159Y-51749286D01*
X77532903Y-51748601D01*
X77530820Y-51747488D01*
X77529003Y-51745997D01*
X77527512Y-51744180D01*
X77526399Y-51742097D01*
X77525714Y-51739841D01*
X77525000Y-51732590D01*
X77525000Y-51067410D01*
X77525714Y-51060159D01*
X77526399Y-51057903D01*
X77527512Y-51055820D01*
X77529003Y-51054003D01*
X77530820Y-51052512D01*
X77532903Y-51051399D01*
X77535159Y-51050714D01*
X77542410Y-51050000D01*
X77757590Y-51050000D01*
X77764841Y-51050714D01*
X77764841Y-51050714D01*
G37*
G36*
X77264841Y-51050714D02*
X77267097Y-51051399D01*
X77269180Y-51052512D01*
X77270997Y-51054003D01*
X77272488Y-51055820D01*
X77273601Y-51057903D01*
X77274286Y-51060159D01*
X77275000Y-51067410D01*
X77275000Y-51732590D01*
X77274286Y-51739841D01*
X77273601Y-51742097D01*
X77272488Y-51744180D01*
X77270997Y-51745997D01*
X77269180Y-51747488D01*
X77267097Y-51748601D01*
X77264841Y-51749286D01*
X77257590Y-51750000D01*
X77042410Y-51750000D01*
X77035159Y-51749286D01*
X77032903Y-51748601D01*
X77030820Y-51747488D01*
X77029003Y-51745997D01*
X77027512Y-51744180D01*
X77026399Y-51742097D01*
X77025714Y-51739841D01*
X77025000Y-51732590D01*
X77025000Y-51067410D01*
X77025714Y-51060159D01*
X77026399Y-51057903D01*
X77027512Y-51055820D01*
X77029003Y-51054003D01*
X77030820Y-51052512D01*
X77032903Y-51051399D01*
X77035159Y-51050714D01*
X77042410Y-51050000D01*
X77257590Y-51050000D01*
X77264841Y-51050714D01*
X77264841Y-51050714D01*
G37*
G36*
X76764841Y-51050714D02*
X76767097Y-51051399D01*
X76769180Y-51052512D01*
X76770997Y-51054003D01*
X76772488Y-51055820D01*
X76773601Y-51057903D01*
X76774286Y-51060159D01*
X76775000Y-51067410D01*
X76775000Y-51732590D01*
X76774286Y-51739841D01*
X76773601Y-51742097D01*
X76772488Y-51744180D01*
X76770997Y-51745997D01*
X76769180Y-51747488D01*
X76767097Y-51748601D01*
X76764841Y-51749286D01*
X76757590Y-51750000D01*
X76542410Y-51750000D01*
X76535159Y-51749286D01*
X76532903Y-51748601D01*
X76530820Y-51747488D01*
X76529003Y-51745997D01*
X76527512Y-51744180D01*
X76526399Y-51742097D01*
X76525714Y-51739841D01*
X76525000Y-51732590D01*
X76525000Y-51067410D01*
X76525714Y-51060159D01*
X76526399Y-51057903D01*
X76527512Y-51055820D01*
X76529003Y-51054003D01*
X76530820Y-51052512D01*
X76532903Y-51051399D01*
X76535159Y-51050714D01*
X76542410Y-51050000D01*
X76757590Y-51050000D01*
X76764841Y-51050714D01*
X76764841Y-51050714D01*
G37*
G36*
X115175000Y-50900000D02*
X114925000Y-50900000D01*
X114925000Y-49600000D01*
X115175000Y-49600000D01*
X115175000Y-50900000D01*
X115175000Y-50900000D01*
G37*
G36*
X111675000Y-50900000D02*
X111425000Y-50900000D01*
X111425000Y-49600000D01*
X111675000Y-49600000D01*
X111675000Y-50900000D01*
X111675000Y-50900000D01*
G37*
G36*
X112675000Y-50900000D02*
X112425000Y-50900000D01*
X112425000Y-49600000D01*
X112675000Y-49600000D01*
X112675000Y-50900000D01*
X112675000Y-50900000D01*
G37*
G36*
X113175000Y-50900000D02*
X112925000Y-50900000D01*
X112925000Y-49600000D01*
X113175000Y-49600000D01*
X113175000Y-50900000D01*
X113175000Y-50900000D01*
G37*
G36*
X113675000Y-50900000D02*
X113425000Y-50900000D01*
X113425000Y-49600000D01*
X113675000Y-49600000D01*
X113675000Y-50900000D01*
X113675000Y-50900000D01*
G37*
G36*
X114175000Y-50900000D02*
X113925000Y-50900000D01*
X113925000Y-49600000D01*
X114175000Y-49600000D01*
X114175000Y-50900000D01*
X114175000Y-50900000D01*
G37*
G36*
X114675000Y-50900000D02*
X114425000Y-50900000D01*
X114425000Y-49600000D01*
X114675000Y-49600000D01*
X114675000Y-50900000D01*
X114675000Y-50900000D01*
G37*
G36*
X115675000Y-50900000D02*
X115425000Y-50900000D01*
X115425000Y-49600000D01*
X115675000Y-49600000D01*
X115675000Y-50900000D01*
X115675000Y-50900000D01*
G37*
G36*
X111175000Y-50900000D02*
X110925000Y-50900000D01*
X110925000Y-49600000D01*
X111175000Y-49600000D01*
X111175000Y-50900000D01*
X111175000Y-50900000D01*
G37*
G36*
X110675000Y-50900000D02*
X110425000Y-50900000D01*
X110425000Y-49600000D01*
X110675000Y-49600000D01*
X110675000Y-50900000D01*
X110675000Y-50900000D01*
G37*
G36*
X112175000Y-50900000D02*
X111925000Y-50900000D01*
X111925000Y-49600000D01*
X112175000Y-49600000D01*
X112175000Y-50900000D01*
X112175000Y-50900000D01*
G37*
G36*
X110175000Y-50900000D02*
X109925000Y-50900000D01*
X109925000Y-49600000D01*
X110175000Y-49600000D01*
X110175000Y-50900000D01*
X110175000Y-50900000D01*
G37*
G36*
X119239076Y-49578717D02*
X119270641Y-49588291D01*
X119299735Y-49603843D01*
X119325232Y-49624768D01*
X119346157Y-49650265D01*
X119361709Y-49679359D01*
X119371283Y-49710924D01*
X119375000Y-49748658D01*
X119375000Y-50276342D01*
X119371283Y-50314076D01*
X119361709Y-50345641D01*
X119346157Y-50374735D01*
X119325232Y-50400232D01*
X119299735Y-50421157D01*
X119270641Y-50436709D01*
X119239076Y-50446283D01*
X119201342Y-50450000D01*
X118598658Y-50450000D01*
X118560924Y-50446283D01*
X118529359Y-50436709D01*
X118500265Y-50421157D01*
X118474768Y-50400232D01*
X118453843Y-50374735D01*
X118438291Y-50345641D01*
X118428717Y-50314076D01*
X118425000Y-50276342D01*
X118425000Y-49748658D01*
X118428717Y-49710924D01*
X118438291Y-49679359D01*
X118453843Y-49650265D01*
X118474768Y-49624768D01*
X118500265Y-49603843D01*
X118529359Y-49588291D01*
X118560924Y-49578717D01*
X118598658Y-49575000D01*
X119201342Y-49575000D01*
X119239076Y-49578717D01*
X119239076Y-49578717D01*
G37*
G36*
X82714410Y-48223057D02*
X82791689Y-48238429D01*
X82973678Y-48313811D01*
X83137463Y-48423249D01*
X83276751Y-48562537D01*
X83386189Y-48726322D01*
X83461571Y-48908311D01*
X83461571Y-48908313D01*
X83500000Y-49101506D01*
X83500000Y-49298494D01*
X83493525Y-49331044D01*
X83461571Y-49491689D01*
X83386189Y-49673678D01*
X83276751Y-49837463D01*
X83137463Y-49976751D01*
X82973678Y-50086189D01*
X82791689Y-50161571D01*
X82714410Y-50176943D01*
X82598494Y-50200000D01*
X82401506Y-50200000D01*
X82285590Y-50176943D01*
X82208311Y-50161571D01*
X82026322Y-50086189D01*
X81862537Y-49976751D01*
X81723249Y-49837463D01*
X81613811Y-49673678D01*
X81538429Y-49491689D01*
X81506475Y-49331044D01*
X81500000Y-49298494D01*
X81500000Y-49101506D01*
X81538429Y-48908313D01*
X81538429Y-48908311D01*
X81613811Y-48726322D01*
X81723249Y-48562537D01*
X81862537Y-48423249D01*
X82026322Y-48313811D01*
X82208311Y-48238429D01*
X82285590Y-48223057D01*
X82401506Y-48200000D01*
X82598494Y-48200000D01*
X82714410Y-48223057D01*
X82714410Y-48223057D01*
G37*
G36*
X122143956Y-49179198D02*
X122180210Y-49190195D01*
X122213621Y-49208054D01*
X122242910Y-49232090D01*
X122266946Y-49261379D01*
X122284805Y-49294790D01*
X122295802Y-49331044D01*
X122300000Y-49373667D01*
X122300000Y-49951333D01*
X122295802Y-49993956D01*
X122284805Y-50030210D01*
X122266946Y-50063621D01*
X122242910Y-50092910D01*
X122213621Y-50116946D01*
X122180210Y-50134805D01*
X122143956Y-50145802D01*
X122101333Y-50150000D01*
X121098667Y-50150000D01*
X121056044Y-50145802D01*
X121019790Y-50134805D01*
X120986379Y-50116946D01*
X120957090Y-50092910D01*
X120933054Y-50063621D01*
X120915195Y-50030210D01*
X120904198Y-49993956D01*
X120900000Y-49951333D01*
X120900000Y-49373667D01*
X120904198Y-49331044D01*
X120915195Y-49294790D01*
X120933054Y-49261379D01*
X120957090Y-49232090D01*
X120986379Y-49208054D01*
X121019790Y-49190195D01*
X121056044Y-49179198D01*
X121098667Y-49175000D01*
X122101333Y-49175000D01*
X122143956Y-49179198D01*
X122143956Y-49179198D01*
G37*
G36*
X78943956Y-47554198D02*
X78980210Y-47565195D01*
X79013621Y-47583054D01*
X79042910Y-47607090D01*
X79066946Y-47636379D01*
X79084805Y-47669790D01*
X79095802Y-47706044D01*
X79100000Y-47748667D01*
X79100000Y-48326333D01*
X79095802Y-48368956D01*
X79084805Y-48405210D01*
X79066946Y-48438621D01*
X79042910Y-48467910D01*
X79013621Y-48491946D01*
X78980210Y-48509805D01*
X78943956Y-48520802D01*
X78901333Y-48525000D01*
X77898667Y-48525000D01*
X77856044Y-48520802D01*
X77819790Y-48509805D01*
X77786379Y-48491946D01*
X77757090Y-48467910D01*
X77733054Y-48438621D01*
X77715195Y-48405210D01*
X77704198Y-48368956D01*
X77700000Y-48326333D01*
X77700000Y-47748667D01*
X77704198Y-47706044D01*
X77715195Y-47669790D01*
X77733054Y-47636379D01*
X77757090Y-47607090D01*
X77786379Y-47583054D01*
X77819790Y-47565195D01*
X77856044Y-47554198D01*
X77898667Y-47550000D01*
X78901333Y-47550000D01*
X78943956Y-47554198D01*
X78943956Y-47554198D01*
G37*
G36*
X76843956Y-47554198D02*
X76880210Y-47565195D01*
X76913621Y-47583054D01*
X76942910Y-47607090D01*
X76966946Y-47636379D01*
X76984805Y-47669790D01*
X76995802Y-47706044D01*
X77000000Y-47748667D01*
X77000000Y-48326333D01*
X76995802Y-48368956D01*
X76984805Y-48405210D01*
X76966946Y-48438621D01*
X76942910Y-48467910D01*
X76913621Y-48491946D01*
X76880210Y-48509805D01*
X76843956Y-48520802D01*
X76801333Y-48525000D01*
X75798667Y-48525000D01*
X75756044Y-48520802D01*
X75719790Y-48509805D01*
X75686379Y-48491946D01*
X75657090Y-48467910D01*
X75633054Y-48438621D01*
X75615195Y-48405210D01*
X75604198Y-48368956D01*
X75600000Y-48326333D01*
X75600000Y-47748667D01*
X75604198Y-47706044D01*
X75615195Y-47669790D01*
X75633054Y-47636379D01*
X75657090Y-47607090D01*
X75686379Y-47583054D01*
X75719790Y-47565195D01*
X75756044Y-47554198D01*
X75798667Y-47550000D01*
X76801333Y-47550000D01*
X76843956Y-47554198D01*
X76843956Y-47554198D01*
G37*
G36*
X115614076Y-46728717D02*
X115645641Y-46738291D01*
X115674735Y-46753843D01*
X115700232Y-46774768D01*
X115721157Y-46800265D01*
X115736709Y-46829359D01*
X115746283Y-46860924D01*
X115750000Y-46898658D01*
X115750000Y-47501342D01*
X115746283Y-47539076D01*
X115736709Y-47570641D01*
X115721157Y-47599735D01*
X115700232Y-47625232D01*
X115674735Y-47646157D01*
X115645641Y-47661709D01*
X115614076Y-47671283D01*
X115576342Y-47675000D01*
X115048658Y-47675000D01*
X115010924Y-47671283D01*
X114979359Y-47661709D01*
X114950265Y-47646157D01*
X114924768Y-47625232D01*
X114903843Y-47599735D01*
X114888291Y-47570641D01*
X114878717Y-47539076D01*
X114875000Y-47501342D01*
X114875000Y-46898658D01*
X114878717Y-46860924D01*
X114888291Y-46829359D01*
X114903843Y-46800265D01*
X114924768Y-46774768D01*
X114950265Y-46753843D01*
X114979359Y-46738291D01*
X115010924Y-46728717D01*
X115048658Y-46725000D01*
X115576342Y-46725000D01*
X115614076Y-46728717D01*
X115614076Y-46728717D01*
G37*
G36*
X117189076Y-46728717D02*
X117220641Y-46738291D01*
X117249735Y-46753843D01*
X117275232Y-46774768D01*
X117296157Y-46800265D01*
X117311709Y-46829359D01*
X117321283Y-46860924D01*
X117325000Y-46898658D01*
X117325000Y-47501342D01*
X117321283Y-47539076D01*
X117311709Y-47570641D01*
X117296157Y-47599735D01*
X117275232Y-47625232D01*
X117249735Y-47646157D01*
X117220641Y-47661709D01*
X117189076Y-47671283D01*
X117151342Y-47675000D01*
X116623658Y-47675000D01*
X116585924Y-47671283D01*
X116554359Y-47661709D01*
X116525265Y-47646157D01*
X116499768Y-47625232D01*
X116478843Y-47599735D01*
X116463291Y-47570641D01*
X116453717Y-47539076D01*
X116450000Y-47501342D01*
X116450000Y-46898658D01*
X116453717Y-46860924D01*
X116463291Y-46829359D01*
X116478843Y-46800265D01*
X116499768Y-46774768D01*
X116525265Y-46753843D01*
X116554359Y-46738291D01*
X116585924Y-46728717D01*
X116623658Y-46725000D01*
X117151342Y-46725000D01*
X117189076Y-46728717D01*
X117189076Y-46728717D01*
G37*
G36*
X103514410Y-45023057D02*
X103591689Y-45038429D01*
X103773678Y-45113811D01*
X103937463Y-45223249D01*
X104076751Y-45362537D01*
X104186189Y-45526322D01*
X104261571Y-45708311D01*
X104261571Y-45708313D01*
X104300000Y-45901506D01*
X104300000Y-46098494D01*
X104276943Y-46214410D01*
X104261571Y-46291689D01*
X104186189Y-46473678D01*
X104076751Y-46637463D01*
X103937463Y-46776751D01*
X103773678Y-46886189D01*
X103591689Y-46961571D01*
X103514410Y-46976943D01*
X103398494Y-47000000D01*
X103201506Y-47000000D01*
X103085590Y-46976943D01*
X103008311Y-46961571D01*
X102826322Y-46886189D01*
X102662537Y-46776751D01*
X102523249Y-46637463D01*
X102413811Y-46473678D01*
X102338429Y-46291689D01*
X102323057Y-46214410D01*
X102300000Y-46098494D01*
X102300000Y-45901506D01*
X102338429Y-45708313D01*
X102338429Y-45708311D01*
X102413811Y-45526322D01*
X102523249Y-45362537D01*
X102662537Y-45223249D01*
X102826322Y-45113811D01*
X103008311Y-45038429D01*
X103085590Y-45023057D01*
X103201506Y-45000000D01*
X103398494Y-45000000D01*
X103514410Y-45023057D01*
X103514410Y-45023057D01*
G37*
G36*
X106714410Y-45023057D02*
X106791689Y-45038429D01*
X106973678Y-45113811D01*
X107137463Y-45223249D01*
X107276751Y-45362537D01*
X107386189Y-45526322D01*
X107461571Y-45708311D01*
X107461571Y-45708313D01*
X107500000Y-45901506D01*
X107500000Y-46098494D01*
X107476943Y-46214410D01*
X107461571Y-46291689D01*
X107386189Y-46473678D01*
X107276751Y-46637463D01*
X107137463Y-46776751D01*
X106973678Y-46886189D01*
X106791689Y-46961571D01*
X106714410Y-46976943D01*
X106598494Y-47000000D01*
X106401506Y-47000000D01*
X106285590Y-46976943D01*
X106208311Y-46961571D01*
X106026322Y-46886189D01*
X105862537Y-46776751D01*
X105723249Y-46637463D01*
X105613811Y-46473678D01*
X105538429Y-46291689D01*
X105523057Y-46214410D01*
X105500000Y-46098494D01*
X105500000Y-45901506D01*
X105538429Y-45708313D01*
X105538429Y-45708311D01*
X105613811Y-45526322D01*
X105723249Y-45362537D01*
X105862537Y-45223249D01*
X106026322Y-45113811D01*
X106208311Y-45038429D01*
X106285590Y-45023057D01*
X106401506Y-45000000D01*
X106598494Y-45000000D01*
X106714410Y-45023057D01*
X106714410Y-45023057D01*
G37*
G36*
X76843956Y-45679198D02*
X76880210Y-45690195D01*
X76913621Y-45708054D01*
X76942910Y-45732090D01*
X76966946Y-45761379D01*
X76984805Y-45794790D01*
X76995802Y-45831044D01*
X77000000Y-45873667D01*
X77000000Y-46451333D01*
X76995802Y-46493956D01*
X76984805Y-46530210D01*
X76966946Y-46563621D01*
X76942910Y-46592910D01*
X76913621Y-46616946D01*
X76880210Y-46634805D01*
X76843956Y-46645802D01*
X76801333Y-46650000D01*
X75798667Y-46650000D01*
X75756044Y-46645802D01*
X75719790Y-46634805D01*
X75686379Y-46616946D01*
X75657090Y-46592910D01*
X75633054Y-46563621D01*
X75615195Y-46530210D01*
X75604198Y-46493956D01*
X75600000Y-46451333D01*
X75600000Y-45873667D01*
X75604198Y-45831044D01*
X75615195Y-45794790D01*
X75633054Y-45761379D01*
X75657090Y-45732090D01*
X75686379Y-45708054D01*
X75719790Y-45690195D01*
X75756044Y-45679198D01*
X75798667Y-45675000D01*
X76801333Y-45675000D01*
X76843956Y-45679198D01*
X76843956Y-45679198D01*
G37*
G36*
X78943956Y-45679198D02*
X78980210Y-45690195D01*
X79013621Y-45708054D01*
X79042910Y-45732090D01*
X79066946Y-45761379D01*
X79084805Y-45794790D01*
X79095802Y-45831044D01*
X79100000Y-45873667D01*
X79100000Y-46451333D01*
X79095802Y-46493956D01*
X79084805Y-46530210D01*
X79066946Y-46563621D01*
X79042910Y-46592910D01*
X79013621Y-46616946D01*
X78980210Y-46634805D01*
X78943956Y-46645802D01*
X78901333Y-46650000D01*
X77898667Y-46650000D01*
X77856044Y-46645802D01*
X77819790Y-46634805D01*
X77786379Y-46616946D01*
X77757090Y-46592910D01*
X77733054Y-46563621D01*
X77715195Y-46530210D01*
X77704198Y-46493956D01*
X77700000Y-46451333D01*
X77700000Y-45873667D01*
X77704198Y-45831044D01*
X77715195Y-45794790D01*
X77733054Y-45761379D01*
X77757090Y-45732090D01*
X77786379Y-45708054D01*
X77819790Y-45690195D01*
X77856044Y-45679198D01*
X77898667Y-45675000D01*
X78901333Y-45675000D01*
X78943956Y-45679198D01*
X78943956Y-45679198D01*
G37*
G36*
X82710436Y-43722267D02*
X82791689Y-43738429D01*
X82973678Y-43813811D01*
X83137463Y-43923249D01*
X83276751Y-44062537D01*
X83386189Y-44226322D01*
X83461571Y-44408311D01*
X83464943Y-44425265D01*
X83500000Y-44601506D01*
X83500000Y-44798494D01*
X83480203Y-44898017D01*
X83461571Y-44991689D01*
X83386189Y-45173678D01*
X83276751Y-45337463D01*
X83137463Y-45476751D01*
X82973678Y-45586189D01*
X82791689Y-45661571D01*
X82724176Y-45675000D01*
X82598494Y-45700000D01*
X82401506Y-45700000D01*
X82275824Y-45675000D01*
X82208311Y-45661571D01*
X82026322Y-45586189D01*
X81862537Y-45476751D01*
X81723249Y-45337463D01*
X81613811Y-45173678D01*
X81538429Y-44991689D01*
X81519797Y-44898017D01*
X81500000Y-44798494D01*
X81500000Y-44601506D01*
X81535057Y-44425265D01*
X81538429Y-44408311D01*
X81613811Y-44226322D01*
X81723249Y-44062537D01*
X81862537Y-43923249D01*
X82026322Y-43813811D01*
X82208311Y-43738429D01*
X82289564Y-43722267D01*
X82401506Y-43700000D01*
X82598494Y-43700000D01*
X82710436Y-43722267D01*
X82710436Y-43722267D01*
G37*
G36*
X115338016Y-44307234D02*
X115432267Y-44335825D01*
X115519130Y-44382254D01*
X115595264Y-44444736D01*
X115657746Y-44520870D01*
X115704175Y-44607733D01*
X115732766Y-44701984D01*
X115742420Y-44800000D01*
X115732766Y-44898016D01*
X115704175Y-44992267D01*
X115657746Y-45079130D01*
X115595264Y-45155264D01*
X115519130Y-45217746D01*
X115432267Y-45264175D01*
X115338016Y-45292766D01*
X115264566Y-45300000D01*
X115215434Y-45300000D01*
X115141984Y-45292766D01*
X115047733Y-45264175D01*
X114960870Y-45217746D01*
X114884736Y-45155264D01*
X114822254Y-45079130D01*
X114775825Y-44992267D01*
X114747234Y-44898016D01*
X114737580Y-44800000D01*
X114747234Y-44701984D01*
X114775825Y-44607733D01*
X114822254Y-44520870D01*
X114884736Y-44444736D01*
X114960870Y-44382254D01*
X115047733Y-44335825D01*
X115141984Y-44307234D01*
X115215434Y-44300000D01*
X115264566Y-44300000D01*
X115338016Y-44307234D01*
X115338016Y-44307234D01*
G37*
G36*
X113200000Y-45300000D02*
X112200000Y-45300000D01*
X112200000Y-44300000D01*
X113200000Y-44300000D01*
X113200000Y-45300000D01*
X113200000Y-45300000D01*
G37*
G36*
X116608016Y-44307234D02*
X116702267Y-44335825D01*
X116789130Y-44382254D01*
X116865264Y-44444736D01*
X116927746Y-44520870D01*
X116974175Y-44607733D01*
X117002766Y-44701984D01*
X117012420Y-44800000D01*
X117002766Y-44898016D01*
X116974175Y-44992267D01*
X116927746Y-45079130D01*
X116865264Y-45155264D01*
X116789130Y-45217746D01*
X116702267Y-45264175D01*
X116608016Y-45292766D01*
X116534566Y-45300000D01*
X116485434Y-45300000D01*
X116411984Y-45292766D01*
X116317733Y-45264175D01*
X116230870Y-45217746D01*
X116154736Y-45155264D01*
X116092254Y-45079130D01*
X116045825Y-44992267D01*
X116017234Y-44898016D01*
X116007580Y-44800000D01*
X116017234Y-44701984D01*
X116045825Y-44607733D01*
X116092254Y-44520870D01*
X116154736Y-44444736D01*
X116230870Y-44382254D01*
X116317733Y-44335825D01*
X116411984Y-44307234D01*
X116485434Y-44300000D01*
X116534566Y-44300000D01*
X116608016Y-44307234D01*
X116608016Y-44307234D01*
G37*
G36*
X117878016Y-44307234D02*
X117972267Y-44335825D01*
X118059130Y-44382254D01*
X118135264Y-44444736D01*
X118197746Y-44520870D01*
X118244175Y-44607733D01*
X118272766Y-44701984D01*
X118282420Y-44800000D01*
X118272766Y-44898016D01*
X118244175Y-44992267D01*
X118197746Y-45079130D01*
X118135264Y-45155264D01*
X118059130Y-45217746D01*
X117972267Y-45264175D01*
X117878016Y-45292766D01*
X117804566Y-45300000D01*
X117755434Y-45300000D01*
X117681984Y-45292766D01*
X117587733Y-45264175D01*
X117500870Y-45217746D01*
X117424736Y-45155264D01*
X117362254Y-45079130D01*
X117315825Y-44992267D01*
X117287234Y-44898016D01*
X117277580Y-44800000D01*
X117287234Y-44701984D01*
X117315825Y-44607733D01*
X117362254Y-44520870D01*
X117424736Y-44444736D01*
X117500870Y-44382254D01*
X117587733Y-44335825D01*
X117681984Y-44307234D01*
X117755434Y-44300000D01*
X117804566Y-44300000D01*
X117878016Y-44307234D01*
X117878016Y-44307234D01*
G37*
G36*
X114068016Y-44307234D02*
X114162267Y-44335825D01*
X114249130Y-44382254D01*
X114325264Y-44444736D01*
X114387746Y-44520870D01*
X114434175Y-44607733D01*
X114462766Y-44701984D01*
X114472420Y-44800000D01*
X114462766Y-44898016D01*
X114434175Y-44992267D01*
X114387746Y-45079130D01*
X114325264Y-45155264D01*
X114249130Y-45217746D01*
X114162267Y-45264175D01*
X114068016Y-45292766D01*
X113994566Y-45300000D01*
X113945434Y-45300000D01*
X113871984Y-45292766D01*
X113777733Y-45264175D01*
X113690870Y-45217746D01*
X113614736Y-45155264D01*
X113552254Y-45079130D01*
X113505825Y-44992267D01*
X113477234Y-44898016D01*
X113467580Y-44800000D01*
X113477234Y-44701984D01*
X113505825Y-44607733D01*
X113552254Y-44520870D01*
X113614736Y-44444736D01*
X113690870Y-44382254D01*
X113777733Y-44335825D01*
X113871984Y-44307234D01*
X113945434Y-44300000D01*
X113994566Y-44300000D01*
X114068016Y-44307234D01*
X114068016Y-44307234D01*
G37*
G36*
X120139076Y-44353717D02*
X120170641Y-44363291D01*
X120199735Y-44378843D01*
X120225232Y-44399768D01*
X120246157Y-44425265D01*
X120261709Y-44454359D01*
X120271283Y-44485924D01*
X120275000Y-44523658D01*
X120275000Y-45051342D01*
X120271283Y-45089076D01*
X120261709Y-45120641D01*
X120246157Y-45149735D01*
X120225232Y-45175232D01*
X120199735Y-45196157D01*
X120170641Y-45211709D01*
X120139076Y-45221283D01*
X120101342Y-45225000D01*
X119498658Y-45225000D01*
X119460924Y-45221283D01*
X119429359Y-45211709D01*
X119400265Y-45196157D01*
X119374768Y-45175232D01*
X119353843Y-45149735D01*
X119338291Y-45120641D01*
X119328717Y-45089076D01*
X119325000Y-45051342D01*
X119325000Y-44523658D01*
X119328717Y-44485924D01*
X119338291Y-44454359D01*
X119353843Y-44425265D01*
X119374768Y-44399768D01*
X119400265Y-44378843D01*
X119429359Y-44363291D01*
X119460924Y-44353717D01*
X119498658Y-44350000D01*
X120101342Y-44350000D01*
X120139076Y-44353717D01*
X120139076Y-44353717D01*
G37*
G36*
X111039076Y-44353717D02*
X111070641Y-44363291D01*
X111099735Y-44378843D01*
X111125232Y-44399768D01*
X111146157Y-44425265D01*
X111161709Y-44454359D01*
X111171283Y-44485924D01*
X111175000Y-44523658D01*
X111175000Y-45051342D01*
X111171283Y-45089076D01*
X111161709Y-45120641D01*
X111146157Y-45149735D01*
X111125232Y-45175232D01*
X111099735Y-45196157D01*
X111070641Y-45211709D01*
X111039076Y-45221283D01*
X111001342Y-45225000D01*
X110398658Y-45225000D01*
X110360924Y-45221283D01*
X110329359Y-45211709D01*
X110300265Y-45196157D01*
X110274768Y-45175232D01*
X110253843Y-45149735D01*
X110238291Y-45120641D01*
X110228717Y-45089076D01*
X110225000Y-45051342D01*
X110225000Y-44523658D01*
X110228717Y-44485924D01*
X110238291Y-44454359D01*
X110253843Y-44425265D01*
X110274768Y-44399768D01*
X110300265Y-44378843D01*
X110329359Y-44363291D01*
X110360924Y-44353717D01*
X110398658Y-44350000D01*
X111001342Y-44350000D01*
X111039076Y-44353717D01*
X111039076Y-44353717D01*
G37*
G36*
X114068016Y-43037234D02*
X114162267Y-43065825D01*
X114249130Y-43112254D01*
X114325264Y-43174736D01*
X114387746Y-43250870D01*
X114434175Y-43337733D01*
X114462766Y-43431984D01*
X114472420Y-43530000D01*
X114462766Y-43628016D01*
X114434175Y-43722267D01*
X114387746Y-43809130D01*
X114325264Y-43885264D01*
X114249130Y-43947746D01*
X114162267Y-43994175D01*
X114068016Y-44022766D01*
X113994566Y-44030000D01*
X113945434Y-44030000D01*
X113871984Y-44022766D01*
X113777733Y-43994175D01*
X113690870Y-43947746D01*
X113614736Y-43885264D01*
X113552254Y-43809130D01*
X113505825Y-43722267D01*
X113477234Y-43628016D01*
X113467580Y-43530000D01*
X113477234Y-43431984D01*
X113505825Y-43337733D01*
X113552254Y-43250870D01*
X113614736Y-43174736D01*
X113690870Y-43112254D01*
X113777733Y-43065825D01*
X113871984Y-43037234D01*
X113945434Y-43030000D01*
X113994566Y-43030000D01*
X114068016Y-43037234D01*
X114068016Y-43037234D01*
G37*
G36*
X117878016Y-43037234D02*
X117972267Y-43065825D01*
X118059130Y-43112254D01*
X118135264Y-43174736D01*
X118197746Y-43250870D01*
X118244175Y-43337733D01*
X118272766Y-43431984D01*
X118282420Y-43530000D01*
X118272766Y-43628016D01*
X118244175Y-43722267D01*
X118197746Y-43809130D01*
X118135264Y-43885264D01*
X118059130Y-43947746D01*
X117972267Y-43994175D01*
X117878016Y-44022766D01*
X117804566Y-44030000D01*
X117755434Y-44030000D01*
X117681984Y-44022766D01*
X117587733Y-43994175D01*
X117500870Y-43947746D01*
X117424736Y-43885264D01*
X117362254Y-43809130D01*
X117315825Y-43722267D01*
X117287234Y-43628016D01*
X117277580Y-43530000D01*
X117287234Y-43431984D01*
X117315825Y-43337733D01*
X117362254Y-43250870D01*
X117424736Y-43174736D01*
X117500870Y-43112254D01*
X117587733Y-43065825D01*
X117681984Y-43037234D01*
X117755434Y-43030000D01*
X117804566Y-43030000D01*
X117878016Y-43037234D01*
X117878016Y-43037234D01*
G37*
G36*
X116608016Y-43037234D02*
X116702267Y-43065825D01*
X116789130Y-43112254D01*
X116865264Y-43174736D01*
X116927746Y-43250870D01*
X116974175Y-43337733D01*
X117002766Y-43431984D01*
X117012420Y-43530000D01*
X117002766Y-43628016D01*
X116974175Y-43722267D01*
X116927746Y-43809130D01*
X116865264Y-43885264D01*
X116789130Y-43947746D01*
X116702267Y-43994175D01*
X116608016Y-44022766D01*
X116534566Y-44030000D01*
X116485434Y-44030000D01*
X116411984Y-44022766D01*
X116317733Y-43994175D01*
X116230870Y-43947746D01*
X116154736Y-43885264D01*
X116092254Y-43809130D01*
X116045825Y-43722267D01*
X116017234Y-43628016D01*
X116007580Y-43530000D01*
X116017234Y-43431984D01*
X116045825Y-43337733D01*
X116092254Y-43250870D01*
X116154736Y-43174736D01*
X116230870Y-43112254D01*
X116317733Y-43065825D01*
X116411984Y-43037234D01*
X116485434Y-43030000D01*
X116534566Y-43030000D01*
X116608016Y-43037234D01*
X116608016Y-43037234D01*
G37*
G36*
X115338016Y-43037234D02*
X115432267Y-43065825D01*
X115519130Y-43112254D01*
X115595264Y-43174736D01*
X115657746Y-43250870D01*
X115704175Y-43337733D01*
X115732766Y-43431984D01*
X115742420Y-43530000D01*
X115732766Y-43628016D01*
X115704175Y-43722267D01*
X115657746Y-43809130D01*
X115595264Y-43885264D01*
X115519130Y-43947746D01*
X115432267Y-43994175D01*
X115338016Y-44022766D01*
X115264566Y-44030000D01*
X115215434Y-44030000D01*
X115141984Y-44022766D01*
X115047733Y-43994175D01*
X114960870Y-43947746D01*
X114884736Y-43885264D01*
X114822254Y-43809130D01*
X114775825Y-43722267D01*
X114747234Y-43628016D01*
X114737580Y-43530000D01*
X114747234Y-43431984D01*
X114775825Y-43337733D01*
X114822254Y-43250870D01*
X114884736Y-43174736D01*
X114960870Y-43112254D01*
X115047733Y-43065825D01*
X115141984Y-43037234D01*
X115215434Y-43030000D01*
X115264566Y-43030000D01*
X115338016Y-43037234D01*
X115338016Y-43037234D01*
G37*
G36*
X112798016Y-43037234D02*
X112892267Y-43065825D01*
X112979130Y-43112254D01*
X113055264Y-43174736D01*
X113117746Y-43250870D01*
X113164175Y-43337733D01*
X113192766Y-43431984D01*
X113202420Y-43530000D01*
X113192766Y-43628016D01*
X113164175Y-43722267D01*
X113117746Y-43809130D01*
X113055264Y-43885264D01*
X112979130Y-43947746D01*
X112892267Y-43994175D01*
X112798016Y-44022766D01*
X112724566Y-44030000D01*
X112675434Y-44030000D01*
X112601984Y-44022766D01*
X112507733Y-43994175D01*
X112420870Y-43947746D01*
X112344736Y-43885264D01*
X112282254Y-43809130D01*
X112235825Y-43722267D01*
X112207234Y-43628016D01*
X112197580Y-43530000D01*
X112207234Y-43431984D01*
X112235825Y-43337733D01*
X112282254Y-43250870D01*
X112344736Y-43174736D01*
X112420870Y-43112254D01*
X112507733Y-43065825D01*
X112601984Y-43037234D01*
X112675434Y-43030000D01*
X112724566Y-43030000D01*
X112798016Y-43037234D01*
X112798016Y-43037234D01*
G37*
G36*
X111039076Y-42778717D02*
X111070641Y-42788291D01*
X111099735Y-42803843D01*
X111125232Y-42824768D01*
X111146157Y-42850265D01*
X111161709Y-42879359D01*
X111171283Y-42910924D01*
X111175000Y-42948658D01*
X111175000Y-43476342D01*
X111171283Y-43514076D01*
X111161709Y-43545641D01*
X111146157Y-43574735D01*
X111125232Y-43600232D01*
X111099735Y-43621157D01*
X111070641Y-43636709D01*
X111039076Y-43646283D01*
X111001342Y-43650000D01*
X110398658Y-43650000D01*
X110360924Y-43646283D01*
X110329359Y-43636709D01*
X110300265Y-43621157D01*
X110274768Y-43600232D01*
X110253843Y-43574735D01*
X110238291Y-43545641D01*
X110228717Y-43514076D01*
X110225000Y-43476342D01*
X110225000Y-42948658D01*
X110228717Y-42910924D01*
X110238291Y-42879359D01*
X110253843Y-42850265D01*
X110274768Y-42824768D01*
X110300265Y-42803843D01*
X110329359Y-42788291D01*
X110360924Y-42778717D01*
X110398658Y-42775000D01*
X111001342Y-42775000D01*
X111039076Y-42778717D01*
X111039076Y-42778717D01*
G37*
G36*
X120139076Y-42778717D02*
X120170641Y-42788291D01*
X120199735Y-42803843D01*
X120225232Y-42824768D01*
X120246157Y-42850265D01*
X120261709Y-42879359D01*
X120271283Y-42910924D01*
X120275000Y-42948658D01*
X120275000Y-43476342D01*
X120271283Y-43514076D01*
X120261709Y-43545641D01*
X120246157Y-43574735D01*
X120225232Y-43600232D01*
X120199735Y-43621157D01*
X120170641Y-43636709D01*
X120139076Y-43646283D01*
X120101342Y-43650000D01*
X119498658Y-43650000D01*
X119460924Y-43646283D01*
X119429359Y-43636709D01*
X119400265Y-43621157D01*
X119374768Y-43600232D01*
X119353843Y-43574735D01*
X119338291Y-43545641D01*
X119328717Y-43514076D01*
X119325000Y-43476342D01*
X119325000Y-42948658D01*
X119328717Y-42910924D01*
X119338291Y-42879359D01*
X119353843Y-42850265D01*
X119374768Y-42824768D01*
X119400265Y-42803843D01*
X119429359Y-42788291D01*
X119460924Y-42778717D01*
X119498658Y-42775000D01*
X120101342Y-42775000D01*
X120139076Y-42778717D01*
X120139076Y-42778717D01*
G37*
M02*
