G04 #@! TF.GenerationSoftware,KiCad,Pcbnew,5.0.1-33cea8e~68~ubuntu18.10.1*
G04 #@! TF.CreationDate,2018-11-26T23:49:52+02:00*
G04 #@! TF.ProjectId,GB-CART2M-A,47422D43415254324D2D412E6B696361,v1.0*
G04 #@! TF.SameCoordinates,Original*
G04 #@! TF.FileFunction,Copper,L2,Bot,Signal*
G04 #@! TF.FilePolarity,Positive*
%FSLAX46Y46*%
G04 Gerber Fmt 4.6, Leading zero omitted, Abs format (unit mm)*
G04 Created by KiCad (PCBNEW 5.0.1-33cea8e~68~ubuntu18.10.1) date ma 26. marraskuuta 2018 23.49.52*
%MOMM*%
%LPD*%
G01*
G04 APERTURE LIST*
G04 #@! TA.AperFunction,NonConductor*
%ADD10C,0.150000*%
G04 #@! TD*
G04 #@! TA.AperFunction,ComponentPad*
%ADD11R,1.000000X1.000000*%
G04 #@! TD*
G04 #@! TA.AperFunction,ComponentPad*
%ADD12O,1.000000X1.000000*%
G04 #@! TD*
G04 #@! TA.AperFunction,ComponentPad*
%ADD13C,2.000000*%
G04 #@! TD*
G04 #@! TA.AperFunction,ViaPad*
%ADD14C,0.600000*%
G04 #@! TD*
G04 #@! TA.AperFunction,Conductor*
%ADD15C,0.320000*%
G04 #@! TD*
G04 #@! TA.AperFunction,Conductor*
%ADD16C,1.000000*%
G04 #@! TD*
G04 #@! TA.AperFunction,Conductor*
%ADD17C,0.254000*%
G04 #@! TD*
G04 APERTURE END LIST*
D10*
X121700000Y-39000000D02*
X121700000Y-41600000D01*
X74300000Y-39000000D02*
X121700000Y-39000000D01*
X125700000Y-41600000D02*
X121700000Y-41600000D01*
X74300000Y-91400000D02*
X74300000Y-39000000D01*
X75400000Y-91400000D02*
X74300000Y-91400000D01*
X75400000Y-100000000D02*
X75400000Y-91400000D01*
X125700000Y-91400000D02*
X125700000Y-41600000D01*
X124600000Y-91400000D02*
X125700000Y-91400000D01*
X124600000Y-100000000D02*
X124600000Y-91400000D01*
X75400000Y-100000000D02*
X124600000Y-100000000D01*
D11*
G04 #@! TO.P,J1,1*
G04 #@! TO.N,/TCK*
X112700000Y-44800000D03*
D12*
G04 #@! TO.P,J1,2*
G04 #@! TO.N,GND*
X112700000Y-43530000D03*
G04 #@! TO.P,J1,3*
G04 #@! TO.N,/TDO*
X113970000Y-44800000D03*
G04 #@! TO.P,J1,4*
G04 #@! TO.N,+1V8*
X113970000Y-43530000D03*
G04 #@! TO.P,J1,5*
G04 #@! TO.N,/TMS*
X115240000Y-44800000D03*
G04 #@! TO.P,J1,6*
G04 #@! TO.N,Net-(J1-Pad6)*
X115240000Y-43530000D03*
G04 #@! TO.P,J1,7*
G04 #@! TO.N,Net-(J1-Pad7)*
X116510000Y-44800000D03*
G04 #@! TO.P,J1,8*
G04 #@! TO.N,Net-(J1-Pad8)*
X116510000Y-43530000D03*
G04 #@! TO.P,J1,9*
G04 #@! TO.N,/TDI*
X117780000Y-44800000D03*
G04 #@! TO.P,J1,10*
G04 #@! TO.N,GND*
X117780000Y-43530000D03*
G04 #@! TD*
D13*
G04 #@! TO.P,TP5,1*
G04 #@! TO.N,+3V3*
X82500000Y-44700000D03*
G04 #@! TD*
G04 #@! TO.P,TP1,1*
G04 #@! TO.N,+5V*
X76600000Y-60100000D03*
G04 #@! TD*
G04 #@! TO.P,TP2,1*
G04 #@! TO.N,Net-(TP2-Pad1)*
X106500000Y-46000000D03*
G04 #@! TD*
G04 #@! TO.P,TP3,1*
G04 #@! TO.N,+1V8*
X82500000Y-49200000D03*
G04 #@! TD*
G04 #@! TO.P,TP4,1*
G04 #@! TO.N,Net-(TP4-Pad1)*
X103300000Y-46000000D03*
G04 #@! TD*
D14*
G04 #@! TO.N,Net-(TP4-Pad1)*
X110400000Y-48500000D03*
X107200000Y-48500000D03*
G04 #@! TO.N,+1V8*
X120100000Y-51600000D03*
X105600000Y-57600000D03*
X99900000Y-52800000D03*
X78400000Y-49200000D03*
X100800000Y-44600000D03*
G04 #@! TO.N,Net-(TP2-Pad1)*
X111300000Y-47600000D03*
G04 #@! TO.N,+5V*
X86900000Y-68100000D03*
X80900000Y-64400000D03*
G04 #@! TO.N,+3V3*
X120100000Y-54300000D03*
X105600000Y-54900000D03*
X102700000Y-51000000D03*
X76300000Y-49200000D03*
G04 #@! TO.N,/~PRG*
X121750000Y-91500000D03*
X78100000Y-91500000D03*
X101400000Y-89800000D03*
X104500000Y-89800000D03*
G04 #@! TO.N,GND*
X123400000Y-90200000D03*
X78550000Y-57500000D03*
X77300000Y-54000000D03*
X75700000Y-52200000D03*
X85400000Y-68100000D03*
X100900000Y-71800000D03*
X120100000Y-55900000D03*
X120100000Y-50000000D03*
X105600000Y-59200000D03*
X110100000Y-57600000D03*
X105600000Y-53300000D03*
X116100000Y-48900000D03*
X76300000Y-44999694D03*
X78400000Y-45000000D03*
X112600000Y-57600000D03*
X112650000Y-49000000D03*
G04 #@! TO.N,/TCK*
X110099998Y-52900000D03*
X108100000Y-50400000D03*
G04 #@! TO.N,/TMS*
X114900000Y-48800000D03*
X114900000Y-52300002D03*
G04 #@! TO.N,/TDI*
X112900000Y-46800000D03*
X109599992Y-51850000D03*
X109100000Y-50400000D03*
G04 #@! TO.N,/RA15*
X94300000Y-70599998D03*
X97700000Y-62400000D03*
G04 #@! TO.N,/RA16*
X96500000Y-61200000D03*
X94300000Y-69200000D03*
G04 #@! TO.N,/~RWR*
X95200000Y-59800000D03*
X94300000Y-67965960D03*
G04 #@! TO.N,/~RES*
X116700000Y-61700000D03*
X118600000Y-72900000D03*
X119400000Y-78000000D03*
X112800000Y-61700000D03*
X94300000Y-54700000D03*
X102300000Y-58100000D03*
X109600000Y-61700000D03*
G04 #@! TO.N,/D0*
X104700000Y-77200000D03*
X111300000Y-73100000D03*
G04 #@! TO.N,/D1*
X103900000Y-74300000D03*
X111300000Y-72000000D03*
G04 #@! TO.N,/D2*
X103900000Y-73000000D03*
X111300006Y-70900000D03*
G04 #@! TO.N,/D3*
X103900000Y-70500000D03*
X111300000Y-69800000D03*
G04 #@! TO.N,/D4*
X103900000Y-69300000D03*
X110800000Y-68800000D03*
G04 #@! TO.N,/D5*
X103900000Y-68000000D03*
X110500000Y-67500000D03*
G04 #@! TO.N,/D6*
X103900000Y-66700000D03*
X109800000Y-66500000D03*
G04 #@! TO.N,/D7*
X108600000Y-65500000D03*
G04 #@! TO.N,/TDO*
X113600000Y-48600000D03*
X113600000Y-52200000D03*
G04 #@! TO.N,/~WR*
X87000000Y-56400000D03*
X87000000Y-58299998D03*
G04 #@! TO.N,/A12*
X85700000Y-88900000D03*
X94300000Y-85700000D03*
X105700000Y-79300000D03*
X115200000Y-73800000D03*
G04 #@! TO.N,/A13*
X99400000Y-63300000D03*
X100600000Y-74500000D03*
X105500000Y-81600000D03*
X115200000Y-74900000D03*
X103000000Y-80900000D03*
X100200000Y-68300000D03*
G04 #@! TO.N,/A14*
X106400000Y-81000000D03*
X115200000Y-76000000D03*
G04 #@! TO.N,/A15*
X97900000Y-73500000D03*
X115200000Y-77100000D03*
X107400000Y-81900000D03*
X102100000Y-80100000D03*
G04 #@! TO.N,Net-(JP2-Pad2)*
X83800000Y-70000000D03*
X81000000Y-66100000D03*
G04 #@! TO.N,/A6*
X93199994Y-82600000D03*
X91500000Y-84400000D03*
G04 #@! TO.N,/A5*
X93072732Y-81200000D03*
X91000000Y-83300000D03*
G04 #@! TO.N,/A4*
X93999994Y-79999994D03*
X90300000Y-82500000D03*
G04 #@! TO.N,/A3*
X95200001Y-79100000D03*
X89300000Y-82100000D03*
G04 #@! TO.N,/A2*
X89400000Y-80900000D03*
X96400000Y-78300002D03*
G04 #@! TO.N,/A1*
X89400000Y-79200000D03*
X97700000Y-78300000D03*
G04 #@! TO.N,/A10*
X93400000Y-87900000D03*
X96600000Y-70200000D03*
X86100000Y-75200000D03*
X86400010Y-87900000D03*
G04 #@! TO.N,/~RD*
X89100000Y-62000000D03*
X92900016Y-62100000D03*
G04 #@! TO.N,/A11*
X93300000Y-73500000D03*
X88300000Y-76100000D03*
X86399996Y-86700000D03*
X93400000Y-86800000D03*
G04 #@! TO.N,/A9*
X96800000Y-90599998D03*
X94400000Y-66500000D03*
X87800000Y-63800000D03*
X82900000Y-90600000D03*
G04 #@! TO.N,/A8*
X95600000Y-90600000D03*
X93100000Y-66500000D03*
X89100000Y-65400000D03*
X84400000Y-90599994D03*
G04 #@! TO.N,Net-(JP1-Pad2)*
X87100000Y-66700000D03*
X84000000Y-63200000D03*
G04 #@! TD*
D15*
G04 #@! TO.N,Net-(TP4-Pad1)*
X110400000Y-48500000D02*
X107200000Y-48500000D01*
D16*
G04 #@! TO.N,+1V8*
X105600000Y-57600000D02*
X104700000Y-57600000D01*
X104700000Y-57600000D02*
X99900000Y-52800000D01*
X78400000Y-49200000D02*
X82500000Y-49200000D01*
X99900000Y-52800000D02*
X99900000Y-50200000D01*
X99900000Y-50200000D02*
X99900000Y-45500000D01*
X99900000Y-45500000D02*
X100800000Y-44600000D01*
D15*
G04 #@! TO.N,Net-(TP2-Pad1)*
X108100000Y-47600000D02*
X106500000Y-46000000D01*
X111300000Y-47600000D02*
X108100000Y-47600000D01*
G04 #@! TO.N,+5V*
X85376802Y-67100000D02*
X82676802Y-64400000D01*
X82676802Y-64400000D02*
X80900000Y-64400000D01*
X86900000Y-68100000D02*
X85900000Y-67100000D01*
X85900000Y-67100000D02*
X85376802Y-67100000D01*
D16*
G04 #@! TO.N,+3V3*
X113400000Y-54300000D02*
X120100000Y-54300000D01*
X105600000Y-54900000D02*
X112800000Y-54900000D01*
X112800000Y-54900000D02*
X113400000Y-54300000D01*
X105600000Y-54900000D02*
X102700000Y-52000000D01*
X102700000Y-52000000D02*
X102700000Y-51000000D01*
X77200000Y-46700000D02*
X76300000Y-47600000D01*
X78800000Y-46700000D02*
X77200000Y-46700000D01*
X82500000Y-44700000D02*
X80800000Y-44700000D01*
X76300000Y-47600000D02*
X76300000Y-49200000D01*
X80800000Y-44700000D02*
X78800000Y-46700000D01*
D15*
G04 #@! TO.N,/~PRG*
X78100000Y-91500000D02*
X99700000Y-91500000D01*
X101100001Y-90099999D02*
X101400000Y-89800000D01*
X99700000Y-91500000D02*
X101100001Y-90099999D01*
X104924264Y-89800000D02*
X104500000Y-89800000D01*
X121750000Y-91500000D02*
X106624264Y-91500000D01*
X106624264Y-91500000D02*
X104924264Y-89800000D01*
G04 #@! TO.N,/TCK*
X108100000Y-50824264D02*
X108100000Y-50400000D01*
X108100000Y-51324266D02*
X108100000Y-50824264D01*
X109675734Y-52900000D02*
X108100000Y-51324266D01*
X110099998Y-52900000D02*
X109675734Y-52900000D01*
G04 #@! TO.N,/TMS*
X114900000Y-48800000D02*
X114900000Y-52300002D01*
G04 #@! TO.N,/TDI*
X117780000Y-44800000D02*
X115780000Y-46800000D01*
X115780000Y-46800000D02*
X112900000Y-46800000D01*
X109599992Y-51850000D02*
X109599992Y-50899992D01*
X109399999Y-50699999D02*
X109100000Y-50400000D01*
X109599992Y-50899992D02*
X109399999Y-50699999D01*
G04 #@! TO.N,/RA15*
X97700000Y-62824264D02*
X97700000Y-62400000D01*
X97700000Y-67199998D02*
X97700000Y-62824264D01*
X94300000Y-70599998D02*
X97700000Y-67199998D01*
G04 #@! TO.N,/RA16*
X96500000Y-67000000D02*
X94300000Y-69200000D01*
X96500000Y-61200000D02*
X96500000Y-67000000D01*
G04 #@! TO.N,/~RWR*
X95200000Y-59800000D02*
X95200000Y-67065960D01*
X95200000Y-67065960D02*
X94300000Y-67965960D01*
G04 #@! TO.N,/~RES*
X118600000Y-72900000D02*
X118600000Y-77200000D01*
X118600000Y-77200000D02*
X119400000Y-78000000D01*
X112800000Y-61700000D02*
X116700000Y-61700000D01*
X109600000Y-61700000D02*
X112800000Y-61700000D01*
X98900000Y-54700000D02*
X102300000Y-58100000D01*
X94300000Y-54700000D02*
X98900000Y-54700000D01*
G04 #@! TO.N,/D0*
X111200000Y-73100000D02*
X111300000Y-73100000D01*
X104700000Y-77200000D02*
X108800000Y-73100000D01*
X108800000Y-73100000D02*
X111200000Y-73100000D01*
G04 #@! TO.N,/D1*
X110875736Y-72000000D02*
X111300000Y-72000000D01*
X108700000Y-72000000D02*
X110875736Y-72000000D01*
X103900000Y-74300000D02*
X106400000Y-74300000D01*
X106400000Y-74300000D02*
X108700000Y-72000000D01*
G04 #@! TO.N,/D2*
X110875742Y-70900000D02*
X111300006Y-70900000D01*
X108600000Y-70900000D02*
X110875742Y-70900000D01*
X103900000Y-73000000D02*
X106500000Y-73000000D01*
X106500000Y-73000000D02*
X108600000Y-70900000D01*
G04 #@! TO.N,/D3*
X106900000Y-69800000D02*
X111300000Y-69800000D01*
X103900000Y-70500000D02*
X106200000Y-70500000D01*
X106200000Y-70500000D02*
X106900000Y-69800000D01*
G04 #@! TO.N,/D4*
X103900000Y-69300000D02*
X104400000Y-68800000D01*
X104400000Y-68800000D02*
X110800000Y-68800000D01*
G04 #@! TO.N,/D5*
X103900000Y-68000000D02*
X110000000Y-68000000D01*
X110000000Y-68000000D02*
X110500000Y-67500000D01*
G04 #@! TO.N,/D6*
X109600000Y-66700000D02*
X109800000Y-66500000D01*
X103900000Y-66700000D02*
X109600000Y-66700000D01*
G04 #@! TO.N,/TDO*
X113600000Y-48600000D02*
X113600000Y-52200000D01*
G04 #@! TO.N,/~WR*
X87000000Y-56400000D02*
X87000000Y-58299998D01*
G04 #@! TO.N,/A12*
X93376802Y-88900000D02*
X94300000Y-87976802D01*
X85700000Y-88900000D02*
X93376802Y-88900000D01*
X94300000Y-86124264D02*
X94300000Y-85700000D01*
X94300000Y-87976802D02*
X94300000Y-86124264D01*
X115100000Y-73900000D02*
X115100000Y-73800000D01*
X105700000Y-79300000D02*
X109700000Y-79300000D01*
X115100000Y-73800000D02*
X115200000Y-73800000D01*
X109700000Y-79300000D02*
X115100000Y-73900000D01*
G04 #@! TO.N,/A13*
X109900000Y-80200000D02*
X115200000Y-74900000D01*
X106200000Y-80200000D02*
X109900000Y-80200000D01*
X105500000Y-81600000D02*
X105500000Y-80900000D01*
X105500000Y-80900000D02*
X106200000Y-80200000D01*
X103000000Y-76900000D02*
X103000000Y-80900000D01*
X100600000Y-74500000D02*
X103000000Y-76900000D01*
X100200000Y-64100000D02*
X100200000Y-67875736D01*
X99400000Y-63300000D02*
X100200000Y-64100000D01*
X100200000Y-67875736D02*
X100200000Y-68300000D01*
G04 #@! TO.N,/A14*
X115100000Y-76000000D02*
X115200000Y-76000000D01*
X106400000Y-81000000D02*
X110100000Y-81000000D01*
X110100000Y-81000000D02*
X115100000Y-76000000D01*
G04 #@! TO.N,/A15*
X110400000Y-81900000D02*
X107400000Y-81900000D01*
X115200000Y-77100000D02*
X110400000Y-81900000D01*
X102000000Y-80000000D02*
X102100000Y-80100000D01*
X97900000Y-75900000D02*
X102000000Y-80000000D01*
X97900000Y-73500000D02*
X97900000Y-75900000D01*
G04 #@! TO.N,Net-(JP2-Pad2)*
X83800000Y-68900000D02*
X81000000Y-66100000D01*
X83800000Y-70000000D02*
X83800000Y-68900000D01*
G04 #@! TO.N,/A6*
X91500000Y-84299994D02*
X91500000Y-84400000D01*
X93199994Y-82600000D02*
X91500000Y-84299994D01*
G04 #@! TO.N,/A5*
X93072732Y-81200000D02*
X91000000Y-83272732D01*
X91000000Y-83272732D02*
X91000000Y-83300000D01*
G04 #@! TO.N,/A4*
X93999994Y-79999994D02*
X92800006Y-79999994D01*
X92800006Y-79999994D02*
X90300000Y-82500000D01*
G04 #@! TO.N,/A3*
X95200001Y-79100000D02*
X92300000Y-79100000D01*
X92300000Y-79100000D02*
X89300000Y-82100000D01*
G04 #@! TO.N,/A2*
X89400000Y-80900000D02*
X91999998Y-78300002D01*
X91999998Y-78300002D02*
X96400000Y-78300002D01*
G04 #@! TO.N,/A1*
X89400000Y-79200000D02*
X91200000Y-77400000D01*
X96800000Y-77400000D02*
X97400001Y-78000001D01*
X97400001Y-78000001D02*
X97700000Y-78300000D01*
X91200000Y-77400000D02*
X96800000Y-77400000D01*
G04 #@! TO.N,/A10*
X86524264Y-75200000D02*
X86100000Y-75200000D01*
X90324264Y-71400000D02*
X86524264Y-75200000D01*
X96600000Y-70200000D02*
X95400000Y-71400000D01*
X95400000Y-71400000D02*
X90324264Y-71400000D01*
X93400000Y-87900000D02*
X86400010Y-87900000D01*
G04 #@! TO.N,/~RD*
X92800016Y-62000000D02*
X92900016Y-62100000D01*
X89100000Y-62000000D02*
X92800016Y-62000000D01*
G04 #@! TO.N,/A11*
X93300000Y-73500000D02*
X90900000Y-73500000D01*
X90900000Y-73500000D02*
X88300000Y-76100000D01*
X86399996Y-86700000D02*
X93300000Y-86700000D01*
X93300000Y-86700000D02*
X93400000Y-86800000D01*
G04 #@! TO.N,/A9*
X94400000Y-66500000D02*
X91700000Y-63800000D01*
X91700000Y-63800000D02*
X87800000Y-63800000D01*
X95900003Y-89700001D02*
X83799999Y-89700001D01*
X83199999Y-90300001D02*
X82900000Y-90600000D01*
X96800000Y-90599998D02*
X95900003Y-89700001D01*
X83799999Y-89700001D02*
X83199999Y-90300001D01*
G04 #@! TO.N,/A8*
X93100000Y-66500000D02*
X90200000Y-66500000D01*
X90200000Y-66500000D02*
X89100000Y-65400000D01*
X84400006Y-90600000D02*
X84400000Y-90599994D01*
X95600000Y-90600000D02*
X84400006Y-90600000D01*
G04 #@! TO.N,Net-(JP1-Pad2)*
X87100000Y-66700000D02*
X84000000Y-63600000D01*
X84000000Y-63600000D02*
X84000000Y-63200000D01*
G04 #@! TD*
D17*
G04 #@! TO.N,GND*
G36*
X121098001Y-41540708D02*
X121086207Y-41600000D01*
X121132929Y-41834888D01*
X121265983Y-42034017D01*
X121465112Y-42167071D01*
X121640712Y-42202000D01*
X121640713Y-42202000D01*
X121700000Y-42213793D01*
X121759288Y-42202000D01*
X125098001Y-42202000D01*
X125098000Y-90798000D01*
X124659288Y-90798000D01*
X124600000Y-90786207D01*
X124540713Y-90798000D01*
X124540712Y-90798000D01*
X124365112Y-90832929D01*
X124165983Y-90965983D01*
X124032929Y-91165112D01*
X123986207Y-91400000D01*
X123998001Y-91459293D01*
X123998001Y-92373000D01*
X76002000Y-92373000D01*
X76002000Y-91459287D01*
X76013793Y-91400000D01*
X76000963Y-91335499D01*
X77273000Y-91335499D01*
X77273000Y-91664501D01*
X77398903Y-91968458D01*
X77631542Y-92201097D01*
X77935499Y-92327000D01*
X78264501Y-92327000D01*
X78568458Y-92201097D01*
X78582555Y-92187000D01*
X99632342Y-92187000D01*
X99700000Y-92200458D01*
X99767658Y-92187000D01*
X99767663Y-92187000D01*
X99968054Y-92147140D01*
X100195299Y-91995299D01*
X100233628Y-91937936D01*
X101544565Y-90627000D01*
X101564501Y-90627000D01*
X101868458Y-90501097D01*
X102101097Y-90268458D01*
X102227000Y-89964501D01*
X102227000Y-89635499D01*
X103673000Y-89635499D01*
X103673000Y-89964501D01*
X103798903Y-90268458D01*
X104031542Y-90501097D01*
X104335499Y-90627000D01*
X104664501Y-90627000D01*
X104745959Y-90593259D01*
X106090638Y-91937939D01*
X106128965Y-91995299D01*
X106186325Y-92033626D01*
X106186326Y-92033627D01*
X106280929Y-92096839D01*
X106356210Y-92147140D01*
X106556601Y-92187000D01*
X106556605Y-92187000D01*
X106624263Y-92200458D01*
X106691922Y-92187000D01*
X121267445Y-92187000D01*
X121281542Y-92201097D01*
X121585499Y-92327000D01*
X121914501Y-92327000D01*
X122218458Y-92201097D01*
X122451097Y-91968458D01*
X122577000Y-91664501D01*
X122577000Y-91335499D01*
X122451097Y-91031542D01*
X122218458Y-90798903D01*
X121914501Y-90673000D01*
X121585499Y-90673000D01*
X121281542Y-90798903D01*
X121267445Y-90813000D01*
X106908829Y-90813000D01*
X105457892Y-89362064D01*
X105419563Y-89304701D01*
X105192318Y-89152860D01*
X104991927Y-89113000D01*
X104991922Y-89113000D01*
X104980229Y-89110674D01*
X104968458Y-89098903D01*
X104664501Y-88973000D01*
X104335499Y-88973000D01*
X104031542Y-89098903D01*
X103798903Y-89331542D01*
X103673000Y-89635499D01*
X102227000Y-89635499D01*
X102101097Y-89331542D01*
X101868458Y-89098903D01*
X101564501Y-88973000D01*
X101235499Y-88973000D01*
X100931542Y-89098903D01*
X100698903Y-89331542D01*
X100573000Y-89635499D01*
X100573000Y-89655435D01*
X99415436Y-90813000D01*
X97606910Y-90813000D01*
X97627000Y-90764499D01*
X97627000Y-90435497D01*
X97501097Y-90131540D01*
X97268458Y-89898901D01*
X96964501Y-89772998D01*
X96944565Y-89772998D01*
X96433631Y-89262064D01*
X96395302Y-89204702D01*
X96168057Y-89052861D01*
X95967666Y-89013001D01*
X95967661Y-89013001D01*
X95900003Y-88999543D01*
X95832345Y-89013001D01*
X94235365Y-89013001D01*
X94737941Y-88510426D01*
X94795298Y-88472101D01*
X94833623Y-88414744D01*
X94833627Y-88414740D01*
X94947139Y-88244857D01*
X94947140Y-88244856D01*
X94987000Y-88044465D01*
X94987000Y-88044461D01*
X95000458Y-87976803D01*
X94987000Y-87909144D01*
X94987000Y-86182555D01*
X95001097Y-86168458D01*
X95127000Y-85864501D01*
X95127000Y-85535499D01*
X95001097Y-85231542D01*
X94768458Y-84998903D01*
X94464501Y-84873000D01*
X94135499Y-84873000D01*
X93831542Y-84998903D01*
X93598903Y-85231542D01*
X93473000Y-85535499D01*
X93473000Y-85864501D01*
X93517942Y-85973000D01*
X93235499Y-85973000D01*
X93138930Y-86013000D01*
X86882551Y-86013000D01*
X86868454Y-85998903D01*
X86564497Y-85873000D01*
X86235495Y-85873000D01*
X85931538Y-85998903D01*
X85698899Y-86231542D01*
X85572996Y-86535499D01*
X85572996Y-86864501D01*
X85698899Y-87168458D01*
X85830448Y-87300007D01*
X85698913Y-87431542D01*
X85573010Y-87735499D01*
X85573010Y-88064501D01*
X85576530Y-88073000D01*
X85535499Y-88073000D01*
X85231542Y-88198903D01*
X84998903Y-88431542D01*
X84873000Y-88735499D01*
X84873000Y-89013001D01*
X83867657Y-89013001D01*
X83799998Y-88999543D01*
X83732340Y-89013001D01*
X83732336Y-89013001D01*
X83531945Y-89052861D01*
X83531943Y-89052862D01*
X83531944Y-89052862D01*
X83362061Y-89166374D01*
X83362060Y-89166375D01*
X83304700Y-89204702D01*
X83266373Y-89262062D01*
X82762062Y-89766374D01*
X82755436Y-89773000D01*
X82735499Y-89773000D01*
X82431542Y-89898903D01*
X82198903Y-90131542D01*
X82073000Y-90435499D01*
X82073000Y-90764501D01*
X82093089Y-90813000D01*
X78582555Y-90813000D01*
X78568458Y-90798903D01*
X78264501Y-90673000D01*
X77935499Y-90673000D01*
X77631542Y-90798903D01*
X77398903Y-91031542D01*
X77273000Y-91335499D01*
X76000963Y-91335499D01*
X75967071Y-91165112D01*
X75834017Y-90965983D01*
X75634888Y-90832929D01*
X75459288Y-90798000D01*
X75400000Y-90786207D01*
X75340713Y-90798000D01*
X74902000Y-90798000D01*
X74902000Y-81935499D01*
X88473000Y-81935499D01*
X88473000Y-82264501D01*
X88598903Y-82568458D01*
X88831542Y-82801097D01*
X89135499Y-82927000D01*
X89464501Y-82927000D01*
X89564563Y-82885553D01*
X89598903Y-82968458D01*
X89831542Y-83201097D01*
X90135499Y-83327000D01*
X90173000Y-83327000D01*
X90173000Y-83464501D01*
X90298903Y-83768458D01*
X90531542Y-84001097D01*
X90735158Y-84085437D01*
X90673000Y-84235499D01*
X90673000Y-84564501D01*
X90798903Y-84868458D01*
X91031542Y-85101097D01*
X91335499Y-85227000D01*
X91664501Y-85227000D01*
X91968458Y-85101097D01*
X92201097Y-84868458D01*
X92327000Y-84564501D01*
X92327000Y-84444558D01*
X92942469Y-83829089D01*
X95873000Y-83829089D01*
X95873000Y-85470911D01*
X96501298Y-86987758D01*
X97662242Y-88148702D01*
X99179089Y-88777000D01*
X100820911Y-88777000D01*
X102337758Y-88148702D01*
X103498702Y-86987758D01*
X104127000Y-85470911D01*
X104127000Y-83829089D01*
X103498702Y-82312242D01*
X102913460Y-81727000D01*
X103164501Y-81727000D01*
X103468458Y-81601097D01*
X103634056Y-81435499D01*
X104673000Y-81435499D01*
X104673000Y-81764501D01*
X104798903Y-82068458D01*
X105031542Y-82301097D01*
X105335499Y-82427000D01*
X105664501Y-82427000D01*
X105968458Y-82301097D01*
X106201097Y-82068458D01*
X106301112Y-81827000D01*
X106564501Y-81827000D01*
X106573000Y-81823480D01*
X106573000Y-82064501D01*
X106698903Y-82368458D01*
X106931542Y-82601097D01*
X107235499Y-82727000D01*
X107564501Y-82727000D01*
X107868458Y-82601097D01*
X107882555Y-82587000D01*
X110332342Y-82587000D01*
X110400000Y-82600458D01*
X110467658Y-82587000D01*
X110467663Y-82587000D01*
X110668054Y-82547140D01*
X110895299Y-82395299D01*
X110933628Y-82337936D01*
X115344565Y-77927000D01*
X115364501Y-77927000D01*
X115668458Y-77801097D01*
X115901097Y-77568458D01*
X116027000Y-77264501D01*
X116027000Y-76935499D01*
X115901097Y-76631542D01*
X115819555Y-76550000D01*
X115901097Y-76468458D01*
X116027000Y-76164501D01*
X116027000Y-75835499D01*
X115901097Y-75531542D01*
X115819555Y-75450000D01*
X115901097Y-75368458D01*
X116027000Y-75064501D01*
X116027000Y-74735499D01*
X115901097Y-74431542D01*
X115819555Y-74350000D01*
X115901097Y-74268458D01*
X116027000Y-73964501D01*
X116027000Y-73635499D01*
X115901097Y-73331542D01*
X115668458Y-73098903D01*
X115364501Y-72973000D01*
X115035499Y-72973000D01*
X114731542Y-73098903D01*
X114498903Y-73331542D01*
X114373000Y-73635499D01*
X114373000Y-73655435D01*
X109415436Y-78613000D01*
X106182555Y-78613000D01*
X106168458Y-78598903D01*
X105864501Y-78473000D01*
X105535499Y-78473000D01*
X105231542Y-78598903D01*
X104998903Y-78831542D01*
X104873000Y-79135499D01*
X104873000Y-79464501D01*
X104998903Y-79768458D01*
X105231542Y-80001097D01*
X105369991Y-80058445D01*
X105062062Y-80366374D01*
X105004702Y-80404701D01*
X104966375Y-80462061D01*
X104966373Y-80462063D01*
X104877348Y-80595299D01*
X104852861Y-80631946D01*
X104813000Y-80832337D01*
X104813000Y-80832342D01*
X104799542Y-80900000D01*
X104813000Y-80967658D01*
X104813000Y-81117445D01*
X104798903Y-81131542D01*
X104673000Y-81435499D01*
X103634056Y-81435499D01*
X103701097Y-81368458D01*
X103827000Y-81064501D01*
X103827000Y-80735499D01*
X103701097Y-80431542D01*
X103687000Y-80417445D01*
X103687000Y-76967660D01*
X103700458Y-76900000D01*
X103687000Y-76832338D01*
X103687000Y-76832337D01*
X103647140Y-76631946D01*
X103622653Y-76595299D01*
X103533627Y-76462062D01*
X103533623Y-76462058D01*
X103495298Y-76404701D01*
X103437941Y-76366376D01*
X101427000Y-74355436D01*
X101427000Y-74335499D01*
X101301097Y-74031542D01*
X101068458Y-73798903D01*
X100764501Y-73673000D01*
X100435499Y-73673000D01*
X100131542Y-73798903D01*
X99898903Y-74031542D01*
X99773000Y-74335499D01*
X99773000Y-74664501D01*
X99898903Y-74968458D01*
X100131542Y-75201097D01*
X100435499Y-75327000D01*
X100455436Y-75327000D01*
X102313000Y-77184565D01*
X102313001Y-79293089D01*
X102264501Y-79273000D01*
X102244565Y-79273000D01*
X98587000Y-75615436D01*
X98587000Y-73982555D01*
X98601097Y-73968458D01*
X98727000Y-73664501D01*
X98727000Y-73335499D01*
X98601097Y-73031542D01*
X98368458Y-72798903D01*
X98064501Y-72673000D01*
X97735499Y-72673000D01*
X97431542Y-72798903D01*
X97198903Y-73031542D01*
X97073000Y-73335499D01*
X97073000Y-73664501D01*
X97198903Y-73968458D01*
X97213000Y-73982555D01*
X97213001Y-75832337D01*
X97199542Y-75900000D01*
X97252861Y-76168054D01*
X97366373Y-76337937D01*
X97366375Y-76337939D01*
X97404702Y-76395299D01*
X97462062Y-76433626D01*
X101273000Y-80244565D01*
X101273000Y-80264501D01*
X101398903Y-80568458D01*
X101631542Y-80801097D01*
X101935499Y-80927000D01*
X102173000Y-80927000D01*
X102173000Y-81064501D01*
X102182276Y-81086895D01*
X100820911Y-80523000D01*
X99179089Y-80523000D01*
X97662242Y-81151298D01*
X96501298Y-82312242D01*
X95873000Y-83829089D01*
X92942469Y-83829089D01*
X93344559Y-83427000D01*
X93364495Y-83427000D01*
X93668452Y-83301097D01*
X93901091Y-83068458D01*
X94026994Y-82764501D01*
X94026994Y-82435499D01*
X93901091Y-82131542D01*
X93668452Y-81898903D01*
X93580016Y-81862271D01*
X93773829Y-81668458D01*
X93899732Y-81364501D01*
X93899732Y-81035499D01*
X93808784Y-80815931D01*
X93835493Y-80826994D01*
X94164495Y-80826994D01*
X94468452Y-80701091D01*
X94701091Y-80468452D01*
X94826994Y-80164495D01*
X94826994Y-79840634D01*
X95035500Y-79927000D01*
X95364502Y-79927000D01*
X95668459Y-79801097D01*
X95901098Y-79568458D01*
X96027001Y-79264501D01*
X96027001Y-79040639D01*
X96235499Y-79127002D01*
X96564501Y-79127002D01*
X96868458Y-79001099D01*
X97050001Y-78819556D01*
X97231542Y-79001097D01*
X97535499Y-79127000D01*
X97864501Y-79127000D01*
X98168458Y-79001097D01*
X98401097Y-78768458D01*
X98527000Y-78464501D01*
X98527000Y-78135499D01*
X98401097Y-77831542D01*
X98168458Y-77598903D01*
X97864501Y-77473000D01*
X97844565Y-77473000D01*
X97333627Y-76962063D01*
X97295299Y-76904701D01*
X97068054Y-76752860D01*
X96867663Y-76713000D01*
X96867658Y-76713000D01*
X96800000Y-76699542D01*
X96732342Y-76713000D01*
X91267657Y-76713000D01*
X91199999Y-76699542D01*
X91132341Y-76713000D01*
X91132337Y-76713000D01*
X90931946Y-76752860D01*
X90931944Y-76752861D01*
X90931945Y-76752861D01*
X90762062Y-76866373D01*
X90762061Y-76866374D01*
X90704701Y-76904701D01*
X90666374Y-76962061D01*
X89255436Y-78373000D01*
X89235499Y-78373000D01*
X88931542Y-78498903D01*
X88698903Y-78731542D01*
X88573000Y-79035499D01*
X88573000Y-79364501D01*
X88698903Y-79668458D01*
X88931542Y-79901097D01*
X89235499Y-80027000D01*
X89301436Y-80027000D01*
X89255436Y-80073000D01*
X89235499Y-80073000D01*
X88931542Y-80198903D01*
X88698903Y-80431542D01*
X88573000Y-80735499D01*
X88573000Y-81064501D01*
X88698903Y-81368458D01*
X88780445Y-81450000D01*
X88598903Y-81631542D01*
X88473000Y-81935499D01*
X74902000Y-81935499D01*
X74902000Y-75035499D01*
X85273000Y-75035499D01*
X85273000Y-75364501D01*
X85398903Y-75668458D01*
X85631542Y-75901097D01*
X85935499Y-76027000D01*
X86264501Y-76027000D01*
X86485404Y-75935499D01*
X87473000Y-75935499D01*
X87473000Y-76264501D01*
X87598903Y-76568458D01*
X87831542Y-76801097D01*
X88135499Y-76927000D01*
X88464501Y-76927000D01*
X88768458Y-76801097D01*
X89001097Y-76568458D01*
X89127000Y-76264501D01*
X89127000Y-76244564D01*
X91184565Y-74187000D01*
X92817445Y-74187000D01*
X92831542Y-74201097D01*
X93135499Y-74327000D01*
X93464501Y-74327000D01*
X93768458Y-74201097D01*
X94001097Y-73968458D01*
X94127000Y-73664501D01*
X94127000Y-73335499D01*
X94001097Y-73031542D01*
X93768458Y-72798903D01*
X93464501Y-72673000D01*
X93135499Y-72673000D01*
X92831542Y-72798903D01*
X92817445Y-72813000D01*
X90967658Y-72813000D01*
X90899999Y-72799542D01*
X90832341Y-72813000D01*
X90832337Y-72813000D01*
X90631946Y-72852860D01*
X90631944Y-72852861D01*
X90631945Y-72852861D01*
X90462062Y-72966373D01*
X90462061Y-72966374D01*
X90404701Y-73004701D01*
X90366374Y-73062061D01*
X88155436Y-75273000D01*
X88135499Y-75273000D01*
X87831542Y-75398903D01*
X87598903Y-75631542D01*
X87473000Y-75935499D01*
X86485404Y-75935499D01*
X86568458Y-75901097D01*
X86580229Y-75889326D01*
X86591922Y-75887000D01*
X86591927Y-75887000D01*
X86792318Y-75847140D01*
X87019563Y-75695299D01*
X87057892Y-75637936D01*
X90608829Y-72087000D01*
X95332342Y-72087000D01*
X95400000Y-72100458D01*
X95467658Y-72087000D01*
X95467663Y-72087000D01*
X95668054Y-72047140D01*
X95895299Y-71895299D01*
X95933628Y-71837936D01*
X96744565Y-71027000D01*
X96764501Y-71027000D01*
X97068458Y-70901097D01*
X97301097Y-70668458D01*
X97427000Y-70364501D01*
X97427000Y-70035499D01*
X97301097Y-69731542D01*
X97068458Y-69498903D01*
X96764501Y-69373000D01*
X96498563Y-69373000D01*
X98137941Y-67733622D01*
X98195298Y-67695297D01*
X98233623Y-67637940D01*
X98233627Y-67637936D01*
X98347139Y-67468053D01*
X98347140Y-67468052D01*
X98387000Y-67267661D01*
X98387000Y-67267657D01*
X98400458Y-67199999D01*
X98387000Y-67132340D01*
X98387000Y-63135499D01*
X98573000Y-63135499D01*
X98573000Y-63464501D01*
X98698903Y-63768458D01*
X98931542Y-64001097D01*
X99235499Y-64127000D01*
X99255436Y-64127000D01*
X99513000Y-64384565D01*
X99513001Y-67808069D01*
X99513000Y-67808074D01*
X99513000Y-67817445D01*
X99498903Y-67831542D01*
X99373000Y-68135499D01*
X99373000Y-68464501D01*
X99498903Y-68768458D01*
X99731542Y-69001097D01*
X100035499Y-69127000D01*
X100364501Y-69127000D01*
X100668458Y-69001097D01*
X100901097Y-68768458D01*
X101027000Y-68464501D01*
X101027000Y-68135499D01*
X100901097Y-67831542D01*
X100887000Y-67817445D01*
X100887000Y-66535499D01*
X103073000Y-66535499D01*
X103073000Y-66864501D01*
X103198903Y-67168458D01*
X103380445Y-67350000D01*
X103198903Y-67531542D01*
X103073000Y-67835499D01*
X103073000Y-68164501D01*
X103198903Y-68468458D01*
X103380445Y-68650000D01*
X103198903Y-68831542D01*
X103073000Y-69135499D01*
X103073000Y-69464501D01*
X103198903Y-69768458D01*
X103330445Y-69900000D01*
X103198903Y-70031542D01*
X103073000Y-70335499D01*
X103073000Y-70664501D01*
X103198903Y-70968458D01*
X103431542Y-71201097D01*
X103735499Y-71327000D01*
X104064501Y-71327000D01*
X104368458Y-71201097D01*
X104382555Y-71187000D01*
X106132342Y-71187000D01*
X106200000Y-71200458D01*
X106267658Y-71187000D01*
X106267663Y-71187000D01*
X106468054Y-71147140D01*
X106695299Y-70995299D01*
X106733628Y-70937936D01*
X107184564Y-70487000D01*
X108041436Y-70487000D01*
X106215436Y-72313000D01*
X104382555Y-72313000D01*
X104368458Y-72298903D01*
X104064501Y-72173000D01*
X103735499Y-72173000D01*
X103431542Y-72298903D01*
X103198903Y-72531542D01*
X103073000Y-72835499D01*
X103073000Y-73164501D01*
X103198903Y-73468458D01*
X103380445Y-73650000D01*
X103198903Y-73831542D01*
X103073000Y-74135499D01*
X103073000Y-74464501D01*
X103198903Y-74768458D01*
X103431542Y-75001097D01*
X103735499Y-75127000D01*
X104064501Y-75127000D01*
X104368458Y-75001097D01*
X104382555Y-74987000D01*
X105941436Y-74987000D01*
X104555436Y-76373000D01*
X104535499Y-76373000D01*
X104231542Y-76498903D01*
X103998903Y-76731542D01*
X103873000Y-77035499D01*
X103873000Y-77364501D01*
X103998903Y-77668458D01*
X104231542Y-77901097D01*
X104535499Y-78027000D01*
X104864501Y-78027000D01*
X105168458Y-77901097D01*
X105401097Y-77668458D01*
X105527000Y-77364501D01*
X105527000Y-77344564D01*
X109084565Y-73787000D01*
X110817445Y-73787000D01*
X110831542Y-73801097D01*
X111135499Y-73927000D01*
X111464501Y-73927000D01*
X111768458Y-73801097D01*
X112001097Y-73568458D01*
X112127000Y-73264501D01*
X112127000Y-72935499D01*
X112044158Y-72735499D01*
X117773000Y-72735499D01*
X117773000Y-73064501D01*
X117898903Y-73368458D01*
X117913000Y-73382555D01*
X117913001Y-77132337D01*
X117899542Y-77200000D01*
X117952861Y-77468054D01*
X118066373Y-77637937D01*
X118066375Y-77637939D01*
X118104702Y-77695299D01*
X118162061Y-77733626D01*
X118573000Y-78144565D01*
X118573000Y-78164501D01*
X118698903Y-78468458D01*
X118931542Y-78701097D01*
X119235499Y-78827000D01*
X119564501Y-78827000D01*
X119868458Y-78701097D01*
X120101097Y-78468458D01*
X120227000Y-78164501D01*
X120227000Y-77835499D01*
X120101097Y-77531542D01*
X119868458Y-77298903D01*
X119564501Y-77173000D01*
X119544565Y-77173000D01*
X119287000Y-76915436D01*
X119287000Y-73382555D01*
X119301097Y-73368458D01*
X119427000Y-73064501D01*
X119427000Y-72735499D01*
X119301097Y-72431542D01*
X119068458Y-72198903D01*
X118764501Y-72073000D01*
X118435499Y-72073000D01*
X118131542Y-72198903D01*
X117898903Y-72431542D01*
X117773000Y-72735499D01*
X112044158Y-72735499D01*
X112001097Y-72631542D01*
X111919555Y-72550000D01*
X112001097Y-72468458D01*
X112127000Y-72164501D01*
X112127000Y-71835499D01*
X112001097Y-71531542D01*
X111919558Y-71450003D01*
X112001103Y-71368458D01*
X112127006Y-71064501D01*
X112127006Y-70735499D01*
X112001103Y-70431542D01*
X111919558Y-70349997D01*
X112001097Y-70268458D01*
X112127000Y-69964501D01*
X112127000Y-69635499D01*
X112001097Y-69331542D01*
X111768458Y-69098903D01*
X111600198Y-69029207D01*
X111627000Y-68964501D01*
X111627000Y-68635499D01*
X111501097Y-68331542D01*
X111268458Y-68098903D01*
X111128588Y-68040967D01*
X111201097Y-67968458D01*
X111327000Y-67664501D01*
X111327000Y-67335499D01*
X111201097Y-67031542D01*
X110968458Y-66798903D01*
X110664501Y-66673000D01*
X110623480Y-66673000D01*
X110627000Y-66664501D01*
X110627000Y-66335499D01*
X110501097Y-66031542D01*
X110268458Y-65798903D01*
X109964501Y-65673000D01*
X109635499Y-65673000D01*
X109379569Y-65779010D01*
X109427000Y-65664501D01*
X109427000Y-65335499D01*
X109301097Y-65031542D01*
X109068458Y-64798903D01*
X108764501Y-64673000D01*
X108435499Y-64673000D01*
X108131542Y-64798903D01*
X107898903Y-65031542D01*
X107773000Y-65335499D01*
X107773000Y-65664501D01*
X107898903Y-65968458D01*
X107943445Y-66013000D01*
X104382555Y-66013000D01*
X104368458Y-65998903D01*
X104064501Y-65873000D01*
X103735499Y-65873000D01*
X103431542Y-65998903D01*
X103198903Y-66231542D01*
X103073000Y-66535499D01*
X100887000Y-66535499D01*
X100887000Y-64167658D01*
X100900458Y-64100000D01*
X100887000Y-64032341D01*
X100887000Y-64032337D01*
X100847140Y-63831946D01*
X100804718Y-63768458D01*
X100733627Y-63662062D01*
X100733623Y-63662058D01*
X100695298Y-63604701D01*
X100637941Y-63566376D01*
X100227000Y-63155436D01*
X100227000Y-63135499D01*
X100101097Y-62831542D01*
X99868458Y-62598903D01*
X99564501Y-62473000D01*
X99235499Y-62473000D01*
X98931542Y-62598903D01*
X98698903Y-62831542D01*
X98573000Y-63135499D01*
X98387000Y-63135499D01*
X98387000Y-62882555D01*
X98401097Y-62868458D01*
X98527000Y-62564501D01*
X98527000Y-62235499D01*
X98401097Y-61931542D01*
X98168458Y-61698903D01*
X97864501Y-61573000D01*
X97535499Y-61573000D01*
X97231542Y-61698903D01*
X97187000Y-61743445D01*
X97187000Y-61682555D01*
X97201097Y-61668458D01*
X97256170Y-61535499D01*
X108773000Y-61535499D01*
X108773000Y-61864501D01*
X108898903Y-62168458D01*
X109131542Y-62401097D01*
X109435499Y-62527000D01*
X109764501Y-62527000D01*
X110068458Y-62401097D01*
X110082555Y-62387000D01*
X112317445Y-62387000D01*
X112331542Y-62401097D01*
X112635499Y-62527000D01*
X112964501Y-62527000D01*
X113268458Y-62401097D01*
X113282555Y-62387000D01*
X116217445Y-62387000D01*
X116231542Y-62401097D01*
X116535499Y-62527000D01*
X116864501Y-62527000D01*
X117168458Y-62401097D01*
X117401097Y-62168458D01*
X117527000Y-61864501D01*
X117527000Y-61535499D01*
X117401097Y-61231542D01*
X117168458Y-60998903D01*
X116864501Y-60873000D01*
X116535499Y-60873000D01*
X116231542Y-60998903D01*
X116217445Y-61013000D01*
X113282555Y-61013000D01*
X113268458Y-60998903D01*
X112964501Y-60873000D01*
X112635499Y-60873000D01*
X112331542Y-60998903D01*
X112317445Y-61013000D01*
X110082555Y-61013000D01*
X110068458Y-60998903D01*
X109764501Y-60873000D01*
X109435499Y-60873000D01*
X109131542Y-60998903D01*
X108898903Y-61231542D01*
X108773000Y-61535499D01*
X97256170Y-61535499D01*
X97327000Y-61364501D01*
X97327000Y-61035499D01*
X97201097Y-60731542D01*
X96968458Y-60498903D01*
X96664501Y-60373000D01*
X96335499Y-60373000D01*
X96031542Y-60498903D01*
X95887000Y-60643445D01*
X95887000Y-60282555D01*
X95901097Y-60268458D01*
X96027000Y-59964501D01*
X96027000Y-59635499D01*
X95901097Y-59331542D01*
X95885979Y-59316424D01*
X98323000Y-59316424D01*
X98323000Y-59983576D01*
X98578308Y-60599944D01*
X99050056Y-61071692D01*
X99666424Y-61327000D01*
X100333576Y-61327000D01*
X100949944Y-61071692D01*
X101421692Y-60599944D01*
X101677000Y-59983576D01*
X101677000Y-59316424D01*
X101421692Y-58700056D01*
X100949944Y-58228308D01*
X100333576Y-57973000D01*
X99666424Y-57973000D01*
X99050056Y-58228308D01*
X98578308Y-58700056D01*
X98323000Y-59316424D01*
X95885979Y-59316424D01*
X95668458Y-59098903D01*
X95364501Y-58973000D01*
X95035499Y-58973000D01*
X94731542Y-59098903D01*
X94498903Y-59331542D01*
X94373000Y-59635499D01*
X94373000Y-59964501D01*
X94498903Y-60268458D01*
X94513000Y-60282555D01*
X94513001Y-65641436D01*
X92233628Y-63362064D01*
X92195299Y-63304701D01*
X91968054Y-63152860D01*
X91767663Y-63113000D01*
X91767658Y-63113000D01*
X91700000Y-63099542D01*
X91632342Y-63113000D01*
X88282555Y-63113000D01*
X88268458Y-63098903D01*
X87964501Y-62973000D01*
X87635499Y-62973000D01*
X87331542Y-63098903D01*
X87098903Y-63331542D01*
X86973000Y-63635499D01*
X86973000Y-63964501D01*
X87098903Y-64268458D01*
X87331542Y-64501097D01*
X87635499Y-64627000D01*
X87964501Y-64627000D01*
X88268458Y-64501097D01*
X88282555Y-64487000D01*
X91415436Y-64487000D01*
X92699280Y-65770845D01*
X92631542Y-65798903D01*
X92617445Y-65813000D01*
X90484565Y-65813000D01*
X89927000Y-65255436D01*
X89927000Y-65235499D01*
X89801097Y-64931542D01*
X89568458Y-64698903D01*
X89264501Y-64573000D01*
X88935499Y-64573000D01*
X88631542Y-64698903D01*
X88398903Y-64931542D01*
X88273000Y-65235499D01*
X88273000Y-65564501D01*
X88398903Y-65868458D01*
X88631542Y-66101097D01*
X88935499Y-66227000D01*
X88955436Y-66227000D01*
X89666374Y-66937939D01*
X89704701Y-66995299D01*
X89762061Y-67033626D01*
X89762062Y-67033627D01*
X89813001Y-67067663D01*
X89931946Y-67147140D01*
X90132337Y-67187000D01*
X90132341Y-67187000D01*
X90200000Y-67200458D01*
X90267658Y-67187000D01*
X92617445Y-67187000D01*
X92631542Y-67201097D01*
X92935499Y-67327000D01*
X93264501Y-67327000D01*
X93568458Y-67201097D01*
X93750000Y-67019555D01*
X93931542Y-67201097D01*
X93958514Y-67212269D01*
X93831542Y-67264863D01*
X93598903Y-67497502D01*
X93473000Y-67801459D01*
X93473000Y-68130461D01*
X93598903Y-68434418D01*
X93747465Y-68582980D01*
X93598903Y-68731542D01*
X93473000Y-69035499D01*
X93473000Y-69364501D01*
X93598903Y-69668458D01*
X93830444Y-69899999D01*
X93598903Y-70131540D01*
X93473000Y-70435497D01*
X93473000Y-70713000D01*
X90391924Y-70713000D01*
X90324264Y-70699542D01*
X90256604Y-70713000D01*
X90256601Y-70713000D01*
X90056210Y-70752860D01*
X89886326Y-70866373D01*
X89886325Y-70866374D01*
X89828965Y-70904701D01*
X89790638Y-70962061D01*
X86345959Y-74406741D01*
X86264501Y-74373000D01*
X85935499Y-74373000D01*
X85631542Y-74498903D01*
X85398903Y-74731542D01*
X85273000Y-75035499D01*
X74902000Y-75035499D01*
X74902000Y-65935499D01*
X80173000Y-65935499D01*
X80173000Y-66264501D01*
X80298903Y-66568458D01*
X80531542Y-66801097D01*
X80835499Y-66927000D01*
X80855436Y-66927000D01*
X83113001Y-69184566D01*
X83113000Y-69517445D01*
X83098903Y-69531542D01*
X82973000Y-69835499D01*
X82973000Y-70164501D01*
X83098903Y-70468458D01*
X83331542Y-70701097D01*
X83635499Y-70827000D01*
X83964501Y-70827000D01*
X84268458Y-70701097D01*
X84501097Y-70468458D01*
X84627000Y-70164501D01*
X84627000Y-69835499D01*
X84501097Y-69531542D01*
X84487000Y-69517445D01*
X84487000Y-68967658D01*
X84500458Y-68900000D01*
X84487000Y-68832341D01*
X84487000Y-68832337D01*
X84447140Y-68631946D01*
X84380322Y-68531946D01*
X84333627Y-68462062D01*
X84333626Y-68462061D01*
X84295299Y-68404701D01*
X84237939Y-68366374D01*
X81827000Y-65955436D01*
X81827000Y-65935499D01*
X81701097Y-65631542D01*
X81468458Y-65398903D01*
X81164501Y-65273000D01*
X80835499Y-65273000D01*
X80531542Y-65398903D01*
X80298903Y-65631542D01*
X80173000Y-65935499D01*
X74902000Y-65935499D01*
X74902000Y-64235499D01*
X80073000Y-64235499D01*
X80073000Y-64564501D01*
X80198903Y-64868458D01*
X80431542Y-65101097D01*
X80735499Y-65227000D01*
X81064501Y-65227000D01*
X81368458Y-65101097D01*
X81382555Y-65087000D01*
X82392238Y-65087000D01*
X84843176Y-67537939D01*
X84881503Y-67595299D01*
X84938863Y-67633626D01*
X84938864Y-67633627D01*
X85108747Y-67747140D01*
X85156242Y-67756587D01*
X85309139Y-67787000D01*
X85309142Y-67787000D01*
X85376802Y-67800458D01*
X85444462Y-67787000D01*
X85615436Y-67787000D01*
X86073000Y-68244565D01*
X86073000Y-68264501D01*
X86198903Y-68568458D01*
X86431542Y-68801097D01*
X86735499Y-68927000D01*
X87064501Y-68927000D01*
X87368458Y-68801097D01*
X87601097Y-68568458D01*
X87727000Y-68264501D01*
X87727000Y-67935499D01*
X87601097Y-67631542D01*
X87428588Y-67459033D01*
X87568458Y-67401097D01*
X87801097Y-67168458D01*
X87927000Y-66864501D01*
X87927000Y-66535499D01*
X87801097Y-66231542D01*
X87568458Y-65998903D01*
X87264501Y-65873000D01*
X87244565Y-65873000D01*
X84800366Y-63428802D01*
X84827000Y-63364501D01*
X84827000Y-63035499D01*
X84701097Y-62731542D01*
X84468458Y-62498903D01*
X84164501Y-62373000D01*
X83835499Y-62373000D01*
X83531542Y-62498903D01*
X83298903Y-62731542D01*
X83173000Y-63035499D01*
X83173000Y-63364501D01*
X83298903Y-63668458D01*
X83316698Y-63686253D01*
X83352860Y-63868053D01*
X83377348Y-63904701D01*
X83462632Y-64032337D01*
X83504701Y-64095298D01*
X83562061Y-64133625D01*
X85839927Y-66411491D01*
X85832342Y-66413000D01*
X85661367Y-66413000D01*
X83210430Y-63962064D01*
X83172101Y-63904701D01*
X82944856Y-63752860D01*
X82744465Y-63713000D01*
X82744460Y-63713000D01*
X82676802Y-63699542D01*
X82609144Y-63713000D01*
X81382555Y-63713000D01*
X81368458Y-63698903D01*
X81064501Y-63573000D01*
X80735499Y-63573000D01*
X80431542Y-63698903D01*
X80198903Y-63931542D01*
X80073000Y-64235499D01*
X74902000Y-64235499D01*
X74902000Y-61835499D01*
X88273000Y-61835499D01*
X88273000Y-62164501D01*
X88398903Y-62468458D01*
X88631542Y-62701097D01*
X88935499Y-62827000D01*
X89264501Y-62827000D01*
X89568458Y-62701097D01*
X89582555Y-62687000D01*
X92317461Y-62687000D01*
X92431558Y-62801097D01*
X92735515Y-62927000D01*
X93064517Y-62927000D01*
X93368474Y-62801097D01*
X93601113Y-62568458D01*
X93727016Y-62264501D01*
X93727016Y-61935499D01*
X93601113Y-61631542D01*
X93368474Y-61398903D01*
X93064517Y-61273000D01*
X92735515Y-61273000D01*
X92638946Y-61313000D01*
X89582555Y-61313000D01*
X89568458Y-61298903D01*
X89264501Y-61173000D01*
X88935499Y-61173000D01*
X88631542Y-61298903D01*
X88398903Y-61531542D01*
X88273000Y-61835499D01*
X74902000Y-61835499D01*
X74902000Y-59796261D01*
X75073000Y-59796261D01*
X75073000Y-60403739D01*
X75305472Y-60964976D01*
X75735024Y-61394528D01*
X76296261Y-61627000D01*
X76903739Y-61627000D01*
X77464976Y-61394528D01*
X77894528Y-60964976D01*
X78127000Y-60403739D01*
X78127000Y-59796261D01*
X77894528Y-59235024D01*
X77464976Y-58805472D01*
X76903739Y-58573000D01*
X76296261Y-58573000D01*
X75735024Y-58805472D01*
X75305472Y-59235024D01*
X75073000Y-59796261D01*
X74902000Y-59796261D01*
X74902000Y-56235499D01*
X86173000Y-56235499D01*
X86173000Y-56564501D01*
X86298903Y-56868458D01*
X86313000Y-56882555D01*
X86313001Y-57817442D01*
X86298903Y-57831540D01*
X86173000Y-58135497D01*
X86173000Y-58464499D01*
X86298903Y-58768456D01*
X86531542Y-59001095D01*
X86835499Y-59126998D01*
X87164501Y-59126998D01*
X87468458Y-59001095D01*
X87701097Y-58768456D01*
X87827000Y-58464499D01*
X87827000Y-58135497D01*
X87701097Y-57831540D01*
X87687000Y-57817443D01*
X87687000Y-56882555D01*
X87701097Y-56868458D01*
X87827000Y-56564501D01*
X87827000Y-56235499D01*
X87701097Y-55931542D01*
X87468458Y-55698903D01*
X87164501Y-55573000D01*
X86835499Y-55573000D01*
X86531542Y-55698903D01*
X86298903Y-55931542D01*
X86173000Y-56235499D01*
X74902000Y-56235499D01*
X74902000Y-54535499D01*
X93473000Y-54535499D01*
X93473000Y-54864501D01*
X93598903Y-55168458D01*
X93831542Y-55401097D01*
X94135499Y-55527000D01*
X94464501Y-55527000D01*
X94768458Y-55401097D01*
X94782555Y-55387000D01*
X98615436Y-55387000D01*
X101473000Y-58244565D01*
X101473000Y-58264501D01*
X101598903Y-58568458D01*
X101831542Y-58801097D01*
X102135499Y-58927000D01*
X102464501Y-58927000D01*
X102768458Y-58801097D01*
X103001097Y-58568458D01*
X103127000Y-58264501D01*
X103127000Y-57935499D01*
X103001097Y-57631542D01*
X102768458Y-57398903D01*
X102464501Y-57273000D01*
X102444565Y-57273000D01*
X99433628Y-54262064D01*
X99395299Y-54204701D01*
X99168054Y-54052860D01*
X98967663Y-54013000D01*
X98967658Y-54013000D01*
X98900000Y-53999542D01*
X98832342Y-54013000D01*
X94782555Y-54013000D01*
X94768458Y-53998903D01*
X94464501Y-53873000D01*
X94135499Y-53873000D01*
X93831542Y-53998903D01*
X93598903Y-54231542D01*
X93473000Y-54535499D01*
X74902000Y-54535499D01*
X74902000Y-47600000D01*
X75252880Y-47600000D01*
X75273000Y-47701150D01*
X75273001Y-49301150D01*
X75332588Y-49600715D01*
X75559575Y-49940426D01*
X75899286Y-50167413D01*
X76300000Y-50247120D01*
X76700715Y-50167413D01*
X77040426Y-49940426D01*
X77267413Y-49600715D01*
X77327000Y-49301150D01*
X77327000Y-49200000D01*
X77352880Y-49200000D01*
X77432587Y-49600715D01*
X77659574Y-49940426D01*
X77999285Y-50167413D01*
X78298850Y-50227000D01*
X81367496Y-50227000D01*
X81635024Y-50494528D01*
X82196261Y-50727000D01*
X82803739Y-50727000D01*
X83364976Y-50494528D01*
X83794528Y-50064976D01*
X84027000Y-49503739D01*
X84027000Y-48896261D01*
X83794528Y-48335024D01*
X83364976Y-47905472D01*
X82803739Y-47673000D01*
X82196261Y-47673000D01*
X81635024Y-47905472D01*
X81367496Y-48173000D01*
X78298850Y-48173000D01*
X77999285Y-48232587D01*
X77659574Y-48459574D01*
X77432587Y-48799285D01*
X77352880Y-49200000D01*
X77327000Y-49200000D01*
X77327000Y-48025396D01*
X77625397Y-47727000D01*
X78698851Y-47727000D01*
X78800000Y-47747120D01*
X78901149Y-47727000D01*
X78901150Y-47727000D01*
X79200715Y-47667413D01*
X79540426Y-47440426D01*
X79597726Y-47354670D01*
X81225397Y-45727000D01*
X81367496Y-45727000D01*
X81635024Y-45994528D01*
X82196261Y-46227000D01*
X82803739Y-46227000D01*
X83364976Y-45994528D01*
X83794528Y-45564976D01*
X83821441Y-45500000D01*
X98852880Y-45500000D01*
X98873001Y-45601154D01*
X98873000Y-50301149D01*
X98873001Y-50301154D01*
X98873000Y-52698851D01*
X98852880Y-52800000D01*
X98873000Y-52901149D01*
X98932587Y-53200714D01*
X99159574Y-53540426D01*
X99245330Y-53597726D01*
X103902275Y-58254672D01*
X103959574Y-58340426D01*
X104089142Y-58427000D01*
X104299283Y-58567412D01*
X104299284Y-58567412D01*
X104299285Y-58567413D01*
X104598850Y-58627000D01*
X104699999Y-58647120D01*
X104801148Y-58627000D01*
X105701150Y-58627000D01*
X106000715Y-58567413D01*
X106340426Y-58340426D01*
X106567413Y-58000715D01*
X106647120Y-57600000D01*
X106567413Y-57199285D01*
X106340426Y-56859574D01*
X106000715Y-56632587D01*
X105701150Y-56573000D01*
X105125397Y-56573000D01*
X100927000Y-52374604D01*
X100927000Y-52000000D01*
X101652880Y-52000000D01*
X101673000Y-52101149D01*
X101732587Y-52400714D01*
X101959574Y-52740426D01*
X102045330Y-52797726D01*
X104802277Y-55554675D01*
X104859574Y-55640426D01*
X104945324Y-55697722D01*
X105199283Y-55867412D01*
X105199284Y-55867412D01*
X105199285Y-55867413D01*
X105498850Y-55927000D01*
X105599999Y-55947120D01*
X105701148Y-55927000D01*
X112698851Y-55927000D01*
X112800000Y-55947120D01*
X112901149Y-55927000D01*
X112901150Y-55927000D01*
X113200715Y-55867413D01*
X113540426Y-55640426D01*
X113597727Y-55554669D01*
X113825396Y-55327000D01*
X120201150Y-55327000D01*
X120500715Y-55267413D01*
X120840426Y-55040426D01*
X121067413Y-54700715D01*
X121147120Y-54300000D01*
X121067413Y-53899285D01*
X120840426Y-53559574D01*
X120500715Y-53332587D01*
X120201150Y-53273000D01*
X113501148Y-53273000D01*
X113399999Y-53252880D01*
X113298850Y-53273000D01*
X112999285Y-53332587D01*
X112999284Y-53332588D01*
X112999283Y-53332588D01*
X112952633Y-53363759D01*
X112659574Y-53559574D01*
X112602273Y-53645331D01*
X112374604Y-53873000D01*
X106025398Y-53873000D01*
X103727000Y-51574604D01*
X103727000Y-50898850D01*
X103667413Y-50599285D01*
X103440426Y-50259574D01*
X103404396Y-50235499D01*
X107273000Y-50235499D01*
X107273000Y-50564501D01*
X107398903Y-50868458D01*
X107413000Y-50882555D01*
X107413000Y-51256608D01*
X107399542Y-51324266D01*
X107413000Y-51391924D01*
X107413000Y-51391928D01*
X107452860Y-51592319D01*
X107604701Y-51819564D01*
X107662061Y-51857891D01*
X109142108Y-53337939D01*
X109180435Y-53395299D01*
X109237795Y-53433626D01*
X109237796Y-53433627D01*
X109296722Y-53473000D01*
X109407680Y-53547140D01*
X109608071Y-53587000D01*
X109608075Y-53587000D01*
X109619769Y-53589326D01*
X109631540Y-53601097D01*
X109935497Y-53727000D01*
X110264499Y-53727000D01*
X110568456Y-53601097D01*
X110801095Y-53368458D01*
X110926998Y-53064501D01*
X110926998Y-52735499D01*
X110801095Y-52431542D01*
X110568456Y-52198903D01*
X110382513Y-52121883D01*
X110426992Y-52014501D01*
X110426992Y-51685499D01*
X110301089Y-51381542D01*
X110286992Y-51367445D01*
X110286992Y-50967652D01*
X110300450Y-50899992D01*
X110286992Y-50832332D01*
X110286992Y-50832329D01*
X110247132Y-50631938D01*
X110095291Y-50404693D01*
X110037928Y-50366364D01*
X109927000Y-50255436D01*
X109927000Y-50235499D01*
X109801097Y-49931542D01*
X109568458Y-49698903D01*
X109264501Y-49573000D01*
X108935499Y-49573000D01*
X108631542Y-49698903D01*
X108600000Y-49730445D01*
X108568458Y-49698903D01*
X108264501Y-49573000D01*
X107935499Y-49573000D01*
X107631542Y-49698903D01*
X107398903Y-49931542D01*
X107273000Y-50235499D01*
X103404396Y-50235499D01*
X103100715Y-50032587D01*
X102700000Y-49952880D01*
X102299286Y-50032587D01*
X101959575Y-50259574D01*
X101732588Y-50599285D01*
X101673001Y-50898850D01*
X101673000Y-51898850D01*
X101652880Y-52000000D01*
X100927000Y-52000000D01*
X100927000Y-45925396D01*
X101156135Y-45696261D01*
X101773000Y-45696261D01*
X101773000Y-46303739D01*
X102005472Y-46864976D01*
X102435024Y-47294528D01*
X102996261Y-47527000D01*
X103603739Y-47527000D01*
X104164976Y-47294528D01*
X104594528Y-46864976D01*
X104827000Y-46303739D01*
X104827000Y-45696261D01*
X104973000Y-45696261D01*
X104973000Y-46303739D01*
X105205472Y-46864976D01*
X105635024Y-47294528D01*
X106196261Y-47527000D01*
X106803739Y-47527000D01*
X106981715Y-47453280D01*
X107201435Y-47673000D01*
X107035499Y-47673000D01*
X106731542Y-47798903D01*
X106498903Y-48031542D01*
X106373000Y-48335499D01*
X106373000Y-48664501D01*
X106498903Y-48968458D01*
X106731542Y-49201097D01*
X107035499Y-49327000D01*
X107364501Y-49327000D01*
X107668458Y-49201097D01*
X107682555Y-49187000D01*
X109917445Y-49187000D01*
X109931542Y-49201097D01*
X110235499Y-49327000D01*
X110564501Y-49327000D01*
X110868458Y-49201097D01*
X111101097Y-48968458D01*
X111227000Y-48664501D01*
X111227000Y-48435499D01*
X112773000Y-48435499D01*
X112773000Y-48764501D01*
X112898903Y-49068458D01*
X112913000Y-49082555D01*
X112913001Y-51717444D01*
X112898903Y-51731542D01*
X112773000Y-52035499D01*
X112773000Y-52364501D01*
X112898903Y-52668458D01*
X113131542Y-52901097D01*
X113435499Y-53027000D01*
X113764501Y-53027000D01*
X114068458Y-52901097D01*
X114199999Y-52769556D01*
X114431542Y-53001099D01*
X114735499Y-53127002D01*
X115064501Y-53127002D01*
X115368458Y-53001099D01*
X115601097Y-52768460D01*
X115727000Y-52464503D01*
X115727000Y-52135501D01*
X115601097Y-51831544D01*
X115587000Y-51817447D01*
X115587000Y-51435499D01*
X119273000Y-51435499D01*
X119273000Y-51764501D01*
X119398903Y-52068458D01*
X119631542Y-52301097D01*
X119935499Y-52427000D01*
X120264501Y-52427000D01*
X120568458Y-52301097D01*
X120801097Y-52068458D01*
X120927000Y-51764501D01*
X120927000Y-51435499D01*
X120801097Y-51131542D01*
X120568458Y-50898903D01*
X120264501Y-50773000D01*
X119935499Y-50773000D01*
X119631542Y-50898903D01*
X119398903Y-51131542D01*
X119273000Y-51435499D01*
X115587000Y-51435499D01*
X115587000Y-49282555D01*
X115601097Y-49268458D01*
X115727000Y-48964501D01*
X115727000Y-48635499D01*
X115601097Y-48331542D01*
X115368458Y-48098903D01*
X115064501Y-47973000D01*
X114735499Y-47973000D01*
X114431542Y-48098903D01*
X114329744Y-48200701D01*
X114301097Y-48131542D01*
X114068458Y-47898903D01*
X113764501Y-47773000D01*
X113435499Y-47773000D01*
X113131542Y-47898903D01*
X112898903Y-48131542D01*
X112773000Y-48435499D01*
X111227000Y-48435499D01*
X111227000Y-48427000D01*
X111464501Y-48427000D01*
X111768458Y-48301097D01*
X112001097Y-48068458D01*
X112127000Y-47764501D01*
X112127000Y-47435499D01*
X112001097Y-47131542D01*
X111768458Y-46898903D01*
X111464501Y-46773000D01*
X111135499Y-46773000D01*
X110831542Y-46898903D01*
X110817445Y-46913000D01*
X108384565Y-46913000D01*
X107953280Y-46481715D01*
X108027000Y-46303739D01*
X108027000Y-45696261D01*
X107794528Y-45135024D01*
X107364976Y-44705472D01*
X106803739Y-44473000D01*
X106196261Y-44473000D01*
X105635024Y-44705472D01*
X105205472Y-45135024D01*
X104973000Y-45696261D01*
X104827000Y-45696261D01*
X104594528Y-45135024D01*
X104164976Y-44705472D01*
X103603739Y-44473000D01*
X102996261Y-44473000D01*
X102435024Y-44705472D01*
X102005472Y-45135024D01*
X101773000Y-45696261D01*
X101156135Y-45696261D01*
X101597722Y-45254675D01*
X101767412Y-45000717D01*
X101847120Y-44600001D01*
X101767412Y-44199285D01*
X101540425Y-43859575D01*
X101491278Y-43826736D01*
X111612754Y-43826736D01*
X111728028Y-44057782D01*
X111703577Y-44094375D01*
X111662676Y-44300000D01*
X111662676Y-45300000D01*
X111703577Y-45505625D01*
X111820055Y-45679945D01*
X111994375Y-45796423D01*
X112200000Y-45837324D01*
X113200000Y-45837324D01*
X113405625Y-45796423D01*
X113509163Y-45727241D01*
X113569285Y-45767413D01*
X113868850Y-45827000D01*
X114071150Y-45827000D01*
X114370715Y-45767413D01*
X114605000Y-45610869D01*
X114839285Y-45767413D01*
X115138850Y-45827000D01*
X115341150Y-45827000D01*
X115640715Y-45767413D01*
X115875000Y-45610869D01*
X115948473Y-45659962D01*
X115495436Y-46113000D01*
X113382555Y-46113000D01*
X113368458Y-46098903D01*
X113064501Y-45973000D01*
X112735499Y-45973000D01*
X112431542Y-46098903D01*
X112198903Y-46331542D01*
X112073000Y-46635499D01*
X112073000Y-46964501D01*
X112198903Y-47268458D01*
X112431542Y-47501097D01*
X112735499Y-47627000D01*
X113064501Y-47627000D01*
X113368458Y-47501097D01*
X113382555Y-47487000D01*
X115712342Y-47487000D01*
X115780000Y-47500458D01*
X115847658Y-47487000D01*
X115847663Y-47487000D01*
X116048054Y-47447140D01*
X116275299Y-47295299D01*
X116313628Y-47237936D01*
X117724565Y-45827000D01*
X117881150Y-45827000D01*
X118180715Y-45767413D01*
X118520426Y-45540426D01*
X118747413Y-45200715D01*
X118827120Y-44800000D01*
X118747413Y-44399285D01*
X118643619Y-44243946D01*
X118670928Y-44220219D01*
X118867246Y-43826736D01*
X118743530Y-43653000D01*
X117903000Y-43653000D01*
X117903000Y-43673000D01*
X117657000Y-43673000D01*
X117657000Y-43653000D01*
X117637000Y-43653000D01*
X117637000Y-43407000D01*
X117657000Y-43407000D01*
X117657000Y-42567578D01*
X117903000Y-42567578D01*
X117903000Y-43407000D01*
X118743530Y-43407000D01*
X118867246Y-43233264D01*
X118670928Y-42839781D01*
X118338975Y-42551377D01*
X118076734Y-42442766D01*
X117903000Y-42567578D01*
X117657000Y-42567578D01*
X117483266Y-42442766D01*
X117221025Y-42551377D01*
X117078830Y-42674917D01*
X116910715Y-42562587D01*
X116611150Y-42503000D01*
X116408850Y-42503000D01*
X116109285Y-42562587D01*
X115875000Y-42719131D01*
X115640715Y-42562587D01*
X115341150Y-42503000D01*
X115138850Y-42503000D01*
X114839285Y-42562587D01*
X114605000Y-42719131D01*
X114370715Y-42562587D01*
X114071150Y-42503000D01*
X113868850Y-42503000D01*
X113569285Y-42562587D01*
X113401170Y-42674917D01*
X113258975Y-42551377D01*
X112996734Y-42442766D01*
X112823000Y-42567578D01*
X112823000Y-43407000D01*
X112843000Y-43407000D01*
X112843000Y-43653000D01*
X112823000Y-43653000D01*
X112823000Y-43673000D01*
X112577000Y-43673000D01*
X112577000Y-43653000D01*
X111736470Y-43653000D01*
X111612754Y-43826736D01*
X101491278Y-43826736D01*
X101200715Y-43632588D01*
X100799999Y-43552880D01*
X100399283Y-43632588D01*
X100145325Y-43802278D01*
X99245328Y-44702276D01*
X99159575Y-44759574D01*
X99102278Y-44845326D01*
X98932588Y-45099285D01*
X98852880Y-45500000D01*
X83821441Y-45500000D01*
X84027000Y-45003739D01*
X84027000Y-44396261D01*
X83794528Y-43835024D01*
X83364976Y-43405472D01*
X82949230Y-43233264D01*
X111612754Y-43233264D01*
X111736470Y-43407000D01*
X112577000Y-43407000D01*
X112577000Y-42567578D01*
X112403266Y-42442766D01*
X112141025Y-42551377D01*
X111809072Y-42839781D01*
X111612754Y-43233264D01*
X82949230Y-43233264D01*
X82803739Y-43173000D01*
X82196261Y-43173000D01*
X81635024Y-43405472D01*
X81367496Y-43673000D01*
X80901148Y-43673000D01*
X80799999Y-43652880D01*
X80698850Y-43673000D01*
X80399285Y-43732587D01*
X80399284Y-43732588D01*
X80399283Y-43732588D01*
X80325828Y-43781669D01*
X80059574Y-43959574D01*
X80002275Y-44045328D01*
X78374604Y-45673000D01*
X77301148Y-45673000D01*
X77199999Y-45652880D01*
X77098850Y-45673000D01*
X76799285Y-45732587D01*
X76799284Y-45732588D01*
X76799283Y-45732588D01*
X76747164Y-45767413D01*
X76459574Y-45959574D01*
X76402277Y-46045326D01*
X75645330Y-46802274D01*
X75559574Y-46859574D01*
X75332587Y-47199286D01*
X75283286Y-47447139D01*
X75252880Y-47600000D01*
X74902000Y-47600000D01*
X74902000Y-39602000D01*
X121098000Y-39602000D01*
X121098001Y-41540708D01*
X121098001Y-41540708D01*
G37*
X121098001Y-41540708D02*
X121086207Y-41600000D01*
X121132929Y-41834888D01*
X121265983Y-42034017D01*
X121465112Y-42167071D01*
X121640712Y-42202000D01*
X121640713Y-42202000D01*
X121700000Y-42213793D01*
X121759288Y-42202000D01*
X125098001Y-42202000D01*
X125098000Y-90798000D01*
X124659288Y-90798000D01*
X124600000Y-90786207D01*
X124540713Y-90798000D01*
X124540712Y-90798000D01*
X124365112Y-90832929D01*
X124165983Y-90965983D01*
X124032929Y-91165112D01*
X123986207Y-91400000D01*
X123998001Y-91459293D01*
X123998001Y-92373000D01*
X76002000Y-92373000D01*
X76002000Y-91459287D01*
X76013793Y-91400000D01*
X76000963Y-91335499D01*
X77273000Y-91335499D01*
X77273000Y-91664501D01*
X77398903Y-91968458D01*
X77631542Y-92201097D01*
X77935499Y-92327000D01*
X78264501Y-92327000D01*
X78568458Y-92201097D01*
X78582555Y-92187000D01*
X99632342Y-92187000D01*
X99700000Y-92200458D01*
X99767658Y-92187000D01*
X99767663Y-92187000D01*
X99968054Y-92147140D01*
X100195299Y-91995299D01*
X100233628Y-91937936D01*
X101544565Y-90627000D01*
X101564501Y-90627000D01*
X101868458Y-90501097D01*
X102101097Y-90268458D01*
X102227000Y-89964501D01*
X102227000Y-89635499D01*
X103673000Y-89635499D01*
X103673000Y-89964501D01*
X103798903Y-90268458D01*
X104031542Y-90501097D01*
X104335499Y-90627000D01*
X104664501Y-90627000D01*
X104745959Y-90593259D01*
X106090638Y-91937939D01*
X106128965Y-91995299D01*
X106186325Y-92033626D01*
X106186326Y-92033627D01*
X106280929Y-92096839D01*
X106356210Y-92147140D01*
X106556601Y-92187000D01*
X106556605Y-92187000D01*
X106624263Y-92200458D01*
X106691922Y-92187000D01*
X121267445Y-92187000D01*
X121281542Y-92201097D01*
X121585499Y-92327000D01*
X121914501Y-92327000D01*
X122218458Y-92201097D01*
X122451097Y-91968458D01*
X122577000Y-91664501D01*
X122577000Y-91335499D01*
X122451097Y-91031542D01*
X122218458Y-90798903D01*
X121914501Y-90673000D01*
X121585499Y-90673000D01*
X121281542Y-90798903D01*
X121267445Y-90813000D01*
X106908829Y-90813000D01*
X105457892Y-89362064D01*
X105419563Y-89304701D01*
X105192318Y-89152860D01*
X104991927Y-89113000D01*
X104991922Y-89113000D01*
X104980229Y-89110674D01*
X104968458Y-89098903D01*
X104664501Y-88973000D01*
X104335499Y-88973000D01*
X104031542Y-89098903D01*
X103798903Y-89331542D01*
X103673000Y-89635499D01*
X102227000Y-89635499D01*
X102101097Y-89331542D01*
X101868458Y-89098903D01*
X101564501Y-88973000D01*
X101235499Y-88973000D01*
X100931542Y-89098903D01*
X100698903Y-89331542D01*
X100573000Y-89635499D01*
X100573000Y-89655435D01*
X99415436Y-90813000D01*
X97606910Y-90813000D01*
X97627000Y-90764499D01*
X97627000Y-90435497D01*
X97501097Y-90131540D01*
X97268458Y-89898901D01*
X96964501Y-89772998D01*
X96944565Y-89772998D01*
X96433631Y-89262064D01*
X96395302Y-89204702D01*
X96168057Y-89052861D01*
X95967666Y-89013001D01*
X95967661Y-89013001D01*
X95900003Y-88999543D01*
X95832345Y-89013001D01*
X94235365Y-89013001D01*
X94737941Y-88510426D01*
X94795298Y-88472101D01*
X94833623Y-88414744D01*
X94833627Y-88414740D01*
X94947139Y-88244857D01*
X94947140Y-88244856D01*
X94987000Y-88044465D01*
X94987000Y-88044461D01*
X95000458Y-87976803D01*
X94987000Y-87909144D01*
X94987000Y-86182555D01*
X95001097Y-86168458D01*
X95127000Y-85864501D01*
X95127000Y-85535499D01*
X95001097Y-85231542D01*
X94768458Y-84998903D01*
X94464501Y-84873000D01*
X94135499Y-84873000D01*
X93831542Y-84998903D01*
X93598903Y-85231542D01*
X93473000Y-85535499D01*
X93473000Y-85864501D01*
X93517942Y-85973000D01*
X93235499Y-85973000D01*
X93138930Y-86013000D01*
X86882551Y-86013000D01*
X86868454Y-85998903D01*
X86564497Y-85873000D01*
X86235495Y-85873000D01*
X85931538Y-85998903D01*
X85698899Y-86231542D01*
X85572996Y-86535499D01*
X85572996Y-86864501D01*
X85698899Y-87168458D01*
X85830448Y-87300007D01*
X85698913Y-87431542D01*
X85573010Y-87735499D01*
X85573010Y-88064501D01*
X85576530Y-88073000D01*
X85535499Y-88073000D01*
X85231542Y-88198903D01*
X84998903Y-88431542D01*
X84873000Y-88735499D01*
X84873000Y-89013001D01*
X83867657Y-89013001D01*
X83799998Y-88999543D01*
X83732340Y-89013001D01*
X83732336Y-89013001D01*
X83531945Y-89052861D01*
X83531943Y-89052862D01*
X83531944Y-89052862D01*
X83362061Y-89166374D01*
X83362060Y-89166375D01*
X83304700Y-89204702D01*
X83266373Y-89262062D01*
X82762062Y-89766374D01*
X82755436Y-89773000D01*
X82735499Y-89773000D01*
X82431542Y-89898903D01*
X82198903Y-90131542D01*
X82073000Y-90435499D01*
X82073000Y-90764501D01*
X82093089Y-90813000D01*
X78582555Y-90813000D01*
X78568458Y-90798903D01*
X78264501Y-90673000D01*
X77935499Y-90673000D01*
X77631542Y-90798903D01*
X77398903Y-91031542D01*
X77273000Y-91335499D01*
X76000963Y-91335499D01*
X75967071Y-91165112D01*
X75834017Y-90965983D01*
X75634888Y-90832929D01*
X75459288Y-90798000D01*
X75400000Y-90786207D01*
X75340713Y-90798000D01*
X74902000Y-90798000D01*
X74902000Y-81935499D01*
X88473000Y-81935499D01*
X88473000Y-82264501D01*
X88598903Y-82568458D01*
X88831542Y-82801097D01*
X89135499Y-82927000D01*
X89464501Y-82927000D01*
X89564563Y-82885553D01*
X89598903Y-82968458D01*
X89831542Y-83201097D01*
X90135499Y-83327000D01*
X90173000Y-83327000D01*
X90173000Y-83464501D01*
X90298903Y-83768458D01*
X90531542Y-84001097D01*
X90735158Y-84085437D01*
X90673000Y-84235499D01*
X90673000Y-84564501D01*
X90798903Y-84868458D01*
X91031542Y-85101097D01*
X91335499Y-85227000D01*
X91664501Y-85227000D01*
X91968458Y-85101097D01*
X92201097Y-84868458D01*
X92327000Y-84564501D01*
X92327000Y-84444558D01*
X92942469Y-83829089D01*
X95873000Y-83829089D01*
X95873000Y-85470911D01*
X96501298Y-86987758D01*
X97662242Y-88148702D01*
X99179089Y-88777000D01*
X100820911Y-88777000D01*
X102337758Y-88148702D01*
X103498702Y-86987758D01*
X104127000Y-85470911D01*
X104127000Y-83829089D01*
X103498702Y-82312242D01*
X102913460Y-81727000D01*
X103164501Y-81727000D01*
X103468458Y-81601097D01*
X103634056Y-81435499D01*
X104673000Y-81435499D01*
X104673000Y-81764501D01*
X104798903Y-82068458D01*
X105031542Y-82301097D01*
X105335499Y-82427000D01*
X105664501Y-82427000D01*
X105968458Y-82301097D01*
X106201097Y-82068458D01*
X106301112Y-81827000D01*
X106564501Y-81827000D01*
X106573000Y-81823480D01*
X106573000Y-82064501D01*
X106698903Y-82368458D01*
X106931542Y-82601097D01*
X107235499Y-82727000D01*
X107564501Y-82727000D01*
X107868458Y-82601097D01*
X107882555Y-82587000D01*
X110332342Y-82587000D01*
X110400000Y-82600458D01*
X110467658Y-82587000D01*
X110467663Y-82587000D01*
X110668054Y-82547140D01*
X110895299Y-82395299D01*
X110933628Y-82337936D01*
X115344565Y-77927000D01*
X115364501Y-77927000D01*
X115668458Y-77801097D01*
X115901097Y-77568458D01*
X116027000Y-77264501D01*
X116027000Y-76935499D01*
X115901097Y-76631542D01*
X115819555Y-76550000D01*
X115901097Y-76468458D01*
X116027000Y-76164501D01*
X116027000Y-75835499D01*
X115901097Y-75531542D01*
X115819555Y-75450000D01*
X115901097Y-75368458D01*
X116027000Y-75064501D01*
X116027000Y-74735499D01*
X115901097Y-74431542D01*
X115819555Y-74350000D01*
X115901097Y-74268458D01*
X116027000Y-73964501D01*
X116027000Y-73635499D01*
X115901097Y-73331542D01*
X115668458Y-73098903D01*
X115364501Y-72973000D01*
X115035499Y-72973000D01*
X114731542Y-73098903D01*
X114498903Y-73331542D01*
X114373000Y-73635499D01*
X114373000Y-73655435D01*
X109415436Y-78613000D01*
X106182555Y-78613000D01*
X106168458Y-78598903D01*
X105864501Y-78473000D01*
X105535499Y-78473000D01*
X105231542Y-78598903D01*
X104998903Y-78831542D01*
X104873000Y-79135499D01*
X104873000Y-79464501D01*
X104998903Y-79768458D01*
X105231542Y-80001097D01*
X105369991Y-80058445D01*
X105062062Y-80366374D01*
X105004702Y-80404701D01*
X104966375Y-80462061D01*
X104966373Y-80462063D01*
X104877348Y-80595299D01*
X104852861Y-80631946D01*
X104813000Y-80832337D01*
X104813000Y-80832342D01*
X104799542Y-80900000D01*
X104813000Y-80967658D01*
X104813000Y-81117445D01*
X104798903Y-81131542D01*
X104673000Y-81435499D01*
X103634056Y-81435499D01*
X103701097Y-81368458D01*
X103827000Y-81064501D01*
X103827000Y-80735499D01*
X103701097Y-80431542D01*
X103687000Y-80417445D01*
X103687000Y-76967660D01*
X103700458Y-76900000D01*
X103687000Y-76832338D01*
X103687000Y-76832337D01*
X103647140Y-76631946D01*
X103622653Y-76595299D01*
X103533627Y-76462062D01*
X103533623Y-76462058D01*
X103495298Y-76404701D01*
X103437941Y-76366376D01*
X101427000Y-74355436D01*
X101427000Y-74335499D01*
X101301097Y-74031542D01*
X101068458Y-73798903D01*
X100764501Y-73673000D01*
X100435499Y-73673000D01*
X100131542Y-73798903D01*
X99898903Y-74031542D01*
X99773000Y-74335499D01*
X99773000Y-74664501D01*
X99898903Y-74968458D01*
X100131542Y-75201097D01*
X100435499Y-75327000D01*
X100455436Y-75327000D01*
X102313000Y-77184565D01*
X102313001Y-79293089D01*
X102264501Y-79273000D01*
X102244565Y-79273000D01*
X98587000Y-75615436D01*
X98587000Y-73982555D01*
X98601097Y-73968458D01*
X98727000Y-73664501D01*
X98727000Y-73335499D01*
X98601097Y-73031542D01*
X98368458Y-72798903D01*
X98064501Y-72673000D01*
X97735499Y-72673000D01*
X97431542Y-72798903D01*
X97198903Y-73031542D01*
X97073000Y-73335499D01*
X97073000Y-73664501D01*
X97198903Y-73968458D01*
X97213000Y-73982555D01*
X97213001Y-75832337D01*
X97199542Y-75900000D01*
X97252861Y-76168054D01*
X97366373Y-76337937D01*
X97366375Y-76337939D01*
X97404702Y-76395299D01*
X97462062Y-76433626D01*
X101273000Y-80244565D01*
X101273000Y-80264501D01*
X101398903Y-80568458D01*
X101631542Y-80801097D01*
X101935499Y-80927000D01*
X102173000Y-80927000D01*
X102173000Y-81064501D01*
X102182276Y-81086895D01*
X100820911Y-80523000D01*
X99179089Y-80523000D01*
X97662242Y-81151298D01*
X96501298Y-82312242D01*
X95873000Y-83829089D01*
X92942469Y-83829089D01*
X93344559Y-83427000D01*
X93364495Y-83427000D01*
X93668452Y-83301097D01*
X93901091Y-83068458D01*
X94026994Y-82764501D01*
X94026994Y-82435499D01*
X93901091Y-82131542D01*
X93668452Y-81898903D01*
X93580016Y-81862271D01*
X93773829Y-81668458D01*
X93899732Y-81364501D01*
X93899732Y-81035499D01*
X93808784Y-80815931D01*
X93835493Y-80826994D01*
X94164495Y-80826994D01*
X94468452Y-80701091D01*
X94701091Y-80468452D01*
X94826994Y-80164495D01*
X94826994Y-79840634D01*
X95035500Y-79927000D01*
X95364502Y-79927000D01*
X95668459Y-79801097D01*
X95901098Y-79568458D01*
X96027001Y-79264501D01*
X96027001Y-79040639D01*
X96235499Y-79127002D01*
X96564501Y-79127002D01*
X96868458Y-79001099D01*
X97050001Y-78819556D01*
X97231542Y-79001097D01*
X97535499Y-79127000D01*
X97864501Y-79127000D01*
X98168458Y-79001097D01*
X98401097Y-78768458D01*
X98527000Y-78464501D01*
X98527000Y-78135499D01*
X98401097Y-77831542D01*
X98168458Y-77598903D01*
X97864501Y-77473000D01*
X97844565Y-77473000D01*
X97333627Y-76962063D01*
X97295299Y-76904701D01*
X97068054Y-76752860D01*
X96867663Y-76713000D01*
X96867658Y-76713000D01*
X96800000Y-76699542D01*
X96732342Y-76713000D01*
X91267657Y-76713000D01*
X91199999Y-76699542D01*
X91132341Y-76713000D01*
X91132337Y-76713000D01*
X90931946Y-76752860D01*
X90931944Y-76752861D01*
X90931945Y-76752861D01*
X90762062Y-76866373D01*
X90762061Y-76866374D01*
X90704701Y-76904701D01*
X90666374Y-76962061D01*
X89255436Y-78373000D01*
X89235499Y-78373000D01*
X88931542Y-78498903D01*
X88698903Y-78731542D01*
X88573000Y-79035499D01*
X88573000Y-79364501D01*
X88698903Y-79668458D01*
X88931542Y-79901097D01*
X89235499Y-80027000D01*
X89301436Y-80027000D01*
X89255436Y-80073000D01*
X89235499Y-80073000D01*
X88931542Y-80198903D01*
X88698903Y-80431542D01*
X88573000Y-80735499D01*
X88573000Y-81064501D01*
X88698903Y-81368458D01*
X88780445Y-81450000D01*
X88598903Y-81631542D01*
X88473000Y-81935499D01*
X74902000Y-81935499D01*
X74902000Y-75035499D01*
X85273000Y-75035499D01*
X85273000Y-75364501D01*
X85398903Y-75668458D01*
X85631542Y-75901097D01*
X85935499Y-76027000D01*
X86264501Y-76027000D01*
X86485404Y-75935499D01*
X87473000Y-75935499D01*
X87473000Y-76264501D01*
X87598903Y-76568458D01*
X87831542Y-76801097D01*
X88135499Y-76927000D01*
X88464501Y-76927000D01*
X88768458Y-76801097D01*
X89001097Y-76568458D01*
X89127000Y-76264501D01*
X89127000Y-76244564D01*
X91184565Y-74187000D01*
X92817445Y-74187000D01*
X92831542Y-74201097D01*
X93135499Y-74327000D01*
X93464501Y-74327000D01*
X93768458Y-74201097D01*
X94001097Y-73968458D01*
X94127000Y-73664501D01*
X94127000Y-73335499D01*
X94001097Y-73031542D01*
X93768458Y-72798903D01*
X93464501Y-72673000D01*
X93135499Y-72673000D01*
X92831542Y-72798903D01*
X92817445Y-72813000D01*
X90967658Y-72813000D01*
X90899999Y-72799542D01*
X90832341Y-72813000D01*
X90832337Y-72813000D01*
X90631946Y-72852860D01*
X90631944Y-72852861D01*
X90631945Y-72852861D01*
X90462062Y-72966373D01*
X90462061Y-72966374D01*
X90404701Y-73004701D01*
X90366374Y-73062061D01*
X88155436Y-75273000D01*
X88135499Y-75273000D01*
X87831542Y-75398903D01*
X87598903Y-75631542D01*
X87473000Y-75935499D01*
X86485404Y-75935499D01*
X86568458Y-75901097D01*
X86580229Y-75889326D01*
X86591922Y-75887000D01*
X86591927Y-75887000D01*
X86792318Y-75847140D01*
X87019563Y-75695299D01*
X87057892Y-75637936D01*
X90608829Y-72087000D01*
X95332342Y-72087000D01*
X95400000Y-72100458D01*
X95467658Y-72087000D01*
X95467663Y-72087000D01*
X95668054Y-72047140D01*
X95895299Y-71895299D01*
X95933628Y-71837936D01*
X96744565Y-71027000D01*
X96764501Y-71027000D01*
X97068458Y-70901097D01*
X97301097Y-70668458D01*
X97427000Y-70364501D01*
X97427000Y-70035499D01*
X97301097Y-69731542D01*
X97068458Y-69498903D01*
X96764501Y-69373000D01*
X96498563Y-69373000D01*
X98137941Y-67733622D01*
X98195298Y-67695297D01*
X98233623Y-67637940D01*
X98233627Y-67637936D01*
X98347139Y-67468053D01*
X98347140Y-67468052D01*
X98387000Y-67267661D01*
X98387000Y-67267657D01*
X98400458Y-67199999D01*
X98387000Y-67132340D01*
X98387000Y-63135499D01*
X98573000Y-63135499D01*
X98573000Y-63464501D01*
X98698903Y-63768458D01*
X98931542Y-64001097D01*
X99235499Y-64127000D01*
X99255436Y-64127000D01*
X99513000Y-64384565D01*
X99513001Y-67808069D01*
X99513000Y-67808074D01*
X99513000Y-67817445D01*
X99498903Y-67831542D01*
X99373000Y-68135499D01*
X99373000Y-68464501D01*
X99498903Y-68768458D01*
X99731542Y-69001097D01*
X100035499Y-69127000D01*
X100364501Y-69127000D01*
X100668458Y-69001097D01*
X100901097Y-68768458D01*
X101027000Y-68464501D01*
X101027000Y-68135499D01*
X100901097Y-67831542D01*
X100887000Y-67817445D01*
X100887000Y-66535499D01*
X103073000Y-66535499D01*
X103073000Y-66864501D01*
X103198903Y-67168458D01*
X103380445Y-67350000D01*
X103198903Y-67531542D01*
X103073000Y-67835499D01*
X103073000Y-68164501D01*
X103198903Y-68468458D01*
X103380445Y-68650000D01*
X103198903Y-68831542D01*
X103073000Y-69135499D01*
X103073000Y-69464501D01*
X103198903Y-69768458D01*
X103330445Y-69900000D01*
X103198903Y-70031542D01*
X103073000Y-70335499D01*
X103073000Y-70664501D01*
X103198903Y-70968458D01*
X103431542Y-71201097D01*
X103735499Y-71327000D01*
X104064501Y-71327000D01*
X104368458Y-71201097D01*
X104382555Y-71187000D01*
X106132342Y-71187000D01*
X106200000Y-71200458D01*
X106267658Y-71187000D01*
X106267663Y-71187000D01*
X106468054Y-71147140D01*
X106695299Y-70995299D01*
X106733628Y-70937936D01*
X107184564Y-70487000D01*
X108041436Y-70487000D01*
X106215436Y-72313000D01*
X104382555Y-72313000D01*
X104368458Y-72298903D01*
X104064501Y-72173000D01*
X103735499Y-72173000D01*
X103431542Y-72298903D01*
X103198903Y-72531542D01*
X103073000Y-72835499D01*
X103073000Y-73164501D01*
X103198903Y-73468458D01*
X103380445Y-73650000D01*
X103198903Y-73831542D01*
X103073000Y-74135499D01*
X103073000Y-74464501D01*
X103198903Y-74768458D01*
X103431542Y-75001097D01*
X103735499Y-75127000D01*
X104064501Y-75127000D01*
X104368458Y-75001097D01*
X104382555Y-74987000D01*
X105941436Y-74987000D01*
X104555436Y-76373000D01*
X104535499Y-76373000D01*
X104231542Y-76498903D01*
X103998903Y-76731542D01*
X103873000Y-77035499D01*
X103873000Y-77364501D01*
X103998903Y-77668458D01*
X104231542Y-77901097D01*
X104535499Y-78027000D01*
X104864501Y-78027000D01*
X105168458Y-77901097D01*
X105401097Y-77668458D01*
X105527000Y-77364501D01*
X105527000Y-77344564D01*
X109084565Y-73787000D01*
X110817445Y-73787000D01*
X110831542Y-73801097D01*
X111135499Y-73927000D01*
X111464501Y-73927000D01*
X111768458Y-73801097D01*
X112001097Y-73568458D01*
X112127000Y-73264501D01*
X112127000Y-72935499D01*
X112044158Y-72735499D01*
X117773000Y-72735499D01*
X117773000Y-73064501D01*
X117898903Y-73368458D01*
X117913000Y-73382555D01*
X117913001Y-77132337D01*
X117899542Y-77200000D01*
X117952861Y-77468054D01*
X118066373Y-77637937D01*
X118066375Y-77637939D01*
X118104702Y-77695299D01*
X118162061Y-77733626D01*
X118573000Y-78144565D01*
X118573000Y-78164501D01*
X118698903Y-78468458D01*
X118931542Y-78701097D01*
X119235499Y-78827000D01*
X119564501Y-78827000D01*
X119868458Y-78701097D01*
X120101097Y-78468458D01*
X120227000Y-78164501D01*
X120227000Y-77835499D01*
X120101097Y-77531542D01*
X119868458Y-77298903D01*
X119564501Y-77173000D01*
X119544565Y-77173000D01*
X119287000Y-76915436D01*
X119287000Y-73382555D01*
X119301097Y-73368458D01*
X119427000Y-73064501D01*
X119427000Y-72735499D01*
X119301097Y-72431542D01*
X119068458Y-72198903D01*
X118764501Y-72073000D01*
X118435499Y-72073000D01*
X118131542Y-72198903D01*
X117898903Y-72431542D01*
X117773000Y-72735499D01*
X112044158Y-72735499D01*
X112001097Y-72631542D01*
X111919555Y-72550000D01*
X112001097Y-72468458D01*
X112127000Y-72164501D01*
X112127000Y-71835499D01*
X112001097Y-71531542D01*
X111919558Y-71450003D01*
X112001103Y-71368458D01*
X112127006Y-71064501D01*
X112127006Y-70735499D01*
X112001103Y-70431542D01*
X111919558Y-70349997D01*
X112001097Y-70268458D01*
X112127000Y-69964501D01*
X112127000Y-69635499D01*
X112001097Y-69331542D01*
X111768458Y-69098903D01*
X111600198Y-69029207D01*
X111627000Y-68964501D01*
X111627000Y-68635499D01*
X111501097Y-68331542D01*
X111268458Y-68098903D01*
X111128588Y-68040967D01*
X111201097Y-67968458D01*
X111327000Y-67664501D01*
X111327000Y-67335499D01*
X111201097Y-67031542D01*
X110968458Y-66798903D01*
X110664501Y-66673000D01*
X110623480Y-66673000D01*
X110627000Y-66664501D01*
X110627000Y-66335499D01*
X110501097Y-66031542D01*
X110268458Y-65798903D01*
X109964501Y-65673000D01*
X109635499Y-65673000D01*
X109379569Y-65779010D01*
X109427000Y-65664501D01*
X109427000Y-65335499D01*
X109301097Y-65031542D01*
X109068458Y-64798903D01*
X108764501Y-64673000D01*
X108435499Y-64673000D01*
X108131542Y-64798903D01*
X107898903Y-65031542D01*
X107773000Y-65335499D01*
X107773000Y-65664501D01*
X107898903Y-65968458D01*
X107943445Y-66013000D01*
X104382555Y-66013000D01*
X104368458Y-65998903D01*
X104064501Y-65873000D01*
X103735499Y-65873000D01*
X103431542Y-65998903D01*
X103198903Y-66231542D01*
X103073000Y-66535499D01*
X100887000Y-66535499D01*
X100887000Y-64167658D01*
X100900458Y-64100000D01*
X100887000Y-64032341D01*
X100887000Y-64032337D01*
X100847140Y-63831946D01*
X100804718Y-63768458D01*
X100733627Y-63662062D01*
X100733623Y-63662058D01*
X100695298Y-63604701D01*
X100637941Y-63566376D01*
X100227000Y-63155436D01*
X100227000Y-63135499D01*
X100101097Y-62831542D01*
X99868458Y-62598903D01*
X99564501Y-62473000D01*
X99235499Y-62473000D01*
X98931542Y-62598903D01*
X98698903Y-62831542D01*
X98573000Y-63135499D01*
X98387000Y-63135499D01*
X98387000Y-62882555D01*
X98401097Y-62868458D01*
X98527000Y-62564501D01*
X98527000Y-62235499D01*
X98401097Y-61931542D01*
X98168458Y-61698903D01*
X97864501Y-61573000D01*
X97535499Y-61573000D01*
X97231542Y-61698903D01*
X97187000Y-61743445D01*
X97187000Y-61682555D01*
X97201097Y-61668458D01*
X97256170Y-61535499D01*
X108773000Y-61535499D01*
X108773000Y-61864501D01*
X108898903Y-62168458D01*
X109131542Y-62401097D01*
X109435499Y-62527000D01*
X109764501Y-62527000D01*
X110068458Y-62401097D01*
X110082555Y-62387000D01*
X112317445Y-62387000D01*
X112331542Y-62401097D01*
X112635499Y-62527000D01*
X112964501Y-62527000D01*
X113268458Y-62401097D01*
X113282555Y-62387000D01*
X116217445Y-62387000D01*
X116231542Y-62401097D01*
X116535499Y-62527000D01*
X116864501Y-62527000D01*
X117168458Y-62401097D01*
X117401097Y-62168458D01*
X117527000Y-61864501D01*
X117527000Y-61535499D01*
X117401097Y-61231542D01*
X117168458Y-60998903D01*
X116864501Y-60873000D01*
X116535499Y-60873000D01*
X116231542Y-60998903D01*
X116217445Y-61013000D01*
X113282555Y-61013000D01*
X113268458Y-60998903D01*
X112964501Y-60873000D01*
X112635499Y-60873000D01*
X112331542Y-60998903D01*
X112317445Y-61013000D01*
X110082555Y-61013000D01*
X110068458Y-60998903D01*
X109764501Y-60873000D01*
X109435499Y-60873000D01*
X109131542Y-60998903D01*
X108898903Y-61231542D01*
X108773000Y-61535499D01*
X97256170Y-61535499D01*
X97327000Y-61364501D01*
X97327000Y-61035499D01*
X97201097Y-60731542D01*
X96968458Y-60498903D01*
X96664501Y-60373000D01*
X96335499Y-60373000D01*
X96031542Y-60498903D01*
X95887000Y-60643445D01*
X95887000Y-60282555D01*
X95901097Y-60268458D01*
X96027000Y-59964501D01*
X96027000Y-59635499D01*
X95901097Y-59331542D01*
X95885979Y-59316424D01*
X98323000Y-59316424D01*
X98323000Y-59983576D01*
X98578308Y-60599944D01*
X99050056Y-61071692D01*
X99666424Y-61327000D01*
X100333576Y-61327000D01*
X100949944Y-61071692D01*
X101421692Y-60599944D01*
X101677000Y-59983576D01*
X101677000Y-59316424D01*
X101421692Y-58700056D01*
X100949944Y-58228308D01*
X100333576Y-57973000D01*
X99666424Y-57973000D01*
X99050056Y-58228308D01*
X98578308Y-58700056D01*
X98323000Y-59316424D01*
X95885979Y-59316424D01*
X95668458Y-59098903D01*
X95364501Y-58973000D01*
X95035499Y-58973000D01*
X94731542Y-59098903D01*
X94498903Y-59331542D01*
X94373000Y-59635499D01*
X94373000Y-59964501D01*
X94498903Y-60268458D01*
X94513000Y-60282555D01*
X94513001Y-65641436D01*
X92233628Y-63362064D01*
X92195299Y-63304701D01*
X91968054Y-63152860D01*
X91767663Y-63113000D01*
X91767658Y-63113000D01*
X91700000Y-63099542D01*
X91632342Y-63113000D01*
X88282555Y-63113000D01*
X88268458Y-63098903D01*
X87964501Y-62973000D01*
X87635499Y-62973000D01*
X87331542Y-63098903D01*
X87098903Y-63331542D01*
X86973000Y-63635499D01*
X86973000Y-63964501D01*
X87098903Y-64268458D01*
X87331542Y-64501097D01*
X87635499Y-64627000D01*
X87964501Y-64627000D01*
X88268458Y-64501097D01*
X88282555Y-64487000D01*
X91415436Y-64487000D01*
X92699280Y-65770845D01*
X92631542Y-65798903D01*
X92617445Y-65813000D01*
X90484565Y-65813000D01*
X89927000Y-65255436D01*
X89927000Y-65235499D01*
X89801097Y-64931542D01*
X89568458Y-64698903D01*
X89264501Y-64573000D01*
X88935499Y-64573000D01*
X88631542Y-64698903D01*
X88398903Y-64931542D01*
X88273000Y-65235499D01*
X88273000Y-65564501D01*
X88398903Y-65868458D01*
X88631542Y-66101097D01*
X88935499Y-66227000D01*
X88955436Y-66227000D01*
X89666374Y-66937939D01*
X89704701Y-66995299D01*
X89762061Y-67033626D01*
X89762062Y-67033627D01*
X89813001Y-67067663D01*
X89931946Y-67147140D01*
X90132337Y-67187000D01*
X90132341Y-67187000D01*
X90200000Y-67200458D01*
X90267658Y-67187000D01*
X92617445Y-67187000D01*
X92631542Y-67201097D01*
X92935499Y-67327000D01*
X93264501Y-67327000D01*
X93568458Y-67201097D01*
X93750000Y-67019555D01*
X93931542Y-67201097D01*
X93958514Y-67212269D01*
X93831542Y-67264863D01*
X93598903Y-67497502D01*
X93473000Y-67801459D01*
X93473000Y-68130461D01*
X93598903Y-68434418D01*
X93747465Y-68582980D01*
X93598903Y-68731542D01*
X93473000Y-69035499D01*
X93473000Y-69364501D01*
X93598903Y-69668458D01*
X93830444Y-69899999D01*
X93598903Y-70131540D01*
X93473000Y-70435497D01*
X93473000Y-70713000D01*
X90391924Y-70713000D01*
X90324264Y-70699542D01*
X90256604Y-70713000D01*
X90256601Y-70713000D01*
X90056210Y-70752860D01*
X89886326Y-70866373D01*
X89886325Y-70866374D01*
X89828965Y-70904701D01*
X89790638Y-70962061D01*
X86345959Y-74406741D01*
X86264501Y-74373000D01*
X85935499Y-74373000D01*
X85631542Y-74498903D01*
X85398903Y-74731542D01*
X85273000Y-75035499D01*
X74902000Y-75035499D01*
X74902000Y-65935499D01*
X80173000Y-65935499D01*
X80173000Y-66264501D01*
X80298903Y-66568458D01*
X80531542Y-66801097D01*
X80835499Y-66927000D01*
X80855436Y-66927000D01*
X83113001Y-69184566D01*
X83113000Y-69517445D01*
X83098903Y-69531542D01*
X82973000Y-69835499D01*
X82973000Y-70164501D01*
X83098903Y-70468458D01*
X83331542Y-70701097D01*
X83635499Y-70827000D01*
X83964501Y-70827000D01*
X84268458Y-70701097D01*
X84501097Y-70468458D01*
X84627000Y-70164501D01*
X84627000Y-69835499D01*
X84501097Y-69531542D01*
X84487000Y-69517445D01*
X84487000Y-68967658D01*
X84500458Y-68900000D01*
X84487000Y-68832341D01*
X84487000Y-68832337D01*
X84447140Y-68631946D01*
X84380322Y-68531946D01*
X84333627Y-68462062D01*
X84333626Y-68462061D01*
X84295299Y-68404701D01*
X84237939Y-68366374D01*
X81827000Y-65955436D01*
X81827000Y-65935499D01*
X81701097Y-65631542D01*
X81468458Y-65398903D01*
X81164501Y-65273000D01*
X80835499Y-65273000D01*
X80531542Y-65398903D01*
X80298903Y-65631542D01*
X80173000Y-65935499D01*
X74902000Y-65935499D01*
X74902000Y-64235499D01*
X80073000Y-64235499D01*
X80073000Y-64564501D01*
X80198903Y-64868458D01*
X80431542Y-65101097D01*
X80735499Y-65227000D01*
X81064501Y-65227000D01*
X81368458Y-65101097D01*
X81382555Y-65087000D01*
X82392238Y-65087000D01*
X84843176Y-67537939D01*
X84881503Y-67595299D01*
X84938863Y-67633626D01*
X84938864Y-67633627D01*
X85108747Y-67747140D01*
X85156242Y-67756587D01*
X85309139Y-67787000D01*
X85309142Y-67787000D01*
X85376802Y-67800458D01*
X85444462Y-67787000D01*
X85615436Y-67787000D01*
X86073000Y-68244565D01*
X86073000Y-68264501D01*
X86198903Y-68568458D01*
X86431542Y-68801097D01*
X86735499Y-68927000D01*
X87064501Y-68927000D01*
X87368458Y-68801097D01*
X87601097Y-68568458D01*
X87727000Y-68264501D01*
X87727000Y-67935499D01*
X87601097Y-67631542D01*
X87428588Y-67459033D01*
X87568458Y-67401097D01*
X87801097Y-67168458D01*
X87927000Y-66864501D01*
X87927000Y-66535499D01*
X87801097Y-66231542D01*
X87568458Y-65998903D01*
X87264501Y-65873000D01*
X87244565Y-65873000D01*
X84800366Y-63428802D01*
X84827000Y-63364501D01*
X84827000Y-63035499D01*
X84701097Y-62731542D01*
X84468458Y-62498903D01*
X84164501Y-62373000D01*
X83835499Y-62373000D01*
X83531542Y-62498903D01*
X83298903Y-62731542D01*
X83173000Y-63035499D01*
X83173000Y-63364501D01*
X83298903Y-63668458D01*
X83316698Y-63686253D01*
X83352860Y-63868053D01*
X83377348Y-63904701D01*
X83462632Y-64032337D01*
X83504701Y-64095298D01*
X83562061Y-64133625D01*
X85839927Y-66411491D01*
X85832342Y-66413000D01*
X85661367Y-66413000D01*
X83210430Y-63962064D01*
X83172101Y-63904701D01*
X82944856Y-63752860D01*
X82744465Y-63713000D01*
X82744460Y-63713000D01*
X82676802Y-63699542D01*
X82609144Y-63713000D01*
X81382555Y-63713000D01*
X81368458Y-63698903D01*
X81064501Y-63573000D01*
X80735499Y-63573000D01*
X80431542Y-63698903D01*
X80198903Y-63931542D01*
X80073000Y-64235499D01*
X74902000Y-64235499D01*
X74902000Y-61835499D01*
X88273000Y-61835499D01*
X88273000Y-62164501D01*
X88398903Y-62468458D01*
X88631542Y-62701097D01*
X88935499Y-62827000D01*
X89264501Y-62827000D01*
X89568458Y-62701097D01*
X89582555Y-62687000D01*
X92317461Y-62687000D01*
X92431558Y-62801097D01*
X92735515Y-62927000D01*
X93064517Y-62927000D01*
X93368474Y-62801097D01*
X93601113Y-62568458D01*
X93727016Y-62264501D01*
X93727016Y-61935499D01*
X93601113Y-61631542D01*
X93368474Y-61398903D01*
X93064517Y-61273000D01*
X92735515Y-61273000D01*
X92638946Y-61313000D01*
X89582555Y-61313000D01*
X89568458Y-61298903D01*
X89264501Y-61173000D01*
X88935499Y-61173000D01*
X88631542Y-61298903D01*
X88398903Y-61531542D01*
X88273000Y-61835499D01*
X74902000Y-61835499D01*
X74902000Y-59796261D01*
X75073000Y-59796261D01*
X75073000Y-60403739D01*
X75305472Y-60964976D01*
X75735024Y-61394528D01*
X76296261Y-61627000D01*
X76903739Y-61627000D01*
X77464976Y-61394528D01*
X77894528Y-60964976D01*
X78127000Y-60403739D01*
X78127000Y-59796261D01*
X77894528Y-59235024D01*
X77464976Y-58805472D01*
X76903739Y-58573000D01*
X76296261Y-58573000D01*
X75735024Y-58805472D01*
X75305472Y-59235024D01*
X75073000Y-59796261D01*
X74902000Y-59796261D01*
X74902000Y-56235499D01*
X86173000Y-56235499D01*
X86173000Y-56564501D01*
X86298903Y-56868458D01*
X86313000Y-56882555D01*
X86313001Y-57817442D01*
X86298903Y-57831540D01*
X86173000Y-58135497D01*
X86173000Y-58464499D01*
X86298903Y-58768456D01*
X86531542Y-59001095D01*
X86835499Y-59126998D01*
X87164501Y-59126998D01*
X87468458Y-59001095D01*
X87701097Y-58768456D01*
X87827000Y-58464499D01*
X87827000Y-58135497D01*
X87701097Y-57831540D01*
X87687000Y-57817443D01*
X87687000Y-56882555D01*
X87701097Y-56868458D01*
X87827000Y-56564501D01*
X87827000Y-56235499D01*
X87701097Y-55931542D01*
X87468458Y-55698903D01*
X87164501Y-55573000D01*
X86835499Y-55573000D01*
X86531542Y-55698903D01*
X86298903Y-55931542D01*
X86173000Y-56235499D01*
X74902000Y-56235499D01*
X74902000Y-54535499D01*
X93473000Y-54535499D01*
X93473000Y-54864501D01*
X93598903Y-55168458D01*
X93831542Y-55401097D01*
X94135499Y-55527000D01*
X94464501Y-55527000D01*
X94768458Y-55401097D01*
X94782555Y-55387000D01*
X98615436Y-55387000D01*
X101473000Y-58244565D01*
X101473000Y-58264501D01*
X101598903Y-58568458D01*
X101831542Y-58801097D01*
X102135499Y-58927000D01*
X102464501Y-58927000D01*
X102768458Y-58801097D01*
X103001097Y-58568458D01*
X103127000Y-58264501D01*
X103127000Y-57935499D01*
X103001097Y-57631542D01*
X102768458Y-57398903D01*
X102464501Y-57273000D01*
X102444565Y-57273000D01*
X99433628Y-54262064D01*
X99395299Y-54204701D01*
X99168054Y-54052860D01*
X98967663Y-54013000D01*
X98967658Y-54013000D01*
X98900000Y-53999542D01*
X98832342Y-54013000D01*
X94782555Y-54013000D01*
X94768458Y-53998903D01*
X94464501Y-53873000D01*
X94135499Y-53873000D01*
X93831542Y-53998903D01*
X93598903Y-54231542D01*
X93473000Y-54535499D01*
X74902000Y-54535499D01*
X74902000Y-47600000D01*
X75252880Y-47600000D01*
X75273000Y-47701150D01*
X75273001Y-49301150D01*
X75332588Y-49600715D01*
X75559575Y-49940426D01*
X75899286Y-50167413D01*
X76300000Y-50247120D01*
X76700715Y-50167413D01*
X77040426Y-49940426D01*
X77267413Y-49600715D01*
X77327000Y-49301150D01*
X77327000Y-49200000D01*
X77352880Y-49200000D01*
X77432587Y-49600715D01*
X77659574Y-49940426D01*
X77999285Y-50167413D01*
X78298850Y-50227000D01*
X81367496Y-50227000D01*
X81635024Y-50494528D01*
X82196261Y-50727000D01*
X82803739Y-50727000D01*
X83364976Y-50494528D01*
X83794528Y-50064976D01*
X84027000Y-49503739D01*
X84027000Y-48896261D01*
X83794528Y-48335024D01*
X83364976Y-47905472D01*
X82803739Y-47673000D01*
X82196261Y-47673000D01*
X81635024Y-47905472D01*
X81367496Y-48173000D01*
X78298850Y-48173000D01*
X77999285Y-48232587D01*
X77659574Y-48459574D01*
X77432587Y-48799285D01*
X77352880Y-49200000D01*
X77327000Y-49200000D01*
X77327000Y-48025396D01*
X77625397Y-47727000D01*
X78698851Y-47727000D01*
X78800000Y-47747120D01*
X78901149Y-47727000D01*
X78901150Y-47727000D01*
X79200715Y-47667413D01*
X79540426Y-47440426D01*
X79597726Y-47354670D01*
X81225397Y-45727000D01*
X81367496Y-45727000D01*
X81635024Y-45994528D01*
X82196261Y-46227000D01*
X82803739Y-46227000D01*
X83364976Y-45994528D01*
X83794528Y-45564976D01*
X83821441Y-45500000D01*
X98852880Y-45500000D01*
X98873001Y-45601154D01*
X98873000Y-50301149D01*
X98873001Y-50301154D01*
X98873000Y-52698851D01*
X98852880Y-52800000D01*
X98873000Y-52901149D01*
X98932587Y-53200714D01*
X99159574Y-53540426D01*
X99245330Y-53597726D01*
X103902275Y-58254672D01*
X103959574Y-58340426D01*
X104089142Y-58427000D01*
X104299283Y-58567412D01*
X104299284Y-58567412D01*
X104299285Y-58567413D01*
X104598850Y-58627000D01*
X104699999Y-58647120D01*
X104801148Y-58627000D01*
X105701150Y-58627000D01*
X106000715Y-58567413D01*
X106340426Y-58340426D01*
X106567413Y-58000715D01*
X106647120Y-57600000D01*
X106567413Y-57199285D01*
X106340426Y-56859574D01*
X106000715Y-56632587D01*
X105701150Y-56573000D01*
X105125397Y-56573000D01*
X100927000Y-52374604D01*
X100927000Y-52000000D01*
X101652880Y-52000000D01*
X101673000Y-52101149D01*
X101732587Y-52400714D01*
X101959574Y-52740426D01*
X102045330Y-52797726D01*
X104802277Y-55554675D01*
X104859574Y-55640426D01*
X104945324Y-55697722D01*
X105199283Y-55867412D01*
X105199284Y-55867412D01*
X105199285Y-55867413D01*
X105498850Y-55927000D01*
X105599999Y-55947120D01*
X105701148Y-55927000D01*
X112698851Y-55927000D01*
X112800000Y-55947120D01*
X112901149Y-55927000D01*
X112901150Y-55927000D01*
X113200715Y-55867413D01*
X113540426Y-55640426D01*
X113597727Y-55554669D01*
X113825396Y-55327000D01*
X120201150Y-55327000D01*
X120500715Y-55267413D01*
X120840426Y-55040426D01*
X121067413Y-54700715D01*
X121147120Y-54300000D01*
X121067413Y-53899285D01*
X120840426Y-53559574D01*
X120500715Y-53332587D01*
X120201150Y-53273000D01*
X113501148Y-53273000D01*
X113399999Y-53252880D01*
X113298850Y-53273000D01*
X112999285Y-53332587D01*
X112999284Y-53332588D01*
X112999283Y-53332588D01*
X112952633Y-53363759D01*
X112659574Y-53559574D01*
X112602273Y-53645331D01*
X112374604Y-53873000D01*
X106025398Y-53873000D01*
X103727000Y-51574604D01*
X103727000Y-50898850D01*
X103667413Y-50599285D01*
X103440426Y-50259574D01*
X103404396Y-50235499D01*
X107273000Y-50235499D01*
X107273000Y-50564501D01*
X107398903Y-50868458D01*
X107413000Y-50882555D01*
X107413000Y-51256608D01*
X107399542Y-51324266D01*
X107413000Y-51391924D01*
X107413000Y-51391928D01*
X107452860Y-51592319D01*
X107604701Y-51819564D01*
X107662061Y-51857891D01*
X109142108Y-53337939D01*
X109180435Y-53395299D01*
X109237795Y-53433626D01*
X109237796Y-53433627D01*
X109296722Y-53473000D01*
X109407680Y-53547140D01*
X109608071Y-53587000D01*
X109608075Y-53587000D01*
X109619769Y-53589326D01*
X109631540Y-53601097D01*
X109935497Y-53727000D01*
X110264499Y-53727000D01*
X110568456Y-53601097D01*
X110801095Y-53368458D01*
X110926998Y-53064501D01*
X110926998Y-52735499D01*
X110801095Y-52431542D01*
X110568456Y-52198903D01*
X110382513Y-52121883D01*
X110426992Y-52014501D01*
X110426992Y-51685499D01*
X110301089Y-51381542D01*
X110286992Y-51367445D01*
X110286992Y-50967652D01*
X110300450Y-50899992D01*
X110286992Y-50832332D01*
X110286992Y-50832329D01*
X110247132Y-50631938D01*
X110095291Y-50404693D01*
X110037928Y-50366364D01*
X109927000Y-50255436D01*
X109927000Y-50235499D01*
X109801097Y-49931542D01*
X109568458Y-49698903D01*
X109264501Y-49573000D01*
X108935499Y-49573000D01*
X108631542Y-49698903D01*
X108600000Y-49730445D01*
X108568458Y-49698903D01*
X108264501Y-49573000D01*
X107935499Y-49573000D01*
X107631542Y-49698903D01*
X107398903Y-49931542D01*
X107273000Y-50235499D01*
X103404396Y-50235499D01*
X103100715Y-50032587D01*
X102700000Y-49952880D01*
X102299286Y-50032587D01*
X101959575Y-50259574D01*
X101732588Y-50599285D01*
X101673001Y-50898850D01*
X101673000Y-51898850D01*
X101652880Y-52000000D01*
X100927000Y-52000000D01*
X100927000Y-45925396D01*
X101156135Y-45696261D01*
X101773000Y-45696261D01*
X101773000Y-46303739D01*
X102005472Y-46864976D01*
X102435024Y-47294528D01*
X102996261Y-47527000D01*
X103603739Y-47527000D01*
X104164976Y-47294528D01*
X104594528Y-46864976D01*
X104827000Y-46303739D01*
X104827000Y-45696261D01*
X104973000Y-45696261D01*
X104973000Y-46303739D01*
X105205472Y-46864976D01*
X105635024Y-47294528D01*
X106196261Y-47527000D01*
X106803739Y-47527000D01*
X106981715Y-47453280D01*
X107201435Y-47673000D01*
X107035499Y-47673000D01*
X106731542Y-47798903D01*
X106498903Y-48031542D01*
X106373000Y-48335499D01*
X106373000Y-48664501D01*
X106498903Y-48968458D01*
X106731542Y-49201097D01*
X107035499Y-49327000D01*
X107364501Y-49327000D01*
X107668458Y-49201097D01*
X107682555Y-49187000D01*
X109917445Y-49187000D01*
X109931542Y-49201097D01*
X110235499Y-49327000D01*
X110564501Y-49327000D01*
X110868458Y-49201097D01*
X111101097Y-48968458D01*
X111227000Y-48664501D01*
X111227000Y-48435499D01*
X112773000Y-48435499D01*
X112773000Y-48764501D01*
X112898903Y-49068458D01*
X112913000Y-49082555D01*
X112913001Y-51717444D01*
X112898903Y-51731542D01*
X112773000Y-52035499D01*
X112773000Y-52364501D01*
X112898903Y-52668458D01*
X113131542Y-52901097D01*
X113435499Y-53027000D01*
X113764501Y-53027000D01*
X114068458Y-52901097D01*
X114199999Y-52769556D01*
X114431542Y-53001099D01*
X114735499Y-53127002D01*
X115064501Y-53127002D01*
X115368458Y-53001099D01*
X115601097Y-52768460D01*
X115727000Y-52464503D01*
X115727000Y-52135501D01*
X115601097Y-51831544D01*
X115587000Y-51817447D01*
X115587000Y-51435499D01*
X119273000Y-51435499D01*
X119273000Y-51764501D01*
X119398903Y-52068458D01*
X119631542Y-52301097D01*
X119935499Y-52427000D01*
X120264501Y-52427000D01*
X120568458Y-52301097D01*
X120801097Y-52068458D01*
X120927000Y-51764501D01*
X120927000Y-51435499D01*
X120801097Y-51131542D01*
X120568458Y-50898903D01*
X120264501Y-50773000D01*
X119935499Y-50773000D01*
X119631542Y-50898903D01*
X119398903Y-51131542D01*
X119273000Y-51435499D01*
X115587000Y-51435499D01*
X115587000Y-49282555D01*
X115601097Y-49268458D01*
X115727000Y-48964501D01*
X115727000Y-48635499D01*
X115601097Y-48331542D01*
X115368458Y-48098903D01*
X115064501Y-47973000D01*
X114735499Y-47973000D01*
X114431542Y-48098903D01*
X114329744Y-48200701D01*
X114301097Y-48131542D01*
X114068458Y-47898903D01*
X113764501Y-47773000D01*
X113435499Y-47773000D01*
X113131542Y-47898903D01*
X112898903Y-48131542D01*
X112773000Y-48435499D01*
X111227000Y-48435499D01*
X111227000Y-48427000D01*
X111464501Y-48427000D01*
X111768458Y-48301097D01*
X112001097Y-48068458D01*
X112127000Y-47764501D01*
X112127000Y-47435499D01*
X112001097Y-47131542D01*
X111768458Y-46898903D01*
X111464501Y-46773000D01*
X111135499Y-46773000D01*
X110831542Y-46898903D01*
X110817445Y-46913000D01*
X108384565Y-46913000D01*
X107953280Y-46481715D01*
X108027000Y-46303739D01*
X108027000Y-45696261D01*
X107794528Y-45135024D01*
X107364976Y-44705472D01*
X106803739Y-44473000D01*
X106196261Y-44473000D01*
X105635024Y-44705472D01*
X105205472Y-45135024D01*
X104973000Y-45696261D01*
X104827000Y-45696261D01*
X104594528Y-45135024D01*
X104164976Y-44705472D01*
X103603739Y-44473000D01*
X102996261Y-44473000D01*
X102435024Y-44705472D01*
X102005472Y-45135024D01*
X101773000Y-45696261D01*
X101156135Y-45696261D01*
X101597722Y-45254675D01*
X101767412Y-45000717D01*
X101847120Y-44600001D01*
X101767412Y-44199285D01*
X101540425Y-43859575D01*
X101491278Y-43826736D01*
X111612754Y-43826736D01*
X111728028Y-44057782D01*
X111703577Y-44094375D01*
X111662676Y-44300000D01*
X111662676Y-45300000D01*
X111703577Y-45505625D01*
X111820055Y-45679945D01*
X111994375Y-45796423D01*
X112200000Y-45837324D01*
X113200000Y-45837324D01*
X113405625Y-45796423D01*
X113509163Y-45727241D01*
X113569285Y-45767413D01*
X113868850Y-45827000D01*
X114071150Y-45827000D01*
X114370715Y-45767413D01*
X114605000Y-45610869D01*
X114839285Y-45767413D01*
X115138850Y-45827000D01*
X115341150Y-45827000D01*
X115640715Y-45767413D01*
X115875000Y-45610869D01*
X115948473Y-45659962D01*
X115495436Y-46113000D01*
X113382555Y-46113000D01*
X113368458Y-46098903D01*
X113064501Y-45973000D01*
X112735499Y-45973000D01*
X112431542Y-46098903D01*
X112198903Y-46331542D01*
X112073000Y-46635499D01*
X112073000Y-46964501D01*
X112198903Y-47268458D01*
X112431542Y-47501097D01*
X112735499Y-47627000D01*
X113064501Y-47627000D01*
X113368458Y-47501097D01*
X113382555Y-47487000D01*
X115712342Y-47487000D01*
X115780000Y-47500458D01*
X115847658Y-47487000D01*
X115847663Y-47487000D01*
X116048054Y-47447140D01*
X116275299Y-47295299D01*
X116313628Y-47237936D01*
X117724565Y-45827000D01*
X117881150Y-45827000D01*
X118180715Y-45767413D01*
X118520426Y-45540426D01*
X118747413Y-45200715D01*
X118827120Y-44800000D01*
X118747413Y-44399285D01*
X118643619Y-44243946D01*
X118670928Y-44220219D01*
X118867246Y-43826736D01*
X118743530Y-43653000D01*
X117903000Y-43653000D01*
X117903000Y-43673000D01*
X117657000Y-43673000D01*
X117657000Y-43653000D01*
X117637000Y-43653000D01*
X117637000Y-43407000D01*
X117657000Y-43407000D01*
X117657000Y-42567578D01*
X117903000Y-42567578D01*
X117903000Y-43407000D01*
X118743530Y-43407000D01*
X118867246Y-43233264D01*
X118670928Y-42839781D01*
X118338975Y-42551377D01*
X118076734Y-42442766D01*
X117903000Y-42567578D01*
X117657000Y-42567578D01*
X117483266Y-42442766D01*
X117221025Y-42551377D01*
X117078830Y-42674917D01*
X116910715Y-42562587D01*
X116611150Y-42503000D01*
X116408850Y-42503000D01*
X116109285Y-42562587D01*
X115875000Y-42719131D01*
X115640715Y-42562587D01*
X115341150Y-42503000D01*
X115138850Y-42503000D01*
X114839285Y-42562587D01*
X114605000Y-42719131D01*
X114370715Y-42562587D01*
X114071150Y-42503000D01*
X113868850Y-42503000D01*
X113569285Y-42562587D01*
X113401170Y-42674917D01*
X113258975Y-42551377D01*
X112996734Y-42442766D01*
X112823000Y-42567578D01*
X112823000Y-43407000D01*
X112843000Y-43407000D01*
X112843000Y-43653000D01*
X112823000Y-43653000D01*
X112823000Y-43673000D01*
X112577000Y-43673000D01*
X112577000Y-43653000D01*
X111736470Y-43653000D01*
X111612754Y-43826736D01*
X101491278Y-43826736D01*
X101200715Y-43632588D01*
X100799999Y-43552880D01*
X100399283Y-43632588D01*
X100145325Y-43802278D01*
X99245328Y-44702276D01*
X99159575Y-44759574D01*
X99102278Y-44845326D01*
X98932588Y-45099285D01*
X98852880Y-45500000D01*
X83821441Y-45500000D01*
X84027000Y-45003739D01*
X84027000Y-44396261D01*
X83794528Y-43835024D01*
X83364976Y-43405472D01*
X82949230Y-43233264D01*
X111612754Y-43233264D01*
X111736470Y-43407000D01*
X112577000Y-43407000D01*
X112577000Y-42567578D01*
X112403266Y-42442766D01*
X112141025Y-42551377D01*
X111809072Y-42839781D01*
X111612754Y-43233264D01*
X82949230Y-43233264D01*
X82803739Y-43173000D01*
X82196261Y-43173000D01*
X81635024Y-43405472D01*
X81367496Y-43673000D01*
X80901148Y-43673000D01*
X80799999Y-43652880D01*
X80698850Y-43673000D01*
X80399285Y-43732587D01*
X80399284Y-43732588D01*
X80399283Y-43732588D01*
X80325828Y-43781669D01*
X80059574Y-43959574D01*
X80002275Y-44045328D01*
X78374604Y-45673000D01*
X77301148Y-45673000D01*
X77199999Y-45652880D01*
X77098850Y-45673000D01*
X76799285Y-45732587D01*
X76799284Y-45732588D01*
X76799283Y-45732588D01*
X76747164Y-45767413D01*
X76459574Y-45959574D01*
X76402277Y-46045326D01*
X75645330Y-46802274D01*
X75559574Y-46859574D01*
X75332587Y-47199286D01*
X75283286Y-47447139D01*
X75252880Y-47600000D01*
X74902000Y-47600000D01*
X74902000Y-39602000D01*
X121098000Y-39602000D01*
X121098001Y-41540708D01*
G04 #@! TD*
M02*
