G04 #@! TF.GenerationSoftware,KiCad,Pcbnew,5.0.1-33cea8e~68~ubuntu18.10.1*
G04 #@! TF.CreationDate,2018-11-26T23:49:52+02:00*
G04 #@! TF.ProjectId,GB-CART2M-A,47422D43415254324D2D412E6B696361,v1.0*
G04 #@! TF.SameCoordinates,Original*
G04 #@! TF.FileFunction,Soldermask,Bot*
G04 #@! TF.FilePolarity,Negative*
%FSLAX46Y46*%
G04 Gerber Fmt 4.6, Leading zero omitted, Abs format (unit mm)*
G04 Created by KiCad (PCBNEW 5.0.1-33cea8e~68~ubuntu18.10.1) date ma 26. marraskuuta 2018 23.49.52*
%MOMM*%
%LPD*%
G01*
G04 APERTURE LIST*
%ADD10C,0.150000*%
%ADD11C,0.100000*%
G04 APERTURE END LIST*
D10*
X121700000Y-39000000D02*
X121700000Y-41600000D01*
X74300000Y-39000000D02*
X121700000Y-39000000D01*
X125700000Y-41600000D02*
X121700000Y-41600000D01*
X74300000Y-91400000D02*
X74300000Y-39000000D01*
X75400000Y-91400000D02*
X74300000Y-91400000D01*
X75400000Y-100000000D02*
X75400000Y-91400000D01*
X125700000Y-91400000D02*
X125700000Y-41600000D01*
X124600000Y-91400000D02*
X125700000Y-91400000D01*
X124600000Y-100000000D02*
X124600000Y-91400000D01*
X75400000Y-100000000D02*
X124600000Y-100000000D01*
D11*
G36*
X101050081Y-81188346D02*
X101050083Y-81188347D01*
X101050084Y-81188347D01*
X101292095Y-81288591D01*
X101705240Y-81459721D01*
X102294866Y-81853697D01*
X102796303Y-82355134D01*
X103190279Y-82944760D01*
X103461654Y-83599919D01*
X103600000Y-84295431D01*
X103600000Y-85004569D01*
X103461654Y-85700081D01*
X103190279Y-86355240D01*
X102796303Y-86944866D01*
X102294866Y-87446303D01*
X101705240Y-87840279D01*
X101292095Y-88011409D01*
X101050084Y-88111653D01*
X101050083Y-88111653D01*
X101050081Y-88111654D01*
X100354569Y-88250000D01*
X99645431Y-88250000D01*
X98949919Y-88111654D01*
X98949917Y-88111653D01*
X98949916Y-88111653D01*
X98707905Y-88011409D01*
X98294760Y-87840279D01*
X97705134Y-87446303D01*
X97203697Y-86944866D01*
X96809721Y-86355240D01*
X96538346Y-85700081D01*
X96400000Y-85004569D01*
X96400000Y-84295431D01*
X96538346Y-83599919D01*
X96809721Y-82944760D01*
X97203697Y-82355134D01*
X97705134Y-81853697D01*
X98294760Y-81459721D01*
X98707905Y-81288591D01*
X98949916Y-81188347D01*
X98949917Y-81188347D01*
X98949919Y-81188346D01*
X99645431Y-81050000D01*
X100354569Y-81050000D01*
X101050081Y-81188346D01*
X101050081Y-81188346D01*
G37*
G36*
X76814410Y-59123057D02*
X76891689Y-59138429D01*
X77073678Y-59213811D01*
X77237463Y-59323249D01*
X77376751Y-59462537D01*
X77486189Y-59626322D01*
X77561571Y-59808311D01*
X77561571Y-59808313D01*
X77600000Y-60001506D01*
X77600000Y-60198494D01*
X77576943Y-60314410D01*
X77561571Y-60391689D01*
X77486189Y-60573678D01*
X77376751Y-60737463D01*
X77237463Y-60876751D01*
X77073678Y-60986189D01*
X76891689Y-61061571D01*
X76814410Y-61076943D01*
X76698494Y-61100000D01*
X76501506Y-61100000D01*
X76385590Y-61076943D01*
X76308311Y-61061571D01*
X76126322Y-60986189D01*
X75962537Y-60876751D01*
X75823249Y-60737463D01*
X75713811Y-60573678D01*
X75638429Y-60391689D01*
X75623057Y-60314410D01*
X75600000Y-60198494D01*
X75600000Y-60001506D01*
X75638429Y-59808313D01*
X75638429Y-59808311D01*
X75713811Y-59626322D01*
X75823249Y-59462537D01*
X75962537Y-59323249D01*
X76126322Y-59213811D01*
X76308311Y-59138429D01*
X76385590Y-59123057D01*
X76501506Y-59100000D01*
X76698494Y-59100000D01*
X76814410Y-59123057D01*
X76814410Y-59123057D01*
G37*
G36*
X100335443Y-58544194D02*
X100544729Y-58630884D01*
X100733082Y-58756737D01*
X100893263Y-58916918D01*
X101019116Y-59105271D01*
X101105806Y-59314557D01*
X101150000Y-59536735D01*
X101150000Y-59763265D01*
X101105806Y-59985443D01*
X101019116Y-60194729D01*
X100893263Y-60383082D01*
X100733082Y-60543263D01*
X100544729Y-60669116D01*
X100335443Y-60755806D01*
X100113265Y-60800000D01*
X99886735Y-60800000D01*
X99664557Y-60755806D01*
X99455271Y-60669116D01*
X99266918Y-60543263D01*
X99106737Y-60383082D01*
X98980884Y-60194729D01*
X98894194Y-59985443D01*
X98850000Y-59763265D01*
X98850000Y-59536735D01*
X98894194Y-59314557D01*
X98980884Y-59105271D01*
X99106737Y-58916918D01*
X99266918Y-58756737D01*
X99455271Y-58630884D01*
X99664557Y-58544194D01*
X99886735Y-58500000D01*
X100113265Y-58500000D01*
X100335443Y-58544194D01*
X100335443Y-58544194D01*
G37*
G36*
X82714410Y-48223057D02*
X82791689Y-48238429D01*
X82973678Y-48313811D01*
X83137463Y-48423249D01*
X83276751Y-48562537D01*
X83386189Y-48726322D01*
X83461571Y-48908311D01*
X83461571Y-48908313D01*
X83500000Y-49101506D01*
X83500000Y-49298494D01*
X83476943Y-49414410D01*
X83461571Y-49491689D01*
X83386189Y-49673678D01*
X83276751Y-49837463D01*
X83137463Y-49976751D01*
X82973678Y-50086189D01*
X82791689Y-50161571D01*
X82714410Y-50176943D01*
X82598494Y-50200000D01*
X82401506Y-50200000D01*
X82285590Y-50176943D01*
X82208311Y-50161571D01*
X82026322Y-50086189D01*
X81862537Y-49976751D01*
X81723249Y-49837463D01*
X81613811Y-49673678D01*
X81538429Y-49491689D01*
X81523057Y-49414410D01*
X81500000Y-49298494D01*
X81500000Y-49101506D01*
X81538429Y-48908313D01*
X81538429Y-48908311D01*
X81613811Y-48726322D01*
X81723249Y-48562537D01*
X81862537Y-48423249D01*
X82026322Y-48313811D01*
X82208311Y-48238429D01*
X82285590Y-48223057D01*
X82401506Y-48200000D01*
X82598494Y-48200000D01*
X82714410Y-48223057D01*
X82714410Y-48223057D01*
G37*
G36*
X103514410Y-45023057D02*
X103591689Y-45038429D01*
X103773678Y-45113811D01*
X103937463Y-45223249D01*
X104076751Y-45362537D01*
X104186189Y-45526322D01*
X104261571Y-45708311D01*
X104261571Y-45708313D01*
X104300000Y-45901506D01*
X104300000Y-46098494D01*
X104276943Y-46214410D01*
X104261571Y-46291689D01*
X104186189Y-46473678D01*
X104076751Y-46637463D01*
X103937463Y-46776751D01*
X103773678Y-46886189D01*
X103591689Y-46961571D01*
X103514410Y-46976943D01*
X103398494Y-47000000D01*
X103201506Y-47000000D01*
X103085590Y-46976943D01*
X103008311Y-46961571D01*
X102826322Y-46886189D01*
X102662537Y-46776751D01*
X102523249Y-46637463D01*
X102413811Y-46473678D01*
X102338429Y-46291689D01*
X102323057Y-46214410D01*
X102300000Y-46098494D01*
X102300000Y-45901506D01*
X102338429Y-45708313D01*
X102338429Y-45708311D01*
X102413811Y-45526322D01*
X102523249Y-45362537D01*
X102662537Y-45223249D01*
X102826322Y-45113811D01*
X103008311Y-45038429D01*
X103085590Y-45023057D01*
X103201506Y-45000000D01*
X103398494Y-45000000D01*
X103514410Y-45023057D01*
X103514410Y-45023057D01*
G37*
G36*
X106714410Y-45023057D02*
X106791689Y-45038429D01*
X106973678Y-45113811D01*
X107137463Y-45223249D01*
X107276751Y-45362537D01*
X107386189Y-45526322D01*
X107461571Y-45708311D01*
X107461571Y-45708313D01*
X107500000Y-45901506D01*
X107500000Y-46098494D01*
X107476943Y-46214410D01*
X107461571Y-46291689D01*
X107386189Y-46473678D01*
X107276751Y-46637463D01*
X107137463Y-46776751D01*
X106973678Y-46886189D01*
X106791689Y-46961571D01*
X106714410Y-46976943D01*
X106598494Y-47000000D01*
X106401506Y-47000000D01*
X106285590Y-46976943D01*
X106208311Y-46961571D01*
X106026322Y-46886189D01*
X105862537Y-46776751D01*
X105723249Y-46637463D01*
X105613811Y-46473678D01*
X105538429Y-46291689D01*
X105523057Y-46214410D01*
X105500000Y-46098494D01*
X105500000Y-45901506D01*
X105538429Y-45708313D01*
X105538429Y-45708311D01*
X105613811Y-45526322D01*
X105723249Y-45362537D01*
X105862537Y-45223249D01*
X106026322Y-45113811D01*
X106208311Y-45038429D01*
X106285590Y-45023057D01*
X106401506Y-45000000D01*
X106598494Y-45000000D01*
X106714410Y-45023057D01*
X106714410Y-45023057D01*
G37*
G36*
X82710436Y-43722267D02*
X82791689Y-43738429D01*
X82973678Y-43813811D01*
X83137463Y-43923249D01*
X83276751Y-44062537D01*
X83386189Y-44226322D01*
X83461571Y-44408311D01*
X83461571Y-44408313D01*
X83500000Y-44601506D01*
X83500000Y-44798494D01*
X83480203Y-44898017D01*
X83461571Y-44991689D01*
X83386189Y-45173678D01*
X83276751Y-45337463D01*
X83137463Y-45476751D01*
X82973678Y-45586189D01*
X82791689Y-45661571D01*
X82714410Y-45676943D01*
X82598494Y-45700000D01*
X82401506Y-45700000D01*
X82285590Y-45676943D01*
X82208311Y-45661571D01*
X82026322Y-45586189D01*
X81862537Y-45476751D01*
X81723249Y-45337463D01*
X81613811Y-45173678D01*
X81538429Y-44991689D01*
X81519797Y-44898017D01*
X81500000Y-44798494D01*
X81500000Y-44601506D01*
X81538429Y-44408313D01*
X81538429Y-44408311D01*
X81613811Y-44226322D01*
X81723249Y-44062537D01*
X81862537Y-43923249D01*
X82026322Y-43813811D01*
X82208311Y-43738429D01*
X82289564Y-43722267D01*
X82401506Y-43700000D01*
X82598494Y-43700000D01*
X82710436Y-43722267D01*
X82710436Y-43722267D01*
G37*
G36*
X116608016Y-44307234D02*
X116702267Y-44335825D01*
X116789130Y-44382254D01*
X116865264Y-44444736D01*
X116927746Y-44520870D01*
X116974175Y-44607733D01*
X117002766Y-44701984D01*
X117012420Y-44800000D01*
X117002766Y-44898016D01*
X116974175Y-44992267D01*
X116927746Y-45079130D01*
X116865264Y-45155264D01*
X116789130Y-45217746D01*
X116702267Y-45264175D01*
X116608016Y-45292766D01*
X116534566Y-45300000D01*
X116485434Y-45300000D01*
X116411984Y-45292766D01*
X116317733Y-45264175D01*
X116230870Y-45217746D01*
X116154736Y-45155264D01*
X116092254Y-45079130D01*
X116045825Y-44992267D01*
X116017234Y-44898016D01*
X116007580Y-44800000D01*
X116017234Y-44701984D01*
X116045825Y-44607733D01*
X116092254Y-44520870D01*
X116154736Y-44444736D01*
X116230870Y-44382254D01*
X116317733Y-44335825D01*
X116411984Y-44307234D01*
X116485434Y-44300000D01*
X116534566Y-44300000D01*
X116608016Y-44307234D01*
X116608016Y-44307234D01*
G37*
G36*
X114068016Y-44307234D02*
X114162267Y-44335825D01*
X114249130Y-44382254D01*
X114325264Y-44444736D01*
X114387746Y-44520870D01*
X114434175Y-44607733D01*
X114462766Y-44701984D01*
X114472420Y-44800000D01*
X114462766Y-44898016D01*
X114434175Y-44992267D01*
X114387746Y-45079130D01*
X114325264Y-45155264D01*
X114249130Y-45217746D01*
X114162267Y-45264175D01*
X114068016Y-45292766D01*
X113994566Y-45300000D01*
X113945434Y-45300000D01*
X113871984Y-45292766D01*
X113777733Y-45264175D01*
X113690870Y-45217746D01*
X113614736Y-45155264D01*
X113552254Y-45079130D01*
X113505825Y-44992267D01*
X113477234Y-44898016D01*
X113467580Y-44800000D01*
X113477234Y-44701984D01*
X113505825Y-44607733D01*
X113552254Y-44520870D01*
X113614736Y-44444736D01*
X113690870Y-44382254D01*
X113777733Y-44335825D01*
X113871984Y-44307234D01*
X113945434Y-44300000D01*
X113994566Y-44300000D01*
X114068016Y-44307234D01*
X114068016Y-44307234D01*
G37*
G36*
X113200000Y-45300000D02*
X112200000Y-45300000D01*
X112200000Y-44300000D01*
X113200000Y-44300000D01*
X113200000Y-45300000D01*
X113200000Y-45300000D01*
G37*
G36*
X115338016Y-44307234D02*
X115432267Y-44335825D01*
X115519130Y-44382254D01*
X115595264Y-44444736D01*
X115657746Y-44520870D01*
X115704175Y-44607733D01*
X115732766Y-44701984D01*
X115742420Y-44800000D01*
X115732766Y-44898016D01*
X115704175Y-44992267D01*
X115657746Y-45079130D01*
X115595264Y-45155264D01*
X115519130Y-45217746D01*
X115432267Y-45264175D01*
X115338016Y-45292766D01*
X115264566Y-45300000D01*
X115215434Y-45300000D01*
X115141984Y-45292766D01*
X115047733Y-45264175D01*
X114960870Y-45217746D01*
X114884736Y-45155264D01*
X114822254Y-45079130D01*
X114775825Y-44992267D01*
X114747234Y-44898016D01*
X114737580Y-44800000D01*
X114747234Y-44701984D01*
X114775825Y-44607733D01*
X114822254Y-44520870D01*
X114884736Y-44444736D01*
X114960870Y-44382254D01*
X115047733Y-44335825D01*
X115141984Y-44307234D01*
X115215434Y-44300000D01*
X115264566Y-44300000D01*
X115338016Y-44307234D01*
X115338016Y-44307234D01*
G37*
G36*
X117878016Y-44307234D02*
X117972267Y-44335825D01*
X118059130Y-44382254D01*
X118135264Y-44444736D01*
X118197746Y-44520870D01*
X118244175Y-44607733D01*
X118272766Y-44701984D01*
X118282420Y-44800000D01*
X118272766Y-44898016D01*
X118244175Y-44992267D01*
X118197746Y-45079130D01*
X118135264Y-45155264D01*
X118059130Y-45217746D01*
X117972267Y-45264175D01*
X117878016Y-45292766D01*
X117804566Y-45300000D01*
X117755434Y-45300000D01*
X117681984Y-45292766D01*
X117587733Y-45264175D01*
X117500870Y-45217746D01*
X117424736Y-45155264D01*
X117362254Y-45079130D01*
X117315825Y-44992267D01*
X117287234Y-44898016D01*
X117277580Y-44800000D01*
X117287234Y-44701984D01*
X117315825Y-44607733D01*
X117362254Y-44520870D01*
X117424736Y-44444736D01*
X117500870Y-44382254D01*
X117587733Y-44335825D01*
X117681984Y-44307234D01*
X117755434Y-44300000D01*
X117804566Y-44300000D01*
X117878016Y-44307234D01*
X117878016Y-44307234D01*
G37*
G36*
X115338016Y-43037234D02*
X115432267Y-43065825D01*
X115519130Y-43112254D01*
X115595264Y-43174736D01*
X115657746Y-43250870D01*
X115704175Y-43337733D01*
X115732766Y-43431984D01*
X115742420Y-43530000D01*
X115732766Y-43628016D01*
X115704175Y-43722267D01*
X115657746Y-43809130D01*
X115595264Y-43885264D01*
X115519130Y-43947746D01*
X115432267Y-43994175D01*
X115338016Y-44022766D01*
X115264566Y-44030000D01*
X115215434Y-44030000D01*
X115141984Y-44022766D01*
X115047733Y-43994175D01*
X114960870Y-43947746D01*
X114884736Y-43885264D01*
X114822254Y-43809130D01*
X114775825Y-43722267D01*
X114747234Y-43628016D01*
X114737580Y-43530000D01*
X114747234Y-43431984D01*
X114775825Y-43337733D01*
X114822254Y-43250870D01*
X114884736Y-43174736D01*
X114960870Y-43112254D01*
X115047733Y-43065825D01*
X115141984Y-43037234D01*
X115215434Y-43030000D01*
X115264566Y-43030000D01*
X115338016Y-43037234D01*
X115338016Y-43037234D01*
G37*
G36*
X117878016Y-43037234D02*
X117972267Y-43065825D01*
X118059130Y-43112254D01*
X118135264Y-43174736D01*
X118197746Y-43250870D01*
X118244175Y-43337733D01*
X118272766Y-43431984D01*
X118282420Y-43530000D01*
X118272766Y-43628016D01*
X118244175Y-43722267D01*
X118197746Y-43809130D01*
X118135264Y-43885264D01*
X118059130Y-43947746D01*
X117972267Y-43994175D01*
X117878016Y-44022766D01*
X117804566Y-44030000D01*
X117755434Y-44030000D01*
X117681984Y-44022766D01*
X117587733Y-43994175D01*
X117500870Y-43947746D01*
X117424736Y-43885264D01*
X117362254Y-43809130D01*
X117315825Y-43722267D01*
X117287234Y-43628016D01*
X117277580Y-43530000D01*
X117287234Y-43431984D01*
X117315825Y-43337733D01*
X117362254Y-43250870D01*
X117424736Y-43174736D01*
X117500870Y-43112254D01*
X117587733Y-43065825D01*
X117681984Y-43037234D01*
X117755434Y-43030000D01*
X117804566Y-43030000D01*
X117878016Y-43037234D01*
X117878016Y-43037234D01*
G37*
G36*
X116608016Y-43037234D02*
X116702267Y-43065825D01*
X116789130Y-43112254D01*
X116865264Y-43174736D01*
X116927746Y-43250870D01*
X116974175Y-43337733D01*
X117002766Y-43431984D01*
X117012420Y-43530000D01*
X117002766Y-43628016D01*
X116974175Y-43722267D01*
X116927746Y-43809130D01*
X116865264Y-43885264D01*
X116789130Y-43947746D01*
X116702267Y-43994175D01*
X116608016Y-44022766D01*
X116534566Y-44030000D01*
X116485434Y-44030000D01*
X116411984Y-44022766D01*
X116317733Y-43994175D01*
X116230870Y-43947746D01*
X116154736Y-43885264D01*
X116092254Y-43809130D01*
X116045825Y-43722267D01*
X116017234Y-43628016D01*
X116007580Y-43530000D01*
X116017234Y-43431984D01*
X116045825Y-43337733D01*
X116092254Y-43250870D01*
X116154736Y-43174736D01*
X116230870Y-43112254D01*
X116317733Y-43065825D01*
X116411984Y-43037234D01*
X116485434Y-43030000D01*
X116534566Y-43030000D01*
X116608016Y-43037234D01*
X116608016Y-43037234D01*
G37*
G36*
X114068016Y-43037234D02*
X114162267Y-43065825D01*
X114249130Y-43112254D01*
X114325264Y-43174736D01*
X114387746Y-43250870D01*
X114434175Y-43337733D01*
X114462766Y-43431984D01*
X114472420Y-43530000D01*
X114462766Y-43628016D01*
X114434175Y-43722267D01*
X114387746Y-43809130D01*
X114325264Y-43885264D01*
X114249130Y-43947746D01*
X114162267Y-43994175D01*
X114068016Y-44022766D01*
X113994566Y-44030000D01*
X113945434Y-44030000D01*
X113871984Y-44022766D01*
X113777733Y-43994175D01*
X113690870Y-43947746D01*
X113614736Y-43885264D01*
X113552254Y-43809130D01*
X113505825Y-43722267D01*
X113477234Y-43628016D01*
X113467580Y-43530000D01*
X113477234Y-43431984D01*
X113505825Y-43337733D01*
X113552254Y-43250870D01*
X113614736Y-43174736D01*
X113690870Y-43112254D01*
X113777733Y-43065825D01*
X113871984Y-43037234D01*
X113945434Y-43030000D01*
X113994566Y-43030000D01*
X114068016Y-43037234D01*
X114068016Y-43037234D01*
G37*
G36*
X112798016Y-43037234D02*
X112892267Y-43065825D01*
X112979130Y-43112254D01*
X113055264Y-43174736D01*
X113117746Y-43250870D01*
X113164175Y-43337733D01*
X113192766Y-43431984D01*
X113202420Y-43530000D01*
X113192766Y-43628016D01*
X113164175Y-43722267D01*
X113117746Y-43809130D01*
X113055264Y-43885264D01*
X112979130Y-43947746D01*
X112892267Y-43994175D01*
X112798016Y-44022766D01*
X112724566Y-44030000D01*
X112675434Y-44030000D01*
X112601984Y-44022766D01*
X112507733Y-43994175D01*
X112420870Y-43947746D01*
X112344736Y-43885264D01*
X112282254Y-43809130D01*
X112235825Y-43722267D01*
X112207234Y-43628016D01*
X112197580Y-43530000D01*
X112207234Y-43431984D01*
X112235825Y-43337733D01*
X112282254Y-43250870D01*
X112344736Y-43174736D01*
X112420870Y-43112254D01*
X112507733Y-43065825D01*
X112601984Y-43037234D01*
X112675434Y-43030000D01*
X112724566Y-43030000D01*
X112798016Y-43037234D01*
X112798016Y-43037234D01*
G37*
M02*
