G04 #@! TF.GenerationSoftware,KiCad,Pcbnew,5.1.2-f72e74a~84~ubuntu19.04.1*
G04 #@! TF.CreationDate,2019-06-20T20:29:00+03:00*
G04 #@! TF.ProjectId,GB-CART2M-A,47422d43-4152-4543-924d-2d412e6b6963,v1.1*
G04 #@! TF.SameCoordinates,Original*
G04 #@! TF.FileFunction,Legend,Top*
G04 #@! TF.FilePolarity,Positive*
%FSLAX46Y46*%
G04 Gerber Fmt 4.6, Leading zero omitted, Abs format (unit mm)*
G04 Created by KiCad (PCBNEW 5.1.2-f72e74a~84~ubuntu19.04.1) date 2019-06-20 20:29:00*
%MOMM*%
%LPD*%
G04 APERTURE LIST*
%ADD10C,0.150000*%
%ADD11C,0.300000*%
%ADD12C,0.200000*%
%ADD13C,0.120000*%
G04 APERTURE END LIST*
D10*
X74800000Y-91400000D02*
G75*
G02X74300000Y-90900000I0J500000D01*
G01*
X74300000Y-39500000D02*
G75*
G02X74800000Y-39000000I500000J0D01*
G01*
X121200000Y-39000000D02*
G75*
G02X121700000Y-39500000I0J-500000D01*
G01*
X125200000Y-41600000D02*
G75*
G02X125700000Y-42100000I0J-500000D01*
G01*
X125700000Y-90900000D02*
G75*
G02X125200000Y-91400000I-500000J0D01*
G01*
X76300000Y-100000000D02*
G75*
G02X75400000Y-99100000I0J900000D01*
G01*
X124600000Y-99100000D02*
G75*
G02X123700000Y-100000000I-900000J0D01*
G01*
D11*
X92814285Y-72728571D02*
X91957142Y-72728571D01*
X92385714Y-72728571D02*
X92385714Y-71228571D01*
X92242857Y-71442857D01*
X92100000Y-71585714D01*
X91957142Y-71657142D01*
X93457142Y-72728571D02*
X93457142Y-71228571D01*
X93957142Y-72300000D01*
X94457142Y-71228571D01*
X94457142Y-72728571D01*
X96242857Y-71157142D02*
X94957142Y-73085714D01*
X96671428Y-71371428D02*
X96742857Y-71300000D01*
X96885714Y-71228571D01*
X97242857Y-71228571D01*
X97385714Y-71300000D01*
X97457142Y-71371428D01*
X97528571Y-71514285D01*
X97528571Y-71657142D01*
X97457142Y-71871428D01*
X96600000Y-72728571D01*
X97528571Y-72728571D01*
X98171428Y-72728571D02*
X98171428Y-71228571D01*
X98671428Y-72300000D01*
X99171428Y-71228571D01*
X99171428Y-72728571D01*
D10*
X75264285Y-62371428D02*
X76026190Y-62371428D01*
X75645238Y-62752380D02*
X75645238Y-61990476D01*
X76978571Y-61752380D02*
X76502380Y-61752380D01*
X76454761Y-62228571D01*
X76502380Y-62180952D01*
X76597619Y-62133333D01*
X76835714Y-62133333D01*
X76930952Y-62180952D01*
X76978571Y-62228571D01*
X77026190Y-62323809D01*
X77026190Y-62561904D01*
X76978571Y-62657142D01*
X76930952Y-62704761D01*
X76835714Y-62752380D01*
X76597619Y-62752380D01*
X76502380Y-62704761D01*
X76454761Y-62657142D01*
X77311904Y-61752380D02*
X77645238Y-62752380D01*
X77978571Y-61752380D01*
X84335595Y-49271428D02*
X85097500Y-49271428D01*
X84716547Y-49652380D02*
X84716547Y-48890476D01*
X86097500Y-49652380D02*
X85526071Y-49652380D01*
X85811785Y-49652380D02*
X85811785Y-48652380D01*
X85716547Y-48795238D01*
X85621309Y-48890476D01*
X85526071Y-48938095D01*
X86383214Y-48652380D02*
X86716547Y-49652380D01*
X87049880Y-48652380D01*
X87526071Y-49080952D02*
X87430833Y-49033333D01*
X87383214Y-48985714D01*
X87335595Y-48890476D01*
X87335595Y-48842857D01*
X87383214Y-48747619D01*
X87430833Y-48700000D01*
X87526071Y-48652380D01*
X87716547Y-48652380D01*
X87811785Y-48700000D01*
X87859404Y-48747619D01*
X87907023Y-48842857D01*
X87907023Y-48890476D01*
X87859404Y-48985714D01*
X87811785Y-49033333D01*
X87716547Y-49080952D01*
X87526071Y-49080952D01*
X87430833Y-49128571D01*
X87383214Y-49176190D01*
X87335595Y-49271428D01*
X87335595Y-49461904D01*
X87383214Y-49557142D01*
X87430833Y-49604761D01*
X87526071Y-49652380D01*
X87716547Y-49652380D01*
X87811785Y-49604761D01*
X87859404Y-49557142D01*
X87907023Y-49461904D01*
X87907023Y-49271428D01*
X87859404Y-49176190D01*
X87811785Y-49128571D01*
X87716547Y-49080952D01*
X84335595Y-44771428D02*
X85097500Y-44771428D01*
X84716547Y-45152380D02*
X84716547Y-44390476D01*
X85478452Y-44152380D02*
X86097500Y-44152380D01*
X85764166Y-44533333D01*
X85907023Y-44533333D01*
X86002261Y-44580952D01*
X86049880Y-44628571D01*
X86097500Y-44723809D01*
X86097500Y-44961904D01*
X86049880Y-45057142D01*
X86002261Y-45104761D01*
X85907023Y-45152380D01*
X85621309Y-45152380D01*
X85526071Y-45104761D01*
X85478452Y-45057142D01*
X86383214Y-44152380D02*
X86716547Y-45152380D01*
X87049880Y-44152380D01*
X87287976Y-44152380D02*
X87907023Y-44152380D01*
X87573690Y-44533333D01*
X87716547Y-44533333D01*
X87811785Y-44580952D01*
X87859404Y-44628571D01*
X87907023Y-44723809D01*
X87907023Y-44961904D01*
X87859404Y-45057142D01*
X87811785Y-45104761D01*
X87716547Y-45152380D01*
X87430833Y-45152380D01*
X87335595Y-45104761D01*
X87287976Y-45057142D01*
X84152380Y-57509642D02*
X84152380Y-56890595D01*
X84533333Y-57223928D01*
X84533333Y-57081071D01*
X84580952Y-56985833D01*
X84628571Y-56938214D01*
X84723809Y-56890595D01*
X84961904Y-56890595D01*
X85057142Y-56938214D01*
X85104761Y-56985833D01*
X85152380Y-57081071D01*
X85152380Y-57366785D01*
X85104761Y-57462023D01*
X85057142Y-57509642D01*
X84152380Y-56271547D02*
X84152380Y-56176309D01*
X84200000Y-56081071D01*
X84247619Y-56033452D01*
X84342857Y-55985833D01*
X84533333Y-55938214D01*
X84771428Y-55938214D01*
X84961904Y-55985833D01*
X85057142Y-56033452D01*
X85104761Y-56081071D01*
X85152380Y-56176309D01*
X85152380Y-56271547D01*
X85104761Y-56366785D01*
X85057142Y-56414404D01*
X84961904Y-56462023D01*
X84771428Y-56509642D01*
X84533333Y-56509642D01*
X84342857Y-56462023D01*
X84247619Y-56414404D01*
X84200000Y-56366785D01*
X84152380Y-56271547D01*
X84104761Y-54795357D02*
X85390476Y-55652500D01*
X84866666Y-54509642D02*
X84866666Y-54033452D01*
X85152380Y-54604880D02*
X84152380Y-54271547D01*
X85152380Y-53938214D01*
X85152380Y-53081071D02*
X85152380Y-53652500D01*
X85152380Y-53366785D02*
X84152380Y-53366785D01*
X84295238Y-53462023D01*
X84390476Y-53557261D01*
X84438095Y-53652500D01*
X84152380Y-52747738D02*
X84152380Y-52081071D01*
X85152380Y-52509642D01*
X82602380Y-56890595D02*
X82602380Y-57462023D01*
X82602380Y-57176309D02*
X81602380Y-57176309D01*
X81745238Y-57271547D01*
X81840476Y-57366785D01*
X81888095Y-57462023D01*
X81554761Y-55747738D02*
X82840476Y-56604880D01*
X81235000Y-55652500D02*
X81235000Y-54652500D01*
X82602380Y-54842976D02*
X82126190Y-55176309D01*
X82602380Y-55414404D02*
X81602380Y-55414404D01*
X81602380Y-55033452D01*
X81650000Y-54938214D01*
X81697619Y-54890595D01*
X81792857Y-54842976D01*
X81935714Y-54842976D01*
X82030952Y-54890595D01*
X82078571Y-54938214D01*
X82126190Y-55033452D01*
X82126190Y-55414404D01*
X81235000Y-54652500D02*
X81235000Y-53747738D01*
X82078571Y-54414404D02*
X82078571Y-54081071D01*
X82602380Y-53938214D02*
X82602380Y-54414404D01*
X81602380Y-54414404D01*
X81602380Y-53938214D01*
X81235000Y-53747738D02*
X81235000Y-52795357D01*
X82554761Y-53557261D02*
X82602380Y-53414404D01*
X82602380Y-53176309D01*
X82554761Y-53081071D01*
X82507142Y-53033452D01*
X82411904Y-52985833D01*
X82316666Y-52985833D01*
X82221428Y-53033452D01*
X82173809Y-53081071D01*
X82126190Y-53176309D01*
X82078571Y-53366785D01*
X82030952Y-53462023D01*
X81983333Y-53509642D01*
X81888095Y-53557261D01*
X81792857Y-53557261D01*
X81697619Y-53509642D01*
X81650000Y-53462023D01*
X81602380Y-53366785D01*
X81602380Y-53128690D01*
X81650000Y-52985833D01*
D12*
X106842857Y-84500000D02*
X106728571Y-84442857D01*
X106557142Y-84442857D01*
X106385714Y-84500000D01*
X106271428Y-84614285D01*
X106214285Y-84728571D01*
X106157142Y-84957142D01*
X106157142Y-85128571D01*
X106214285Y-85357142D01*
X106271428Y-85471428D01*
X106385714Y-85585714D01*
X106557142Y-85642857D01*
X106671428Y-85642857D01*
X106842857Y-85585714D01*
X106900000Y-85528571D01*
X106900000Y-85128571D01*
X106671428Y-85128571D01*
X107814285Y-85014285D02*
X107985714Y-85071428D01*
X108042857Y-85128571D01*
X108100000Y-85242857D01*
X108100000Y-85414285D01*
X108042857Y-85528571D01*
X107985714Y-85585714D01*
X107871428Y-85642857D01*
X107414285Y-85642857D01*
X107414285Y-84442857D01*
X107814285Y-84442857D01*
X107928571Y-84500000D01*
X107985714Y-84557142D01*
X108042857Y-84671428D01*
X108042857Y-84785714D01*
X107985714Y-84900000D01*
X107928571Y-84957142D01*
X107814285Y-85014285D01*
X107414285Y-85014285D01*
X108614285Y-85185714D02*
X109528571Y-85185714D01*
X110785714Y-85528571D02*
X110728571Y-85585714D01*
X110557142Y-85642857D01*
X110442857Y-85642857D01*
X110271428Y-85585714D01*
X110157142Y-85471428D01*
X110100000Y-85357142D01*
X110042857Y-85128571D01*
X110042857Y-84957142D01*
X110100000Y-84728571D01*
X110157142Y-84614285D01*
X110271428Y-84500000D01*
X110442857Y-84442857D01*
X110557142Y-84442857D01*
X110728571Y-84500000D01*
X110785714Y-84557142D01*
X111242857Y-85300000D02*
X111814285Y-85300000D01*
X111128571Y-85642857D02*
X111528571Y-84442857D01*
X111928571Y-85642857D01*
X113014285Y-85642857D02*
X112614285Y-85071428D01*
X112328571Y-85642857D02*
X112328571Y-84442857D01*
X112785714Y-84442857D01*
X112900000Y-84500000D01*
X112957142Y-84557142D01*
X113014285Y-84671428D01*
X113014285Y-84842857D01*
X112957142Y-84957142D01*
X112900000Y-85014285D01*
X112785714Y-85071428D01*
X112328571Y-85071428D01*
X113357142Y-84442857D02*
X114042857Y-84442857D01*
X113700000Y-85642857D02*
X113700000Y-84442857D01*
X114385714Y-84557142D02*
X114442857Y-84500000D01*
X114557142Y-84442857D01*
X114842857Y-84442857D01*
X114957142Y-84500000D01*
X115014285Y-84557142D01*
X115071428Y-84671428D01*
X115071428Y-84785714D01*
X115014285Y-84957142D01*
X114328571Y-85642857D01*
X115071428Y-85642857D01*
X115585714Y-85642857D02*
X115585714Y-84442857D01*
X115985714Y-85300000D01*
X116385714Y-84442857D01*
X116385714Y-85642857D01*
X116957142Y-85185714D02*
X117871428Y-85185714D01*
X118385714Y-85300000D02*
X118957142Y-85300000D01*
X118271428Y-85642857D02*
X118671428Y-84442857D01*
X119071428Y-85642857D01*
X120271428Y-84842857D02*
X120557142Y-85642857D01*
X120842857Y-84842857D01*
X121928571Y-85642857D02*
X121242857Y-85642857D01*
X121585714Y-85642857D02*
X121585714Y-84442857D01*
X121471428Y-84614285D01*
X121357142Y-84728571D01*
X121242857Y-84785714D01*
X122442857Y-85528571D02*
X122500000Y-85585714D01*
X122442857Y-85642857D01*
X122385714Y-85585714D01*
X122442857Y-85528571D01*
X122442857Y-85642857D01*
X123642857Y-85642857D02*
X122957142Y-85642857D01*
X123300000Y-85642857D02*
X123300000Y-84442857D01*
X123185714Y-84614285D01*
X123071428Y-84728571D01*
X122957142Y-84785714D01*
X107614285Y-87642857D02*
X107614285Y-86442857D01*
X108128571Y-87642857D02*
X108128571Y-87014285D01*
X108071428Y-86900000D01*
X107957142Y-86842857D01*
X107785714Y-86842857D01*
X107671428Y-86900000D01*
X107614285Y-86957142D01*
X108528571Y-86842857D02*
X108985714Y-86842857D01*
X108700000Y-86442857D02*
X108700000Y-87471428D01*
X108757142Y-87585714D01*
X108871428Y-87642857D01*
X108985714Y-87642857D01*
X109214285Y-86842857D02*
X109671428Y-86842857D01*
X109385714Y-86442857D02*
X109385714Y-87471428D01*
X109442857Y-87585714D01*
X109557142Y-87642857D01*
X109671428Y-87642857D01*
X110071428Y-86842857D02*
X110071428Y-88042857D01*
X110071428Y-86900000D02*
X110185714Y-86842857D01*
X110414285Y-86842857D01*
X110528571Y-86900000D01*
X110585714Y-86957142D01*
X110642857Y-87071428D01*
X110642857Y-87414285D01*
X110585714Y-87528571D01*
X110528571Y-87585714D01*
X110414285Y-87642857D01*
X110185714Y-87642857D01*
X110071428Y-87585714D01*
X111100000Y-87585714D02*
X111214285Y-87642857D01*
X111442857Y-87642857D01*
X111557142Y-87585714D01*
X111614285Y-87471428D01*
X111614285Y-87414285D01*
X111557142Y-87300000D01*
X111442857Y-87242857D01*
X111271428Y-87242857D01*
X111157142Y-87185714D01*
X111100000Y-87071428D01*
X111100000Y-87014285D01*
X111157142Y-86900000D01*
X111271428Y-86842857D01*
X111442857Y-86842857D01*
X111557142Y-86900000D01*
X112128571Y-87528571D02*
X112185714Y-87585714D01*
X112128571Y-87642857D01*
X112071428Y-87585714D01*
X112128571Y-87528571D01*
X112128571Y-87642857D01*
X112128571Y-86900000D02*
X112185714Y-86957142D01*
X112128571Y-87014285D01*
X112071428Y-86957142D01*
X112128571Y-86900000D01*
X112128571Y-87014285D01*
X113557142Y-86385714D02*
X112528571Y-87928571D01*
X114814285Y-86385714D02*
X113785714Y-87928571D01*
X115728571Y-86842857D02*
X115728571Y-87814285D01*
X115671428Y-87928571D01*
X115614285Y-87985714D01*
X115500000Y-88042857D01*
X115328571Y-88042857D01*
X115214285Y-87985714D01*
X115728571Y-87585714D02*
X115614285Y-87642857D01*
X115385714Y-87642857D01*
X115271428Y-87585714D01*
X115214285Y-87528571D01*
X115157142Y-87414285D01*
X115157142Y-87071428D01*
X115214285Y-86957142D01*
X115271428Y-86900000D01*
X115385714Y-86842857D01*
X115614285Y-86842857D01*
X115728571Y-86900000D01*
X116757142Y-87585714D02*
X116642857Y-87642857D01*
X116414285Y-87642857D01*
X116300000Y-87585714D01*
X116242857Y-87471428D01*
X116242857Y-87014285D01*
X116300000Y-86900000D01*
X116414285Y-86842857D01*
X116642857Y-86842857D01*
X116757142Y-86900000D01*
X116814285Y-87014285D01*
X116814285Y-87128571D01*
X116242857Y-87242857D01*
X117328571Y-87642857D02*
X117328571Y-86442857D01*
X117442857Y-87185714D02*
X117785714Y-87642857D01*
X117785714Y-86842857D02*
X117328571Y-87300000D01*
X118300000Y-87642857D02*
X118300000Y-86442857D01*
X118414285Y-87185714D02*
X118757142Y-87642857D01*
X118757142Y-86842857D02*
X118300000Y-87300000D01*
X119271428Y-87642857D02*
X119271428Y-86842857D01*
X119271428Y-86442857D02*
X119214285Y-86500000D01*
X119271428Y-86557142D01*
X119328571Y-86500000D01*
X119271428Y-86442857D01*
X119271428Y-86557142D01*
X120014285Y-87642857D02*
X119900000Y-87585714D01*
X119842857Y-87528571D01*
X119785714Y-87414285D01*
X119785714Y-87071428D01*
X119842857Y-86957142D01*
X119900000Y-86900000D01*
X120014285Y-86842857D01*
X120185714Y-86842857D01*
X120300000Y-86900000D01*
X120357142Y-86957142D01*
X120414285Y-87071428D01*
X120414285Y-87414285D01*
X120357142Y-87528571D01*
X120300000Y-87585714D01*
X120185714Y-87642857D01*
X120014285Y-87642857D01*
X120928571Y-87528571D02*
X120985714Y-87585714D01*
X120928571Y-87642857D01*
X120871428Y-87585714D01*
X120928571Y-87528571D01*
X120928571Y-87642857D01*
X121328571Y-86842857D02*
X121785714Y-86842857D01*
X121500000Y-87642857D02*
X121500000Y-86614285D01*
X121557142Y-86500000D01*
X121671428Y-86442857D01*
X121785714Y-86442857D01*
X122185714Y-87642857D02*
X122185714Y-86842857D01*
X122185714Y-86442857D02*
X122128571Y-86500000D01*
X122185714Y-86557142D01*
X122242857Y-86500000D01*
X122185714Y-86442857D01*
X122185714Y-86557142D01*
D10*
X121700000Y-39500000D02*
X121700000Y-41600000D01*
X74800000Y-39000000D02*
X121200000Y-39000000D01*
X125200000Y-41600000D02*
X121700000Y-41600000D01*
X74300000Y-90900000D02*
X74300000Y-39500000D01*
X75400000Y-91400000D02*
X74800000Y-91400000D01*
X75400000Y-99100000D02*
X75400000Y-91400000D01*
X125700000Y-90900000D02*
X125700000Y-42100000D01*
X124600000Y-91400000D02*
X125200000Y-91400000D01*
X124600000Y-99100000D02*
X124600000Y-91400000D01*
X76300000Y-100000000D02*
X123700000Y-100000000D01*
D13*
X107960000Y-45270000D02*
X107325000Y-45270000D01*
X107325000Y-45270000D02*
X107325000Y-44635000D01*
X86325511Y-68695960D02*
X85999953Y-68695960D01*
X86325511Y-69715960D02*
X85999953Y-69715960D01*
X118390000Y-54937221D02*
X118390000Y-55262779D01*
X119410000Y-54937221D02*
X119410000Y-55262779D01*
X107210000Y-54262779D02*
X107210000Y-53937221D01*
X106190000Y-54262779D02*
X106190000Y-53937221D01*
X106190000Y-58237221D02*
X106190000Y-58562779D01*
X107210000Y-58237221D02*
X107210000Y-58562779D01*
X119410000Y-50962779D02*
X119410000Y-50637221D01*
X118390000Y-50962779D02*
X118390000Y-50637221D01*
X79110000Y-47358578D02*
X79110000Y-46841422D01*
X77690000Y-47358578D02*
X77690000Y-46841422D01*
X77010000Y-47358578D02*
X77010000Y-46841422D01*
X75590000Y-47358578D02*
X75590000Y-46841422D01*
X120890000Y-54841422D02*
X120890000Y-55358578D01*
X122310000Y-54841422D02*
X122310000Y-55358578D01*
X122310000Y-50858578D02*
X122310000Y-50341422D01*
X120890000Y-50858578D02*
X120890000Y-50341422D01*
X77341422Y-56860000D02*
X77858578Y-56860000D01*
X77341422Y-55440000D02*
X77858578Y-55440000D01*
X83100000Y-58700000D02*
X83100000Y-60100000D01*
X82400000Y-60800000D02*
X81800000Y-60800000D01*
X81100000Y-60100000D02*
X81100000Y-58700000D01*
X81800000Y-58000000D02*
X82400000Y-58000000D01*
X82400000Y-58000000D02*
G75*
G02X83100000Y-58700000I0J-700000D01*
G01*
X81100000Y-58700000D02*
G75*
G02X81800000Y-58000000I700000J0D01*
G01*
X81800000Y-60800000D02*
G75*
G02X81100000Y-60100000I0J700000D01*
G01*
X83100000Y-60100000D02*
G75*
G02X82400000Y-60800000I-700000J0D01*
G01*
X85700000Y-58700000D02*
X85700000Y-60100000D01*
X85000000Y-60800000D02*
X84400000Y-60800000D01*
X83700000Y-60100000D02*
X83700000Y-58700000D01*
X84400000Y-58000000D02*
X85000000Y-58000000D01*
X85000000Y-58000000D02*
G75*
G02X85700000Y-58700000I0J-700000D01*
G01*
X83700000Y-58700000D02*
G75*
G02X84400000Y-58000000I700000J0D01*
G01*
X84400000Y-60800000D02*
G75*
G02X83700000Y-60100000I0J700000D01*
G01*
X85700000Y-60100000D02*
G75*
G02X85000000Y-60800000I-700000J0D01*
G01*
X78060000Y-53000000D02*
X78060000Y-51400000D01*
X76240000Y-52200000D02*
X76240000Y-51400000D01*
X89689950Y-76330960D02*
X89972732Y-76330960D01*
X88517732Y-75158742D02*
X89689950Y-76330960D01*
X88517732Y-74875960D02*
X88517732Y-75158742D01*
X102707732Y-64680960D02*
X101252732Y-64680960D01*
X102707732Y-66135960D02*
X102707732Y-64680960D01*
X102707732Y-76330960D02*
X101252732Y-76330960D01*
X102707732Y-74875960D02*
X102707732Y-76330960D01*
X88517732Y-64680960D02*
X89972732Y-64680960D01*
X88517732Y-66135960D02*
X88517732Y-64680960D01*
D10*
X109175000Y-51400000D02*
X107800000Y-51400000D01*
X116425000Y-50975000D02*
X115900000Y-50975000D01*
X116425000Y-58225000D02*
X115900000Y-58225000D01*
X109175000Y-58225000D02*
X109700000Y-58225000D01*
X109175000Y-50975000D02*
X109700000Y-50975000D01*
X109175000Y-58225000D02*
X109175000Y-57700000D01*
X116425000Y-58225000D02*
X116425000Y-57700000D01*
X116425000Y-50975000D02*
X116425000Y-51500000D01*
X109175000Y-50975000D02*
X109175000Y-51400000D01*
D13*
X115590000Y-44337221D02*
X115590000Y-44662779D01*
X116610000Y-44337221D02*
X116610000Y-44662779D01*
X116262779Y-46690000D02*
X115937221Y-46690000D01*
X116262779Y-47710000D02*
X115937221Y-47710000D01*
X105410000Y-44662779D02*
X105410000Y-44337221D01*
X104390000Y-44662779D02*
X104390000Y-44337221D01*
X78390000Y-60737221D02*
X78390000Y-61062779D01*
X79410000Y-60737221D02*
X79410000Y-61062779D01*
X83700000Y-44700000D02*
G75*
G03X83700000Y-44700000I-1200000J0D01*
G01*
X77800000Y-60100000D02*
G75*
G03X77800000Y-60100000I-1200000J0D01*
G01*
X83700000Y-49200000D02*
G75*
G03X83700000Y-49200000I-1200000J0D01*
G01*
D10*
X110166666Y-46152380D02*
X110166666Y-46866666D01*
X110119047Y-47009523D01*
X110023809Y-47104761D01*
X109880952Y-47152380D01*
X109785714Y-47152380D01*
X111166666Y-47152380D02*
X110595238Y-47152380D01*
X110880952Y-47152380D02*
X110880952Y-46152380D01*
X110785714Y-46295238D01*
X110690476Y-46390476D01*
X110595238Y-46438095D01*
X85996065Y-70993102D02*
X85948446Y-71040721D01*
X85805589Y-71088340D01*
X85710351Y-71088340D01*
X85567493Y-71040721D01*
X85472255Y-70945483D01*
X85424636Y-70850245D01*
X85377017Y-70659769D01*
X85377017Y-70516912D01*
X85424636Y-70326436D01*
X85472255Y-70231198D01*
X85567493Y-70135960D01*
X85710351Y-70088340D01*
X85805589Y-70088340D01*
X85948446Y-70135960D01*
X85996065Y-70183579D01*
X86853208Y-70421674D02*
X86853208Y-71088340D01*
X86615112Y-70040721D02*
X86377017Y-70755007D01*
X86996065Y-70755007D01*
X118733333Y-57757142D02*
X118685714Y-57804761D01*
X118542857Y-57852380D01*
X118447619Y-57852380D01*
X118304761Y-57804761D01*
X118209523Y-57709523D01*
X118161904Y-57614285D01*
X118114285Y-57423809D01*
X118114285Y-57280952D01*
X118161904Y-57090476D01*
X118209523Y-56995238D01*
X118304761Y-56900000D01*
X118447619Y-56852380D01*
X118542857Y-56852380D01*
X118685714Y-56900000D01*
X118733333Y-56947619D01*
X119590476Y-56852380D02*
X119400000Y-56852380D01*
X119304761Y-56900000D01*
X119257142Y-56947619D01*
X119161904Y-57090476D01*
X119114285Y-57280952D01*
X119114285Y-57661904D01*
X119161904Y-57757142D01*
X119209523Y-57804761D01*
X119304761Y-57852380D01*
X119495238Y-57852380D01*
X119590476Y-57804761D01*
X119638095Y-57757142D01*
X119685714Y-57661904D01*
X119685714Y-57423809D01*
X119638095Y-57328571D01*
X119590476Y-57280952D01*
X119495238Y-57233333D01*
X119304761Y-57233333D01*
X119209523Y-57280952D01*
X119161904Y-57328571D01*
X119114285Y-57423809D01*
X104033333Y-54457142D02*
X103985714Y-54504761D01*
X103842857Y-54552380D01*
X103747619Y-54552380D01*
X103604761Y-54504761D01*
X103509523Y-54409523D01*
X103461904Y-54314285D01*
X103414285Y-54123809D01*
X103414285Y-53980952D01*
X103461904Y-53790476D01*
X103509523Y-53695238D01*
X103604761Y-53600000D01*
X103747619Y-53552380D01*
X103842857Y-53552380D01*
X103985714Y-53600000D01*
X104033333Y-53647619D01*
X104366666Y-53552380D02*
X105033333Y-53552380D01*
X104604761Y-54552380D01*
X104233333Y-58757142D02*
X104185714Y-58804761D01*
X104042857Y-58852380D01*
X103947619Y-58852380D01*
X103804761Y-58804761D01*
X103709523Y-58709523D01*
X103661904Y-58614285D01*
X103614285Y-58423809D01*
X103614285Y-58280952D01*
X103661904Y-58090476D01*
X103709523Y-57995238D01*
X103804761Y-57900000D01*
X103947619Y-57852380D01*
X104042857Y-57852380D01*
X104185714Y-57900000D01*
X104233333Y-57947619D01*
X104709523Y-58852380D02*
X104900000Y-58852380D01*
X104995238Y-58804761D01*
X105042857Y-58757142D01*
X105138095Y-58614285D01*
X105185714Y-58423809D01*
X105185714Y-58042857D01*
X105138095Y-57947619D01*
X105090476Y-57900000D01*
X104995238Y-57852380D01*
X104804761Y-57852380D01*
X104709523Y-57900000D01*
X104661904Y-57947619D01*
X104614285Y-58042857D01*
X104614285Y-58280952D01*
X104661904Y-58376190D01*
X104709523Y-58423809D01*
X104804761Y-58471428D01*
X104995238Y-58471428D01*
X105090476Y-58423809D01*
X105138095Y-58376190D01*
X105185714Y-58280952D01*
X118157142Y-48957142D02*
X118109523Y-49004761D01*
X117966666Y-49052380D01*
X117871428Y-49052380D01*
X117728571Y-49004761D01*
X117633333Y-48909523D01*
X117585714Y-48814285D01*
X117538095Y-48623809D01*
X117538095Y-48480952D01*
X117585714Y-48290476D01*
X117633333Y-48195238D01*
X117728571Y-48100000D01*
X117871428Y-48052380D01*
X117966666Y-48052380D01*
X118109523Y-48100000D01*
X118157142Y-48147619D01*
X119109523Y-49052380D02*
X118538095Y-49052380D01*
X118823809Y-49052380D02*
X118823809Y-48052380D01*
X118728571Y-48195238D01*
X118633333Y-48290476D01*
X118538095Y-48338095D01*
X119728571Y-48052380D02*
X119823809Y-48052380D01*
X119919047Y-48100000D01*
X119966666Y-48147619D01*
X120014285Y-48242857D01*
X120061904Y-48433333D01*
X120061904Y-48671428D01*
X120014285Y-48861904D01*
X119966666Y-48957142D01*
X119919047Y-49004761D01*
X119823809Y-49052380D01*
X119728571Y-49052380D01*
X119633333Y-49004761D01*
X119585714Y-48957142D01*
X119538095Y-48861904D01*
X119490476Y-48671428D01*
X119490476Y-48433333D01*
X119538095Y-48242857D01*
X119585714Y-48147619D01*
X119633333Y-48100000D01*
X119728571Y-48052380D01*
X78233333Y-44257142D02*
X78185714Y-44304761D01*
X78042857Y-44352380D01*
X77947619Y-44352380D01*
X77804761Y-44304761D01*
X77709523Y-44209523D01*
X77661904Y-44114285D01*
X77614285Y-43923809D01*
X77614285Y-43780952D01*
X77661904Y-43590476D01*
X77709523Y-43495238D01*
X77804761Y-43400000D01*
X77947619Y-43352380D01*
X78042857Y-43352380D01*
X78185714Y-43400000D01*
X78233333Y-43447619D01*
X78614285Y-43447619D02*
X78661904Y-43400000D01*
X78757142Y-43352380D01*
X78995238Y-43352380D01*
X79090476Y-43400000D01*
X79138095Y-43447619D01*
X79185714Y-43542857D01*
X79185714Y-43638095D01*
X79138095Y-43780952D01*
X78566666Y-44352380D01*
X79185714Y-44352380D01*
X76133333Y-44257142D02*
X76085714Y-44304761D01*
X75942857Y-44352380D01*
X75847619Y-44352380D01*
X75704761Y-44304761D01*
X75609523Y-44209523D01*
X75561904Y-44114285D01*
X75514285Y-43923809D01*
X75514285Y-43780952D01*
X75561904Y-43590476D01*
X75609523Y-43495238D01*
X75704761Y-43400000D01*
X75847619Y-43352380D01*
X75942857Y-43352380D01*
X76085714Y-43400000D01*
X76133333Y-43447619D01*
X76466666Y-43352380D02*
X77085714Y-43352380D01*
X76752380Y-43733333D01*
X76895238Y-43733333D01*
X76990476Y-43780952D01*
X77038095Y-43828571D01*
X77085714Y-43923809D01*
X77085714Y-44161904D01*
X77038095Y-44257142D01*
X76990476Y-44304761D01*
X76895238Y-44352380D01*
X76609523Y-44352380D01*
X76514285Y-44304761D01*
X76466666Y-44257142D01*
X121433333Y-57957142D02*
X121385714Y-58004761D01*
X121242857Y-58052380D01*
X121147619Y-58052380D01*
X121004761Y-58004761D01*
X120909523Y-57909523D01*
X120861904Y-57814285D01*
X120814285Y-57623809D01*
X120814285Y-57480952D01*
X120861904Y-57290476D01*
X120909523Y-57195238D01*
X121004761Y-57100000D01*
X121147619Y-57052380D01*
X121242857Y-57052380D01*
X121385714Y-57100000D01*
X121433333Y-57147619D01*
X122338095Y-57052380D02*
X121861904Y-57052380D01*
X121814285Y-57528571D01*
X121861904Y-57480952D01*
X121957142Y-57433333D01*
X122195238Y-57433333D01*
X122290476Y-57480952D01*
X122338095Y-57528571D01*
X122385714Y-57623809D01*
X122385714Y-57861904D01*
X122338095Y-57957142D01*
X122290476Y-58004761D01*
X122195238Y-58052380D01*
X121957142Y-58052380D01*
X121861904Y-58004761D01*
X121814285Y-57957142D01*
X121433333Y-48657142D02*
X121385714Y-48704761D01*
X121242857Y-48752380D01*
X121147619Y-48752380D01*
X121004761Y-48704761D01*
X120909523Y-48609523D01*
X120861904Y-48514285D01*
X120814285Y-48323809D01*
X120814285Y-48180952D01*
X120861904Y-47990476D01*
X120909523Y-47895238D01*
X121004761Y-47800000D01*
X121147619Y-47752380D01*
X121242857Y-47752380D01*
X121385714Y-47800000D01*
X121433333Y-47847619D01*
X122004761Y-48180952D02*
X121909523Y-48133333D01*
X121861904Y-48085714D01*
X121814285Y-47990476D01*
X121814285Y-47942857D01*
X121861904Y-47847619D01*
X121909523Y-47800000D01*
X122004761Y-47752380D01*
X122195238Y-47752380D01*
X122290476Y-47800000D01*
X122338095Y-47847619D01*
X122385714Y-47942857D01*
X122385714Y-47990476D01*
X122338095Y-48085714D01*
X122290476Y-48133333D01*
X122195238Y-48180952D01*
X122004761Y-48180952D01*
X121909523Y-48228571D01*
X121861904Y-48276190D01*
X121814285Y-48371428D01*
X121814285Y-48561904D01*
X121861904Y-48657142D01*
X121909523Y-48704761D01*
X122004761Y-48752380D01*
X122195238Y-48752380D01*
X122290476Y-48704761D01*
X122338095Y-48657142D01*
X122385714Y-48561904D01*
X122385714Y-48371428D01*
X122338095Y-48276190D01*
X122290476Y-48228571D01*
X122195238Y-48180952D01*
X78383333Y-54857142D02*
X78335714Y-54904761D01*
X78192857Y-54952380D01*
X78097619Y-54952380D01*
X77954761Y-54904761D01*
X77859523Y-54809523D01*
X77811904Y-54714285D01*
X77764285Y-54523809D01*
X77764285Y-54380952D01*
X77811904Y-54190476D01*
X77859523Y-54095238D01*
X77954761Y-54000000D01*
X78097619Y-53952380D01*
X78192857Y-53952380D01*
X78335714Y-54000000D01*
X78383333Y-54047619D01*
X79335714Y-54952380D02*
X78764285Y-54952380D01*
X79050000Y-54952380D02*
X79050000Y-53952380D01*
X78954761Y-54095238D01*
X78859523Y-54190476D01*
X78764285Y-54238095D01*
X76585714Y-91952380D02*
X76014285Y-91952380D01*
X76300000Y-91952380D02*
X76300000Y-90952380D01*
X76204761Y-91095238D01*
X76109523Y-91190476D01*
X76014285Y-91238095D01*
X122390476Y-90952380D02*
X123009523Y-90952380D01*
X122676190Y-91333333D01*
X122819047Y-91333333D01*
X122914285Y-91380952D01*
X122961904Y-91428571D01*
X123009523Y-91523809D01*
X123009523Y-91761904D01*
X122961904Y-91857142D01*
X122914285Y-91904761D01*
X122819047Y-91952380D01*
X122533333Y-91952380D01*
X122438095Y-91904761D01*
X122390476Y-91857142D01*
X123390476Y-91047619D02*
X123438095Y-91000000D01*
X123533333Y-90952380D01*
X123771428Y-90952380D01*
X123866666Y-91000000D01*
X123914285Y-91047619D01*
X123961904Y-91142857D01*
X123961904Y-91238095D01*
X123914285Y-91380952D01*
X123342857Y-91952380D01*
X123961904Y-91952380D01*
X81266666Y-61252380D02*
X81266666Y-61966666D01*
X81219047Y-62109523D01*
X81123809Y-62204761D01*
X80980952Y-62252380D01*
X80885714Y-62252380D01*
X81742857Y-62252380D02*
X81742857Y-61252380D01*
X82123809Y-61252380D01*
X82219047Y-61300000D01*
X82266666Y-61347619D01*
X82314285Y-61442857D01*
X82314285Y-61585714D01*
X82266666Y-61680952D01*
X82219047Y-61728571D01*
X82123809Y-61776190D01*
X81742857Y-61776190D01*
X82695238Y-61347619D02*
X82742857Y-61300000D01*
X82838095Y-61252380D01*
X83076190Y-61252380D01*
X83171428Y-61300000D01*
X83219047Y-61347619D01*
X83266666Y-61442857D01*
X83266666Y-61538095D01*
X83219047Y-61680952D01*
X82647619Y-62252380D01*
X83266666Y-62252380D01*
X83966666Y-61252380D02*
X83966666Y-61966666D01*
X83919047Y-62109523D01*
X83823809Y-62204761D01*
X83680952Y-62252380D01*
X83585714Y-62252380D01*
X84442857Y-62252380D02*
X84442857Y-61252380D01*
X84823809Y-61252380D01*
X84919047Y-61300000D01*
X84966666Y-61347619D01*
X85014285Y-61442857D01*
X85014285Y-61585714D01*
X84966666Y-61680952D01*
X84919047Y-61728571D01*
X84823809Y-61776190D01*
X84442857Y-61776190D01*
X85966666Y-62252380D02*
X85395238Y-62252380D01*
X85680952Y-62252380D02*
X85680952Y-61252380D01*
X85585714Y-61395238D01*
X85490476Y-61490476D01*
X85395238Y-61538095D01*
X78638095Y-51652380D02*
X78638095Y-52461904D01*
X78685714Y-52557142D01*
X78733333Y-52604761D01*
X78828571Y-52652380D01*
X79019047Y-52652380D01*
X79114285Y-52604761D01*
X79161904Y-52557142D01*
X79209523Y-52461904D01*
X79209523Y-51652380D01*
X79638095Y-51747619D02*
X79685714Y-51700000D01*
X79780952Y-51652380D01*
X80019047Y-51652380D01*
X80114285Y-51700000D01*
X80161904Y-51747619D01*
X80209523Y-51842857D01*
X80209523Y-51938095D01*
X80161904Y-52080952D01*
X79590476Y-52652380D01*
X80209523Y-52652380D01*
X101738095Y-63252380D02*
X101738095Y-64061904D01*
X101785714Y-64157142D01*
X101833333Y-64204761D01*
X101928571Y-64252380D01*
X102119047Y-64252380D01*
X102214285Y-64204761D01*
X102261904Y-64157142D01*
X102309523Y-64061904D01*
X102309523Y-63252380D01*
X102690476Y-63252380D02*
X103309523Y-63252380D01*
X102976190Y-63633333D01*
X103119047Y-63633333D01*
X103214285Y-63680952D01*
X103261904Y-63728571D01*
X103309523Y-63823809D01*
X103309523Y-64061904D01*
X103261904Y-64157142D01*
X103214285Y-64204761D01*
X103119047Y-64252380D01*
X102833333Y-64252380D01*
X102738095Y-64204761D01*
X102690476Y-64157142D01*
X105838095Y-49552380D02*
X105838095Y-50361904D01*
X105885714Y-50457142D01*
X105933333Y-50504761D01*
X106028571Y-50552380D01*
X106219047Y-50552380D01*
X106314285Y-50504761D01*
X106361904Y-50457142D01*
X106409523Y-50361904D01*
X106409523Y-49552380D01*
X107409523Y-50552380D02*
X106838095Y-50552380D01*
X107123809Y-50552380D02*
X107123809Y-49552380D01*
X107028571Y-49695238D01*
X106933333Y-49790476D01*
X106838095Y-49838095D01*
X117633333Y-44952380D02*
X117300000Y-44476190D01*
X117061904Y-44952380D02*
X117061904Y-43952380D01*
X117442857Y-43952380D01*
X117538095Y-44000000D01*
X117585714Y-44047619D01*
X117633333Y-44142857D01*
X117633333Y-44285714D01*
X117585714Y-44380952D01*
X117538095Y-44428571D01*
X117442857Y-44476190D01*
X117061904Y-44476190D01*
X118585714Y-44952380D02*
X118014285Y-44952380D01*
X118300000Y-44952380D02*
X118300000Y-43952380D01*
X118204761Y-44095238D01*
X118109523Y-44190476D01*
X118014285Y-44238095D01*
X118533333Y-47652380D02*
X118200000Y-47176190D01*
X117961904Y-47652380D02*
X117961904Y-46652380D01*
X118342857Y-46652380D01*
X118438095Y-46700000D01*
X118485714Y-46747619D01*
X118533333Y-46842857D01*
X118533333Y-46985714D01*
X118485714Y-47080952D01*
X118438095Y-47128571D01*
X118342857Y-47176190D01*
X117961904Y-47176190D01*
X118914285Y-46747619D02*
X118961904Y-46700000D01*
X119057142Y-46652380D01*
X119295238Y-46652380D01*
X119390476Y-46700000D01*
X119438095Y-46747619D01*
X119485714Y-46842857D01*
X119485714Y-46938095D01*
X119438095Y-47080952D01*
X118866666Y-47652380D01*
X119485714Y-47652380D01*
X103033333Y-44952380D02*
X102700000Y-44476190D01*
X102461904Y-44952380D02*
X102461904Y-43952380D01*
X102842857Y-43952380D01*
X102938095Y-44000000D01*
X102985714Y-44047619D01*
X103033333Y-44142857D01*
X103033333Y-44285714D01*
X102985714Y-44380952D01*
X102938095Y-44428571D01*
X102842857Y-44476190D01*
X102461904Y-44476190D01*
X103366666Y-43952380D02*
X103985714Y-43952380D01*
X103652380Y-44333333D01*
X103795238Y-44333333D01*
X103890476Y-44380952D01*
X103938095Y-44428571D01*
X103985714Y-44523809D01*
X103985714Y-44761904D01*
X103938095Y-44857142D01*
X103890476Y-44904761D01*
X103795238Y-44952380D01*
X103509523Y-44952380D01*
X103414285Y-44904761D01*
X103366666Y-44857142D01*
X78733333Y-63752380D02*
X78400000Y-63276190D01*
X78161904Y-63752380D02*
X78161904Y-62752380D01*
X78542857Y-62752380D01*
X78638095Y-62800000D01*
X78685714Y-62847619D01*
X78733333Y-62942857D01*
X78733333Y-63085714D01*
X78685714Y-63180952D01*
X78638095Y-63228571D01*
X78542857Y-63276190D01*
X78161904Y-63276190D01*
X79590476Y-63085714D02*
X79590476Y-63752380D01*
X79352380Y-62704761D02*
X79114285Y-63419047D01*
X79733333Y-63419047D01*
X81238095Y-42154380D02*
X81809523Y-42154380D01*
X81523809Y-43154380D02*
X81523809Y-42154380D01*
X82142857Y-43154380D02*
X82142857Y-42154380D01*
X82523809Y-42154380D01*
X82619047Y-42202000D01*
X82666666Y-42249619D01*
X82714285Y-42344857D01*
X82714285Y-42487714D01*
X82666666Y-42582952D01*
X82619047Y-42630571D01*
X82523809Y-42678190D01*
X82142857Y-42678190D01*
X83047619Y-42154380D02*
X83666666Y-42154380D01*
X83333333Y-42535333D01*
X83476190Y-42535333D01*
X83571428Y-42582952D01*
X83619047Y-42630571D01*
X83666666Y-42725809D01*
X83666666Y-42963904D01*
X83619047Y-43059142D01*
X83571428Y-43106761D01*
X83476190Y-43154380D01*
X83190476Y-43154380D01*
X83095238Y-43106761D01*
X83047619Y-43059142D01*
X75338095Y-57554380D02*
X75909523Y-57554380D01*
X75623809Y-58554380D02*
X75623809Y-57554380D01*
X76242857Y-58554380D02*
X76242857Y-57554380D01*
X76623809Y-57554380D01*
X76719047Y-57602000D01*
X76766666Y-57649619D01*
X76814285Y-57744857D01*
X76814285Y-57887714D01*
X76766666Y-57982952D01*
X76719047Y-58030571D01*
X76623809Y-58078190D01*
X76242857Y-58078190D01*
X77766666Y-58554380D02*
X77195238Y-58554380D01*
X77480952Y-58554380D02*
X77480952Y-57554380D01*
X77385714Y-57697238D01*
X77290476Y-57792476D01*
X77195238Y-57840095D01*
X81238095Y-46654380D02*
X81809523Y-46654380D01*
X81523809Y-47654380D02*
X81523809Y-46654380D01*
X82142857Y-47654380D02*
X82142857Y-46654380D01*
X82523809Y-46654380D01*
X82619047Y-46702000D01*
X82666666Y-46749619D01*
X82714285Y-46844857D01*
X82714285Y-46987714D01*
X82666666Y-47082952D01*
X82619047Y-47130571D01*
X82523809Y-47178190D01*
X82142857Y-47178190D01*
X83095238Y-46749619D02*
X83142857Y-46702000D01*
X83238095Y-46654380D01*
X83476190Y-46654380D01*
X83571428Y-46702000D01*
X83619047Y-46749619D01*
X83666666Y-46844857D01*
X83666666Y-46940095D01*
X83619047Y-47082952D01*
X83047619Y-47654380D01*
X83666666Y-47654380D01*
M02*
