G04 #@! TF.GenerationSoftware,KiCad,Pcbnew,5.0.2-bee76a0~70~ubuntu18.10.1*
G04 #@! TF.CreationDate,2019-01-06T00:11:17+02:00*
G04 #@! TF.ProjectId,GB-CART2M-A,47422d43-4152-4543-924d-2d412e6b6963,v1.0*
G04 #@! TF.SameCoordinates,Original*
G04 #@! TF.FileFunction,Paste,Top*
G04 #@! TF.FilePolarity,Positive*
%FSLAX46Y46*%
G04 Gerber Fmt 4.6, Leading zero omitted, Abs format (unit mm)*
G04 Created by KiCad (PCBNEW 5.0.2-bee76a0~70~ubuntu18.10.1) date su  6. tammikuuta 2019 00.11.17*
%MOMM*%
%LPD*%
G01*
G04 APERTURE LIST*
%ADD10C,0.150000*%
%ADD11C,0.100000*%
%ADD12C,0.875000*%
%ADD13C,0.975000*%
%ADD14C,0.400000*%
%ADD15C,0.250000*%
%ADD16C,0.600000*%
%ADD17R,1.300000X0.250000*%
%ADD18R,0.250000X1.300000*%
G04 APERTURE END LIST*
D10*
X121700000Y-39000000D02*
X121700000Y-41600000D01*
X74300000Y-39000000D02*
X121700000Y-39000000D01*
X125700000Y-41600000D02*
X121700000Y-41600000D01*
X74300000Y-91400000D02*
X74300000Y-39000000D01*
X75400000Y-91400000D02*
X74300000Y-91400000D01*
X75400000Y-100000000D02*
X75400000Y-91400000D01*
X125700000Y-91400000D02*
X125700000Y-41600000D01*
X124600000Y-91400000D02*
X125700000Y-91400000D01*
X124600000Y-100000000D02*
X124600000Y-91400000D01*
X75400000Y-100000000D02*
X124600000Y-100000000D01*
D11*
G04 #@! TO.C,C4*
G36*
X87190423Y-68732013D02*
X87211658Y-68735163D01*
X87232482Y-68740379D01*
X87252694Y-68747611D01*
X87272100Y-68756790D01*
X87290513Y-68767826D01*
X87307756Y-68780614D01*
X87323662Y-68795030D01*
X87338078Y-68810936D01*
X87350866Y-68828179D01*
X87361902Y-68846592D01*
X87371081Y-68865998D01*
X87378313Y-68886210D01*
X87383529Y-68907034D01*
X87386679Y-68928269D01*
X87387732Y-68949710D01*
X87387732Y-69462210D01*
X87386679Y-69483651D01*
X87383529Y-69504886D01*
X87378313Y-69525710D01*
X87371081Y-69545922D01*
X87361902Y-69565328D01*
X87350866Y-69583741D01*
X87338078Y-69600984D01*
X87323662Y-69616890D01*
X87307756Y-69631306D01*
X87290513Y-69644094D01*
X87272100Y-69655130D01*
X87252694Y-69664309D01*
X87232482Y-69671541D01*
X87211658Y-69676757D01*
X87190423Y-69679907D01*
X87168982Y-69680960D01*
X86731482Y-69680960D01*
X86710041Y-69679907D01*
X86688806Y-69676757D01*
X86667982Y-69671541D01*
X86647770Y-69664309D01*
X86628364Y-69655130D01*
X86609951Y-69644094D01*
X86592708Y-69631306D01*
X86576802Y-69616890D01*
X86562386Y-69600984D01*
X86549598Y-69583741D01*
X86538562Y-69565328D01*
X86529383Y-69545922D01*
X86522151Y-69525710D01*
X86516935Y-69504886D01*
X86513785Y-69483651D01*
X86512732Y-69462210D01*
X86512732Y-68949710D01*
X86513785Y-68928269D01*
X86516935Y-68907034D01*
X86522151Y-68886210D01*
X86529383Y-68865998D01*
X86538562Y-68846592D01*
X86549598Y-68828179D01*
X86562386Y-68810936D01*
X86576802Y-68795030D01*
X86592708Y-68780614D01*
X86609951Y-68767826D01*
X86628364Y-68756790D01*
X86647770Y-68747611D01*
X86667982Y-68740379D01*
X86688806Y-68735163D01*
X86710041Y-68732013D01*
X86731482Y-68730960D01*
X87168982Y-68730960D01*
X87190423Y-68732013D01*
X87190423Y-68732013D01*
G37*
D12*
X86950232Y-69205960D03*
D11*
G36*
X85615423Y-68732013D02*
X85636658Y-68735163D01*
X85657482Y-68740379D01*
X85677694Y-68747611D01*
X85697100Y-68756790D01*
X85715513Y-68767826D01*
X85732756Y-68780614D01*
X85748662Y-68795030D01*
X85763078Y-68810936D01*
X85775866Y-68828179D01*
X85786902Y-68846592D01*
X85796081Y-68865998D01*
X85803313Y-68886210D01*
X85808529Y-68907034D01*
X85811679Y-68928269D01*
X85812732Y-68949710D01*
X85812732Y-69462210D01*
X85811679Y-69483651D01*
X85808529Y-69504886D01*
X85803313Y-69525710D01*
X85796081Y-69545922D01*
X85786902Y-69565328D01*
X85775866Y-69583741D01*
X85763078Y-69600984D01*
X85748662Y-69616890D01*
X85732756Y-69631306D01*
X85715513Y-69644094D01*
X85697100Y-69655130D01*
X85677694Y-69664309D01*
X85657482Y-69671541D01*
X85636658Y-69676757D01*
X85615423Y-69679907D01*
X85593982Y-69680960D01*
X85156482Y-69680960D01*
X85135041Y-69679907D01*
X85113806Y-69676757D01*
X85092982Y-69671541D01*
X85072770Y-69664309D01*
X85053364Y-69655130D01*
X85034951Y-69644094D01*
X85017708Y-69631306D01*
X85001802Y-69616890D01*
X84987386Y-69600984D01*
X84974598Y-69583741D01*
X84963562Y-69565328D01*
X84954383Y-69545922D01*
X84947151Y-69525710D01*
X84941935Y-69504886D01*
X84938785Y-69483651D01*
X84937732Y-69462210D01*
X84937732Y-68949710D01*
X84938785Y-68928269D01*
X84941935Y-68907034D01*
X84947151Y-68886210D01*
X84954383Y-68865998D01*
X84963562Y-68846592D01*
X84974598Y-68828179D01*
X84987386Y-68810936D01*
X85001802Y-68795030D01*
X85017708Y-68780614D01*
X85034951Y-68767826D01*
X85053364Y-68756790D01*
X85072770Y-68747611D01*
X85092982Y-68740379D01*
X85113806Y-68735163D01*
X85135041Y-68732013D01*
X85156482Y-68730960D01*
X85593982Y-68730960D01*
X85615423Y-68732013D01*
X85615423Y-68732013D01*
G37*
D12*
X85375232Y-69205960D03*
G04 #@! TD*
D11*
G04 #@! TO.C,C6*
G36*
X119177691Y-55451053D02*
X119198926Y-55454203D01*
X119219750Y-55459419D01*
X119239962Y-55466651D01*
X119259368Y-55475830D01*
X119277781Y-55486866D01*
X119295024Y-55499654D01*
X119310930Y-55514070D01*
X119325346Y-55529976D01*
X119338134Y-55547219D01*
X119349170Y-55565632D01*
X119358349Y-55585038D01*
X119365581Y-55605250D01*
X119370797Y-55626074D01*
X119373947Y-55647309D01*
X119375000Y-55668750D01*
X119375000Y-56106250D01*
X119373947Y-56127691D01*
X119370797Y-56148926D01*
X119365581Y-56169750D01*
X119358349Y-56189962D01*
X119349170Y-56209368D01*
X119338134Y-56227781D01*
X119325346Y-56245024D01*
X119310930Y-56260930D01*
X119295024Y-56275346D01*
X119277781Y-56288134D01*
X119259368Y-56299170D01*
X119239962Y-56308349D01*
X119219750Y-56315581D01*
X119198926Y-56320797D01*
X119177691Y-56323947D01*
X119156250Y-56325000D01*
X118643750Y-56325000D01*
X118622309Y-56323947D01*
X118601074Y-56320797D01*
X118580250Y-56315581D01*
X118560038Y-56308349D01*
X118540632Y-56299170D01*
X118522219Y-56288134D01*
X118504976Y-56275346D01*
X118489070Y-56260930D01*
X118474654Y-56245024D01*
X118461866Y-56227781D01*
X118450830Y-56209368D01*
X118441651Y-56189962D01*
X118434419Y-56169750D01*
X118429203Y-56148926D01*
X118426053Y-56127691D01*
X118425000Y-56106250D01*
X118425000Y-55668750D01*
X118426053Y-55647309D01*
X118429203Y-55626074D01*
X118434419Y-55605250D01*
X118441651Y-55585038D01*
X118450830Y-55565632D01*
X118461866Y-55547219D01*
X118474654Y-55529976D01*
X118489070Y-55514070D01*
X118504976Y-55499654D01*
X118522219Y-55486866D01*
X118540632Y-55475830D01*
X118560038Y-55466651D01*
X118580250Y-55459419D01*
X118601074Y-55454203D01*
X118622309Y-55451053D01*
X118643750Y-55450000D01*
X119156250Y-55450000D01*
X119177691Y-55451053D01*
X119177691Y-55451053D01*
G37*
D12*
X118900000Y-55887500D03*
D11*
G36*
X119177691Y-53876053D02*
X119198926Y-53879203D01*
X119219750Y-53884419D01*
X119239962Y-53891651D01*
X119259368Y-53900830D01*
X119277781Y-53911866D01*
X119295024Y-53924654D01*
X119310930Y-53939070D01*
X119325346Y-53954976D01*
X119338134Y-53972219D01*
X119349170Y-53990632D01*
X119358349Y-54010038D01*
X119365581Y-54030250D01*
X119370797Y-54051074D01*
X119373947Y-54072309D01*
X119375000Y-54093750D01*
X119375000Y-54531250D01*
X119373947Y-54552691D01*
X119370797Y-54573926D01*
X119365581Y-54594750D01*
X119358349Y-54614962D01*
X119349170Y-54634368D01*
X119338134Y-54652781D01*
X119325346Y-54670024D01*
X119310930Y-54685930D01*
X119295024Y-54700346D01*
X119277781Y-54713134D01*
X119259368Y-54724170D01*
X119239962Y-54733349D01*
X119219750Y-54740581D01*
X119198926Y-54745797D01*
X119177691Y-54748947D01*
X119156250Y-54750000D01*
X118643750Y-54750000D01*
X118622309Y-54748947D01*
X118601074Y-54745797D01*
X118580250Y-54740581D01*
X118560038Y-54733349D01*
X118540632Y-54724170D01*
X118522219Y-54713134D01*
X118504976Y-54700346D01*
X118489070Y-54685930D01*
X118474654Y-54670024D01*
X118461866Y-54652781D01*
X118450830Y-54634368D01*
X118441651Y-54614962D01*
X118434419Y-54594750D01*
X118429203Y-54573926D01*
X118426053Y-54552691D01*
X118425000Y-54531250D01*
X118425000Y-54093750D01*
X118426053Y-54072309D01*
X118429203Y-54051074D01*
X118434419Y-54030250D01*
X118441651Y-54010038D01*
X118450830Y-53990632D01*
X118461866Y-53972219D01*
X118474654Y-53954976D01*
X118489070Y-53939070D01*
X118504976Y-53924654D01*
X118522219Y-53911866D01*
X118540632Y-53900830D01*
X118560038Y-53891651D01*
X118580250Y-53884419D01*
X118601074Y-53879203D01*
X118622309Y-53876053D01*
X118643750Y-53875000D01*
X119156250Y-53875000D01*
X119177691Y-53876053D01*
X119177691Y-53876053D01*
G37*
D12*
X118900000Y-54312500D03*
G04 #@! TD*
D11*
G04 #@! TO.C,C7*
G36*
X106977691Y-54451053D02*
X106998926Y-54454203D01*
X107019750Y-54459419D01*
X107039962Y-54466651D01*
X107059368Y-54475830D01*
X107077781Y-54486866D01*
X107095024Y-54499654D01*
X107110930Y-54514070D01*
X107125346Y-54529976D01*
X107138134Y-54547219D01*
X107149170Y-54565632D01*
X107158349Y-54585038D01*
X107165581Y-54605250D01*
X107170797Y-54626074D01*
X107173947Y-54647309D01*
X107175000Y-54668750D01*
X107175000Y-55106250D01*
X107173947Y-55127691D01*
X107170797Y-55148926D01*
X107165581Y-55169750D01*
X107158349Y-55189962D01*
X107149170Y-55209368D01*
X107138134Y-55227781D01*
X107125346Y-55245024D01*
X107110930Y-55260930D01*
X107095024Y-55275346D01*
X107077781Y-55288134D01*
X107059368Y-55299170D01*
X107039962Y-55308349D01*
X107019750Y-55315581D01*
X106998926Y-55320797D01*
X106977691Y-55323947D01*
X106956250Y-55325000D01*
X106443750Y-55325000D01*
X106422309Y-55323947D01*
X106401074Y-55320797D01*
X106380250Y-55315581D01*
X106360038Y-55308349D01*
X106340632Y-55299170D01*
X106322219Y-55288134D01*
X106304976Y-55275346D01*
X106289070Y-55260930D01*
X106274654Y-55245024D01*
X106261866Y-55227781D01*
X106250830Y-55209368D01*
X106241651Y-55189962D01*
X106234419Y-55169750D01*
X106229203Y-55148926D01*
X106226053Y-55127691D01*
X106225000Y-55106250D01*
X106225000Y-54668750D01*
X106226053Y-54647309D01*
X106229203Y-54626074D01*
X106234419Y-54605250D01*
X106241651Y-54585038D01*
X106250830Y-54565632D01*
X106261866Y-54547219D01*
X106274654Y-54529976D01*
X106289070Y-54514070D01*
X106304976Y-54499654D01*
X106322219Y-54486866D01*
X106340632Y-54475830D01*
X106360038Y-54466651D01*
X106380250Y-54459419D01*
X106401074Y-54454203D01*
X106422309Y-54451053D01*
X106443750Y-54450000D01*
X106956250Y-54450000D01*
X106977691Y-54451053D01*
X106977691Y-54451053D01*
G37*
D12*
X106700000Y-54887500D03*
D11*
G36*
X106977691Y-52876053D02*
X106998926Y-52879203D01*
X107019750Y-52884419D01*
X107039962Y-52891651D01*
X107059368Y-52900830D01*
X107077781Y-52911866D01*
X107095024Y-52924654D01*
X107110930Y-52939070D01*
X107125346Y-52954976D01*
X107138134Y-52972219D01*
X107149170Y-52990632D01*
X107158349Y-53010038D01*
X107165581Y-53030250D01*
X107170797Y-53051074D01*
X107173947Y-53072309D01*
X107175000Y-53093750D01*
X107175000Y-53531250D01*
X107173947Y-53552691D01*
X107170797Y-53573926D01*
X107165581Y-53594750D01*
X107158349Y-53614962D01*
X107149170Y-53634368D01*
X107138134Y-53652781D01*
X107125346Y-53670024D01*
X107110930Y-53685930D01*
X107095024Y-53700346D01*
X107077781Y-53713134D01*
X107059368Y-53724170D01*
X107039962Y-53733349D01*
X107019750Y-53740581D01*
X106998926Y-53745797D01*
X106977691Y-53748947D01*
X106956250Y-53750000D01*
X106443750Y-53750000D01*
X106422309Y-53748947D01*
X106401074Y-53745797D01*
X106380250Y-53740581D01*
X106360038Y-53733349D01*
X106340632Y-53724170D01*
X106322219Y-53713134D01*
X106304976Y-53700346D01*
X106289070Y-53685930D01*
X106274654Y-53670024D01*
X106261866Y-53652781D01*
X106250830Y-53634368D01*
X106241651Y-53614962D01*
X106234419Y-53594750D01*
X106229203Y-53573926D01*
X106226053Y-53552691D01*
X106225000Y-53531250D01*
X106225000Y-53093750D01*
X106226053Y-53072309D01*
X106229203Y-53051074D01*
X106234419Y-53030250D01*
X106241651Y-53010038D01*
X106250830Y-52990632D01*
X106261866Y-52972219D01*
X106274654Y-52954976D01*
X106289070Y-52939070D01*
X106304976Y-52924654D01*
X106322219Y-52911866D01*
X106340632Y-52900830D01*
X106360038Y-52891651D01*
X106380250Y-52884419D01*
X106401074Y-52879203D01*
X106422309Y-52876053D01*
X106443750Y-52875000D01*
X106956250Y-52875000D01*
X106977691Y-52876053D01*
X106977691Y-52876053D01*
G37*
D12*
X106700000Y-53312500D03*
G04 #@! TD*
D11*
G04 #@! TO.C,C9*
G36*
X106977691Y-58751053D02*
X106998926Y-58754203D01*
X107019750Y-58759419D01*
X107039962Y-58766651D01*
X107059368Y-58775830D01*
X107077781Y-58786866D01*
X107095024Y-58799654D01*
X107110930Y-58814070D01*
X107125346Y-58829976D01*
X107138134Y-58847219D01*
X107149170Y-58865632D01*
X107158349Y-58885038D01*
X107165581Y-58905250D01*
X107170797Y-58926074D01*
X107173947Y-58947309D01*
X107175000Y-58968750D01*
X107175000Y-59406250D01*
X107173947Y-59427691D01*
X107170797Y-59448926D01*
X107165581Y-59469750D01*
X107158349Y-59489962D01*
X107149170Y-59509368D01*
X107138134Y-59527781D01*
X107125346Y-59545024D01*
X107110930Y-59560930D01*
X107095024Y-59575346D01*
X107077781Y-59588134D01*
X107059368Y-59599170D01*
X107039962Y-59608349D01*
X107019750Y-59615581D01*
X106998926Y-59620797D01*
X106977691Y-59623947D01*
X106956250Y-59625000D01*
X106443750Y-59625000D01*
X106422309Y-59623947D01*
X106401074Y-59620797D01*
X106380250Y-59615581D01*
X106360038Y-59608349D01*
X106340632Y-59599170D01*
X106322219Y-59588134D01*
X106304976Y-59575346D01*
X106289070Y-59560930D01*
X106274654Y-59545024D01*
X106261866Y-59527781D01*
X106250830Y-59509368D01*
X106241651Y-59489962D01*
X106234419Y-59469750D01*
X106229203Y-59448926D01*
X106226053Y-59427691D01*
X106225000Y-59406250D01*
X106225000Y-58968750D01*
X106226053Y-58947309D01*
X106229203Y-58926074D01*
X106234419Y-58905250D01*
X106241651Y-58885038D01*
X106250830Y-58865632D01*
X106261866Y-58847219D01*
X106274654Y-58829976D01*
X106289070Y-58814070D01*
X106304976Y-58799654D01*
X106322219Y-58786866D01*
X106340632Y-58775830D01*
X106360038Y-58766651D01*
X106380250Y-58759419D01*
X106401074Y-58754203D01*
X106422309Y-58751053D01*
X106443750Y-58750000D01*
X106956250Y-58750000D01*
X106977691Y-58751053D01*
X106977691Y-58751053D01*
G37*
D12*
X106700000Y-59187500D03*
D11*
G36*
X106977691Y-57176053D02*
X106998926Y-57179203D01*
X107019750Y-57184419D01*
X107039962Y-57191651D01*
X107059368Y-57200830D01*
X107077781Y-57211866D01*
X107095024Y-57224654D01*
X107110930Y-57239070D01*
X107125346Y-57254976D01*
X107138134Y-57272219D01*
X107149170Y-57290632D01*
X107158349Y-57310038D01*
X107165581Y-57330250D01*
X107170797Y-57351074D01*
X107173947Y-57372309D01*
X107175000Y-57393750D01*
X107175000Y-57831250D01*
X107173947Y-57852691D01*
X107170797Y-57873926D01*
X107165581Y-57894750D01*
X107158349Y-57914962D01*
X107149170Y-57934368D01*
X107138134Y-57952781D01*
X107125346Y-57970024D01*
X107110930Y-57985930D01*
X107095024Y-58000346D01*
X107077781Y-58013134D01*
X107059368Y-58024170D01*
X107039962Y-58033349D01*
X107019750Y-58040581D01*
X106998926Y-58045797D01*
X106977691Y-58048947D01*
X106956250Y-58050000D01*
X106443750Y-58050000D01*
X106422309Y-58048947D01*
X106401074Y-58045797D01*
X106380250Y-58040581D01*
X106360038Y-58033349D01*
X106340632Y-58024170D01*
X106322219Y-58013134D01*
X106304976Y-58000346D01*
X106289070Y-57985930D01*
X106274654Y-57970024D01*
X106261866Y-57952781D01*
X106250830Y-57934368D01*
X106241651Y-57914962D01*
X106234419Y-57894750D01*
X106229203Y-57873926D01*
X106226053Y-57852691D01*
X106225000Y-57831250D01*
X106225000Y-57393750D01*
X106226053Y-57372309D01*
X106229203Y-57351074D01*
X106234419Y-57330250D01*
X106241651Y-57310038D01*
X106250830Y-57290632D01*
X106261866Y-57272219D01*
X106274654Y-57254976D01*
X106289070Y-57239070D01*
X106304976Y-57224654D01*
X106322219Y-57211866D01*
X106340632Y-57200830D01*
X106360038Y-57191651D01*
X106380250Y-57184419D01*
X106401074Y-57179203D01*
X106422309Y-57176053D01*
X106443750Y-57175000D01*
X106956250Y-57175000D01*
X106977691Y-57176053D01*
X106977691Y-57176053D01*
G37*
D12*
X106700000Y-57612500D03*
G04 #@! TD*
D11*
G04 #@! TO.C,C10*
G36*
X119177691Y-51151053D02*
X119198926Y-51154203D01*
X119219750Y-51159419D01*
X119239962Y-51166651D01*
X119259368Y-51175830D01*
X119277781Y-51186866D01*
X119295024Y-51199654D01*
X119310930Y-51214070D01*
X119325346Y-51229976D01*
X119338134Y-51247219D01*
X119349170Y-51265632D01*
X119358349Y-51285038D01*
X119365581Y-51305250D01*
X119370797Y-51326074D01*
X119373947Y-51347309D01*
X119375000Y-51368750D01*
X119375000Y-51806250D01*
X119373947Y-51827691D01*
X119370797Y-51848926D01*
X119365581Y-51869750D01*
X119358349Y-51889962D01*
X119349170Y-51909368D01*
X119338134Y-51927781D01*
X119325346Y-51945024D01*
X119310930Y-51960930D01*
X119295024Y-51975346D01*
X119277781Y-51988134D01*
X119259368Y-51999170D01*
X119239962Y-52008349D01*
X119219750Y-52015581D01*
X119198926Y-52020797D01*
X119177691Y-52023947D01*
X119156250Y-52025000D01*
X118643750Y-52025000D01*
X118622309Y-52023947D01*
X118601074Y-52020797D01*
X118580250Y-52015581D01*
X118560038Y-52008349D01*
X118540632Y-51999170D01*
X118522219Y-51988134D01*
X118504976Y-51975346D01*
X118489070Y-51960930D01*
X118474654Y-51945024D01*
X118461866Y-51927781D01*
X118450830Y-51909368D01*
X118441651Y-51889962D01*
X118434419Y-51869750D01*
X118429203Y-51848926D01*
X118426053Y-51827691D01*
X118425000Y-51806250D01*
X118425000Y-51368750D01*
X118426053Y-51347309D01*
X118429203Y-51326074D01*
X118434419Y-51305250D01*
X118441651Y-51285038D01*
X118450830Y-51265632D01*
X118461866Y-51247219D01*
X118474654Y-51229976D01*
X118489070Y-51214070D01*
X118504976Y-51199654D01*
X118522219Y-51186866D01*
X118540632Y-51175830D01*
X118560038Y-51166651D01*
X118580250Y-51159419D01*
X118601074Y-51154203D01*
X118622309Y-51151053D01*
X118643750Y-51150000D01*
X119156250Y-51150000D01*
X119177691Y-51151053D01*
X119177691Y-51151053D01*
G37*
D12*
X118900000Y-51587500D03*
D11*
G36*
X119177691Y-49576053D02*
X119198926Y-49579203D01*
X119219750Y-49584419D01*
X119239962Y-49591651D01*
X119259368Y-49600830D01*
X119277781Y-49611866D01*
X119295024Y-49624654D01*
X119310930Y-49639070D01*
X119325346Y-49654976D01*
X119338134Y-49672219D01*
X119349170Y-49690632D01*
X119358349Y-49710038D01*
X119365581Y-49730250D01*
X119370797Y-49751074D01*
X119373947Y-49772309D01*
X119375000Y-49793750D01*
X119375000Y-50231250D01*
X119373947Y-50252691D01*
X119370797Y-50273926D01*
X119365581Y-50294750D01*
X119358349Y-50314962D01*
X119349170Y-50334368D01*
X119338134Y-50352781D01*
X119325346Y-50370024D01*
X119310930Y-50385930D01*
X119295024Y-50400346D01*
X119277781Y-50413134D01*
X119259368Y-50424170D01*
X119239962Y-50433349D01*
X119219750Y-50440581D01*
X119198926Y-50445797D01*
X119177691Y-50448947D01*
X119156250Y-50450000D01*
X118643750Y-50450000D01*
X118622309Y-50448947D01*
X118601074Y-50445797D01*
X118580250Y-50440581D01*
X118560038Y-50433349D01*
X118540632Y-50424170D01*
X118522219Y-50413134D01*
X118504976Y-50400346D01*
X118489070Y-50385930D01*
X118474654Y-50370024D01*
X118461866Y-50352781D01*
X118450830Y-50334368D01*
X118441651Y-50314962D01*
X118434419Y-50294750D01*
X118429203Y-50273926D01*
X118426053Y-50252691D01*
X118425000Y-50231250D01*
X118425000Y-49793750D01*
X118426053Y-49772309D01*
X118429203Y-49751074D01*
X118434419Y-49730250D01*
X118441651Y-49710038D01*
X118450830Y-49690632D01*
X118461866Y-49672219D01*
X118474654Y-49654976D01*
X118489070Y-49639070D01*
X118504976Y-49624654D01*
X118522219Y-49611866D01*
X118540632Y-49600830D01*
X118560038Y-49591651D01*
X118580250Y-49584419D01*
X118601074Y-49579203D01*
X118622309Y-49576053D01*
X118643750Y-49575000D01*
X119156250Y-49575000D01*
X119177691Y-49576053D01*
X119177691Y-49576053D01*
G37*
D12*
X118900000Y-50012500D03*
G04 #@! TD*
D11*
G04 #@! TO.C,C2*
G36*
X78880142Y-47551174D02*
X78903803Y-47554684D01*
X78927007Y-47560496D01*
X78949529Y-47568554D01*
X78971153Y-47578782D01*
X78991670Y-47591079D01*
X79010883Y-47605329D01*
X79028607Y-47621393D01*
X79044671Y-47639117D01*
X79058921Y-47658330D01*
X79071218Y-47678847D01*
X79081446Y-47700471D01*
X79089504Y-47722993D01*
X79095316Y-47746197D01*
X79098826Y-47769858D01*
X79100000Y-47793750D01*
X79100000Y-48281250D01*
X79098826Y-48305142D01*
X79095316Y-48328803D01*
X79089504Y-48352007D01*
X79081446Y-48374529D01*
X79071218Y-48396153D01*
X79058921Y-48416670D01*
X79044671Y-48435883D01*
X79028607Y-48453607D01*
X79010883Y-48469671D01*
X78991670Y-48483921D01*
X78971153Y-48496218D01*
X78949529Y-48506446D01*
X78927007Y-48514504D01*
X78903803Y-48520316D01*
X78880142Y-48523826D01*
X78856250Y-48525000D01*
X77943750Y-48525000D01*
X77919858Y-48523826D01*
X77896197Y-48520316D01*
X77872993Y-48514504D01*
X77850471Y-48506446D01*
X77828847Y-48496218D01*
X77808330Y-48483921D01*
X77789117Y-48469671D01*
X77771393Y-48453607D01*
X77755329Y-48435883D01*
X77741079Y-48416670D01*
X77728782Y-48396153D01*
X77718554Y-48374529D01*
X77710496Y-48352007D01*
X77704684Y-48328803D01*
X77701174Y-48305142D01*
X77700000Y-48281250D01*
X77700000Y-47793750D01*
X77701174Y-47769858D01*
X77704684Y-47746197D01*
X77710496Y-47722993D01*
X77718554Y-47700471D01*
X77728782Y-47678847D01*
X77741079Y-47658330D01*
X77755329Y-47639117D01*
X77771393Y-47621393D01*
X77789117Y-47605329D01*
X77808330Y-47591079D01*
X77828847Y-47578782D01*
X77850471Y-47568554D01*
X77872993Y-47560496D01*
X77896197Y-47554684D01*
X77919858Y-47551174D01*
X77943750Y-47550000D01*
X78856250Y-47550000D01*
X78880142Y-47551174D01*
X78880142Y-47551174D01*
G37*
D13*
X78400000Y-48037500D03*
D11*
G36*
X78880142Y-45676174D02*
X78903803Y-45679684D01*
X78927007Y-45685496D01*
X78949529Y-45693554D01*
X78971153Y-45703782D01*
X78991670Y-45716079D01*
X79010883Y-45730329D01*
X79028607Y-45746393D01*
X79044671Y-45764117D01*
X79058921Y-45783330D01*
X79071218Y-45803847D01*
X79081446Y-45825471D01*
X79089504Y-45847993D01*
X79095316Y-45871197D01*
X79098826Y-45894858D01*
X79100000Y-45918750D01*
X79100000Y-46406250D01*
X79098826Y-46430142D01*
X79095316Y-46453803D01*
X79089504Y-46477007D01*
X79081446Y-46499529D01*
X79071218Y-46521153D01*
X79058921Y-46541670D01*
X79044671Y-46560883D01*
X79028607Y-46578607D01*
X79010883Y-46594671D01*
X78991670Y-46608921D01*
X78971153Y-46621218D01*
X78949529Y-46631446D01*
X78927007Y-46639504D01*
X78903803Y-46645316D01*
X78880142Y-46648826D01*
X78856250Y-46650000D01*
X77943750Y-46650000D01*
X77919858Y-46648826D01*
X77896197Y-46645316D01*
X77872993Y-46639504D01*
X77850471Y-46631446D01*
X77828847Y-46621218D01*
X77808330Y-46608921D01*
X77789117Y-46594671D01*
X77771393Y-46578607D01*
X77755329Y-46560883D01*
X77741079Y-46541670D01*
X77728782Y-46521153D01*
X77718554Y-46499529D01*
X77710496Y-46477007D01*
X77704684Y-46453803D01*
X77701174Y-46430142D01*
X77700000Y-46406250D01*
X77700000Y-45918750D01*
X77701174Y-45894858D01*
X77704684Y-45871197D01*
X77710496Y-45847993D01*
X77718554Y-45825471D01*
X77728782Y-45803847D01*
X77741079Y-45783330D01*
X77755329Y-45764117D01*
X77771393Y-45746393D01*
X77789117Y-45730329D01*
X77808330Y-45716079D01*
X77828847Y-45703782D01*
X77850471Y-45693554D01*
X77872993Y-45685496D01*
X77896197Y-45679684D01*
X77919858Y-45676174D01*
X77943750Y-45675000D01*
X78856250Y-45675000D01*
X78880142Y-45676174D01*
X78880142Y-45676174D01*
G37*
D13*
X78400000Y-46162500D03*
G04 #@! TD*
D11*
G04 #@! TO.C,C3*
G36*
X76780142Y-45676174D02*
X76803803Y-45679684D01*
X76827007Y-45685496D01*
X76849529Y-45693554D01*
X76871153Y-45703782D01*
X76891670Y-45716079D01*
X76910883Y-45730329D01*
X76928607Y-45746393D01*
X76944671Y-45764117D01*
X76958921Y-45783330D01*
X76971218Y-45803847D01*
X76981446Y-45825471D01*
X76989504Y-45847993D01*
X76995316Y-45871197D01*
X76998826Y-45894858D01*
X77000000Y-45918750D01*
X77000000Y-46406250D01*
X76998826Y-46430142D01*
X76995316Y-46453803D01*
X76989504Y-46477007D01*
X76981446Y-46499529D01*
X76971218Y-46521153D01*
X76958921Y-46541670D01*
X76944671Y-46560883D01*
X76928607Y-46578607D01*
X76910883Y-46594671D01*
X76891670Y-46608921D01*
X76871153Y-46621218D01*
X76849529Y-46631446D01*
X76827007Y-46639504D01*
X76803803Y-46645316D01*
X76780142Y-46648826D01*
X76756250Y-46650000D01*
X75843750Y-46650000D01*
X75819858Y-46648826D01*
X75796197Y-46645316D01*
X75772993Y-46639504D01*
X75750471Y-46631446D01*
X75728847Y-46621218D01*
X75708330Y-46608921D01*
X75689117Y-46594671D01*
X75671393Y-46578607D01*
X75655329Y-46560883D01*
X75641079Y-46541670D01*
X75628782Y-46521153D01*
X75618554Y-46499529D01*
X75610496Y-46477007D01*
X75604684Y-46453803D01*
X75601174Y-46430142D01*
X75600000Y-46406250D01*
X75600000Y-45918750D01*
X75601174Y-45894858D01*
X75604684Y-45871197D01*
X75610496Y-45847993D01*
X75618554Y-45825471D01*
X75628782Y-45803847D01*
X75641079Y-45783330D01*
X75655329Y-45764117D01*
X75671393Y-45746393D01*
X75689117Y-45730329D01*
X75708330Y-45716079D01*
X75728847Y-45703782D01*
X75750471Y-45693554D01*
X75772993Y-45685496D01*
X75796197Y-45679684D01*
X75819858Y-45676174D01*
X75843750Y-45675000D01*
X76756250Y-45675000D01*
X76780142Y-45676174D01*
X76780142Y-45676174D01*
G37*
D13*
X76300000Y-46162500D03*
D11*
G36*
X76780142Y-47551174D02*
X76803803Y-47554684D01*
X76827007Y-47560496D01*
X76849529Y-47568554D01*
X76871153Y-47578782D01*
X76891670Y-47591079D01*
X76910883Y-47605329D01*
X76928607Y-47621393D01*
X76944671Y-47639117D01*
X76958921Y-47658330D01*
X76971218Y-47678847D01*
X76981446Y-47700471D01*
X76989504Y-47722993D01*
X76995316Y-47746197D01*
X76998826Y-47769858D01*
X77000000Y-47793750D01*
X77000000Y-48281250D01*
X76998826Y-48305142D01*
X76995316Y-48328803D01*
X76989504Y-48352007D01*
X76981446Y-48374529D01*
X76971218Y-48396153D01*
X76958921Y-48416670D01*
X76944671Y-48435883D01*
X76928607Y-48453607D01*
X76910883Y-48469671D01*
X76891670Y-48483921D01*
X76871153Y-48496218D01*
X76849529Y-48506446D01*
X76827007Y-48514504D01*
X76803803Y-48520316D01*
X76780142Y-48523826D01*
X76756250Y-48525000D01*
X75843750Y-48525000D01*
X75819858Y-48523826D01*
X75796197Y-48520316D01*
X75772993Y-48514504D01*
X75750471Y-48506446D01*
X75728847Y-48496218D01*
X75708330Y-48483921D01*
X75689117Y-48469671D01*
X75671393Y-48453607D01*
X75655329Y-48435883D01*
X75641079Y-48416670D01*
X75628782Y-48396153D01*
X75618554Y-48374529D01*
X75610496Y-48352007D01*
X75604684Y-48328803D01*
X75601174Y-48305142D01*
X75600000Y-48281250D01*
X75600000Y-47793750D01*
X75601174Y-47769858D01*
X75604684Y-47746197D01*
X75610496Y-47722993D01*
X75618554Y-47700471D01*
X75628782Y-47678847D01*
X75641079Y-47658330D01*
X75655329Y-47639117D01*
X75671393Y-47621393D01*
X75689117Y-47605329D01*
X75708330Y-47591079D01*
X75728847Y-47578782D01*
X75750471Y-47568554D01*
X75772993Y-47560496D01*
X75796197Y-47554684D01*
X75819858Y-47551174D01*
X75843750Y-47550000D01*
X76756250Y-47550000D01*
X76780142Y-47551174D01*
X76780142Y-47551174D01*
G37*
D13*
X76300000Y-48037500D03*
G04 #@! TD*
D11*
G04 #@! TO.C,C5*
G36*
X122080142Y-53676174D02*
X122103803Y-53679684D01*
X122127007Y-53685496D01*
X122149529Y-53693554D01*
X122171153Y-53703782D01*
X122191670Y-53716079D01*
X122210883Y-53730329D01*
X122228607Y-53746393D01*
X122244671Y-53764117D01*
X122258921Y-53783330D01*
X122271218Y-53803847D01*
X122281446Y-53825471D01*
X122289504Y-53847993D01*
X122295316Y-53871197D01*
X122298826Y-53894858D01*
X122300000Y-53918750D01*
X122300000Y-54406250D01*
X122298826Y-54430142D01*
X122295316Y-54453803D01*
X122289504Y-54477007D01*
X122281446Y-54499529D01*
X122271218Y-54521153D01*
X122258921Y-54541670D01*
X122244671Y-54560883D01*
X122228607Y-54578607D01*
X122210883Y-54594671D01*
X122191670Y-54608921D01*
X122171153Y-54621218D01*
X122149529Y-54631446D01*
X122127007Y-54639504D01*
X122103803Y-54645316D01*
X122080142Y-54648826D01*
X122056250Y-54650000D01*
X121143750Y-54650000D01*
X121119858Y-54648826D01*
X121096197Y-54645316D01*
X121072993Y-54639504D01*
X121050471Y-54631446D01*
X121028847Y-54621218D01*
X121008330Y-54608921D01*
X120989117Y-54594671D01*
X120971393Y-54578607D01*
X120955329Y-54560883D01*
X120941079Y-54541670D01*
X120928782Y-54521153D01*
X120918554Y-54499529D01*
X120910496Y-54477007D01*
X120904684Y-54453803D01*
X120901174Y-54430142D01*
X120900000Y-54406250D01*
X120900000Y-53918750D01*
X120901174Y-53894858D01*
X120904684Y-53871197D01*
X120910496Y-53847993D01*
X120918554Y-53825471D01*
X120928782Y-53803847D01*
X120941079Y-53783330D01*
X120955329Y-53764117D01*
X120971393Y-53746393D01*
X120989117Y-53730329D01*
X121008330Y-53716079D01*
X121028847Y-53703782D01*
X121050471Y-53693554D01*
X121072993Y-53685496D01*
X121096197Y-53679684D01*
X121119858Y-53676174D01*
X121143750Y-53675000D01*
X122056250Y-53675000D01*
X122080142Y-53676174D01*
X122080142Y-53676174D01*
G37*
D13*
X121600000Y-54162500D03*
D11*
G36*
X122080142Y-55551174D02*
X122103803Y-55554684D01*
X122127007Y-55560496D01*
X122149529Y-55568554D01*
X122171153Y-55578782D01*
X122191670Y-55591079D01*
X122210883Y-55605329D01*
X122228607Y-55621393D01*
X122244671Y-55639117D01*
X122258921Y-55658330D01*
X122271218Y-55678847D01*
X122281446Y-55700471D01*
X122289504Y-55722993D01*
X122295316Y-55746197D01*
X122298826Y-55769858D01*
X122300000Y-55793750D01*
X122300000Y-56281250D01*
X122298826Y-56305142D01*
X122295316Y-56328803D01*
X122289504Y-56352007D01*
X122281446Y-56374529D01*
X122271218Y-56396153D01*
X122258921Y-56416670D01*
X122244671Y-56435883D01*
X122228607Y-56453607D01*
X122210883Y-56469671D01*
X122191670Y-56483921D01*
X122171153Y-56496218D01*
X122149529Y-56506446D01*
X122127007Y-56514504D01*
X122103803Y-56520316D01*
X122080142Y-56523826D01*
X122056250Y-56525000D01*
X121143750Y-56525000D01*
X121119858Y-56523826D01*
X121096197Y-56520316D01*
X121072993Y-56514504D01*
X121050471Y-56506446D01*
X121028847Y-56496218D01*
X121008330Y-56483921D01*
X120989117Y-56469671D01*
X120971393Y-56453607D01*
X120955329Y-56435883D01*
X120941079Y-56416670D01*
X120928782Y-56396153D01*
X120918554Y-56374529D01*
X120910496Y-56352007D01*
X120904684Y-56328803D01*
X120901174Y-56305142D01*
X120900000Y-56281250D01*
X120900000Y-55793750D01*
X120901174Y-55769858D01*
X120904684Y-55746197D01*
X120910496Y-55722993D01*
X120918554Y-55700471D01*
X120928782Y-55678847D01*
X120941079Y-55658330D01*
X120955329Y-55639117D01*
X120971393Y-55621393D01*
X120989117Y-55605329D01*
X121008330Y-55591079D01*
X121028847Y-55578782D01*
X121050471Y-55568554D01*
X121072993Y-55560496D01*
X121096197Y-55554684D01*
X121119858Y-55551174D01*
X121143750Y-55550000D01*
X122056250Y-55550000D01*
X122080142Y-55551174D01*
X122080142Y-55551174D01*
G37*
D13*
X121600000Y-56037500D03*
G04 #@! TD*
D11*
G04 #@! TO.C,C8*
G36*
X122080142Y-49176174D02*
X122103803Y-49179684D01*
X122127007Y-49185496D01*
X122149529Y-49193554D01*
X122171153Y-49203782D01*
X122191670Y-49216079D01*
X122210883Y-49230329D01*
X122228607Y-49246393D01*
X122244671Y-49264117D01*
X122258921Y-49283330D01*
X122271218Y-49303847D01*
X122281446Y-49325471D01*
X122289504Y-49347993D01*
X122295316Y-49371197D01*
X122298826Y-49394858D01*
X122300000Y-49418750D01*
X122300000Y-49906250D01*
X122298826Y-49930142D01*
X122295316Y-49953803D01*
X122289504Y-49977007D01*
X122281446Y-49999529D01*
X122271218Y-50021153D01*
X122258921Y-50041670D01*
X122244671Y-50060883D01*
X122228607Y-50078607D01*
X122210883Y-50094671D01*
X122191670Y-50108921D01*
X122171153Y-50121218D01*
X122149529Y-50131446D01*
X122127007Y-50139504D01*
X122103803Y-50145316D01*
X122080142Y-50148826D01*
X122056250Y-50150000D01*
X121143750Y-50150000D01*
X121119858Y-50148826D01*
X121096197Y-50145316D01*
X121072993Y-50139504D01*
X121050471Y-50131446D01*
X121028847Y-50121218D01*
X121008330Y-50108921D01*
X120989117Y-50094671D01*
X120971393Y-50078607D01*
X120955329Y-50060883D01*
X120941079Y-50041670D01*
X120928782Y-50021153D01*
X120918554Y-49999529D01*
X120910496Y-49977007D01*
X120904684Y-49953803D01*
X120901174Y-49930142D01*
X120900000Y-49906250D01*
X120900000Y-49418750D01*
X120901174Y-49394858D01*
X120904684Y-49371197D01*
X120910496Y-49347993D01*
X120918554Y-49325471D01*
X120928782Y-49303847D01*
X120941079Y-49283330D01*
X120955329Y-49264117D01*
X120971393Y-49246393D01*
X120989117Y-49230329D01*
X121008330Y-49216079D01*
X121028847Y-49203782D01*
X121050471Y-49193554D01*
X121072993Y-49185496D01*
X121096197Y-49179684D01*
X121119858Y-49176174D01*
X121143750Y-49175000D01*
X122056250Y-49175000D01*
X122080142Y-49176174D01*
X122080142Y-49176174D01*
G37*
D13*
X121600000Y-49662500D03*
D11*
G36*
X122080142Y-51051174D02*
X122103803Y-51054684D01*
X122127007Y-51060496D01*
X122149529Y-51068554D01*
X122171153Y-51078782D01*
X122191670Y-51091079D01*
X122210883Y-51105329D01*
X122228607Y-51121393D01*
X122244671Y-51139117D01*
X122258921Y-51158330D01*
X122271218Y-51178847D01*
X122281446Y-51200471D01*
X122289504Y-51222993D01*
X122295316Y-51246197D01*
X122298826Y-51269858D01*
X122300000Y-51293750D01*
X122300000Y-51781250D01*
X122298826Y-51805142D01*
X122295316Y-51828803D01*
X122289504Y-51852007D01*
X122281446Y-51874529D01*
X122271218Y-51896153D01*
X122258921Y-51916670D01*
X122244671Y-51935883D01*
X122228607Y-51953607D01*
X122210883Y-51969671D01*
X122191670Y-51983921D01*
X122171153Y-51996218D01*
X122149529Y-52006446D01*
X122127007Y-52014504D01*
X122103803Y-52020316D01*
X122080142Y-52023826D01*
X122056250Y-52025000D01*
X121143750Y-52025000D01*
X121119858Y-52023826D01*
X121096197Y-52020316D01*
X121072993Y-52014504D01*
X121050471Y-52006446D01*
X121028847Y-51996218D01*
X121008330Y-51983921D01*
X120989117Y-51969671D01*
X120971393Y-51953607D01*
X120955329Y-51935883D01*
X120941079Y-51916670D01*
X120928782Y-51896153D01*
X120918554Y-51874529D01*
X120910496Y-51852007D01*
X120904684Y-51828803D01*
X120901174Y-51805142D01*
X120900000Y-51781250D01*
X120900000Y-51293750D01*
X120901174Y-51269858D01*
X120904684Y-51246197D01*
X120910496Y-51222993D01*
X120918554Y-51200471D01*
X120928782Y-51178847D01*
X120941079Y-51158330D01*
X120955329Y-51139117D01*
X120971393Y-51121393D01*
X120989117Y-51105329D01*
X121008330Y-51091079D01*
X121028847Y-51078782D01*
X121050471Y-51068554D01*
X121072993Y-51060496D01*
X121096197Y-51054684D01*
X121119858Y-51051174D01*
X121143750Y-51050000D01*
X122056250Y-51050000D01*
X122080142Y-51051174D01*
X122080142Y-51051174D01*
G37*
D13*
X121600000Y-51537500D03*
G04 #@! TD*
D11*
G04 #@! TO.C,C1*
G36*
X76930142Y-55451174D02*
X76953803Y-55454684D01*
X76977007Y-55460496D01*
X76999529Y-55468554D01*
X77021153Y-55478782D01*
X77041670Y-55491079D01*
X77060883Y-55505329D01*
X77078607Y-55521393D01*
X77094671Y-55539117D01*
X77108921Y-55558330D01*
X77121218Y-55578847D01*
X77131446Y-55600471D01*
X77139504Y-55622993D01*
X77145316Y-55646197D01*
X77148826Y-55669858D01*
X77150000Y-55693750D01*
X77150000Y-56606250D01*
X77148826Y-56630142D01*
X77145316Y-56653803D01*
X77139504Y-56677007D01*
X77131446Y-56699529D01*
X77121218Y-56721153D01*
X77108921Y-56741670D01*
X77094671Y-56760883D01*
X77078607Y-56778607D01*
X77060883Y-56794671D01*
X77041670Y-56808921D01*
X77021153Y-56821218D01*
X76999529Y-56831446D01*
X76977007Y-56839504D01*
X76953803Y-56845316D01*
X76930142Y-56848826D01*
X76906250Y-56850000D01*
X76418750Y-56850000D01*
X76394858Y-56848826D01*
X76371197Y-56845316D01*
X76347993Y-56839504D01*
X76325471Y-56831446D01*
X76303847Y-56821218D01*
X76283330Y-56808921D01*
X76264117Y-56794671D01*
X76246393Y-56778607D01*
X76230329Y-56760883D01*
X76216079Y-56741670D01*
X76203782Y-56721153D01*
X76193554Y-56699529D01*
X76185496Y-56677007D01*
X76179684Y-56653803D01*
X76176174Y-56630142D01*
X76175000Y-56606250D01*
X76175000Y-55693750D01*
X76176174Y-55669858D01*
X76179684Y-55646197D01*
X76185496Y-55622993D01*
X76193554Y-55600471D01*
X76203782Y-55578847D01*
X76216079Y-55558330D01*
X76230329Y-55539117D01*
X76246393Y-55521393D01*
X76264117Y-55505329D01*
X76283330Y-55491079D01*
X76303847Y-55478782D01*
X76325471Y-55468554D01*
X76347993Y-55460496D01*
X76371197Y-55454684D01*
X76394858Y-55451174D01*
X76418750Y-55450000D01*
X76906250Y-55450000D01*
X76930142Y-55451174D01*
X76930142Y-55451174D01*
G37*
D13*
X76662500Y-56150000D03*
D11*
G36*
X78805142Y-55451174D02*
X78828803Y-55454684D01*
X78852007Y-55460496D01*
X78874529Y-55468554D01*
X78896153Y-55478782D01*
X78916670Y-55491079D01*
X78935883Y-55505329D01*
X78953607Y-55521393D01*
X78969671Y-55539117D01*
X78983921Y-55558330D01*
X78996218Y-55578847D01*
X79006446Y-55600471D01*
X79014504Y-55622993D01*
X79020316Y-55646197D01*
X79023826Y-55669858D01*
X79025000Y-55693750D01*
X79025000Y-56606250D01*
X79023826Y-56630142D01*
X79020316Y-56653803D01*
X79014504Y-56677007D01*
X79006446Y-56699529D01*
X78996218Y-56721153D01*
X78983921Y-56741670D01*
X78969671Y-56760883D01*
X78953607Y-56778607D01*
X78935883Y-56794671D01*
X78916670Y-56808921D01*
X78896153Y-56821218D01*
X78874529Y-56831446D01*
X78852007Y-56839504D01*
X78828803Y-56845316D01*
X78805142Y-56848826D01*
X78781250Y-56850000D01*
X78293750Y-56850000D01*
X78269858Y-56848826D01*
X78246197Y-56845316D01*
X78222993Y-56839504D01*
X78200471Y-56831446D01*
X78178847Y-56821218D01*
X78158330Y-56808921D01*
X78139117Y-56794671D01*
X78121393Y-56778607D01*
X78105329Y-56760883D01*
X78091079Y-56741670D01*
X78078782Y-56721153D01*
X78068554Y-56699529D01*
X78060496Y-56677007D01*
X78054684Y-56653803D01*
X78051174Y-56630142D01*
X78050000Y-56606250D01*
X78050000Y-55693750D01*
X78051174Y-55669858D01*
X78054684Y-55646197D01*
X78060496Y-55622993D01*
X78068554Y-55600471D01*
X78078782Y-55578847D01*
X78091079Y-55558330D01*
X78105329Y-55539117D01*
X78121393Y-55521393D01*
X78139117Y-55505329D01*
X78158330Y-55491079D01*
X78178847Y-55478782D01*
X78200471Y-55468554D01*
X78222993Y-55460496D01*
X78246197Y-55454684D01*
X78269858Y-55451174D01*
X78293750Y-55450000D01*
X78781250Y-55450000D01*
X78805142Y-55451174D01*
X78805142Y-55451174D01*
G37*
D13*
X78537500Y-56150000D03*
G04 #@! TD*
D11*
G04 #@! TO.C,U2*
G36*
X76999802Y-52000482D02*
X77009509Y-52001921D01*
X77019028Y-52004306D01*
X77028268Y-52007612D01*
X77037140Y-52011808D01*
X77045557Y-52016853D01*
X77053439Y-52022699D01*
X77060711Y-52029289D01*
X77067301Y-52036561D01*
X77073147Y-52044443D01*
X77078192Y-52052860D01*
X77082388Y-52061732D01*
X77085694Y-52070972D01*
X77088079Y-52080491D01*
X77089518Y-52090198D01*
X77090000Y-52100000D01*
X77090000Y-52300000D01*
X77089518Y-52309802D01*
X77088079Y-52319509D01*
X77085694Y-52329028D01*
X77082388Y-52338268D01*
X77078192Y-52347140D01*
X77073147Y-52355557D01*
X77067301Y-52363439D01*
X77060711Y-52370711D01*
X77053439Y-52377301D01*
X77045557Y-52383147D01*
X77037140Y-52388192D01*
X77028268Y-52392388D01*
X77019028Y-52395694D01*
X77009509Y-52398079D01*
X76999802Y-52399518D01*
X76990000Y-52400000D01*
X76680000Y-52400000D01*
X76670198Y-52399518D01*
X76660491Y-52398079D01*
X76650972Y-52395694D01*
X76641732Y-52392388D01*
X76632860Y-52388192D01*
X76624443Y-52383147D01*
X76616561Y-52377301D01*
X76609289Y-52370711D01*
X76602699Y-52363439D01*
X76596853Y-52355557D01*
X76591808Y-52347140D01*
X76587612Y-52338268D01*
X76584306Y-52329028D01*
X76581921Y-52319509D01*
X76580482Y-52309802D01*
X76580000Y-52300000D01*
X76580000Y-52100000D01*
X76580482Y-52090198D01*
X76581921Y-52080491D01*
X76584306Y-52070972D01*
X76587612Y-52061732D01*
X76591808Y-52052860D01*
X76596853Y-52044443D01*
X76602699Y-52036561D01*
X76609289Y-52029289D01*
X76616561Y-52022699D01*
X76624443Y-52016853D01*
X76632860Y-52011808D01*
X76641732Y-52007612D01*
X76650972Y-52004306D01*
X76660491Y-52001921D01*
X76670198Y-52000482D01*
X76680000Y-52000000D01*
X76990000Y-52000000D01*
X76999802Y-52000482D01*
X76999802Y-52000482D01*
G37*
D14*
X76835000Y-52200000D03*
D11*
G36*
X77629802Y-52000482D02*
X77639509Y-52001921D01*
X77649028Y-52004306D01*
X77658268Y-52007612D01*
X77667140Y-52011808D01*
X77675557Y-52016853D01*
X77683439Y-52022699D01*
X77690711Y-52029289D01*
X77697301Y-52036561D01*
X77703147Y-52044443D01*
X77708192Y-52052860D01*
X77712388Y-52061732D01*
X77715694Y-52070972D01*
X77718079Y-52080491D01*
X77719518Y-52090198D01*
X77720000Y-52100000D01*
X77720000Y-52300000D01*
X77719518Y-52309802D01*
X77718079Y-52319509D01*
X77715694Y-52329028D01*
X77712388Y-52338268D01*
X77708192Y-52347140D01*
X77703147Y-52355557D01*
X77697301Y-52363439D01*
X77690711Y-52370711D01*
X77683439Y-52377301D01*
X77675557Y-52383147D01*
X77667140Y-52388192D01*
X77658268Y-52392388D01*
X77649028Y-52395694D01*
X77639509Y-52398079D01*
X77629802Y-52399518D01*
X77620000Y-52400000D01*
X77310000Y-52400000D01*
X77300198Y-52399518D01*
X77290491Y-52398079D01*
X77280972Y-52395694D01*
X77271732Y-52392388D01*
X77262860Y-52388192D01*
X77254443Y-52383147D01*
X77246561Y-52377301D01*
X77239289Y-52370711D01*
X77232699Y-52363439D01*
X77226853Y-52355557D01*
X77221808Y-52347140D01*
X77217612Y-52338268D01*
X77214306Y-52329028D01*
X77211921Y-52319509D01*
X77210482Y-52309802D01*
X77210000Y-52300000D01*
X77210000Y-52100000D01*
X77210482Y-52090198D01*
X77211921Y-52080491D01*
X77214306Y-52070972D01*
X77217612Y-52061732D01*
X77221808Y-52052860D01*
X77226853Y-52044443D01*
X77232699Y-52036561D01*
X77239289Y-52029289D01*
X77246561Y-52022699D01*
X77254443Y-52016853D01*
X77262860Y-52011808D01*
X77271732Y-52007612D01*
X77280972Y-52004306D01*
X77290491Y-52001921D01*
X77300198Y-52000482D01*
X77310000Y-52000000D01*
X77620000Y-52000000D01*
X77629802Y-52000482D01*
X77629802Y-52000482D01*
G37*
D14*
X77465000Y-52200000D03*
D11*
G36*
X76718626Y-52650301D02*
X76724693Y-52651201D01*
X76730643Y-52652691D01*
X76736418Y-52654758D01*
X76741962Y-52657380D01*
X76747223Y-52660533D01*
X76752150Y-52664187D01*
X76756694Y-52668306D01*
X76760813Y-52672850D01*
X76764467Y-52677777D01*
X76767620Y-52683038D01*
X76770242Y-52688582D01*
X76772309Y-52694357D01*
X76773799Y-52700307D01*
X76774699Y-52706374D01*
X76775000Y-52712500D01*
X76775000Y-53287500D01*
X76774699Y-53293626D01*
X76773799Y-53299693D01*
X76772309Y-53305643D01*
X76770242Y-53311418D01*
X76767620Y-53316962D01*
X76764467Y-53322223D01*
X76760813Y-53327150D01*
X76756694Y-53331694D01*
X76752150Y-53335813D01*
X76747223Y-53339467D01*
X76741962Y-53342620D01*
X76736418Y-53345242D01*
X76730643Y-53347309D01*
X76724693Y-53348799D01*
X76718626Y-53349699D01*
X76712500Y-53350000D01*
X76587500Y-53350000D01*
X76581374Y-53349699D01*
X76575307Y-53348799D01*
X76569357Y-53347309D01*
X76563582Y-53345242D01*
X76558038Y-53342620D01*
X76552777Y-53339467D01*
X76547850Y-53335813D01*
X76543306Y-53331694D01*
X76539187Y-53327150D01*
X76535533Y-53322223D01*
X76532380Y-53316962D01*
X76529758Y-53311418D01*
X76527691Y-53305643D01*
X76526201Y-53299693D01*
X76525301Y-53293626D01*
X76525000Y-53287500D01*
X76525000Y-52712500D01*
X76525301Y-52706374D01*
X76526201Y-52700307D01*
X76527691Y-52694357D01*
X76529758Y-52688582D01*
X76532380Y-52683038D01*
X76535533Y-52677777D01*
X76539187Y-52672850D01*
X76543306Y-52668306D01*
X76547850Y-52664187D01*
X76552777Y-52660533D01*
X76558038Y-52657380D01*
X76563582Y-52654758D01*
X76569357Y-52652691D01*
X76575307Y-52651201D01*
X76581374Y-52650301D01*
X76587500Y-52650000D01*
X76712500Y-52650000D01*
X76718626Y-52650301D01*
X76718626Y-52650301D01*
G37*
D15*
X76650000Y-53000000D03*
D11*
G36*
X77218626Y-52650301D02*
X77224693Y-52651201D01*
X77230643Y-52652691D01*
X77236418Y-52654758D01*
X77241962Y-52657380D01*
X77247223Y-52660533D01*
X77252150Y-52664187D01*
X77256694Y-52668306D01*
X77260813Y-52672850D01*
X77264467Y-52677777D01*
X77267620Y-52683038D01*
X77270242Y-52688582D01*
X77272309Y-52694357D01*
X77273799Y-52700307D01*
X77274699Y-52706374D01*
X77275000Y-52712500D01*
X77275000Y-53287500D01*
X77274699Y-53293626D01*
X77273799Y-53299693D01*
X77272309Y-53305643D01*
X77270242Y-53311418D01*
X77267620Y-53316962D01*
X77264467Y-53322223D01*
X77260813Y-53327150D01*
X77256694Y-53331694D01*
X77252150Y-53335813D01*
X77247223Y-53339467D01*
X77241962Y-53342620D01*
X77236418Y-53345242D01*
X77230643Y-53347309D01*
X77224693Y-53348799D01*
X77218626Y-53349699D01*
X77212500Y-53350000D01*
X77087500Y-53350000D01*
X77081374Y-53349699D01*
X77075307Y-53348799D01*
X77069357Y-53347309D01*
X77063582Y-53345242D01*
X77058038Y-53342620D01*
X77052777Y-53339467D01*
X77047850Y-53335813D01*
X77043306Y-53331694D01*
X77039187Y-53327150D01*
X77035533Y-53322223D01*
X77032380Y-53316962D01*
X77029758Y-53311418D01*
X77027691Y-53305643D01*
X77026201Y-53299693D01*
X77025301Y-53293626D01*
X77025000Y-53287500D01*
X77025000Y-52712500D01*
X77025301Y-52706374D01*
X77026201Y-52700307D01*
X77027691Y-52694357D01*
X77029758Y-52688582D01*
X77032380Y-52683038D01*
X77035533Y-52677777D01*
X77039187Y-52672850D01*
X77043306Y-52668306D01*
X77047850Y-52664187D01*
X77052777Y-52660533D01*
X77058038Y-52657380D01*
X77063582Y-52654758D01*
X77069357Y-52652691D01*
X77075307Y-52651201D01*
X77081374Y-52650301D01*
X77087500Y-52650000D01*
X77212500Y-52650000D01*
X77218626Y-52650301D01*
X77218626Y-52650301D01*
G37*
D15*
X77150000Y-53000000D03*
D11*
G36*
X77718626Y-52650301D02*
X77724693Y-52651201D01*
X77730643Y-52652691D01*
X77736418Y-52654758D01*
X77741962Y-52657380D01*
X77747223Y-52660533D01*
X77752150Y-52664187D01*
X77756694Y-52668306D01*
X77760813Y-52672850D01*
X77764467Y-52677777D01*
X77767620Y-52683038D01*
X77770242Y-52688582D01*
X77772309Y-52694357D01*
X77773799Y-52700307D01*
X77774699Y-52706374D01*
X77775000Y-52712500D01*
X77775000Y-53287500D01*
X77774699Y-53293626D01*
X77773799Y-53299693D01*
X77772309Y-53305643D01*
X77770242Y-53311418D01*
X77767620Y-53316962D01*
X77764467Y-53322223D01*
X77760813Y-53327150D01*
X77756694Y-53331694D01*
X77752150Y-53335813D01*
X77747223Y-53339467D01*
X77741962Y-53342620D01*
X77736418Y-53345242D01*
X77730643Y-53347309D01*
X77724693Y-53348799D01*
X77718626Y-53349699D01*
X77712500Y-53350000D01*
X77587500Y-53350000D01*
X77581374Y-53349699D01*
X77575307Y-53348799D01*
X77569357Y-53347309D01*
X77563582Y-53345242D01*
X77558038Y-53342620D01*
X77552777Y-53339467D01*
X77547850Y-53335813D01*
X77543306Y-53331694D01*
X77539187Y-53327150D01*
X77535533Y-53322223D01*
X77532380Y-53316962D01*
X77529758Y-53311418D01*
X77527691Y-53305643D01*
X77526201Y-53299693D01*
X77525301Y-53293626D01*
X77525000Y-53287500D01*
X77525000Y-52712500D01*
X77525301Y-52706374D01*
X77526201Y-52700307D01*
X77527691Y-52694357D01*
X77529758Y-52688582D01*
X77532380Y-52683038D01*
X77535533Y-52677777D01*
X77539187Y-52672850D01*
X77543306Y-52668306D01*
X77547850Y-52664187D01*
X77552777Y-52660533D01*
X77558038Y-52657380D01*
X77563582Y-52654758D01*
X77569357Y-52652691D01*
X77575307Y-52651201D01*
X77581374Y-52650301D01*
X77587500Y-52650000D01*
X77712500Y-52650000D01*
X77718626Y-52650301D01*
X77718626Y-52650301D01*
G37*
D15*
X77650000Y-53000000D03*
D11*
G36*
X77718626Y-51050301D02*
X77724693Y-51051201D01*
X77730643Y-51052691D01*
X77736418Y-51054758D01*
X77741962Y-51057380D01*
X77747223Y-51060533D01*
X77752150Y-51064187D01*
X77756694Y-51068306D01*
X77760813Y-51072850D01*
X77764467Y-51077777D01*
X77767620Y-51083038D01*
X77770242Y-51088582D01*
X77772309Y-51094357D01*
X77773799Y-51100307D01*
X77774699Y-51106374D01*
X77775000Y-51112500D01*
X77775000Y-51687500D01*
X77774699Y-51693626D01*
X77773799Y-51699693D01*
X77772309Y-51705643D01*
X77770242Y-51711418D01*
X77767620Y-51716962D01*
X77764467Y-51722223D01*
X77760813Y-51727150D01*
X77756694Y-51731694D01*
X77752150Y-51735813D01*
X77747223Y-51739467D01*
X77741962Y-51742620D01*
X77736418Y-51745242D01*
X77730643Y-51747309D01*
X77724693Y-51748799D01*
X77718626Y-51749699D01*
X77712500Y-51750000D01*
X77587500Y-51750000D01*
X77581374Y-51749699D01*
X77575307Y-51748799D01*
X77569357Y-51747309D01*
X77563582Y-51745242D01*
X77558038Y-51742620D01*
X77552777Y-51739467D01*
X77547850Y-51735813D01*
X77543306Y-51731694D01*
X77539187Y-51727150D01*
X77535533Y-51722223D01*
X77532380Y-51716962D01*
X77529758Y-51711418D01*
X77527691Y-51705643D01*
X77526201Y-51699693D01*
X77525301Y-51693626D01*
X77525000Y-51687500D01*
X77525000Y-51112500D01*
X77525301Y-51106374D01*
X77526201Y-51100307D01*
X77527691Y-51094357D01*
X77529758Y-51088582D01*
X77532380Y-51083038D01*
X77535533Y-51077777D01*
X77539187Y-51072850D01*
X77543306Y-51068306D01*
X77547850Y-51064187D01*
X77552777Y-51060533D01*
X77558038Y-51057380D01*
X77563582Y-51054758D01*
X77569357Y-51052691D01*
X77575307Y-51051201D01*
X77581374Y-51050301D01*
X77587500Y-51050000D01*
X77712500Y-51050000D01*
X77718626Y-51050301D01*
X77718626Y-51050301D01*
G37*
D15*
X77650000Y-51400000D03*
D11*
G36*
X77218626Y-51050301D02*
X77224693Y-51051201D01*
X77230643Y-51052691D01*
X77236418Y-51054758D01*
X77241962Y-51057380D01*
X77247223Y-51060533D01*
X77252150Y-51064187D01*
X77256694Y-51068306D01*
X77260813Y-51072850D01*
X77264467Y-51077777D01*
X77267620Y-51083038D01*
X77270242Y-51088582D01*
X77272309Y-51094357D01*
X77273799Y-51100307D01*
X77274699Y-51106374D01*
X77275000Y-51112500D01*
X77275000Y-51687500D01*
X77274699Y-51693626D01*
X77273799Y-51699693D01*
X77272309Y-51705643D01*
X77270242Y-51711418D01*
X77267620Y-51716962D01*
X77264467Y-51722223D01*
X77260813Y-51727150D01*
X77256694Y-51731694D01*
X77252150Y-51735813D01*
X77247223Y-51739467D01*
X77241962Y-51742620D01*
X77236418Y-51745242D01*
X77230643Y-51747309D01*
X77224693Y-51748799D01*
X77218626Y-51749699D01*
X77212500Y-51750000D01*
X77087500Y-51750000D01*
X77081374Y-51749699D01*
X77075307Y-51748799D01*
X77069357Y-51747309D01*
X77063582Y-51745242D01*
X77058038Y-51742620D01*
X77052777Y-51739467D01*
X77047850Y-51735813D01*
X77043306Y-51731694D01*
X77039187Y-51727150D01*
X77035533Y-51722223D01*
X77032380Y-51716962D01*
X77029758Y-51711418D01*
X77027691Y-51705643D01*
X77026201Y-51699693D01*
X77025301Y-51693626D01*
X77025000Y-51687500D01*
X77025000Y-51112500D01*
X77025301Y-51106374D01*
X77026201Y-51100307D01*
X77027691Y-51094357D01*
X77029758Y-51088582D01*
X77032380Y-51083038D01*
X77035533Y-51077777D01*
X77039187Y-51072850D01*
X77043306Y-51068306D01*
X77047850Y-51064187D01*
X77052777Y-51060533D01*
X77058038Y-51057380D01*
X77063582Y-51054758D01*
X77069357Y-51052691D01*
X77075307Y-51051201D01*
X77081374Y-51050301D01*
X77087500Y-51050000D01*
X77212500Y-51050000D01*
X77218626Y-51050301D01*
X77218626Y-51050301D01*
G37*
D15*
X77150000Y-51400000D03*
D11*
G36*
X76718626Y-51050301D02*
X76724693Y-51051201D01*
X76730643Y-51052691D01*
X76736418Y-51054758D01*
X76741962Y-51057380D01*
X76747223Y-51060533D01*
X76752150Y-51064187D01*
X76756694Y-51068306D01*
X76760813Y-51072850D01*
X76764467Y-51077777D01*
X76767620Y-51083038D01*
X76770242Y-51088582D01*
X76772309Y-51094357D01*
X76773799Y-51100307D01*
X76774699Y-51106374D01*
X76775000Y-51112500D01*
X76775000Y-51687500D01*
X76774699Y-51693626D01*
X76773799Y-51699693D01*
X76772309Y-51705643D01*
X76770242Y-51711418D01*
X76767620Y-51716962D01*
X76764467Y-51722223D01*
X76760813Y-51727150D01*
X76756694Y-51731694D01*
X76752150Y-51735813D01*
X76747223Y-51739467D01*
X76741962Y-51742620D01*
X76736418Y-51745242D01*
X76730643Y-51747309D01*
X76724693Y-51748799D01*
X76718626Y-51749699D01*
X76712500Y-51750000D01*
X76587500Y-51750000D01*
X76581374Y-51749699D01*
X76575307Y-51748799D01*
X76569357Y-51747309D01*
X76563582Y-51745242D01*
X76558038Y-51742620D01*
X76552777Y-51739467D01*
X76547850Y-51735813D01*
X76543306Y-51731694D01*
X76539187Y-51727150D01*
X76535533Y-51722223D01*
X76532380Y-51716962D01*
X76529758Y-51711418D01*
X76527691Y-51705643D01*
X76526201Y-51699693D01*
X76525301Y-51693626D01*
X76525000Y-51687500D01*
X76525000Y-51112500D01*
X76525301Y-51106374D01*
X76526201Y-51100307D01*
X76527691Y-51094357D01*
X76529758Y-51088582D01*
X76532380Y-51083038D01*
X76535533Y-51077777D01*
X76539187Y-51072850D01*
X76543306Y-51068306D01*
X76547850Y-51064187D01*
X76552777Y-51060533D01*
X76558038Y-51057380D01*
X76563582Y-51054758D01*
X76569357Y-51052691D01*
X76575307Y-51051201D01*
X76581374Y-51050301D01*
X76587500Y-51050000D01*
X76712500Y-51050000D01*
X76718626Y-51050301D01*
X76718626Y-51050301D01*
G37*
D15*
X76650000Y-51400000D03*
G04 #@! TD*
D11*
G04 #@! TO.C,U3*
G36*
X89377435Y-70206682D02*
X89391996Y-70208842D01*
X89406275Y-70212419D01*
X89420135Y-70217378D01*
X89433442Y-70223672D01*
X89446068Y-70231240D01*
X89457891Y-70240008D01*
X89468798Y-70249894D01*
X89478684Y-70260801D01*
X89487452Y-70272624D01*
X89495020Y-70285250D01*
X89501314Y-70298557D01*
X89506273Y-70312417D01*
X89509850Y-70326696D01*
X89512010Y-70341257D01*
X89512732Y-70355960D01*
X89512732Y-70655960D01*
X89512010Y-70670663D01*
X89509850Y-70685224D01*
X89506273Y-70699503D01*
X89501314Y-70713363D01*
X89495020Y-70726670D01*
X89487452Y-70739296D01*
X89478684Y-70751119D01*
X89468798Y-70762026D01*
X89457891Y-70771912D01*
X89446068Y-70780680D01*
X89433442Y-70788248D01*
X89420135Y-70794542D01*
X89406275Y-70799501D01*
X89391996Y-70803078D01*
X89377435Y-70805238D01*
X89362732Y-70805960D01*
X88187732Y-70805960D01*
X88173029Y-70805238D01*
X88158468Y-70803078D01*
X88144189Y-70799501D01*
X88130329Y-70794542D01*
X88117022Y-70788248D01*
X88104396Y-70780680D01*
X88092573Y-70771912D01*
X88081666Y-70762026D01*
X88071780Y-70751119D01*
X88063012Y-70739296D01*
X88055444Y-70726670D01*
X88049150Y-70713363D01*
X88044191Y-70699503D01*
X88040614Y-70685224D01*
X88038454Y-70670663D01*
X88037732Y-70655960D01*
X88037732Y-70355960D01*
X88038454Y-70341257D01*
X88040614Y-70326696D01*
X88044191Y-70312417D01*
X88049150Y-70298557D01*
X88055444Y-70285250D01*
X88063012Y-70272624D01*
X88071780Y-70260801D01*
X88081666Y-70249894D01*
X88092573Y-70240008D01*
X88104396Y-70231240D01*
X88117022Y-70223672D01*
X88130329Y-70217378D01*
X88144189Y-70212419D01*
X88158468Y-70208842D01*
X88173029Y-70206682D01*
X88187732Y-70205960D01*
X89362732Y-70205960D01*
X89377435Y-70206682D01*
X89377435Y-70206682D01*
G37*
D16*
X88775232Y-70505960D03*
D11*
G36*
X89377435Y-71476682D02*
X89391996Y-71478842D01*
X89406275Y-71482419D01*
X89420135Y-71487378D01*
X89433442Y-71493672D01*
X89446068Y-71501240D01*
X89457891Y-71510008D01*
X89468798Y-71519894D01*
X89478684Y-71530801D01*
X89487452Y-71542624D01*
X89495020Y-71555250D01*
X89501314Y-71568557D01*
X89506273Y-71582417D01*
X89509850Y-71596696D01*
X89512010Y-71611257D01*
X89512732Y-71625960D01*
X89512732Y-71925960D01*
X89512010Y-71940663D01*
X89509850Y-71955224D01*
X89506273Y-71969503D01*
X89501314Y-71983363D01*
X89495020Y-71996670D01*
X89487452Y-72009296D01*
X89478684Y-72021119D01*
X89468798Y-72032026D01*
X89457891Y-72041912D01*
X89446068Y-72050680D01*
X89433442Y-72058248D01*
X89420135Y-72064542D01*
X89406275Y-72069501D01*
X89391996Y-72073078D01*
X89377435Y-72075238D01*
X89362732Y-72075960D01*
X88187732Y-72075960D01*
X88173029Y-72075238D01*
X88158468Y-72073078D01*
X88144189Y-72069501D01*
X88130329Y-72064542D01*
X88117022Y-72058248D01*
X88104396Y-72050680D01*
X88092573Y-72041912D01*
X88081666Y-72032026D01*
X88071780Y-72021119D01*
X88063012Y-72009296D01*
X88055444Y-71996670D01*
X88049150Y-71983363D01*
X88044191Y-71969503D01*
X88040614Y-71955224D01*
X88038454Y-71940663D01*
X88037732Y-71925960D01*
X88037732Y-71625960D01*
X88038454Y-71611257D01*
X88040614Y-71596696D01*
X88044191Y-71582417D01*
X88049150Y-71568557D01*
X88055444Y-71555250D01*
X88063012Y-71542624D01*
X88071780Y-71530801D01*
X88081666Y-71519894D01*
X88092573Y-71510008D01*
X88104396Y-71501240D01*
X88117022Y-71493672D01*
X88130329Y-71487378D01*
X88144189Y-71482419D01*
X88158468Y-71478842D01*
X88173029Y-71476682D01*
X88187732Y-71475960D01*
X89362732Y-71475960D01*
X89377435Y-71476682D01*
X89377435Y-71476682D01*
G37*
D16*
X88775232Y-71775960D03*
D11*
G36*
X89377435Y-72746682D02*
X89391996Y-72748842D01*
X89406275Y-72752419D01*
X89420135Y-72757378D01*
X89433442Y-72763672D01*
X89446068Y-72771240D01*
X89457891Y-72780008D01*
X89468798Y-72789894D01*
X89478684Y-72800801D01*
X89487452Y-72812624D01*
X89495020Y-72825250D01*
X89501314Y-72838557D01*
X89506273Y-72852417D01*
X89509850Y-72866696D01*
X89512010Y-72881257D01*
X89512732Y-72895960D01*
X89512732Y-73195960D01*
X89512010Y-73210663D01*
X89509850Y-73225224D01*
X89506273Y-73239503D01*
X89501314Y-73253363D01*
X89495020Y-73266670D01*
X89487452Y-73279296D01*
X89478684Y-73291119D01*
X89468798Y-73302026D01*
X89457891Y-73311912D01*
X89446068Y-73320680D01*
X89433442Y-73328248D01*
X89420135Y-73334542D01*
X89406275Y-73339501D01*
X89391996Y-73343078D01*
X89377435Y-73345238D01*
X89362732Y-73345960D01*
X88187732Y-73345960D01*
X88173029Y-73345238D01*
X88158468Y-73343078D01*
X88144189Y-73339501D01*
X88130329Y-73334542D01*
X88117022Y-73328248D01*
X88104396Y-73320680D01*
X88092573Y-73311912D01*
X88081666Y-73302026D01*
X88071780Y-73291119D01*
X88063012Y-73279296D01*
X88055444Y-73266670D01*
X88049150Y-73253363D01*
X88044191Y-73239503D01*
X88040614Y-73225224D01*
X88038454Y-73210663D01*
X88037732Y-73195960D01*
X88037732Y-72895960D01*
X88038454Y-72881257D01*
X88040614Y-72866696D01*
X88044191Y-72852417D01*
X88049150Y-72838557D01*
X88055444Y-72825250D01*
X88063012Y-72812624D01*
X88071780Y-72800801D01*
X88081666Y-72789894D01*
X88092573Y-72780008D01*
X88104396Y-72771240D01*
X88117022Y-72763672D01*
X88130329Y-72757378D01*
X88144189Y-72752419D01*
X88158468Y-72748842D01*
X88173029Y-72746682D01*
X88187732Y-72745960D01*
X89362732Y-72745960D01*
X89377435Y-72746682D01*
X89377435Y-72746682D01*
G37*
D16*
X88775232Y-73045960D03*
D11*
G36*
X89377435Y-74016682D02*
X89391996Y-74018842D01*
X89406275Y-74022419D01*
X89420135Y-74027378D01*
X89433442Y-74033672D01*
X89446068Y-74041240D01*
X89457891Y-74050008D01*
X89468798Y-74059894D01*
X89478684Y-74070801D01*
X89487452Y-74082624D01*
X89495020Y-74095250D01*
X89501314Y-74108557D01*
X89506273Y-74122417D01*
X89509850Y-74136696D01*
X89512010Y-74151257D01*
X89512732Y-74165960D01*
X89512732Y-74465960D01*
X89512010Y-74480663D01*
X89509850Y-74495224D01*
X89506273Y-74509503D01*
X89501314Y-74523363D01*
X89495020Y-74536670D01*
X89487452Y-74549296D01*
X89478684Y-74561119D01*
X89468798Y-74572026D01*
X89457891Y-74581912D01*
X89446068Y-74590680D01*
X89433442Y-74598248D01*
X89420135Y-74604542D01*
X89406275Y-74609501D01*
X89391996Y-74613078D01*
X89377435Y-74615238D01*
X89362732Y-74615960D01*
X88187732Y-74615960D01*
X88173029Y-74615238D01*
X88158468Y-74613078D01*
X88144189Y-74609501D01*
X88130329Y-74604542D01*
X88117022Y-74598248D01*
X88104396Y-74590680D01*
X88092573Y-74581912D01*
X88081666Y-74572026D01*
X88071780Y-74561119D01*
X88063012Y-74549296D01*
X88055444Y-74536670D01*
X88049150Y-74523363D01*
X88044191Y-74509503D01*
X88040614Y-74495224D01*
X88038454Y-74480663D01*
X88037732Y-74465960D01*
X88037732Y-74165960D01*
X88038454Y-74151257D01*
X88040614Y-74136696D01*
X88044191Y-74122417D01*
X88049150Y-74108557D01*
X88055444Y-74095250D01*
X88063012Y-74082624D01*
X88071780Y-74070801D01*
X88081666Y-74059894D01*
X88092573Y-74050008D01*
X88104396Y-74041240D01*
X88117022Y-74033672D01*
X88130329Y-74027378D01*
X88144189Y-74022419D01*
X88158468Y-74018842D01*
X88173029Y-74016682D01*
X88187732Y-74015960D01*
X89362732Y-74015960D01*
X89377435Y-74016682D01*
X89377435Y-74016682D01*
G37*
D16*
X88775232Y-74315960D03*
D11*
G36*
X90697435Y-75331682D02*
X90711996Y-75333842D01*
X90726275Y-75337419D01*
X90740135Y-75342378D01*
X90753442Y-75348672D01*
X90766068Y-75356240D01*
X90777891Y-75365008D01*
X90788798Y-75374894D01*
X90798684Y-75385801D01*
X90807452Y-75397624D01*
X90815020Y-75410250D01*
X90821314Y-75423557D01*
X90826273Y-75437417D01*
X90829850Y-75451696D01*
X90832010Y-75466257D01*
X90832732Y-75480960D01*
X90832732Y-76655960D01*
X90832010Y-76670663D01*
X90829850Y-76685224D01*
X90826273Y-76699503D01*
X90821314Y-76713363D01*
X90815020Y-76726670D01*
X90807452Y-76739296D01*
X90798684Y-76751119D01*
X90788798Y-76762026D01*
X90777891Y-76771912D01*
X90766068Y-76780680D01*
X90753442Y-76788248D01*
X90740135Y-76794542D01*
X90726275Y-76799501D01*
X90711996Y-76803078D01*
X90697435Y-76805238D01*
X90682732Y-76805960D01*
X90382732Y-76805960D01*
X90368029Y-76805238D01*
X90353468Y-76803078D01*
X90339189Y-76799501D01*
X90325329Y-76794542D01*
X90312022Y-76788248D01*
X90299396Y-76780680D01*
X90287573Y-76771912D01*
X90276666Y-76762026D01*
X90266780Y-76751119D01*
X90258012Y-76739296D01*
X90250444Y-76726670D01*
X90244150Y-76713363D01*
X90239191Y-76699503D01*
X90235614Y-76685224D01*
X90233454Y-76670663D01*
X90232732Y-76655960D01*
X90232732Y-75480960D01*
X90233454Y-75466257D01*
X90235614Y-75451696D01*
X90239191Y-75437417D01*
X90244150Y-75423557D01*
X90250444Y-75410250D01*
X90258012Y-75397624D01*
X90266780Y-75385801D01*
X90276666Y-75374894D01*
X90287573Y-75365008D01*
X90299396Y-75356240D01*
X90312022Y-75348672D01*
X90325329Y-75342378D01*
X90339189Y-75337419D01*
X90353468Y-75333842D01*
X90368029Y-75331682D01*
X90382732Y-75330960D01*
X90682732Y-75330960D01*
X90697435Y-75331682D01*
X90697435Y-75331682D01*
G37*
D16*
X90532732Y-76068460D03*
D11*
G36*
X91967435Y-75331682D02*
X91981996Y-75333842D01*
X91996275Y-75337419D01*
X92010135Y-75342378D01*
X92023442Y-75348672D01*
X92036068Y-75356240D01*
X92047891Y-75365008D01*
X92058798Y-75374894D01*
X92068684Y-75385801D01*
X92077452Y-75397624D01*
X92085020Y-75410250D01*
X92091314Y-75423557D01*
X92096273Y-75437417D01*
X92099850Y-75451696D01*
X92102010Y-75466257D01*
X92102732Y-75480960D01*
X92102732Y-76655960D01*
X92102010Y-76670663D01*
X92099850Y-76685224D01*
X92096273Y-76699503D01*
X92091314Y-76713363D01*
X92085020Y-76726670D01*
X92077452Y-76739296D01*
X92068684Y-76751119D01*
X92058798Y-76762026D01*
X92047891Y-76771912D01*
X92036068Y-76780680D01*
X92023442Y-76788248D01*
X92010135Y-76794542D01*
X91996275Y-76799501D01*
X91981996Y-76803078D01*
X91967435Y-76805238D01*
X91952732Y-76805960D01*
X91652732Y-76805960D01*
X91638029Y-76805238D01*
X91623468Y-76803078D01*
X91609189Y-76799501D01*
X91595329Y-76794542D01*
X91582022Y-76788248D01*
X91569396Y-76780680D01*
X91557573Y-76771912D01*
X91546666Y-76762026D01*
X91536780Y-76751119D01*
X91528012Y-76739296D01*
X91520444Y-76726670D01*
X91514150Y-76713363D01*
X91509191Y-76699503D01*
X91505614Y-76685224D01*
X91503454Y-76670663D01*
X91502732Y-76655960D01*
X91502732Y-75480960D01*
X91503454Y-75466257D01*
X91505614Y-75451696D01*
X91509191Y-75437417D01*
X91514150Y-75423557D01*
X91520444Y-75410250D01*
X91528012Y-75397624D01*
X91536780Y-75385801D01*
X91546666Y-75374894D01*
X91557573Y-75365008D01*
X91569396Y-75356240D01*
X91582022Y-75348672D01*
X91595329Y-75342378D01*
X91609189Y-75337419D01*
X91623468Y-75333842D01*
X91638029Y-75331682D01*
X91652732Y-75330960D01*
X91952732Y-75330960D01*
X91967435Y-75331682D01*
X91967435Y-75331682D01*
G37*
D16*
X91802732Y-76068460D03*
D11*
G36*
X93237435Y-75331682D02*
X93251996Y-75333842D01*
X93266275Y-75337419D01*
X93280135Y-75342378D01*
X93293442Y-75348672D01*
X93306068Y-75356240D01*
X93317891Y-75365008D01*
X93328798Y-75374894D01*
X93338684Y-75385801D01*
X93347452Y-75397624D01*
X93355020Y-75410250D01*
X93361314Y-75423557D01*
X93366273Y-75437417D01*
X93369850Y-75451696D01*
X93372010Y-75466257D01*
X93372732Y-75480960D01*
X93372732Y-76655960D01*
X93372010Y-76670663D01*
X93369850Y-76685224D01*
X93366273Y-76699503D01*
X93361314Y-76713363D01*
X93355020Y-76726670D01*
X93347452Y-76739296D01*
X93338684Y-76751119D01*
X93328798Y-76762026D01*
X93317891Y-76771912D01*
X93306068Y-76780680D01*
X93293442Y-76788248D01*
X93280135Y-76794542D01*
X93266275Y-76799501D01*
X93251996Y-76803078D01*
X93237435Y-76805238D01*
X93222732Y-76805960D01*
X92922732Y-76805960D01*
X92908029Y-76805238D01*
X92893468Y-76803078D01*
X92879189Y-76799501D01*
X92865329Y-76794542D01*
X92852022Y-76788248D01*
X92839396Y-76780680D01*
X92827573Y-76771912D01*
X92816666Y-76762026D01*
X92806780Y-76751119D01*
X92798012Y-76739296D01*
X92790444Y-76726670D01*
X92784150Y-76713363D01*
X92779191Y-76699503D01*
X92775614Y-76685224D01*
X92773454Y-76670663D01*
X92772732Y-76655960D01*
X92772732Y-75480960D01*
X92773454Y-75466257D01*
X92775614Y-75451696D01*
X92779191Y-75437417D01*
X92784150Y-75423557D01*
X92790444Y-75410250D01*
X92798012Y-75397624D01*
X92806780Y-75385801D01*
X92816666Y-75374894D01*
X92827573Y-75365008D01*
X92839396Y-75356240D01*
X92852022Y-75348672D01*
X92865329Y-75342378D01*
X92879189Y-75337419D01*
X92893468Y-75333842D01*
X92908029Y-75331682D01*
X92922732Y-75330960D01*
X93222732Y-75330960D01*
X93237435Y-75331682D01*
X93237435Y-75331682D01*
G37*
D16*
X93072732Y-76068460D03*
D11*
G36*
X94507435Y-75331682D02*
X94521996Y-75333842D01*
X94536275Y-75337419D01*
X94550135Y-75342378D01*
X94563442Y-75348672D01*
X94576068Y-75356240D01*
X94587891Y-75365008D01*
X94598798Y-75374894D01*
X94608684Y-75385801D01*
X94617452Y-75397624D01*
X94625020Y-75410250D01*
X94631314Y-75423557D01*
X94636273Y-75437417D01*
X94639850Y-75451696D01*
X94642010Y-75466257D01*
X94642732Y-75480960D01*
X94642732Y-76655960D01*
X94642010Y-76670663D01*
X94639850Y-76685224D01*
X94636273Y-76699503D01*
X94631314Y-76713363D01*
X94625020Y-76726670D01*
X94617452Y-76739296D01*
X94608684Y-76751119D01*
X94598798Y-76762026D01*
X94587891Y-76771912D01*
X94576068Y-76780680D01*
X94563442Y-76788248D01*
X94550135Y-76794542D01*
X94536275Y-76799501D01*
X94521996Y-76803078D01*
X94507435Y-76805238D01*
X94492732Y-76805960D01*
X94192732Y-76805960D01*
X94178029Y-76805238D01*
X94163468Y-76803078D01*
X94149189Y-76799501D01*
X94135329Y-76794542D01*
X94122022Y-76788248D01*
X94109396Y-76780680D01*
X94097573Y-76771912D01*
X94086666Y-76762026D01*
X94076780Y-76751119D01*
X94068012Y-76739296D01*
X94060444Y-76726670D01*
X94054150Y-76713363D01*
X94049191Y-76699503D01*
X94045614Y-76685224D01*
X94043454Y-76670663D01*
X94042732Y-76655960D01*
X94042732Y-75480960D01*
X94043454Y-75466257D01*
X94045614Y-75451696D01*
X94049191Y-75437417D01*
X94054150Y-75423557D01*
X94060444Y-75410250D01*
X94068012Y-75397624D01*
X94076780Y-75385801D01*
X94086666Y-75374894D01*
X94097573Y-75365008D01*
X94109396Y-75356240D01*
X94122022Y-75348672D01*
X94135329Y-75342378D01*
X94149189Y-75337419D01*
X94163468Y-75333842D01*
X94178029Y-75331682D01*
X94192732Y-75330960D01*
X94492732Y-75330960D01*
X94507435Y-75331682D01*
X94507435Y-75331682D01*
G37*
D16*
X94342732Y-76068460D03*
D11*
G36*
X95777435Y-75331682D02*
X95791996Y-75333842D01*
X95806275Y-75337419D01*
X95820135Y-75342378D01*
X95833442Y-75348672D01*
X95846068Y-75356240D01*
X95857891Y-75365008D01*
X95868798Y-75374894D01*
X95878684Y-75385801D01*
X95887452Y-75397624D01*
X95895020Y-75410250D01*
X95901314Y-75423557D01*
X95906273Y-75437417D01*
X95909850Y-75451696D01*
X95912010Y-75466257D01*
X95912732Y-75480960D01*
X95912732Y-76655960D01*
X95912010Y-76670663D01*
X95909850Y-76685224D01*
X95906273Y-76699503D01*
X95901314Y-76713363D01*
X95895020Y-76726670D01*
X95887452Y-76739296D01*
X95878684Y-76751119D01*
X95868798Y-76762026D01*
X95857891Y-76771912D01*
X95846068Y-76780680D01*
X95833442Y-76788248D01*
X95820135Y-76794542D01*
X95806275Y-76799501D01*
X95791996Y-76803078D01*
X95777435Y-76805238D01*
X95762732Y-76805960D01*
X95462732Y-76805960D01*
X95448029Y-76805238D01*
X95433468Y-76803078D01*
X95419189Y-76799501D01*
X95405329Y-76794542D01*
X95392022Y-76788248D01*
X95379396Y-76780680D01*
X95367573Y-76771912D01*
X95356666Y-76762026D01*
X95346780Y-76751119D01*
X95338012Y-76739296D01*
X95330444Y-76726670D01*
X95324150Y-76713363D01*
X95319191Y-76699503D01*
X95315614Y-76685224D01*
X95313454Y-76670663D01*
X95312732Y-76655960D01*
X95312732Y-75480960D01*
X95313454Y-75466257D01*
X95315614Y-75451696D01*
X95319191Y-75437417D01*
X95324150Y-75423557D01*
X95330444Y-75410250D01*
X95338012Y-75397624D01*
X95346780Y-75385801D01*
X95356666Y-75374894D01*
X95367573Y-75365008D01*
X95379396Y-75356240D01*
X95392022Y-75348672D01*
X95405329Y-75342378D01*
X95419189Y-75337419D01*
X95433468Y-75333842D01*
X95448029Y-75331682D01*
X95462732Y-75330960D01*
X95762732Y-75330960D01*
X95777435Y-75331682D01*
X95777435Y-75331682D01*
G37*
D16*
X95612732Y-76068460D03*
D11*
G36*
X97047435Y-75331682D02*
X97061996Y-75333842D01*
X97076275Y-75337419D01*
X97090135Y-75342378D01*
X97103442Y-75348672D01*
X97116068Y-75356240D01*
X97127891Y-75365008D01*
X97138798Y-75374894D01*
X97148684Y-75385801D01*
X97157452Y-75397624D01*
X97165020Y-75410250D01*
X97171314Y-75423557D01*
X97176273Y-75437417D01*
X97179850Y-75451696D01*
X97182010Y-75466257D01*
X97182732Y-75480960D01*
X97182732Y-76655960D01*
X97182010Y-76670663D01*
X97179850Y-76685224D01*
X97176273Y-76699503D01*
X97171314Y-76713363D01*
X97165020Y-76726670D01*
X97157452Y-76739296D01*
X97148684Y-76751119D01*
X97138798Y-76762026D01*
X97127891Y-76771912D01*
X97116068Y-76780680D01*
X97103442Y-76788248D01*
X97090135Y-76794542D01*
X97076275Y-76799501D01*
X97061996Y-76803078D01*
X97047435Y-76805238D01*
X97032732Y-76805960D01*
X96732732Y-76805960D01*
X96718029Y-76805238D01*
X96703468Y-76803078D01*
X96689189Y-76799501D01*
X96675329Y-76794542D01*
X96662022Y-76788248D01*
X96649396Y-76780680D01*
X96637573Y-76771912D01*
X96626666Y-76762026D01*
X96616780Y-76751119D01*
X96608012Y-76739296D01*
X96600444Y-76726670D01*
X96594150Y-76713363D01*
X96589191Y-76699503D01*
X96585614Y-76685224D01*
X96583454Y-76670663D01*
X96582732Y-76655960D01*
X96582732Y-75480960D01*
X96583454Y-75466257D01*
X96585614Y-75451696D01*
X96589191Y-75437417D01*
X96594150Y-75423557D01*
X96600444Y-75410250D01*
X96608012Y-75397624D01*
X96616780Y-75385801D01*
X96626666Y-75374894D01*
X96637573Y-75365008D01*
X96649396Y-75356240D01*
X96662022Y-75348672D01*
X96675329Y-75342378D01*
X96689189Y-75337419D01*
X96703468Y-75333842D01*
X96718029Y-75331682D01*
X96732732Y-75330960D01*
X97032732Y-75330960D01*
X97047435Y-75331682D01*
X97047435Y-75331682D01*
G37*
D16*
X96882732Y-76068460D03*
D11*
G36*
X98317435Y-75331682D02*
X98331996Y-75333842D01*
X98346275Y-75337419D01*
X98360135Y-75342378D01*
X98373442Y-75348672D01*
X98386068Y-75356240D01*
X98397891Y-75365008D01*
X98408798Y-75374894D01*
X98418684Y-75385801D01*
X98427452Y-75397624D01*
X98435020Y-75410250D01*
X98441314Y-75423557D01*
X98446273Y-75437417D01*
X98449850Y-75451696D01*
X98452010Y-75466257D01*
X98452732Y-75480960D01*
X98452732Y-76655960D01*
X98452010Y-76670663D01*
X98449850Y-76685224D01*
X98446273Y-76699503D01*
X98441314Y-76713363D01*
X98435020Y-76726670D01*
X98427452Y-76739296D01*
X98418684Y-76751119D01*
X98408798Y-76762026D01*
X98397891Y-76771912D01*
X98386068Y-76780680D01*
X98373442Y-76788248D01*
X98360135Y-76794542D01*
X98346275Y-76799501D01*
X98331996Y-76803078D01*
X98317435Y-76805238D01*
X98302732Y-76805960D01*
X98002732Y-76805960D01*
X97988029Y-76805238D01*
X97973468Y-76803078D01*
X97959189Y-76799501D01*
X97945329Y-76794542D01*
X97932022Y-76788248D01*
X97919396Y-76780680D01*
X97907573Y-76771912D01*
X97896666Y-76762026D01*
X97886780Y-76751119D01*
X97878012Y-76739296D01*
X97870444Y-76726670D01*
X97864150Y-76713363D01*
X97859191Y-76699503D01*
X97855614Y-76685224D01*
X97853454Y-76670663D01*
X97852732Y-76655960D01*
X97852732Y-75480960D01*
X97853454Y-75466257D01*
X97855614Y-75451696D01*
X97859191Y-75437417D01*
X97864150Y-75423557D01*
X97870444Y-75410250D01*
X97878012Y-75397624D01*
X97886780Y-75385801D01*
X97896666Y-75374894D01*
X97907573Y-75365008D01*
X97919396Y-75356240D01*
X97932022Y-75348672D01*
X97945329Y-75342378D01*
X97959189Y-75337419D01*
X97973468Y-75333842D01*
X97988029Y-75331682D01*
X98002732Y-75330960D01*
X98302732Y-75330960D01*
X98317435Y-75331682D01*
X98317435Y-75331682D01*
G37*
D16*
X98152732Y-76068460D03*
D11*
G36*
X99587435Y-75331682D02*
X99601996Y-75333842D01*
X99616275Y-75337419D01*
X99630135Y-75342378D01*
X99643442Y-75348672D01*
X99656068Y-75356240D01*
X99667891Y-75365008D01*
X99678798Y-75374894D01*
X99688684Y-75385801D01*
X99697452Y-75397624D01*
X99705020Y-75410250D01*
X99711314Y-75423557D01*
X99716273Y-75437417D01*
X99719850Y-75451696D01*
X99722010Y-75466257D01*
X99722732Y-75480960D01*
X99722732Y-76655960D01*
X99722010Y-76670663D01*
X99719850Y-76685224D01*
X99716273Y-76699503D01*
X99711314Y-76713363D01*
X99705020Y-76726670D01*
X99697452Y-76739296D01*
X99688684Y-76751119D01*
X99678798Y-76762026D01*
X99667891Y-76771912D01*
X99656068Y-76780680D01*
X99643442Y-76788248D01*
X99630135Y-76794542D01*
X99616275Y-76799501D01*
X99601996Y-76803078D01*
X99587435Y-76805238D01*
X99572732Y-76805960D01*
X99272732Y-76805960D01*
X99258029Y-76805238D01*
X99243468Y-76803078D01*
X99229189Y-76799501D01*
X99215329Y-76794542D01*
X99202022Y-76788248D01*
X99189396Y-76780680D01*
X99177573Y-76771912D01*
X99166666Y-76762026D01*
X99156780Y-76751119D01*
X99148012Y-76739296D01*
X99140444Y-76726670D01*
X99134150Y-76713363D01*
X99129191Y-76699503D01*
X99125614Y-76685224D01*
X99123454Y-76670663D01*
X99122732Y-76655960D01*
X99122732Y-75480960D01*
X99123454Y-75466257D01*
X99125614Y-75451696D01*
X99129191Y-75437417D01*
X99134150Y-75423557D01*
X99140444Y-75410250D01*
X99148012Y-75397624D01*
X99156780Y-75385801D01*
X99166666Y-75374894D01*
X99177573Y-75365008D01*
X99189396Y-75356240D01*
X99202022Y-75348672D01*
X99215329Y-75342378D01*
X99229189Y-75337419D01*
X99243468Y-75333842D01*
X99258029Y-75331682D01*
X99272732Y-75330960D01*
X99572732Y-75330960D01*
X99587435Y-75331682D01*
X99587435Y-75331682D01*
G37*
D16*
X99422732Y-76068460D03*
D11*
G36*
X100857435Y-75331682D02*
X100871996Y-75333842D01*
X100886275Y-75337419D01*
X100900135Y-75342378D01*
X100913442Y-75348672D01*
X100926068Y-75356240D01*
X100937891Y-75365008D01*
X100948798Y-75374894D01*
X100958684Y-75385801D01*
X100967452Y-75397624D01*
X100975020Y-75410250D01*
X100981314Y-75423557D01*
X100986273Y-75437417D01*
X100989850Y-75451696D01*
X100992010Y-75466257D01*
X100992732Y-75480960D01*
X100992732Y-76655960D01*
X100992010Y-76670663D01*
X100989850Y-76685224D01*
X100986273Y-76699503D01*
X100981314Y-76713363D01*
X100975020Y-76726670D01*
X100967452Y-76739296D01*
X100958684Y-76751119D01*
X100948798Y-76762026D01*
X100937891Y-76771912D01*
X100926068Y-76780680D01*
X100913442Y-76788248D01*
X100900135Y-76794542D01*
X100886275Y-76799501D01*
X100871996Y-76803078D01*
X100857435Y-76805238D01*
X100842732Y-76805960D01*
X100542732Y-76805960D01*
X100528029Y-76805238D01*
X100513468Y-76803078D01*
X100499189Y-76799501D01*
X100485329Y-76794542D01*
X100472022Y-76788248D01*
X100459396Y-76780680D01*
X100447573Y-76771912D01*
X100436666Y-76762026D01*
X100426780Y-76751119D01*
X100418012Y-76739296D01*
X100410444Y-76726670D01*
X100404150Y-76713363D01*
X100399191Y-76699503D01*
X100395614Y-76685224D01*
X100393454Y-76670663D01*
X100392732Y-76655960D01*
X100392732Y-75480960D01*
X100393454Y-75466257D01*
X100395614Y-75451696D01*
X100399191Y-75437417D01*
X100404150Y-75423557D01*
X100410444Y-75410250D01*
X100418012Y-75397624D01*
X100426780Y-75385801D01*
X100436666Y-75374894D01*
X100447573Y-75365008D01*
X100459396Y-75356240D01*
X100472022Y-75348672D01*
X100485329Y-75342378D01*
X100499189Y-75337419D01*
X100513468Y-75333842D01*
X100528029Y-75331682D01*
X100542732Y-75330960D01*
X100842732Y-75330960D01*
X100857435Y-75331682D01*
X100857435Y-75331682D01*
G37*
D16*
X100692732Y-76068460D03*
D11*
G36*
X103052435Y-74016682D02*
X103066996Y-74018842D01*
X103081275Y-74022419D01*
X103095135Y-74027378D01*
X103108442Y-74033672D01*
X103121068Y-74041240D01*
X103132891Y-74050008D01*
X103143798Y-74059894D01*
X103153684Y-74070801D01*
X103162452Y-74082624D01*
X103170020Y-74095250D01*
X103176314Y-74108557D01*
X103181273Y-74122417D01*
X103184850Y-74136696D01*
X103187010Y-74151257D01*
X103187732Y-74165960D01*
X103187732Y-74465960D01*
X103187010Y-74480663D01*
X103184850Y-74495224D01*
X103181273Y-74509503D01*
X103176314Y-74523363D01*
X103170020Y-74536670D01*
X103162452Y-74549296D01*
X103153684Y-74561119D01*
X103143798Y-74572026D01*
X103132891Y-74581912D01*
X103121068Y-74590680D01*
X103108442Y-74598248D01*
X103095135Y-74604542D01*
X103081275Y-74609501D01*
X103066996Y-74613078D01*
X103052435Y-74615238D01*
X103037732Y-74615960D01*
X101862732Y-74615960D01*
X101848029Y-74615238D01*
X101833468Y-74613078D01*
X101819189Y-74609501D01*
X101805329Y-74604542D01*
X101792022Y-74598248D01*
X101779396Y-74590680D01*
X101767573Y-74581912D01*
X101756666Y-74572026D01*
X101746780Y-74561119D01*
X101738012Y-74549296D01*
X101730444Y-74536670D01*
X101724150Y-74523363D01*
X101719191Y-74509503D01*
X101715614Y-74495224D01*
X101713454Y-74480663D01*
X101712732Y-74465960D01*
X101712732Y-74165960D01*
X101713454Y-74151257D01*
X101715614Y-74136696D01*
X101719191Y-74122417D01*
X101724150Y-74108557D01*
X101730444Y-74095250D01*
X101738012Y-74082624D01*
X101746780Y-74070801D01*
X101756666Y-74059894D01*
X101767573Y-74050008D01*
X101779396Y-74041240D01*
X101792022Y-74033672D01*
X101805329Y-74027378D01*
X101819189Y-74022419D01*
X101833468Y-74018842D01*
X101848029Y-74016682D01*
X101862732Y-74015960D01*
X103037732Y-74015960D01*
X103052435Y-74016682D01*
X103052435Y-74016682D01*
G37*
D16*
X102450232Y-74315960D03*
D11*
G36*
X103052435Y-72746682D02*
X103066996Y-72748842D01*
X103081275Y-72752419D01*
X103095135Y-72757378D01*
X103108442Y-72763672D01*
X103121068Y-72771240D01*
X103132891Y-72780008D01*
X103143798Y-72789894D01*
X103153684Y-72800801D01*
X103162452Y-72812624D01*
X103170020Y-72825250D01*
X103176314Y-72838557D01*
X103181273Y-72852417D01*
X103184850Y-72866696D01*
X103187010Y-72881257D01*
X103187732Y-72895960D01*
X103187732Y-73195960D01*
X103187010Y-73210663D01*
X103184850Y-73225224D01*
X103181273Y-73239503D01*
X103176314Y-73253363D01*
X103170020Y-73266670D01*
X103162452Y-73279296D01*
X103153684Y-73291119D01*
X103143798Y-73302026D01*
X103132891Y-73311912D01*
X103121068Y-73320680D01*
X103108442Y-73328248D01*
X103095135Y-73334542D01*
X103081275Y-73339501D01*
X103066996Y-73343078D01*
X103052435Y-73345238D01*
X103037732Y-73345960D01*
X101862732Y-73345960D01*
X101848029Y-73345238D01*
X101833468Y-73343078D01*
X101819189Y-73339501D01*
X101805329Y-73334542D01*
X101792022Y-73328248D01*
X101779396Y-73320680D01*
X101767573Y-73311912D01*
X101756666Y-73302026D01*
X101746780Y-73291119D01*
X101738012Y-73279296D01*
X101730444Y-73266670D01*
X101724150Y-73253363D01*
X101719191Y-73239503D01*
X101715614Y-73225224D01*
X101713454Y-73210663D01*
X101712732Y-73195960D01*
X101712732Y-72895960D01*
X101713454Y-72881257D01*
X101715614Y-72866696D01*
X101719191Y-72852417D01*
X101724150Y-72838557D01*
X101730444Y-72825250D01*
X101738012Y-72812624D01*
X101746780Y-72800801D01*
X101756666Y-72789894D01*
X101767573Y-72780008D01*
X101779396Y-72771240D01*
X101792022Y-72763672D01*
X101805329Y-72757378D01*
X101819189Y-72752419D01*
X101833468Y-72748842D01*
X101848029Y-72746682D01*
X101862732Y-72745960D01*
X103037732Y-72745960D01*
X103052435Y-72746682D01*
X103052435Y-72746682D01*
G37*
D16*
X102450232Y-73045960D03*
D11*
G36*
X103052435Y-71476682D02*
X103066996Y-71478842D01*
X103081275Y-71482419D01*
X103095135Y-71487378D01*
X103108442Y-71493672D01*
X103121068Y-71501240D01*
X103132891Y-71510008D01*
X103143798Y-71519894D01*
X103153684Y-71530801D01*
X103162452Y-71542624D01*
X103170020Y-71555250D01*
X103176314Y-71568557D01*
X103181273Y-71582417D01*
X103184850Y-71596696D01*
X103187010Y-71611257D01*
X103187732Y-71625960D01*
X103187732Y-71925960D01*
X103187010Y-71940663D01*
X103184850Y-71955224D01*
X103181273Y-71969503D01*
X103176314Y-71983363D01*
X103170020Y-71996670D01*
X103162452Y-72009296D01*
X103153684Y-72021119D01*
X103143798Y-72032026D01*
X103132891Y-72041912D01*
X103121068Y-72050680D01*
X103108442Y-72058248D01*
X103095135Y-72064542D01*
X103081275Y-72069501D01*
X103066996Y-72073078D01*
X103052435Y-72075238D01*
X103037732Y-72075960D01*
X101862732Y-72075960D01*
X101848029Y-72075238D01*
X101833468Y-72073078D01*
X101819189Y-72069501D01*
X101805329Y-72064542D01*
X101792022Y-72058248D01*
X101779396Y-72050680D01*
X101767573Y-72041912D01*
X101756666Y-72032026D01*
X101746780Y-72021119D01*
X101738012Y-72009296D01*
X101730444Y-71996670D01*
X101724150Y-71983363D01*
X101719191Y-71969503D01*
X101715614Y-71955224D01*
X101713454Y-71940663D01*
X101712732Y-71925960D01*
X101712732Y-71625960D01*
X101713454Y-71611257D01*
X101715614Y-71596696D01*
X101719191Y-71582417D01*
X101724150Y-71568557D01*
X101730444Y-71555250D01*
X101738012Y-71542624D01*
X101746780Y-71530801D01*
X101756666Y-71519894D01*
X101767573Y-71510008D01*
X101779396Y-71501240D01*
X101792022Y-71493672D01*
X101805329Y-71487378D01*
X101819189Y-71482419D01*
X101833468Y-71478842D01*
X101848029Y-71476682D01*
X101862732Y-71475960D01*
X103037732Y-71475960D01*
X103052435Y-71476682D01*
X103052435Y-71476682D01*
G37*
D16*
X102450232Y-71775960D03*
D11*
G36*
X103052435Y-70206682D02*
X103066996Y-70208842D01*
X103081275Y-70212419D01*
X103095135Y-70217378D01*
X103108442Y-70223672D01*
X103121068Y-70231240D01*
X103132891Y-70240008D01*
X103143798Y-70249894D01*
X103153684Y-70260801D01*
X103162452Y-70272624D01*
X103170020Y-70285250D01*
X103176314Y-70298557D01*
X103181273Y-70312417D01*
X103184850Y-70326696D01*
X103187010Y-70341257D01*
X103187732Y-70355960D01*
X103187732Y-70655960D01*
X103187010Y-70670663D01*
X103184850Y-70685224D01*
X103181273Y-70699503D01*
X103176314Y-70713363D01*
X103170020Y-70726670D01*
X103162452Y-70739296D01*
X103153684Y-70751119D01*
X103143798Y-70762026D01*
X103132891Y-70771912D01*
X103121068Y-70780680D01*
X103108442Y-70788248D01*
X103095135Y-70794542D01*
X103081275Y-70799501D01*
X103066996Y-70803078D01*
X103052435Y-70805238D01*
X103037732Y-70805960D01*
X101862732Y-70805960D01*
X101848029Y-70805238D01*
X101833468Y-70803078D01*
X101819189Y-70799501D01*
X101805329Y-70794542D01*
X101792022Y-70788248D01*
X101779396Y-70780680D01*
X101767573Y-70771912D01*
X101756666Y-70762026D01*
X101746780Y-70751119D01*
X101738012Y-70739296D01*
X101730444Y-70726670D01*
X101724150Y-70713363D01*
X101719191Y-70699503D01*
X101715614Y-70685224D01*
X101713454Y-70670663D01*
X101712732Y-70655960D01*
X101712732Y-70355960D01*
X101713454Y-70341257D01*
X101715614Y-70326696D01*
X101719191Y-70312417D01*
X101724150Y-70298557D01*
X101730444Y-70285250D01*
X101738012Y-70272624D01*
X101746780Y-70260801D01*
X101756666Y-70249894D01*
X101767573Y-70240008D01*
X101779396Y-70231240D01*
X101792022Y-70223672D01*
X101805329Y-70217378D01*
X101819189Y-70212419D01*
X101833468Y-70208842D01*
X101848029Y-70206682D01*
X101862732Y-70205960D01*
X103037732Y-70205960D01*
X103052435Y-70206682D01*
X103052435Y-70206682D01*
G37*
D16*
X102450232Y-70505960D03*
D11*
G36*
X103052435Y-68936682D02*
X103066996Y-68938842D01*
X103081275Y-68942419D01*
X103095135Y-68947378D01*
X103108442Y-68953672D01*
X103121068Y-68961240D01*
X103132891Y-68970008D01*
X103143798Y-68979894D01*
X103153684Y-68990801D01*
X103162452Y-69002624D01*
X103170020Y-69015250D01*
X103176314Y-69028557D01*
X103181273Y-69042417D01*
X103184850Y-69056696D01*
X103187010Y-69071257D01*
X103187732Y-69085960D01*
X103187732Y-69385960D01*
X103187010Y-69400663D01*
X103184850Y-69415224D01*
X103181273Y-69429503D01*
X103176314Y-69443363D01*
X103170020Y-69456670D01*
X103162452Y-69469296D01*
X103153684Y-69481119D01*
X103143798Y-69492026D01*
X103132891Y-69501912D01*
X103121068Y-69510680D01*
X103108442Y-69518248D01*
X103095135Y-69524542D01*
X103081275Y-69529501D01*
X103066996Y-69533078D01*
X103052435Y-69535238D01*
X103037732Y-69535960D01*
X101862732Y-69535960D01*
X101848029Y-69535238D01*
X101833468Y-69533078D01*
X101819189Y-69529501D01*
X101805329Y-69524542D01*
X101792022Y-69518248D01*
X101779396Y-69510680D01*
X101767573Y-69501912D01*
X101756666Y-69492026D01*
X101746780Y-69481119D01*
X101738012Y-69469296D01*
X101730444Y-69456670D01*
X101724150Y-69443363D01*
X101719191Y-69429503D01*
X101715614Y-69415224D01*
X101713454Y-69400663D01*
X101712732Y-69385960D01*
X101712732Y-69085960D01*
X101713454Y-69071257D01*
X101715614Y-69056696D01*
X101719191Y-69042417D01*
X101724150Y-69028557D01*
X101730444Y-69015250D01*
X101738012Y-69002624D01*
X101746780Y-68990801D01*
X101756666Y-68979894D01*
X101767573Y-68970008D01*
X101779396Y-68961240D01*
X101792022Y-68953672D01*
X101805329Y-68947378D01*
X101819189Y-68942419D01*
X101833468Y-68938842D01*
X101848029Y-68936682D01*
X101862732Y-68935960D01*
X103037732Y-68935960D01*
X103052435Y-68936682D01*
X103052435Y-68936682D01*
G37*
D16*
X102450232Y-69235960D03*
D11*
G36*
X103052435Y-67666682D02*
X103066996Y-67668842D01*
X103081275Y-67672419D01*
X103095135Y-67677378D01*
X103108442Y-67683672D01*
X103121068Y-67691240D01*
X103132891Y-67700008D01*
X103143798Y-67709894D01*
X103153684Y-67720801D01*
X103162452Y-67732624D01*
X103170020Y-67745250D01*
X103176314Y-67758557D01*
X103181273Y-67772417D01*
X103184850Y-67786696D01*
X103187010Y-67801257D01*
X103187732Y-67815960D01*
X103187732Y-68115960D01*
X103187010Y-68130663D01*
X103184850Y-68145224D01*
X103181273Y-68159503D01*
X103176314Y-68173363D01*
X103170020Y-68186670D01*
X103162452Y-68199296D01*
X103153684Y-68211119D01*
X103143798Y-68222026D01*
X103132891Y-68231912D01*
X103121068Y-68240680D01*
X103108442Y-68248248D01*
X103095135Y-68254542D01*
X103081275Y-68259501D01*
X103066996Y-68263078D01*
X103052435Y-68265238D01*
X103037732Y-68265960D01*
X101862732Y-68265960D01*
X101848029Y-68265238D01*
X101833468Y-68263078D01*
X101819189Y-68259501D01*
X101805329Y-68254542D01*
X101792022Y-68248248D01*
X101779396Y-68240680D01*
X101767573Y-68231912D01*
X101756666Y-68222026D01*
X101746780Y-68211119D01*
X101738012Y-68199296D01*
X101730444Y-68186670D01*
X101724150Y-68173363D01*
X101719191Y-68159503D01*
X101715614Y-68145224D01*
X101713454Y-68130663D01*
X101712732Y-68115960D01*
X101712732Y-67815960D01*
X101713454Y-67801257D01*
X101715614Y-67786696D01*
X101719191Y-67772417D01*
X101724150Y-67758557D01*
X101730444Y-67745250D01*
X101738012Y-67732624D01*
X101746780Y-67720801D01*
X101756666Y-67709894D01*
X101767573Y-67700008D01*
X101779396Y-67691240D01*
X101792022Y-67683672D01*
X101805329Y-67677378D01*
X101819189Y-67672419D01*
X101833468Y-67668842D01*
X101848029Y-67666682D01*
X101862732Y-67665960D01*
X103037732Y-67665960D01*
X103052435Y-67666682D01*
X103052435Y-67666682D01*
G37*
D16*
X102450232Y-67965960D03*
D11*
G36*
X103052435Y-66396682D02*
X103066996Y-66398842D01*
X103081275Y-66402419D01*
X103095135Y-66407378D01*
X103108442Y-66413672D01*
X103121068Y-66421240D01*
X103132891Y-66430008D01*
X103143798Y-66439894D01*
X103153684Y-66450801D01*
X103162452Y-66462624D01*
X103170020Y-66475250D01*
X103176314Y-66488557D01*
X103181273Y-66502417D01*
X103184850Y-66516696D01*
X103187010Y-66531257D01*
X103187732Y-66545960D01*
X103187732Y-66845960D01*
X103187010Y-66860663D01*
X103184850Y-66875224D01*
X103181273Y-66889503D01*
X103176314Y-66903363D01*
X103170020Y-66916670D01*
X103162452Y-66929296D01*
X103153684Y-66941119D01*
X103143798Y-66952026D01*
X103132891Y-66961912D01*
X103121068Y-66970680D01*
X103108442Y-66978248D01*
X103095135Y-66984542D01*
X103081275Y-66989501D01*
X103066996Y-66993078D01*
X103052435Y-66995238D01*
X103037732Y-66995960D01*
X101862732Y-66995960D01*
X101848029Y-66995238D01*
X101833468Y-66993078D01*
X101819189Y-66989501D01*
X101805329Y-66984542D01*
X101792022Y-66978248D01*
X101779396Y-66970680D01*
X101767573Y-66961912D01*
X101756666Y-66952026D01*
X101746780Y-66941119D01*
X101738012Y-66929296D01*
X101730444Y-66916670D01*
X101724150Y-66903363D01*
X101719191Y-66889503D01*
X101715614Y-66875224D01*
X101713454Y-66860663D01*
X101712732Y-66845960D01*
X101712732Y-66545960D01*
X101713454Y-66531257D01*
X101715614Y-66516696D01*
X101719191Y-66502417D01*
X101724150Y-66488557D01*
X101730444Y-66475250D01*
X101738012Y-66462624D01*
X101746780Y-66450801D01*
X101756666Y-66439894D01*
X101767573Y-66430008D01*
X101779396Y-66421240D01*
X101792022Y-66413672D01*
X101805329Y-66407378D01*
X101819189Y-66402419D01*
X101833468Y-66398842D01*
X101848029Y-66396682D01*
X101862732Y-66395960D01*
X103037732Y-66395960D01*
X103052435Y-66396682D01*
X103052435Y-66396682D01*
G37*
D16*
X102450232Y-66695960D03*
D11*
G36*
X100857435Y-64206682D02*
X100871996Y-64208842D01*
X100886275Y-64212419D01*
X100900135Y-64217378D01*
X100913442Y-64223672D01*
X100926068Y-64231240D01*
X100937891Y-64240008D01*
X100948798Y-64249894D01*
X100958684Y-64260801D01*
X100967452Y-64272624D01*
X100975020Y-64285250D01*
X100981314Y-64298557D01*
X100986273Y-64312417D01*
X100989850Y-64326696D01*
X100992010Y-64341257D01*
X100992732Y-64355960D01*
X100992732Y-65530960D01*
X100992010Y-65545663D01*
X100989850Y-65560224D01*
X100986273Y-65574503D01*
X100981314Y-65588363D01*
X100975020Y-65601670D01*
X100967452Y-65614296D01*
X100958684Y-65626119D01*
X100948798Y-65637026D01*
X100937891Y-65646912D01*
X100926068Y-65655680D01*
X100913442Y-65663248D01*
X100900135Y-65669542D01*
X100886275Y-65674501D01*
X100871996Y-65678078D01*
X100857435Y-65680238D01*
X100842732Y-65680960D01*
X100542732Y-65680960D01*
X100528029Y-65680238D01*
X100513468Y-65678078D01*
X100499189Y-65674501D01*
X100485329Y-65669542D01*
X100472022Y-65663248D01*
X100459396Y-65655680D01*
X100447573Y-65646912D01*
X100436666Y-65637026D01*
X100426780Y-65626119D01*
X100418012Y-65614296D01*
X100410444Y-65601670D01*
X100404150Y-65588363D01*
X100399191Y-65574503D01*
X100395614Y-65560224D01*
X100393454Y-65545663D01*
X100392732Y-65530960D01*
X100392732Y-64355960D01*
X100393454Y-64341257D01*
X100395614Y-64326696D01*
X100399191Y-64312417D01*
X100404150Y-64298557D01*
X100410444Y-64285250D01*
X100418012Y-64272624D01*
X100426780Y-64260801D01*
X100436666Y-64249894D01*
X100447573Y-64240008D01*
X100459396Y-64231240D01*
X100472022Y-64223672D01*
X100485329Y-64217378D01*
X100499189Y-64212419D01*
X100513468Y-64208842D01*
X100528029Y-64206682D01*
X100542732Y-64205960D01*
X100842732Y-64205960D01*
X100857435Y-64206682D01*
X100857435Y-64206682D01*
G37*
D16*
X100692732Y-64943460D03*
D11*
G36*
X99587435Y-64206682D02*
X99601996Y-64208842D01*
X99616275Y-64212419D01*
X99630135Y-64217378D01*
X99643442Y-64223672D01*
X99656068Y-64231240D01*
X99667891Y-64240008D01*
X99678798Y-64249894D01*
X99688684Y-64260801D01*
X99697452Y-64272624D01*
X99705020Y-64285250D01*
X99711314Y-64298557D01*
X99716273Y-64312417D01*
X99719850Y-64326696D01*
X99722010Y-64341257D01*
X99722732Y-64355960D01*
X99722732Y-65530960D01*
X99722010Y-65545663D01*
X99719850Y-65560224D01*
X99716273Y-65574503D01*
X99711314Y-65588363D01*
X99705020Y-65601670D01*
X99697452Y-65614296D01*
X99688684Y-65626119D01*
X99678798Y-65637026D01*
X99667891Y-65646912D01*
X99656068Y-65655680D01*
X99643442Y-65663248D01*
X99630135Y-65669542D01*
X99616275Y-65674501D01*
X99601996Y-65678078D01*
X99587435Y-65680238D01*
X99572732Y-65680960D01*
X99272732Y-65680960D01*
X99258029Y-65680238D01*
X99243468Y-65678078D01*
X99229189Y-65674501D01*
X99215329Y-65669542D01*
X99202022Y-65663248D01*
X99189396Y-65655680D01*
X99177573Y-65646912D01*
X99166666Y-65637026D01*
X99156780Y-65626119D01*
X99148012Y-65614296D01*
X99140444Y-65601670D01*
X99134150Y-65588363D01*
X99129191Y-65574503D01*
X99125614Y-65560224D01*
X99123454Y-65545663D01*
X99122732Y-65530960D01*
X99122732Y-64355960D01*
X99123454Y-64341257D01*
X99125614Y-64326696D01*
X99129191Y-64312417D01*
X99134150Y-64298557D01*
X99140444Y-64285250D01*
X99148012Y-64272624D01*
X99156780Y-64260801D01*
X99166666Y-64249894D01*
X99177573Y-64240008D01*
X99189396Y-64231240D01*
X99202022Y-64223672D01*
X99215329Y-64217378D01*
X99229189Y-64212419D01*
X99243468Y-64208842D01*
X99258029Y-64206682D01*
X99272732Y-64205960D01*
X99572732Y-64205960D01*
X99587435Y-64206682D01*
X99587435Y-64206682D01*
G37*
D16*
X99422732Y-64943460D03*
D11*
G36*
X98317435Y-64206682D02*
X98331996Y-64208842D01*
X98346275Y-64212419D01*
X98360135Y-64217378D01*
X98373442Y-64223672D01*
X98386068Y-64231240D01*
X98397891Y-64240008D01*
X98408798Y-64249894D01*
X98418684Y-64260801D01*
X98427452Y-64272624D01*
X98435020Y-64285250D01*
X98441314Y-64298557D01*
X98446273Y-64312417D01*
X98449850Y-64326696D01*
X98452010Y-64341257D01*
X98452732Y-64355960D01*
X98452732Y-65530960D01*
X98452010Y-65545663D01*
X98449850Y-65560224D01*
X98446273Y-65574503D01*
X98441314Y-65588363D01*
X98435020Y-65601670D01*
X98427452Y-65614296D01*
X98418684Y-65626119D01*
X98408798Y-65637026D01*
X98397891Y-65646912D01*
X98386068Y-65655680D01*
X98373442Y-65663248D01*
X98360135Y-65669542D01*
X98346275Y-65674501D01*
X98331996Y-65678078D01*
X98317435Y-65680238D01*
X98302732Y-65680960D01*
X98002732Y-65680960D01*
X97988029Y-65680238D01*
X97973468Y-65678078D01*
X97959189Y-65674501D01*
X97945329Y-65669542D01*
X97932022Y-65663248D01*
X97919396Y-65655680D01*
X97907573Y-65646912D01*
X97896666Y-65637026D01*
X97886780Y-65626119D01*
X97878012Y-65614296D01*
X97870444Y-65601670D01*
X97864150Y-65588363D01*
X97859191Y-65574503D01*
X97855614Y-65560224D01*
X97853454Y-65545663D01*
X97852732Y-65530960D01*
X97852732Y-64355960D01*
X97853454Y-64341257D01*
X97855614Y-64326696D01*
X97859191Y-64312417D01*
X97864150Y-64298557D01*
X97870444Y-64285250D01*
X97878012Y-64272624D01*
X97886780Y-64260801D01*
X97896666Y-64249894D01*
X97907573Y-64240008D01*
X97919396Y-64231240D01*
X97932022Y-64223672D01*
X97945329Y-64217378D01*
X97959189Y-64212419D01*
X97973468Y-64208842D01*
X97988029Y-64206682D01*
X98002732Y-64205960D01*
X98302732Y-64205960D01*
X98317435Y-64206682D01*
X98317435Y-64206682D01*
G37*
D16*
X98152732Y-64943460D03*
D11*
G36*
X97047435Y-64206682D02*
X97061996Y-64208842D01*
X97076275Y-64212419D01*
X97090135Y-64217378D01*
X97103442Y-64223672D01*
X97116068Y-64231240D01*
X97127891Y-64240008D01*
X97138798Y-64249894D01*
X97148684Y-64260801D01*
X97157452Y-64272624D01*
X97165020Y-64285250D01*
X97171314Y-64298557D01*
X97176273Y-64312417D01*
X97179850Y-64326696D01*
X97182010Y-64341257D01*
X97182732Y-64355960D01*
X97182732Y-65530960D01*
X97182010Y-65545663D01*
X97179850Y-65560224D01*
X97176273Y-65574503D01*
X97171314Y-65588363D01*
X97165020Y-65601670D01*
X97157452Y-65614296D01*
X97148684Y-65626119D01*
X97138798Y-65637026D01*
X97127891Y-65646912D01*
X97116068Y-65655680D01*
X97103442Y-65663248D01*
X97090135Y-65669542D01*
X97076275Y-65674501D01*
X97061996Y-65678078D01*
X97047435Y-65680238D01*
X97032732Y-65680960D01*
X96732732Y-65680960D01*
X96718029Y-65680238D01*
X96703468Y-65678078D01*
X96689189Y-65674501D01*
X96675329Y-65669542D01*
X96662022Y-65663248D01*
X96649396Y-65655680D01*
X96637573Y-65646912D01*
X96626666Y-65637026D01*
X96616780Y-65626119D01*
X96608012Y-65614296D01*
X96600444Y-65601670D01*
X96594150Y-65588363D01*
X96589191Y-65574503D01*
X96585614Y-65560224D01*
X96583454Y-65545663D01*
X96582732Y-65530960D01*
X96582732Y-64355960D01*
X96583454Y-64341257D01*
X96585614Y-64326696D01*
X96589191Y-64312417D01*
X96594150Y-64298557D01*
X96600444Y-64285250D01*
X96608012Y-64272624D01*
X96616780Y-64260801D01*
X96626666Y-64249894D01*
X96637573Y-64240008D01*
X96649396Y-64231240D01*
X96662022Y-64223672D01*
X96675329Y-64217378D01*
X96689189Y-64212419D01*
X96703468Y-64208842D01*
X96718029Y-64206682D01*
X96732732Y-64205960D01*
X97032732Y-64205960D01*
X97047435Y-64206682D01*
X97047435Y-64206682D01*
G37*
D16*
X96882732Y-64943460D03*
D11*
G36*
X95777435Y-64206682D02*
X95791996Y-64208842D01*
X95806275Y-64212419D01*
X95820135Y-64217378D01*
X95833442Y-64223672D01*
X95846068Y-64231240D01*
X95857891Y-64240008D01*
X95868798Y-64249894D01*
X95878684Y-64260801D01*
X95887452Y-64272624D01*
X95895020Y-64285250D01*
X95901314Y-64298557D01*
X95906273Y-64312417D01*
X95909850Y-64326696D01*
X95912010Y-64341257D01*
X95912732Y-64355960D01*
X95912732Y-65530960D01*
X95912010Y-65545663D01*
X95909850Y-65560224D01*
X95906273Y-65574503D01*
X95901314Y-65588363D01*
X95895020Y-65601670D01*
X95887452Y-65614296D01*
X95878684Y-65626119D01*
X95868798Y-65637026D01*
X95857891Y-65646912D01*
X95846068Y-65655680D01*
X95833442Y-65663248D01*
X95820135Y-65669542D01*
X95806275Y-65674501D01*
X95791996Y-65678078D01*
X95777435Y-65680238D01*
X95762732Y-65680960D01*
X95462732Y-65680960D01*
X95448029Y-65680238D01*
X95433468Y-65678078D01*
X95419189Y-65674501D01*
X95405329Y-65669542D01*
X95392022Y-65663248D01*
X95379396Y-65655680D01*
X95367573Y-65646912D01*
X95356666Y-65637026D01*
X95346780Y-65626119D01*
X95338012Y-65614296D01*
X95330444Y-65601670D01*
X95324150Y-65588363D01*
X95319191Y-65574503D01*
X95315614Y-65560224D01*
X95313454Y-65545663D01*
X95312732Y-65530960D01*
X95312732Y-64355960D01*
X95313454Y-64341257D01*
X95315614Y-64326696D01*
X95319191Y-64312417D01*
X95324150Y-64298557D01*
X95330444Y-64285250D01*
X95338012Y-64272624D01*
X95346780Y-64260801D01*
X95356666Y-64249894D01*
X95367573Y-64240008D01*
X95379396Y-64231240D01*
X95392022Y-64223672D01*
X95405329Y-64217378D01*
X95419189Y-64212419D01*
X95433468Y-64208842D01*
X95448029Y-64206682D01*
X95462732Y-64205960D01*
X95762732Y-64205960D01*
X95777435Y-64206682D01*
X95777435Y-64206682D01*
G37*
D16*
X95612732Y-64943460D03*
D11*
G36*
X94507435Y-64206682D02*
X94521996Y-64208842D01*
X94536275Y-64212419D01*
X94550135Y-64217378D01*
X94563442Y-64223672D01*
X94576068Y-64231240D01*
X94587891Y-64240008D01*
X94598798Y-64249894D01*
X94608684Y-64260801D01*
X94617452Y-64272624D01*
X94625020Y-64285250D01*
X94631314Y-64298557D01*
X94636273Y-64312417D01*
X94639850Y-64326696D01*
X94642010Y-64341257D01*
X94642732Y-64355960D01*
X94642732Y-65530960D01*
X94642010Y-65545663D01*
X94639850Y-65560224D01*
X94636273Y-65574503D01*
X94631314Y-65588363D01*
X94625020Y-65601670D01*
X94617452Y-65614296D01*
X94608684Y-65626119D01*
X94598798Y-65637026D01*
X94587891Y-65646912D01*
X94576068Y-65655680D01*
X94563442Y-65663248D01*
X94550135Y-65669542D01*
X94536275Y-65674501D01*
X94521996Y-65678078D01*
X94507435Y-65680238D01*
X94492732Y-65680960D01*
X94192732Y-65680960D01*
X94178029Y-65680238D01*
X94163468Y-65678078D01*
X94149189Y-65674501D01*
X94135329Y-65669542D01*
X94122022Y-65663248D01*
X94109396Y-65655680D01*
X94097573Y-65646912D01*
X94086666Y-65637026D01*
X94076780Y-65626119D01*
X94068012Y-65614296D01*
X94060444Y-65601670D01*
X94054150Y-65588363D01*
X94049191Y-65574503D01*
X94045614Y-65560224D01*
X94043454Y-65545663D01*
X94042732Y-65530960D01*
X94042732Y-64355960D01*
X94043454Y-64341257D01*
X94045614Y-64326696D01*
X94049191Y-64312417D01*
X94054150Y-64298557D01*
X94060444Y-64285250D01*
X94068012Y-64272624D01*
X94076780Y-64260801D01*
X94086666Y-64249894D01*
X94097573Y-64240008D01*
X94109396Y-64231240D01*
X94122022Y-64223672D01*
X94135329Y-64217378D01*
X94149189Y-64212419D01*
X94163468Y-64208842D01*
X94178029Y-64206682D01*
X94192732Y-64205960D01*
X94492732Y-64205960D01*
X94507435Y-64206682D01*
X94507435Y-64206682D01*
G37*
D16*
X94342732Y-64943460D03*
D11*
G36*
X93237435Y-64206682D02*
X93251996Y-64208842D01*
X93266275Y-64212419D01*
X93280135Y-64217378D01*
X93293442Y-64223672D01*
X93306068Y-64231240D01*
X93317891Y-64240008D01*
X93328798Y-64249894D01*
X93338684Y-64260801D01*
X93347452Y-64272624D01*
X93355020Y-64285250D01*
X93361314Y-64298557D01*
X93366273Y-64312417D01*
X93369850Y-64326696D01*
X93372010Y-64341257D01*
X93372732Y-64355960D01*
X93372732Y-65530960D01*
X93372010Y-65545663D01*
X93369850Y-65560224D01*
X93366273Y-65574503D01*
X93361314Y-65588363D01*
X93355020Y-65601670D01*
X93347452Y-65614296D01*
X93338684Y-65626119D01*
X93328798Y-65637026D01*
X93317891Y-65646912D01*
X93306068Y-65655680D01*
X93293442Y-65663248D01*
X93280135Y-65669542D01*
X93266275Y-65674501D01*
X93251996Y-65678078D01*
X93237435Y-65680238D01*
X93222732Y-65680960D01*
X92922732Y-65680960D01*
X92908029Y-65680238D01*
X92893468Y-65678078D01*
X92879189Y-65674501D01*
X92865329Y-65669542D01*
X92852022Y-65663248D01*
X92839396Y-65655680D01*
X92827573Y-65646912D01*
X92816666Y-65637026D01*
X92806780Y-65626119D01*
X92798012Y-65614296D01*
X92790444Y-65601670D01*
X92784150Y-65588363D01*
X92779191Y-65574503D01*
X92775614Y-65560224D01*
X92773454Y-65545663D01*
X92772732Y-65530960D01*
X92772732Y-64355960D01*
X92773454Y-64341257D01*
X92775614Y-64326696D01*
X92779191Y-64312417D01*
X92784150Y-64298557D01*
X92790444Y-64285250D01*
X92798012Y-64272624D01*
X92806780Y-64260801D01*
X92816666Y-64249894D01*
X92827573Y-64240008D01*
X92839396Y-64231240D01*
X92852022Y-64223672D01*
X92865329Y-64217378D01*
X92879189Y-64212419D01*
X92893468Y-64208842D01*
X92908029Y-64206682D01*
X92922732Y-64205960D01*
X93222732Y-64205960D01*
X93237435Y-64206682D01*
X93237435Y-64206682D01*
G37*
D16*
X93072732Y-64943460D03*
D11*
G36*
X91967435Y-64206682D02*
X91981996Y-64208842D01*
X91996275Y-64212419D01*
X92010135Y-64217378D01*
X92023442Y-64223672D01*
X92036068Y-64231240D01*
X92047891Y-64240008D01*
X92058798Y-64249894D01*
X92068684Y-64260801D01*
X92077452Y-64272624D01*
X92085020Y-64285250D01*
X92091314Y-64298557D01*
X92096273Y-64312417D01*
X92099850Y-64326696D01*
X92102010Y-64341257D01*
X92102732Y-64355960D01*
X92102732Y-65530960D01*
X92102010Y-65545663D01*
X92099850Y-65560224D01*
X92096273Y-65574503D01*
X92091314Y-65588363D01*
X92085020Y-65601670D01*
X92077452Y-65614296D01*
X92068684Y-65626119D01*
X92058798Y-65637026D01*
X92047891Y-65646912D01*
X92036068Y-65655680D01*
X92023442Y-65663248D01*
X92010135Y-65669542D01*
X91996275Y-65674501D01*
X91981996Y-65678078D01*
X91967435Y-65680238D01*
X91952732Y-65680960D01*
X91652732Y-65680960D01*
X91638029Y-65680238D01*
X91623468Y-65678078D01*
X91609189Y-65674501D01*
X91595329Y-65669542D01*
X91582022Y-65663248D01*
X91569396Y-65655680D01*
X91557573Y-65646912D01*
X91546666Y-65637026D01*
X91536780Y-65626119D01*
X91528012Y-65614296D01*
X91520444Y-65601670D01*
X91514150Y-65588363D01*
X91509191Y-65574503D01*
X91505614Y-65560224D01*
X91503454Y-65545663D01*
X91502732Y-65530960D01*
X91502732Y-64355960D01*
X91503454Y-64341257D01*
X91505614Y-64326696D01*
X91509191Y-64312417D01*
X91514150Y-64298557D01*
X91520444Y-64285250D01*
X91528012Y-64272624D01*
X91536780Y-64260801D01*
X91546666Y-64249894D01*
X91557573Y-64240008D01*
X91569396Y-64231240D01*
X91582022Y-64223672D01*
X91595329Y-64217378D01*
X91609189Y-64212419D01*
X91623468Y-64208842D01*
X91638029Y-64206682D01*
X91652732Y-64205960D01*
X91952732Y-64205960D01*
X91967435Y-64206682D01*
X91967435Y-64206682D01*
G37*
D16*
X91802732Y-64943460D03*
D11*
G36*
X90697435Y-64206682D02*
X90711996Y-64208842D01*
X90726275Y-64212419D01*
X90740135Y-64217378D01*
X90753442Y-64223672D01*
X90766068Y-64231240D01*
X90777891Y-64240008D01*
X90788798Y-64249894D01*
X90798684Y-64260801D01*
X90807452Y-64272624D01*
X90815020Y-64285250D01*
X90821314Y-64298557D01*
X90826273Y-64312417D01*
X90829850Y-64326696D01*
X90832010Y-64341257D01*
X90832732Y-64355960D01*
X90832732Y-65530960D01*
X90832010Y-65545663D01*
X90829850Y-65560224D01*
X90826273Y-65574503D01*
X90821314Y-65588363D01*
X90815020Y-65601670D01*
X90807452Y-65614296D01*
X90798684Y-65626119D01*
X90788798Y-65637026D01*
X90777891Y-65646912D01*
X90766068Y-65655680D01*
X90753442Y-65663248D01*
X90740135Y-65669542D01*
X90726275Y-65674501D01*
X90711996Y-65678078D01*
X90697435Y-65680238D01*
X90682732Y-65680960D01*
X90382732Y-65680960D01*
X90368029Y-65680238D01*
X90353468Y-65678078D01*
X90339189Y-65674501D01*
X90325329Y-65669542D01*
X90312022Y-65663248D01*
X90299396Y-65655680D01*
X90287573Y-65646912D01*
X90276666Y-65637026D01*
X90266780Y-65626119D01*
X90258012Y-65614296D01*
X90250444Y-65601670D01*
X90244150Y-65588363D01*
X90239191Y-65574503D01*
X90235614Y-65560224D01*
X90233454Y-65545663D01*
X90232732Y-65530960D01*
X90232732Y-64355960D01*
X90233454Y-64341257D01*
X90235614Y-64326696D01*
X90239191Y-64312417D01*
X90244150Y-64298557D01*
X90250444Y-64285250D01*
X90258012Y-64272624D01*
X90266780Y-64260801D01*
X90276666Y-64249894D01*
X90287573Y-64240008D01*
X90299396Y-64231240D01*
X90312022Y-64223672D01*
X90325329Y-64217378D01*
X90339189Y-64212419D01*
X90353468Y-64208842D01*
X90368029Y-64206682D01*
X90382732Y-64205960D01*
X90682732Y-64205960D01*
X90697435Y-64206682D01*
X90697435Y-64206682D01*
G37*
D16*
X90532732Y-64943460D03*
D11*
G36*
X89377435Y-66396682D02*
X89391996Y-66398842D01*
X89406275Y-66402419D01*
X89420135Y-66407378D01*
X89433442Y-66413672D01*
X89446068Y-66421240D01*
X89457891Y-66430008D01*
X89468798Y-66439894D01*
X89478684Y-66450801D01*
X89487452Y-66462624D01*
X89495020Y-66475250D01*
X89501314Y-66488557D01*
X89506273Y-66502417D01*
X89509850Y-66516696D01*
X89512010Y-66531257D01*
X89512732Y-66545960D01*
X89512732Y-66845960D01*
X89512010Y-66860663D01*
X89509850Y-66875224D01*
X89506273Y-66889503D01*
X89501314Y-66903363D01*
X89495020Y-66916670D01*
X89487452Y-66929296D01*
X89478684Y-66941119D01*
X89468798Y-66952026D01*
X89457891Y-66961912D01*
X89446068Y-66970680D01*
X89433442Y-66978248D01*
X89420135Y-66984542D01*
X89406275Y-66989501D01*
X89391996Y-66993078D01*
X89377435Y-66995238D01*
X89362732Y-66995960D01*
X88187732Y-66995960D01*
X88173029Y-66995238D01*
X88158468Y-66993078D01*
X88144189Y-66989501D01*
X88130329Y-66984542D01*
X88117022Y-66978248D01*
X88104396Y-66970680D01*
X88092573Y-66961912D01*
X88081666Y-66952026D01*
X88071780Y-66941119D01*
X88063012Y-66929296D01*
X88055444Y-66916670D01*
X88049150Y-66903363D01*
X88044191Y-66889503D01*
X88040614Y-66875224D01*
X88038454Y-66860663D01*
X88037732Y-66845960D01*
X88037732Y-66545960D01*
X88038454Y-66531257D01*
X88040614Y-66516696D01*
X88044191Y-66502417D01*
X88049150Y-66488557D01*
X88055444Y-66475250D01*
X88063012Y-66462624D01*
X88071780Y-66450801D01*
X88081666Y-66439894D01*
X88092573Y-66430008D01*
X88104396Y-66421240D01*
X88117022Y-66413672D01*
X88130329Y-66407378D01*
X88144189Y-66402419D01*
X88158468Y-66398842D01*
X88173029Y-66396682D01*
X88187732Y-66395960D01*
X89362732Y-66395960D01*
X89377435Y-66396682D01*
X89377435Y-66396682D01*
G37*
D16*
X88775232Y-66695960D03*
D11*
G36*
X89377435Y-67666682D02*
X89391996Y-67668842D01*
X89406275Y-67672419D01*
X89420135Y-67677378D01*
X89433442Y-67683672D01*
X89446068Y-67691240D01*
X89457891Y-67700008D01*
X89468798Y-67709894D01*
X89478684Y-67720801D01*
X89487452Y-67732624D01*
X89495020Y-67745250D01*
X89501314Y-67758557D01*
X89506273Y-67772417D01*
X89509850Y-67786696D01*
X89512010Y-67801257D01*
X89512732Y-67815960D01*
X89512732Y-68115960D01*
X89512010Y-68130663D01*
X89509850Y-68145224D01*
X89506273Y-68159503D01*
X89501314Y-68173363D01*
X89495020Y-68186670D01*
X89487452Y-68199296D01*
X89478684Y-68211119D01*
X89468798Y-68222026D01*
X89457891Y-68231912D01*
X89446068Y-68240680D01*
X89433442Y-68248248D01*
X89420135Y-68254542D01*
X89406275Y-68259501D01*
X89391996Y-68263078D01*
X89377435Y-68265238D01*
X89362732Y-68265960D01*
X88187732Y-68265960D01*
X88173029Y-68265238D01*
X88158468Y-68263078D01*
X88144189Y-68259501D01*
X88130329Y-68254542D01*
X88117022Y-68248248D01*
X88104396Y-68240680D01*
X88092573Y-68231912D01*
X88081666Y-68222026D01*
X88071780Y-68211119D01*
X88063012Y-68199296D01*
X88055444Y-68186670D01*
X88049150Y-68173363D01*
X88044191Y-68159503D01*
X88040614Y-68145224D01*
X88038454Y-68130663D01*
X88037732Y-68115960D01*
X88037732Y-67815960D01*
X88038454Y-67801257D01*
X88040614Y-67786696D01*
X88044191Y-67772417D01*
X88049150Y-67758557D01*
X88055444Y-67745250D01*
X88063012Y-67732624D01*
X88071780Y-67720801D01*
X88081666Y-67709894D01*
X88092573Y-67700008D01*
X88104396Y-67691240D01*
X88117022Y-67683672D01*
X88130329Y-67677378D01*
X88144189Y-67672419D01*
X88158468Y-67668842D01*
X88173029Y-67666682D01*
X88187732Y-67665960D01*
X89362732Y-67665960D01*
X89377435Y-67666682D01*
X89377435Y-67666682D01*
G37*
D16*
X88775232Y-67965960D03*
D11*
G36*
X89377435Y-68936682D02*
X89391996Y-68938842D01*
X89406275Y-68942419D01*
X89420135Y-68947378D01*
X89433442Y-68953672D01*
X89446068Y-68961240D01*
X89457891Y-68970008D01*
X89468798Y-68979894D01*
X89478684Y-68990801D01*
X89487452Y-69002624D01*
X89495020Y-69015250D01*
X89501314Y-69028557D01*
X89506273Y-69042417D01*
X89509850Y-69056696D01*
X89512010Y-69071257D01*
X89512732Y-69085960D01*
X89512732Y-69385960D01*
X89512010Y-69400663D01*
X89509850Y-69415224D01*
X89506273Y-69429503D01*
X89501314Y-69443363D01*
X89495020Y-69456670D01*
X89487452Y-69469296D01*
X89478684Y-69481119D01*
X89468798Y-69492026D01*
X89457891Y-69501912D01*
X89446068Y-69510680D01*
X89433442Y-69518248D01*
X89420135Y-69524542D01*
X89406275Y-69529501D01*
X89391996Y-69533078D01*
X89377435Y-69535238D01*
X89362732Y-69535960D01*
X88187732Y-69535960D01*
X88173029Y-69535238D01*
X88158468Y-69533078D01*
X88144189Y-69529501D01*
X88130329Y-69524542D01*
X88117022Y-69518248D01*
X88104396Y-69510680D01*
X88092573Y-69501912D01*
X88081666Y-69492026D01*
X88071780Y-69481119D01*
X88063012Y-69469296D01*
X88055444Y-69456670D01*
X88049150Y-69443363D01*
X88044191Y-69429503D01*
X88040614Y-69415224D01*
X88038454Y-69400663D01*
X88037732Y-69385960D01*
X88037732Y-69085960D01*
X88038454Y-69071257D01*
X88040614Y-69056696D01*
X88044191Y-69042417D01*
X88049150Y-69028557D01*
X88055444Y-69015250D01*
X88063012Y-69002624D01*
X88071780Y-68990801D01*
X88081666Y-68979894D01*
X88092573Y-68970008D01*
X88104396Y-68961240D01*
X88117022Y-68953672D01*
X88130329Y-68947378D01*
X88144189Y-68942419D01*
X88158468Y-68938842D01*
X88173029Y-68936682D01*
X88187732Y-68935960D01*
X89362732Y-68935960D01*
X89377435Y-68936682D01*
X89377435Y-68936682D01*
G37*
D16*
X88775232Y-69235960D03*
G04 #@! TD*
D17*
G04 #@! TO.C,U1*
X108450000Y-51850000D03*
X108450000Y-52350000D03*
X108450000Y-52850000D03*
X108450000Y-53350000D03*
X108450000Y-53850000D03*
X108450000Y-54350000D03*
X108450000Y-54850000D03*
X108450000Y-55350000D03*
X108450000Y-55850000D03*
X108450000Y-56350000D03*
X108450000Y-56850000D03*
X108450000Y-57350000D03*
D18*
X110050000Y-58950000D03*
X110550000Y-58950000D03*
X111050000Y-58950000D03*
X111550000Y-58950000D03*
X112050000Y-58950000D03*
X112550000Y-58950000D03*
X113050000Y-58950000D03*
X113550000Y-58950000D03*
X114050000Y-58950000D03*
X114550000Y-58950000D03*
X115050000Y-58950000D03*
X115550000Y-58950000D03*
D17*
X117150000Y-57350000D03*
X117150000Y-56850000D03*
X117150000Y-56350000D03*
X117150000Y-55850000D03*
X117150000Y-55350000D03*
X117150000Y-54850000D03*
X117150000Y-54350000D03*
X117150000Y-53850000D03*
X117150000Y-53350000D03*
X117150000Y-52850000D03*
X117150000Y-52350000D03*
X117150000Y-51850000D03*
D18*
X115550000Y-50250000D03*
X115050000Y-50250000D03*
X114550000Y-50250000D03*
X114050000Y-50250000D03*
X113550000Y-50250000D03*
X113050000Y-50250000D03*
X112550000Y-50250000D03*
X112050000Y-50250000D03*
X111550000Y-50250000D03*
X111050000Y-50250000D03*
X110550000Y-50250000D03*
X110050000Y-50250000D03*
G04 #@! TD*
D11*
G04 #@! TO.C,R1*
G36*
X120077691Y-44351053D02*
X120098926Y-44354203D01*
X120119750Y-44359419D01*
X120139962Y-44366651D01*
X120159368Y-44375830D01*
X120177781Y-44386866D01*
X120195024Y-44399654D01*
X120210930Y-44414070D01*
X120225346Y-44429976D01*
X120238134Y-44447219D01*
X120249170Y-44465632D01*
X120258349Y-44485038D01*
X120265581Y-44505250D01*
X120270797Y-44526074D01*
X120273947Y-44547309D01*
X120275000Y-44568750D01*
X120275000Y-45006250D01*
X120273947Y-45027691D01*
X120270797Y-45048926D01*
X120265581Y-45069750D01*
X120258349Y-45089962D01*
X120249170Y-45109368D01*
X120238134Y-45127781D01*
X120225346Y-45145024D01*
X120210930Y-45160930D01*
X120195024Y-45175346D01*
X120177781Y-45188134D01*
X120159368Y-45199170D01*
X120139962Y-45208349D01*
X120119750Y-45215581D01*
X120098926Y-45220797D01*
X120077691Y-45223947D01*
X120056250Y-45225000D01*
X119543750Y-45225000D01*
X119522309Y-45223947D01*
X119501074Y-45220797D01*
X119480250Y-45215581D01*
X119460038Y-45208349D01*
X119440632Y-45199170D01*
X119422219Y-45188134D01*
X119404976Y-45175346D01*
X119389070Y-45160930D01*
X119374654Y-45145024D01*
X119361866Y-45127781D01*
X119350830Y-45109368D01*
X119341651Y-45089962D01*
X119334419Y-45069750D01*
X119329203Y-45048926D01*
X119326053Y-45027691D01*
X119325000Y-45006250D01*
X119325000Y-44568750D01*
X119326053Y-44547309D01*
X119329203Y-44526074D01*
X119334419Y-44505250D01*
X119341651Y-44485038D01*
X119350830Y-44465632D01*
X119361866Y-44447219D01*
X119374654Y-44429976D01*
X119389070Y-44414070D01*
X119404976Y-44399654D01*
X119422219Y-44386866D01*
X119440632Y-44375830D01*
X119460038Y-44366651D01*
X119480250Y-44359419D01*
X119501074Y-44354203D01*
X119522309Y-44351053D01*
X119543750Y-44350000D01*
X120056250Y-44350000D01*
X120077691Y-44351053D01*
X120077691Y-44351053D01*
G37*
D12*
X119800000Y-44787500D03*
D11*
G36*
X120077691Y-42776053D02*
X120098926Y-42779203D01*
X120119750Y-42784419D01*
X120139962Y-42791651D01*
X120159368Y-42800830D01*
X120177781Y-42811866D01*
X120195024Y-42824654D01*
X120210930Y-42839070D01*
X120225346Y-42854976D01*
X120238134Y-42872219D01*
X120249170Y-42890632D01*
X120258349Y-42910038D01*
X120265581Y-42930250D01*
X120270797Y-42951074D01*
X120273947Y-42972309D01*
X120275000Y-42993750D01*
X120275000Y-43431250D01*
X120273947Y-43452691D01*
X120270797Y-43473926D01*
X120265581Y-43494750D01*
X120258349Y-43514962D01*
X120249170Y-43534368D01*
X120238134Y-43552781D01*
X120225346Y-43570024D01*
X120210930Y-43585930D01*
X120195024Y-43600346D01*
X120177781Y-43613134D01*
X120159368Y-43624170D01*
X120139962Y-43633349D01*
X120119750Y-43640581D01*
X120098926Y-43645797D01*
X120077691Y-43648947D01*
X120056250Y-43650000D01*
X119543750Y-43650000D01*
X119522309Y-43648947D01*
X119501074Y-43645797D01*
X119480250Y-43640581D01*
X119460038Y-43633349D01*
X119440632Y-43624170D01*
X119422219Y-43613134D01*
X119404976Y-43600346D01*
X119389070Y-43585930D01*
X119374654Y-43570024D01*
X119361866Y-43552781D01*
X119350830Y-43534368D01*
X119341651Y-43514962D01*
X119334419Y-43494750D01*
X119329203Y-43473926D01*
X119326053Y-43452691D01*
X119325000Y-43431250D01*
X119325000Y-42993750D01*
X119326053Y-42972309D01*
X119329203Y-42951074D01*
X119334419Y-42930250D01*
X119341651Y-42910038D01*
X119350830Y-42890632D01*
X119361866Y-42872219D01*
X119374654Y-42854976D01*
X119389070Y-42839070D01*
X119404976Y-42824654D01*
X119422219Y-42811866D01*
X119440632Y-42800830D01*
X119460038Y-42791651D01*
X119480250Y-42784419D01*
X119501074Y-42779203D01*
X119522309Y-42776053D01*
X119543750Y-42775000D01*
X120056250Y-42775000D01*
X120077691Y-42776053D01*
X120077691Y-42776053D01*
G37*
D12*
X119800000Y-43212500D03*
G04 #@! TD*
D11*
G04 #@! TO.C,R2*
G36*
X117127691Y-46726053D02*
X117148926Y-46729203D01*
X117169750Y-46734419D01*
X117189962Y-46741651D01*
X117209368Y-46750830D01*
X117227781Y-46761866D01*
X117245024Y-46774654D01*
X117260930Y-46789070D01*
X117275346Y-46804976D01*
X117288134Y-46822219D01*
X117299170Y-46840632D01*
X117308349Y-46860038D01*
X117315581Y-46880250D01*
X117320797Y-46901074D01*
X117323947Y-46922309D01*
X117325000Y-46943750D01*
X117325000Y-47456250D01*
X117323947Y-47477691D01*
X117320797Y-47498926D01*
X117315581Y-47519750D01*
X117308349Y-47539962D01*
X117299170Y-47559368D01*
X117288134Y-47577781D01*
X117275346Y-47595024D01*
X117260930Y-47610930D01*
X117245024Y-47625346D01*
X117227781Y-47638134D01*
X117209368Y-47649170D01*
X117189962Y-47658349D01*
X117169750Y-47665581D01*
X117148926Y-47670797D01*
X117127691Y-47673947D01*
X117106250Y-47675000D01*
X116668750Y-47675000D01*
X116647309Y-47673947D01*
X116626074Y-47670797D01*
X116605250Y-47665581D01*
X116585038Y-47658349D01*
X116565632Y-47649170D01*
X116547219Y-47638134D01*
X116529976Y-47625346D01*
X116514070Y-47610930D01*
X116499654Y-47595024D01*
X116486866Y-47577781D01*
X116475830Y-47559368D01*
X116466651Y-47539962D01*
X116459419Y-47519750D01*
X116454203Y-47498926D01*
X116451053Y-47477691D01*
X116450000Y-47456250D01*
X116450000Y-46943750D01*
X116451053Y-46922309D01*
X116454203Y-46901074D01*
X116459419Y-46880250D01*
X116466651Y-46860038D01*
X116475830Y-46840632D01*
X116486866Y-46822219D01*
X116499654Y-46804976D01*
X116514070Y-46789070D01*
X116529976Y-46774654D01*
X116547219Y-46761866D01*
X116565632Y-46750830D01*
X116585038Y-46741651D01*
X116605250Y-46734419D01*
X116626074Y-46729203D01*
X116647309Y-46726053D01*
X116668750Y-46725000D01*
X117106250Y-46725000D01*
X117127691Y-46726053D01*
X117127691Y-46726053D01*
G37*
D12*
X116887500Y-47200000D03*
D11*
G36*
X115552691Y-46726053D02*
X115573926Y-46729203D01*
X115594750Y-46734419D01*
X115614962Y-46741651D01*
X115634368Y-46750830D01*
X115652781Y-46761866D01*
X115670024Y-46774654D01*
X115685930Y-46789070D01*
X115700346Y-46804976D01*
X115713134Y-46822219D01*
X115724170Y-46840632D01*
X115733349Y-46860038D01*
X115740581Y-46880250D01*
X115745797Y-46901074D01*
X115748947Y-46922309D01*
X115750000Y-46943750D01*
X115750000Y-47456250D01*
X115748947Y-47477691D01*
X115745797Y-47498926D01*
X115740581Y-47519750D01*
X115733349Y-47539962D01*
X115724170Y-47559368D01*
X115713134Y-47577781D01*
X115700346Y-47595024D01*
X115685930Y-47610930D01*
X115670024Y-47625346D01*
X115652781Y-47638134D01*
X115634368Y-47649170D01*
X115614962Y-47658349D01*
X115594750Y-47665581D01*
X115573926Y-47670797D01*
X115552691Y-47673947D01*
X115531250Y-47675000D01*
X115093750Y-47675000D01*
X115072309Y-47673947D01*
X115051074Y-47670797D01*
X115030250Y-47665581D01*
X115010038Y-47658349D01*
X114990632Y-47649170D01*
X114972219Y-47638134D01*
X114954976Y-47625346D01*
X114939070Y-47610930D01*
X114924654Y-47595024D01*
X114911866Y-47577781D01*
X114900830Y-47559368D01*
X114891651Y-47539962D01*
X114884419Y-47519750D01*
X114879203Y-47498926D01*
X114876053Y-47477691D01*
X114875000Y-47456250D01*
X114875000Y-46943750D01*
X114876053Y-46922309D01*
X114879203Y-46901074D01*
X114884419Y-46880250D01*
X114891651Y-46860038D01*
X114900830Y-46840632D01*
X114911866Y-46822219D01*
X114924654Y-46804976D01*
X114939070Y-46789070D01*
X114954976Y-46774654D01*
X114972219Y-46761866D01*
X114990632Y-46750830D01*
X115010038Y-46741651D01*
X115030250Y-46734419D01*
X115051074Y-46729203D01*
X115072309Y-46726053D01*
X115093750Y-46725000D01*
X115531250Y-46725000D01*
X115552691Y-46726053D01*
X115552691Y-46726053D01*
G37*
D12*
X115312500Y-47200000D03*
G04 #@! TD*
D11*
G04 #@! TO.C,R3*
G36*
X110977691Y-42776053D02*
X110998926Y-42779203D01*
X111019750Y-42784419D01*
X111039962Y-42791651D01*
X111059368Y-42800830D01*
X111077781Y-42811866D01*
X111095024Y-42824654D01*
X111110930Y-42839070D01*
X111125346Y-42854976D01*
X111138134Y-42872219D01*
X111149170Y-42890632D01*
X111158349Y-42910038D01*
X111165581Y-42930250D01*
X111170797Y-42951074D01*
X111173947Y-42972309D01*
X111175000Y-42993750D01*
X111175000Y-43431250D01*
X111173947Y-43452691D01*
X111170797Y-43473926D01*
X111165581Y-43494750D01*
X111158349Y-43514962D01*
X111149170Y-43534368D01*
X111138134Y-43552781D01*
X111125346Y-43570024D01*
X111110930Y-43585930D01*
X111095024Y-43600346D01*
X111077781Y-43613134D01*
X111059368Y-43624170D01*
X111039962Y-43633349D01*
X111019750Y-43640581D01*
X110998926Y-43645797D01*
X110977691Y-43648947D01*
X110956250Y-43650000D01*
X110443750Y-43650000D01*
X110422309Y-43648947D01*
X110401074Y-43645797D01*
X110380250Y-43640581D01*
X110360038Y-43633349D01*
X110340632Y-43624170D01*
X110322219Y-43613134D01*
X110304976Y-43600346D01*
X110289070Y-43585930D01*
X110274654Y-43570024D01*
X110261866Y-43552781D01*
X110250830Y-43534368D01*
X110241651Y-43514962D01*
X110234419Y-43494750D01*
X110229203Y-43473926D01*
X110226053Y-43452691D01*
X110225000Y-43431250D01*
X110225000Y-42993750D01*
X110226053Y-42972309D01*
X110229203Y-42951074D01*
X110234419Y-42930250D01*
X110241651Y-42910038D01*
X110250830Y-42890632D01*
X110261866Y-42872219D01*
X110274654Y-42854976D01*
X110289070Y-42839070D01*
X110304976Y-42824654D01*
X110322219Y-42811866D01*
X110340632Y-42800830D01*
X110360038Y-42791651D01*
X110380250Y-42784419D01*
X110401074Y-42779203D01*
X110422309Y-42776053D01*
X110443750Y-42775000D01*
X110956250Y-42775000D01*
X110977691Y-42776053D01*
X110977691Y-42776053D01*
G37*
D12*
X110700000Y-43212500D03*
D11*
G36*
X110977691Y-44351053D02*
X110998926Y-44354203D01*
X111019750Y-44359419D01*
X111039962Y-44366651D01*
X111059368Y-44375830D01*
X111077781Y-44386866D01*
X111095024Y-44399654D01*
X111110930Y-44414070D01*
X111125346Y-44429976D01*
X111138134Y-44447219D01*
X111149170Y-44465632D01*
X111158349Y-44485038D01*
X111165581Y-44505250D01*
X111170797Y-44526074D01*
X111173947Y-44547309D01*
X111175000Y-44568750D01*
X111175000Y-45006250D01*
X111173947Y-45027691D01*
X111170797Y-45048926D01*
X111165581Y-45069750D01*
X111158349Y-45089962D01*
X111149170Y-45109368D01*
X111138134Y-45127781D01*
X111125346Y-45145024D01*
X111110930Y-45160930D01*
X111095024Y-45175346D01*
X111077781Y-45188134D01*
X111059368Y-45199170D01*
X111039962Y-45208349D01*
X111019750Y-45215581D01*
X110998926Y-45220797D01*
X110977691Y-45223947D01*
X110956250Y-45225000D01*
X110443750Y-45225000D01*
X110422309Y-45223947D01*
X110401074Y-45220797D01*
X110380250Y-45215581D01*
X110360038Y-45208349D01*
X110340632Y-45199170D01*
X110322219Y-45188134D01*
X110304976Y-45175346D01*
X110289070Y-45160930D01*
X110274654Y-45145024D01*
X110261866Y-45127781D01*
X110250830Y-45109368D01*
X110241651Y-45089962D01*
X110234419Y-45069750D01*
X110229203Y-45048926D01*
X110226053Y-45027691D01*
X110225000Y-45006250D01*
X110225000Y-44568750D01*
X110226053Y-44547309D01*
X110229203Y-44526074D01*
X110234419Y-44505250D01*
X110241651Y-44485038D01*
X110250830Y-44465632D01*
X110261866Y-44447219D01*
X110274654Y-44429976D01*
X110289070Y-44414070D01*
X110304976Y-44399654D01*
X110322219Y-44386866D01*
X110340632Y-44375830D01*
X110360038Y-44366651D01*
X110380250Y-44359419D01*
X110401074Y-44354203D01*
X110422309Y-44351053D01*
X110443750Y-44350000D01*
X110956250Y-44350000D01*
X110977691Y-44351053D01*
X110977691Y-44351053D01*
G37*
D12*
X110700000Y-44787500D03*
G04 #@! TD*
D11*
G04 #@! TO.C,R4*
G36*
X79177691Y-59676053D02*
X79198926Y-59679203D01*
X79219750Y-59684419D01*
X79239962Y-59691651D01*
X79259368Y-59700830D01*
X79277781Y-59711866D01*
X79295024Y-59724654D01*
X79310930Y-59739070D01*
X79325346Y-59754976D01*
X79338134Y-59772219D01*
X79349170Y-59790632D01*
X79358349Y-59810038D01*
X79365581Y-59830250D01*
X79370797Y-59851074D01*
X79373947Y-59872309D01*
X79375000Y-59893750D01*
X79375000Y-60331250D01*
X79373947Y-60352691D01*
X79370797Y-60373926D01*
X79365581Y-60394750D01*
X79358349Y-60414962D01*
X79349170Y-60434368D01*
X79338134Y-60452781D01*
X79325346Y-60470024D01*
X79310930Y-60485930D01*
X79295024Y-60500346D01*
X79277781Y-60513134D01*
X79259368Y-60524170D01*
X79239962Y-60533349D01*
X79219750Y-60540581D01*
X79198926Y-60545797D01*
X79177691Y-60548947D01*
X79156250Y-60550000D01*
X78643750Y-60550000D01*
X78622309Y-60548947D01*
X78601074Y-60545797D01*
X78580250Y-60540581D01*
X78560038Y-60533349D01*
X78540632Y-60524170D01*
X78522219Y-60513134D01*
X78504976Y-60500346D01*
X78489070Y-60485930D01*
X78474654Y-60470024D01*
X78461866Y-60452781D01*
X78450830Y-60434368D01*
X78441651Y-60414962D01*
X78434419Y-60394750D01*
X78429203Y-60373926D01*
X78426053Y-60352691D01*
X78425000Y-60331250D01*
X78425000Y-59893750D01*
X78426053Y-59872309D01*
X78429203Y-59851074D01*
X78434419Y-59830250D01*
X78441651Y-59810038D01*
X78450830Y-59790632D01*
X78461866Y-59772219D01*
X78474654Y-59754976D01*
X78489070Y-59739070D01*
X78504976Y-59724654D01*
X78522219Y-59711866D01*
X78540632Y-59700830D01*
X78560038Y-59691651D01*
X78580250Y-59684419D01*
X78601074Y-59679203D01*
X78622309Y-59676053D01*
X78643750Y-59675000D01*
X79156250Y-59675000D01*
X79177691Y-59676053D01*
X79177691Y-59676053D01*
G37*
D12*
X78900000Y-60112500D03*
D11*
G36*
X79177691Y-61251053D02*
X79198926Y-61254203D01*
X79219750Y-61259419D01*
X79239962Y-61266651D01*
X79259368Y-61275830D01*
X79277781Y-61286866D01*
X79295024Y-61299654D01*
X79310930Y-61314070D01*
X79325346Y-61329976D01*
X79338134Y-61347219D01*
X79349170Y-61365632D01*
X79358349Y-61385038D01*
X79365581Y-61405250D01*
X79370797Y-61426074D01*
X79373947Y-61447309D01*
X79375000Y-61468750D01*
X79375000Y-61906250D01*
X79373947Y-61927691D01*
X79370797Y-61948926D01*
X79365581Y-61969750D01*
X79358349Y-61989962D01*
X79349170Y-62009368D01*
X79338134Y-62027781D01*
X79325346Y-62045024D01*
X79310930Y-62060930D01*
X79295024Y-62075346D01*
X79277781Y-62088134D01*
X79259368Y-62099170D01*
X79239962Y-62108349D01*
X79219750Y-62115581D01*
X79198926Y-62120797D01*
X79177691Y-62123947D01*
X79156250Y-62125000D01*
X78643750Y-62125000D01*
X78622309Y-62123947D01*
X78601074Y-62120797D01*
X78580250Y-62115581D01*
X78560038Y-62108349D01*
X78540632Y-62099170D01*
X78522219Y-62088134D01*
X78504976Y-62075346D01*
X78489070Y-62060930D01*
X78474654Y-62045024D01*
X78461866Y-62027781D01*
X78450830Y-62009368D01*
X78441651Y-61989962D01*
X78434419Y-61969750D01*
X78429203Y-61948926D01*
X78426053Y-61927691D01*
X78425000Y-61906250D01*
X78425000Y-61468750D01*
X78426053Y-61447309D01*
X78429203Y-61426074D01*
X78434419Y-61405250D01*
X78441651Y-61385038D01*
X78450830Y-61365632D01*
X78461866Y-61347219D01*
X78474654Y-61329976D01*
X78489070Y-61314070D01*
X78504976Y-61299654D01*
X78522219Y-61286866D01*
X78540632Y-61275830D01*
X78560038Y-61266651D01*
X78580250Y-61259419D01*
X78601074Y-61254203D01*
X78622309Y-61251053D01*
X78643750Y-61250000D01*
X79156250Y-61250000D01*
X79177691Y-61251053D01*
X79177691Y-61251053D01*
G37*
D12*
X78900000Y-61687500D03*
G04 #@! TD*
M02*
