G04 #@! TF.GenerationSoftware,KiCad,Pcbnew,5.1.2-f72e74a~84~ubuntu19.04.1*
G04 #@! TF.CreationDate,2019-06-20T20:29:00+03:00*
G04 #@! TF.ProjectId,GB-CART2M-A,47422d43-4152-4543-924d-2d412e6b6963,v1.1*
G04 #@! TF.SameCoordinates,Original*
G04 #@! TF.FileFunction,Copper,L2,Bot*
G04 #@! TF.FilePolarity,Positive*
%FSLAX46Y46*%
G04 Gerber Fmt 4.6, Leading zero omitted, Abs format (unit mm)*
G04 Created by KiCad (PCBNEW 5.1.2-f72e74a~84~ubuntu19.04.1) date 2019-06-20 20:29:00*
%MOMM*%
%LPD*%
G04 APERTURE LIST*
%ADD10C,0.150000*%
%ADD11C,2.000000*%
%ADD12C,0.600000*%
%ADD13C,1.000000*%
%ADD14C,0.320000*%
%ADD15C,0.254000*%
G04 APERTURE END LIST*
D10*
X74800000Y-91400000D02*
G75*
G02X74300000Y-90900000I0J500000D01*
G01*
X74300000Y-39500000D02*
G75*
G02X74800000Y-39000000I500000J0D01*
G01*
X121200000Y-39000000D02*
G75*
G02X121700000Y-39500000I0J-500000D01*
G01*
X125200000Y-41600000D02*
G75*
G02X125700000Y-42100000I0J-500000D01*
G01*
X125700000Y-90900000D02*
G75*
G02X125200000Y-91400000I-500000J0D01*
G01*
X76300000Y-100000000D02*
G75*
G02X75400000Y-99100000I0J900000D01*
G01*
X124600000Y-99100000D02*
G75*
G02X123700000Y-100000000I-900000J0D01*
G01*
X121700000Y-39500000D02*
X121700000Y-41600000D01*
X74800000Y-39000000D02*
X121200000Y-39000000D01*
X125200000Y-41600000D02*
X121700000Y-41600000D01*
X74300000Y-90900000D02*
X74300000Y-39500000D01*
X75400000Y-91400000D02*
X74800000Y-91400000D01*
X75400000Y-99100000D02*
X75400000Y-91400000D01*
X125700000Y-90900000D02*
X125700000Y-42100000D01*
X124600000Y-91400000D02*
X125200000Y-91400000D01*
X124600000Y-99100000D02*
X124600000Y-91400000D01*
X76300000Y-100000000D02*
X123700000Y-100000000D01*
D11*
X82500000Y-44700000D03*
X76600000Y-60100000D03*
X82500000Y-49200000D03*
D12*
X120100000Y-51600000D03*
X105600000Y-57600000D03*
X99900000Y-52800000D03*
X78400000Y-49200000D03*
X100800000Y-44600000D03*
X86900000Y-68100000D03*
X80900000Y-64400000D03*
X120100000Y-54300000D03*
X105600000Y-54900000D03*
X102700000Y-51000000D03*
X76300000Y-49200000D03*
X121750000Y-91500000D03*
X78100000Y-91500000D03*
X101400000Y-89800000D03*
X104500000Y-89800000D03*
X123400000Y-90200000D03*
X78550000Y-57500000D03*
X77300000Y-54000000D03*
X75700000Y-52200000D03*
X85400000Y-68100000D03*
X100900000Y-71800000D03*
X120100000Y-55900000D03*
X120100000Y-50000000D03*
X105600000Y-59200000D03*
X110100000Y-57600000D03*
X105600000Y-53300000D03*
X116100000Y-48900000D03*
X76300000Y-44999694D03*
X78400000Y-45000000D03*
X112600000Y-57600000D03*
X112650000Y-49000000D03*
X107900000Y-41800000D03*
X113100000Y-41800000D03*
X104900000Y-42700000D03*
X110099998Y-52900000D03*
X108100000Y-50400000D03*
X114900000Y-48800000D03*
X114900000Y-52300002D03*
X109599992Y-51850000D03*
X113000000Y-46500000D03*
X94300000Y-70599998D03*
X97700000Y-62400000D03*
X96500000Y-61200000D03*
X94300000Y-69200000D03*
X95200000Y-59800000D03*
X94300000Y-67965960D03*
X116700000Y-61700000D03*
X118600000Y-72900000D03*
X119400000Y-78000000D03*
X112800000Y-61700000D03*
X94300000Y-54700000D03*
X102300000Y-58100000D03*
X109600000Y-61700000D03*
X104700000Y-77200000D03*
X111300000Y-73100000D03*
X103900000Y-74300000D03*
X111300000Y-72000000D03*
X103900000Y-73000000D03*
X111300006Y-70900000D03*
X103900000Y-70500000D03*
X111300000Y-69800000D03*
X103900000Y-69300000D03*
X110800000Y-68800000D03*
X103900000Y-68000000D03*
X110500000Y-67500000D03*
X103900000Y-66700000D03*
X109800000Y-66500000D03*
X108600000Y-65500000D03*
X113600000Y-52200000D03*
X113600000Y-48600000D03*
X87000000Y-56400000D03*
X87000000Y-58299998D03*
X85700000Y-88900000D03*
X94300000Y-85700000D03*
X105700000Y-79300000D03*
X115200000Y-73800000D03*
X99400000Y-63300000D03*
X100600000Y-74500000D03*
X105500000Y-81600000D03*
X115200000Y-74900000D03*
X103000000Y-80900000D03*
X100200000Y-68300000D03*
X106400000Y-81000000D03*
X115200000Y-76000000D03*
X97900000Y-73500000D03*
X115200000Y-77100000D03*
X107400000Y-81900000D03*
X102100000Y-80100000D03*
X83800000Y-70000000D03*
X81000000Y-66100000D03*
X93199994Y-82600000D03*
X91500000Y-84400000D03*
X93072732Y-81200000D03*
X91000000Y-83300000D03*
X93999994Y-79999994D03*
X90300000Y-82500000D03*
X95200001Y-79100000D03*
X89300000Y-82100000D03*
X89400000Y-80900000D03*
X96400000Y-78300002D03*
X89400000Y-79200000D03*
X97700000Y-78300000D03*
X93400000Y-87900000D03*
X96600000Y-70200000D03*
X86100000Y-75200000D03*
X86400010Y-87900000D03*
X89100000Y-62000000D03*
X92900016Y-62100000D03*
X93300000Y-73500000D03*
X88300000Y-76100000D03*
X86399996Y-86700000D03*
X93400000Y-86800000D03*
X96800000Y-90599998D03*
X94400000Y-66500000D03*
X87800000Y-63800000D03*
X82900000Y-90600000D03*
X95600000Y-90600000D03*
X93100000Y-66500000D03*
X89100000Y-65400000D03*
X84400000Y-90599994D03*
X87100000Y-66700000D03*
X84000000Y-63200000D03*
D13*
X105600000Y-57600000D02*
X104700000Y-57600000D01*
X104700000Y-57600000D02*
X99900000Y-52800000D01*
X78400000Y-49200000D02*
X82500000Y-49200000D01*
X99900000Y-52800000D02*
X99900000Y-50200000D01*
X99900000Y-50200000D02*
X99900000Y-45500000D01*
X99900000Y-45500000D02*
X100800000Y-44600000D01*
D14*
X85376802Y-67100000D02*
X82676802Y-64400000D01*
X82676802Y-64400000D02*
X80900000Y-64400000D01*
X86900000Y-68100000D02*
X85900000Y-67100000D01*
X85900000Y-67100000D02*
X85376802Y-67100000D01*
D13*
X113400000Y-54300000D02*
X120100000Y-54300000D01*
X105600000Y-54900000D02*
X112800000Y-54900000D01*
X112800000Y-54900000D02*
X113400000Y-54300000D01*
X105600000Y-54900000D02*
X102700000Y-52000000D01*
X102700000Y-52000000D02*
X102700000Y-51000000D01*
X77200000Y-46700000D02*
X76300000Y-47600000D01*
X78800000Y-46700000D02*
X77200000Y-46700000D01*
X82500000Y-44700000D02*
X80800000Y-44700000D01*
X76300000Y-47600000D02*
X76300000Y-49200000D01*
X80800000Y-44700000D02*
X78800000Y-46700000D01*
D14*
X78100000Y-91500000D02*
X99700000Y-91500000D01*
X101100001Y-90099999D02*
X101400000Y-89800000D01*
X99700000Y-91500000D02*
X101100001Y-90099999D01*
X104924264Y-89800000D02*
X104500000Y-89800000D01*
X121750000Y-91500000D02*
X106624264Y-91500000D01*
X106624264Y-91500000D02*
X104924264Y-89800000D01*
X110099998Y-52900000D02*
X109675734Y-52900000D01*
X109675734Y-52900000D02*
X108100000Y-51324266D01*
X108100000Y-51324266D02*
X108100000Y-50824264D01*
X108100000Y-50824264D02*
X108100000Y-50400000D01*
X114900000Y-48800000D02*
X114900000Y-52300002D01*
X109599992Y-51850000D02*
X109599992Y-50899992D01*
X109599992Y-50899992D02*
X109599992Y-49900008D01*
X109599992Y-49900008D02*
X113000000Y-46500000D01*
X97700000Y-62824264D02*
X97700000Y-62400000D01*
X97700000Y-67199998D02*
X97700000Y-62824264D01*
X94300000Y-70599998D02*
X97700000Y-67199998D01*
X96500000Y-67000000D02*
X94300000Y-69200000D01*
X96500000Y-61200000D02*
X96500000Y-67000000D01*
X95200000Y-59800000D02*
X95200000Y-67065960D01*
X95200000Y-67065960D02*
X94300000Y-67965960D01*
X118600000Y-72900000D02*
X118600000Y-77200000D01*
X118600000Y-77200000D02*
X119400000Y-78000000D01*
X112800000Y-61700000D02*
X116700000Y-61700000D01*
X109600000Y-61700000D02*
X112800000Y-61700000D01*
X98900000Y-54700000D02*
X102300000Y-58100000D01*
X94300000Y-54700000D02*
X98900000Y-54700000D01*
X111200000Y-73100000D02*
X111300000Y-73100000D01*
X104700000Y-77200000D02*
X108800000Y-73100000D01*
X108800000Y-73100000D02*
X111200000Y-73100000D01*
X110875736Y-72000000D02*
X111300000Y-72000000D01*
X108700000Y-72000000D02*
X110875736Y-72000000D01*
X103900000Y-74300000D02*
X106400000Y-74300000D01*
X106400000Y-74300000D02*
X108700000Y-72000000D01*
X110875742Y-70900000D02*
X111300006Y-70900000D01*
X108600000Y-70900000D02*
X110875742Y-70900000D01*
X103900000Y-73000000D02*
X106500000Y-73000000D01*
X106500000Y-73000000D02*
X108600000Y-70900000D01*
X106900000Y-69800000D02*
X111300000Y-69800000D01*
X103900000Y-70500000D02*
X106200000Y-70500000D01*
X106200000Y-70500000D02*
X106900000Y-69800000D01*
X103900000Y-69300000D02*
X104400000Y-68800000D01*
X104400000Y-68800000D02*
X110800000Y-68800000D01*
X103900000Y-68000000D02*
X110000000Y-68000000D01*
X110000000Y-68000000D02*
X110500000Y-67500000D01*
X109600000Y-66700000D02*
X109800000Y-66500000D01*
X103900000Y-66700000D02*
X109600000Y-66700000D01*
X113600000Y-48600000D02*
X113600000Y-52200000D01*
X87000000Y-56400000D02*
X87000000Y-58299998D01*
X93376802Y-88900000D02*
X94300000Y-87976802D01*
X85700000Y-88900000D02*
X93376802Y-88900000D01*
X94300000Y-86124264D02*
X94300000Y-85700000D01*
X94300000Y-87976802D02*
X94300000Y-86124264D01*
X115100000Y-73900000D02*
X115100000Y-73800000D01*
X105700000Y-79300000D02*
X109700000Y-79300000D01*
X115100000Y-73800000D02*
X115200000Y-73800000D01*
X109700000Y-79300000D02*
X115100000Y-73900000D01*
X109900000Y-80200000D02*
X115200000Y-74900000D01*
X106200000Y-80200000D02*
X109900000Y-80200000D01*
X105500000Y-81600000D02*
X105500000Y-80900000D01*
X105500000Y-80900000D02*
X106200000Y-80200000D01*
X103000000Y-76900000D02*
X103000000Y-80900000D01*
X100600000Y-74500000D02*
X103000000Y-76900000D01*
X100200000Y-64100000D02*
X100200000Y-67875736D01*
X99400000Y-63300000D02*
X100200000Y-64100000D01*
X100200000Y-67875736D02*
X100200000Y-68300000D01*
X115100000Y-76000000D02*
X115200000Y-76000000D01*
X106400000Y-81000000D02*
X110100000Y-81000000D01*
X110100000Y-81000000D02*
X115100000Y-76000000D01*
X110400000Y-81900000D02*
X107400000Y-81900000D01*
X115200000Y-77100000D02*
X110400000Y-81900000D01*
X102000000Y-80000000D02*
X102100000Y-80100000D01*
X97900000Y-75900000D02*
X102000000Y-80000000D01*
X97900000Y-73500000D02*
X97900000Y-75900000D01*
X83800000Y-68900000D02*
X81000000Y-66100000D01*
X83800000Y-70000000D02*
X83800000Y-68900000D01*
X91500000Y-84299994D02*
X91500000Y-84400000D01*
X93199994Y-82600000D02*
X91500000Y-84299994D01*
X93072732Y-81200000D02*
X91000000Y-83272732D01*
X91000000Y-83272732D02*
X91000000Y-83300000D01*
X93999994Y-79999994D02*
X92800006Y-79999994D01*
X92800006Y-79999994D02*
X90300000Y-82500000D01*
X95200001Y-79100000D02*
X92300000Y-79100000D01*
X92300000Y-79100000D02*
X89300000Y-82100000D01*
X89400000Y-80900000D02*
X91999998Y-78300002D01*
X91999998Y-78300002D02*
X96400000Y-78300002D01*
X89400000Y-79200000D02*
X91200000Y-77400000D01*
X96800000Y-77400000D02*
X97400001Y-78000001D01*
X97400001Y-78000001D02*
X97700000Y-78300000D01*
X91200000Y-77400000D02*
X96800000Y-77400000D01*
X86524264Y-75200000D02*
X86100000Y-75200000D01*
X90324264Y-71400000D02*
X86524264Y-75200000D01*
X96600000Y-70200000D02*
X95400000Y-71400000D01*
X95400000Y-71400000D02*
X90324264Y-71400000D01*
X93400000Y-87900000D02*
X86400010Y-87900000D01*
X92800016Y-62000000D02*
X92900016Y-62100000D01*
X89100000Y-62000000D02*
X92800016Y-62000000D01*
X93300000Y-73500000D02*
X90900000Y-73500000D01*
X90900000Y-73500000D02*
X88300000Y-76100000D01*
X86399996Y-86700000D02*
X93300000Y-86700000D01*
X93300000Y-86700000D02*
X93400000Y-86800000D01*
X94400000Y-66500000D02*
X91700000Y-63800000D01*
X91700000Y-63800000D02*
X87800000Y-63800000D01*
X95900003Y-89700001D02*
X83799999Y-89700001D01*
X83199999Y-90300001D02*
X82900000Y-90600000D01*
X96800000Y-90599998D02*
X95900003Y-89700001D01*
X83799999Y-89700001D02*
X83199999Y-90300001D01*
X93100000Y-66500000D02*
X90200000Y-66500000D01*
X90200000Y-66500000D02*
X89100000Y-65400000D01*
X84400006Y-90600000D02*
X84400000Y-90599994D01*
X95600000Y-90600000D02*
X84400006Y-90600000D01*
X87100000Y-66700000D02*
X84000000Y-63600000D01*
X84000000Y-63600000D02*
X84000000Y-63200000D01*
D15*
G36*
X121098001Y-41570424D02*
G01*
X121095088Y-41600000D01*
X121106711Y-41718012D01*
X121141134Y-41831490D01*
X121197034Y-41936071D01*
X121272263Y-42027737D01*
X121363929Y-42102966D01*
X121468510Y-42158866D01*
X121581988Y-42193289D01*
X121670434Y-42202000D01*
X121700000Y-42204912D01*
X121729566Y-42202000D01*
X125098001Y-42202000D01*
X125098000Y-90798000D01*
X124629566Y-90798000D01*
X124600000Y-90795088D01*
X124555224Y-90799498D01*
X124481988Y-90806711D01*
X124368510Y-90841134D01*
X124263929Y-90897034D01*
X124172263Y-90972263D01*
X124097034Y-91063929D01*
X124041134Y-91168510D01*
X124006711Y-91281988D01*
X123995088Y-91400000D01*
X123998001Y-91429577D01*
X123998001Y-92373000D01*
X76002000Y-92373000D01*
X76002000Y-91429566D01*
X76003085Y-91418548D01*
X77273000Y-91418548D01*
X77273000Y-91581452D01*
X77304782Y-91741227D01*
X77367123Y-91891731D01*
X77457628Y-92027181D01*
X77572819Y-92142372D01*
X77708269Y-92232877D01*
X77858773Y-92295218D01*
X78018548Y-92327000D01*
X78181452Y-92327000D01*
X78341227Y-92295218D01*
X78491731Y-92232877D01*
X78560391Y-92187000D01*
X99666255Y-92187000D01*
X99700000Y-92190324D01*
X99733745Y-92187000D01*
X99733750Y-92187000D01*
X99834676Y-92177060D01*
X99964176Y-92137776D01*
X100005747Y-92115555D01*
X100083523Y-92073984D01*
X100140552Y-92027181D01*
X100188133Y-91988133D01*
X100209650Y-91961914D01*
X101560235Y-90611329D01*
X101641227Y-90595218D01*
X101791731Y-90532877D01*
X101927181Y-90442372D01*
X102042372Y-90327181D01*
X102132877Y-90191731D01*
X102195218Y-90041227D01*
X102227000Y-89881452D01*
X102227000Y-89718548D01*
X103673000Y-89718548D01*
X103673000Y-89881452D01*
X103704782Y-90041227D01*
X103767123Y-90191731D01*
X103857628Y-90327181D01*
X103972819Y-90442372D01*
X104108269Y-90532877D01*
X104258773Y-90595218D01*
X104418548Y-90627000D01*
X104581452Y-90627000D01*
X104741227Y-90595218D01*
X104745958Y-90593258D01*
X106114618Y-91961919D01*
X106136131Y-91988133D01*
X106162345Y-92009646D01*
X106162346Y-92009647D01*
X106240740Y-92073983D01*
X106360088Y-92137776D01*
X106489588Y-92177060D01*
X106590514Y-92187000D01*
X106590518Y-92187000D01*
X106624263Y-92190324D01*
X106658008Y-92187000D01*
X121289609Y-92187000D01*
X121358269Y-92232877D01*
X121508773Y-92295218D01*
X121668548Y-92327000D01*
X121831452Y-92327000D01*
X121991227Y-92295218D01*
X122141731Y-92232877D01*
X122277181Y-92142372D01*
X122392372Y-92027181D01*
X122482877Y-91891731D01*
X122545218Y-91741227D01*
X122577000Y-91581452D01*
X122577000Y-91418548D01*
X122545218Y-91258773D01*
X122482877Y-91108269D01*
X122392372Y-90972819D01*
X122277181Y-90857628D01*
X122141731Y-90767123D01*
X121991227Y-90704782D01*
X121831452Y-90673000D01*
X121668548Y-90673000D01*
X121508773Y-90704782D01*
X121358269Y-90767123D01*
X121289609Y-90813000D01*
X106908829Y-90813000D01*
X105433914Y-89338086D01*
X105412397Y-89311867D01*
X105356407Y-89265918D01*
X105307787Y-89226016D01*
X105230011Y-89184445D01*
X105188440Y-89162224D01*
X105058940Y-89122940D01*
X104960801Y-89113275D01*
X104891731Y-89067123D01*
X104741227Y-89004782D01*
X104581452Y-88973000D01*
X104418548Y-88973000D01*
X104258773Y-89004782D01*
X104108269Y-89067123D01*
X103972819Y-89157628D01*
X103857628Y-89272819D01*
X103767123Y-89408269D01*
X103704782Y-89558773D01*
X103673000Y-89718548D01*
X102227000Y-89718548D01*
X102195218Y-89558773D01*
X102132877Y-89408269D01*
X102042372Y-89272819D01*
X101927181Y-89157628D01*
X101791731Y-89067123D01*
X101641227Y-89004782D01*
X101481452Y-88973000D01*
X101318548Y-88973000D01*
X101158773Y-89004782D01*
X101008269Y-89067123D01*
X100872819Y-89157628D01*
X100757628Y-89272819D01*
X100667123Y-89408269D01*
X100604782Y-89558773D01*
X100588671Y-89639765D01*
X99415436Y-90813000D01*
X97600832Y-90813000D01*
X97627000Y-90681450D01*
X97627000Y-90518546D01*
X97595218Y-90358771D01*
X97532877Y-90208267D01*
X97442372Y-90072817D01*
X97327181Y-89957626D01*
X97191731Y-89867121D01*
X97041227Y-89804780D01*
X96960236Y-89788670D01*
X96409653Y-89238087D01*
X96388136Y-89211868D01*
X96327644Y-89162224D01*
X96283526Y-89126017D01*
X96173342Y-89067123D01*
X96164179Y-89062225D01*
X96034679Y-89022941D01*
X95933753Y-89013001D01*
X95933748Y-89013001D01*
X95900003Y-89009677D01*
X95866258Y-89013001D01*
X94235365Y-89013001D01*
X94761923Y-88486443D01*
X94788132Y-88464935D01*
X94809642Y-88438725D01*
X94809647Y-88438720D01*
X94873983Y-88360326D01*
X94937776Y-88240978D01*
X94946263Y-88213000D01*
X94977060Y-88111478D01*
X94987000Y-88010552D01*
X94987000Y-88010548D01*
X94990324Y-87976803D01*
X94987000Y-87943058D01*
X94987000Y-86160391D01*
X95032877Y-86091731D01*
X95095218Y-85941227D01*
X95127000Y-85781452D01*
X95127000Y-85618548D01*
X95095218Y-85458773D01*
X95032877Y-85308269D01*
X94942372Y-85172819D01*
X94827181Y-85057628D01*
X94691731Y-84967123D01*
X94541227Y-84904782D01*
X94381452Y-84873000D01*
X94218548Y-84873000D01*
X94058773Y-84904782D01*
X93908269Y-84967123D01*
X93772819Y-85057628D01*
X93657628Y-85172819D01*
X93567123Y-85308269D01*
X93504782Y-85458773D01*
X93473000Y-85618548D01*
X93473000Y-85781452D01*
X93504782Y-85941227D01*
X93521219Y-85980910D01*
X93481452Y-85973000D01*
X93318548Y-85973000D01*
X93158773Y-86004782D01*
X93138933Y-86013000D01*
X86860387Y-86013000D01*
X86791727Y-85967123D01*
X86641223Y-85904782D01*
X86481448Y-85873000D01*
X86318544Y-85873000D01*
X86158769Y-85904782D01*
X86008265Y-85967123D01*
X85872815Y-86057628D01*
X85757624Y-86172819D01*
X85667119Y-86308269D01*
X85604778Y-86458773D01*
X85572996Y-86618548D01*
X85572996Y-86781452D01*
X85604778Y-86941227D01*
X85667119Y-87091731D01*
X85757624Y-87227181D01*
X85830450Y-87300007D01*
X85757638Y-87372819D01*
X85667133Y-87508269D01*
X85604792Y-87658773D01*
X85573010Y-87818548D01*
X85573010Y-87981452D01*
X85592261Y-88078229D01*
X85458773Y-88104782D01*
X85308269Y-88167123D01*
X85172819Y-88257628D01*
X85057628Y-88372819D01*
X84967123Y-88508269D01*
X84904782Y-88658773D01*
X84873000Y-88818548D01*
X84873000Y-88981452D01*
X84879276Y-89013001D01*
X83833743Y-89013001D01*
X83799998Y-89009677D01*
X83766253Y-89013001D01*
X83766249Y-89013001D01*
X83665323Y-89022941D01*
X83535823Y-89062225D01*
X83416475Y-89126018D01*
X83338081Y-89190354D01*
X83311866Y-89211868D01*
X83290353Y-89238082D01*
X82739765Y-89788671D01*
X82658773Y-89804782D01*
X82508269Y-89867123D01*
X82372819Y-89957628D01*
X82257628Y-90072819D01*
X82167123Y-90208269D01*
X82104782Y-90358773D01*
X82073000Y-90518548D01*
X82073000Y-90681452D01*
X82099167Y-90813000D01*
X78560391Y-90813000D01*
X78491731Y-90767123D01*
X78341227Y-90704782D01*
X78181452Y-90673000D01*
X78018548Y-90673000D01*
X77858773Y-90704782D01*
X77708269Y-90767123D01*
X77572819Y-90857628D01*
X77457628Y-90972819D01*
X77367123Y-91108269D01*
X77304782Y-91258773D01*
X77273000Y-91418548D01*
X76003085Y-91418548D01*
X76004912Y-91400000D01*
X75993289Y-91281988D01*
X75958866Y-91168510D01*
X75902966Y-91063929D01*
X75827737Y-90972263D01*
X75736071Y-90897034D01*
X75631490Y-90841134D01*
X75518012Y-90806711D01*
X75400000Y-90795088D01*
X75370434Y-90798000D01*
X74902000Y-90798000D01*
X74902000Y-82018548D01*
X88473000Y-82018548D01*
X88473000Y-82181452D01*
X88504782Y-82341227D01*
X88567123Y-82491731D01*
X88657628Y-82627181D01*
X88772819Y-82742372D01*
X88908269Y-82832877D01*
X89058773Y-82895218D01*
X89218548Y-82927000D01*
X89381452Y-82927000D01*
X89541227Y-82895218D01*
X89564563Y-82885552D01*
X89567123Y-82891731D01*
X89657628Y-83027181D01*
X89772819Y-83142372D01*
X89908269Y-83232877D01*
X90058773Y-83295218D01*
X90173000Y-83317940D01*
X90173000Y-83381452D01*
X90204782Y-83541227D01*
X90267123Y-83691731D01*
X90357628Y-83827181D01*
X90472819Y-83942372D01*
X90608269Y-84032877D01*
X90735159Y-84085437D01*
X90704782Y-84158773D01*
X90673000Y-84318548D01*
X90673000Y-84481452D01*
X90704782Y-84641227D01*
X90767123Y-84791731D01*
X90857628Y-84927181D01*
X90972819Y-85042372D01*
X91108269Y-85132877D01*
X91258773Y-85195218D01*
X91418548Y-85227000D01*
X91581452Y-85227000D01*
X91741227Y-85195218D01*
X91891731Y-85132877D01*
X92027181Y-85042372D01*
X92142372Y-84927181D01*
X92232877Y-84791731D01*
X92295218Y-84641227D01*
X92327000Y-84481452D01*
X92327000Y-84444558D01*
X92528032Y-84243526D01*
X95873000Y-84243526D01*
X95873000Y-85056474D01*
X96031598Y-85853802D01*
X96342700Y-86604868D01*
X96794350Y-87280809D01*
X97369191Y-87855650D01*
X98045132Y-88307300D01*
X98796198Y-88618402D01*
X99593526Y-88777000D01*
X100406474Y-88777000D01*
X101203802Y-88618402D01*
X101954868Y-88307300D01*
X102630809Y-87855650D01*
X103205650Y-87280809D01*
X103657300Y-86604868D01*
X103968402Y-85853802D01*
X104127000Y-85056474D01*
X104127000Y-84243526D01*
X103968402Y-83446198D01*
X103657300Y-82695132D01*
X103205650Y-82019191D01*
X102912195Y-81725736D01*
X102918548Y-81727000D01*
X103081452Y-81727000D01*
X103241227Y-81695218D01*
X103391731Y-81632877D01*
X103527181Y-81542372D01*
X103551005Y-81518548D01*
X104673000Y-81518548D01*
X104673000Y-81681452D01*
X104704782Y-81841227D01*
X104767123Y-81991731D01*
X104857628Y-82127181D01*
X104972819Y-82242372D01*
X105108269Y-82332877D01*
X105258773Y-82395218D01*
X105418548Y-82427000D01*
X105581452Y-82427000D01*
X105741227Y-82395218D01*
X105891731Y-82332877D01*
X106027181Y-82242372D01*
X106142372Y-82127181D01*
X106232877Y-81991731D01*
X106295218Y-81841227D01*
X106298828Y-81823077D01*
X106318548Y-81827000D01*
X106481452Y-81827000D01*
X106575021Y-81808387D01*
X106573000Y-81818548D01*
X106573000Y-81981452D01*
X106604782Y-82141227D01*
X106667123Y-82291731D01*
X106757628Y-82427181D01*
X106872819Y-82542372D01*
X107008269Y-82632877D01*
X107158773Y-82695218D01*
X107318548Y-82727000D01*
X107481452Y-82727000D01*
X107641227Y-82695218D01*
X107791731Y-82632877D01*
X107860391Y-82587000D01*
X110366255Y-82587000D01*
X110400000Y-82590324D01*
X110433745Y-82587000D01*
X110433750Y-82587000D01*
X110534676Y-82577060D01*
X110664176Y-82537776D01*
X110725903Y-82504782D01*
X110783523Y-82473984D01*
X110840773Y-82427000D01*
X110888133Y-82388133D01*
X110909650Y-82361914D01*
X115360237Y-77911328D01*
X115441227Y-77895218D01*
X115591731Y-77832877D01*
X115727181Y-77742372D01*
X115842372Y-77627181D01*
X115932877Y-77491731D01*
X115995218Y-77341227D01*
X116027000Y-77181452D01*
X116027000Y-77018548D01*
X115995218Y-76858773D01*
X115932877Y-76708269D01*
X115842372Y-76572819D01*
X115819553Y-76550000D01*
X115842372Y-76527181D01*
X115932877Y-76391731D01*
X115995218Y-76241227D01*
X116027000Y-76081452D01*
X116027000Y-75918548D01*
X115995218Y-75758773D01*
X115932877Y-75608269D01*
X115842372Y-75472819D01*
X115819553Y-75450000D01*
X115842372Y-75427181D01*
X115932877Y-75291731D01*
X115995218Y-75141227D01*
X116027000Y-74981452D01*
X116027000Y-74818548D01*
X115995218Y-74658773D01*
X115932877Y-74508269D01*
X115842372Y-74372819D01*
X115819553Y-74350000D01*
X115842372Y-74327181D01*
X115932877Y-74191731D01*
X115995218Y-74041227D01*
X116027000Y-73881452D01*
X116027000Y-73718548D01*
X115995218Y-73558773D01*
X115932877Y-73408269D01*
X115842372Y-73272819D01*
X115727181Y-73157628D01*
X115591731Y-73067123D01*
X115441227Y-73004782D01*
X115281452Y-72973000D01*
X115118548Y-72973000D01*
X114958773Y-73004782D01*
X114808269Y-73067123D01*
X114672819Y-73157628D01*
X114557628Y-73272819D01*
X114467123Y-73408269D01*
X114404782Y-73558773D01*
X114388672Y-73639763D01*
X109415436Y-78613000D01*
X106160391Y-78613000D01*
X106091731Y-78567123D01*
X105941227Y-78504782D01*
X105781452Y-78473000D01*
X105618548Y-78473000D01*
X105458773Y-78504782D01*
X105308269Y-78567123D01*
X105172819Y-78657628D01*
X105057628Y-78772819D01*
X104967123Y-78908269D01*
X104904782Y-79058773D01*
X104873000Y-79218548D01*
X104873000Y-79381452D01*
X104904782Y-79541227D01*
X104967123Y-79691731D01*
X105057628Y-79827181D01*
X105172819Y-79942372D01*
X105308269Y-80032877D01*
X105369992Y-80058444D01*
X105038082Y-80390354D01*
X105011868Y-80411867D01*
X104990355Y-80438081D01*
X104990353Y-80438083D01*
X104926016Y-80516477D01*
X104862224Y-80635825D01*
X104860240Y-80642366D01*
X104822940Y-80765324D01*
X104813000Y-80866250D01*
X104813000Y-80866255D01*
X104809676Y-80900000D01*
X104813000Y-80933745D01*
X104813000Y-81139609D01*
X104767123Y-81208269D01*
X104704782Y-81358773D01*
X104673000Y-81518548D01*
X103551005Y-81518548D01*
X103642372Y-81427181D01*
X103732877Y-81291731D01*
X103795218Y-81141227D01*
X103827000Y-80981452D01*
X103827000Y-80818548D01*
X103795218Y-80658773D01*
X103732877Y-80508269D01*
X103687000Y-80439609D01*
X103687000Y-76933747D01*
X103690324Y-76900000D01*
X103687000Y-76866250D01*
X103677060Y-76765324D01*
X103637776Y-76635824D01*
X103613471Y-76590353D01*
X103573984Y-76516476D01*
X103509647Y-76438082D01*
X103509642Y-76438077D01*
X103488132Y-76411867D01*
X103461924Y-76390359D01*
X101411329Y-74339764D01*
X101395218Y-74258773D01*
X101332877Y-74108269D01*
X101242372Y-73972819D01*
X101127181Y-73857628D01*
X100991731Y-73767123D01*
X100841227Y-73704782D01*
X100681452Y-73673000D01*
X100518548Y-73673000D01*
X100358773Y-73704782D01*
X100208269Y-73767123D01*
X100072819Y-73857628D01*
X99957628Y-73972819D01*
X99867123Y-74108269D01*
X99804782Y-74258773D01*
X99773000Y-74418548D01*
X99773000Y-74581452D01*
X99804782Y-74741227D01*
X99867123Y-74891731D01*
X99957628Y-75027181D01*
X100072819Y-75142372D01*
X100208269Y-75232877D01*
X100358773Y-75295218D01*
X100439764Y-75311329D01*
X102313000Y-77184565D01*
X102313001Y-79299167D01*
X102260237Y-79288672D01*
X98587000Y-75615436D01*
X98587000Y-73960391D01*
X98632877Y-73891731D01*
X98695218Y-73741227D01*
X98727000Y-73581452D01*
X98727000Y-73418548D01*
X98695218Y-73258773D01*
X98632877Y-73108269D01*
X98542372Y-72972819D01*
X98427181Y-72857628D01*
X98291731Y-72767123D01*
X98141227Y-72704782D01*
X97981452Y-72673000D01*
X97818548Y-72673000D01*
X97658773Y-72704782D01*
X97508269Y-72767123D01*
X97372819Y-72857628D01*
X97257628Y-72972819D01*
X97167123Y-73108269D01*
X97104782Y-73258773D01*
X97073000Y-73418548D01*
X97073000Y-73581452D01*
X97104782Y-73741227D01*
X97167123Y-73891731D01*
X97213000Y-73960391D01*
X97213001Y-75866245D01*
X97209676Y-75900000D01*
X97213001Y-75933750D01*
X97222941Y-76034676D01*
X97237131Y-76081452D01*
X97262224Y-76164175D01*
X97326016Y-76283523D01*
X97390353Y-76361917D01*
X97411868Y-76388133D01*
X97438082Y-76409646D01*
X101288672Y-80260237D01*
X101304782Y-80341227D01*
X101367123Y-80491731D01*
X101457628Y-80627181D01*
X101572819Y-80742372D01*
X101708269Y-80832877D01*
X101858773Y-80895218D01*
X102018548Y-80927000D01*
X102173000Y-80927000D01*
X102173000Y-80981452D01*
X102204782Y-81141227D01*
X102215355Y-81166752D01*
X101954868Y-80992700D01*
X101203802Y-80681598D01*
X100406474Y-80523000D01*
X99593526Y-80523000D01*
X98796198Y-80681598D01*
X98045132Y-80992700D01*
X97369191Y-81444350D01*
X96794350Y-82019191D01*
X96342700Y-82695132D01*
X96031598Y-83446198D01*
X95873000Y-84243526D01*
X92528032Y-84243526D01*
X93360230Y-83411328D01*
X93441221Y-83395218D01*
X93591725Y-83332877D01*
X93727175Y-83242372D01*
X93842366Y-83127181D01*
X93932871Y-82991731D01*
X93995212Y-82841227D01*
X94026994Y-82681452D01*
X94026994Y-82518548D01*
X93995212Y-82358773D01*
X93932871Y-82208269D01*
X93842366Y-82072819D01*
X93727175Y-81957628D01*
X93591725Y-81867123D01*
X93573913Y-81859745D01*
X93599913Y-81842372D01*
X93715104Y-81727181D01*
X93805609Y-81591731D01*
X93867950Y-81441227D01*
X93899732Y-81281452D01*
X93899732Y-81118548D01*
X93867950Y-80958773D01*
X93805609Y-80808269D01*
X93802727Y-80803956D01*
X93918542Y-80826994D01*
X94081446Y-80826994D01*
X94241221Y-80795212D01*
X94391725Y-80732871D01*
X94527175Y-80642366D01*
X94642366Y-80527175D01*
X94732871Y-80391725D01*
X94795212Y-80241221D01*
X94826994Y-80081446D01*
X94826994Y-79918542D01*
X94810105Y-79833637D01*
X94958774Y-79895218D01*
X95118549Y-79927000D01*
X95281453Y-79927000D01*
X95441228Y-79895218D01*
X95591732Y-79832877D01*
X95727182Y-79742372D01*
X95842373Y-79627181D01*
X95932878Y-79491731D01*
X95995219Y-79341227D01*
X96027001Y-79181452D01*
X96027001Y-79040638D01*
X96158773Y-79095220D01*
X96318548Y-79127002D01*
X96481452Y-79127002D01*
X96641227Y-79095220D01*
X96791731Y-79032879D01*
X96927181Y-78942374D01*
X97042372Y-78827183D01*
X97050001Y-78815766D01*
X97057628Y-78827181D01*
X97172819Y-78942372D01*
X97308269Y-79032877D01*
X97458773Y-79095218D01*
X97618548Y-79127000D01*
X97781452Y-79127000D01*
X97941227Y-79095218D01*
X98091731Y-79032877D01*
X98227181Y-78942372D01*
X98342372Y-78827181D01*
X98432877Y-78691731D01*
X98495218Y-78541227D01*
X98527000Y-78381452D01*
X98527000Y-78218548D01*
X98495218Y-78058773D01*
X98432877Y-77908269D01*
X98342372Y-77772819D01*
X98227181Y-77657628D01*
X98091731Y-77567123D01*
X97941227Y-77504782D01*
X97860237Y-77488672D01*
X97309650Y-76938086D01*
X97288133Y-76911867D01*
X97223437Y-76858773D01*
X97183523Y-76826016D01*
X97069977Y-76765325D01*
X97064176Y-76762224D01*
X96934676Y-76722940D01*
X96833750Y-76713000D01*
X96833745Y-76713000D01*
X96800000Y-76709676D01*
X96766255Y-76713000D01*
X91233744Y-76713000D01*
X91199999Y-76709676D01*
X91166254Y-76713000D01*
X91166250Y-76713000D01*
X91065324Y-76722940D01*
X90935824Y-76762224D01*
X90816476Y-76826017D01*
X90776575Y-76858763D01*
X90711867Y-76911867D01*
X90690350Y-76938086D01*
X89239765Y-78388671D01*
X89158773Y-78404782D01*
X89008269Y-78467123D01*
X88872819Y-78557628D01*
X88757628Y-78672819D01*
X88667123Y-78808269D01*
X88604782Y-78958773D01*
X88573000Y-79118548D01*
X88573000Y-79281452D01*
X88604782Y-79441227D01*
X88667123Y-79591731D01*
X88757628Y-79727181D01*
X88872819Y-79842372D01*
X89008269Y-79932877D01*
X89158773Y-79995218D01*
X89304275Y-80024161D01*
X89239765Y-80088671D01*
X89158773Y-80104782D01*
X89008269Y-80167123D01*
X88872819Y-80257628D01*
X88757628Y-80372819D01*
X88667123Y-80508269D01*
X88604782Y-80658773D01*
X88573000Y-80818548D01*
X88573000Y-80981452D01*
X88604782Y-81141227D01*
X88667123Y-81291731D01*
X88757628Y-81427181D01*
X88781964Y-81451517D01*
X88772819Y-81457628D01*
X88657628Y-81572819D01*
X88567123Y-81708269D01*
X88504782Y-81858773D01*
X88473000Y-82018548D01*
X74902000Y-82018548D01*
X74902000Y-75118548D01*
X85273000Y-75118548D01*
X85273000Y-75281452D01*
X85304782Y-75441227D01*
X85367123Y-75591731D01*
X85457628Y-75727181D01*
X85572819Y-75842372D01*
X85708269Y-75932877D01*
X85858773Y-75995218D01*
X86018548Y-76027000D01*
X86181452Y-76027000D01*
X86223942Y-76018548D01*
X87473000Y-76018548D01*
X87473000Y-76181452D01*
X87504782Y-76341227D01*
X87567123Y-76491731D01*
X87657628Y-76627181D01*
X87772819Y-76742372D01*
X87908269Y-76832877D01*
X88058773Y-76895218D01*
X88218548Y-76927000D01*
X88381452Y-76927000D01*
X88541227Y-76895218D01*
X88691731Y-76832877D01*
X88827181Y-76742372D01*
X88942372Y-76627181D01*
X89032877Y-76491731D01*
X89095218Y-76341227D01*
X89111329Y-76260236D01*
X91184565Y-74187000D01*
X92839609Y-74187000D01*
X92908269Y-74232877D01*
X93058773Y-74295218D01*
X93218548Y-74327000D01*
X93381452Y-74327000D01*
X93541227Y-74295218D01*
X93691731Y-74232877D01*
X93827181Y-74142372D01*
X93942372Y-74027181D01*
X94032877Y-73891731D01*
X94095218Y-73741227D01*
X94127000Y-73581452D01*
X94127000Y-73418548D01*
X94095218Y-73258773D01*
X94032877Y-73108269D01*
X93942372Y-72972819D01*
X93827181Y-72857628D01*
X93691731Y-72767123D01*
X93541227Y-72704782D01*
X93381452Y-72673000D01*
X93218548Y-72673000D01*
X93058773Y-72704782D01*
X92908269Y-72767123D01*
X92839609Y-72813000D01*
X90933744Y-72813000D01*
X90899999Y-72809676D01*
X90866254Y-72813000D01*
X90866250Y-72813000D01*
X90765324Y-72822940D01*
X90635824Y-72862224D01*
X90516476Y-72926017D01*
X90459227Y-72973000D01*
X90411867Y-73011867D01*
X90390354Y-73038081D01*
X88139764Y-75288671D01*
X88058773Y-75304782D01*
X87908269Y-75367123D01*
X87772819Y-75457628D01*
X87657628Y-75572819D01*
X87567123Y-75708269D01*
X87504782Y-75858773D01*
X87473000Y-76018548D01*
X86223942Y-76018548D01*
X86341227Y-75995218D01*
X86491731Y-75932877D01*
X86560801Y-75886725D01*
X86658940Y-75877060D01*
X86788440Y-75837776D01*
X86830011Y-75815555D01*
X86907787Y-75773984D01*
X86977859Y-75716477D01*
X87012397Y-75688133D01*
X87033914Y-75661914D01*
X90608829Y-72087000D01*
X95366255Y-72087000D01*
X95400000Y-72090324D01*
X95433745Y-72087000D01*
X95433750Y-72087000D01*
X95534676Y-72077060D01*
X95664176Y-72037776D01*
X95705747Y-72015555D01*
X95783523Y-71973984D01*
X95832143Y-71934082D01*
X95888133Y-71888133D01*
X95909650Y-71861914D01*
X96760236Y-71011328D01*
X96841227Y-70995218D01*
X96991731Y-70932877D01*
X97127181Y-70842372D01*
X97242372Y-70727181D01*
X97332877Y-70591731D01*
X97395218Y-70441227D01*
X97427000Y-70281452D01*
X97427000Y-70118548D01*
X97395218Y-69958773D01*
X97332877Y-69808269D01*
X97242372Y-69672819D01*
X97127181Y-69557628D01*
X96991731Y-69467123D01*
X96841227Y-69404782D01*
X96681452Y-69373000D01*
X96518548Y-69373000D01*
X96493600Y-69377963D01*
X98161924Y-67709639D01*
X98188132Y-67688131D01*
X98209642Y-67661921D01*
X98209647Y-67661916D01*
X98273983Y-67583522D01*
X98337776Y-67464174D01*
X98342232Y-67449484D01*
X98377060Y-67334674D01*
X98387000Y-67233748D01*
X98387000Y-67233744D01*
X98390324Y-67199999D01*
X98387000Y-67166254D01*
X98387000Y-63218548D01*
X98573000Y-63218548D01*
X98573000Y-63381452D01*
X98604782Y-63541227D01*
X98667123Y-63691731D01*
X98757628Y-63827181D01*
X98872819Y-63942372D01*
X99008269Y-64032877D01*
X99158773Y-64095218D01*
X99239764Y-64111329D01*
X99513000Y-64384565D01*
X99513001Y-67839608D01*
X99467123Y-67908269D01*
X99404782Y-68058773D01*
X99373000Y-68218548D01*
X99373000Y-68381452D01*
X99404782Y-68541227D01*
X99467123Y-68691731D01*
X99557628Y-68827181D01*
X99672819Y-68942372D01*
X99808269Y-69032877D01*
X99958773Y-69095218D01*
X100118548Y-69127000D01*
X100281452Y-69127000D01*
X100441227Y-69095218D01*
X100591731Y-69032877D01*
X100727181Y-68942372D01*
X100842372Y-68827181D01*
X100932877Y-68691731D01*
X100995218Y-68541227D01*
X101027000Y-68381452D01*
X101027000Y-68218548D01*
X100995218Y-68058773D01*
X100932877Y-67908269D01*
X100887000Y-67839609D01*
X100887000Y-66618548D01*
X103073000Y-66618548D01*
X103073000Y-66781452D01*
X103104782Y-66941227D01*
X103167123Y-67091731D01*
X103257628Y-67227181D01*
X103372819Y-67342372D01*
X103384235Y-67350000D01*
X103372819Y-67357628D01*
X103257628Y-67472819D01*
X103167123Y-67608269D01*
X103104782Y-67758773D01*
X103073000Y-67918548D01*
X103073000Y-68081452D01*
X103104782Y-68241227D01*
X103167123Y-68391731D01*
X103257628Y-68527181D01*
X103372819Y-68642372D01*
X103384235Y-68650000D01*
X103372819Y-68657628D01*
X103257628Y-68772819D01*
X103167123Y-68908269D01*
X103104782Y-69058773D01*
X103073000Y-69218548D01*
X103073000Y-69381452D01*
X103104782Y-69541227D01*
X103167123Y-69691731D01*
X103257628Y-69827181D01*
X103330447Y-69900000D01*
X103257628Y-69972819D01*
X103167123Y-70108269D01*
X103104782Y-70258773D01*
X103073000Y-70418548D01*
X103073000Y-70581452D01*
X103104782Y-70741227D01*
X103167123Y-70891731D01*
X103257628Y-71027181D01*
X103372819Y-71142372D01*
X103508269Y-71232877D01*
X103658773Y-71295218D01*
X103818548Y-71327000D01*
X103981452Y-71327000D01*
X104141227Y-71295218D01*
X104291731Y-71232877D01*
X104360391Y-71187000D01*
X106166255Y-71187000D01*
X106200000Y-71190324D01*
X106233745Y-71187000D01*
X106233750Y-71187000D01*
X106334676Y-71177060D01*
X106464176Y-71137776D01*
X106516805Y-71109645D01*
X106583523Y-71073984D01*
X106653595Y-71016477D01*
X106688133Y-70988133D01*
X106709650Y-70961914D01*
X107184564Y-70487000D01*
X108041436Y-70487000D01*
X106215436Y-72313000D01*
X104360391Y-72313000D01*
X104291731Y-72267123D01*
X104141227Y-72204782D01*
X103981452Y-72173000D01*
X103818548Y-72173000D01*
X103658773Y-72204782D01*
X103508269Y-72267123D01*
X103372819Y-72357628D01*
X103257628Y-72472819D01*
X103167123Y-72608269D01*
X103104782Y-72758773D01*
X103073000Y-72918548D01*
X103073000Y-73081452D01*
X103104782Y-73241227D01*
X103167123Y-73391731D01*
X103257628Y-73527181D01*
X103372819Y-73642372D01*
X103384235Y-73650000D01*
X103372819Y-73657628D01*
X103257628Y-73772819D01*
X103167123Y-73908269D01*
X103104782Y-74058773D01*
X103073000Y-74218548D01*
X103073000Y-74381452D01*
X103104782Y-74541227D01*
X103167123Y-74691731D01*
X103257628Y-74827181D01*
X103372819Y-74942372D01*
X103508269Y-75032877D01*
X103658773Y-75095218D01*
X103818548Y-75127000D01*
X103981452Y-75127000D01*
X104141227Y-75095218D01*
X104291731Y-75032877D01*
X104360391Y-74987000D01*
X105941436Y-74987000D01*
X104539765Y-76388671D01*
X104458773Y-76404782D01*
X104308269Y-76467123D01*
X104172819Y-76557628D01*
X104057628Y-76672819D01*
X103967123Y-76808269D01*
X103904782Y-76958773D01*
X103873000Y-77118548D01*
X103873000Y-77281452D01*
X103904782Y-77441227D01*
X103967123Y-77591731D01*
X104057628Y-77727181D01*
X104172819Y-77842372D01*
X104308269Y-77932877D01*
X104458773Y-77995218D01*
X104618548Y-78027000D01*
X104781452Y-78027000D01*
X104941227Y-77995218D01*
X105091731Y-77932877D01*
X105227181Y-77842372D01*
X105342372Y-77727181D01*
X105432877Y-77591731D01*
X105495218Y-77441227D01*
X105511329Y-77360235D01*
X109084565Y-73787000D01*
X110839609Y-73787000D01*
X110908269Y-73832877D01*
X111058773Y-73895218D01*
X111218548Y-73927000D01*
X111381452Y-73927000D01*
X111541227Y-73895218D01*
X111691731Y-73832877D01*
X111827181Y-73742372D01*
X111942372Y-73627181D01*
X112032877Y-73491731D01*
X112095218Y-73341227D01*
X112127000Y-73181452D01*
X112127000Y-73018548D01*
X112095218Y-72858773D01*
X112078557Y-72818548D01*
X117773000Y-72818548D01*
X117773000Y-72981452D01*
X117804782Y-73141227D01*
X117867123Y-73291731D01*
X117913000Y-73360391D01*
X117913001Y-77166245D01*
X117909676Y-77200000D01*
X117913001Y-77233750D01*
X117922941Y-77334676D01*
X117945684Y-77409647D01*
X117962224Y-77464175D01*
X118026016Y-77583523D01*
X118086835Y-77657630D01*
X118111868Y-77688133D01*
X118138082Y-77709646D01*
X118588672Y-78160236D01*
X118604782Y-78241227D01*
X118667123Y-78391731D01*
X118757628Y-78527181D01*
X118872819Y-78642372D01*
X119008269Y-78732877D01*
X119158773Y-78795218D01*
X119318548Y-78827000D01*
X119481452Y-78827000D01*
X119641227Y-78795218D01*
X119791731Y-78732877D01*
X119927181Y-78642372D01*
X120042372Y-78527181D01*
X120132877Y-78391731D01*
X120195218Y-78241227D01*
X120227000Y-78081452D01*
X120227000Y-77918548D01*
X120195218Y-77758773D01*
X120132877Y-77608269D01*
X120042372Y-77472819D01*
X119927181Y-77357628D01*
X119791731Y-77267123D01*
X119641227Y-77204782D01*
X119560236Y-77188672D01*
X119287000Y-76915436D01*
X119287000Y-73360391D01*
X119332877Y-73291731D01*
X119395218Y-73141227D01*
X119427000Y-72981452D01*
X119427000Y-72818548D01*
X119395218Y-72658773D01*
X119332877Y-72508269D01*
X119242372Y-72372819D01*
X119127181Y-72257628D01*
X118991731Y-72167123D01*
X118841227Y-72104782D01*
X118681452Y-72073000D01*
X118518548Y-72073000D01*
X118358773Y-72104782D01*
X118208269Y-72167123D01*
X118072819Y-72257628D01*
X117957628Y-72372819D01*
X117867123Y-72508269D01*
X117804782Y-72658773D01*
X117773000Y-72818548D01*
X112078557Y-72818548D01*
X112032877Y-72708269D01*
X111942372Y-72572819D01*
X111919553Y-72550000D01*
X111942372Y-72527181D01*
X112032877Y-72391731D01*
X112095218Y-72241227D01*
X112127000Y-72081452D01*
X112127000Y-71918548D01*
X112095218Y-71758773D01*
X112032877Y-71608269D01*
X111942372Y-71472819D01*
X111919556Y-71450003D01*
X111942378Y-71427181D01*
X112032883Y-71291731D01*
X112095224Y-71141227D01*
X112127006Y-70981452D01*
X112127006Y-70818548D01*
X112095224Y-70658773D01*
X112032883Y-70508269D01*
X111942378Y-70372819D01*
X111919556Y-70349997D01*
X111942372Y-70327181D01*
X112032877Y-70191731D01*
X112095218Y-70041227D01*
X112127000Y-69881452D01*
X112127000Y-69718548D01*
X112095218Y-69558773D01*
X112032877Y-69408269D01*
X111942372Y-69272819D01*
X111827181Y-69157628D01*
X111691731Y-69067123D01*
X111597806Y-69028218D01*
X111627000Y-68881452D01*
X111627000Y-68718548D01*
X111595218Y-68558773D01*
X111532877Y-68408269D01*
X111442372Y-68272819D01*
X111327181Y-68157628D01*
X111191731Y-68067123D01*
X111128586Y-68040967D01*
X111142372Y-68027181D01*
X111232877Y-67891731D01*
X111295218Y-67741227D01*
X111327000Y-67581452D01*
X111327000Y-67418548D01*
X111295218Y-67258773D01*
X111232877Y-67108269D01*
X111142372Y-66972819D01*
X111027181Y-66857628D01*
X110891731Y-66767123D01*
X110741227Y-66704782D01*
X110607749Y-66678231D01*
X110627000Y-66581452D01*
X110627000Y-66418548D01*
X110595218Y-66258773D01*
X110532877Y-66108269D01*
X110442372Y-65972819D01*
X110327181Y-65857628D01*
X110191731Y-65767123D01*
X110041227Y-65704782D01*
X109881452Y-65673000D01*
X109718548Y-65673000D01*
X109558773Y-65704782D01*
X109408269Y-65767123D01*
X109375392Y-65789091D01*
X109395218Y-65741227D01*
X109427000Y-65581452D01*
X109427000Y-65418548D01*
X109395218Y-65258773D01*
X109332877Y-65108269D01*
X109242372Y-64972819D01*
X109127181Y-64857628D01*
X108991731Y-64767123D01*
X108841227Y-64704782D01*
X108681452Y-64673000D01*
X108518548Y-64673000D01*
X108358773Y-64704782D01*
X108208269Y-64767123D01*
X108072819Y-64857628D01*
X107957628Y-64972819D01*
X107867123Y-65108269D01*
X107804782Y-65258773D01*
X107773000Y-65418548D01*
X107773000Y-65581452D01*
X107804782Y-65741227D01*
X107867123Y-65891731D01*
X107948153Y-66013000D01*
X104360391Y-66013000D01*
X104291731Y-65967123D01*
X104141227Y-65904782D01*
X103981452Y-65873000D01*
X103818548Y-65873000D01*
X103658773Y-65904782D01*
X103508269Y-65967123D01*
X103372819Y-66057628D01*
X103257628Y-66172819D01*
X103167123Y-66308269D01*
X103104782Y-66458773D01*
X103073000Y-66618548D01*
X100887000Y-66618548D01*
X100887000Y-64133747D01*
X100890324Y-64100000D01*
X100887000Y-64066250D01*
X100877060Y-63965324D01*
X100837776Y-63835824D01*
X100821296Y-63804992D01*
X100773984Y-63716476D01*
X100709647Y-63638082D01*
X100709642Y-63638077D01*
X100688132Y-63611867D01*
X100661923Y-63590358D01*
X100211329Y-63139764D01*
X100195218Y-63058773D01*
X100132877Y-62908269D01*
X100042372Y-62772819D01*
X99927181Y-62657628D01*
X99791731Y-62567123D01*
X99641227Y-62504782D01*
X99481452Y-62473000D01*
X99318548Y-62473000D01*
X99158773Y-62504782D01*
X99008269Y-62567123D01*
X98872819Y-62657628D01*
X98757628Y-62772819D01*
X98667123Y-62908269D01*
X98604782Y-63058773D01*
X98573000Y-63218548D01*
X98387000Y-63218548D01*
X98387000Y-62860391D01*
X98432877Y-62791731D01*
X98495218Y-62641227D01*
X98527000Y-62481452D01*
X98527000Y-62318548D01*
X98495218Y-62158773D01*
X98432877Y-62008269D01*
X98342372Y-61872819D01*
X98227181Y-61757628D01*
X98091731Y-61667123D01*
X97974461Y-61618548D01*
X108773000Y-61618548D01*
X108773000Y-61781452D01*
X108804782Y-61941227D01*
X108867123Y-62091731D01*
X108957628Y-62227181D01*
X109072819Y-62342372D01*
X109208269Y-62432877D01*
X109358773Y-62495218D01*
X109518548Y-62527000D01*
X109681452Y-62527000D01*
X109841227Y-62495218D01*
X109991731Y-62432877D01*
X110060391Y-62387000D01*
X112339609Y-62387000D01*
X112408269Y-62432877D01*
X112558773Y-62495218D01*
X112718548Y-62527000D01*
X112881452Y-62527000D01*
X113041227Y-62495218D01*
X113191731Y-62432877D01*
X113260391Y-62387000D01*
X116239609Y-62387000D01*
X116308269Y-62432877D01*
X116458773Y-62495218D01*
X116618548Y-62527000D01*
X116781452Y-62527000D01*
X116941227Y-62495218D01*
X117091731Y-62432877D01*
X117227181Y-62342372D01*
X117342372Y-62227181D01*
X117432877Y-62091731D01*
X117495218Y-61941227D01*
X117527000Y-61781452D01*
X117527000Y-61618548D01*
X117495218Y-61458773D01*
X117432877Y-61308269D01*
X117342372Y-61172819D01*
X117227181Y-61057628D01*
X117091731Y-60967123D01*
X116941227Y-60904782D01*
X116781452Y-60873000D01*
X116618548Y-60873000D01*
X116458773Y-60904782D01*
X116308269Y-60967123D01*
X116239609Y-61013000D01*
X113260391Y-61013000D01*
X113191731Y-60967123D01*
X113041227Y-60904782D01*
X112881452Y-60873000D01*
X112718548Y-60873000D01*
X112558773Y-60904782D01*
X112408269Y-60967123D01*
X112339609Y-61013000D01*
X110060391Y-61013000D01*
X109991731Y-60967123D01*
X109841227Y-60904782D01*
X109681452Y-60873000D01*
X109518548Y-60873000D01*
X109358773Y-60904782D01*
X109208269Y-60967123D01*
X109072819Y-61057628D01*
X108957628Y-61172819D01*
X108867123Y-61308269D01*
X108804782Y-61458773D01*
X108773000Y-61618548D01*
X97974461Y-61618548D01*
X97941227Y-61604782D01*
X97781452Y-61573000D01*
X97618548Y-61573000D01*
X97458773Y-61604782D01*
X97308269Y-61667123D01*
X97187000Y-61748153D01*
X97187000Y-61660391D01*
X97232877Y-61591731D01*
X97295218Y-61441227D01*
X97327000Y-61281452D01*
X97327000Y-61118548D01*
X97295218Y-60958773D01*
X97232877Y-60808269D01*
X97142372Y-60672819D01*
X97027181Y-60557628D01*
X96891731Y-60467123D01*
X96741227Y-60404782D01*
X96581452Y-60373000D01*
X96418548Y-60373000D01*
X96258773Y-60404782D01*
X96108269Y-60467123D01*
X95972819Y-60557628D01*
X95887000Y-60643447D01*
X95887000Y-60260391D01*
X95932877Y-60191731D01*
X95995218Y-60041227D01*
X96027000Y-59881452D01*
X96027000Y-59718548D01*
X95995218Y-59558773D01*
X95964590Y-59484830D01*
X98323000Y-59484830D01*
X98323000Y-59815170D01*
X98387446Y-60139163D01*
X98513862Y-60444357D01*
X98697389Y-60719025D01*
X98930975Y-60952611D01*
X99205643Y-61136138D01*
X99510837Y-61262554D01*
X99834830Y-61327000D01*
X100165170Y-61327000D01*
X100489163Y-61262554D01*
X100794357Y-61136138D01*
X101069025Y-60952611D01*
X101302611Y-60719025D01*
X101486138Y-60444357D01*
X101612554Y-60139163D01*
X101677000Y-59815170D01*
X101677000Y-59484830D01*
X101612554Y-59160837D01*
X101486138Y-58855643D01*
X101302611Y-58580975D01*
X101069025Y-58347389D01*
X100794357Y-58163862D01*
X100489163Y-58037446D01*
X100165170Y-57973000D01*
X99834830Y-57973000D01*
X99510837Y-58037446D01*
X99205643Y-58163862D01*
X98930975Y-58347389D01*
X98697389Y-58580975D01*
X98513862Y-58855643D01*
X98387446Y-59160837D01*
X98323000Y-59484830D01*
X95964590Y-59484830D01*
X95932877Y-59408269D01*
X95842372Y-59272819D01*
X95727181Y-59157628D01*
X95591731Y-59067123D01*
X95441227Y-59004782D01*
X95281452Y-58973000D01*
X95118548Y-58973000D01*
X94958773Y-59004782D01*
X94808269Y-59067123D01*
X94672819Y-59157628D01*
X94557628Y-59272819D01*
X94467123Y-59408269D01*
X94404782Y-59558773D01*
X94373000Y-59718548D01*
X94373000Y-59881452D01*
X94404782Y-60041227D01*
X94467123Y-60191731D01*
X94513000Y-60260391D01*
X94513001Y-65641436D01*
X92209650Y-63338086D01*
X92188133Y-63311867D01*
X92132143Y-63265918D01*
X92083523Y-63226016D01*
X92005747Y-63184445D01*
X91964176Y-63162224D01*
X91834676Y-63122940D01*
X91733750Y-63113000D01*
X91733745Y-63113000D01*
X91700000Y-63109676D01*
X91666255Y-63113000D01*
X88260391Y-63113000D01*
X88191731Y-63067123D01*
X88041227Y-63004782D01*
X87881452Y-62973000D01*
X87718548Y-62973000D01*
X87558773Y-63004782D01*
X87408269Y-63067123D01*
X87272819Y-63157628D01*
X87157628Y-63272819D01*
X87067123Y-63408269D01*
X87004782Y-63558773D01*
X86973000Y-63718548D01*
X86973000Y-63881452D01*
X87004782Y-64041227D01*
X87067123Y-64191731D01*
X87157628Y-64327181D01*
X87272819Y-64442372D01*
X87408269Y-64532877D01*
X87558773Y-64595218D01*
X87718548Y-64627000D01*
X87881452Y-64627000D01*
X88041227Y-64595218D01*
X88191731Y-64532877D01*
X88260391Y-64487000D01*
X91415436Y-64487000D01*
X92700650Y-65772214D01*
X92639609Y-65813000D01*
X90484565Y-65813000D01*
X89911329Y-65239764D01*
X89895218Y-65158773D01*
X89832877Y-65008269D01*
X89742372Y-64872819D01*
X89627181Y-64757628D01*
X89491731Y-64667123D01*
X89341227Y-64604782D01*
X89181452Y-64573000D01*
X89018548Y-64573000D01*
X88858773Y-64604782D01*
X88708269Y-64667123D01*
X88572819Y-64757628D01*
X88457628Y-64872819D01*
X88367123Y-65008269D01*
X88304782Y-65158773D01*
X88273000Y-65318548D01*
X88273000Y-65481452D01*
X88304782Y-65641227D01*
X88367123Y-65791731D01*
X88457628Y-65927181D01*
X88572819Y-66042372D01*
X88708269Y-66132877D01*
X88858773Y-66195218D01*
X88939764Y-66211329D01*
X89690352Y-66961917D01*
X89711867Y-66988133D01*
X89738081Y-67009646D01*
X89738082Y-67009647D01*
X89816476Y-67073984D01*
X89930024Y-67134676D01*
X89935824Y-67137776D01*
X90065324Y-67177060D01*
X90166250Y-67187000D01*
X90166252Y-67187000D01*
X90200000Y-67190324D01*
X90233747Y-67187000D01*
X92639609Y-67187000D01*
X92708269Y-67232877D01*
X92858773Y-67295218D01*
X93018548Y-67327000D01*
X93181452Y-67327000D01*
X93341227Y-67295218D01*
X93491731Y-67232877D01*
X93627181Y-67142372D01*
X93742372Y-67027181D01*
X93750000Y-67015765D01*
X93757628Y-67027181D01*
X93872819Y-67142372D01*
X93970191Y-67207434D01*
X93908269Y-67233083D01*
X93772819Y-67323588D01*
X93657628Y-67438779D01*
X93567123Y-67574229D01*
X93504782Y-67724733D01*
X93473000Y-67884508D01*
X93473000Y-68047412D01*
X93504782Y-68207187D01*
X93567123Y-68357691D01*
X93657628Y-68493141D01*
X93747467Y-68582980D01*
X93657628Y-68672819D01*
X93567123Y-68808269D01*
X93504782Y-68958773D01*
X93473000Y-69118548D01*
X93473000Y-69281452D01*
X93504782Y-69441227D01*
X93567123Y-69591731D01*
X93657628Y-69727181D01*
X93772819Y-69842372D01*
X93859064Y-69899999D01*
X93772819Y-69957626D01*
X93657628Y-70072817D01*
X93567123Y-70208267D01*
X93504782Y-70358771D01*
X93473000Y-70518546D01*
X93473000Y-70681450D01*
X93479276Y-70713000D01*
X90358011Y-70713000D01*
X90324264Y-70709676D01*
X90290516Y-70713000D01*
X90290514Y-70713000D01*
X90189588Y-70722940D01*
X90060088Y-70762224D01*
X90054287Y-70765325D01*
X89940740Y-70826016D01*
X89862346Y-70890353D01*
X89836131Y-70911867D01*
X89814618Y-70938081D01*
X86345958Y-74406742D01*
X86341227Y-74404782D01*
X86181452Y-74373000D01*
X86018548Y-74373000D01*
X85858773Y-74404782D01*
X85708269Y-74467123D01*
X85572819Y-74557628D01*
X85457628Y-74672819D01*
X85367123Y-74808269D01*
X85304782Y-74958773D01*
X85273000Y-75118548D01*
X74902000Y-75118548D01*
X74902000Y-66018548D01*
X80173000Y-66018548D01*
X80173000Y-66181452D01*
X80204782Y-66341227D01*
X80267123Y-66491731D01*
X80357628Y-66627181D01*
X80472819Y-66742372D01*
X80608269Y-66832877D01*
X80758773Y-66895218D01*
X80839764Y-66911329D01*
X83113001Y-69184566D01*
X83113000Y-69539609D01*
X83067123Y-69608269D01*
X83004782Y-69758773D01*
X82973000Y-69918548D01*
X82973000Y-70081452D01*
X83004782Y-70241227D01*
X83067123Y-70391731D01*
X83157628Y-70527181D01*
X83272819Y-70642372D01*
X83408269Y-70732877D01*
X83558773Y-70795218D01*
X83718548Y-70827000D01*
X83881452Y-70827000D01*
X84041227Y-70795218D01*
X84191731Y-70732877D01*
X84327181Y-70642372D01*
X84442372Y-70527181D01*
X84532877Y-70391731D01*
X84595218Y-70241227D01*
X84627000Y-70081452D01*
X84627000Y-69918548D01*
X84595218Y-69758773D01*
X84532877Y-69608269D01*
X84487000Y-69539609D01*
X84487000Y-68933747D01*
X84490324Y-68900000D01*
X84487000Y-68866250D01*
X84477060Y-68765324D01*
X84437776Y-68635824D01*
X84423081Y-68608332D01*
X84373984Y-68516476D01*
X84309647Y-68438082D01*
X84309646Y-68438081D01*
X84288133Y-68411867D01*
X84261919Y-68390354D01*
X81811329Y-65939764D01*
X81795218Y-65858773D01*
X81732877Y-65708269D01*
X81642372Y-65572819D01*
X81527181Y-65457628D01*
X81391731Y-65367123D01*
X81241227Y-65304782D01*
X81081452Y-65273000D01*
X80918548Y-65273000D01*
X80758773Y-65304782D01*
X80608269Y-65367123D01*
X80472819Y-65457628D01*
X80357628Y-65572819D01*
X80267123Y-65708269D01*
X80204782Y-65858773D01*
X80173000Y-66018548D01*
X74902000Y-66018548D01*
X74902000Y-64318548D01*
X80073000Y-64318548D01*
X80073000Y-64481452D01*
X80104782Y-64641227D01*
X80167123Y-64791731D01*
X80257628Y-64927181D01*
X80372819Y-65042372D01*
X80508269Y-65132877D01*
X80658773Y-65195218D01*
X80818548Y-65227000D01*
X80981452Y-65227000D01*
X81141227Y-65195218D01*
X81291731Y-65132877D01*
X81360391Y-65087000D01*
X82392238Y-65087000D01*
X84867154Y-67561917D01*
X84888669Y-67588133D01*
X84914883Y-67609646D01*
X84914884Y-67609647D01*
X84993278Y-67673984D01*
X85072777Y-67716476D01*
X85112626Y-67737776D01*
X85242126Y-67777060D01*
X85343052Y-67787000D01*
X85343054Y-67787000D01*
X85376802Y-67790324D01*
X85410549Y-67787000D01*
X85615436Y-67787000D01*
X86088672Y-68260236D01*
X86104782Y-68341227D01*
X86167123Y-68491731D01*
X86257628Y-68627181D01*
X86372819Y-68742372D01*
X86508269Y-68832877D01*
X86658773Y-68895218D01*
X86818548Y-68927000D01*
X86981452Y-68927000D01*
X87141227Y-68895218D01*
X87291731Y-68832877D01*
X87427181Y-68742372D01*
X87542372Y-68627181D01*
X87632877Y-68491731D01*
X87695218Y-68341227D01*
X87727000Y-68181452D01*
X87727000Y-68018548D01*
X87695218Y-67858773D01*
X87632877Y-67708269D01*
X87542372Y-67572819D01*
X87428586Y-67459033D01*
X87491731Y-67432877D01*
X87627181Y-67342372D01*
X87742372Y-67227181D01*
X87832877Y-67091731D01*
X87895218Y-66941227D01*
X87927000Y-66781452D01*
X87927000Y-66618548D01*
X87895218Y-66458773D01*
X87832877Y-66308269D01*
X87742372Y-66172819D01*
X87627181Y-66057628D01*
X87491731Y-65967123D01*
X87341227Y-65904782D01*
X87260236Y-65888672D01*
X84798134Y-63426570D01*
X84827000Y-63281452D01*
X84827000Y-63118548D01*
X84795218Y-62958773D01*
X84732877Y-62808269D01*
X84642372Y-62672819D01*
X84527181Y-62557628D01*
X84391731Y-62467123D01*
X84241227Y-62404782D01*
X84081452Y-62373000D01*
X83918548Y-62373000D01*
X83758773Y-62404782D01*
X83608269Y-62467123D01*
X83472819Y-62557628D01*
X83357628Y-62672819D01*
X83267123Y-62808269D01*
X83204782Y-62958773D01*
X83173000Y-63118548D01*
X83173000Y-63281452D01*
X83204782Y-63441227D01*
X83267123Y-63591731D01*
X83316077Y-63664996D01*
X83322940Y-63734675D01*
X83350649Y-63826017D01*
X83362224Y-63864175D01*
X83426016Y-63983523D01*
X83490353Y-64061917D01*
X83511867Y-64088132D01*
X83538082Y-64109646D01*
X85841435Y-66413000D01*
X85661367Y-66413000D01*
X83186452Y-63938086D01*
X83164935Y-63911867D01*
X83106821Y-63864175D01*
X83060325Y-63826016D01*
X82982549Y-63784445D01*
X82940978Y-63762224D01*
X82811478Y-63722940D01*
X82710552Y-63713000D01*
X82710547Y-63713000D01*
X82676802Y-63709676D01*
X82643057Y-63713000D01*
X81360391Y-63713000D01*
X81291731Y-63667123D01*
X81141227Y-63604782D01*
X80981452Y-63573000D01*
X80818548Y-63573000D01*
X80658773Y-63604782D01*
X80508269Y-63667123D01*
X80372819Y-63757628D01*
X80257628Y-63872819D01*
X80167123Y-64008269D01*
X80104782Y-64158773D01*
X80073000Y-64318548D01*
X74902000Y-64318548D01*
X74902000Y-61918548D01*
X88273000Y-61918548D01*
X88273000Y-62081452D01*
X88304782Y-62241227D01*
X88367123Y-62391731D01*
X88457628Y-62527181D01*
X88572819Y-62642372D01*
X88708269Y-62732877D01*
X88858773Y-62795218D01*
X89018548Y-62827000D01*
X89181452Y-62827000D01*
X89341227Y-62795218D01*
X89491731Y-62732877D01*
X89560391Y-62687000D01*
X92317463Y-62687000D01*
X92372835Y-62742372D01*
X92508285Y-62832877D01*
X92658789Y-62895218D01*
X92818564Y-62927000D01*
X92981468Y-62927000D01*
X93141243Y-62895218D01*
X93291747Y-62832877D01*
X93427197Y-62742372D01*
X93542388Y-62627181D01*
X93632893Y-62491731D01*
X93695234Y-62341227D01*
X93727016Y-62181452D01*
X93727016Y-62018548D01*
X93695234Y-61858773D01*
X93632893Y-61708269D01*
X93542388Y-61572819D01*
X93427197Y-61457628D01*
X93291747Y-61367123D01*
X93141243Y-61304782D01*
X92981468Y-61273000D01*
X92818564Y-61273000D01*
X92658789Y-61304782D01*
X92638949Y-61313000D01*
X89560391Y-61313000D01*
X89491731Y-61267123D01*
X89341227Y-61204782D01*
X89181452Y-61173000D01*
X89018548Y-61173000D01*
X88858773Y-61204782D01*
X88708269Y-61267123D01*
X88572819Y-61357628D01*
X88457628Y-61472819D01*
X88367123Y-61608269D01*
X88304782Y-61758773D01*
X88273000Y-61918548D01*
X74902000Y-61918548D01*
X74902000Y-59949604D01*
X75073000Y-59949604D01*
X75073000Y-60250396D01*
X75131681Y-60545410D01*
X75246790Y-60823306D01*
X75413901Y-61073406D01*
X75626594Y-61286099D01*
X75876694Y-61453210D01*
X76154590Y-61568319D01*
X76449604Y-61627000D01*
X76750396Y-61627000D01*
X77045410Y-61568319D01*
X77323306Y-61453210D01*
X77573406Y-61286099D01*
X77786099Y-61073406D01*
X77953210Y-60823306D01*
X78068319Y-60545410D01*
X78127000Y-60250396D01*
X78127000Y-59949604D01*
X78068319Y-59654590D01*
X77953210Y-59376694D01*
X77786099Y-59126594D01*
X77573406Y-58913901D01*
X77323306Y-58746790D01*
X77045410Y-58631681D01*
X76750396Y-58573000D01*
X76449604Y-58573000D01*
X76154590Y-58631681D01*
X75876694Y-58746790D01*
X75626594Y-58913901D01*
X75413901Y-59126594D01*
X75246790Y-59376694D01*
X75131681Y-59654590D01*
X75073000Y-59949604D01*
X74902000Y-59949604D01*
X74902000Y-56318548D01*
X86173000Y-56318548D01*
X86173000Y-56481452D01*
X86204782Y-56641227D01*
X86267123Y-56791731D01*
X86313000Y-56860391D01*
X86313001Y-57839606D01*
X86267123Y-57908267D01*
X86204782Y-58058771D01*
X86173000Y-58218546D01*
X86173000Y-58381450D01*
X86204782Y-58541225D01*
X86267123Y-58691729D01*
X86357628Y-58827179D01*
X86472819Y-58942370D01*
X86608269Y-59032875D01*
X86758773Y-59095216D01*
X86918548Y-59126998D01*
X87081452Y-59126998D01*
X87241227Y-59095216D01*
X87391731Y-59032875D01*
X87527181Y-58942370D01*
X87642372Y-58827179D01*
X87732877Y-58691729D01*
X87795218Y-58541225D01*
X87827000Y-58381450D01*
X87827000Y-58218546D01*
X87795218Y-58058771D01*
X87732877Y-57908267D01*
X87687000Y-57839607D01*
X87687000Y-56860391D01*
X87732877Y-56791731D01*
X87795218Y-56641227D01*
X87827000Y-56481452D01*
X87827000Y-56318548D01*
X87795218Y-56158773D01*
X87732877Y-56008269D01*
X87642372Y-55872819D01*
X87527181Y-55757628D01*
X87391731Y-55667123D01*
X87241227Y-55604782D01*
X87081452Y-55573000D01*
X86918548Y-55573000D01*
X86758773Y-55604782D01*
X86608269Y-55667123D01*
X86472819Y-55757628D01*
X86357628Y-55872819D01*
X86267123Y-56008269D01*
X86204782Y-56158773D01*
X86173000Y-56318548D01*
X74902000Y-56318548D01*
X74902000Y-54618548D01*
X93473000Y-54618548D01*
X93473000Y-54781452D01*
X93504782Y-54941227D01*
X93567123Y-55091731D01*
X93657628Y-55227181D01*
X93772819Y-55342372D01*
X93908269Y-55432877D01*
X94058773Y-55495218D01*
X94218548Y-55527000D01*
X94381452Y-55527000D01*
X94541227Y-55495218D01*
X94691731Y-55432877D01*
X94760391Y-55387000D01*
X98615436Y-55387000D01*
X101488672Y-58260236D01*
X101504782Y-58341227D01*
X101567123Y-58491731D01*
X101657628Y-58627181D01*
X101772819Y-58742372D01*
X101908269Y-58832877D01*
X102058773Y-58895218D01*
X102218548Y-58927000D01*
X102381452Y-58927000D01*
X102541227Y-58895218D01*
X102691731Y-58832877D01*
X102827181Y-58742372D01*
X102942372Y-58627181D01*
X103032877Y-58491731D01*
X103095218Y-58341227D01*
X103127000Y-58181452D01*
X103127000Y-58018548D01*
X103095218Y-57858773D01*
X103032877Y-57708269D01*
X102942372Y-57572819D01*
X102827181Y-57457628D01*
X102691731Y-57367123D01*
X102541227Y-57304782D01*
X102460236Y-57288672D01*
X99409650Y-54238086D01*
X99388133Y-54211867D01*
X99332143Y-54165918D01*
X99283523Y-54126016D01*
X99184336Y-54073000D01*
X99164176Y-54062224D01*
X99034676Y-54022940D01*
X98933750Y-54013000D01*
X98933745Y-54013000D01*
X98900000Y-54009676D01*
X98866255Y-54013000D01*
X94760391Y-54013000D01*
X94691731Y-53967123D01*
X94541227Y-53904782D01*
X94381452Y-53873000D01*
X94218548Y-53873000D01*
X94058773Y-53904782D01*
X93908269Y-53967123D01*
X93772819Y-54057628D01*
X93657628Y-54172819D01*
X93567123Y-54308269D01*
X93504782Y-54458773D01*
X93473000Y-54618548D01*
X74902000Y-54618548D01*
X74902000Y-47600000D01*
X75268032Y-47600000D01*
X75273000Y-47650441D01*
X75273001Y-49250451D01*
X75287861Y-49401327D01*
X75346586Y-49594917D01*
X75441950Y-49773331D01*
X75570289Y-49929712D01*
X75726670Y-50058051D01*
X75905084Y-50153415D01*
X76098674Y-50212140D01*
X76300000Y-50231969D01*
X76501327Y-50212140D01*
X76694917Y-50153415D01*
X76873331Y-50058051D01*
X77029712Y-49929712D01*
X77158051Y-49773331D01*
X77253415Y-49594917D01*
X77312140Y-49401327D01*
X77327000Y-49250451D01*
X77327000Y-49200000D01*
X77368031Y-49200000D01*
X77387860Y-49401327D01*
X77446585Y-49594917D01*
X77541949Y-49773331D01*
X77670288Y-49929712D01*
X77826669Y-50058051D01*
X78005083Y-50153415D01*
X78198673Y-50212140D01*
X78349549Y-50227000D01*
X81367495Y-50227000D01*
X81526594Y-50386099D01*
X81776694Y-50553210D01*
X82054590Y-50668319D01*
X82349604Y-50727000D01*
X82650396Y-50727000D01*
X82945410Y-50668319D01*
X83223306Y-50553210D01*
X83473406Y-50386099D01*
X83686099Y-50173406D01*
X83853210Y-49923306D01*
X83968319Y-49645410D01*
X84027000Y-49350396D01*
X84027000Y-49049604D01*
X83968319Y-48754590D01*
X83853210Y-48476694D01*
X83686099Y-48226594D01*
X83473406Y-48013901D01*
X83223306Y-47846790D01*
X82945410Y-47731681D01*
X82650396Y-47673000D01*
X82349604Y-47673000D01*
X82054590Y-47731681D01*
X81776694Y-47846790D01*
X81526594Y-48013901D01*
X81367495Y-48173000D01*
X78349549Y-48173000D01*
X78198673Y-48187860D01*
X78005083Y-48246585D01*
X77826669Y-48341949D01*
X77670288Y-48470288D01*
X77541949Y-48626669D01*
X77446585Y-48805083D01*
X77387860Y-48998673D01*
X77368031Y-49200000D01*
X77327000Y-49200000D01*
X77327000Y-48025396D01*
X77625397Y-47727000D01*
X78749559Y-47727000D01*
X78800000Y-47731968D01*
X78850441Y-47727000D01*
X78850451Y-47727000D01*
X79001327Y-47712140D01*
X79194917Y-47653415D01*
X79373331Y-47558051D01*
X79529712Y-47429712D01*
X79561877Y-47390519D01*
X81225397Y-45727000D01*
X81367495Y-45727000D01*
X81526594Y-45886099D01*
X81776694Y-46053210D01*
X82054590Y-46168319D01*
X82349604Y-46227000D01*
X82650396Y-46227000D01*
X82945410Y-46168319D01*
X83223306Y-46053210D01*
X83473406Y-45886099D01*
X83686099Y-45673406D01*
X83801964Y-45500000D01*
X98868032Y-45500000D01*
X98873001Y-45550451D01*
X98873000Y-50250450D01*
X98873001Y-50250460D01*
X98873000Y-52749559D01*
X98868032Y-52800000D01*
X98873000Y-52850441D01*
X98873000Y-52850450D01*
X98887860Y-53001326D01*
X98946585Y-53194916D01*
X99041949Y-53373331D01*
X99170288Y-53529712D01*
X99209481Y-53561877D01*
X103938128Y-58290525D01*
X103970288Y-58329712D01*
X104126669Y-58458051D01*
X104305083Y-58553415D01*
X104498673Y-58612140D01*
X104649549Y-58627000D01*
X104649558Y-58627000D01*
X104699999Y-58631968D01*
X104750440Y-58627000D01*
X105650451Y-58627000D01*
X105801327Y-58612140D01*
X105994917Y-58553415D01*
X106173331Y-58458051D01*
X106329712Y-58329712D01*
X106458051Y-58173331D01*
X106553415Y-57994917D01*
X106612140Y-57801327D01*
X106631969Y-57600000D01*
X106612140Y-57398673D01*
X106553415Y-57205083D01*
X106458051Y-57026669D01*
X106329712Y-56870288D01*
X106173331Y-56741949D01*
X105994917Y-56646585D01*
X105801327Y-56587860D01*
X105650451Y-56573000D01*
X105125397Y-56573000D01*
X100927000Y-52374604D01*
X100927000Y-52000000D01*
X101668032Y-52000000D01*
X101673000Y-52050441D01*
X101673000Y-52050450D01*
X101687860Y-52201326D01*
X101746585Y-52394916D01*
X101841949Y-52573331D01*
X101970288Y-52729712D01*
X102009481Y-52761877D01*
X104838128Y-55590525D01*
X104870288Y-55629712D01*
X105026669Y-55758051D01*
X105205083Y-55853415D01*
X105398673Y-55912140D01*
X105549549Y-55927000D01*
X105549558Y-55927000D01*
X105599999Y-55931968D01*
X105650440Y-55927000D01*
X112749559Y-55927000D01*
X112800000Y-55931968D01*
X112850441Y-55927000D01*
X112850451Y-55927000D01*
X113001327Y-55912140D01*
X113194917Y-55853415D01*
X113373331Y-55758051D01*
X113529712Y-55629712D01*
X113561877Y-55590519D01*
X113825396Y-55327000D01*
X120150451Y-55327000D01*
X120301327Y-55312140D01*
X120494917Y-55253415D01*
X120673331Y-55158051D01*
X120829712Y-55029712D01*
X120958051Y-54873331D01*
X121053415Y-54694917D01*
X121112140Y-54501327D01*
X121131969Y-54300000D01*
X121112140Y-54098673D01*
X121053415Y-53905083D01*
X120958051Y-53726669D01*
X120829712Y-53570288D01*
X120673331Y-53441949D01*
X120494917Y-53346585D01*
X120301327Y-53287860D01*
X120150451Y-53273000D01*
X113450440Y-53273000D01*
X113399999Y-53268032D01*
X113349558Y-53273000D01*
X113349549Y-53273000D01*
X113198673Y-53287860D01*
X113005083Y-53346585D01*
X112826669Y-53441949D01*
X112670288Y-53570288D01*
X112638123Y-53609481D01*
X112374604Y-53873000D01*
X106025397Y-53873000D01*
X103727000Y-51574604D01*
X103727000Y-50949549D01*
X103712140Y-50798673D01*
X103653415Y-50605083D01*
X103558051Y-50426669D01*
X103469319Y-50318548D01*
X107273000Y-50318548D01*
X107273000Y-50481452D01*
X107304782Y-50641227D01*
X107367123Y-50791731D01*
X107413000Y-50860391D01*
X107413000Y-51290521D01*
X107409676Y-51324266D01*
X107413000Y-51358011D01*
X107413000Y-51358015D01*
X107422940Y-51458941D01*
X107452877Y-51557628D01*
X107462224Y-51588441D01*
X107526016Y-51707789D01*
X107579387Y-51772821D01*
X107611867Y-51812398D01*
X107638082Y-51833912D01*
X109166084Y-53361914D01*
X109187601Y-53388133D01*
X109235182Y-53427181D01*
X109292210Y-53473983D01*
X109349831Y-53504782D01*
X109411558Y-53537776D01*
X109541058Y-53577060D01*
X109639197Y-53586725D01*
X109708267Y-53632877D01*
X109858771Y-53695218D01*
X110018546Y-53727000D01*
X110181450Y-53727000D01*
X110341225Y-53695218D01*
X110491729Y-53632877D01*
X110627179Y-53542372D01*
X110742370Y-53427181D01*
X110832875Y-53291731D01*
X110895216Y-53141227D01*
X110926998Y-52981452D01*
X110926998Y-52818548D01*
X110895216Y-52658773D01*
X110832875Y-52508269D01*
X110742370Y-52372819D01*
X110627179Y-52257628D01*
X110491729Y-52167123D01*
X110382512Y-52121884D01*
X110395210Y-52091227D01*
X110426992Y-51931452D01*
X110426992Y-51768548D01*
X110395210Y-51608773D01*
X110332869Y-51458269D01*
X110286992Y-51389609D01*
X110286992Y-50184572D01*
X111953016Y-48518548D01*
X112773000Y-48518548D01*
X112773000Y-48681452D01*
X112804782Y-48841227D01*
X112867123Y-48991731D01*
X112913000Y-49060391D01*
X112913001Y-51739608D01*
X112867123Y-51808269D01*
X112804782Y-51958773D01*
X112773000Y-52118548D01*
X112773000Y-52281452D01*
X112804782Y-52441227D01*
X112867123Y-52591731D01*
X112957628Y-52727181D01*
X113072819Y-52842372D01*
X113208269Y-52932877D01*
X113358773Y-52995218D01*
X113518548Y-53027000D01*
X113681452Y-53027000D01*
X113841227Y-52995218D01*
X113991731Y-52932877D01*
X114127181Y-52842372D01*
X114211462Y-52758091D01*
X114257628Y-52827183D01*
X114372819Y-52942374D01*
X114508269Y-53032879D01*
X114658773Y-53095220D01*
X114818548Y-53127002D01*
X114981452Y-53127002D01*
X115141227Y-53095220D01*
X115291731Y-53032879D01*
X115427181Y-52942374D01*
X115542372Y-52827183D01*
X115632877Y-52691733D01*
X115695218Y-52541229D01*
X115727000Y-52381454D01*
X115727000Y-52218550D01*
X115695218Y-52058775D01*
X115632877Y-51908271D01*
X115587000Y-51839611D01*
X115587000Y-51518548D01*
X119273000Y-51518548D01*
X119273000Y-51681452D01*
X119304782Y-51841227D01*
X119367123Y-51991731D01*
X119457628Y-52127181D01*
X119572819Y-52242372D01*
X119708269Y-52332877D01*
X119858773Y-52395218D01*
X120018548Y-52427000D01*
X120181452Y-52427000D01*
X120341227Y-52395218D01*
X120491731Y-52332877D01*
X120627181Y-52242372D01*
X120742372Y-52127181D01*
X120832877Y-51991731D01*
X120895218Y-51841227D01*
X120927000Y-51681452D01*
X120927000Y-51518548D01*
X120895218Y-51358773D01*
X120832877Y-51208269D01*
X120742372Y-51072819D01*
X120627181Y-50957628D01*
X120491731Y-50867123D01*
X120341227Y-50804782D01*
X120181452Y-50773000D01*
X120018548Y-50773000D01*
X119858773Y-50804782D01*
X119708269Y-50867123D01*
X119572819Y-50957628D01*
X119457628Y-51072819D01*
X119367123Y-51208269D01*
X119304782Y-51358773D01*
X119273000Y-51518548D01*
X115587000Y-51518548D01*
X115587000Y-49260391D01*
X115632877Y-49191731D01*
X115695218Y-49041227D01*
X115727000Y-48881452D01*
X115727000Y-48718548D01*
X115695218Y-48558773D01*
X115632877Y-48408269D01*
X115542372Y-48272819D01*
X115427181Y-48157628D01*
X115291731Y-48067123D01*
X115141227Y-48004782D01*
X114981452Y-47973000D01*
X114818548Y-47973000D01*
X114658773Y-48004782D01*
X114508269Y-48067123D01*
X114372819Y-48157628D01*
X114328592Y-48201855D01*
X114242372Y-48072819D01*
X114127181Y-47957628D01*
X113991731Y-47867123D01*
X113841227Y-47804782D01*
X113681452Y-47773000D01*
X113518548Y-47773000D01*
X113358773Y-47804782D01*
X113208269Y-47867123D01*
X113072819Y-47957628D01*
X112957628Y-48072819D01*
X112867123Y-48208269D01*
X112804782Y-48358773D01*
X112773000Y-48518548D01*
X111953016Y-48518548D01*
X113160235Y-47311329D01*
X113241227Y-47295218D01*
X113391731Y-47232877D01*
X113527181Y-47142372D01*
X113642372Y-47027181D01*
X113732877Y-46891731D01*
X113795218Y-46741227D01*
X113827000Y-46581452D01*
X113827000Y-46418548D01*
X113795218Y-46258773D01*
X113732877Y-46108269D01*
X113642372Y-45972819D01*
X113527181Y-45857628D01*
X113391731Y-45767123D01*
X113241227Y-45704782D01*
X113081452Y-45673000D01*
X112918548Y-45673000D01*
X112758773Y-45704782D01*
X112608269Y-45767123D01*
X112472819Y-45857628D01*
X112357628Y-45972819D01*
X112267123Y-46108269D01*
X112204782Y-46258773D01*
X112188671Y-46339765D01*
X109138074Y-49390362D01*
X109111860Y-49411875D01*
X109090347Y-49438089D01*
X109090345Y-49438091D01*
X109026008Y-49516485D01*
X108962216Y-49635833D01*
X108952725Y-49667123D01*
X108922933Y-49765332D01*
X108919018Y-49805083D01*
X108909668Y-49900008D01*
X108912993Y-49933762D01*
X108912993Y-50248130D01*
X108895218Y-50158773D01*
X108832877Y-50008269D01*
X108742372Y-49872819D01*
X108627181Y-49757628D01*
X108491731Y-49667123D01*
X108341227Y-49604782D01*
X108181452Y-49573000D01*
X108018548Y-49573000D01*
X107858773Y-49604782D01*
X107708269Y-49667123D01*
X107572819Y-49757628D01*
X107457628Y-49872819D01*
X107367123Y-50008269D01*
X107304782Y-50158773D01*
X107273000Y-50318548D01*
X103469319Y-50318548D01*
X103429712Y-50270288D01*
X103273331Y-50141949D01*
X103094917Y-50046585D01*
X102901327Y-49987860D01*
X102700000Y-49968031D01*
X102498674Y-49987860D01*
X102305084Y-50046585D01*
X102126670Y-50141949D01*
X101970289Y-50270288D01*
X101841950Y-50426669D01*
X101746586Y-50605083D01*
X101687861Y-50798673D01*
X101673001Y-50949549D01*
X101673000Y-51949558D01*
X101668032Y-52000000D01*
X100927000Y-52000000D01*
X100927000Y-45925396D01*
X101561872Y-45290525D01*
X101658050Y-45173332D01*
X101753414Y-44994918D01*
X101812139Y-44801328D01*
X101831968Y-44600001D01*
X101812139Y-44398673D01*
X101753414Y-44205083D01*
X101658050Y-44026669D01*
X101553532Y-43899312D01*
X105667700Y-43899312D01*
X105667700Y-44100688D01*
X105706987Y-44298194D01*
X105784050Y-44484240D01*
X105895928Y-44651678D01*
X106038322Y-44794072D01*
X106205760Y-44905950D01*
X106391806Y-44983013D01*
X106589312Y-45022300D01*
X106790688Y-45022300D01*
X106988194Y-44983013D01*
X107174240Y-44905950D01*
X107341678Y-44794072D01*
X107484072Y-44651678D01*
X107595950Y-44484240D01*
X107673013Y-44298194D01*
X107712300Y-44100688D01*
X107712300Y-43899312D01*
X107673013Y-43701806D01*
X107595950Y-43515760D01*
X107484072Y-43348322D01*
X107341678Y-43205928D01*
X107174240Y-43094050D01*
X106988194Y-43016987D01*
X106790688Y-42977700D01*
X106589312Y-42977700D01*
X106391806Y-43016987D01*
X106205760Y-43094050D01*
X106038322Y-43205928D01*
X105895928Y-43348322D01*
X105784050Y-43515760D01*
X105706987Y-43701806D01*
X105667700Y-43899312D01*
X101553532Y-43899312D01*
X101529712Y-43870288D01*
X101373331Y-43741950D01*
X101194917Y-43646586D01*
X101001327Y-43587861D01*
X100799999Y-43568032D01*
X100598672Y-43587861D01*
X100405082Y-43646586D01*
X100226668Y-43741950D01*
X100109475Y-43838128D01*
X99209476Y-44738128D01*
X99170289Y-44770288D01*
X99138129Y-44809475D01*
X99138128Y-44809476D01*
X99041950Y-44926669D01*
X98946586Y-45105083D01*
X98887861Y-45298673D01*
X98868032Y-45500000D01*
X83801964Y-45500000D01*
X83853210Y-45423306D01*
X83968319Y-45145410D01*
X84027000Y-44850396D01*
X84027000Y-44549604D01*
X83968319Y-44254590D01*
X83853210Y-43976694D01*
X83686099Y-43726594D01*
X83473406Y-43513901D01*
X83223306Y-43346790D01*
X82945410Y-43231681D01*
X82650396Y-43173000D01*
X82349604Y-43173000D01*
X82054590Y-43231681D01*
X81776694Y-43346790D01*
X81526594Y-43513901D01*
X81367495Y-43673000D01*
X80850440Y-43673000D01*
X80799999Y-43668032D01*
X80749558Y-43673000D01*
X80749549Y-43673000D01*
X80598673Y-43687860D01*
X80405083Y-43746585D01*
X80226669Y-43841949D01*
X80070288Y-43970288D01*
X80038128Y-44009475D01*
X78374604Y-45673000D01*
X77250440Y-45673000D01*
X77199999Y-45668032D01*
X77149558Y-45673000D01*
X77149549Y-45673000D01*
X76998673Y-45687860D01*
X76805083Y-45746585D01*
X76626669Y-45841949D01*
X76470288Y-45970288D01*
X76438127Y-46009476D01*
X75609480Y-46838123D01*
X75570288Y-46870288D01*
X75441949Y-47026669D01*
X75346585Y-47205084D01*
X75287860Y-47398674D01*
X75273000Y-47549550D01*
X75273000Y-47549559D01*
X75268032Y-47600000D01*
X74902000Y-47600000D01*
X74902000Y-42883312D01*
X113287700Y-42883312D01*
X113287700Y-43084688D01*
X113326987Y-43282194D01*
X113404050Y-43468240D01*
X113515928Y-43635678D01*
X113658322Y-43778072D01*
X113825760Y-43889950D01*
X114011806Y-43967013D01*
X114177640Y-44000000D01*
X114011806Y-44032987D01*
X113825760Y-44110050D01*
X113658322Y-44221928D01*
X113515928Y-44364322D01*
X113404050Y-44531760D01*
X113326987Y-44717806D01*
X113287700Y-44915312D01*
X113287700Y-45116688D01*
X113326987Y-45314194D01*
X113404050Y-45500240D01*
X113515928Y-45667678D01*
X113658322Y-45810072D01*
X113825760Y-45921950D01*
X114011806Y-45999013D01*
X114209312Y-46038300D01*
X114410688Y-46038300D01*
X114608194Y-45999013D01*
X114794240Y-45921950D01*
X114961678Y-45810072D01*
X115104072Y-45667678D01*
X115215950Y-45500240D01*
X115293013Y-45314194D01*
X115332300Y-45116688D01*
X115332300Y-44915312D01*
X115293013Y-44717806D01*
X115215950Y-44531760D01*
X115104072Y-44364322D01*
X114961678Y-44221928D01*
X114794240Y-44110050D01*
X114608194Y-44032987D01*
X114442360Y-44000000D01*
X114608194Y-43967013D01*
X114794240Y-43889950D01*
X114961678Y-43778072D01*
X115104072Y-43635678D01*
X115215950Y-43468240D01*
X115293013Y-43282194D01*
X115332300Y-43084688D01*
X115332300Y-42883312D01*
X115293013Y-42685806D01*
X115215950Y-42499760D01*
X115104072Y-42332322D01*
X114961678Y-42189928D01*
X114794240Y-42078050D01*
X114608194Y-42000987D01*
X114410688Y-41961700D01*
X114209312Y-41961700D01*
X114011806Y-42000987D01*
X113825760Y-42078050D01*
X113658322Y-42189928D01*
X113515928Y-42332322D01*
X113404050Y-42499760D01*
X113326987Y-42685806D01*
X113287700Y-42883312D01*
X74902000Y-42883312D01*
X74902000Y-39602000D01*
X121098000Y-39602000D01*
X121098001Y-41570424D01*
X121098001Y-41570424D01*
G37*
X121098001Y-41570424D02*
X121095088Y-41600000D01*
X121106711Y-41718012D01*
X121141134Y-41831490D01*
X121197034Y-41936071D01*
X121272263Y-42027737D01*
X121363929Y-42102966D01*
X121468510Y-42158866D01*
X121581988Y-42193289D01*
X121670434Y-42202000D01*
X121700000Y-42204912D01*
X121729566Y-42202000D01*
X125098001Y-42202000D01*
X125098000Y-90798000D01*
X124629566Y-90798000D01*
X124600000Y-90795088D01*
X124555224Y-90799498D01*
X124481988Y-90806711D01*
X124368510Y-90841134D01*
X124263929Y-90897034D01*
X124172263Y-90972263D01*
X124097034Y-91063929D01*
X124041134Y-91168510D01*
X124006711Y-91281988D01*
X123995088Y-91400000D01*
X123998001Y-91429577D01*
X123998001Y-92373000D01*
X76002000Y-92373000D01*
X76002000Y-91429566D01*
X76003085Y-91418548D01*
X77273000Y-91418548D01*
X77273000Y-91581452D01*
X77304782Y-91741227D01*
X77367123Y-91891731D01*
X77457628Y-92027181D01*
X77572819Y-92142372D01*
X77708269Y-92232877D01*
X77858773Y-92295218D01*
X78018548Y-92327000D01*
X78181452Y-92327000D01*
X78341227Y-92295218D01*
X78491731Y-92232877D01*
X78560391Y-92187000D01*
X99666255Y-92187000D01*
X99700000Y-92190324D01*
X99733745Y-92187000D01*
X99733750Y-92187000D01*
X99834676Y-92177060D01*
X99964176Y-92137776D01*
X100005747Y-92115555D01*
X100083523Y-92073984D01*
X100140552Y-92027181D01*
X100188133Y-91988133D01*
X100209650Y-91961914D01*
X101560235Y-90611329D01*
X101641227Y-90595218D01*
X101791731Y-90532877D01*
X101927181Y-90442372D01*
X102042372Y-90327181D01*
X102132877Y-90191731D01*
X102195218Y-90041227D01*
X102227000Y-89881452D01*
X102227000Y-89718548D01*
X103673000Y-89718548D01*
X103673000Y-89881452D01*
X103704782Y-90041227D01*
X103767123Y-90191731D01*
X103857628Y-90327181D01*
X103972819Y-90442372D01*
X104108269Y-90532877D01*
X104258773Y-90595218D01*
X104418548Y-90627000D01*
X104581452Y-90627000D01*
X104741227Y-90595218D01*
X104745958Y-90593258D01*
X106114618Y-91961919D01*
X106136131Y-91988133D01*
X106162345Y-92009646D01*
X106162346Y-92009647D01*
X106240740Y-92073983D01*
X106360088Y-92137776D01*
X106489588Y-92177060D01*
X106590514Y-92187000D01*
X106590518Y-92187000D01*
X106624263Y-92190324D01*
X106658008Y-92187000D01*
X121289609Y-92187000D01*
X121358269Y-92232877D01*
X121508773Y-92295218D01*
X121668548Y-92327000D01*
X121831452Y-92327000D01*
X121991227Y-92295218D01*
X122141731Y-92232877D01*
X122277181Y-92142372D01*
X122392372Y-92027181D01*
X122482877Y-91891731D01*
X122545218Y-91741227D01*
X122577000Y-91581452D01*
X122577000Y-91418548D01*
X122545218Y-91258773D01*
X122482877Y-91108269D01*
X122392372Y-90972819D01*
X122277181Y-90857628D01*
X122141731Y-90767123D01*
X121991227Y-90704782D01*
X121831452Y-90673000D01*
X121668548Y-90673000D01*
X121508773Y-90704782D01*
X121358269Y-90767123D01*
X121289609Y-90813000D01*
X106908829Y-90813000D01*
X105433914Y-89338086D01*
X105412397Y-89311867D01*
X105356407Y-89265918D01*
X105307787Y-89226016D01*
X105230011Y-89184445D01*
X105188440Y-89162224D01*
X105058940Y-89122940D01*
X104960801Y-89113275D01*
X104891731Y-89067123D01*
X104741227Y-89004782D01*
X104581452Y-88973000D01*
X104418548Y-88973000D01*
X104258773Y-89004782D01*
X104108269Y-89067123D01*
X103972819Y-89157628D01*
X103857628Y-89272819D01*
X103767123Y-89408269D01*
X103704782Y-89558773D01*
X103673000Y-89718548D01*
X102227000Y-89718548D01*
X102195218Y-89558773D01*
X102132877Y-89408269D01*
X102042372Y-89272819D01*
X101927181Y-89157628D01*
X101791731Y-89067123D01*
X101641227Y-89004782D01*
X101481452Y-88973000D01*
X101318548Y-88973000D01*
X101158773Y-89004782D01*
X101008269Y-89067123D01*
X100872819Y-89157628D01*
X100757628Y-89272819D01*
X100667123Y-89408269D01*
X100604782Y-89558773D01*
X100588671Y-89639765D01*
X99415436Y-90813000D01*
X97600832Y-90813000D01*
X97627000Y-90681450D01*
X97627000Y-90518546D01*
X97595218Y-90358771D01*
X97532877Y-90208267D01*
X97442372Y-90072817D01*
X97327181Y-89957626D01*
X97191731Y-89867121D01*
X97041227Y-89804780D01*
X96960236Y-89788670D01*
X96409653Y-89238087D01*
X96388136Y-89211868D01*
X96327644Y-89162224D01*
X96283526Y-89126017D01*
X96173342Y-89067123D01*
X96164179Y-89062225D01*
X96034679Y-89022941D01*
X95933753Y-89013001D01*
X95933748Y-89013001D01*
X95900003Y-89009677D01*
X95866258Y-89013001D01*
X94235365Y-89013001D01*
X94761923Y-88486443D01*
X94788132Y-88464935D01*
X94809642Y-88438725D01*
X94809647Y-88438720D01*
X94873983Y-88360326D01*
X94937776Y-88240978D01*
X94946263Y-88213000D01*
X94977060Y-88111478D01*
X94987000Y-88010552D01*
X94987000Y-88010548D01*
X94990324Y-87976803D01*
X94987000Y-87943058D01*
X94987000Y-86160391D01*
X95032877Y-86091731D01*
X95095218Y-85941227D01*
X95127000Y-85781452D01*
X95127000Y-85618548D01*
X95095218Y-85458773D01*
X95032877Y-85308269D01*
X94942372Y-85172819D01*
X94827181Y-85057628D01*
X94691731Y-84967123D01*
X94541227Y-84904782D01*
X94381452Y-84873000D01*
X94218548Y-84873000D01*
X94058773Y-84904782D01*
X93908269Y-84967123D01*
X93772819Y-85057628D01*
X93657628Y-85172819D01*
X93567123Y-85308269D01*
X93504782Y-85458773D01*
X93473000Y-85618548D01*
X93473000Y-85781452D01*
X93504782Y-85941227D01*
X93521219Y-85980910D01*
X93481452Y-85973000D01*
X93318548Y-85973000D01*
X93158773Y-86004782D01*
X93138933Y-86013000D01*
X86860387Y-86013000D01*
X86791727Y-85967123D01*
X86641223Y-85904782D01*
X86481448Y-85873000D01*
X86318544Y-85873000D01*
X86158769Y-85904782D01*
X86008265Y-85967123D01*
X85872815Y-86057628D01*
X85757624Y-86172819D01*
X85667119Y-86308269D01*
X85604778Y-86458773D01*
X85572996Y-86618548D01*
X85572996Y-86781452D01*
X85604778Y-86941227D01*
X85667119Y-87091731D01*
X85757624Y-87227181D01*
X85830450Y-87300007D01*
X85757638Y-87372819D01*
X85667133Y-87508269D01*
X85604792Y-87658773D01*
X85573010Y-87818548D01*
X85573010Y-87981452D01*
X85592261Y-88078229D01*
X85458773Y-88104782D01*
X85308269Y-88167123D01*
X85172819Y-88257628D01*
X85057628Y-88372819D01*
X84967123Y-88508269D01*
X84904782Y-88658773D01*
X84873000Y-88818548D01*
X84873000Y-88981452D01*
X84879276Y-89013001D01*
X83833743Y-89013001D01*
X83799998Y-89009677D01*
X83766253Y-89013001D01*
X83766249Y-89013001D01*
X83665323Y-89022941D01*
X83535823Y-89062225D01*
X83416475Y-89126018D01*
X83338081Y-89190354D01*
X83311866Y-89211868D01*
X83290353Y-89238082D01*
X82739765Y-89788671D01*
X82658773Y-89804782D01*
X82508269Y-89867123D01*
X82372819Y-89957628D01*
X82257628Y-90072819D01*
X82167123Y-90208269D01*
X82104782Y-90358773D01*
X82073000Y-90518548D01*
X82073000Y-90681452D01*
X82099167Y-90813000D01*
X78560391Y-90813000D01*
X78491731Y-90767123D01*
X78341227Y-90704782D01*
X78181452Y-90673000D01*
X78018548Y-90673000D01*
X77858773Y-90704782D01*
X77708269Y-90767123D01*
X77572819Y-90857628D01*
X77457628Y-90972819D01*
X77367123Y-91108269D01*
X77304782Y-91258773D01*
X77273000Y-91418548D01*
X76003085Y-91418548D01*
X76004912Y-91400000D01*
X75993289Y-91281988D01*
X75958866Y-91168510D01*
X75902966Y-91063929D01*
X75827737Y-90972263D01*
X75736071Y-90897034D01*
X75631490Y-90841134D01*
X75518012Y-90806711D01*
X75400000Y-90795088D01*
X75370434Y-90798000D01*
X74902000Y-90798000D01*
X74902000Y-82018548D01*
X88473000Y-82018548D01*
X88473000Y-82181452D01*
X88504782Y-82341227D01*
X88567123Y-82491731D01*
X88657628Y-82627181D01*
X88772819Y-82742372D01*
X88908269Y-82832877D01*
X89058773Y-82895218D01*
X89218548Y-82927000D01*
X89381452Y-82927000D01*
X89541227Y-82895218D01*
X89564563Y-82885552D01*
X89567123Y-82891731D01*
X89657628Y-83027181D01*
X89772819Y-83142372D01*
X89908269Y-83232877D01*
X90058773Y-83295218D01*
X90173000Y-83317940D01*
X90173000Y-83381452D01*
X90204782Y-83541227D01*
X90267123Y-83691731D01*
X90357628Y-83827181D01*
X90472819Y-83942372D01*
X90608269Y-84032877D01*
X90735159Y-84085437D01*
X90704782Y-84158773D01*
X90673000Y-84318548D01*
X90673000Y-84481452D01*
X90704782Y-84641227D01*
X90767123Y-84791731D01*
X90857628Y-84927181D01*
X90972819Y-85042372D01*
X91108269Y-85132877D01*
X91258773Y-85195218D01*
X91418548Y-85227000D01*
X91581452Y-85227000D01*
X91741227Y-85195218D01*
X91891731Y-85132877D01*
X92027181Y-85042372D01*
X92142372Y-84927181D01*
X92232877Y-84791731D01*
X92295218Y-84641227D01*
X92327000Y-84481452D01*
X92327000Y-84444558D01*
X92528032Y-84243526D01*
X95873000Y-84243526D01*
X95873000Y-85056474D01*
X96031598Y-85853802D01*
X96342700Y-86604868D01*
X96794350Y-87280809D01*
X97369191Y-87855650D01*
X98045132Y-88307300D01*
X98796198Y-88618402D01*
X99593526Y-88777000D01*
X100406474Y-88777000D01*
X101203802Y-88618402D01*
X101954868Y-88307300D01*
X102630809Y-87855650D01*
X103205650Y-87280809D01*
X103657300Y-86604868D01*
X103968402Y-85853802D01*
X104127000Y-85056474D01*
X104127000Y-84243526D01*
X103968402Y-83446198D01*
X103657300Y-82695132D01*
X103205650Y-82019191D01*
X102912195Y-81725736D01*
X102918548Y-81727000D01*
X103081452Y-81727000D01*
X103241227Y-81695218D01*
X103391731Y-81632877D01*
X103527181Y-81542372D01*
X103551005Y-81518548D01*
X104673000Y-81518548D01*
X104673000Y-81681452D01*
X104704782Y-81841227D01*
X104767123Y-81991731D01*
X104857628Y-82127181D01*
X104972819Y-82242372D01*
X105108269Y-82332877D01*
X105258773Y-82395218D01*
X105418548Y-82427000D01*
X105581452Y-82427000D01*
X105741227Y-82395218D01*
X105891731Y-82332877D01*
X106027181Y-82242372D01*
X106142372Y-82127181D01*
X106232877Y-81991731D01*
X106295218Y-81841227D01*
X106298828Y-81823077D01*
X106318548Y-81827000D01*
X106481452Y-81827000D01*
X106575021Y-81808387D01*
X106573000Y-81818548D01*
X106573000Y-81981452D01*
X106604782Y-82141227D01*
X106667123Y-82291731D01*
X106757628Y-82427181D01*
X106872819Y-82542372D01*
X107008269Y-82632877D01*
X107158773Y-82695218D01*
X107318548Y-82727000D01*
X107481452Y-82727000D01*
X107641227Y-82695218D01*
X107791731Y-82632877D01*
X107860391Y-82587000D01*
X110366255Y-82587000D01*
X110400000Y-82590324D01*
X110433745Y-82587000D01*
X110433750Y-82587000D01*
X110534676Y-82577060D01*
X110664176Y-82537776D01*
X110725903Y-82504782D01*
X110783523Y-82473984D01*
X110840773Y-82427000D01*
X110888133Y-82388133D01*
X110909650Y-82361914D01*
X115360237Y-77911328D01*
X115441227Y-77895218D01*
X115591731Y-77832877D01*
X115727181Y-77742372D01*
X115842372Y-77627181D01*
X115932877Y-77491731D01*
X115995218Y-77341227D01*
X116027000Y-77181452D01*
X116027000Y-77018548D01*
X115995218Y-76858773D01*
X115932877Y-76708269D01*
X115842372Y-76572819D01*
X115819553Y-76550000D01*
X115842372Y-76527181D01*
X115932877Y-76391731D01*
X115995218Y-76241227D01*
X116027000Y-76081452D01*
X116027000Y-75918548D01*
X115995218Y-75758773D01*
X115932877Y-75608269D01*
X115842372Y-75472819D01*
X115819553Y-75450000D01*
X115842372Y-75427181D01*
X115932877Y-75291731D01*
X115995218Y-75141227D01*
X116027000Y-74981452D01*
X116027000Y-74818548D01*
X115995218Y-74658773D01*
X115932877Y-74508269D01*
X115842372Y-74372819D01*
X115819553Y-74350000D01*
X115842372Y-74327181D01*
X115932877Y-74191731D01*
X115995218Y-74041227D01*
X116027000Y-73881452D01*
X116027000Y-73718548D01*
X115995218Y-73558773D01*
X115932877Y-73408269D01*
X115842372Y-73272819D01*
X115727181Y-73157628D01*
X115591731Y-73067123D01*
X115441227Y-73004782D01*
X115281452Y-72973000D01*
X115118548Y-72973000D01*
X114958773Y-73004782D01*
X114808269Y-73067123D01*
X114672819Y-73157628D01*
X114557628Y-73272819D01*
X114467123Y-73408269D01*
X114404782Y-73558773D01*
X114388672Y-73639763D01*
X109415436Y-78613000D01*
X106160391Y-78613000D01*
X106091731Y-78567123D01*
X105941227Y-78504782D01*
X105781452Y-78473000D01*
X105618548Y-78473000D01*
X105458773Y-78504782D01*
X105308269Y-78567123D01*
X105172819Y-78657628D01*
X105057628Y-78772819D01*
X104967123Y-78908269D01*
X104904782Y-79058773D01*
X104873000Y-79218548D01*
X104873000Y-79381452D01*
X104904782Y-79541227D01*
X104967123Y-79691731D01*
X105057628Y-79827181D01*
X105172819Y-79942372D01*
X105308269Y-80032877D01*
X105369992Y-80058444D01*
X105038082Y-80390354D01*
X105011868Y-80411867D01*
X104990355Y-80438081D01*
X104990353Y-80438083D01*
X104926016Y-80516477D01*
X104862224Y-80635825D01*
X104860240Y-80642366D01*
X104822940Y-80765324D01*
X104813000Y-80866250D01*
X104813000Y-80866255D01*
X104809676Y-80900000D01*
X104813000Y-80933745D01*
X104813000Y-81139609D01*
X104767123Y-81208269D01*
X104704782Y-81358773D01*
X104673000Y-81518548D01*
X103551005Y-81518548D01*
X103642372Y-81427181D01*
X103732877Y-81291731D01*
X103795218Y-81141227D01*
X103827000Y-80981452D01*
X103827000Y-80818548D01*
X103795218Y-80658773D01*
X103732877Y-80508269D01*
X103687000Y-80439609D01*
X103687000Y-76933747D01*
X103690324Y-76900000D01*
X103687000Y-76866250D01*
X103677060Y-76765324D01*
X103637776Y-76635824D01*
X103613471Y-76590353D01*
X103573984Y-76516476D01*
X103509647Y-76438082D01*
X103509642Y-76438077D01*
X103488132Y-76411867D01*
X103461924Y-76390359D01*
X101411329Y-74339764D01*
X101395218Y-74258773D01*
X101332877Y-74108269D01*
X101242372Y-73972819D01*
X101127181Y-73857628D01*
X100991731Y-73767123D01*
X100841227Y-73704782D01*
X100681452Y-73673000D01*
X100518548Y-73673000D01*
X100358773Y-73704782D01*
X100208269Y-73767123D01*
X100072819Y-73857628D01*
X99957628Y-73972819D01*
X99867123Y-74108269D01*
X99804782Y-74258773D01*
X99773000Y-74418548D01*
X99773000Y-74581452D01*
X99804782Y-74741227D01*
X99867123Y-74891731D01*
X99957628Y-75027181D01*
X100072819Y-75142372D01*
X100208269Y-75232877D01*
X100358773Y-75295218D01*
X100439764Y-75311329D01*
X102313000Y-77184565D01*
X102313001Y-79299167D01*
X102260237Y-79288672D01*
X98587000Y-75615436D01*
X98587000Y-73960391D01*
X98632877Y-73891731D01*
X98695218Y-73741227D01*
X98727000Y-73581452D01*
X98727000Y-73418548D01*
X98695218Y-73258773D01*
X98632877Y-73108269D01*
X98542372Y-72972819D01*
X98427181Y-72857628D01*
X98291731Y-72767123D01*
X98141227Y-72704782D01*
X97981452Y-72673000D01*
X97818548Y-72673000D01*
X97658773Y-72704782D01*
X97508269Y-72767123D01*
X97372819Y-72857628D01*
X97257628Y-72972819D01*
X97167123Y-73108269D01*
X97104782Y-73258773D01*
X97073000Y-73418548D01*
X97073000Y-73581452D01*
X97104782Y-73741227D01*
X97167123Y-73891731D01*
X97213000Y-73960391D01*
X97213001Y-75866245D01*
X97209676Y-75900000D01*
X97213001Y-75933750D01*
X97222941Y-76034676D01*
X97237131Y-76081452D01*
X97262224Y-76164175D01*
X97326016Y-76283523D01*
X97390353Y-76361917D01*
X97411868Y-76388133D01*
X97438082Y-76409646D01*
X101288672Y-80260237D01*
X101304782Y-80341227D01*
X101367123Y-80491731D01*
X101457628Y-80627181D01*
X101572819Y-80742372D01*
X101708269Y-80832877D01*
X101858773Y-80895218D01*
X102018548Y-80927000D01*
X102173000Y-80927000D01*
X102173000Y-80981452D01*
X102204782Y-81141227D01*
X102215355Y-81166752D01*
X101954868Y-80992700D01*
X101203802Y-80681598D01*
X100406474Y-80523000D01*
X99593526Y-80523000D01*
X98796198Y-80681598D01*
X98045132Y-80992700D01*
X97369191Y-81444350D01*
X96794350Y-82019191D01*
X96342700Y-82695132D01*
X96031598Y-83446198D01*
X95873000Y-84243526D01*
X92528032Y-84243526D01*
X93360230Y-83411328D01*
X93441221Y-83395218D01*
X93591725Y-83332877D01*
X93727175Y-83242372D01*
X93842366Y-83127181D01*
X93932871Y-82991731D01*
X93995212Y-82841227D01*
X94026994Y-82681452D01*
X94026994Y-82518548D01*
X93995212Y-82358773D01*
X93932871Y-82208269D01*
X93842366Y-82072819D01*
X93727175Y-81957628D01*
X93591725Y-81867123D01*
X93573913Y-81859745D01*
X93599913Y-81842372D01*
X93715104Y-81727181D01*
X93805609Y-81591731D01*
X93867950Y-81441227D01*
X93899732Y-81281452D01*
X93899732Y-81118548D01*
X93867950Y-80958773D01*
X93805609Y-80808269D01*
X93802727Y-80803956D01*
X93918542Y-80826994D01*
X94081446Y-80826994D01*
X94241221Y-80795212D01*
X94391725Y-80732871D01*
X94527175Y-80642366D01*
X94642366Y-80527175D01*
X94732871Y-80391725D01*
X94795212Y-80241221D01*
X94826994Y-80081446D01*
X94826994Y-79918542D01*
X94810105Y-79833637D01*
X94958774Y-79895218D01*
X95118549Y-79927000D01*
X95281453Y-79927000D01*
X95441228Y-79895218D01*
X95591732Y-79832877D01*
X95727182Y-79742372D01*
X95842373Y-79627181D01*
X95932878Y-79491731D01*
X95995219Y-79341227D01*
X96027001Y-79181452D01*
X96027001Y-79040638D01*
X96158773Y-79095220D01*
X96318548Y-79127002D01*
X96481452Y-79127002D01*
X96641227Y-79095220D01*
X96791731Y-79032879D01*
X96927181Y-78942374D01*
X97042372Y-78827183D01*
X97050001Y-78815766D01*
X97057628Y-78827181D01*
X97172819Y-78942372D01*
X97308269Y-79032877D01*
X97458773Y-79095218D01*
X97618548Y-79127000D01*
X97781452Y-79127000D01*
X97941227Y-79095218D01*
X98091731Y-79032877D01*
X98227181Y-78942372D01*
X98342372Y-78827181D01*
X98432877Y-78691731D01*
X98495218Y-78541227D01*
X98527000Y-78381452D01*
X98527000Y-78218548D01*
X98495218Y-78058773D01*
X98432877Y-77908269D01*
X98342372Y-77772819D01*
X98227181Y-77657628D01*
X98091731Y-77567123D01*
X97941227Y-77504782D01*
X97860237Y-77488672D01*
X97309650Y-76938086D01*
X97288133Y-76911867D01*
X97223437Y-76858773D01*
X97183523Y-76826016D01*
X97069977Y-76765325D01*
X97064176Y-76762224D01*
X96934676Y-76722940D01*
X96833750Y-76713000D01*
X96833745Y-76713000D01*
X96800000Y-76709676D01*
X96766255Y-76713000D01*
X91233744Y-76713000D01*
X91199999Y-76709676D01*
X91166254Y-76713000D01*
X91166250Y-76713000D01*
X91065324Y-76722940D01*
X90935824Y-76762224D01*
X90816476Y-76826017D01*
X90776575Y-76858763D01*
X90711867Y-76911867D01*
X90690350Y-76938086D01*
X89239765Y-78388671D01*
X89158773Y-78404782D01*
X89008269Y-78467123D01*
X88872819Y-78557628D01*
X88757628Y-78672819D01*
X88667123Y-78808269D01*
X88604782Y-78958773D01*
X88573000Y-79118548D01*
X88573000Y-79281452D01*
X88604782Y-79441227D01*
X88667123Y-79591731D01*
X88757628Y-79727181D01*
X88872819Y-79842372D01*
X89008269Y-79932877D01*
X89158773Y-79995218D01*
X89304275Y-80024161D01*
X89239765Y-80088671D01*
X89158773Y-80104782D01*
X89008269Y-80167123D01*
X88872819Y-80257628D01*
X88757628Y-80372819D01*
X88667123Y-80508269D01*
X88604782Y-80658773D01*
X88573000Y-80818548D01*
X88573000Y-80981452D01*
X88604782Y-81141227D01*
X88667123Y-81291731D01*
X88757628Y-81427181D01*
X88781964Y-81451517D01*
X88772819Y-81457628D01*
X88657628Y-81572819D01*
X88567123Y-81708269D01*
X88504782Y-81858773D01*
X88473000Y-82018548D01*
X74902000Y-82018548D01*
X74902000Y-75118548D01*
X85273000Y-75118548D01*
X85273000Y-75281452D01*
X85304782Y-75441227D01*
X85367123Y-75591731D01*
X85457628Y-75727181D01*
X85572819Y-75842372D01*
X85708269Y-75932877D01*
X85858773Y-75995218D01*
X86018548Y-76027000D01*
X86181452Y-76027000D01*
X86223942Y-76018548D01*
X87473000Y-76018548D01*
X87473000Y-76181452D01*
X87504782Y-76341227D01*
X87567123Y-76491731D01*
X87657628Y-76627181D01*
X87772819Y-76742372D01*
X87908269Y-76832877D01*
X88058773Y-76895218D01*
X88218548Y-76927000D01*
X88381452Y-76927000D01*
X88541227Y-76895218D01*
X88691731Y-76832877D01*
X88827181Y-76742372D01*
X88942372Y-76627181D01*
X89032877Y-76491731D01*
X89095218Y-76341227D01*
X89111329Y-76260236D01*
X91184565Y-74187000D01*
X92839609Y-74187000D01*
X92908269Y-74232877D01*
X93058773Y-74295218D01*
X93218548Y-74327000D01*
X93381452Y-74327000D01*
X93541227Y-74295218D01*
X93691731Y-74232877D01*
X93827181Y-74142372D01*
X93942372Y-74027181D01*
X94032877Y-73891731D01*
X94095218Y-73741227D01*
X94127000Y-73581452D01*
X94127000Y-73418548D01*
X94095218Y-73258773D01*
X94032877Y-73108269D01*
X93942372Y-72972819D01*
X93827181Y-72857628D01*
X93691731Y-72767123D01*
X93541227Y-72704782D01*
X93381452Y-72673000D01*
X93218548Y-72673000D01*
X93058773Y-72704782D01*
X92908269Y-72767123D01*
X92839609Y-72813000D01*
X90933744Y-72813000D01*
X90899999Y-72809676D01*
X90866254Y-72813000D01*
X90866250Y-72813000D01*
X90765324Y-72822940D01*
X90635824Y-72862224D01*
X90516476Y-72926017D01*
X90459227Y-72973000D01*
X90411867Y-73011867D01*
X90390354Y-73038081D01*
X88139764Y-75288671D01*
X88058773Y-75304782D01*
X87908269Y-75367123D01*
X87772819Y-75457628D01*
X87657628Y-75572819D01*
X87567123Y-75708269D01*
X87504782Y-75858773D01*
X87473000Y-76018548D01*
X86223942Y-76018548D01*
X86341227Y-75995218D01*
X86491731Y-75932877D01*
X86560801Y-75886725D01*
X86658940Y-75877060D01*
X86788440Y-75837776D01*
X86830011Y-75815555D01*
X86907787Y-75773984D01*
X86977859Y-75716477D01*
X87012397Y-75688133D01*
X87033914Y-75661914D01*
X90608829Y-72087000D01*
X95366255Y-72087000D01*
X95400000Y-72090324D01*
X95433745Y-72087000D01*
X95433750Y-72087000D01*
X95534676Y-72077060D01*
X95664176Y-72037776D01*
X95705747Y-72015555D01*
X95783523Y-71973984D01*
X95832143Y-71934082D01*
X95888133Y-71888133D01*
X95909650Y-71861914D01*
X96760236Y-71011328D01*
X96841227Y-70995218D01*
X96991731Y-70932877D01*
X97127181Y-70842372D01*
X97242372Y-70727181D01*
X97332877Y-70591731D01*
X97395218Y-70441227D01*
X97427000Y-70281452D01*
X97427000Y-70118548D01*
X97395218Y-69958773D01*
X97332877Y-69808269D01*
X97242372Y-69672819D01*
X97127181Y-69557628D01*
X96991731Y-69467123D01*
X96841227Y-69404782D01*
X96681452Y-69373000D01*
X96518548Y-69373000D01*
X96493600Y-69377963D01*
X98161924Y-67709639D01*
X98188132Y-67688131D01*
X98209642Y-67661921D01*
X98209647Y-67661916D01*
X98273983Y-67583522D01*
X98337776Y-67464174D01*
X98342232Y-67449484D01*
X98377060Y-67334674D01*
X98387000Y-67233748D01*
X98387000Y-67233744D01*
X98390324Y-67199999D01*
X98387000Y-67166254D01*
X98387000Y-63218548D01*
X98573000Y-63218548D01*
X98573000Y-63381452D01*
X98604782Y-63541227D01*
X98667123Y-63691731D01*
X98757628Y-63827181D01*
X98872819Y-63942372D01*
X99008269Y-64032877D01*
X99158773Y-64095218D01*
X99239764Y-64111329D01*
X99513000Y-64384565D01*
X99513001Y-67839608D01*
X99467123Y-67908269D01*
X99404782Y-68058773D01*
X99373000Y-68218548D01*
X99373000Y-68381452D01*
X99404782Y-68541227D01*
X99467123Y-68691731D01*
X99557628Y-68827181D01*
X99672819Y-68942372D01*
X99808269Y-69032877D01*
X99958773Y-69095218D01*
X100118548Y-69127000D01*
X100281452Y-69127000D01*
X100441227Y-69095218D01*
X100591731Y-69032877D01*
X100727181Y-68942372D01*
X100842372Y-68827181D01*
X100932877Y-68691731D01*
X100995218Y-68541227D01*
X101027000Y-68381452D01*
X101027000Y-68218548D01*
X100995218Y-68058773D01*
X100932877Y-67908269D01*
X100887000Y-67839609D01*
X100887000Y-66618548D01*
X103073000Y-66618548D01*
X103073000Y-66781452D01*
X103104782Y-66941227D01*
X103167123Y-67091731D01*
X103257628Y-67227181D01*
X103372819Y-67342372D01*
X103384235Y-67350000D01*
X103372819Y-67357628D01*
X103257628Y-67472819D01*
X103167123Y-67608269D01*
X103104782Y-67758773D01*
X103073000Y-67918548D01*
X103073000Y-68081452D01*
X103104782Y-68241227D01*
X103167123Y-68391731D01*
X103257628Y-68527181D01*
X103372819Y-68642372D01*
X103384235Y-68650000D01*
X103372819Y-68657628D01*
X103257628Y-68772819D01*
X103167123Y-68908269D01*
X103104782Y-69058773D01*
X103073000Y-69218548D01*
X103073000Y-69381452D01*
X103104782Y-69541227D01*
X103167123Y-69691731D01*
X103257628Y-69827181D01*
X103330447Y-69900000D01*
X103257628Y-69972819D01*
X103167123Y-70108269D01*
X103104782Y-70258773D01*
X103073000Y-70418548D01*
X103073000Y-70581452D01*
X103104782Y-70741227D01*
X103167123Y-70891731D01*
X103257628Y-71027181D01*
X103372819Y-71142372D01*
X103508269Y-71232877D01*
X103658773Y-71295218D01*
X103818548Y-71327000D01*
X103981452Y-71327000D01*
X104141227Y-71295218D01*
X104291731Y-71232877D01*
X104360391Y-71187000D01*
X106166255Y-71187000D01*
X106200000Y-71190324D01*
X106233745Y-71187000D01*
X106233750Y-71187000D01*
X106334676Y-71177060D01*
X106464176Y-71137776D01*
X106516805Y-71109645D01*
X106583523Y-71073984D01*
X106653595Y-71016477D01*
X106688133Y-70988133D01*
X106709650Y-70961914D01*
X107184564Y-70487000D01*
X108041436Y-70487000D01*
X106215436Y-72313000D01*
X104360391Y-72313000D01*
X104291731Y-72267123D01*
X104141227Y-72204782D01*
X103981452Y-72173000D01*
X103818548Y-72173000D01*
X103658773Y-72204782D01*
X103508269Y-72267123D01*
X103372819Y-72357628D01*
X103257628Y-72472819D01*
X103167123Y-72608269D01*
X103104782Y-72758773D01*
X103073000Y-72918548D01*
X103073000Y-73081452D01*
X103104782Y-73241227D01*
X103167123Y-73391731D01*
X103257628Y-73527181D01*
X103372819Y-73642372D01*
X103384235Y-73650000D01*
X103372819Y-73657628D01*
X103257628Y-73772819D01*
X103167123Y-73908269D01*
X103104782Y-74058773D01*
X103073000Y-74218548D01*
X103073000Y-74381452D01*
X103104782Y-74541227D01*
X103167123Y-74691731D01*
X103257628Y-74827181D01*
X103372819Y-74942372D01*
X103508269Y-75032877D01*
X103658773Y-75095218D01*
X103818548Y-75127000D01*
X103981452Y-75127000D01*
X104141227Y-75095218D01*
X104291731Y-75032877D01*
X104360391Y-74987000D01*
X105941436Y-74987000D01*
X104539765Y-76388671D01*
X104458773Y-76404782D01*
X104308269Y-76467123D01*
X104172819Y-76557628D01*
X104057628Y-76672819D01*
X103967123Y-76808269D01*
X103904782Y-76958773D01*
X103873000Y-77118548D01*
X103873000Y-77281452D01*
X103904782Y-77441227D01*
X103967123Y-77591731D01*
X104057628Y-77727181D01*
X104172819Y-77842372D01*
X104308269Y-77932877D01*
X104458773Y-77995218D01*
X104618548Y-78027000D01*
X104781452Y-78027000D01*
X104941227Y-77995218D01*
X105091731Y-77932877D01*
X105227181Y-77842372D01*
X105342372Y-77727181D01*
X105432877Y-77591731D01*
X105495218Y-77441227D01*
X105511329Y-77360235D01*
X109084565Y-73787000D01*
X110839609Y-73787000D01*
X110908269Y-73832877D01*
X111058773Y-73895218D01*
X111218548Y-73927000D01*
X111381452Y-73927000D01*
X111541227Y-73895218D01*
X111691731Y-73832877D01*
X111827181Y-73742372D01*
X111942372Y-73627181D01*
X112032877Y-73491731D01*
X112095218Y-73341227D01*
X112127000Y-73181452D01*
X112127000Y-73018548D01*
X112095218Y-72858773D01*
X112078557Y-72818548D01*
X117773000Y-72818548D01*
X117773000Y-72981452D01*
X117804782Y-73141227D01*
X117867123Y-73291731D01*
X117913000Y-73360391D01*
X117913001Y-77166245D01*
X117909676Y-77200000D01*
X117913001Y-77233750D01*
X117922941Y-77334676D01*
X117945684Y-77409647D01*
X117962224Y-77464175D01*
X118026016Y-77583523D01*
X118086835Y-77657630D01*
X118111868Y-77688133D01*
X118138082Y-77709646D01*
X118588672Y-78160236D01*
X118604782Y-78241227D01*
X118667123Y-78391731D01*
X118757628Y-78527181D01*
X118872819Y-78642372D01*
X119008269Y-78732877D01*
X119158773Y-78795218D01*
X119318548Y-78827000D01*
X119481452Y-78827000D01*
X119641227Y-78795218D01*
X119791731Y-78732877D01*
X119927181Y-78642372D01*
X120042372Y-78527181D01*
X120132877Y-78391731D01*
X120195218Y-78241227D01*
X120227000Y-78081452D01*
X120227000Y-77918548D01*
X120195218Y-77758773D01*
X120132877Y-77608269D01*
X120042372Y-77472819D01*
X119927181Y-77357628D01*
X119791731Y-77267123D01*
X119641227Y-77204782D01*
X119560236Y-77188672D01*
X119287000Y-76915436D01*
X119287000Y-73360391D01*
X119332877Y-73291731D01*
X119395218Y-73141227D01*
X119427000Y-72981452D01*
X119427000Y-72818548D01*
X119395218Y-72658773D01*
X119332877Y-72508269D01*
X119242372Y-72372819D01*
X119127181Y-72257628D01*
X118991731Y-72167123D01*
X118841227Y-72104782D01*
X118681452Y-72073000D01*
X118518548Y-72073000D01*
X118358773Y-72104782D01*
X118208269Y-72167123D01*
X118072819Y-72257628D01*
X117957628Y-72372819D01*
X117867123Y-72508269D01*
X117804782Y-72658773D01*
X117773000Y-72818548D01*
X112078557Y-72818548D01*
X112032877Y-72708269D01*
X111942372Y-72572819D01*
X111919553Y-72550000D01*
X111942372Y-72527181D01*
X112032877Y-72391731D01*
X112095218Y-72241227D01*
X112127000Y-72081452D01*
X112127000Y-71918548D01*
X112095218Y-71758773D01*
X112032877Y-71608269D01*
X111942372Y-71472819D01*
X111919556Y-71450003D01*
X111942378Y-71427181D01*
X112032883Y-71291731D01*
X112095224Y-71141227D01*
X112127006Y-70981452D01*
X112127006Y-70818548D01*
X112095224Y-70658773D01*
X112032883Y-70508269D01*
X111942378Y-70372819D01*
X111919556Y-70349997D01*
X111942372Y-70327181D01*
X112032877Y-70191731D01*
X112095218Y-70041227D01*
X112127000Y-69881452D01*
X112127000Y-69718548D01*
X112095218Y-69558773D01*
X112032877Y-69408269D01*
X111942372Y-69272819D01*
X111827181Y-69157628D01*
X111691731Y-69067123D01*
X111597806Y-69028218D01*
X111627000Y-68881452D01*
X111627000Y-68718548D01*
X111595218Y-68558773D01*
X111532877Y-68408269D01*
X111442372Y-68272819D01*
X111327181Y-68157628D01*
X111191731Y-68067123D01*
X111128586Y-68040967D01*
X111142372Y-68027181D01*
X111232877Y-67891731D01*
X111295218Y-67741227D01*
X111327000Y-67581452D01*
X111327000Y-67418548D01*
X111295218Y-67258773D01*
X111232877Y-67108269D01*
X111142372Y-66972819D01*
X111027181Y-66857628D01*
X110891731Y-66767123D01*
X110741227Y-66704782D01*
X110607749Y-66678231D01*
X110627000Y-66581452D01*
X110627000Y-66418548D01*
X110595218Y-66258773D01*
X110532877Y-66108269D01*
X110442372Y-65972819D01*
X110327181Y-65857628D01*
X110191731Y-65767123D01*
X110041227Y-65704782D01*
X109881452Y-65673000D01*
X109718548Y-65673000D01*
X109558773Y-65704782D01*
X109408269Y-65767123D01*
X109375392Y-65789091D01*
X109395218Y-65741227D01*
X109427000Y-65581452D01*
X109427000Y-65418548D01*
X109395218Y-65258773D01*
X109332877Y-65108269D01*
X109242372Y-64972819D01*
X109127181Y-64857628D01*
X108991731Y-64767123D01*
X108841227Y-64704782D01*
X108681452Y-64673000D01*
X108518548Y-64673000D01*
X108358773Y-64704782D01*
X108208269Y-64767123D01*
X108072819Y-64857628D01*
X107957628Y-64972819D01*
X107867123Y-65108269D01*
X107804782Y-65258773D01*
X107773000Y-65418548D01*
X107773000Y-65581452D01*
X107804782Y-65741227D01*
X107867123Y-65891731D01*
X107948153Y-66013000D01*
X104360391Y-66013000D01*
X104291731Y-65967123D01*
X104141227Y-65904782D01*
X103981452Y-65873000D01*
X103818548Y-65873000D01*
X103658773Y-65904782D01*
X103508269Y-65967123D01*
X103372819Y-66057628D01*
X103257628Y-66172819D01*
X103167123Y-66308269D01*
X103104782Y-66458773D01*
X103073000Y-66618548D01*
X100887000Y-66618548D01*
X100887000Y-64133747D01*
X100890324Y-64100000D01*
X100887000Y-64066250D01*
X100877060Y-63965324D01*
X100837776Y-63835824D01*
X100821296Y-63804992D01*
X100773984Y-63716476D01*
X100709647Y-63638082D01*
X100709642Y-63638077D01*
X100688132Y-63611867D01*
X100661923Y-63590358D01*
X100211329Y-63139764D01*
X100195218Y-63058773D01*
X100132877Y-62908269D01*
X100042372Y-62772819D01*
X99927181Y-62657628D01*
X99791731Y-62567123D01*
X99641227Y-62504782D01*
X99481452Y-62473000D01*
X99318548Y-62473000D01*
X99158773Y-62504782D01*
X99008269Y-62567123D01*
X98872819Y-62657628D01*
X98757628Y-62772819D01*
X98667123Y-62908269D01*
X98604782Y-63058773D01*
X98573000Y-63218548D01*
X98387000Y-63218548D01*
X98387000Y-62860391D01*
X98432877Y-62791731D01*
X98495218Y-62641227D01*
X98527000Y-62481452D01*
X98527000Y-62318548D01*
X98495218Y-62158773D01*
X98432877Y-62008269D01*
X98342372Y-61872819D01*
X98227181Y-61757628D01*
X98091731Y-61667123D01*
X97974461Y-61618548D01*
X108773000Y-61618548D01*
X108773000Y-61781452D01*
X108804782Y-61941227D01*
X108867123Y-62091731D01*
X108957628Y-62227181D01*
X109072819Y-62342372D01*
X109208269Y-62432877D01*
X109358773Y-62495218D01*
X109518548Y-62527000D01*
X109681452Y-62527000D01*
X109841227Y-62495218D01*
X109991731Y-62432877D01*
X110060391Y-62387000D01*
X112339609Y-62387000D01*
X112408269Y-62432877D01*
X112558773Y-62495218D01*
X112718548Y-62527000D01*
X112881452Y-62527000D01*
X113041227Y-62495218D01*
X113191731Y-62432877D01*
X113260391Y-62387000D01*
X116239609Y-62387000D01*
X116308269Y-62432877D01*
X116458773Y-62495218D01*
X116618548Y-62527000D01*
X116781452Y-62527000D01*
X116941227Y-62495218D01*
X117091731Y-62432877D01*
X117227181Y-62342372D01*
X117342372Y-62227181D01*
X117432877Y-62091731D01*
X117495218Y-61941227D01*
X117527000Y-61781452D01*
X117527000Y-61618548D01*
X117495218Y-61458773D01*
X117432877Y-61308269D01*
X117342372Y-61172819D01*
X117227181Y-61057628D01*
X117091731Y-60967123D01*
X116941227Y-60904782D01*
X116781452Y-60873000D01*
X116618548Y-60873000D01*
X116458773Y-60904782D01*
X116308269Y-60967123D01*
X116239609Y-61013000D01*
X113260391Y-61013000D01*
X113191731Y-60967123D01*
X113041227Y-60904782D01*
X112881452Y-60873000D01*
X112718548Y-60873000D01*
X112558773Y-60904782D01*
X112408269Y-60967123D01*
X112339609Y-61013000D01*
X110060391Y-61013000D01*
X109991731Y-60967123D01*
X109841227Y-60904782D01*
X109681452Y-60873000D01*
X109518548Y-60873000D01*
X109358773Y-60904782D01*
X109208269Y-60967123D01*
X109072819Y-61057628D01*
X108957628Y-61172819D01*
X108867123Y-61308269D01*
X108804782Y-61458773D01*
X108773000Y-61618548D01*
X97974461Y-61618548D01*
X97941227Y-61604782D01*
X97781452Y-61573000D01*
X97618548Y-61573000D01*
X97458773Y-61604782D01*
X97308269Y-61667123D01*
X97187000Y-61748153D01*
X97187000Y-61660391D01*
X97232877Y-61591731D01*
X97295218Y-61441227D01*
X97327000Y-61281452D01*
X97327000Y-61118548D01*
X97295218Y-60958773D01*
X97232877Y-60808269D01*
X97142372Y-60672819D01*
X97027181Y-60557628D01*
X96891731Y-60467123D01*
X96741227Y-60404782D01*
X96581452Y-60373000D01*
X96418548Y-60373000D01*
X96258773Y-60404782D01*
X96108269Y-60467123D01*
X95972819Y-60557628D01*
X95887000Y-60643447D01*
X95887000Y-60260391D01*
X95932877Y-60191731D01*
X95995218Y-60041227D01*
X96027000Y-59881452D01*
X96027000Y-59718548D01*
X95995218Y-59558773D01*
X95964590Y-59484830D01*
X98323000Y-59484830D01*
X98323000Y-59815170D01*
X98387446Y-60139163D01*
X98513862Y-60444357D01*
X98697389Y-60719025D01*
X98930975Y-60952611D01*
X99205643Y-61136138D01*
X99510837Y-61262554D01*
X99834830Y-61327000D01*
X100165170Y-61327000D01*
X100489163Y-61262554D01*
X100794357Y-61136138D01*
X101069025Y-60952611D01*
X101302611Y-60719025D01*
X101486138Y-60444357D01*
X101612554Y-60139163D01*
X101677000Y-59815170D01*
X101677000Y-59484830D01*
X101612554Y-59160837D01*
X101486138Y-58855643D01*
X101302611Y-58580975D01*
X101069025Y-58347389D01*
X100794357Y-58163862D01*
X100489163Y-58037446D01*
X100165170Y-57973000D01*
X99834830Y-57973000D01*
X99510837Y-58037446D01*
X99205643Y-58163862D01*
X98930975Y-58347389D01*
X98697389Y-58580975D01*
X98513862Y-58855643D01*
X98387446Y-59160837D01*
X98323000Y-59484830D01*
X95964590Y-59484830D01*
X95932877Y-59408269D01*
X95842372Y-59272819D01*
X95727181Y-59157628D01*
X95591731Y-59067123D01*
X95441227Y-59004782D01*
X95281452Y-58973000D01*
X95118548Y-58973000D01*
X94958773Y-59004782D01*
X94808269Y-59067123D01*
X94672819Y-59157628D01*
X94557628Y-59272819D01*
X94467123Y-59408269D01*
X94404782Y-59558773D01*
X94373000Y-59718548D01*
X94373000Y-59881452D01*
X94404782Y-60041227D01*
X94467123Y-60191731D01*
X94513000Y-60260391D01*
X94513001Y-65641436D01*
X92209650Y-63338086D01*
X92188133Y-63311867D01*
X92132143Y-63265918D01*
X92083523Y-63226016D01*
X92005747Y-63184445D01*
X91964176Y-63162224D01*
X91834676Y-63122940D01*
X91733750Y-63113000D01*
X91733745Y-63113000D01*
X91700000Y-63109676D01*
X91666255Y-63113000D01*
X88260391Y-63113000D01*
X88191731Y-63067123D01*
X88041227Y-63004782D01*
X87881452Y-62973000D01*
X87718548Y-62973000D01*
X87558773Y-63004782D01*
X87408269Y-63067123D01*
X87272819Y-63157628D01*
X87157628Y-63272819D01*
X87067123Y-63408269D01*
X87004782Y-63558773D01*
X86973000Y-63718548D01*
X86973000Y-63881452D01*
X87004782Y-64041227D01*
X87067123Y-64191731D01*
X87157628Y-64327181D01*
X87272819Y-64442372D01*
X87408269Y-64532877D01*
X87558773Y-64595218D01*
X87718548Y-64627000D01*
X87881452Y-64627000D01*
X88041227Y-64595218D01*
X88191731Y-64532877D01*
X88260391Y-64487000D01*
X91415436Y-64487000D01*
X92700650Y-65772214D01*
X92639609Y-65813000D01*
X90484565Y-65813000D01*
X89911329Y-65239764D01*
X89895218Y-65158773D01*
X89832877Y-65008269D01*
X89742372Y-64872819D01*
X89627181Y-64757628D01*
X89491731Y-64667123D01*
X89341227Y-64604782D01*
X89181452Y-64573000D01*
X89018548Y-64573000D01*
X88858773Y-64604782D01*
X88708269Y-64667123D01*
X88572819Y-64757628D01*
X88457628Y-64872819D01*
X88367123Y-65008269D01*
X88304782Y-65158773D01*
X88273000Y-65318548D01*
X88273000Y-65481452D01*
X88304782Y-65641227D01*
X88367123Y-65791731D01*
X88457628Y-65927181D01*
X88572819Y-66042372D01*
X88708269Y-66132877D01*
X88858773Y-66195218D01*
X88939764Y-66211329D01*
X89690352Y-66961917D01*
X89711867Y-66988133D01*
X89738081Y-67009646D01*
X89738082Y-67009647D01*
X89816476Y-67073984D01*
X89930024Y-67134676D01*
X89935824Y-67137776D01*
X90065324Y-67177060D01*
X90166250Y-67187000D01*
X90166252Y-67187000D01*
X90200000Y-67190324D01*
X90233747Y-67187000D01*
X92639609Y-67187000D01*
X92708269Y-67232877D01*
X92858773Y-67295218D01*
X93018548Y-67327000D01*
X93181452Y-67327000D01*
X93341227Y-67295218D01*
X93491731Y-67232877D01*
X93627181Y-67142372D01*
X93742372Y-67027181D01*
X93750000Y-67015765D01*
X93757628Y-67027181D01*
X93872819Y-67142372D01*
X93970191Y-67207434D01*
X93908269Y-67233083D01*
X93772819Y-67323588D01*
X93657628Y-67438779D01*
X93567123Y-67574229D01*
X93504782Y-67724733D01*
X93473000Y-67884508D01*
X93473000Y-68047412D01*
X93504782Y-68207187D01*
X93567123Y-68357691D01*
X93657628Y-68493141D01*
X93747467Y-68582980D01*
X93657628Y-68672819D01*
X93567123Y-68808269D01*
X93504782Y-68958773D01*
X93473000Y-69118548D01*
X93473000Y-69281452D01*
X93504782Y-69441227D01*
X93567123Y-69591731D01*
X93657628Y-69727181D01*
X93772819Y-69842372D01*
X93859064Y-69899999D01*
X93772819Y-69957626D01*
X93657628Y-70072817D01*
X93567123Y-70208267D01*
X93504782Y-70358771D01*
X93473000Y-70518546D01*
X93473000Y-70681450D01*
X93479276Y-70713000D01*
X90358011Y-70713000D01*
X90324264Y-70709676D01*
X90290516Y-70713000D01*
X90290514Y-70713000D01*
X90189588Y-70722940D01*
X90060088Y-70762224D01*
X90054287Y-70765325D01*
X89940740Y-70826016D01*
X89862346Y-70890353D01*
X89836131Y-70911867D01*
X89814618Y-70938081D01*
X86345958Y-74406742D01*
X86341227Y-74404782D01*
X86181452Y-74373000D01*
X86018548Y-74373000D01*
X85858773Y-74404782D01*
X85708269Y-74467123D01*
X85572819Y-74557628D01*
X85457628Y-74672819D01*
X85367123Y-74808269D01*
X85304782Y-74958773D01*
X85273000Y-75118548D01*
X74902000Y-75118548D01*
X74902000Y-66018548D01*
X80173000Y-66018548D01*
X80173000Y-66181452D01*
X80204782Y-66341227D01*
X80267123Y-66491731D01*
X80357628Y-66627181D01*
X80472819Y-66742372D01*
X80608269Y-66832877D01*
X80758773Y-66895218D01*
X80839764Y-66911329D01*
X83113001Y-69184566D01*
X83113000Y-69539609D01*
X83067123Y-69608269D01*
X83004782Y-69758773D01*
X82973000Y-69918548D01*
X82973000Y-70081452D01*
X83004782Y-70241227D01*
X83067123Y-70391731D01*
X83157628Y-70527181D01*
X83272819Y-70642372D01*
X83408269Y-70732877D01*
X83558773Y-70795218D01*
X83718548Y-70827000D01*
X83881452Y-70827000D01*
X84041227Y-70795218D01*
X84191731Y-70732877D01*
X84327181Y-70642372D01*
X84442372Y-70527181D01*
X84532877Y-70391731D01*
X84595218Y-70241227D01*
X84627000Y-70081452D01*
X84627000Y-69918548D01*
X84595218Y-69758773D01*
X84532877Y-69608269D01*
X84487000Y-69539609D01*
X84487000Y-68933747D01*
X84490324Y-68900000D01*
X84487000Y-68866250D01*
X84477060Y-68765324D01*
X84437776Y-68635824D01*
X84423081Y-68608332D01*
X84373984Y-68516476D01*
X84309647Y-68438082D01*
X84309646Y-68438081D01*
X84288133Y-68411867D01*
X84261919Y-68390354D01*
X81811329Y-65939764D01*
X81795218Y-65858773D01*
X81732877Y-65708269D01*
X81642372Y-65572819D01*
X81527181Y-65457628D01*
X81391731Y-65367123D01*
X81241227Y-65304782D01*
X81081452Y-65273000D01*
X80918548Y-65273000D01*
X80758773Y-65304782D01*
X80608269Y-65367123D01*
X80472819Y-65457628D01*
X80357628Y-65572819D01*
X80267123Y-65708269D01*
X80204782Y-65858773D01*
X80173000Y-66018548D01*
X74902000Y-66018548D01*
X74902000Y-64318548D01*
X80073000Y-64318548D01*
X80073000Y-64481452D01*
X80104782Y-64641227D01*
X80167123Y-64791731D01*
X80257628Y-64927181D01*
X80372819Y-65042372D01*
X80508269Y-65132877D01*
X80658773Y-65195218D01*
X80818548Y-65227000D01*
X80981452Y-65227000D01*
X81141227Y-65195218D01*
X81291731Y-65132877D01*
X81360391Y-65087000D01*
X82392238Y-65087000D01*
X84867154Y-67561917D01*
X84888669Y-67588133D01*
X84914883Y-67609646D01*
X84914884Y-67609647D01*
X84993278Y-67673984D01*
X85072777Y-67716476D01*
X85112626Y-67737776D01*
X85242126Y-67777060D01*
X85343052Y-67787000D01*
X85343054Y-67787000D01*
X85376802Y-67790324D01*
X85410549Y-67787000D01*
X85615436Y-67787000D01*
X86088672Y-68260236D01*
X86104782Y-68341227D01*
X86167123Y-68491731D01*
X86257628Y-68627181D01*
X86372819Y-68742372D01*
X86508269Y-68832877D01*
X86658773Y-68895218D01*
X86818548Y-68927000D01*
X86981452Y-68927000D01*
X87141227Y-68895218D01*
X87291731Y-68832877D01*
X87427181Y-68742372D01*
X87542372Y-68627181D01*
X87632877Y-68491731D01*
X87695218Y-68341227D01*
X87727000Y-68181452D01*
X87727000Y-68018548D01*
X87695218Y-67858773D01*
X87632877Y-67708269D01*
X87542372Y-67572819D01*
X87428586Y-67459033D01*
X87491731Y-67432877D01*
X87627181Y-67342372D01*
X87742372Y-67227181D01*
X87832877Y-67091731D01*
X87895218Y-66941227D01*
X87927000Y-66781452D01*
X87927000Y-66618548D01*
X87895218Y-66458773D01*
X87832877Y-66308269D01*
X87742372Y-66172819D01*
X87627181Y-66057628D01*
X87491731Y-65967123D01*
X87341227Y-65904782D01*
X87260236Y-65888672D01*
X84798134Y-63426570D01*
X84827000Y-63281452D01*
X84827000Y-63118548D01*
X84795218Y-62958773D01*
X84732877Y-62808269D01*
X84642372Y-62672819D01*
X84527181Y-62557628D01*
X84391731Y-62467123D01*
X84241227Y-62404782D01*
X84081452Y-62373000D01*
X83918548Y-62373000D01*
X83758773Y-62404782D01*
X83608269Y-62467123D01*
X83472819Y-62557628D01*
X83357628Y-62672819D01*
X83267123Y-62808269D01*
X83204782Y-62958773D01*
X83173000Y-63118548D01*
X83173000Y-63281452D01*
X83204782Y-63441227D01*
X83267123Y-63591731D01*
X83316077Y-63664996D01*
X83322940Y-63734675D01*
X83350649Y-63826017D01*
X83362224Y-63864175D01*
X83426016Y-63983523D01*
X83490353Y-64061917D01*
X83511867Y-64088132D01*
X83538082Y-64109646D01*
X85841435Y-66413000D01*
X85661367Y-66413000D01*
X83186452Y-63938086D01*
X83164935Y-63911867D01*
X83106821Y-63864175D01*
X83060325Y-63826016D01*
X82982549Y-63784445D01*
X82940978Y-63762224D01*
X82811478Y-63722940D01*
X82710552Y-63713000D01*
X82710547Y-63713000D01*
X82676802Y-63709676D01*
X82643057Y-63713000D01*
X81360391Y-63713000D01*
X81291731Y-63667123D01*
X81141227Y-63604782D01*
X80981452Y-63573000D01*
X80818548Y-63573000D01*
X80658773Y-63604782D01*
X80508269Y-63667123D01*
X80372819Y-63757628D01*
X80257628Y-63872819D01*
X80167123Y-64008269D01*
X80104782Y-64158773D01*
X80073000Y-64318548D01*
X74902000Y-64318548D01*
X74902000Y-61918548D01*
X88273000Y-61918548D01*
X88273000Y-62081452D01*
X88304782Y-62241227D01*
X88367123Y-62391731D01*
X88457628Y-62527181D01*
X88572819Y-62642372D01*
X88708269Y-62732877D01*
X88858773Y-62795218D01*
X89018548Y-62827000D01*
X89181452Y-62827000D01*
X89341227Y-62795218D01*
X89491731Y-62732877D01*
X89560391Y-62687000D01*
X92317463Y-62687000D01*
X92372835Y-62742372D01*
X92508285Y-62832877D01*
X92658789Y-62895218D01*
X92818564Y-62927000D01*
X92981468Y-62927000D01*
X93141243Y-62895218D01*
X93291747Y-62832877D01*
X93427197Y-62742372D01*
X93542388Y-62627181D01*
X93632893Y-62491731D01*
X93695234Y-62341227D01*
X93727016Y-62181452D01*
X93727016Y-62018548D01*
X93695234Y-61858773D01*
X93632893Y-61708269D01*
X93542388Y-61572819D01*
X93427197Y-61457628D01*
X93291747Y-61367123D01*
X93141243Y-61304782D01*
X92981468Y-61273000D01*
X92818564Y-61273000D01*
X92658789Y-61304782D01*
X92638949Y-61313000D01*
X89560391Y-61313000D01*
X89491731Y-61267123D01*
X89341227Y-61204782D01*
X89181452Y-61173000D01*
X89018548Y-61173000D01*
X88858773Y-61204782D01*
X88708269Y-61267123D01*
X88572819Y-61357628D01*
X88457628Y-61472819D01*
X88367123Y-61608269D01*
X88304782Y-61758773D01*
X88273000Y-61918548D01*
X74902000Y-61918548D01*
X74902000Y-59949604D01*
X75073000Y-59949604D01*
X75073000Y-60250396D01*
X75131681Y-60545410D01*
X75246790Y-60823306D01*
X75413901Y-61073406D01*
X75626594Y-61286099D01*
X75876694Y-61453210D01*
X76154590Y-61568319D01*
X76449604Y-61627000D01*
X76750396Y-61627000D01*
X77045410Y-61568319D01*
X77323306Y-61453210D01*
X77573406Y-61286099D01*
X77786099Y-61073406D01*
X77953210Y-60823306D01*
X78068319Y-60545410D01*
X78127000Y-60250396D01*
X78127000Y-59949604D01*
X78068319Y-59654590D01*
X77953210Y-59376694D01*
X77786099Y-59126594D01*
X77573406Y-58913901D01*
X77323306Y-58746790D01*
X77045410Y-58631681D01*
X76750396Y-58573000D01*
X76449604Y-58573000D01*
X76154590Y-58631681D01*
X75876694Y-58746790D01*
X75626594Y-58913901D01*
X75413901Y-59126594D01*
X75246790Y-59376694D01*
X75131681Y-59654590D01*
X75073000Y-59949604D01*
X74902000Y-59949604D01*
X74902000Y-56318548D01*
X86173000Y-56318548D01*
X86173000Y-56481452D01*
X86204782Y-56641227D01*
X86267123Y-56791731D01*
X86313000Y-56860391D01*
X86313001Y-57839606D01*
X86267123Y-57908267D01*
X86204782Y-58058771D01*
X86173000Y-58218546D01*
X86173000Y-58381450D01*
X86204782Y-58541225D01*
X86267123Y-58691729D01*
X86357628Y-58827179D01*
X86472819Y-58942370D01*
X86608269Y-59032875D01*
X86758773Y-59095216D01*
X86918548Y-59126998D01*
X87081452Y-59126998D01*
X87241227Y-59095216D01*
X87391731Y-59032875D01*
X87527181Y-58942370D01*
X87642372Y-58827179D01*
X87732877Y-58691729D01*
X87795218Y-58541225D01*
X87827000Y-58381450D01*
X87827000Y-58218546D01*
X87795218Y-58058771D01*
X87732877Y-57908267D01*
X87687000Y-57839607D01*
X87687000Y-56860391D01*
X87732877Y-56791731D01*
X87795218Y-56641227D01*
X87827000Y-56481452D01*
X87827000Y-56318548D01*
X87795218Y-56158773D01*
X87732877Y-56008269D01*
X87642372Y-55872819D01*
X87527181Y-55757628D01*
X87391731Y-55667123D01*
X87241227Y-55604782D01*
X87081452Y-55573000D01*
X86918548Y-55573000D01*
X86758773Y-55604782D01*
X86608269Y-55667123D01*
X86472819Y-55757628D01*
X86357628Y-55872819D01*
X86267123Y-56008269D01*
X86204782Y-56158773D01*
X86173000Y-56318548D01*
X74902000Y-56318548D01*
X74902000Y-54618548D01*
X93473000Y-54618548D01*
X93473000Y-54781452D01*
X93504782Y-54941227D01*
X93567123Y-55091731D01*
X93657628Y-55227181D01*
X93772819Y-55342372D01*
X93908269Y-55432877D01*
X94058773Y-55495218D01*
X94218548Y-55527000D01*
X94381452Y-55527000D01*
X94541227Y-55495218D01*
X94691731Y-55432877D01*
X94760391Y-55387000D01*
X98615436Y-55387000D01*
X101488672Y-58260236D01*
X101504782Y-58341227D01*
X101567123Y-58491731D01*
X101657628Y-58627181D01*
X101772819Y-58742372D01*
X101908269Y-58832877D01*
X102058773Y-58895218D01*
X102218548Y-58927000D01*
X102381452Y-58927000D01*
X102541227Y-58895218D01*
X102691731Y-58832877D01*
X102827181Y-58742372D01*
X102942372Y-58627181D01*
X103032877Y-58491731D01*
X103095218Y-58341227D01*
X103127000Y-58181452D01*
X103127000Y-58018548D01*
X103095218Y-57858773D01*
X103032877Y-57708269D01*
X102942372Y-57572819D01*
X102827181Y-57457628D01*
X102691731Y-57367123D01*
X102541227Y-57304782D01*
X102460236Y-57288672D01*
X99409650Y-54238086D01*
X99388133Y-54211867D01*
X99332143Y-54165918D01*
X99283523Y-54126016D01*
X99184336Y-54073000D01*
X99164176Y-54062224D01*
X99034676Y-54022940D01*
X98933750Y-54013000D01*
X98933745Y-54013000D01*
X98900000Y-54009676D01*
X98866255Y-54013000D01*
X94760391Y-54013000D01*
X94691731Y-53967123D01*
X94541227Y-53904782D01*
X94381452Y-53873000D01*
X94218548Y-53873000D01*
X94058773Y-53904782D01*
X93908269Y-53967123D01*
X93772819Y-54057628D01*
X93657628Y-54172819D01*
X93567123Y-54308269D01*
X93504782Y-54458773D01*
X93473000Y-54618548D01*
X74902000Y-54618548D01*
X74902000Y-47600000D01*
X75268032Y-47600000D01*
X75273000Y-47650441D01*
X75273001Y-49250451D01*
X75287861Y-49401327D01*
X75346586Y-49594917D01*
X75441950Y-49773331D01*
X75570289Y-49929712D01*
X75726670Y-50058051D01*
X75905084Y-50153415D01*
X76098674Y-50212140D01*
X76300000Y-50231969D01*
X76501327Y-50212140D01*
X76694917Y-50153415D01*
X76873331Y-50058051D01*
X77029712Y-49929712D01*
X77158051Y-49773331D01*
X77253415Y-49594917D01*
X77312140Y-49401327D01*
X77327000Y-49250451D01*
X77327000Y-49200000D01*
X77368031Y-49200000D01*
X77387860Y-49401327D01*
X77446585Y-49594917D01*
X77541949Y-49773331D01*
X77670288Y-49929712D01*
X77826669Y-50058051D01*
X78005083Y-50153415D01*
X78198673Y-50212140D01*
X78349549Y-50227000D01*
X81367495Y-50227000D01*
X81526594Y-50386099D01*
X81776694Y-50553210D01*
X82054590Y-50668319D01*
X82349604Y-50727000D01*
X82650396Y-50727000D01*
X82945410Y-50668319D01*
X83223306Y-50553210D01*
X83473406Y-50386099D01*
X83686099Y-50173406D01*
X83853210Y-49923306D01*
X83968319Y-49645410D01*
X84027000Y-49350396D01*
X84027000Y-49049604D01*
X83968319Y-48754590D01*
X83853210Y-48476694D01*
X83686099Y-48226594D01*
X83473406Y-48013901D01*
X83223306Y-47846790D01*
X82945410Y-47731681D01*
X82650396Y-47673000D01*
X82349604Y-47673000D01*
X82054590Y-47731681D01*
X81776694Y-47846790D01*
X81526594Y-48013901D01*
X81367495Y-48173000D01*
X78349549Y-48173000D01*
X78198673Y-48187860D01*
X78005083Y-48246585D01*
X77826669Y-48341949D01*
X77670288Y-48470288D01*
X77541949Y-48626669D01*
X77446585Y-48805083D01*
X77387860Y-48998673D01*
X77368031Y-49200000D01*
X77327000Y-49200000D01*
X77327000Y-48025396D01*
X77625397Y-47727000D01*
X78749559Y-47727000D01*
X78800000Y-47731968D01*
X78850441Y-47727000D01*
X78850451Y-47727000D01*
X79001327Y-47712140D01*
X79194917Y-47653415D01*
X79373331Y-47558051D01*
X79529712Y-47429712D01*
X79561877Y-47390519D01*
X81225397Y-45727000D01*
X81367495Y-45727000D01*
X81526594Y-45886099D01*
X81776694Y-46053210D01*
X82054590Y-46168319D01*
X82349604Y-46227000D01*
X82650396Y-46227000D01*
X82945410Y-46168319D01*
X83223306Y-46053210D01*
X83473406Y-45886099D01*
X83686099Y-45673406D01*
X83801964Y-45500000D01*
X98868032Y-45500000D01*
X98873001Y-45550451D01*
X98873000Y-50250450D01*
X98873001Y-50250460D01*
X98873000Y-52749559D01*
X98868032Y-52800000D01*
X98873000Y-52850441D01*
X98873000Y-52850450D01*
X98887860Y-53001326D01*
X98946585Y-53194916D01*
X99041949Y-53373331D01*
X99170288Y-53529712D01*
X99209481Y-53561877D01*
X103938128Y-58290525D01*
X103970288Y-58329712D01*
X104126669Y-58458051D01*
X104305083Y-58553415D01*
X104498673Y-58612140D01*
X104649549Y-58627000D01*
X104649558Y-58627000D01*
X104699999Y-58631968D01*
X104750440Y-58627000D01*
X105650451Y-58627000D01*
X105801327Y-58612140D01*
X105994917Y-58553415D01*
X106173331Y-58458051D01*
X106329712Y-58329712D01*
X106458051Y-58173331D01*
X106553415Y-57994917D01*
X106612140Y-57801327D01*
X106631969Y-57600000D01*
X106612140Y-57398673D01*
X106553415Y-57205083D01*
X106458051Y-57026669D01*
X106329712Y-56870288D01*
X106173331Y-56741949D01*
X105994917Y-56646585D01*
X105801327Y-56587860D01*
X105650451Y-56573000D01*
X105125397Y-56573000D01*
X100927000Y-52374604D01*
X100927000Y-52000000D01*
X101668032Y-52000000D01*
X101673000Y-52050441D01*
X101673000Y-52050450D01*
X101687860Y-52201326D01*
X101746585Y-52394916D01*
X101841949Y-52573331D01*
X101970288Y-52729712D01*
X102009481Y-52761877D01*
X104838128Y-55590525D01*
X104870288Y-55629712D01*
X105026669Y-55758051D01*
X105205083Y-55853415D01*
X105398673Y-55912140D01*
X105549549Y-55927000D01*
X105549558Y-55927000D01*
X105599999Y-55931968D01*
X105650440Y-55927000D01*
X112749559Y-55927000D01*
X112800000Y-55931968D01*
X112850441Y-55927000D01*
X112850451Y-55927000D01*
X113001327Y-55912140D01*
X113194917Y-55853415D01*
X113373331Y-55758051D01*
X113529712Y-55629712D01*
X113561877Y-55590519D01*
X113825396Y-55327000D01*
X120150451Y-55327000D01*
X120301327Y-55312140D01*
X120494917Y-55253415D01*
X120673331Y-55158051D01*
X120829712Y-55029712D01*
X120958051Y-54873331D01*
X121053415Y-54694917D01*
X121112140Y-54501327D01*
X121131969Y-54300000D01*
X121112140Y-54098673D01*
X121053415Y-53905083D01*
X120958051Y-53726669D01*
X120829712Y-53570288D01*
X120673331Y-53441949D01*
X120494917Y-53346585D01*
X120301327Y-53287860D01*
X120150451Y-53273000D01*
X113450440Y-53273000D01*
X113399999Y-53268032D01*
X113349558Y-53273000D01*
X113349549Y-53273000D01*
X113198673Y-53287860D01*
X113005083Y-53346585D01*
X112826669Y-53441949D01*
X112670288Y-53570288D01*
X112638123Y-53609481D01*
X112374604Y-53873000D01*
X106025397Y-53873000D01*
X103727000Y-51574604D01*
X103727000Y-50949549D01*
X103712140Y-50798673D01*
X103653415Y-50605083D01*
X103558051Y-50426669D01*
X103469319Y-50318548D01*
X107273000Y-50318548D01*
X107273000Y-50481452D01*
X107304782Y-50641227D01*
X107367123Y-50791731D01*
X107413000Y-50860391D01*
X107413000Y-51290521D01*
X107409676Y-51324266D01*
X107413000Y-51358011D01*
X107413000Y-51358015D01*
X107422940Y-51458941D01*
X107452877Y-51557628D01*
X107462224Y-51588441D01*
X107526016Y-51707789D01*
X107579387Y-51772821D01*
X107611867Y-51812398D01*
X107638082Y-51833912D01*
X109166084Y-53361914D01*
X109187601Y-53388133D01*
X109235182Y-53427181D01*
X109292210Y-53473983D01*
X109349831Y-53504782D01*
X109411558Y-53537776D01*
X109541058Y-53577060D01*
X109639197Y-53586725D01*
X109708267Y-53632877D01*
X109858771Y-53695218D01*
X110018546Y-53727000D01*
X110181450Y-53727000D01*
X110341225Y-53695218D01*
X110491729Y-53632877D01*
X110627179Y-53542372D01*
X110742370Y-53427181D01*
X110832875Y-53291731D01*
X110895216Y-53141227D01*
X110926998Y-52981452D01*
X110926998Y-52818548D01*
X110895216Y-52658773D01*
X110832875Y-52508269D01*
X110742370Y-52372819D01*
X110627179Y-52257628D01*
X110491729Y-52167123D01*
X110382512Y-52121884D01*
X110395210Y-52091227D01*
X110426992Y-51931452D01*
X110426992Y-51768548D01*
X110395210Y-51608773D01*
X110332869Y-51458269D01*
X110286992Y-51389609D01*
X110286992Y-50184572D01*
X111953016Y-48518548D01*
X112773000Y-48518548D01*
X112773000Y-48681452D01*
X112804782Y-48841227D01*
X112867123Y-48991731D01*
X112913000Y-49060391D01*
X112913001Y-51739608D01*
X112867123Y-51808269D01*
X112804782Y-51958773D01*
X112773000Y-52118548D01*
X112773000Y-52281452D01*
X112804782Y-52441227D01*
X112867123Y-52591731D01*
X112957628Y-52727181D01*
X113072819Y-52842372D01*
X113208269Y-52932877D01*
X113358773Y-52995218D01*
X113518548Y-53027000D01*
X113681452Y-53027000D01*
X113841227Y-52995218D01*
X113991731Y-52932877D01*
X114127181Y-52842372D01*
X114211462Y-52758091D01*
X114257628Y-52827183D01*
X114372819Y-52942374D01*
X114508269Y-53032879D01*
X114658773Y-53095220D01*
X114818548Y-53127002D01*
X114981452Y-53127002D01*
X115141227Y-53095220D01*
X115291731Y-53032879D01*
X115427181Y-52942374D01*
X115542372Y-52827183D01*
X115632877Y-52691733D01*
X115695218Y-52541229D01*
X115727000Y-52381454D01*
X115727000Y-52218550D01*
X115695218Y-52058775D01*
X115632877Y-51908271D01*
X115587000Y-51839611D01*
X115587000Y-51518548D01*
X119273000Y-51518548D01*
X119273000Y-51681452D01*
X119304782Y-51841227D01*
X119367123Y-51991731D01*
X119457628Y-52127181D01*
X119572819Y-52242372D01*
X119708269Y-52332877D01*
X119858773Y-52395218D01*
X120018548Y-52427000D01*
X120181452Y-52427000D01*
X120341227Y-52395218D01*
X120491731Y-52332877D01*
X120627181Y-52242372D01*
X120742372Y-52127181D01*
X120832877Y-51991731D01*
X120895218Y-51841227D01*
X120927000Y-51681452D01*
X120927000Y-51518548D01*
X120895218Y-51358773D01*
X120832877Y-51208269D01*
X120742372Y-51072819D01*
X120627181Y-50957628D01*
X120491731Y-50867123D01*
X120341227Y-50804782D01*
X120181452Y-50773000D01*
X120018548Y-50773000D01*
X119858773Y-50804782D01*
X119708269Y-50867123D01*
X119572819Y-50957628D01*
X119457628Y-51072819D01*
X119367123Y-51208269D01*
X119304782Y-51358773D01*
X119273000Y-51518548D01*
X115587000Y-51518548D01*
X115587000Y-49260391D01*
X115632877Y-49191731D01*
X115695218Y-49041227D01*
X115727000Y-48881452D01*
X115727000Y-48718548D01*
X115695218Y-48558773D01*
X115632877Y-48408269D01*
X115542372Y-48272819D01*
X115427181Y-48157628D01*
X115291731Y-48067123D01*
X115141227Y-48004782D01*
X114981452Y-47973000D01*
X114818548Y-47973000D01*
X114658773Y-48004782D01*
X114508269Y-48067123D01*
X114372819Y-48157628D01*
X114328592Y-48201855D01*
X114242372Y-48072819D01*
X114127181Y-47957628D01*
X113991731Y-47867123D01*
X113841227Y-47804782D01*
X113681452Y-47773000D01*
X113518548Y-47773000D01*
X113358773Y-47804782D01*
X113208269Y-47867123D01*
X113072819Y-47957628D01*
X112957628Y-48072819D01*
X112867123Y-48208269D01*
X112804782Y-48358773D01*
X112773000Y-48518548D01*
X111953016Y-48518548D01*
X113160235Y-47311329D01*
X113241227Y-47295218D01*
X113391731Y-47232877D01*
X113527181Y-47142372D01*
X113642372Y-47027181D01*
X113732877Y-46891731D01*
X113795218Y-46741227D01*
X113827000Y-46581452D01*
X113827000Y-46418548D01*
X113795218Y-46258773D01*
X113732877Y-46108269D01*
X113642372Y-45972819D01*
X113527181Y-45857628D01*
X113391731Y-45767123D01*
X113241227Y-45704782D01*
X113081452Y-45673000D01*
X112918548Y-45673000D01*
X112758773Y-45704782D01*
X112608269Y-45767123D01*
X112472819Y-45857628D01*
X112357628Y-45972819D01*
X112267123Y-46108269D01*
X112204782Y-46258773D01*
X112188671Y-46339765D01*
X109138074Y-49390362D01*
X109111860Y-49411875D01*
X109090347Y-49438089D01*
X109090345Y-49438091D01*
X109026008Y-49516485D01*
X108962216Y-49635833D01*
X108952725Y-49667123D01*
X108922933Y-49765332D01*
X108919018Y-49805083D01*
X108909668Y-49900008D01*
X108912993Y-49933762D01*
X108912993Y-50248130D01*
X108895218Y-50158773D01*
X108832877Y-50008269D01*
X108742372Y-49872819D01*
X108627181Y-49757628D01*
X108491731Y-49667123D01*
X108341227Y-49604782D01*
X108181452Y-49573000D01*
X108018548Y-49573000D01*
X107858773Y-49604782D01*
X107708269Y-49667123D01*
X107572819Y-49757628D01*
X107457628Y-49872819D01*
X107367123Y-50008269D01*
X107304782Y-50158773D01*
X107273000Y-50318548D01*
X103469319Y-50318548D01*
X103429712Y-50270288D01*
X103273331Y-50141949D01*
X103094917Y-50046585D01*
X102901327Y-49987860D01*
X102700000Y-49968031D01*
X102498674Y-49987860D01*
X102305084Y-50046585D01*
X102126670Y-50141949D01*
X101970289Y-50270288D01*
X101841950Y-50426669D01*
X101746586Y-50605083D01*
X101687861Y-50798673D01*
X101673001Y-50949549D01*
X101673000Y-51949558D01*
X101668032Y-52000000D01*
X100927000Y-52000000D01*
X100927000Y-45925396D01*
X101561872Y-45290525D01*
X101658050Y-45173332D01*
X101753414Y-44994918D01*
X101812139Y-44801328D01*
X101831968Y-44600001D01*
X101812139Y-44398673D01*
X101753414Y-44205083D01*
X101658050Y-44026669D01*
X101553532Y-43899312D01*
X105667700Y-43899312D01*
X105667700Y-44100688D01*
X105706987Y-44298194D01*
X105784050Y-44484240D01*
X105895928Y-44651678D01*
X106038322Y-44794072D01*
X106205760Y-44905950D01*
X106391806Y-44983013D01*
X106589312Y-45022300D01*
X106790688Y-45022300D01*
X106988194Y-44983013D01*
X107174240Y-44905950D01*
X107341678Y-44794072D01*
X107484072Y-44651678D01*
X107595950Y-44484240D01*
X107673013Y-44298194D01*
X107712300Y-44100688D01*
X107712300Y-43899312D01*
X107673013Y-43701806D01*
X107595950Y-43515760D01*
X107484072Y-43348322D01*
X107341678Y-43205928D01*
X107174240Y-43094050D01*
X106988194Y-43016987D01*
X106790688Y-42977700D01*
X106589312Y-42977700D01*
X106391806Y-43016987D01*
X106205760Y-43094050D01*
X106038322Y-43205928D01*
X105895928Y-43348322D01*
X105784050Y-43515760D01*
X105706987Y-43701806D01*
X105667700Y-43899312D01*
X101553532Y-43899312D01*
X101529712Y-43870288D01*
X101373331Y-43741950D01*
X101194917Y-43646586D01*
X101001327Y-43587861D01*
X100799999Y-43568032D01*
X100598672Y-43587861D01*
X100405082Y-43646586D01*
X100226668Y-43741950D01*
X100109475Y-43838128D01*
X99209476Y-44738128D01*
X99170289Y-44770288D01*
X99138129Y-44809475D01*
X99138128Y-44809476D01*
X99041950Y-44926669D01*
X98946586Y-45105083D01*
X98887861Y-45298673D01*
X98868032Y-45500000D01*
X83801964Y-45500000D01*
X83853210Y-45423306D01*
X83968319Y-45145410D01*
X84027000Y-44850396D01*
X84027000Y-44549604D01*
X83968319Y-44254590D01*
X83853210Y-43976694D01*
X83686099Y-43726594D01*
X83473406Y-43513901D01*
X83223306Y-43346790D01*
X82945410Y-43231681D01*
X82650396Y-43173000D01*
X82349604Y-43173000D01*
X82054590Y-43231681D01*
X81776694Y-43346790D01*
X81526594Y-43513901D01*
X81367495Y-43673000D01*
X80850440Y-43673000D01*
X80799999Y-43668032D01*
X80749558Y-43673000D01*
X80749549Y-43673000D01*
X80598673Y-43687860D01*
X80405083Y-43746585D01*
X80226669Y-43841949D01*
X80070288Y-43970288D01*
X80038128Y-44009475D01*
X78374604Y-45673000D01*
X77250440Y-45673000D01*
X77199999Y-45668032D01*
X77149558Y-45673000D01*
X77149549Y-45673000D01*
X76998673Y-45687860D01*
X76805083Y-45746585D01*
X76626669Y-45841949D01*
X76470288Y-45970288D01*
X76438127Y-46009476D01*
X75609480Y-46838123D01*
X75570288Y-46870288D01*
X75441949Y-47026669D01*
X75346585Y-47205084D01*
X75287860Y-47398674D01*
X75273000Y-47549550D01*
X75273000Y-47549559D01*
X75268032Y-47600000D01*
X74902000Y-47600000D01*
X74902000Y-42883312D01*
X113287700Y-42883312D01*
X113287700Y-43084688D01*
X113326987Y-43282194D01*
X113404050Y-43468240D01*
X113515928Y-43635678D01*
X113658322Y-43778072D01*
X113825760Y-43889950D01*
X114011806Y-43967013D01*
X114177640Y-44000000D01*
X114011806Y-44032987D01*
X113825760Y-44110050D01*
X113658322Y-44221928D01*
X113515928Y-44364322D01*
X113404050Y-44531760D01*
X113326987Y-44717806D01*
X113287700Y-44915312D01*
X113287700Y-45116688D01*
X113326987Y-45314194D01*
X113404050Y-45500240D01*
X113515928Y-45667678D01*
X113658322Y-45810072D01*
X113825760Y-45921950D01*
X114011806Y-45999013D01*
X114209312Y-46038300D01*
X114410688Y-46038300D01*
X114608194Y-45999013D01*
X114794240Y-45921950D01*
X114961678Y-45810072D01*
X115104072Y-45667678D01*
X115215950Y-45500240D01*
X115293013Y-45314194D01*
X115332300Y-45116688D01*
X115332300Y-44915312D01*
X115293013Y-44717806D01*
X115215950Y-44531760D01*
X115104072Y-44364322D01*
X114961678Y-44221928D01*
X114794240Y-44110050D01*
X114608194Y-44032987D01*
X114442360Y-44000000D01*
X114608194Y-43967013D01*
X114794240Y-43889950D01*
X114961678Y-43778072D01*
X115104072Y-43635678D01*
X115215950Y-43468240D01*
X115293013Y-43282194D01*
X115332300Y-43084688D01*
X115332300Y-42883312D01*
X115293013Y-42685806D01*
X115215950Y-42499760D01*
X115104072Y-42332322D01*
X114961678Y-42189928D01*
X114794240Y-42078050D01*
X114608194Y-42000987D01*
X114410688Y-41961700D01*
X114209312Y-41961700D01*
X114011806Y-42000987D01*
X113825760Y-42078050D01*
X113658322Y-42189928D01*
X113515928Y-42332322D01*
X113404050Y-42499760D01*
X113326987Y-42685806D01*
X113287700Y-42883312D01*
X74902000Y-42883312D01*
X74902000Y-39602000D01*
X121098000Y-39602000D01*
X121098001Y-41570424D01*
M02*
