G04 #@! TF.GenerationSoftware,KiCad,Pcbnew,5.1.2-f72e74a~84~ubuntu19.04.1*
G04 #@! TF.CreationDate,2019-06-20T20:29:00+03:00*
G04 #@! TF.ProjectId,GB-CART2M-A,47422d43-4152-4543-924d-2d412e6b6963,v1.1*
G04 #@! TF.SameCoordinates,Original*
G04 #@! TF.FileFunction,Soldermask,Top*
G04 #@! TF.FilePolarity,Negative*
%FSLAX46Y46*%
G04 Gerber Fmt 4.6, Leading zero omitted, Abs format (unit mm)*
G04 Created by KiCad (PCBNEW 5.1.2-f72e74a~84~ubuntu19.04.1) date 2019-06-20 20:29:00*
%MOMM*%
%LPD*%
G04 APERTURE LIST*
%ADD10C,0.150000*%
%ADD11C,0.100000*%
G04 APERTURE END LIST*
D10*
X74800000Y-91400000D02*
G75*
G02X74300000Y-90900000I0J500000D01*
G01*
X74300000Y-39500000D02*
G75*
G02X74800000Y-39000000I500000J0D01*
G01*
X121200000Y-39000000D02*
G75*
G02X121700000Y-39500000I0J-500000D01*
G01*
X125200000Y-41600000D02*
G75*
G02X125700000Y-42100000I0J-500000D01*
G01*
X125700000Y-90900000D02*
G75*
G02X125200000Y-91400000I-500000J0D01*
G01*
X76300000Y-100000000D02*
G75*
G02X75400000Y-99100000I0J900000D01*
G01*
X124600000Y-99100000D02*
G75*
G02X123700000Y-100000000I-900000J0D01*
G01*
X121700000Y-39500000D02*
X121700000Y-41600000D01*
X74800000Y-39000000D02*
X121200000Y-39000000D01*
X125200000Y-41600000D02*
X121700000Y-41600000D01*
X74300000Y-90900000D02*
X74300000Y-39500000D01*
X75400000Y-91400000D02*
X74800000Y-91400000D01*
X75400000Y-99100000D02*
X75400000Y-91400000D01*
X125700000Y-90900000D02*
X125700000Y-42100000D01*
X124600000Y-91400000D02*
X125200000Y-91400000D01*
X124600000Y-99100000D02*
X124600000Y-91400000D01*
X76300000Y-100000000D02*
X123700000Y-100000000D01*
D11*
G36*
X124050000Y-99000000D02*
G01*
X122750000Y-99000000D01*
X122750000Y-93000000D01*
X124050000Y-93000000D01*
X124050000Y-99000000D01*
X124050000Y-99000000D01*
G37*
G36*
X77250000Y-99000000D02*
G01*
X75950000Y-99000000D01*
X75950000Y-93000000D01*
X77250000Y-93000000D01*
X77250000Y-99000000D01*
X77250000Y-99000000D01*
G37*
G36*
X122250000Y-98500000D02*
G01*
X121250000Y-98500000D01*
X121250000Y-93000000D01*
X122250000Y-93000000D01*
X122250000Y-98500000D01*
X122250000Y-98500000D01*
G37*
G36*
X98250000Y-98500000D02*
G01*
X97250000Y-98500000D01*
X97250000Y-93000000D01*
X98250000Y-93000000D01*
X98250000Y-98500000D01*
X98250000Y-98500000D01*
G37*
G36*
X96750000Y-98500000D02*
G01*
X95750000Y-98500000D01*
X95750000Y-93000000D01*
X96750000Y-93000000D01*
X96750000Y-98500000D01*
X96750000Y-98500000D01*
G37*
G36*
X95250000Y-98500000D02*
G01*
X94250000Y-98500000D01*
X94250000Y-93000000D01*
X95250000Y-93000000D01*
X95250000Y-98500000D01*
X95250000Y-98500000D01*
G37*
G36*
X93750000Y-98500000D02*
G01*
X92750000Y-98500000D01*
X92750000Y-93000000D01*
X93750000Y-93000000D01*
X93750000Y-98500000D01*
X93750000Y-98500000D01*
G37*
G36*
X92250000Y-98500000D02*
G01*
X91250000Y-98500000D01*
X91250000Y-93000000D01*
X92250000Y-93000000D01*
X92250000Y-98500000D01*
X92250000Y-98500000D01*
G37*
G36*
X90750000Y-98500000D02*
G01*
X89750000Y-98500000D01*
X89750000Y-93000000D01*
X90750000Y-93000000D01*
X90750000Y-98500000D01*
X90750000Y-98500000D01*
G37*
G36*
X89250000Y-98500000D02*
G01*
X88250000Y-98500000D01*
X88250000Y-93000000D01*
X89250000Y-93000000D01*
X89250000Y-98500000D01*
X89250000Y-98500000D01*
G37*
G36*
X87750000Y-98500000D02*
G01*
X86750000Y-98500000D01*
X86750000Y-93000000D01*
X87750000Y-93000000D01*
X87750000Y-98500000D01*
X87750000Y-98500000D01*
G37*
G36*
X86250000Y-98500000D02*
G01*
X85250000Y-98500000D01*
X85250000Y-93000000D01*
X86250000Y-93000000D01*
X86250000Y-98500000D01*
X86250000Y-98500000D01*
G37*
G36*
X84750000Y-98500000D02*
G01*
X83750000Y-98500000D01*
X83750000Y-93000000D01*
X84750000Y-93000000D01*
X84750000Y-98500000D01*
X84750000Y-98500000D01*
G37*
G36*
X83250000Y-98500000D02*
G01*
X82250000Y-98500000D01*
X82250000Y-93000000D01*
X83250000Y-93000000D01*
X83250000Y-98500000D01*
X83250000Y-98500000D01*
G37*
G36*
X81750000Y-98500000D02*
G01*
X80750000Y-98500000D01*
X80750000Y-93000000D01*
X81750000Y-93000000D01*
X81750000Y-98500000D01*
X81750000Y-98500000D01*
G37*
G36*
X80250000Y-98500000D02*
G01*
X79250000Y-98500000D01*
X79250000Y-93000000D01*
X80250000Y-93000000D01*
X80250000Y-98500000D01*
X80250000Y-98500000D01*
G37*
G36*
X78750000Y-98500000D02*
G01*
X77750000Y-98500000D01*
X77750000Y-93000000D01*
X78750000Y-93000000D01*
X78750000Y-98500000D01*
X78750000Y-98500000D01*
G37*
G36*
X101250000Y-98500000D02*
G01*
X100250000Y-98500000D01*
X100250000Y-93000000D01*
X101250000Y-93000000D01*
X101250000Y-98500000D01*
X101250000Y-98500000D01*
G37*
G36*
X99750000Y-98500000D02*
G01*
X98750000Y-98500000D01*
X98750000Y-93000000D01*
X99750000Y-93000000D01*
X99750000Y-98500000D01*
X99750000Y-98500000D01*
G37*
G36*
X120750000Y-98500000D02*
G01*
X119750000Y-98500000D01*
X119750000Y-93000000D01*
X120750000Y-93000000D01*
X120750000Y-98500000D01*
X120750000Y-98500000D01*
G37*
G36*
X119250000Y-98500000D02*
G01*
X118250000Y-98500000D01*
X118250000Y-93000000D01*
X119250000Y-93000000D01*
X119250000Y-98500000D01*
X119250000Y-98500000D01*
G37*
G36*
X117750000Y-98500000D02*
G01*
X116750000Y-98500000D01*
X116750000Y-93000000D01*
X117750000Y-93000000D01*
X117750000Y-98500000D01*
X117750000Y-98500000D01*
G37*
G36*
X116250000Y-98500000D02*
G01*
X115250000Y-98500000D01*
X115250000Y-93000000D01*
X116250000Y-93000000D01*
X116250000Y-98500000D01*
X116250000Y-98500000D01*
G37*
G36*
X114750000Y-98500000D02*
G01*
X113750000Y-98500000D01*
X113750000Y-93000000D01*
X114750000Y-93000000D01*
X114750000Y-98500000D01*
X114750000Y-98500000D01*
G37*
G36*
X113250000Y-98500000D02*
G01*
X112250000Y-98500000D01*
X112250000Y-93000000D01*
X113250000Y-93000000D01*
X113250000Y-98500000D01*
X113250000Y-98500000D01*
G37*
G36*
X111750000Y-98500000D02*
G01*
X110750000Y-98500000D01*
X110750000Y-93000000D01*
X111750000Y-93000000D01*
X111750000Y-98500000D01*
X111750000Y-98500000D01*
G37*
G36*
X110250000Y-98500000D02*
G01*
X109250000Y-98500000D01*
X109250000Y-93000000D01*
X110250000Y-93000000D01*
X110250000Y-98500000D01*
X110250000Y-98500000D01*
G37*
G36*
X108750000Y-98500000D02*
G01*
X107750000Y-98500000D01*
X107750000Y-93000000D01*
X108750000Y-93000000D01*
X108750000Y-98500000D01*
X108750000Y-98500000D01*
G37*
G36*
X107250000Y-98500000D02*
G01*
X106250000Y-98500000D01*
X106250000Y-93000000D01*
X107250000Y-93000000D01*
X107250000Y-98500000D01*
X107250000Y-98500000D01*
G37*
G36*
X105750000Y-98500000D02*
G01*
X104750000Y-98500000D01*
X104750000Y-93000000D01*
X105750000Y-93000000D01*
X105750000Y-98500000D01*
X105750000Y-98500000D01*
G37*
G36*
X104250000Y-98500000D02*
G01*
X103250000Y-98500000D01*
X103250000Y-93000000D01*
X104250000Y-93000000D01*
X104250000Y-98500000D01*
X104250000Y-98500000D01*
G37*
G36*
X102750000Y-98500000D02*
G01*
X101750000Y-98500000D01*
X101750000Y-93000000D01*
X102750000Y-93000000D01*
X102750000Y-98500000D01*
X102750000Y-98500000D01*
G37*
G36*
X101050081Y-81188346D02*
G01*
X101050083Y-81188347D01*
X101050084Y-81188347D01*
X101292095Y-81288591D01*
X101705240Y-81459721D01*
X102294866Y-81853697D01*
X102796303Y-82355134D01*
X103190279Y-82944760D01*
X103461654Y-83599919D01*
X103600000Y-84295431D01*
X103600000Y-85004569D01*
X103461654Y-85700081D01*
X103190279Y-86355240D01*
X102796303Y-86944866D01*
X102294866Y-87446303D01*
X101705240Y-87840279D01*
X101292095Y-88011409D01*
X101050084Y-88111653D01*
X101050083Y-88111653D01*
X101050081Y-88111654D01*
X100354569Y-88250000D01*
X99645431Y-88250000D01*
X98949919Y-88111654D01*
X98949917Y-88111653D01*
X98949916Y-88111653D01*
X98707905Y-88011409D01*
X98294760Y-87840279D01*
X97705134Y-87446303D01*
X97203697Y-86944866D01*
X96809721Y-86355240D01*
X96538346Y-85700081D01*
X96400000Y-85004569D01*
X96400000Y-84295431D01*
X96538346Y-83599919D01*
X96809721Y-82944760D01*
X97203697Y-82355134D01*
X97705134Y-81853697D01*
X98294760Y-81459721D01*
X98707905Y-81288591D01*
X98949916Y-81188347D01*
X98949917Y-81188347D01*
X98949919Y-81188346D01*
X99645431Y-81050000D01*
X100354569Y-81050000D01*
X101050081Y-81188346D01*
X101050081Y-81188346D01*
G37*
G36*
X95832145Y-75333355D02*
G01*
X95850813Y-75339018D01*
X95868020Y-75348216D01*
X95883101Y-75360591D01*
X95895476Y-75375672D01*
X95904674Y-75392879D01*
X95910337Y-75411547D01*
X95912732Y-75435868D01*
X95912732Y-76701052D01*
X95910337Y-76725373D01*
X95904674Y-76744041D01*
X95895476Y-76761248D01*
X95883101Y-76776329D01*
X95868020Y-76788704D01*
X95850813Y-76797902D01*
X95832145Y-76803565D01*
X95807824Y-76805960D01*
X95417640Y-76805960D01*
X95393319Y-76803565D01*
X95374651Y-76797902D01*
X95357444Y-76788704D01*
X95342363Y-76776329D01*
X95329988Y-76761248D01*
X95320790Y-76744041D01*
X95315127Y-76725373D01*
X95312732Y-76701052D01*
X95312732Y-75435868D01*
X95315127Y-75411547D01*
X95320790Y-75392879D01*
X95329988Y-75375672D01*
X95342363Y-75360591D01*
X95357444Y-75348216D01*
X95374651Y-75339018D01*
X95393319Y-75333355D01*
X95417640Y-75330960D01*
X95807824Y-75330960D01*
X95832145Y-75333355D01*
X95832145Y-75333355D01*
G37*
G36*
X97102145Y-75333355D02*
G01*
X97120813Y-75339018D01*
X97138020Y-75348216D01*
X97153101Y-75360591D01*
X97165476Y-75375672D01*
X97174674Y-75392879D01*
X97180337Y-75411547D01*
X97182732Y-75435868D01*
X97182732Y-76701052D01*
X97180337Y-76725373D01*
X97174674Y-76744041D01*
X97165476Y-76761248D01*
X97153101Y-76776329D01*
X97138020Y-76788704D01*
X97120813Y-76797902D01*
X97102145Y-76803565D01*
X97077824Y-76805960D01*
X96687640Y-76805960D01*
X96663319Y-76803565D01*
X96644651Y-76797902D01*
X96627444Y-76788704D01*
X96612363Y-76776329D01*
X96599988Y-76761248D01*
X96590790Y-76744041D01*
X96585127Y-76725373D01*
X96582732Y-76701052D01*
X96582732Y-75435868D01*
X96585127Y-75411547D01*
X96590790Y-75392879D01*
X96599988Y-75375672D01*
X96612363Y-75360591D01*
X96627444Y-75348216D01*
X96644651Y-75339018D01*
X96663319Y-75333355D01*
X96687640Y-75330960D01*
X97077824Y-75330960D01*
X97102145Y-75333355D01*
X97102145Y-75333355D01*
G37*
G36*
X98372145Y-75333355D02*
G01*
X98390813Y-75339018D01*
X98408020Y-75348216D01*
X98423101Y-75360591D01*
X98435476Y-75375672D01*
X98444674Y-75392879D01*
X98450337Y-75411547D01*
X98452732Y-75435868D01*
X98452732Y-76701052D01*
X98450337Y-76725373D01*
X98444674Y-76744041D01*
X98435476Y-76761248D01*
X98423101Y-76776329D01*
X98408020Y-76788704D01*
X98390813Y-76797902D01*
X98372145Y-76803565D01*
X98347824Y-76805960D01*
X97957640Y-76805960D01*
X97933319Y-76803565D01*
X97914651Y-76797902D01*
X97897444Y-76788704D01*
X97882363Y-76776329D01*
X97869988Y-76761248D01*
X97860790Y-76744041D01*
X97855127Y-76725373D01*
X97852732Y-76701052D01*
X97852732Y-75435868D01*
X97855127Y-75411547D01*
X97860790Y-75392879D01*
X97869988Y-75375672D01*
X97882363Y-75360591D01*
X97897444Y-75348216D01*
X97914651Y-75339018D01*
X97933319Y-75333355D01*
X97957640Y-75330960D01*
X98347824Y-75330960D01*
X98372145Y-75333355D01*
X98372145Y-75333355D01*
G37*
G36*
X99642145Y-75333355D02*
G01*
X99660813Y-75339018D01*
X99678020Y-75348216D01*
X99693101Y-75360591D01*
X99705476Y-75375672D01*
X99714674Y-75392879D01*
X99720337Y-75411547D01*
X99722732Y-75435868D01*
X99722732Y-76701052D01*
X99720337Y-76725373D01*
X99714674Y-76744041D01*
X99705476Y-76761248D01*
X99693101Y-76776329D01*
X99678020Y-76788704D01*
X99660813Y-76797902D01*
X99642145Y-76803565D01*
X99617824Y-76805960D01*
X99227640Y-76805960D01*
X99203319Y-76803565D01*
X99184651Y-76797902D01*
X99167444Y-76788704D01*
X99152363Y-76776329D01*
X99139988Y-76761248D01*
X99130790Y-76744041D01*
X99125127Y-76725373D01*
X99122732Y-76701052D01*
X99122732Y-75435868D01*
X99125127Y-75411547D01*
X99130790Y-75392879D01*
X99139988Y-75375672D01*
X99152363Y-75360591D01*
X99167444Y-75348216D01*
X99184651Y-75339018D01*
X99203319Y-75333355D01*
X99227640Y-75330960D01*
X99617824Y-75330960D01*
X99642145Y-75333355D01*
X99642145Y-75333355D01*
G37*
G36*
X93292145Y-75333355D02*
G01*
X93310813Y-75339018D01*
X93328020Y-75348216D01*
X93343101Y-75360591D01*
X93355476Y-75375672D01*
X93364674Y-75392879D01*
X93370337Y-75411547D01*
X93372732Y-75435868D01*
X93372732Y-76701052D01*
X93370337Y-76725373D01*
X93364674Y-76744041D01*
X93355476Y-76761248D01*
X93343101Y-76776329D01*
X93328020Y-76788704D01*
X93310813Y-76797902D01*
X93292145Y-76803565D01*
X93267824Y-76805960D01*
X92877640Y-76805960D01*
X92853319Y-76803565D01*
X92834651Y-76797902D01*
X92817444Y-76788704D01*
X92802363Y-76776329D01*
X92789988Y-76761248D01*
X92780790Y-76744041D01*
X92775127Y-76725373D01*
X92772732Y-76701052D01*
X92772732Y-75435868D01*
X92775127Y-75411547D01*
X92780790Y-75392879D01*
X92789988Y-75375672D01*
X92802363Y-75360591D01*
X92817444Y-75348216D01*
X92834651Y-75339018D01*
X92853319Y-75333355D01*
X92877640Y-75330960D01*
X93267824Y-75330960D01*
X93292145Y-75333355D01*
X93292145Y-75333355D01*
G37*
G36*
X92022145Y-75333355D02*
G01*
X92040813Y-75339018D01*
X92058020Y-75348216D01*
X92073101Y-75360591D01*
X92085476Y-75375672D01*
X92094674Y-75392879D01*
X92100337Y-75411547D01*
X92102732Y-75435868D01*
X92102732Y-76701052D01*
X92100337Y-76725373D01*
X92094674Y-76744041D01*
X92085476Y-76761248D01*
X92073101Y-76776329D01*
X92058020Y-76788704D01*
X92040813Y-76797902D01*
X92022145Y-76803565D01*
X91997824Y-76805960D01*
X91607640Y-76805960D01*
X91583319Y-76803565D01*
X91564651Y-76797902D01*
X91547444Y-76788704D01*
X91532363Y-76776329D01*
X91519988Y-76761248D01*
X91510790Y-76744041D01*
X91505127Y-76725373D01*
X91502732Y-76701052D01*
X91502732Y-75435868D01*
X91505127Y-75411547D01*
X91510790Y-75392879D01*
X91519988Y-75375672D01*
X91532363Y-75360591D01*
X91547444Y-75348216D01*
X91564651Y-75339018D01*
X91583319Y-75333355D01*
X91607640Y-75330960D01*
X91997824Y-75330960D01*
X92022145Y-75333355D01*
X92022145Y-75333355D01*
G37*
G36*
X90752145Y-75333355D02*
G01*
X90770813Y-75339018D01*
X90788020Y-75348216D01*
X90803101Y-75360591D01*
X90815476Y-75375672D01*
X90824674Y-75392879D01*
X90830337Y-75411547D01*
X90832732Y-75435868D01*
X90832732Y-76701052D01*
X90830337Y-76725373D01*
X90824674Y-76744041D01*
X90815476Y-76761248D01*
X90803101Y-76776329D01*
X90788020Y-76788704D01*
X90770813Y-76797902D01*
X90752145Y-76803565D01*
X90727824Y-76805960D01*
X90337640Y-76805960D01*
X90313319Y-76803565D01*
X90294651Y-76797902D01*
X90277444Y-76788704D01*
X90262363Y-76776329D01*
X90249988Y-76761248D01*
X90240790Y-76744041D01*
X90235127Y-76725373D01*
X90232732Y-76701052D01*
X90232732Y-75435868D01*
X90235127Y-75411547D01*
X90240790Y-75392879D01*
X90249988Y-75375672D01*
X90262363Y-75360591D01*
X90277444Y-75348216D01*
X90294651Y-75339018D01*
X90313319Y-75333355D01*
X90337640Y-75330960D01*
X90727824Y-75330960D01*
X90752145Y-75333355D01*
X90752145Y-75333355D01*
G37*
G36*
X100912145Y-75333355D02*
G01*
X100930813Y-75339018D01*
X100948020Y-75348216D01*
X100963101Y-75360591D01*
X100975476Y-75375672D01*
X100984674Y-75392879D01*
X100990337Y-75411547D01*
X100992732Y-75435868D01*
X100992732Y-76701052D01*
X100990337Y-76725373D01*
X100984674Y-76744041D01*
X100975476Y-76761248D01*
X100963101Y-76776329D01*
X100948020Y-76788704D01*
X100930813Y-76797902D01*
X100912145Y-76803565D01*
X100887824Y-76805960D01*
X100497640Y-76805960D01*
X100473319Y-76803565D01*
X100454651Y-76797902D01*
X100437444Y-76788704D01*
X100422363Y-76776329D01*
X100409988Y-76761248D01*
X100400790Y-76744041D01*
X100395127Y-76725373D01*
X100392732Y-76701052D01*
X100392732Y-75435868D01*
X100395127Y-75411547D01*
X100400790Y-75392879D01*
X100409988Y-75375672D01*
X100422363Y-75360591D01*
X100437444Y-75348216D01*
X100454651Y-75339018D01*
X100473319Y-75333355D01*
X100497640Y-75330960D01*
X100887824Y-75330960D01*
X100912145Y-75333355D01*
X100912145Y-75333355D01*
G37*
G36*
X94562145Y-75333355D02*
G01*
X94580813Y-75339018D01*
X94598020Y-75348216D01*
X94613101Y-75360591D01*
X94625476Y-75375672D01*
X94634674Y-75392879D01*
X94640337Y-75411547D01*
X94642732Y-75435868D01*
X94642732Y-76701052D01*
X94640337Y-76725373D01*
X94634674Y-76744041D01*
X94625476Y-76761248D01*
X94613101Y-76776329D01*
X94598020Y-76788704D01*
X94580813Y-76797902D01*
X94562145Y-76803565D01*
X94537824Y-76805960D01*
X94147640Y-76805960D01*
X94123319Y-76803565D01*
X94104651Y-76797902D01*
X94087444Y-76788704D01*
X94072363Y-76776329D01*
X94059988Y-76761248D01*
X94050790Y-76744041D01*
X94045127Y-76725373D01*
X94042732Y-76701052D01*
X94042732Y-75435868D01*
X94045127Y-75411547D01*
X94050790Y-75392879D01*
X94059988Y-75375672D01*
X94072363Y-75360591D01*
X94087444Y-75348216D01*
X94104651Y-75339018D01*
X94123319Y-75333355D01*
X94147640Y-75330960D01*
X94537824Y-75330960D01*
X94562145Y-75333355D01*
X94562145Y-75333355D01*
G37*
G36*
X103107145Y-74018355D02*
G01*
X103125813Y-74024018D01*
X103143020Y-74033216D01*
X103158101Y-74045591D01*
X103170476Y-74060672D01*
X103179674Y-74077879D01*
X103185337Y-74096547D01*
X103187732Y-74120868D01*
X103187732Y-74511052D01*
X103185337Y-74535373D01*
X103179674Y-74554041D01*
X103170476Y-74571248D01*
X103158101Y-74586329D01*
X103143020Y-74598704D01*
X103125813Y-74607902D01*
X103107145Y-74613565D01*
X103082824Y-74615960D01*
X101817640Y-74615960D01*
X101793319Y-74613565D01*
X101774651Y-74607902D01*
X101757444Y-74598704D01*
X101742363Y-74586329D01*
X101729988Y-74571248D01*
X101720790Y-74554041D01*
X101715127Y-74535373D01*
X101712732Y-74511052D01*
X101712732Y-74120868D01*
X101715127Y-74096547D01*
X101720790Y-74077879D01*
X101729988Y-74060672D01*
X101742363Y-74045591D01*
X101757444Y-74033216D01*
X101774651Y-74024018D01*
X101793319Y-74018355D01*
X101817640Y-74015960D01*
X103082824Y-74015960D01*
X103107145Y-74018355D01*
X103107145Y-74018355D01*
G37*
G36*
X89432145Y-74018355D02*
G01*
X89450813Y-74024018D01*
X89468020Y-74033216D01*
X89483101Y-74045591D01*
X89495476Y-74060672D01*
X89504674Y-74077879D01*
X89510337Y-74096547D01*
X89512732Y-74120868D01*
X89512732Y-74511052D01*
X89510337Y-74535373D01*
X89504674Y-74554041D01*
X89495476Y-74571248D01*
X89483101Y-74586329D01*
X89468020Y-74598704D01*
X89450813Y-74607902D01*
X89432145Y-74613565D01*
X89407824Y-74615960D01*
X88142640Y-74615960D01*
X88118319Y-74613565D01*
X88099651Y-74607902D01*
X88082444Y-74598704D01*
X88067363Y-74586329D01*
X88054988Y-74571248D01*
X88045790Y-74554041D01*
X88040127Y-74535373D01*
X88037732Y-74511052D01*
X88037732Y-74120868D01*
X88040127Y-74096547D01*
X88045790Y-74077879D01*
X88054988Y-74060672D01*
X88067363Y-74045591D01*
X88082444Y-74033216D01*
X88099651Y-74024018D01*
X88118319Y-74018355D01*
X88142640Y-74015960D01*
X89407824Y-74015960D01*
X89432145Y-74018355D01*
X89432145Y-74018355D01*
G37*
G36*
X89432145Y-72748355D02*
G01*
X89450813Y-72754018D01*
X89468020Y-72763216D01*
X89483101Y-72775591D01*
X89495476Y-72790672D01*
X89504674Y-72807879D01*
X89510337Y-72826547D01*
X89512732Y-72850868D01*
X89512732Y-73241052D01*
X89510337Y-73265373D01*
X89504674Y-73284041D01*
X89495476Y-73301248D01*
X89483101Y-73316329D01*
X89468020Y-73328704D01*
X89450813Y-73337902D01*
X89432145Y-73343565D01*
X89407824Y-73345960D01*
X88142640Y-73345960D01*
X88118319Y-73343565D01*
X88099651Y-73337902D01*
X88082444Y-73328704D01*
X88067363Y-73316329D01*
X88054988Y-73301248D01*
X88045790Y-73284041D01*
X88040127Y-73265373D01*
X88037732Y-73241052D01*
X88037732Y-72850868D01*
X88040127Y-72826547D01*
X88045790Y-72807879D01*
X88054988Y-72790672D01*
X88067363Y-72775591D01*
X88082444Y-72763216D01*
X88099651Y-72754018D01*
X88118319Y-72748355D01*
X88142640Y-72745960D01*
X89407824Y-72745960D01*
X89432145Y-72748355D01*
X89432145Y-72748355D01*
G37*
G36*
X103107145Y-72748355D02*
G01*
X103125813Y-72754018D01*
X103143020Y-72763216D01*
X103158101Y-72775591D01*
X103170476Y-72790672D01*
X103179674Y-72807879D01*
X103185337Y-72826547D01*
X103187732Y-72850868D01*
X103187732Y-73241052D01*
X103185337Y-73265373D01*
X103179674Y-73284041D01*
X103170476Y-73301248D01*
X103158101Y-73316329D01*
X103143020Y-73328704D01*
X103125813Y-73337902D01*
X103107145Y-73343565D01*
X103082824Y-73345960D01*
X101817640Y-73345960D01*
X101793319Y-73343565D01*
X101774651Y-73337902D01*
X101757444Y-73328704D01*
X101742363Y-73316329D01*
X101729988Y-73301248D01*
X101720790Y-73284041D01*
X101715127Y-73265373D01*
X101712732Y-73241052D01*
X101712732Y-72850868D01*
X101715127Y-72826547D01*
X101720790Y-72807879D01*
X101729988Y-72790672D01*
X101742363Y-72775591D01*
X101757444Y-72763216D01*
X101774651Y-72754018D01*
X101793319Y-72748355D01*
X101817640Y-72745960D01*
X103082824Y-72745960D01*
X103107145Y-72748355D01*
X103107145Y-72748355D01*
G37*
G36*
X89432145Y-71478355D02*
G01*
X89450813Y-71484018D01*
X89468020Y-71493216D01*
X89483101Y-71505591D01*
X89495476Y-71520672D01*
X89504674Y-71537879D01*
X89510337Y-71556547D01*
X89512732Y-71580868D01*
X89512732Y-71971052D01*
X89510337Y-71995373D01*
X89504674Y-72014041D01*
X89495476Y-72031248D01*
X89483101Y-72046329D01*
X89468020Y-72058704D01*
X89450813Y-72067902D01*
X89432145Y-72073565D01*
X89407824Y-72075960D01*
X88142640Y-72075960D01*
X88118319Y-72073565D01*
X88099651Y-72067902D01*
X88082444Y-72058704D01*
X88067363Y-72046329D01*
X88054988Y-72031248D01*
X88045790Y-72014041D01*
X88040127Y-71995373D01*
X88037732Y-71971052D01*
X88037732Y-71580868D01*
X88040127Y-71556547D01*
X88045790Y-71537879D01*
X88054988Y-71520672D01*
X88067363Y-71505591D01*
X88082444Y-71493216D01*
X88099651Y-71484018D01*
X88118319Y-71478355D01*
X88142640Y-71475960D01*
X89407824Y-71475960D01*
X89432145Y-71478355D01*
X89432145Y-71478355D01*
G37*
G36*
X103107145Y-71478355D02*
G01*
X103125813Y-71484018D01*
X103143020Y-71493216D01*
X103158101Y-71505591D01*
X103170476Y-71520672D01*
X103179674Y-71537879D01*
X103185337Y-71556547D01*
X103187732Y-71580868D01*
X103187732Y-71971052D01*
X103185337Y-71995373D01*
X103179674Y-72014041D01*
X103170476Y-72031248D01*
X103158101Y-72046329D01*
X103143020Y-72058704D01*
X103125813Y-72067902D01*
X103107145Y-72073565D01*
X103082824Y-72075960D01*
X101817640Y-72075960D01*
X101793319Y-72073565D01*
X101774651Y-72067902D01*
X101757444Y-72058704D01*
X101742363Y-72046329D01*
X101729988Y-72031248D01*
X101720790Y-72014041D01*
X101715127Y-71995373D01*
X101712732Y-71971052D01*
X101712732Y-71580868D01*
X101715127Y-71556547D01*
X101720790Y-71537879D01*
X101729988Y-71520672D01*
X101742363Y-71505591D01*
X101757444Y-71493216D01*
X101774651Y-71484018D01*
X101793319Y-71478355D01*
X101817640Y-71475960D01*
X103082824Y-71475960D01*
X103107145Y-71478355D01*
X103107145Y-71478355D01*
G37*
G36*
X89432145Y-70208355D02*
G01*
X89450813Y-70214018D01*
X89468020Y-70223216D01*
X89483101Y-70235591D01*
X89495476Y-70250672D01*
X89504674Y-70267879D01*
X89510337Y-70286547D01*
X89512732Y-70310868D01*
X89512732Y-70701052D01*
X89510337Y-70725373D01*
X89504674Y-70744041D01*
X89495476Y-70761248D01*
X89483101Y-70776329D01*
X89468020Y-70788704D01*
X89450813Y-70797902D01*
X89432145Y-70803565D01*
X89407824Y-70805960D01*
X88142640Y-70805960D01*
X88118319Y-70803565D01*
X88099651Y-70797902D01*
X88082444Y-70788704D01*
X88067363Y-70776329D01*
X88054988Y-70761248D01*
X88045790Y-70744041D01*
X88040127Y-70725373D01*
X88037732Y-70701052D01*
X88037732Y-70310868D01*
X88040127Y-70286547D01*
X88045790Y-70267879D01*
X88054988Y-70250672D01*
X88067363Y-70235591D01*
X88082444Y-70223216D01*
X88099651Y-70214018D01*
X88118319Y-70208355D01*
X88142640Y-70205960D01*
X89407824Y-70205960D01*
X89432145Y-70208355D01*
X89432145Y-70208355D01*
G37*
G36*
X103107145Y-70208355D02*
G01*
X103125813Y-70214018D01*
X103143020Y-70223216D01*
X103158101Y-70235591D01*
X103170476Y-70250672D01*
X103179674Y-70267879D01*
X103185337Y-70286547D01*
X103187732Y-70310868D01*
X103187732Y-70701052D01*
X103185337Y-70725373D01*
X103179674Y-70744041D01*
X103170476Y-70761248D01*
X103158101Y-70776329D01*
X103143020Y-70788704D01*
X103125813Y-70797902D01*
X103107145Y-70803565D01*
X103082824Y-70805960D01*
X101817640Y-70805960D01*
X101793319Y-70803565D01*
X101774651Y-70797902D01*
X101757444Y-70788704D01*
X101742363Y-70776329D01*
X101729988Y-70761248D01*
X101720790Y-70744041D01*
X101715127Y-70725373D01*
X101712732Y-70701052D01*
X101712732Y-70310868D01*
X101715127Y-70286547D01*
X101720790Y-70267879D01*
X101729988Y-70250672D01*
X101742363Y-70235591D01*
X101757444Y-70223216D01*
X101774651Y-70214018D01*
X101793319Y-70208355D01*
X101817640Y-70205960D01*
X103082824Y-70205960D01*
X103107145Y-70208355D01*
X103107145Y-70208355D01*
G37*
G36*
X85676809Y-68734677D02*
G01*
X85708375Y-68744252D01*
X85737465Y-68759800D01*
X85762964Y-68780728D01*
X85783892Y-68806227D01*
X85799440Y-68835317D01*
X85809015Y-68866883D01*
X85812732Y-68904618D01*
X85812732Y-69507302D01*
X85809015Y-69545037D01*
X85799440Y-69576603D01*
X85783892Y-69605693D01*
X85762964Y-69631192D01*
X85737465Y-69652120D01*
X85708375Y-69667668D01*
X85676809Y-69677243D01*
X85639074Y-69680960D01*
X85111390Y-69680960D01*
X85073655Y-69677243D01*
X85042089Y-69667668D01*
X85012999Y-69652120D01*
X84987500Y-69631192D01*
X84966572Y-69605693D01*
X84951024Y-69576603D01*
X84941449Y-69545037D01*
X84937732Y-69507302D01*
X84937732Y-68904618D01*
X84941449Y-68866883D01*
X84951024Y-68835317D01*
X84966572Y-68806227D01*
X84987500Y-68780728D01*
X85012999Y-68759800D01*
X85042089Y-68744252D01*
X85073655Y-68734677D01*
X85111390Y-68730960D01*
X85639074Y-68730960D01*
X85676809Y-68734677D01*
X85676809Y-68734677D01*
G37*
G36*
X87251809Y-68734677D02*
G01*
X87283375Y-68744252D01*
X87312465Y-68759800D01*
X87337964Y-68780728D01*
X87358892Y-68806227D01*
X87374440Y-68835317D01*
X87384015Y-68866883D01*
X87387732Y-68904618D01*
X87387732Y-69507302D01*
X87384015Y-69545037D01*
X87374440Y-69576603D01*
X87358892Y-69605693D01*
X87337964Y-69631192D01*
X87312465Y-69652120D01*
X87283375Y-69667668D01*
X87251809Y-69677243D01*
X87214074Y-69680960D01*
X86686390Y-69680960D01*
X86648655Y-69677243D01*
X86617089Y-69667668D01*
X86587999Y-69652120D01*
X86562500Y-69631192D01*
X86541572Y-69605693D01*
X86526024Y-69576603D01*
X86516449Y-69545037D01*
X86512732Y-69507302D01*
X86512732Y-68904618D01*
X86516449Y-68866883D01*
X86526024Y-68835317D01*
X86541572Y-68806227D01*
X86562500Y-68780728D01*
X86587999Y-68759800D01*
X86617089Y-68744252D01*
X86648655Y-68734677D01*
X86686390Y-68730960D01*
X87214074Y-68730960D01*
X87251809Y-68734677D01*
X87251809Y-68734677D01*
G37*
G36*
X89432145Y-68938355D02*
G01*
X89450813Y-68944018D01*
X89468020Y-68953216D01*
X89483101Y-68965591D01*
X89495476Y-68980672D01*
X89504674Y-68997879D01*
X89510337Y-69016547D01*
X89512732Y-69040868D01*
X89512732Y-69431052D01*
X89510337Y-69455373D01*
X89504674Y-69474041D01*
X89495476Y-69491248D01*
X89483101Y-69506329D01*
X89468020Y-69518704D01*
X89450813Y-69527902D01*
X89432145Y-69533565D01*
X89407824Y-69535960D01*
X88142640Y-69535960D01*
X88118319Y-69533565D01*
X88099651Y-69527902D01*
X88082444Y-69518704D01*
X88067363Y-69506329D01*
X88054988Y-69491248D01*
X88045790Y-69474041D01*
X88040127Y-69455373D01*
X88037732Y-69431052D01*
X88037732Y-69040868D01*
X88040127Y-69016547D01*
X88045790Y-68997879D01*
X88054988Y-68980672D01*
X88067363Y-68965591D01*
X88082444Y-68953216D01*
X88099651Y-68944018D01*
X88118319Y-68938355D01*
X88142640Y-68935960D01*
X89407824Y-68935960D01*
X89432145Y-68938355D01*
X89432145Y-68938355D01*
G37*
G36*
X103107145Y-68938355D02*
G01*
X103125813Y-68944018D01*
X103143020Y-68953216D01*
X103158101Y-68965591D01*
X103170476Y-68980672D01*
X103179674Y-68997879D01*
X103185337Y-69016547D01*
X103187732Y-69040868D01*
X103187732Y-69431052D01*
X103185337Y-69455373D01*
X103179674Y-69474041D01*
X103170476Y-69491248D01*
X103158101Y-69506329D01*
X103143020Y-69518704D01*
X103125813Y-69527902D01*
X103107145Y-69533565D01*
X103082824Y-69535960D01*
X101817640Y-69535960D01*
X101793319Y-69533565D01*
X101774651Y-69527902D01*
X101757444Y-69518704D01*
X101742363Y-69506329D01*
X101729988Y-69491248D01*
X101720790Y-69474041D01*
X101715127Y-69455373D01*
X101712732Y-69431052D01*
X101712732Y-69040868D01*
X101715127Y-69016547D01*
X101720790Y-68997879D01*
X101729988Y-68980672D01*
X101742363Y-68965591D01*
X101757444Y-68953216D01*
X101774651Y-68944018D01*
X101793319Y-68938355D01*
X101817640Y-68935960D01*
X103082824Y-68935960D01*
X103107145Y-68938355D01*
X103107145Y-68938355D01*
G37*
G36*
X103107145Y-67668355D02*
G01*
X103125813Y-67674018D01*
X103143020Y-67683216D01*
X103158101Y-67695591D01*
X103170476Y-67710672D01*
X103179674Y-67727879D01*
X103185337Y-67746547D01*
X103187732Y-67770868D01*
X103187732Y-68161052D01*
X103185337Y-68185373D01*
X103179674Y-68204041D01*
X103170476Y-68221248D01*
X103158101Y-68236329D01*
X103143020Y-68248704D01*
X103125813Y-68257902D01*
X103107145Y-68263565D01*
X103082824Y-68265960D01*
X101817640Y-68265960D01*
X101793319Y-68263565D01*
X101774651Y-68257902D01*
X101757444Y-68248704D01*
X101742363Y-68236329D01*
X101729988Y-68221248D01*
X101720790Y-68204041D01*
X101715127Y-68185373D01*
X101712732Y-68161052D01*
X101712732Y-67770868D01*
X101715127Y-67746547D01*
X101720790Y-67727879D01*
X101729988Y-67710672D01*
X101742363Y-67695591D01*
X101757444Y-67683216D01*
X101774651Y-67674018D01*
X101793319Y-67668355D01*
X101817640Y-67665960D01*
X103082824Y-67665960D01*
X103107145Y-67668355D01*
X103107145Y-67668355D01*
G37*
G36*
X89432145Y-67668355D02*
G01*
X89450813Y-67674018D01*
X89468020Y-67683216D01*
X89483101Y-67695591D01*
X89495476Y-67710672D01*
X89504674Y-67727879D01*
X89510337Y-67746547D01*
X89512732Y-67770868D01*
X89512732Y-68161052D01*
X89510337Y-68185373D01*
X89504674Y-68204041D01*
X89495476Y-68221248D01*
X89483101Y-68236329D01*
X89468020Y-68248704D01*
X89450813Y-68257902D01*
X89432145Y-68263565D01*
X89407824Y-68265960D01*
X88142640Y-68265960D01*
X88118319Y-68263565D01*
X88099651Y-68257902D01*
X88082444Y-68248704D01*
X88067363Y-68236329D01*
X88054988Y-68221248D01*
X88045790Y-68204041D01*
X88040127Y-68185373D01*
X88037732Y-68161052D01*
X88037732Y-67770868D01*
X88040127Y-67746547D01*
X88045790Y-67727879D01*
X88054988Y-67710672D01*
X88067363Y-67695591D01*
X88082444Y-67683216D01*
X88099651Y-67674018D01*
X88118319Y-67668355D01*
X88142640Y-67665960D01*
X89407824Y-67665960D01*
X89432145Y-67668355D01*
X89432145Y-67668355D01*
G37*
G36*
X89432145Y-66398355D02*
G01*
X89450813Y-66404018D01*
X89468020Y-66413216D01*
X89483101Y-66425591D01*
X89495476Y-66440672D01*
X89504674Y-66457879D01*
X89510337Y-66476547D01*
X89512732Y-66500868D01*
X89512732Y-66891052D01*
X89510337Y-66915373D01*
X89504674Y-66934041D01*
X89495476Y-66951248D01*
X89483101Y-66966329D01*
X89468020Y-66978704D01*
X89450813Y-66987902D01*
X89432145Y-66993565D01*
X89407824Y-66995960D01*
X88142640Y-66995960D01*
X88118319Y-66993565D01*
X88099651Y-66987902D01*
X88082444Y-66978704D01*
X88067363Y-66966329D01*
X88054988Y-66951248D01*
X88045790Y-66934041D01*
X88040127Y-66915373D01*
X88037732Y-66891052D01*
X88037732Y-66500868D01*
X88040127Y-66476547D01*
X88045790Y-66457879D01*
X88054988Y-66440672D01*
X88067363Y-66425591D01*
X88082444Y-66413216D01*
X88099651Y-66404018D01*
X88118319Y-66398355D01*
X88142640Y-66395960D01*
X89407824Y-66395960D01*
X89432145Y-66398355D01*
X89432145Y-66398355D01*
G37*
G36*
X103107145Y-66398355D02*
G01*
X103125813Y-66404018D01*
X103143020Y-66413216D01*
X103158101Y-66425591D01*
X103170476Y-66440672D01*
X103179674Y-66457879D01*
X103185337Y-66476547D01*
X103187732Y-66500868D01*
X103187732Y-66891052D01*
X103185337Y-66915373D01*
X103179674Y-66934041D01*
X103170476Y-66951248D01*
X103158101Y-66966329D01*
X103143020Y-66978704D01*
X103125813Y-66987902D01*
X103107145Y-66993565D01*
X103082824Y-66995960D01*
X101817640Y-66995960D01*
X101793319Y-66993565D01*
X101774651Y-66987902D01*
X101757444Y-66978704D01*
X101742363Y-66966329D01*
X101729988Y-66951248D01*
X101720790Y-66934041D01*
X101715127Y-66915373D01*
X101712732Y-66891052D01*
X101712732Y-66500868D01*
X101715127Y-66476547D01*
X101720790Y-66457879D01*
X101729988Y-66440672D01*
X101742363Y-66425591D01*
X101757444Y-66413216D01*
X101774651Y-66404018D01*
X101793319Y-66398355D01*
X101817640Y-66395960D01*
X103082824Y-66395960D01*
X103107145Y-66398355D01*
X103107145Y-66398355D01*
G37*
G36*
X92022145Y-64208355D02*
G01*
X92040813Y-64214018D01*
X92058020Y-64223216D01*
X92073101Y-64235591D01*
X92085476Y-64250672D01*
X92094674Y-64267879D01*
X92100337Y-64286547D01*
X92102732Y-64310868D01*
X92102732Y-65576052D01*
X92100337Y-65600373D01*
X92094674Y-65619041D01*
X92085476Y-65636248D01*
X92073101Y-65651329D01*
X92058020Y-65663704D01*
X92040813Y-65672902D01*
X92022145Y-65678565D01*
X91997824Y-65680960D01*
X91607640Y-65680960D01*
X91583319Y-65678565D01*
X91564651Y-65672902D01*
X91547444Y-65663704D01*
X91532363Y-65651329D01*
X91519988Y-65636248D01*
X91510790Y-65619041D01*
X91505127Y-65600373D01*
X91502732Y-65576052D01*
X91502732Y-64310868D01*
X91505127Y-64286547D01*
X91510790Y-64267879D01*
X91519988Y-64250672D01*
X91532363Y-64235591D01*
X91547444Y-64223216D01*
X91564651Y-64214018D01*
X91583319Y-64208355D01*
X91607640Y-64205960D01*
X91997824Y-64205960D01*
X92022145Y-64208355D01*
X92022145Y-64208355D01*
G37*
G36*
X90752145Y-64208355D02*
G01*
X90770813Y-64214018D01*
X90788020Y-64223216D01*
X90803101Y-64235591D01*
X90815476Y-64250672D01*
X90824674Y-64267879D01*
X90830337Y-64286547D01*
X90832732Y-64310868D01*
X90832732Y-65576052D01*
X90830337Y-65600373D01*
X90824674Y-65619041D01*
X90815476Y-65636248D01*
X90803101Y-65651329D01*
X90788020Y-65663704D01*
X90770813Y-65672902D01*
X90752145Y-65678565D01*
X90727824Y-65680960D01*
X90337640Y-65680960D01*
X90313319Y-65678565D01*
X90294651Y-65672902D01*
X90277444Y-65663704D01*
X90262363Y-65651329D01*
X90249988Y-65636248D01*
X90240790Y-65619041D01*
X90235127Y-65600373D01*
X90232732Y-65576052D01*
X90232732Y-64310868D01*
X90235127Y-64286547D01*
X90240790Y-64267879D01*
X90249988Y-64250672D01*
X90262363Y-64235591D01*
X90277444Y-64223216D01*
X90294651Y-64214018D01*
X90313319Y-64208355D01*
X90337640Y-64205960D01*
X90727824Y-64205960D01*
X90752145Y-64208355D01*
X90752145Y-64208355D01*
G37*
G36*
X100912145Y-64208355D02*
G01*
X100930813Y-64214018D01*
X100948020Y-64223216D01*
X100963101Y-64235591D01*
X100975476Y-64250672D01*
X100984674Y-64267879D01*
X100990337Y-64286547D01*
X100992732Y-64310868D01*
X100992732Y-65576052D01*
X100990337Y-65600373D01*
X100984674Y-65619041D01*
X100975476Y-65636248D01*
X100963101Y-65651329D01*
X100948020Y-65663704D01*
X100930813Y-65672902D01*
X100912145Y-65678565D01*
X100887824Y-65680960D01*
X100497640Y-65680960D01*
X100473319Y-65678565D01*
X100454651Y-65672902D01*
X100437444Y-65663704D01*
X100422363Y-65651329D01*
X100409988Y-65636248D01*
X100400790Y-65619041D01*
X100395127Y-65600373D01*
X100392732Y-65576052D01*
X100392732Y-64310868D01*
X100395127Y-64286547D01*
X100400790Y-64267879D01*
X100409988Y-64250672D01*
X100422363Y-64235591D01*
X100437444Y-64223216D01*
X100454651Y-64214018D01*
X100473319Y-64208355D01*
X100497640Y-64205960D01*
X100887824Y-64205960D01*
X100912145Y-64208355D01*
X100912145Y-64208355D01*
G37*
G36*
X99642145Y-64208355D02*
G01*
X99660813Y-64214018D01*
X99678020Y-64223216D01*
X99693101Y-64235591D01*
X99705476Y-64250672D01*
X99714674Y-64267879D01*
X99720337Y-64286547D01*
X99722732Y-64310868D01*
X99722732Y-65576052D01*
X99720337Y-65600373D01*
X99714674Y-65619041D01*
X99705476Y-65636248D01*
X99693101Y-65651329D01*
X99678020Y-65663704D01*
X99660813Y-65672902D01*
X99642145Y-65678565D01*
X99617824Y-65680960D01*
X99227640Y-65680960D01*
X99203319Y-65678565D01*
X99184651Y-65672902D01*
X99167444Y-65663704D01*
X99152363Y-65651329D01*
X99139988Y-65636248D01*
X99130790Y-65619041D01*
X99125127Y-65600373D01*
X99122732Y-65576052D01*
X99122732Y-64310868D01*
X99125127Y-64286547D01*
X99130790Y-64267879D01*
X99139988Y-64250672D01*
X99152363Y-64235591D01*
X99167444Y-64223216D01*
X99184651Y-64214018D01*
X99203319Y-64208355D01*
X99227640Y-64205960D01*
X99617824Y-64205960D01*
X99642145Y-64208355D01*
X99642145Y-64208355D01*
G37*
G36*
X98372145Y-64208355D02*
G01*
X98390813Y-64214018D01*
X98408020Y-64223216D01*
X98423101Y-64235591D01*
X98435476Y-64250672D01*
X98444674Y-64267879D01*
X98450337Y-64286547D01*
X98452732Y-64310868D01*
X98452732Y-65576052D01*
X98450337Y-65600373D01*
X98444674Y-65619041D01*
X98435476Y-65636248D01*
X98423101Y-65651329D01*
X98408020Y-65663704D01*
X98390813Y-65672902D01*
X98372145Y-65678565D01*
X98347824Y-65680960D01*
X97957640Y-65680960D01*
X97933319Y-65678565D01*
X97914651Y-65672902D01*
X97897444Y-65663704D01*
X97882363Y-65651329D01*
X97869988Y-65636248D01*
X97860790Y-65619041D01*
X97855127Y-65600373D01*
X97852732Y-65576052D01*
X97852732Y-64310868D01*
X97855127Y-64286547D01*
X97860790Y-64267879D01*
X97869988Y-64250672D01*
X97882363Y-64235591D01*
X97897444Y-64223216D01*
X97914651Y-64214018D01*
X97933319Y-64208355D01*
X97957640Y-64205960D01*
X98347824Y-64205960D01*
X98372145Y-64208355D01*
X98372145Y-64208355D01*
G37*
G36*
X93292145Y-64208355D02*
G01*
X93310813Y-64214018D01*
X93328020Y-64223216D01*
X93343101Y-64235591D01*
X93355476Y-64250672D01*
X93364674Y-64267879D01*
X93370337Y-64286547D01*
X93372732Y-64310868D01*
X93372732Y-65576052D01*
X93370337Y-65600373D01*
X93364674Y-65619041D01*
X93355476Y-65636248D01*
X93343101Y-65651329D01*
X93328020Y-65663704D01*
X93310813Y-65672902D01*
X93292145Y-65678565D01*
X93267824Y-65680960D01*
X92877640Y-65680960D01*
X92853319Y-65678565D01*
X92834651Y-65672902D01*
X92817444Y-65663704D01*
X92802363Y-65651329D01*
X92789988Y-65636248D01*
X92780790Y-65619041D01*
X92775127Y-65600373D01*
X92772732Y-65576052D01*
X92772732Y-64310868D01*
X92775127Y-64286547D01*
X92780790Y-64267879D01*
X92789988Y-64250672D01*
X92802363Y-64235591D01*
X92817444Y-64223216D01*
X92834651Y-64214018D01*
X92853319Y-64208355D01*
X92877640Y-64205960D01*
X93267824Y-64205960D01*
X93292145Y-64208355D01*
X93292145Y-64208355D01*
G37*
G36*
X94562145Y-64208355D02*
G01*
X94580813Y-64214018D01*
X94598020Y-64223216D01*
X94613101Y-64235591D01*
X94625476Y-64250672D01*
X94634674Y-64267879D01*
X94640337Y-64286547D01*
X94642732Y-64310868D01*
X94642732Y-65576052D01*
X94640337Y-65600373D01*
X94634674Y-65619041D01*
X94625476Y-65636248D01*
X94613101Y-65651329D01*
X94598020Y-65663704D01*
X94580813Y-65672902D01*
X94562145Y-65678565D01*
X94537824Y-65680960D01*
X94147640Y-65680960D01*
X94123319Y-65678565D01*
X94104651Y-65672902D01*
X94087444Y-65663704D01*
X94072363Y-65651329D01*
X94059988Y-65636248D01*
X94050790Y-65619041D01*
X94045127Y-65600373D01*
X94042732Y-65576052D01*
X94042732Y-64310868D01*
X94045127Y-64286547D01*
X94050790Y-64267879D01*
X94059988Y-64250672D01*
X94072363Y-64235591D01*
X94087444Y-64223216D01*
X94104651Y-64214018D01*
X94123319Y-64208355D01*
X94147640Y-64205960D01*
X94537824Y-64205960D01*
X94562145Y-64208355D01*
X94562145Y-64208355D01*
G37*
G36*
X95832145Y-64208355D02*
G01*
X95850813Y-64214018D01*
X95868020Y-64223216D01*
X95883101Y-64235591D01*
X95895476Y-64250672D01*
X95904674Y-64267879D01*
X95910337Y-64286547D01*
X95912732Y-64310868D01*
X95912732Y-65576052D01*
X95910337Y-65600373D01*
X95904674Y-65619041D01*
X95895476Y-65636248D01*
X95883101Y-65651329D01*
X95868020Y-65663704D01*
X95850813Y-65672902D01*
X95832145Y-65678565D01*
X95807824Y-65680960D01*
X95417640Y-65680960D01*
X95393319Y-65678565D01*
X95374651Y-65672902D01*
X95357444Y-65663704D01*
X95342363Y-65651329D01*
X95329988Y-65636248D01*
X95320790Y-65619041D01*
X95315127Y-65600373D01*
X95312732Y-65576052D01*
X95312732Y-64310868D01*
X95315127Y-64286547D01*
X95320790Y-64267879D01*
X95329988Y-64250672D01*
X95342363Y-64235591D01*
X95357444Y-64223216D01*
X95374651Y-64214018D01*
X95393319Y-64208355D01*
X95417640Y-64205960D01*
X95807824Y-64205960D01*
X95832145Y-64208355D01*
X95832145Y-64208355D01*
G37*
G36*
X97102145Y-64208355D02*
G01*
X97120813Y-64214018D01*
X97138020Y-64223216D01*
X97153101Y-64235591D01*
X97165476Y-64250672D01*
X97174674Y-64267879D01*
X97180337Y-64286547D01*
X97182732Y-64310868D01*
X97182732Y-65576052D01*
X97180337Y-65600373D01*
X97174674Y-65619041D01*
X97165476Y-65636248D01*
X97153101Y-65651329D01*
X97138020Y-65663704D01*
X97120813Y-65672902D01*
X97102145Y-65678565D01*
X97077824Y-65680960D01*
X96687640Y-65680960D01*
X96663319Y-65678565D01*
X96644651Y-65672902D01*
X96627444Y-65663704D01*
X96612363Y-65651329D01*
X96599988Y-65636248D01*
X96590790Y-65619041D01*
X96585127Y-65600373D01*
X96582732Y-65576052D01*
X96582732Y-64310868D01*
X96585127Y-64286547D01*
X96590790Y-64267879D01*
X96599988Y-64250672D01*
X96612363Y-64235591D01*
X96627444Y-64223216D01*
X96644651Y-64214018D01*
X96663319Y-64208355D01*
X96687640Y-64205960D01*
X97077824Y-64205960D01*
X97102145Y-64208355D01*
X97102145Y-64208355D01*
G37*
G36*
X79239077Y-61253717D02*
G01*
X79270643Y-61263292D01*
X79299733Y-61278840D01*
X79325232Y-61299768D01*
X79346160Y-61325267D01*
X79361708Y-61354357D01*
X79371283Y-61385923D01*
X79375000Y-61423658D01*
X79375000Y-61951342D01*
X79371283Y-61989077D01*
X79361708Y-62020643D01*
X79346160Y-62049733D01*
X79325232Y-62075232D01*
X79299733Y-62096160D01*
X79270643Y-62111708D01*
X79239077Y-62121283D01*
X79201342Y-62125000D01*
X78598658Y-62125000D01*
X78560923Y-62121283D01*
X78529357Y-62111708D01*
X78500267Y-62096160D01*
X78474768Y-62075232D01*
X78453840Y-62049733D01*
X78438292Y-62020643D01*
X78428717Y-61989077D01*
X78425000Y-61951342D01*
X78425000Y-61423658D01*
X78428717Y-61385923D01*
X78438292Y-61354357D01*
X78453840Y-61325267D01*
X78474768Y-61299768D01*
X78500267Y-61278840D01*
X78529357Y-61263292D01*
X78560923Y-61253717D01*
X78598658Y-61250000D01*
X79201342Y-61250000D01*
X79239077Y-61253717D01*
X79239077Y-61253717D01*
G37*
G36*
X76795090Y-59119214D02*
G01*
X76891689Y-59138429D01*
X77073678Y-59213811D01*
X77237463Y-59323249D01*
X77376751Y-59462537D01*
X77486189Y-59626322D01*
X77561571Y-59808311D01*
X77569596Y-59848658D01*
X77596805Y-59985443D01*
X77600000Y-60001509D01*
X77600000Y-60198491D01*
X77561571Y-60391689D01*
X77486189Y-60573678D01*
X77376751Y-60737463D01*
X77237463Y-60876751D01*
X77073678Y-60986189D01*
X76891689Y-61061571D01*
X76795090Y-61080785D01*
X76698493Y-61100000D01*
X76501507Y-61100000D01*
X76404910Y-61080785D01*
X76308311Y-61061571D01*
X76126322Y-60986189D01*
X75962537Y-60876751D01*
X75823249Y-60737463D01*
X75713811Y-60573678D01*
X75638429Y-60391689D01*
X75600000Y-60198491D01*
X75600000Y-60001509D01*
X75603196Y-59985443D01*
X75630404Y-59848658D01*
X75638429Y-59808311D01*
X75713811Y-59626322D01*
X75823249Y-59462537D01*
X75962537Y-59323249D01*
X76126322Y-59213811D01*
X76308311Y-59138429D01*
X76404910Y-59119214D01*
X76501507Y-59100000D01*
X76698493Y-59100000D01*
X76795090Y-59119214D01*
X76795090Y-59119214D01*
G37*
G36*
X100335443Y-58544194D02*
G01*
X100335446Y-58544195D01*
X100335445Y-58544195D01*
X100544728Y-58630883D01*
X100544729Y-58630884D01*
X100733082Y-58756737D01*
X100893263Y-58916918D01*
X100899381Y-58926074D01*
X101019117Y-59105272D01*
X101032851Y-59138429D01*
X101105806Y-59314557D01*
X101150000Y-59536735D01*
X101150000Y-59763265D01*
X101105806Y-59985443D01*
X101105805Y-59985445D01*
X101019117Y-60194728D01*
X100961239Y-60281349D01*
X100893263Y-60383082D01*
X100733082Y-60543263D01*
X100687561Y-60573679D01*
X100544728Y-60669117D01*
X100382855Y-60736167D01*
X100335443Y-60755806D01*
X100113265Y-60800000D01*
X99886735Y-60800000D01*
X99664557Y-60755806D01*
X99617145Y-60736167D01*
X99455272Y-60669117D01*
X99312439Y-60573679D01*
X99266918Y-60543263D01*
X99106737Y-60383082D01*
X99038761Y-60281349D01*
X98980883Y-60194728D01*
X98894195Y-59985445D01*
X98894194Y-59985443D01*
X98850000Y-59763265D01*
X98850000Y-59536735D01*
X98894194Y-59314557D01*
X98967149Y-59138429D01*
X98980883Y-59105272D01*
X99100619Y-58926074D01*
X99106737Y-58916918D01*
X99266918Y-58756737D01*
X99455271Y-58630884D01*
X99455272Y-58630883D01*
X99664555Y-58544195D01*
X99664554Y-58544195D01*
X99664557Y-58544194D01*
X99886735Y-58500000D01*
X100113265Y-58500000D01*
X100335443Y-58544194D01*
X100335443Y-58544194D01*
G37*
G36*
X82849998Y-59549999D02*
G01*
X82850000Y-59550000D01*
X82850484Y-59554910D01*
X82850484Y-60045090D01*
X82849197Y-60058153D01*
X82848558Y-60061365D01*
X82848076Y-60071175D01*
X82848076Y-60094099D01*
X82847109Y-60103913D01*
X82829901Y-60190424D01*
X82827037Y-60199865D01*
X82793286Y-60281349D01*
X82788637Y-60290047D01*
X82739636Y-60363383D01*
X82733375Y-60371011D01*
X82671011Y-60433375D01*
X82663383Y-60439636D01*
X82590047Y-60488637D01*
X82581349Y-60493286D01*
X82499865Y-60527037D01*
X82495144Y-60528469D01*
X82495142Y-60528470D01*
X82495140Y-60528470D01*
X82490424Y-60529901D01*
X82403913Y-60547109D01*
X82394099Y-60548076D01*
X82371175Y-60548076D01*
X82359816Y-60549195D01*
X82359800Y-60549035D01*
X82345090Y-60550484D01*
X81854910Y-60550484D01*
X81841847Y-60549197D01*
X81838635Y-60548558D01*
X81828825Y-60548076D01*
X81805901Y-60548076D01*
X81796087Y-60547109D01*
X81709576Y-60529901D01*
X81704860Y-60528470D01*
X81704858Y-60528470D01*
X81704856Y-60528469D01*
X81700135Y-60527037D01*
X81618651Y-60493286D01*
X81609953Y-60488637D01*
X81536617Y-60439636D01*
X81528989Y-60433375D01*
X81466625Y-60371011D01*
X81460364Y-60363383D01*
X81411363Y-60290047D01*
X81406714Y-60281349D01*
X81372963Y-60199865D01*
X81370099Y-60190424D01*
X81352891Y-60103913D01*
X81351924Y-60094099D01*
X81351924Y-60071175D01*
X81350805Y-60059816D01*
X81350965Y-60059800D01*
X81350000Y-60050000D01*
X81349516Y-60045090D01*
X81349516Y-59554910D01*
X81350000Y-59550000D01*
X81349999Y-59550000D01*
X81350002Y-59549999D01*
X81354910Y-59549516D01*
X82845090Y-59549516D01*
X82849998Y-59549999D01*
X82849998Y-59549999D01*
G37*
G36*
X85449998Y-59549999D02*
G01*
X85450000Y-59550000D01*
X85450484Y-59554910D01*
X85450484Y-60045090D01*
X85449197Y-60058153D01*
X85448558Y-60061365D01*
X85448076Y-60071175D01*
X85448076Y-60094099D01*
X85447109Y-60103913D01*
X85429901Y-60190424D01*
X85427037Y-60199865D01*
X85393286Y-60281349D01*
X85388637Y-60290047D01*
X85339636Y-60363383D01*
X85333375Y-60371011D01*
X85271011Y-60433375D01*
X85263383Y-60439636D01*
X85190047Y-60488637D01*
X85181349Y-60493286D01*
X85099865Y-60527037D01*
X85095144Y-60528469D01*
X85095142Y-60528470D01*
X85095140Y-60528470D01*
X85090424Y-60529901D01*
X85003913Y-60547109D01*
X84994099Y-60548076D01*
X84971175Y-60548076D01*
X84959816Y-60549195D01*
X84959800Y-60549035D01*
X84945090Y-60550484D01*
X84454910Y-60550484D01*
X84441847Y-60549197D01*
X84438635Y-60548558D01*
X84428825Y-60548076D01*
X84405901Y-60548076D01*
X84396087Y-60547109D01*
X84309576Y-60529901D01*
X84304860Y-60528470D01*
X84304858Y-60528470D01*
X84304856Y-60528469D01*
X84300135Y-60527037D01*
X84218651Y-60493286D01*
X84209953Y-60488637D01*
X84136617Y-60439636D01*
X84128989Y-60433375D01*
X84066625Y-60371011D01*
X84060364Y-60363383D01*
X84011363Y-60290047D01*
X84006714Y-60281349D01*
X83972963Y-60199865D01*
X83970099Y-60190424D01*
X83952891Y-60103913D01*
X83951924Y-60094099D01*
X83951924Y-60071175D01*
X83950805Y-60059816D01*
X83950965Y-60059800D01*
X83950000Y-60050000D01*
X83949516Y-60045090D01*
X83949516Y-59554910D01*
X83950000Y-59550000D01*
X83950002Y-59549999D01*
X83954910Y-59549516D01*
X85445090Y-59549516D01*
X85449998Y-59549999D01*
X85449998Y-59549999D01*
G37*
G36*
X79239077Y-59678717D02*
G01*
X79270643Y-59688292D01*
X79299733Y-59703840D01*
X79325232Y-59724768D01*
X79346160Y-59750267D01*
X79361708Y-59779357D01*
X79371283Y-59810923D01*
X79375000Y-59848658D01*
X79375000Y-60376342D01*
X79371283Y-60414077D01*
X79361708Y-60445643D01*
X79346160Y-60474733D01*
X79325232Y-60500232D01*
X79299733Y-60521160D01*
X79270643Y-60536708D01*
X79239077Y-60546283D01*
X79201342Y-60550000D01*
X78598658Y-60550000D01*
X78560923Y-60546283D01*
X78529357Y-60536708D01*
X78500267Y-60521160D01*
X78474768Y-60500232D01*
X78453840Y-60474733D01*
X78438292Y-60445643D01*
X78428717Y-60414077D01*
X78425000Y-60376342D01*
X78425000Y-59848658D01*
X78428717Y-59810923D01*
X78438292Y-59779357D01*
X78453840Y-59750267D01*
X78474768Y-59724768D01*
X78500267Y-59703840D01*
X78529357Y-59688292D01*
X78560923Y-59678717D01*
X78598658Y-59675000D01*
X79201342Y-59675000D01*
X79239077Y-59678717D01*
X79239077Y-59678717D01*
G37*
G36*
X107039077Y-58753717D02*
G01*
X107070643Y-58763292D01*
X107099733Y-58778840D01*
X107125232Y-58799768D01*
X107146160Y-58825267D01*
X107161708Y-58854357D01*
X107171283Y-58885923D01*
X107175000Y-58923658D01*
X107175000Y-59451342D01*
X107171283Y-59489077D01*
X107161708Y-59520643D01*
X107146160Y-59549733D01*
X107125232Y-59575232D01*
X107099733Y-59596160D01*
X107070643Y-59611708D01*
X107039077Y-59621283D01*
X107001342Y-59625000D01*
X106398658Y-59625000D01*
X106360923Y-59621283D01*
X106329357Y-59611708D01*
X106300267Y-59596160D01*
X106274768Y-59575232D01*
X106253840Y-59549733D01*
X106238292Y-59520643D01*
X106228717Y-59489077D01*
X106225000Y-59451342D01*
X106225000Y-58923658D01*
X106228717Y-58885923D01*
X106238292Y-58854357D01*
X106253840Y-58825267D01*
X106274768Y-58799768D01*
X106300267Y-58778840D01*
X106329357Y-58763292D01*
X106360923Y-58753717D01*
X106398658Y-58750000D01*
X107001342Y-58750000D01*
X107039077Y-58753717D01*
X107039077Y-58753717D01*
G37*
G36*
X110675000Y-59600000D02*
G01*
X110425000Y-59600000D01*
X110425000Y-58300000D01*
X110675000Y-58300000D01*
X110675000Y-59600000D01*
X110675000Y-59600000D01*
G37*
G36*
X111175000Y-59600000D02*
G01*
X110925000Y-59600000D01*
X110925000Y-58300000D01*
X111175000Y-58300000D01*
X111175000Y-59600000D01*
X111175000Y-59600000D01*
G37*
G36*
X111675000Y-59600000D02*
G01*
X111425000Y-59600000D01*
X111425000Y-58300000D01*
X111675000Y-58300000D01*
X111675000Y-59600000D01*
X111675000Y-59600000D01*
G37*
G36*
X112175000Y-59600000D02*
G01*
X111925000Y-59600000D01*
X111925000Y-58300000D01*
X112175000Y-58300000D01*
X112175000Y-59600000D01*
X112175000Y-59600000D01*
G37*
G36*
X112675000Y-59600000D02*
G01*
X112425000Y-59600000D01*
X112425000Y-58300000D01*
X112675000Y-58300000D01*
X112675000Y-59600000D01*
X112675000Y-59600000D01*
G37*
G36*
X113175000Y-59600000D02*
G01*
X112925000Y-59600000D01*
X112925000Y-58300000D01*
X113175000Y-58300000D01*
X113175000Y-59600000D01*
X113175000Y-59600000D01*
G37*
G36*
X114175000Y-59600000D02*
G01*
X113925000Y-59600000D01*
X113925000Y-58300000D01*
X114175000Y-58300000D01*
X114175000Y-59600000D01*
X114175000Y-59600000D01*
G37*
G36*
X113675000Y-59600000D02*
G01*
X113425000Y-59600000D01*
X113425000Y-58300000D01*
X113675000Y-58300000D01*
X113675000Y-59600000D01*
X113675000Y-59600000D01*
G37*
G36*
X115175000Y-59600000D02*
G01*
X114925000Y-59600000D01*
X114925000Y-58300000D01*
X115175000Y-58300000D01*
X115175000Y-59600000D01*
X115175000Y-59600000D01*
G37*
G36*
X115675000Y-59600000D02*
G01*
X115425000Y-59600000D01*
X115425000Y-58300000D01*
X115675000Y-58300000D01*
X115675000Y-59600000D01*
X115675000Y-59600000D01*
G37*
G36*
X114675000Y-59600000D02*
G01*
X114425000Y-59600000D01*
X114425000Y-58300000D01*
X114675000Y-58300000D01*
X114675000Y-59600000D01*
X114675000Y-59600000D01*
G37*
G36*
X110175000Y-59600000D02*
G01*
X109925000Y-59600000D01*
X109925000Y-58300000D01*
X110175000Y-58300000D01*
X110175000Y-59600000D01*
X110175000Y-59600000D01*
G37*
G36*
X82358153Y-58250803D02*
G01*
X82361365Y-58251442D01*
X82371175Y-58251924D01*
X82394099Y-58251924D01*
X82403913Y-58252891D01*
X82490424Y-58270099D01*
X82495140Y-58271530D01*
X82495142Y-58271530D01*
X82495144Y-58271531D01*
X82499865Y-58272963D01*
X82581349Y-58306714D01*
X82590047Y-58311363D01*
X82663383Y-58360364D01*
X82671011Y-58366625D01*
X82733375Y-58428989D01*
X82739636Y-58436617D01*
X82788637Y-58509953D01*
X82793286Y-58518651D01*
X82827037Y-58600135D01*
X82829901Y-58609576D01*
X82847109Y-58696087D01*
X82848076Y-58705901D01*
X82848076Y-58728825D01*
X82849195Y-58740184D01*
X82849035Y-58740200D01*
X82850484Y-58754910D01*
X82850484Y-59245090D01*
X82850001Y-59249998D01*
X82850000Y-59250000D01*
X82849998Y-59250001D01*
X82845090Y-59250484D01*
X81354910Y-59250484D01*
X81350002Y-59250001D01*
X81350000Y-59250000D01*
X81349999Y-59249998D01*
X81349516Y-59245090D01*
X81349516Y-58754910D01*
X81350803Y-58741847D01*
X81351442Y-58738635D01*
X81351924Y-58728825D01*
X81351924Y-58705901D01*
X81352891Y-58696087D01*
X81370099Y-58609576D01*
X81372963Y-58600135D01*
X81406714Y-58518651D01*
X81411363Y-58509953D01*
X81460364Y-58436617D01*
X81466625Y-58428989D01*
X81528989Y-58366625D01*
X81536617Y-58360364D01*
X81609953Y-58311363D01*
X81618651Y-58306714D01*
X81700135Y-58272963D01*
X81704856Y-58271531D01*
X81704858Y-58271530D01*
X81704860Y-58271530D01*
X81709576Y-58270099D01*
X81796087Y-58252891D01*
X81805901Y-58251924D01*
X81828825Y-58251924D01*
X81840184Y-58250805D01*
X81840200Y-58250965D01*
X81854910Y-58249516D01*
X82345090Y-58249516D01*
X82358153Y-58250803D01*
X82358153Y-58250803D01*
G37*
G36*
X84958153Y-58250803D02*
G01*
X84961365Y-58251442D01*
X84971175Y-58251924D01*
X84994099Y-58251924D01*
X85003913Y-58252891D01*
X85090424Y-58270099D01*
X85095140Y-58271530D01*
X85095142Y-58271530D01*
X85095144Y-58271531D01*
X85099865Y-58272963D01*
X85181349Y-58306714D01*
X85190047Y-58311363D01*
X85263383Y-58360364D01*
X85271011Y-58366625D01*
X85333375Y-58428989D01*
X85339636Y-58436617D01*
X85388637Y-58509953D01*
X85393286Y-58518651D01*
X85427037Y-58600135D01*
X85429901Y-58609576D01*
X85447109Y-58696087D01*
X85448076Y-58705901D01*
X85448076Y-58728825D01*
X85449195Y-58740184D01*
X85449035Y-58740200D01*
X85450484Y-58754910D01*
X85450484Y-59245090D01*
X85450001Y-59249998D01*
X85450000Y-59250000D01*
X85449998Y-59250001D01*
X85445090Y-59250484D01*
X83954910Y-59250484D01*
X83950002Y-59250001D01*
X83950000Y-59250000D01*
X83949999Y-59249998D01*
X83949516Y-59245090D01*
X83949516Y-58754910D01*
X83950803Y-58741847D01*
X83951442Y-58738635D01*
X83951924Y-58728825D01*
X83951924Y-58705901D01*
X83952891Y-58696087D01*
X83970099Y-58609576D01*
X83972963Y-58600135D01*
X84006714Y-58518651D01*
X84011363Y-58509953D01*
X84060364Y-58436617D01*
X84066625Y-58428989D01*
X84128989Y-58366625D01*
X84136617Y-58360364D01*
X84209953Y-58311363D01*
X84218651Y-58306714D01*
X84300135Y-58272963D01*
X84304856Y-58271531D01*
X84304858Y-58271530D01*
X84304860Y-58271530D01*
X84309576Y-58270099D01*
X84396087Y-58252891D01*
X84405901Y-58251924D01*
X84428825Y-58251924D01*
X84440184Y-58250805D01*
X84440200Y-58250965D01*
X84454910Y-58249516D01*
X84945090Y-58249516D01*
X84958153Y-58250803D01*
X84958153Y-58250803D01*
G37*
G36*
X107039077Y-57178717D02*
G01*
X107070643Y-57188292D01*
X107099733Y-57203840D01*
X107125232Y-57224768D01*
X107146160Y-57250267D01*
X107161708Y-57279357D01*
X107171283Y-57310923D01*
X107175000Y-57348658D01*
X107175000Y-57876342D01*
X107171283Y-57914077D01*
X107161708Y-57945643D01*
X107146160Y-57974733D01*
X107125232Y-58000232D01*
X107099733Y-58021160D01*
X107070643Y-58036708D01*
X107039077Y-58046283D01*
X107001342Y-58050000D01*
X106398658Y-58050000D01*
X106360923Y-58046283D01*
X106329357Y-58036708D01*
X106300267Y-58021160D01*
X106274768Y-58000232D01*
X106253840Y-57974733D01*
X106238292Y-57945643D01*
X106228717Y-57914077D01*
X106225000Y-57876342D01*
X106225000Y-57348658D01*
X106228717Y-57310923D01*
X106238292Y-57279357D01*
X106253840Y-57250267D01*
X106274768Y-57224768D01*
X106300267Y-57203840D01*
X106329357Y-57188292D01*
X106360923Y-57178717D01*
X106398658Y-57175000D01*
X107001342Y-57175000D01*
X107039077Y-57178717D01*
X107039077Y-57178717D01*
G37*
G36*
X109100000Y-57475000D02*
G01*
X107800000Y-57475000D01*
X107800000Y-57225000D01*
X109100000Y-57225000D01*
X109100000Y-57475000D01*
X109100000Y-57475000D01*
G37*
G36*
X117800000Y-57475000D02*
G01*
X116500000Y-57475000D01*
X116500000Y-57225000D01*
X117800000Y-57225000D01*
X117800000Y-57475000D01*
X117800000Y-57475000D01*
G37*
G36*
X109100000Y-56975000D02*
G01*
X107800000Y-56975000D01*
X107800000Y-56725000D01*
X109100000Y-56725000D01*
X109100000Y-56975000D01*
X109100000Y-56975000D01*
G37*
G36*
X117800000Y-56975000D02*
G01*
X116500000Y-56975000D01*
X116500000Y-56725000D01*
X117800000Y-56725000D01*
X117800000Y-56975000D01*
X117800000Y-56975000D01*
G37*
G36*
X76993958Y-55454198D02*
G01*
X77030208Y-55465194D01*
X77063623Y-55483055D01*
X77092910Y-55507090D01*
X77116945Y-55536377D01*
X77134806Y-55569792D01*
X77145802Y-55606042D01*
X77150000Y-55648667D01*
X77150000Y-56651333D01*
X77145802Y-56693958D01*
X77134806Y-56730208D01*
X77116945Y-56763623D01*
X77092910Y-56792910D01*
X77063623Y-56816945D01*
X77030208Y-56834806D01*
X76993958Y-56845802D01*
X76951333Y-56850000D01*
X76373667Y-56850000D01*
X76331042Y-56845802D01*
X76294792Y-56834806D01*
X76261377Y-56816945D01*
X76232090Y-56792910D01*
X76208055Y-56763623D01*
X76190194Y-56730208D01*
X76179198Y-56693958D01*
X76175000Y-56651333D01*
X76175000Y-55648667D01*
X76179198Y-55606042D01*
X76190194Y-55569792D01*
X76208055Y-55536377D01*
X76232090Y-55507090D01*
X76261377Y-55483055D01*
X76294792Y-55465194D01*
X76331042Y-55454198D01*
X76373667Y-55450000D01*
X76951333Y-55450000D01*
X76993958Y-55454198D01*
X76993958Y-55454198D01*
G37*
G36*
X78868958Y-55454198D02*
G01*
X78905208Y-55465194D01*
X78938623Y-55483055D01*
X78967910Y-55507090D01*
X78991945Y-55536377D01*
X79009806Y-55569792D01*
X79020802Y-55606042D01*
X79025000Y-55648667D01*
X79025000Y-56651333D01*
X79020802Y-56693958D01*
X79009806Y-56730208D01*
X78991945Y-56763623D01*
X78967910Y-56792910D01*
X78938623Y-56816945D01*
X78905208Y-56834806D01*
X78868958Y-56845802D01*
X78826333Y-56850000D01*
X78248667Y-56850000D01*
X78206042Y-56845802D01*
X78169792Y-56834806D01*
X78136377Y-56816945D01*
X78107090Y-56792910D01*
X78083055Y-56763623D01*
X78065194Y-56730208D01*
X78054198Y-56693958D01*
X78050000Y-56651333D01*
X78050000Y-55648667D01*
X78054198Y-55606042D01*
X78065194Y-55569792D01*
X78083055Y-55536377D01*
X78107090Y-55507090D01*
X78136377Y-55483055D01*
X78169792Y-55465194D01*
X78206042Y-55454198D01*
X78248667Y-55450000D01*
X78826333Y-55450000D01*
X78868958Y-55454198D01*
X78868958Y-55454198D01*
G37*
G36*
X122143958Y-55554198D02*
G01*
X122180208Y-55565194D01*
X122213623Y-55583055D01*
X122242910Y-55607090D01*
X122266945Y-55636377D01*
X122284806Y-55669792D01*
X122295802Y-55706042D01*
X122300000Y-55748667D01*
X122300000Y-56326333D01*
X122295802Y-56368958D01*
X122284806Y-56405208D01*
X122266945Y-56438623D01*
X122242910Y-56467910D01*
X122213623Y-56491945D01*
X122180208Y-56509806D01*
X122143958Y-56520802D01*
X122101333Y-56525000D01*
X121098667Y-56525000D01*
X121056042Y-56520802D01*
X121019792Y-56509806D01*
X120986377Y-56491945D01*
X120957090Y-56467910D01*
X120933055Y-56438623D01*
X120915194Y-56405208D01*
X120904198Y-56368958D01*
X120900000Y-56326333D01*
X120900000Y-55748667D01*
X120904198Y-55706042D01*
X120915194Y-55669792D01*
X120933055Y-55636377D01*
X120957090Y-55607090D01*
X120986377Y-55583055D01*
X121019792Y-55565194D01*
X121056042Y-55554198D01*
X121098667Y-55550000D01*
X122101333Y-55550000D01*
X122143958Y-55554198D01*
X122143958Y-55554198D01*
G37*
G36*
X117800000Y-56475000D02*
G01*
X116500000Y-56475000D01*
X116500000Y-56225000D01*
X117800000Y-56225000D01*
X117800000Y-56475000D01*
X117800000Y-56475000D01*
G37*
G36*
X109100000Y-56475000D02*
G01*
X107800000Y-56475000D01*
X107800000Y-56225000D01*
X109100000Y-56225000D01*
X109100000Y-56475000D01*
X109100000Y-56475000D01*
G37*
G36*
X119239077Y-55453717D02*
G01*
X119270643Y-55463292D01*
X119299733Y-55478840D01*
X119325232Y-55499768D01*
X119346160Y-55525267D01*
X119361708Y-55554357D01*
X119371283Y-55585923D01*
X119375000Y-55623658D01*
X119375000Y-56151342D01*
X119371283Y-56189077D01*
X119361708Y-56220643D01*
X119346160Y-56249733D01*
X119325232Y-56275232D01*
X119299733Y-56296160D01*
X119270643Y-56311708D01*
X119239077Y-56321283D01*
X119201342Y-56325000D01*
X118598658Y-56325000D01*
X118560923Y-56321283D01*
X118529357Y-56311708D01*
X118500267Y-56296160D01*
X118474768Y-56275232D01*
X118453840Y-56249733D01*
X118438292Y-56220643D01*
X118428717Y-56189077D01*
X118425000Y-56151342D01*
X118425000Y-55623658D01*
X118428717Y-55585923D01*
X118438292Y-55554357D01*
X118453840Y-55525267D01*
X118474768Y-55499768D01*
X118500267Y-55478840D01*
X118529357Y-55463292D01*
X118560923Y-55453717D01*
X118598658Y-55450000D01*
X119201342Y-55450000D01*
X119239077Y-55453717D01*
X119239077Y-55453717D01*
G37*
G36*
X109100000Y-55975000D02*
G01*
X107800000Y-55975000D01*
X107800000Y-55725000D01*
X109100000Y-55725000D01*
X109100000Y-55975000D01*
X109100000Y-55975000D01*
G37*
G36*
X117800000Y-55975000D02*
G01*
X116500000Y-55975000D01*
X116500000Y-55725000D01*
X117800000Y-55725000D01*
X117800000Y-55975000D01*
X117800000Y-55975000D01*
G37*
G36*
X117800000Y-55475000D02*
G01*
X116500000Y-55475000D01*
X116500000Y-55225000D01*
X117800000Y-55225000D01*
X117800000Y-55475000D01*
X117800000Y-55475000D01*
G37*
G36*
X109100000Y-55475000D02*
G01*
X107800000Y-55475000D01*
X107800000Y-55225000D01*
X109100000Y-55225000D01*
X109100000Y-55475000D01*
X109100000Y-55475000D01*
G37*
G36*
X107039077Y-54453717D02*
G01*
X107070643Y-54463292D01*
X107099733Y-54478840D01*
X107125232Y-54499768D01*
X107146160Y-54525267D01*
X107161708Y-54554357D01*
X107171283Y-54585923D01*
X107175000Y-54623658D01*
X107175000Y-55151342D01*
X107171283Y-55189077D01*
X107161708Y-55220643D01*
X107146160Y-55249733D01*
X107125232Y-55275232D01*
X107099733Y-55296160D01*
X107070643Y-55311708D01*
X107039077Y-55321283D01*
X107001342Y-55325000D01*
X106398658Y-55325000D01*
X106360923Y-55321283D01*
X106329357Y-55311708D01*
X106300267Y-55296160D01*
X106274768Y-55275232D01*
X106253840Y-55249733D01*
X106238292Y-55220643D01*
X106228717Y-55189077D01*
X106225000Y-55151342D01*
X106225000Y-54623658D01*
X106228717Y-54585923D01*
X106238292Y-54554357D01*
X106253840Y-54525267D01*
X106274768Y-54499768D01*
X106300267Y-54478840D01*
X106329357Y-54463292D01*
X106360923Y-54453717D01*
X106398658Y-54450000D01*
X107001342Y-54450000D01*
X107039077Y-54453717D01*
X107039077Y-54453717D01*
G37*
G36*
X117800000Y-54975000D02*
G01*
X116500000Y-54975000D01*
X116500000Y-54725000D01*
X117800000Y-54725000D01*
X117800000Y-54975000D01*
X117800000Y-54975000D01*
G37*
G36*
X109100000Y-54975000D02*
G01*
X107800000Y-54975000D01*
X107800000Y-54725000D01*
X109100000Y-54725000D01*
X109100000Y-54975000D01*
X109100000Y-54975000D01*
G37*
G36*
X119239077Y-53878717D02*
G01*
X119270643Y-53888292D01*
X119299733Y-53903840D01*
X119325232Y-53924768D01*
X119346160Y-53950267D01*
X119361708Y-53979357D01*
X119371283Y-54010923D01*
X119375000Y-54048658D01*
X119375000Y-54576342D01*
X119371283Y-54614077D01*
X119361708Y-54645643D01*
X119346160Y-54674733D01*
X119325232Y-54700232D01*
X119299733Y-54721160D01*
X119270643Y-54736708D01*
X119239077Y-54746283D01*
X119201342Y-54750000D01*
X118598658Y-54750000D01*
X118560923Y-54746283D01*
X118529357Y-54736708D01*
X118500267Y-54721160D01*
X118474768Y-54700232D01*
X118453840Y-54674733D01*
X118438292Y-54645643D01*
X118428717Y-54614077D01*
X118425000Y-54576342D01*
X118425000Y-54048658D01*
X118428717Y-54010923D01*
X118438292Y-53979357D01*
X118453840Y-53950267D01*
X118474768Y-53924768D01*
X118500267Y-53903840D01*
X118529357Y-53888292D01*
X118560923Y-53878717D01*
X118598658Y-53875000D01*
X119201342Y-53875000D01*
X119239077Y-53878717D01*
X119239077Y-53878717D01*
G37*
G36*
X122143958Y-53679198D02*
G01*
X122180208Y-53690194D01*
X122213623Y-53708055D01*
X122242910Y-53732090D01*
X122266945Y-53761377D01*
X122284806Y-53794792D01*
X122295802Y-53831042D01*
X122300000Y-53873667D01*
X122300000Y-54451333D01*
X122295802Y-54493958D01*
X122284806Y-54530208D01*
X122266945Y-54563623D01*
X122242910Y-54592910D01*
X122213623Y-54616945D01*
X122180208Y-54634806D01*
X122143958Y-54645802D01*
X122101333Y-54650000D01*
X121098667Y-54650000D01*
X121056042Y-54645802D01*
X121019792Y-54634806D01*
X120986377Y-54616945D01*
X120957090Y-54592910D01*
X120933055Y-54563623D01*
X120915194Y-54530208D01*
X120904198Y-54493958D01*
X120900000Y-54451333D01*
X120900000Y-53873667D01*
X120904198Y-53831042D01*
X120915194Y-53794792D01*
X120933055Y-53761377D01*
X120957090Y-53732090D01*
X120986377Y-53708055D01*
X121019792Y-53690194D01*
X121056042Y-53679198D01*
X121098667Y-53675000D01*
X122101333Y-53675000D01*
X122143958Y-53679198D01*
X122143958Y-53679198D01*
G37*
G36*
X109100000Y-54475000D02*
G01*
X107800000Y-54475000D01*
X107800000Y-54225000D01*
X109100000Y-54225000D01*
X109100000Y-54475000D01*
X109100000Y-54475000D01*
G37*
G36*
X117800000Y-54475000D02*
G01*
X116500000Y-54475000D01*
X116500000Y-54225000D01*
X117800000Y-54225000D01*
X117800000Y-54475000D01*
X117800000Y-54475000D01*
G37*
G36*
X109100000Y-53975000D02*
G01*
X107800000Y-53975000D01*
X107800000Y-53725000D01*
X109100000Y-53725000D01*
X109100000Y-53975000D01*
X109100000Y-53975000D01*
G37*
G36*
X117800000Y-53975000D02*
G01*
X116500000Y-53975000D01*
X116500000Y-53725000D01*
X117800000Y-53725000D01*
X117800000Y-53975000D01*
X117800000Y-53975000D01*
G37*
G36*
X107039077Y-52878717D02*
G01*
X107070643Y-52888292D01*
X107099733Y-52903840D01*
X107125232Y-52924768D01*
X107146160Y-52950267D01*
X107161708Y-52979357D01*
X107171283Y-53010923D01*
X107175000Y-53048658D01*
X107175000Y-53576342D01*
X107171283Y-53614077D01*
X107161708Y-53645643D01*
X107146160Y-53674733D01*
X107125232Y-53700232D01*
X107099733Y-53721160D01*
X107070643Y-53736708D01*
X107039077Y-53746283D01*
X107001342Y-53750000D01*
X106398658Y-53750000D01*
X106360923Y-53746283D01*
X106329357Y-53736708D01*
X106300267Y-53721160D01*
X106274768Y-53700232D01*
X106253840Y-53674733D01*
X106238292Y-53645643D01*
X106228717Y-53614077D01*
X106225000Y-53576342D01*
X106225000Y-53048658D01*
X106228717Y-53010923D01*
X106238292Y-52979357D01*
X106253840Y-52950267D01*
X106274768Y-52924768D01*
X106300267Y-52903840D01*
X106329357Y-52888292D01*
X106360923Y-52878717D01*
X106398658Y-52875000D01*
X107001342Y-52875000D01*
X107039077Y-52878717D01*
X107039077Y-52878717D01*
G37*
G36*
X109100000Y-53475000D02*
G01*
X107800000Y-53475000D01*
X107800000Y-53225000D01*
X109100000Y-53225000D01*
X109100000Y-53475000D01*
X109100000Y-53475000D01*
G37*
G36*
X117800000Y-53475000D02*
G01*
X116500000Y-53475000D01*
X116500000Y-53225000D01*
X117800000Y-53225000D01*
X117800000Y-53475000D01*
X117800000Y-53475000D01*
G37*
G36*
X76764842Y-52650714D02*
G01*
X76767099Y-52651399D01*
X76769178Y-52652510D01*
X76770997Y-52654003D01*
X76772490Y-52655822D01*
X76773601Y-52657901D01*
X76774286Y-52660158D01*
X76775000Y-52667410D01*
X76775000Y-53332590D01*
X76774286Y-53339842D01*
X76773601Y-53342099D01*
X76772490Y-53344178D01*
X76770997Y-53345997D01*
X76769178Y-53347490D01*
X76767099Y-53348601D01*
X76764842Y-53349286D01*
X76757590Y-53350000D01*
X76542410Y-53350000D01*
X76535158Y-53349286D01*
X76532901Y-53348601D01*
X76530822Y-53347490D01*
X76529003Y-53345997D01*
X76527510Y-53344178D01*
X76526399Y-53342099D01*
X76525714Y-53339842D01*
X76525000Y-53332590D01*
X76525000Y-52667410D01*
X76525714Y-52660158D01*
X76526399Y-52657901D01*
X76527510Y-52655822D01*
X76529003Y-52654003D01*
X76530822Y-52652510D01*
X76532901Y-52651399D01*
X76535158Y-52650714D01*
X76542410Y-52650000D01*
X76757590Y-52650000D01*
X76764842Y-52650714D01*
X76764842Y-52650714D01*
G37*
G36*
X77764842Y-52650714D02*
G01*
X77767099Y-52651399D01*
X77769178Y-52652510D01*
X77770997Y-52654003D01*
X77772490Y-52655822D01*
X77773601Y-52657901D01*
X77774286Y-52660158D01*
X77775000Y-52667410D01*
X77775000Y-53332590D01*
X77774286Y-53339842D01*
X77773601Y-53342099D01*
X77772490Y-53344178D01*
X77770997Y-53345997D01*
X77769178Y-53347490D01*
X77767099Y-53348601D01*
X77764842Y-53349286D01*
X77757590Y-53350000D01*
X77542410Y-53350000D01*
X77535158Y-53349286D01*
X77532901Y-53348601D01*
X77530822Y-53347490D01*
X77529003Y-53345997D01*
X77527510Y-53344178D01*
X77526399Y-53342099D01*
X77525714Y-53339842D01*
X77525000Y-53332590D01*
X77525000Y-52667410D01*
X77525714Y-52660158D01*
X77526399Y-52657901D01*
X77527510Y-52655822D01*
X77529003Y-52654003D01*
X77530822Y-52652510D01*
X77532901Y-52651399D01*
X77535158Y-52650714D01*
X77542410Y-52650000D01*
X77757590Y-52650000D01*
X77764842Y-52650714D01*
X77764842Y-52650714D01*
G37*
G36*
X77264842Y-52650714D02*
G01*
X77267099Y-52651399D01*
X77269178Y-52652510D01*
X77270997Y-52654003D01*
X77272490Y-52655822D01*
X77273601Y-52657901D01*
X77274286Y-52660158D01*
X77275000Y-52667410D01*
X77275000Y-53332590D01*
X77274286Y-53339842D01*
X77273601Y-53342099D01*
X77272490Y-53344178D01*
X77270997Y-53345997D01*
X77269178Y-53347490D01*
X77267099Y-53348601D01*
X77264842Y-53349286D01*
X77257590Y-53350000D01*
X77042410Y-53350000D01*
X77035158Y-53349286D01*
X77032901Y-53348601D01*
X77030822Y-53347490D01*
X77029003Y-53345997D01*
X77027510Y-53344178D01*
X77026399Y-53342099D01*
X77025714Y-53339842D01*
X77025000Y-53332590D01*
X77025000Y-52667410D01*
X77025714Y-52660158D01*
X77026399Y-52657901D01*
X77027510Y-52655822D01*
X77029003Y-52654003D01*
X77030822Y-52652510D01*
X77032901Y-52651399D01*
X77035158Y-52650714D01*
X77042410Y-52650000D01*
X77257590Y-52650000D01*
X77264842Y-52650714D01*
X77264842Y-52650714D01*
G37*
G36*
X109100000Y-52975000D02*
G01*
X107800000Y-52975000D01*
X107800000Y-52725000D01*
X109100000Y-52725000D01*
X109100000Y-52975000D01*
X109100000Y-52975000D01*
G37*
G36*
X117800000Y-52975000D02*
G01*
X116500000Y-52975000D01*
X116500000Y-52725000D01*
X117800000Y-52725000D01*
X117800000Y-52975000D01*
X117800000Y-52975000D01*
G37*
G36*
X109100000Y-52475000D02*
G01*
X107800000Y-52475000D01*
X107800000Y-52225000D01*
X109100000Y-52225000D01*
X109100000Y-52475000D01*
X109100000Y-52475000D01*
G37*
G36*
X117800000Y-52475000D02*
G01*
X116500000Y-52475000D01*
X116500000Y-52225000D01*
X117800000Y-52225000D01*
X117800000Y-52475000D01*
X117800000Y-52475000D01*
G37*
G36*
X77719538Y-51951916D02*
G01*
X77733513Y-51956155D01*
X77746399Y-51963043D01*
X77757691Y-51972309D01*
X77766957Y-51983601D01*
X77773845Y-51996487D01*
X77778084Y-52010462D01*
X77780000Y-52029910D01*
X77780000Y-52370090D01*
X77778084Y-52389538D01*
X77773845Y-52403513D01*
X77766957Y-52416399D01*
X77757691Y-52427691D01*
X77746399Y-52436957D01*
X77733513Y-52443845D01*
X77719538Y-52448084D01*
X77700090Y-52450000D01*
X76599910Y-52450000D01*
X76580462Y-52448084D01*
X76566487Y-52443845D01*
X76553601Y-52436957D01*
X76542309Y-52427691D01*
X76533043Y-52416399D01*
X76526155Y-52403513D01*
X76521916Y-52389538D01*
X76520000Y-52370090D01*
X76520000Y-52029910D01*
X76521916Y-52010462D01*
X76526155Y-51996487D01*
X76533043Y-51983601D01*
X76542309Y-51972309D01*
X76553601Y-51963043D01*
X76566487Y-51956155D01*
X76580462Y-51951916D01*
X76599910Y-51950000D01*
X77700090Y-51950000D01*
X77719538Y-51951916D01*
X77719538Y-51951916D01*
G37*
G36*
X119239077Y-51153717D02*
G01*
X119270643Y-51163292D01*
X119299733Y-51178840D01*
X119325232Y-51199768D01*
X119346160Y-51225267D01*
X119361708Y-51254357D01*
X119371283Y-51285923D01*
X119375000Y-51323658D01*
X119375000Y-51851342D01*
X119371283Y-51889077D01*
X119361708Y-51920643D01*
X119346160Y-51949733D01*
X119325232Y-51975232D01*
X119299733Y-51996160D01*
X119270643Y-52011708D01*
X119239077Y-52021283D01*
X119201342Y-52025000D01*
X118598658Y-52025000D01*
X118560923Y-52021283D01*
X118529357Y-52011708D01*
X118500267Y-51996160D01*
X118474768Y-51975232D01*
X118453840Y-51949733D01*
X118438292Y-51920643D01*
X118428717Y-51889077D01*
X118425000Y-51851342D01*
X118425000Y-51323658D01*
X118428717Y-51285923D01*
X118438292Y-51254357D01*
X118453840Y-51225267D01*
X118474768Y-51199768D01*
X118500267Y-51178840D01*
X118529357Y-51163292D01*
X118560923Y-51153717D01*
X118598658Y-51150000D01*
X119201342Y-51150000D01*
X119239077Y-51153717D01*
X119239077Y-51153717D01*
G37*
G36*
X122143958Y-51054198D02*
G01*
X122180208Y-51065194D01*
X122213623Y-51083055D01*
X122242910Y-51107090D01*
X122266945Y-51136377D01*
X122284806Y-51169792D01*
X122295802Y-51206042D01*
X122300000Y-51248667D01*
X122300000Y-51826333D01*
X122295802Y-51868958D01*
X122284806Y-51905208D01*
X122266945Y-51938623D01*
X122242910Y-51967910D01*
X122213623Y-51991945D01*
X122180208Y-52009806D01*
X122143958Y-52020802D01*
X122101333Y-52025000D01*
X121098667Y-52025000D01*
X121056042Y-52020802D01*
X121019792Y-52009806D01*
X120986377Y-51991945D01*
X120957090Y-51967910D01*
X120933055Y-51938623D01*
X120915194Y-51905208D01*
X120904198Y-51868958D01*
X120900000Y-51826333D01*
X120900000Y-51248667D01*
X120904198Y-51206042D01*
X120915194Y-51169792D01*
X120933055Y-51136377D01*
X120957090Y-51107090D01*
X120986377Y-51083055D01*
X121019792Y-51065194D01*
X121056042Y-51054198D01*
X121098667Y-51050000D01*
X122101333Y-51050000D01*
X122143958Y-51054198D01*
X122143958Y-51054198D01*
G37*
G36*
X117800000Y-51975000D02*
G01*
X116500000Y-51975000D01*
X116500000Y-51725000D01*
X117800000Y-51725000D01*
X117800000Y-51975000D01*
X117800000Y-51975000D01*
G37*
G36*
X109100000Y-51975000D02*
G01*
X107800000Y-51975000D01*
X107800000Y-51725000D01*
X109100000Y-51725000D01*
X109100000Y-51975000D01*
X109100000Y-51975000D01*
G37*
G36*
X77264842Y-51050714D02*
G01*
X77267099Y-51051399D01*
X77269178Y-51052510D01*
X77270997Y-51054003D01*
X77272490Y-51055822D01*
X77273601Y-51057901D01*
X77274286Y-51060158D01*
X77275000Y-51067410D01*
X77275000Y-51732590D01*
X77274286Y-51739842D01*
X77273601Y-51742099D01*
X77272490Y-51744178D01*
X77270997Y-51745997D01*
X77269178Y-51747490D01*
X77267099Y-51748601D01*
X77264842Y-51749286D01*
X77257590Y-51750000D01*
X77042410Y-51750000D01*
X77035158Y-51749286D01*
X77032901Y-51748601D01*
X77030822Y-51747490D01*
X77029003Y-51745997D01*
X77027510Y-51744178D01*
X77026399Y-51742099D01*
X77025714Y-51739842D01*
X77025000Y-51732590D01*
X77025000Y-51067410D01*
X77025714Y-51060158D01*
X77026399Y-51057901D01*
X77027510Y-51055822D01*
X77029003Y-51054003D01*
X77030822Y-51052510D01*
X77032901Y-51051399D01*
X77035158Y-51050714D01*
X77042410Y-51050000D01*
X77257590Y-51050000D01*
X77264842Y-51050714D01*
X77264842Y-51050714D01*
G37*
G36*
X77764842Y-51050714D02*
G01*
X77767099Y-51051399D01*
X77769178Y-51052510D01*
X77770997Y-51054003D01*
X77772490Y-51055822D01*
X77773601Y-51057901D01*
X77774286Y-51060158D01*
X77775000Y-51067410D01*
X77775000Y-51732590D01*
X77774286Y-51739842D01*
X77773601Y-51742099D01*
X77772490Y-51744178D01*
X77770997Y-51745997D01*
X77769178Y-51747490D01*
X77767099Y-51748601D01*
X77764842Y-51749286D01*
X77757590Y-51750000D01*
X77542410Y-51750000D01*
X77535158Y-51749286D01*
X77532901Y-51748601D01*
X77530822Y-51747490D01*
X77529003Y-51745997D01*
X77527510Y-51744178D01*
X77526399Y-51742099D01*
X77525714Y-51739842D01*
X77525000Y-51732590D01*
X77525000Y-51067410D01*
X77525714Y-51060158D01*
X77526399Y-51057901D01*
X77527510Y-51055822D01*
X77529003Y-51054003D01*
X77530822Y-51052510D01*
X77532901Y-51051399D01*
X77535158Y-51050714D01*
X77542410Y-51050000D01*
X77757590Y-51050000D01*
X77764842Y-51050714D01*
X77764842Y-51050714D01*
G37*
G36*
X76764842Y-51050714D02*
G01*
X76767099Y-51051399D01*
X76769178Y-51052510D01*
X76770997Y-51054003D01*
X76772490Y-51055822D01*
X76773601Y-51057901D01*
X76774286Y-51060158D01*
X76775000Y-51067410D01*
X76775000Y-51732590D01*
X76774286Y-51739842D01*
X76773601Y-51742099D01*
X76772490Y-51744178D01*
X76770997Y-51745997D01*
X76769178Y-51747490D01*
X76767099Y-51748601D01*
X76764842Y-51749286D01*
X76757590Y-51750000D01*
X76542410Y-51750000D01*
X76535158Y-51749286D01*
X76532901Y-51748601D01*
X76530822Y-51747490D01*
X76529003Y-51745997D01*
X76527510Y-51744178D01*
X76526399Y-51742099D01*
X76525714Y-51739842D01*
X76525000Y-51732590D01*
X76525000Y-51067410D01*
X76525714Y-51060158D01*
X76526399Y-51057901D01*
X76527510Y-51055822D01*
X76529003Y-51054003D01*
X76530822Y-51052510D01*
X76532901Y-51051399D01*
X76535158Y-51050714D01*
X76542410Y-51050000D01*
X76757590Y-51050000D01*
X76764842Y-51050714D01*
X76764842Y-51050714D01*
G37*
G36*
X112675000Y-50900000D02*
G01*
X112425000Y-50900000D01*
X112425000Y-49600000D01*
X112675000Y-49600000D01*
X112675000Y-50900000D01*
X112675000Y-50900000D01*
G37*
G36*
X110175000Y-50900000D02*
G01*
X109925000Y-50900000D01*
X109925000Y-49600000D01*
X110175000Y-49600000D01*
X110175000Y-50900000D01*
X110175000Y-50900000D01*
G37*
G36*
X110675000Y-50900000D02*
G01*
X110425000Y-50900000D01*
X110425000Y-49600000D01*
X110675000Y-49600000D01*
X110675000Y-50900000D01*
X110675000Y-50900000D01*
G37*
G36*
X111175000Y-50900000D02*
G01*
X110925000Y-50900000D01*
X110925000Y-49600000D01*
X111175000Y-49600000D01*
X111175000Y-50900000D01*
X111175000Y-50900000D01*
G37*
G36*
X111675000Y-50900000D02*
G01*
X111425000Y-50900000D01*
X111425000Y-49600000D01*
X111675000Y-49600000D01*
X111675000Y-50900000D01*
X111675000Y-50900000D01*
G37*
G36*
X112175000Y-50900000D02*
G01*
X111925000Y-50900000D01*
X111925000Y-49600000D01*
X112175000Y-49600000D01*
X112175000Y-50900000D01*
X112175000Y-50900000D01*
G37*
G36*
X113175000Y-50900000D02*
G01*
X112925000Y-50900000D01*
X112925000Y-49600000D01*
X113175000Y-49600000D01*
X113175000Y-50900000D01*
X113175000Y-50900000D01*
G37*
G36*
X113675000Y-50900000D02*
G01*
X113425000Y-50900000D01*
X113425000Y-49600000D01*
X113675000Y-49600000D01*
X113675000Y-50900000D01*
X113675000Y-50900000D01*
G37*
G36*
X114175000Y-50900000D02*
G01*
X113925000Y-50900000D01*
X113925000Y-49600000D01*
X114175000Y-49600000D01*
X114175000Y-50900000D01*
X114175000Y-50900000D01*
G37*
G36*
X114675000Y-50900000D02*
G01*
X114425000Y-50900000D01*
X114425000Y-49600000D01*
X114675000Y-49600000D01*
X114675000Y-50900000D01*
X114675000Y-50900000D01*
G37*
G36*
X115175000Y-50900000D02*
G01*
X114925000Y-50900000D01*
X114925000Y-49600000D01*
X115175000Y-49600000D01*
X115175000Y-50900000D01*
X115175000Y-50900000D01*
G37*
G36*
X115675000Y-50900000D02*
G01*
X115425000Y-50900000D01*
X115425000Y-49600000D01*
X115675000Y-49600000D01*
X115675000Y-50900000D01*
X115675000Y-50900000D01*
G37*
G36*
X119239077Y-49578717D02*
G01*
X119270643Y-49588292D01*
X119299733Y-49603840D01*
X119325232Y-49624768D01*
X119346160Y-49650267D01*
X119361708Y-49679357D01*
X119371283Y-49710923D01*
X119375000Y-49748658D01*
X119375000Y-50276342D01*
X119371283Y-50314077D01*
X119361708Y-50345643D01*
X119346160Y-50374733D01*
X119325232Y-50400232D01*
X119299733Y-50421160D01*
X119270643Y-50436708D01*
X119239077Y-50446283D01*
X119201342Y-50450000D01*
X118598658Y-50450000D01*
X118560923Y-50446283D01*
X118529357Y-50436708D01*
X118500267Y-50421160D01*
X118474768Y-50400232D01*
X118453840Y-50374733D01*
X118438292Y-50345643D01*
X118428717Y-50314077D01*
X118425000Y-50276342D01*
X118425000Y-49748658D01*
X118428717Y-49710923D01*
X118438292Y-49679357D01*
X118453840Y-49650267D01*
X118474768Y-49624768D01*
X118500267Y-49603840D01*
X118529357Y-49588292D01*
X118560923Y-49578717D01*
X118598658Y-49575000D01*
X119201342Y-49575000D01*
X119239077Y-49578717D01*
X119239077Y-49578717D01*
G37*
G36*
X82695090Y-48219215D02*
G01*
X82791689Y-48238429D01*
X82973678Y-48313811D01*
X83137463Y-48423249D01*
X83276751Y-48562537D01*
X83386189Y-48726322D01*
X83461571Y-48908311D01*
X83461571Y-48908313D01*
X83500000Y-49101507D01*
X83500000Y-49298493D01*
X83485538Y-49371197D01*
X83461571Y-49491689D01*
X83386189Y-49673678D01*
X83276751Y-49837463D01*
X83137463Y-49976751D01*
X82973678Y-50086189D01*
X82791689Y-50161571D01*
X82695090Y-50180785D01*
X82598493Y-50200000D01*
X82401507Y-50200000D01*
X82304910Y-50180785D01*
X82208311Y-50161571D01*
X82026322Y-50086189D01*
X81862537Y-49976751D01*
X81723249Y-49837463D01*
X81613811Y-49673678D01*
X81538429Y-49491689D01*
X81514462Y-49371197D01*
X81500000Y-49298493D01*
X81500000Y-49101507D01*
X81538429Y-48908313D01*
X81538429Y-48908311D01*
X81613811Y-48726322D01*
X81723249Y-48562537D01*
X81862537Y-48423249D01*
X82026322Y-48313811D01*
X82208311Y-48238429D01*
X82304910Y-48219214D01*
X82401507Y-48200000D01*
X82598493Y-48200000D01*
X82695090Y-48219215D01*
X82695090Y-48219215D01*
G37*
G36*
X122143958Y-49179198D02*
G01*
X122180208Y-49190194D01*
X122213623Y-49208055D01*
X122242910Y-49232090D01*
X122266945Y-49261377D01*
X122284806Y-49294792D01*
X122295802Y-49331042D01*
X122300000Y-49373667D01*
X122300000Y-49951333D01*
X122295802Y-49993958D01*
X122284806Y-50030208D01*
X122266945Y-50063623D01*
X122242910Y-50092910D01*
X122213623Y-50116945D01*
X122180208Y-50134806D01*
X122143958Y-50145802D01*
X122101333Y-50150000D01*
X121098667Y-50150000D01*
X121056042Y-50145802D01*
X121019792Y-50134806D01*
X120986377Y-50116945D01*
X120957090Y-50092910D01*
X120933055Y-50063623D01*
X120915194Y-50030208D01*
X120904198Y-49993958D01*
X120900000Y-49951333D01*
X120900000Y-49373667D01*
X120904198Y-49331042D01*
X120915194Y-49294792D01*
X120933055Y-49261377D01*
X120957090Y-49232090D01*
X120986377Y-49208055D01*
X121019792Y-49190194D01*
X121056042Y-49179198D01*
X121098667Y-49175000D01*
X122101333Y-49175000D01*
X122143958Y-49179198D01*
X122143958Y-49179198D01*
G37*
G36*
X76843958Y-47554198D02*
G01*
X76880208Y-47565194D01*
X76913623Y-47583055D01*
X76942910Y-47607090D01*
X76966945Y-47636377D01*
X76984806Y-47669792D01*
X76995802Y-47706042D01*
X77000000Y-47748667D01*
X77000000Y-48326333D01*
X76995802Y-48368958D01*
X76984806Y-48405208D01*
X76966945Y-48438623D01*
X76942910Y-48467910D01*
X76913623Y-48491945D01*
X76880208Y-48509806D01*
X76843958Y-48520802D01*
X76801333Y-48525000D01*
X75798667Y-48525000D01*
X75756042Y-48520802D01*
X75719792Y-48509806D01*
X75686377Y-48491945D01*
X75657090Y-48467910D01*
X75633055Y-48438623D01*
X75615194Y-48405208D01*
X75604198Y-48368958D01*
X75600000Y-48326333D01*
X75600000Y-47748667D01*
X75604198Y-47706042D01*
X75615194Y-47669792D01*
X75633055Y-47636377D01*
X75657090Y-47607090D01*
X75686377Y-47583055D01*
X75719792Y-47565194D01*
X75756042Y-47554198D01*
X75798667Y-47550000D01*
X76801333Y-47550000D01*
X76843958Y-47554198D01*
X76843958Y-47554198D01*
G37*
G36*
X78943958Y-47554198D02*
G01*
X78980208Y-47565194D01*
X79013623Y-47583055D01*
X79042910Y-47607090D01*
X79066945Y-47636377D01*
X79084806Y-47669792D01*
X79095802Y-47706042D01*
X79100000Y-47748667D01*
X79100000Y-48326333D01*
X79095802Y-48368958D01*
X79084806Y-48405208D01*
X79066945Y-48438623D01*
X79042910Y-48467910D01*
X79013623Y-48491945D01*
X78980208Y-48509806D01*
X78943958Y-48520802D01*
X78901333Y-48525000D01*
X77898667Y-48525000D01*
X77856042Y-48520802D01*
X77819792Y-48509806D01*
X77786377Y-48491945D01*
X77757090Y-48467910D01*
X77733055Y-48438623D01*
X77715194Y-48405208D01*
X77704198Y-48368958D01*
X77700000Y-48326333D01*
X77700000Y-47748667D01*
X77704198Y-47706042D01*
X77715194Y-47669792D01*
X77733055Y-47636377D01*
X77757090Y-47607090D01*
X77786377Y-47583055D01*
X77819792Y-47565194D01*
X77856042Y-47554198D01*
X77898667Y-47550000D01*
X78901333Y-47550000D01*
X78943958Y-47554198D01*
X78943958Y-47554198D01*
G37*
G36*
X117189077Y-46728717D02*
G01*
X117220643Y-46738292D01*
X117249733Y-46753840D01*
X117275232Y-46774768D01*
X117296160Y-46800267D01*
X117311708Y-46829357D01*
X117321283Y-46860923D01*
X117325000Y-46898658D01*
X117325000Y-47501342D01*
X117321283Y-47539077D01*
X117311708Y-47570643D01*
X117296160Y-47599733D01*
X117275232Y-47625232D01*
X117249733Y-47646160D01*
X117220643Y-47661708D01*
X117189077Y-47671283D01*
X117151342Y-47675000D01*
X116623658Y-47675000D01*
X116585923Y-47671283D01*
X116554357Y-47661708D01*
X116525267Y-47646160D01*
X116499768Y-47625232D01*
X116478840Y-47599733D01*
X116463292Y-47570643D01*
X116453717Y-47539077D01*
X116450000Y-47501342D01*
X116450000Y-46898658D01*
X116453717Y-46860923D01*
X116463292Y-46829357D01*
X116478840Y-46800267D01*
X116499768Y-46774768D01*
X116525267Y-46753840D01*
X116554357Y-46738292D01*
X116585923Y-46728717D01*
X116623658Y-46725000D01*
X117151342Y-46725000D01*
X117189077Y-46728717D01*
X117189077Y-46728717D01*
G37*
G36*
X115614077Y-46728717D02*
G01*
X115645643Y-46738292D01*
X115674733Y-46753840D01*
X115700232Y-46774768D01*
X115721160Y-46800267D01*
X115736708Y-46829357D01*
X115746283Y-46860923D01*
X115750000Y-46898658D01*
X115750000Y-47501342D01*
X115746283Y-47539077D01*
X115736708Y-47570643D01*
X115721160Y-47599733D01*
X115700232Y-47625232D01*
X115674733Y-47646160D01*
X115645643Y-47661708D01*
X115614077Y-47671283D01*
X115576342Y-47675000D01*
X115048658Y-47675000D01*
X115010923Y-47671283D01*
X114979357Y-47661708D01*
X114950267Y-47646160D01*
X114924768Y-47625232D01*
X114903840Y-47599733D01*
X114888292Y-47570643D01*
X114878717Y-47539077D01*
X114875000Y-47501342D01*
X114875000Y-46898658D01*
X114878717Y-46860923D01*
X114888292Y-46829357D01*
X114903840Y-46800267D01*
X114924768Y-46774768D01*
X114950267Y-46753840D01*
X114979357Y-46738292D01*
X115010923Y-46728717D01*
X115048658Y-46725000D01*
X115576342Y-46725000D01*
X115614077Y-46728717D01*
X115614077Y-46728717D01*
G37*
G36*
X78943958Y-45679198D02*
G01*
X78980208Y-45690194D01*
X79013623Y-45708055D01*
X79042910Y-45732090D01*
X79066945Y-45761377D01*
X79084806Y-45794792D01*
X79095802Y-45831042D01*
X79100000Y-45873667D01*
X79100000Y-46451333D01*
X79095802Y-46493958D01*
X79084806Y-46530208D01*
X79066945Y-46563623D01*
X79042910Y-46592910D01*
X79013623Y-46616945D01*
X78980208Y-46634806D01*
X78943958Y-46645802D01*
X78901333Y-46650000D01*
X77898667Y-46650000D01*
X77856042Y-46645802D01*
X77819792Y-46634806D01*
X77786377Y-46616945D01*
X77757090Y-46592910D01*
X77733055Y-46563623D01*
X77715194Y-46530208D01*
X77704198Y-46493958D01*
X77700000Y-46451333D01*
X77700000Y-45873667D01*
X77704198Y-45831042D01*
X77715194Y-45794792D01*
X77733055Y-45761377D01*
X77757090Y-45732090D01*
X77786377Y-45708055D01*
X77819792Y-45690194D01*
X77856042Y-45679198D01*
X77898667Y-45675000D01*
X78901333Y-45675000D01*
X78943958Y-45679198D01*
X78943958Y-45679198D01*
G37*
G36*
X76843958Y-45679198D02*
G01*
X76880208Y-45690194D01*
X76913623Y-45708055D01*
X76942910Y-45732090D01*
X76966945Y-45761377D01*
X76984806Y-45794792D01*
X76995802Y-45831042D01*
X77000000Y-45873667D01*
X77000000Y-46451333D01*
X76995802Y-46493958D01*
X76984806Y-46530208D01*
X76966945Y-46563623D01*
X76942910Y-46592910D01*
X76913623Y-46616945D01*
X76880208Y-46634806D01*
X76843958Y-46645802D01*
X76801333Y-46650000D01*
X75798667Y-46650000D01*
X75756042Y-46645802D01*
X75719792Y-46634806D01*
X75686377Y-46616945D01*
X75657090Y-46592910D01*
X75633055Y-46563623D01*
X75615194Y-46530208D01*
X75604198Y-46493958D01*
X75600000Y-46451333D01*
X75600000Y-45873667D01*
X75604198Y-45831042D01*
X75615194Y-45794792D01*
X75633055Y-45761377D01*
X75657090Y-45732090D01*
X75686377Y-45708055D01*
X75719792Y-45690194D01*
X75756042Y-45679198D01*
X75798667Y-45675000D01*
X76801333Y-45675000D01*
X76843958Y-45679198D01*
X76843958Y-45679198D01*
G37*
G36*
X105239077Y-44853717D02*
G01*
X105270643Y-44863292D01*
X105299733Y-44878840D01*
X105325232Y-44899768D01*
X105346160Y-44925267D01*
X105361708Y-44954357D01*
X105371283Y-44985923D01*
X105375000Y-45023658D01*
X105375000Y-45551342D01*
X105371283Y-45589077D01*
X105361708Y-45620643D01*
X105346160Y-45649733D01*
X105325232Y-45675232D01*
X105299733Y-45696160D01*
X105270643Y-45711708D01*
X105239077Y-45721283D01*
X105201342Y-45725000D01*
X104598658Y-45725000D01*
X104560923Y-45721283D01*
X104529357Y-45711708D01*
X104500267Y-45696160D01*
X104474768Y-45675232D01*
X104453840Y-45649733D01*
X104438292Y-45620643D01*
X104428717Y-45589077D01*
X104425000Y-45551342D01*
X104425000Y-45023658D01*
X104428717Y-44985923D01*
X104438292Y-44954357D01*
X104453840Y-44925267D01*
X104474768Y-44899768D01*
X104500267Y-44878840D01*
X104529357Y-44863292D01*
X104560923Y-44853717D01*
X104598658Y-44850000D01*
X105201342Y-44850000D01*
X105239077Y-44853717D01*
X105239077Y-44853717D01*
G37*
G36*
X116439077Y-44853717D02*
G01*
X116470643Y-44863292D01*
X116499733Y-44878840D01*
X116525232Y-44899768D01*
X116546160Y-44925267D01*
X116561708Y-44954357D01*
X116571283Y-44985923D01*
X116575000Y-45023658D01*
X116575000Y-45551342D01*
X116571283Y-45589077D01*
X116561708Y-45620643D01*
X116546160Y-45649733D01*
X116525232Y-45675232D01*
X116499733Y-45696160D01*
X116470643Y-45711708D01*
X116439077Y-45721283D01*
X116401342Y-45725000D01*
X115798658Y-45725000D01*
X115760923Y-45721283D01*
X115729357Y-45711708D01*
X115700267Y-45696160D01*
X115674768Y-45675232D01*
X115653840Y-45649733D01*
X115638292Y-45620643D01*
X115628717Y-45589077D01*
X115625000Y-45551342D01*
X115625000Y-45023658D01*
X115628717Y-44985923D01*
X115638292Y-44954357D01*
X115653840Y-44925267D01*
X115674768Y-44899768D01*
X115700267Y-44878840D01*
X115729357Y-44863292D01*
X115760923Y-44853717D01*
X115798658Y-44850000D01*
X116401342Y-44850000D01*
X116439077Y-44853717D01*
X116439077Y-44853717D01*
G37*
G36*
X82668332Y-43713892D02*
G01*
X82791689Y-43738429D01*
X82973678Y-43813811D01*
X83137463Y-43923249D01*
X83276751Y-44062537D01*
X83386189Y-44226322D01*
X83461571Y-44408311D01*
X83469568Y-44448514D01*
X83500000Y-44601507D01*
X83500000Y-44798493D01*
X83486442Y-44866651D01*
X83461571Y-44991689D01*
X83386189Y-45173678D01*
X83276751Y-45337463D01*
X83137463Y-45476751D01*
X82973678Y-45586189D01*
X82791689Y-45661571D01*
X82703071Y-45679198D01*
X82598493Y-45700000D01*
X82401507Y-45700000D01*
X82296929Y-45679198D01*
X82208311Y-45661571D01*
X82026322Y-45586189D01*
X81862537Y-45476751D01*
X81723249Y-45337463D01*
X81613811Y-45173678D01*
X81538429Y-44991689D01*
X81513558Y-44866651D01*
X81500000Y-44798493D01*
X81500000Y-44601507D01*
X81530432Y-44448514D01*
X81538429Y-44408311D01*
X81613811Y-44226322D01*
X81723249Y-44062537D01*
X81862537Y-43923249D01*
X82026322Y-43813811D01*
X82208311Y-43738429D01*
X82331668Y-43713892D01*
X82401507Y-43700000D01*
X82598493Y-43700000D01*
X82668332Y-43713892D01*
X82668332Y-43713892D01*
G37*
G36*
X114454474Y-44539734D02*
G01*
X114544613Y-44577070D01*
X114625736Y-44631275D01*
X114694725Y-44700264D01*
X114748930Y-44781387D01*
X114786266Y-44871526D01*
X114805300Y-44967217D01*
X114805300Y-45064783D01*
X114786266Y-45160474D01*
X114748930Y-45250613D01*
X114694725Y-45331736D01*
X114625736Y-45400725D01*
X114544613Y-45454930D01*
X114454474Y-45492266D01*
X114358783Y-45511300D01*
X114261217Y-45511300D01*
X114165526Y-45492266D01*
X114075387Y-45454930D01*
X113994264Y-45400725D01*
X113925275Y-45331736D01*
X113871070Y-45250613D01*
X113833734Y-45160474D01*
X113814700Y-45064783D01*
X113814700Y-44967217D01*
X113833734Y-44871526D01*
X113871070Y-44781387D01*
X113925275Y-44700264D01*
X113994264Y-44631275D01*
X114075387Y-44577070D01*
X114165526Y-44539734D01*
X114261217Y-44520700D01*
X114358783Y-44520700D01*
X114454474Y-44539734D01*
X114454474Y-44539734D01*
G37*
G36*
X110564130Y-44246343D02*
G01*
X110614840Y-44256430D01*
X110686486Y-44286106D01*
X110730826Y-44315734D01*
X110750969Y-44329193D01*
X110805807Y-44384031D01*
X110806271Y-44384726D01*
X110848894Y-44448514D01*
X110878570Y-44520160D01*
X110893700Y-44596225D01*
X110893700Y-44673775D01*
X110878570Y-44749840D01*
X110848894Y-44821486D01*
X110805806Y-44885970D01*
X110750970Y-44940806D01*
X110686486Y-44983894D01*
X110614840Y-45013570D01*
X110564130Y-45023657D01*
X110538776Y-45028700D01*
X110461224Y-45028700D01*
X110435870Y-45023657D01*
X110385160Y-45013570D01*
X110313514Y-44983894D01*
X110249030Y-44940806D01*
X110194194Y-44885970D01*
X110151106Y-44821486D01*
X110121430Y-44749840D01*
X110106300Y-44673775D01*
X110106300Y-44596225D01*
X110121430Y-44520160D01*
X110151106Y-44448514D01*
X110193729Y-44384726D01*
X110194193Y-44384031D01*
X110249031Y-44329193D01*
X110269174Y-44315734D01*
X110313514Y-44286106D01*
X110385160Y-44256430D01*
X110435870Y-44246343D01*
X110461224Y-44241300D01*
X110538776Y-44241300D01*
X110564130Y-44246343D01*
X110564130Y-44246343D01*
G37*
G36*
X108024130Y-44246343D02*
G01*
X108074840Y-44256430D01*
X108146486Y-44286106D01*
X108190826Y-44315734D01*
X108210969Y-44329193D01*
X108265807Y-44384031D01*
X108266271Y-44384726D01*
X108308894Y-44448514D01*
X108338570Y-44520160D01*
X108353700Y-44596225D01*
X108353700Y-44673775D01*
X108338570Y-44749840D01*
X108308894Y-44821486D01*
X108265806Y-44885970D01*
X108210970Y-44940806D01*
X108146486Y-44983894D01*
X108074840Y-45013570D01*
X108024130Y-45023657D01*
X107998776Y-45028700D01*
X107921224Y-45028700D01*
X107895870Y-45023657D01*
X107845160Y-45013570D01*
X107773514Y-44983894D01*
X107709030Y-44940806D01*
X107654194Y-44885970D01*
X107611106Y-44821486D01*
X107581430Y-44749840D01*
X107566300Y-44673775D01*
X107566300Y-44596225D01*
X107581430Y-44520160D01*
X107611106Y-44448514D01*
X107653729Y-44384726D01*
X107654193Y-44384031D01*
X107709031Y-44329193D01*
X107729174Y-44315734D01*
X107773514Y-44286106D01*
X107845160Y-44256430D01*
X107895870Y-44246343D01*
X107921224Y-44241300D01*
X107998776Y-44241300D01*
X108024130Y-44246343D01*
X108024130Y-44246343D01*
G37*
G36*
X109294130Y-44246343D02*
G01*
X109344840Y-44256430D01*
X109416486Y-44286106D01*
X109460826Y-44315734D01*
X109480969Y-44329193D01*
X109535807Y-44384031D01*
X109536271Y-44384726D01*
X109578894Y-44448514D01*
X109608570Y-44520160D01*
X109623700Y-44596225D01*
X109623700Y-44673775D01*
X109608570Y-44749840D01*
X109578894Y-44821486D01*
X109535806Y-44885970D01*
X109480970Y-44940806D01*
X109416486Y-44983894D01*
X109344840Y-45013570D01*
X109294130Y-45023657D01*
X109268776Y-45028700D01*
X109191224Y-45028700D01*
X109165870Y-45023657D01*
X109115160Y-45013570D01*
X109043514Y-44983894D01*
X108979030Y-44940806D01*
X108924194Y-44885970D01*
X108881106Y-44821486D01*
X108851430Y-44749840D01*
X108836300Y-44673775D01*
X108836300Y-44596225D01*
X108851430Y-44520160D01*
X108881106Y-44448514D01*
X108923729Y-44384726D01*
X108924193Y-44384031D01*
X108979031Y-44329193D01*
X108999174Y-44315734D01*
X109043514Y-44286106D01*
X109115160Y-44256430D01*
X109165870Y-44246343D01*
X109191224Y-44241300D01*
X109268776Y-44241300D01*
X109294130Y-44246343D01*
X109294130Y-44246343D01*
G37*
G36*
X113104130Y-44246343D02*
G01*
X113154840Y-44256430D01*
X113226486Y-44286106D01*
X113270826Y-44315734D01*
X113290969Y-44329193D01*
X113345807Y-44384031D01*
X113346271Y-44384726D01*
X113388894Y-44448514D01*
X113418570Y-44520160D01*
X113433700Y-44596225D01*
X113433700Y-44673775D01*
X113418570Y-44749840D01*
X113388894Y-44821486D01*
X113345806Y-44885970D01*
X113290970Y-44940806D01*
X113226486Y-44983894D01*
X113154840Y-45013570D01*
X113104130Y-45023657D01*
X113078776Y-45028700D01*
X113001224Y-45028700D01*
X112975870Y-45023657D01*
X112925160Y-45013570D01*
X112853514Y-44983894D01*
X112789030Y-44940806D01*
X112734194Y-44885970D01*
X112691106Y-44821486D01*
X112661430Y-44749840D01*
X112646300Y-44673775D01*
X112646300Y-44596225D01*
X112661430Y-44520160D01*
X112691106Y-44448514D01*
X112733729Y-44384726D01*
X112734193Y-44384031D01*
X112789031Y-44329193D01*
X112809174Y-44315734D01*
X112853514Y-44286106D01*
X112925160Y-44256430D01*
X112975870Y-44246343D01*
X113001224Y-44241300D01*
X113078776Y-44241300D01*
X113104130Y-44246343D01*
X113104130Y-44246343D01*
G37*
G36*
X111834130Y-44246343D02*
G01*
X111884840Y-44256430D01*
X111956486Y-44286106D01*
X112000826Y-44315734D01*
X112020969Y-44329193D01*
X112075807Y-44384031D01*
X112076271Y-44384726D01*
X112118894Y-44448514D01*
X112148570Y-44520160D01*
X112163700Y-44596225D01*
X112163700Y-44673775D01*
X112148570Y-44749840D01*
X112118894Y-44821486D01*
X112075806Y-44885970D01*
X112020970Y-44940806D01*
X111956486Y-44983894D01*
X111884840Y-45013570D01*
X111834130Y-45023657D01*
X111808776Y-45028700D01*
X111731224Y-45028700D01*
X111705870Y-45023657D01*
X111655160Y-45013570D01*
X111583514Y-44983894D01*
X111519030Y-44940806D01*
X111464194Y-44885970D01*
X111421106Y-44821486D01*
X111391430Y-44749840D01*
X111376300Y-44673775D01*
X111376300Y-44596225D01*
X111391430Y-44520160D01*
X111421106Y-44448514D01*
X111463729Y-44384726D01*
X111464193Y-44384031D01*
X111519031Y-44329193D01*
X111539174Y-44315734D01*
X111583514Y-44286106D01*
X111655160Y-44256430D01*
X111705870Y-44246343D01*
X111731224Y-44241300D01*
X111808776Y-44241300D01*
X111834130Y-44246343D01*
X111834130Y-44246343D01*
G37*
G36*
X106834474Y-43523734D02*
G01*
X106924613Y-43561070D01*
X107005736Y-43615275D01*
X107074725Y-43684264D01*
X107128930Y-43765387D01*
X107166266Y-43855526D01*
X107185300Y-43951217D01*
X107185300Y-44048783D01*
X107166266Y-44144474D01*
X107128930Y-44234613D01*
X107074725Y-44315736D01*
X107005736Y-44384725D01*
X106924613Y-44438930D01*
X106834474Y-44476266D01*
X106738783Y-44495300D01*
X106641217Y-44495300D01*
X106545526Y-44476266D01*
X106455387Y-44438930D01*
X106374264Y-44384725D01*
X106305275Y-44315736D01*
X106251070Y-44234613D01*
X106213734Y-44144474D01*
X106194700Y-44048783D01*
X106194700Y-43951217D01*
X106213734Y-43855526D01*
X106251070Y-43765387D01*
X106305275Y-43684264D01*
X106374264Y-43615275D01*
X106455387Y-43561070D01*
X106545526Y-43523734D01*
X106641217Y-43504700D01*
X106738783Y-43504700D01*
X106834474Y-43523734D01*
X106834474Y-43523734D01*
G37*
G36*
X105239077Y-43278717D02*
G01*
X105270643Y-43288292D01*
X105299733Y-43303840D01*
X105325232Y-43324768D01*
X105346160Y-43350267D01*
X105361708Y-43379357D01*
X105371283Y-43410923D01*
X105375000Y-43448658D01*
X105375000Y-43976342D01*
X105371283Y-44014077D01*
X105361708Y-44045643D01*
X105346160Y-44074733D01*
X105325232Y-44100232D01*
X105299733Y-44121160D01*
X105270643Y-44136708D01*
X105239077Y-44146283D01*
X105201342Y-44150000D01*
X104598658Y-44150000D01*
X104560923Y-44146283D01*
X104529357Y-44136708D01*
X104500267Y-44121160D01*
X104474768Y-44100232D01*
X104453840Y-44074733D01*
X104438292Y-44045643D01*
X104428717Y-44014077D01*
X104425000Y-43976342D01*
X104425000Y-43448658D01*
X104428717Y-43410923D01*
X104438292Y-43379357D01*
X104453840Y-43350267D01*
X104474768Y-43324768D01*
X104500267Y-43303840D01*
X104529357Y-43288292D01*
X104560923Y-43278717D01*
X104598658Y-43275000D01*
X105201342Y-43275000D01*
X105239077Y-43278717D01*
X105239077Y-43278717D01*
G37*
G36*
X116439077Y-43278717D02*
G01*
X116470643Y-43288292D01*
X116499733Y-43303840D01*
X116525232Y-43324768D01*
X116546160Y-43350267D01*
X116561708Y-43379357D01*
X116571283Y-43410923D01*
X116575000Y-43448658D01*
X116575000Y-43976342D01*
X116571283Y-44014077D01*
X116561708Y-44045643D01*
X116546160Y-44074733D01*
X116525232Y-44100232D01*
X116499733Y-44121160D01*
X116470643Y-44136708D01*
X116439077Y-44146283D01*
X116401342Y-44150000D01*
X115798658Y-44150000D01*
X115760923Y-44146283D01*
X115729357Y-44136708D01*
X115700267Y-44121160D01*
X115674768Y-44100232D01*
X115653840Y-44074733D01*
X115638292Y-44045643D01*
X115628717Y-44014077D01*
X115625000Y-43976342D01*
X115625000Y-43448658D01*
X115628717Y-43410923D01*
X115638292Y-43379357D01*
X115653840Y-43350267D01*
X115674768Y-43324768D01*
X115700267Y-43303840D01*
X115729357Y-43288292D01*
X115760923Y-43278717D01*
X115798658Y-43275000D01*
X116401342Y-43275000D01*
X116439077Y-43278717D01*
X116439077Y-43278717D01*
G37*
G36*
X108024130Y-42976343D02*
G01*
X108074840Y-42986430D01*
X108146486Y-43016106D01*
X108210970Y-43059194D01*
X108265806Y-43114030D01*
X108308894Y-43178514D01*
X108338570Y-43250160D01*
X108353700Y-43326225D01*
X108353700Y-43403775D01*
X108338570Y-43479840D01*
X108308894Y-43551486D01*
X108274400Y-43603108D01*
X108266271Y-43615275D01*
X108265806Y-43615970D01*
X108210970Y-43670806D01*
X108146486Y-43713894D01*
X108074840Y-43743570D01*
X108024130Y-43753657D01*
X107998776Y-43758700D01*
X107921224Y-43758700D01*
X107895870Y-43753657D01*
X107845160Y-43743570D01*
X107773514Y-43713894D01*
X107709030Y-43670806D01*
X107654194Y-43615970D01*
X107653730Y-43615275D01*
X107645600Y-43603108D01*
X107611106Y-43551486D01*
X107581430Y-43479840D01*
X107566300Y-43403775D01*
X107566300Y-43326225D01*
X107581430Y-43250160D01*
X107611106Y-43178514D01*
X107654194Y-43114030D01*
X107709030Y-43059194D01*
X107773514Y-43016106D01*
X107845160Y-42986430D01*
X107895870Y-42976343D01*
X107921224Y-42971300D01*
X107998776Y-42971300D01*
X108024130Y-42976343D01*
X108024130Y-42976343D01*
G37*
G36*
X109294130Y-42976343D02*
G01*
X109344840Y-42986430D01*
X109416486Y-43016106D01*
X109480970Y-43059194D01*
X109535806Y-43114030D01*
X109578894Y-43178514D01*
X109608570Y-43250160D01*
X109623700Y-43326225D01*
X109623700Y-43403775D01*
X109608570Y-43479840D01*
X109578894Y-43551486D01*
X109544400Y-43603108D01*
X109536271Y-43615275D01*
X109535806Y-43615970D01*
X109480970Y-43670806D01*
X109416486Y-43713894D01*
X109344840Y-43743570D01*
X109294130Y-43753657D01*
X109268776Y-43758700D01*
X109191224Y-43758700D01*
X109165870Y-43753657D01*
X109115160Y-43743570D01*
X109043514Y-43713894D01*
X108979030Y-43670806D01*
X108924194Y-43615970D01*
X108923730Y-43615275D01*
X108915600Y-43603108D01*
X108881106Y-43551486D01*
X108851430Y-43479840D01*
X108836300Y-43403775D01*
X108836300Y-43326225D01*
X108851430Y-43250160D01*
X108881106Y-43178514D01*
X108924194Y-43114030D01*
X108979030Y-43059194D01*
X109043514Y-43016106D01*
X109115160Y-42986430D01*
X109165870Y-42976343D01*
X109191224Y-42971300D01*
X109268776Y-42971300D01*
X109294130Y-42976343D01*
X109294130Y-42976343D01*
G37*
G36*
X113104130Y-42976343D02*
G01*
X113154840Y-42986430D01*
X113226486Y-43016106D01*
X113290970Y-43059194D01*
X113345806Y-43114030D01*
X113388894Y-43178514D01*
X113418570Y-43250160D01*
X113433700Y-43326225D01*
X113433700Y-43403775D01*
X113418570Y-43479840D01*
X113388894Y-43551486D01*
X113354400Y-43603108D01*
X113346271Y-43615275D01*
X113345806Y-43615970D01*
X113290970Y-43670806D01*
X113226486Y-43713894D01*
X113154840Y-43743570D01*
X113104130Y-43753657D01*
X113078776Y-43758700D01*
X113001224Y-43758700D01*
X112975870Y-43753657D01*
X112925160Y-43743570D01*
X112853514Y-43713894D01*
X112789030Y-43670806D01*
X112734194Y-43615970D01*
X112733730Y-43615275D01*
X112725600Y-43603108D01*
X112691106Y-43551486D01*
X112661430Y-43479840D01*
X112646300Y-43403775D01*
X112646300Y-43326225D01*
X112661430Y-43250160D01*
X112691106Y-43178514D01*
X112734194Y-43114030D01*
X112789030Y-43059194D01*
X112853514Y-43016106D01*
X112925160Y-42986430D01*
X112975870Y-42976343D01*
X113001224Y-42971300D01*
X113078776Y-42971300D01*
X113104130Y-42976343D01*
X113104130Y-42976343D01*
G37*
G36*
X110564130Y-42976343D02*
G01*
X110614840Y-42986430D01*
X110686486Y-43016106D01*
X110750970Y-43059194D01*
X110805806Y-43114030D01*
X110848894Y-43178514D01*
X110878570Y-43250160D01*
X110893700Y-43326225D01*
X110893700Y-43403775D01*
X110878570Y-43479840D01*
X110848894Y-43551486D01*
X110814400Y-43603108D01*
X110806271Y-43615275D01*
X110805806Y-43615970D01*
X110750970Y-43670806D01*
X110686486Y-43713894D01*
X110614840Y-43743570D01*
X110564130Y-43753657D01*
X110538776Y-43758700D01*
X110461224Y-43758700D01*
X110435870Y-43753657D01*
X110385160Y-43743570D01*
X110313514Y-43713894D01*
X110249030Y-43670806D01*
X110194194Y-43615970D01*
X110193730Y-43615275D01*
X110185600Y-43603108D01*
X110151106Y-43551486D01*
X110121430Y-43479840D01*
X110106300Y-43403775D01*
X110106300Y-43326225D01*
X110121430Y-43250160D01*
X110151106Y-43178514D01*
X110194194Y-43114030D01*
X110249030Y-43059194D01*
X110313514Y-43016106D01*
X110385160Y-42986430D01*
X110435870Y-42976343D01*
X110461224Y-42971300D01*
X110538776Y-42971300D01*
X110564130Y-42976343D01*
X110564130Y-42976343D01*
G37*
G36*
X111834130Y-42976343D02*
G01*
X111884840Y-42986430D01*
X111956486Y-43016106D01*
X112020970Y-43059194D01*
X112075806Y-43114030D01*
X112118894Y-43178514D01*
X112148570Y-43250160D01*
X112163700Y-43326225D01*
X112163700Y-43403775D01*
X112148570Y-43479840D01*
X112118894Y-43551486D01*
X112084400Y-43603108D01*
X112076271Y-43615275D01*
X112075806Y-43615970D01*
X112020970Y-43670806D01*
X111956486Y-43713894D01*
X111884840Y-43743570D01*
X111834130Y-43753657D01*
X111808776Y-43758700D01*
X111731224Y-43758700D01*
X111705870Y-43753657D01*
X111655160Y-43743570D01*
X111583514Y-43713894D01*
X111519030Y-43670806D01*
X111464194Y-43615970D01*
X111463730Y-43615275D01*
X111455600Y-43603108D01*
X111421106Y-43551486D01*
X111391430Y-43479840D01*
X111376300Y-43403775D01*
X111376300Y-43326225D01*
X111391430Y-43250160D01*
X111421106Y-43178514D01*
X111464194Y-43114030D01*
X111519030Y-43059194D01*
X111583514Y-43016106D01*
X111655160Y-42986430D01*
X111705870Y-42976343D01*
X111731224Y-42971300D01*
X111808776Y-42971300D01*
X111834130Y-42976343D01*
X111834130Y-42976343D01*
G37*
G36*
X114454474Y-42507734D02*
G01*
X114544613Y-42545070D01*
X114625736Y-42599275D01*
X114694725Y-42668264D01*
X114748930Y-42749387D01*
X114786266Y-42839526D01*
X114805300Y-42935217D01*
X114805300Y-43032783D01*
X114786266Y-43128474D01*
X114748930Y-43218613D01*
X114694725Y-43299736D01*
X114625736Y-43368725D01*
X114544613Y-43422930D01*
X114454474Y-43460266D01*
X114358783Y-43479300D01*
X114261217Y-43479300D01*
X114165526Y-43460266D01*
X114075387Y-43422930D01*
X113994264Y-43368725D01*
X113925275Y-43299736D01*
X113871070Y-43218613D01*
X113833734Y-43128474D01*
X113814700Y-43032783D01*
X113814700Y-42935217D01*
X113833734Y-42839526D01*
X113871070Y-42749387D01*
X113925275Y-42668264D01*
X113994264Y-42599275D01*
X114075387Y-42545070D01*
X114165526Y-42507734D01*
X114261217Y-42488700D01*
X114358783Y-42488700D01*
X114454474Y-42507734D01*
X114454474Y-42507734D01*
G37*
M02*
