G04 #@! TF.GenerationSoftware,KiCad,Pcbnew,5.1.2-f72e74a~84~ubuntu19.04.1*
G04 #@! TF.CreationDate,2019-06-20T20:35:49+03:00*
G04 #@! TF.ProjectId,GB-BRK-LINK-B,47422d42-524b-42d4-9c49-4e4b2d422e6b,v1.0*
G04 #@! TF.SameCoordinates,Original*
G04 #@! TF.FileFunction,Soldermask,Top*
G04 #@! TF.FilePolarity,Negative*
%FSLAX46Y46*%
G04 Gerber Fmt 4.6, Leading zero omitted, Abs format (unit mm)*
G04 Created by KiCad (PCBNEW 5.1.2-f72e74a~84~ubuntu19.04.1) date 2019-06-20 20:35:49*
%MOMM*%
%LPD*%
G04 APERTURE LIST*
%ADD10C,0.150000*%
%ADD11C,0.100000*%
G04 APERTURE END LIST*
D10*
X52000000Y-85000000D02*
G75*
G02X50000000Y-83000000I0J2000000D01*
G01*
X80000000Y-83000000D02*
G75*
G02X78000000Y-85000000I-2000000J0D01*
G01*
X78000000Y-50000000D02*
G75*
G02X80000000Y-52000000I0J-2000000D01*
G01*
X50000000Y-52000000D02*
G75*
G02X52000000Y-50000000I2000000J0D01*
G01*
X52000000Y-85000000D02*
X78000000Y-85000000D01*
X80000000Y-52000000D02*
X80000000Y-83000000D01*
X52000000Y-50000000D02*
X78000000Y-50000000D01*
X50000000Y-52000000D02*
X50000000Y-83000000D01*
D11*
G36*
X75466703Y-78461487D02*
G01*
X75466705Y-78461488D01*
X75466706Y-78461488D01*
X75757884Y-78582098D01*
X76019941Y-78757199D01*
X76242801Y-78980059D01*
X76417902Y-79242116D01*
X76538512Y-79533294D01*
X76600000Y-79842416D01*
X76600000Y-80157584D01*
X76538512Y-80466706D01*
X76417902Y-80757884D01*
X76242801Y-81019941D01*
X76019941Y-81242801D01*
X75757884Y-81417902D01*
X75466706Y-81538512D01*
X75466705Y-81538512D01*
X75466703Y-81538513D01*
X75157586Y-81600000D01*
X74842414Y-81600000D01*
X74533297Y-81538513D01*
X74533295Y-81538512D01*
X74533294Y-81538512D01*
X74242116Y-81417902D01*
X73980059Y-81242801D01*
X73757199Y-81019941D01*
X73582098Y-80757884D01*
X73461488Y-80466706D01*
X73400000Y-80157584D01*
X73400000Y-79842416D01*
X73461488Y-79533294D01*
X73582098Y-79242116D01*
X73757199Y-78980059D01*
X73980059Y-78757199D01*
X74242116Y-78582098D01*
X74533294Y-78461488D01*
X74533295Y-78461488D01*
X74533297Y-78461487D01*
X74842414Y-78400000D01*
X75157586Y-78400000D01*
X75466703Y-78461487D01*
X75466703Y-78461487D01*
G37*
G36*
X55466703Y-78461487D02*
G01*
X55466705Y-78461488D01*
X55466706Y-78461488D01*
X55757884Y-78582098D01*
X56019941Y-78757199D01*
X56242801Y-78980059D01*
X56417902Y-79242116D01*
X56538512Y-79533294D01*
X56600000Y-79842416D01*
X56600000Y-80157584D01*
X56538512Y-80466706D01*
X56417902Y-80757884D01*
X56242801Y-81019941D01*
X56019941Y-81242801D01*
X55757884Y-81417902D01*
X55466706Y-81538512D01*
X55466705Y-81538512D01*
X55466703Y-81538513D01*
X55157586Y-81600000D01*
X54842414Y-81600000D01*
X54533297Y-81538513D01*
X54533295Y-81538512D01*
X54533294Y-81538512D01*
X54242116Y-81417902D01*
X53980059Y-81242801D01*
X53757199Y-81019941D01*
X53582098Y-80757884D01*
X53461488Y-80466706D01*
X53400000Y-80157584D01*
X53400000Y-79842416D01*
X53461488Y-79533294D01*
X53582098Y-79242116D01*
X53757199Y-78980059D01*
X53980059Y-78757199D01*
X54242116Y-78582098D01*
X54533294Y-78461488D01*
X54533295Y-78461488D01*
X54533297Y-78461487D01*
X54842414Y-78400000D01*
X55157586Y-78400000D01*
X55466703Y-78461487D01*
X55466703Y-78461487D01*
G37*
G36*
X55166627Y-72712299D02*
G01*
X55326856Y-72760903D01*
X55474519Y-72839830D01*
X55603949Y-72946051D01*
X55710170Y-73075481D01*
X55789097Y-73223144D01*
X55837702Y-73383373D01*
X55854113Y-73550000D01*
X55837702Y-73716627D01*
X55789097Y-73876856D01*
X55710170Y-74024519D01*
X55603949Y-74153949D01*
X55474519Y-74260170D01*
X55326856Y-74339097D01*
X55166627Y-74387701D01*
X55041757Y-74400000D01*
X54958243Y-74400000D01*
X54833373Y-74387701D01*
X54673144Y-74339097D01*
X54525481Y-74260170D01*
X54396051Y-74153949D01*
X54289830Y-74024519D01*
X54210903Y-73876856D01*
X54162298Y-73716627D01*
X54145887Y-73550000D01*
X54162298Y-73383373D01*
X54210903Y-73223144D01*
X54289830Y-73075481D01*
X54396051Y-72946051D01*
X54525481Y-72839830D01*
X54673144Y-72760903D01*
X54833373Y-72712299D01*
X54958243Y-72700000D01*
X55041757Y-72700000D01*
X55166627Y-72712299D01*
X55166627Y-72712299D01*
G37*
G36*
X77537224Y-71010128D02*
G01*
X77669175Y-71050155D01*
X77752154Y-71094508D01*
X77790780Y-71115154D01*
X77790782Y-71115155D01*
X77790781Y-71115155D01*
X77897370Y-71202630D01*
X77984845Y-71309219D01*
X78049845Y-71430825D01*
X78089872Y-71562776D01*
X78103387Y-71700000D01*
X78089872Y-71837224D01*
X78049845Y-71969175D01*
X77984845Y-72090781D01*
X77897370Y-72197370D01*
X77800337Y-72277003D01*
X77790780Y-72284846D01*
X77752154Y-72305492D01*
X77669175Y-72349845D01*
X77537224Y-72389872D01*
X77434390Y-72400000D01*
X76565610Y-72400000D01*
X76462776Y-72389872D01*
X76330825Y-72349845D01*
X76247846Y-72305492D01*
X76209220Y-72284846D01*
X76199663Y-72277003D01*
X76102630Y-72197370D01*
X76015155Y-72090781D01*
X75950155Y-71969175D01*
X75910128Y-71837224D01*
X75896613Y-71700000D01*
X75910128Y-71562776D01*
X75950155Y-71430825D01*
X76015155Y-71309219D01*
X76102630Y-71202630D01*
X76209219Y-71115155D01*
X76209218Y-71115155D01*
X76209220Y-71115154D01*
X76247846Y-71094508D01*
X76330825Y-71050155D01*
X76462776Y-71010128D01*
X76565610Y-71000000D01*
X77434390Y-71000000D01*
X77537224Y-71010128D01*
X77537224Y-71010128D01*
G37*
G36*
X55166627Y-70172299D02*
G01*
X55326856Y-70220903D01*
X55474519Y-70299830D01*
X55603949Y-70406051D01*
X55710170Y-70535481D01*
X55789097Y-70683144D01*
X55837702Y-70843373D01*
X55854113Y-71010000D01*
X55837702Y-71176627D01*
X55789097Y-71336856D01*
X55710170Y-71484519D01*
X55603949Y-71613949D01*
X55474519Y-71720170D01*
X55326856Y-71799097D01*
X55166627Y-71847701D01*
X55041757Y-71860000D01*
X54958243Y-71860000D01*
X54833373Y-71847701D01*
X54673144Y-71799097D01*
X54525481Y-71720170D01*
X54396051Y-71613949D01*
X54289830Y-71484519D01*
X54210903Y-71336856D01*
X54162298Y-71176627D01*
X54145887Y-71010000D01*
X54162298Y-70843373D01*
X54210903Y-70683144D01*
X54289830Y-70535481D01*
X54396051Y-70406051D01*
X54525481Y-70299830D01*
X54673144Y-70220903D01*
X54833373Y-70172299D01*
X54958243Y-70160000D01*
X55041757Y-70160000D01*
X55166627Y-70172299D01*
X55166627Y-70172299D01*
G37*
G36*
X77523039Y-68510760D02*
G01*
X77604185Y-68526901D01*
X77731576Y-68579669D01*
X77846223Y-68656273D01*
X77943727Y-68753777D01*
X78020331Y-68868424D01*
X78073099Y-68995815D01*
X78100000Y-69131058D01*
X78100000Y-69268942D01*
X78073099Y-69404185D01*
X78020331Y-69531576D01*
X77943727Y-69646223D01*
X77846223Y-69743727D01*
X77731576Y-69820331D01*
X77604185Y-69873099D01*
X77523039Y-69889240D01*
X77468944Y-69900000D01*
X77331056Y-69900000D01*
X77276961Y-69889240D01*
X77195815Y-69873099D01*
X77068424Y-69820331D01*
X76953777Y-69743727D01*
X76856273Y-69646223D01*
X76779669Y-69531576D01*
X76726901Y-69404185D01*
X76700000Y-69268942D01*
X76700000Y-69131058D01*
X76726901Y-68995815D01*
X76779669Y-68868424D01*
X76856273Y-68753777D01*
X76953777Y-68656273D01*
X77068424Y-68579669D01*
X77195815Y-68526901D01*
X77276961Y-68510760D01*
X77331056Y-68500000D01*
X77468944Y-68500000D01*
X77523039Y-68510760D01*
X77523039Y-68510760D01*
G37*
G36*
X75523039Y-68510760D02*
G01*
X75604185Y-68526901D01*
X75731576Y-68579669D01*
X75846223Y-68656273D01*
X75943727Y-68753777D01*
X76020331Y-68868424D01*
X76073099Y-68995815D01*
X76100000Y-69131058D01*
X76100000Y-69268942D01*
X76073099Y-69404185D01*
X76020331Y-69531576D01*
X75943727Y-69646223D01*
X75846223Y-69743727D01*
X75731576Y-69820331D01*
X75604185Y-69873099D01*
X75523039Y-69889240D01*
X75468944Y-69900000D01*
X75331056Y-69900000D01*
X75276961Y-69889240D01*
X75195815Y-69873099D01*
X75068424Y-69820331D01*
X74953777Y-69743727D01*
X74856273Y-69646223D01*
X74779669Y-69531576D01*
X74726901Y-69404185D01*
X74700000Y-69268942D01*
X74700000Y-69131058D01*
X74726901Y-68995815D01*
X74779669Y-68868424D01*
X74856273Y-68753777D01*
X74953777Y-68656273D01*
X75068424Y-68579669D01*
X75195815Y-68526901D01*
X75276961Y-68510760D01*
X75331056Y-68500000D01*
X75468944Y-68500000D01*
X75523039Y-68510760D01*
X75523039Y-68510760D01*
G37*
G36*
X55166627Y-67632299D02*
G01*
X55326856Y-67680903D01*
X55474519Y-67759830D01*
X55603949Y-67866051D01*
X55710170Y-67995481D01*
X55789097Y-68143144D01*
X55837702Y-68303373D01*
X55854113Y-68470000D01*
X55837702Y-68636627D01*
X55789097Y-68796856D01*
X55710170Y-68944519D01*
X55603949Y-69073949D01*
X55474519Y-69180170D01*
X55326856Y-69259097D01*
X55166627Y-69307701D01*
X55041757Y-69320000D01*
X54958243Y-69320000D01*
X54833373Y-69307701D01*
X54673144Y-69259097D01*
X54525481Y-69180170D01*
X54396051Y-69073949D01*
X54289830Y-68944519D01*
X54210903Y-68796856D01*
X54162298Y-68636627D01*
X54145887Y-68470000D01*
X54162298Y-68303373D01*
X54210903Y-68143144D01*
X54289830Y-67995481D01*
X54396051Y-67866051D01*
X54525481Y-67759830D01*
X54673144Y-67680903D01*
X54833373Y-67632299D01*
X54958243Y-67620000D01*
X55041757Y-67620000D01*
X55166627Y-67632299D01*
X55166627Y-67632299D01*
G37*
G36*
X75523039Y-66510760D02*
G01*
X75604185Y-66526901D01*
X75731576Y-66579669D01*
X75846223Y-66656273D01*
X75943727Y-66753777D01*
X76020331Y-66868424D01*
X76073099Y-66995815D01*
X76100000Y-67131058D01*
X76100000Y-67268942D01*
X76073099Y-67404185D01*
X76020331Y-67531576D01*
X75943727Y-67646223D01*
X75846223Y-67743727D01*
X75731576Y-67820331D01*
X75604185Y-67873099D01*
X75523039Y-67889240D01*
X75468944Y-67900000D01*
X75331056Y-67900000D01*
X75276961Y-67889240D01*
X75195815Y-67873099D01*
X75068424Y-67820331D01*
X74953777Y-67743727D01*
X74856273Y-67646223D01*
X74779669Y-67531576D01*
X74726901Y-67404185D01*
X74700000Y-67268942D01*
X74700000Y-67131058D01*
X74726901Y-66995815D01*
X74779669Y-66868424D01*
X74856273Y-66753777D01*
X74953777Y-66656273D01*
X75068424Y-66579669D01*
X75195815Y-66526901D01*
X75276961Y-66510760D01*
X75331056Y-66500000D01*
X75468944Y-66500000D01*
X75523039Y-66510760D01*
X75523039Y-66510760D01*
G37*
G36*
X77523039Y-66510760D02*
G01*
X77604185Y-66526901D01*
X77731576Y-66579669D01*
X77846223Y-66656273D01*
X77943727Y-66753777D01*
X78020331Y-66868424D01*
X78073099Y-66995815D01*
X78100000Y-67131058D01*
X78100000Y-67268942D01*
X78073099Y-67404185D01*
X78020331Y-67531576D01*
X77943727Y-67646223D01*
X77846223Y-67743727D01*
X77731576Y-67820331D01*
X77604185Y-67873099D01*
X77523039Y-67889240D01*
X77468944Y-67900000D01*
X77331056Y-67900000D01*
X77276961Y-67889240D01*
X77195815Y-67873099D01*
X77068424Y-67820331D01*
X76953777Y-67743727D01*
X76856273Y-67646223D01*
X76779669Y-67531576D01*
X76726901Y-67404185D01*
X76700000Y-67268942D01*
X76700000Y-67131058D01*
X76726901Y-66995815D01*
X76779669Y-66868424D01*
X76856273Y-66753777D01*
X76953777Y-66656273D01*
X77068424Y-66579669D01*
X77195815Y-66526901D01*
X77276961Y-66510760D01*
X77331056Y-66500000D01*
X77468944Y-66500000D01*
X77523039Y-66510760D01*
X77523039Y-66510760D01*
G37*
G36*
X55166627Y-65092299D02*
G01*
X55326856Y-65140903D01*
X55474519Y-65219830D01*
X55603949Y-65326051D01*
X55710170Y-65455481D01*
X55789097Y-65603144D01*
X55837702Y-65763373D01*
X55854113Y-65930000D01*
X55837702Y-66096627D01*
X55789097Y-66256856D01*
X55710170Y-66404519D01*
X55603949Y-66533949D01*
X55474519Y-66640170D01*
X55326856Y-66719097D01*
X55166627Y-66767701D01*
X55041757Y-66780000D01*
X54958243Y-66780000D01*
X54833373Y-66767701D01*
X54673144Y-66719097D01*
X54525481Y-66640170D01*
X54396051Y-66533949D01*
X54289830Y-66404519D01*
X54210903Y-66256856D01*
X54162298Y-66096627D01*
X54145887Y-65930000D01*
X54162298Y-65763373D01*
X54210903Y-65603144D01*
X54289830Y-65455481D01*
X54396051Y-65326051D01*
X54525481Y-65219830D01*
X54673144Y-65140903D01*
X54833373Y-65092299D01*
X54958243Y-65080000D01*
X55041757Y-65080000D01*
X55166627Y-65092299D01*
X55166627Y-65092299D01*
G37*
G36*
X76100000Y-65900000D02*
G01*
X74700000Y-65900000D01*
X74700000Y-64500000D01*
X76100000Y-64500000D01*
X76100000Y-65900000D01*
X76100000Y-65900000D01*
G37*
G36*
X77523039Y-64510760D02*
G01*
X77604185Y-64526901D01*
X77731576Y-64579669D01*
X77846223Y-64656273D01*
X77943727Y-64753777D01*
X78020331Y-64868424D01*
X78073099Y-64995815D01*
X78100000Y-65131058D01*
X78100000Y-65268942D01*
X78073099Y-65404185D01*
X78020331Y-65531576D01*
X77943727Y-65646223D01*
X77846223Y-65743727D01*
X77731576Y-65820331D01*
X77604185Y-65873099D01*
X77523039Y-65889240D01*
X77468944Y-65900000D01*
X77331056Y-65900000D01*
X77276961Y-65889240D01*
X77195815Y-65873099D01*
X77068424Y-65820331D01*
X76953777Y-65743727D01*
X76856273Y-65646223D01*
X76779669Y-65531576D01*
X76726901Y-65404185D01*
X76700000Y-65268942D01*
X76700000Y-65131058D01*
X76726901Y-64995815D01*
X76779669Y-64868424D01*
X76856273Y-64753777D01*
X76953777Y-64656273D01*
X77068424Y-64579669D01*
X77195815Y-64526901D01*
X77276961Y-64510760D01*
X77331056Y-64500000D01*
X77468944Y-64500000D01*
X77523039Y-64510760D01*
X77523039Y-64510760D01*
G37*
G36*
X55166627Y-62552299D02*
G01*
X55326856Y-62600903D01*
X55474519Y-62679830D01*
X55603949Y-62786051D01*
X55710170Y-62915481D01*
X55789097Y-63063144D01*
X55837702Y-63223373D01*
X55854113Y-63390000D01*
X55837702Y-63556627D01*
X55789097Y-63716856D01*
X55710170Y-63864519D01*
X55603949Y-63993949D01*
X55474519Y-64100170D01*
X55326856Y-64179097D01*
X55166627Y-64227701D01*
X55041757Y-64240000D01*
X54958243Y-64240000D01*
X54833373Y-64227701D01*
X54673144Y-64179097D01*
X54525481Y-64100170D01*
X54396051Y-63993949D01*
X54289830Y-63864519D01*
X54210903Y-63716856D01*
X54162298Y-63556627D01*
X54145887Y-63390000D01*
X54162298Y-63223373D01*
X54210903Y-63063144D01*
X54289830Y-62915481D01*
X54396051Y-62786051D01*
X54525481Y-62679830D01*
X54673144Y-62600903D01*
X54833373Y-62552299D01*
X54958243Y-62540000D01*
X55041757Y-62540000D01*
X55166627Y-62552299D01*
X55166627Y-62552299D01*
G37*
G36*
X77537224Y-62010128D02*
G01*
X77669175Y-62050155D01*
X77752154Y-62094508D01*
X77790780Y-62115154D01*
X77790782Y-62115155D01*
X77790781Y-62115155D01*
X77897370Y-62202630D01*
X77984845Y-62309219D01*
X78049845Y-62430825D01*
X78089872Y-62562776D01*
X78103387Y-62700000D01*
X78089872Y-62837224D01*
X78049845Y-62969175D01*
X77984845Y-63090781D01*
X77897370Y-63197370D01*
X77800337Y-63277003D01*
X77790780Y-63284846D01*
X77752154Y-63305492D01*
X77669175Y-63349845D01*
X77537224Y-63389872D01*
X77434390Y-63400000D01*
X76565610Y-63400000D01*
X76462776Y-63389872D01*
X76330825Y-63349845D01*
X76247846Y-63305492D01*
X76209220Y-63284846D01*
X76199663Y-63277003D01*
X76102630Y-63197370D01*
X76015155Y-63090781D01*
X75950155Y-62969175D01*
X75910128Y-62837224D01*
X75896613Y-62700000D01*
X75910128Y-62562776D01*
X75950155Y-62430825D01*
X76015155Y-62309219D01*
X76102630Y-62202630D01*
X76209219Y-62115155D01*
X76209218Y-62115155D01*
X76209220Y-62115154D01*
X76247846Y-62094508D01*
X76330825Y-62050155D01*
X76462776Y-62010128D01*
X76565610Y-62000000D01*
X77434390Y-62000000D01*
X77537224Y-62010128D01*
X77537224Y-62010128D01*
G37*
G36*
X55850000Y-61700000D02*
G01*
X54150000Y-61700000D01*
X54150000Y-60000000D01*
X55850000Y-60000000D01*
X55850000Y-61700000D01*
X55850000Y-61700000D01*
G37*
G36*
X55466703Y-53461487D02*
G01*
X55466705Y-53461488D01*
X55466706Y-53461488D01*
X55757884Y-53582098D01*
X56019941Y-53757199D01*
X56242801Y-53980059D01*
X56417902Y-54242116D01*
X56538512Y-54533294D01*
X56600000Y-54842416D01*
X56600000Y-55157584D01*
X56538512Y-55466706D01*
X56417902Y-55757884D01*
X56242801Y-56019941D01*
X56019941Y-56242801D01*
X55757884Y-56417902D01*
X55466706Y-56538512D01*
X55466705Y-56538512D01*
X55466703Y-56538513D01*
X55157586Y-56600000D01*
X54842414Y-56600000D01*
X54533297Y-56538513D01*
X54533295Y-56538512D01*
X54533294Y-56538512D01*
X54242116Y-56417902D01*
X53980059Y-56242801D01*
X53757199Y-56019941D01*
X53582098Y-55757884D01*
X53461488Y-55466706D01*
X53400000Y-55157584D01*
X53400000Y-54842416D01*
X53461488Y-54533294D01*
X53582098Y-54242116D01*
X53757199Y-53980059D01*
X53980059Y-53757199D01*
X54242116Y-53582098D01*
X54533294Y-53461488D01*
X54533295Y-53461488D01*
X54533297Y-53461487D01*
X54842414Y-53400000D01*
X55157586Y-53400000D01*
X55466703Y-53461487D01*
X55466703Y-53461487D01*
G37*
G36*
X75466703Y-53461487D02*
G01*
X75466705Y-53461488D01*
X75466706Y-53461488D01*
X75757884Y-53582098D01*
X76019941Y-53757199D01*
X76242801Y-53980059D01*
X76417902Y-54242116D01*
X76538512Y-54533294D01*
X76600000Y-54842416D01*
X76600000Y-55157584D01*
X76538512Y-55466706D01*
X76417902Y-55757884D01*
X76242801Y-56019941D01*
X76019941Y-56242801D01*
X75757884Y-56417902D01*
X75466706Y-56538512D01*
X75466705Y-56538512D01*
X75466703Y-56538513D01*
X75157586Y-56600000D01*
X74842414Y-56600000D01*
X74533297Y-56538513D01*
X74533295Y-56538512D01*
X74533294Y-56538512D01*
X74242116Y-56417902D01*
X73980059Y-56242801D01*
X73757199Y-56019941D01*
X73582098Y-55757884D01*
X73461488Y-55466706D01*
X73400000Y-55157584D01*
X73400000Y-54842416D01*
X73461488Y-54533294D01*
X73582098Y-54242116D01*
X73757199Y-53980059D01*
X73980059Y-53757199D01*
X74242116Y-53582098D01*
X74533294Y-53461488D01*
X74533295Y-53461488D01*
X74533297Y-53461487D01*
X74842414Y-53400000D01*
X75157586Y-53400000D01*
X75466703Y-53461487D01*
X75466703Y-53461487D01*
G37*
M02*
