G04 #@! TF.GenerationSoftware,KiCad,Pcbnew,5.1.6-c6e7f7d~86~ubuntu20.04.1*
G04 #@! TF.CreationDate,2020-05-17T16:03:39+03:00*
G04 #@! TF.ProjectId,GB-BRK-LINK-B,47422d42-524b-42d4-9c49-4e4b2d422e6b,v1.0*
G04 #@! TF.SameCoordinates,Original*
G04 #@! TF.FileFunction,Copper,L2,Bot*
G04 #@! TF.FilePolarity,Positive*
%FSLAX46Y46*%
G04 Gerber Fmt 4.6, Leading zero omitted, Abs format (unit mm)*
G04 Created by KiCad (PCBNEW 5.1.6-c6e7f7d~86~ubuntu20.04.1) date 2020-05-17 16:03:39*
%MOMM*%
%LPD*%
G01*
G04 APERTURE LIST*
G04 #@! TA.AperFunction,Profile*
%ADD10C,0.150000*%
G04 #@! TD*
G04 #@! TA.AperFunction,ComponentPad*
%ADD11C,1.400000*%
G04 #@! TD*
G04 #@! TA.AperFunction,ComponentPad*
%ADD12R,1.400000X1.400000*%
G04 #@! TD*
G04 #@! TA.AperFunction,ComponentPad*
%ADD13O,2.200000X1.400000*%
G04 #@! TD*
G04 #@! TA.AperFunction,ComponentPad*
%ADD14R,1.700000X1.700000*%
G04 #@! TD*
G04 #@! TA.AperFunction,ComponentPad*
%ADD15O,1.700000X1.700000*%
G04 #@! TD*
G04 #@! TA.AperFunction,ViaPad*
%ADD16C,0.800000*%
G04 #@! TD*
G04 #@! TA.AperFunction,Conductor*
%ADD17C,0.300000*%
G04 #@! TD*
G04 #@! TA.AperFunction,Conductor*
%ADD18C,0.200000*%
G04 #@! TD*
G04 APERTURE END LIST*
D10*
X52000000Y-85000000D02*
G75*
G02*
X50000000Y-83000000I0J2000000D01*
G01*
X80000000Y-83000000D02*
G75*
G02*
X78000000Y-85000000I-2000000J0D01*
G01*
X78000000Y-50000000D02*
G75*
G02*
X80000000Y-52000000I0J-2000000D01*
G01*
X50000000Y-52000000D02*
G75*
G02*
X52000000Y-50000000I2000000J0D01*
G01*
X52000000Y-85000000D02*
X78000000Y-85000000D01*
X80000000Y-52000000D02*
X80000000Y-83000000D01*
X52000000Y-50000000D02*
X78000000Y-50000000D01*
X50000000Y-52000000D02*
X50000000Y-83000000D01*
D11*
X77400000Y-69200000D03*
X75400000Y-69200000D03*
X77400000Y-67200000D03*
X75400000Y-67200000D03*
X77400000Y-65200000D03*
D12*
X75400000Y-65200000D03*
D13*
X77000000Y-71700000D03*
X77000000Y-62700000D03*
D14*
X55000000Y-60850000D03*
D15*
X55000000Y-63390000D03*
X55000000Y-65930000D03*
X55000000Y-68470000D03*
X55000000Y-71010000D03*
X55000000Y-73550000D03*
D16*
X69100000Y-63400000D03*
X76700000Y-74400000D03*
X70900000Y-68500000D03*
D17*
X69699999Y-63999999D02*
X69100000Y-63400000D01*
X76499999Y-63999999D02*
X69699999Y-63999999D01*
X77400000Y-65200000D02*
X77400000Y-64900000D01*
X77400000Y-64900000D02*
X76499999Y-63999999D01*
X76700000Y-74400000D02*
X70900000Y-68600000D01*
X70900000Y-68600000D02*
X70900000Y-68500000D01*
D18*
G36*
X78276249Y-50604844D02*
G01*
X78541973Y-50685071D01*
X78787055Y-50815383D01*
X79002158Y-50990817D01*
X79179092Y-51204692D01*
X79311113Y-51448860D01*
X79393193Y-51714018D01*
X79425000Y-52016637D01*
X79425001Y-82971864D01*
X79395156Y-83276249D01*
X79314928Y-83541975D01*
X79184615Y-83787058D01*
X79009181Y-84002161D01*
X78795304Y-84179095D01*
X78551141Y-84311113D01*
X78285982Y-84393193D01*
X77983363Y-84425000D01*
X52028126Y-84425000D01*
X51723751Y-84395156D01*
X51458025Y-84314928D01*
X51212942Y-84184615D01*
X50997839Y-84009181D01*
X50820905Y-83795304D01*
X50688887Y-83551141D01*
X50606807Y-83285982D01*
X50575000Y-82983363D01*
X50575000Y-79793168D01*
X52900000Y-79793168D01*
X52900000Y-80206832D01*
X52980702Y-80612547D01*
X53139004Y-80994723D01*
X53368823Y-81338672D01*
X53661328Y-81631177D01*
X54005277Y-81860996D01*
X54387453Y-82019298D01*
X54793168Y-82100000D01*
X55206832Y-82100000D01*
X55612547Y-82019298D01*
X55994723Y-81860996D01*
X56338672Y-81631177D01*
X56631177Y-81338672D01*
X56860996Y-80994723D01*
X57019298Y-80612547D01*
X57100000Y-80206832D01*
X57100000Y-79793168D01*
X72900000Y-79793168D01*
X72900000Y-80206832D01*
X72980702Y-80612547D01*
X73139004Y-80994723D01*
X73368823Y-81338672D01*
X73661328Y-81631177D01*
X74005277Y-81860996D01*
X74387453Y-82019298D01*
X74793168Y-82100000D01*
X75206832Y-82100000D01*
X75612547Y-82019298D01*
X75994723Y-81860996D01*
X76338672Y-81631177D01*
X76631177Y-81338672D01*
X76860996Y-80994723D01*
X77019298Y-80612547D01*
X77100000Y-80206832D01*
X77100000Y-79793168D01*
X77019298Y-79387453D01*
X76860996Y-79005277D01*
X76631177Y-78661328D01*
X76338672Y-78368823D01*
X75994723Y-78139004D01*
X75612547Y-77980702D01*
X75206832Y-77900000D01*
X74793168Y-77900000D01*
X74387453Y-77980702D01*
X74005277Y-78139004D01*
X73661328Y-78368823D01*
X73368823Y-78661328D01*
X73139004Y-79005277D01*
X72980702Y-79387453D01*
X72900000Y-79793168D01*
X57100000Y-79793168D01*
X57019298Y-79387453D01*
X56860996Y-79005277D01*
X56631177Y-78661328D01*
X56338672Y-78368823D01*
X55994723Y-78139004D01*
X55612547Y-77980702D01*
X55206832Y-77900000D01*
X54793168Y-77900000D01*
X54387453Y-77980702D01*
X54005277Y-78139004D01*
X53661328Y-78368823D01*
X53368823Y-78661328D01*
X53139004Y-79005277D01*
X52980702Y-79387453D01*
X52900000Y-79793168D01*
X50575000Y-79793168D01*
X50575000Y-60000000D01*
X53647581Y-60000000D01*
X53647581Y-61700000D01*
X53657235Y-61798017D01*
X53685825Y-61892267D01*
X53732254Y-61979129D01*
X53794736Y-62055264D01*
X53870871Y-62117746D01*
X53957733Y-62164175D01*
X54051983Y-62192765D01*
X54150000Y-62202419D01*
X54347405Y-62202419D01*
X54139425Y-62341387D01*
X53951387Y-62529425D01*
X53803646Y-62750535D01*
X53701880Y-62996220D01*
X53650000Y-63257037D01*
X53650000Y-63522963D01*
X53701880Y-63783780D01*
X53803646Y-64029465D01*
X53951387Y-64250575D01*
X54139425Y-64438613D01*
X54360535Y-64586354D01*
X54538332Y-64660000D01*
X54360535Y-64733646D01*
X54139425Y-64881387D01*
X53951387Y-65069425D01*
X53803646Y-65290535D01*
X53701880Y-65536220D01*
X53650000Y-65797037D01*
X53650000Y-66062963D01*
X53701880Y-66323780D01*
X53803646Y-66569465D01*
X53951387Y-66790575D01*
X54139425Y-66978613D01*
X54360535Y-67126354D01*
X54538332Y-67200000D01*
X54360535Y-67273646D01*
X54139425Y-67421387D01*
X53951387Y-67609425D01*
X53803646Y-67830535D01*
X53701880Y-68076220D01*
X53650000Y-68337037D01*
X53650000Y-68602963D01*
X53701880Y-68863780D01*
X53803646Y-69109465D01*
X53951387Y-69330575D01*
X54139425Y-69518613D01*
X54360535Y-69666354D01*
X54538332Y-69740000D01*
X54360535Y-69813646D01*
X54139425Y-69961387D01*
X53951387Y-70149425D01*
X53803646Y-70370535D01*
X53701880Y-70616220D01*
X53650000Y-70877037D01*
X53650000Y-71142963D01*
X53701880Y-71403780D01*
X53803646Y-71649465D01*
X53951387Y-71870575D01*
X54139425Y-72058613D01*
X54360535Y-72206354D01*
X54606220Y-72308120D01*
X54867037Y-72360000D01*
X55132963Y-72360000D01*
X55393780Y-72308120D01*
X55639465Y-72206354D01*
X55860575Y-72058613D01*
X56048613Y-71870575D01*
X56196354Y-71649465D01*
X56298120Y-71403780D01*
X56350000Y-71142963D01*
X56350000Y-70877037D01*
X56298120Y-70616220D01*
X56196354Y-70370535D01*
X56048613Y-70149425D01*
X55860575Y-69961387D01*
X55639465Y-69813646D01*
X55461668Y-69740000D01*
X55639465Y-69666354D01*
X55860575Y-69518613D01*
X56048613Y-69330575D01*
X56196354Y-69109465D01*
X56298120Y-68863780D01*
X56350000Y-68602963D01*
X56350000Y-68411358D01*
X70000000Y-68411358D01*
X70000000Y-68588642D01*
X70034586Y-68762520D01*
X70102430Y-68926310D01*
X70200924Y-69073717D01*
X70326283Y-69199076D01*
X70473690Y-69297570D01*
X70637480Y-69365414D01*
X70773165Y-69392403D01*
X75800000Y-74419238D01*
X75800000Y-74488642D01*
X75834586Y-74662520D01*
X75902430Y-74826310D01*
X76000924Y-74973717D01*
X76126283Y-75099076D01*
X76273690Y-75197570D01*
X76437480Y-75265414D01*
X76611358Y-75300000D01*
X76788642Y-75300000D01*
X76962520Y-75265414D01*
X77126310Y-75197570D01*
X77273717Y-75099076D01*
X77399076Y-74973717D01*
X77497570Y-74826310D01*
X77565414Y-74662520D01*
X77600000Y-74488642D01*
X77600000Y-74311358D01*
X77565414Y-74137480D01*
X77497570Y-73973690D01*
X77399076Y-73826283D01*
X77273717Y-73700924D01*
X77126310Y-73602430D01*
X76962520Y-73534586D01*
X76788642Y-73500000D01*
X76719238Y-73500000D01*
X71800000Y-68580762D01*
X71800000Y-68411358D01*
X71765414Y-68237480D01*
X71697570Y-68073690D01*
X71599076Y-67926283D01*
X71473717Y-67800924D01*
X71326310Y-67702430D01*
X71162520Y-67634586D01*
X70988642Y-67600000D01*
X70811358Y-67600000D01*
X70637480Y-67634586D01*
X70473690Y-67702430D01*
X70326283Y-67800924D01*
X70200924Y-67926283D01*
X70102430Y-68073690D01*
X70034586Y-68237480D01*
X70000000Y-68411358D01*
X56350000Y-68411358D01*
X56350000Y-68337037D01*
X56298120Y-68076220D01*
X56196354Y-67830535D01*
X56048613Y-67609425D01*
X55860575Y-67421387D01*
X55639465Y-67273646D01*
X55461668Y-67200000D01*
X55639465Y-67126354D01*
X55860575Y-66978613D01*
X56048613Y-66790575D01*
X56196354Y-66569465D01*
X56298120Y-66323780D01*
X56350000Y-66062963D01*
X56350000Y-65797037D01*
X56298120Y-65536220D01*
X56196354Y-65290535D01*
X56048613Y-65069425D01*
X55860575Y-64881387D01*
X55639465Y-64733646D01*
X55461668Y-64660000D01*
X55639465Y-64586354D01*
X55860575Y-64438613D01*
X56048613Y-64250575D01*
X56196354Y-64029465D01*
X56298120Y-63783780D01*
X56350000Y-63522963D01*
X56350000Y-63311358D01*
X68200000Y-63311358D01*
X68200000Y-63488642D01*
X68234586Y-63662520D01*
X68302430Y-63826310D01*
X68400924Y-63973717D01*
X68526283Y-64099076D01*
X68673690Y-64197570D01*
X68837480Y-64265414D01*
X69011358Y-64300000D01*
X69080762Y-64300000D01*
X69217799Y-64437037D01*
X69238156Y-64461842D01*
X69337131Y-64543069D01*
X69450051Y-64603426D01*
X69572577Y-64640594D01*
X69668067Y-64649999D01*
X69668075Y-64649999D01*
X69699999Y-64653143D01*
X69731923Y-64649999D01*
X74197581Y-64649999D01*
X74197581Y-65900000D01*
X74207235Y-65998017D01*
X74235825Y-66092267D01*
X74282254Y-66179129D01*
X74344736Y-66255264D01*
X74420871Y-66317746D01*
X74507733Y-66364175D01*
X74531546Y-66371398D01*
X74467899Y-66435045D01*
X74336574Y-66631587D01*
X74246116Y-66849973D01*
X74200000Y-67081810D01*
X74200000Y-67318190D01*
X74246116Y-67550027D01*
X74336574Y-67768413D01*
X74467899Y-67964955D01*
X74635045Y-68132101D01*
X74736663Y-68200000D01*
X74635045Y-68267899D01*
X74467899Y-68435045D01*
X74336574Y-68631587D01*
X74246116Y-68849973D01*
X74200000Y-69081810D01*
X74200000Y-69318190D01*
X74246116Y-69550027D01*
X74336574Y-69768413D01*
X74467899Y-69964955D01*
X74635045Y-70132101D01*
X74831587Y-70263426D01*
X75049973Y-70353884D01*
X75281810Y-70400000D01*
X75518190Y-70400000D01*
X75750027Y-70353884D01*
X75968413Y-70263426D01*
X76164955Y-70132101D01*
X76332101Y-69964955D01*
X76463426Y-69768413D01*
X76553884Y-69550027D01*
X76600000Y-69318190D01*
X76600000Y-69081810D01*
X76553884Y-68849973D01*
X76463426Y-68631587D01*
X76332101Y-68435045D01*
X76164955Y-68267899D01*
X76063337Y-68200000D01*
X76164955Y-68132101D01*
X76332101Y-67964955D01*
X76400000Y-67863337D01*
X76467899Y-67964955D01*
X76635045Y-68132101D01*
X76831587Y-68263426D01*
X77049973Y-68353884D01*
X77281810Y-68400000D01*
X77518190Y-68400000D01*
X77750027Y-68353884D01*
X77968413Y-68263426D01*
X78164955Y-68132101D01*
X78332101Y-67964955D01*
X78463426Y-67768413D01*
X78553884Y-67550027D01*
X78600000Y-67318190D01*
X78600000Y-67081810D01*
X78553884Y-66849973D01*
X78463426Y-66631587D01*
X78332101Y-66435045D01*
X78164955Y-66267899D01*
X78063337Y-66200000D01*
X78164955Y-66132101D01*
X78332101Y-65964955D01*
X78463426Y-65768413D01*
X78553884Y-65550027D01*
X78600000Y-65318190D01*
X78600000Y-65081810D01*
X78553884Y-64849973D01*
X78463426Y-64631587D01*
X78332101Y-64435045D01*
X78164955Y-64267899D01*
X77968413Y-64136574D01*
X77750027Y-64046116D01*
X77518190Y-64000000D01*
X77419239Y-64000000D01*
X76982197Y-63562959D01*
X76961842Y-63538156D01*
X76862867Y-63456929D01*
X76749947Y-63396572D01*
X76627421Y-63359404D01*
X76531931Y-63349999D01*
X76531920Y-63349999D01*
X76499999Y-63346855D01*
X76468078Y-63349999D01*
X70000000Y-63349999D01*
X70000000Y-63311358D01*
X69965414Y-63137480D01*
X69897570Y-62973690D01*
X69799076Y-62826283D01*
X69673717Y-62700924D01*
X69526310Y-62602430D01*
X69362520Y-62534586D01*
X69188642Y-62500000D01*
X69011358Y-62500000D01*
X68837480Y-62534586D01*
X68673690Y-62602430D01*
X68526283Y-62700924D01*
X68400924Y-62826283D01*
X68302430Y-62973690D01*
X68234586Y-63137480D01*
X68200000Y-63311358D01*
X56350000Y-63311358D01*
X56350000Y-63257037D01*
X56298120Y-62996220D01*
X56196354Y-62750535D01*
X56048613Y-62529425D01*
X55860575Y-62341387D01*
X55652595Y-62202419D01*
X55850000Y-62202419D01*
X55948017Y-62192765D01*
X56042267Y-62164175D01*
X56129129Y-62117746D01*
X56205264Y-62055264D01*
X56267746Y-61979129D01*
X56314175Y-61892267D01*
X56342765Y-61798017D01*
X56352419Y-61700000D01*
X56352419Y-60000000D01*
X56342765Y-59901983D01*
X56314175Y-59807733D01*
X56267746Y-59720871D01*
X56205264Y-59644736D01*
X56129129Y-59582254D01*
X56042267Y-59535825D01*
X55948017Y-59507235D01*
X55850000Y-59497581D01*
X54150000Y-59497581D01*
X54051983Y-59507235D01*
X53957733Y-59535825D01*
X53870871Y-59582254D01*
X53794736Y-59644736D01*
X53732254Y-59720871D01*
X53685825Y-59807733D01*
X53657235Y-59901983D01*
X53647581Y-60000000D01*
X50575000Y-60000000D01*
X50575000Y-54793168D01*
X52900000Y-54793168D01*
X52900000Y-55206832D01*
X52980702Y-55612547D01*
X53139004Y-55994723D01*
X53368823Y-56338672D01*
X53661328Y-56631177D01*
X54005277Y-56860996D01*
X54387453Y-57019298D01*
X54793168Y-57100000D01*
X55206832Y-57100000D01*
X55612547Y-57019298D01*
X55994723Y-56860996D01*
X56338672Y-56631177D01*
X56631177Y-56338672D01*
X56860996Y-55994723D01*
X57019298Y-55612547D01*
X57100000Y-55206832D01*
X57100000Y-54793168D01*
X72900000Y-54793168D01*
X72900000Y-55206832D01*
X72980702Y-55612547D01*
X73139004Y-55994723D01*
X73368823Y-56338672D01*
X73661328Y-56631177D01*
X74005277Y-56860996D01*
X74387453Y-57019298D01*
X74793168Y-57100000D01*
X75206832Y-57100000D01*
X75612547Y-57019298D01*
X75994723Y-56860996D01*
X76338672Y-56631177D01*
X76631177Y-56338672D01*
X76860996Y-55994723D01*
X77019298Y-55612547D01*
X77100000Y-55206832D01*
X77100000Y-54793168D01*
X77019298Y-54387453D01*
X76860996Y-54005277D01*
X76631177Y-53661328D01*
X76338672Y-53368823D01*
X75994723Y-53139004D01*
X75612547Y-52980702D01*
X75206832Y-52900000D01*
X74793168Y-52900000D01*
X74387453Y-52980702D01*
X74005277Y-53139004D01*
X73661328Y-53368823D01*
X73368823Y-53661328D01*
X73139004Y-54005277D01*
X72980702Y-54387453D01*
X72900000Y-54793168D01*
X57100000Y-54793168D01*
X57019298Y-54387453D01*
X56860996Y-54005277D01*
X56631177Y-53661328D01*
X56338672Y-53368823D01*
X55994723Y-53139004D01*
X55612547Y-52980702D01*
X55206832Y-52900000D01*
X54793168Y-52900000D01*
X54387453Y-52980702D01*
X54005277Y-53139004D01*
X53661328Y-53368823D01*
X53368823Y-53661328D01*
X53139004Y-54005277D01*
X52980702Y-54387453D01*
X52900000Y-54793168D01*
X50575000Y-54793168D01*
X50575000Y-52028126D01*
X50604844Y-51723751D01*
X50685071Y-51458027D01*
X50815383Y-51212945D01*
X50990817Y-50997842D01*
X51204692Y-50820908D01*
X51448860Y-50688887D01*
X51714018Y-50606807D01*
X52016637Y-50575000D01*
X77971874Y-50575000D01*
X78276249Y-50604844D01*
G37*
X78276249Y-50604844D02*
X78541973Y-50685071D01*
X78787055Y-50815383D01*
X79002158Y-50990817D01*
X79179092Y-51204692D01*
X79311113Y-51448860D01*
X79393193Y-51714018D01*
X79425000Y-52016637D01*
X79425001Y-82971864D01*
X79395156Y-83276249D01*
X79314928Y-83541975D01*
X79184615Y-83787058D01*
X79009181Y-84002161D01*
X78795304Y-84179095D01*
X78551141Y-84311113D01*
X78285982Y-84393193D01*
X77983363Y-84425000D01*
X52028126Y-84425000D01*
X51723751Y-84395156D01*
X51458025Y-84314928D01*
X51212942Y-84184615D01*
X50997839Y-84009181D01*
X50820905Y-83795304D01*
X50688887Y-83551141D01*
X50606807Y-83285982D01*
X50575000Y-82983363D01*
X50575000Y-79793168D01*
X52900000Y-79793168D01*
X52900000Y-80206832D01*
X52980702Y-80612547D01*
X53139004Y-80994723D01*
X53368823Y-81338672D01*
X53661328Y-81631177D01*
X54005277Y-81860996D01*
X54387453Y-82019298D01*
X54793168Y-82100000D01*
X55206832Y-82100000D01*
X55612547Y-82019298D01*
X55994723Y-81860996D01*
X56338672Y-81631177D01*
X56631177Y-81338672D01*
X56860996Y-80994723D01*
X57019298Y-80612547D01*
X57100000Y-80206832D01*
X57100000Y-79793168D01*
X72900000Y-79793168D01*
X72900000Y-80206832D01*
X72980702Y-80612547D01*
X73139004Y-80994723D01*
X73368823Y-81338672D01*
X73661328Y-81631177D01*
X74005277Y-81860996D01*
X74387453Y-82019298D01*
X74793168Y-82100000D01*
X75206832Y-82100000D01*
X75612547Y-82019298D01*
X75994723Y-81860996D01*
X76338672Y-81631177D01*
X76631177Y-81338672D01*
X76860996Y-80994723D01*
X77019298Y-80612547D01*
X77100000Y-80206832D01*
X77100000Y-79793168D01*
X77019298Y-79387453D01*
X76860996Y-79005277D01*
X76631177Y-78661328D01*
X76338672Y-78368823D01*
X75994723Y-78139004D01*
X75612547Y-77980702D01*
X75206832Y-77900000D01*
X74793168Y-77900000D01*
X74387453Y-77980702D01*
X74005277Y-78139004D01*
X73661328Y-78368823D01*
X73368823Y-78661328D01*
X73139004Y-79005277D01*
X72980702Y-79387453D01*
X72900000Y-79793168D01*
X57100000Y-79793168D01*
X57019298Y-79387453D01*
X56860996Y-79005277D01*
X56631177Y-78661328D01*
X56338672Y-78368823D01*
X55994723Y-78139004D01*
X55612547Y-77980702D01*
X55206832Y-77900000D01*
X54793168Y-77900000D01*
X54387453Y-77980702D01*
X54005277Y-78139004D01*
X53661328Y-78368823D01*
X53368823Y-78661328D01*
X53139004Y-79005277D01*
X52980702Y-79387453D01*
X52900000Y-79793168D01*
X50575000Y-79793168D01*
X50575000Y-60000000D01*
X53647581Y-60000000D01*
X53647581Y-61700000D01*
X53657235Y-61798017D01*
X53685825Y-61892267D01*
X53732254Y-61979129D01*
X53794736Y-62055264D01*
X53870871Y-62117746D01*
X53957733Y-62164175D01*
X54051983Y-62192765D01*
X54150000Y-62202419D01*
X54347405Y-62202419D01*
X54139425Y-62341387D01*
X53951387Y-62529425D01*
X53803646Y-62750535D01*
X53701880Y-62996220D01*
X53650000Y-63257037D01*
X53650000Y-63522963D01*
X53701880Y-63783780D01*
X53803646Y-64029465D01*
X53951387Y-64250575D01*
X54139425Y-64438613D01*
X54360535Y-64586354D01*
X54538332Y-64660000D01*
X54360535Y-64733646D01*
X54139425Y-64881387D01*
X53951387Y-65069425D01*
X53803646Y-65290535D01*
X53701880Y-65536220D01*
X53650000Y-65797037D01*
X53650000Y-66062963D01*
X53701880Y-66323780D01*
X53803646Y-66569465D01*
X53951387Y-66790575D01*
X54139425Y-66978613D01*
X54360535Y-67126354D01*
X54538332Y-67200000D01*
X54360535Y-67273646D01*
X54139425Y-67421387D01*
X53951387Y-67609425D01*
X53803646Y-67830535D01*
X53701880Y-68076220D01*
X53650000Y-68337037D01*
X53650000Y-68602963D01*
X53701880Y-68863780D01*
X53803646Y-69109465D01*
X53951387Y-69330575D01*
X54139425Y-69518613D01*
X54360535Y-69666354D01*
X54538332Y-69740000D01*
X54360535Y-69813646D01*
X54139425Y-69961387D01*
X53951387Y-70149425D01*
X53803646Y-70370535D01*
X53701880Y-70616220D01*
X53650000Y-70877037D01*
X53650000Y-71142963D01*
X53701880Y-71403780D01*
X53803646Y-71649465D01*
X53951387Y-71870575D01*
X54139425Y-72058613D01*
X54360535Y-72206354D01*
X54606220Y-72308120D01*
X54867037Y-72360000D01*
X55132963Y-72360000D01*
X55393780Y-72308120D01*
X55639465Y-72206354D01*
X55860575Y-72058613D01*
X56048613Y-71870575D01*
X56196354Y-71649465D01*
X56298120Y-71403780D01*
X56350000Y-71142963D01*
X56350000Y-70877037D01*
X56298120Y-70616220D01*
X56196354Y-70370535D01*
X56048613Y-70149425D01*
X55860575Y-69961387D01*
X55639465Y-69813646D01*
X55461668Y-69740000D01*
X55639465Y-69666354D01*
X55860575Y-69518613D01*
X56048613Y-69330575D01*
X56196354Y-69109465D01*
X56298120Y-68863780D01*
X56350000Y-68602963D01*
X56350000Y-68411358D01*
X70000000Y-68411358D01*
X70000000Y-68588642D01*
X70034586Y-68762520D01*
X70102430Y-68926310D01*
X70200924Y-69073717D01*
X70326283Y-69199076D01*
X70473690Y-69297570D01*
X70637480Y-69365414D01*
X70773165Y-69392403D01*
X75800000Y-74419238D01*
X75800000Y-74488642D01*
X75834586Y-74662520D01*
X75902430Y-74826310D01*
X76000924Y-74973717D01*
X76126283Y-75099076D01*
X76273690Y-75197570D01*
X76437480Y-75265414D01*
X76611358Y-75300000D01*
X76788642Y-75300000D01*
X76962520Y-75265414D01*
X77126310Y-75197570D01*
X77273717Y-75099076D01*
X77399076Y-74973717D01*
X77497570Y-74826310D01*
X77565414Y-74662520D01*
X77600000Y-74488642D01*
X77600000Y-74311358D01*
X77565414Y-74137480D01*
X77497570Y-73973690D01*
X77399076Y-73826283D01*
X77273717Y-73700924D01*
X77126310Y-73602430D01*
X76962520Y-73534586D01*
X76788642Y-73500000D01*
X76719238Y-73500000D01*
X71800000Y-68580762D01*
X71800000Y-68411358D01*
X71765414Y-68237480D01*
X71697570Y-68073690D01*
X71599076Y-67926283D01*
X71473717Y-67800924D01*
X71326310Y-67702430D01*
X71162520Y-67634586D01*
X70988642Y-67600000D01*
X70811358Y-67600000D01*
X70637480Y-67634586D01*
X70473690Y-67702430D01*
X70326283Y-67800924D01*
X70200924Y-67926283D01*
X70102430Y-68073690D01*
X70034586Y-68237480D01*
X70000000Y-68411358D01*
X56350000Y-68411358D01*
X56350000Y-68337037D01*
X56298120Y-68076220D01*
X56196354Y-67830535D01*
X56048613Y-67609425D01*
X55860575Y-67421387D01*
X55639465Y-67273646D01*
X55461668Y-67200000D01*
X55639465Y-67126354D01*
X55860575Y-66978613D01*
X56048613Y-66790575D01*
X56196354Y-66569465D01*
X56298120Y-66323780D01*
X56350000Y-66062963D01*
X56350000Y-65797037D01*
X56298120Y-65536220D01*
X56196354Y-65290535D01*
X56048613Y-65069425D01*
X55860575Y-64881387D01*
X55639465Y-64733646D01*
X55461668Y-64660000D01*
X55639465Y-64586354D01*
X55860575Y-64438613D01*
X56048613Y-64250575D01*
X56196354Y-64029465D01*
X56298120Y-63783780D01*
X56350000Y-63522963D01*
X56350000Y-63311358D01*
X68200000Y-63311358D01*
X68200000Y-63488642D01*
X68234586Y-63662520D01*
X68302430Y-63826310D01*
X68400924Y-63973717D01*
X68526283Y-64099076D01*
X68673690Y-64197570D01*
X68837480Y-64265414D01*
X69011358Y-64300000D01*
X69080762Y-64300000D01*
X69217799Y-64437037D01*
X69238156Y-64461842D01*
X69337131Y-64543069D01*
X69450051Y-64603426D01*
X69572577Y-64640594D01*
X69668067Y-64649999D01*
X69668075Y-64649999D01*
X69699999Y-64653143D01*
X69731923Y-64649999D01*
X74197581Y-64649999D01*
X74197581Y-65900000D01*
X74207235Y-65998017D01*
X74235825Y-66092267D01*
X74282254Y-66179129D01*
X74344736Y-66255264D01*
X74420871Y-66317746D01*
X74507733Y-66364175D01*
X74531546Y-66371398D01*
X74467899Y-66435045D01*
X74336574Y-66631587D01*
X74246116Y-66849973D01*
X74200000Y-67081810D01*
X74200000Y-67318190D01*
X74246116Y-67550027D01*
X74336574Y-67768413D01*
X74467899Y-67964955D01*
X74635045Y-68132101D01*
X74736663Y-68200000D01*
X74635045Y-68267899D01*
X74467899Y-68435045D01*
X74336574Y-68631587D01*
X74246116Y-68849973D01*
X74200000Y-69081810D01*
X74200000Y-69318190D01*
X74246116Y-69550027D01*
X74336574Y-69768413D01*
X74467899Y-69964955D01*
X74635045Y-70132101D01*
X74831587Y-70263426D01*
X75049973Y-70353884D01*
X75281810Y-70400000D01*
X75518190Y-70400000D01*
X75750027Y-70353884D01*
X75968413Y-70263426D01*
X76164955Y-70132101D01*
X76332101Y-69964955D01*
X76463426Y-69768413D01*
X76553884Y-69550027D01*
X76600000Y-69318190D01*
X76600000Y-69081810D01*
X76553884Y-68849973D01*
X76463426Y-68631587D01*
X76332101Y-68435045D01*
X76164955Y-68267899D01*
X76063337Y-68200000D01*
X76164955Y-68132101D01*
X76332101Y-67964955D01*
X76400000Y-67863337D01*
X76467899Y-67964955D01*
X76635045Y-68132101D01*
X76831587Y-68263426D01*
X77049973Y-68353884D01*
X77281810Y-68400000D01*
X77518190Y-68400000D01*
X77750027Y-68353884D01*
X77968413Y-68263426D01*
X78164955Y-68132101D01*
X78332101Y-67964955D01*
X78463426Y-67768413D01*
X78553884Y-67550027D01*
X78600000Y-67318190D01*
X78600000Y-67081810D01*
X78553884Y-66849973D01*
X78463426Y-66631587D01*
X78332101Y-66435045D01*
X78164955Y-66267899D01*
X78063337Y-66200000D01*
X78164955Y-66132101D01*
X78332101Y-65964955D01*
X78463426Y-65768413D01*
X78553884Y-65550027D01*
X78600000Y-65318190D01*
X78600000Y-65081810D01*
X78553884Y-64849973D01*
X78463426Y-64631587D01*
X78332101Y-64435045D01*
X78164955Y-64267899D01*
X77968413Y-64136574D01*
X77750027Y-64046116D01*
X77518190Y-64000000D01*
X77419239Y-64000000D01*
X76982197Y-63562959D01*
X76961842Y-63538156D01*
X76862867Y-63456929D01*
X76749947Y-63396572D01*
X76627421Y-63359404D01*
X76531931Y-63349999D01*
X76531920Y-63349999D01*
X76499999Y-63346855D01*
X76468078Y-63349999D01*
X70000000Y-63349999D01*
X70000000Y-63311358D01*
X69965414Y-63137480D01*
X69897570Y-62973690D01*
X69799076Y-62826283D01*
X69673717Y-62700924D01*
X69526310Y-62602430D01*
X69362520Y-62534586D01*
X69188642Y-62500000D01*
X69011358Y-62500000D01*
X68837480Y-62534586D01*
X68673690Y-62602430D01*
X68526283Y-62700924D01*
X68400924Y-62826283D01*
X68302430Y-62973690D01*
X68234586Y-63137480D01*
X68200000Y-63311358D01*
X56350000Y-63311358D01*
X56350000Y-63257037D01*
X56298120Y-62996220D01*
X56196354Y-62750535D01*
X56048613Y-62529425D01*
X55860575Y-62341387D01*
X55652595Y-62202419D01*
X55850000Y-62202419D01*
X55948017Y-62192765D01*
X56042267Y-62164175D01*
X56129129Y-62117746D01*
X56205264Y-62055264D01*
X56267746Y-61979129D01*
X56314175Y-61892267D01*
X56342765Y-61798017D01*
X56352419Y-61700000D01*
X56352419Y-60000000D01*
X56342765Y-59901983D01*
X56314175Y-59807733D01*
X56267746Y-59720871D01*
X56205264Y-59644736D01*
X56129129Y-59582254D01*
X56042267Y-59535825D01*
X55948017Y-59507235D01*
X55850000Y-59497581D01*
X54150000Y-59497581D01*
X54051983Y-59507235D01*
X53957733Y-59535825D01*
X53870871Y-59582254D01*
X53794736Y-59644736D01*
X53732254Y-59720871D01*
X53685825Y-59807733D01*
X53657235Y-59901983D01*
X53647581Y-60000000D01*
X50575000Y-60000000D01*
X50575000Y-54793168D01*
X52900000Y-54793168D01*
X52900000Y-55206832D01*
X52980702Y-55612547D01*
X53139004Y-55994723D01*
X53368823Y-56338672D01*
X53661328Y-56631177D01*
X54005277Y-56860996D01*
X54387453Y-57019298D01*
X54793168Y-57100000D01*
X55206832Y-57100000D01*
X55612547Y-57019298D01*
X55994723Y-56860996D01*
X56338672Y-56631177D01*
X56631177Y-56338672D01*
X56860996Y-55994723D01*
X57019298Y-55612547D01*
X57100000Y-55206832D01*
X57100000Y-54793168D01*
X72900000Y-54793168D01*
X72900000Y-55206832D01*
X72980702Y-55612547D01*
X73139004Y-55994723D01*
X73368823Y-56338672D01*
X73661328Y-56631177D01*
X74005277Y-56860996D01*
X74387453Y-57019298D01*
X74793168Y-57100000D01*
X75206832Y-57100000D01*
X75612547Y-57019298D01*
X75994723Y-56860996D01*
X76338672Y-56631177D01*
X76631177Y-56338672D01*
X76860996Y-55994723D01*
X77019298Y-55612547D01*
X77100000Y-55206832D01*
X77100000Y-54793168D01*
X77019298Y-54387453D01*
X76860996Y-54005277D01*
X76631177Y-53661328D01*
X76338672Y-53368823D01*
X75994723Y-53139004D01*
X75612547Y-52980702D01*
X75206832Y-52900000D01*
X74793168Y-52900000D01*
X74387453Y-52980702D01*
X74005277Y-53139004D01*
X73661328Y-53368823D01*
X73368823Y-53661328D01*
X73139004Y-54005277D01*
X72980702Y-54387453D01*
X72900000Y-54793168D01*
X57100000Y-54793168D01*
X57019298Y-54387453D01*
X56860996Y-54005277D01*
X56631177Y-53661328D01*
X56338672Y-53368823D01*
X55994723Y-53139004D01*
X55612547Y-52980702D01*
X55206832Y-52900000D01*
X54793168Y-52900000D01*
X54387453Y-52980702D01*
X54005277Y-53139004D01*
X53661328Y-53368823D01*
X53368823Y-53661328D01*
X53139004Y-54005277D01*
X52980702Y-54387453D01*
X52900000Y-54793168D01*
X50575000Y-54793168D01*
X50575000Y-52028126D01*
X50604844Y-51723751D01*
X50685071Y-51458027D01*
X50815383Y-51212945D01*
X50990817Y-50997842D01*
X51204692Y-50820908D01*
X51448860Y-50688887D01*
X51714018Y-50606807D01*
X52016637Y-50575000D01*
X77971874Y-50575000D01*
X78276249Y-50604844D01*
M02*
