M48
; DRILL file {KiCad 5.1.7-a382d34a8~87~ubuntu20.04.1} date Sun Oct  4 21:46:05 2020
; FORMAT={-:-/ absolute / inch / decimal}
; #@! TF.CreationDate,2020-10-04T21:46:05+03:00
; #@! TF.GenerationSoftware,Kicad,Pcbnew,5.1.7-a382d34a8~87~ubuntu20.04.1
; #@! TF.FileFunction,Plated,1,2,PTH
FMAT,2
INCH
T1C0.0157
T2C0.0315
T3C0.0374
T4C0.0394
T5C0.0433
T6C0.0472
T7C0.0906
%
G90
G05
T1
X2.1378Y-5.3071
X2.2362Y-3.0276
X2.2835Y-4.6969
X2.374Y-3.7441
X2.5591Y-2.3622
X2.6181Y-5.3543
X2.7087Y-4.7402
X2.7717Y-3.626
X2.815Y-4.6654
X2.8228Y-4.937
X2.8346Y-3.4016
X2.8976Y-3.3307
X2.8976Y-4.8583
X2.9252Y-4.4016
X2.9567Y-3.2598
X2.9803Y-4.5236
X3.0079Y-4.752
X3.0157Y-3.1929
X3.0157Y-4.3346
X3.0709Y-4.4843
X3.1063Y-4.2559
X3.122Y-4.6614
X3.1496Y-4.4016
X3.1535Y-5.5039
X3.1732Y-4.5945
X3.2087Y-4.1417
X3.2165Y-2.8189
X3.2402Y-4.4921
X3.2559Y-4.3189
X3.2638Y-3.8386
X3.3169Y-3.5492
X3.3346Y-4.3976
X3.3504Y-4.748
X3.3583Y-3.6457
X3.3701Y-4.0551
X3.374Y-4.1969
X3.376Y-3.4626
X3.4252Y-2.0787
X3.4331Y-3.8189
X3.4921Y-3.7756
X3.4941Y-3.626
X3.4961Y-3.8504
X3.5Y-4.2992
X3.5354Y-3.9134
X3.5354Y-4.1969
X3.5354Y-5.2165
X3.5394Y-3.4646
X3.5394Y-3.5512
X3.5531Y-3.1929
X3.5709Y-4.8425
X3.5984Y-3.7008
X3.6102Y-2.3504
X3.6142Y-3.2598
X3.6732Y-3.3307
X3.6969Y-4.122
X3.7205Y-3.9764
X3.7283Y-3.4016
X3.7795Y-4.252
X3.7953Y-3.5315
X3.8071Y-5.4173
X3.9055Y-3.7087
X3.9646Y-3.6417
X4.0118Y-3.5748
X4.0748Y-3.5
X4.1024Y-5.7047
X4.1299Y-3.4331
X4.1575Y-3.3661
X4.2047Y-3.0866
X4.2047Y-3.1614
X4.2047Y-3.2323
X4.2047Y-3.3031
X4.2126Y-2.6339
X4.2677Y-4.0984
X4.2677Y-4.2953
X4.2677Y-4.7913
X4.3346Y-4.5197
X4.3465Y-5.5551
X4.3504Y-2.3701
X4.3543Y-4.9764
X4.3583Y-4.1929
X4.3583Y-5.7205
X4.3661Y-3.874
X4.3701Y-3.9921
X4.4213Y-3.7953
X4.4488Y-2.0787
X4.5984Y-5.7913
X4.6299Y-2.8228
X4.6299Y-4.9488
X4.6457Y-3.6811
X4.7165Y-5.1417
X4.7362Y-3.7598
X4.7362Y-5.0472
X4.7638Y-4.2795
X4.7756Y-5.2441
X4.7953Y-5.8504
X4.8268Y-5.7953
X4.8504Y-2.8898
X4.8504Y-3.1614
X4.8543Y-3.0433
X4.8622Y-3.7638
X4.8858Y-3.0866
X4.9213Y-3.2323
X4.9291Y-4.2205
X4.9331Y-4.9567
X4.9567Y-3.3031
X4.9921Y-3.3661
X5.0236Y-3.1024
X5.0276Y-3.4331
X5.0354Y-4.3268
X5.0512Y-4.4016
X5.0866Y-3.5
X5.2165Y-2.2047
X5.25Y-3.5728
X5.5315Y-4.0945
X5.6614Y-3.0945
X5.7795Y-4.8661
T2
X5.2992Y-2.6811
X5.2992Y-2.9811
X2.2795Y-4.3504
X2.5795Y-4.3504
X3.9315Y-3.7969
X3.9315Y-3.8969
X3.9315Y-3.9969
X3.9315Y-4.0969
X3.9315Y-4.1969
X3.9315Y-4.2969
X3.9315Y-4.3969
X3.9315Y-4.4969
X3.9315Y-4.5969
X3.9315Y-4.6969
X3.9315Y-4.7969
X3.9315Y-4.8969
X3.9315Y-4.9969
X3.9315Y-5.0969
X3.9315Y-5.1969
X3.9315Y-5.2969
X3.9315Y-5.3969
X3.9315Y-5.4969
X3.9315Y-5.5969
X3.9315Y-5.6969
X4.5315Y-3.7969
X4.5315Y-3.8969
X4.5315Y-3.9969
X4.5315Y-4.0969
X4.5315Y-4.1969
X4.5315Y-4.2969
X4.5315Y-4.3969
X4.5315Y-4.4969
X4.5315Y-4.5969
X4.5315Y-4.6969
X4.5315Y-4.7969
X4.5315Y-4.8969
X4.5315Y-4.9969
X4.5315Y-5.0969
X4.5315Y-5.1969
X4.5315Y-5.2969
X4.5315Y-5.3969
X4.5315Y-5.4969
X4.5315Y-5.5969
X4.5315Y-5.6969
X4.6772Y-5.5669
X4.9772Y-5.5669
X4.6764Y-5.6969
X4.9764Y-5.6969
X2.2787Y-4.1772
X2.5787Y-4.1772
X2.5709Y-3.2992
X2.6693Y-3.2992
X3.6457Y-5.7205
X3.7441Y-5.7205
T3
X2.7362Y-5.5512
X2.7362Y-5.6299
X2.8346Y-5.5512
X2.8346Y-5.6299
T4
X5.4724Y-5.1362
X5.4724Y-5.2362
X5.5724Y-5.1362
X5.5724Y-5.2362
X5.6724Y-5.1362
X5.6724Y-5.2362
X2.5906Y-2.9252
X4.7441Y-4.5472
X4.7441Y-4.7441
X3.4055Y-4.9685
X5.3858Y-4.685
X3.3071Y-5.5512
X3.3071Y-5.748
X2.3425Y-2.9291
X4.9803Y-4.5472
X4.9803Y-4.7441
X2.9134Y-5.122
X3.1102Y-5.122
X4.752Y-3.9961
X4.9488Y-3.9961
X3.7205Y-4.748
X3.7205Y-4.9449
T5
X4.6772Y-5.4291
X5.0772Y-5.4291
X2.5787Y-4.4819
X2.5787Y-4.8819
X2.4094Y-3.9409
X2.5094Y-3.9409
X2.6094Y-3.9409
X2.2165Y-3.6433
X2.2165Y-4.0433
T6
X2.8339Y-5.3465
X3.6339Y-5.3465
T7
X2.5492Y-5.7425
X3.0217Y-5.7425
T0
M30
