G04 #@! TF.FileFunction,Soldermask,Top*
%FSLAX46Y46*%
G04 Gerber Fmt 4.6, Leading zero omitted, Abs format (unit mm)*
G04 Created by KiCad (PCBNEW 4.0.7-e2-6376~60~ubuntu17.10.1) date Wed Jan 17 22:57:23 2018*
%MOMM*%
%LPD*%
G01*
G04 APERTURE LIST*
%ADD10C,0.100000*%
%ADD11C,0.150000*%
%ADD12C,2.650000*%
%ADD13C,7.600000*%
%ADD14R,1.400000X3.550000*%
%ADD15R,1.070000X1.400000*%
%ADD16R,1.370000X1.900000*%
%ADD17R,1.700000X6.400000*%
%ADD18R,1.400000X5.900000*%
G04 APERTURE END LIST*
D10*
D11*
X121700000Y-39000000D02*
X121700000Y-41600000D01*
X74300000Y-39000000D02*
X121700000Y-39000000D01*
X125700000Y-41600000D02*
X121700000Y-41600000D01*
X74300000Y-91400000D02*
X74300000Y-39000000D01*
X75400000Y-91400000D02*
X74300000Y-91400000D01*
X75400000Y-100000000D02*
X75400000Y-91400000D01*
X125700000Y-91400000D02*
X125700000Y-41600000D01*
X124600000Y-91400000D02*
X125700000Y-91400000D01*
X124600000Y-100000000D02*
X124600000Y-91400000D01*
X75400000Y-100000000D02*
X124600000Y-100000000D01*
D12*
X100000000Y-59650000D03*
D13*
X100000000Y-84650000D03*
D14*
X80950000Y-50525000D03*
X80950000Y-45475000D03*
X83490000Y-50525000D03*
X83490000Y-45475000D03*
X86030000Y-50525000D03*
X86030000Y-45475000D03*
X88570000Y-50525000D03*
X88570000Y-45475000D03*
X91110000Y-50525000D03*
X91110000Y-45475000D03*
X93650000Y-50525000D03*
X93650000Y-45475000D03*
X96190000Y-50525000D03*
X96190000Y-45475000D03*
X98730000Y-50525000D03*
X98730000Y-45475000D03*
X101270000Y-50525000D03*
X101270000Y-45475000D03*
X103810000Y-50525000D03*
X103810000Y-45475000D03*
X106350000Y-50525000D03*
X106350000Y-45475000D03*
X108890000Y-50525000D03*
X108890000Y-45475000D03*
X111430000Y-50525000D03*
X111430000Y-45475000D03*
X113970000Y-50525000D03*
X113970000Y-45475000D03*
X116510000Y-50525000D03*
X116510000Y-45475000D03*
X119050000Y-50525000D03*
X119050000Y-45475000D03*
D15*
X77375000Y-43800000D03*
X75625000Y-43800000D03*
X122675000Y-43000000D03*
X124425000Y-43000000D03*
X77325000Y-57300000D03*
X75575000Y-57300000D03*
X77375000Y-48300000D03*
X75625000Y-48300000D03*
X77375000Y-52800000D03*
X75625000Y-52800000D03*
X77375000Y-40800000D03*
X75625000Y-40800000D03*
X122625000Y-44500000D03*
X124375000Y-44500000D03*
X77375000Y-54300000D03*
X75625000Y-54300000D03*
X77375000Y-45300000D03*
X75625000Y-45300000D03*
X77275000Y-49800000D03*
X75525000Y-49800000D03*
D16*
X77355000Y-59100000D03*
X75445000Y-59100000D03*
D17*
X123400000Y-96000000D03*
D18*
X121750000Y-95750000D03*
X120250000Y-95750000D03*
X118750000Y-95750000D03*
X117250000Y-95750000D03*
X115750000Y-95750000D03*
X114250000Y-95750000D03*
X112750000Y-95750000D03*
X111250000Y-95750000D03*
X109750000Y-95750000D03*
X108250000Y-95750000D03*
X106750000Y-95750000D03*
X105250000Y-95750000D03*
X103750000Y-95750000D03*
X102250000Y-95750000D03*
X100750000Y-95750000D03*
X99250000Y-95750000D03*
X97750000Y-95750000D03*
X96250000Y-95750000D03*
X94750000Y-95750000D03*
X93250000Y-95750000D03*
X91750000Y-95750000D03*
X90250000Y-95750000D03*
X88750000Y-95750000D03*
X87250000Y-95750000D03*
X85750000Y-95750000D03*
X84250000Y-95750000D03*
X82750000Y-95750000D03*
X81250000Y-95750000D03*
X79750000Y-95750000D03*
D17*
X76600000Y-96000000D03*
D18*
X78250000Y-95750000D03*
M02*
