G04 #@! TF.FileFunction,Legend,Top*
%FSLAX46Y46*%
G04 Gerber Fmt 4.6, Leading zero omitted, Abs format (unit mm)*
G04 Created by KiCad (PCBNEW 4.0.7-e2-6376~60~ubuntu17.10.1) date Wed Jan 17 22:57:23 2018*
%MOMM*%
%LPD*%
G01*
G04 APERTURE LIST*
%ADD10C,0.100000*%
%ADD11C,0.200000*%
%ADD12C,0.300000*%
%ADD13C,0.150000*%
%ADD14C,0.120000*%
G04 APERTURE END LIST*
D10*
D11*
X75042857Y-50752381D02*
X75280952Y-51752381D01*
X75471429Y-51038095D01*
X75661905Y-51752381D01*
X75900000Y-50752381D01*
X76852381Y-51752381D02*
X76519047Y-51276190D01*
X76280952Y-51752381D02*
X76280952Y-50752381D01*
X76661905Y-50752381D01*
X76757143Y-50800000D01*
X76804762Y-50847619D01*
X76852381Y-50942857D01*
X76852381Y-51085714D01*
X76804762Y-51180952D01*
X76757143Y-51228571D01*
X76661905Y-51276190D01*
X76280952Y-51276190D01*
X121347619Y-47352381D02*
X121014285Y-46876190D01*
X120776190Y-47352381D02*
X120776190Y-46352381D01*
X121157143Y-46352381D01*
X121252381Y-46400000D01*
X121300000Y-46447619D01*
X121347619Y-46542857D01*
X121347619Y-46685714D01*
X121300000Y-46780952D01*
X121252381Y-46828571D01*
X121157143Y-46876190D01*
X120776190Y-46876190D01*
X121776190Y-46828571D02*
X122109524Y-46828571D01*
X122252381Y-47352381D02*
X121776190Y-47352381D01*
X121776190Y-46352381D01*
X122252381Y-46352381D01*
X122633333Y-47304762D02*
X122776190Y-47352381D01*
X123014286Y-47352381D01*
X123109524Y-47304762D01*
X123157143Y-47257143D01*
X123204762Y-47161905D01*
X123204762Y-47066667D01*
X123157143Y-46971429D01*
X123109524Y-46923810D01*
X123014286Y-46876190D01*
X122823809Y-46828571D01*
X122728571Y-46780952D01*
X122680952Y-46733333D01*
X122633333Y-46638095D01*
X122633333Y-46542857D01*
X122680952Y-46447619D01*
X122728571Y-46400000D01*
X122823809Y-46352381D01*
X123061905Y-46352381D01*
X123204762Y-46400000D01*
X123633333Y-46828571D02*
X123966667Y-46828571D01*
X124109524Y-47352381D02*
X123633333Y-47352381D01*
X123633333Y-46352381D01*
X124109524Y-46352381D01*
X124395238Y-46352381D02*
X124966667Y-46352381D01*
X124680952Y-47352381D02*
X124680952Y-46352381D01*
X115952381Y-42804762D02*
X116952381Y-42471429D01*
X115952381Y-42138095D01*
X116952381Y-41804762D02*
X115952381Y-41804762D01*
X116952381Y-41328572D02*
X115952381Y-41328572D01*
X116952381Y-40757143D01*
X115952381Y-40757143D01*
X114452381Y-42090476D02*
X113976190Y-42423810D01*
X114452381Y-42661905D02*
X113452381Y-42661905D01*
X113452381Y-42280952D01*
X113500000Y-42185714D01*
X113547619Y-42138095D01*
X113642857Y-42090476D01*
X113785714Y-42090476D01*
X113880952Y-42138095D01*
X113928571Y-42185714D01*
X113976190Y-42280952D01*
X113976190Y-42661905D01*
X113928571Y-41661905D02*
X113928571Y-41328571D01*
X114452381Y-41185714D02*
X114452381Y-41661905D01*
X113452381Y-41661905D01*
X113452381Y-41185714D01*
X114404762Y-40804762D02*
X114452381Y-40661905D01*
X114452381Y-40423809D01*
X114404762Y-40328571D01*
X114357143Y-40280952D01*
X114261905Y-40233333D01*
X114166667Y-40233333D01*
X114071429Y-40280952D01*
X114023810Y-40328571D01*
X113976190Y-40423809D01*
X113928571Y-40614286D01*
X113880952Y-40709524D01*
X113833333Y-40757143D01*
X113738095Y-40804762D01*
X113642857Y-40804762D01*
X113547619Y-40757143D01*
X113500000Y-40709524D01*
X113452381Y-40614286D01*
X113452381Y-40376190D01*
X113500000Y-40233333D01*
X113280000Y-42900000D02*
X113280000Y-40042857D01*
X111952381Y-42661905D02*
X110952381Y-42661905D01*
X110952381Y-42423810D01*
X111000000Y-42280952D01*
X111095238Y-42185714D01*
X111190476Y-42138095D01*
X111380952Y-42090476D01*
X111523810Y-42090476D01*
X111714286Y-42138095D01*
X111809524Y-42185714D01*
X111904762Y-42280952D01*
X111952381Y-42423810D01*
X111952381Y-42661905D01*
X110952381Y-41757143D02*
X110952381Y-41090476D01*
X111952381Y-41519048D01*
X109352381Y-42661905D02*
X108352381Y-42661905D01*
X108352381Y-42423810D01*
X108400000Y-42280952D01*
X108495238Y-42185714D01*
X108590476Y-42138095D01*
X108780952Y-42090476D01*
X108923810Y-42090476D01*
X109114286Y-42138095D01*
X109209524Y-42185714D01*
X109304762Y-42280952D01*
X109352381Y-42423810D01*
X109352381Y-42661905D01*
X108352381Y-41233333D02*
X108352381Y-41423810D01*
X108400000Y-41519048D01*
X108447619Y-41566667D01*
X108590476Y-41661905D01*
X108780952Y-41709524D01*
X109161905Y-41709524D01*
X109257143Y-41661905D01*
X109304762Y-41614286D01*
X109352381Y-41519048D01*
X109352381Y-41328571D01*
X109304762Y-41233333D01*
X109257143Y-41185714D01*
X109161905Y-41138095D01*
X108923810Y-41138095D01*
X108828571Y-41185714D01*
X108780952Y-41233333D01*
X108733333Y-41328571D01*
X108733333Y-41519048D01*
X108780952Y-41614286D01*
X108828571Y-41661905D01*
X108923810Y-41709524D01*
X106852381Y-42661905D02*
X105852381Y-42661905D01*
X105852381Y-42423810D01*
X105900000Y-42280952D01*
X105995238Y-42185714D01*
X106090476Y-42138095D01*
X106280952Y-42090476D01*
X106423810Y-42090476D01*
X106614286Y-42138095D01*
X106709524Y-42185714D01*
X106804762Y-42280952D01*
X106852381Y-42423810D01*
X106852381Y-42661905D01*
X105852381Y-41185714D02*
X105852381Y-41661905D01*
X106328571Y-41709524D01*
X106280952Y-41661905D01*
X106233333Y-41566667D01*
X106233333Y-41328571D01*
X106280952Y-41233333D01*
X106328571Y-41185714D01*
X106423810Y-41138095D01*
X106661905Y-41138095D01*
X106757143Y-41185714D01*
X106804762Y-41233333D01*
X106852381Y-41328571D01*
X106852381Y-41566667D01*
X106804762Y-41661905D01*
X106757143Y-41709524D01*
X104252381Y-42661905D02*
X103252381Y-42661905D01*
X103252381Y-42423810D01*
X103300000Y-42280952D01*
X103395238Y-42185714D01*
X103490476Y-42138095D01*
X103680952Y-42090476D01*
X103823810Y-42090476D01*
X104014286Y-42138095D01*
X104109524Y-42185714D01*
X104204762Y-42280952D01*
X104252381Y-42423810D01*
X104252381Y-42661905D01*
X103585714Y-41233333D02*
X104252381Y-41233333D01*
X103204762Y-41471429D02*
X103919048Y-41709524D01*
X103919048Y-41090476D01*
X101752381Y-42661905D02*
X100752381Y-42661905D01*
X100752381Y-42423810D01*
X100800000Y-42280952D01*
X100895238Y-42185714D01*
X100990476Y-42138095D01*
X101180952Y-42090476D01*
X101323810Y-42090476D01*
X101514286Y-42138095D01*
X101609524Y-42185714D01*
X101704762Y-42280952D01*
X101752381Y-42423810D01*
X101752381Y-42661905D01*
X100752381Y-41757143D02*
X100752381Y-41138095D01*
X101133333Y-41471429D01*
X101133333Y-41328571D01*
X101180952Y-41233333D01*
X101228571Y-41185714D01*
X101323810Y-41138095D01*
X101561905Y-41138095D01*
X101657143Y-41185714D01*
X101704762Y-41233333D01*
X101752381Y-41328571D01*
X101752381Y-41614286D01*
X101704762Y-41709524D01*
X101657143Y-41757143D01*
X99152381Y-42661905D02*
X98152381Y-42661905D01*
X98152381Y-42423810D01*
X98200000Y-42280952D01*
X98295238Y-42185714D01*
X98390476Y-42138095D01*
X98580952Y-42090476D01*
X98723810Y-42090476D01*
X98914286Y-42138095D01*
X99009524Y-42185714D01*
X99104762Y-42280952D01*
X99152381Y-42423810D01*
X99152381Y-42661905D01*
X98247619Y-41709524D02*
X98200000Y-41661905D01*
X98152381Y-41566667D01*
X98152381Y-41328571D01*
X98200000Y-41233333D01*
X98247619Y-41185714D01*
X98342857Y-41138095D01*
X98438095Y-41138095D01*
X98580952Y-41185714D01*
X99152381Y-41757143D01*
X99152381Y-41138095D01*
X96652381Y-42661905D02*
X95652381Y-42661905D01*
X95652381Y-42423810D01*
X95700000Y-42280952D01*
X95795238Y-42185714D01*
X95890476Y-42138095D01*
X96080952Y-42090476D01*
X96223810Y-42090476D01*
X96414286Y-42138095D01*
X96509524Y-42185714D01*
X96604762Y-42280952D01*
X96652381Y-42423810D01*
X96652381Y-42661905D01*
X96652381Y-41138095D02*
X96652381Y-41709524D01*
X96652381Y-41423810D02*
X95652381Y-41423810D01*
X95795238Y-41519048D01*
X95890476Y-41614286D01*
X95938095Y-41709524D01*
X94052381Y-42661905D02*
X93052381Y-42661905D01*
X93052381Y-42423810D01*
X93100000Y-42280952D01*
X93195238Y-42185714D01*
X93290476Y-42138095D01*
X93480952Y-42090476D01*
X93623810Y-42090476D01*
X93814286Y-42138095D01*
X93909524Y-42185714D01*
X94004762Y-42280952D01*
X94052381Y-42423810D01*
X94052381Y-42661905D01*
X93052381Y-41471429D02*
X93052381Y-41376190D01*
X93100000Y-41280952D01*
X93147619Y-41233333D01*
X93242857Y-41185714D01*
X93433333Y-41138095D01*
X93671429Y-41138095D01*
X93861905Y-41185714D01*
X93957143Y-41233333D01*
X94004762Y-41280952D01*
X94052381Y-41376190D01*
X94052381Y-41471429D01*
X94004762Y-41566667D01*
X93957143Y-41614286D01*
X93861905Y-41661905D01*
X93671429Y-41709524D01*
X93433333Y-41709524D01*
X93242857Y-41661905D01*
X93147619Y-41614286D01*
X93100000Y-41566667D01*
X93052381Y-41471429D01*
X91457143Y-42090476D02*
X91504762Y-42138095D01*
X91552381Y-42280952D01*
X91552381Y-42376190D01*
X91504762Y-42519048D01*
X91409524Y-42614286D01*
X91314286Y-42661905D01*
X91123810Y-42709524D01*
X90980952Y-42709524D01*
X90790476Y-42661905D01*
X90695238Y-42614286D01*
X90600000Y-42519048D01*
X90552381Y-42376190D01*
X90552381Y-42280952D01*
X90600000Y-42138095D01*
X90647619Y-42090476D01*
X91504762Y-41709524D02*
X91552381Y-41566667D01*
X91552381Y-41328571D01*
X91504762Y-41233333D01*
X91457143Y-41185714D01*
X91361905Y-41138095D01*
X91266667Y-41138095D01*
X91171429Y-41185714D01*
X91123810Y-41233333D01*
X91076190Y-41328571D01*
X91028571Y-41519048D01*
X90980952Y-41614286D01*
X90933333Y-41661905D01*
X90838095Y-41709524D01*
X90742857Y-41709524D01*
X90647619Y-41661905D01*
X90600000Y-41614286D01*
X90552381Y-41519048D01*
X90552381Y-41280952D01*
X90600000Y-41138095D01*
X90380000Y-42900000D02*
X90380000Y-40947619D01*
X88952381Y-42090476D02*
X88476190Y-42423810D01*
X88952381Y-42661905D02*
X87952381Y-42661905D01*
X87952381Y-42280952D01*
X88000000Y-42185714D01*
X88047619Y-42138095D01*
X88142857Y-42090476D01*
X88285714Y-42090476D01*
X88380952Y-42138095D01*
X88428571Y-42185714D01*
X88476190Y-42280952D01*
X88476190Y-42661905D01*
X88952381Y-41661905D02*
X87952381Y-41661905D01*
X87952381Y-41423810D01*
X88000000Y-41280952D01*
X88095238Y-41185714D01*
X88190476Y-41138095D01*
X88380952Y-41090476D01*
X88523810Y-41090476D01*
X88714286Y-41138095D01*
X88809524Y-41185714D01*
X88904762Y-41280952D01*
X88952381Y-41423810D01*
X88952381Y-41661905D01*
X87780000Y-42900000D02*
X87780000Y-40900000D01*
X85452381Y-42757143D02*
X86452381Y-42519048D01*
X85738095Y-42328571D01*
X86452381Y-42138095D01*
X85452381Y-41900000D01*
X86452381Y-40947619D02*
X85976190Y-41280953D01*
X86452381Y-41519048D02*
X85452381Y-41519048D01*
X85452381Y-41138095D01*
X85500000Y-41042857D01*
X85547619Y-40995238D01*
X85642857Y-40947619D01*
X85785714Y-40947619D01*
X85880952Y-40995238D01*
X85928571Y-41042857D01*
X85976190Y-41138095D01*
X85976190Y-41519048D01*
X85280000Y-42900000D02*
X85280000Y-40757143D01*
D12*
X89000001Y-67350000D02*
X88809524Y-67254762D01*
X88523810Y-67254762D01*
X88238096Y-67350000D01*
X88047620Y-67540476D01*
X87952381Y-67730952D01*
X87857143Y-68111905D01*
X87857143Y-68397619D01*
X87952381Y-68778571D01*
X88047620Y-68969048D01*
X88238096Y-69159524D01*
X88523810Y-69254762D01*
X88714286Y-69254762D01*
X89000001Y-69159524D01*
X89095239Y-69064286D01*
X89095239Y-68397619D01*
X88714286Y-68397619D01*
X90619048Y-68207143D02*
X90904762Y-68302381D01*
X91000001Y-68397619D01*
X91095239Y-68588095D01*
X91095239Y-68873810D01*
X91000001Y-69064286D01*
X90904762Y-69159524D01*
X90714286Y-69254762D01*
X89952381Y-69254762D01*
X89952381Y-67254762D01*
X90619048Y-67254762D01*
X90809524Y-67350000D01*
X90904762Y-67445238D01*
X91000001Y-67635714D01*
X91000001Y-67826190D01*
X90904762Y-68016667D01*
X90809524Y-68111905D01*
X90619048Y-68207143D01*
X89952381Y-68207143D01*
X91952381Y-68492857D02*
X93476191Y-68492857D01*
X95095238Y-68207143D02*
X95380952Y-68302381D01*
X95476191Y-68397619D01*
X95571429Y-68588095D01*
X95571429Y-68873810D01*
X95476191Y-69064286D01*
X95380952Y-69159524D01*
X95190476Y-69254762D01*
X94428571Y-69254762D01*
X94428571Y-67254762D01*
X95095238Y-67254762D01*
X95285714Y-67350000D01*
X95380952Y-67445238D01*
X95476191Y-67635714D01*
X95476191Y-67826190D01*
X95380952Y-68016667D01*
X95285714Y-68111905D01*
X95095238Y-68207143D01*
X94428571Y-68207143D01*
X97571429Y-69254762D02*
X96904762Y-68302381D01*
X96428571Y-69254762D02*
X96428571Y-67254762D01*
X97190476Y-67254762D01*
X97380952Y-67350000D01*
X97476191Y-67445238D01*
X97571429Y-67635714D01*
X97571429Y-67921429D01*
X97476191Y-68111905D01*
X97380952Y-68207143D01*
X97190476Y-68302381D01*
X96428571Y-68302381D01*
X98428571Y-69254762D02*
X98428571Y-67254762D01*
X99571429Y-69254762D02*
X98714286Y-68111905D01*
X99571429Y-67254762D02*
X98428571Y-68397619D01*
X100428571Y-68492857D02*
X101952381Y-68492857D01*
X102904761Y-69254762D02*
X102904761Y-67254762D01*
X103571428Y-68683333D01*
X104238095Y-67254762D01*
X104238095Y-69254762D01*
X106523809Y-67921429D02*
X107000000Y-69254762D01*
X107476190Y-67921429D01*
X108047619Y-67254762D02*
X109285715Y-67254762D01*
X108619048Y-68016667D01*
X108904762Y-68016667D01*
X109095238Y-68111905D01*
X109190476Y-68207143D01*
X109285715Y-68397619D01*
X109285715Y-68873810D01*
X109190476Y-69064286D01*
X109095238Y-69159524D01*
X108904762Y-69254762D01*
X108333334Y-69254762D01*
X108142857Y-69159524D01*
X108047619Y-69064286D01*
X110142857Y-69064286D02*
X110238096Y-69159524D01*
X110142857Y-69254762D01*
X110047619Y-69159524D01*
X110142857Y-69064286D01*
X110142857Y-69254762D01*
X112142858Y-69254762D02*
X111000000Y-69254762D01*
X111571429Y-69254762D02*
X111571429Y-67254762D01*
X111380953Y-67540476D01*
X111190477Y-67730952D01*
X111000000Y-67826190D01*
X87857142Y-72554762D02*
X87857142Y-70554762D01*
X88714285Y-72554762D02*
X88714285Y-71507143D01*
X88619047Y-71316667D01*
X88428571Y-71221429D01*
X88142857Y-71221429D01*
X87952381Y-71316667D01*
X87857142Y-71411905D01*
X89380952Y-71221429D02*
X90142857Y-71221429D01*
X89666666Y-70554762D02*
X89666666Y-72269048D01*
X89761905Y-72459524D01*
X89952381Y-72554762D01*
X90142857Y-72554762D01*
X90523809Y-71221429D02*
X91285714Y-71221429D01*
X90809523Y-70554762D02*
X90809523Y-72269048D01*
X90904762Y-72459524D01*
X91095238Y-72554762D01*
X91285714Y-72554762D01*
X91952380Y-71221429D02*
X91952380Y-73221429D01*
X91952380Y-71316667D02*
X92142857Y-71221429D01*
X92523809Y-71221429D01*
X92714285Y-71316667D01*
X92809523Y-71411905D01*
X92904761Y-71602381D01*
X92904761Y-72173810D01*
X92809523Y-72364286D01*
X92714285Y-72459524D01*
X92523809Y-72554762D01*
X92142857Y-72554762D01*
X91952380Y-72459524D01*
X93666666Y-72459524D02*
X93857143Y-72554762D01*
X94238095Y-72554762D01*
X94428571Y-72459524D01*
X94523809Y-72269048D01*
X94523809Y-72173810D01*
X94428571Y-71983333D01*
X94238095Y-71888095D01*
X93952381Y-71888095D01*
X93761904Y-71792857D01*
X93666666Y-71602381D01*
X93666666Y-71507143D01*
X93761904Y-71316667D01*
X93952381Y-71221429D01*
X94238095Y-71221429D01*
X94428571Y-71316667D01*
X95380952Y-72364286D02*
X95476191Y-72459524D01*
X95380952Y-72554762D01*
X95285714Y-72459524D01*
X95380952Y-72364286D01*
X95380952Y-72554762D01*
X95380952Y-71316667D02*
X95476191Y-71411905D01*
X95380952Y-71507143D01*
X95285714Y-71411905D01*
X95380952Y-71316667D01*
X95380952Y-71507143D01*
X97761905Y-70459524D02*
X96047619Y-73030952D01*
X99857143Y-70459524D02*
X98142857Y-73030952D01*
X101380952Y-71221429D02*
X101380952Y-72840476D01*
X101285714Y-73030952D01*
X101190476Y-73126190D01*
X101000000Y-73221429D01*
X100714286Y-73221429D01*
X100523809Y-73126190D01*
X101380952Y-72459524D02*
X101190476Y-72554762D01*
X100809524Y-72554762D01*
X100619048Y-72459524D01*
X100523809Y-72364286D01*
X100428571Y-72173810D01*
X100428571Y-71602381D01*
X100523809Y-71411905D01*
X100619048Y-71316667D01*
X100809524Y-71221429D01*
X101190476Y-71221429D01*
X101380952Y-71316667D01*
X103095238Y-72459524D02*
X102904762Y-72554762D01*
X102523810Y-72554762D01*
X102333333Y-72459524D01*
X102238095Y-72269048D01*
X102238095Y-71507143D01*
X102333333Y-71316667D01*
X102523810Y-71221429D01*
X102904762Y-71221429D01*
X103095238Y-71316667D01*
X103190476Y-71507143D01*
X103190476Y-71697619D01*
X102238095Y-71888095D01*
X104047619Y-72554762D02*
X104047619Y-70554762D01*
X104238096Y-71792857D02*
X104809524Y-72554762D01*
X104809524Y-71221429D02*
X104047619Y-71983333D01*
X105666667Y-72554762D02*
X105666667Y-70554762D01*
X105857144Y-71792857D02*
X106428572Y-72554762D01*
X106428572Y-71221429D02*
X105666667Y-71983333D01*
X107285715Y-72554762D02*
X107285715Y-71221429D01*
X107285715Y-70554762D02*
X107190477Y-70650000D01*
X107285715Y-70745238D01*
X107380954Y-70650000D01*
X107285715Y-70554762D01*
X107285715Y-70745238D01*
X108523811Y-72554762D02*
X108333335Y-72459524D01*
X108238096Y-72364286D01*
X108142858Y-72173810D01*
X108142858Y-71602381D01*
X108238096Y-71411905D01*
X108333335Y-71316667D01*
X108523811Y-71221429D01*
X108809525Y-71221429D01*
X109000001Y-71316667D01*
X109095239Y-71411905D01*
X109190477Y-71602381D01*
X109190477Y-72173810D01*
X109095239Y-72364286D01*
X109000001Y-72459524D01*
X108809525Y-72554762D01*
X108523811Y-72554762D01*
X110047620Y-72364286D02*
X110142859Y-72459524D01*
X110047620Y-72554762D01*
X109952382Y-72459524D01*
X110047620Y-72364286D01*
X110047620Y-72554762D01*
X110714287Y-71221429D02*
X111476192Y-71221429D01*
X111000001Y-72554762D02*
X111000001Y-70840476D01*
X111095240Y-70650000D01*
X111285716Y-70554762D01*
X111476192Y-70554762D01*
X112142858Y-72554762D02*
X112142858Y-71221429D01*
X112142858Y-70554762D02*
X112047620Y-70650000D01*
X112142858Y-70745238D01*
X112238097Y-70650000D01*
X112142858Y-70554762D01*
X112142858Y-70745238D01*
D11*
X75809524Y-47252381D02*
X75476190Y-46776190D01*
X75238095Y-47252381D02*
X75238095Y-46252381D01*
X75619048Y-46252381D01*
X75714286Y-46300000D01*
X75761905Y-46347619D01*
X75809524Y-46442857D01*
X75809524Y-46585714D01*
X75761905Y-46680952D01*
X75714286Y-46728571D01*
X75619048Y-46776190D01*
X75238095Y-46776190D01*
X76238095Y-47252381D02*
X76238095Y-46252381D01*
X76476190Y-46252381D01*
X76619048Y-46300000D01*
X76714286Y-46395238D01*
X76761905Y-46490476D01*
X76809524Y-46680952D01*
X76809524Y-46823810D01*
X76761905Y-47014286D01*
X76714286Y-47109524D01*
X76619048Y-47204762D01*
X76476190Y-47252381D01*
X76238095Y-47252381D01*
X75095238Y-41752381D02*
X75428571Y-42752381D01*
X75761905Y-41752381D01*
X76666667Y-42657143D02*
X76619048Y-42704762D01*
X76476191Y-42752381D01*
X76380953Y-42752381D01*
X76238095Y-42704762D01*
X76142857Y-42609524D01*
X76095238Y-42514286D01*
X76047619Y-42323810D01*
X76047619Y-42180952D01*
X76095238Y-41990476D01*
X76142857Y-41895238D01*
X76238095Y-41800000D01*
X76380953Y-41752381D01*
X76476191Y-41752381D01*
X76619048Y-41800000D01*
X76666667Y-41847619D01*
X77666667Y-42657143D02*
X77619048Y-42704762D01*
X77476191Y-42752381D01*
X77380953Y-42752381D01*
X77238095Y-42704762D01*
X77142857Y-42609524D01*
X77095238Y-42514286D01*
X77047619Y-42323810D01*
X77047619Y-42180952D01*
X77095238Y-41990476D01*
X77142857Y-41895238D01*
X77238095Y-41800000D01*
X77380953Y-41752381D01*
X77476191Y-41752381D01*
X77619048Y-41800000D01*
X77666667Y-41847619D01*
X75809524Y-56157143D02*
X75761905Y-56204762D01*
X75619048Y-56252381D01*
X75523810Y-56252381D01*
X75380952Y-56204762D01*
X75285714Y-56109524D01*
X75238095Y-56014286D01*
X75190476Y-55823810D01*
X75190476Y-55680952D01*
X75238095Y-55490476D01*
X75285714Y-55395238D01*
X75380952Y-55300000D01*
X75523810Y-55252381D01*
X75619048Y-55252381D01*
X75761905Y-55300000D01*
X75809524Y-55347619D01*
X76190476Y-56204762D02*
X76333333Y-56252381D01*
X76571429Y-56252381D01*
X76666667Y-56204762D01*
X76714286Y-56157143D01*
X76761905Y-56061905D01*
X76761905Y-55966667D01*
X76714286Y-55871429D01*
X76666667Y-55823810D01*
X76571429Y-55776190D01*
X76380952Y-55728571D01*
X76285714Y-55680952D01*
X76238095Y-55633333D01*
X76190476Y-55538095D01*
X76190476Y-55442857D01*
X76238095Y-55347619D01*
X76285714Y-55300000D01*
X76380952Y-55252381D01*
X76619048Y-55252381D01*
X76761905Y-55300000D01*
D13*
X75600000Y-73300000D02*
X75600000Y-61700000D01*
X78000000Y-73300000D02*
X75600000Y-73300000D01*
X78000000Y-61700000D02*
X78000000Y-73300000D01*
X75600000Y-61700000D02*
X78000000Y-61700000D01*
D11*
X119266667Y-55671429D02*
X119266667Y-55195238D01*
X119552381Y-55766667D02*
X118552381Y-55433334D01*
X119552381Y-55100000D01*
X119552381Y-54242857D02*
X119552381Y-54814286D01*
X119552381Y-54528572D02*
X118552381Y-54528572D01*
X118695238Y-54623810D01*
X118790476Y-54719048D01*
X118838095Y-54814286D01*
X118552381Y-53338095D02*
X118552381Y-53814286D01*
X119028571Y-53861905D01*
X118980952Y-53814286D01*
X118933333Y-53719048D01*
X118933333Y-53480952D01*
X118980952Y-53385714D01*
X119028571Y-53338095D01*
X119123810Y-53290476D01*
X119361905Y-53290476D01*
X119457143Y-53338095D01*
X119504762Y-53385714D01*
X119552381Y-53480952D01*
X119552381Y-53719048D01*
X119504762Y-53814286D01*
X119457143Y-53861905D01*
X116666667Y-55671429D02*
X116666667Y-55195238D01*
X116952381Y-55766667D02*
X115952381Y-55433334D01*
X116952381Y-55100000D01*
X116952381Y-54242857D02*
X116952381Y-54814286D01*
X116952381Y-54528572D02*
X115952381Y-54528572D01*
X116095238Y-54623810D01*
X116190476Y-54719048D01*
X116238095Y-54814286D01*
X116285714Y-53385714D02*
X116952381Y-53385714D01*
X115904762Y-53623810D02*
X116619048Y-53861905D01*
X116619048Y-53242857D01*
X114166667Y-55671429D02*
X114166667Y-55195238D01*
X114452381Y-55766667D02*
X113452381Y-55433334D01*
X114452381Y-55100000D01*
X114452381Y-54242857D02*
X114452381Y-54814286D01*
X114452381Y-54528572D02*
X113452381Y-54528572D01*
X113595238Y-54623810D01*
X113690476Y-54719048D01*
X113738095Y-54814286D01*
X113452381Y-53909524D02*
X113452381Y-53290476D01*
X113833333Y-53623810D01*
X113833333Y-53480952D01*
X113880952Y-53385714D01*
X113928571Y-53338095D01*
X114023810Y-53290476D01*
X114261905Y-53290476D01*
X114357143Y-53338095D01*
X114404762Y-53385714D01*
X114452381Y-53480952D01*
X114452381Y-53766667D01*
X114404762Y-53861905D01*
X114357143Y-53909524D01*
X111566667Y-55671429D02*
X111566667Y-55195238D01*
X111852381Y-55766667D02*
X110852381Y-55433334D01*
X111852381Y-55100000D01*
X111852381Y-54242857D02*
X111852381Y-54814286D01*
X111852381Y-54528572D02*
X110852381Y-54528572D01*
X110995238Y-54623810D01*
X111090476Y-54719048D01*
X111138095Y-54814286D01*
X110947619Y-53861905D02*
X110900000Y-53814286D01*
X110852381Y-53719048D01*
X110852381Y-53480952D01*
X110900000Y-53385714D01*
X110947619Y-53338095D01*
X111042857Y-53290476D01*
X111138095Y-53290476D01*
X111280952Y-53338095D01*
X111852381Y-53909524D01*
X111852381Y-53290476D01*
X109066667Y-55671429D02*
X109066667Y-55195238D01*
X109352381Y-55766667D02*
X108352381Y-55433334D01*
X109352381Y-55100000D01*
X109352381Y-54242857D02*
X109352381Y-54814286D01*
X109352381Y-54528572D02*
X108352381Y-54528572D01*
X108495238Y-54623810D01*
X108590476Y-54719048D01*
X108638095Y-54814286D01*
X109352381Y-53290476D02*
X109352381Y-53861905D01*
X109352381Y-53576191D02*
X108352381Y-53576191D01*
X108495238Y-53671429D01*
X108590476Y-53766667D01*
X108638095Y-53861905D01*
X106466667Y-55671429D02*
X106466667Y-55195238D01*
X106752381Y-55766667D02*
X105752381Y-55433334D01*
X106752381Y-55100000D01*
X106752381Y-54242857D02*
X106752381Y-54814286D01*
X106752381Y-54528572D02*
X105752381Y-54528572D01*
X105895238Y-54623810D01*
X105990476Y-54719048D01*
X106038095Y-54814286D01*
X105752381Y-53623810D02*
X105752381Y-53528571D01*
X105800000Y-53433333D01*
X105847619Y-53385714D01*
X105942857Y-53338095D01*
X106133333Y-53290476D01*
X106371429Y-53290476D01*
X106561905Y-53338095D01*
X106657143Y-53385714D01*
X106704762Y-53433333D01*
X106752381Y-53528571D01*
X106752381Y-53623810D01*
X106704762Y-53719048D01*
X106657143Y-53766667D01*
X106561905Y-53814286D01*
X106371429Y-53861905D01*
X106133333Y-53861905D01*
X105942857Y-53814286D01*
X105847619Y-53766667D01*
X105800000Y-53719048D01*
X105752381Y-53623810D01*
X103966667Y-54719048D02*
X103966667Y-54242857D01*
X104252381Y-54814286D02*
X103252381Y-54480953D01*
X104252381Y-54147619D01*
X104252381Y-53766667D02*
X104252381Y-53576191D01*
X104204762Y-53480952D01*
X104157143Y-53433333D01*
X104014286Y-53338095D01*
X103823810Y-53290476D01*
X103442857Y-53290476D01*
X103347619Y-53338095D01*
X103300000Y-53385714D01*
X103252381Y-53480952D01*
X103252381Y-53671429D01*
X103300000Y-53766667D01*
X103347619Y-53814286D01*
X103442857Y-53861905D01*
X103680952Y-53861905D01*
X103776190Y-53814286D01*
X103823810Y-53766667D01*
X103871429Y-53671429D01*
X103871429Y-53480952D01*
X103823810Y-53385714D01*
X103776190Y-53338095D01*
X103680952Y-53290476D01*
X101466667Y-54719048D02*
X101466667Y-54242857D01*
X101752381Y-54814286D02*
X100752381Y-54480953D01*
X101752381Y-54147619D01*
X101180952Y-53671429D02*
X101133333Y-53766667D01*
X101085714Y-53814286D01*
X100990476Y-53861905D01*
X100942857Y-53861905D01*
X100847619Y-53814286D01*
X100800000Y-53766667D01*
X100752381Y-53671429D01*
X100752381Y-53480952D01*
X100800000Y-53385714D01*
X100847619Y-53338095D01*
X100942857Y-53290476D01*
X100990476Y-53290476D01*
X101085714Y-53338095D01*
X101133333Y-53385714D01*
X101180952Y-53480952D01*
X101180952Y-53671429D01*
X101228571Y-53766667D01*
X101276190Y-53814286D01*
X101371429Y-53861905D01*
X101561905Y-53861905D01*
X101657143Y-53814286D01*
X101704762Y-53766667D01*
X101752381Y-53671429D01*
X101752381Y-53480952D01*
X101704762Y-53385714D01*
X101657143Y-53338095D01*
X101561905Y-53290476D01*
X101371429Y-53290476D01*
X101276190Y-53338095D01*
X101228571Y-53385714D01*
X101180952Y-53480952D01*
X98866667Y-54719048D02*
X98866667Y-54242857D01*
X99152381Y-54814286D02*
X98152381Y-54480953D01*
X99152381Y-54147619D01*
X98152381Y-53909524D02*
X98152381Y-53242857D01*
X99152381Y-53671429D01*
X96366667Y-54719048D02*
X96366667Y-54242857D01*
X96652381Y-54814286D02*
X95652381Y-54480953D01*
X96652381Y-54147619D01*
X95652381Y-53385714D02*
X95652381Y-53576191D01*
X95700000Y-53671429D01*
X95747619Y-53719048D01*
X95890476Y-53814286D01*
X96080952Y-53861905D01*
X96461905Y-53861905D01*
X96557143Y-53814286D01*
X96604762Y-53766667D01*
X96652381Y-53671429D01*
X96652381Y-53480952D01*
X96604762Y-53385714D01*
X96557143Y-53338095D01*
X96461905Y-53290476D01*
X96223810Y-53290476D01*
X96128571Y-53338095D01*
X96080952Y-53385714D01*
X96033333Y-53480952D01*
X96033333Y-53671429D01*
X96080952Y-53766667D01*
X96128571Y-53814286D01*
X96223810Y-53861905D01*
X83952381Y-42661905D02*
X82952381Y-42661905D01*
X82952381Y-42280952D01*
X83000000Y-42185714D01*
X83047619Y-42138095D01*
X83142857Y-42090476D01*
X83285714Y-42090476D01*
X83380952Y-42138095D01*
X83428571Y-42185714D01*
X83476190Y-42280952D01*
X83476190Y-42661905D01*
X83952381Y-41661905D02*
X82952381Y-41661905D01*
X83428571Y-41661905D02*
X83428571Y-41090476D01*
X83952381Y-41090476D02*
X82952381Y-41090476D01*
X83952381Y-40614286D02*
X82952381Y-40614286D01*
X118600000Y-42138095D02*
X118552381Y-42233333D01*
X118552381Y-42376190D01*
X118600000Y-42519048D01*
X118695238Y-42614286D01*
X118790476Y-42661905D01*
X118980952Y-42709524D01*
X119123810Y-42709524D01*
X119314286Y-42661905D01*
X119409524Y-42614286D01*
X119504762Y-42519048D01*
X119552381Y-42376190D01*
X119552381Y-42280952D01*
X119504762Y-42138095D01*
X119457143Y-42090476D01*
X119123810Y-42090476D01*
X119123810Y-42280952D01*
X119552381Y-41661905D02*
X118552381Y-41661905D01*
X119552381Y-41090476D01*
X118552381Y-41090476D01*
X119552381Y-40614286D02*
X118552381Y-40614286D01*
X118552381Y-40376191D01*
X118600000Y-40233333D01*
X118695238Y-40138095D01*
X118790476Y-40090476D01*
X118980952Y-40042857D01*
X119123810Y-40042857D01*
X119314286Y-40090476D01*
X119409524Y-40138095D01*
X119504762Y-40233333D01*
X119552381Y-40376191D01*
X119552381Y-40614286D01*
X81071429Y-42661905D02*
X81071429Y-41900000D01*
X81452381Y-42280952D02*
X80690476Y-42280952D01*
X80452381Y-40947619D02*
X80452381Y-41423810D01*
X80928571Y-41471429D01*
X80880952Y-41423810D01*
X80833333Y-41328572D01*
X80833333Y-41090476D01*
X80880952Y-40995238D01*
X80928571Y-40947619D01*
X81023810Y-40900000D01*
X81261905Y-40900000D01*
X81357143Y-40947619D01*
X81404762Y-40995238D01*
X81452381Y-41090476D01*
X81452381Y-41328572D01*
X81404762Y-41423810D01*
X81357143Y-41471429D01*
X80452381Y-40614286D02*
X81452381Y-40280953D01*
X80452381Y-39947619D01*
X93866667Y-54719048D02*
X93866667Y-54242857D01*
X94152381Y-54814286D02*
X93152381Y-54480953D01*
X94152381Y-54147619D01*
X93152381Y-53338095D02*
X93152381Y-53814286D01*
X93628571Y-53861905D01*
X93580952Y-53814286D01*
X93533333Y-53719048D01*
X93533333Y-53480952D01*
X93580952Y-53385714D01*
X93628571Y-53338095D01*
X93723810Y-53290476D01*
X93961905Y-53290476D01*
X94057143Y-53338095D01*
X94104762Y-53385714D01*
X94152381Y-53480952D01*
X94152381Y-53719048D01*
X94104762Y-53814286D01*
X94057143Y-53861905D01*
X91266667Y-54719048D02*
X91266667Y-54242857D01*
X91552381Y-54814286D02*
X90552381Y-54480953D01*
X91552381Y-54147619D01*
X90885714Y-53385714D02*
X91552381Y-53385714D01*
X90504762Y-53623810D02*
X91219048Y-53861905D01*
X91219048Y-53242857D01*
X88766667Y-54719048D02*
X88766667Y-54242857D01*
X89052381Y-54814286D02*
X88052381Y-54480953D01*
X89052381Y-54147619D01*
X88052381Y-53909524D02*
X88052381Y-53290476D01*
X88433333Y-53623810D01*
X88433333Y-53480952D01*
X88480952Y-53385714D01*
X88528571Y-53338095D01*
X88623810Y-53290476D01*
X88861905Y-53290476D01*
X88957143Y-53338095D01*
X89004762Y-53385714D01*
X89052381Y-53480952D01*
X89052381Y-53766667D01*
X89004762Y-53861905D01*
X88957143Y-53909524D01*
X86166667Y-54719048D02*
X86166667Y-54242857D01*
X86452381Y-54814286D02*
X85452381Y-54480953D01*
X86452381Y-54147619D01*
X85547619Y-53861905D02*
X85500000Y-53814286D01*
X85452381Y-53719048D01*
X85452381Y-53480952D01*
X85500000Y-53385714D01*
X85547619Y-53338095D01*
X85642857Y-53290476D01*
X85738095Y-53290476D01*
X85880952Y-53338095D01*
X86452381Y-53909524D01*
X86452381Y-53290476D01*
X83666667Y-54719048D02*
X83666667Y-54242857D01*
X83952381Y-54814286D02*
X82952381Y-54480953D01*
X83952381Y-54147619D01*
X83952381Y-53290476D02*
X83952381Y-53861905D01*
X83952381Y-53576191D02*
X82952381Y-53576191D01*
X83095238Y-53671429D01*
X83190476Y-53766667D01*
X83238095Y-53861905D01*
X81166667Y-54719048D02*
X81166667Y-54242857D01*
X81452381Y-54814286D02*
X80452381Y-54480953D01*
X81452381Y-54147619D01*
X80452381Y-53623810D02*
X80452381Y-53528571D01*
X80500000Y-53433333D01*
X80547619Y-53385714D01*
X80642857Y-53338095D01*
X80833333Y-53290476D01*
X81071429Y-53290476D01*
X81261905Y-53338095D01*
X81357143Y-53385714D01*
X81404762Y-53433333D01*
X81452381Y-53528571D01*
X81452381Y-53623810D01*
X81404762Y-53719048D01*
X81357143Y-53766667D01*
X81261905Y-53814286D01*
X81071429Y-53861905D01*
X80833333Y-53861905D01*
X80642857Y-53814286D01*
X80547619Y-53766667D01*
X80500000Y-53719048D01*
X80452381Y-53623810D01*
D13*
X121700000Y-39000000D02*
X121700000Y-41600000D01*
X74300000Y-39000000D02*
X121700000Y-39000000D01*
X125700000Y-41600000D02*
X121700000Y-41600000D01*
X74300000Y-91400000D02*
X74300000Y-39000000D01*
X75400000Y-91400000D02*
X74300000Y-91400000D01*
X75400000Y-100000000D02*
X75400000Y-91400000D01*
X125700000Y-91400000D02*
X125700000Y-41600000D01*
X124600000Y-91400000D02*
X125700000Y-91400000D01*
X124600000Y-100000000D02*
X124600000Y-91400000D01*
X75400000Y-100000000D02*
X124600000Y-100000000D01*
D14*
X102286000Y-59650000D02*
G75*
G03X102286000Y-59650000I-2286000J0D01*
G01*
X102286000Y-84650000D02*
G75*
G03X102286000Y-84650000I-2286000J0D01*
G01*
X79620000Y-50600000D02*
X79620000Y-45400000D01*
X120380000Y-50600000D02*
X120380000Y-45400000D01*
X80190000Y-52040000D02*
X80190000Y-50600000D01*
X79620000Y-50600000D02*
X80190000Y-50600000D01*
X79620000Y-45400000D02*
X80190000Y-45400000D01*
X119810000Y-50600000D02*
X120380000Y-50600000D01*
X119810000Y-45400000D02*
X120380000Y-45400000D01*
X81710000Y-50600000D02*
X82730000Y-50600000D01*
X81710000Y-45400000D02*
X82730000Y-45400000D01*
X84250000Y-50600000D02*
X85270000Y-50600000D01*
X84250000Y-45400000D02*
X85270000Y-45400000D01*
X86790000Y-50600000D02*
X87810000Y-50600000D01*
X86790000Y-45400000D02*
X87810000Y-45400000D01*
X89330000Y-50600000D02*
X90350000Y-50600000D01*
X89330000Y-45400000D02*
X90350000Y-45400000D01*
X91870000Y-50600000D02*
X92890000Y-50600000D01*
X91870000Y-45400000D02*
X92890000Y-45400000D01*
X94410000Y-50600000D02*
X95430000Y-50600000D01*
X94410000Y-45400000D02*
X95430000Y-45400000D01*
X96950000Y-50600000D02*
X97970000Y-50600000D01*
X96950000Y-45400000D02*
X97970000Y-45400000D01*
X99490000Y-50600000D02*
X100510000Y-50600000D01*
X99490000Y-45400000D02*
X100510000Y-45400000D01*
X102030000Y-50600000D02*
X103050000Y-50600000D01*
X102030000Y-45400000D02*
X103050000Y-45400000D01*
X104570000Y-50600000D02*
X105590000Y-50600000D01*
X104570000Y-45400000D02*
X105590000Y-45400000D01*
X107110000Y-50600000D02*
X108130000Y-50600000D01*
X107110000Y-45400000D02*
X108130000Y-45400000D01*
X109650000Y-50600000D02*
X110670000Y-50600000D01*
X109650000Y-45400000D02*
X110670000Y-45400000D01*
X112190000Y-50600000D02*
X113210000Y-50600000D01*
X112190000Y-45400000D02*
X113210000Y-45400000D01*
X114730000Y-50600000D02*
X115750000Y-50600000D01*
X114730000Y-45400000D02*
X115750000Y-45400000D01*
X117270000Y-50600000D02*
X118290000Y-50600000D01*
X117270000Y-45400000D02*
X118290000Y-45400000D01*
X76720000Y-44310000D02*
X76280000Y-44310000D01*
X76720000Y-43290000D02*
X76280000Y-43290000D01*
X123330000Y-42490000D02*
X123770000Y-42490000D01*
X123330000Y-43510000D02*
X123770000Y-43510000D01*
X76670000Y-57810000D02*
X76230000Y-57810000D01*
X76670000Y-56790000D02*
X76230000Y-56790000D01*
X76720000Y-48810000D02*
X76280000Y-48810000D01*
X76720000Y-47790000D02*
X76280000Y-47790000D01*
X76720000Y-53310000D02*
X76280000Y-53310000D01*
X76720000Y-52290000D02*
X76280000Y-52290000D01*
X75700000Y-41560000D02*
X77970000Y-41560000D01*
X77970000Y-41560000D02*
X77970000Y-40040000D01*
X77970000Y-40040000D02*
X75700000Y-40040000D01*
X124300000Y-43740000D02*
X122030000Y-43740000D01*
X122030000Y-43740000D02*
X122030000Y-45260000D01*
X122030000Y-45260000D02*
X124300000Y-45260000D01*
X75700000Y-55060000D02*
X77970000Y-55060000D01*
X77970000Y-55060000D02*
X77970000Y-53540000D01*
X77970000Y-53540000D02*
X75700000Y-53540000D01*
X75700000Y-46060000D02*
X77970000Y-46060000D01*
X77970000Y-46060000D02*
X77970000Y-44540000D01*
X77970000Y-44540000D02*
X75700000Y-44540000D01*
X75600000Y-50560000D02*
X77870000Y-50560000D01*
X77870000Y-50560000D02*
X77870000Y-49040000D01*
X77870000Y-49040000D02*
X75600000Y-49040000D01*
X76550000Y-59810000D02*
X76250000Y-59810000D01*
X76550000Y-58390000D02*
X76250000Y-58390000D01*
D13*
X121166667Y-49552381D02*
X121166667Y-50266667D01*
X121119047Y-50409524D01*
X121023809Y-50504762D01*
X120880952Y-50552381D01*
X120785714Y-50552381D01*
X122166667Y-50552381D02*
X121595238Y-50552381D01*
X121880952Y-50552381D02*
X121880952Y-49552381D01*
X121785714Y-49695238D01*
X121690476Y-49790476D01*
X121595238Y-49838095D01*
X76633334Y-64552381D02*
X76300000Y-64076190D01*
X76061905Y-64552381D02*
X76061905Y-63552381D01*
X76442858Y-63552381D01*
X76538096Y-63600000D01*
X76585715Y-63647619D01*
X76633334Y-63742857D01*
X76633334Y-63885714D01*
X76585715Y-63980952D01*
X76538096Y-64028571D01*
X76442858Y-64076190D01*
X76061905Y-64076190D01*
X77538096Y-63552381D02*
X77061905Y-63552381D01*
X77014286Y-64028571D01*
X77061905Y-63980952D01*
X77157143Y-63933333D01*
X77395239Y-63933333D01*
X77490477Y-63980952D01*
X77538096Y-64028571D01*
X77585715Y-64123810D01*
X77585715Y-64361905D01*
X77538096Y-64457143D01*
X77490477Y-64504762D01*
X77395239Y-64552381D01*
X77157143Y-64552381D01*
X77061905Y-64504762D01*
X77014286Y-64457143D01*
X120833334Y-43452381D02*
X120500000Y-42976190D01*
X120261905Y-43452381D02*
X120261905Y-42452381D01*
X120642858Y-42452381D01*
X120738096Y-42500000D01*
X120785715Y-42547619D01*
X120833334Y-42642857D01*
X120833334Y-42785714D01*
X120785715Y-42880952D01*
X120738096Y-42928571D01*
X120642858Y-42976190D01*
X120261905Y-42976190D01*
X121690477Y-42785714D02*
X121690477Y-43452381D01*
X121452381Y-42404762D02*
X121214286Y-43119048D01*
X121833334Y-43119048D01*
X76633334Y-72952381D02*
X76300000Y-72476190D01*
X76061905Y-72952381D02*
X76061905Y-71952381D01*
X76442858Y-71952381D01*
X76538096Y-72000000D01*
X76585715Y-72047619D01*
X76633334Y-72142857D01*
X76633334Y-72285714D01*
X76585715Y-72380952D01*
X76538096Y-72428571D01*
X76442858Y-72476190D01*
X76061905Y-72476190D01*
X76966667Y-71952381D02*
X77585715Y-71952381D01*
X77252381Y-72333333D01*
X77395239Y-72333333D01*
X77490477Y-72380952D01*
X77538096Y-72428571D01*
X77585715Y-72523810D01*
X77585715Y-72761905D01*
X77538096Y-72857143D01*
X77490477Y-72904762D01*
X77395239Y-72952381D01*
X77109524Y-72952381D01*
X77014286Y-72904762D01*
X76966667Y-72857143D01*
X76633334Y-67352381D02*
X76300000Y-66876190D01*
X76061905Y-67352381D02*
X76061905Y-66352381D01*
X76442858Y-66352381D01*
X76538096Y-66400000D01*
X76585715Y-66447619D01*
X76633334Y-66542857D01*
X76633334Y-66685714D01*
X76585715Y-66780952D01*
X76538096Y-66828571D01*
X76442858Y-66876190D01*
X76061905Y-66876190D01*
X77014286Y-66447619D02*
X77061905Y-66400000D01*
X77157143Y-66352381D01*
X77395239Y-66352381D01*
X77490477Y-66400000D01*
X77538096Y-66447619D01*
X77585715Y-66542857D01*
X77585715Y-66638095D01*
X77538096Y-66780952D01*
X76966667Y-67352381D01*
X77585715Y-67352381D01*
X76633334Y-70152381D02*
X76300000Y-69676190D01*
X76061905Y-70152381D02*
X76061905Y-69152381D01*
X76442858Y-69152381D01*
X76538096Y-69200000D01*
X76585715Y-69247619D01*
X76633334Y-69342857D01*
X76633334Y-69485714D01*
X76585715Y-69580952D01*
X76538096Y-69628571D01*
X76442858Y-69676190D01*
X76061905Y-69676190D01*
X77585715Y-70152381D02*
X77014286Y-70152381D01*
X77300000Y-70152381D02*
X77300000Y-69152381D01*
X77204762Y-69295238D01*
X77109524Y-69390476D01*
X77014286Y-69438095D01*
X76061905Y-63052381D02*
X76061905Y-62052381D01*
X76300000Y-62052381D01*
X76442858Y-62100000D01*
X76538096Y-62195238D01*
X76585715Y-62290476D01*
X76633334Y-62480952D01*
X76633334Y-62623810D01*
X76585715Y-62814286D01*
X76538096Y-62909524D01*
X76442858Y-63004762D01*
X76300000Y-63052381D01*
X76061905Y-63052381D01*
X77538096Y-62052381D02*
X77061905Y-62052381D01*
X77014286Y-62528571D01*
X77061905Y-62480952D01*
X77157143Y-62433333D01*
X77395239Y-62433333D01*
X77490477Y-62480952D01*
X77538096Y-62528571D01*
X77585715Y-62623810D01*
X77585715Y-62861905D01*
X77538096Y-62957143D01*
X77490477Y-63004762D01*
X77395239Y-63052381D01*
X77157143Y-63052381D01*
X77061905Y-63004762D01*
X77014286Y-62957143D01*
X120261905Y-44952381D02*
X120261905Y-43952381D01*
X120500000Y-43952381D01*
X120642858Y-44000000D01*
X120738096Y-44095238D01*
X120785715Y-44190476D01*
X120833334Y-44380952D01*
X120833334Y-44523810D01*
X120785715Y-44714286D01*
X120738096Y-44809524D01*
X120642858Y-44904762D01*
X120500000Y-44952381D01*
X120261905Y-44952381D01*
X121690477Y-44285714D02*
X121690477Y-44952381D01*
X121452381Y-43904762D02*
X121214286Y-44619048D01*
X121833334Y-44619048D01*
X76061905Y-71552381D02*
X76061905Y-70552381D01*
X76300000Y-70552381D01*
X76442858Y-70600000D01*
X76538096Y-70695238D01*
X76585715Y-70790476D01*
X76633334Y-70980952D01*
X76633334Y-71123810D01*
X76585715Y-71314286D01*
X76538096Y-71409524D01*
X76442858Y-71504762D01*
X76300000Y-71552381D01*
X76061905Y-71552381D01*
X76966667Y-70552381D02*
X77585715Y-70552381D01*
X77252381Y-70933333D01*
X77395239Y-70933333D01*
X77490477Y-70980952D01*
X77538096Y-71028571D01*
X77585715Y-71123810D01*
X77585715Y-71361905D01*
X77538096Y-71457143D01*
X77490477Y-71504762D01*
X77395239Y-71552381D01*
X77109524Y-71552381D01*
X77014286Y-71504762D01*
X76966667Y-71457143D01*
X76061905Y-65952381D02*
X76061905Y-64952381D01*
X76300000Y-64952381D01*
X76442858Y-65000000D01*
X76538096Y-65095238D01*
X76585715Y-65190476D01*
X76633334Y-65380952D01*
X76633334Y-65523810D01*
X76585715Y-65714286D01*
X76538096Y-65809524D01*
X76442858Y-65904762D01*
X76300000Y-65952381D01*
X76061905Y-65952381D01*
X77014286Y-65047619D02*
X77061905Y-65000000D01*
X77157143Y-64952381D01*
X77395239Y-64952381D01*
X77490477Y-65000000D01*
X77538096Y-65047619D01*
X77585715Y-65142857D01*
X77585715Y-65238095D01*
X77538096Y-65380952D01*
X76966667Y-65952381D01*
X77585715Y-65952381D01*
X76061905Y-68752381D02*
X76061905Y-67752381D01*
X76300000Y-67752381D01*
X76442858Y-67800000D01*
X76538096Y-67895238D01*
X76585715Y-67990476D01*
X76633334Y-68180952D01*
X76633334Y-68323810D01*
X76585715Y-68514286D01*
X76538096Y-68609524D01*
X76442858Y-68704762D01*
X76300000Y-68752381D01*
X76061905Y-68752381D01*
X77585715Y-68752381D02*
X77014286Y-68752381D01*
X77300000Y-68752381D02*
X77300000Y-67752381D01*
X77204762Y-67895238D01*
X77109524Y-67990476D01*
X77014286Y-68038095D01*
X78933334Y-59457143D02*
X78885715Y-59504762D01*
X78742858Y-59552381D01*
X78647620Y-59552381D01*
X78504762Y-59504762D01*
X78409524Y-59409524D01*
X78361905Y-59314286D01*
X78314286Y-59123810D01*
X78314286Y-58980952D01*
X78361905Y-58790476D01*
X78409524Y-58695238D01*
X78504762Y-58600000D01*
X78647620Y-58552381D01*
X78742858Y-58552381D01*
X78885715Y-58600000D01*
X78933334Y-58647619D01*
X79885715Y-59552381D02*
X79314286Y-59552381D01*
X79600000Y-59552381D02*
X79600000Y-58552381D01*
X79504762Y-58695238D01*
X79409524Y-58790476D01*
X79314286Y-58838095D01*
X122390476Y-90952381D02*
X123009524Y-90952381D01*
X122676190Y-91333333D01*
X122819048Y-91333333D01*
X122914286Y-91380952D01*
X122961905Y-91428571D01*
X123009524Y-91523810D01*
X123009524Y-91761905D01*
X122961905Y-91857143D01*
X122914286Y-91904762D01*
X122819048Y-91952381D01*
X122533333Y-91952381D01*
X122438095Y-91904762D01*
X122390476Y-91857143D01*
X123390476Y-91047619D02*
X123438095Y-91000000D01*
X123533333Y-90952381D01*
X123771429Y-90952381D01*
X123866667Y-91000000D01*
X123914286Y-91047619D01*
X123961905Y-91142857D01*
X123961905Y-91238095D01*
X123914286Y-91380952D01*
X123342857Y-91952381D01*
X123961905Y-91952381D01*
X76585715Y-91952381D02*
X76014286Y-91952381D01*
X76300000Y-91952381D02*
X76300000Y-90952381D01*
X76204762Y-91095238D01*
X76109524Y-91190476D01*
X76014286Y-91238095D01*
M02*
