M48
;DRILL file {KiCad 4.0.7-e1-6374~58~ubuntu17.04.1} date Tue Aug  1 22:32:53 2017
;FORMAT={-:-/ absolute / inch / decimal}
FMAT,2
INCH,TZ
T1C0.016
T2C0.031
%
G90
G05
M72
T1
X3.0157Y-3.6457
X3.0472Y-1.8425
X3.0472Y-2.0197
X3.0472Y-2.1969
X3.0827Y-3.6457
X3.1417Y-3.6457
X3.2008Y-3.6457
X3.2559Y-2.2953
X3.2598Y-3.6457
X3.2874Y-2.2047
X3.3071Y-2.3307
X3.3189Y-3.6457
X3.3268Y-2.4646
X3.3307Y-2.3898
X3.374Y-3.6457
X3.3858Y-2.2047
X3.435Y-3.6457
X3.4843Y-2.2047
X3.4961Y-3.6457
X3.5512Y-3.6457
X3.5669Y-2.2047
X3.6142Y-3.6457
X3.6732Y-3.6457
X3.689Y-1.8819
X3.7283Y-3.6457
X3.7874Y-1.8819
X3.7874Y-3.6457
X3.8465Y-3.6457
X3.8858Y-1.8819
X3.9094Y-3.6457
X3.9685Y-3.6457
X3.9882Y-1.8819
X4.Y-2.2441
X4.016Y-2.2081
X4.0276Y-3.6457
X4.0748Y-2.4449
X4.0866Y-3.6457
X4.0984Y-2.2362
X4.1102Y-2.1969
X4.1142Y-2.4685
X4.1457Y-3.6457
X4.1535Y-2.4921
X4.185Y-2.0787
X4.1929Y-2.5157
X4.2047Y-3.6457
X4.2326Y-2.5397
X4.2618Y-3.6457
X4.2717Y-2.563
X4.2874Y-2.0787
X4.3209Y-3.6457
X4.3799Y-3.6457
X4.3858Y-2.0787
X4.439Y-3.6457
X4.4882Y-2.0787
X4.498Y-3.6457
X4.5087Y-1.8898
X4.5571Y-3.6457
X4.5866Y-2.0787
X4.6161Y-3.6457
X4.6752Y-3.6457
X4.685Y-2.0787
X4.7343Y-3.6457
X4.7933Y-3.6457
X4.8307Y-1.8031
X4.8583Y-3.6457
T2
X2.9685Y-2.3898
X3.1102Y-1.6063
X4.7205Y-3.1417
X4.7244Y-3.3976
X4.7441Y-2.7638
X4.7598Y-2.3661
X4.8425Y-2.1299
X4.8583Y-3.5512
X4.878Y-2.5787
X4.878Y-2.9724
X4.878Y-3.3071
T0
M30
