G04 #@! TF.FileFunction,Paste,Top*
%FSLAX46Y46*%
G04 Gerber Fmt 4.6, Leading zero omitted, Abs format (unit mm)*
G04 Created by KiCad (PCBNEW 4.0.7-e1-6374~58~ubuntu17.04.1) date Tue Aug  1 22:32:49 2017*
%MOMM*%
%LPD*%
G01*
G04 APERTURE LIST*
%ADD10C,0.100000*%
%ADD11C,0.150000*%
%ADD12R,1.000000X3.150000*%
%ADD13R,0.500000X0.900000*%
%ADD14R,0.800000X0.800000*%
%ADD15R,1.000000X1.250000*%
G04 APERTURE END LIST*
D10*
D11*
X121700000Y-39000000D02*
X121700000Y-41600000D01*
X74300000Y-39000000D02*
X121700000Y-39000000D01*
X125700000Y-41600000D02*
X121700000Y-41600000D01*
X74300000Y-91400000D02*
X74300000Y-39000000D01*
X75400000Y-91400000D02*
X74300000Y-91400000D01*
X75400000Y-100000000D02*
X75400000Y-91400000D01*
X125700000Y-91400000D02*
X125700000Y-41600000D01*
X124600000Y-91400000D02*
X125700000Y-91400000D01*
X124600000Y-100000000D02*
X124600000Y-91400000D01*
X75400000Y-100000000D02*
X124600000Y-100000000D01*
D12*
X80950000Y-50525000D03*
X80950000Y-45475000D03*
X83490000Y-50525000D03*
X83490000Y-45475000D03*
X86030000Y-50525000D03*
X86030000Y-45475000D03*
X88570000Y-50525000D03*
X88570000Y-45475000D03*
X91110000Y-50525000D03*
X91110000Y-45475000D03*
X93650000Y-50525000D03*
X93650000Y-45475000D03*
X96190000Y-50525000D03*
X96190000Y-45475000D03*
X98730000Y-50525000D03*
X98730000Y-45475000D03*
X101270000Y-50525000D03*
X101270000Y-45475000D03*
X103810000Y-50525000D03*
X103810000Y-45475000D03*
X106350000Y-50525000D03*
X106350000Y-45475000D03*
X108890000Y-50525000D03*
X108890000Y-45475000D03*
X111430000Y-50525000D03*
X111430000Y-45475000D03*
X113970000Y-50525000D03*
X113970000Y-45475000D03*
X116510000Y-50525000D03*
X116510000Y-45475000D03*
X119050000Y-50525000D03*
X119050000Y-45475000D03*
D13*
X77250000Y-43800000D03*
X75750000Y-43800000D03*
X122800000Y-43000000D03*
X124300000Y-43000000D03*
X77200000Y-57300000D03*
X75700000Y-57300000D03*
X77250000Y-48300000D03*
X75750000Y-48300000D03*
D14*
X75700000Y-40800000D03*
X77300000Y-40800000D03*
X124300000Y-44500000D03*
X122700000Y-44500000D03*
X75700000Y-54300000D03*
X77300000Y-54300000D03*
X75700000Y-45300000D03*
X77300000Y-45300000D03*
D13*
X77250000Y-52800000D03*
X75750000Y-52800000D03*
D14*
X75600000Y-49800000D03*
X77200000Y-49800000D03*
D15*
X77400000Y-59100000D03*
X75400000Y-59100000D03*
M02*
