G04 #@! TF.GenerationSoftware,KiCad,Pcbnew,5.1.5-52549c5~84~ubuntu19.10.1*
G04 #@! TF.CreationDate,2020-02-14T19:30:31+02:00*
G04 #@! TF.ProjectId,GB-CART256K-A,47422d43-4152-4543-9235-364b2d412e6b,v1.2*
G04 #@! TF.SameCoordinates,Original*
G04 #@! TF.FileFunction,Soldermask,Bot*
G04 #@! TF.FilePolarity,Negative*
%FSLAX46Y46*%
G04 Gerber Fmt 4.6, Leading zero omitted, Abs format (unit mm)*
G04 Created by KiCad (PCBNEW 5.1.5-52549c5~84~ubuntu19.10.1) date 2020-02-14 19:30:31*
%MOMM*%
%LPD*%
G04 APERTURE LIST*
%ADD10C,0.150000*%
%ADD11C,0.100000*%
G04 APERTURE END LIST*
D10*
X74800000Y-91400000D02*
G75*
G02X74300000Y-90900000I0J500000D01*
G01*
X74300000Y-39500000D02*
G75*
G02X74800000Y-39000000I500000J0D01*
G01*
X121200000Y-39000000D02*
G75*
G02X121700000Y-39500000I0J-500000D01*
G01*
X125200000Y-41600000D02*
G75*
G02X125700000Y-42100000I0J-500000D01*
G01*
X125700000Y-90900000D02*
G75*
G02X125200000Y-91400000I-500000J0D01*
G01*
X76300000Y-100000000D02*
G75*
G02X75400000Y-99100000I0J900000D01*
G01*
X124600000Y-99100000D02*
G75*
G02X123700000Y-100000000I-900000J0D01*
G01*
X121700000Y-39500000D02*
X121700000Y-41600000D01*
X74800000Y-39000000D02*
X121200000Y-39000000D01*
X125200000Y-41600000D02*
X121700000Y-41600000D01*
X74300000Y-90900000D02*
X74300000Y-39500000D01*
X75400000Y-91400000D02*
X74800000Y-91400000D01*
X75400000Y-99100000D02*
X75400000Y-91400000D01*
X125700000Y-90900000D02*
X125700000Y-42100000D01*
X124600000Y-91400000D02*
X125200000Y-91400000D01*
X124600000Y-99100000D02*
X124600000Y-91400000D01*
X76300000Y-100000000D02*
X123700000Y-100000000D01*
D11*
G36*
X101050081Y-81188346D02*
G01*
X101050083Y-81188347D01*
X101050084Y-81188347D01*
X101292095Y-81288591D01*
X101705240Y-81459721D01*
X102294866Y-81853697D01*
X102796303Y-82355134D01*
X103190279Y-82944760D01*
X103461654Y-83599919D01*
X103600000Y-84295431D01*
X103600000Y-85004569D01*
X103461654Y-85700081D01*
X103190279Y-86355240D01*
X102796303Y-86944866D01*
X102294866Y-87446303D01*
X101705240Y-87840279D01*
X101292095Y-88011409D01*
X101050084Y-88111653D01*
X101050083Y-88111653D01*
X101050081Y-88111654D01*
X100354569Y-88250000D01*
X99645431Y-88250000D01*
X98949919Y-88111654D01*
X98949917Y-88111653D01*
X98949916Y-88111653D01*
X98707905Y-88011409D01*
X98294760Y-87840279D01*
X97705134Y-87446303D01*
X97203697Y-86944866D01*
X96809721Y-86355240D01*
X96538346Y-85700081D01*
X96400000Y-85004569D01*
X96400000Y-84295431D01*
X96538346Y-83599919D01*
X96809721Y-82944760D01*
X97203697Y-82355134D01*
X97705134Y-81853697D01*
X98294760Y-81459721D01*
X98707905Y-81288591D01*
X98949916Y-81188347D01*
X98949917Y-81188347D01*
X98949919Y-81188346D01*
X99645431Y-81050000D01*
X100354569Y-81050000D01*
X101050081Y-81188346D01*
G37*
G36*
X76795090Y-59119214D02*
G01*
X76891689Y-59138429D01*
X77073678Y-59213811D01*
X77237463Y-59323249D01*
X77376751Y-59462537D01*
X77486189Y-59626322D01*
X77561571Y-59808311D01*
X77561571Y-59808313D01*
X77596805Y-59985443D01*
X77600000Y-60001509D01*
X77600000Y-60198491D01*
X77561571Y-60391689D01*
X77486189Y-60573678D01*
X77376751Y-60737463D01*
X77237463Y-60876751D01*
X77073678Y-60986189D01*
X76891689Y-61061571D01*
X76795090Y-61080785D01*
X76698493Y-61100000D01*
X76501507Y-61100000D01*
X76404910Y-61080785D01*
X76308311Y-61061571D01*
X76126322Y-60986189D01*
X75962537Y-60876751D01*
X75823249Y-60737463D01*
X75713811Y-60573678D01*
X75638429Y-60391689D01*
X75600000Y-60198491D01*
X75600000Y-60001509D01*
X75603196Y-59985443D01*
X75638429Y-59808313D01*
X75638429Y-59808311D01*
X75713811Y-59626322D01*
X75823249Y-59462537D01*
X75962537Y-59323249D01*
X76126322Y-59213811D01*
X76308311Y-59138429D01*
X76404910Y-59119214D01*
X76501507Y-59100000D01*
X76698493Y-59100000D01*
X76795090Y-59119214D01*
G37*
G36*
X100335443Y-58544194D02*
G01*
X100335446Y-58544195D01*
X100335445Y-58544195D01*
X100544728Y-58630883D01*
X100733083Y-58756738D01*
X100893262Y-58916917D01*
X101019117Y-59105272D01*
X101032851Y-59138429D01*
X101105806Y-59314557D01*
X101150000Y-59536735D01*
X101150000Y-59763265D01*
X101105806Y-59985443D01*
X101105805Y-59985445D01*
X101019117Y-60194728D01*
X101016601Y-60198493D01*
X100893263Y-60383082D01*
X100733082Y-60543263D01*
X100687561Y-60573679D01*
X100544728Y-60669117D01*
X100382855Y-60736167D01*
X100335443Y-60755806D01*
X100113265Y-60800000D01*
X99886735Y-60800000D01*
X99664557Y-60755806D01*
X99617145Y-60736167D01*
X99455272Y-60669117D01*
X99312439Y-60573679D01*
X99266918Y-60543263D01*
X99106737Y-60383082D01*
X98983399Y-60198493D01*
X98980883Y-60194728D01*
X98894195Y-59985445D01*
X98894194Y-59985443D01*
X98850000Y-59763265D01*
X98850000Y-59536735D01*
X98894194Y-59314557D01*
X98967149Y-59138429D01*
X98980883Y-59105272D01*
X99106738Y-58916917D01*
X99266917Y-58756738D01*
X99455272Y-58630883D01*
X99664555Y-58544195D01*
X99664554Y-58544195D01*
X99664557Y-58544194D01*
X99886735Y-58500000D01*
X100113265Y-58500000D01*
X100335443Y-58544194D01*
G37*
G36*
X82695090Y-48219215D02*
G01*
X82791689Y-48238429D01*
X82973678Y-48313811D01*
X83137463Y-48423249D01*
X83276751Y-48562537D01*
X83386189Y-48726322D01*
X83461571Y-48908311D01*
X83500000Y-49101509D01*
X83500000Y-49298491D01*
X83461571Y-49491689D01*
X83386189Y-49673678D01*
X83276751Y-49837463D01*
X83137463Y-49976751D01*
X82973678Y-50086189D01*
X82791689Y-50161571D01*
X82695090Y-50180785D01*
X82598493Y-50200000D01*
X82401507Y-50200000D01*
X82304910Y-50180785D01*
X82208311Y-50161571D01*
X82026322Y-50086189D01*
X81862537Y-49976751D01*
X81723249Y-49837463D01*
X81613811Y-49673678D01*
X81538429Y-49491689D01*
X81500000Y-49298491D01*
X81500000Y-49101509D01*
X81538429Y-48908311D01*
X81613811Y-48726322D01*
X81723249Y-48562537D01*
X81862537Y-48423249D01*
X82026322Y-48313811D01*
X82208311Y-48238429D01*
X82304910Y-48219214D01*
X82401507Y-48200000D01*
X82598493Y-48200000D01*
X82695090Y-48219215D01*
G37*
G36*
X82695090Y-43719215D02*
G01*
X82791689Y-43738429D01*
X82973678Y-43813811D01*
X83137463Y-43923249D01*
X83276751Y-44062537D01*
X83386189Y-44226322D01*
X83461571Y-44408311D01*
X83461571Y-44408313D01*
X83495140Y-44577072D01*
X83500000Y-44601509D01*
X83500000Y-44798491D01*
X83461571Y-44991689D01*
X83386189Y-45173678D01*
X83276751Y-45337463D01*
X83137463Y-45476751D01*
X82973678Y-45586189D01*
X82791689Y-45661571D01*
X82695090Y-45680785D01*
X82598493Y-45700000D01*
X82401507Y-45700000D01*
X82304910Y-45680785D01*
X82208311Y-45661571D01*
X82026322Y-45586189D01*
X81862537Y-45476751D01*
X81723249Y-45337463D01*
X81613811Y-45173678D01*
X81538429Y-44991689D01*
X81500000Y-44798491D01*
X81500000Y-44601509D01*
X81504861Y-44577072D01*
X81538429Y-44408313D01*
X81538429Y-44408311D01*
X81613811Y-44226322D01*
X81723249Y-44062537D01*
X81862537Y-43923249D01*
X82026322Y-43813811D01*
X82208311Y-43738429D01*
X82304910Y-43719215D01*
X82401507Y-43700000D01*
X82598493Y-43700000D01*
X82695090Y-43719215D01*
G37*
G36*
X114454474Y-44539734D02*
G01*
X114544613Y-44577070D01*
X114625736Y-44631275D01*
X114694725Y-44700264D01*
X114748930Y-44781387D01*
X114786266Y-44871526D01*
X114805300Y-44967217D01*
X114805300Y-45064783D01*
X114786266Y-45160474D01*
X114748930Y-45250613D01*
X114694725Y-45331736D01*
X114625736Y-45400725D01*
X114544613Y-45454930D01*
X114454474Y-45492266D01*
X114358783Y-45511300D01*
X114261217Y-45511300D01*
X114165526Y-45492266D01*
X114075387Y-45454930D01*
X113994264Y-45400725D01*
X113925275Y-45331736D01*
X113871070Y-45250613D01*
X113833734Y-45160474D01*
X113814700Y-45064783D01*
X113814700Y-44967217D01*
X113833734Y-44871526D01*
X113871070Y-44781387D01*
X113925275Y-44700264D01*
X113994264Y-44631275D01*
X114075387Y-44577070D01*
X114165526Y-44539734D01*
X114261217Y-44520700D01*
X114358783Y-44520700D01*
X114454474Y-44539734D01*
G37*
G36*
X106834474Y-43523734D02*
G01*
X106924613Y-43561070D01*
X107005736Y-43615275D01*
X107074725Y-43684264D01*
X107128930Y-43765387D01*
X107166266Y-43855526D01*
X107185300Y-43951217D01*
X107185300Y-44048783D01*
X107166266Y-44144474D01*
X107128930Y-44234613D01*
X107074725Y-44315736D01*
X107005736Y-44384725D01*
X106924613Y-44438930D01*
X106834474Y-44476266D01*
X106738783Y-44495300D01*
X106641217Y-44495300D01*
X106545526Y-44476266D01*
X106455387Y-44438930D01*
X106374264Y-44384725D01*
X106305275Y-44315736D01*
X106251070Y-44234613D01*
X106213734Y-44144474D01*
X106194700Y-44048783D01*
X106194700Y-43951217D01*
X106213734Y-43855526D01*
X106251070Y-43765387D01*
X106305275Y-43684264D01*
X106374264Y-43615275D01*
X106455387Y-43561070D01*
X106545526Y-43523734D01*
X106641217Y-43504700D01*
X106738783Y-43504700D01*
X106834474Y-43523734D01*
G37*
G36*
X114454474Y-42507734D02*
G01*
X114544613Y-42545070D01*
X114625736Y-42599275D01*
X114694725Y-42668264D01*
X114748930Y-42749387D01*
X114786266Y-42839526D01*
X114805300Y-42935217D01*
X114805300Y-43032783D01*
X114786266Y-43128474D01*
X114748930Y-43218613D01*
X114694725Y-43299736D01*
X114625736Y-43368725D01*
X114544613Y-43422930D01*
X114454474Y-43460266D01*
X114358783Y-43479300D01*
X114261217Y-43479300D01*
X114165526Y-43460266D01*
X114075387Y-43422930D01*
X113994264Y-43368725D01*
X113925275Y-43299736D01*
X113871070Y-43218613D01*
X113833734Y-43128474D01*
X113814700Y-43032783D01*
X113814700Y-42935217D01*
X113833734Y-42839526D01*
X113871070Y-42749387D01*
X113925275Y-42668264D01*
X113994264Y-42599275D01*
X114075387Y-42545070D01*
X114165526Y-42507734D01*
X114261217Y-42488700D01*
X114358783Y-42488700D01*
X114454474Y-42507734D01*
G37*
M02*
