G04 #@! TF.GenerationSoftware,KiCad,Pcbnew,5.1.6-c6e7f7d~86~ubuntu20.04.1*
G04 #@! TF.CreationDate,2020-05-17T15:57:30+03:00*
G04 #@! TF.ProjectId,GB-CART256K-A,47422d43-4152-4543-9235-364b2d412e6b,v1.2*
G04 #@! TF.SameCoordinates,Original*
G04 #@! TF.FileFunction,Paste,Top*
G04 #@! TF.FilePolarity,Positive*
%FSLAX46Y46*%
G04 Gerber Fmt 4.6, Leading zero omitted, Abs format (unit mm)*
G04 Created by KiCad (PCBNEW 5.1.6-c6e7f7d~86~ubuntu20.04.1) date 2020-05-17 15:57:30*
%MOMM*%
%LPD*%
G01*
G04 APERTURE LIST*
G04 #@! TA.AperFunction,Profile*
%ADD10C,0.150000*%
G04 #@! TD*
%ADD11R,0.250000X1.300000*%
%ADD12R,1.300000X0.250000*%
G04 APERTURE END LIST*
D10*
X74800000Y-91400000D02*
G75*
G02*
X74300000Y-90900000I0J500000D01*
G01*
X74300000Y-39500000D02*
G75*
G02*
X74800000Y-39000000I500000J0D01*
G01*
X121200000Y-39000000D02*
G75*
G02*
X121700000Y-39500000I0J-500000D01*
G01*
X125200000Y-41600000D02*
G75*
G02*
X125700000Y-42100000I0J-500000D01*
G01*
X125700000Y-90900000D02*
G75*
G02*
X125200000Y-91400000I-500000J0D01*
G01*
X76300000Y-100000000D02*
G75*
G02*
X75400000Y-99100000I0J900000D01*
G01*
X124600000Y-99100000D02*
G75*
G02*
X123700000Y-100000000I-900000J0D01*
G01*
X121700000Y-39500000D02*
X121700000Y-41600000D01*
X74800000Y-39000000D02*
X121200000Y-39000000D01*
X125200000Y-41600000D02*
X121700000Y-41600000D01*
X74300000Y-90900000D02*
X74300000Y-39500000D01*
X75400000Y-91400000D02*
X74800000Y-91400000D01*
X75400000Y-99100000D02*
X75400000Y-91400000D01*
X125700000Y-90900000D02*
X125700000Y-42100000D01*
X124600000Y-91400000D02*
X125200000Y-91400000D01*
X124600000Y-99100000D02*
X124600000Y-91400000D01*
X76300000Y-100000000D02*
X123700000Y-100000000D01*
G36*
G01*
X85812732Y-68949710D02*
X85812732Y-69462210D01*
G75*
G02*
X85593982Y-69680960I-218750J0D01*
G01*
X85156482Y-69680960D01*
G75*
G02*
X84937732Y-69462210I0J218750D01*
G01*
X84937732Y-68949710D01*
G75*
G02*
X85156482Y-68730960I218750J0D01*
G01*
X85593982Y-68730960D01*
G75*
G02*
X85812732Y-68949710I0J-218750D01*
G01*
G37*
G36*
G01*
X87387732Y-68949710D02*
X87387732Y-69462210D01*
G75*
G02*
X87168982Y-69680960I-218750J0D01*
G01*
X86731482Y-69680960D01*
G75*
G02*
X86512732Y-69462210I0J218750D01*
G01*
X86512732Y-68949710D01*
G75*
G02*
X86731482Y-68730960I218750J0D01*
G01*
X87168982Y-68730960D01*
G75*
G02*
X87387732Y-68949710I0J-218750D01*
G01*
G37*
G36*
G01*
X118643750Y-55450000D02*
X119156250Y-55450000D01*
G75*
G02*
X119375000Y-55668750I0J-218750D01*
G01*
X119375000Y-56106250D01*
G75*
G02*
X119156250Y-56325000I-218750J0D01*
G01*
X118643750Y-56325000D01*
G75*
G02*
X118425000Y-56106250I0J218750D01*
G01*
X118425000Y-55668750D01*
G75*
G02*
X118643750Y-55450000I218750J0D01*
G01*
G37*
G36*
G01*
X118643750Y-53875000D02*
X119156250Y-53875000D01*
G75*
G02*
X119375000Y-54093750I0J-218750D01*
G01*
X119375000Y-54531250D01*
G75*
G02*
X119156250Y-54750000I-218750J0D01*
G01*
X118643750Y-54750000D01*
G75*
G02*
X118425000Y-54531250I0J218750D01*
G01*
X118425000Y-54093750D01*
G75*
G02*
X118643750Y-53875000I218750J0D01*
G01*
G37*
G36*
G01*
X106956250Y-53750000D02*
X106443750Y-53750000D01*
G75*
G02*
X106225000Y-53531250I0J218750D01*
G01*
X106225000Y-53093750D01*
G75*
G02*
X106443750Y-52875000I218750J0D01*
G01*
X106956250Y-52875000D01*
G75*
G02*
X107175000Y-53093750I0J-218750D01*
G01*
X107175000Y-53531250D01*
G75*
G02*
X106956250Y-53750000I-218750J0D01*
G01*
G37*
G36*
G01*
X106956250Y-55325000D02*
X106443750Y-55325000D01*
G75*
G02*
X106225000Y-55106250I0J218750D01*
G01*
X106225000Y-54668750D01*
G75*
G02*
X106443750Y-54450000I218750J0D01*
G01*
X106956250Y-54450000D01*
G75*
G02*
X107175000Y-54668750I0J-218750D01*
G01*
X107175000Y-55106250D01*
G75*
G02*
X106956250Y-55325000I-218750J0D01*
G01*
G37*
G36*
G01*
X106443750Y-58750000D02*
X106956250Y-58750000D01*
G75*
G02*
X107175000Y-58968750I0J-218750D01*
G01*
X107175000Y-59406250D01*
G75*
G02*
X106956250Y-59625000I-218750J0D01*
G01*
X106443750Y-59625000D01*
G75*
G02*
X106225000Y-59406250I0J218750D01*
G01*
X106225000Y-58968750D01*
G75*
G02*
X106443750Y-58750000I218750J0D01*
G01*
G37*
G36*
G01*
X106443750Y-57175000D02*
X106956250Y-57175000D01*
G75*
G02*
X107175000Y-57393750I0J-218750D01*
G01*
X107175000Y-57831250D01*
G75*
G02*
X106956250Y-58050000I-218750J0D01*
G01*
X106443750Y-58050000D01*
G75*
G02*
X106225000Y-57831250I0J218750D01*
G01*
X106225000Y-57393750D01*
G75*
G02*
X106443750Y-57175000I218750J0D01*
G01*
G37*
G36*
G01*
X119156250Y-50450000D02*
X118643750Y-50450000D01*
G75*
G02*
X118425000Y-50231250I0J218750D01*
G01*
X118425000Y-49793750D01*
G75*
G02*
X118643750Y-49575000I218750J0D01*
G01*
X119156250Y-49575000D01*
G75*
G02*
X119375000Y-49793750I0J-218750D01*
G01*
X119375000Y-50231250D01*
G75*
G02*
X119156250Y-50450000I-218750J0D01*
G01*
G37*
G36*
G01*
X119156250Y-52025000D02*
X118643750Y-52025000D01*
G75*
G02*
X118425000Y-51806250I0J218750D01*
G01*
X118425000Y-51368750D01*
G75*
G02*
X118643750Y-51150000I218750J0D01*
G01*
X119156250Y-51150000D01*
G75*
G02*
X119375000Y-51368750I0J-218750D01*
G01*
X119375000Y-51806250D01*
G75*
G02*
X119156250Y-52025000I-218750J0D01*
G01*
G37*
G36*
G01*
X78856250Y-46650000D02*
X77943750Y-46650000D01*
G75*
G02*
X77700000Y-46406250I0J243750D01*
G01*
X77700000Y-45918750D01*
G75*
G02*
X77943750Y-45675000I243750J0D01*
G01*
X78856250Y-45675000D01*
G75*
G02*
X79100000Y-45918750I0J-243750D01*
G01*
X79100000Y-46406250D01*
G75*
G02*
X78856250Y-46650000I-243750J0D01*
G01*
G37*
G36*
G01*
X78856250Y-48525000D02*
X77943750Y-48525000D01*
G75*
G02*
X77700000Y-48281250I0J243750D01*
G01*
X77700000Y-47793750D01*
G75*
G02*
X77943750Y-47550000I243750J0D01*
G01*
X78856250Y-47550000D01*
G75*
G02*
X79100000Y-47793750I0J-243750D01*
G01*
X79100000Y-48281250D01*
G75*
G02*
X78856250Y-48525000I-243750J0D01*
G01*
G37*
G36*
G01*
X76756250Y-46650000D02*
X75843750Y-46650000D01*
G75*
G02*
X75600000Y-46406250I0J243750D01*
G01*
X75600000Y-45918750D01*
G75*
G02*
X75843750Y-45675000I243750J0D01*
G01*
X76756250Y-45675000D01*
G75*
G02*
X77000000Y-45918750I0J-243750D01*
G01*
X77000000Y-46406250D01*
G75*
G02*
X76756250Y-46650000I-243750J0D01*
G01*
G37*
G36*
G01*
X76756250Y-48525000D02*
X75843750Y-48525000D01*
G75*
G02*
X75600000Y-48281250I0J243750D01*
G01*
X75600000Y-47793750D01*
G75*
G02*
X75843750Y-47550000I243750J0D01*
G01*
X76756250Y-47550000D01*
G75*
G02*
X77000000Y-47793750I0J-243750D01*
G01*
X77000000Y-48281250D01*
G75*
G02*
X76756250Y-48525000I-243750J0D01*
G01*
G37*
G36*
G01*
X121143750Y-55550000D02*
X122056250Y-55550000D01*
G75*
G02*
X122300000Y-55793750I0J-243750D01*
G01*
X122300000Y-56281250D01*
G75*
G02*
X122056250Y-56525000I-243750J0D01*
G01*
X121143750Y-56525000D01*
G75*
G02*
X120900000Y-56281250I0J243750D01*
G01*
X120900000Y-55793750D01*
G75*
G02*
X121143750Y-55550000I243750J0D01*
G01*
G37*
G36*
G01*
X121143750Y-53675000D02*
X122056250Y-53675000D01*
G75*
G02*
X122300000Y-53918750I0J-243750D01*
G01*
X122300000Y-54406250D01*
G75*
G02*
X122056250Y-54650000I-243750J0D01*
G01*
X121143750Y-54650000D01*
G75*
G02*
X120900000Y-54406250I0J243750D01*
G01*
X120900000Y-53918750D01*
G75*
G02*
X121143750Y-53675000I243750J0D01*
G01*
G37*
G36*
G01*
X122056250Y-50150000D02*
X121143750Y-50150000D01*
G75*
G02*
X120900000Y-49906250I0J243750D01*
G01*
X120900000Y-49418750D01*
G75*
G02*
X121143750Y-49175000I243750J0D01*
G01*
X122056250Y-49175000D01*
G75*
G02*
X122300000Y-49418750I0J-243750D01*
G01*
X122300000Y-49906250D01*
G75*
G02*
X122056250Y-50150000I-243750J0D01*
G01*
G37*
G36*
G01*
X122056250Y-52025000D02*
X121143750Y-52025000D01*
G75*
G02*
X120900000Y-51781250I0J243750D01*
G01*
X120900000Y-51293750D01*
G75*
G02*
X121143750Y-51050000I243750J0D01*
G01*
X122056250Y-51050000D01*
G75*
G02*
X122300000Y-51293750I0J-243750D01*
G01*
X122300000Y-51781250D01*
G75*
G02*
X122056250Y-52025000I-243750J0D01*
G01*
G37*
G36*
G01*
X78050000Y-56606250D02*
X78050000Y-55693750D01*
G75*
G02*
X78293750Y-55450000I243750J0D01*
G01*
X78781250Y-55450000D01*
G75*
G02*
X79025000Y-55693750I0J-243750D01*
G01*
X79025000Y-56606250D01*
G75*
G02*
X78781250Y-56850000I-243750J0D01*
G01*
X78293750Y-56850000D01*
G75*
G02*
X78050000Y-56606250I0J243750D01*
G01*
G37*
G36*
G01*
X76175000Y-56606250D02*
X76175000Y-55693750D01*
G75*
G02*
X76418750Y-55450000I243750J0D01*
G01*
X76906250Y-55450000D01*
G75*
G02*
X77150000Y-55693750I0J-243750D01*
G01*
X77150000Y-56606250D01*
G75*
G02*
X76906250Y-56850000I-243750J0D01*
G01*
X76418750Y-56850000D01*
G75*
G02*
X76175000Y-56606250I0J243750D01*
G01*
G37*
G36*
G01*
X77620000Y-52400000D02*
X77310000Y-52400000D01*
G75*
G02*
X77210000Y-52300000I0J100000D01*
G01*
X77210000Y-52100000D01*
G75*
G02*
X77310000Y-52000000I100000J0D01*
G01*
X77620000Y-52000000D01*
G75*
G02*
X77720000Y-52100000I0J-100000D01*
G01*
X77720000Y-52300000D01*
G75*
G02*
X77620000Y-52400000I-100000J0D01*
G01*
G37*
G36*
G01*
X76990000Y-52400000D02*
X76680000Y-52400000D01*
G75*
G02*
X76580000Y-52300000I0J100000D01*
G01*
X76580000Y-52100000D01*
G75*
G02*
X76680000Y-52000000I100000J0D01*
G01*
X76990000Y-52000000D01*
G75*
G02*
X77090000Y-52100000I0J-100000D01*
G01*
X77090000Y-52300000D01*
G75*
G02*
X76990000Y-52400000I-100000J0D01*
G01*
G37*
G36*
G01*
X76712500Y-51750000D02*
X76587500Y-51750000D01*
G75*
G02*
X76525000Y-51687500I0J62500D01*
G01*
X76525000Y-51112500D01*
G75*
G02*
X76587500Y-51050000I62500J0D01*
G01*
X76712500Y-51050000D01*
G75*
G02*
X76775000Y-51112500I0J-62500D01*
G01*
X76775000Y-51687500D01*
G75*
G02*
X76712500Y-51750000I-62500J0D01*
G01*
G37*
G36*
G01*
X77212500Y-51750000D02*
X77087500Y-51750000D01*
G75*
G02*
X77025000Y-51687500I0J62500D01*
G01*
X77025000Y-51112500D01*
G75*
G02*
X77087500Y-51050000I62500J0D01*
G01*
X77212500Y-51050000D01*
G75*
G02*
X77275000Y-51112500I0J-62500D01*
G01*
X77275000Y-51687500D01*
G75*
G02*
X77212500Y-51750000I-62500J0D01*
G01*
G37*
G36*
G01*
X77712500Y-51750000D02*
X77587500Y-51750000D01*
G75*
G02*
X77525000Y-51687500I0J62500D01*
G01*
X77525000Y-51112500D01*
G75*
G02*
X77587500Y-51050000I62500J0D01*
G01*
X77712500Y-51050000D01*
G75*
G02*
X77775000Y-51112500I0J-62500D01*
G01*
X77775000Y-51687500D01*
G75*
G02*
X77712500Y-51750000I-62500J0D01*
G01*
G37*
G36*
G01*
X77712500Y-53350000D02*
X77587500Y-53350000D01*
G75*
G02*
X77525000Y-53287500I0J62500D01*
G01*
X77525000Y-52712500D01*
G75*
G02*
X77587500Y-52650000I62500J0D01*
G01*
X77712500Y-52650000D01*
G75*
G02*
X77775000Y-52712500I0J-62500D01*
G01*
X77775000Y-53287500D01*
G75*
G02*
X77712500Y-53350000I-62500J0D01*
G01*
G37*
G36*
G01*
X77212500Y-53350000D02*
X77087500Y-53350000D01*
G75*
G02*
X77025000Y-53287500I0J62500D01*
G01*
X77025000Y-52712500D01*
G75*
G02*
X77087500Y-52650000I62500J0D01*
G01*
X77212500Y-52650000D01*
G75*
G02*
X77275000Y-52712500I0J-62500D01*
G01*
X77275000Y-53287500D01*
G75*
G02*
X77212500Y-53350000I-62500J0D01*
G01*
G37*
G36*
G01*
X76712500Y-53350000D02*
X76587500Y-53350000D01*
G75*
G02*
X76525000Y-53287500I0J62500D01*
G01*
X76525000Y-52712500D01*
G75*
G02*
X76587500Y-52650000I62500J0D01*
G01*
X76712500Y-52650000D01*
G75*
G02*
X76775000Y-52712500I0J-62500D01*
G01*
X76775000Y-53287500D01*
G75*
G02*
X76712500Y-53350000I-62500J0D01*
G01*
G37*
G36*
G01*
X89362732Y-69535960D02*
X88187732Y-69535960D01*
G75*
G02*
X88037732Y-69385960I0J150000D01*
G01*
X88037732Y-69085960D01*
G75*
G02*
X88187732Y-68935960I150000J0D01*
G01*
X89362732Y-68935960D01*
G75*
G02*
X89512732Y-69085960I0J-150000D01*
G01*
X89512732Y-69385960D01*
G75*
G02*
X89362732Y-69535960I-150000J0D01*
G01*
G37*
G36*
G01*
X89362732Y-68265960D02*
X88187732Y-68265960D01*
G75*
G02*
X88037732Y-68115960I0J150000D01*
G01*
X88037732Y-67815960D01*
G75*
G02*
X88187732Y-67665960I150000J0D01*
G01*
X89362732Y-67665960D01*
G75*
G02*
X89512732Y-67815960I0J-150000D01*
G01*
X89512732Y-68115960D01*
G75*
G02*
X89362732Y-68265960I-150000J0D01*
G01*
G37*
G36*
G01*
X89362732Y-66995960D02*
X88187732Y-66995960D01*
G75*
G02*
X88037732Y-66845960I0J150000D01*
G01*
X88037732Y-66545960D01*
G75*
G02*
X88187732Y-66395960I150000J0D01*
G01*
X89362732Y-66395960D01*
G75*
G02*
X89512732Y-66545960I0J-150000D01*
G01*
X89512732Y-66845960D01*
G75*
G02*
X89362732Y-66995960I-150000J0D01*
G01*
G37*
G36*
G01*
X90682732Y-65680960D02*
X90382732Y-65680960D01*
G75*
G02*
X90232732Y-65530960I0J150000D01*
G01*
X90232732Y-64355960D01*
G75*
G02*
X90382732Y-64205960I150000J0D01*
G01*
X90682732Y-64205960D01*
G75*
G02*
X90832732Y-64355960I0J-150000D01*
G01*
X90832732Y-65530960D01*
G75*
G02*
X90682732Y-65680960I-150000J0D01*
G01*
G37*
G36*
G01*
X91952732Y-65680960D02*
X91652732Y-65680960D01*
G75*
G02*
X91502732Y-65530960I0J150000D01*
G01*
X91502732Y-64355960D01*
G75*
G02*
X91652732Y-64205960I150000J0D01*
G01*
X91952732Y-64205960D01*
G75*
G02*
X92102732Y-64355960I0J-150000D01*
G01*
X92102732Y-65530960D01*
G75*
G02*
X91952732Y-65680960I-150000J0D01*
G01*
G37*
G36*
G01*
X93222732Y-65680960D02*
X92922732Y-65680960D01*
G75*
G02*
X92772732Y-65530960I0J150000D01*
G01*
X92772732Y-64355960D01*
G75*
G02*
X92922732Y-64205960I150000J0D01*
G01*
X93222732Y-64205960D01*
G75*
G02*
X93372732Y-64355960I0J-150000D01*
G01*
X93372732Y-65530960D01*
G75*
G02*
X93222732Y-65680960I-150000J0D01*
G01*
G37*
G36*
G01*
X94492732Y-65680960D02*
X94192732Y-65680960D01*
G75*
G02*
X94042732Y-65530960I0J150000D01*
G01*
X94042732Y-64355960D01*
G75*
G02*
X94192732Y-64205960I150000J0D01*
G01*
X94492732Y-64205960D01*
G75*
G02*
X94642732Y-64355960I0J-150000D01*
G01*
X94642732Y-65530960D01*
G75*
G02*
X94492732Y-65680960I-150000J0D01*
G01*
G37*
G36*
G01*
X95762732Y-65680960D02*
X95462732Y-65680960D01*
G75*
G02*
X95312732Y-65530960I0J150000D01*
G01*
X95312732Y-64355960D01*
G75*
G02*
X95462732Y-64205960I150000J0D01*
G01*
X95762732Y-64205960D01*
G75*
G02*
X95912732Y-64355960I0J-150000D01*
G01*
X95912732Y-65530960D01*
G75*
G02*
X95762732Y-65680960I-150000J0D01*
G01*
G37*
G36*
G01*
X97032732Y-65680960D02*
X96732732Y-65680960D01*
G75*
G02*
X96582732Y-65530960I0J150000D01*
G01*
X96582732Y-64355960D01*
G75*
G02*
X96732732Y-64205960I150000J0D01*
G01*
X97032732Y-64205960D01*
G75*
G02*
X97182732Y-64355960I0J-150000D01*
G01*
X97182732Y-65530960D01*
G75*
G02*
X97032732Y-65680960I-150000J0D01*
G01*
G37*
G36*
G01*
X98302732Y-65680960D02*
X98002732Y-65680960D01*
G75*
G02*
X97852732Y-65530960I0J150000D01*
G01*
X97852732Y-64355960D01*
G75*
G02*
X98002732Y-64205960I150000J0D01*
G01*
X98302732Y-64205960D01*
G75*
G02*
X98452732Y-64355960I0J-150000D01*
G01*
X98452732Y-65530960D01*
G75*
G02*
X98302732Y-65680960I-150000J0D01*
G01*
G37*
G36*
G01*
X99572732Y-65680960D02*
X99272732Y-65680960D01*
G75*
G02*
X99122732Y-65530960I0J150000D01*
G01*
X99122732Y-64355960D01*
G75*
G02*
X99272732Y-64205960I150000J0D01*
G01*
X99572732Y-64205960D01*
G75*
G02*
X99722732Y-64355960I0J-150000D01*
G01*
X99722732Y-65530960D01*
G75*
G02*
X99572732Y-65680960I-150000J0D01*
G01*
G37*
G36*
G01*
X100842732Y-65680960D02*
X100542732Y-65680960D01*
G75*
G02*
X100392732Y-65530960I0J150000D01*
G01*
X100392732Y-64355960D01*
G75*
G02*
X100542732Y-64205960I150000J0D01*
G01*
X100842732Y-64205960D01*
G75*
G02*
X100992732Y-64355960I0J-150000D01*
G01*
X100992732Y-65530960D01*
G75*
G02*
X100842732Y-65680960I-150000J0D01*
G01*
G37*
G36*
G01*
X103037732Y-66995960D02*
X101862732Y-66995960D01*
G75*
G02*
X101712732Y-66845960I0J150000D01*
G01*
X101712732Y-66545960D01*
G75*
G02*
X101862732Y-66395960I150000J0D01*
G01*
X103037732Y-66395960D01*
G75*
G02*
X103187732Y-66545960I0J-150000D01*
G01*
X103187732Y-66845960D01*
G75*
G02*
X103037732Y-66995960I-150000J0D01*
G01*
G37*
G36*
G01*
X103037732Y-68265960D02*
X101862732Y-68265960D01*
G75*
G02*
X101712732Y-68115960I0J150000D01*
G01*
X101712732Y-67815960D01*
G75*
G02*
X101862732Y-67665960I150000J0D01*
G01*
X103037732Y-67665960D01*
G75*
G02*
X103187732Y-67815960I0J-150000D01*
G01*
X103187732Y-68115960D01*
G75*
G02*
X103037732Y-68265960I-150000J0D01*
G01*
G37*
G36*
G01*
X103037732Y-69535960D02*
X101862732Y-69535960D01*
G75*
G02*
X101712732Y-69385960I0J150000D01*
G01*
X101712732Y-69085960D01*
G75*
G02*
X101862732Y-68935960I150000J0D01*
G01*
X103037732Y-68935960D01*
G75*
G02*
X103187732Y-69085960I0J-150000D01*
G01*
X103187732Y-69385960D01*
G75*
G02*
X103037732Y-69535960I-150000J0D01*
G01*
G37*
G36*
G01*
X103037732Y-70805960D02*
X101862732Y-70805960D01*
G75*
G02*
X101712732Y-70655960I0J150000D01*
G01*
X101712732Y-70355960D01*
G75*
G02*
X101862732Y-70205960I150000J0D01*
G01*
X103037732Y-70205960D01*
G75*
G02*
X103187732Y-70355960I0J-150000D01*
G01*
X103187732Y-70655960D01*
G75*
G02*
X103037732Y-70805960I-150000J0D01*
G01*
G37*
G36*
G01*
X103037732Y-72075960D02*
X101862732Y-72075960D01*
G75*
G02*
X101712732Y-71925960I0J150000D01*
G01*
X101712732Y-71625960D01*
G75*
G02*
X101862732Y-71475960I150000J0D01*
G01*
X103037732Y-71475960D01*
G75*
G02*
X103187732Y-71625960I0J-150000D01*
G01*
X103187732Y-71925960D01*
G75*
G02*
X103037732Y-72075960I-150000J0D01*
G01*
G37*
G36*
G01*
X103037732Y-73345960D02*
X101862732Y-73345960D01*
G75*
G02*
X101712732Y-73195960I0J150000D01*
G01*
X101712732Y-72895960D01*
G75*
G02*
X101862732Y-72745960I150000J0D01*
G01*
X103037732Y-72745960D01*
G75*
G02*
X103187732Y-72895960I0J-150000D01*
G01*
X103187732Y-73195960D01*
G75*
G02*
X103037732Y-73345960I-150000J0D01*
G01*
G37*
G36*
G01*
X103037732Y-74615960D02*
X101862732Y-74615960D01*
G75*
G02*
X101712732Y-74465960I0J150000D01*
G01*
X101712732Y-74165960D01*
G75*
G02*
X101862732Y-74015960I150000J0D01*
G01*
X103037732Y-74015960D01*
G75*
G02*
X103187732Y-74165960I0J-150000D01*
G01*
X103187732Y-74465960D01*
G75*
G02*
X103037732Y-74615960I-150000J0D01*
G01*
G37*
G36*
G01*
X100842732Y-76805960D02*
X100542732Y-76805960D01*
G75*
G02*
X100392732Y-76655960I0J150000D01*
G01*
X100392732Y-75480960D01*
G75*
G02*
X100542732Y-75330960I150000J0D01*
G01*
X100842732Y-75330960D01*
G75*
G02*
X100992732Y-75480960I0J-150000D01*
G01*
X100992732Y-76655960D01*
G75*
G02*
X100842732Y-76805960I-150000J0D01*
G01*
G37*
G36*
G01*
X99572732Y-76805960D02*
X99272732Y-76805960D01*
G75*
G02*
X99122732Y-76655960I0J150000D01*
G01*
X99122732Y-75480960D01*
G75*
G02*
X99272732Y-75330960I150000J0D01*
G01*
X99572732Y-75330960D01*
G75*
G02*
X99722732Y-75480960I0J-150000D01*
G01*
X99722732Y-76655960D01*
G75*
G02*
X99572732Y-76805960I-150000J0D01*
G01*
G37*
G36*
G01*
X98302732Y-76805960D02*
X98002732Y-76805960D01*
G75*
G02*
X97852732Y-76655960I0J150000D01*
G01*
X97852732Y-75480960D01*
G75*
G02*
X98002732Y-75330960I150000J0D01*
G01*
X98302732Y-75330960D01*
G75*
G02*
X98452732Y-75480960I0J-150000D01*
G01*
X98452732Y-76655960D01*
G75*
G02*
X98302732Y-76805960I-150000J0D01*
G01*
G37*
G36*
G01*
X97032732Y-76805960D02*
X96732732Y-76805960D01*
G75*
G02*
X96582732Y-76655960I0J150000D01*
G01*
X96582732Y-75480960D01*
G75*
G02*
X96732732Y-75330960I150000J0D01*
G01*
X97032732Y-75330960D01*
G75*
G02*
X97182732Y-75480960I0J-150000D01*
G01*
X97182732Y-76655960D01*
G75*
G02*
X97032732Y-76805960I-150000J0D01*
G01*
G37*
G36*
G01*
X95762732Y-76805960D02*
X95462732Y-76805960D01*
G75*
G02*
X95312732Y-76655960I0J150000D01*
G01*
X95312732Y-75480960D01*
G75*
G02*
X95462732Y-75330960I150000J0D01*
G01*
X95762732Y-75330960D01*
G75*
G02*
X95912732Y-75480960I0J-150000D01*
G01*
X95912732Y-76655960D01*
G75*
G02*
X95762732Y-76805960I-150000J0D01*
G01*
G37*
G36*
G01*
X94492732Y-76805960D02*
X94192732Y-76805960D01*
G75*
G02*
X94042732Y-76655960I0J150000D01*
G01*
X94042732Y-75480960D01*
G75*
G02*
X94192732Y-75330960I150000J0D01*
G01*
X94492732Y-75330960D01*
G75*
G02*
X94642732Y-75480960I0J-150000D01*
G01*
X94642732Y-76655960D01*
G75*
G02*
X94492732Y-76805960I-150000J0D01*
G01*
G37*
G36*
G01*
X93222732Y-76805960D02*
X92922732Y-76805960D01*
G75*
G02*
X92772732Y-76655960I0J150000D01*
G01*
X92772732Y-75480960D01*
G75*
G02*
X92922732Y-75330960I150000J0D01*
G01*
X93222732Y-75330960D01*
G75*
G02*
X93372732Y-75480960I0J-150000D01*
G01*
X93372732Y-76655960D01*
G75*
G02*
X93222732Y-76805960I-150000J0D01*
G01*
G37*
G36*
G01*
X91952732Y-76805960D02*
X91652732Y-76805960D01*
G75*
G02*
X91502732Y-76655960I0J150000D01*
G01*
X91502732Y-75480960D01*
G75*
G02*
X91652732Y-75330960I150000J0D01*
G01*
X91952732Y-75330960D01*
G75*
G02*
X92102732Y-75480960I0J-150000D01*
G01*
X92102732Y-76655960D01*
G75*
G02*
X91952732Y-76805960I-150000J0D01*
G01*
G37*
G36*
G01*
X90682732Y-76805960D02*
X90382732Y-76805960D01*
G75*
G02*
X90232732Y-76655960I0J150000D01*
G01*
X90232732Y-75480960D01*
G75*
G02*
X90382732Y-75330960I150000J0D01*
G01*
X90682732Y-75330960D01*
G75*
G02*
X90832732Y-75480960I0J-150000D01*
G01*
X90832732Y-76655960D01*
G75*
G02*
X90682732Y-76805960I-150000J0D01*
G01*
G37*
G36*
G01*
X89362732Y-74615960D02*
X88187732Y-74615960D01*
G75*
G02*
X88037732Y-74465960I0J150000D01*
G01*
X88037732Y-74165960D01*
G75*
G02*
X88187732Y-74015960I150000J0D01*
G01*
X89362732Y-74015960D01*
G75*
G02*
X89512732Y-74165960I0J-150000D01*
G01*
X89512732Y-74465960D01*
G75*
G02*
X89362732Y-74615960I-150000J0D01*
G01*
G37*
G36*
G01*
X89362732Y-73345960D02*
X88187732Y-73345960D01*
G75*
G02*
X88037732Y-73195960I0J150000D01*
G01*
X88037732Y-72895960D01*
G75*
G02*
X88187732Y-72745960I150000J0D01*
G01*
X89362732Y-72745960D01*
G75*
G02*
X89512732Y-72895960I0J-150000D01*
G01*
X89512732Y-73195960D01*
G75*
G02*
X89362732Y-73345960I-150000J0D01*
G01*
G37*
G36*
G01*
X89362732Y-72075960D02*
X88187732Y-72075960D01*
G75*
G02*
X88037732Y-71925960I0J150000D01*
G01*
X88037732Y-71625960D01*
G75*
G02*
X88187732Y-71475960I150000J0D01*
G01*
X89362732Y-71475960D01*
G75*
G02*
X89512732Y-71625960I0J-150000D01*
G01*
X89512732Y-71925960D01*
G75*
G02*
X89362732Y-72075960I-150000J0D01*
G01*
G37*
G36*
G01*
X89362732Y-70805960D02*
X88187732Y-70805960D01*
G75*
G02*
X88037732Y-70655960I0J150000D01*
G01*
X88037732Y-70355960D01*
G75*
G02*
X88187732Y-70205960I150000J0D01*
G01*
X89362732Y-70205960D01*
G75*
G02*
X89512732Y-70355960I0J-150000D01*
G01*
X89512732Y-70655960D01*
G75*
G02*
X89362732Y-70805960I-150000J0D01*
G01*
G37*
D11*
X110050000Y-50250000D03*
X110550000Y-50250000D03*
X111050000Y-50250000D03*
X111550000Y-50250000D03*
X112050000Y-50250000D03*
X112550000Y-50250000D03*
X113050000Y-50250000D03*
X113550000Y-50250000D03*
X114050000Y-50250000D03*
X114550000Y-50250000D03*
X115050000Y-50250000D03*
X115550000Y-50250000D03*
D12*
X117150000Y-51850000D03*
X117150000Y-52350000D03*
X117150000Y-52850000D03*
X117150000Y-53350000D03*
X117150000Y-53850000D03*
X117150000Y-54350000D03*
X117150000Y-54850000D03*
X117150000Y-55350000D03*
X117150000Y-55850000D03*
X117150000Y-56350000D03*
X117150000Y-56850000D03*
X117150000Y-57350000D03*
D11*
X115550000Y-58950000D03*
X115050000Y-58950000D03*
X114550000Y-58950000D03*
X114050000Y-58950000D03*
X113550000Y-58950000D03*
X113050000Y-58950000D03*
X112550000Y-58950000D03*
X112050000Y-58950000D03*
X111550000Y-58950000D03*
X111050000Y-58950000D03*
X110550000Y-58950000D03*
X110050000Y-58950000D03*
D12*
X108450000Y-57350000D03*
X108450000Y-56850000D03*
X108450000Y-56350000D03*
X108450000Y-55850000D03*
X108450000Y-55350000D03*
X108450000Y-54850000D03*
X108450000Y-54350000D03*
X108450000Y-53850000D03*
X108450000Y-53350000D03*
X108450000Y-52850000D03*
X108450000Y-52350000D03*
X108450000Y-51850000D03*
G36*
G01*
X115843750Y-44850000D02*
X116356250Y-44850000D01*
G75*
G02*
X116575000Y-45068750I0J-218750D01*
G01*
X116575000Y-45506250D01*
G75*
G02*
X116356250Y-45725000I-218750J0D01*
G01*
X115843750Y-45725000D01*
G75*
G02*
X115625000Y-45506250I0J218750D01*
G01*
X115625000Y-45068750D01*
G75*
G02*
X115843750Y-44850000I218750J0D01*
G01*
G37*
G36*
G01*
X115843750Y-43275000D02*
X116356250Y-43275000D01*
G75*
G02*
X116575000Y-43493750I0J-218750D01*
G01*
X116575000Y-43931250D01*
G75*
G02*
X116356250Y-44150000I-218750J0D01*
G01*
X115843750Y-44150000D01*
G75*
G02*
X115625000Y-43931250I0J218750D01*
G01*
X115625000Y-43493750D01*
G75*
G02*
X115843750Y-43275000I218750J0D01*
G01*
G37*
G36*
G01*
X115750000Y-46943750D02*
X115750000Y-47456250D01*
G75*
G02*
X115531250Y-47675000I-218750J0D01*
G01*
X115093750Y-47675000D01*
G75*
G02*
X114875000Y-47456250I0J218750D01*
G01*
X114875000Y-46943750D01*
G75*
G02*
X115093750Y-46725000I218750J0D01*
G01*
X115531250Y-46725000D01*
G75*
G02*
X115750000Y-46943750I0J-218750D01*
G01*
G37*
G36*
G01*
X117325000Y-46943750D02*
X117325000Y-47456250D01*
G75*
G02*
X117106250Y-47675000I-218750J0D01*
G01*
X116668750Y-47675000D01*
G75*
G02*
X116450000Y-47456250I0J218750D01*
G01*
X116450000Y-46943750D01*
G75*
G02*
X116668750Y-46725000I218750J0D01*
G01*
X117106250Y-46725000D01*
G75*
G02*
X117325000Y-46943750I0J-218750D01*
G01*
G37*
G36*
G01*
X105156250Y-44150000D02*
X104643750Y-44150000D01*
G75*
G02*
X104425000Y-43931250I0J218750D01*
G01*
X104425000Y-43493750D01*
G75*
G02*
X104643750Y-43275000I218750J0D01*
G01*
X105156250Y-43275000D01*
G75*
G02*
X105375000Y-43493750I0J-218750D01*
G01*
X105375000Y-43931250D01*
G75*
G02*
X105156250Y-44150000I-218750J0D01*
G01*
G37*
G36*
G01*
X105156250Y-45725000D02*
X104643750Y-45725000D01*
G75*
G02*
X104425000Y-45506250I0J218750D01*
G01*
X104425000Y-45068750D01*
G75*
G02*
X104643750Y-44850000I218750J0D01*
G01*
X105156250Y-44850000D01*
G75*
G02*
X105375000Y-45068750I0J-218750D01*
G01*
X105375000Y-45506250D01*
G75*
G02*
X105156250Y-45725000I-218750J0D01*
G01*
G37*
G36*
G01*
X78643750Y-61250000D02*
X79156250Y-61250000D01*
G75*
G02*
X79375000Y-61468750I0J-218750D01*
G01*
X79375000Y-61906250D01*
G75*
G02*
X79156250Y-62125000I-218750J0D01*
G01*
X78643750Y-62125000D01*
G75*
G02*
X78425000Y-61906250I0J218750D01*
G01*
X78425000Y-61468750D01*
G75*
G02*
X78643750Y-61250000I218750J0D01*
G01*
G37*
G36*
G01*
X78643750Y-59675000D02*
X79156250Y-59675000D01*
G75*
G02*
X79375000Y-59893750I0J-218750D01*
G01*
X79375000Y-60331250D01*
G75*
G02*
X79156250Y-60550000I-218750J0D01*
G01*
X78643750Y-60550000D01*
G75*
G02*
X78425000Y-60331250I0J218750D01*
G01*
X78425000Y-59893750D01*
G75*
G02*
X78643750Y-59675000I218750J0D01*
G01*
G37*
M02*
