G04 #@! TF.GenerationSoftware,KiCad,Pcbnew,5.1.6-c6e7f7d~86~ubuntu20.04.1*
G04 #@! TF.CreationDate,2020-05-17T15:57:30+03:00*
G04 #@! TF.ProjectId,GB-CART256K-A,47422d43-4152-4543-9235-364b2d412e6b,v1.2*
G04 #@! TF.SameCoordinates,Original*
G04 #@! TF.FileFunction,Copper,L1,Top*
G04 #@! TF.FilePolarity,Positive*
%FSLAX46Y46*%
G04 Gerber Fmt 4.6, Leading zero omitted, Abs format (unit mm)*
G04 Created by KiCad (PCBNEW 5.1.6-c6e7f7d~86~ubuntu20.04.1) date 2020-05-17 15:57:30*
%MOMM*%
%LPD*%
G01*
G04 APERTURE LIST*
G04 #@! TA.AperFunction,Profile*
%ADD10C,0.150000*%
G04 #@! TD*
G04 #@! TA.AperFunction,ConnectorPad*
%ADD11C,0.787400*%
G04 #@! TD*
G04 #@! TA.AperFunction,ConnectorPad*
%ADD12R,1.000000X5.500000*%
G04 #@! TD*
G04 #@! TA.AperFunction,ConnectorPad*
%ADD13R,1.300000X6.000000*%
G04 #@! TD*
G04 #@! TA.AperFunction,SMDPad,CuDef*
%ADD14C,0.100000*%
G04 #@! TD*
G04 #@! TA.AperFunction,SMDPad,CuDef*
%ADD15R,1.260000X0.500000*%
G04 #@! TD*
G04 #@! TA.AperFunction,SMDPad,CuDef*
%ADD16R,0.250000X1.300000*%
G04 #@! TD*
G04 #@! TA.AperFunction,SMDPad,CuDef*
%ADD17R,1.300000X0.250000*%
G04 #@! TD*
G04 #@! TA.AperFunction,ComponentPad*
%ADD18C,2.000000*%
G04 #@! TD*
G04 #@! TA.AperFunction,ViaPad*
%ADD19C,0.600000*%
G04 #@! TD*
G04 #@! TA.AperFunction,Conductor*
%ADD20C,0.200000*%
G04 #@! TD*
G04 #@! TA.AperFunction,Conductor*
%ADD21C,0.320000*%
G04 #@! TD*
G04 #@! TA.AperFunction,Conductor*
%ADD22C,1.000000*%
G04 #@! TD*
G04 APERTURE END LIST*
D10*
X74800000Y-91400000D02*
G75*
G02*
X74300000Y-90900000I0J500000D01*
G01*
X74300000Y-39500000D02*
G75*
G02*
X74800000Y-39000000I500000J0D01*
G01*
X121200000Y-39000000D02*
G75*
G02*
X121700000Y-39500000I0J-500000D01*
G01*
X125200000Y-41600000D02*
G75*
G02*
X125700000Y-42100000I0J-500000D01*
G01*
X125700000Y-90900000D02*
G75*
G02*
X125200000Y-91400000I-500000J0D01*
G01*
X76300000Y-100000000D02*
G75*
G02*
X75400000Y-99100000I0J900000D01*
G01*
X124600000Y-99100000D02*
G75*
G02*
X123700000Y-100000000I-900000J0D01*
G01*
X121700000Y-39500000D02*
X121700000Y-41600000D01*
X74800000Y-39000000D02*
X121200000Y-39000000D01*
X125200000Y-41600000D02*
X121700000Y-41600000D01*
X74300000Y-90900000D02*
X74300000Y-39500000D01*
X75400000Y-91400000D02*
X74800000Y-91400000D01*
X75400000Y-99100000D02*
X75400000Y-91400000D01*
X125700000Y-90900000D02*
X125700000Y-42100000D01*
X124600000Y-91400000D02*
X125200000Y-91400000D01*
X124600000Y-99100000D02*
X124600000Y-91400000D01*
X76300000Y-100000000D02*
X123700000Y-100000000D01*
D11*
X107960000Y-43365000D03*
X109230000Y-43365000D03*
X110500000Y-43365000D03*
X111770000Y-43365000D03*
X113040000Y-43365000D03*
X113040000Y-44635000D03*
X111770000Y-44635000D03*
X110500000Y-44635000D03*
X109230000Y-44635000D03*
X107960000Y-44635000D03*
G04 #@! TA.AperFunction,SMDPad,CuDef*
G36*
G01*
X85812732Y-68949710D02*
X85812732Y-69462210D01*
G75*
G02*
X85593982Y-69680960I-218750J0D01*
G01*
X85156482Y-69680960D01*
G75*
G02*
X84937732Y-69462210I0J218750D01*
G01*
X84937732Y-68949710D01*
G75*
G02*
X85156482Y-68730960I218750J0D01*
G01*
X85593982Y-68730960D01*
G75*
G02*
X85812732Y-68949710I0J-218750D01*
G01*
G37*
G04 #@! TD.AperFunction*
G04 #@! TA.AperFunction,SMDPad,CuDef*
G36*
G01*
X87387732Y-68949710D02*
X87387732Y-69462210D01*
G75*
G02*
X87168982Y-69680960I-218750J0D01*
G01*
X86731482Y-69680960D01*
G75*
G02*
X86512732Y-69462210I0J218750D01*
G01*
X86512732Y-68949710D01*
G75*
G02*
X86731482Y-68730960I218750J0D01*
G01*
X87168982Y-68730960D01*
G75*
G02*
X87387732Y-68949710I0J-218750D01*
G01*
G37*
G04 #@! TD.AperFunction*
G04 #@! TA.AperFunction,SMDPad,CuDef*
G36*
G01*
X118643750Y-55450000D02*
X119156250Y-55450000D01*
G75*
G02*
X119375000Y-55668750I0J-218750D01*
G01*
X119375000Y-56106250D01*
G75*
G02*
X119156250Y-56325000I-218750J0D01*
G01*
X118643750Y-56325000D01*
G75*
G02*
X118425000Y-56106250I0J218750D01*
G01*
X118425000Y-55668750D01*
G75*
G02*
X118643750Y-55450000I218750J0D01*
G01*
G37*
G04 #@! TD.AperFunction*
G04 #@! TA.AperFunction,SMDPad,CuDef*
G36*
G01*
X118643750Y-53875000D02*
X119156250Y-53875000D01*
G75*
G02*
X119375000Y-54093750I0J-218750D01*
G01*
X119375000Y-54531250D01*
G75*
G02*
X119156250Y-54750000I-218750J0D01*
G01*
X118643750Y-54750000D01*
G75*
G02*
X118425000Y-54531250I0J218750D01*
G01*
X118425000Y-54093750D01*
G75*
G02*
X118643750Y-53875000I218750J0D01*
G01*
G37*
G04 #@! TD.AperFunction*
G04 #@! TA.AperFunction,SMDPad,CuDef*
G36*
G01*
X106956250Y-53750000D02*
X106443750Y-53750000D01*
G75*
G02*
X106225000Y-53531250I0J218750D01*
G01*
X106225000Y-53093750D01*
G75*
G02*
X106443750Y-52875000I218750J0D01*
G01*
X106956250Y-52875000D01*
G75*
G02*
X107175000Y-53093750I0J-218750D01*
G01*
X107175000Y-53531250D01*
G75*
G02*
X106956250Y-53750000I-218750J0D01*
G01*
G37*
G04 #@! TD.AperFunction*
G04 #@! TA.AperFunction,SMDPad,CuDef*
G36*
G01*
X106956250Y-55325000D02*
X106443750Y-55325000D01*
G75*
G02*
X106225000Y-55106250I0J218750D01*
G01*
X106225000Y-54668750D01*
G75*
G02*
X106443750Y-54450000I218750J0D01*
G01*
X106956250Y-54450000D01*
G75*
G02*
X107175000Y-54668750I0J-218750D01*
G01*
X107175000Y-55106250D01*
G75*
G02*
X106956250Y-55325000I-218750J0D01*
G01*
G37*
G04 #@! TD.AperFunction*
G04 #@! TA.AperFunction,SMDPad,CuDef*
G36*
G01*
X106443750Y-58750000D02*
X106956250Y-58750000D01*
G75*
G02*
X107175000Y-58968750I0J-218750D01*
G01*
X107175000Y-59406250D01*
G75*
G02*
X106956250Y-59625000I-218750J0D01*
G01*
X106443750Y-59625000D01*
G75*
G02*
X106225000Y-59406250I0J218750D01*
G01*
X106225000Y-58968750D01*
G75*
G02*
X106443750Y-58750000I218750J0D01*
G01*
G37*
G04 #@! TD.AperFunction*
G04 #@! TA.AperFunction,SMDPad,CuDef*
G36*
G01*
X106443750Y-57175000D02*
X106956250Y-57175000D01*
G75*
G02*
X107175000Y-57393750I0J-218750D01*
G01*
X107175000Y-57831250D01*
G75*
G02*
X106956250Y-58050000I-218750J0D01*
G01*
X106443750Y-58050000D01*
G75*
G02*
X106225000Y-57831250I0J218750D01*
G01*
X106225000Y-57393750D01*
G75*
G02*
X106443750Y-57175000I218750J0D01*
G01*
G37*
G04 #@! TD.AperFunction*
G04 #@! TA.AperFunction,SMDPad,CuDef*
G36*
G01*
X119156250Y-50450000D02*
X118643750Y-50450000D01*
G75*
G02*
X118425000Y-50231250I0J218750D01*
G01*
X118425000Y-49793750D01*
G75*
G02*
X118643750Y-49575000I218750J0D01*
G01*
X119156250Y-49575000D01*
G75*
G02*
X119375000Y-49793750I0J-218750D01*
G01*
X119375000Y-50231250D01*
G75*
G02*
X119156250Y-50450000I-218750J0D01*
G01*
G37*
G04 #@! TD.AperFunction*
G04 #@! TA.AperFunction,SMDPad,CuDef*
G36*
G01*
X119156250Y-52025000D02*
X118643750Y-52025000D01*
G75*
G02*
X118425000Y-51806250I0J218750D01*
G01*
X118425000Y-51368750D01*
G75*
G02*
X118643750Y-51150000I218750J0D01*
G01*
X119156250Y-51150000D01*
G75*
G02*
X119375000Y-51368750I0J-218750D01*
G01*
X119375000Y-51806250D01*
G75*
G02*
X119156250Y-52025000I-218750J0D01*
G01*
G37*
G04 #@! TD.AperFunction*
G04 #@! TA.AperFunction,SMDPad,CuDef*
G36*
G01*
X78856250Y-46650000D02*
X77943750Y-46650000D01*
G75*
G02*
X77700000Y-46406250I0J243750D01*
G01*
X77700000Y-45918750D01*
G75*
G02*
X77943750Y-45675000I243750J0D01*
G01*
X78856250Y-45675000D01*
G75*
G02*
X79100000Y-45918750I0J-243750D01*
G01*
X79100000Y-46406250D01*
G75*
G02*
X78856250Y-46650000I-243750J0D01*
G01*
G37*
G04 #@! TD.AperFunction*
G04 #@! TA.AperFunction,SMDPad,CuDef*
G36*
G01*
X78856250Y-48525000D02*
X77943750Y-48525000D01*
G75*
G02*
X77700000Y-48281250I0J243750D01*
G01*
X77700000Y-47793750D01*
G75*
G02*
X77943750Y-47550000I243750J0D01*
G01*
X78856250Y-47550000D01*
G75*
G02*
X79100000Y-47793750I0J-243750D01*
G01*
X79100000Y-48281250D01*
G75*
G02*
X78856250Y-48525000I-243750J0D01*
G01*
G37*
G04 #@! TD.AperFunction*
G04 #@! TA.AperFunction,SMDPad,CuDef*
G36*
G01*
X76756250Y-46650000D02*
X75843750Y-46650000D01*
G75*
G02*
X75600000Y-46406250I0J243750D01*
G01*
X75600000Y-45918750D01*
G75*
G02*
X75843750Y-45675000I243750J0D01*
G01*
X76756250Y-45675000D01*
G75*
G02*
X77000000Y-45918750I0J-243750D01*
G01*
X77000000Y-46406250D01*
G75*
G02*
X76756250Y-46650000I-243750J0D01*
G01*
G37*
G04 #@! TD.AperFunction*
G04 #@! TA.AperFunction,SMDPad,CuDef*
G36*
G01*
X76756250Y-48525000D02*
X75843750Y-48525000D01*
G75*
G02*
X75600000Y-48281250I0J243750D01*
G01*
X75600000Y-47793750D01*
G75*
G02*
X75843750Y-47550000I243750J0D01*
G01*
X76756250Y-47550000D01*
G75*
G02*
X77000000Y-47793750I0J-243750D01*
G01*
X77000000Y-48281250D01*
G75*
G02*
X76756250Y-48525000I-243750J0D01*
G01*
G37*
G04 #@! TD.AperFunction*
G04 #@! TA.AperFunction,SMDPad,CuDef*
G36*
G01*
X121143750Y-55550000D02*
X122056250Y-55550000D01*
G75*
G02*
X122300000Y-55793750I0J-243750D01*
G01*
X122300000Y-56281250D01*
G75*
G02*
X122056250Y-56525000I-243750J0D01*
G01*
X121143750Y-56525000D01*
G75*
G02*
X120900000Y-56281250I0J243750D01*
G01*
X120900000Y-55793750D01*
G75*
G02*
X121143750Y-55550000I243750J0D01*
G01*
G37*
G04 #@! TD.AperFunction*
G04 #@! TA.AperFunction,SMDPad,CuDef*
G36*
G01*
X121143750Y-53675000D02*
X122056250Y-53675000D01*
G75*
G02*
X122300000Y-53918750I0J-243750D01*
G01*
X122300000Y-54406250D01*
G75*
G02*
X122056250Y-54650000I-243750J0D01*
G01*
X121143750Y-54650000D01*
G75*
G02*
X120900000Y-54406250I0J243750D01*
G01*
X120900000Y-53918750D01*
G75*
G02*
X121143750Y-53675000I243750J0D01*
G01*
G37*
G04 #@! TD.AperFunction*
G04 #@! TA.AperFunction,SMDPad,CuDef*
G36*
G01*
X122056250Y-50150000D02*
X121143750Y-50150000D01*
G75*
G02*
X120900000Y-49906250I0J243750D01*
G01*
X120900000Y-49418750D01*
G75*
G02*
X121143750Y-49175000I243750J0D01*
G01*
X122056250Y-49175000D01*
G75*
G02*
X122300000Y-49418750I0J-243750D01*
G01*
X122300000Y-49906250D01*
G75*
G02*
X122056250Y-50150000I-243750J0D01*
G01*
G37*
G04 #@! TD.AperFunction*
G04 #@! TA.AperFunction,SMDPad,CuDef*
G36*
G01*
X122056250Y-52025000D02*
X121143750Y-52025000D01*
G75*
G02*
X120900000Y-51781250I0J243750D01*
G01*
X120900000Y-51293750D01*
G75*
G02*
X121143750Y-51050000I243750J0D01*
G01*
X122056250Y-51050000D01*
G75*
G02*
X122300000Y-51293750I0J-243750D01*
G01*
X122300000Y-51781250D01*
G75*
G02*
X122056250Y-52025000I-243750J0D01*
G01*
G37*
G04 #@! TD.AperFunction*
G04 #@! TA.AperFunction,SMDPad,CuDef*
G36*
G01*
X78050000Y-56606250D02*
X78050000Y-55693750D01*
G75*
G02*
X78293750Y-55450000I243750J0D01*
G01*
X78781250Y-55450000D01*
G75*
G02*
X79025000Y-55693750I0J-243750D01*
G01*
X79025000Y-56606250D01*
G75*
G02*
X78781250Y-56850000I-243750J0D01*
G01*
X78293750Y-56850000D01*
G75*
G02*
X78050000Y-56606250I0J243750D01*
G01*
G37*
G04 #@! TD.AperFunction*
G04 #@! TA.AperFunction,SMDPad,CuDef*
G36*
G01*
X76175000Y-56606250D02*
X76175000Y-55693750D01*
G75*
G02*
X76418750Y-55450000I243750J0D01*
G01*
X76906250Y-55450000D01*
G75*
G02*
X77150000Y-55693750I0J-243750D01*
G01*
X77150000Y-56606250D01*
G75*
G02*
X76906250Y-56850000I-243750J0D01*
G01*
X76418750Y-56850000D01*
G75*
G02*
X76175000Y-56606250I0J243750D01*
G01*
G37*
G04 #@! TD.AperFunction*
D12*
X78250000Y-95750000D03*
D13*
X76600000Y-96000000D03*
D12*
X79750000Y-95750000D03*
X81250000Y-95750000D03*
X82750000Y-95750000D03*
X84250000Y-95750000D03*
X85750000Y-95750000D03*
X87250000Y-95750000D03*
X88750000Y-95750000D03*
X90250000Y-95750000D03*
X91750000Y-95750000D03*
X93250000Y-95750000D03*
X94750000Y-95750000D03*
X96250000Y-95750000D03*
X97750000Y-95750000D03*
X99250000Y-95750000D03*
X100750000Y-95750000D03*
X102250000Y-95750000D03*
X103750000Y-95750000D03*
X105250000Y-95750000D03*
X106750000Y-95750000D03*
X108250000Y-95750000D03*
X109750000Y-95750000D03*
X111250000Y-95750000D03*
X112750000Y-95750000D03*
X114250000Y-95750000D03*
X115750000Y-95750000D03*
X117250000Y-95750000D03*
X118750000Y-95750000D03*
X120250000Y-95750000D03*
X121750000Y-95750000D03*
D13*
X123400000Y-96000000D03*
G04 #@! TA.AperFunction,SMDPad,CuDef*
D14*
G36*
X82849398Y-60050000D02*
G01*
X82849398Y-60074534D01*
X82844588Y-60123365D01*
X82835016Y-60171490D01*
X82820772Y-60218445D01*
X82801995Y-60263778D01*
X82778864Y-60307051D01*
X82751604Y-60347850D01*
X82720476Y-60385779D01*
X82685779Y-60420476D01*
X82647850Y-60451604D01*
X82607051Y-60478864D01*
X82563778Y-60501995D01*
X82518445Y-60520772D01*
X82471490Y-60535016D01*
X82423365Y-60544588D01*
X82374534Y-60549398D01*
X82350000Y-60549398D01*
X82350000Y-60550000D01*
X81850000Y-60550000D01*
X81850000Y-60549398D01*
X81825466Y-60549398D01*
X81776635Y-60544588D01*
X81728510Y-60535016D01*
X81681555Y-60520772D01*
X81636222Y-60501995D01*
X81592949Y-60478864D01*
X81552150Y-60451604D01*
X81514221Y-60420476D01*
X81479524Y-60385779D01*
X81448396Y-60347850D01*
X81421136Y-60307051D01*
X81398005Y-60263778D01*
X81379228Y-60218445D01*
X81364984Y-60171490D01*
X81355412Y-60123365D01*
X81350602Y-60074534D01*
X81350602Y-60050000D01*
X81350000Y-60050000D01*
X81350000Y-59550000D01*
X82850000Y-59550000D01*
X82850000Y-60050000D01*
X82849398Y-60050000D01*
G37*
G04 #@! TD.AperFunction*
G04 #@! TA.AperFunction,SMDPad,CuDef*
G36*
X81350000Y-59250000D02*
G01*
X81350000Y-58750000D01*
X81350602Y-58750000D01*
X81350602Y-58725466D01*
X81355412Y-58676635D01*
X81364984Y-58628510D01*
X81379228Y-58581555D01*
X81398005Y-58536222D01*
X81421136Y-58492949D01*
X81448396Y-58452150D01*
X81479524Y-58414221D01*
X81514221Y-58379524D01*
X81552150Y-58348396D01*
X81592949Y-58321136D01*
X81636222Y-58298005D01*
X81681555Y-58279228D01*
X81728510Y-58264984D01*
X81776635Y-58255412D01*
X81825466Y-58250602D01*
X81850000Y-58250602D01*
X81850000Y-58250000D01*
X82350000Y-58250000D01*
X82350000Y-58250602D01*
X82374534Y-58250602D01*
X82423365Y-58255412D01*
X82471490Y-58264984D01*
X82518445Y-58279228D01*
X82563778Y-58298005D01*
X82607051Y-58321136D01*
X82647850Y-58348396D01*
X82685779Y-58379524D01*
X82720476Y-58414221D01*
X82751604Y-58452150D01*
X82778864Y-58492949D01*
X82801995Y-58536222D01*
X82820772Y-58581555D01*
X82835016Y-58628510D01*
X82844588Y-58676635D01*
X82849398Y-58725466D01*
X82849398Y-58750000D01*
X82850000Y-58750000D01*
X82850000Y-59250000D01*
X81350000Y-59250000D01*
G37*
G04 #@! TD.AperFunction*
G04 #@! TA.AperFunction,SMDPad,CuDef*
G36*
X85449398Y-60050000D02*
G01*
X85449398Y-60074534D01*
X85444588Y-60123365D01*
X85435016Y-60171490D01*
X85420772Y-60218445D01*
X85401995Y-60263778D01*
X85378864Y-60307051D01*
X85351604Y-60347850D01*
X85320476Y-60385779D01*
X85285779Y-60420476D01*
X85247850Y-60451604D01*
X85207051Y-60478864D01*
X85163778Y-60501995D01*
X85118445Y-60520772D01*
X85071490Y-60535016D01*
X85023365Y-60544588D01*
X84974534Y-60549398D01*
X84950000Y-60549398D01*
X84950000Y-60550000D01*
X84450000Y-60550000D01*
X84450000Y-60549398D01*
X84425466Y-60549398D01*
X84376635Y-60544588D01*
X84328510Y-60535016D01*
X84281555Y-60520772D01*
X84236222Y-60501995D01*
X84192949Y-60478864D01*
X84152150Y-60451604D01*
X84114221Y-60420476D01*
X84079524Y-60385779D01*
X84048396Y-60347850D01*
X84021136Y-60307051D01*
X83998005Y-60263778D01*
X83979228Y-60218445D01*
X83964984Y-60171490D01*
X83955412Y-60123365D01*
X83950602Y-60074534D01*
X83950602Y-60050000D01*
X83950000Y-60050000D01*
X83950000Y-59550000D01*
X85450000Y-59550000D01*
X85450000Y-60050000D01*
X85449398Y-60050000D01*
G37*
G04 #@! TD.AperFunction*
G04 #@! TA.AperFunction,SMDPad,CuDef*
G36*
X83950000Y-59250000D02*
G01*
X83950000Y-58750000D01*
X83950602Y-58750000D01*
X83950602Y-58725466D01*
X83955412Y-58676635D01*
X83964984Y-58628510D01*
X83979228Y-58581555D01*
X83998005Y-58536222D01*
X84021136Y-58492949D01*
X84048396Y-58452150D01*
X84079524Y-58414221D01*
X84114221Y-58379524D01*
X84152150Y-58348396D01*
X84192949Y-58321136D01*
X84236222Y-58298005D01*
X84281555Y-58279228D01*
X84328510Y-58264984D01*
X84376635Y-58255412D01*
X84425466Y-58250602D01*
X84450000Y-58250602D01*
X84450000Y-58250000D01*
X84950000Y-58250000D01*
X84950000Y-58250602D01*
X84974534Y-58250602D01*
X85023365Y-58255412D01*
X85071490Y-58264984D01*
X85118445Y-58279228D01*
X85163778Y-58298005D01*
X85207051Y-58321136D01*
X85247850Y-58348396D01*
X85285779Y-58379524D01*
X85320476Y-58414221D01*
X85351604Y-58452150D01*
X85378864Y-58492949D01*
X85401995Y-58536222D01*
X85420772Y-58581555D01*
X85435016Y-58628510D01*
X85444588Y-58676635D01*
X85449398Y-58725466D01*
X85449398Y-58750000D01*
X85450000Y-58750000D01*
X85450000Y-59250000D01*
X83950000Y-59250000D01*
G37*
G04 #@! TD.AperFunction*
D15*
X77150000Y-52200000D03*
G04 #@! TA.AperFunction,SMDPad,CuDef*
G36*
G01*
X76712500Y-51750000D02*
X76587500Y-51750000D01*
G75*
G02*
X76525000Y-51687500I0J62500D01*
G01*
X76525000Y-51112500D01*
G75*
G02*
X76587500Y-51050000I62500J0D01*
G01*
X76712500Y-51050000D01*
G75*
G02*
X76775000Y-51112500I0J-62500D01*
G01*
X76775000Y-51687500D01*
G75*
G02*
X76712500Y-51750000I-62500J0D01*
G01*
G37*
G04 #@! TD.AperFunction*
G04 #@! TA.AperFunction,SMDPad,CuDef*
G36*
G01*
X77212500Y-51750000D02*
X77087500Y-51750000D01*
G75*
G02*
X77025000Y-51687500I0J62500D01*
G01*
X77025000Y-51112500D01*
G75*
G02*
X77087500Y-51050000I62500J0D01*
G01*
X77212500Y-51050000D01*
G75*
G02*
X77275000Y-51112500I0J-62500D01*
G01*
X77275000Y-51687500D01*
G75*
G02*
X77212500Y-51750000I-62500J0D01*
G01*
G37*
G04 #@! TD.AperFunction*
G04 #@! TA.AperFunction,SMDPad,CuDef*
G36*
G01*
X77712500Y-51750000D02*
X77587500Y-51750000D01*
G75*
G02*
X77525000Y-51687500I0J62500D01*
G01*
X77525000Y-51112500D01*
G75*
G02*
X77587500Y-51050000I62500J0D01*
G01*
X77712500Y-51050000D01*
G75*
G02*
X77775000Y-51112500I0J-62500D01*
G01*
X77775000Y-51687500D01*
G75*
G02*
X77712500Y-51750000I-62500J0D01*
G01*
G37*
G04 #@! TD.AperFunction*
G04 #@! TA.AperFunction,SMDPad,CuDef*
G36*
G01*
X77712500Y-53350000D02*
X77587500Y-53350000D01*
G75*
G02*
X77525000Y-53287500I0J62500D01*
G01*
X77525000Y-52712500D01*
G75*
G02*
X77587500Y-52650000I62500J0D01*
G01*
X77712500Y-52650000D01*
G75*
G02*
X77775000Y-52712500I0J-62500D01*
G01*
X77775000Y-53287500D01*
G75*
G02*
X77712500Y-53350000I-62500J0D01*
G01*
G37*
G04 #@! TD.AperFunction*
G04 #@! TA.AperFunction,SMDPad,CuDef*
G36*
G01*
X77212500Y-53350000D02*
X77087500Y-53350000D01*
G75*
G02*
X77025000Y-53287500I0J62500D01*
G01*
X77025000Y-52712500D01*
G75*
G02*
X77087500Y-52650000I62500J0D01*
G01*
X77212500Y-52650000D01*
G75*
G02*
X77275000Y-52712500I0J-62500D01*
G01*
X77275000Y-53287500D01*
G75*
G02*
X77212500Y-53350000I-62500J0D01*
G01*
G37*
G04 #@! TD.AperFunction*
G04 #@! TA.AperFunction,SMDPad,CuDef*
G36*
G01*
X76712500Y-53350000D02*
X76587500Y-53350000D01*
G75*
G02*
X76525000Y-53287500I0J62500D01*
G01*
X76525000Y-52712500D01*
G75*
G02*
X76587500Y-52650000I62500J0D01*
G01*
X76712500Y-52650000D01*
G75*
G02*
X76775000Y-52712500I0J-62500D01*
G01*
X76775000Y-53287500D01*
G75*
G02*
X76712500Y-53350000I-62500J0D01*
G01*
G37*
G04 #@! TD.AperFunction*
G04 #@! TA.AperFunction,SMDPad,CuDef*
G36*
G01*
X89362732Y-69535960D02*
X88187732Y-69535960D01*
G75*
G02*
X88037732Y-69385960I0J150000D01*
G01*
X88037732Y-69085960D01*
G75*
G02*
X88187732Y-68935960I150000J0D01*
G01*
X89362732Y-68935960D01*
G75*
G02*
X89512732Y-69085960I0J-150000D01*
G01*
X89512732Y-69385960D01*
G75*
G02*
X89362732Y-69535960I-150000J0D01*
G01*
G37*
G04 #@! TD.AperFunction*
G04 #@! TA.AperFunction,SMDPad,CuDef*
G36*
G01*
X89362732Y-68265960D02*
X88187732Y-68265960D01*
G75*
G02*
X88037732Y-68115960I0J150000D01*
G01*
X88037732Y-67815960D01*
G75*
G02*
X88187732Y-67665960I150000J0D01*
G01*
X89362732Y-67665960D01*
G75*
G02*
X89512732Y-67815960I0J-150000D01*
G01*
X89512732Y-68115960D01*
G75*
G02*
X89362732Y-68265960I-150000J0D01*
G01*
G37*
G04 #@! TD.AperFunction*
G04 #@! TA.AperFunction,SMDPad,CuDef*
G36*
G01*
X89362732Y-66995960D02*
X88187732Y-66995960D01*
G75*
G02*
X88037732Y-66845960I0J150000D01*
G01*
X88037732Y-66545960D01*
G75*
G02*
X88187732Y-66395960I150000J0D01*
G01*
X89362732Y-66395960D01*
G75*
G02*
X89512732Y-66545960I0J-150000D01*
G01*
X89512732Y-66845960D01*
G75*
G02*
X89362732Y-66995960I-150000J0D01*
G01*
G37*
G04 #@! TD.AperFunction*
G04 #@! TA.AperFunction,SMDPad,CuDef*
G36*
G01*
X90682732Y-65680960D02*
X90382732Y-65680960D01*
G75*
G02*
X90232732Y-65530960I0J150000D01*
G01*
X90232732Y-64355960D01*
G75*
G02*
X90382732Y-64205960I150000J0D01*
G01*
X90682732Y-64205960D01*
G75*
G02*
X90832732Y-64355960I0J-150000D01*
G01*
X90832732Y-65530960D01*
G75*
G02*
X90682732Y-65680960I-150000J0D01*
G01*
G37*
G04 #@! TD.AperFunction*
G04 #@! TA.AperFunction,SMDPad,CuDef*
G36*
G01*
X91952732Y-65680960D02*
X91652732Y-65680960D01*
G75*
G02*
X91502732Y-65530960I0J150000D01*
G01*
X91502732Y-64355960D01*
G75*
G02*
X91652732Y-64205960I150000J0D01*
G01*
X91952732Y-64205960D01*
G75*
G02*
X92102732Y-64355960I0J-150000D01*
G01*
X92102732Y-65530960D01*
G75*
G02*
X91952732Y-65680960I-150000J0D01*
G01*
G37*
G04 #@! TD.AperFunction*
G04 #@! TA.AperFunction,SMDPad,CuDef*
G36*
G01*
X93222732Y-65680960D02*
X92922732Y-65680960D01*
G75*
G02*
X92772732Y-65530960I0J150000D01*
G01*
X92772732Y-64355960D01*
G75*
G02*
X92922732Y-64205960I150000J0D01*
G01*
X93222732Y-64205960D01*
G75*
G02*
X93372732Y-64355960I0J-150000D01*
G01*
X93372732Y-65530960D01*
G75*
G02*
X93222732Y-65680960I-150000J0D01*
G01*
G37*
G04 #@! TD.AperFunction*
G04 #@! TA.AperFunction,SMDPad,CuDef*
G36*
G01*
X94492732Y-65680960D02*
X94192732Y-65680960D01*
G75*
G02*
X94042732Y-65530960I0J150000D01*
G01*
X94042732Y-64355960D01*
G75*
G02*
X94192732Y-64205960I150000J0D01*
G01*
X94492732Y-64205960D01*
G75*
G02*
X94642732Y-64355960I0J-150000D01*
G01*
X94642732Y-65530960D01*
G75*
G02*
X94492732Y-65680960I-150000J0D01*
G01*
G37*
G04 #@! TD.AperFunction*
G04 #@! TA.AperFunction,SMDPad,CuDef*
G36*
G01*
X95762732Y-65680960D02*
X95462732Y-65680960D01*
G75*
G02*
X95312732Y-65530960I0J150000D01*
G01*
X95312732Y-64355960D01*
G75*
G02*
X95462732Y-64205960I150000J0D01*
G01*
X95762732Y-64205960D01*
G75*
G02*
X95912732Y-64355960I0J-150000D01*
G01*
X95912732Y-65530960D01*
G75*
G02*
X95762732Y-65680960I-150000J0D01*
G01*
G37*
G04 #@! TD.AperFunction*
G04 #@! TA.AperFunction,SMDPad,CuDef*
G36*
G01*
X97032732Y-65680960D02*
X96732732Y-65680960D01*
G75*
G02*
X96582732Y-65530960I0J150000D01*
G01*
X96582732Y-64355960D01*
G75*
G02*
X96732732Y-64205960I150000J0D01*
G01*
X97032732Y-64205960D01*
G75*
G02*
X97182732Y-64355960I0J-150000D01*
G01*
X97182732Y-65530960D01*
G75*
G02*
X97032732Y-65680960I-150000J0D01*
G01*
G37*
G04 #@! TD.AperFunction*
G04 #@! TA.AperFunction,SMDPad,CuDef*
G36*
G01*
X98302732Y-65680960D02*
X98002732Y-65680960D01*
G75*
G02*
X97852732Y-65530960I0J150000D01*
G01*
X97852732Y-64355960D01*
G75*
G02*
X98002732Y-64205960I150000J0D01*
G01*
X98302732Y-64205960D01*
G75*
G02*
X98452732Y-64355960I0J-150000D01*
G01*
X98452732Y-65530960D01*
G75*
G02*
X98302732Y-65680960I-150000J0D01*
G01*
G37*
G04 #@! TD.AperFunction*
G04 #@! TA.AperFunction,SMDPad,CuDef*
G36*
G01*
X99572732Y-65680960D02*
X99272732Y-65680960D01*
G75*
G02*
X99122732Y-65530960I0J150000D01*
G01*
X99122732Y-64355960D01*
G75*
G02*
X99272732Y-64205960I150000J0D01*
G01*
X99572732Y-64205960D01*
G75*
G02*
X99722732Y-64355960I0J-150000D01*
G01*
X99722732Y-65530960D01*
G75*
G02*
X99572732Y-65680960I-150000J0D01*
G01*
G37*
G04 #@! TD.AperFunction*
G04 #@! TA.AperFunction,SMDPad,CuDef*
G36*
G01*
X100842732Y-65680960D02*
X100542732Y-65680960D01*
G75*
G02*
X100392732Y-65530960I0J150000D01*
G01*
X100392732Y-64355960D01*
G75*
G02*
X100542732Y-64205960I150000J0D01*
G01*
X100842732Y-64205960D01*
G75*
G02*
X100992732Y-64355960I0J-150000D01*
G01*
X100992732Y-65530960D01*
G75*
G02*
X100842732Y-65680960I-150000J0D01*
G01*
G37*
G04 #@! TD.AperFunction*
G04 #@! TA.AperFunction,SMDPad,CuDef*
G36*
G01*
X103037732Y-66995960D02*
X101862732Y-66995960D01*
G75*
G02*
X101712732Y-66845960I0J150000D01*
G01*
X101712732Y-66545960D01*
G75*
G02*
X101862732Y-66395960I150000J0D01*
G01*
X103037732Y-66395960D01*
G75*
G02*
X103187732Y-66545960I0J-150000D01*
G01*
X103187732Y-66845960D01*
G75*
G02*
X103037732Y-66995960I-150000J0D01*
G01*
G37*
G04 #@! TD.AperFunction*
G04 #@! TA.AperFunction,SMDPad,CuDef*
G36*
G01*
X103037732Y-68265960D02*
X101862732Y-68265960D01*
G75*
G02*
X101712732Y-68115960I0J150000D01*
G01*
X101712732Y-67815960D01*
G75*
G02*
X101862732Y-67665960I150000J0D01*
G01*
X103037732Y-67665960D01*
G75*
G02*
X103187732Y-67815960I0J-150000D01*
G01*
X103187732Y-68115960D01*
G75*
G02*
X103037732Y-68265960I-150000J0D01*
G01*
G37*
G04 #@! TD.AperFunction*
G04 #@! TA.AperFunction,SMDPad,CuDef*
G36*
G01*
X103037732Y-69535960D02*
X101862732Y-69535960D01*
G75*
G02*
X101712732Y-69385960I0J150000D01*
G01*
X101712732Y-69085960D01*
G75*
G02*
X101862732Y-68935960I150000J0D01*
G01*
X103037732Y-68935960D01*
G75*
G02*
X103187732Y-69085960I0J-150000D01*
G01*
X103187732Y-69385960D01*
G75*
G02*
X103037732Y-69535960I-150000J0D01*
G01*
G37*
G04 #@! TD.AperFunction*
G04 #@! TA.AperFunction,SMDPad,CuDef*
G36*
G01*
X103037732Y-70805960D02*
X101862732Y-70805960D01*
G75*
G02*
X101712732Y-70655960I0J150000D01*
G01*
X101712732Y-70355960D01*
G75*
G02*
X101862732Y-70205960I150000J0D01*
G01*
X103037732Y-70205960D01*
G75*
G02*
X103187732Y-70355960I0J-150000D01*
G01*
X103187732Y-70655960D01*
G75*
G02*
X103037732Y-70805960I-150000J0D01*
G01*
G37*
G04 #@! TD.AperFunction*
G04 #@! TA.AperFunction,SMDPad,CuDef*
G36*
G01*
X103037732Y-72075960D02*
X101862732Y-72075960D01*
G75*
G02*
X101712732Y-71925960I0J150000D01*
G01*
X101712732Y-71625960D01*
G75*
G02*
X101862732Y-71475960I150000J0D01*
G01*
X103037732Y-71475960D01*
G75*
G02*
X103187732Y-71625960I0J-150000D01*
G01*
X103187732Y-71925960D01*
G75*
G02*
X103037732Y-72075960I-150000J0D01*
G01*
G37*
G04 #@! TD.AperFunction*
G04 #@! TA.AperFunction,SMDPad,CuDef*
G36*
G01*
X103037732Y-73345960D02*
X101862732Y-73345960D01*
G75*
G02*
X101712732Y-73195960I0J150000D01*
G01*
X101712732Y-72895960D01*
G75*
G02*
X101862732Y-72745960I150000J0D01*
G01*
X103037732Y-72745960D01*
G75*
G02*
X103187732Y-72895960I0J-150000D01*
G01*
X103187732Y-73195960D01*
G75*
G02*
X103037732Y-73345960I-150000J0D01*
G01*
G37*
G04 #@! TD.AperFunction*
G04 #@! TA.AperFunction,SMDPad,CuDef*
G36*
G01*
X103037732Y-74615960D02*
X101862732Y-74615960D01*
G75*
G02*
X101712732Y-74465960I0J150000D01*
G01*
X101712732Y-74165960D01*
G75*
G02*
X101862732Y-74015960I150000J0D01*
G01*
X103037732Y-74015960D01*
G75*
G02*
X103187732Y-74165960I0J-150000D01*
G01*
X103187732Y-74465960D01*
G75*
G02*
X103037732Y-74615960I-150000J0D01*
G01*
G37*
G04 #@! TD.AperFunction*
G04 #@! TA.AperFunction,SMDPad,CuDef*
G36*
G01*
X100842732Y-76805960D02*
X100542732Y-76805960D01*
G75*
G02*
X100392732Y-76655960I0J150000D01*
G01*
X100392732Y-75480960D01*
G75*
G02*
X100542732Y-75330960I150000J0D01*
G01*
X100842732Y-75330960D01*
G75*
G02*
X100992732Y-75480960I0J-150000D01*
G01*
X100992732Y-76655960D01*
G75*
G02*
X100842732Y-76805960I-150000J0D01*
G01*
G37*
G04 #@! TD.AperFunction*
G04 #@! TA.AperFunction,SMDPad,CuDef*
G36*
G01*
X99572732Y-76805960D02*
X99272732Y-76805960D01*
G75*
G02*
X99122732Y-76655960I0J150000D01*
G01*
X99122732Y-75480960D01*
G75*
G02*
X99272732Y-75330960I150000J0D01*
G01*
X99572732Y-75330960D01*
G75*
G02*
X99722732Y-75480960I0J-150000D01*
G01*
X99722732Y-76655960D01*
G75*
G02*
X99572732Y-76805960I-150000J0D01*
G01*
G37*
G04 #@! TD.AperFunction*
G04 #@! TA.AperFunction,SMDPad,CuDef*
G36*
G01*
X98302732Y-76805960D02*
X98002732Y-76805960D01*
G75*
G02*
X97852732Y-76655960I0J150000D01*
G01*
X97852732Y-75480960D01*
G75*
G02*
X98002732Y-75330960I150000J0D01*
G01*
X98302732Y-75330960D01*
G75*
G02*
X98452732Y-75480960I0J-150000D01*
G01*
X98452732Y-76655960D01*
G75*
G02*
X98302732Y-76805960I-150000J0D01*
G01*
G37*
G04 #@! TD.AperFunction*
G04 #@! TA.AperFunction,SMDPad,CuDef*
G36*
G01*
X97032732Y-76805960D02*
X96732732Y-76805960D01*
G75*
G02*
X96582732Y-76655960I0J150000D01*
G01*
X96582732Y-75480960D01*
G75*
G02*
X96732732Y-75330960I150000J0D01*
G01*
X97032732Y-75330960D01*
G75*
G02*
X97182732Y-75480960I0J-150000D01*
G01*
X97182732Y-76655960D01*
G75*
G02*
X97032732Y-76805960I-150000J0D01*
G01*
G37*
G04 #@! TD.AperFunction*
G04 #@! TA.AperFunction,SMDPad,CuDef*
G36*
G01*
X95762732Y-76805960D02*
X95462732Y-76805960D01*
G75*
G02*
X95312732Y-76655960I0J150000D01*
G01*
X95312732Y-75480960D01*
G75*
G02*
X95462732Y-75330960I150000J0D01*
G01*
X95762732Y-75330960D01*
G75*
G02*
X95912732Y-75480960I0J-150000D01*
G01*
X95912732Y-76655960D01*
G75*
G02*
X95762732Y-76805960I-150000J0D01*
G01*
G37*
G04 #@! TD.AperFunction*
G04 #@! TA.AperFunction,SMDPad,CuDef*
G36*
G01*
X94492732Y-76805960D02*
X94192732Y-76805960D01*
G75*
G02*
X94042732Y-76655960I0J150000D01*
G01*
X94042732Y-75480960D01*
G75*
G02*
X94192732Y-75330960I150000J0D01*
G01*
X94492732Y-75330960D01*
G75*
G02*
X94642732Y-75480960I0J-150000D01*
G01*
X94642732Y-76655960D01*
G75*
G02*
X94492732Y-76805960I-150000J0D01*
G01*
G37*
G04 #@! TD.AperFunction*
G04 #@! TA.AperFunction,SMDPad,CuDef*
G36*
G01*
X93222732Y-76805960D02*
X92922732Y-76805960D01*
G75*
G02*
X92772732Y-76655960I0J150000D01*
G01*
X92772732Y-75480960D01*
G75*
G02*
X92922732Y-75330960I150000J0D01*
G01*
X93222732Y-75330960D01*
G75*
G02*
X93372732Y-75480960I0J-150000D01*
G01*
X93372732Y-76655960D01*
G75*
G02*
X93222732Y-76805960I-150000J0D01*
G01*
G37*
G04 #@! TD.AperFunction*
G04 #@! TA.AperFunction,SMDPad,CuDef*
G36*
G01*
X91952732Y-76805960D02*
X91652732Y-76805960D01*
G75*
G02*
X91502732Y-76655960I0J150000D01*
G01*
X91502732Y-75480960D01*
G75*
G02*
X91652732Y-75330960I150000J0D01*
G01*
X91952732Y-75330960D01*
G75*
G02*
X92102732Y-75480960I0J-150000D01*
G01*
X92102732Y-76655960D01*
G75*
G02*
X91952732Y-76805960I-150000J0D01*
G01*
G37*
G04 #@! TD.AperFunction*
G04 #@! TA.AperFunction,SMDPad,CuDef*
G36*
G01*
X90682732Y-76805960D02*
X90382732Y-76805960D01*
G75*
G02*
X90232732Y-76655960I0J150000D01*
G01*
X90232732Y-75480960D01*
G75*
G02*
X90382732Y-75330960I150000J0D01*
G01*
X90682732Y-75330960D01*
G75*
G02*
X90832732Y-75480960I0J-150000D01*
G01*
X90832732Y-76655960D01*
G75*
G02*
X90682732Y-76805960I-150000J0D01*
G01*
G37*
G04 #@! TD.AperFunction*
G04 #@! TA.AperFunction,SMDPad,CuDef*
G36*
G01*
X89362732Y-74615960D02*
X88187732Y-74615960D01*
G75*
G02*
X88037732Y-74465960I0J150000D01*
G01*
X88037732Y-74165960D01*
G75*
G02*
X88187732Y-74015960I150000J0D01*
G01*
X89362732Y-74015960D01*
G75*
G02*
X89512732Y-74165960I0J-150000D01*
G01*
X89512732Y-74465960D01*
G75*
G02*
X89362732Y-74615960I-150000J0D01*
G01*
G37*
G04 #@! TD.AperFunction*
G04 #@! TA.AperFunction,SMDPad,CuDef*
G36*
G01*
X89362732Y-73345960D02*
X88187732Y-73345960D01*
G75*
G02*
X88037732Y-73195960I0J150000D01*
G01*
X88037732Y-72895960D01*
G75*
G02*
X88187732Y-72745960I150000J0D01*
G01*
X89362732Y-72745960D01*
G75*
G02*
X89512732Y-72895960I0J-150000D01*
G01*
X89512732Y-73195960D01*
G75*
G02*
X89362732Y-73345960I-150000J0D01*
G01*
G37*
G04 #@! TD.AperFunction*
G04 #@! TA.AperFunction,SMDPad,CuDef*
G36*
G01*
X89362732Y-72075960D02*
X88187732Y-72075960D01*
G75*
G02*
X88037732Y-71925960I0J150000D01*
G01*
X88037732Y-71625960D01*
G75*
G02*
X88187732Y-71475960I150000J0D01*
G01*
X89362732Y-71475960D01*
G75*
G02*
X89512732Y-71625960I0J-150000D01*
G01*
X89512732Y-71925960D01*
G75*
G02*
X89362732Y-72075960I-150000J0D01*
G01*
G37*
G04 #@! TD.AperFunction*
G04 #@! TA.AperFunction,SMDPad,CuDef*
G36*
G01*
X89362732Y-70805960D02*
X88187732Y-70805960D01*
G75*
G02*
X88037732Y-70655960I0J150000D01*
G01*
X88037732Y-70355960D01*
G75*
G02*
X88187732Y-70205960I150000J0D01*
G01*
X89362732Y-70205960D01*
G75*
G02*
X89512732Y-70355960I0J-150000D01*
G01*
X89512732Y-70655960D01*
G75*
G02*
X89362732Y-70805960I-150000J0D01*
G01*
G37*
G04 #@! TD.AperFunction*
D16*
X110050000Y-50250000D03*
X110550000Y-50250000D03*
X111050000Y-50250000D03*
X111550000Y-50250000D03*
X112050000Y-50250000D03*
X112550000Y-50250000D03*
X113050000Y-50250000D03*
X113550000Y-50250000D03*
X114050000Y-50250000D03*
X114550000Y-50250000D03*
X115050000Y-50250000D03*
X115550000Y-50250000D03*
D17*
X117150000Y-51850000D03*
X117150000Y-52350000D03*
X117150000Y-52850000D03*
X117150000Y-53350000D03*
X117150000Y-53850000D03*
X117150000Y-54350000D03*
X117150000Y-54850000D03*
X117150000Y-55350000D03*
X117150000Y-55850000D03*
X117150000Y-56350000D03*
X117150000Y-56850000D03*
X117150000Y-57350000D03*
D16*
X115550000Y-58950000D03*
X115050000Y-58950000D03*
X114550000Y-58950000D03*
X114050000Y-58950000D03*
X113550000Y-58950000D03*
X113050000Y-58950000D03*
X112550000Y-58950000D03*
X112050000Y-58950000D03*
X111550000Y-58950000D03*
X111050000Y-58950000D03*
X110550000Y-58950000D03*
X110050000Y-58950000D03*
D17*
X108450000Y-57350000D03*
X108450000Y-56850000D03*
X108450000Y-56350000D03*
X108450000Y-55850000D03*
X108450000Y-55350000D03*
X108450000Y-54850000D03*
X108450000Y-54350000D03*
X108450000Y-53850000D03*
X108450000Y-53350000D03*
X108450000Y-52850000D03*
X108450000Y-52350000D03*
X108450000Y-51850000D03*
G04 #@! TA.AperFunction,SMDPad,CuDef*
G36*
G01*
X115843750Y-44850000D02*
X116356250Y-44850000D01*
G75*
G02*
X116575000Y-45068750I0J-218750D01*
G01*
X116575000Y-45506250D01*
G75*
G02*
X116356250Y-45725000I-218750J0D01*
G01*
X115843750Y-45725000D01*
G75*
G02*
X115625000Y-45506250I0J218750D01*
G01*
X115625000Y-45068750D01*
G75*
G02*
X115843750Y-44850000I218750J0D01*
G01*
G37*
G04 #@! TD.AperFunction*
G04 #@! TA.AperFunction,SMDPad,CuDef*
G36*
G01*
X115843750Y-43275000D02*
X116356250Y-43275000D01*
G75*
G02*
X116575000Y-43493750I0J-218750D01*
G01*
X116575000Y-43931250D01*
G75*
G02*
X116356250Y-44150000I-218750J0D01*
G01*
X115843750Y-44150000D01*
G75*
G02*
X115625000Y-43931250I0J218750D01*
G01*
X115625000Y-43493750D01*
G75*
G02*
X115843750Y-43275000I218750J0D01*
G01*
G37*
G04 #@! TD.AperFunction*
G04 #@! TA.AperFunction,SMDPad,CuDef*
G36*
G01*
X115750000Y-46943750D02*
X115750000Y-47456250D01*
G75*
G02*
X115531250Y-47675000I-218750J0D01*
G01*
X115093750Y-47675000D01*
G75*
G02*
X114875000Y-47456250I0J218750D01*
G01*
X114875000Y-46943750D01*
G75*
G02*
X115093750Y-46725000I218750J0D01*
G01*
X115531250Y-46725000D01*
G75*
G02*
X115750000Y-46943750I0J-218750D01*
G01*
G37*
G04 #@! TD.AperFunction*
G04 #@! TA.AperFunction,SMDPad,CuDef*
G36*
G01*
X117325000Y-46943750D02*
X117325000Y-47456250D01*
G75*
G02*
X117106250Y-47675000I-218750J0D01*
G01*
X116668750Y-47675000D01*
G75*
G02*
X116450000Y-47456250I0J218750D01*
G01*
X116450000Y-46943750D01*
G75*
G02*
X116668750Y-46725000I218750J0D01*
G01*
X117106250Y-46725000D01*
G75*
G02*
X117325000Y-46943750I0J-218750D01*
G01*
G37*
G04 #@! TD.AperFunction*
G04 #@! TA.AperFunction,SMDPad,CuDef*
G36*
G01*
X105156250Y-44150000D02*
X104643750Y-44150000D01*
G75*
G02*
X104425000Y-43931250I0J218750D01*
G01*
X104425000Y-43493750D01*
G75*
G02*
X104643750Y-43275000I218750J0D01*
G01*
X105156250Y-43275000D01*
G75*
G02*
X105375000Y-43493750I0J-218750D01*
G01*
X105375000Y-43931250D01*
G75*
G02*
X105156250Y-44150000I-218750J0D01*
G01*
G37*
G04 #@! TD.AperFunction*
G04 #@! TA.AperFunction,SMDPad,CuDef*
G36*
G01*
X105156250Y-45725000D02*
X104643750Y-45725000D01*
G75*
G02*
X104425000Y-45506250I0J218750D01*
G01*
X104425000Y-45068750D01*
G75*
G02*
X104643750Y-44850000I218750J0D01*
G01*
X105156250Y-44850000D01*
G75*
G02*
X105375000Y-45068750I0J-218750D01*
G01*
X105375000Y-45506250D01*
G75*
G02*
X105156250Y-45725000I-218750J0D01*
G01*
G37*
G04 #@! TD.AperFunction*
G04 #@! TA.AperFunction,SMDPad,CuDef*
G36*
G01*
X78643750Y-61250000D02*
X79156250Y-61250000D01*
G75*
G02*
X79375000Y-61468750I0J-218750D01*
G01*
X79375000Y-61906250D01*
G75*
G02*
X79156250Y-62125000I-218750J0D01*
G01*
X78643750Y-62125000D01*
G75*
G02*
X78425000Y-61906250I0J218750D01*
G01*
X78425000Y-61468750D01*
G75*
G02*
X78643750Y-61250000I218750J0D01*
G01*
G37*
G04 #@! TD.AperFunction*
G04 #@! TA.AperFunction,SMDPad,CuDef*
G36*
G01*
X78643750Y-59675000D02*
X79156250Y-59675000D01*
G75*
G02*
X79375000Y-59893750I0J-218750D01*
G01*
X79375000Y-60331250D01*
G75*
G02*
X79156250Y-60550000I-218750J0D01*
G01*
X78643750Y-60550000D01*
G75*
G02*
X78425000Y-60331250I0J218750D01*
G01*
X78425000Y-59893750D01*
G75*
G02*
X78643750Y-59675000I218750J0D01*
G01*
G37*
G04 #@! TD.AperFunction*
D18*
X82500000Y-44700000D03*
X76600000Y-60100000D03*
X82500000Y-49200000D03*
D19*
X120100000Y-51600000D03*
X105600000Y-57600000D03*
X99900000Y-52800000D03*
X78400000Y-49200000D03*
X100800000Y-44600000D03*
X86900000Y-68100000D03*
X80900000Y-64400000D03*
X120100000Y-54300000D03*
X105600000Y-54900000D03*
X102700000Y-51000000D03*
X76300000Y-49200000D03*
X121750000Y-91500000D03*
X78100000Y-91500000D03*
X101400000Y-89800000D03*
X104500000Y-89800000D03*
X123400000Y-90200000D03*
X78550000Y-57500000D03*
X77300000Y-54000000D03*
X75700000Y-52200000D03*
X85400000Y-68100000D03*
X100900000Y-71800000D03*
X120100000Y-55900000D03*
X120100000Y-50000000D03*
X105600000Y-59200000D03*
X110100000Y-57600000D03*
X105600000Y-53300000D03*
X116100000Y-48900000D03*
X76300000Y-44999694D03*
X78400000Y-45000000D03*
X112600000Y-57600000D03*
X112650000Y-49000000D03*
X107900000Y-41800000D03*
X113100000Y-41800000D03*
X104900000Y-42700000D03*
X110099998Y-52900000D03*
X108100000Y-50400000D03*
X114900000Y-48800000D03*
X114900000Y-52300002D03*
X109599992Y-51850000D03*
X113000000Y-46500000D03*
X94300000Y-70599998D03*
X97700000Y-62400000D03*
X96500000Y-61200000D03*
X94300000Y-69200000D03*
X95200000Y-59800000D03*
X94300000Y-67965960D03*
X116700000Y-61700000D03*
X118600000Y-72900000D03*
X119400000Y-78000000D03*
X112800000Y-61700000D03*
X94300000Y-54700000D03*
X102300000Y-58100000D03*
X109600000Y-61700000D03*
X104700000Y-77200000D03*
X111300000Y-73100000D03*
X103900000Y-74300000D03*
X111300000Y-72000000D03*
X103900000Y-73000000D03*
X111300006Y-70900000D03*
X103900000Y-70500000D03*
X111300000Y-69800000D03*
X103900000Y-69300000D03*
X110800000Y-68800000D03*
X103900000Y-68000000D03*
X110500000Y-67500000D03*
X103900000Y-66700000D03*
X109800000Y-66500000D03*
X108600000Y-65500000D03*
X113600000Y-52200000D03*
X113600000Y-48600000D03*
X87000000Y-56400000D03*
X87000000Y-58299998D03*
X85700000Y-88900000D03*
X94300000Y-85700000D03*
X105700000Y-79300000D03*
X115200000Y-73800000D03*
X99400000Y-63300000D03*
X100600000Y-74500000D03*
X105500000Y-81600000D03*
X115200000Y-74900000D03*
X103000000Y-80900000D03*
X100200000Y-68300000D03*
X106400000Y-81000000D03*
X115200000Y-76000000D03*
X97900000Y-73500000D03*
X115200000Y-77100000D03*
X107400000Y-81900000D03*
X102100000Y-80100000D03*
X83800000Y-70000000D03*
X81000000Y-66100000D03*
X93199994Y-82600000D03*
X91500000Y-84400000D03*
X93072732Y-81200000D03*
X91000000Y-83300000D03*
X93999994Y-79999994D03*
X90300000Y-82500000D03*
X95200001Y-79100000D03*
X89300000Y-82100000D03*
X89400000Y-80900000D03*
X96400000Y-78300002D03*
X89400000Y-79200000D03*
X97700000Y-78300000D03*
X93400000Y-87900000D03*
X96600000Y-70200000D03*
X86100000Y-75200000D03*
X86400010Y-87900000D03*
X89100000Y-62000000D03*
X92900016Y-62100000D03*
X93300000Y-73500000D03*
X88300000Y-76100000D03*
X86399996Y-86700000D03*
X93400000Y-86800000D03*
X96800000Y-90599998D03*
X94400000Y-66500000D03*
X87800000Y-63800000D03*
X82900000Y-90600000D03*
X95600000Y-90600000D03*
X93100000Y-66500000D03*
X89100000Y-65400000D03*
X84400000Y-90599994D03*
X87100000Y-66700000D03*
X84000000Y-63200000D03*
D20*
X118637500Y-51850000D02*
X118900000Y-51587500D01*
X117150000Y-51850000D02*
X118637500Y-51850000D01*
D21*
X118900000Y-51587500D02*
X120087500Y-51587500D01*
X120087500Y-51587500D02*
X120100000Y-51600000D01*
X121537500Y-51600000D02*
X121600000Y-51537500D01*
X120100000Y-51600000D02*
X121537500Y-51600000D01*
D20*
X106962500Y-57350000D02*
X106700000Y-57612500D01*
X108450000Y-57350000D02*
X106962500Y-57350000D01*
D21*
X106700000Y-57612500D02*
X105612500Y-57612500D01*
X105612500Y-57612500D02*
X105600000Y-57600000D01*
D22*
X123062500Y-51537500D02*
X121600000Y-51537500D01*
X124000000Y-50600000D02*
X123062500Y-51537500D01*
X78400000Y-48037500D02*
X78400000Y-49200000D01*
D20*
X77150000Y-50450000D02*
X78400000Y-49200000D01*
X77150000Y-51400000D02*
X77150000Y-50450000D01*
D22*
X117425000Y-47200000D02*
X124000000Y-47200000D01*
X116887500Y-47200000D02*
X117425000Y-47200000D01*
X124000000Y-47200000D02*
X124000000Y-50600000D01*
X82500000Y-49200000D02*
X96300000Y-49200000D01*
X96300000Y-49200000D02*
X99900000Y-52800000D01*
X118300000Y-40600000D02*
X124000000Y-46300000D01*
X124000000Y-46300000D02*
X124000000Y-47200000D01*
X100800000Y-44600000D02*
X100800000Y-42500000D01*
X100800000Y-42500000D02*
X102700000Y-40600000D01*
D21*
X109230000Y-40670000D02*
X109300000Y-40600000D01*
D22*
X102700000Y-40600000D02*
X109300000Y-40600000D01*
D21*
X109230000Y-43365000D02*
X109230000Y-40670000D01*
X116100000Y-43712500D02*
X116100000Y-40600000D01*
D22*
X109300000Y-40600000D02*
X116100000Y-40600000D01*
X116100000Y-40600000D02*
X118300000Y-40600000D01*
D21*
X86980232Y-69235960D02*
X86950232Y-69205960D01*
X88775232Y-69235960D02*
X86980232Y-69235960D01*
D22*
X76662500Y-60037500D02*
X76600000Y-60100000D01*
X76662500Y-56150000D02*
X76662500Y-60037500D01*
D20*
X76650000Y-56137500D02*
X76662500Y-56150000D01*
X76662500Y-55837500D02*
X76662500Y-56150000D01*
D21*
X76612500Y-60112500D02*
X76600000Y-60100000D01*
X78900000Y-60112500D02*
X76612500Y-60112500D01*
D22*
X76600000Y-92000000D02*
X76600000Y-60100000D01*
X76600000Y-96000000D02*
X76600000Y-92000000D01*
D21*
X86950232Y-69205960D02*
X86950232Y-68150232D01*
X86950232Y-68150232D02*
X86900000Y-68100000D01*
X78912500Y-60100000D02*
X78900000Y-60112500D01*
X79900000Y-60100000D02*
X78912500Y-60100000D01*
X80900000Y-64400000D02*
X80900000Y-61100000D01*
X80900000Y-61100000D02*
X79900000Y-60100000D01*
D20*
X118362500Y-54850000D02*
X118900000Y-54312500D01*
X117150000Y-54850000D02*
X118362500Y-54850000D01*
D21*
X118900000Y-54312500D02*
X120087500Y-54312500D01*
X120087500Y-54312500D02*
X120100000Y-54300000D01*
X121462500Y-54300000D02*
X121600000Y-54162500D01*
X120100000Y-54300000D02*
X121462500Y-54300000D01*
D20*
X107237500Y-54350000D02*
X106700000Y-54887500D01*
X108450000Y-54350000D02*
X107237500Y-54350000D01*
D21*
X106700000Y-54887500D02*
X105612500Y-54887500D01*
X105612500Y-54887500D02*
X105600000Y-54900000D01*
D22*
X76300000Y-48037500D02*
X76300000Y-49200000D01*
D20*
X76650000Y-49550000D02*
X76300000Y-49200000D01*
X76650000Y-51400000D02*
X76650000Y-49550000D01*
D22*
X96400000Y-44700000D02*
X102400001Y-50700001D01*
X82500000Y-44700000D02*
X96400000Y-44700000D01*
X102400001Y-50700001D02*
X102700000Y-51000000D01*
D21*
X121750000Y-95750000D02*
X121750000Y-91500000D01*
X78900000Y-61687500D02*
X78900000Y-62600000D01*
X78100000Y-63400000D02*
X78100000Y-91500000D01*
X78900000Y-62600000D02*
X78100000Y-63400000D01*
X101400000Y-89800000D02*
X104500000Y-89800000D01*
D20*
X123700000Y-53800000D02*
X122750000Y-52850000D01*
X122750000Y-52850000D02*
X117150000Y-52850000D01*
X123700000Y-77600000D02*
X123700000Y-53800000D01*
X121750000Y-79550000D02*
X123700000Y-77600000D01*
X121750000Y-91500000D02*
X121750000Y-79550000D01*
D22*
X123400000Y-96000000D02*
X123400000Y-90200000D01*
X78537500Y-56150000D02*
X78537500Y-57487500D01*
X78537500Y-57487500D02*
X78550000Y-57500000D01*
D20*
X77150000Y-53000000D02*
X77150000Y-53850000D01*
X77150000Y-53850000D02*
X77300000Y-54000000D01*
D21*
X77150000Y-52200000D02*
X75700000Y-52200000D01*
D20*
X77150000Y-53000000D02*
X77150000Y-52200000D01*
D21*
X85375232Y-69205960D02*
X85375232Y-68124768D01*
X85375232Y-68124768D02*
X85400000Y-68100000D01*
X102450232Y-71775960D02*
X100924040Y-71775960D01*
X100924040Y-71775960D02*
X100900000Y-71800000D01*
D20*
X118362500Y-55350000D02*
X118900000Y-55887500D01*
X117150000Y-55350000D02*
X118362500Y-55350000D01*
D21*
X118900000Y-55887500D02*
X120087500Y-55887500D01*
X120087500Y-55887500D02*
X120100000Y-55900000D01*
X121462500Y-55900000D02*
X121600000Y-56037500D01*
X120100000Y-55900000D02*
X121462500Y-55900000D01*
X118900000Y-50012500D02*
X120087500Y-50012500D01*
X120087500Y-50012500D02*
X120100000Y-50000000D01*
X121262500Y-50000000D02*
X121600000Y-49662500D01*
X120100000Y-50000000D02*
X121262500Y-50000000D01*
D20*
X107237500Y-53850000D02*
X106700000Y-53312500D01*
X108450000Y-53850000D02*
X107237500Y-53850000D01*
D21*
X106700000Y-59187500D02*
X105612500Y-59187500D01*
X105612500Y-59187500D02*
X105600000Y-59200000D01*
D20*
X110050000Y-58950000D02*
X110050000Y-57650000D01*
X110050000Y-57650000D02*
X110100000Y-57600000D01*
D21*
X106700000Y-53312500D02*
X105612500Y-53312500D01*
X105612500Y-53312500D02*
X105600000Y-53300000D01*
D20*
X115550000Y-50250000D02*
X115550000Y-49450000D01*
X115550000Y-49450000D02*
X116100000Y-48900000D01*
D22*
X76300000Y-46162500D02*
X76300000Y-44999694D01*
X78400000Y-46162500D02*
X78400000Y-45000000D01*
D20*
X112550000Y-58950000D02*
X112550000Y-57650000D01*
X112550000Y-57650000D02*
X112600000Y-57600000D01*
X112550000Y-50250000D02*
X112550000Y-49100000D01*
X112550000Y-49100000D02*
X112650000Y-49000000D01*
D21*
X107960000Y-43365000D02*
X107960000Y-41860000D01*
X107960000Y-41860000D02*
X107900000Y-41800000D01*
X113040000Y-43365000D02*
X113040000Y-41860000D01*
X113040000Y-41860000D02*
X113100000Y-41800000D01*
X104900000Y-43712500D02*
X104900000Y-42700000D01*
D20*
X110099998Y-56050002D02*
X110099998Y-53324264D01*
X110099998Y-53324264D02*
X110099998Y-52900000D01*
X108450000Y-56850000D02*
X109300000Y-56850000D01*
X109300000Y-56850000D02*
X110099998Y-56050002D01*
D21*
X107960000Y-50260000D02*
X108100000Y-50400000D01*
X107960000Y-44635000D02*
X107960000Y-46840000D01*
X107960000Y-46840000D02*
X107960000Y-50260000D01*
X105740000Y-46840000D02*
X107960000Y-46840000D01*
X104900000Y-45287500D02*
X104900000Y-46000000D01*
X104900000Y-46000000D02*
X105740000Y-46840000D01*
X115312500Y-48387500D02*
X114900000Y-48800000D01*
X115312500Y-47200000D02*
X115312500Y-48387500D01*
D20*
X114900000Y-55950000D02*
X114900000Y-52724266D01*
X114900000Y-52724266D02*
X114900000Y-52300002D01*
X116300000Y-57350000D02*
X114900000Y-55950000D01*
X117150000Y-57350000D02*
X116300000Y-57350000D01*
D21*
X110500000Y-45700000D02*
X110500000Y-44635000D01*
X115312500Y-47200000D02*
X112000000Y-47200000D01*
X112000000Y-47200000D02*
X110500000Y-45700000D01*
D20*
X108450000Y-51850000D02*
X109599992Y-51850000D01*
D21*
X116100000Y-45287500D02*
X116100000Y-45793750D01*
X116100000Y-45793750D02*
X115693750Y-46200000D01*
X113040000Y-46460000D02*
X113000000Y-46500000D01*
X113040000Y-44635000D02*
X113040000Y-46460000D01*
X113424264Y-46500000D02*
X113724264Y-46200000D01*
X113724264Y-46200000D02*
X115693750Y-46200000D01*
X113000000Y-46500000D02*
X113424264Y-46500000D01*
D20*
X107550000Y-52850000D02*
X107200000Y-52500000D01*
X108450000Y-52850000D02*
X107550000Y-52850000D01*
X107200000Y-52500000D02*
X105400000Y-52500000D01*
X102500000Y-55400000D02*
X97600000Y-55400000D01*
X90532732Y-62467268D02*
X90532732Y-64943460D01*
X105400000Y-52500000D02*
X102500000Y-55400000D01*
X97600000Y-55400000D02*
X90532732Y-62467268D01*
D21*
X91854038Y-73045960D02*
X94300000Y-70599998D01*
X88775232Y-73045960D02*
X91854038Y-73045960D01*
D20*
X107750000Y-56350000D02*
X107225010Y-56874990D01*
X97700000Y-61975736D02*
X97700000Y-62400000D01*
X100025010Y-56874990D02*
X97700000Y-59200000D01*
X107225010Y-56874990D02*
X100025010Y-56874990D01*
X108450000Y-56350000D02*
X107750000Y-56350000D01*
X97700000Y-59200000D02*
X97700000Y-61975736D01*
D21*
X88775232Y-71775960D02*
X91724040Y-71775960D01*
X91724040Y-71775960D02*
X94300000Y-69200000D01*
D20*
X99225020Y-56474980D02*
X96500000Y-59200000D01*
X96500000Y-59200000D02*
X96500000Y-61200000D01*
X106925020Y-56474980D02*
X99225020Y-56474980D01*
X108450000Y-55850000D02*
X107550000Y-55850000D01*
X107550000Y-55850000D02*
X106925020Y-56474980D01*
X84700000Y-57900000D02*
X84700000Y-58750000D01*
X85400000Y-57200000D02*
X84700000Y-57900000D01*
X94400000Y-57200000D02*
X85400000Y-57200000D01*
X107715698Y-52350000D02*
X107365698Y-52000000D01*
X108450000Y-52350000D02*
X107715698Y-52350000D01*
X102100000Y-54800000D02*
X96800000Y-54800000D01*
X96800000Y-54800000D02*
X94400000Y-57200000D01*
X107365698Y-52000000D02*
X104900000Y-52000000D01*
X104900000Y-52000000D02*
X102100000Y-54800000D01*
D21*
X88775232Y-67965960D02*
X94300000Y-67965960D01*
D20*
X107446140Y-55350000D02*
X108450000Y-55350000D01*
X106896140Y-55900000D02*
X107446140Y-55350000D01*
X95200000Y-59800000D02*
X95200000Y-59000000D01*
X98300000Y-55900000D02*
X106896140Y-55900000D01*
X95200000Y-59000000D02*
X98300000Y-55900000D01*
X120250000Y-92800000D02*
X120250000Y-95750000D01*
D21*
X116700000Y-71000000D02*
X118600000Y-72900000D01*
X116700000Y-61700000D02*
X116700000Y-71000000D01*
X120250000Y-92680000D02*
X120250000Y-95750000D01*
X120250000Y-79274264D02*
X120250000Y-92680000D01*
X119400000Y-78424264D02*
X120250000Y-79274264D01*
X119400000Y-78000000D02*
X119400000Y-78424264D01*
D20*
X113050000Y-61450000D02*
X112800000Y-61700000D01*
X113050000Y-58950000D02*
X113050000Y-61450000D01*
D21*
X102300000Y-58100000D02*
X102300000Y-59100000D01*
X102300000Y-59100000D02*
X104900000Y-61700000D01*
X104900000Y-61700000D02*
X109600000Y-61700000D01*
X82100000Y-58000000D02*
X82100000Y-58750000D01*
X94300000Y-54700000D02*
X85400000Y-54700000D01*
X85400000Y-54700000D02*
X82100000Y-58000000D01*
X108250000Y-80750000D02*
X104700000Y-77200000D01*
X108250000Y-95750000D02*
X108250000Y-80750000D01*
X104000000Y-77900000D02*
X104700000Y-77200000D01*
X101500000Y-77900000D02*
X104000000Y-77900000D01*
X100692732Y-76068460D02*
X100692732Y-77092732D01*
X100692732Y-77092732D02*
X101500000Y-77900000D01*
D20*
X111599999Y-72800001D02*
X111300000Y-73100000D01*
X115050000Y-58950000D02*
X115050000Y-69350000D01*
X115050000Y-69350000D02*
X111599999Y-72800001D01*
D21*
X102450232Y-74315960D02*
X103884040Y-74315960D01*
X103884040Y-74315960D02*
X103900000Y-74300000D01*
X103900000Y-74300000D02*
X103900000Y-75100000D01*
X109750000Y-80950000D02*
X109750000Y-95750000D01*
X103900000Y-75100000D02*
X109750000Y-80950000D01*
D20*
X114550000Y-68750000D02*
X111300000Y-72000000D01*
X114550000Y-58950000D02*
X114550000Y-68750000D01*
D21*
X102450232Y-73045960D02*
X102504272Y-73100000D01*
X102450232Y-73045960D02*
X103854040Y-73045960D01*
X103854040Y-73045960D02*
X103900000Y-73000000D01*
X111250000Y-92680000D02*
X111250000Y-95750000D01*
X111250000Y-81450000D02*
X111250000Y-92680000D01*
X104900000Y-75100000D02*
X111250000Y-81450000D01*
X103900000Y-73000000D02*
X104900000Y-74000000D01*
X104900000Y-74000000D02*
X104900000Y-75100000D01*
D20*
X114050000Y-68150006D02*
X111300006Y-70900000D01*
X114050000Y-58950000D02*
X114050000Y-68150006D01*
D21*
X102450232Y-70505960D02*
X103894040Y-70505960D01*
X103894040Y-70505960D02*
X103900000Y-70500000D01*
X112750000Y-82300000D02*
X112750000Y-95750000D01*
X112750000Y-81350000D02*
X112750000Y-82300000D01*
X105633574Y-74233574D02*
X112750000Y-81350000D01*
X103900000Y-70500000D02*
X105633574Y-72233574D01*
X105633574Y-72233574D02*
X105633574Y-74233574D01*
D20*
X113550000Y-67550000D02*
X111300000Y-69800000D01*
X113550000Y-58950000D02*
X113550000Y-67550000D01*
D21*
X114250000Y-81750000D02*
X114250000Y-81900000D01*
X106400000Y-73900000D02*
X114250000Y-81750000D01*
X114250000Y-95750000D02*
X114250000Y-81900000D01*
X102450232Y-69235960D02*
X103835960Y-69235960D01*
X103835960Y-69235960D02*
X103900000Y-69300000D01*
X106400000Y-71800000D02*
X106400000Y-72600000D01*
X103900000Y-69300000D02*
X106400000Y-71800000D01*
X106400000Y-72348228D02*
X106400000Y-72600000D01*
X106400000Y-72600000D02*
X106400000Y-73900000D01*
D20*
X112050000Y-67550000D02*
X112050000Y-58950000D01*
X110800000Y-68800000D02*
X112050000Y-67550000D01*
D21*
X102450232Y-67965960D02*
X103865960Y-67965960D01*
X103865960Y-67965960D02*
X103900000Y-68000000D01*
X115750000Y-82400000D02*
X115750000Y-95750000D01*
X115750000Y-81950000D02*
X115750000Y-82400000D01*
X103900000Y-68000000D02*
X107100000Y-71200000D01*
X107100000Y-73300000D02*
X115750000Y-81950000D01*
X107100000Y-71200000D02*
X107100000Y-73300000D01*
D20*
X111550000Y-59800000D02*
X111550000Y-58950000D01*
X111550000Y-66450000D02*
X111550000Y-59800000D01*
X110500000Y-67500000D02*
X111550000Y-66450000D01*
D21*
X102450232Y-66695960D02*
X103895960Y-66695960D01*
X103895960Y-66695960D02*
X103900000Y-66700000D01*
X117250000Y-83400000D02*
X117250000Y-95750000D01*
X117250000Y-82050000D02*
X117250000Y-83400000D01*
X107800000Y-72600000D02*
X117250000Y-82050000D01*
X103900000Y-66700000D02*
X107800000Y-70600000D01*
X107800000Y-70600000D02*
X107800000Y-72600000D01*
D20*
X111050000Y-65250000D02*
X111050000Y-58950000D01*
X109800000Y-66500000D02*
X111050000Y-65250000D01*
D21*
X118750000Y-82800000D02*
X118750000Y-95750000D01*
X118750000Y-82150000D02*
X118750000Y-82800000D01*
X108600000Y-72000000D02*
X118750000Y-82150000D01*
X108600000Y-69300000D02*
X108600000Y-72000000D01*
X108600000Y-69300000D02*
X108600000Y-65500000D01*
D20*
X110550000Y-63550000D02*
X110550000Y-58950000D01*
X108600000Y-65500000D02*
X110550000Y-63550000D01*
D21*
X103400000Y-63400000D02*
X105500000Y-65500000D01*
X105500000Y-65500000D02*
X108600000Y-65500000D01*
X101300000Y-63400000D02*
X103400000Y-63400000D01*
X100692732Y-64943460D02*
X100692732Y-64007268D01*
X100692732Y-64007268D02*
X101300000Y-63400000D01*
D20*
X117150000Y-52350000D02*
X116050000Y-52350000D01*
X113600000Y-52200000D02*
X114099999Y-51700001D01*
X114099999Y-51700001D02*
X115400001Y-51700001D01*
X115400001Y-51700001D02*
X116050000Y-52350000D01*
D21*
X109200000Y-44665000D02*
X109230000Y-44635000D01*
X109200000Y-46200000D02*
X109200000Y-44665000D01*
X113600000Y-48600000D02*
X113200000Y-48200000D01*
X111200000Y-48200000D02*
X109200000Y-46200000D01*
X113200000Y-48200000D02*
X111200000Y-48200000D01*
X79750000Y-95750000D02*
X79750000Y-68550000D01*
X87000000Y-61300000D02*
X87000000Y-58724262D01*
X87000000Y-58724262D02*
X87000000Y-58299998D01*
X79750000Y-68550000D02*
X87000000Y-61300000D01*
D20*
X87299999Y-56100001D02*
X87000000Y-56400000D01*
X96200000Y-54100000D02*
X94199999Y-56100001D01*
X101700000Y-54100000D02*
X96200000Y-54100000D01*
X94199999Y-56100001D02*
X87299999Y-56100001D01*
X110049999Y-51249999D02*
X104550001Y-51249999D01*
X113050000Y-50250000D02*
X113050000Y-51100000D01*
X112650000Y-51500000D02*
X110300000Y-51500000D01*
X113050000Y-51100000D02*
X112650000Y-51500000D01*
X110300000Y-51500000D02*
X110049999Y-51249999D01*
X104550001Y-51249999D02*
X101700000Y-54100000D01*
D21*
X85400001Y-88600001D02*
X85700000Y-88900000D01*
X83700000Y-86900000D02*
X85400001Y-88600001D01*
X83700000Y-76100000D02*
X83700000Y-86900000D01*
X88775232Y-74315960D02*
X85484040Y-74315960D01*
X85484040Y-74315960D02*
X83700000Y-76100000D01*
X95000000Y-85700000D02*
X94724264Y-85700000D01*
X102250000Y-95750000D02*
X102250000Y-92950000D01*
X94724264Y-85700000D02*
X94300000Y-85700000D01*
X102250000Y-92950000D02*
X95000000Y-85700000D01*
X99100000Y-79300000D02*
X105275736Y-79300000D01*
X94300000Y-84100000D02*
X99100000Y-79300000D01*
X105275736Y-79300000D02*
X105700000Y-79300000D01*
X94300000Y-85700000D02*
X94300000Y-84100000D01*
D20*
X115550000Y-73450000D02*
X115200000Y-73800000D01*
X115550000Y-58950000D02*
X115550000Y-73450000D01*
D21*
X91802732Y-62220482D02*
X91802732Y-63302732D01*
X92923214Y-61100000D02*
X91802732Y-62220482D01*
X95100000Y-61100000D02*
X92923214Y-61100000D01*
X99400000Y-63300000D02*
X97300000Y-63300000D01*
X91802732Y-63302732D02*
X91802732Y-64943460D01*
X97300000Y-63300000D02*
X95100000Y-61100000D01*
X103750000Y-92680000D02*
X105799999Y-90630001D01*
X103750000Y-95750000D02*
X103750000Y-92680000D01*
X105799999Y-90630001D02*
X105799999Y-81899999D01*
X105799999Y-81899999D02*
X105500000Y-81600000D01*
X103100000Y-81000000D02*
X103000000Y-80900000D01*
X103700000Y-81600000D02*
X103100000Y-81000000D01*
X105500000Y-81600000D02*
X103700000Y-81600000D01*
X100200000Y-74100000D02*
X100200000Y-68724264D01*
X100200000Y-68724264D02*
X100200000Y-68300000D01*
X100600000Y-74500000D02*
X100200000Y-74100000D01*
D20*
X120800000Y-72200000D02*
X118100000Y-74900000D01*
X118100000Y-74900000D02*
X115200000Y-74900000D01*
X120800000Y-59684998D02*
X120800000Y-72200000D01*
X117150000Y-56850000D02*
X117965002Y-56850000D01*
X117965002Y-56850000D02*
X120800000Y-59684998D01*
D21*
X105250000Y-95750000D02*
X105250000Y-92680000D01*
X106699999Y-91230001D02*
X106699999Y-81299999D01*
X106699999Y-81299999D02*
X106400000Y-81000000D01*
X105250000Y-92680000D02*
X106699999Y-91230001D01*
D20*
X121800000Y-74100000D02*
X119900000Y-76000000D01*
X121800000Y-60000000D02*
X121800000Y-74100000D01*
X117150000Y-56350000D02*
X118150000Y-56350000D01*
X119900000Y-76000000D02*
X115200000Y-76000000D01*
X118150000Y-56350000D02*
X121800000Y-60000000D01*
D21*
X97900000Y-70100000D02*
X97900000Y-73500000D01*
X99422732Y-64943460D02*
X99422732Y-68577268D01*
X99422732Y-68577268D02*
X97900000Y-70100000D01*
X106750000Y-92650000D02*
X107400000Y-92000000D01*
X107400000Y-82324264D02*
X107400000Y-81900000D01*
X106750000Y-95750000D02*
X106750000Y-92650000D01*
X107400000Y-92000000D02*
X107400000Y-82324264D01*
X106524264Y-80100000D02*
X102524264Y-80100000D01*
X107400000Y-80975736D02*
X106524264Y-80100000D01*
X107400000Y-81900000D02*
X107400000Y-80975736D01*
X102524264Y-80100000D02*
X102100000Y-80100000D01*
D20*
X121400000Y-77100000D02*
X115200000Y-77100000D01*
X123000000Y-75500000D02*
X121400000Y-77100000D01*
X123000000Y-54000000D02*
X123000000Y-75500000D01*
X117150000Y-53350000D02*
X122350000Y-53350000D01*
X122350000Y-53350000D02*
X123000000Y-54000000D01*
D21*
X88775232Y-70505960D02*
X84305960Y-70505960D01*
X84305960Y-70505960D02*
X83800000Y-70000000D01*
X82100000Y-65000000D02*
X81000000Y-66100000D01*
X82100000Y-60050000D02*
X82100000Y-65000000D01*
X90600000Y-76135728D02*
X90532732Y-76068460D01*
X92400000Y-89550000D02*
X92400000Y-83200000D01*
X92400000Y-83200000D02*
X90600000Y-81400000D01*
X94750000Y-95750000D02*
X94750000Y-91900000D01*
X90600000Y-81400000D02*
X90600000Y-76135728D01*
X94750000Y-91900000D02*
X92400000Y-89550000D01*
X91802732Y-76068460D02*
X91802732Y-81202738D01*
X91802732Y-81202738D02*
X93199994Y-82600000D01*
X91500000Y-90800000D02*
X91500000Y-84824264D01*
X93250000Y-92550000D02*
X91500000Y-90800000D01*
X91500000Y-84824264D02*
X91500000Y-84400000D01*
X93250000Y-95750000D02*
X93250000Y-92550000D01*
X93072732Y-76068460D02*
X93072732Y-81200000D01*
X91750000Y-92550000D02*
X90700001Y-91500001D01*
X90700001Y-91500001D02*
X90700001Y-83599999D01*
X90700001Y-83599999D02*
X91000000Y-83300000D01*
X91750000Y-95750000D02*
X91750000Y-92550000D01*
X94342732Y-79657256D02*
X94299993Y-79699995D01*
X94299993Y-79699995D02*
X93999994Y-79999994D01*
X94342732Y-76068460D02*
X94342732Y-79657256D01*
X90000001Y-82799999D02*
X90300000Y-82500000D01*
X90250000Y-95750000D02*
X90250000Y-92500000D01*
X90000001Y-92250001D02*
X90000001Y-82799999D01*
X90250000Y-92500000D02*
X90000001Y-92250001D01*
X95200001Y-79000001D02*
X95200001Y-79100000D01*
X95600000Y-78600002D02*
X95200001Y-79000001D01*
X95612732Y-76068460D02*
X95600000Y-76081192D01*
X95600000Y-76081192D02*
X95600000Y-78600002D01*
X89300000Y-92150000D02*
X88750000Y-92700000D01*
X89300000Y-82100000D02*
X89300000Y-92150000D01*
X88750000Y-95750000D02*
X88750000Y-92700000D01*
X96499998Y-78300002D02*
X96400000Y-78300002D01*
X96900000Y-77900000D02*
X96499998Y-78300002D01*
X96882732Y-76068460D02*
X96900000Y-76085728D01*
X96900000Y-76085728D02*
X96900000Y-77900000D01*
X87250000Y-92680000D02*
X87250000Y-95750000D01*
X87250000Y-92200000D02*
X87250000Y-92680000D01*
X88600000Y-81275736D02*
X88600000Y-90850000D01*
X89400000Y-80900000D02*
X88975736Y-80900000D01*
X88600000Y-90850000D02*
X87250000Y-92200000D01*
X88975736Y-80900000D02*
X88600000Y-81275736D01*
X98152732Y-76068460D02*
X98152732Y-77847268D01*
X97999999Y-78000001D02*
X97700000Y-78300000D01*
X98152732Y-77847268D02*
X97999999Y-78000001D01*
X85750000Y-92200000D02*
X85750000Y-92680000D01*
X87900000Y-90050000D02*
X85750000Y-92200000D01*
X87900000Y-80500000D02*
X87900000Y-90050000D01*
X85750000Y-92680000D02*
X85750000Y-95750000D01*
X89400000Y-79200000D02*
X89200000Y-79200000D01*
X89200000Y-79200000D02*
X87900000Y-80500000D01*
X84250000Y-92000000D02*
X84250000Y-95750000D01*
X87200000Y-89050000D02*
X84250000Y-92000000D01*
X87200000Y-79600000D02*
X87200000Y-89050000D01*
X99422732Y-75230960D02*
X98791772Y-74600000D01*
X99422732Y-76068460D02*
X99422732Y-75230960D01*
X98791772Y-74600000D02*
X90200000Y-74600000D01*
X90200000Y-74600000D02*
X89600000Y-75200000D01*
X89600000Y-75200000D02*
X89600000Y-77200000D01*
X89600000Y-77200000D02*
X87200000Y-79600000D01*
X96899999Y-69900001D02*
X96600000Y-70200000D01*
X98152732Y-68647268D02*
X96899999Y-69900001D01*
X98152732Y-64943460D02*
X98152732Y-68647268D01*
X86100011Y-87600001D02*
X86400010Y-87900000D01*
X85000001Y-86499991D02*
X86100011Y-87600001D01*
X86100000Y-75200000D02*
X85000001Y-76299999D01*
X85000001Y-76299999D02*
X85000001Y-86499991D01*
X99250000Y-95750000D02*
X99250000Y-92073196D01*
X93824264Y-87900000D02*
X93400000Y-87900000D01*
X95136805Y-87960001D02*
X94083199Y-87960001D01*
X99250000Y-92073196D02*
X95136805Y-87960001D01*
X94023198Y-87900000D02*
X93824264Y-87900000D01*
X94083199Y-87960001D02*
X94023198Y-87900000D01*
X88675736Y-62000000D02*
X89100000Y-62000000D01*
X88000000Y-62000000D02*
X88675736Y-62000000D01*
X80300000Y-69700000D02*
X88000000Y-62000000D01*
X80300000Y-90000000D02*
X80300000Y-69700000D01*
X81250000Y-95750000D02*
X81250000Y-90950000D01*
X81250000Y-90950000D02*
X80300000Y-90000000D01*
X96882732Y-64105960D02*
X94876772Y-62100000D01*
X96882732Y-64943460D02*
X96882732Y-64105960D01*
X94876772Y-62100000D02*
X93324280Y-62100000D01*
X93324280Y-62100000D02*
X92900016Y-62100000D01*
X95612732Y-64943460D02*
X95612732Y-71312732D01*
X95612732Y-71312732D02*
X95487268Y-71312732D01*
X95487268Y-71312732D02*
X93300000Y-73500000D01*
X86399996Y-78000004D02*
X86399996Y-86700000D01*
X88300000Y-76100000D02*
X86399996Y-78000004D01*
X93824264Y-86800000D02*
X93400000Y-86800000D01*
X94870000Y-86800000D02*
X93824264Y-86800000D01*
X100750000Y-95750000D02*
X100750000Y-92680000D01*
X100750000Y-92680000D02*
X94870000Y-86800000D01*
X97750000Y-91549998D02*
X97099999Y-90899997D01*
X97099999Y-90899997D02*
X96800000Y-90599998D01*
X97750000Y-95750000D02*
X97750000Y-91549998D01*
X94342732Y-64943460D02*
X94342732Y-66442732D01*
X94342732Y-66442732D02*
X94400000Y-66500000D01*
X81500001Y-70099999D02*
X81500001Y-89200001D01*
X81500001Y-89200001D02*
X82600001Y-90300001D01*
X82600001Y-90300001D02*
X82900000Y-90600000D01*
X87800000Y-63800000D02*
X81500001Y-70099999D01*
X96250000Y-91250000D02*
X95600000Y-90600000D01*
X96250000Y-95750000D02*
X96250000Y-91250000D01*
X93072732Y-64943460D02*
X93072732Y-66472732D01*
X93072732Y-66472732D02*
X93100000Y-66500000D01*
X84100001Y-90299995D02*
X84400000Y-90599994D01*
X82300000Y-88499994D02*
X84100001Y-90299995D01*
X89100000Y-65400000D02*
X87075736Y-65400000D01*
X82300000Y-70175736D02*
X82300000Y-88499994D01*
X87075736Y-65400000D02*
X82300000Y-70175736D01*
X88775232Y-66695960D02*
X87104040Y-66695960D01*
X87104040Y-66695960D02*
X87100000Y-66700000D01*
X84700000Y-62500000D02*
X84700000Y-60050000D01*
X84000000Y-63200000D02*
X84700000Y-62500000D01*
D20*
G36*
X78100000Y-55185533D02*
G01*
X78085111Y-55190050D01*
X77990853Y-55240432D01*
X77908235Y-55308235D01*
X77840432Y-55390853D01*
X77790050Y-55485111D01*
X77759025Y-55587387D01*
X77748549Y-55693750D01*
X77748549Y-55998525D01*
X77737500Y-56110708D01*
X77737501Y-57000000D01*
X76000000Y-57000000D01*
X76000000Y-52750000D01*
X76505267Y-52750000D01*
X76520000Y-52751451D01*
X76723549Y-52751451D01*
X76723549Y-53287500D01*
X76730542Y-53358503D01*
X76750000Y-53422649D01*
X76750001Y-53759940D01*
X76723058Y-53824986D01*
X76700000Y-53940905D01*
X76700000Y-54059095D01*
X76723058Y-54175014D01*
X76768287Y-54284207D01*
X76833950Y-54382478D01*
X76917522Y-54466050D01*
X77015793Y-54531713D01*
X77124986Y-54576942D01*
X77240905Y-54600000D01*
X77359095Y-54600000D01*
X77475014Y-54576942D01*
X77584207Y-54531713D01*
X77682478Y-54466050D01*
X77766050Y-54382478D01*
X77831713Y-54284207D01*
X77876942Y-54175014D01*
X77900000Y-54059095D01*
X77900000Y-53940905D01*
X77876942Y-53824986D01*
X77831713Y-53715793D01*
X77766050Y-53617522D01*
X77682478Y-53533950D01*
X77584207Y-53468287D01*
X77550000Y-53454118D01*
X77550000Y-53422647D01*
X77569458Y-53358503D01*
X77576451Y-53287500D01*
X77576451Y-52751451D01*
X77780000Y-52751451D01*
X77838810Y-52745659D01*
X77895360Y-52728504D01*
X77947477Y-52700647D01*
X77993158Y-52663158D01*
X78030647Y-52617477D01*
X78058504Y-52565360D01*
X78075659Y-52508810D01*
X78081451Y-52450000D01*
X78081451Y-51950000D01*
X78075659Y-51891190D01*
X78058504Y-51834640D01*
X78030647Y-51782523D01*
X77993158Y-51736842D01*
X77947477Y-51699353D01*
X77895360Y-51671496D01*
X77838810Y-51654341D01*
X77780000Y-51648549D01*
X77576451Y-51648549D01*
X77576451Y-51112500D01*
X77569458Y-51041497D01*
X77550000Y-50977353D01*
X77550000Y-50900000D01*
X78100000Y-50900000D01*
X78100000Y-55185533D01*
G37*
X78100000Y-55185533D02*
X78085111Y-55190050D01*
X77990853Y-55240432D01*
X77908235Y-55308235D01*
X77840432Y-55390853D01*
X77790050Y-55485111D01*
X77759025Y-55587387D01*
X77748549Y-55693750D01*
X77748549Y-55998525D01*
X77737500Y-56110708D01*
X77737501Y-57000000D01*
X76000000Y-57000000D01*
X76000000Y-52750000D01*
X76505267Y-52750000D01*
X76520000Y-52751451D01*
X76723549Y-52751451D01*
X76723549Y-53287500D01*
X76730542Y-53358503D01*
X76750000Y-53422649D01*
X76750001Y-53759940D01*
X76723058Y-53824986D01*
X76700000Y-53940905D01*
X76700000Y-54059095D01*
X76723058Y-54175014D01*
X76768287Y-54284207D01*
X76833950Y-54382478D01*
X76917522Y-54466050D01*
X77015793Y-54531713D01*
X77124986Y-54576942D01*
X77240905Y-54600000D01*
X77359095Y-54600000D01*
X77475014Y-54576942D01*
X77584207Y-54531713D01*
X77682478Y-54466050D01*
X77766050Y-54382478D01*
X77831713Y-54284207D01*
X77876942Y-54175014D01*
X77900000Y-54059095D01*
X77900000Y-53940905D01*
X77876942Y-53824986D01*
X77831713Y-53715793D01*
X77766050Y-53617522D01*
X77682478Y-53533950D01*
X77584207Y-53468287D01*
X77550000Y-53454118D01*
X77550000Y-53422647D01*
X77569458Y-53358503D01*
X77576451Y-53287500D01*
X77576451Y-52751451D01*
X77780000Y-52751451D01*
X77838810Y-52745659D01*
X77895360Y-52728504D01*
X77947477Y-52700647D01*
X77993158Y-52663158D01*
X78030647Y-52617477D01*
X78058504Y-52565360D01*
X78075659Y-52508810D01*
X78081451Y-52450000D01*
X78081451Y-51950000D01*
X78075659Y-51891190D01*
X78058504Y-51834640D01*
X78030647Y-51782523D01*
X77993158Y-51736842D01*
X77947477Y-51699353D01*
X77895360Y-51671496D01*
X77838810Y-51654341D01*
X77780000Y-51648549D01*
X77576451Y-51648549D01*
X77576451Y-51112500D01*
X77569458Y-51041497D01*
X77550000Y-50977353D01*
X77550000Y-50900000D01*
X78100000Y-50900000D01*
X78100000Y-55185533D01*
M02*
