G04 #@! TF.GenerationSoftware,KiCad,Pcbnew,5.0.0-fee4fd1~65~ubuntu18.04.1*
G04 #@! TF.CreationDate,2018-07-29T00:01:00+03:00*
G04 #@! TF.ProjectId,GB-BRK-CPU-G2,47422D42524B2D4350552D47322E6B69,v1.0*
G04 #@! TF.SameCoordinates,Original*
G04 #@! TF.FileFunction,Soldermask,Top*
G04 #@! TF.FilePolarity,Negative*
%FSLAX46Y46*%
G04 Gerber Fmt 4.6, Leading zero omitted, Abs format (unit mm)*
G04 Created by KiCad (PCBNEW 5.0.0-fee4fd1~65~ubuntu18.04.1) date Sun Jul 29 00:01:00 2018*
%MOMM*%
%LPD*%
G01*
G04 APERTURE LIST*
%ADD10C,0.150000*%
%ADD11C,0.100000*%
G04 APERTURE END LIST*
D10*
X140000000Y-60000000D02*
X60000000Y-60000000D01*
X140000000Y-140000000D02*
X140000000Y-60000000D01*
X60000000Y-140000000D02*
X140000000Y-140000000D01*
X60000000Y-60000000D02*
X60000000Y-140000000D01*
D11*
G36*
X135991743Y-131730660D02*
X135991745Y-131730661D01*
X135991746Y-131730661D01*
X136610504Y-131986959D01*
X137167372Y-132359046D01*
X137640954Y-132832628D01*
X138013041Y-133389496D01*
X138135618Y-133685422D01*
X138269340Y-134008257D01*
X138400000Y-134665129D01*
X138400000Y-135334871D01*
X138347263Y-135600000D01*
X138269339Y-135991746D01*
X138013041Y-136610504D01*
X137640954Y-137167372D01*
X137167372Y-137640954D01*
X136610504Y-138013041D01*
X135991746Y-138269339D01*
X135991745Y-138269339D01*
X135991743Y-138269340D01*
X135334871Y-138400000D01*
X134665129Y-138400000D01*
X134008257Y-138269340D01*
X134008255Y-138269339D01*
X134008254Y-138269339D01*
X133389496Y-138013041D01*
X132832628Y-137640954D01*
X132359046Y-137167372D01*
X131986959Y-136610504D01*
X131730661Y-135991746D01*
X131652738Y-135600000D01*
X131600000Y-135334871D01*
X131600000Y-134665129D01*
X131730660Y-134008257D01*
X131864383Y-133685422D01*
X131986959Y-133389496D01*
X132359046Y-132832628D01*
X132832628Y-132359046D01*
X133389496Y-131986959D01*
X134008254Y-131730661D01*
X134008255Y-131730661D01*
X134008257Y-131730660D01*
X134665129Y-131600000D01*
X135334871Y-131600000D01*
X135991743Y-131730660D01*
X135991743Y-131730660D01*
G37*
G36*
X65991743Y-131730660D02*
X65991745Y-131730661D01*
X65991746Y-131730661D01*
X66610504Y-131986959D01*
X67167372Y-132359046D01*
X67640954Y-132832628D01*
X68013041Y-133389496D01*
X68135618Y-133685422D01*
X68269340Y-134008257D01*
X68400000Y-134665129D01*
X68400000Y-135334871D01*
X68347263Y-135600000D01*
X68269339Y-135991746D01*
X68013041Y-136610504D01*
X67640954Y-137167372D01*
X67167372Y-137640954D01*
X66610504Y-138013041D01*
X65991746Y-138269339D01*
X65991745Y-138269339D01*
X65991743Y-138269340D01*
X65334871Y-138400000D01*
X64665129Y-138400000D01*
X64008257Y-138269340D01*
X64008255Y-138269339D01*
X64008254Y-138269339D01*
X63389496Y-138013041D01*
X62832628Y-137640954D01*
X62359046Y-137167372D01*
X61986959Y-136610504D01*
X61730661Y-135991746D01*
X61652738Y-135600000D01*
X61600000Y-135334871D01*
X61600000Y-134665129D01*
X61730660Y-134008257D01*
X61864383Y-133685422D01*
X61986959Y-133389496D01*
X62359046Y-132832628D01*
X62832628Y-132359046D01*
X63389496Y-131986959D01*
X64008254Y-131730661D01*
X64008255Y-131730661D01*
X64008257Y-131730660D01*
X64665129Y-131600000D01*
X65334871Y-131600000D01*
X65991743Y-131730660D01*
X65991743Y-131730660D01*
G37*
G36*
X109047272Y-128961395D02*
X109085836Y-128965193D01*
X109283762Y-129025233D01*
X109466171Y-129122733D01*
X109626054Y-129253946D01*
X109757267Y-129413829D01*
X109854767Y-129596238D01*
X109914807Y-129794164D01*
X109914807Y-129794166D01*
X109935081Y-130000000D01*
X109918143Y-130171961D01*
X109914807Y-130205836D01*
X109854767Y-130403762D01*
X109757267Y-130586171D01*
X109626054Y-130746054D01*
X109466171Y-130877267D01*
X109283762Y-130974767D01*
X109085836Y-131034807D01*
X109047271Y-131038605D01*
X108931584Y-131050000D01*
X108828416Y-131050000D01*
X108712729Y-131038605D01*
X108674164Y-131034807D01*
X108476238Y-130974767D01*
X108293829Y-130877267D01*
X108133946Y-130746054D01*
X108002733Y-130586171D01*
X107905233Y-130403762D01*
X107845193Y-130205836D01*
X107841857Y-130171961D01*
X107824919Y-130000000D01*
X107845193Y-129794166D01*
X107845193Y-129794164D01*
X107905233Y-129596238D01*
X108002733Y-129413829D01*
X108133946Y-129253946D01*
X108293829Y-129122733D01*
X108476238Y-129025233D01*
X108674164Y-128965193D01*
X108712728Y-128961395D01*
X108828416Y-128950000D01*
X108931584Y-128950000D01*
X109047272Y-128961395D01*
X109047272Y-128961395D01*
G37*
G36*
X103967272Y-128961395D02*
X104005836Y-128965193D01*
X104203762Y-129025233D01*
X104386171Y-129122733D01*
X104546054Y-129253946D01*
X104677267Y-129413829D01*
X104774767Y-129596238D01*
X104834807Y-129794164D01*
X104834807Y-129794166D01*
X104855081Y-130000000D01*
X104838143Y-130171961D01*
X104834807Y-130205836D01*
X104774767Y-130403762D01*
X104677267Y-130586171D01*
X104546054Y-130746054D01*
X104386171Y-130877267D01*
X104203762Y-130974767D01*
X104005836Y-131034807D01*
X103967271Y-131038605D01*
X103851584Y-131050000D01*
X103748416Y-131050000D01*
X103632729Y-131038605D01*
X103594164Y-131034807D01*
X103396238Y-130974767D01*
X103213829Y-130877267D01*
X103053946Y-130746054D01*
X102922733Y-130586171D01*
X102825233Y-130403762D01*
X102765193Y-130205836D01*
X102761857Y-130171961D01*
X102744919Y-130000000D01*
X102765193Y-129794166D01*
X102765193Y-129794164D01*
X102825233Y-129596238D01*
X102922733Y-129413829D01*
X103053946Y-129253946D01*
X103213829Y-129122733D01*
X103396238Y-129025233D01*
X103594164Y-128965193D01*
X103632728Y-128961395D01*
X103748416Y-128950000D01*
X103851584Y-128950000D01*
X103967272Y-128961395D01*
X103967272Y-128961395D01*
G37*
G36*
X92150000Y-131050000D02*
X90050000Y-131050000D01*
X90050000Y-128950000D01*
X92150000Y-128950000D01*
X92150000Y-131050000D01*
X92150000Y-131050000D01*
G37*
G36*
X93807272Y-128961395D02*
X93845836Y-128965193D01*
X94043762Y-129025233D01*
X94226171Y-129122733D01*
X94386054Y-129253946D01*
X94517267Y-129413829D01*
X94614767Y-129596238D01*
X94674807Y-129794164D01*
X94674807Y-129794166D01*
X94695081Y-130000000D01*
X94678143Y-130171961D01*
X94674807Y-130205836D01*
X94614767Y-130403762D01*
X94517267Y-130586171D01*
X94386054Y-130746054D01*
X94226171Y-130877267D01*
X94043762Y-130974767D01*
X93845836Y-131034807D01*
X93807271Y-131038605D01*
X93691584Y-131050000D01*
X93588416Y-131050000D01*
X93472729Y-131038605D01*
X93434164Y-131034807D01*
X93236238Y-130974767D01*
X93053829Y-130877267D01*
X92893946Y-130746054D01*
X92762733Y-130586171D01*
X92665233Y-130403762D01*
X92605193Y-130205836D01*
X92601857Y-130171961D01*
X92584919Y-130000000D01*
X92605193Y-129794166D01*
X92605193Y-129794164D01*
X92665233Y-129596238D01*
X92762733Y-129413829D01*
X92893946Y-129253946D01*
X93053829Y-129122733D01*
X93236238Y-129025233D01*
X93434164Y-128965193D01*
X93472728Y-128961395D01*
X93588416Y-128950000D01*
X93691584Y-128950000D01*
X93807272Y-128961395D01*
X93807272Y-128961395D01*
G37*
G36*
X96347272Y-128961395D02*
X96385836Y-128965193D01*
X96583762Y-129025233D01*
X96766171Y-129122733D01*
X96926054Y-129253946D01*
X97057267Y-129413829D01*
X97154767Y-129596238D01*
X97214807Y-129794164D01*
X97214807Y-129794166D01*
X97235081Y-130000000D01*
X97218143Y-130171961D01*
X97214807Y-130205836D01*
X97154767Y-130403762D01*
X97057267Y-130586171D01*
X96926054Y-130746054D01*
X96766171Y-130877267D01*
X96583762Y-130974767D01*
X96385836Y-131034807D01*
X96347271Y-131038605D01*
X96231584Y-131050000D01*
X96128416Y-131050000D01*
X96012729Y-131038605D01*
X95974164Y-131034807D01*
X95776238Y-130974767D01*
X95593829Y-130877267D01*
X95433946Y-130746054D01*
X95302733Y-130586171D01*
X95205233Y-130403762D01*
X95145193Y-130205836D01*
X95141857Y-130171961D01*
X95124919Y-130000000D01*
X95145193Y-129794166D01*
X95145193Y-129794164D01*
X95205233Y-129596238D01*
X95302733Y-129413829D01*
X95433946Y-129253946D01*
X95593829Y-129122733D01*
X95776238Y-129025233D01*
X95974164Y-128965193D01*
X96012728Y-128961395D01*
X96128416Y-128950000D01*
X96231584Y-128950000D01*
X96347272Y-128961395D01*
X96347272Y-128961395D01*
G37*
G36*
X101427272Y-128961395D02*
X101465836Y-128965193D01*
X101663762Y-129025233D01*
X101846171Y-129122733D01*
X102006054Y-129253946D01*
X102137267Y-129413829D01*
X102234767Y-129596238D01*
X102294807Y-129794164D01*
X102294807Y-129794166D01*
X102315081Y-130000000D01*
X102298143Y-130171961D01*
X102294807Y-130205836D01*
X102234767Y-130403762D01*
X102137267Y-130586171D01*
X102006054Y-130746054D01*
X101846171Y-130877267D01*
X101663762Y-130974767D01*
X101465836Y-131034807D01*
X101427271Y-131038605D01*
X101311584Y-131050000D01*
X101208416Y-131050000D01*
X101092729Y-131038605D01*
X101054164Y-131034807D01*
X100856238Y-130974767D01*
X100673829Y-130877267D01*
X100513946Y-130746054D01*
X100382733Y-130586171D01*
X100285233Y-130403762D01*
X100225193Y-130205836D01*
X100221857Y-130171961D01*
X100204919Y-130000000D01*
X100225193Y-129794166D01*
X100225193Y-129794164D01*
X100285233Y-129596238D01*
X100382733Y-129413829D01*
X100513946Y-129253946D01*
X100673829Y-129122733D01*
X100856238Y-129025233D01*
X101054164Y-128965193D01*
X101092728Y-128961395D01*
X101208416Y-128950000D01*
X101311584Y-128950000D01*
X101427272Y-128961395D01*
X101427272Y-128961395D01*
G37*
G36*
X106507272Y-128961395D02*
X106545836Y-128965193D01*
X106743762Y-129025233D01*
X106926171Y-129122733D01*
X107086054Y-129253946D01*
X107217267Y-129413829D01*
X107314767Y-129596238D01*
X107374807Y-129794164D01*
X107374807Y-129794166D01*
X107395081Y-130000000D01*
X107378143Y-130171961D01*
X107374807Y-130205836D01*
X107314767Y-130403762D01*
X107217267Y-130586171D01*
X107086054Y-130746054D01*
X106926171Y-130877267D01*
X106743762Y-130974767D01*
X106545836Y-131034807D01*
X106507271Y-131038605D01*
X106391584Y-131050000D01*
X106288416Y-131050000D01*
X106172729Y-131038605D01*
X106134164Y-131034807D01*
X105936238Y-130974767D01*
X105753829Y-130877267D01*
X105593946Y-130746054D01*
X105462733Y-130586171D01*
X105365233Y-130403762D01*
X105305193Y-130205836D01*
X105301857Y-130171961D01*
X105284919Y-130000000D01*
X105305193Y-129794166D01*
X105305193Y-129794164D01*
X105365233Y-129596238D01*
X105462733Y-129413829D01*
X105593946Y-129253946D01*
X105753829Y-129122733D01*
X105936238Y-129025233D01*
X106134164Y-128965193D01*
X106172728Y-128961395D01*
X106288416Y-128950000D01*
X106391584Y-128950000D01*
X106507272Y-128961395D01*
X106507272Y-128961395D01*
G37*
G36*
X98887272Y-128961395D02*
X98925836Y-128965193D01*
X99123762Y-129025233D01*
X99306171Y-129122733D01*
X99466054Y-129253946D01*
X99597267Y-129413829D01*
X99694767Y-129596238D01*
X99754807Y-129794164D01*
X99754807Y-129794166D01*
X99775081Y-130000000D01*
X99758143Y-130171961D01*
X99754807Y-130205836D01*
X99694767Y-130403762D01*
X99597267Y-130586171D01*
X99466054Y-130746054D01*
X99306171Y-130877267D01*
X99123762Y-130974767D01*
X98925836Y-131034807D01*
X98887271Y-131038605D01*
X98771584Y-131050000D01*
X98668416Y-131050000D01*
X98552729Y-131038605D01*
X98514164Y-131034807D01*
X98316238Y-130974767D01*
X98133829Y-130877267D01*
X97973946Y-130746054D01*
X97842733Y-130586171D01*
X97745233Y-130403762D01*
X97685193Y-130205836D01*
X97681857Y-130171961D01*
X97664919Y-130000000D01*
X97685193Y-129794166D01*
X97685193Y-129794164D01*
X97745233Y-129596238D01*
X97842733Y-129413829D01*
X97973946Y-129253946D01*
X98133829Y-129122733D01*
X98316238Y-129025233D01*
X98514164Y-128965193D01*
X98552728Y-128961395D01*
X98668416Y-128950000D01*
X98771584Y-128950000D01*
X98887272Y-128961395D01*
X98887272Y-128961395D01*
G37*
G36*
X109047271Y-126421395D02*
X109085836Y-126425193D01*
X109283762Y-126485233D01*
X109466171Y-126582733D01*
X109626054Y-126713946D01*
X109757267Y-126873829D01*
X109854767Y-127056238D01*
X109914807Y-127254164D01*
X109914807Y-127254166D01*
X109935081Y-127460000D01*
X109918143Y-127631961D01*
X109914807Y-127665836D01*
X109854767Y-127863762D01*
X109757267Y-128046171D01*
X109626054Y-128206054D01*
X109466171Y-128337267D01*
X109283762Y-128434767D01*
X109085836Y-128494807D01*
X109047272Y-128498605D01*
X108931584Y-128510000D01*
X108828416Y-128510000D01*
X108712728Y-128498605D01*
X108674164Y-128494807D01*
X108476238Y-128434767D01*
X108293829Y-128337267D01*
X108133946Y-128206054D01*
X108002733Y-128046171D01*
X107905233Y-127863762D01*
X107845193Y-127665836D01*
X107841857Y-127631961D01*
X107824919Y-127460000D01*
X107845193Y-127254166D01*
X107845193Y-127254164D01*
X107905233Y-127056238D01*
X108002733Y-126873829D01*
X108133946Y-126713946D01*
X108293829Y-126582733D01*
X108476238Y-126485233D01*
X108674164Y-126425193D01*
X108712729Y-126421395D01*
X108828416Y-126410000D01*
X108931584Y-126410000D01*
X109047271Y-126421395D01*
X109047271Y-126421395D01*
G37*
G36*
X106507271Y-126421395D02*
X106545836Y-126425193D01*
X106743762Y-126485233D01*
X106926171Y-126582733D01*
X107086054Y-126713946D01*
X107217267Y-126873829D01*
X107314767Y-127056238D01*
X107374807Y-127254164D01*
X107374807Y-127254166D01*
X107395081Y-127460000D01*
X107378143Y-127631961D01*
X107374807Y-127665836D01*
X107314767Y-127863762D01*
X107217267Y-128046171D01*
X107086054Y-128206054D01*
X106926171Y-128337267D01*
X106743762Y-128434767D01*
X106545836Y-128494807D01*
X106507272Y-128498605D01*
X106391584Y-128510000D01*
X106288416Y-128510000D01*
X106172728Y-128498605D01*
X106134164Y-128494807D01*
X105936238Y-128434767D01*
X105753829Y-128337267D01*
X105593946Y-128206054D01*
X105462733Y-128046171D01*
X105365233Y-127863762D01*
X105305193Y-127665836D01*
X105301857Y-127631961D01*
X105284919Y-127460000D01*
X105305193Y-127254166D01*
X105305193Y-127254164D01*
X105365233Y-127056238D01*
X105462733Y-126873829D01*
X105593946Y-126713946D01*
X105753829Y-126582733D01*
X105936238Y-126485233D01*
X106134164Y-126425193D01*
X106172729Y-126421395D01*
X106288416Y-126410000D01*
X106391584Y-126410000D01*
X106507271Y-126421395D01*
X106507271Y-126421395D01*
G37*
G36*
X103967271Y-126421395D02*
X104005836Y-126425193D01*
X104203762Y-126485233D01*
X104386171Y-126582733D01*
X104546054Y-126713946D01*
X104677267Y-126873829D01*
X104774767Y-127056238D01*
X104834807Y-127254164D01*
X104834807Y-127254166D01*
X104855081Y-127460000D01*
X104838143Y-127631961D01*
X104834807Y-127665836D01*
X104774767Y-127863762D01*
X104677267Y-128046171D01*
X104546054Y-128206054D01*
X104386171Y-128337267D01*
X104203762Y-128434767D01*
X104005836Y-128494807D01*
X103967272Y-128498605D01*
X103851584Y-128510000D01*
X103748416Y-128510000D01*
X103632728Y-128498605D01*
X103594164Y-128494807D01*
X103396238Y-128434767D01*
X103213829Y-128337267D01*
X103053946Y-128206054D01*
X102922733Y-128046171D01*
X102825233Y-127863762D01*
X102765193Y-127665836D01*
X102761857Y-127631961D01*
X102744919Y-127460000D01*
X102765193Y-127254166D01*
X102765193Y-127254164D01*
X102825233Y-127056238D01*
X102922733Y-126873829D01*
X103053946Y-126713946D01*
X103213829Y-126582733D01*
X103396238Y-126485233D01*
X103594164Y-126425193D01*
X103632729Y-126421395D01*
X103748416Y-126410000D01*
X103851584Y-126410000D01*
X103967271Y-126421395D01*
X103967271Y-126421395D01*
G37*
G36*
X101427271Y-126421395D02*
X101465836Y-126425193D01*
X101663762Y-126485233D01*
X101846171Y-126582733D01*
X102006054Y-126713946D01*
X102137267Y-126873829D01*
X102234767Y-127056238D01*
X102294807Y-127254164D01*
X102294807Y-127254166D01*
X102315081Y-127460000D01*
X102298143Y-127631961D01*
X102294807Y-127665836D01*
X102234767Y-127863762D01*
X102137267Y-128046171D01*
X102006054Y-128206054D01*
X101846171Y-128337267D01*
X101663762Y-128434767D01*
X101465836Y-128494807D01*
X101427272Y-128498605D01*
X101311584Y-128510000D01*
X101208416Y-128510000D01*
X101092728Y-128498605D01*
X101054164Y-128494807D01*
X100856238Y-128434767D01*
X100673829Y-128337267D01*
X100513946Y-128206054D01*
X100382733Y-128046171D01*
X100285233Y-127863762D01*
X100225193Y-127665836D01*
X100221857Y-127631961D01*
X100204919Y-127460000D01*
X100225193Y-127254166D01*
X100225193Y-127254164D01*
X100285233Y-127056238D01*
X100382733Y-126873829D01*
X100513946Y-126713946D01*
X100673829Y-126582733D01*
X100856238Y-126485233D01*
X101054164Y-126425193D01*
X101092729Y-126421395D01*
X101208416Y-126410000D01*
X101311584Y-126410000D01*
X101427271Y-126421395D01*
X101427271Y-126421395D01*
G37*
G36*
X98887271Y-126421395D02*
X98925836Y-126425193D01*
X99123762Y-126485233D01*
X99306171Y-126582733D01*
X99466054Y-126713946D01*
X99597267Y-126873829D01*
X99694767Y-127056238D01*
X99754807Y-127254164D01*
X99754807Y-127254166D01*
X99775081Y-127460000D01*
X99758143Y-127631961D01*
X99754807Y-127665836D01*
X99694767Y-127863762D01*
X99597267Y-128046171D01*
X99466054Y-128206054D01*
X99306171Y-128337267D01*
X99123762Y-128434767D01*
X98925836Y-128494807D01*
X98887272Y-128498605D01*
X98771584Y-128510000D01*
X98668416Y-128510000D01*
X98552728Y-128498605D01*
X98514164Y-128494807D01*
X98316238Y-128434767D01*
X98133829Y-128337267D01*
X97973946Y-128206054D01*
X97842733Y-128046171D01*
X97745233Y-127863762D01*
X97685193Y-127665836D01*
X97681857Y-127631961D01*
X97664919Y-127460000D01*
X97685193Y-127254166D01*
X97685193Y-127254164D01*
X97745233Y-127056238D01*
X97842733Y-126873829D01*
X97973946Y-126713946D01*
X98133829Y-126582733D01*
X98316238Y-126485233D01*
X98514164Y-126425193D01*
X98552729Y-126421395D01*
X98668416Y-126410000D01*
X98771584Y-126410000D01*
X98887271Y-126421395D01*
X98887271Y-126421395D01*
G37*
G36*
X96347271Y-126421395D02*
X96385836Y-126425193D01*
X96583762Y-126485233D01*
X96766171Y-126582733D01*
X96926054Y-126713946D01*
X97057267Y-126873829D01*
X97154767Y-127056238D01*
X97214807Y-127254164D01*
X97214807Y-127254166D01*
X97235081Y-127460000D01*
X97218143Y-127631961D01*
X97214807Y-127665836D01*
X97154767Y-127863762D01*
X97057267Y-128046171D01*
X96926054Y-128206054D01*
X96766171Y-128337267D01*
X96583762Y-128434767D01*
X96385836Y-128494807D01*
X96347272Y-128498605D01*
X96231584Y-128510000D01*
X96128416Y-128510000D01*
X96012728Y-128498605D01*
X95974164Y-128494807D01*
X95776238Y-128434767D01*
X95593829Y-128337267D01*
X95433946Y-128206054D01*
X95302733Y-128046171D01*
X95205233Y-127863762D01*
X95145193Y-127665836D01*
X95141857Y-127631961D01*
X95124919Y-127460000D01*
X95145193Y-127254166D01*
X95145193Y-127254164D01*
X95205233Y-127056238D01*
X95302733Y-126873829D01*
X95433946Y-126713946D01*
X95593829Y-126582733D01*
X95776238Y-126485233D01*
X95974164Y-126425193D01*
X96012729Y-126421395D01*
X96128416Y-126410000D01*
X96231584Y-126410000D01*
X96347271Y-126421395D01*
X96347271Y-126421395D01*
G37*
G36*
X93807271Y-126421395D02*
X93845836Y-126425193D01*
X94043762Y-126485233D01*
X94226171Y-126582733D01*
X94386054Y-126713946D01*
X94517267Y-126873829D01*
X94614767Y-127056238D01*
X94674807Y-127254164D01*
X94674807Y-127254166D01*
X94695081Y-127460000D01*
X94678143Y-127631961D01*
X94674807Y-127665836D01*
X94614767Y-127863762D01*
X94517267Y-128046171D01*
X94386054Y-128206054D01*
X94226171Y-128337267D01*
X94043762Y-128434767D01*
X93845836Y-128494807D01*
X93807272Y-128498605D01*
X93691584Y-128510000D01*
X93588416Y-128510000D01*
X93472728Y-128498605D01*
X93434164Y-128494807D01*
X93236238Y-128434767D01*
X93053829Y-128337267D01*
X92893946Y-128206054D01*
X92762733Y-128046171D01*
X92665233Y-127863762D01*
X92605193Y-127665836D01*
X92601857Y-127631961D01*
X92584919Y-127460000D01*
X92605193Y-127254166D01*
X92605193Y-127254164D01*
X92665233Y-127056238D01*
X92762733Y-126873829D01*
X92893946Y-126713946D01*
X93053829Y-126582733D01*
X93236238Y-126485233D01*
X93434164Y-126425193D01*
X93472729Y-126421395D01*
X93588416Y-126410000D01*
X93691584Y-126410000D01*
X93807271Y-126421395D01*
X93807271Y-126421395D01*
G37*
G36*
X91267271Y-126421395D02*
X91305836Y-126425193D01*
X91503762Y-126485233D01*
X91686171Y-126582733D01*
X91846054Y-126713946D01*
X91977267Y-126873829D01*
X92074767Y-127056238D01*
X92134807Y-127254164D01*
X92134807Y-127254166D01*
X92155081Y-127460000D01*
X92138143Y-127631961D01*
X92134807Y-127665836D01*
X92074767Y-127863762D01*
X91977267Y-128046171D01*
X91846054Y-128206054D01*
X91686171Y-128337267D01*
X91503762Y-128434767D01*
X91305836Y-128494807D01*
X91267272Y-128498605D01*
X91151584Y-128510000D01*
X91048416Y-128510000D01*
X90932728Y-128498605D01*
X90894164Y-128494807D01*
X90696238Y-128434767D01*
X90513829Y-128337267D01*
X90353946Y-128206054D01*
X90222733Y-128046171D01*
X90125233Y-127863762D01*
X90065193Y-127665836D01*
X90061857Y-127631961D01*
X90044919Y-127460000D01*
X90065193Y-127254166D01*
X90065193Y-127254164D01*
X90125233Y-127056238D01*
X90222733Y-126873829D01*
X90353946Y-126713946D01*
X90513829Y-126582733D01*
X90696238Y-126485233D01*
X90894164Y-126425193D01*
X90932729Y-126421395D01*
X91048416Y-126410000D01*
X91151584Y-126410000D01*
X91267271Y-126421395D01*
X91267271Y-126421395D01*
G37*
G36*
X120567272Y-125881395D02*
X120605836Y-125885193D01*
X120803762Y-125945233D01*
X120986171Y-126042733D01*
X121146054Y-126173946D01*
X121277267Y-126333829D01*
X121374767Y-126516238D01*
X121434807Y-126714164D01*
X121434807Y-126714166D01*
X121455081Y-126920000D01*
X121441662Y-127056238D01*
X121434807Y-127125836D01*
X121374767Y-127323762D01*
X121277267Y-127506171D01*
X121146054Y-127666054D01*
X120986171Y-127797267D01*
X120803762Y-127894767D01*
X120605836Y-127954807D01*
X120567272Y-127958605D01*
X120451584Y-127970000D01*
X120348416Y-127970000D01*
X120232728Y-127958605D01*
X120194164Y-127954807D01*
X119996238Y-127894767D01*
X119813829Y-127797267D01*
X119653946Y-127666054D01*
X119522733Y-127506171D01*
X119425233Y-127323762D01*
X119365193Y-127125836D01*
X119358338Y-127056238D01*
X119344919Y-126920000D01*
X119365193Y-126714166D01*
X119365193Y-126714164D01*
X119425233Y-126516238D01*
X119522733Y-126333829D01*
X119653946Y-126173946D01*
X119813829Y-126042733D01*
X119996238Y-125945233D01*
X120194164Y-125885193D01*
X120232728Y-125881395D01*
X120348416Y-125870000D01*
X120451584Y-125870000D01*
X120567272Y-125881395D01*
X120567272Y-125881395D01*
G37*
G36*
X120567272Y-123341395D02*
X120605836Y-123345193D01*
X120803762Y-123405233D01*
X120986171Y-123502733D01*
X121146054Y-123633946D01*
X121277267Y-123793829D01*
X121374767Y-123976238D01*
X121434807Y-124174164D01*
X121434807Y-124174166D01*
X121455081Y-124380000D01*
X121438143Y-124551961D01*
X121434807Y-124585836D01*
X121374767Y-124783762D01*
X121277267Y-124966171D01*
X121146054Y-125126054D01*
X120986171Y-125257267D01*
X120803762Y-125354767D01*
X120605836Y-125414807D01*
X120567271Y-125418605D01*
X120451584Y-125430000D01*
X120348416Y-125430000D01*
X120232729Y-125418605D01*
X120194164Y-125414807D01*
X119996238Y-125354767D01*
X119813829Y-125257267D01*
X119653946Y-125126054D01*
X119522733Y-124966171D01*
X119425233Y-124783762D01*
X119365193Y-124585836D01*
X119361857Y-124551961D01*
X119344919Y-124380000D01*
X119365193Y-124174166D01*
X119365193Y-124174164D01*
X119425233Y-123976238D01*
X119522733Y-123793829D01*
X119653946Y-123633946D01*
X119813829Y-123502733D01*
X119996238Y-123405233D01*
X120194164Y-123345193D01*
X120232728Y-123341395D01*
X120348416Y-123330000D01*
X120451584Y-123330000D01*
X120567272Y-123341395D01*
X120567272Y-123341395D01*
G37*
G36*
X120567272Y-120801395D02*
X120605836Y-120805193D01*
X120803762Y-120865233D01*
X120986171Y-120962733D01*
X121146054Y-121093946D01*
X121277267Y-121253829D01*
X121374767Y-121436238D01*
X121434807Y-121634164D01*
X121434807Y-121634166D01*
X121455081Y-121840000D01*
X121438143Y-122011961D01*
X121434807Y-122045836D01*
X121374767Y-122243762D01*
X121277267Y-122426171D01*
X121146054Y-122586054D01*
X120986171Y-122717267D01*
X120803762Y-122814767D01*
X120605836Y-122874807D01*
X120567272Y-122878605D01*
X120451584Y-122890000D01*
X120348416Y-122890000D01*
X120232728Y-122878605D01*
X120194164Y-122874807D01*
X119996238Y-122814767D01*
X119813829Y-122717267D01*
X119653946Y-122586054D01*
X119522733Y-122426171D01*
X119425233Y-122243762D01*
X119365193Y-122045836D01*
X119361857Y-122011961D01*
X119344919Y-121840000D01*
X119365193Y-121634166D01*
X119365193Y-121634164D01*
X119425233Y-121436238D01*
X119522733Y-121253829D01*
X119653946Y-121093946D01*
X119813829Y-120962733D01*
X119996238Y-120865233D01*
X120194164Y-120805193D01*
X120232728Y-120801395D01*
X120348416Y-120790000D01*
X120451584Y-120790000D01*
X120567272Y-120801395D01*
X120567272Y-120801395D01*
G37*
G36*
X121450000Y-120350000D02*
X119350000Y-120350000D01*
X119350000Y-118250000D01*
X121450000Y-118250000D01*
X121450000Y-120350000D01*
X121450000Y-120350000D01*
G37*
G36*
X101525000Y-117450000D02*
X100375000Y-117450000D01*
X100875000Y-116700000D01*
X100375000Y-115950000D01*
X101525000Y-115950000D01*
X101525000Y-117450000D01*
X101525000Y-117450000D01*
G37*
G36*
X100575000Y-116700000D02*
X100075000Y-117450000D01*
X99075000Y-117450000D01*
X99075000Y-115950000D01*
X100075000Y-115950000D01*
X100575000Y-116700000D01*
X100575000Y-116700000D01*
G37*
G36*
X131050000Y-115050000D02*
X128950000Y-115050000D01*
X128950000Y-112950000D01*
X131050000Y-112950000D01*
X131050000Y-115050000D01*
X131050000Y-115050000D01*
G37*
G36*
X127627272Y-112961395D02*
X127665836Y-112965193D01*
X127863762Y-113025233D01*
X128046171Y-113122733D01*
X128206054Y-113253946D01*
X128337267Y-113413829D01*
X128434767Y-113596238D01*
X128494807Y-113794164D01*
X128494807Y-113794166D01*
X128515081Y-114000000D01*
X128498143Y-114171961D01*
X128494807Y-114205836D01*
X128434767Y-114403762D01*
X128337267Y-114586171D01*
X128206054Y-114746054D01*
X128046171Y-114877267D01*
X127863762Y-114974767D01*
X127665836Y-115034807D01*
X127627272Y-115038605D01*
X127511584Y-115050000D01*
X127408416Y-115050000D01*
X127292728Y-115038605D01*
X127254164Y-115034807D01*
X127056238Y-114974767D01*
X126873829Y-114877267D01*
X126713946Y-114746054D01*
X126582733Y-114586171D01*
X126485233Y-114403762D01*
X126425193Y-114205836D01*
X126421857Y-114171961D01*
X126404919Y-114000000D01*
X126425193Y-113794166D01*
X126425193Y-113794164D01*
X126485233Y-113596238D01*
X126582733Y-113413829D01*
X126713946Y-113253946D01*
X126873829Y-113122733D01*
X127056238Y-113025233D01*
X127254164Y-112965193D01*
X127292728Y-112961395D01*
X127408416Y-112950000D01*
X127511584Y-112950000D01*
X127627272Y-112961395D01*
X127627272Y-112961395D01*
G37*
G36*
X70167272Y-112901395D02*
X70205836Y-112905193D01*
X70403762Y-112965233D01*
X70586171Y-113062733D01*
X70746054Y-113193946D01*
X70877267Y-113353829D01*
X70974767Y-113536238D01*
X71034807Y-113734164D01*
X71034807Y-113734166D01*
X71055081Y-113940000D01*
X71049171Y-114000000D01*
X71034807Y-114145836D01*
X70974767Y-114343762D01*
X70877267Y-114526171D01*
X70746054Y-114686054D01*
X70586171Y-114817267D01*
X70403762Y-114914767D01*
X70205836Y-114974807D01*
X70167272Y-114978605D01*
X70051584Y-114990000D01*
X69948416Y-114990000D01*
X69832728Y-114978605D01*
X69794164Y-114974807D01*
X69596238Y-114914767D01*
X69413829Y-114817267D01*
X69253946Y-114686054D01*
X69122733Y-114526171D01*
X69025233Y-114343762D01*
X68965193Y-114145836D01*
X68950829Y-114000000D01*
X68944919Y-113940000D01*
X68965193Y-113734166D01*
X68965193Y-113734164D01*
X69025233Y-113536238D01*
X69122733Y-113353829D01*
X69253946Y-113193946D01*
X69413829Y-113062733D01*
X69596238Y-112965233D01*
X69794164Y-112905193D01*
X69832728Y-112901395D01*
X69948416Y-112890000D01*
X70051584Y-112890000D01*
X70167272Y-112901395D01*
X70167272Y-112901395D01*
G37*
G36*
X72707272Y-112901395D02*
X72745836Y-112905193D01*
X72943762Y-112965233D01*
X73126171Y-113062733D01*
X73286054Y-113193946D01*
X73417267Y-113353829D01*
X73514767Y-113536238D01*
X73574807Y-113734164D01*
X73574807Y-113734166D01*
X73595081Y-113940000D01*
X73589171Y-114000000D01*
X73574807Y-114145836D01*
X73514767Y-114343762D01*
X73417267Y-114526171D01*
X73286054Y-114686054D01*
X73126171Y-114817267D01*
X72943762Y-114914767D01*
X72745836Y-114974807D01*
X72707272Y-114978605D01*
X72591584Y-114990000D01*
X72488416Y-114990000D01*
X72372728Y-114978605D01*
X72334164Y-114974807D01*
X72136238Y-114914767D01*
X71953829Y-114817267D01*
X71793946Y-114686054D01*
X71662733Y-114526171D01*
X71565233Y-114343762D01*
X71505193Y-114145836D01*
X71490829Y-114000000D01*
X71484919Y-113940000D01*
X71505193Y-113734166D01*
X71505193Y-113734164D01*
X71565233Y-113536238D01*
X71662733Y-113353829D01*
X71793946Y-113193946D01*
X71953829Y-113062733D01*
X72136238Y-112965233D01*
X72334164Y-112905193D01*
X72372728Y-112901395D01*
X72488416Y-112890000D01*
X72591584Y-112890000D01*
X72707272Y-112901395D01*
X72707272Y-112901395D01*
G37*
G36*
X106450000Y-113100000D02*
X93550000Y-113100000D01*
X93550000Y-110200000D01*
X106450000Y-110200000D01*
X106450000Y-113100000D01*
X106450000Y-113100000D01*
G37*
G36*
X130167272Y-110421395D02*
X130205836Y-110425193D01*
X130403762Y-110485233D01*
X130586171Y-110582733D01*
X130746054Y-110713946D01*
X130877267Y-110873829D01*
X130974767Y-111056238D01*
X131034807Y-111254164D01*
X131034807Y-111254166D01*
X131055081Y-111460000D01*
X131038143Y-111631961D01*
X131034807Y-111665836D01*
X130974767Y-111863762D01*
X130877267Y-112046171D01*
X130746054Y-112206054D01*
X130586171Y-112337267D01*
X130403762Y-112434767D01*
X130205836Y-112494807D01*
X130167272Y-112498605D01*
X130051584Y-112510000D01*
X129948416Y-112510000D01*
X129832728Y-112498605D01*
X129794164Y-112494807D01*
X129596238Y-112434767D01*
X129413829Y-112337267D01*
X129253946Y-112206054D01*
X129122733Y-112046171D01*
X129025233Y-111863762D01*
X128965193Y-111665836D01*
X128961857Y-111631961D01*
X128944919Y-111460000D01*
X128965193Y-111254166D01*
X128965193Y-111254164D01*
X129025233Y-111056238D01*
X129122733Y-110873829D01*
X129253946Y-110713946D01*
X129413829Y-110582733D01*
X129596238Y-110485233D01*
X129794164Y-110425193D01*
X129832728Y-110421395D01*
X129948416Y-110410000D01*
X130051584Y-110410000D01*
X130167272Y-110421395D01*
X130167272Y-110421395D01*
G37*
G36*
X127627272Y-110421395D02*
X127665836Y-110425193D01*
X127863762Y-110485233D01*
X128046171Y-110582733D01*
X128206054Y-110713946D01*
X128337267Y-110873829D01*
X128434767Y-111056238D01*
X128494807Y-111254164D01*
X128494807Y-111254166D01*
X128515081Y-111460000D01*
X128498143Y-111631961D01*
X128494807Y-111665836D01*
X128434767Y-111863762D01*
X128337267Y-112046171D01*
X128206054Y-112206054D01*
X128046171Y-112337267D01*
X127863762Y-112434767D01*
X127665836Y-112494807D01*
X127627272Y-112498605D01*
X127511584Y-112510000D01*
X127408416Y-112510000D01*
X127292728Y-112498605D01*
X127254164Y-112494807D01*
X127056238Y-112434767D01*
X126873829Y-112337267D01*
X126713946Y-112206054D01*
X126582733Y-112046171D01*
X126485233Y-111863762D01*
X126425193Y-111665836D01*
X126421857Y-111631961D01*
X126404919Y-111460000D01*
X126425193Y-111254166D01*
X126425193Y-111254164D01*
X126485233Y-111056238D01*
X126582733Y-110873829D01*
X126713946Y-110713946D01*
X126873829Y-110582733D01*
X127056238Y-110485233D01*
X127254164Y-110425193D01*
X127292728Y-110421395D01*
X127408416Y-110410000D01*
X127511584Y-110410000D01*
X127627272Y-110421395D01*
X127627272Y-110421395D01*
G37*
G36*
X70167271Y-110361395D02*
X70205836Y-110365193D01*
X70403762Y-110425233D01*
X70586171Y-110522733D01*
X70746054Y-110653946D01*
X70877267Y-110813829D01*
X70974767Y-110996238D01*
X71034807Y-111194164D01*
X71034807Y-111194166D01*
X71055081Y-111400000D01*
X71049171Y-111460000D01*
X71034807Y-111605836D01*
X70974767Y-111803762D01*
X70877267Y-111986171D01*
X70746054Y-112146054D01*
X70586171Y-112277267D01*
X70403762Y-112374767D01*
X70205836Y-112434807D01*
X70167272Y-112438605D01*
X70051584Y-112450000D01*
X69948416Y-112450000D01*
X69832728Y-112438605D01*
X69794164Y-112434807D01*
X69596238Y-112374767D01*
X69413829Y-112277267D01*
X69253946Y-112146054D01*
X69122733Y-111986171D01*
X69025233Y-111803762D01*
X68965193Y-111605836D01*
X68950829Y-111460000D01*
X68944919Y-111400000D01*
X68965193Y-111194166D01*
X68965193Y-111194164D01*
X69025233Y-110996238D01*
X69122733Y-110813829D01*
X69253946Y-110653946D01*
X69413829Y-110522733D01*
X69596238Y-110425233D01*
X69794164Y-110365193D01*
X69832729Y-110361395D01*
X69948416Y-110350000D01*
X70051584Y-110350000D01*
X70167271Y-110361395D01*
X70167271Y-110361395D01*
G37*
G36*
X72707271Y-110361395D02*
X72745836Y-110365193D01*
X72943762Y-110425233D01*
X73126171Y-110522733D01*
X73286054Y-110653946D01*
X73417267Y-110813829D01*
X73514767Y-110996238D01*
X73574807Y-111194164D01*
X73574807Y-111194166D01*
X73595081Y-111400000D01*
X73589171Y-111460000D01*
X73574807Y-111605836D01*
X73514767Y-111803762D01*
X73417267Y-111986171D01*
X73286054Y-112146054D01*
X73126171Y-112277267D01*
X72943762Y-112374767D01*
X72745836Y-112434807D01*
X72707272Y-112438605D01*
X72591584Y-112450000D01*
X72488416Y-112450000D01*
X72372728Y-112438605D01*
X72334164Y-112434807D01*
X72136238Y-112374767D01*
X71953829Y-112277267D01*
X71793946Y-112146054D01*
X71662733Y-111986171D01*
X71565233Y-111803762D01*
X71505193Y-111605836D01*
X71490829Y-111460000D01*
X71484919Y-111400000D01*
X71505193Y-111194166D01*
X71505193Y-111194164D01*
X71565233Y-110996238D01*
X71662733Y-110813829D01*
X71793946Y-110653946D01*
X71953829Y-110522733D01*
X72136238Y-110425233D01*
X72334164Y-110365193D01*
X72372729Y-110361395D01*
X72488416Y-110350000D01*
X72591584Y-110350000D01*
X72707271Y-110361395D01*
X72707271Y-110361395D01*
G37*
G36*
X127627272Y-107881395D02*
X127665836Y-107885193D01*
X127863762Y-107945233D01*
X128046171Y-108042733D01*
X128206054Y-108173946D01*
X128337267Y-108333829D01*
X128434767Y-108516238D01*
X128494807Y-108714164D01*
X128494807Y-108714166D01*
X128515081Y-108920000D01*
X128498143Y-109091961D01*
X128494807Y-109125836D01*
X128434767Y-109323762D01*
X128337267Y-109506171D01*
X128206054Y-109666054D01*
X128046171Y-109797267D01*
X127863762Y-109894767D01*
X127665836Y-109954807D01*
X127627272Y-109958605D01*
X127511584Y-109970000D01*
X127408416Y-109970000D01*
X127292728Y-109958605D01*
X127254164Y-109954807D01*
X127056238Y-109894767D01*
X126873829Y-109797267D01*
X126713946Y-109666054D01*
X126582733Y-109506171D01*
X126485233Y-109323762D01*
X126425193Y-109125836D01*
X126421857Y-109091961D01*
X126404919Y-108920000D01*
X126425193Y-108714166D01*
X126425193Y-108714164D01*
X126485233Y-108516238D01*
X126582733Y-108333829D01*
X126713946Y-108173946D01*
X126873829Y-108042733D01*
X127056238Y-107945233D01*
X127254164Y-107885193D01*
X127292728Y-107881395D01*
X127408416Y-107870000D01*
X127511584Y-107870000D01*
X127627272Y-107881395D01*
X127627272Y-107881395D01*
G37*
G36*
X130167272Y-107881395D02*
X130205836Y-107885193D01*
X130403762Y-107945233D01*
X130586171Y-108042733D01*
X130746054Y-108173946D01*
X130877267Y-108333829D01*
X130974767Y-108516238D01*
X131034807Y-108714164D01*
X131034807Y-108714166D01*
X131055081Y-108920000D01*
X131038143Y-109091961D01*
X131034807Y-109125836D01*
X130974767Y-109323762D01*
X130877267Y-109506171D01*
X130746054Y-109666054D01*
X130586171Y-109797267D01*
X130403762Y-109894767D01*
X130205836Y-109954807D01*
X130167272Y-109958605D01*
X130051584Y-109970000D01*
X129948416Y-109970000D01*
X129832728Y-109958605D01*
X129794164Y-109954807D01*
X129596238Y-109894767D01*
X129413829Y-109797267D01*
X129253946Y-109666054D01*
X129122733Y-109506171D01*
X129025233Y-109323762D01*
X128965193Y-109125836D01*
X128961857Y-109091961D01*
X128944919Y-108920000D01*
X128965193Y-108714166D01*
X128965193Y-108714164D01*
X129025233Y-108516238D01*
X129122733Y-108333829D01*
X129253946Y-108173946D01*
X129413829Y-108042733D01*
X129596238Y-107945233D01*
X129794164Y-107885193D01*
X129832728Y-107881395D01*
X129948416Y-107870000D01*
X130051584Y-107870000D01*
X130167272Y-107881395D01*
X130167272Y-107881395D01*
G37*
G36*
X70167272Y-107821395D02*
X70205836Y-107825193D01*
X70403762Y-107885233D01*
X70586171Y-107982733D01*
X70746054Y-108113946D01*
X70877267Y-108273829D01*
X70974767Y-108456238D01*
X71034807Y-108654164D01*
X71034807Y-108654166D01*
X71055081Y-108860000D01*
X71049171Y-108920000D01*
X71034807Y-109065836D01*
X70974767Y-109263762D01*
X70877267Y-109446171D01*
X70746054Y-109606054D01*
X70586171Y-109737267D01*
X70403762Y-109834767D01*
X70205836Y-109894807D01*
X70167271Y-109898605D01*
X70051584Y-109910000D01*
X69948416Y-109910000D01*
X69832729Y-109898605D01*
X69794164Y-109894807D01*
X69596238Y-109834767D01*
X69413829Y-109737267D01*
X69253946Y-109606054D01*
X69122733Y-109446171D01*
X69025233Y-109263762D01*
X68965193Y-109065836D01*
X68950829Y-108920000D01*
X68944919Y-108860000D01*
X68965193Y-108654166D01*
X68965193Y-108654164D01*
X69025233Y-108456238D01*
X69122733Y-108273829D01*
X69253946Y-108113946D01*
X69413829Y-107982733D01*
X69596238Y-107885233D01*
X69794164Y-107825193D01*
X69832728Y-107821395D01*
X69948416Y-107810000D01*
X70051584Y-107810000D01*
X70167272Y-107821395D01*
X70167272Y-107821395D01*
G37*
G36*
X72707272Y-107821395D02*
X72745836Y-107825193D01*
X72943762Y-107885233D01*
X73126171Y-107982733D01*
X73286054Y-108113946D01*
X73417267Y-108273829D01*
X73514767Y-108456238D01*
X73574807Y-108654164D01*
X73574807Y-108654166D01*
X73595081Y-108860000D01*
X73589171Y-108920000D01*
X73574807Y-109065836D01*
X73514767Y-109263762D01*
X73417267Y-109446171D01*
X73286054Y-109606054D01*
X73126171Y-109737267D01*
X72943762Y-109834767D01*
X72745836Y-109894807D01*
X72707271Y-109898605D01*
X72591584Y-109910000D01*
X72488416Y-109910000D01*
X72372729Y-109898605D01*
X72334164Y-109894807D01*
X72136238Y-109834767D01*
X71953829Y-109737267D01*
X71793946Y-109606054D01*
X71662733Y-109446171D01*
X71565233Y-109263762D01*
X71505193Y-109065836D01*
X71490829Y-108920000D01*
X71484919Y-108860000D01*
X71505193Y-108654166D01*
X71505193Y-108654164D01*
X71565233Y-108456238D01*
X71662733Y-108273829D01*
X71793946Y-108113946D01*
X71953829Y-107982733D01*
X72136238Y-107885233D01*
X72334164Y-107825193D01*
X72372728Y-107821395D01*
X72488416Y-107810000D01*
X72591584Y-107810000D01*
X72707272Y-107821395D01*
X72707272Y-107821395D01*
G37*
G36*
X92850000Y-109650000D02*
X89950000Y-109650000D01*
X89950000Y-90350000D01*
X92850000Y-90350000D01*
X92850000Y-109650000D01*
X92850000Y-109650000D01*
G37*
G36*
X110050000Y-109650000D02*
X107150000Y-109650000D01*
X107150000Y-90350000D01*
X110050000Y-90350000D01*
X110050000Y-109650000D01*
X110050000Y-109650000D01*
G37*
G36*
X130167271Y-105341395D02*
X130205836Y-105345193D01*
X130403762Y-105405233D01*
X130586171Y-105502733D01*
X130746054Y-105633946D01*
X130877267Y-105793829D01*
X130974767Y-105976238D01*
X131034807Y-106174164D01*
X131034807Y-106174166D01*
X131055081Y-106380000D01*
X131038143Y-106551961D01*
X131034807Y-106585836D01*
X130974767Y-106783762D01*
X130877267Y-106966171D01*
X130746054Y-107126054D01*
X130586171Y-107257267D01*
X130403762Y-107354767D01*
X130205836Y-107414807D01*
X130167272Y-107418605D01*
X130051584Y-107430000D01*
X129948416Y-107430000D01*
X129832728Y-107418605D01*
X129794164Y-107414807D01*
X129596238Y-107354767D01*
X129413829Y-107257267D01*
X129253946Y-107126054D01*
X129122733Y-106966171D01*
X129025233Y-106783762D01*
X128965193Y-106585836D01*
X128961857Y-106551961D01*
X128944919Y-106380000D01*
X128965193Y-106174166D01*
X128965193Y-106174164D01*
X129025233Y-105976238D01*
X129122733Y-105793829D01*
X129253946Y-105633946D01*
X129413829Y-105502733D01*
X129596238Y-105405233D01*
X129794164Y-105345193D01*
X129832729Y-105341395D01*
X129948416Y-105330000D01*
X130051584Y-105330000D01*
X130167271Y-105341395D01*
X130167271Y-105341395D01*
G37*
G36*
X127627271Y-105341395D02*
X127665836Y-105345193D01*
X127863762Y-105405233D01*
X128046171Y-105502733D01*
X128206054Y-105633946D01*
X128337267Y-105793829D01*
X128434767Y-105976238D01*
X128494807Y-106174164D01*
X128494807Y-106174166D01*
X128515081Y-106380000D01*
X128498143Y-106551961D01*
X128494807Y-106585836D01*
X128434767Y-106783762D01*
X128337267Y-106966171D01*
X128206054Y-107126054D01*
X128046171Y-107257267D01*
X127863762Y-107354767D01*
X127665836Y-107414807D01*
X127627272Y-107418605D01*
X127511584Y-107430000D01*
X127408416Y-107430000D01*
X127292728Y-107418605D01*
X127254164Y-107414807D01*
X127056238Y-107354767D01*
X126873829Y-107257267D01*
X126713946Y-107126054D01*
X126582733Y-106966171D01*
X126485233Y-106783762D01*
X126425193Y-106585836D01*
X126421857Y-106551961D01*
X126404919Y-106380000D01*
X126425193Y-106174166D01*
X126425193Y-106174164D01*
X126485233Y-105976238D01*
X126582733Y-105793829D01*
X126713946Y-105633946D01*
X126873829Y-105502733D01*
X127056238Y-105405233D01*
X127254164Y-105345193D01*
X127292729Y-105341395D01*
X127408416Y-105330000D01*
X127511584Y-105330000D01*
X127627271Y-105341395D01*
X127627271Y-105341395D01*
G37*
G36*
X70167271Y-105281395D02*
X70205836Y-105285193D01*
X70403762Y-105345233D01*
X70586171Y-105442733D01*
X70746054Y-105573946D01*
X70877267Y-105733829D01*
X70974767Y-105916238D01*
X71034807Y-106114164D01*
X71034807Y-106114166D01*
X71055081Y-106320000D01*
X71049171Y-106380000D01*
X71034807Y-106525836D01*
X70974767Y-106723762D01*
X70877267Y-106906171D01*
X70746054Y-107066054D01*
X70586171Y-107197267D01*
X70403762Y-107294767D01*
X70205836Y-107354807D01*
X70167272Y-107358605D01*
X70051584Y-107370000D01*
X69948416Y-107370000D01*
X69832728Y-107358605D01*
X69794164Y-107354807D01*
X69596238Y-107294767D01*
X69413829Y-107197267D01*
X69253946Y-107066054D01*
X69122733Y-106906171D01*
X69025233Y-106723762D01*
X68965193Y-106525836D01*
X68950829Y-106380000D01*
X68944919Y-106320000D01*
X68965193Y-106114166D01*
X68965193Y-106114164D01*
X69025233Y-105916238D01*
X69122733Y-105733829D01*
X69253946Y-105573946D01*
X69413829Y-105442733D01*
X69596238Y-105345233D01*
X69794164Y-105285193D01*
X69832728Y-105281395D01*
X69948416Y-105270000D01*
X70051584Y-105270000D01*
X70167271Y-105281395D01*
X70167271Y-105281395D01*
G37*
G36*
X72707271Y-105281395D02*
X72745836Y-105285193D01*
X72943762Y-105345233D01*
X73126171Y-105442733D01*
X73286054Y-105573946D01*
X73417267Y-105733829D01*
X73514767Y-105916238D01*
X73574807Y-106114164D01*
X73574807Y-106114166D01*
X73595081Y-106320000D01*
X73589171Y-106380000D01*
X73574807Y-106525836D01*
X73514767Y-106723762D01*
X73417267Y-106906171D01*
X73286054Y-107066054D01*
X73126171Y-107197267D01*
X72943762Y-107294767D01*
X72745836Y-107354807D01*
X72707272Y-107358605D01*
X72591584Y-107370000D01*
X72488416Y-107370000D01*
X72372728Y-107358605D01*
X72334164Y-107354807D01*
X72136238Y-107294767D01*
X71953829Y-107197267D01*
X71793946Y-107066054D01*
X71662733Y-106906171D01*
X71565233Y-106723762D01*
X71505193Y-106525836D01*
X71490829Y-106380000D01*
X71484919Y-106320000D01*
X71505193Y-106114166D01*
X71505193Y-106114164D01*
X71565233Y-105916238D01*
X71662733Y-105733829D01*
X71793946Y-105573946D01*
X71953829Y-105442733D01*
X72136238Y-105345233D01*
X72334164Y-105285193D01*
X72372728Y-105281395D01*
X72488416Y-105270000D01*
X72591584Y-105270000D01*
X72707271Y-105281395D01*
X72707271Y-105281395D01*
G37*
G36*
X127627271Y-102801395D02*
X127665836Y-102805193D01*
X127863762Y-102865233D01*
X128046171Y-102962733D01*
X128206054Y-103093946D01*
X128337267Y-103253829D01*
X128434767Y-103436238D01*
X128494807Y-103634164D01*
X128494807Y-103634166D01*
X128515081Y-103840000D01*
X128498143Y-104011961D01*
X128494807Y-104045836D01*
X128434767Y-104243762D01*
X128337267Y-104426171D01*
X128206054Y-104586054D01*
X128046171Y-104717267D01*
X127863762Y-104814767D01*
X127665836Y-104874807D01*
X127627271Y-104878605D01*
X127511584Y-104890000D01*
X127408416Y-104890000D01*
X127292729Y-104878605D01*
X127254164Y-104874807D01*
X127056238Y-104814767D01*
X126873829Y-104717267D01*
X126713946Y-104586054D01*
X126582733Y-104426171D01*
X126485233Y-104243762D01*
X126425193Y-104045836D01*
X126421857Y-104011961D01*
X126404919Y-103840000D01*
X126425193Y-103634166D01*
X126425193Y-103634164D01*
X126485233Y-103436238D01*
X126582733Y-103253829D01*
X126713946Y-103093946D01*
X126873829Y-102962733D01*
X127056238Y-102865233D01*
X127254164Y-102805193D01*
X127292729Y-102801395D01*
X127408416Y-102790000D01*
X127511584Y-102790000D01*
X127627271Y-102801395D01*
X127627271Y-102801395D01*
G37*
G36*
X130167271Y-102801395D02*
X130205836Y-102805193D01*
X130403762Y-102865233D01*
X130586171Y-102962733D01*
X130746054Y-103093946D01*
X130877267Y-103253829D01*
X130974767Y-103436238D01*
X131034807Y-103634164D01*
X131034807Y-103634166D01*
X131055081Y-103840000D01*
X131038143Y-104011961D01*
X131034807Y-104045836D01*
X130974767Y-104243762D01*
X130877267Y-104426171D01*
X130746054Y-104586054D01*
X130586171Y-104717267D01*
X130403762Y-104814767D01*
X130205836Y-104874807D01*
X130167271Y-104878605D01*
X130051584Y-104890000D01*
X129948416Y-104890000D01*
X129832729Y-104878605D01*
X129794164Y-104874807D01*
X129596238Y-104814767D01*
X129413829Y-104717267D01*
X129253946Y-104586054D01*
X129122733Y-104426171D01*
X129025233Y-104243762D01*
X128965193Y-104045836D01*
X128961857Y-104011961D01*
X128944919Y-103840000D01*
X128965193Y-103634166D01*
X128965193Y-103634164D01*
X129025233Y-103436238D01*
X129122733Y-103253829D01*
X129253946Y-103093946D01*
X129413829Y-102962733D01*
X129596238Y-102865233D01*
X129794164Y-102805193D01*
X129832729Y-102801395D01*
X129948416Y-102790000D01*
X130051584Y-102790000D01*
X130167271Y-102801395D01*
X130167271Y-102801395D01*
G37*
G36*
X72707271Y-102741395D02*
X72745836Y-102745193D01*
X72943762Y-102805233D01*
X73126171Y-102902733D01*
X73286054Y-103033946D01*
X73417267Y-103193829D01*
X73514767Y-103376238D01*
X73574807Y-103574164D01*
X73574807Y-103574166D01*
X73595081Y-103780000D01*
X73589171Y-103840000D01*
X73574807Y-103985836D01*
X73514767Y-104183762D01*
X73417267Y-104366171D01*
X73286054Y-104526054D01*
X73126171Y-104657267D01*
X72943762Y-104754767D01*
X72745836Y-104814807D01*
X72707272Y-104818605D01*
X72591584Y-104830000D01*
X72488416Y-104830000D01*
X72372728Y-104818605D01*
X72334164Y-104814807D01*
X72136238Y-104754767D01*
X71953829Y-104657267D01*
X71793946Y-104526054D01*
X71662733Y-104366171D01*
X71565233Y-104183762D01*
X71505193Y-103985836D01*
X71490829Y-103840000D01*
X71484919Y-103780000D01*
X71505193Y-103574166D01*
X71505193Y-103574164D01*
X71565233Y-103376238D01*
X71662733Y-103193829D01*
X71793946Y-103033946D01*
X71953829Y-102902733D01*
X72136238Y-102805233D01*
X72334164Y-102745193D01*
X72372728Y-102741395D01*
X72488416Y-102730000D01*
X72591584Y-102730000D01*
X72707271Y-102741395D01*
X72707271Y-102741395D01*
G37*
G36*
X70167271Y-102741395D02*
X70205836Y-102745193D01*
X70403762Y-102805233D01*
X70586171Y-102902733D01*
X70746054Y-103033946D01*
X70877267Y-103193829D01*
X70974767Y-103376238D01*
X71034807Y-103574164D01*
X71034807Y-103574166D01*
X71055081Y-103780000D01*
X71049171Y-103840000D01*
X71034807Y-103985836D01*
X70974767Y-104183762D01*
X70877267Y-104366171D01*
X70746054Y-104526054D01*
X70586171Y-104657267D01*
X70403762Y-104754767D01*
X70205836Y-104814807D01*
X70167272Y-104818605D01*
X70051584Y-104830000D01*
X69948416Y-104830000D01*
X69832728Y-104818605D01*
X69794164Y-104814807D01*
X69596238Y-104754767D01*
X69413829Y-104657267D01*
X69253946Y-104526054D01*
X69122733Y-104366171D01*
X69025233Y-104183762D01*
X68965193Y-103985836D01*
X68950829Y-103840000D01*
X68944919Y-103780000D01*
X68965193Y-103574166D01*
X68965193Y-103574164D01*
X69025233Y-103376238D01*
X69122733Y-103193829D01*
X69253946Y-103033946D01*
X69413829Y-102902733D01*
X69596238Y-102805233D01*
X69794164Y-102745193D01*
X69832728Y-102741395D01*
X69948416Y-102730000D01*
X70051584Y-102730000D01*
X70167271Y-102741395D01*
X70167271Y-102741395D01*
G37*
G36*
X130167271Y-100261395D02*
X130205836Y-100265193D01*
X130403762Y-100325233D01*
X130586171Y-100422733D01*
X130746054Y-100553946D01*
X130877267Y-100713829D01*
X130974767Y-100896238D01*
X131034807Y-101094164D01*
X131034807Y-101094166D01*
X131055081Y-101300000D01*
X131038143Y-101471961D01*
X131034807Y-101505836D01*
X130974767Y-101703762D01*
X130877267Y-101886171D01*
X130746054Y-102046054D01*
X130586171Y-102177267D01*
X130403762Y-102274767D01*
X130205836Y-102334807D01*
X130167271Y-102338605D01*
X130051584Y-102350000D01*
X129948416Y-102350000D01*
X129832729Y-102338605D01*
X129794164Y-102334807D01*
X129596238Y-102274767D01*
X129413829Y-102177267D01*
X129253946Y-102046054D01*
X129122733Y-101886171D01*
X129025233Y-101703762D01*
X128965193Y-101505836D01*
X128961857Y-101471961D01*
X128944919Y-101300000D01*
X128965193Y-101094166D01*
X128965193Y-101094164D01*
X129025233Y-100896238D01*
X129122733Y-100713829D01*
X129253946Y-100553946D01*
X129413829Y-100422733D01*
X129596238Y-100325233D01*
X129794164Y-100265193D01*
X129832729Y-100261395D01*
X129948416Y-100250000D01*
X130051584Y-100250000D01*
X130167271Y-100261395D01*
X130167271Y-100261395D01*
G37*
G36*
X127627271Y-100261395D02*
X127665836Y-100265193D01*
X127863762Y-100325233D01*
X128046171Y-100422733D01*
X128206054Y-100553946D01*
X128337267Y-100713829D01*
X128434767Y-100896238D01*
X128494807Y-101094164D01*
X128494807Y-101094166D01*
X128515081Y-101300000D01*
X128498143Y-101471961D01*
X128494807Y-101505836D01*
X128434767Y-101703762D01*
X128337267Y-101886171D01*
X128206054Y-102046054D01*
X128046171Y-102177267D01*
X127863762Y-102274767D01*
X127665836Y-102334807D01*
X127627271Y-102338605D01*
X127511584Y-102350000D01*
X127408416Y-102350000D01*
X127292729Y-102338605D01*
X127254164Y-102334807D01*
X127056238Y-102274767D01*
X126873829Y-102177267D01*
X126713946Y-102046054D01*
X126582733Y-101886171D01*
X126485233Y-101703762D01*
X126425193Y-101505836D01*
X126421857Y-101471961D01*
X126404919Y-101300000D01*
X126425193Y-101094166D01*
X126425193Y-101094164D01*
X126485233Y-100896238D01*
X126582733Y-100713829D01*
X126713946Y-100553946D01*
X126873829Y-100422733D01*
X127056238Y-100325233D01*
X127254164Y-100265193D01*
X127292729Y-100261395D01*
X127408416Y-100250000D01*
X127511584Y-100250000D01*
X127627271Y-100261395D01*
X127627271Y-100261395D01*
G37*
G36*
X70167272Y-100201395D02*
X70205836Y-100205193D01*
X70403762Y-100265233D01*
X70586171Y-100362733D01*
X70746054Y-100493946D01*
X70877267Y-100653829D01*
X70974767Y-100836238D01*
X71034807Y-101034164D01*
X71034807Y-101034166D01*
X71055081Y-101240000D01*
X71049171Y-101300000D01*
X71034807Y-101445836D01*
X70974767Y-101643762D01*
X70877267Y-101826171D01*
X70746054Y-101986054D01*
X70586171Y-102117267D01*
X70403762Y-102214767D01*
X70205836Y-102274807D01*
X70167272Y-102278605D01*
X70051584Y-102290000D01*
X69948416Y-102290000D01*
X69832728Y-102278605D01*
X69794164Y-102274807D01*
X69596238Y-102214767D01*
X69413829Y-102117267D01*
X69253946Y-101986054D01*
X69122733Y-101826171D01*
X69025233Y-101643762D01*
X68965193Y-101445836D01*
X68950829Y-101300000D01*
X68944919Y-101240000D01*
X68965193Y-101034166D01*
X68965193Y-101034164D01*
X69025233Y-100836238D01*
X69122733Y-100653829D01*
X69253946Y-100493946D01*
X69413829Y-100362733D01*
X69596238Y-100265233D01*
X69794164Y-100205193D01*
X69832728Y-100201395D01*
X69948416Y-100190000D01*
X70051584Y-100190000D01*
X70167272Y-100201395D01*
X70167272Y-100201395D01*
G37*
G36*
X72707272Y-100201395D02*
X72745836Y-100205193D01*
X72943762Y-100265233D01*
X73126171Y-100362733D01*
X73286054Y-100493946D01*
X73417267Y-100653829D01*
X73514767Y-100836238D01*
X73574807Y-101034164D01*
X73574807Y-101034166D01*
X73595081Y-101240000D01*
X73589171Y-101300000D01*
X73574807Y-101445836D01*
X73514767Y-101643762D01*
X73417267Y-101826171D01*
X73286054Y-101986054D01*
X73126171Y-102117267D01*
X72943762Y-102214767D01*
X72745836Y-102274807D01*
X72707272Y-102278605D01*
X72591584Y-102290000D01*
X72488416Y-102290000D01*
X72372728Y-102278605D01*
X72334164Y-102274807D01*
X72136238Y-102214767D01*
X71953829Y-102117267D01*
X71793946Y-101986054D01*
X71662733Y-101826171D01*
X71565233Y-101643762D01*
X71505193Y-101445836D01*
X71490829Y-101300000D01*
X71484919Y-101240000D01*
X71505193Y-101034166D01*
X71505193Y-101034164D01*
X71565233Y-100836238D01*
X71662733Y-100653829D01*
X71793946Y-100493946D01*
X71953829Y-100362733D01*
X72136238Y-100265233D01*
X72334164Y-100205193D01*
X72372728Y-100201395D01*
X72488416Y-100190000D01*
X72591584Y-100190000D01*
X72707272Y-100201395D01*
X72707272Y-100201395D01*
G37*
G36*
X127627271Y-97721395D02*
X127665836Y-97725193D01*
X127863762Y-97785233D01*
X128046171Y-97882733D01*
X128206054Y-98013946D01*
X128337267Y-98173829D01*
X128434767Y-98356238D01*
X128494807Y-98554164D01*
X128494807Y-98554166D01*
X128515081Y-98760000D01*
X128498143Y-98931961D01*
X128494807Y-98965836D01*
X128434767Y-99163762D01*
X128337267Y-99346171D01*
X128206054Y-99506054D01*
X128046171Y-99637267D01*
X127863762Y-99734767D01*
X127665836Y-99794807D01*
X127627271Y-99798605D01*
X127511584Y-99810000D01*
X127408416Y-99810000D01*
X127292728Y-99798605D01*
X127254164Y-99794807D01*
X127056238Y-99734767D01*
X126873829Y-99637267D01*
X126713946Y-99506054D01*
X126582733Y-99346171D01*
X126485233Y-99163762D01*
X126425193Y-98965836D01*
X126421857Y-98931961D01*
X126404919Y-98760000D01*
X126425193Y-98554166D01*
X126425193Y-98554164D01*
X126485233Y-98356238D01*
X126582733Y-98173829D01*
X126713946Y-98013946D01*
X126873829Y-97882733D01*
X127056238Y-97785233D01*
X127254164Y-97725193D01*
X127292729Y-97721395D01*
X127408416Y-97710000D01*
X127511584Y-97710000D01*
X127627271Y-97721395D01*
X127627271Y-97721395D01*
G37*
G36*
X130167271Y-97721395D02*
X130205836Y-97725193D01*
X130403762Y-97785233D01*
X130586171Y-97882733D01*
X130746054Y-98013946D01*
X130877267Y-98173829D01*
X130974767Y-98356238D01*
X131034807Y-98554164D01*
X131034807Y-98554166D01*
X131055081Y-98760000D01*
X131038143Y-98931961D01*
X131034807Y-98965836D01*
X130974767Y-99163762D01*
X130877267Y-99346171D01*
X130746054Y-99506054D01*
X130586171Y-99637267D01*
X130403762Y-99734767D01*
X130205836Y-99794807D01*
X130167271Y-99798605D01*
X130051584Y-99810000D01*
X129948416Y-99810000D01*
X129832728Y-99798605D01*
X129794164Y-99794807D01*
X129596238Y-99734767D01*
X129413829Y-99637267D01*
X129253946Y-99506054D01*
X129122733Y-99346171D01*
X129025233Y-99163762D01*
X128965193Y-98965836D01*
X128961857Y-98931961D01*
X128944919Y-98760000D01*
X128965193Y-98554166D01*
X128965193Y-98554164D01*
X129025233Y-98356238D01*
X129122733Y-98173829D01*
X129253946Y-98013946D01*
X129413829Y-97882733D01*
X129596238Y-97785233D01*
X129794164Y-97725193D01*
X129832729Y-97721395D01*
X129948416Y-97710000D01*
X130051584Y-97710000D01*
X130167271Y-97721395D01*
X130167271Y-97721395D01*
G37*
G36*
X70167272Y-97661395D02*
X70205836Y-97665193D01*
X70403762Y-97725233D01*
X70586171Y-97822733D01*
X70746054Y-97953946D01*
X70877267Y-98113829D01*
X70974767Y-98296238D01*
X71034807Y-98494164D01*
X71034807Y-98494166D01*
X71055081Y-98700000D01*
X71049171Y-98760000D01*
X71034807Y-98905836D01*
X70974767Y-99103762D01*
X70877267Y-99286171D01*
X70746054Y-99446054D01*
X70586171Y-99577267D01*
X70403762Y-99674767D01*
X70205836Y-99734807D01*
X70167271Y-99738605D01*
X70051584Y-99750000D01*
X69948416Y-99750000D01*
X69832728Y-99738605D01*
X69794164Y-99734807D01*
X69596238Y-99674767D01*
X69413829Y-99577267D01*
X69253946Y-99446054D01*
X69122733Y-99286171D01*
X69025233Y-99103762D01*
X68965193Y-98905836D01*
X68950829Y-98760000D01*
X68944919Y-98700000D01*
X68965193Y-98494166D01*
X68965193Y-98494164D01*
X69025233Y-98296238D01*
X69122733Y-98113829D01*
X69253946Y-97953946D01*
X69413829Y-97822733D01*
X69596238Y-97725233D01*
X69794164Y-97665193D01*
X69832728Y-97661395D01*
X69948416Y-97650000D01*
X70051584Y-97650000D01*
X70167272Y-97661395D01*
X70167272Y-97661395D01*
G37*
G36*
X72707272Y-97661395D02*
X72745836Y-97665193D01*
X72943762Y-97725233D01*
X73126171Y-97822733D01*
X73286054Y-97953946D01*
X73417267Y-98113829D01*
X73514767Y-98296238D01*
X73574807Y-98494164D01*
X73574807Y-98494166D01*
X73595081Y-98700000D01*
X73589171Y-98760000D01*
X73574807Y-98905836D01*
X73514767Y-99103762D01*
X73417267Y-99286171D01*
X73286054Y-99446054D01*
X73126171Y-99577267D01*
X72943762Y-99674767D01*
X72745836Y-99734807D01*
X72707271Y-99738605D01*
X72591584Y-99750000D01*
X72488416Y-99750000D01*
X72372728Y-99738605D01*
X72334164Y-99734807D01*
X72136238Y-99674767D01*
X71953829Y-99577267D01*
X71793946Y-99446054D01*
X71662733Y-99286171D01*
X71565233Y-99103762D01*
X71505193Y-98905836D01*
X71490829Y-98760000D01*
X71484919Y-98700000D01*
X71505193Y-98494166D01*
X71505193Y-98494164D01*
X71565233Y-98296238D01*
X71662733Y-98113829D01*
X71793946Y-97953946D01*
X71953829Y-97822733D01*
X72136238Y-97725233D01*
X72334164Y-97665193D01*
X72372728Y-97661395D01*
X72488416Y-97650000D01*
X72591584Y-97650000D01*
X72707272Y-97661395D01*
X72707272Y-97661395D01*
G37*
G36*
X130167271Y-95181395D02*
X130205836Y-95185193D01*
X130403762Y-95245233D01*
X130586171Y-95342733D01*
X130746054Y-95473946D01*
X130877267Y-95633829D01*
X130974767Y-95816238D01*
X131034807Y-96014164D01*
X131034807Y-96014166D01*
X131055081Y-96220000D01*
X131038143Y-96391961D01*
X131034807Y-96425836D01*
X130974767Y-96623762D01*
X130877267Y-96806171D01*
X130746054Y-96966054D01*
X130586171Y-97097267D01*
X130403762Y-97194767D01*
X130205836Y-97254807D01*
X130167271Y-97258605D01*
X130051584Y-97270000D01*
X129948416Y-97270000D01*
X129832729Y-97258605D01*
X129794164Y-97254807D01*
X129596238Y-97194767D01*
X129413829Y-97097267D01*
X129253946Y-96966054D01*
X129122733Y-96806171D01*
X129025233Y-96623762D01*
X128965193Y-96425836D01*
X128961857Y-96391961D01*
X128944919Y-96220000D01*
X128965193Y-96014166D01*
X128965193Y-96014164D01*
X129025233Y-95816238D01*
X129122733Y-95633829D01*
X129253946Y-95473946D01*
X129413829Y-95342733D01*
X129596238Y-95245233D01*
X129794164Y-95185193D01*
X129832729Y-95181395D01*
X129948416Y-95170000D01*
X130051584Y-95170000D01*
X130167271Y-95181395D01*
X130167271Y-95181395D01*
G37*
G36*
X127627271Y-95181395D02*
X127665836Y-95185193D01*
X127863762Y-95245233D01*
X128046171Y-95342733D01*
X128206054Y-95473946D01*
X128337267Y-95633829D01*
X128434767Y-95816238D01*
X128494807Y-96014164D01*
X128494807Y-96014166D01*
X128515081Y-96220000D01*
X128498143Y-96391961D01*
X128494807Y-96425836D01*
X128434767Y-96623762D01*
X128337267Y-96806171D01*
X128206054Y-96966054D01*
X128046171Y-97097267D01*
X127863762Y-97194767D01*
X127665836Y-97254807D01*
X127627271Y-97258605D01*
X127511584Y-97270000D01*
X127408416Y-97270000D01*
X127292729Y-97258605D01*
X127254164Y-97254807D01*
X127056238Y-97194767D01*
X126873829Y-97097267D01*
X126713946Y-96966054D01*
X126582733Y-96806171D01*
X126485233Y-96623762D01*
X126425193Y-96425836D01*
X126421857Y-96391961D01*
X126404919Y-96220000D01*
X126425193Y-96014166D01*
X126425193Y-96014164D01*
X126485233Y-95816238D01*
X126582733Y-95633829D01*
X126713946Y-95473946D01*
X126873829Y-95342733D01*
X127056238Y-95245233D01*
X127254164Y-95185193D01*
X127292729Y-95181395D01*
X127408416Y-95170000D01*
X127511584Y-95170000D01*
X127627271Y-95181395D01*
X127627271Y-95181395D01*
G37*
G36*
X72707272Y-95121395D02*
X72745836Y-95125193D01*
X72943762Y-95185233D01*
X73126171Y-95282733D01*
X73286054Y-95413946D01*
X73417267Y-95573829D01*
X73514767Y-95756238D01*
X73574807Y-95954164D01*
X73574807Y-95954166D01*
X73595081Y-96160000D01*
X73589171Y-96220000D01*
X73574807Y-96365836D01*
X73514767Y-96563762D01*
X73417267Y-96746171D01*
X73286054Y-96906054D01*
X73126171Y-97037267D01*
X72943762Y-97134767D01*
X72745836Y-97194807D01*
X72707272Y-97198605D01*
X72591584Y-97210000D01*
X72488416Y-97210000D01*
X72372728Y-97198605D01*
X72334164Y-97194807D01*
X72136238Y-97134767D01*
X71953829Y-97037267D01*
X71793946Y-96906054D01*
X71662733Y-96746171D01*
X71565233Y-96563762D01*
X71505193Y-96365836D01*
X71490829Y-96220000D01*
X71484919Y-96160000D01*
X71505193Y-95954166D01*
X71505193Y-95954164D01*
X71565233Y-95756238D01*
X71662733Y-95573829D01*
X71793946Y-95413946D01*
X71953829Y-95282733D01*
X72136238Y-95185233D01*
X72334164Y-95125193D01*
X72372728Y-95121395D01*
X72488416Y-95110000D01*
X72591584Y-95110000D01*
X72707272Y-95121395D01*
X72707272Y-95121395D01*
G37*
G36*
X70167272Y-95121395D02*
X70205836Y-95125193D01*
X70403762Y-95185233D01*
X70586171Y-95282733D01*
X70746054Y-95413946D01*
X70877267Y-95573829D01*
X70974767Y-95756238D01*
X71034807Y-95954164D01*
X71034807Y-95954166D01*
X71055081Y-96160000D01*
X71049171Y-96220000D01*
X71034807Y-96365836D01*
X70974767Y-96563762D01*
X70877267Y-96746171D01*
X70746054Y-96906054D01*
X70586171Y-97037267D01*
X70403762Y-97134767D01*
X70205836Y-97194807D01*
X70167272Y-97198605D01*
X70051584Y-97210000D01*
X69948416Y-97210000D01*
X69832728Y-97198605D01*
X69794164Y-97194807D01*
X69596238Y-97134767D01*
X69413829Y-97037267D01*
X69253946Y-96906054D01*
X69122733Y-96746171D01*
X69025233Y-96563762D01*
X68965193Y-96365836D01*
X68950829Y-96220000D01*
X68944919Y-96160000D01*
X68965193Y-95954166D01*
X68965193Y-95954164D01*
X69025233Y-95756238D01*
X69122733Y-95573829D01*
X69253946Y-95413946D01*
X69413829Y-95282733D01*
X69596238Y-95185233D01*
X69794164Y-95125193D01*
X69832728Y-95121395D01*
X69948416Y-95110000D01*
X70051584Y-95110000D01*
X70167272Y-95121395D01*
X70167272Y-95121395D01*
G37*
G36*
X127627271Y-92641395D02*
X127665836Y-92645193D01*
X127863762Y-92705233D01*
X128046171Y-92802733D01*
X128206054Y-92933946D01*
X128337267Y-93093829D01*
X128434767Y-93276238D01*
X128494807Y-93474164D01*
X128494807Y-93474166D01*
X128515081Y-93680000D01*
X128498143Y-93851961D01*
X128494807Y-93885836D01*
X128434767Y-94083762D01*
X128337267Y-94266171D01*
X128206054Y-94426054D01*
X128046171Y-94557267D01*
X127863762Y-94654767D01*
X127665836Y-94714807D01*
X127627272Y-94718605D01*
X127511584Y-94730000D01*
X127408416Y-94730000D01*
X127292729Y-94718605D01*
X127254164Y-94714807D01*
X127056238Y-94654767D01*
X126873829Y-94557267D01*
X126713946Y-94426054D01*
X126582733Y-94266171D01*
X126485233Y-94083762D01*
X126425193Y-93885836D01*
X126421857Y-93851961D01*
X126404919Y-93680000D01*
X126425193Y-93474166D01*
X126425193Y-93474164D01*
X126485233Y-93276238D01*
X126582733Y-93093829D01*
X126713946Y-92933946D01*
X126873829Y-92802733D01*
X127056238Y-92705233D01*
X127254164Y-92645193D01*
X127292729Y-92641395D01*
X127408416Y-92630000D01*
X127511584Y-92630000D01*
X127627271Y-92641395D01*
X127627271Y-92641395D01*
G37*
G36*
X130167271Y-92641395D02*
X130205836Y-92645193D01*
X130403762Y-92705233D01*
X130586171Y-92802733D01*
X130746054Y-92933946D01*
X130877267Y-93093829D01*
X130974767Y-93276238D01*
X131034807Y-93474164D01*
X131034807Y-93474166D01*
X131055081Y-93680000D01*
X131038143Y-93851961D01*
X131034807Y-93885836D01*
X130974767Y-94083762D01*
X130877267Y-94266171D01*
X130746054Y-94426054D01*
X130586171Y-94557267D01*
X130403762Y-94654767D01*
X130205836Y-94714807D01*
X130167272Y-94718605D01*
X130051584Y-94730000D01*
X129948416Y-94730000D01*
X129832729Y-94718605D01*
X129794164Y-94714807D01*
X129596238Y-94654767D01*
X129413829Y-94557267D01*
X129253946Y-94426054D01*
X129122733Y-94266171D01*
X129025233Y-94083762D01*
X128965193Y-93885836D01*
X128961857Y-93851961D01*
X128944919Y-93680000D01*
X128965193Y-93474166D01*
X128965193Y-93474164D01*
X129025233Y-93276238D01*
X129122733Y-93093829D01*
X129253946Y-92933946D01*
X129413829Y-92802733D01*
X129596238Y-92705233D01*
X129794164Y-92645193D01*
X129832729Y-92641395D01*
X129948416Y-92630000D01*
X130051584Y-92630000D01*
X130167271Y-92641395D01*
X130167271Y-92641395D01*
G37*
G36*
X72707272Y-92581395D02*
X72745836Y-92585193D01*
X72943762Y-92645233D01*
X73126171Y-92742733D01*
X73286054Y-92873946D01*
X73417267Y-93033829D01*
X73514767Y-93216238D01*
X73574807Y-93414164D01*
X73574807Y-93414166D01*
X73595081Y-93620000D01*
X73589171Y-93680000D01*
X73574807Y-93825836D01*
X73514767Y-94023762D01*
X73417267Y-94206171D01*
X73286054Y-94366054D01*
X73126171Y-94497267D01*
X72943762Y-94594767D01*
X72745836Y-94654807D01*
X72707272Y-94658605D01*
X72591584Y-94670000D01*
X72488416Y-94670000D01*
X72372728Y-94658605D01*
X72334164Y-94654807D01*
X72136238Y-94594767D01*
X71953829Y-94497267D01*
X71793946Y-94366054D01*
X71662733Y-94206171D01*
X71565233Y-94023762D01*
X71505193Y-93825836D01*
X71490829Y-93680000D01*
X71484919Y-93620000D01*
X71505193Y-93414166D01*
X71505193Y-93414164D01*
X71565233Y-93216238D01*
X71662733Y-93033829D01*
X71793946Y-92873946D01*
X71953829Y-92742733D01*
X72136238Y-92645233D01*
X72334164Y-92585193D01*
X72372728Y-92581395D01*
X72488416Y-92570000D01*
X72591584Y-92570000D01*
X72707272Y-92581395D01*
X72707272Y-92581395D01*
G37*
G36*
X70167272Y-92581395D02*
X70205836Y-92585193D01*
X70403762Y-92645233D01*
X70586171Y-92742733D01*
X70746054Y-92873946D01*
X70877267Y-93033829D01*
X70974767Y-93216238D01*
X71034807Y-93414164D01*
X71034807Y-93414166D01*
X71055081Y-93620000D01*
X71049171Y-93680000D01*
X71034807Y-93825836D01*
X70974767Y-94023762D01*
X70877267Y-94206171D01*
X70746054Y-94366054D01*
X70586171Y-94497267D01*
X70403762Y-94594767D01*
X70205836Y-94654807D01*
X70167272Y-94658605D01*
X70051584Y-94670000D01*
X69948416Y-94670000D01*
X69832728Y-94658605D01*
X69794164Y-94654807D01*
X69596238Y-94594767D01*
X69413829Y-94497267D01*
X69253946Y-94366054D01*
X69122733Y-94206171D01*
X69025233Y-94023762D01*
X68965193Y-93825836D01*
X68950829Y-93680000D01*
X68944919Y-93620000D01*
X68965193Y-93414166D01*
X68965193Y-93414164D01*
X69025233Y-93216238D01*
X69122733Y-93033829D01*
X69253946Y-92873946D01*
X69413829Y-92742733D01*
X69596238Y-92645233D01*
X69794164Y-92585193D01*
X69832728Y-92581395D01*
X69948416Y-92570000D01*
X70051584Y-92570000D01*
X70167272Y-92581395D01*
X70167272Y-92581395D01*
G37*
G36*
X127627271Y-90101395D02*
X127665836Y-90105193D01*
X127863762Y-90165233D01*
X128046171Y-90262733D01*
X128206054Y-90393946D01*
X128337267Y-90553829D01*
X128434767Y-90736238D01*
X128494807Y-90934164D01*
X128494807Y-90934166D01*
X128515081Y-91140000D01*
X128498143Y-91311961D01*
X128494807Y-91345836D01*
X128434767Y-91543762D01*
X128337267Y-91726171D01*
X128206054Y-91886054D01*
X128046171Y-92017267D01*
X127863762Y-92114767D01*
X127665836Y-92174807D01*
X127627271Y-92178605D01*
X127511584Y-92190000D01*
X127408416Y-92190000D01*
X127292729Y-92178605D01*
X127254164Y-92174807D01*
X127056238Y-92114767D01*
X126873829Y-92017267D01*
X126713946Y-91886054D01*
X126582733Y-91726171D01*
X126485233Y-91543762D01*
X126425193Y-91345836D01*
X126421857Y-91311961D01*
X126404919Y-91140000D01*
X126425193Y-90934166D01*
X126425193Y-90934164D01*
X126485233Y-90736238D01*
X126582733Y-90553829D01*
X126713946Y-90393946D01*
X126873829Y-90262733D01*
X127056238Y-90165233D01*
X127254164Y-90105193D01*
X127292729Y-90101395D01*
X127408416Y-90090000D01*
X127511584Y-90090000D01*
X127627271Y-90101395D01*
X127627271Y-90101395D01*
G37*
G36*
X130167271Y-90101395D02*
X130205836Y-90105193D01*
X130403762Y-90165233D01*
X130586171Y-90262733D01*
X130746054Y-90393946D01*
X130877267Y-90553829D01*
X130974767Y-90736238D01*
X131034807Y-90934164D01*
X131034807Y-90934166D01*
X131055081Y-91140000D01*
X131038143Y-91311961D01*
X131034807Y-91345836D01*
X130974767Y-91543762D01*
X130877267Y-91726171D01*
X130746054Y-91886054D01*
X130586171Y-92017267D01*
X130403762Y-92114767D01*
X130205836Y-92174807D01*
X130167271Y-92178605D01*
X130051584Y-92190000D01*
X129948416Y-92190000D01*
X129832729Y-92178605D01*
X129794164Y-92174807D01*
X129596238Y-92114767D01*
X129413829Y-92017267D01*
X129253946Y-91886054D01*
X129122733Y-91726171D01*
X129025233Y-91543762D01*
X128965193Y-91345836D01*
X128961857Y-91311961D01*
X128944919Y-91140000D01*
X128965193Y-90934166D01*
X128965193Y-90934164D01*
X129025233Y-90736238D01*
X129122733Y-90553829D01*
X129253946Y-90393946D01*
X129413829Y-90262733D01*
X129596238Y-90165233D01*
X129794164Y-90105193D01*
X129832729Y-90101395D01*
X129948416Y-90090000D01*
X130051584Y-90090000D01*
X130167271Y-90101395D01*
X130167271Y-90101395D01*
G37*
G36*
X70167272Y-90041395D02*
X70205836Y-90045193D01*
X70403762Y-90105233D01*
X70586171Y-90202733D01*
X70746054Y-90333946D01*
X70877267Y-90493829D01*
X70974767Y-90676238D01*
X71034807Y-90874164D01*
X71034807Y-90874166D01*
X71055081Y-91080000D01*
X71049171Y-91140000D01*
X71034807Y-91285836D01*
X70974767Y-91483762D01*
X70877267Y-91666171D01*
X70746054Y-91826054D01*
X70586171Y-91957267D01*
X70403762Y-92054767D01*
X70205836Y-92114807D01*
X70167272Y-92118605D01*
X70051584Y-92130000D01*
X69948416Y-92130000D01*
X69832728Y-92118605D01*
X69794164Y-92114807D01*
X69596238Y-92054767D01*
X69413829Y-91957267D01*
X69253946Y-91826054D01*
X69122733Y-91666171D01*
X69025233Y-91483762D01*
X68965193Y-91285836D01*
X68950829Y-91140000D01*
X68944919Y-91080000D01*
X68965193Y-90874166D01*
X68965193Y-90874164D01*
X69025233Y-90676238D01*
X69122733Y-90493829D01*
X69253946Y-90333946D01*
X69413829Y-90202733D01*
X69596238Y-90105233D01*
X69794164Y-90045193D01*
X69832728Y-90041395D01*
X69948416Y-90030000D01*
X70051584Y-90030000D01*
X70167272Y-90041395D01*
X70167272Y-90041395D01*
G37*
G36*
X72707272Y-90041395D02*
X72745836Y-90045193D01*
X72943762Y-90105233D01*
X73126171Y-90202733D01*
X73286054Y-90333946D01*
X73417267Y-90493829D01*
X73514767Y-90676238D01*
X73574807Y-90874164D01*
X73574807Y-90874166D01*
X73595081Y-91080000D01*
X73589171Y-91140000D01*
X73574807Y-91285836D01*
X73514767Y-91483762D01*
X73417267Y-91666171D01*
X73286054Y-91826054D01*
X73126171Y-91957267D01*
X72943762Y-92054767D01*
X72745836Y-92114807D01*
X72707272Y-92118605D01*
X72591584Y-92130000D01*
X72488416Y-92130000D01*
X72372728Y-92118605D01*
X72334164Y-92114807D01*
X72136238Y-92054767D01*
X71953829Y-91957267D01*
X71793946Y-91826054D01*
X71662733Y-91666171D01*
X71565233Y-91483762D01*
X71505193Y-91285836D01*
X71490829Y-91140000D01*
X71484919Y-91080000D01*
X71505193Y-90874166D01*
X71505193Y-90874164D01*
X71565233Y-90676238D01*
X71662733Y-90493829D01*
X71793946Y-90333946D01*
X71953829Y-90202733D01*
X72136238Y-90105233D01*
X72334164Y-90045193D01*
X72372728Y-90041395D01*
X72488416Y-90030000D01*
X72591584Y-90030000D01*
X72707272Y-90041395D01*
X72707272Y-90041395D01*
G37*
G36*
X106450000Y-89800000D02*
X93550000Y-89800000D01*
X93550000Y-86900000D01*
X106450000Y-86900000D01*
X106450000Y-89800000D01*
X106450000Y-89800000D01*
G37*
G36*
X130167271Y-87561395D02*
X130205836Y-87565193D01*
X130403762Y-87625233D01*
X130586171Y-87722733D01*
X130746054Y-87853946D01*
X130877267Y-88013829D01*
X130974767Y-88196238D01*
X131034807Y-88394164D01*
X131034807Y-88394166D01*
X131055081Y-88600000D01*
X131038143Y-88771961D01*
X131034807Y-88805836D01*
X130974767Y-89003762D01*
X130877267Y-89186171D01*
X130746054Y-89346054D01*
X130586171Y-89477267D01*
X130403762Y-89574767D01*
X130205836Y-89634807D01*
X130167271Y-89638605D01*
X130051584Y-89650000D01*
X129948416Y-89650000D01*
X129832729Y-89638605D01*
X129794164Y-89634807D01*
X129596238Y-89574767D01*
X129413829Y-89477267D01*
X129253946Y-89346054D01*
X129122733Y-89186171D01*
X129025233Y-89003762D01*
X128965193Y-88805836D01*
X128961857Y-88771961D01*
X128944919Y-88600000D01*
X128965193Y-88394166D01*
X128965193Y-88394164D01*
X129025233Y-88196238D01*
X129122733Y-88013829D01*
X129253946Y-87853946D01*
X129413829Y-87722733D01*
X129596238Y-87625233D01*
X129794164Y-87565193D01*
X129832729Y-87561395D01*
X129948416Y-87550000D01*
X130051584Y-87550000D01*
X130167271Y-87561395D01*
X130167271Y-87561395D01*
G37*
G36*
X127627271Y-87561395D02*
X127665836Y-87565193D01*
X127863762Y-87625233D01*
X128046171Y-87722733D01*
X128206054Y-87853946D01*
X128337267Y-88013829D01*
X128434767Y-88196238D01*
X128494807Y-88394164D01*
X128494807Y-88394166D01*
X128515081Y-88600000D01*
X128498143Y-88771961D01*
X128494807Y-88805836D01*
X128434767Y-89003762D01*
X128337267Y-89186171D01*
X128206054Y-89346054D01*
X128046171Y-89477267D01*
X127863762Y-89574767D01*
X127665836Y-89634807D01*
X127627271Y-89638605D01*
X127511584Y-89650000D01*
X127408416Y-89650000D01*
X127292729Y-89638605D01*
X127254164Y-89634807D01*
X127056238Y-89574767D01*
X126873829Y-89477267D01*
X126713946Y-89346054D01*
X126582733Y-89186171D01*
X126485233Y-89003762D01*
X126425193Y-88805836D01*
X126421857Y-88771961D01*
X126404919Y-88600000D01*
X126425193Y-88394166D01*
X126425193Y-88394164D01*
X126485233Y-88196238D01*
X126582733Y-88013829D01*
X126713946Y-87853946D01*
X126873829Y-87722733D01*
X127056238Y-87625233D01*
X127254164Y-87565193D01*
X127292729Y-87561395D01*
X127408416Y-87550000D01*
X127511584Y-87550000D01*
X127627271Y-87561395D01*
X127627271Y-87561395D01*
G37*
G36*
X72707272Y-87501395D02*
X72745836Y-87505193D01*
X72943762Y-87565233D01*
X73126171Y-87662733D01*
X73286054Y-87793946D01*
X73417267Y-87953829D01*
X73514767Y-88136238D01*
X73574807Y-88334164D01*
X73574807Y-88334166D01*
X73595081Y-88540000D01*
X73589171Y-88600000D01*
X73574807Y-88745836D01*
X73514767Y-88943762D01*
X73417267Y-89126171D01*
X73286054Y-89286054D01*
X73126171Y-89417267D01*
X72943762Y-89514767D01*
X72745836Y-89574807D01*
X72707272Y-89578605D01*
X72591584Y-89590000D01*
X72488416Y-89590000D01*
X72372728Y-89578605D01*
X72334164Y-89574807D01*
X72136238Y-89514767D01*
X71953829Y-89417267D01*
X71793946Y-89286054D01*
X71662733Y-89126171D01*
X71565233Y-88943762D01*
X71505193Y-88745836D01*
X71490829Y-88600000D01*
X71484919Y-88540000D01*
X71505193Y-88334166D01*
X71505193Y-88334164D01*
X71565233Y-88136238D01*
X71662733Y-87953829D01*
X71793946Y-87793946D01*
X71953829Y-87662733D01*
X72136238Y-87565233D01*
X72334164Y-87505193D01*
X72372728Y-87501395D01*
X72488416Y-87490000D01*
X72591584Y-87490000D01*
X72707272Y-87501395D01*
X72707272Y-87501395D01*
G37*
G36*
X70167272Y-87501395D02*
X70205836Y-87505193D01*
X70403762Y-87565233D01*
X70586171Y-87662733D01*
X70746054Y-87793946D01*
X70877267Y-87953829D01*
X70974767Y-88136238D01*
X71034807Y-88334164D01*
X71034807Y-88334166D01*
X71055081Y-88540000D01*
X71049171Y-88600000D01*
X71034807Y-88745836D01*
X70974767Y-88943762D01*
X70877267Y-89126171D01*
X70746054Y-89286054D01*
X70586171Y-89417267D01*
X70403762Y-89514767D01*
X70205836Y-89574807D01*
X70167272Y-89578605D01*
X70051584Y-89590000D01*
X69948416Y-89590000D01*
X69832728Y-89578605D01*
X69794164Y-89574807D01*
X69596238Y-89514767D01*
X69413829Y-89417267D01*
X69253946Y-89286054D01*
X69122733Y-89126171D01*
X69025233Y-88943762D01*
X68965193Y-88745836D01*
X68950829Y-88600000D01*
X68944919Y-88540000D01*
X68965193Y-88334166D01*
X68965193Y-88334164D01*
X69025233Y-88136238D01*
X69122733Y-87953829D01*
X69253946Y-87793946D01*
X69413829Y-87662733D01*
X69596238Y-87565233D01*
X69794164Y-87505193D01*
X69832728Y-87501395D01*
X69948416Y-87490000D01*
X70051584Y-87490000D01*
X70167272Y-87501395D01*
X70167272Y-87501395D01*
G37*
G36*
X112950000Y-87525000D02*
X111450000Y-87525000D01*
X111450000Y-86375000D01*
X112200000Y-86875000D01*
X112950000Y-86375000D01*
X112950000Y-87525000D01*
X112950000Y-87525000D01*
G37*
G36*
X130167271Y-85021395D02*
X130205836Y-85025193D01*
X130403762Y-85085233D01*
X130586171Y-85182733D01*
X130746054Y-85313946D01*
X130877267Y-85473829D01*
X130974767Y-85656238D01*
X131034807Y-85854164D01*
X131034807Y-85854166D01*
X131055081Y-86060000D01*
X131038143Y-86231961D01*
X131034807Y-86265836D01*
X130974767Y-86463762D01*
X130877267Y-86646171D01*
X130746054Y-86806054D01*
X130586171Y-86937267D01*
X130403762Y-87034767D01*
X130205836Y-87094807D01*
X130167271Y-87098605D01*
X130051584Y-87110000D01*
X129948416Y-87110000D01*
X129832729Y-87098605D01*
X129794164Y-87094807D01*
X129596238Y-87034767D01*
X129413829Y-86937267D01*
X129253946Y-86806054D01*
X129122733Y-86646171D01*
X129025233Y-86463762D01*
X128965193Y-86265836D01*
X128961857Y-86231961D01*
X128944919Y-86060000D01*
X128965193Y-85854166D01*
X128965193Y-85854164D01*
X129025233Y-85656238D01*
X129122733Y-85473829D01*
X129253946Y-85313946D01*
X129413829Y-85182733D01*
X129596238Y-85085233D01*
X129794164Y-85025193D01*
X129832729Y-85021395D01*
X129948416Y-85010000D01*
X130051584Y-85010000D01*
X130167271Y-85021395D01*
X130167271Y-85021395D01*
G37*
G36*
X127627271Y-85021395D02*
X127665836Y-85025193D01*
X127863762Y-85085233D01*
X128046171Y-85182733D01*
X128206054Y-85313946D01*
X128337267Y-85473829D01*
X128434767Y-85656238D01*
X128494807Y-85854164D01*
X128494807Y-85854166D01*
X128515081Y-86060000D01*
X128498143Y-86231961D01*
X128494807Y-86265836D01*
X128434767Y-86463762D01*
X128337267Y-86646171D01*
X128206054Y-86806054D01*
X128046171Y-86937267D01*
X127863762Y-87034767D01*
X127665836Y-87094807D01*
X127627271Y-87098605D01*
X127511584Y-87110000D01*
X127408416Y-87110000D01*
X127292729Y-87098605D01*
X127254164Y-87094807D01*
X127056238Y-87034767D01*
X126873829Y-86937267D01*
X126713946Y-86806054D01*
X126582733Y-86646171D01*
X126485233Y-86463762D01*
X126425193Y-86265836D01*
X126421857Y-86231961D01*
X126404919Y-86060000D01*
X126425193Y-85854166D01*
X126425193Y-85854164D01*
X126485233Y-85656238D01*
X126582733Y-85473829D01*
X126713946Y-85313946D01*
X126873829Y-85182733D01*
X127056238Y-85085233D01*
X127254164Y-85025193D01*
X127292729Y-85021395D01*
X127408416Y-85010000D01*
X127511584Y-85010000D01*
X127627271Y-85021395D01*
X127627271Y-85021395D01*
G37*
G36*
X71050000Y-87050000D02*
X68950000Y-87050000D01*
X68950000Y-84950000D01*
X71050000Y-84950000D01*
X71050000Y-87050000D01*
X71050000Y-87050000D01*
G37*
G36*
X72707272Y-84961395D02*
X72745836Y-84965193D01*
X72943762Y-85025233D01*
X73126171Y-85122733D01*
X73286054Y-85253946D01*
X73417267Y-85413829D01*
X73514767Y-85596238D01*
X73574807Y-85794164D01*
X73574807Y-85794166D01*
X73595081Y-86000000D01*
X73578143Y-86171961D01*
X73574807Y-86205836D01*
X73514767Y-86403762D01*
X73417267Y-86586171D01*
X73286054Y-86746054D01*
X73126171Y-86877267D01*
X72943762Y-86974767D01*
X72745836Y-87034807D01*
X72707271Y-87038605D01*
X72591584Y-87050000D01*
X72488416Y-87050000D01*
X72372729Y-87038605D01*
X72334164Y-87034807D01*
X72136238Y-86974767D01*
X71953829Y-86877267D01*
X71793946Y-86746054D01*
X71662733Y-86586171D01*
X71565233Y-86403762D01*
X71505193Y-86205836D01*
X71501857Y-86171961D01*
X71484919Y-86000000D01*
X71505193Y-85794166D01*
X71505193Y-85794164D01*
X71565233Y-85596238D01*
X71662733Y-85413829D01*
X71793946Y-85253946D01*
X71953829Y-85122733D01*
X72136238Y-85025233D01*
X72334164Y-84965193D01*
X72372728Y-84961395D01*
X72488416Y-84950000D01*
X72591584Y-84950000D01*
X72707272Y-84961395D01*
X72707272Y-84961395D01*
G37*
G36*
X112950000Y-86075000D02*
X112200000Y-86575000D01*
X111450000Y-86075000D01*
X111450000Y-85075000D01*
X112950000Y-85075000D01*
X112950000Y-86075000D01*
X112950000Y-86075000D01*
G37*
G36*
X99125000Y-83300000D02*
X99625000Y-84050000D01*
X98475000Y-84050000D01*
X98475000Y-82550000D01*
X99625000Y-82550000D01*
X99125000Y-83300000D01*
X99125000Y-83300000D01*
G37*
G36*
X100925000Y-84050000D02*
X99925000Y-84050000D01*
X99425000Y-83300000D01*
X99925000Y-82550000D01*
X100925000Y-82550000D01*
X100925000Y-84050000D01*
X100925000Y-84050000D01*
G37*
G36*
X116008590Y-82630639D02*
X116058908Y-82645903D01*
X116105291Y-82670696D01*
X116145943Y-82704057D01*
X116179304Y-82744709D01*
X116204097Y-82791092D01*
X116219361Y-82841410D01*
X116225000Y-82898667D01*
X116225000Y-83701333D01*
X116219361Y-83758590D01*
X116204097Y-83808908D01*
X116179304Y-83855291D01*
X116145943Y-83895943D01*
X116105291Y-83929304D01*
X116058908Y-83954097D01*
X116008590Y-83969361D01*
X115951333Y-83975000D01*
X115223667Y-83975000D01*
X115166410Y-83969361D01*
X115116092Y-83954097D01*
X115069709Y-83929304D01*
X115029057Y-83895943D01*
X114995696Y-83855291D01*
X114970903Y-83808908D01*
X114955639Y-83758590D01*
X114950000Y-83701333D01*
X114950000Y-82898667D01*
X114955639Y-82841410D01*
X114970903Y-82791092D01*
X114995696Y-82744709D01*
X115029057Y-82704057D01*
X115069709Y-82670696D01*
X115116092Y-82645903D01*
X115166410Y-82630639D01*
X115223667Y-82625000D01*
X115951333Y-82625000D01*
X116008590Y-82630639D01*
X116008590Y-82630639D01*
G37*
G36*
X114433590Y-82630639D02*
X114483908Y-82645903D01*
X114530291Y-82670696D01*
X114570943Y-82704057D01*
X114604304Y-82744709D01*
X114629097Y-82791092D01*
X114644361Y-82841410D01*
X114650000Y-82898667D01*
X114650000Y-83701333D01*
X114644361Y-83758590D01*
X114629097Y-83808908D01*
X114604304Y-83855291D01*
X114570943Y-83895943D01*
X114530291Y-83929304D01*
X114483908Y-83954097D01*
X114433590Y-83969361D01*
X114376333Y-83975000D01*
X113648667Y-83975000D01*
X113591410Y-83969361D01*
X113541092Y-83954097D01*
X113494709Y-83929304D01*
X113454057Y-83895943D01*
X113420696Y-83855291D01*
X113395903Y-83808908D01*
X113380639Y-83758590D01*
X113375000Y-83701333D01*
X113375000Y-82898667D01*
X113380639Y-82841410D01*
X113395903Y-82791092D01*
X113420696Y-82744709D01*
X113454057Y-82704057D01*
X113494709Y-82670696D01*
X113541092Y-82645903D01*
X113591410Y-82630639D01*
X113648667Y-82625000D01*
X114376333Y-82625000D01*
X114433590Y-82630639D01*
X114433590Y-82630639D01*
G37*
G36*
X116488463Y-79306119D02*
X116543478Y-79322807D01*
X116594178Y-79349907D01*
X116638620Y-79386380D01*
X116675093Y-79430822D01*
X116702193Y-79481522D01*
X116718881Y-79536537D01*
X116725000Y-79598658D01*
X116725000Y-80801342D01*
X116718881Y-80863463D01*
X116702193Y-80918478D01*
X116675093Y-80969178D01*
X116638620Y-81013620D01*
X116594178Y-81050093D01*
X116543478Y-81077193D01*
X116488463Y-81093881D01*
X116426342Y-81100000D01*
X115648658Y-81100000D01*
X115586537Y-81093881D01*
X115531522Y-81077193D01*
X115480822Y-81050093D01*
X115436380Y-81013620D01*
X115399907Y-80969178D01*
X115372807Y-80918478D01*
X115356119Y-80863463D01*
X115350000Y-80801342D01*
X115350000Y-79598658D01*
X115356119Y-79536537D01*
X115372807Y-79481522D01*
X115399907Y-79430822D01*
X115436380Y-79386380D01*
X115480822Y-79349907D01*
X115531522Y-79322807D01*
X115586537Y-79306119D01*
X115648658Y-79300000D01*
X116426342Y-79300000D01*
X116488463Y-79306119D01*
X116488463Y-79306119D01*
G37*
G36*
X114613463Y-79306119D02*
X114668478Y-79322807D01*
X114719178Y-79349907D01*
X114763620Y-79386380D01*
X114800093Y-79430822D01*
X114827193Y-79481522D01*
X114843881Y-79536537D01*
X114850000Y-79598658D01*
X114850000Y-80801342D01*
X114843881Y-80863463D01*
X114827193Y-80918478D01*
X114800093Y-80969178D01*
X114763620Y-81013620D01*
X114719178Y-81050093D01*
X114668478Y-81077193D01*
X114613463Y-81093881D01*
X114551342Y-81100000D01*
X113773658Y-81100000D01*
X113711537Y-81093881D01*
X113656522Y-81077193D01*
X113605822Y-81050093D01*
X113561380Y-81013620D01*
X113524907Y-80969178D01*
X113497807Y-80918478D01*
X113481119Y-80863463D01*
X113475000Y-80801342D01*
X113475000Y-79598658D01*
X113481119Y-79536537D01*
X113497807Y-79481522D01*
X113524907Y-79430822D01*
X113561380Y-79386380D01*
X113605822Y-79349907D01*
X113656522Y-79322807D01*
X113711537Y-79306119D01*
X113773658Y-79300000D01*
X114551342Y-79300000D01*
X114613463Y-79306119D01*
X114613463Y-79306119D01*
G37*
G36*
X125367271Y-77381395D02*
X125405836Y-77385193D01*
X125603762Y-77445233D01*
X125786171Y-77542733D01*
X125946054Y-77673946D01*
X126077267Y-77833829D01*
X126174767Y-78016238D01*
X126234807Y-78214164D01*
X126234807Y-78214166D01*
X126255081Y-78420000D01*
X126238143Y-78591961D01*
X126234807Y-78625836D01*
X126174767Y-78823762D01*
X126077267Y-79006171D01*
X125946054Y-79166054D01*
X125786171Y-79297267D01*
X125603762Y-79394767D01*
X125405836Y-79454807D01*
X125367272Y-79458605D01*
X125251584Y-79470000D01*
X125148416Y-79470000D01*
X125032728Y-79458605D01*
X124994164Y-79454807D01*
X124796238Y-79394767D01*
X124613829Y-79297267D01*
X124453946Y-79166054D01*
X124322733Y-79006171D01*
X124225233Y-78823762D01*
X124165193Y-78625836D01*
X124161857Y-78591961D01*
X124144919Y-78420000D01*
X124165193Y-78214166D01*
X124165193Y-78214164D01*
X124225233Y-78016238D01*
X124322733Y-77833829D01*
X124453946Y-77673946D01*
X124613829Y-77542733D01*
X124796238Y-77445233D01*
X124994164Y-77385193D01*
X125032729Y-77381395D01*
X125148416Y-77370000D01*
X125251584Y-77370000D01*
X125367271Y-77381395D01*
X125367271Y-77381395D01*
G37*
G36*
X117707581Y-75530663D02*
X117758142Y-75546001D01*
X117804735Y-75570905D01*
X117845577Y-75604423D01*
X117879095Y-75645265D01*
X117903999Y-75691858D01*
X117919337Y-75742419D01*
X117925000Y-75799917D01*
X117925000Y-77400083D01*
X117919337Y-77457581D01*
X117903999Y-77508142D01*
X117879095Y-77554735D01*
X117845577Y-77595577D01*
X117804735Y-77629095D01*
X117758142Y-77653999D01*
X117707581Y-77669337D01*
X117650083Y-77675000D01*
X116549917Y-77675000D01*
X116492419Y-77669337D01*
X116441858Y-77653999D01*
X116395265Y-77629095D01*
X116354423Y-77595577D01*
X116320905Y-77554735D01*
X116296001Y-77508142D01*
X116280663Y-77457581D01*
X116275000Y-77400083D01*
X116275000Y-75799917D01*
X116280663Y-75742419D01*
X116296001Y-75691858D01*
X116320905Y-75645265D01*
X116354423Y-75604423D01*
X116395265Y-75570905D01*
X116441858Y-75546001D01*
X116492419Y-75530663D01*
X116549917Y-75525000D01*
X117650083Y-75525000D01*
X117707581Y-75530663D01*
X117707581Y-75530663D01*
G37*
G36*
X114907581Y-75530663D02*
X114958142Y-75546001D01*
X115004735Y-75570905D01*
X115045577Y-75604423D01*
X115079095Y-75645265D01*
X115103999Y-75691858D01*
X115119337Y-75742419D01*
X115125000Y-75799917D01*
X115125000Y-77400083D01*
X115119337Y-77457581D01*
X115103999Y-77508142D01*
X115079095Y-77554735D01*
X115045577Y-77595577D01*
X115004735Y-77629095D01*
X114958142Y-77653999D01*
X114907581Y-77669337D01*
X114850083Y-77675000D01*
X113749917Y-77675000D01*
X113692419Y-77669337D01*
X113641858Y-77653999D01*
X113595265Y-77629095D01*
X113554423Y-77595577D01*
X113520905Y-77554735D01*
X113496001Y-77508142D01*
X113480663Y-77457581D01*
X113475000Y-77400083D01*
X113475000Y-75799917D01*
X113480663Y-75742419D01*
X113496001Y-75691858D01*
X113520905Y-75645265D01*
X113554423Y-75604423D01*
X113595265Y-75570905D01*
X113641858Y-75546001D01*
X113692419Y-75530663D01*
X113749917Y-75525000D01*
X114850083Y-75525000D01*
X114907581Y-75530663D01*
X114907581Y-75530663D01*
G37*
G36*
X125367271Y-74841395D02*
X125405836Y-74845193D01*
X125603762Y-74905233D01*
X125786171Y-75002733D01*
X125946054Y-75133946D01*
X126077267Y-75293829D01*
X126174767Y-75476238D01*
X126234807Y-75674164D01*
X126234807Y-75674166D01*
X126255081Y-75880000D01*
X126238143Y-76051961D01*
X126234807Y-76085836D01*
X126174767Y-76283762D01*
X126077267Y-76466171D01*
X125946054Y-76626054D01*
X125786171Y-76757267D01*
X125603762Y-76854767D01*
X125405836Y-76914807D01*
X125367272Y-76918605D01*
X125251584Y-76930000D01*
X125148416Y-76930000D01*
X125032728Y-76918605D01*
X124994164Y-76914807D01*
X124796238Y-76854767D01*
X124613829Y-76757267D01*
X124453946Y-76626054D01*
X124322733Y-76466171D01*
X124225233Y-76283762D01*
X124165193Y-76085836D01*
X124161857Y-76051961D01*
X124144919Y-75880000D01*
X124165193Y-75674166D01*
X124165193Y-75674164D01*
X124225233Y-75476238D01*
X124322733Y-75293829D01*
X124453946Y-75133946D01*
X124613829Y-75002733D01*
X124796238Y-74905233D01*
X124994164Y-74845193D01*
X125032729Y-74841395D01*
X125148416Y-74830000D01*
X125251584Y-74830000D01*
X125367271Y-74841395D01*
X125367271Y-74841395D01*
G37*
G36*
X125367271Y-72301395D02*
X125405836Y-72305193D01*
X125603762Y-72365233D01*
X125786171Y-72462733D01*
X125946054Y-72593946D01*
X126077267Y-72753829D01*
X126174767Y-72936238D01*
X126234807Y-73134164D01*
X126234807Y-73134166D01*
X126255081Y-73340000D01*
X126247470Y-73417267D01*
X126234807Y-73545836D01*
X126174767Y-73743762D01*
X126077267Y-73926171D01*
X125946054Y-74086054D01*
X125786171Y-74217267D01*
X125603762Y-74314767D01*
X125405836Y-74374807D01*
X125367271Y-74378605D01*
X125251584Y-74390000D01*
X125148416Y-74390000D01*
X125032729Y-74378605D01*
X124994164Y-74374807D01*
X124796238Y-74314767D01*
X124613829Y-74217267D01*
X124453946Y-74086054D01*
X124322733Y-73926171D01*
X124225233Y-73743762D01*
X124165193Y-73545836D01*
X124152530Y-73417267D01*
X124144919Y-73340000D01*
X124165193Y-73134166D01*
X124165193Y-73134164D01*
X124225233Y-72936238D01*
X124322733Y-72753829D01*
X124453946Y-72593946D01*
X124613829Y-72462733D01*
X124796238Y-72365233D01*
X124994164Y-72305193D01*
X125032729Y-72301395D01*
X125148416Y-72290000D01*
X125251584Y-72290000D01*
X125367271Y-72301395D01*
X125367271Y-72301395D01*
G37*
G36*
X114733590Y-72530639D02*
X114783908Y-72545903D01*
X114830291Y-72570696D01*
X114870943Y-72604057D01*
X114904304Y-72644709D01*
X114929097Y-72691092D01*
X114944361Y-72741410D01*
X114950000Y-72798667D01*
X114950000Y-73601333D01*
X114944361Y-73658590D01*
X114929097Y-73708908D01*
X114904304Y-73755291D01*
X114870943Y-73795943D01*
X114830291Y-73829304D01*
X114783908Y-73854097D01*
X114733590Y-73869361D01*
X114676333Y-73875000D01*
X113948667Y-73875000D01*
X113891410Y-73869361D01*
X113841092Y-73854097D01*
X113794709Y-73829304D01*
X113754057Y-73795943D01*
X113720696Y-73755291D01*
X113695903Y-73708908D01*
X113680639Y-73658590D01*
X113675000Y-73601333D01*
X113675000Y-72798667D01*
X113680639Y-72741410D01*
X113695903Y-72691092D01*
X113720696Y-72644709D01*
X113754057Y-72604057D01*
X113794709Y-72570696D01*
X113841092Y-72545903D01*
X113891410Y-72530639D01*
X113948667Y-72525000D01*
X114676333Y-72525000D01*
X114733590Y-72530639D01*
X114733590Y-72530639D01*
G37*
G36*
X116308590Y-72530639D02*
X116358908Y-72545903D01*
X116405291Y-72570696D01*
X116445943Y-72604057D01*
X116479304Y-72644709D01*
X116504097Y-72691092D01*
X116519361Y-72741410D01*
X116525000Y-72798667D01*
X116525000Y-73601333D01*
X116519361Y-73658590D01*
X116504097Y-73708908D01*
X116479304Y-73755291D01*
X116445943Y-73795943D01*
X116405291Y-73829304D01*
X116358908Y-73854097D01*
X116308590Y-73869361D01*
X116251333Y-73875000D01*
X115523667Y-73875000D01*
X115466410Y-73869361D01*
X115416092Y-73854097D01*
X115369709Y-73829304D01*
X115329057Y-73795943D01*
X115295696Y-73755291D01*
X115270903Y-73708908D01*
X115255639Y-73658590D01*
X115250000Y-73601333D01*
X115250000Y-72798667D01*
X115255639Y-72741410D01*
X115270903Y-72691092D01*
X115295696Y-72644709D01*
X115329057Y-72604057D01*
X115369709Y-72570696D01*
X115416092Y-72545903D01*
X115466410Y-72530639D01*
X115523667Y-72525000D01*
X116251333Y-72525000D01*
X116308590Y-72530639D01*
X116308590Y-72530639D01*
G37*
G36*
X118258590Y-72555639D02*
X118308908Y-72570903D01*
X118355291Y-72595696D01*
X118395943Y-72629057D01*
X118429304Y-72669709D01*
X118454097Y-72716092D01*
X118469361Y-72766410D01*
X118475000Y-72823667D01*
X118475000Y-73551333D01*
X118469361Y-73608590D01*
X118454097Y-73658908D01*
X118429304Y-73705291D01*
X118395943Y-73745943D01*
X118355291Y-73779304D01*
X118308908Y-73804097D01*
X118258590Y-73819361D01*
X118201333Y-73825000D01*
X117398667Y-73825000D01*
X117341410Y-73819361D01*
X117291092Y-73804097D01*
X117244709Y-73779304D01*
X117204057Y-73745943D01*
X117170696Y-73705291D01*
X117145903Y-73658908D01*
X117130639Y-73608590D01*
X117125000Y-73551333D01*
X117125000Y-72823667D01*
X117130639Y-72766410D01*
X117145903Y-72716092D01*
X117170696Y-72669709D01*
X117204057Y-72629057D01*
X117244709Y-72595696D01*
X117291092Y-72570903D01*
X117341410Y-72555639D01*
X117398667Y-72550000D01*
X118201333Y-72550000D01*
X118258590Y-72555639D01*
X118258590Y-72555639D01*
G37*
G36*
X98907271Y-71501395D02*
X98945836Y-71505193D01*
X99143762Y-71565233D01*
X99326171Y-71662733D01*
X99486054Y-71793946D01*
X99617267Y-71953829D01*
X99714767Y-72136238D01*
X99774807Y-72334164D01*
X99774807Y-72334166D01*
X99795081Y-72540000D01*
X99786309Y-72629057D01*
X99774807Y-72745836D01*
X99714767Y-72943762D01*
X99617267Y-73126171D01*
X99486054Y-73286054D01*
X99326171Y-73417267D01*
X99143762Y-73514767D01*
X98945836Y-73574807D01*
X98907271Y-73578605D01*
X98791584Y-73590000D01*
X98688416Y-73590000D01*
X98572729Y-73578605D01*
X98534164Y-73574807D01*
X98336238Y-73514767D01*
X98153829Y-73417267D01*
X97993946Y-73286054D01*
X97862733Y-73126171D01*
X97765233Y-72943762D01*
X97705193Y-72745836D01*
X97693691Y-72629057D01*
X97684919Y-72540000D01*
X97705193Y-72334166D01*
X97705193Y-72334164D01*
X97765233Y-72136238D01*
X97862733Y-71953829D01*
X97993946Y-71793946D01*
X98153829Y-71662733D01*
X98336238Y-71565233D01*
X98534164Y-71505193D01*
X98572729Y-71501395D01*
X98688416Y-71490000D01*
X98791584Y-71490000D01*
X98907271Y-71501395D01*
X98907271Y-71501395D01*
G37*
G36*
X93827271Y-71501395D02*
X93865836Y-71505193D01*
X94063762Y-71565233D01*
X94246171Y-71662733D01*
X94406054Y-71793946D01*
X94537267Y-71953829D01*
X94634767Y-72136238D01*
X94694807Y-72334164D01*
X94694807Y-72334166D01*
X94715081Y-72540000D01*
X94706309Y-72629057D01*
X94694807Y-72745836D01*
X94634767Y-72943762D01*
X94537267Y-73126171D01*
X94406054Y-73286054D01*
X94246171Y-73417267D01*
X94063762Y-73514767D01*
X93865836Y-73574807D01*
X93827271Y-73578605D01*
X93711584Y-73590000D01*
X93608416Y-73590000D01*
X93492729Y-73578605D01*
X93454164Y-73574807D01*
X93256238Y-73514767D01*
X93073829Y-73417267D01*
X92913946Y-73286054D01*
X92782733Y-73126171D01*
X92685233Y-72943762D01*
X92625193Y-72745836D01*
X92613691Y-72629057D01*
X92604919Y-72540000D01*
X92625193Y-72334166D01*
X92625193Y-72334164D01*
X92685233Y-72136238D01*
X92782733Y-71953829D01*
X92913946Y-71793946D01*
X93073829Y-71662733D01*
X93256238Y-71565233D01*
X93454164Y-71505193D01*
X93492729Y-71501395D01*
X93608416Y-71490000D01*
X93711584Y-71490000D01*
X93827271Y-71501395D01*
X93827271Y-71501395D01*
G37*
G36*
X96367271Y-71501395D02*
X96405836Y-71505193D01*
X96603762Y-71565233D01*
X96786171Y-71662733D01*
X96946054Y-71793946D01*
X97077267Y-71953829D01*
X97174767Y-72136238D01*
X97234807Y-72334164D01*
X97234807Y-72334166D01*
X97255081Y-72540000D01*
X97246309Y-72629057D01*
X97234807Y-72745836D01*
X97174767Y-72943762D01*
X97077267Y-73126171D01*
X96946054Y-73286054D01*
X96786171Y-73417267D01*
X96603762Y-73514767D01*
X96405836Y-73574807D01*
X96367271Y-73578605D01*
X96251584Y-73590000D01*
X96148416Y-73590000D01*
X96032729Y-73578605D01*
X95994164Y-73574807D01*
X95796238Y-73514767D01*
X95613829Y-73417267D01*
X95453946Y-73286054D01*
X95322733Y-73126171D01*
X95225233Y-72943762D01*
X95165193Y-72745836D01*
X95153691Y-72629057D01*
X95144919Y-72540000D01*
X95165193Y-72334166D01*
X95165193Y-72334164D01*
X95225233Y-72136238D01*
X95322733Y-71953829D01*
X95453946Y-71793946D01*
X95613829Y-71662733D01*
X95796238Y-71565233D01*
X95994164Y-71505193D01*
X96032729Y-71501395D01*
X96148416Y-71490000D01*
X96251584Y-71490000D01*
X96367271Y-71501395D01*
X96367271Y-71501395D01*
G37*
G36*
X101447271Y-71501395D02*
X101485836Y-71505193D01*
X101683762Y-71565233D01*
X101866171Y-71662733D01*
X102026054Y-71793946D01*
X102157267Y-71953829D01*
X102254767Y-72136238D01*
X102314807Y-72334164D01*
X102314807Y-72334166D01*
X102335081Y-72540000D01*
X102326309Y-72629057D01*
X102314807Y-72745836D01*
X102254767Y-72943762D01*
X102157267Y-73126171D01*
X102026054Y-73286054D01*
X101866171Y-73417267D01*
X101683762Y-73514767D01*
X101485836Y-73574807D01*
X101447271Y-73578605D01*
X101331584Y-73590000D01*
X101228416Y-73590000D01*
X101112729Y-73578605D01*
X101074164Y-73574807D01*
X100876238Y-73514767D01*
X100693829Y-73417267D01*
X100533946Y-73286054D01*
X100402733Y-73126171D01*
X100305233Y-72943762D01*
X100245193Y-72745836D01*
X100233691Y-72629057D01*
X100224919Y-72540000D01*
X100245193Y-72334166D01*
X100245193Y-72334164D01*
X100305233Y-72136238D01*
X100402733Y-71953829D01*
X100533946Y-71793946D01*
X100693829Y-71662733D01*
X100876238Y-71565233D01*
X101074164Y-71505193D01*
X101112729Y-71501395D01*
X101228416Y-71490000D01*
X101331584Y-71490000D01*
X101447271Y-71501395D01*
X101447271Y-71501395D01*
G37*
G36*
X103987271Y-71501395D02*
X104025836Y-71505193D01*
X104223762Y-71565233D01*
X104406171Y-71662733D01*
X104566054Y-71793946D01*
X104697267Y-71953829D01*
X104794767Y-72136238D01*
X104854807Y-72334164D01*
X104854807Y-72334166D01*
X104875081Y-72540000D01*
X104866309Y-72629057D01*
X104854807Y-72745836D01*
X104794767Y-72943762D01*
X104697267Y-73126171D01*
X104566054Y-73286054D01*
X104406171Y-73417267D01*
X104223762Y-73514767D01*
X104025836Y-73574807D01*
X103987271Y-73578605D01*
X103871584Y-73590000D01*
X103768416Y-73590000D01*
X103652729Y-73578605D01*
X103614164Y-73574807D01*
X103416238Y-73514767D01*
X103233829Y-73417267D01*
X103073946Y-73286054D01*
X102942733Y-73126171D01*
X102845233Y-72943762D01*
X102785193Y-72745836D01*
X102773691Y-72629057D01*
X102764919Y-72540000D01*
X102785193Y-72334166D01*
X102785193Y-72334164D01*
X102845233Y-72136238D01*
X102942733Y-71953829D01*
X103073946Y-71793946D01*
X103233829Y-71662733D01*
X103416238Y-71565233D01*
X103614164Y-71505193D01*
X103652729Y-71501395D01*
X103768416Y-71490000D01*
X103871584Y-71490000D01*
X103987271Y-71501395D01*
X103987271Y-71501395D01*
G37*
G36*
X109067271Y-71501395D02*
X109105836Y-71505193D01*
X109303762Y-71565233D01*
X109486171Y-71662733D01*
X109646054Y-71793946D01*
X109777267Y-71953829D01*
X109874767Y-72136238D01*
X109934807Y-72334164D01*
X109934807Y-72334166D01*
X109955081Y-72540000D01*
X109946309Y-72629057D01*
X109934807Y-72745836D01*
X109874767Y-72943762D01*
X109777267Y-73126171D01*
X109646054Y-73286054D01*
X109486171Y-73417267D01*
X109303762Y-73514767D01*
X109105836Y-73574807D01*
X109067271Y-73578605D01*
X108951584Y-73590000D01*
X108848416Y-73590000D01*
X108732729Y-73578605D01*
X108694164Y-73574807D01*
X108496238Y-73514767D01*
X108313829Y-73417267D01*
X108153946Y-73286054D01*
X108022733Y-73126171D01*
X107925233Y-72943762D01*
X107865193Y-72745836D01*
X107853691Y-72629057D01*
X107844919Y-72540000D01*
X107865193Y-72334166D01*
X107865193Y-72334164D01*
X107925233Y-72136238D01*
X108022733Y-71953829D01*
X108153946Y-71793946D01*
X108313829Y-71662733D01*
X108496238Y-71565233D01*
X108694164Y-71505193D01*
X108732729Y-71501395D01*
X108848416Y-71490000D01*
X108951584Y-71490000D01*
X109067271Y-71501395D01*
X109067271Y-71501395D01*
G37*
G36*
X91287271Y-71501395D02*
X91325836Y-71505193D01*
X91523762Y-71565233D01*
X91706171Y-71662733D01*
X91866054Y-71793946D01*
X91997267Y-71953829D01*
X92094767Y-72136238D01*
X92154807Y-72334164D01*
X92154807Y-72334166D01*
X92175081Y-72540000D01*
X92166309Y-72629057D01*
X92154807Y-72745836D01*
X92094767Y-72943762D01*
X91997267Y-73126171D01*
X91866054Y-73286054D01*
X91706171Y-73417267D01*
X91523762Y-73514767D01*
X91325836Y-73574807D01*
X91287271Y-73578605D01*
X91171584Y-73590000D01*
X91068416Y-73590000D01*
X90952729Y-73578605D01*
X90914164Y-73574807D01*
X90716238Y-73514767D01*
X90533829Y-73417267D01*
X90373946Y-73286054D01*
X90242733Y-73126171D01*
X90145233Y-72943762D01*
X90085193Y-72745836D01*
X90073691Y-72629057D01*
X90064919Y-72540000D01*
X90085193Y-72334166D01*
X90085193Y-72334164D01*
X90145233Y-72136238D01*
X90242733Y-71953829D01*
X90373946Y-71793946D01*
X90533829Y-71662733D01*
X90716238Y-71565233D01*
X90914164Y-71505193D01*
X90952729Y-71501395D01*
X91068416Y-71490000D01*
X91171584Y-71490000D01*
X91287271Y-71501395D01*
X91287271Y-71501395D01*
G37*
G36*
X106527271Y-71501395D02*
X106565836Y-71505193D01*
X106763762Y-71565233D01*
X106946171Y-71662733D01*
X107106054Y-71793946D01*
X107237267Y-71953829D01*
X107334767Y-72136238D01*
X107394807Y-72334164D01*
X107394807Y-72334166D01*
X107415081Y-72540000D01*
X107406309Y-72629057D01*
X107394807Y-72745836D01*
X107334767Y-72943762D01*
X107237267Y-73126171D01*
X107106054Y-73286054D01*
X106946171Y-73417267D01*
X106763762Y-73514767D01*
X106565836Y-73574807D01*
X106527271Y-73578605D01*
X106411584Y-73590000D01*
X106308416Y-73590000D01*
X106192729Y-73578605D01*
X106154164Y-73574807D01*
X105956238Y-73514767D01*
X105773829Y-73417267D01*
X105613946Y-73286054D01*
X105482733Y-73126171D01*
X105385233Y-72943762D01*
X105325193Y-72745836D01*
X105313691Y-72629057D01*
X105304919Y-72540000D01*
X105325193Y-72334166D01*
X105325193Y-72334164D01*
X105385233Y-72136238D01*
X105482733Y-71953829D01*
X105613946Y-71793946D01*
X105773829Y-71662733D01*
X105956238Y-71565233D01*
X106154164Y-71505193D01*
X106192729Y-71501395D01*
X106308416Y-71490000D01*
X106411584Y-71490000D01*
X106527271Y-71501395D01*
X106527271Y-71501395D01*
G37*
G36*
X118258590Y-70980639D02*
X118308908Y-70995903D01*
X118355291Y-71020696D01*
X118395943Y-71054057D01*
X118429304Y-71094709D01*
X118454097Y-71141092D01*
X118469361Y-71191410D01*
X118475000Y-71248667D01*
X118475000Y-71976333D01*
X118469361Y-72033590D01*
X118454097Y-72083908D01*
X118429304Y-72130291D01*
X118395943Y-72170943D01*
X118355291Y-72204304D01*
X118308908Y-72229097D01*
X118258590Y-72244361D01*
X118201333Y-72250000D01*
X117398667Y-72250000D01*
X117341410Y-72244361D01*
X117291092Y-72229097D01*
X117244709Y-72204304D01*
X117204057Y-72170943D01*
X117170696Y-72130291D01*
X117145903Y-72083908D01*
X117130639Y-72033590D01*
X117125000Y-71976333D01*
X117125000Y-71248667D01*
X117130639Y-71191410D01*
X117145903Y-71141092D01*
X117170696Y-71094709D01*
X117204057Y-71054057D01*
X117244709Y-71020696D01*
X117291092Y-70995903D01*
X117341410Y-70980639D01*
X117398667Y-70975000D01*
X118201333Y-70975000D01*
X118258590Y-70980639D01*
X118258590Y-70980639D01*
G37*
G36*
X126250000Y-71850000D02*
X124150000Y-71850000D01*
X124150000Y-69750000D01*
X126250000Y-69750000D01*
X126250000Y-71850000D01*
X126250000Y-71850000D01*
G37*
G36*
X101447271Y-68961395D02*
X101485836Y-68965193D01*
X101683762Y-69025233D01*
X101866171Y-69122733D01*
X102026054Y-69253946D01*
X102157267Y-69413829D01*
X102254767Y-69596238D01*
X102314807Y-69794164D01*
X102314807Y-69794166D01*
X102335081Y-70000000D01*
X102318143Y-70171961D01*
X102314807Y-70205836D01*
X102254767Y-70403762D01*
X102157267Y-70586171D01*
X102026054Y-70746054D01*
X101866171Y-70877267D01*
X101683762Y-70974767D01*
X101485836Y-71034807D01*
X101447271Y-71038605D01*
X101331584Y-71050000D01*
X101228416Y-71050000D01*
X101112729Y-71038605D01*
X101074164Y-71034807D01*
X100876238Y-70974767D01*
X100693829Y-70877267D01*
X100533946Y-70746054D01*
X100402733Y-70586171D01*
X100305233Y-70403762D01*
X100245193Y-70205836D01*
X100241857Y-70171961D01*
X100224919Y-70000000D01*
X100245193Y-69794166D01*
X100245193Y-69794164D01*
X100305233Y-69596238D01*
X100402733Y-69413829D01*
X100533946Y-69253946D01*
X100693829Y-69122733D01*
X100876238Y-69025233D01*
X101074164Y-68965193D01*
X101112729Y-68961395D01*
X101228416Y-68950000D01*
X101331584Y-68950000D01*
X101447271Y-68961395D01*
X101447271Y-68961395D01*
G37*
G36*
X91287271Y-68961395D02*
X91325836Y-68965193D01*
X91523762Y-69025233D01*
X91706171Y-69122733D01*
X91866054Y-69253946D01*
X91997267Y-69413829D01*
X92094767Y-69596238D01*
X92154807Y-69794164D01*
X92154807Y-69794166D01*
X92175081Y-70000000D01*
X92158143Y-70171961D01*
X92154807Y-70205836D01*
X92094767Y-70403762D01*
X91997267Y-70586171D01*
X91866054Y-70746054D01*
X91706171Y-70877267D01*
X91523762Y-70974767D01*
X91325836Y-71034807D01*
X91287271Y-71038605D01*
X91171584Y-71050000D01*
X91068416Y-71050000D01*
X90952729Y-71038605D01*
X90914164Y-71034807D01*
X90716238Y-70974767D01*
X90533829Y-70877267D01*
X90373946Y-70746054D01*
X90242733Y-70586171D01*
X90145233Y-70403762D01*
X90085193Y-70205836D01*
X90081857Y-70171961D01*
X90064919Y-70000000D01*
X90085193Y-69794166D01*
X90085193Y-69794164D01*
X90145233Y-69596238D01*
X90242733Y-69413829D01*
X90373946Y-69253946D01*
X90533829Y-69122733D01*
X90716238Y-69025233D01*
X90914164Y-68965193D01*
X90952729Y-68961395D01*
X91068416Y-68950000D01*
X91171584Y-68950000D01*
X91287271Y-68961395D01*
X91287271Y-68961395D01*
G37*
G36*
X93827271Y-68961395D02*
X93865836Y-68965193D01*
X94063762Y-69025233D01*
X94246171Y-69122733D01*
X94406054Y-69253946D01*
X94537267Y-69413829D01*
X94634767Y-69596238D01*
X94694807Y-69794164D01*
X94694807Y-69794166D01*
X94715081Y-70000000D01*
X94698143Y-70171961D01*
X94694807Y-70205836D01*
X94634767Y-70403762D01*
X94537267Y-70586171D01*
X94406054Y-70746054D01*
X94246171Y-70877267D01*
X94063762Y-70974767D01*
X93865836Y-71034807D01*
X93827271Y-71038605D01*
X93711584Y-71050000D01*
X93608416Y-71050000D01*
X93492729Y-71038605D01*
X93454164Y-71034807D01*
X93256238Y-70974767D01*
X93073829Y-70877267D01*
X92913946Y-70746054D01*
X92782733Y-70586171D01*
X92685233Y-70403762D01*
X92625193Y-70205836D01*
X92621857Y-70171961D01*
X92604919Y-70000000D01*
X92625193Y-69794166D01*
X92625193Y-69794164D01*
X92685233Y-69596238D01*
X92782733Y-69413829D01*
X92913946Y-69253946D01*
X93073829Y-69122733D01*
X93256238Y-69025233D01*
X93454164Y-68965193D01*
X93492729Y-68961395D01*
X93608416Y-68950000D01*
X93711584Y-68950000D01*
X93827271Y-68961395D01*
X93827271Y-68961395D01*
G37*
G36*
X109950000Y-71050000D02*
X107850000Y-71050000D01*
X107850000Y-68950000D01*
X109950000Y-68950000D01*
X109950000Y-71050000D01*
X109950000Y-71050000D01*
G37*
G36*
X96367271Y-68961395D02*
X96405836Y-68965193D01*
X96603762Y-69025233D01*
X96786171Y-69122733D01*
X96946054Y-69253946D01*
X97077267Y-69413829D01*
X97174767Y-69596238D01*
X97234807Y-69794164D01*
X97234807Y-69794166D01*
X97255081Y-70000000D01*
X97238143Y-70171961D01*
X97234807Y-70205836D01*
X97174767Y-70403762D01*
X97077267Y-70586171D01*
X96946054Y-70746054D01*
X96786171Y-70877267D01*
X96603762Y-70974767D01*
X96405836Y-71034807D01*
X96367271Y-71038605D01*
X96251584Y-71050000D01*
X96148416Y-71050000D01*
X96032729Y-71038605D01*
X95994164Y-71034807D01*
X95796238Y-70974767D01*
X95613829Y-70877267D01*
X95453946Y-70746054D01*
X95322733Y-70586171D01*
X95225233Y-70403762D01*
X95165193Y-70205836D01*
X95161857Y-70171961D01*
X95144919Y-70000000D01*
X95165193Y-69794166D01*
X95165193Y-69794164D01*
X95225233Y-69596238D01*
X95322733Y-69413829D01*
X95453946Y-69253946D01*
X95613829Y-69122733D01*
X95796238Y-69025233D01*
X95994164Y-68965193D01*
X96032729Y-68961395D01*
X96148416Y-68950000D01*
X96251584Y-68950000D01*
X96367271Y-68961395D01*
X96367271Y-68961395D01*
G37*
G36*
X106527271Y-68961395D02*
X106565836Y-68965193D01*
X106763762Y-69025233D01*
X106946171Y-69122733D01*
X107106054Y-69253946D01*
X107237267Y-69413829D01*
X107334767Y-69596238D01*
X107394807Y-69794164D01*
X107394807Y-69794166D01*
X107415081Y-70000000D01*
X107398143Y-70171961D01*
X107394807Y-70205836D01*
X107334767Y-70403762D01*
X107237267Y-70586171D01*
X107106054Y-70746054D01*
X106946171Y-70877267D01*
X106763762Y-70974767D01*
X106565836Y-71034807D01*
X106527271Y-71038605D01*
X106411584Y-71050000D01*
X106308416Y-71050000D01*
X106192729Y-71038605D01*
X106154164Y-71034807D01*
X105956238Y-70974767D01*
X105773829Y-70877267D01*
X105613946Y-70746054D01*
X105482733Y-70586171D01*
X105385233Y-70403762D01*
X105325193Y-70205836D01*
X105321857Y-70171961D01*
X105304919Y-70000000D01*
X105325193Y-69794166D01*
X105325193Y-69794164D01*
X105385233Y-69596238D01*
X105482733Y-69413829D01*
X105613946Y-69253946D01*
X105773829Y-69122733D01*
X105956238Y-69025233D01*
X106154164Y-68965193D01*
X106192729Y-68961395D01*
X106308416Y-68950000D01*
X106411584Y-68950000D01*
X106527271Y-68961395D01*
X106527271Y-68961395D01*
G37*
G36*
X98907271Y-68961395D02*
X98945836Y-68965193D01*
X99143762Y-69025233D01*
X99326171Y-69122733D01*
X99486054Y-69253946D01*
X99617267Y-69413829D01*
X99714767Y-69596238D01*
X99774807Y-69794164D01*
X99774807Y-69794166D01*
X99795081Y-70000000D01*
X99778143Y-70171961D01*
X99774807Y-70205836D01*
X99714767Y-70403762D01*
X99617267Y-70586171D01*
X99486054Y-70746054D01*
X99326171Y-70877267D01*
X99143762Y-70974767D01*
X98945836Y-71034807D01*
X98907271Y-71038605D01*
X98791584Y-71050000D01*
X98688416Y-71050000D01*
X98572729Y-71038605D01*
X98534164Y-71034807D01*
X98336238Y-70974767D01*
X98153829Y-70877267D01*
X97993946Y-70746054D01*
X97862733Y-70586171D01*
X97765233Y-70403762D01*
X97705193Y-70205836D01*
X97701857Y-70171961D01*
X97684919Y-70000000D01*
X97705193Y-69794166D01*
X97705193Y-69794164D01*
X97765233Y-69596238D01*
X97862733Y-69413829D01*
X97993946Y-69253946D01*
X98153829Y-69122733D01*
X98336238Y-69025233D01*
X98534164Y-68965193D01*
X98572729Y-68961395D01*
X98688416Y-68950000D01*
X98791584Y-68950000D01*
X98907271Y-68961395D01*
X98907271Y-68961395D01*
G37*
G36*
X103987271Y-68961395D02*
X104025836Y-68965193D01*
X104223762Y-69025233D01*
X104406171Y-69122733D01*
X104566054Y-69253946D01*
X104697267Y-69413829D01*
X104794767Y-69596238D01*
X104854807Y-69794164D01*
X104854807Y-69794166D01*
X104875081Y-70000000D01*
X104858143Y-70171961D01*
X104854807Y-70205836D01*
X104794767Y-70403762D01*
X104697267Y-70586171D01*
X104566054Y-70746054D01*
X104406171Y-70877267D01*
X104223762Y-70974767D01*
X104025836Y-71034807D01*
X103987271Y-71038605D01*
X103871584Y-71050000D01*
X103768416Y-71050000D01*
X103652729Y-71038605D01*
X103614164Y-71034807D01*
X103416238Y-70974767D01*
X103233829Y-70877267D01*
X103073946Y-70746054D01*
X102942733Y-70586171D01*
X102845233Y-70403762D01*
X102785193Y-70205836D01*
X102781857Y-70171961D01*
X102764919Y-70000000D01*
X102785193Y-69794166D01*
X102785193Y-69794164D01*
X102845233Y-69596238D01*
X102942733Y-69413829D01*
X103073946Y-69253946D01*
X103233829Y-69122733D01*
X103416238Y-69025233D01*
X103614164Y-68965193D01*
X103652729Y-68961395D01*
X103768416Y-68950000D01*
X103871584Y-68950000D01*
X103987271Y-68961395D01*
X103987271Y-68961395D01*
G37*
G36*
X135991743Y-61730660D02*
X135991745Y-61730661D01*
X135991746Y-61730661D01*
X136610504Y-61986959D01*
X137167372Y-62359046D01*
X137640954Y-62832628D01*
X138013041Y-63389496D01*
X138135618Y-63685422D01*
X138269340Y-64008257D01*
X138400000Y-64665129D01*
X138400000Y-65334871D01*
X138347263Y-65600000D01*
X138269339Y-65991746D01*
X138013041Y-66610504D01*
X137640954Y-67167372D01*
X137167372Y-67640954D01*
X136610504Y-68013041D01*
X135991746Y-68269339D01*
X135991745Y-68269339D01*
X135991743Y-68269340D01*
X135334871Y-68400000D01*
X134665129Y-68400000D01*
X134008257Y-68269340D01*
X134008255Y-68269339D01*
X134008254Y-68269339D01*
X133389496Y-68013041D01*
X132832628Y-67640954D01*
X132359046Y-67167372D01*
X131986959Y-66610504D01*
X131730661Y-65991746D01*
X131652738Y-65600000D01*
X131600000Y-65334871D01*
X131600000Y-64665129D01*
X131730660Y-64008257D01*
X131864383Y-63685422D01*
X131986959Y-63389496D01*
X132359046Y-62832628D01*
X132832628Y-62359046D01*
X133389496Y-61986959D01*
X134008254Y-61730661D01*
X134008255Y-61730661D01*
X134008257Y-61730660D01*
X134665129Y-61600000D01*
X135334871Y-61600000D01*
X135991743Y-61730660D01*
X135991743Y-61730660D01*
G37*
G36*
X65991743Y-61730660D02*
X65991745Y-61730661D01*
X65991746Y-61730661D01*
X66610504Y-61986959D01*
X67167372Y-62359046D01*
X67640954Y-62832628D01*
X68013041Y-63389496D01*
X68135618Y-63685422D01*
X68269340Y-64008257D01*
X68400000Y-64665129D01*
X68400000Y-65334871D01*
X68347263Y-65600000D01*
X68269339Y-65991746D01*
X68013041Y-66610504D01*
X67640954Y-67167372D01*
X67167372Y-67640954D01*
X66610504Y-68013041D01*
X65991746Y-68269339D01*
X65991745Y-68269339D01*
X65991743Y-68269340D01*
X65334871Y-68400000D01*
X64665129Y-68400000D01*
X64008257Y-68269340D01*
X64008255Y-68269339D01*
X64008254Y-68269339D01*
X63389496Y-68013041D01*
X62832628Y-67640954D01*
X62359046Y-67167372D01*
X61986959Y-66610504D01*
X61730661Y-65991746D01*
X61652738Y-65600000D01*
X61600000Y-65334871D01*
X61600000Y-64665129D01*
X61730660Y-64008257D01*
X61864383Y-63685422D01*
X61986959Y-63389496D01*
X62359046Y-62832628D01*
X62832628Y-62359046D01*
X63389496Y-61986959D01*
X64008254Y-61730661D01*
X64008255Y-61730661D01*
X64008257Y-61730660D01*
X64665129Y-61600000D01*
X65334871Y-61600000D01*
X65991743Y-61730660D01*
X65991743Y-61730660D01*
G37*
M02*
