G04 #@! TF.GenerationSoftware,KiCad,Pcbnew,5.0.0-fee4fd1~65~ubuntu18.04.1*
G04 #@! TF.CreationDate,2018-07-29T00:01:00+03:00*
G04 #@! TF.ProjectId,GB-BRK-CPU-G2,47422D42524B2D4350552D47322E6B69,v1.0*
G04 #@! TF.SameCoordinates,Original*
G04 #@! TF.FileFunction,Copper,L2,Bot,Signal*
G04 #@! TF.FilePolarity,Positive*
%FSLAX46Y46*%
G04 Gerber Fmt 4.6, Leading zero omitted, Abs format (unit mm)*
G04 Created by KiCad (PCBNEW 5.0.0-fee4fd1~65~ubuntu18.04.1) date Sun Jul 29 00:01:00 2018*
%MOMM*%
%LPD*%
G01*
G04 APERTURE LIST*
G04 #@! TA.AperFunction,NonConductor*
%ADD10C,0.150000*%
G04 #@! TD*
G04 #@! TA.AperFunction,ComponentPad*
%ADD11C,0.800000*%
G04 #@! TD*
G04 #@! TA.AperFunction,ComponentPad*
%ADD12C,6.400000*%
G04 #@! TD*
G04 #@! TA.AperFunction,ComponentPad*
%ADD13O,1.700000X1.700000*%
G04 #@! TD*
G04 #@! TA.AperFunction,ComponentPad*
%ADD14R,1.700000X1.700000*%
G04 #@! TD*
G04 #@! TA.AperFunction,ViaPad*
%ADD15C,0.800000*%
G04 #@! TD*
G04 #@! TA.AperFunction,Conductor*
%ADD16C,0.254000*%
G04 #@! TD*
G04 APERTURE END LIST*
D10*
X140000000Y-60000000D02*
X60000000Y-60000000D01*
X140000000Y-140000000D02*
X140000000Y-60000000D01*
X60000000Y-140000000D02*
X140000000Y-140000000D01*
X60000000Y-60000000D02*
X60000000Y-140000000D01*
D11*
G04 #@! TO.P,MK2,1*
G04 #@! TO.N,GND*
X66697056Y-133302944D03*
X65000000Y-132600000D03*
X63302944Y-133302944D03*
X62600000Y-135000000D03*
X63302944Y-136697056D03*
X65000000Y-137400000D03*
X66697056Y-136697056D03*
X67400000Y-135000000D03*
D12*
X65000000Y-135000000D03*
G04 #@! TD*
D11*
G04 #@! TO.P,MK1,1*
G04 #@! TO.N,GND*
X66697056Y-63302944D03*
X65000000Y-62600000D03*
X63302944Y-63302944D03*
X62600000Y-65000000D03*
X63302944Y-66697056D03*
X65000000Y-67400000D03*
X66697056Y-66697056D03*
X67400000Y-65000000D03*
D12*
X65000000Y-65000000D03*
G04 #@! TD*
D11*
G04 #@! TO.P,MK3,1*
G04 #@! TO.N,GND*
X136697056Y-63302944D03*
X135000000Y-62600000D03*
X133302944Y-63302944D03*
X132600000Y-65000000D03*
X133302944Y-66697056D03*
X135000000Y-67400000D03*
X136697056Y-66697056D03*
X137400000Y-65000000D03*
D12*
X135000000Y-65000000D03*
G04 #@! TD*
D11*
G04 #@! TO.P,MK4,1*
G04 #@! TO.N,GND*
X136697056Y-133302944D03*
X135000000Y-132600000D03*
X133302944Y-133302944D03*
X132600000Y-135000000D03*
X133302944Y-136697056D03*
X135000000Y-137400000D03*
X136697056Y-136697056D03*
X137400000Y-135000000D03*
D12*
X135000000Y-135000000D03*
G04 #@! TD*
D13*
G04 #@! TO.P,J5,4*
G04 #@! TO.N,GND*
X120400000Y-126920000D03*
G04 #@! TO.P,J5,3*
X120400000Y-124380000D03*
G04 #@! TO.P,J5,2*
X120400000Y-121840000D03*
D14*
G04 #@! TO.P,J5,1*
X120400000Y-119300000D03*
G04 #@! TD*
D13*
G04 #@! TO.P,J1,24*
G04 #@! TO.N,/Pin_24*
X72540000Y-113940000D03*
G04 #@! TO.P,J1,23*
G04 #@! TO.N,/Pin_23*
X70000000Y-113940000D03*
G04 #@! TO.P,J1,22*
G04 #@! TO.N,/Pin_22*
X72540000Y-111400000D03*
G04 #@! TO.P,J1,21*
G04 #@! TO.N,/Pin_21*
X70000000Y-111400000D03*
G04 #@! TO.P,J1,20*
G04 #@! TO.N,/Pin_20*
X72540000Y-108860000D03*
G04 #@! TO.P,J1,19*
G04 #@! TO.N,/Pin_19*
X70000000Y-108860000D03*
G04 #@! TO.P,J1,18*
G04 #@! TO.N,/Pin_18*
X72540000Y-106320000D03*
G04 #@! TO.P,J1,17*
G04 #@! TO.N,/Pin_17*
X70000000Y-106320000D03*
G04 #@! TO.P,J1,16*
G04 #@! TO.N,/Pin_16*
X72540000Y-103780000D03*
G04 #@! TO.P,J1,15*
G04 #@! TO.N,/Pin_15*
X70000000Y-103780000D03*
G04 #@! TO.P,J1,14*
G04 #@! TO.N,/Pin_14*
X72540000Y-101240000D03*
G04 #@! TO.P,J1,13*
G04 #@! TO.N,/Pin_13*
X70000000Y-101240000D03*
G04 #@! TO.P,J1,12*
G04 #@! TO.N,/Pin_12*
X72540000Y-98700000D03*
G04 #@! TO.P,J1,11*
G04 #@! TO.N,/Pin_11*
X70000000Y-98700000D03*
G04 #@! TO.P,J1,10*
G04 #@! TO.N,/Pin_10*
X72540000Y-96160000D03*
G04 #@! TO.P,J1,9*
G04 #@! TO.N,/Pin_9*
X70000000Y-96160000D03*
G04 #@! TO.P,J1,8*
G04 #@! TO.N,/Pin_8*
X72540000Y-93620000D03*
G04 #@! TO.P,J1,7*
G04 #@! TO.N,/Pin_7*
X70000000Y-93620000D03*
G04 #@! TO.P,J1,6*
G04 #@! TO.N,/Pin_6*
X72540000Y-91080000D03*
G04 #@! TO.P,J1,5*
G04 #@! TO.N,/Pin_5*
X70000000Y-91080000D03*
G04 #@! TO.P,J1,4*
G04 #@! TO.N,/Pin_4*
X72540000Y-88540000D03*
G04 #@! TO.P,J1,3*
G04 #@! TO.N,/Pin_3*
X70000000Y-88540000D03*
G04 #@! TO.P,J1,2*
G04 #@! TO.N,/Pin_2*
X72540000Y-86000000D03*
D14*
G04 #@! TO.P,J1,1*
G04 #@! TO.N,/Pin_1*
X70000000Y-86000000D03*
G04 #@! TD*
D13*
G04 #@! TO.P,J2,16*
G04 #@! TO.N,/Pin_40*
X108880000Y-127460000D03*
G04 #@! TO.P,J2,15*
G04 #@! TO.N,/Pin_39*
X108880000Y-130000000D03*
G04 #@! TO.P,J2,14*
G04 #@! TO.N,/Pin_38*
X106340000Y-127460000D03*
G04 #@! TO.P,J2,13*
G04 #@! TO.N,/Pin_37*
X106340000Y-130000000D03*
G04 #@! TO.P,J2,12*
G04 #@! TO.N,/Pin_36*
X103800000Y-127460000D03*
G04 #@! TO.P,J2,11*
G04 #@! TO.N,/Pin_35*
X103800000Y-130000000D03*
G04 #@! TO.P,J2,10*
G04 #@! TO.N,/Pin_34*
X101260000Y-127460000D03*
G04 #@! TO.P,J2,9*
G04 #@! TO.N,/Pin_33*
X101260000Y-130000000D03*
G04 #@! TO.P,J2,8*
G04 #@! TO.N,/Pin_32*
X98720000Y-127460000D03*
G04 #@! TO.P,J2,7*
G04 #@! TO.N,/Pin_31*
X98720000Y-130000000D03*
G04 #@! TO.P,J2,6*
G04 #@! TO.N,/Pin_30*
X96180000Y-127460000D03*
G04 #@! TO.P,J2,5*
G04 #@! TO.N,/Pin_29*
X96180000Y-130000000D03*
G04 #@! TO.P,J2,4*
G04 #@! TO.N,/Pin_28*
X93640000Y-127460000D03*
G04 #@! TO.P,J2,3*
G04 #@! TO.N,/Pin_27*
X93640000Y-130000000D03*
G04 #@! TO.P,J2,2*
G04 #@! TO.N,/Pin_26*
X91100000Y-127460000D03*
D14*
G04 #@! TO.P,J2,1*
G04 #@! TO.N,/Pin_25*
X91100000Y-130000000D03*
G04 #@! TD*
D13*
G04 #@! TO.P,J3,24*
G04 #@! TO.N,/Pin_64*
X127460000Y-86060000D03*
G04 #@! TO.P,J3,23*
G04 #@! TO.N,/Pin_63*
X130000000Y-86060000D03*
G04 #@! TO.P,J3,22*
G04 #@! TO.N,/Pin_62*
X127460000Y-88600000D03*
G04 #@! TO.P,J3,21*
G04 #@! TO.N,/Pin_61*
X130000000Y-88600000D03*
G04 #@! TO.P,J3,20*
G04 #@! TO.N,/Pin_60*
X127460000Y-91140000D03*
G04 #@! TO.P,J3,19*
G04 #@! TO.N,/Pin_59*
X130000000Y-91140000D03*
G04 #@! TO.P,J3,18*
G04 #@! TO.N,/Pin_58*
X127460000Y-93680000D03*
G04 #@! TO.P,J3,17*
G04 #@! TO.N,/Pin_57*
X130000000Y-93680000D03*
G04 #@! TO.P,J3,16*
G04 #@! TO.N,/Pin_56*
X127460000Y-96220000D03*
G04 #@! TO.P,J3,15*
G04 #@! TO.N,/Pin_55*
X130000000Y-96220000D03*
G04 #@! TO.P,J3,14*
G04 #@! TO.N,/Pin_54*
X127460000Y-98760000D03*
G04 #@! TO.P,J3,13*
G04 #@! TO.N,/Pin_53*
X130000000Y-98760000D03*
G04 #@! TO.P,J3,12*
G04 #@! TO.N,/Pin_52*
X127460000Y-101300000D03*
G04 #@! TO.P,J3,11*
G04 #@! TO.N,/Pin_51*
X130000000Y-101300000D03*
G04 #@! TO.P,J3,10*
G04 #@! TO.N,/Pin_50*
X127460000Y-103840000D03*
G04 #@! TO.P,J3,9*
G04 #@! TO.N,/Pin_49*
X130000000Y-103840000D03*
G04 #@! TO.P,J3,8*
G04 #@! TO.N,/Pin_48*
X127460000Y-106380000D03*
G04 #@! TO.P,J3,7*
G04 #@! TO.N,/Pin_47*
X130000000Y-106380000D03*
G04 #@! TO.P,J3,6*
G04 #@! TO.N,/Pin_46*
X127460000Y-108920000D03*
G04 #@! TO.P,J3,5*
G04 #@! TO.N,/Pin_45*
X130000000Y-108920000D03*
G04 #@! TO.P,J3,4*
G04 #@! TO.N,/Pin_44*
X127460000Y-111460000D03*
G04 #@! TO.P,J3,3*
G04 #@! TO.N,/Pin_43*
X130000000Y-111460000D03*
G04 #@! TO.P,J3,2*
G04 #@! TO.N,/Pin_42*
X127460000Y-114000000D03*
D14*
G04 #@! TO.P,J3,1*
G04 #@! TO.N,/Pin_41*
X130000000Y-114000000D03*
G04 #@! TD*
D13*
G04 #@! TO.P,J4,16*
G04 #@! TO.N,/Pin_80*
X91120000Y-72540000D03*
G04 #@! TO.P,J4,15*
G04 #@! TO.N,/Pin_79*
X91120000Y-70000000D03*
G04 #@! TO.P,J4,14*
G04 #@! TO.N,/Pin_78*
X93660000Y-72540000D03*
G04 #@! TO.P,J4,13*
G04 #@! TO.N,/Pin_77*
X93660000Y-70000000D03*
G04 #@! TO.P,J4,12*
G04 #@! TO.N,/Pin_76*
X96200000Y-72540000D03*
G04 #@! TO.P,J4,11*
G04 #@! TO.N,/Pin_75*
X96200000Y-70000000D03*
G04 #@! TO.P,J4,10*
G04 #@! TO.N,/Pin_74*
X98740000Y-72540000D03*
G04 #@! TO.P,J4,9*
G04 #@! TO.N,/Pin_73*
X98740000Y-70000000D03*
G04 #@! TO.P,J4,8*
G04 #@! TO.N,/Pin_72*
X101280000Y-72540000D03*
G04 #@! TO.P,J4,7*
G04 #@! TO.N,/Pin_71*
X101280000Y-70000000D03*
G04 #@! TO.P,J4,6*
G04 #@! TO.N,/Pin_70*
X103820000Y-72540000D03*
G04 #@! TO.P,J4,5*
G04 #@! TO.N,/Pin_69*
X103820000Y-70000000D03*
G04 #@! TO.P,J4,4*
G04 #@! TO.N,/Pin_68*
X106360000Y-72540000D03*
G04 #@! TO.P,J4,3*
G04 #@! TO.N,/Pin_67*
X106360000Y-70000000D03*
G04 #@! TO.P,J4,2*
G04 #@! TO.N,/Pin_66*
X108900000Y-72540000D03*
D14*
G04 #@! TO.P,J4,1*
G04 #@! TO.N,/Pin_65*
X108900000Y-70000000D03*
G04 #@! TD*
D13*
G04 #@! TO.P,J6,4*
G04 #@! TO.N,+5V*
X125200000Y-78420000D03*
G04 #@! TO.P,J6,3*
X125200000Y-75880000D03*
G04 #@! TO.P,J6,2*
X125200000Y-73340000D03*
D14*
G04 #@! TO.P,J6,1*
X125200000Y-70800000D03*
G04 #@! TD*
D15*
G04 #@! TO.N,GND*
X102400000Y-116700000D03*
X97600000Y-83300000D03*
X116700000Y-83300000D03*
X117300000Y-80200000D03*
X118500000Y-76600000D03*
X117800000Y-70400000D03*
G04 #@! TD*
D16*
G04 #@! TO.N,GND*
G36*
X139290000Y-139290000D02*
X60710000Y-139290000D01*
X60710000Y-127460000D01*
X89585908Y-127460000D01*
X89701161Y-128039418D01*
X90029375Y-128530625D01*
X90047619Y-128542816D01*
X90002235Y-128551843D01*
X89792191Y-128692191D01*
X89651843Y-128902235D01*
X89602560Y-129150000D01*
X89602560Y-130850000D01*
X89651843Y-131097765D01*
X89792191Y-131307809D01*
X90002235Y-131448157D01*
X90250000Y-131497440D01*
X91950000Y-131497440D01*
X92197765Y-131448157D01*
X92407809Y-131307809D01*
X92548157Y-131097765D01*
X92557184Y-131052381D01*
X92569375Y-131070625D01*
X93060582Y-131398839D01*
X93493744Y-131485000D01*
X93786256Y-131485000D01*
X94219418Y-131398839D01*
X94710625Y-131070625D01*
X94910000Y-130772239D01*
X95109375Y-131070625D01*
X95600582Y-131398839D01*
X96033744Y-131485000D01*
X96326256Y-131485000D01*
X96759418Y-131398839D01*
X97250625Y-131070625D01*
X97450000Y-130772239D01*
X97649375Y-131070625D01*
X98140582Y-131398839D01*
X98573744Y-131485000D01*
X98866256Y-131485000D01*
X99299418Y-131398839D01*
X99790625Y-131070625D01*
X99990000Y-130772239D01*
X100189375Y-131070625D01*
X100680582Y-131398839D01*
X101113744Y-131485000D01*
X101406256Y-131485000D01*
X101839418Y-131398839D01*
X102330625Y-131070625D01*
X102530000Y-130772239D01*
X102729375Y-131070625D01*
X103220582Y-131398839D01*
X103653744Y-131485000D01*
X103946256Y-131485000D01*
X104379418Y-131398839D01*
X104870625Y-131070625D01*
X105070000Y-130772239D01*
X105269375Y-131070625D01*
X105760582Y-131398839D01*
X106193744Y-131485000D01*
X106486256Y-131485000D01*
X106919418Y-131398839D01*
X107410625Y-131070625D01*
X107610000Y-130772239D01*
X107809375Y-131070625D01*
X108300582Y-131398839D01*
X108733744Y-131485000D01*
X109026256Y-131485000D01*
X109459418Y-131398839D01*
X109950625Y-131070625D01*
X110278839Y-130579418D01*
X110394092Y-130000000D01*
X110278839Y-129420582D01*
X109950625Y-128929375D01*
X109652239Y-128730000D01*
X109950625Y-128530625D01*
X110278839Y-128039418D01*
X110394092Y-127460000D01*
X110278839Y-126880582D01*
X109950625Y-126389375D01*
X109459418Y-126061161D01*
X109026256Y-125975000D01*
X108733744Y-125975000D01*
X108300582Y-126061161D01*
X107809375Y-126389375D01*
X107610000Y-126687761D01*
X107410625Y-126389375D01*
X106919418Y-126061161D01*
X106486256Y-125975000D01*
X106193744Y-125975000D01*
X105760582Y-126061161D01*
X105269375Y-126389375D01*
X105070000Y-126687761D01*
X104870625Y-126389375D01*
X104379418Y-126061161D01*
X103946256Y-125975000D01*
X103653744Y-125975000D01*
X103220582Y-126061161D01*
X102729375Y-126389375D01*
X102530000Y-126687761D01*
X102330625Y-126389375D01*
X101839418Y-126061161D01*
X101406256Y-125975000D01*
X101113744Y-125975000D01*
X100680582Y-126061161D01*
X100189375Y-126389375D01*
X99990000Y-126687761D01*
X99790625Y-126389375D01*
X99299418Y-126061161D01*
X98866256Y-125975000D01*
X98573744Y-125975000D01*
X98140582Y-126061161D01*
X97649375Y-126389375D01*
X97450000Y-126687761D01*
X97250625Y-126389375D01*
X96759418Y-126061161D01*
X96326256Y-125975000D01*
X96033744Y-125975000D01*
X95600582Y-126061161D01*
X95109375Y-126389375D01*
X94910000Y-126687761D01*
X94710625Y-126389375D01*
X94219418Y-126061161D01*
X93786256Y-125975000D01*
X93493744Y-125975000D01*
X93060582Y-126061161D01*
X92569375Y-126389375D01*
X92370000Y-126687761D01*
X92170625Y-126389375D01*
X91679418Y-126061161D01*
X91246256Y-125975000D01*
X90953744Y-125975000D01*
X90520582Y-126061161D01*
X90029375Y-126389375D01*
X89701161Y-126880582D01*
X89585908Y-127460000D01*
X60710000Y-127460000D01*
X60710000Y-88540000D01*
X68485908Y-88540000D01*
X68601161Y-89119418D01*
X68929375Y-89610625D01*
X69227761Y-89810000D01*
X68929375Y-90009375D01*
X68601161Y-90500582D01*
X68485908Y-91080000D01*
X68601161Y-91659418D01*
X68929375Y-92150625D01*
X69227761Y-92350000D01*
X68929375Y-92549375D01*
X68601161Y-93040582D01*
X68485908Y-93620000D01*
X68601161Y-94199418D01*
X68929375Y-94690625D01*
X69227761Y-94890000D01*
X68929375Y-95089375D01*
X68601161Y-95580582D01*
X68485908Y-96160000D01*
X68601161Y-96739418D01*
X68929375Y-97230625D01*
X69227761Y-97430000D01*
X68929375Y-97629375D01*
X68601161Y-98120582D01*
X68485908Y-98700000D01*
X68601161Y-99279418D01*
X68929375Y-99770625D01*
X69227761Y-99970000D01*
X68929375Y-100169375D01*
X68601161Y-100660582D01*
X68485908Y-101240000D01*
X68601161Y-101819418D01*
X68929375Y-102310625D01*
X69227761Y-102510000D01*
X68929375Y-102709375D01*
X68601161Y-103200582D01*
X68485908Y-103780000D01*
X68601161Y-104359418D01*
X68929375Y-104850625D01*
X69227761Y-105050000D01*
X68929375Y-105249375D01*
X68601161Y-105740582D01*
X68485908Y-106320000D01*
X68601161Y-106899418D01*
X68929375Y-107390625D01*
X69227761Y-107590000D01*
X68929375Y-107789375D01*
X68601161Y-108280582D01*
X68485908Y-108860000D01*
X68601161Y-109439418D01*
X68929375Y-109930625D01*
X69227761Y-110130000D01*
X68929375Y-110329375D01*
X68601161Y-110820582D01*
X68485908Y-111400000D01*
X68601161Y-111979418D01*
X68929375Y-112470625D01*
X69227761Y-112670000D01*
X68929375Y-112869375D01*
X68601161Y-113360582D01*
X68485908Y-113940000D01*
X68601161Y-114519418D01*
X68929375Y-115010625D01*
X69420582Y-115338839D01*
X69853744Y-115425000D01*
X70146256Y-115425000D01*
X70579418Y-115338839D01*
X71070625Y-115010625D01*
X71270000Y-114712239D01*
X71469375Y-115010625D01*
X71960582Y-115338839D01*
X72393744Y-115425000D01*
X72686256Y-115425000D01*
X73119418Y-115338839D01*
X73610625Y-115010625D01*
X73938839Y-114519418D01*
X74054092Y-113940000D01*
X73938839Y-113360582D01*
X73610625Y-112869375D01*
X73312239Y-112670000D01*
X73610625Y-112470625D01*
X73938839Y-111979418D01*
X74054092Y-111400000D01*
X73938839Y-110820582D01*
X73610625Y-110329375D01*
X73312239Y-110130000D01*
X73610625Y-109930625D01*
X73938839Y-109439418D01*
X74054092Y-108860000D01*
X73938839Y-108280582D01*
X73610625Y-107789375D01*
X73312239Y-107590000D01*
X73610625Y-107390625D01*
X73938839Y-106899418D01*
X74054092Y-106320000D01*
X73938839Y-105740582D01*
X73610625Y-105249375D01*
X73312239Y-105050000D01*
X73610625Y-104850625D01*
X73938839Y-104359418D01*
X74054092Y-103780000D01*
X73938839Y-103200582D01*
X73610625Y-102709375D01*
X73312239Y-102510000D01*
X73610625Y-102310625D01*
X73938839Y-101819418D01*
X74054092Y-101240000D01*
X73938839Y-100660582D01*
X73610625Y-100169375D01*
X73312239Y-99970000D01*
X73610625Y-99770625D01*
X73938839Y-99279418D01*
X74054092Y-98700000D01*
X73938839Y-98120582D01*
X73610625Y-97629375D01*
X73312239Y-97430000D01*
X73610625Y-97230625D01*
X73938839Y-96739418D01*
X74054092Y-96160000D01*
X73938839Y-95580582D01*
X73610625Y-95089375D01*
X73312239Y-94890000D01*
X73610625Y-94690625D01*
X73938839Y-94199418D01*
X74054092Y-93620000D01*
X73938839Y-93040582D01*
X73610625Y-92549375D01*
X73312239Y-92350000D01*
X73610625Y-92150625D01*
X73938839Y-91659418D01*
X74054092Y-91080000D01*
X73938839Y-90500582D01*
X73610625Y-90009375D01*
X73312239Y-89810000D01*
X73610625Y-89610625D01*
X73938839Y-89119418D01*
X74054092Y-88540000D01*
X73938839Y-87960582D01*
X73610625Y-87469375D01*
X73312239Y-87270000D01*
X73610625Y-87070625D01*
X73938839Y-86579418D01*
X74042157Y-86060000D01*
X125945908Y-86060000D01*
X126061161Y-86639418D01*
X126389375Y-87130625D01*
X126687761Y-87330000D01*
X126389375Y-87529375D01*
X126061161Y-88020582D01*
X125945908Y-88600000D01*
X126061161Y-89179418D01*
X126389375Y-89670625D01*
X126687761Y-89870000D01*
X126389375Y-90069375D01*
X126061161Y-90560582D01*
X125945908Y-91140000D01*
X126061161Y-91719418D01*
X126389375Y-92210625D01*
X126687761Y-92410000D01*
X126389375Y-92609375D01*
X126061161Y-93100582D01*
X125945908Y-93680000D01*
X126061161Y-94259418D01*
X126389375Y-94750625D01*
X126687761Y-94950000D01*
X126389375Y-95149375D01*
X126061161Y-95640582D01*
X125945908Y-96220000D01*
X126061161Y-96799418D01*
X126389375Y-97290625D01*
X126687761Y-97490000D01*
X126389375Y-97689375D01*
X126061161Y-98180582D01*
X125945908Y-98760000D01*
X126061161Y-99339418D01*
X126389375Y-99830625D01*
X126687761Y-100030000D01*
X126389375Y-100229375D01*
X126061161Y-100720582D01*
X125945908Y-101300000D01*
X126061161Y-101879418D01*
X126389375Y-102370625D01*
X126687761Y-102570000D01*
X126389375Y-102769375D01*
X126061161Y-103260582D01*
X125945908Y-103840000D01*
X126061161Y-104419418D01*
X126389375Y-104910625D01*
X126687761Y-105110000D01*
X126389375Y-105309375D01*
X126061161Y-105800582D01*
X125945908Y-106380000D01*
X126061161Y-106959418D01*
X126389375Y-107450625D01*
X126687761Y-107650000D01*
X126389375Y-107849375D01*
X126061161Y-108340582D01*
X125945908Y-108920000D01*
X126061161Y-109499418D01*
X126389375Y-109990625D01*
X126687761Y-110190000D01*
X126389375Y-110389375D01*
X126061161Y-110880582D01*
X125945908Y-111460000D01*
X126061161Y-112039418D01*
X126389375Y-112530625D01*
X126687761Y-112730000D01*
X126389375Y-112929375D01*
X126061161Y-113420582D01*
X125945908Y-114000000D01*
X126061161Y-114579418D01*
X126389375Y-115070625D01*
X126880582Y-115398839D01*
X127313744Y-115485000D01*
X127606256Y-115485000D01*
X128039418Y-115398839D01*
X128530625Y-115070625D01*
X128542816Y-115052381D01*
X128551843Y-115097765D01*
X128692191Y-115307809D01*
X128902235Y-115448157D01*
X129150000Y-115497440D01*
X130850000Y-115497440D01*
X131097765Y-115448157D01*
X131307809Y-115307809D01*
X131448157Y-115097765D01*
X131497440Y-114850000D01*
X131497440Y-113150000D01*
X131448157Y-112902235D01*
X131307809Y-112692191D01*
X131097765Y-112551843D01*
X131052381Y-112542816D01*
X131070625Y-112530625D01*
X131398839Y-112039418D01*
X131514092Y-111460000D01*
X131398839Y-110880582D01*
X131070625Y-110389375D01*
X130772239Y-110190000D01*
X131070625Y-109990625D01*
X131398839Y-109499418D01*
X131514092Y-108920000D01*
X131398839Y-108340582D01*
X131070625Y-107849375D01*
X130772239Y-107650000D01*
X131070625Y-107450625D01*
X131398839Y-106959418D01*
X131514092Y-106380000D01*
X131398839Y-105800582D01*
X131070625Y-105309375D01*
X130772239Y-105110000D01*
X131070625Y-104910625D01*
X131398839Y-104419418D01*
X131514092Y-103840000D01*
X131398839Y-103260582D01*
X131070625Y-102769375D01*
X130772239Y-102570000D01*
X131070625Y-102370625D01*
X131398839Y-101879418D01*
X131514092Y-101300000D01*
X131398839Y-100720582D01*
X131070625Y-100229375D01*
X130772239Y-100030000D01*
X131070625Y-99830625D01*
X131398839Y-99339418D01*
X131514092Y-98760000D01*
X131398839Y-98180582D01*
X131070625Y-97689375D01*
X130772239Y-97490000D01*
X131070625Y-97290625D01*
X131398839Y-96799418D01*
X131514092Y-96220000D01*
X131398839Y-95640582D01*
X131070625Y-95149375D01*
X130772239Y-94950000D01*
X131070625Y-94750625D01*
X131398839Y-94259418D01*
X131514092Y-93680000D01*
X131398839Y-93100582D01*
X131070625Y-92609375D01*
X130772239Y-92410000D01*
X131070625Y-92210625D01*
X131398839Y-91719418D01*
X131514092Y-91140000D01*
X131398839Y-90560582D01*
X131070625Y-90069375D01*
X130772239Y-89870000D01*
X131070625Y-89670625D01*
X131398839Y-89179418D01*
X131514092Y-88600000D01*
X131398839Y-88020582D01*
X131070625Y-87529375D01*
X130772239Y-87330000D01*
X131070625Y-87130625D01*
X131398839Y-86639418D01*
X131514092Y-86060000D01*
X131398839Y-85480582D01*
X131070625Y-84989375D01*
X130579418Y-84661161D01*
X130146256Y-84575000D01*
X129853744Y-84575000D01*
X129420582Y-84661161D01*
X128929375Y-84989375D01*
X128730000Y-85287761D01*
X128530625Y-84989375D01*
X128039418Y-84661161D01*
X127606256Y-84575000D01*
X127313744Y-84575000D01*
X126880582Y-84661161D01*
X126389375Y-84989375D01*
X126061161Y-85480582D01*
X125945908Y-86060000D01*
X74042157Y-86060000D01*
X74054092Y-86000000D01*
X73938839Y-85420582D01*
X73610625Y-84929375D01*
X73119418Y-84601161D01*
X72686256Y-84515000D01*
X72393744Y-84515000D01*
X71960582Y-84601161D01*
X71469375Y-84929375D01*
X71457184Y-84947619D01*
X71448157Y-84902235D01*
X71307809Y-84692191D01*
X71097765Y-84551843D01*
X70850000Y-84502560D01*
X69150000Y-84502560D01*
X68902235Y-84551843D01*
X68692191Y-84692191D01*
X68551843Y-84902235D01*
X68502560Y-85150000D01*
X68502560Y-86850000D01*
X68551843Y-87097765D01*
X68692191Y-87307809D01*
X68902235Y-87448157D01*
X68947619Y-87457184D01*
X68929375Y-87469375D01*
X68601161Y-87960582D01*
X68485908Y-88540000D01*
X60710000Y-88540000D01*
X60710000Y-70000000D01*
X89605908Y-70000000D01*
X89721161Y-70579418D01*
X90049375Y-71070625D01*
X90347761Y-71270000D01*
X90049375Y-71469375D01*
X89721161Y-71960582D01*
X89605908Y-72540000D01*
X89721161Y-73119418D01*
X90049375Y-73610625D01*
X90540582Y-73938839D01*
X90973744Y-74025000D01*
X91266256Y-74025000D01*
X91699418Y-73938839D01*
X92190625Y-73610625D01*
X92390000Y-73312239D01*
X92589375Y-73610625D01*
X93080582Y-73938839D01*
X93513744Y-74025000D01*
X93806256Y-74025000D01*
X94239418Y-73938839D01*
X94730625Y-73610625D01*
X94930000Y-73312239D01*
X95129375Y-73610625D01*
X95620582Y-73938839D01*
X96053744Y-74025000D01*
X96346256Y-74025000D01*
X96779418Y-73938839D01*
X97270625Y-73610625D01*
X97470000Y-73312239D01*
X97669375Y-73610625D01*
X98160582Y-73938839D01*
X98593744Y-74025000D01*
X98886256Y-74025000D01*
X99319418Y-73938839D01*
X99810625Y-73610625D01*
X100010000Y-73312239D01*
X100209375Y-73610625D01*
X100700582Y-73938839D01*
X101133744Y-74025000D01*
X101426256Y-74025000D01*
X101859418Y-73938839D01*
X102350625Y-73610625D01*
X102550000Y-73312239D01*
X102749375Y-73610625D01*
X103240582Y-73938839D01*
X103673744Y-74025000D01*
X103966256Y-74025000D01*
X104399418Y-73938839D01*
X104890625Y-73610625D01*
X105090000Y-73312239D01*
X105289375Y-73610625D01*
X105780582Y-73938839D01*
X106213744Y-74025000D01*
X106506256Y-74025000D01*
X106939418Y-73938839D01*
X107430625Y-73610625D01*
X107630000Y-73312239D01*
X107829375Y-73610625D01*
X108320582Y-73938839D01*
X108753744Y-74025000D01*
X109046256Y-74025000D01*
X109479418Y-73938839D01*
X109970625Y-73610625D01*
X110151450Y-73340000D01*
X123685908Y-73340000D01*
X123801161Y-73919418D01*
X124129375Y-74410625D01*
X124427761Y-74610000D01*
X124129375Y-74809375D01*
X123801161Y-75300582D01*
X123685908Y-75880000D01*
X123801161Y-76459418D01*
X124129375Y-76950625D01*
X124427761Y-77150000D01*
X124129375Y-77349375D01*
X123801161Y-77840582D01*
X123685908Y-78420000D01*
X123801161Y-78999418D01*
X124129375Y-79490625D01*
X124620582Y-79818839D01*
X125053744Y-79905000D01*
X125346256Y-79905000D01*
X125779418Y-79818839D01*
X126270625Y-79490625D01*
X126598839Y-78999418D01*
X126714092Y-78420000D01*
X126598839Y-77840582D01*
X126270625Y-77349375D01*
X125972239Y-77150000D01*
X126270625Y-76950625D01*
X126598839Y-76459418D01*
X126714092Y-75880000D01*
X126598839Y-75300582D01*
X126270625Y-74809375D01*
X125972239Y-74610000D01*
X126270625Y-74410625D01*
X126598839Y-73919418D01*
X126714092Y-73340000D01*
X126598839Y-72760582D01*
X126270625Y-72269375D01*
X126252381Y-72257184D01*
X126297765Y-72248157D01*
X126507809Y-72107809D01*
X126648157Y-71897765D01*
X126697440Y-71650000D01*
X126697440Y-69950000D01*
X126648157Y-69702235D01*
X126507809Y-69492191D01*
X126297765Y-69351843D01*
X126050000Y-69302560D01*
X124350000Y-69302560D01*
X124102235Y-69351843D01*
X123892191Y-69492191D01*
X123751843Y-69702235D01*
X123702560Y-69950000D01*
X123702560Y-71650000D01*
X123751843Y-71897765D01*
X123892191Y-72107809D01*
X124102235Y-72248157D01*
X124147619Y-72257184D01*
X124129375Y-72269375D01*
X123801161Y-72760582D01*
X123685908Y-73340000D01*
X110151450Y-73340000D01*
X110298839Y-73119418D01*
X110414092Y-72540000D01*
X110298839Y-71960582D01*
X109970625Y-71469375D01*
X109952381Y-71457184D01*
X109997765Y-71448157D01*
X110207809Y-71307809D01*
X110348157Y-71097765D01*
X110397440Y-70850000D01*
X110397440Y-69150000D01*
X110348157Y-68902235D01*
X110207809Y-68692191D01*
X109997765Y-68551843D01*
X109750000Y-68502560D01*
X108050000Y-68502560D01*
X107802235Y-68551843D01*
X107592191Y-68692191D01*
X107451843Y-68902235D01*
X107442816Y-68947619D01*
X107430625Y-68929375D01*
X106939418Y-68601161D01*
X106506256Y-68515000D01*
X106213744Y-68515000D01*
X105780582Y-68601161D01*
X105289375Y-68929375D01*
X105090000Y-69227761D01*
X104890625Y-68929375D01*
X104399418Y-68601161D01*
X103966256Y-68515000D01*
X103673744Y-68515000D01*
X103240582Y-68601161D01*
X102749375Y-68929375D01*
X102550000Y-69227761D01*
X102350625Y-68929375D01*
X101859418Y-68601161D01*
X101426256Y-68515000D01*
X101133744Y-68515000D01*
X100700582Y-68601161D01*
X100209375Y-68929375D01*
X100010000Y-69227761D01*
X99810625Y-68929375D01*
X99319418Y-68601161D01*
X98886256Y-68515000D01*
X98593744Y-68515000D01*
X98160582Y-68601161D01*
X97669375Y-68929375D01*
X97470000Y-69227761D01*
X97270625Y-68929375D01*
X96779418Y-68601161D01*
X96346256Y-68515000D01*
X96053744Y-68515000D01*
X95620582Y-68601161D01*
X95129375Y-68929375D01*
X94930000Y-69227761D01*
X94730625Y-68929375D01*
X94239418Y-68601161D01*
X93806256Y-68515000D01*
X93513744Y-68515000D01*
X93080582Y-68601161D01*
X92589375Y-68929375D01*
X92390000Y-69227761D01*
X92190625Y-68929375D01*
X91699418Y-68601161D01*
X91266256Y-68515000D01*
X90973744Y-68515000D01*
X90540582Y-68601161D01*
X90049375Y-68929375D01*
X89721161Y-69420582D01*
X89605908Y-70000000D01*
X60710000Y-70000000D01*
X60710000Y-60710000D01*
X139290001Y-60710000D01*
X139290000Y-139290000D01*
X139290000Y-139290000D01*
G37*
X139290000Y-139290000D02*
X60710000Y-139290000D01*
X60710000Y-127460000D01*
X89585908Y-127460000D01*
X89701161Y-128039418D01*
X90029375Y-128530625D01*
X90047619Y-128542816D01*
X90002235Y-128551843D01*
X89792191Y-128692191D01*
X89651843Y-128902235D01*
X89602560Y-129150000D01*
X89602560Y-130850000D01*
X89651843Y-131097765D01*
X89792191Y-131307809D01*
X90002235Y-131448157D01*
X90250000Y-131497440D01*
X91950000Y-131497440D01*
X92197765Y-131448157D01*
X92407809Y-131307809D01*
X92548157Y-131097765D01*
X92557184Y-131052381D01*
X92569375Y-131070625D01*
X93060582Y-131398839D01*
X93493744Y-131485000D01*
X93786256Y-131485000D01*
X94219418Y-131398839D01*
X94710625Y-131070625D01*
X94910000Y-130772239D01*
X95109375Y-131070625D01*
X95600582Y-131398839D01*
X96033744Y-131485000D01*
X96326256Y-131485000D01*
X96759418Y-131398839D01*
X97250625Y-131070625D01*
X97450000Y-130772239D01*
X97649375Y-131070625D01*
X98140582Y-131398839D01*
X98573744Y-131485000D01*
X98866256Y-131485000D01*
X99299418Y-131398839D01*
X99790625Y-131070625D01*
X99990000Y-130772239D01*
X100189375Y-131070625D01*
X100680582Y-131398839D01*
X101113744Y-131485000D01*
X101406256Y-131485000D01*
X101839418Y-131398839D01*
X102330625Y-131070625D01*
X102530000Y-130772239D01*
X102729375Y-131070625D01*
X103220582Y-131398839D01*
X103653744Y-131485000D01*
X103946256Y-131485000D01*
X104379418Y-131398839D01*
X104870625Y-131070625D01*
X105070000Y-130772239D01*
X105269375Y-131070625D01*
X105760582Y-131398839D01*
X106193744Y-131485000D01*
X106486256Y-131485000D01*
X106919418Y-131398839D01*
X107410625Y-131070625D01*
X107610000Y-130772239D01*
X107809375Y-131070625D01*
X108300582Y-131398839D01*
X108733744Y-131485000D01*
X109026256Y-131485000D01*
X109459418Y-131398839D01*
X109950625Y-131070625D01*
X110278839Y-130579418D01*
X110394092Y-130000000D01*
X110278839Y-129420582D01*
X109950625Y-128929375D01*
X109652239Y-128730000D01*
X109950625Y-128530625D01*
X110278839Y-128039418D01*
X110394092Y-127460000D01*
X110278839Y-126880582D01*
X109950625Y-126389375D01*
X109459418Y-126061161D01*
X109026256Y-125975000D01*
X108733744Y-125975000D01*
X108300582Y-126061161D01*
X107809375Y-126389375D01*
X107610000Y-126687761D01*
X107410625Y-126389375D01*
X106919418Y-126061161D01*
X106486256Y-125975000D01*
X106193744Y-125975000D01*
X105760582Y-126061161D01*
X105269375Y-126389375D01*
X105070000Y-126687761D01*
X104870625Y-126389375D01*
X104379418Y-126061161D01*
X103946256Y-125975000D01*
X103653744Y-125975000D01*
X103220582Y-126061161D01*
X102729375Y-126389375D01*
X102530000Y-126687761D01*
X102330625Y-126389375D01*
X101839418Y-126061161D01*
X101406256Y-125975000D01*
X101113744Y-125975000D01*
X100680582Y-126061161D01*
X100189375Y-126389375D01*
X99990000Y-126687761D01*
X99790625Y-126389375D01*
X99299418Y-126061161D01*
X98866256Y-125975000D01*
X98573744Y-125975000D01*
X98140582Y-126061161D01*
X97649375Y-126389375D01*
X97450000Y-126687761D01*
X97250625Y-126389375D01*
X96759418Y-126061161D01*
X96326256Y-125975000D01*
X96033744Y-125975000D01*
X95600582Y-126061161D01*
X95109375Y-126389375D01*
X94910000Y-126687761D01*
X94710625Y-126389375D01*
X94219418Y-126061161D01*
X93786256Y-125975000D01*
X93493744Y-125975000D01*
X93060582Y-126061161D01*
X92569375Y-126389375D01*
X92370000Y-126687761D01*
X92170625Y-126389375D01*
X91679418Y-126061161D01*
X91246256Y-125975000D01*
X90953744Y-125975000D01*
X90520582Y-126061161D01*
X90029375Y-126389375D01*
X89701161Y-126880582D01*
X89585908Y-127460000D01*
X60710000Y-127460000D01*
X60710000Y-88540000D01*
X68485908Y-88540000D01*
X68601161Y-89119418D01*
X68929375Y-89610625D01*
X69227761Y-89810000D01*
X68929375Y-90009375D01*
X68601161Y-90500582D01*
X68485908Y-91080000D01*
X68601161Y-91659418D01*
X68929375Y-92150625D01*
X69227761Y-92350000D01*
X68929375Y-92549375D01*
X68601161Y-93040582D01*
X68485908Y-93620000D01*
X68601161Y-94199418D01*
X68929375Y-94690625D01*
X69227761Y-94890000D01*
X68929375Y-95089375D01*
X68601161Y-95580582D01*
X68485908Y-96160000D01*
X68601161Y-96739418D01*
X68929375Y-97230625D01*
X69227761Y-97430000D01*
X68929375Y-97629375D01*
X68601161Y-98120582D01*
X68485908Y-98700000D01*
X68601161Y-99279418D01*
X68929375Y-99770625D01*
X69227761Y-99970000D01*
X68929375Y-100169375D01*
X68601161Y-100660582D01*
X68485908Y-101240000D01*
X68601161Y-101819418D01*
X68929375Y-102310625D01*
X69227761Y-102510000D01*
X68929375Y-102709375D01*
X68601161Y-103200582D01*
X68485908Y-103780000D01*
X68601161Y-104359418D01*
X68929375Y-104850625D01*
X69227761Y-105050000D01*
X68929375Y-105249375D01*
X68601161Y-105740582D01*
X68485908Y-106320000D01*
X68601161Y-106899418D01*
X68929375Y-107390625D01*
X69227761Y-107590000D01*
X68929375Y-107789375D01*
X68601161Y-108280582D01*
X68485908Y-108860000D01*
X68601161Y-109439418D01*
X68929375Y-109930625D01*
X69227761Y-110130000D01*
X68929375Y-110329375D01*
X68601161Y-110820582D01*
X68485908Y-111400000D01*
X68601161Y-111979418D01*
X68929375Y-112470625D01*
X69227761Y-112670000D01*
X68929375Y-112869375D01*
X68601161Y-113360582D01*
X68485908Y-113940000D01*
X68601161Y-114519418D01*
X68929375Y-115010625D01*
X69420582Y-115338839D01*
X69853744Y-115425000D01*
X70146256Y-115425000D01*
X70579418Y-115338839D01*
X71070625Y-115010625D01*
X71270000Y-114712239D01*
X71469375Y-115010625D01*
X71960582Y-115338839D01*
X72393744Y-115425000D01*
X72686256Y-115425000D01*
X73119418Y-115338839D01*
X73610625Y-115010625D01*
X73938839Y-114519418D01*
X74054092Y-113940000D01*
X73938839Y-113360582D01*
X73610625Y-112869375D01*
X73312239Y-112670000D01*
X73610625Y-112470625D01*
X73938839Y-111979418D01*
X74054092Y-111400000D01*
X73938839Y-110820582D01*
X73610625Y-110329375D01*
X73312239Y-110130000D01*
X73610625Y-109930625D01*
X73938839Y-109439418D01*
X74054092Y-108860000D01*
X73938839Y-108280582D01*
X73610625Y-107789375D01*
X73312239Y-107590000D01*
X73610625Y-107390625D01*
X73938839Y-106899418D01*
X74054092Y-106320000D01*
X73938839Y-105740582D01*
X73610625Y-105249375D01*
X73312239Y-105050000D01*
X73610625Y-104850625D01*
X73938839Y-104359418D01*
X74054092Y-103780000D01*
X73938839Y-103200582D01*
X73610625Y-102709375D01*
X73312239Y-102510000D01*
X73610625Y-102310625D01*
X73938839Y-101819418D01*
X74054092Y-101240000D01*
X73938839Y-100660582D01*
X73610625Y-100169375D01*
X73312239Y-99970000D01*
X73610625Y-99770625D01*
X73938839Y-99279418D01*
X74054092Y-98700000D01*
X73938839Y-98120582D01*
X73610625Y-97629375D01*
X73312239Y-97430000D01*
X73610625Y-97230625D01*
X73938839Y-96739418D01*
X74054092Y-96160000D01*
X73938839Y-95580582D01*
X73610625Y-95089375D01*
X73312239Y-94890000D01*
X73610625Y-94690625D01*
X73938839Y-94199418D01*
X74054092Y-93620000D01*
X73938839Y-93040582D01*
X73610625Y-92549375D01*
X73312239Y-92350000D01*
X73610625Y-92150625D01*
X73938839Y-91659418D01*
X74054092Y-91080000D01*
X73938839Y-90500582D01*
X73610625Y-90009375D01*
X73312239Y-89810000D01*
X73610625Y-89610625D01*
X73938839Y-89119418D01*
X74054092Y-88540000D01*
X73938839Y-87960582D01*
X73610625Y-87469375D01*
X73312239Y-87270000D01*
X73610625Y-87070625D01*
X73938839Y-86579418D01*
X74042157Y-86060000D01*
X125945908Y-86060000D01*
X126061161Y-86639418D01*
X126389375Y-87130625D01*
X126687761Y-87330000D01*
X126389375Y-87529375D01*
X126061161Y-88020582D01*
X125945908Y-88600000D01*
X126061161Y-89179418D01*
X126389375Y-89670625D01*
X126687761Y-89870000D01*
X126389375Y-90069375D01*
X126061161Y-90560582D01*
X125945908Y-91140000D01*
X126061161Y-91719418D01*
X126389375Y-92210625D01*
X126687761Y-92410000D01*
X126389375Y-92609375D01*
X126061161Y-93100582D01*
X125945908Y-93680000D01*
X126061161Y-94259418D01*
X126389375Y-94750625D01*
X126687761Y-94950000D01*
X126389375Y-95149375D01*
X126061161Y-95640582D01*
X125945908Y-96220000D01*
X126061161Y-96799418D01*
X126389375Y-97290625D01*
X126687761Y-97490000D01*
X126389375Y-97689375D01*
X126061161Y-98180582D01*
X125945908Y-98760000D01*
X126061161Y-99339418D01*
X126389375Y-99830625D01*
X126687761Y-100030000D01*
X126389375Y-100229375D01*
X126061161Y-100720582D01*
X125945908Y-101300000D01*
X126061161Y-101879418D01*
X126389375Y-102370625D01*
X126687761Y-102570000D01*
X126389375Y-102769375D01*
X126061161Y-103260582D01*
X125945908Y-103840000D01*
X126061161Y-104419418D01*
X126389375Y-104910625D01*
X126687761Y-105110000D01*
X126389375Y-105309375D01*
X126061161Y-105800582D01*
X125945908Y-106380000D01*
X126061161Y-106959418D01*
X126389375Y-107450625D01*
X126687761Y-107650000D01*
X126389375Y-107849375D01*
X126061161Y-108340582D01*
X125945908Y-108920000D01*
X126061161Y-109499418D01*
X126389375Y-109990625D01*
X126687761Y-110190000D01*
X126389375Y-110389375D01*
X126061161Y-110880582D01*
X125945908Y-111460000D01*
X126061161Y-112039418D01*
X126389375Y-112530625D01*
X126687761Y-112730000D01*
X126389375Y-112929375D01*
X126061161Y-113420582D01*
X125945908Y-114000000D01*
X126061161Y-114579418D01*
X126389375Y-115070625D01*
X126880582Y-115398839D01*
X127313744Y-115485000D01*
X127606256Y-115485000D01*
X128039418Y-115398839D01*
X128530625Y-115070625D01*
X128542816Y-115052381D01*
X128551843Y-115097765D01*
X128692191Y-115307809D01*
X128902235Y-115448157D01*
X129150000Y-115497440D01*
X130850000Y-115497440D01*
X131097765Y-115448157D01*
X131307809Y-115307809D01*
X131448157Y-115097765D01*
X131497440Y-114850000D01*
X131497440Y-113150000D01*
X131448157Y-112902235D01*
X131307809Y-112692191D01*
X131097765Y-112551843D01*
X131052381Y-112542816D01*
X131070625Y-112530625D01*
X131398839Y-112039418D01*
X131514092Y-111460000D01*
X131398839Y-110880582D01*
X131070625Y-110389375D01*
X130772239Y-110190000D01*
X131070625Y-109990625D01*
X131398839Y-109499418D01*
X131514092Y-108920000D01*
X131398839Y-108340582D01*
X131070625Y-107849375D01*
X130772239Y-107650000D01*
X131070625Y-107450625D01*
X131398839Y-106959418D01*
X131514092Y-106380000D01*
X131398839Y-105800582D01*
X131070625Y-105309375D01*
X130772239Y-105110000D01*
X131070625Y-104910625D01*
X131398839Y-104419418D01*
X131514092Y-103840000D01*
X131398839Y-103260582D01*
X131070625Y-102769375D01*
X130772239Y-102570000D01*
X131070625Y-102370625D01*
X131398839Y-101879418D01*
X131514092Y-101300000D01*
X131398839Y-100720582D01*
X131070625Y-100229375D01*
X130772239Y-100030000D01*
X131070625Y-99830625D01*
X131398839Y-99339418D01*
X131514092Y-98760000D01*
X131398839Y-98180582D01*
X131070625Y-97689375D01*
X130772239Y-97490000D01*
X131070625Y-97290625D01*
X131398839Y-96799418D01*
X131514092Y-96220000D01*
X131398839Y-95640582D01*
X131070625Y-95149375D01*
X130772239Y-94950000D01*
X131070625Y-94750625D01*
X131398839Y-94259418D01*
X131514092Y-93680000D01*
X131398839Y-93100582D01*
X131070625Y-92609375D01*
X130772239Y-92410000D01*
X131070625Y-92210625D01*
X131398839Y-91719418D01*
X131514092Y-91140000D01*
X131398839Y-90560582D01*
X131070625Y-90069375D01*
X130772239Y-89870000D01*
X131070625Y-89670625D01*
X131398839Y-89179418D01*
X131514092Y-88600000D01*
X131398839Y-88020582D01*
X131070625Y-87529375D01*
X130772239Y-87330000D01*
X131070625Y-87130625D01*
X131398839Y-86639418D01*
X131514092Y-86060000D01*
X131398839Y-85480582D01*
X131070625Y-84989375D01*
X130579418Y-84661161D01*
X130146256Y-84575000D01*
X129853744Y-84575000D01*
X129420582Y-84661161D01*
X128929375Y-84989375D01*
X128730000Y-85287761D01*
X128530625Y-84989375D01*
X128039418Y-84661161D01*
X127606256Y-84575000D01*
X127313744Y-84575000D01*
X126880582Y-84661161D01*
X126389375Y-84989375D01*
X126061161Y-85480582D01*
X125945908Y-86060000D01*
X74042157Y-86060000D01*
X74054092Y-86000000D01*
X73938839Y-85420582D01*
X73610625Y-84929375D01*
X73119418Y-84601161D01*
X72686256Y-84515000D01*
X72393744Y-84515000D01*
X71960582Y-84601161D01*
X71469375Y-84929375D01*
X71457184Y-84947619D01*
X71448157Y-84902235D01*
X71307809Y-84692191D01*
X71097765Y-84551843D01*
X70850000Y-84502560D01*
X69150000Y-84502560D01*
X68902235Y-84551843D01*
X68692191Y-84692191D01*
X68551843Y-84902235D01*
X68502560Y-85150000D01*
X68502560Y-86850000D01*
X68551843Y-87097765D01*
X68692191Y-87307809D01*
X68902235Y-87448157D01*
X68947619Y-87457184D01*
X68929375Y-87469375D01*
X68601161Y-87960582D01*
X68485908Y-88540000D01*
X60710000Y-88540000D01*
X60710000Y-70000000D01*
X89605908Y-70000000D01*
X89721161Y-70579418D01*
X90049375Y-71070625D01*
X90347761Y-71270000D01*
X90049375Y-71469375D01*
X89721161Y-71960582D01*
X89605908Y-72540000D01*
X89721161Y-73119418D01*
X90049375Y-73610625D01*
X90540582Y-73938839D01*
X90973744Y-74025000D01*
X91266256Y-74025000D01*
X91699418Y-73938839D01*
X92190625Y-73610625D01*
X92390000Y-73312239D01*
X92589375Y-73610625D01*
X93080582Y-73938839D01*
X93513744Y-74025000D01*
X93806256Y-74025000D01*
X94239418Y-73938839D01*
X94730625Y-73610625D01*
X94930000Y-73312239D01*
X95129375Y-73610625D01*
X95620582Y-73938839D01*
X96053744Y-74025000D01*
X96346256Y-74025000D01*
X96779418Y-73938839D01*
X97270625Y-73610625D01*
X97470000Y-73312239D01*
X97669375Y-73610625D01*
X98160582Y-73938839D01*
X98593744Y-74025000D01*
X98886256Y-74025000D01*
X99319418Y-73938839D01*
X99810625Y-73610625D01*
X100010000Y-73312239D01*
X100209375Y-73610625D01*
X100700582Y-73938839D01*
X101133744Y-74025000D01*
X101426256Y-74025000D01*
X101859418Y-73938839D01*
X102350625Y-73610625D01*
X102550000Y-73312239D01*
X102749375Y-73610625D01*
X103240582Y-73938839D01*
X103673744Y-74025000D01*
X103966256Y-74025000D01*
X104399418Y-73938839D01*
X104890625Y-73610625D01*
X105090000Y-73312239D01*
X105289375Y-73610625D01*
X105780582Y-73938839D01*
X106213744Y-74025000D01*
X106506256Y-74025000D01*
X106939418Y-73938839D01*
X107430625Y-73610625D01*
X107630000Y-73312239D01*
X107829375Y-73610625D01*
X108320582Y-73938839D01*
X108753744Y-74025000D01*
X109046256Y-74025000D01*
X109479418Y-73938839D01*
X109970625Y-73610625D01*
X110151450Y-73340000D01*
X123685908Y-73340000D01*
X123801161Y-73919418D01*
X124129375Y-74410625D01*
X124427761Y-74610000D01*
X124129375Y-74809375D01*
X123801161Y-75300582D01*
X123685908Y-75880000D01*
X123801161Y-76459418D01*
X124129375Y-76950625D01*
X124427761Y-77150000D01*
X124129375Y-77349375D01*
X123801161Y-77840582D01*
X123685908Y-78420000D01*
X123801161Y-78999418D01*
X124129375Y-79490625D01*
X124620582Y-79818839D01*
X125053744Y-79905000D01*
X125346256Y-79905000D01*
X125779418Y-79818839D01*
X126270625Y-79490625D01*
X126598839Y-78999418D01*
X126714092Y-78420000D01*
X126598839Y-77840582D01*
X126270625Y-77349375D01*
X125972239Y-77150000D01*
X126270625Y-76950625D01*
X126598839Y-76459418D01*
X126714092Y-75880000D01*
X126598839Y-75300582D01*
X126270625Y-74809375D01*
X125972239Y-74610000D01*
X126270625Y-74410625D01*
X126598839Y-73919418D01*
X126714092Y-73340000D01*
X126598839Y-72760582D01*
X126270625Y-72269375D01*
X126252381Y-72257184D01*
X126297765Y-72248157D01*
X126507809Y-72107809D01*
X126648157Y-71897765D01*
X126697440Y-71650000D01*
X126697440Y-69950000D01*
X126648157Y-69702235D01*
X126507809Y-69492191D01*
X126297765Y-69351843D01*
X126050000Y-69302560D01*
X124350000Y-69302560D01*
X124102235Y-69351843D01*
X123892191Y-69492191D01*
X123751843Y-69702235D01*
X123702560Y-69950000D01*
X123702560Y-71650000D01*
X123751843Y-71897765D01*
X123892191Y-72107809D01*
X124102235Y-72248157D01*
X124147619Y-72257184D01*
X124129375Y-72269375D01*
X123801161Y-72760582D01*
X123685908Y-73340000D01*
X110151450Y-73340000D01*
X110298839Y-73119418D01*
X110414092Y-72540000D01*
X110298839Y-71960582D01*
X109970625Y-71469375D01*
X109952381Y-71457184D01*
X109997765Y-71448157D01*
X110207809Y-71307809D01*
X110348157Y-71097765D01*
X110397440Y-70850000D01*
X110397440Y-69150000D01*
X110348157Y-68902235D01*
X110207809Y-68692191D01*
X109997765Y-68551843D01*
X109750000Y-68502560D01*
X108050000Y-68502560D01*
X107802235Y-68551843D01*
X107592191Y-68692191D01*
X107451843Y-68902235D01*
X107442816Y-68947619D01*
X107430625Y-68929375D01*
X106939418Y-68601161D01*
X106506256Y-68515000D01*
X106213744Y-68515000D01*
X105780582Y-68601161D01*
X105289375Y-68929375D01*
X105090000Y-69227761D01*
X104890625Y-68929375D01*
X104399418Y-68601161D01*
X103966256Y-68515000D01*
X103673744Y-68515000D01*
X103240582Y-68601161D01*
X102749375Y-68929375D01*
X102550000Y-69227761D01*
X102350625Y-68929375D01*
X101859418Y-68601161D01*
X101426256Y-68515000D01*
X101133744Y-68515000D01*
X100700582Y-68601161D01*
X100209375Y-68929375D01*
X100010000Y-69227761D01*
X99810625Y-68929375D01*
X99319418Y-68601161D01*
X98886256Y-68515000D01*
X98593744Y-68515000D01*
X98160582Y-68601161D01*
X97669375Y-68929375D01*
X97470000Y-69227761D01*
X97270625Y-68929375D01*
X96779418Y-68601161D01*
X96346256Y-68515000D01*
X96053744Y-68515000D01*
X95620582Y-68601161D01*
X95129375Y-68929375D01*
X94930000Y-69227761D01*
X94730625Y-68929375D01*
X94239418Y-68601161D01*
X93806256Y-68515000D01*
X93513744Y-68515000D01*
X93080582Y-68601161D01*
X92589375Y-68929375D01*
X92390000Y-69227761D01*
X92190625Y-68929375D01*
X91699418Y-68601161D01*
X91266256Y-68515000D01*
X90973744Y-68515000D01*
X90540582Y-68601161D01*
X90049375Y-68929375D01*
X89721161Y-69420582D01*
X89605908Y-70000000D01*
X60710000Y-70000000D01*
X60710000Y-60710000D01*
X139290001Y-60710000D01*
X139290000Y-139290000D01*
G04 #@! TD*
M02*
