G04 #@! TF.GenerationSoftware,KiCad,Pcbnew,5.0.2-bee76a0~70~ubuntu18.10.1*
G04 #@! TF.CreationDate,2019-01-06T00:11:04+02:00*
G04 #@! TF.ProjectId,GB-BRK-SLOT-A,47422d42-524b-42d5-934c-4f542d412e6b,v1.0*
G04 #@! TF.SameCoordinates,Original*
G04 #@! TF.FileFunction,Soldermask,Top*
G04 #@! TF.FilePolarity,Negative*
%FSLAX46Y46*%
G04 Gerber Fmt 4.6, Leading zero omitted, Abs format (unit mm)*
G04 Created by KiCad (PCBNEW 5.0.2-bee76a0~70~ubuntu18.10.1) date su  6. tammikuuta 2019 00.11.04*
%MOMM*%
%LPD*%
G01*
G04 APERTURE LIST*
%ADD10C,0.150000*%
%ADD11C,0.100000*%
G04 APERTURE END LIST*
D10*
X128000000Y-70000000D02*
X128000000Y-150000000D01*
X47000000Y-70000000D02*
X128000000Y-70000000D01*
X47000000Y-150000000D02*
X128000000Y-150000000D01*
X47000000Y-70000000D02*
X47000000Y-150000000D01*
D11*
G36*
X66089076Y-147928717D02*
X66120641Y-147938291D01*
X66149735Y-147953843D01*
X66175232Y-147974768D01*
X66196157Y-148000265D01*
X66211709Y-148029359D01*
X66221283Y-148060924D01*
X66225000Y-148098658D01*
X66225000Y-148701342D01*
X66221283Y-148739076D01*
X66211709Y-148770641D01*
X66196157Y-148799735D01*
X66175232Y-148825232D01*
X66149735Y-148846157D01*
X66120641Y-148861709D01*
X66089076Y-148871283D01*
X66051342Y-148875000D01*
X65523658Y-148875000D01*
X65485924Y-148871283D01*
X65454359Y-148861709D01*
X65425265Y-148846157D01*
X65399768Y-148825232D01*
X65378843Y-148799735D01*
X65363291Y-148770641D01*
X65353717Y-148739076D01*
X65350000Y-148701342D01*
X65350000Y-148098658D01*
X65353717Y-148060924D01*
X65363291Y-148029359D01*
X65378843Y-148000265D01*
X65399768Y-147974768D01*
X65425265Y-147953843D01*
X65454359Y-147938291D01*
X65485924Y-147928717D01*
X65523658Y-147925000D01*
X66051342Y-147925000D01*
X66089076Y-147928717D01*
X66089076Y-147928717D01*
G37*
G36*
X109514076Y-147928717D02*
X109545641Y-147938291D01*
X109574735Y-147953843D01*
X109600232Y-147974768D01*
X109621157Y-148000265D01*
X109636709Y-148029359D01*
X109646283Y-148060924D01*
X109650000Y-148098658D01*
X109650000Y-148701342D01*
X109646283Y-148739076D01*
X109636709Y-148770641D01*
X109621157Y-148799735D01*
X109600232Y-148825232D01*
X109574735Y-148846157D01*
X109545641Y-148861709D01*
X109514076Y-148871283D01*
X109476342Y-148875000D01*
X108948658Y-148875000D01*
X108910924Y-148871283D01*
X108879359Y-148861709D01*
X108850265Y-148846157D01*
X108824768Y-148825232D01*
X108803843Y-148799735D01*
X108788291Y-148770641D01*
X108778717Y-148739076D01*
X108775000Y-148701342D01*
X108775000Y-148098658D01*
X108778717Y-148060924D01*
X108788291Y-148029359D01*
X108803843Y-148000265D01*
X108824768Y-147974768D01*
X108850265Y-147953843D01*
X108879359Y-147938291D01*
X108910924Y-147928717D01*
X108948658Y-147925000D01*
X109476342Y-147925000D01*
X109514076Y-147928717D01*
X109514076Y-147928717D01*
G37*
G36*
X111089076Y-147928717D02*
X111120641Y-147938291D01*
X111149735Y-147953843D01*
X111175232Y-147974768D01*
X111196157Y-148000265D01*
X111211709Y-148029359D01*
X111221283Y-148060924D01*
X111225000Y-148098658D01*
X111225000Y-148701342D01*
X111221283Y-148739076D01*
X111211709Y-148770641D01*
X111196157Y-148799735D01*
X111175232Y-148825232D01*
X111149735Y-148846157D01*
X111120641Y-148861709D01*
X111089076Y-148871283D01*
X111051342Y-148875000D01*
X110523658Y-148875000D01*
X110485924Y-148871283D01*
X110454359Y-148861709D01*
X110425265Y-148846157D01*
X110399768Y-148825232D01*
X110378843Y-148799735D01*
X110363291Y-148770641D01*
X110353717Y-148739076D01*
X110350000Y-148701342D01*
X110350000Y-148098658D01*
X110353717Y-148060924D01*
X110363291Y-148029359D01*
X110378843Y-148000265D01*
X110399768Y-147974768D01*
X110425265Y-147953843D01*
X110454359Y-147938291D01*
X110485924Y-147928717D01*
X110523658Y-147925000D01*
X111051342Y-147925000D01*
X111089076Y-147928717D01*
X111089076Y-147928717D01*
G37*
G36*
X91514076Y-147928717D02*
X91545641Y-147938291D01*
X91574735Y-147953843D01*
X91600232Y-147974768D01*
X91621157Y-148000265D01*
X91636709Y-148029359D01*
X91646283Y-148060924D01*
X91650000Y-148098658D01*
X91650000Y-148701342D01*
X91646283Y-148739076D01*
X91636709Y-148770641D01*
X91621157Y-148799735D01*
X91600232Y-148825232D01*
X91574735Y-148846157D01*
X91545641Y-148861709D01*
X91514076Y-148871283D01*
X91476342Y-148875000D01*
X90948658Y-148875000D01*
X90910924Y-148871283D01*
X90879359Y-148861709D01*
X90850265Y-148846157D01*
X90824768Y-148825232D01*
X90803843Y-148799735D01*
X90788291Y-148770641D01*
X90778717Y-148739076D01*
X90775000Y-148701342D01*
X90775000Y-148098658D01*
X90778717Y-148060924D01*
X90788291Y-148029359D01*
X90803843Y-148000265D01*
X90824768Y-147974768D01*
X90850265Y-147953843D01*
X90879359Y-147938291D01*
X90910924Y-147928717D01*
X90948658Y-147925000D01*
X91476342Y-147925000D01*
X91514076Y-147928717D01*
X91514076Y-147928717D01*
G37*
G36*
X93089076Y-147928717D02*
X93120641Y-147938291D01*
X93149735Y-147953843D01*
X93175232Y-147974768D01*
X93196157Y-148000265D01*
X93211709Y-148029359D01*
X93221283Y-148060924D01*
X93225000Y-148098658D01*
X93225000Y-148701342D01*
X93221283Y-148739076D01*
X93211709Y-148770641D01*
X93196157Y-148799735D01*
X93175232Y-148825232D01*
X93149735Y-148846157D01*
X93120641Y-148861709D01*
X93089076Y-148871283D01*
X93051342Y-148875000D01*
X92523658Y-148875000D01*
X92485924Y-148871283D01*
X92454359Y-148861709D01*
X92425265Y-148846157D01*
X92399768Y-148825232D01*
X92378843Y-148799735D01*
X92363291Y-148770641D01*
X92353717Y-148739076D01*
X92350000Y-148701342D01*
X92350000Y-148098658D01*
X92353717Y-148060924D01*
X92363291Y-148029359D01*
X92378843Y-148000265D01*
X92399768Y-147974768D01*
X92425265Y-147953843D01*
X92454359Y-147938291D01*
X92485924Y-147928717D01*
X92523658Y-147925000D01*
X93051342Y-147925000D01*
X93089076Y-147928717D01*
X93089076Y-147928717D01*
G37*
G36*
X82514076Y-147928717D02*
X82545641Y-147938291D01*
X82574735Y-147953843D01*
X82600232Y-147974768D01*
X82621157Y-148000265D01*
X82636709Y-148029359D01*
X82646283Y-148060924D01*
X82650000Y-148098658D01*
X82650000Y-148701342D01*
X82646283Y-148739076D01*
X82636709Y-148770641D01*
X82621157Y-148799735D01*
X82600232Y-148825232D01*
X82574735Y-148846157D01*
X82545641Y-148861709D01*
X82514076Y-148871283D01*
X82476342Y-148875000D01*
X81948658Y-148875000D01*
X81910924Y-148871283D01*
X81879359Y-148861709D01*
X81850265Y-148846157D01*
X81824768Y-148825232D01*
X81803843Y-148799735D01*
X81788291Y-148770641D01*
X81778717Y-148739076D01*
X81775000Y-148701342D01*
X81775000Y-148098658D01*
X81778717Y-148060924D01*
X81788291Y-148029359D01*
X81803843Y-148000265D01*
X81824768Y-147974768D01*
X81850265Y-147953843D01*
X81879359Y-147938291D01*
X81910924Y-147928717D01*
X81948658Y-147925000D01*
X82476342Y-147925000D01*
X82514076Y-147928717D01*
X82514076Y-147928717D01*
G37*
G36*
X84089076Y-147928717D02*
X84120641Y-147938291D01*
X84149735Y-147953843D01*
X84175232Y-147974768D01*
X84196157Y-148000265D01*
X84211709Y-148029359D01*
X84221283Y-148060924D01*
X84225000Y-148098658D01*
X84225000Y-148701342D01*
X84221283Y-148739076D01*
X84211709Y-148770641D01*
X84196157Y-148799735D01*
X84175232Y-148825232D01*
X84149735Y-148846157D01*
X84120641Y-148861709D01*
X84089076Y-148871283D01*
X84051342Y-148875000D01*
X83523658Y-148875000D01*
X83485924Y-148871283D01*
X83454359Y-148861709D01*
X83425265Y-148846157D01*
X83399768Y-148825232D01*
X83378843Y-148799735D01*
X83363291Y-148770641D01*
X83353717Y-148739076D01*
X83350000Y-148701342D01*
X83350000Y-148098658D01*
X83353717Y-148060924D01*
X83363291Y-148029359D01*
X83378843Y-148000265D01*
X83399768Y-147974768D01*
X83425265Y-147953843D01*
X83454359Y-147938291D01*
X83485924Y-147928717D01*
X83523658Y-147925000D01*
X84051342Y-147925000D01*
X84089076Y-147928717D01*
X84089076Y-147928717D01*
G37*
G36*
X73514076Y-147928717D02*
X73545641Y-147938291D01*
X73574735Y-147953843D01*
X73600232Y-147974768D01*
X73621157Y-148000265D01*
X73636709Y-148029359D01*
X73646283Y-148060924D01*
X73650000Y-148098658D01*
X73650000Y-148701342D01*
X73646283Y-148739076D01*
X73636709Y-148770641D01*
X73621157Y-148799735D01*
X73600232Y-148825232D01*
X73574735Y-148846157D01*
X73545641Y-148861709D01*
X73514076Y-148871283D01*
X73476342Y-148875000D01*
X72948658Y-148875000D01*
X72910924Y-148871283D01*
X72879359Y-148861709D01*
X72850265Y-148846157D01*
X72824768Y-148825232D01*
X72803843Y-148799735D01*
X72788291Y-148770641D01*
X72778717Y-148739076D01*
X72775000Y-148701342D01*
X72775000Y-148098658D01*
X72778717Y-148060924D01*
X72788291Y-148029359D01*
X72803843Y-148000265D01*
X72824768Y-147974768D01*
X72850265Y-147953843D01*
X72879359Y-147938291D01*
X72910924Y-147928717D01*
X72948658Y-147925000D01*
X73476342Y-147925000D01*
X73514076Y-147928717D01*
X73514076Y-147928717D01*
G37*
G36*
X75089076Y-147928717D02*
X75120641Y-147938291D01*
X75149735Y-147953843D01*
X75175232Y-147974768D01*
X75196157Y-148000265D01*
X75211709Y-148029359D01*
X75221283Y-148060924D01*
X75225000Y-148098658D01*
X75225000Y-148701342D01*
X75221283Y-148739076D01*
X75211709Y-148770641D01*
X75196157Y-148799735D01*
X75175232Y-148825232D01*
X75149735Y-148846157D01*
X75120641Y-148861709D01*
X75089076Y-148871283D01*
X75051342Y-148875000D01*
X74523658Y-148875000D01*
X74485924Y-148871283D01*
X74454359Y-148861709D01*
X74425265Y-148846157D01*
X74399768Y-148825232D01*
X74378843Y-148799735D01*
X74363291Y-148770641D01*
X74353717Y-148739076D01*
X74350000Y-148701342D01*
X74350000Y-148098658D01*
X74353717Y-148060924D01*
X74363291Y-148029359D01*
X74378843Y-148000265D01*
X74399768Y-147974768D01*
X74425265Y-147953843D01*
X74454359Y-147938291D01*
X74485924Y-147928717D01*
X74523658Y-147925000D01*
X75051342Y-147925000D01*
X75089076Y-147928717D01*
X75089076Y-147928717D01*
G37*
G36*
X100514076Y-147928717D02*
X100545641Y-147938291D01*
X100574735Y-147953843D01*
X100600232Y-147974768D01*
X100621157Y-148000265D01*
X100636709Y-148029359D01*
X100646283Y-148060924D01*
X100650000Y-148098658D01*
X100650000Y-148701342D01*
X100646283Y-148739076D01*
X100636709Y-148770641D01*
X100621157Y-148799735D01*
X100600232Y-148825232D01*
X100574735Y-148846157D01*
X100545641Y-148861709D01*
X100514076Y-148871283D01*
X100476342Y-148875000D01*
X99948658Y-148875000D01*
X99910924Y-148871283D01*
X99879359Y-148861709D01*
X99850265Y-148846157D01*
X99824768Y-148825232D01*
X99803843Y-148799735D01*
X99788291Y-148770641D01*
X99778717Y-148739076D01*
X99775000Y-148701342D01*
X99775000Y-148098658D01*
X99778717Y-148060924D01*
X99788291Y-148029359D01*
X99803843Y-148000265D01*
X99824768Y-147974768D01*
X99850265Y-147953843D01*
X99879359Y-147938291D01*
X99910924Y-147928717D01*
X99948658Y-147925000D01*
X100476342Y-147925000D01*
X100514076Y-147928717D01*
X100514076Y-147928717D01*
G37*
G36*
X102089076Y-147928717D02*
X102120641Y-147938291D01*
X102149735Y-147953843D01*
X102175232Y-147974768D01*
X102196157Y-148000265D01*
X102211709Y-148029359D01*
X102221283Y-148060924D01*
X102225000Y-148098658D01*
X102225000Y-148701342D01*
X102221283Y-148739076D01*
X102211709Y-148770641D01*
X102196157Y-148799735D01*
X102175232Y-148825232D01*
X102149735Y-148846157D01*
X102120641Y-148861709D01*
X102089076Y-148871283D01*
X102051342Y-148875000D01*
X101523658Y-148875000D01*
X101485924Y-148871283D01*
X101454359Y-148861709D01*
X101425265Y-148846157D01*
X101399768Y-148825232D01*
X101378843Y-148799735D01*
X101363291Y-148770641D01*
X101353717Y-148739076D01*
X101350000Y-148701342D01*
X101350000Y-148098658D01*
X101353717Y-148060924D01*
X101363291Y-148029359D01*
X101378843Y-148000265D01*
X101399768Y-147974768D01*
X101425265Y-147953843D01*
X101454359Y-147938291D01*
X101485924Y-147928717D01*
X101523658Y-147925000D01*
X102051342Y-147925000D01*
X102089076Y-147928717D01*
X102089076Y-147928717D01*
G37*
G36*
X64514076Y-147928717D02*
X64545641Y-147938291D01*
X64574735Y-147953843D01*
X64600232Y-147974768D01*
X64621157Y-148000265D01*
X64636709Y-148029359D01*
X64646283Y-148060924D01*
X64650000Y-148098658D01*
X64650000Y-148701342D01*
X64646283Y-148739076D01*
X64636709Y-148770641D01*
X64621157Y-148799735D01*
X64600232Y-148825232D01*
X64574735Y-148846157D01*
X64545641Y-148861709D01*
X64514076Y-148871283D01*
X64476342Y-148875000D01*
X63948658Y-148875000D01*
X63910924Y-148871283D01*
X63879359Y-148861709D01*
X63850265Y-148846157D01*
X63824768Y-148825232D01*
X63803843Y-148799735D01*
X63788291Y-148770641D01*
X63778717Y-148739076D01*
X63775000Y-148701342D01*
X63775000Y-148098658D01*
X63778717Y-148060924D01*
X63788291Y-148029359D01*
X63803843Y-148000265D01*
X63824768Y-147974768D01*
X63850265Y-147953843D01*
X63879359Y-147938291D01*
X63910924Y-147928717D01*
X63948658Y-147925000D01*
X64476342Y-147925000D01*
X64514076Y-147928717D01*
X64514076Y-147928717D01*
G37*
G36*
X75089076Y-146328717D02*
X75120641Y-146338291D01*
X75149735Y-146353843D01*
X75175232Y-146374768D01*
X75196157Y-146400265D01*
X75211709Y-146429359D01*
X75221283Y-146460924D01*
X75225000Y-146498658D01*
X75225000Y-147101342D01*
X75221283Y-147139076D01*
X75211709Y-147170641D01*
X75196157Y-147199735D01*
X75175232Y-147225232D01*
X75149735Y-147246157D01*
X75120641Y-147261709D01*
X75089076Y-147271283D01*
X75051342Y-147275000D01*
X74523658Y-147275000D01*
X74485924Y-147271283D01*
X74454359Y-147261709D01*
X74425265Y-147246157D01*
X74399768Y-147225232D01*
X74378843Y-147199735D01*
X74363291Y-147170641D01*
X74353717Y-147139076D01*
X74350000Y-147101342D01*
X74350000Y-146498658D01*
X74353717Y-146460924D01*
X74363291Y-146429359D01*
X74378843Y-146400265D01*
X74399768Y-146374768D01*
X74425265Y-146353843D01*
X74454359Y-146338291D01*
X74485924Y-146328717D01*
X74523658Y-146325000D01*
X75051342Y-146325000D01*
X75089076Y-146328717D01*
X75089076Y-146328717D01*
G37*
G36*
X109514076Y-146328717D02*
X109545641Y-146338291D01*
X109574735Y-146353843D01*
X109600232Y-146374768D01*
X109621157Y-146400265D01*
X109636709Y-146429359D01*
X109646283Y-146460924D01*
X109650000Y-146498658D01*
X109650000Y-147101342D01*
X109646283Y-147139076D01*
X109636709Y-147170641D01*
X109621157Y-147199735D01*
X109600232Y-147225232D01*
X109574735Y-147246157D01*
X109545641Y-147261709D01*
X109514076Y-147271283D01*
X109476342Y-147275000D01*
X108948658Y-147275000D01*
X108910924Y-147271283D01*
X108879359Y-147261709D01*
X108850265Y-147246157D01*
X108824768Y-147225232D01*
X108803843Y-147199735D01*
X108788291Y-147170641D01*
X108778717Y-147139076D01*
X108775000Y-147101342D01*
X108775000Y-146498658D01*
X108778717Y-146460924D01*
X108788291Y-146429359D01*
X108803843Y-146400265D01*
X108824768Y-146374768D01*
X108850265Y-146353843D01*
X108879359Y-146338291D01*
X108910924Y-146328717D01*
X108948658Y-146325000D01*
X109476342Y-146325000D01*
X109514076Y-146328717D01*
X109514076Y-146328717D01*
G37*
G36*
X84089076Y-146328717D02*
X84120641Y-146338291D01*
X84149735Y-146353843D01*
X84175232Y-146374768D01*
X84196157Y-146400265D01*
X84211709Y-146429359D01*
X84221283Y-146460924D01*
X84225000Y-146498658D01*
X84225000Y-147101342D01*
X84221283Y-147139076D01*
X84211709Y-147170641D01*
X84196157Y-147199735D01*
X84175232Y-147225232D01*
X84149735Y-147246157D01*
X84120641Y-147261709D01*
X84089076Y-147271283D01*
X84051342Y-147275000D01*
X83523658Y-147275000D01*
X83485924Y-147271283D01*
X83454359Y-147261709D01*
X83425265Y-147246157D01*
X83399768Y-147225232D01*
X83378843Y-147199735D01*
X83363291Y-147170641D01*
X83353717Y-147139076D01*
X83350000Y-147101342D01*
X83350000Y-146498658D01*
X83353717Y-146460924D01*
X83363291Y-146429359D01*
X83378843Y-146400265D01*
X83399768Y-146374768D01*
X83425265Y-146353843D01*
X83454359Y-146338291D01*
X83485924Y-146328717D01*
X83523658Y-146325000D01*
X84051342Y-146325000D01*
X84089076Y-146328717D01*
X84089076Y-146328717D01*
G37*
G36*
X91514076Y-146328717D02*
X91545641Y-146338291D01*
X91574735Y-146353843D01*
X91600232Y-146374768D01*
X91621157Y-146400265D01*
X91636709Y-146429359D01*
X91646283Y-146460924D01*
X91650000Y-146498658D01*
X91650000Y-147101342D01*
X91646283Y-147139076D01*
X91636709Y-147170641D01*
X91621157Y-147199735D01*
X91600232Y-147225232D01*
X91574735Y-147246157D01*
X91545641Y-147261709D01*
X91514076Y-147271283D01*
X91476342Y-147275000D01*
X90948658Y-147275000D01*
X90910924Y-147271283D01*
X90879359Y-147261709D01*
X90850265Y-147246157D01*
X90824768Y-147225232D01*
X90803843Y-147199735D01*
X90788291Y-147170641D01*
X90778717Y-147139076D01*
X90775000Y-147101342D01*
X90775000Y-146498658D01*
X90778717Y-146460924D01*
X90788291Y-146429359D01*
X90803843Y-146400265D01*
X90824768Y-146374768D01*
X90850265Y-146353843D01*
X90879359Y-146338291D01*
X90910924Y-146328717D01*
X90948658Y-146325000D01*
X91476342Y-146325000D01*
X91514076Y-146328717D01*
X91514076Y-146328717D01*
G37*
G36*
X93089076Y-146328717D02*
X93120641Y-146338291D01*
X93149735Y-146353843D01*
X93175232Y-146374768D01*
X93196157Y-146400265D01*
X93211709Y-146429359D01*
X93221283Y-146460924D01*
X93225000Y-146498658D01*
X93225000Y-147101342D01*
X93221283Y-147139076D01*
X93211709Y-147170641D01*
X93196157Y-147199735D01*
X93175232Y-147225232D01*
X93149735Y-147246157D01*
X93120641Y-147261709D01*
X93089076Y-147271283D01*
X93051342Y-147275000D01*
X92523658Y-147275000D01*
X92485924Y-147271283D01*
X92454359Y-147261709D01*
X92425265Y-147246157D01*
X92399768Y-147225232D01*
X92378843Y-147199735D01*
X92363291Y-147170641D01*
X92353717Y-147139076D01*
X92350000Y-147101342D01*
X92350000Y-146498658D01*
X92353717Y-146460924D01*
X92363291Y-146429359D01*
X92378843Y-146400265D01*
X92399768Y-146374768D01*
X92425265Y-146353843D01*
X92454359Y-146338291D01*
X92485924Y-146328717D01*
X92523658Y-146325000D01*
X93051342Y-146325000D01*
X93089076Y-146328717D01*
X93089076Y-146328717D01*
G37*
G36*
X82514076Y-146328717D02*
X82545641Y-146338291D01*
X82574735Y-146353843D01*
X82600232Y-146374768D01*
X82621157Y-146400265D01*
X82636709Y-146429359D01*
X82646283Y-146460924D01*
X82650000Y-146498658D01*
X82650000Y-147101342D01*
X82646283Y-147139076D01*
X82636709Y-147170641D01*
X82621157Y-147199735D01*
X82600232Y-147225232D01*
X82574735Y-147246157D01*
X82545641Y-147261709D01*
X82514076Y-147271283D01*
X82476342Y-147275000D01*
X81948658Y-147275000D01*
X81910924Y-147271283D01*
X81879359Y-147261709D01*
X81850265Y-147246157D01*
X81824768Y-147225232D01*
X81803843Y-147199735D01*
X81788291Y-147170641D01*
X81778717Y-147139076D01*
X81775000Y-147101342D01*
X81775000Y-146498658D01*
X81778717Y-146460924D01*
X81788291Y-146429359D01*
X81803843Y-146400265D01*
X81824768Y-146374768D01*
X81850265Y-146353843D01*
X81879359Y-146338291D01*
X81910924Y-146328717D01*
X81948658Y-146325000D01*
X82476342Y-146325000D01*
X82514076Y-146328717D01*
X82514076Y-146328717D01*
G37*
G36*
X73514076Y-146328717D02*
X73545641Y-146338291D01*
X73574735Y-146353843D01*
X73600232Y-146374768D01*
X73621157Y-146400265D01*
X73636709Y-146429359D01*
X73646283Y-146460924D01*
X73650000Y-146498658D01*
X73650000Y-147101342D01*
X73646283Y-147139076D01*
X73636709Y-147170641D01*
X73621157Y-147199735D01*
X73600232Y-147225232D01*
X73574735Y-147246157D01*
X73545641Y-147261709D01*
X73514076Y-147271283D01*
X73476342Y-147275000D01*
X72948658Y-147275000D01*
X72910924Y-147271283D01*
X72879359Y-147261709D01*
X72850265Y-147246157D01*
X72824768Y-147225232D01*
X72803843Y-147199735D01*
X72788291Y-147170641D01*
X72778717Y-147139076D01*
X72775000Y-147101342D01*
X72775000Y-146498658D01*
X72778717Y-146460924D01*
X72788291Y-146429359D01*
X72803843Y-146400265D01*
X72824768Y-146374768D01*
X72850265Y-146353843D01*
X72879359Y-146338291D01*
X72910924Y-146328717D01*
X72948658Y-146325000D01*
X73476342Y-146325000D01*
X73514076Y-146328717D01*
X73514076Y-146328717D01*
G37*
G36*
X102089076Y-146328717D02*
X102120641Y-146338291D01*
X102149735Y-146353843D01*
X102175232Y-146374768D01*
X102196157Y-146400265D01*
X102211709Y-146429359D01*
X102221283Y-146460924D01*
X102225000Y-146498658D01*
X102225000Y-147101342D01*
X102221283Y-147139076D01*
X102211709Y-147170641D01*
X102196157Y-147199735D01*
X102175232Y-147225232D01*
X102149735Y-147246157D01*
X102120641Y-147261709D01*
X102089076Y-147271283D01*
X102051342Y-147275000D01*
X101523658Y-147275000D01*
X101485924Y-147271283D01*
X101454359Y-147261709D01*
X101425265Y-147246157D01*
X101399768Y-147225232D01*
X101378843Y-147199735D01*
X101363291Y-147170641D01*
X101353717Y-147139076D01*
X101350000Y-147101342D01*
X101350000Y-146498658D01*
X101353717Y-146460924D01*
X101363291Y-146429359D01*
X101378843Y-146400265D01*
X101399768Y-146374768D01*
X101425265Y-146353843D01*
X101454359Y-146338291D01*
X101485924Y-146328717D01*
X101523658Y-146325000D01*
X102051342Y-146325000D01*
X102089076Y-146328717D01*
X102089076Y-146328717D01*
G37*
G36*
X111089076Y-146328717D02*
X111120641Y-146338291D01*
X111149735Y-146353843D01*
X111175232Y-146374768D01*
X111196157Y-146400265D01*
X111211709Y-146429359D01*
X111221283Y-146460924D01*
X111225000Y-146498658D01*
X111225000Y-147101342D01*
X111221283Y-147139076D01*
X111211709Y-147170641D01*
X111196157Y-147199735D01*
X111175232Y-147225232D01*
X111149735Y-147246157D01*
X111120641Y-147261709D01*
X111089076Y-147271283D01*
X111051342Y-147275000D01*
X110523658Y-147275000D01*
X110485924Y-147271283D01*
X110454359Y-147261709D01*
X110425265Y-147246157D01*
X110399768Y-147225232D01*
X110378843Y-147199735D01*
X110363291Y-147170641D01*
X110353717Y-147139076D01*
X110350000Y-147101342D01*
X110350000Y-146498658D01*
X110353717Y-146460924D01*
X110363291Y-146429359D01*
X110378843Y-146400265D01*
X110399768Y-146374768D01*
X110425265Y-146353843D01*
X110454359Y-146338291D01*
X110485924Y-146328717D01*
X110523658Y-146325000D01*
X111051342Y-146325000D01*
X111089076Y-146328717D01*
X111089076Y-146328717D01*
G37*
G36*
X100514076Y-146328717D02*
X100545641Y-146338291D01*
X100574735Y-146353843D01*
X100600232Y-146374768D01*
X100621157Y-146400265D01*
X100636709Y-146429359D01*
X100646283Y-146460924D01*
X100650000Y-146498658D01*
X100650000Y-147101342D01*
X100646283Y-147139076D01*
X100636709Y-147170641D01*
X100621157Y-147199735D01*
X100600232Y-147225232D01*
X100574735Y-147246157D01*
X100545641Y-147261709D01*
X100514076Y-147271283D01*
X100476342Y-147275000D01*
X99948658Y-147275000D01*
X99910924Y-147271283D01*
X99879359Y-147261709D01*
X99850265Y-147246157D01*
X99824768Y-147225232D01*
X99803843Y-147199735D01*
X99788291Y-147170641D01*
X99778717Y-147139076D01*
X99775000Y-147101342D01*
X99775000Y-146498658D01*
X99778717Y-146460924D01*
X99788291Y-146429359D01*
X99803843Y-146400265D01*
X99824768Y-146374768D01*
X99850265Y-146353843D01*
X99879359Y-146338291D01*
X99910924Y-146328717D01*
X99948658Y-146325000D01*
X100476342Y-146325000D01*
X100514076Y-146328717D01*
X100514076Y-146328717D01*
G37*
G36*
X66089076Y-146328717D02*
X66120641Y-146338291D01*
X66149735Y-146353843D01*
X66175232Y-146374768D01*
X66196157Y-146400265D01*
X66211709Y-146429359D01*
X66221283Y-146460924D01*
X66225000Y-146498658D01*
X66225000Y-147101342D01*
X66221283Y-147139076D01*
X66211709Y-147170641D01*
X66196157Y-147199735D01*
X66175232Y-147225232D01*
X66149735Y-147246157D01*
X66120641Y-147261709D01*
X66089076Y-147271283D01*
X66051342Y-147275000D01*
X65523658Y-147275000D01*
X65485924Y-147271283D01*
X65454359Y-147261709D01*
X65425265Y-147246157D01*
X65399768Y-147225232D01*
X65378843Y-147199735D01*
X65363291Y-147170641D01*
X65353717Y-147139076D01*
X65350000Y-147101342D01*
X65350000Y-146498658D01*
X65353717Y-146460924D01*
X65363291Y-146429359D01*
X65378843Y-146400265D01*
X65399768Y-146374768D01*
X65425265Y-146353843D01*
X65454359Y-146338291D01*
X65485924Y-146328717D01*
X65523658Y-146325000D01*
X66051342Y-146325000D01*
X66089076Y-146328717D01*
X66089076Y-146328717D01*
G37*
G36*
X64514076Y-146328717D02*
X64545641Y-146338291D01*
X64574735Y-146353843D01*
X64600232Y-146374768D01*
X64621157Y-146400265D01*
X64636709Y-146429359D01*
X64646283Y-146460924D01*
X64650000Y-146498658D01*
X64650000Y-147101342D01*
X64646283Y-147139076D01*
X64636709Y-147170641D01*
X64621157Y-147199735D01*
X64600232Y-147225232D01*
X64574735Y-147246157D01*
X64545641Y-147261709D01*
X64514076Y-147271283D01*
X64476342Y-147275000D01*
X63948658Y-147275000D01*
X63910924Y-147271283D01*
X63879359Y-147261709D01*
X63850265Y-147246157D01*
X63824768Y-147225232D01*
X63803843Y-147199735D01*
X63788291Y-147170641D01*
X63778717Y-147139076D01*
X63775000Y-147101342D01*
X63775000Y-146498658D01*
X63778717Y-146460924D01*
X63788291Y-146429359D01*
X63803843Y-146400265D01*
X63824768Y-146374768D01*
X63850265Y-146353843D01*
X63879359Y-146338291D01*
X63910924Y-146328717D01*
X63948658Y-146325000D01*
X64476342Y-146325000D01*
X64514076Y-146328717D01*
X64514076Y-146328717D01*
G37*
G36*
X62969730Y-136830744D02*
X63433408Y-136922975D01*
X64015768Y-137164197D01*
X64539881Y-137514398D01*
X64985602Y-137960119D01*
X65182958Y-138255483D01*
X65335803Y-138484232D01*
X65577025Y-139066592D01*
X65604460Y-139204517D01*
X65700000Y-139684828D01*
X65700000Y-140315172D01*
X65679148Y-140420000D01*
X65577025Y-140933408D01*
X65366329Y-141442071D01*
X65335803Y-141515768D01*
X64985602Y-142039881D01*
X64539881Y-142485602D01*
X64493375Y-142516676D01*
X64015768Y-142835803D01*
X63433408Y-143077025D01*
X62969730Y-143169256D01*
X62815172Y-143200000D01*
X62184828Y-143200000D01*
X62030270Y-143169256D01*
X61566592Y-143077025D01*
X60984232Y-142835803D01*
X60506625Y-142516676D01*
X60460119Y-142485602D01*
X60014398Y-142039881D01*
X59664197Y-141515768D01*
X59633671Y-141442071D01*
X59422975Y-140933408D01*
X59320852Y-140420000D01*
X59300000Y-140315172D01*
X59300000Y-139684828D01*
X59395540Y-139204517D01*
X59422975Y-139066592D01*
X59664197Y-138484232D01*
X59817042Y-138255483D01*
X60014398Y-137960119D01*
X60460119Y-137514398D01*
X60984232Y-137164197D01*
X61566592Y-136922975D01*
X62030270Y-136830744D01*
X62184828Y-136800000D01*
X62815172Y-136800000D01*
X62969730Y-136830744D01*
X62969730Y-136830744D01*
G37*
G36*
X112969730Y-136830744D02*
X113433408Y-136922975D01*
X114015768Y-137164197D01*
X114539881Y-137514398D01*
X114985602Y-137960119D01*
X115182958Y-138255483D01*
X115335803Y-138484232D01*
X115577025Y-139066592D01*
X115604460Y-139204517D01*
X115700000Y-139684828D01*
X115700000Y-140315172D01*
X115679148Y-140420000D01*
X115577025Y-140933408D01*
X115366329Y-141442071D01*
X115335803Y-141515768D01*
X114985602Y-142039881D01*
X114539881Y-142485602D01*
X114493375Y-142516676D01*
X114015768Y-142835803D01*
X113433408Y-143077025D01*
X112969730Y-143169256D01*
X112815172Y-143200000D01*
X112184828Y-143200000D01*
X112030270Y-143169256D01*
X111566592Y-143077025D01*
X110984232Y-142835803D01*
X110506625Y-142516676D01*
X110460119Y-142485602D01*
X110014398Y-142039881D01*
X109664197Y-141515768D01*
X109633671Y-141442071D01*
X109422975Y-140933408D01*
X109320852Y-140420000D01*
X109300000Y-140315172D01*
X109300000Y-139684828D01*
X109395540Y-139204517D01*
X109422975Y-139066592D01*
X109664197Y-138484232D01*
X109817042Y-138255483D01*
X110014398Y-137960119D01*
X110460119Y-137514398D01*
X110984232Y-137164197D01*
X111566592Y-136922975D01*
X112030270Y-136830744D01*
X112184828Y-136800000D01*
X112815172Y-136800000D01*
X112969730Y-136830744D01*
X112969730Y-136830744D01*
G37*
G36*
X86396627Y-140432299D02*
X86487088Y-140459740D01*
X86556855Y-140480903D01*
X86610712Y-140509691D01*
X86704517Y-140559830D01*
X86833948Y-140666052D01*
X86940170Y-140795483D01*
X86990309Y-140889288D01*
X87019097Y-140943145D01*
X87019097Y-140943146D01*
X87067701Y-141103373D01*
X87084113Y-141270000D01*
X87067701Y-141436627D01*
X87046176Y-141507585D01*
X87019097Y-141596855D01*
X86990309Y-141650712D01*
X86940170Y-141744517D01*
X86833948Y-141873948D01*
X86704517Y-141980170D01*
X86638658Y-142015372D01*
X86556855Y-142059097D01*
X86487088Y-142080260D01*
X86396627Y-142107701D01*
X86271757Y-142120000D01*
X86188243Y-142120000D01*
X86063373Y-142107701D01*
X85972912Y-142080260D01*
X85903145Y-142059097D01*
X85821342Y-142015372D01*
X85755483Y-141980170D01*
X85626052Y-141873948D01*
X85519830Y-141744517D01*
X85469691Y-141650712D01*
X85440903Y-141596855D01*
X85413824Y-141507585D01*
X85392299Y-141436627D01*
X85375887Y-141270000D01*
X85392299Y-141103373D01*
X85440903Y-140943146D01*
X85440903Y-140943145D01*
X85469691Y-140889288D01*
X85519830Y-140795483D01*
X85626052Y-140666052D01*
X85755483Y-140559830D01*
X85849288Y-140509691D01*
X85903145Y-140480903D01*
X85972912Y-140459740D01*
X86063373Y-140432299D01*
X86188243Y-140420000D01*
X86271757Y-140420000D01*
X86396627Y-140432299D01*
X86396627Y-140432299D01*
G37*
G36*
X96556627Y-140432299D02*
X96647088Y-140459740D01*
X96716855Y-140480903D01*
X96770712Y-140509691D01*
X96864517Y-140559830D01*
X96993948Y-140666052D01*
X97100170Y-140795483D01*
X97150309Y-140889288D01*
X97179097Y-140943145D01*
X97179097Y-140943146D01*
X97227701Y-141103373D01*
X97244113Y-141270000D01*
X97227701Y-141436627D01*
X97206176Y-141507585D01*
X97179097Y-141596855D01*
X97150309Y-141650712D01*
X97100170Y-141744517D01*
X96993948Y-141873948D01*
X96864517Y-141980170D01*
X96798658Y-142015372D01*
X96716855Y-142059097D01*
X96647088Y-142080260D01*
X96556627Y-142107701D01*
X96431757Y-142120000D01*
X96348243Y-142120000D01*
X96223373Y-142107701D01*
X96132912Y-142080260D01*
X96063145Y-142059097D01*
X95981342Y-142015372D01*
X95915483Y-141980170D01*
X95786052Y-141873948D01*
X95679830Y-141744517D01*
X95629691Y-141650712D01*
X95600903Y-141596855D01*
X95573824Y-141507585D01*
X95552299Y-141436627D01*
X95535887Y-141270000D01*
X95552299Y-141103373D01*
X95600903Y-140943146D01*
X95600903Y-140943145D01*
X95629691Y-140889288D01*
X95679830Y-140795483D01*
X95786052Y-140666052D01*
X95915483Y-140559830D01*
X96009288Y-140509691D01*
X96063145Y-140480903D01*
X96132912Y-140459740D01*
X96223373Y-140432299D01*
X96348243Y-140420000D01*
X96431757Y-140420000D01*
X96556627Y-140432299D01*
X96556627Y-140432299D01*
G37*
G36*
X91476627Y-140432299D02*
X91567088Y-140459740D01*
X91636855Y-140480903D01*
X91690712Y-140509691D01*
X91784517Y-140559830D01*
X91913948Y-140666052D01*
X92020170Y-140795483D01*
X92070309Y-140889288D01*
X92099097Y-140943145D01*
X92099097Y-140943146D01*
X92147701Y-141103373D01*
X92164113Y-141270000D01*
X92147701Y-141436627D01*
X92126176Y-141507585D01*
X92099097Y-141596855D01*
X92070309Y-141650712D01*
X92020170Y-141744517D01*
X91913948Y-141873948D01*
X91784517Y-141980170D01*
X91718658Y-142015372D01*
X91636855Y-142059097D01*
X91567088Y-142080260D01*
X91476627Y-142107701D01*
X91351757Y-142120000D01*
X91268243Y-142120000D01*
X91143373Y-142107701D01*
X91052912Y-142080260D01*
X90983145Y-142059097D01*
X90901342Y-142015372D01*
X90835483Y-141980170D01*
X90706052Y-141873948D01*
X90599830Y-141744517D01*
X90549691Y-141650712D01*
X90520903Y-141596855D01*
X90493824Y-141507585D01*
X90472299Y-141436627D01*
X90455887Y-141270000D01*
X90472299Y-141103373D01*
X90520903Y-140943146D01*
X90520903Y-140943145D01*
X90549691Y-140889288D01*
X90599830Y-140795483D01*
X90706052Y-140666052D01*
X90835483Y-140559830D01*
X90929288Y-140509691D01*
X90983145Y-140480903D01*
X91052912Y-140459740D01*
X91143373Y-140432299D01*
X91268243Y-140420000D01*
X91351757Y-140420000D01*
X91476627Y-140432299D01*
X91476627Y-140432299D01*
G37*
G36*
X88936627Y-140432299D02*
X89027088Y-140459740D01*
X89096855Y-140480903D01*
X89150712Y-140509691D01*
X89244517Y-140559830D01*
X89373948Y-140666052D01*
X89480170Y-140795483D01*
X89530309Y-140889288D01*
X89559097Y-140943145D01*
X89559097Y-140943146D01*
X89607701Y-141103373D01*
X89624113Y-141270000D01*
X89607701Y-141436627D01*
X89586176Y-141507585D01*
X89559097Y-141596855D01*
X89530309Y-141650712D01*
X89480170Y-141744517D01*
X89373948Y-141873948D01*
X89244517Y-141980170D01*
X89178658Y-142015372D01*
X89096855Y-142059097D01*
X89027088Y-142080260D01*
X88936627Y-142107701D01*
X88811757Y-142120000D01*
X88728243Y-142120000D01*
X88603373Y-142107701D01*
X88512912Y-142080260D01*
X88443145Y-142059097D01*
X88361342Y-142015372D01*
X88295483Y-141980170D01*
X88166052Y-141873948D01*
X88059830Y-141744517D01*
X88009691Y-141650712D01*
X87980903Y-141596855D01*
X87953824Y-141507585D01*
X87932299Y-141436627D01*
X87915887Y-141270000D01*
X87932299Y-141103373D01*
X87980903Y-140943146D01*
X87980903Y-140943145D01*
X88009691Y-140889288D01*
X88059830Y-140795483D01*
X88166052Y-140666052D01*
X88295483Y-140559830D01*
X88389288Y-140509691D01*
X88443145Y-140480903D01*
X88512912Y-140459740D01*
X88603373Y-140432299D01*
X88728243Y-140420000D01*
X88811757Y-140420000D01*
X88936627Y-140432299D01*
X88936627Y-140432299D01*
G37*
G36*
X99096627Y-140432299D02*
X99187088Y-140459740D01*
X99256855Y-140480903D01*
X99310712Y-140509691D01*
X99404517Y-140559830D01*
X99533948Y-140666052D01*
X99640170Y-140795483D01*
X99690309Y-140889288D01*
X99719097Y-140943145D01*
X99719097Y-140943146D01*
X99767701Y-141103373D01*
X99784113Y-141270000D01*
X99767701Y-141436627D01*
X99746176Y-141507585D01*
X99719097Y-141596855D01*
X99690309Y-141650712D01*
X99640170Y-141744517D01*
X99533948Y-141873948D01*
X99404517Y-141980170D01*
X99338658Y-142015372D01*
X99256855Y-142059097D01*
X99187088Y-142080260D01*
X99096627Y-142107701D01*
X98971757Y-142120000D01*
X98888243Y-142120000D01*
X98763373Y-142107701D01*
X98672912Y-142080260D01*
X98603145Y-142059097D01*
X98521342Y-142015372D01*
X98455483Y-141980170D01*
X98326052Y-141873948D01*
X98219830Y-141744517D01*
X98169691Y-141650712D01*
X98140903Y-141596855D01*
X98113824Y-141507585D01*
X98092299Y-141436627D01*
X98075887Y-141270000D01*
X98092299Y-141103373D01*
X98140903Y-140943146D01*
X98140903Y-140943145D01*
X98169691Y-140889288D01*
X98219830Y-140795483D01*
X98326052Y-140666052D01*
X98455483Y-140559830D01*
X98549288Y-140509691D01*
X98603145Y-140480903D01*
X98672912Y-140459740D01*
X98763373Y-140432299D01*
X98888243Y-140420000D01*
X98971757Y-140420000D01*
X99096627Y-140432299D01*
X99096627Y-140432299D01*
G37*
G36*
X83856627Y-140432299D02*
X83947088Y-140459740D01*
X84016855Y-140480903D01*
X84070712Y-140509691D01*
X84164517Y-140559830D01*
X84293948Y-140666052D01*
X84400170Y-140795483D01*
X84450309Y-140889288D01*
X84479097Y-140943145D01*
X84479097Y-140943146D01*
X84527701Y-141103373D01*
X84544113Y-141270000D01*
X84527701Y-141436627D01*
X84506176Y-141507585D01*
X84479097Y-141596855D01*
X84450309Y-141650712D01*
X84400170Y-141744517D01*
X84293948Y-141873948D01*
X84164517Y-141980170D01*
X84098658Y-142015372D01*
X84016855Y-142059097D01*
X83947088Y-142080260D01*
X83856627Y-142107701D01*
X83731757Y-142120000D01*
X83648243Y-142120000D01*
X83523373Y-142107701D01*
X83432912Y-142080260D01*
X83363145Y-142059097D01*
X83281342Y-142015372D01*
X83215483Y-141980170D01*
X83086052Y-141873948D01*
X82979830Y-141744517D01*
X82929691Y-141650712D01*
X82900903Y-141596855D01*
X82873824Y-141507585D01*
X82852299Y-141436627D01*
X82835887Y-141270000D01*
X82852299Y-141103373D01*
X82900903Y-140943146D01*
X82900903Y-140943145D01*
X82929691Y-140889288D01*
X82979830Y-140795483D01*
X83086052Y-140666052D01*
X83215483Y-140559830D01*
X83309288Y-140509691D01*
X83363145Y-140480903D01*
X83432912Y-140459740D01*
X83523373Y-140432299D01*
X83648243Y-140420000D01*
X83731757Y-140420000D01*
X83856627Y-140432299D01*
X83856627Y-140432299D01*
G37*
G36*
X101636627Y-140432299D02*
X101727088Y-140459740D01*
X101796855Y-140480903D01*
X101850712Y-140509691D01*
X101944517Y-140559830D01*
X102073948Y-140666052D01*
X102180170Y-140795483D01*
X102230309Y-140889288D01*
X102259097Y-140943145D01*
X102259097Y-140943146D01*
X102307701Y-141103373D01*
X102324113Y-141270000D01*
X102307701Y-141436627D01*
X102286176Y-141507585D01*
X102259097Y-141596855D01*
X102230309Y-141650712D01*
X102180170Y-141744517D01*
X102073948Y-141873948D01*
X101944517Y-141980170D01*
X101878658Y-142015372D01*
X101796855Y-142059097D01*
X101727088Y-142080260D01*
X101636627Y-142107701D01*
X101511757Y-142120000D01*
X101428243Y-142120000D01*
X101303373Y-142107701D01*
X101212912Y-142080260D01*
X101143145Y-142059097D01*
X101061342Y-142015372D01*
X100995483Y-141980170D01*
X100866052Y-141873948D01*
X100759830Y-141744517D01*
X100709691Y-141650712D01*
X100680903Y-141596855D01*
X100653824Y-141507585D01*
X100632299Y-141436627D01*
X100615887Y-141270000D01*
X100632299Y-141103373D01*
X100680903Y-140943146D01*
X100680903Y-140943145D01*
X100709691Y-140889288D01*
X100759830Y-140795483D01*
X100866052Y-140666052D01*
X100995483Y-140559830D01*
X101089288Y-140509691D01*
X101143145Y-140480903D01*
X101212912Y-140459740D01*
X101303373Y-140432299D01*
X101428243Y-140420000D01*
X101511757Y-140420000D01*
X101636627Y-140432299D01*
X101636627Y-140432299D01*
G37*
G36*
X81316627Y-140432299D02*
X81407088Y-140459740D01*
X81476855Y-140480903D01*
X81530712Y-140509691D01*
X81624517Y-140559830D01*
X81753948Y-140666052D01*
X81860170Y-140795483D01*
X81910309Y-140889288D01*
X81939097Y-140943145D01*
X81939097Y-140943146D01*
X81987701Y-141103373D01*
X82004113Y-141270000D01*
X81987701Y-141436627D01*
X81966176Y-141507585D01*
X81939097Y-141596855D01*
X81910309Y-141650712D01*
X81860170Y-141744517D01*
X81753948Y-141873948D01*
X81624517Y-141980170D01*
X81558658Y-142015372D01*
X81476855Y-142059097D01*
X81407088Y-142080260D01*
X81316627Y-142107701D01*
X81191757Y-142120000D01*
X81108243Y-142120000D01*
X80983373Y-142107701D01*
X80892912Y-142080260D01*
X80823145Y-142059097D01*
X80741342Y-142015372D01*
X80675483Y-141980170D01*
X80546052Y-141873948D01*
X80439830Y-141744517D01*
X80389691Y-141650712D01*
X80360903Y-141596855D01*
X80333824Y-141507585D01*
X80312299Y-141436627D01*
X80295887Y-141270000D01*
X80312299Y-141103373D01*
X80360903Y-140943146D01*
X80360903Y-140943145D01*
X80389691Y-140889288D01*
X80439830Y-140795483D01*
X80546052Y-140666052D01*
X80675483Y-140559830D01*
X80769288Y-140509691D01*
X80823145Y-140480903D01*
X80892912Y-140459740D01*
X80983373Y-140432299D01*
X81108243Y-140420000D01*
X81191757Y-140420000D01*
X81316627Y-140432299D01*
X81316627Y-140432299D01*
G37*
G36*
X104176627Y-140432299D02*
X104267088Y-140459740D01*
X104336855Y-140480903D01*
X104390712Y-140509691D01*
X104484517Y-140559830D01*
X104613948Y-140666052D01*
X104720170Y-140795483D01*
X104770309Y-140889288D01*
X104799097Y-140943145D01*
X104799097Y-140943146D01*
X104847701Y-141103373D01*
X104864113Y-141270000D01*
X104847701Y-141436627D01*
X104826176Y-141507585D01*
X104799097Y-141596855D01*
X104770309Y-141650712D01*
X104720170Y-141744517D01*
X104613948Y-141873948D01*
X104484517Y-141980170D01*
X104418658Y-142015372D01*
X104336855Y-142059097D01*
X104267088Y-142080260D01*
X104176627Y-142107701D01*
X104051757Y-142120000D01*
X103968243Y-142120000D01*
X103843373Y-142107701D01*
X103752912Y-142080260D01*
X103683145Y-142059097D01*
X103601342Y-142015372D01*
X103535483Y-141980170D01*
X103406052Y-141873948D01*
X103299830Y-141744517D01*
X103249691Y-141650712D01*
X103220903Y-141596855D01*
X103193824Y-141507585D01*
X103172299Y-141436627D01*
X103155887Y-141270000D01*
X103172299Y-141103373D01*
X103220903Y-140943146D01*
X103220903Y-140943145D01*
X103249691Y-140889288D01*
X103299830Y-140795483D01*
X103406052Y-140666052D01*
X103535483Y-140559830D01*
X103629288Y-140509691D01*
X103683145Y-140480903D01*
X103752912Y-140459740D01*
X103843373Y-140432299D01*
X103968243Y-140420000D01*
X104051757Y-140420000D01*
X104176627Y-140432299D01*
X104176627Y-140432299D01*
G37*
G36*
X106716627Y-140432299D02*
X106807088Y-140459740D01*
X106876855Y-140480903D01*
X106930712Y-140509691D01*
X107024517Y-140559830D01*
X107153948Y-140666052D01*
X107260170Y-140795483D01*
X107310309Y-140889288D01*
X107339097Y-140943145D01*
X107339097Y-140943146D01*
X107387701Y-141103373D01*
X107404113Y-141270000D01*
X107387701Y-141436627D01*
X107366176Y-141507585D01*
X107339097Y-141596855D01*
X107310309Y-141650712D01*
X107260170Y-141744517D01*
X107153948Y-141873948D01*
X107024517Y-141980170D01*
X106958658Y-142015372D01*
X106876855Y-142059097D01*
X106807088Y-142080260D01*
X106716627Y-142107701D01*
X106591757Y-142120000D01*
X106508243Y-142120000D01*
X106383373Y-142107701D01*
X106292912Y-142080260D01*
X106223145Y-142059097D01*
X106141342Y-142015372D01*
X106075483Y-141980170D01*
X105946052Y-141873948D01*
X105839830Y-141744517D01*
X105789691Y-141650712D01*
X105760903Y-141596855D01*
X105733824Y-141507585D01*
X105712299Y-141436627D01*
X105695887Y-141270000D01*
X105712299Y-141103373D01*
X105760903Y-140943146D01*
X105760903Y-140943145D01*
X105789691Y-140889288D01*
X105839830Y-140795483D01*
X105946052Y-140666052D01*
X106075483Y-140559830D01*
X106169288Y-140509691D01*
X106223145Y-140480903D01*
X106292912Y-140459740D01*
X106383373Y-140432299D01*
X106508243Y-140420000D01*
X106591757Y-140420000D01*
X106716627Y-140432299D01*
X106716627Y-140432299D01*
G37*
G36*
X76236627Y-140432299D02*
X76327088Y-140459740D01*
X76396855Y-140480903D01*
X76450712Y-140509691D01*
X76544517Y-140559830D01*
X76673948Y-140666052D01*
X76780170Y-140795483D01*
X76830309Y-140889288D01*
X76859097Y-140943145D01*
X76859097Y-140943146D01*
X76907701Y-141103373D01*
X76924113Y-141270000D01*
X76907701Y-141436627D01*
X76886176Y-141507585D01*
X76859097Y-141596855D01*
X76830309Y-141650712D01*
X76780170Y-141744517D01*
X76673948Y-141873948D01*
X76544517Y-141980170D01*
X76478658Y-142015372D01*
X76396855Y-142059097D01*
X76327088Y-142080260D01*
X76236627Y-142107701D01*
X76111757Y-142120000D01*
X76028243Y-142120000D01*
X75903373Y-142107701D01*
X75812912Y-142080260D01*
X75743145Y-142059097D01*
X75661342Y-142015372D01*
X75595483Y-141980170D01*
X75466052Y-141873948D01*
X75359830Y-141744517D01*
X75309691Y-141650712D01*
X75280903Y-141596855D01*
X75253824Y-141507585D01*
X75232299Y-141436627D01*
X75215887Y-141270000D01*
X75232299Y-141103373D01*
X75280903Y-140943146D01*
X75280903Y-140943145D01*
X75309691Y-140889288D01*
X75359830Y-140795483D01*
X75466052Y-140666052D01*
X75595483Y-140559830D01*
X75689288Y-140509691D01*
X75743145Y-140480903D01*
X75812912Y-140459740D01*
X75903373Y-140432299D01*
X76028243Y-140420000D01*
X76111757Y-140420000D01*
X76236627Y-140432299D01*
X76236627Y-140432299D01*
G37*
G36*
X69300000Y-142120000D02*
X67600000Y-142120000D01*
X67600000Y-140420000D01*
X69300000Y-140420000D01*
X69300000Y-142120000D01*
X69300000Y-142120000D01*
G37*
G36*
X71156627Y-140432299D02*
X71247088Y-140459740D01*
X71316855Y-140480903D01*
X71370712Y-140509691D01*
X71464517Y-140559830D01*
X71593948Y-140666052D01*
X71700170Y-140795483D01*
X71750309Y-140889288D01*
X71779097Y-140943145D01*
X71779097Y-140943146D01*
X71827701Y-141103373D01*
X71844113Y-141270000D01*
X71827701Y-141436627D01*
X71806176Y-141507585D01*
X71779097Y-141596855D01*
X71750309Y-141650712D01*
X71700170Y-141744517D01*
X71593948Y-141873948D01*
X71464517Y-141980170D01*
X71398658Y-142015372D01*
X71316855Y-142059097D01*
X71247088Y-142080260D01*
X71156627Y-142107701D01*
X71031757Y-142120000D01*
X70948243Y-142120000D01*
X70823373Y-142107701D01*
X70732912Y-142080260D01*
X70663145Y-142059097D01*
X70581342Y-142015372D01*
X70515483Y-141980170D01*
X70386052Y-141873948D01*
X70279830Y-141744517D01*
X70229691Y-141650712D01*
X70200903Y-141596855D01*
X70173824Y-141507585D01*
X70152299Y-141436627D01*
X70135887Y-141270000D01*
X70152299Y-141103373D01*
X70200903Y-140943146D01*
X70200903Y-140943145D01*
X70229691Y-140889288D01*
X70279830Y-140795483D01*
X70386052Y-140666052D01*
X70515483Y-140559830D01*
X70609288Y-140509691D01*
X70663145Y-140480903D01*
X70732912Y-140459740D01*
X70823373Y-140432299D01*
X70948243Y-140420000D01*
X71031757Y-140420000D01*
X71156627Y-140432299D01*
X71156627Y-140432299D01*
G37*
G36*
X73696627Y-140432299D02*
X73787088Y-140459740D01*
X73856855Y-140480903D01*
X73910712Y-140509691D01*
X74004517Y-140559830D01*
X74133948Y-140666052D01*
X74240170Y-140795483D01*
X74290309Y-140889288D01*
X74319097Y-140943145D01*
X74319097Y-140943146D01*
X74367701Y-141103373D01*
X74384113Y-141270000D01*
X74367701Y-141436627D01*
X74346176Y-141507585D01*
X74319097Y-141596855D01*
X74290309Y-141650712D01*
X74240170Y-141744517D01*
X74133948Y-141873948D01*
X74004517Y-141980170D01*
X73938658Y-142015372D01*
X73856855Y-142059097D01*
X73787088Y-142080260D01*
X73696627Y-142107701D01*
X73571757Y-142120000D01*
X73488243Y-142120000D01*
X73363373Y-142107701D01*
X73272912Y-142080260D01*
X73203145Y-142059097D01*
X73121342Y-142015372D01*
X73055483Y-141980170D01*
X72926052Y-141873948D01*
X72819830Y-141744517D01*
X72769691Y-141650712D01*
X72740903Y-141596855D01*
X72713824Y-141507585D01*
X72692299Y-141436627D01*
X72675887Y-141270000D01*
X72692299Y-141103373D01*
X72740903Y-140943146D01*
X72740903Y-140943145D01*
X72769691Y-140889288D01*
X72819830Y-140795483D01*
X72926052Y-140666052D01*
X73055483Y-140559830D01*
X73149288Y-140509691D01*
X73203145Y-140480903D01*
X73272912Y-140459740D01*
X73363373Y-140432299D01*
X73488243Y-140420000D01*
X73571757Y-140420000D01*
X73696627Y-140432299D01*
X73696627Y-140432299D01*
G37*
G36*
X94016627Y-140432299D02*
X94107088Y-140459740D01*
X94176855Y-140480903D01*
X94230712Y-140509691D01*
X94324517Y-140559830D01*
X94453948Y-140666052D01*
X94560170Y-140795483D01*
X94610309Y-140889288D01*
X94639097Y-140943145D01*
X94639097Y-140943146D01*
X94687701Y-141103373D01*
X94704113Y-141270000D01*
X94687701Y-141436627D01*
X94666176Y-141507585D01*
X94639097Y-141596855D01*
X94610309Y-141650712D01*
X94560170Y-141744517D01*
X94453948Y-141873948D01*
X94324517Y-141980170D01*
X94258658Y-142015372D01*
X94176855Y-142059097D01*
X94107088Y-142080260D01*
X94016627Y-142107701D01*
X93891757Y-142120000D01*
X93808243Y-142120000D01*
X93683373Y-142107701D01*
X93592912Y-142080260D01*
X93523145Y-142059097D01*
X93441342Y-142015372D01*
X93375483Y-141980170D01*
X93246052Y-141873948D01*
X93139830Y-141744517D01*
X93089691Y-141650712D01*
X93060903Y-141596855D01*
X93033824Y-141507585D01*
X93012299Y-141436627D01*
X92995887Y-141270000D01*
X93012299Y-141103373D01*
X93060903Y-140943146D01*
X93060903Y-140943145D01*
X93089691Y-140889288D01*
X93139830Y-140795483D01*
X93246052Y-140666052D01*
X93375483Y-140559830D01*
X93469288Y-140509691D01*
X93523145Y-140480903D01*
X93592912Y-140459740D01*
X93683373Y-140432299D01*
X93808243Y-140420000D01*
X93891757Y-140420000D01*
X94016627Y-140432299D01*
X94016627Y-140432299D01*
G37*
G36*
X78776627Y-140432299D02*
X78867088Y-140459740D01*
X78936855Y-140480903D01*
X78990712Y-140509691D01*
X79084517Y-140559830D01*
X79213948Y-140666052D01*
X79320170Y-140795483D01*
X79370309Y-140889288D01*
X79399097Y-140943145D01*
X79399097Y-140943146D01*
X79447701Y-141103373D01*
X79464113Y-141270000D01*
X79447701Y-141436627D01*
X79426176Y-141507585D01*
X79399097Y-141596855D01*
X79370309Y-141650712D01*
X79320170Y-141744517D01*
X79213948Y-141873948D01*
X79084517Y-141980170D01*
X79018658Y-142015372D01*
X78936855Y-142059097D01*
X78867088Y-142080260D01*
X78776627Y-142107701D01*
X78651757Y-142120000D01*
X78568243Y-142120000D01*
X78443373Y-142107701D01*
X78352912Y-142080260D01*
X78283145Y-142059097D01*
X78201342Y-142015372D01*
X78135483Y-141980170D01*
X78006052Y-141873948D01*
X77899830Y-141744517D01*
X77849691Y-141650712D01*
X77820903Y-141596855D01*
X77793824Y-141507585D01*
X77772299Y-141436627D01*
X77755887Y-141270000D01*
X77772299Y-141103373D01*
X77820903Y-140943146D01*
X77820903Y-140943145D01*
X77849691Y-140889288D01*
X77899830Y-140795483D01*
X78006052Y-140666052D01*
X78135483Y-140559830D01*
X78229288Y-140509691D01*
X78283145Y-140480903D01*
X78352912Y-140459740D01*
X78443373Y-140432299D01*
X78568243Y-140420000D01*
X78651757Y-140420000D01*
X78776627Y-140432299D01*
X78776627Y-140432299D01*
G37*
G36*
X76236627Y-137892299D02*
X76297287Y-137910700D01*
X76396855Y-137940903D01*
X76422246Y-137954475D01*
X76544517Y-138019830D01*
X76673948Y-138126052D01*
X76780170Y-138255483D01*
X76826596Y-138342341D01*
X76859097Y-138403145D01*
X76880260Y-138472912D01*
X76907701Y-138563373D01*
X76924113Y-138730000D01*
X76907701Y-138896627D01*
X76907700Y-138896629D01*
X76859097Y-139056855D01*
X76830309Y-139110712D01*
X76780170Y-139204517D01*
X76673948Y-139333948D01*
X76544517Y-139440170D01*
X76450712Y-139490309D01*
X76396855Y-139519097D01*
X76327088Y-139540260D01*
X76236627Y-139567701D01*
X76111757Y-139580000D01*
X76028243Y-139580000D01*
X75903373Y-139567701D01*
X75812912Y-139540260D01*
X75743145Y-139519097D01*
X75689288Y-139490309D01*
X75595483Y-139440170D01*
X75466052Y-139333948D01*
X75359830Y-139204517D01*
X75309691Y-139110712D01*
X75280903Y-139056855D01*
X75232300Y-138896629D01*
X75232299Y-138896627D01*
X75215887Y-138730000D01*
X75232299Y-138563373D01*
X75259740Y-138472912D01*
X75280903Y-138403145D01*
X75313404Y-138342341D01*
X75359830Y-138255483D01*
X75466052Y-138126052D01*
X75595483Y-138019830D01*
X75717754Y-137954475D01*
X75743145Y-137940903D01*
X75842713Y-137910700D01*
X75903373Y-137892299D01*
X76028243Y-137880000D01*
X76111757Y-137880000D01*
X76236627Y-137892299D01*
X76236627Y-137892299D01*
G37*
G36*
X68616627Y-137892299D02*
X68677287Y-137910700D01*
X68776855Y-137940903D01*
X68802246Y-137954475D01*
X68924517Y-138019830D01*
X69053948Y-138126052D01*
X69160170Y-138255483D01*
X69206596Y-138342341D01*
X69239097Y-138403145D01*
X69260260Y-138472912D01*
X69287701Y-138563373D01*
X69304113Y-138730000D01*
X69287701Y-138896627D01*
X69287700Y-138896629D01*
X69239097Y-139056855D01*
X69210309Y-139110712D01*
X69160170Y-139204517D01*
X69053948Y-139333948D01*
X68924517Y-139440170D01*
X68830712Y-139490309D01*
X68776855Y-139519097D01*
X68707088Y-139540260D01*
X68616627Y-139567701D01*
X68491757Y-139580000D01*
X68408243Y-139580000D01*
X68283373Y-139567701D01*
X68192912Y-139540260D01*
X68123145Y-139519097D01*
X68069288Y-139490309D01*
X67975483Y-139440170D01*
X67846052Y-139333948D01*
X67739830Y-139204517D01*
X67689691Y-139110712D01*
X67660903Y-139056855D01*
X67612300Y-138896629D01*
X67612299Y-138896627D01*
X67595887Y-138730000D01*
X67612299Y-138563373D01*
X67639740Y-138472912D01*
X67660903Y-138403145D01*
X67693404Y-138342341D01*
X67739830Y-138255483D01*
X67846052Y-138126052D01*
X67975483Y-138019830D01*
X68097754Y-137954475D01*
X68123145Y-137940903D01*
X68222713Y-137910700D01*
X68283373Y-137892299D01*
X68408243Y-137880000D01*
X68491757Y-137880000D01*
X68616627Y-137892299D01*
X68616627Y-137892299D01*
G37*
G36*
X71156627Y-137892299D02*
X71217287Y-137910700D01*
X71316855Y-137940903D01*
X71342246Y-137954475D01*
X71464517Y-138019830D01*
X71593948Y-138126052D01*
X71700170Y-138255483D01*
X71746596Y-138342341D01*
X71779097Y-138403145D01*
X71800260Y-138472912D01*
X71827701Y-138563373D01*
X71844113Y-138730000D01*
X71827701Y-138896627D01*
X71827700Y-138896629D01*
X71779097Y-139056855D01*
X71750309Y-139110712D01*
X71700170Y-139204517D01*
X71593948Y-139333948D01*
X71464517Y-139440170D01*
X71370712Y-139490309D01*
X71316855Y-139519097D01*
X71247088Y-139540260D01*
X71156627Y-139567701D01*
X71031757Y-139580000D01*
X70948243Y-139580000D01*
X70823373Y-139567701D01*
X70732912Y-139540260D01*
X70663145Y-139519097D01*
X70609288Y-139490309D01*
X70515483Y-139440170D01*
X70386052Y-139333948D01*
X70279830Y-139204517D01*
X70229691Y-139110712D01*
X70200903Y-139056855D01*
X70152300Y-138896629D01*
X70152299Y-138896627D01*
X70135887Y-138730000D01*
X70152299Y-138563373D01*
X70179740Y-138472912D01*
X70200903Y-138403145D01*
X70233404Y-138342341D01*
X70279830Y-138255483D01*
X70386052Y-138126052D01*
X70515483Y-138019830D01*
X70637754Y-137954475D01*
X70663145Y-137940903D01*
X70762713Y-137910700D01*
X70823373Y-137892299D01*
X70948243Y-137880000D01*
X71031757Y-137880000D01*
X71156627Y-137892299D01*
X71156627Y-137892299D01*
G37*
G36*
X73696627Y-137892299D02*
X73757287Y-137910700D01*
X73856855Y-137940903D01*
X73882246Y-137954475D01*
X74004517Y-138019830D01*
X74133948Y-138126052D01*
X74240170Y-138255483D01*
X74286596Y-138342341D01*
X74319097Y-138403145D01*
X74340260Y-138472912D01*
X74367701Y-138563373D01*
X74384113Y-138730000D01*
X74367701Y-138896627D01*
X74367700Y-138896629D01*
X74319097Y-139056855D01*
X74290309Y-139110712D01*
X74240170Y-139204517D01*
X74133948Y-139333948D01*
X74004517Y-139440170D01*
X73910712Y-139490309D01*
X73856855Y-139519097D01*
X73787088Y-139540260D01*
X73696627Y-139567701D01*
X73571757Y-139580000D01*
X73488243Y-139580000D01*
X73363373Y-139567701D01*
X73272912Y-139540260D01*
X73203145Y-139519097D01*
X73149288Y-139490309D01*
X73055483Y-139440170D01*
X72926052Y-139333948D01*
X72819830Y-139204517D01*
X72769691Y-139110712D01*
X72740903Y-139056855D01*
X72692300Y-138896629D01*
X72692299Y-138896627D01*
X72675887Y-138730000D01*
X72692299Y-138563373D01*
X72719740Y-138472912D01*
X72740903Y-138403145D01*
X72773404Y-138342341D01*
X72819830Y-138255483D01*
X72926052Y-138126052D01*
X73055483Y-138019830D01*
X73177754Y-137954475D01*
X73203145Y-137940903D01*
X73302713Y-137910700D01*
X73363373Y-137892299D01*
X73488243Y-137880000D01*
X73571757Y-137880000D01*
X73696627Y-137892299D01*
X73696627Y-137892299D01*
G37*
G36*
X78776627Y-137892299D02*
X78837287Y-137910700D01*
X78936855Y-137940903D01*
X78962246Y-137954475D01*
X79084517Y-138019830D01*
X79213948Y-138126052D01*
X79320170Y-138255483D01*
X79366596Y-138342341D01*
X79399097Y-138403145D01*
X79420260Y-138472912D01*
X79447701Y-138563373D01*
X79464113Y-138730000D01*
X79447701Y-138896627D01*
X79447700Y-138896629D01*
X79399097Y-139056855D01*
X79370309Y-139110712D01*
X79320170Y-139204517D01*
X79213948Y-139333948D01*
X79084517Y-139440170D01*
X78990712Y-139490309D01*
X78936855Y-139519097D01*
X78867088Y-139540260D01*
X78776627Y-139567701D01*
X78651757Y-139580000D01*
X78568243Y-139580000D01*
X78443373Y-139567701D01*
X78352912Y-139540260D01*
X78283145Y-139519097D01*
X78229288Y-139490309D01*
X78135483Y-139440170D01*
X78006052Y-139333948D01*
X77899830Y-139204517D01*
X77849691Y-139110712D01*
X77820903Y-139056855D01*
X77772300Y-138896629D01*
X77772299Y-138896627D01*
X77755887Y-138730000D01*
X77772299Y-138563373D01*
X77799740Y-138472912D01*
X77820903Y-138403145D01*
X77853404Y-138342341D01*
X77899830Y-138255483D01*
X78006052Y-138126052D01*
X78135483Y-138019830D01*
X78257754Y-137954475D01*
X78283145Y-137940903D01*
X78382713Y-137910700D01*
X78443373Y-137892299D01*
X78568243Y-137880000D01*
X78651757Y-137880000D01*
X78776627Y-137892299D01*
X78776627Y-137892299D01*
G37*
G36*
X81316627Y-137892299D02*
X81377287Y-137910700D01*
X81476855Y-137940903D01*
X81502246Y-137954475D01*
X81624517Y-138019830D01*
X81753948Y-138126052D01*
X81860170Y-138255483D01*
X81906596Y-138342341D01*
X81939097Y-138403145D01*
X81960260Y-138472912D01*
X81987701Y-138563373D01*
X82004113Y-138730000D01*
X81987701Y-138896627D01*
X81987700Y-138896629D01*
X81939097Y-139056855D01*
X81910309Y-139110712D01*
X81860170Y-139204517D01*
X81753948Y-139333948D01*
X81624517Y-139440170D01*
X81530712Y-139490309D01*
X81476855Y-139519097D01*
X81407088Y-139540260D01*
X81316627Y-139567701D01*
X81191757Y-139580000D01*
X81108243Y-139580000D01*
X80983373Y-139567701D01*
X80892912Y-139540260D01*
X80823145Y-139519097D01*
X80769288Y-139490309D01*
X80675483Y-139440170D01*
X80546052Y-139333948D01*
X80439830Y-139204517D01*
X80389691Y-139110712D01*
X80360903Y-139056855D01*
X80312300Y-138896629D01*
X80312299Y-138896627D01*
X80295887Y-138730000D01*
X80312299Y-138563373D01*
X80339740Y-138472912D01*
X80360903Y-138403145D01*
X80393404Y-138342341D01*
X80439830Y-138255483D01*
X80546052Y-138126052D01*
X80675483Y-138019830D01*
X80797754Y-137954475D01*
X80823145Y-137940903D01*
X80922713Y-137910700D01*
X80983373Y-137892299D01*
X81108243Y-137880000D01*
X81191757Y-137880000D01*
X81316627Y-137892299D01*
X81316627Y-137892299D01*
G37*
G36*
X86396627Y-137892299D02*
X86457287Y-137910700D01*
X86556855Y-137940903D01*
X86582246Y-137954475D01*
X86704517Y-138019830D01*
X86833948Y-138126052D01*
X86940170Y-138255483D01*
X86986596Y-138342341D01*
X87019097Y-138403145D01*
X87040260Y-138472912D01*
X87067701Y-138563373D01*
X87084113Y-138730000D01*
X87067701Y-138896627D01*
X87067700Y-138896629D01*
X87019097Y-139056855D01*
X86990309Y-139110712D01*
X86940170Y-139204517D01*
X86833948Y-139333948D01*
X86704517Y-139440170D01*
X86610712Y-139490309D01*
X86556855Y-139519097D01*
X86487088Y-139540260D01*
X86396627Y-139567701D01*
X86271757Y-139580000D01*
X86188243Y-139580000D01*
X86063373Y-139567701D01*
X85972912Y-139540260D01*
X85903145Y-139519097D01*
X85849288Y-139490309D01*
X85755483Y-139440170D01*
X85626052Y-139333948D01*
X85519830Y-139204517D01*
X85469691Y-139110712D01*
X85440903Y-139056855D01*
X85392300Y-138896629D01*
X85392299Y-138896627D01*
X85375887Y-138730000D01*
X85392299Y-138563373D01*
X85419740Y-138472912D01*
X85440903Y-138403145D01*
X85473404Y-138342341D01*
X85519830Y-138255483D01*
X85626052Y-138126052D01*
X85755483Y-138019830D01*
X85877754Y-137954475D01*
X85903145Y-137940903D01*
X86002713Y-137910700D01*
X86063373Y-137892299D01*
X86188243Y-137880000D01*
X86271757Y-137880000D01*
X86396627Y-137892299D01*
X86396627Y-137892299D01*
G37*
G36*
X94016627Y-137892299D02*
X94077287Y-137910700D01*
X94176855Y-137940903D01*
X94202246Y-137954475D01*
X94324517Y-138019830D01*
X94453948Y-138126052D01*
X94560170Y-138255483D01*
X94606596Y-138342341D01*
X94639097Y-138403145D01*
X94660260Y-138472912D01*
X94687701Y-138563373D01*
X94704113Y-138730000D01*
X94687701Y-138896627D01*
X94687700Y-138896629D01*
X94639097Y-139056855D01*
X94610309Y-139110712D01*
X94560170Y-139204517D01*
X94453948Y-139333948D01*
X94324517Y-139440170D01*
X94230712Y-139490309D01*
X94176855Y-139519097D01*
X94107088Y-139540260D01*
X94016627Y-139567701D01*
X93891757Y-139580000D01*
X93808243Y-139580000D01*
X93683373Y-139567701D01*
X93592912Y-139540260D01*
X93523145Y-139519097D01*
X93469288Y-139490309D01*
X93375483Y-139440170D01*
X93246052Y-139333948D01*
X93139830Y-139204517D01*
X93089691Y-139110712D01*
X93060903Y-139056855D01*
X93012300Y-138896629D01*
X93012299Y-138896627D01*
X92995887Y-138730000D01*
X93012299Y-138563373D01*
X93039740Y-138472912D01*
X93060903Y-138403145D01*
X93093404Y-138342341D01*
X93139830Y-138255483D01*
X93246052Y-138126052D01*
X93375483Y-138019830D01*
X93497754Y-137954475D01*
X93523145Y-137940903D01*
X93622713Y-137910700D01*
X93683373Y-137892299D01*
X93808243Y-137880000D01*
X93891757Y-137880000D01*
X94016627Y-137892299D01*
X94016627Y-137892299D01*
G37*
G36*
X91476627Y-137892299D02*
X91537287Y-137910700D01*
X91636855Y-137940903D01*
X91662246Y-137954475D01*
X91784517Y-138019830D01*
X91913948Y-138126052D01*
X92020170Y-138255483D01*
X92066596Y-138342341D01*
X92099097Y-138403145D01*
X92120260Y-138472912D01*
X92147701Y-138563373D01*
X92164113Y-138730000D01*
X92147701Y-138896627D01*
X92147700Y-138896629D01*
X92099097Y-139056855D01*
X92070309Y-139110712D01*
X92020170Y-139204517D01*
X91913948Y-139333948D01*
X91784517Y-139440170D01*
X91690712Y-139490309D01*
X91636855Y-139519097D01*
X91567088Y-139540260D01*
X91476627Y-139567701D01*
X91351757Y-139580000D01*
X91268243Y-139580000D01*
X91143373Y-139567701D01*
X91052912Y-139540260D01*
X90983145Y-139519097D01*
X90929288Y-139490309D01*
X90835483Y-139440170D01*
X90706052Y-139333948D01*
X90599830Y-139204517D01*
X90549691Y-139110712D01*
X90520903Y-139056855D01*
X90472300Y-138896629D01*
X90472299Y-138896627D01*
X90455887Y-138730000D01*
X90472299Y-138563373D01*
X90499740Y-138472912D01*
X90520903Y-138403145D01*
X90553404Y-138342341D01*
X90599830Y-138255483D01*
X90706052Y-138126052D01*
X90835483Y-138019830D01*
X90957754Y-137954475D01*
X90983145Y-137940903D01*
X91082713Y-137910700D01*
X91143373Y-137892299D01*
X91268243Y-137880000D01*
X91351757Y-137880000D01*
X91476627Y-137892299D01*
X91476627Y-137892299D01*
G37*
G36*
X83856627Y-137892299D02*
X83917287Y-137910700D01*
X84016855Y-137940903D01*
X84042246Y-137954475D01*
X84164517Y-138019830D01*
X84293948Y-138126052D01*
X84400170Y-138255483D01*
X84446596Y-138342341D01*
X84479097Y-138403145D01*
X84500260Y-138472912D01*
X84527701Y-138563373D01*
X84544113Y-138730000D01*
X84527701Y-138896627D01*
X84527700Y-138896629D01*
X84479097Y-139056855D01*
X84450309Y-139110712D01*
X84400170Y-139204517D01*
X84293948Y-139333948D01*
X84164517Y-139440170D01*
X84070712Y-139490309D01*
X84016855Y-139519097D01*
X83947088Y-139540260D01*
X83856627Y-139567701D01*
X83731757Y-139580000D01*
X83648243Y-139580000D01*
X83523373Y-139567701D01*
X83432912Y-139540260D01*
X83363145Y-139519097D01*
X83309288Y-139490309D01*
X83215483Y-139440170D01*
X83086052Y-139333948D01*
X82979830Y-139204517D01*
X82929691Y-139110712D01*
X82900903Y-139056855D01*
X82852300Y-138896629D01*
X82852299Y-138896627D01*
X82835887Y-138730000D01*
X82852299Y-138563373D01*
X82879740Y-138472912D01*
X82900903Y-138403145D01*
X82933404Y-138342341D01*
X82979830Y-138255483D01*
X83086052Y-138126052D01*
X83215483Y-138019830D01*
X83337754Y-137954475D01*
X83363145Y-137940903D01*
X83462713Y-137910700D01*
X83523373Y-137892299D01*
X83648243Y-137880000D01*
X83731757Y-137880000D01*
X83856627Y-137892299D01*
X83856627Y-137892299D01*
G37*
G36*
X104176627Y-137892299D02*
X104237287Y-137910700D01*
X104336855Y-137940903D01*
X104362246Y-137954475D01*
X104484517Y-138019830D01*
X104613948Y-138126052D01*
X104720170Y-138255483D01*
X104766596Y-138342341D01*
X104799097Y-138403145D01*
X104820260Y-138472912D01*
X104847701Y-138563373D01*
X104864113Y-138730000D01*
X104847701Y-138896627D01*
X104847700Y-138896629D01*
X104799097Y-139056855D01*
X104770309Y-139110712D01*
X104720170Y-139204517D01*
X104613948Y-139333948D01*
X104484517Y-139440170D01*
X104390712Y-139490309D01*
X104336855Y-139519097D01*
X104267088Y-139540260D01*
X104176627Y-139567701D01*
X104051757Y-139580000D01*
X103968243Y-139580000D01*
X103843373Y-139567701D01*
X103752912Y-139540260D01*
X103683145Y-139519097D01*
X103629288Y-139490309D01*
X103535483Y-139440170D01*
X103406052Y-139333948D01*
X103299830Y-139204517D01*
X103249691Y-139110712D01*
X103220903Y-139056855D01*
X103172300Y-138896629D01*
X103172299Y-138896627D01*
X103155887Y-138730000D01*
X103172299Y-138563373D01*
X103199740Y-138472912D01*
X103220903Y-138403145D01*
X103253404Y-138342341D01*
X103299830Y-138255483D01*
X103406052Y-138126052D01*
X103535483Y-138019830D01*
X103657754Y-137954475D01*
X103683145Y-137940903D01*
X103782713Y-137910700D01*
X103843373Y-137892299D01*
X103968243Y-137880000D01*
X104051757Y-137880000D01*
X104176627Y-137892299D01*
X104176627Y-137892299D01*
G37*
G36*
X101636627Y-137892299D02*
X101697287Y-137910700D01*
X101796855Y-137940903D01*
X101822246Y-137954475D01*
X101944517Y-138019830D01*
X102073948Y-138126052D01*
X102180170Y-138255483D01*
X102226596Y-138342341D01*
X102259097Y-138403145D01*
X102280260Y-138472912D01*
X102307701Y-138563373D01*
X102324113Y-138730000D01*
X102307701Y-138896627D01*
X102307700Y-138896629D01*
X102259097Y-139056855D01*
X102230309Y-139110712D01*
X102180170Y-139204517D01*
X102073948Y-139333948D01*
X101944517Y-139440170D01*
X101850712Y-139490309D01*
X101796855Y-139519097D01*
X101727088Y-139540260D01*
X101636627Y-139567701D01*
X101511757Y-139580000D01*
X101428243Y-139580000D01*
X101303373Y-139567701D01*
X101212912Y-139540260D01*
X101143145Y-139519097D01*
X101089288Y-139490309D01*
X100995483Y-139440170D01*
X100866052Y-139333948D01*
X100759830Y-139204517D01*
X100709691Y-139110712D01*
X100680903Y-139056855D01*
X100632300Y-138896629D01*
X100632299Y-138896627D01*
X100615887Y-138730000D01*
X100632299Y-138563373D01*
X100659740Y-138472912D01*
X100680903Y-138403145D01*
X100713404Y-138342341D01*
X100759830Y-138255483D01*
X100866052Y-138126052D01*
X100995483Y-138019830D01*
X101117754Y-137954475D01*
X101143145Y-137940903D01*
X101242713Y-137910700D01*
X101303373Y-137892299D01*
X101428243Y-137880000D01*
X101511757Y-137880000D01*
X101636627Y-137892299D01*
X101636627Y-137892299D01*
G37*
G36*
X99096627Y-137892299D02*
X99157287Y-137910700D01*
X99256855Y-137940903D01*
X99282246Y-137954475D01*
X99404517Y-138019830D01*
X99533948Y-138126052D01*
X99640170Y-138255483D01*
X99686596Y-138342341D01*
X99719097Y-138403145D01*
X99740260Y-138472912D01*
X99767701Y-138563373D01*
X99784113Y-138730000D01*
X99767701Y-138896627D01*
X99767700Y-138896629D01*
X99719097Y-139056855D01*
X99690309Y-139110712D01*
X99640170Y-139204517D01*
X99533948Y-139333948D01*
X99404517Y-139440170D01*
X99310712Y-139490309D01*
X99256855Y-139519097D01*
X99187088Y-139540260D01*
X99096627Y-139567701D01*
X98971757Y-139580000D01*
X98888243Y-139580000D01*
X98763373Y-139567701D01*
X98672912Y-139540260D01*
X98603145Y-139519097D01*
X98549288Y-139490309D01*
X98455483Y-139440170D01*
X98326052Y-139333948D01*
X98219830Y-139204517D01*
X98169691Y-139110712D01*
X98140903Y-139056855D01*
X98092300Y-138896629D01*
X98092299Y-138896627D01*
X98075887Y-138730000D01*
X98092299Y-138563373D01*
X98119740Y-138472912D01*
X98140903Y-138403145D01*
X98173404Y-138342341D01*
X98219830Y-138255483D01*
X98326052Y-138126052D01*
X98455483Y-138019830D01*
X98577754Y-137954475D01*
X98603145Y-137940903D01*
X98702713Y-137910700D01*
X98763373Y-137892299D01*
X98888243Y-137880000D01*
X98971757Y-137880000D01*
X99096627Y-137892299D01*
X99096627Y-137892299D01*
G37*
G36*
X96556627Y-137892299D02*
X96617287Y-137910700D01*
X96716855Y-137940903D01*
X96742246Y-137954475D01*
X96864517Y-138019830D01*
X96993948Y-138126052D01*
X97100170Y-138255483D01*
X97146596Y-138342341D01*
X97179097Y-138403145D01*
X97200260Y-138472912D01*
X97227701Y-138563373D01*
X97244113Y-138730000D01*
X97227701Y-138896627D01*
X97227700Y-138896629D01*
X97179097Y-139056855D01*
X97150309Y-139110712D01*
X97100170Y-139204517D01*
X96993948Y-139333948D01*
X96864517Y-139440170D01*
X96770712Y-139490309D01*
X96716855Y-139519097D01*
X96647088Y-139540260D01*
X96556627Y-139567701D01*
X96431757Y-139580000D01*
X96348243Y-139580000D01*
X96223373Y-139567701D01*
X96132912Y-139540260D01*
X96063145Y-139519097D01*
X96009288Y-139490309D01*
X95915483Y-139440170D01*
X95786052Y-139333948D01*
X95679830Y-139204517D01*
X95629691Y-139110712D01*
X95600903Y-139056855D01*
X95552300Y-138896629D01*
X95552299Y-138896627D01*
X95535887Y-138730000D01*
X95552299Y-138563373D01*
X95579740Y-138472912D01*
X95600903Y-138403145D01*
X95633404Y-138342341D01*
X95679830Y-138255483D01*
X95786052Y-138126052D01*
X95915483Y-138019830D01*
X96037754Y-137954475D01*
X96063145Y-137940903D01*
X96162713Y-137910700D01*
X96223373Y-137892299D01*
X96348243Y-137880000D01*
X96431757Y-137880000D01*
X96556627Y-137892299D01*
X96556627Y-137892299D01*
G37*
G36*
X88936627Y-137892299D02*
X88997287Y-137910700D01*
X89096855Y-137940903D01*
X89122246Y-137954475D01*
X89244517Y-138019830D01*
X89373948Y-138126052D01*
X89480170Y-138255483D01*
X89526596Y-138342341D01*
X89559097Y-138403145D01*
X89580260Y-138472912D01*
X89607701Y-138563373D01*
X89624113Y-138730000D01*
X89607701Y-138896627D01*
X89607700Y-138896629D01*
X89559097Y-139056855D01*
X89530309Y-139110712D01*
X89480170Y-139204517D01*
X89373948Y-139333948D01*
X89244517Y-139440170D01*
X89150712Y-139490309D01*
X89096855Y-139519097D01*
X89027088Y-139540260D01*
X88936627Y-139567701D01*
X88811757Y-139580000D01*
X88728243Y-139580000D01*
X88603373Y-139567701D01*
X88512912Y-139540260D01*
X88443145Y-139519097D01*
X88389288Y-139490309D01*
X88295483Y-139440170D01*
X88166052Y-139333948D01*
X88059830Y-139204517D01*
X88009691Y-139110712D01*
X87980903Y-139056855D01*
X87932300Y-138896629D01*
X87932299Y-138896627D01*
X87915887Y-138730000D01*
X87932299Y-138563373D01*
X87959740Y-138472912D01*
X87980903Y-138403145D01*
X88013404Y-138342341D01*
X88059830Y-138255483D01*
X88166052Y-138126052D01*
X88295483Y-138019830D01*
X88417754Y-137954475D01*
X88443145Y-137940903D01*
X88542713Y-137910700D01*
X88603373Y-137892299D01*
X88728243Y-137880000D01*
X88811757Y-137880000D01*
X88936627Y-137892299D01*
X88936627Y-137892299D01*
G37*
G36*
X106716627Y-137892299D02*
X106777287Y-137910700D01*
X106876855Y-137940903D01*
X106902246Y-137954475D01*
X107024517Y-138019830D01*
X107153948Y-138126052D01*
X107260170Y-138255483D01*
X107306596Y-138342341D01*
X107339097Y-138403145D01*
X107360260Y-138472912D01*
X107387701Y-138563373D01*
X107404113Y-138730000D01*
X107387701Y-138896627D01*
X107387700Y-138896629D01*
X107339097Y-139056855D01*
X107310309Y-139110712D01*
X107260170Y-139204517D01*
X107153948Y-139333948D01*
X107024517Y-139440170D01*
X106930712Y-139490309D01*
X106876855Y-139519097D01*
X106807088Y-139540260D01*
X106716627Y-139567701D01*
X106591757Y-139580000D01*
X106508243Y-139580000D01*
X106383373Y-139567701D01*
X106292912Y-139540260D01*
X106223145Y-139519097D01*
X106169288Y-139490309D01*
X106075483Y-139440170D01*
X105946052Y-139333948D01*
X105839830Y-139204517D01*
X105789691Y-139110712D01*
X105760903Y-139056855D01*
X105712300Y-138896629D01*
X105712299Y-138896627D01*
X105695887Y-138730000D01*
X105712299Y-138563373D01*
X105739740Y-138472912D01*
X105760903Y-138403145D01*
X105793404Y-138342341D01*
X105839830Y-138255483D01*
X105946052Y-138126052D01*
X106075483Y-138019830D01*
X106197754Y-137954475D01*
X106223145Y-137940903D01*
X106322713Y-137910700D01*
X106383373Y-137892299D01*
X106508243Y-137880000D01*
X106591757Y-137880000D01*
X106716627Y-137892299D01*
X106716627Y-137892299D01*
G37*
G36*
X68871974Y-131729126D02*
X68907524Y-131739910D01*
X68940287Y-131757422D01*
X68969008Y-131780992D01*
X68992578Y-131809713D01*
X69010090Y-131842476D01*
X69020874Y-131878026D01*
X69025000Y-131919917D01*
X69025000Y-133280083D01*
X69020874Y-133321974D01*
X69010090Y-133357524D01*
X68992578Y-133390287D01*
X68969008Y-133419008D01*
X68940287Y-133442578D01*
X68907524Y-133460090D01*
X68871974Y-133470874D01*
X68830083Y-133475000D01*
X67969917Y-133475000D01*
X67928026Y-133470874D01*
X67892476Y-133460090D01*
X67859713Y-133442578D01*
X67830992Y-133419008D01*
X67807422Y-133390287D01*
X67789910Y-133357524D01*
X67779126Y-133321974D01*
X67775000Y-133280083D01*
X67775000Y-131919917D01*
X67779126Y-131878026D01*
X67789910Y-131842476D01*
X67807422Y-131809713D01*
X67830992Y-131780992D01*
X67859713Y-131757422D01*
X67892476Y-131739910D01*
X67928026Y-131729126D01*
X67969917Y-131725000D01*
X68830083Y-131725000D01*
X68871974Y-131729126D01*
X68871974Y-131729126D01*
G37*
G36*
X66071974Y-131729126D02*
X66107524Y-131739910D01*
X66140287Y-131757422D01*
X66169008Y-131780992D01*
X66192578Y-131809713D01*
X66210090Y-131842476D01*
X66220874Y-131878026D01*
X66225000Y-131919917D01*
X66225000Y-133280083D01*
X66220874Y-133321974D01*
X66210090Y-133357524D01*
X66192578Y-133390287D01*
X66169008Y-133419008D01*
X66140287Y-133442578D01*
X66107524Y-133460090D01*
X66071974Y-133470874D01*
X66030083Y-133475000D01*
X65169917Y-133475000D01*
X65128026Y-133470874D01*
X65092476Y-133460090D01*
X65059713Y-133442578D01*
X65030992Y-133419008D01*
X65007422Y-133390287D01*
X64989910Y-133357524D01*
X64979126Y-133321974D01*
X64975000Y-133280083D01*
X64975000Y-131919917D01*
X64979126Y-131878026D01*
X64989910Y-131842476D01*
X65007422Y-131809713D01*
X65030992Y-131780992D01*
X65059713Y-131757422D01*
X65092476Y-131739910D01*
X65128026Y-131729126D01*
X65169917Y-131725000D01*
X66030083Y-131725000D01*
X66071974Y-131729126D01*
X66071974Y-131729126D01*
G37*
G36*
X67114076Y-128628717D02*
X67145641Y-128638291D01*
X67174735Y-128653843D01*
X67200232Y-128674768D01*
X67221157Y-128700265D01*
X67236709Y-128729359D01*
X67246283Y-128760924D01*
X67250000Y-128798658D01*
X67250000Y-129401342D01*
X67246283Y-129439076D01*
X67236709Y-129470641D01*
X67221157Y-129499735D01*
X67200232Y-129525232D01*
X67174735Y-129546157D01*
X67145641Y-129561709D01*
X67114076Y-129571283D01*
X67076342Y-129575000D01*
X66548658Y-129575000D01*
X66510924Y-129571283D01*
X66479359Y-129561709D01*
X66450265Y-129546157D01*
X66424768Y-129525232D01*
X66403843Y-129499735D01*
X66388291Y-129470641D01*
X66378717Y-129439076D01*
X66375000Y-129401342D01*
X66375000Y-128798658D01*
X66378717Y-128760924D01*
X66388291Y-128729359D01*
X66403843Y-128700265D01*
X66424768Y-128674768D01*
X66450265Y-128653843D01*
X66479359Y-128638291D01*
X66510924Y-128628717D01*
X66548658Y-128625000D01*
X67076342Y-128625000D01*
X67114076Y-128628717D01*
X67114076Y-128628717D01*
G37*
G36*
X68689076Y-128628717D02*
X68720641Y-128638291D01*
X68749735Y-128653843D01*
X68775232Y-128674768D01*
X68796157Y-128700265D01*
X68811709Y-128729359D01*
X68821283Y-128760924D01*
X68825000Y-128798658D01*
X68825000Y-129401342D01*
X68821283Y-129439076D01*
X68811709Y-129470641D01*
X68796157Y-129499735D01*
X68775232Y-129525232D01*
X68749735Y-129546157D01*
X68720641Y-129561709D01*
X68689076Y-129571283D01*
X68651342Y-129575000D01*
X68123658Y-129575000D01*
X68085924Y-129571283D01*
X68054359Y-129561709D01*
X68025265Y-129546157D01*
X67999768Y-129525232D01*
X67978843Y-129499735D01*
X67963291Y-129470641D01*
X67953717Y-129439076D01*
X67950000Y-129401342D01*
X67950000Y-128798658D01*
X67953717Y-128760924D01*
X67963291Y-128729359D01*
X67978843Y-128700265D01*
X67999768Y-128674768D01*
X68025265Y-128653843D01*
X68054359Y-128638291D01*
X68085924Y-128628717D01*
X68123658Y-128625000D01*
X68651342Y-128625000D01*
X68689076Y-128628717D01*
X68689076Y-128628717D01*
G37*
G36*
X59560000Y-125350000D02*
X57860000Y-125350000D01*
X57860000Y-123650000D01*
X59560000Y-123650000D01*
X59560000Y-125350000D01*
X59560000Y-125350000D01*
G37*
G36*
X56336627Y-123662299D02*
X56427088Y-123689740D01*
X56496855Y-123710903D01*
X56550712Y-123739691D01*
X56644517Y-123789830D01*
X56773948Y-123896052D01*
X56880170Y-124025483D01*
X56930309Y-124119288D01*
X56959097Y-124173145D01*
X56959097Y-124173146D01*
X57007701Y-124333373D01*
X57024113Y-124500000D01*
X57007701Y-124666627D01*
X57007700Y-124666629D01*
X56959097Y-124826855D01*
X56930309Y-124880712D01*
X56880170Y-124974517D01*
X56773948Y-125103948D01*
X56644517Y-125210170D01*
X56550712Y-125260309D01*
X56496855Y-125289097D01*
X56427088Y-125310260D01*
X56336627Y-125337701D01*
X56211757Y-125350000D01*
X56128243Y-125350000D01*
X56003373Y-125337701D01*
X55912912Y-125310260D01*
X55843145Y-125289097D01*
X55789288Y-125260309D01*
X55695483Y-125210170D01*
X55566052Y-125103948D01*
X55459830Y-124974517D01*
X55409691Y-124880712D01*
X55380903Y-124826855D01*
X55332300Y-124666629D01*
X55332299Y-124666627D01*
X55315887Y-124500000D01*
X55332299Y-124333373D01*
X55380903Y-124173146D01*
X55380903Y-124173145D01*
X55409691Y-124119288D01*
X55459830Y-124025483D01*
X55566052Y-123896052D01*
X55695483Y-123789830D01*
X55789288Y-123739691D01*
X55843145Y-123710903D01*
X55912912Y-123689740D01*
X56003373Y-123662299D01*
X56128243Y-123650000D01*
X56211757Y-123650000D01*
X56336627Y-123662299D01*
X56336627Y-123662299D01*
G37*
G36*
X56336627Y-121122299D02*
X56427088Y-121149740D01*
X56496855Y-121170903D01*
X56550712Y-121199691D01*
X56644517Y-121249830D01*
X56773948Y-121356052D01*
X56880170Y-121485483D01*
X56930309Y-121579288D01*
X56959097Y-121633145D01*
X56959097Y-121633146D01*
X57007701Y-121793373D01*
X57024113Y-121960000D01*
X57007701Y-122126627D01*
X57007700Y-122126629D01*
X56959097Y-122286855D01*
X56930309Y-122340712D01*
X56880170Y-122434517D01*
X56773948Y-122563948D01*
X56644517Y-122670170D01*
X56550712Y-122720309D01*
X56496855Y-122749097D01*
X56427088Y-122770260D01*
X56336627Y-122797701D01*
X56211757Y-122810000D01*
X56128243Y-122810000D01*
X56003373Y-122797701D01*
X55912912Y-122770260D01*
X55843145Y-122749097D01*
X55789288Y-122720309D01*
X55695483Y-122670170D01*
X55566052Y-122563948D01*
X55459830Y-122434517D01*
X55409691Y-122340712D01*
X55380903Y-122286855D01*
X55332300Y-122126629D01*
X55332299Y-122126627D01*
X55315887Y-121960000D01*
X55332299Y-121793373D01*
X55380903Y-121633146D01*
X55380903Y-121633145D01*
X55409691Y-121579288D01*
X55459830Y-121485483D01*
X55566052Y-121356052D01*
X55695483Y-121249830D01*
X55789288Y-121199691D01*
X55843145Y-121170903D01*
X55912912Y-121149740D01*
X56003373Y-121122299D01*
X56128243Y-121110000D01*
X56211757Y-121110000D01*
X56336627Y-121122299D01*
X56336627Y-121122299D01*
G37*
G36*
X58876627Y-121122299D02*
X58967088Y-121149740D01*
X59036855Y-121170903D01*
X59090712Y-121199691D01*
X59184517Y-121249830D01*
X59313948Y-121356052D01*
X59420170Y-121485483D01*
X59470309Y-121579288D01*
X59499097Y-121633145D01*
X59499097Y-121633146D01*
X59547701Y-121793373D01*
X59564113Y-121960000D01*
X59547701Y-122126627D01*
X59547700Y-122126629D01*
X59499097Y-122286855D01*
X59470309Y-122340712D01*
X59420170Y-122434517D01*
X59313948Y-122563948D01*
X59184517Y-122670170D01*
X59090712Y-122720309D01*
X59036855Y-122749097D01*
X58967088Y-122770260D01*
X58876627Y-122797701D01*
X58751757Y-122810000D01*
X58668243Y-122810000D01*
X58543373Y-122797701D01*
X58452912Y-122770260D01*
X58383145Y-122749097D01*
X58329288Y-122720309D01*
X58235483Y-122670170D01*
X58106052Y-122563948D01*
X57999830Y-122434517D01*
X57949691Y-122340712D01*
X57920903Y-122286855D01*
X57872300Y-122126629D01*
X57872299Y-122126627D01*
X57855887Y-121960000D01*
X57872299Y-121793373D01*
X57920903Y-121633146D01*
X57920903Y-121633145D01*
X57949691Y-121579288D01*
X57999830Y-121485483D01*
X58106052Y-121356052D01*
X58235483Y-121249830D01*
X58329288Y-121199691D01*
X58383145Y-121170903D01*
X58452912Y-121149740D01*
X58543373Y-121122299D01*
X58668243Y-121110000D01*
X58751757Y-121110000D01*
X58876627Y-121122299D01*
X58876627Y-121122299D01*
G37*
G36*
X94016627Y-119162299D02*
X94107088Y-119189740D01*
X94176855Y-119210903D01*
X94230712Y-119239691D01*
X94324517Y-119289830D01*
X94453948Y-119396052D01*
X94560170Y-119525483D01*
X94610309Y-119619288D01*
X94639097Y-119673145D01*
X94639097Y-119673146D01*
X94687701Y-119833373D01*
X94704113Y-120000000D01*
X94687701Y-120166627D01*
X94687700Y-120166629D01*
X94639097Y-120326855D01*
X94610309Y-120380712D01*
X94560170Y-120474517D01*
X94453948Y-120603948D01*
X94324517Y-120710170D01*
X94230712Y-120760309D01*
X94176855Y-120789097D01*
X94107088Y-120810260D01*
X94016627Y-120837701D01*
X93891757Y-120850000D01*
X93808243Y-120850000D01*
X93683373Y-120837701D01*
X93592912Y-120810260D01*
X93523145Y-120789097D01*
X93469288Y-120760309D01*
X93375483Y-120710170D01*
X93246052Y-120603948D01*
X93139830Y-120474517D01*
X93089691Y-120380712D01*
X93060903Y-120326855D01*
X93012300Y-120166629D01*
X93012299Y-120166627D01*
X92995887Y-120000000D01*
X93012299Y-119833373D01*
X93060903Y-119673146D01*
X93060903Y-119673145D01*
X93089691Y-119619288D01*
X93139830Y-119525483D01*
X93246052Y-119396052D01*
X93375483Y-119289830D01*
X93469288Y-119239691D01*
X93523145Y-119210903D01*
X93592912Y-119189740D01*
X93683373Y-119162299D01*
X93808243Y-119150000D01*
X93891757Y-119150000D01*
X94016627Y-119162299D01*
X94016627Y-119162299D01*
G37*
G36*
X99096627Y-119162299D02*
X99187088Y-119189740D01*
X99256855Y-119210903D01*
X99310712Y-119239691D01*
X99404517Y-119289830D01*
X99533948Y-119396052D01*
X99640170Y-119525483D01*
X99690309Y-119619288D01*
X99719097Y-119673145D01*
X99719097Y-119673146D01*
X99767701Y-119833373D01*
X99784113Y-120000000D01*
X99767701Y-120166627D01*
X99767700Y-120166629D01*
X99719097Y-120326855D01*
X99690309Y-120380712D01*
X99640170Y-120474517D01*
X99533948Y-120603948D01*
X99404517Y-120710170D01*
X99310712Y-120760309D01*
X99256855Y-120789097D01*
X99187088Y-120810260D01*
X99096627Y-120837701D01*
X98971757Y-120850000D01*
X98888243Y-120850000D01*
X98763373Y-120837701D01*
X98672912Y-120810260D01*
X98603145Y-120789097D01*
X98549288Y-120760309D01*
X98455483Y-120710170D01*
X98326052Y-120603948D01*
X98219830Y-120474517D01*
X98169691Y-120380712D01*
X98140903Y-120326855D01*
X98092300Y-120166629D01*
X98092299Y-120166627D01*
X98075887Y-120000000D01*
X98092299Y-119833373D01*
X98140903Y-119673146D01*
X98140903Y-119673145D01*
X98169691Y-119619288D01*
X98219830Y-119525483D01*
X98326052Y-119396052D01*
X98455483Y-119289830D01*
X98549288Y-119239691D01*
X98603145Y-119210903D01*
X98672912Y-119189740D01*
X98763373Y-119162299D01*
X98888243Y-119150000D01*
X98971757Y-119150000D01*
X99096627Y-119162299D01*
X99096627Y-119162299D01*
G37*
G36*
X101636627Y-119162299D02*
X101727088Y-119189740D01*
X101796855Y-119210903D01*
X101850712Y-119239691D01*
X101944517Y-119289830D01*
X102073948Y-119396052D01*
X102180170Y-119525483D01*
X102230309Y-119619288D01*
X102259097Y-119673145D01*
X102259097Y-119673146D01*
X102307701Y-119833373D01*
X102324113Y-120000000D01*
X102307701Y-120166627D01*
X102307700Y-120166629D01*
X102259097Y-120326855D01*
X102230309Y-120380712D01*
X102180170Y-120474517D01*
X102073948Y-120603948D01*
X101944517Y-120710170D01*
X101850712Y-120760309D01*
X101796855Y-120789097D01*
X101727088Y-120810260D01*
X101636627Y-120837701D01*
X101511757Y-120850000D01*
X101428243Y-120850000D01*
X101303373Y-120837701D01*
X101212912Y-120810260D01*
X101143145Y-120789097D01*
X101089288Y-120760309D01*
X100995483Y-120710170D01*
X100866052Y-120603948D01*
X100759830Y-120474517D01*
X100709691Y-120380712D01*
X100680903Y-120326855D01*
X100632300Y-120166629D01*
X100632299Y-120166627D01*
X100615887Y-120000000D01*
X100632299Y-119833373D01*
X100680903Y-119673146D01*
X100680903Y-119673145D01*
X100709691Y-119619288D01*
X100759830Y-119525483D01*
X100866052Y-119396052D01*
X100995483Y-119289830D01*
X101089288Y-119239691D01*
X101143145Y-119210903D01*
X101212912Y-119189740D01*
X101303373Y-119162299D01*
X101428243Y-119150000D01*
X101511757Y-119150000D01*
X101636627Y-119162299D01*
X101636627Y-119162299D01*
G37*
G36*
X104176627Y-119162299D02*
X104267088Y-119189740D01*
X104336855Y-119210903D01*
X104390712Y-119239691D01*
X104484517Y-119289830D01*
X104613948Y-119396052D01*
X104720170Y-119525483D01*
X104770309Y-119619288D01*
X104799097Y-119673145D01*
X104799097Y-119673146D01*
X104847701Y-119833373D01*
X104864113Y-120000000D01*
X104847701Y-120166627D01*
X104847700Y-120166629D01*
X104799097Y-120326855D01*
X104770309Y-120380712D01*
X104720170Y-120474517D01*
X104613948Y-120603948D01*
X104484517Y-120710170D01*
X104390712Y-120760309D01*
X104336855Y-120789097D01*
X104267088Y-120810260D01*
X104176627Y-120837701D01*
X104051757Y-120850000D01*
X103968243Y-120850000D01*
X103843373Y-120837701D01*
X103752912Y-120810260D01*
X103683145Y-120789097D01*
X103629288Y-120760309D01*
X103535483Y-120710170D01*
X103406052Y-120603948D01*
X103299830Y-120474517D01*
X103249691Y-120380712D01*
X103220903Y-120326855D01*
X103172300Y-120166629D01*
X103172299Y-120166627D01*
X103155887Y-120000000D01*
X103172299Y-119833373D01*
X103220903Y-119673146D01*
X103220903Y-119673145D01*
X103249691Y-119619288D01*
X103299830Y-119525483D01*
X103406052Y-119396052D01*
X103535483Y-119289830D01*
X103629288Y-119239691D01*
X103683145Y-119210903D01*
X103752912Y-119189740D01*
X103843373Y-119162299D01*
X103968243Y-119150000D01*
X104051757Y-119150000D01*
X104176627Y-119162299D01*
X104176627Y-119162299D01*
G37*
G36*
X106716627Y-119162299D02*
X106807088Y-119189740D01*
X106876855Y-119210903D01*
X106930712Y-119239691D01*
X107024517Y-119289830D01*
X107153948Y-119396052D01*
X107260170Y-119525483D01*
X107310309Y-119619288D01*
X107339097Y-119673145D01*
X107339097Y-119673146D01*
X107387701Y-119833373D01*
X107404113Y-120000000D01*
X107387701Y-120166627D01*
X107387700Y-120166629D01*
X107339097Y-120326855D01*
X107310309Y-120380712D01*
X107260170Y-120474517D01*
X107153948Y-120603948D01*
X107024517Y-120710170D01*
X106930712Y-120760309D01*
X106876855Y-120789097D01*
X106807088Y-120810260D01*
X106716627Y-120837701D01*
X106591757Y-120850000D01*
X106508243Y-120850000D01*
X106383373Y-120837701D01*
X106292912Y-120810260D01*
X106223145Y-120789097D01*
X106169288Y-120760309D01*
X106075483Y-120710170D01*
X105946052Y-120603948D01*
X105839830Y-120474517D01*
X105789691Y-120380712D01*
X105760903Y-120326855D01*
X105712300Y-120166629D01*
X105712299Y-120166627D01*
X105695887Y-120000000D01*
X105712299Y-119833373D01*
X105760903Y-119673146D01*
X105760903Y-119673145D01*
X105789691Y-119619288D01*
X105839830Y-119525483D01*
X105946052Y-119396052D01*
X106075483Y-119289830D01*
X106169288Y-119239691D01*
X106223145Y-119210903D01*
X106292912Y-119189740D01*
X106383373Y-119162299D01*
X106508243Y-119150000D01*
X106591757Y-119150000D01*
X106716627Y-119162299D01*
X106716627Y-119162299D01*
G37*
G36*
X73696627Y-119162299D02*
X73787088Y-119189740D01*
X73856855Y-119210903D01*
X73910712Y-119239691D01*
X74004517Y-119289830D01*
X74133948Y-119396052D01*
X74240170Y-119525483D01*
X74290309Y-119619288D01*
X74319097Y-119673145D01*
X74319097Y-119673146D01*
X74367701Y-119833373D01*
X74384113Y-120000000D01*
X74367701Y-120166627D01*
X74367700Y-120166629D01*
X74319097Y-120326855D01*
X74290309Y-120380712D01*
X74240170Y-120474517D01*
X74133948Y-120603948D01*
X74004517Y-120710170D01*
X73910712Y-120760309D01*
X73856855Y-120789097D01*
X73787088Y-120810260D01*
X73696627Y-120837701D01*
X73571757Y-120850000D01*
X73488243Y-120850000D01*
X73363373Y-120837701D01*
X73272912Y-120810260D01*
X73203145Y-120789097D01*
X73149288Y-120760309D01*
X73055483Y-120710170D01*
X72926052Y-120603948D01*
X72819830Y-120474517D01*
X72769691Y-120380712D01*
X72740903Y-120326855D01*
X72692300Y-120166629D01*
X72692299Y-120166627D01*
X72675887Y-120000000D01*
X72692299Y-119833373D01*
X72740903Y-119673146D01*
X72740903Y-119673145D01*
X72769691Y-119619288D01*
X72819830Y-119525483D01*
X72926052Y-119396052D01*
X73055483Y-119289830D01*
X73149288Y-119239691D01*
X73203145Y-119210903D01*
X73272912Y-119189740D01*
X73363373Y-119162299D01*
X73488243Y-119150000D01*
X73571757Y-119150000D01*
X73696627Y-119162299D01*
X73696627Y-119162299D01*
G37*
G36*
X91476627Y-119162299D02*
X91567088Y-119189740D01*
X91636855Y-119210903D01*
X91690712Y-119239691D01*
X91784517Y-119289830D01*
X91913948Y-119396052D01*
X92020170Y-119525483D01*
X92070309Y-119619288D01*
X92099097Y-119673145D01*
X92099097Y-119673146D01*
X92147701Y-119833373D01*
X92164113Y-120000000D01*
X92147701Y-120166627D01*
X92147700Y-120166629D01*
X92099097Y-120326855D01*
X92070309Y-120380712D01*
X92020170Y-120474517D01*
X91913948Y-120603948D01*
X91784517Y-120710170D01*
X91690712Y-120760309D01*
X91636855Y-120789097D01*
X91567088Y-120810260D01*
X91476627Y-120837701D01*
X91351757Y-120850000D01*
X91268243Y-120850000D01*
X91143373Y-120837701D01*
X91052912Y-120810260D01*
X90983145Y-120789097D01*
X90929288Y-120760309D01*
X90835483Y-120710170D01*
X90706052Y-120603948D01*
X90599830Y-120474517D01*
X90549691Y-120380712D01*
X90520903Y-120326855D01*
X90472300Y-120166629D01*
X90472299Y-120166627D01*
X90455887Y-120000000D01*
X90472299Y-119833373D01*
X90520903Y-119673146D01*
X90520903Y-119673145D01*
X90549691Y-119619288D01*
X90599830Y-119525483D01*
X90706052Y-119396052D01*
X90835483Y-119289830D01*
X90929288Y-119239691D01*
X90983145Y-119210903D01*
X91052912Y-119189740D01*
X91143373Y-119162299D01*
X91268243Y-119150000D01*
X91351757Y-119150000D01*
X91476627Y-119162299D01*
X91476627Y-119162299D01*
G37*
G36*
X96556627Y-119162299D02*
X96647088Y-119189740D01*
X96716855Y-119210903D01*
X96770712Y-119239691D01*
X96864517Y-119289830D01*
X96993948Y-119396052D01*
X97100170Y-119525483D01*
X97150309Y-119619288D01*
X97179097Y-119673145D01*
X97179097Y-119673146D01*
X97227701Y-119833373D01*
X97244113Y-120000000D01*
X97227701Y-120166627D01*
X97227700Y-120166629D01*
X97179097Y-120326855D01*
X97150309Y-120380712D01*
X97100170Y-120474517D01*
X96993948Y-120603948D01*
X96864517Y-120710170D01*
X96770712Y-120760309D01*
X96716855Y-120789097D01*
X96647088Y-120810260D01*
X96556627Y-120837701D01*
X96431757Y-120850000D01*
X96348243Y-120850000D01*
X96223373Y-120837701D01*
X96132912Y-120810260D01*
X96063145Y-120789097D01*
X96009288Y-120760309D01*
X95915483Y-120710170D01*
X95786052Y-120603948D01*
X95679830Y-120474517D01*
X95629691Y-120380712D01*
X95600903Y-120326855D01*
X95552300Y-120166629D01*
X95552299Y-120166627D01*
X95535887Y-120000000D01*
X95552299Y-119833373D01*
X95600903Y-119673146D01*
X95600903Y-119673145D01*
X95629691Y-119619288D01*
X95679830Y-119525483D01*
X95786052Y-119396052D01*
X95915483Y-119289830D01*
X96009288Y-119239691D01*
X96063145Y-119210903D01*
X96132912Y-119189740D01*
X96223373Y-119162299D01*
X96348243Y-119150000D01*
X96431757Y-119150000D01*
X96556627Y-119162299D01*
X96556627Y-119162299D01*
G37*
G36*
X71156627Y-119162299D02*
X71247088Y-119189740D01*
X71316855Y-119210903D01*
X71370712Y-119239691D01*
X71464517Y-119289830D01*
X71593948Y-119396052D01*
X71700170Y-119525483D01*
X71750309Y-119619288D01*
X71779097Y-119673145D01*
X71779097Y-119673146D01*
X71827701Y-119833373D01*
X71844113Y-120000000D01*
X71827701Y-120166627D01*
X71827700Y-120166629D01*
X71779097Y-120326855D01*
X71750309Y-120380712D01*
X71700170Y-120474517D01*
X71593948Y-120603948D01*
X71464517Y-120710170D01*
X71370712Y-120760309D01*
X71316855Y-120789097D01*
X71247088Y-120810260D01*
X71156627Y-120837701D01*
X71031757Y-120850000D01*
X70948243Y-120850000D01*
X70823373Y-120837701D01*
X70732912Y-120810260D01*
X70663145Y-120789097D01*
X70609288Y-120760309D01*
X70515483Y-120710170D01*
X70386052Y-120603948D01*
X70279830Y-120474517D01*
X70229691Y-120380712D01*
X70200903Y-120326855D01*
X70152300Y-120166629D01*
X70152299Y-120166627D01*
X70135887Y-120000000D01*
X70152299Y-119833373D01*
X70200903Y-119673146D01*
X70200903Y-119673145D01*
X70229691Y-119619288D01*
X70279830Y-119525483D01*
X70386052Y-119396052D01*
X70515483Y-119289830D01*
X70609288Y-119239691D01*
X70663145Y-119210903D01*
X70732912Y-119189740D01*
X70823373Y-119162299D01*
X70948243Y-119150000D01*
X71031757Y-119150000D01*
X71156627Y-119162299D01*
X71156627Y-119162299D01*
G37*
G36*
X81316627Y-119162299D02*
X81407088Y-119189740D01*
X81476855Y-119210903D01*
X81530712Y-119239691D01*
X81624517Y-119289830D01*
X81753948Y-119396052D01*
X81860170Y-119525483D01*
X81910309Y-119619288D01*
X81939097Y-119673145D01*
X81939097Y-119673146D01*
X81987701Y-119833373D01*
X82004113Y-120000000D01*
X81987701Y-120166627D01*
X81987700Y-120166629D01*
X81939097Y-120326855D01*
X81910309Y-120380712D01*
X81860170Y-120474517D01*
X81753948Y-120603948D01*
X81624517Y-120710170D01*
X81530712Y-120760309D01*
X81476855Y-120789097D01*
X81407088Y-120810260D01*
X81316627Y-120837701D01*
X81191757Y-120850000D01*
X81108243Y-120850000D01*
X80983373Y-120837701D01*
X80892912Y-120810260D01*
X80823145Y-120789097D01*
X80769288Y-120760309D01*
X80675483Y-120710170D01*
X80546052Y-120603948D01*
X80439830Y-120474517D01*
X80389691Y-120380712D01*
X80360903Y-120326855D01*
X80312300Y-120166629D01*
X80312299Y-120166627D01*
X80295887Y-120000000D01*
X80312299Y-119833373D01*
X80360903Y-119673146D01*
X80360903Y-119673145D01*
X80389691Y-119619288D01*
X80439830Y-119525483D01*
X80546052Y-119396052D01*
X80675483Y-119289830D01*
X80769288Y-119239691D01*
X80823145Y-119210903D01*
X80892912Y-119189740D01*
X80983373Y-119162299D01*
X81108243Y-119150000D01*
X81191757Y-119150000D01*
X81316627Y-119162299D01*
X81316627Y-119162299D01*
G37*
G36*
X83856627Y-119162299D02*
X83947088Y-119189740D01*
X84016855Y-119210903D01*
X84070712Y-119239691D01*
X84164517Y-119289830D01*
X84293948Y-119396052D01*
X84400170Y-119525483D01*
X84450309Y-119619288D01*
X84479097Y-119673145D01*
X84479097Y-119673146D01*
X84527701Y-119833373D01*
X84544113Y-120000000D01*
X84527701Y-120166627D01*
X84527700Y-120166629D01*
X84479097Y-120326855D01*
X84450309Y-120380712D01*
X84400170Y-120474517D01*
X84293948Y-120603948D01*
X84164517Y-120710170D01*
X84070712Y-120760309D01*
X84016855Y-120789097D01*
X83947088Y-120810260D01*
X83856627Y-120837701D01*
X83731757Y-120850000D01*
X83648243Y-120850000D01*
X83523373Y-120837701D01*
X83432912Y-120810260D01*
X83363145Y-120789097D01*
X83309288Y-120760309D01*
X83215483Y-120710170D01*
X83086052Y-120603948D01*
X82979830Y-120474517D01*
X82929691Y-120380712D01*
X82900903Y-120326855D01*
X82852300Y-120166629D01*
X82852299Y-120166627D01*
X82835887Y-120000000D01*
X82852299Y-119833373D01*
X82900903Y-119673146D01*
X82900903Y-119673145D01*
X82929691Y-119619288D01*
X82979830Y-119525483D01*
X83086052Y-119396052D01*
X83215483Y-119289830D01*
X83309288Y-119239691D01*
X83363145Y-119210903D01*
X83432912Y-119189740D01*
X83523373Y-119162299D01*
X83648243Y-119150000D01*
X83731757Y-119150000D01*
X83856627Y-119162299D01*
X83856627Y-119162299D01*
G37*
G36*
X76236627Y-119162299D02*
X76327088Y-119189740D01*
X76396855Y-119210903D01*
X76450712Y-119239691D01*
X76544517Y-119289830D01*
X76673948Y-119396052D01*
X76780170Y-119525483D01*
X76830309Y-119619288D01*
X76859097Y-119673145D01*
X76859097Y-119673146D01*
X76907701Y-119833373D01*
X76924113Y-120000000D01*
X76907701Y-120166627D01*
X76907700Y-120166629D01*
X76859097Y-120326855D01*
X76830309Y-120380712D01*
X76780170Y-120474517D01*
X76673948Y-120603948D01*
X76544517Y-120710170D01*
X76450712Y-120760309D01*
X76396855Y-120789097D01*
X76327088Y-120810260D01*
X76236627Y-120837701D01*
X76111757Y-120850000D01*
X76028243Y-120850000D01*
X75903373Y-120837701D01*
X75812912Y-120810260D01*
X75743145Y-120789097D01*
X75689288Y-120760309D01*
X75595483Y-120710170D01*
X75466052Y-120603948D01*
X75359830Y-120474517D01*
X75309691Y-120380712D01*
X75280903Y-120326855D01*
X75232300Y-120166629D01*
X75232299Y-120166627D01*
X75215887Y-120000000D01*
X75232299Y-119833373D01*
X75280903Y-119673146D01*
X75280903Y-119673145D01*
X75309691Y-119619288D01*
X75359830Y-119525483D01*
X75466052Y-119396052D01*
X75595483Y-119289830D01*
X75689288Y-119239691D01*
X75743145Y-119210903D01*
X75812912Y-119189740D01*
X75903373Y-119162299D01*
X76028243Y-119150000D01*
X76111757Y-119150000D01*
X76236627Y-119162299D01*
X76236627Y-119162299D01*
G37*
G36*
X86396627Y-119162299D02*
X86487088Y-119189740D01*
X86556855Y-119210903D01*
X86610712Y-119239691D01*
X86704517Y-119289830D01*
X86833948Y-119396052D01*
X86940170Y-119525483D01*
X86990309Y-119619288D01*
X87019097Y-119673145D01*
X87019097Y-119673146D01*
X87067701Y-119833373D01*
X87084113Y-120000000D01*
X87067701Y-120166627D01*
X87067700Y-120166629D01*
X87019097Y-120326855D01*
X86990309Y-120380712D01*
X86940170Y-120474517D01*
X86833948Y-120603948D01*
X86704517Y-120710170D01*
X86610712Y-120760309D01*
X86556855Y-120789097D01*
X86487088Y-120810260D01*
X86396627Y-120837701D01*
X86271757Y-120850000D01*
X86188243Y-120850000D01*
X86063373Y-120837701D01*
X85972912Y-120810260D01*
X85903145Y-120789097D01*
X85849288Y-120760309D01*
X85755483Y-120710170D01*
X85626052Y-120603948D01*
X85519830Y-120474517D01*
X85469691Y-120380712D01*
X85440903Y-120326855D01*
X85392300Y-120166629D01*
X85392299Y-120166627D01*
X85375887Y-120000000D01*
X85392299Y-119833373D01*
X85440903Y-119673146D01*
X85440903Y-119673145D01*
X85469691Y-119619288D01*
X85519830Y-119525483D01*
X85626052Y-119396052D01*
X85755483Y-119289830D01*
X85849288Y-119239691D01*
X85903145Y-119210903D01*
X85972912Y-119189740D01*
X86063373Y-119162299D01*
X86188243Y-119150000D01*
X86271757Y-119150000D01*
X86396627Y-119162299D01*
X86396627Y-119162299D01*
G37*
G36*
X78776627Y-119162299D02*
X78867088Y-119189740D01*
X78936855Y-119210903D01*
X78990712Y-119239691D01*
X79084517Y-119289830D01*
X79213948Y-119396052D01*
X79320170Y-119525483D01*
X79370309Y-119619288D01*
X79399097Y-119673145D01*
X79399097Y-119673146D01*
X79447701Y-119833373D01*
X79464113Y-120000000D01*
X79447701Y-120166627D01*
X79447700Y-120166629D01*
X79399097Y-120326855D01*
X79370309Y-120380712D01*
X79320170Y-120474517D01*
X79213948Y-120603948D01*
X79084517Y-120710170D01*
X78990712Y-120760309D01*
X78936855Y-120789097D01*
X78867088Y-120810260D01*
X78776627Y-120837701D01*
X78651757Y-120850000D01*
X78568243Y-120850000D01*
X78443373Y-120837701D01*
X78352912Y-120810260D01*
X78283145Y-120789097D01*
X78229288Y-120760309D01*
X78135483Y-120710170D01*
X78006052Y-120603948D01*
X77899830Y-120474517D01*
X77849691Y-120380712D01*
X77820903Y-120326855D01*
X77772300Y-120166629D01*
X77772299Y-120166627D01*
X77755887Y-120000000D01*
X77772299Y-119833373D01*
X77820903Y-119673146D01*
X77820903Y-119673145D01*
X77849691Y-119619288D01*
X77899830Y-119525483D01*
X78006052Y-119396052D01*
X78135483Y-119289830D01*
X78229288Y-119239691D01*
X78283145Y-119210903D01*
X78352912Y-119189740D01*
X78443373Y-119162299D01*
X78568243Y-119150000D01*
X78651757Y-119150000D01*
X78776627Y-119162299D01*
X78776627Y-119162299D01*
G37*
G36*
X88936627Y-119162299D02*
X89027088Y-119189740D01*
X89096855Y-119210903D01*
X89150712Y-119239691D01*
X89244517Y-119289830D01*
X89373948Y-119396052D01*
X89480170Y-119525483D01*
X89530309Y-119619288D01*
X89559097Y-119673145D01*
X89559097Y-119673146D01*
X89607701Y-119833373D01*
X89624113Y-120000000D01*
X89607701Y-120166627D01*
X89607700Y-120166629D01*
X89559097Y-120326855D01*
X89530309Y-120380712D01*
X89480170Y-120474517D01*
X89373948Y-120603948D01*
X89244517Y-120710170D01*
X89150712Y-120760309D01*
X89096855Y-120789097D01*
X89027088Y-120810260D01*
X88936627Y-120837701D01*
X88811757Y-120850000D01*
X88728243Y-120850000D01*
X88603373Y-120837701D01*
X88512912Y-120810260D01*
X88443145Y-120789097D01*
X88389288Y-120760309D01*
X88295483Y-120710170D01*
X88166052Y-120603948D01*
X88059830Y-120474517D01*
X88009691Y-120380712D01*
X87980903Y-120326855D01*
X87932300Y-120166629D01*
X87932299Y-120166627D01*
X87915887Y-120000000D01*
X87932299Y-119833373D01*
X87980903Y-119673146D01*
X87980903Y-119673145D01*
X88009691Y-119619288D01*
X88059830Y-119525483D01*
X88166052Y-119396052D01*
X88295483Y-119289830D01*
X88389288Y-119239691D01*
X88443145Y-119210903D01*
X88512912Y-119189740D01*
X88603373Y-119162299D01*
X88728243Y-119150000D01*
X88811757Y-119150000D01*
X88936627Y-119162299D01*
X88936627Y-119162299D01*
G37*
G36*
X69300000Y-120850000D02*
X67600000Y-120850000D01*
X67600000Y-119150000D01*
X69300000Y-119150000D01*
X69300000Y-120850000D01*
X69300000Y-120850000D01*
G37*
G36*
X101636627Y-116622299D02*
X101727088Y-116649740D01*
X101796855Y-116670903D01*
X101850712Y-116699691D01*
X101944517Y-116749830D01*
X102073948Y-116856052D01*
X102180170Y-116985483D01*
X102230309Y-117079288D01*
X102259097Y-117133145D01*
X102259097Y-117133146D01*
X102307701Y-117293373D01*
X102324113Y-117460000D01*
X102307701Y-117626627D01*
X102307700Y-117626629D01*
X102259097Y-117786855D01*
X102230309Y-117840712D01*
X102180170Y-117934517D01*
X102073948Y-118063948D01*
X101944517Y-118170170D01*
X101850712Y-118220309D01*
X101796855Y-118249097D01*
X101727088Y-118270260D01*
X101636627Y-118297701D01*
X101511757Y-118310000D01*
X101428243Y-118310000D01*
X101303373Y-118297701D01*
X101212912Y-118270260D01*
X101143145Y-118249097D01*
X101089288Y-118220309D01*
X100995483Y-118170170D01*
X100866052Y-118063948D01*
X100759830Y-117934517D01*
X100709691Y-117840712D01*
X100680903Y-117786855D01*
X100632300Y-117626629D01*
X100632299Y-117626627D01*
X100615887Y-117460000D01*
X100632299Y-117293373D01*
X100680903Y-117133146D01*
X100680903Y-117133145D01*
X100709691Y-117079288D01*
X100759830Y-116985483D01*
X100866052Y-116856052D01*
X100995483Y-116749830D01*
X101089288Y-116699691D01*
X101143145Y-116670903D01*
X101212912Y-116649740D01*
X101303373Y-116622299D01*
X101428243Y-116610000D01*
X101511757Y-116610000D01*
X101636627Y-116622299D01*
X101636627Y-116622299D01*
G37*
G36*
X99096627Y-116622299D02*
X99187088Y-116649740D01*
X99256855Y-116670903D01*
X99310712Y-116699691D01*
X99404517Y-116749830D01*
X99533948Y-116856052D01*
X99640170Y-116985483D01*
X99690309Y-117079288D01*
X99719097Y-117133145D01*
X99719097Y-117133146D01*
X99767701Y-117293373D01*
X99784113Y-117460000D01*
X99767701Y-117626627D01*
X99767700Y-117626629D01*
X99719097Y-117786855D01*
X99690309Y-117840712D01*
X99640170Y-117934517D01*
X99533948Y-118063948D01*
X99404517Y-118170170D01*
X99310712Y-118220309D01*
X99256855Y-118249097D01*
X99187088Y-118270260D01*
X99096627Y-118297701D01*
X98971757Y-118310000D01*
X98888243Y-118310000D01*
X98763373Y-118297701D01*
X98672912Y-118270260D01*
X98603145Y-118249097D01*
X98549288Y-118220309D01*
X98455483Y-118170170D01*
X98326052Y-118063948D01*
X98219830Y-117934517D01*
X98169691Y-117840712D01*
X98140903Y-117786855D01*
X98092300Y-117626629D01*
X98092299Y-117626627D01*
X98075887Y-117460000D01*
X98092299Y-117293373D01*
X98140903Y-117133146D01*
X98140903Y-117133145D01*
X98169691Y-117079288D01*
X98219830Y-116985483D01*
X98326052Y-116856052D01*
X98455483Y-116749830D01*
X98549288Y-116699691D01*
X98603145Y-116670903D01*
X98672912Y-116649740D01*
X98763373Y-116622299D01*
X98888243Y-116610000D01*
X98971757Y-116610000D01*
X99096627Y-116622299D01*
X99096627Y-116622299D01*
G37*
G36*
X104176627Y-116622299D02*
X104267088Y-116649740D01*
X104336855Y-116670903D01*
X104390712Y-116699691D01*
X104484517Y-116749830D01*
X104613948Y-116856052D01*
X104720170Y-116985483D01*
X104770309Y-117079288D01*
X104799097Y-117133145D01*
X104799097Y-117133146D01*
X104847701Y-117293373D01*
X104864113Y-117460000D01*
X104847701Y-117626627D01*
X104847700Y-117626629D01*
X104799097Y-117786855D01*
X104770309Y-117840712D01*
X104720170Y-117934517D01*
X104613948Y-118063948D01*
X104484517Y-118170170D01*
X104390712Y-118220309D01*
X104336855Y-118249097D01*
X104267088Y-118270260D01*
X104176627Y-118297701D01*
X104051757Y-118310000D01*
X103968243Y-118310000D01*
X103843373Y-118297701D01*
X103752912Y-118270260D01*
X103683145Y-118249097D01*
X103629288Y-118220309D01*
X103535483Y-118170170D01*
X103406052Y-118063948D01*
X103299830Y-117934517D01*
X103249691Y-117840712D01*
X103220903Y-117786855D01*
X103172300Y-117626629D01*
X103172299Y-117626627D01*
X103155887Y-117460000D01*
X103172299Y-117293373D01*
X103220903Y-117133146D01*
X103220903Y-117133145D01*
X103249691Y-117079288D01*
X103299830Y-116985483D01*
X103406052Y-116856052D01*
X103535483Y-116749830D01*
X103629288Y-116699691D01*
X103683145Y-116670903D01*
X103752912Y-116649740D01*
X103843373Y-116622299D01*
X103968243Y-116610000D01*
X104051757Y-116610000D01*
X104176627Y-116622299D01*
X104176627Y-116622299D01*
G37*
G36*
X96556627Y-116622299D02*
X96647088Y-116649740D01*
X96716855Y-116670903D01*
X96770712Y-116699691D01*
X96864517Y-116749830D01*
X96993948Y-116856052D01*
X97100170Y-116985483D01*
X97150309Y-117079288D01*
X97179097Y-117133145D01*
X97179097Y-117133146D01*
X97227701Y-117293373D01*
X97244113Y-117460000D01*
X97227701Y-117626627D01*
X97227700Y-117626629D01*
X97179097Y-117786855D01*
X97150309Y-117840712D01*
X97100170Y-117934517D01*
X96993948Y-118063948D01*
X96864517Y-118170170D01*
X96770712Y-118220309D01*
X96716855Y-118249097D01*
X96647088Y-118270260D01*
X96556627Y-118297701D01*
X96431757Y-118310000D01*
X96348243Y-118310000D01*
X96223373Y-118297701D01*
X96132912Y-118270260D01*
X96063145Y-118249097D01*
X96009288Y-118220309D01*
X95915483Y-118170170D01*
X95786052Y-118063948D01*
X95679830Y-117934517D01*
X95629691Y-117840712D01*
X95600903Y-117786855D01*
X95552300Y-117626629D01*
X95552299Y-117626627D01*
X95535887Y-117460000D01*
X95552299Y-117293373D01*
X95600903Y-117133146D01*
X95600903Y-117133145D01*
X95629691Y-117079288D01*
X95679830Y-116985483D01*
X95786052Y-116856052D01*
X95915483Y-116749830D01*
X96009288Y-116699691D01*
X96063145Y-116670903D01*
X96132912Y-116649740D01*
X96223373Y-116622299D01*
X96348243Y-116610000D01*
X96431757Y-116610000D01*
X96556627Y-116622299D01*
X96556627Y-116622299D01*
G37*
G36*
X94016627Y-116622299D02*
X94107088Y-116649740D01*
X94176855Y-116670903D01*
X94230712Y-116699691D01*
X94324517Y-116749830D01*
X94453948Y-116856052D01*
X94560170Y-116985483D01*
X94610309Y-117079288D01*
X94639097Y-117133145D01*
X94639097Y-117133146D01*
X94687701Y-117293373D01*
X94704113Y-117460000D01*
X94687701Y-117626627D01*
X94687700Y-117626629D01*
X94639097Y-117786855D01*
X94610309Y-117840712D01*
X94560170Y-117934517D01*
X94453948Y-118063948D01*
X94324517Y-118170170D01*
X94230712Y-118220309D01*
X94176855Y-118249097D01*
X94107088Y-118270260D01*
X94016627Y-118297701D01*
X93891757Y-118310000D01*
X93808243Y-118310000D01*
X93683373Y-118297701D01*
X93592912Y-118270260D01*
X93523145Y-118249097D01*
X93469288Y-118220309D01*
X93375483Y-118170170D01*
X93246052Y-118063948D01*
X93139830Y-117934517D01*
X93089691Y-117840712D01*
X93060903Y-117786855D01*
X93012300Y-117626629D01*
X93012299Y-117626627D01*
X92995887Y-117460000D01*
X93012299Y-117293373D01*
X93060903Y-117133146D01*
X93060903Y-117133145D01*
X93089691Y-117079288D01*
X93139830Y-116985483D01*
X93246052Y-116856052D01*
X93375483Y-116749830D01*
X93469288Y-116699691D01*
X93523145Y-116670903D01*
X93592912Y-116649740D01*
X93683373Y-116622299D01*
X93808243Y-116610000D01*
X93891757Y-116610000D01*
X94016627Y-116622299D01*
X94016627Y-116622299D01*
G37*
G36*
X106716627Y-116622299D02*
X106807088Y-116649740D01*
X106876855Y-116670903D01*
X106930712Y-116699691D01*
X107024517Y-116749830D01*
X107153948Y-116856052D01*
X107260170Y-116985483D01*
X107310309Y-117079288D01*
X107339097Y-117133145D01*
X107339097Y-117133146D01*
X107387701Y-117293373D01*
X107404113Y-117460000D01*
X107387701Y-117626627D01*
X107387700Y-117626629D01*
X107339097Y-117786855D01*
X107310309Y-117840712D01*
X107260170Y-117934517D01*
X107153948Y-118063948D01*
X107024517Y-118170170D01*
X106930712Y-118220309D01*
X106876855Y-118249097D01*
X106807088Y-118270260D01*
X106716627Y-118297701D01*
X106591757Y-118310000D01*
X106508243Y-118310000D01*
X106383373Y-118297701D01*
X106292912Y-118270260D01*
X106223145Y-118249097D01*
X106169288Y-118220309D01*
X106075483Y-118170170D01*
X105946052Y-118063948D01*
X105839830Y-117934517D01*
X105789691Y-117840712D01*
X105760903Y-117786855D01*
X105712300Y-117626629D01*
X105712299Y-117626627D01*
X105695887Y-117460000D01*
X105712299Y-117293373D01*
X105760903Y-117133146D01*
X105760903Y-117133145D01*
X105789691Y-117079288D01*
X105839830Y-116985483D01*
X105946052Y-116856052D01*
X106075483Y-116749830D01*
X106169288Y-116699691D01*
X106223145Y-116670903D01*
X106292912Y-116649740D01*
X106383373Y-116622299D01*
X106508243Y-116610000D01*
X106591757Y-116610000D01*
X106716627Y-116622299D01*
X106716627Y-116622299D01*
G37*
G36*
X88936627Y-116622299D02*
X89027088Y-116649740D01*
X89096855Y-116670903D01*
X89150712Y-116699691D01*
X89244517Y-116749830D01*
X89373948Y-116856052D01*
X89480170Y-116985483D01*
X89530309Y-117079288D01*
X89559097Y-117133145D01*
X89559097Y-117133146D01*
X89607701Y-117293373D01*
X89624113Y-117460000D01*
X89607701Y-117626627D01*
X89607700Y-117626629D01*
X89559097Y-117786855D01*
X89530309Y-117840712D01*
X89480170Y-117934517D01*
X89373948Y-118063948D01*
X89244517Y-118170170D01*
X89150712Y-118220309D01*
X89096855Y-118249097D01*
X89027088Y-118270260D01*
X88936627Y-118297701D01*
X88811757Y-118310000D01*
X88728243Y-118310000D01*
X88603373Y-118297701D01*
X88512912Y-118270260D01*
X88443145Y-118249097D01*
X88389288Y-118220309D01*
X88295483Y-118170170D01*
X88166052Y-118063948D01*
X88059830Y-117934517D01*
X88009691Y-117840712D01*
X87980903Y-117786855D01*
X87932300Y-117626629D01*
X87932299Y-117626627D01*
X87915887Y-117460000D01*
X87932299Y-117293373D01*
X87980903Y-117133146D01*
X87980903Y-117133145D01*
X88009691Y-117079288D01*
X88059830Y-116985483D01*
X88166052Y-116856052D01*
X88295483Y-116749830D01*
X88389288Y-116699691D01*
X88443145Y-116670903D01*
X88512912Y-116649740D01*
X88603373Y-116622299D01*
X88728243Y-116610000D01*
X88811757Y-116610000D01*
X88936627Y-116622299D01*
X88936627Y-116622299D01*
G37*
G36*
X86396627Y-116622299D02*
X86487088Y-116649740D01*
X86556855Y-116670903D01*
X86610712Y-116699691D01*
X86704517Y-116749830D01*
X86833948Y-116856052D01*
X86940170Y-116985483D01*
X86990309Y-117079288D01*
X87019097Y-117133145D01*
X87019097Y-117133146D01*
X87067701Y-117293373D01*
X87084113Y-117460000D01*
X87067701Y-117626627D01*
X87067700Y-117626629D01*
X87019097Y-117786855D01*
X86990309Y-117840712D01*
X86940170Y-117934517D01*
X86833948Y-118063948D01*
X86704517Y-118170170D01*
X86610712Y-118220309D01*
X86556855Y-118249097D01*
X86487088Y-118270260D01*
X86396627Y-118297701D01*
X86271757Y-118310000D01*
X86188243Y-118310000D01*
X86063373Y-118297701D01*
X85972912Y-118270260D01*
X85903145Y-118249097D01*
X85849288Y-118220309D01*
X85755483Y-118170170D01*
X85626052Y-118063948D01*
X85519830Y-117934517D01*
X85469691Y-117840712D01*
X85440903Y-117786855D01*
X85392300Y-117626629D01*
X85392299Y-117626627D01*
X85375887Y-117460000D01*
X85392299Y-117293373D01*
X85440903Y-117133146D01*
X85440903Y-117133145D01*
X85469691Y-117079288D01*
X85519830Y-116985483D01*
X85626052Y-116856052D01*
X85755483Y-116749830D01*
X85849288Y-116699691D01*
X85903145Y-116670903D01*
X85972912Y-116649740D01*
X86063373Y-116622299D01*
X86188243Y-116610000D01*
X86271757Y-116610000D01*
X86396627Y-116622299D01*
X86396627Y-116622299D01*
G37*
G36*
X81316627Y-116622299D02*
X81407088Y-116649740D01*
X81476855Y-116670903D01*
X81530712Y-116699691D01*
X81624517Y-116749830D01*
X81753948Y-116856052D01*
X81860170Y-116985483D01*
X81910309Y-117079288D01*
X81939097Y-117133145D01*
X81939097Y-117133146D01*
X81987701Y-117293373D01*
X82004113Y-117460000D01*
X81987701Y-117626627D01*
X81987700Y-117626629D01*
X81939097Y-117786855D01*
X81910309Y-117840712D01*
X81860170Y-117934517D01*
X81753948Y-118063948D01*
X81624517Y-118170170D01*
X81530712Y-118220309D01*
X81476855Y-118249097D01*
X81407088Y-118270260D01*
X81316627Y-118297701D01*
X81191757Y-118310000D01*
X81108243Y-118310000D01*
X80983373Y-118297701D01*
X80892912Y-118270260D01*
X80823145Y-118249097D01*
X80769288Y-118220309D01*
X80675483Y-118170170D01*
X80546052Y-118063948D01*
X80439830Y-117934517D01*
X80389691Y-117840712D01*
X80360903Y-117786855D01*
X80312300Y-117626629D01*
X80312299Y-117626627D01*
X80295887Y-117460000D01*
X80312299Y-117293373D01*
X80360903Y-117133146D01*
X80360903Y-117133145D01*
X80389691Y-117079288D01*
X80439830Y-116985483D01*
X80546052Y-116856052D01*
X80675483Y-116749830D01*
X80769288Y-116699691D01*
X80823145Y-116670903D01*
X80892912Y-116649740D01*
X80983373Y-116622299D01*
X81108243Y-116610000D01*
X81191757Y-116610000D01*
X81316627Y-116622299D01*
X81316627Y-116622299D01*
G37*
G36*
X78776627Y-116622299D02*
X78867088Y-116649740D01*
X78936855Y-116670903D01*
X78990712Y-116699691D01*
X79084517Y-116749830D01*
X79213948Y-116856052D01*
X79320170Y-116985483D01*
X79370309Y-117079288D01*
X79399097Y-117133145D01*
X79399097Y-117133146D01*
X79447701Y-117293373D01*
X79464113Y-117460000D01*
X79447701Y-117626627D01*
X79447700Y-117626629D01*
X79399097Y-117786855D01*
X79370309Y-117840712D01*
X79320170Y-117934517D01*
X79213948Y-118063948D01*
X79084517Y-118170170D01*
X78990712Y-118220309D01*
X78936855Y-118249097D01*
X78867088Y-118270260D01*
X78776627Y-118297701D01*
X78651757Y-118310000D01*
X78568243Y-118310000D01*
X78443373Y-118297701D01*
X78352912Y-118270260D01*
X78283145Y-118249097D01*
X78229288Y-118220309D01*
X78135483Y-118170170D01*
X78006052Y-118063948D01*
X77899830Y-117934517D01*
X77849691Y-117840712D01*
X77820903Y-117786855D01*
X77772300Y-117626629D01*
X77772299Y-117626627D01*
X77755887Y-117460000D01*
X77772299Y-117293373D01*
X77820903Y-117133146D01*
X77820903Y-117133145D01*
X77849691Y-117079288D01*
X77899830Y-116985483D01*
X78006052Y-116856052D01*
X78135483Y-116749830D01*
X78229288Y-116699691D01*
X78283145Y-116670903D01*
X78352912Y-116649740D01*
X78443373Y-116622299D01*
X78568243Y-116610000D01*
X78651757Y-116610000D01*
X78776627Y-116622299D01*
X78776627Y-116622299D01*
G37*
G36*
X91476627Y-116622299D02*
X91567088Y-116649740D01*
X91636855Y-116670903D01*
X91690712Y-116699691D01*
X91784517Y-116749830D01*
X91913948Y-116856052D01*
X92020170Y-116985483D01*
X92070309Y-117079288D01*
X92099097Y-117133145D01*
X92099097Y-117133146D01*
X92147701Y-117293373D01*
X92164113Y-117460000D01*
X92147701Y-117626627D01*
X92147700Y-117626629D01*
X92099097Y-117786855D01*
X92070309Y-117840712D01*
X92020170Y-117934517D01*
X91913948Y-118063948D01*
X91784517Y-118170170D01*
X91690712Y-118220309D01*
X91636855Y-118249097D01*
X91567088Y-118270260D01*
X91476627Y-118297701D01*
X91351757Y-118310000D01*
X91268243Y-118310000D01*
X91143373Y-118297701D01*
X91052912Y-118270260D01*
X90983145Y-118249097D01*
X90929288Y-118220309D01*
X90835483Y-118170170D01*
X90706052Y-118063948D01*
X90599830Y-117934517D01*
X90549691Y-117840712D01*
X90520903Y-117786855D01*
X90472300Y-117626629D01*
X90472299Y-117626627D01*
X90455887Y-117460000D01*
X90472299Y-117293373D01*
X90520903Y-117133146D01*
X90520903Y-117133145D01*
X90549691Y-117079288D01*
X90599830Y-116985483D01*
X90706052Y-116856052D01*
X90835483Y-116749830D01*
X90929288Y-116699691D01*
X90983145Y-116670903D01*
X91052912Y-116649740D01*
X91143373Y-116622299D01*
X91268243Y-116610000D01*
X91351757Y-116610000D01*
X91476627Y-116622299D01*
X91476627Y-116622299D01*
G37*
G36*
X76236627Y-116622299D02*
X76327088Y-116649740D01*
X76396855Y-116670903D01*
X76450712Y-116699691D01*
X76544517Y-116749830D01*
X76673948Y-116856052D01*
X76780170Y-116985483D01*
X76830309Y-117079288D01*
X76859097Y-117133145D01*
X76859097Y-117133146D01*
X76907701Y-117293373D01*
X76924113Y-117460000D01*
X76907701Y-117626627D01*
X76907700Y-117626629D01*
X76859097Y-117786855D01*
X76830309Y-117840712D01*
X76780170Y-117934517D01*
X76673948Y-118063948D01*
X76544517Y-118170170D01*
X76450712Y-118220309D01*
X76396855Y-118249097D01*
X76327088Y-118270260D01*
X76236627Y-118297701D01*
X76111757Y-118310000D01*
X76028243Y-118310000D01*
X75903373Y-118297701D01*
X75812912Y-118270260D01*
X75743145Y-118249097D01*
X75689288Y-118220309D01*
X75595483Y-118170170D01*
X75466052Y-118063948D01*
X75359830Y-117934517D01*
X75309691Y-117840712D01*
X75280903Y-117786855D01*
X75232300Y-117626629D01*
X75232299Y-117626627D01*
X75215887Y-117460000D01*
X75232299Y-117293373D01*
X75280903Y-117133146D01*
X75280903Y-117133145D01*
X75309691Y-117079288D01*
X75359830Y-116985483D01*
X75466052Y-116856052D01*
X75595483Y-116749830D01*
X75689288Y-116699691D01*
X75743145Y-116670903D01*
X75812912Y-116649740D01*
X75903373Y-116622299D01*
X76028243Y-116610000D01*
X76111757Y-116610000D01*
X76236627Y-116622299D01*
X76236627Y-116622299D01*
G37*
G36*
X73696627Y-116622299D02*
X73787088Y-116649740D01*
X73856855Y-116670903D01*
X73910712Y-116699691D01*
X74004517Y-116749830D01*
X74133948Y-116856052D01*
X74240170Y-116985483D01*
X74290309Y-117079288D01*
X74319097Y-117133145D01*
X74319097Y-117133146D01*
X74367701Y-117293373D01*
X74384113Y-117460000D01*
X74367701Y-117626627D01*
X74367700Y-117626629D01*
X74319097Y-117786855D01*
X74290309Y-117840712D01*
X74240170Y-117934517D01*
X74133948Y-118063948D01*
X74004517Y-118170170D01*
X73910712Y-118220309D01*
X73856855Y-118249097D01*
X73787088Y-118270260D01*
X73696627Y-118297701D01*
X73571757Y-118310000D01*
X73488243Y-118310000D01*
X73363373Y-118297701D01*
X73272912Y-118270260D01*
X73203145Y-118249097D01*
X73149288Y-118220309D01*
X73055483Y-118170170D01*
X72926052Y-118063948D01*
X72819830Y-117934517D01*
X72769691Y-117840712D01*
X72740903Y-117786855D01*
X72692300Y-117626629D01*
X72692299Y-117626627D01*
X72675887Y-117460000D01*
X72692299Y-117293373D01*
X72740903Y-117133146D01*
X72740903Y-117133145D01*
X72769691Y-117079288D01*
X72819830Y-116985483D01*
X72926052Y-116856052D01*
X73055483Y-116749830D01*
X73149288Y-116699691D01*
X73203145Y-116670903D01*
X73272912Y-116649740D01*
X73363373Y-116622299D01*
X73488243Y-116610000D01*
X73571757Y-116610000D01*
X73696627Y-116622299D01*
X73696627Y-116622299D01*
G37*
G36*
X71156627Y-116622299D02*
X71247088Y-116649740D01*
X71316855Y-116670903D01*
X71370712Y-116699691D01*
X71464517Y-116749830D01*
X71593948Y-116856052D01*
X71700170Y-116985483D01*
X71750309Y-117079288D01*
X71779097Y-117133145D01*
X71779097Y-117133146D01*
X71827701Y-117293373D01*
X71844113Y-117460000D01*
X71827701Y-117626627D01*
X71827700Y-117626629D01*
X71779097Y-117786855D01*
X71750309Y-117840712D01*
X71700170Y-117934517D01*
X71593948Y-118063948D01*
X71464517Y-118170170D01*
X71370712Y-118220309D01*
X71316855Y-118249097D01*
X71247088Y-118270260D01*
X71156627Y-118297701D01*
X71031757Y-118310000D01*
X70948243Y-118310000D01*
X70823373Y-118297701D01*
X70732912Y-118270260D01*
X70663145Y-118249097D01*
X70609288Y-118220309D01*
X70515483Y-118170170D01*
X70386052Y-118063948D01*
X70279830Y-117934517D01*
X70229691Y-117840712D01*
X70200903Y-117786855D01*
X70152300Y-117626629D01*
X70152299Y-117626627D01*
X70135887Y-117460000D01*
X70152299Y-117293373D01*
X70200903Y-117133146D01*
X70200903Y-117133145D01*
X70229691Y-117079288D01*
X70279830Y-116985483D01*
X70386052Y-116856052D01*
X70515483Y-116749830D01*
X70609288Y-116699691D01*
X70663145Y-116670903D01*
X70732912Y-116649740D01*
X70823373Y-116622299D01*
X70948243Y-116610000D01*
X71031757Y-116610000D01*
X71156627Y-116622299D01*
X71156627Y-116622299D01*
G37*
G36*
X68616627Y-116622299D02*
X68707088Y-116649740D01*
X68776855Y-116670903D01*
X68830712Y-116699691D01*
X68924517Y-116749830D01*
X69053948Y-116856052D01*
X69160170Y-116985483D01*
X69210309Y-117079288D01*
X69239097Y-117133145D01*
X69239097Y-117133146D01*
X69287701Y-117293373D01*
X69304113Y-117460000D01*
X69287701Y-117626627D01*
X69287700Y-117626629D01*
X69239097Y-117786855D01*
X69210309Y-117840712D01*
X69160170Y-117934517D01*
X69053948Y-118063948D01*
X68924517Y-118170170D01*
X68830712Y-118220309D01*
X68776855Y-118249097D01*
X68707088Y-118270260D01*
X68616627Y-118297701D01*
X68491757Y-118310000D01*
X68408243Y-118310000D01*
X68283373Y-118297701D01*
X68192912Y-118270260D01*
X68123145Y-118249097D01*
X68069288Y-118220309D01*
X67975483Y-118170170D01*
X67846052Y-118063948D01*
X67739830Y-117934517D01*
X67689691Y-117840712D01*
X67660903Y-117786855D01*
X67612300Y-117626629D01*
X67612299Y-117626627D01*
X67595887Y-117460000D01*
X67612299Y-117293373D01*
X67660903Y-117133146D01*
X67660903Y-117133145D01*
X67689691Y-117079288D01*
X67739830Y-116985483D01*
X67846052Y-116856052D01*
X67975483Y-116749830D01*
X68069288Y-116699691D01*
X68123145Y-116670903D01*
X68192912Y-116649740D01*
X68283373Y-116622299D01*
X68408243Y-116610000D01*
X68491757Y-116610000D01*
X68616627Y-116622299D01*
X68616627Y-116622299D01*
G37*
G36*
X83856627Y-116622299D02*
X83947088Y-116649740D01*
X84016855Y-116670903D01*
X84070712Y-116699691D01*
X84164517Y-116749830D01*
X84293948Y-116856052D01*
X84400170Y-116985483D01*
X84450309Y-117079288D01*
X84479097Y-117133145D01*
X84479097Y-117133146D01*
X84527701Y-117293373D01*
X84544113Y-117460000D01*
X84527701Y-117626627D01*
X84527700Y-117626629D01*
X84479097Y-117786855D01*
X84450309Y-117840712D01*
X84400170Y-117934517D01*
X84293948Y-118063948D01*
X84164517Y-118170170D01*
X84070712Y-118220309D01*
X84016855Y-118249097D01*
X83947088Y-118270260D01*
X83856627Y-118297701D01*
X83731757Y-118310000D01*
X83648243Y-118310000D01*
X83523373Y-118297701D01*
X83432912Y-118270260D01*
X83363145Y-118249097D01*
X83309288Y-118220309D01*
X83215483Y-118170170D01*
X83086052Y-118063948D01*
X82979830Y-117934517D01*
X82929691Y-117840712D01*
X82900903Y-117786855D01*
X82852300Y-117626629D01*
X82852299Y-117626627D01*
X82835887Y-117460000D01*
X82852299Y-117293373D01*
X82900903Y-117133146D01*
X82900903Y-117133145D01*
X82929691Y-117079288D01*
X82979830Y-116985483D01*
X83086052Y-116856052D01*
X83215483Y-116749830D01*
X83309288Y-116699691D01*
X83363145Y-116670903D01*
X83432912Y-116649740D01*
X83523373Y-116622299D01*
X83648243Y-116610000D01*
X83731757Y-116610000D01*
X83856627Y-116622299D01*
X83856627Y-116622299D01*
G37*
G36*
X62969730Y-106830744D02*
X63433408Y-106922975D01*
X64015768Y-107164197D01*
X64539881Y-107514398D01*
X64985602Y-107960119D01*
X65044295Y-108047959D01*
X65335803Y-108484232D01*
X65577025Y-109066592D01*
X65669256Y-109530270D01*
X65700000Y-109684828D01*
X65700000Y-110315172D01*
X65669256Y-110469730D01*
X65577025Y-110933408D01*
X65389407Y-111386356D01*
X65335803Y-111515768D01*
X64985602Y-112039881D01*
X64539881Y-112485602D01*
X64493375Y-112516676D01*
X64015768Y-112835803D01*
X63433408Y-113077025D01*
X62969730Y-113169256D01*
X62815172Y-113200000D01*
X62184828Y-113200000D01*
X62030270Y-113169256D01*
X61566592Y-113077025D01*
X60984232Y-112835803D01*
X60506625Y-112516676D01*
X60460119Y-112485602D01*
X60014398Y-112039881D01*
X59664197Y-111515768D01*
X59610593Y-111386356D01*
X59422975Y-110933408D01*
X59330744Y-110469730D01*
X59300000Y-110315172D01*
X59300000Y-109684828D01*
X59330744Y-109530270D01*
X59422975Y-109066592D01*
X59664197Y-108484232D01*
X59955705Y-108047959D01*
X60014398Y-107960119D01*
X60460119Y-107514398D01*
X60984232Y-107164197D01*
X61566592Y-106922975D01*
X62030270Y-106830744D01*
X62184828Y-106800000D01*
X62815172Y-106800000D01*
X62969730Y-106830744D01*
X62969730Y-106830744D01*
G37*
G36*
X112969730Y-106830744D02*
X113433408Y-106922975D01*
X114015768Y-107164197D01*
X114539881Y-107514398D01*
X114985602Y-107960119D01*
X115044295Y-108047959D01*
X115335803Y-108484232D01*
X115577025Y-109066592D01*
X115669256Y-109530270D01*
X115700000Y-109684828D01*
X115700000Y-110315172D01*
X115669256Y-110469730D01*
X115577025Y-110933408D01*
X115389407Y-111386356D01*
X115335803Y-111515768D01*
X114985602Y-112039881D01*
X114539881Y-112485602D01*
X114493375Y-112516676D01*
X114015768Y-112835803D01*
X113433408Y-113077025D01*
X112969730Y-113169256D01*
X112815172Y-113200000D01*
X112184828Y-113200000D01*
X112030270Y-113169256D01*
X111566592Y-113077025D01*
X110984232Y-112835803D01*
X110506625Y-112516676D01*
X110460119Y-112485602D01*
X110014398Y-112039881D01*
X109664197Y-111515768D01*
X109610593Y-111386356D01*
X109422975Y-110933408D01*
X109330744Y-110469730D01*
X109300000Y-110315172D01*
X109300000Y-109684828D01*
X109330744Y-109530270D01*
X109422975Y-109066592D01*
X109664197Y-108484232D01*
X109955705Y-108047959D01*
X110014398Y-107960119D01*
X110460119Y-107514398D01*
X110984232Y-107164197D01*
X111566592Y-106922975D01*
X112030270Y-106830744D01*
X112184828Y-106800000D01*
X112815172Y-106800000D01*
X112969730Y-106830744D01*
X112969730Y-106830744D01*
G37*
G36*
X59150000Y-104150000D02*
X57450000Y-104150000D01*
X57450000Y-102450000D01*
X59150000Y-102450000D01*
X59150000Y-104150000D01*
X59150000Y-104150000D01*
G37*
G36*
X64975925Y-102469030D02*
X65010555Y-102479535D01*
X65042473Y-102496596D01*
X65070447Y-102519553D01*
X65093404Y-102547527D01*
X65110465Y-102579445D01*
X65120970Y-102614075D01*
X65125000Y-102654996D01*
X65125000Y-103700004D01*
X65120970Y-103740925D01*
X65110465Y-103775555D01*
X65093404Y-103807473D01*
X65070447Y-103835447D01*
X65042473Y-103858404D01*
X65010555Y-103875465D01*
X64975925Y-103885970D01*
X64935004Y-103890000D01*
X63564996Y-103890000D01*
X63524075Y-103885970D01*
X63489445Y-103875465D01*
X63457527Y-103858404D01*
X63429553Y-103835447D01*
X63406596Y-103807473D01*
X63389535Y-103775555D01*
X63379030Y-103740925D01*
X63375000Y-103700004D01*
X63375000Y-102654996D01*
X63379030Y-102614075D01*
X63389535Y-102579445D01*
X63406596Y-102547527D01*
X63429553Y-102519553D01*
X63457527Y-102496596D01*
X63489445Y-102479535D01*
X63524075Y-102469030D01*
X63564996Y-102465000D01*
X64935004Y-102465000D01*
X64975925Y-102469030D01*
X64975925Y-102469030D01*
G37*
G36*
X58466627Y-99922299D02*
X58557088Y-99949740D01*
X58626855Y-99970903D01*
X58680712Y-99999691D01*
X58774517Y-100049830D01*
X58903948Y-100156052D01*
X59010170Y-100285483D01*
X59060309Y-100379288D01*
X59089097Y-100433145D01*
X59089097Y-100433146D01*
X59137701Y-100593373D01*
X59154113Y-100760000D01*
X59137701Y-100926627D01*
X59137700Y-100926629D01*
X59089097Y-101086855D01*
X59060309Y-101140712D01*
X59010170Y-101234517D01*
X58903948Y-101363948D01*
X58774517Y-101470170D01*
X58680712Y-101520309D01*
X58626855Y-101549097D01*
X58557088Y-101570260D01*
X58466627Y-101597701D01*
X58341757Y-101610000D01*
X58258243Y-101610000D01*
X58133373Y-101597701D01*
X58042912Y-101570260D01*
X57973145Y-101549097D01*
X57919288Y-101520309D01*
X57825483Y-101470170D01*
X57696052Y-101363948D01*
X57589830Y-101234517D01*
X57539691Y-101140712D01*
X57510903Y-101086855D01*
X57462300Y-100926629D01*
X57462299Y-100926627D01*
X57445887Y-100760000D01*
X57462299Y-100593373D01*
X57510903Y-100433146D01*
X57510903Y-100433145D01*
X57539691Y-100379288D01*
X57589830Y-100285483D01*
X57696052Y-100156052D01*
X57825483Y-100049830D01*
X57919288Y-99999691D01*
X57973145Y-99970903D01*
X58042912Y-99949740D01*
X58133373Y-99922299D01*
X58258243Y-99910000D01*
X58341757Y-99910000D01*
X58466627Y-99922299D01*
X58466627Y-99922299D01*
G37*
G36*
X64975925Y-99494030D02*
X65010555Y-99504535D01*
X65042473Y-99521596D01*
X65070447Y-99544553D01*
X65093404Y-99572527D01*
X65110465Y-99604445D01*
X65120970Y-99639075D01*
X65125000Y-99679996D01*
X65125000Y-100725004D01*
X65120970Y-100765925D01*
X65110465Y-100800555D01*
X65093404Y-100832473D01*
X65070447Y-100860447D01*
X65042473Y-100883404D01*
X65010555Y-100900465D01*
X64975925Y-100910970D01*
X64935004Y-100915000D01*
X63564996Y-100915000D01*
X63524075Y-100910970D01*
X63489445Y-100900465D01*
X63457527Y-100883404D01*
X63429553Y-100860447D01*
X63406596Y-100832473D01*
X63389535Y-100800555D01*
X63379030Y-100765925D01*
X63375000Y-100725004D01*
X63375000Y-99679996D01*
X63379030Y-99639075D01*
X63389535Y-99604445D01*
X63406596Y-99572527D01*
X63429553Y-99544553D01*
X63457527Y-99521596D01*
X63489445Y-99504535D01*
X63524075Y-99494030D01*
X63564996Y-99490000D01*
X64935004Y-99490000D01*
X64975925Y-99494030D01*
X64975925Y-99494030D01*
G37*
G36*
X76483351Y-95230743D02*
X76483353Y-95230744D01*
X76483354Y-95230744D01*
X76628942Y-95291049D01*
X76759969Y-95378598D01*
X76871402Y-95490031D01*
X76958951Y-95621058D01*
X77019256Y-95766646D01*
X77050000Y-95921209D01*
X77050000Y-96078791D01*
X77019256Y-96233354D01*
X76958951Y-96378942D01*
X76871402Y-96509969D01*
X76759969Y-96621402D01*
X76628942Y-96708951D01*
X76483354Y-96769256D01*
X76483353Y-96769256D01*
X76483351Y-96769257D01*
X76328793Y-96800000D01*
X76171207Y-96800000D01*
X76016649Y-96769257D01*
X76016647Y-96769256D01*
X76016646Y-96769256D01*
X75871058Y-96708951D01*
X75740031Y-96621402D01*
X75628598Y-96509969D01*
X75541049Y-96378942D01*
X75480744Y-96233354D01*
X75450000Y-96078791D01*
X75450000Y-95921209D01*
X75480744Y-95766646D01*
X75541049Y-95621058D01*
X75628598Y-95490031D01*
X75740031Y-95378598D01*
X75871058Y-95291049D01*
X76016646Y-95230744D01*
X76016647Y-95230744D01*
X76016649Y-95230743D01*
X76171207Y-95200000D01*
X76328793Y-95200000D01*
X76483351Y-95230743D01*
X76483351Y-95230743D01*
G37*
G36*
X73483351Y-95230743D02*
X73483353Y-95230744D01*
X73483354Y-95230744D01*
X73628942Y-95291049D01*
X73759969Y-95378598D01*
X73871402Y-95490031D01*
X73958951Y-95621058D01*
X74019256Y-95766646D01*
X74050000Y-95921209D01*
X74050000Y-96078791D01*
X74019256Y-96233354D01*
X73958951Y-96378942D01*
X73871402Y-96509969D01*
X73759969Y-96621402D01*
X73628942Y-96708951D01*
X73483354Y-96769256D01*
X73483353Y-96769256D01*
X73483351Y-96769257D01*
X73328793Y-96800000D01*
X73171207Y-96800000D01*
X73016649Y-96769257D01*
X73016647Y-96769256D01*
X73016646Y-96769256D01*
X72871058Y-96708951D01*
X72740031Y-96621402D01*
X72628598Y-96509969D01*
X72541049Y-96378942D01*
X72480744Y-96233354D01*
X72450000Y-96078791D01*
X72450000Y-95921209D01*
X72480744Y-95766646D01*
X72541049Y-95621058D01*
X72628598Y-95490031D01*
X72740031Y-95378598D01*
X72871058Y-95291049D01*
X73016646Y-95230744D01*
X73016647Y-95230744D01*
X73016649Y-95230743D01*
X73171207Y-95200000D01*
X73328793Y-95200000D01*
X73483351Y-95230743D01*
X73483351Y-95230743D01*
G37*
G36*
X70483351Y-95230743D02*
X70483353Y-95230744D01*
X70483354Y-95230744D01*
X70628942Y-95291049D01*
X70759969Y-95378598D01*
X70871402Y-95490031D01*
X70958951Y-95621058D01*
X71019256Y-95766646D01*
X71050000Y-95921209D01*
X71050000Y-96078791D01*
X71019256Y-96233354D01*
X70958951Y-96378942D01*
X70871402Y-96509969D01*
X70759969Y-96621402D01*
X70628942Y-96708951D01*
X70483354Y-96769256D01*
X70483353Y-96769256D01*
X70483351Y-96769257D01*
X70328793Y-96800000D01*
X70171207Y-96800000D01*
X70016649Y-96769257D01*
X70016647Y-96769256D01*
X70016646Y-96769256D01*
X69871058Y-96708951D01*
X69740031Y-96621402D01*
X69628598Y-96509969D01*
X69541049Y-96378942D01*
X69480744Y-96233354D01*
X69450000Y-96078791D01*
X69450000Y-95921209D01*
X69480744Y-95766646D01*
X69541049Y-95621058D01*
X69628598Y-95490031D01*
X69740031Y-95378598D01*
X69871058Y-95291049D01*
X70016646Y-95230744D01*
X70016647Y-95230744D01*
X70016649Y-95230743D01*
X70171207Y-95200000D01*
X70328793Y-95200000D01*
X70483351Y-95230743D01*
X70483351Y-95230743D01*
G37*
G36*
X67483351Y-95230743D02*
X67483353Y-95230744D01*
X67483354Y-95230744D01*
X67628942Y-95291049D01*
X67759969Y-95378598D01*
X67871402Y-95490031D01*
X67958951Y-95621058D01*
X68019256Y-95766646D01*
X68050000Y-95921209D01*
X68050000Y-96078791D01*
X68019256Y-96233354D01*
X67958951Y-96378942D01*
X67871402Y-96509969D01*
X67759969Y-96621402D01*
X67628942Y-96708951D01*
X67483354Y-96769256D01*
X67483353Y-96769256D01*
X67483351Y-96769257D01*
X67328793Y-96800000D01*
X67171207Y-96800000D01*
X67016649Y-96769257D01*
X67016647Y-96769256D01*
X67016646Y-96769256D01*
X66871058Y-96708951D01*
X66740031Y-96621402D01*
X66628598Y-96509969D01*
X66541049Y-96378942D01*
X66480744Y-96233354D01*
X66450000Y-96078791D01*
X66450000Y-95921209D01*
X66480744Y-95766646D01*
X66541049Y-95621058D01*
X66628598Y-95490031D01*
X66740031Y-95378598D01*
X66871058Y-95291049D01*
X67016646Y-95230744D01*
X67016647Y-95230744D01*
X67016649Y-95230743D01*
X67171207Y-95200000D01*
X67328793Y-95200000D01*
X67483351Y-95230743D01*
X67483351Y-95230743D01*
G37*
G36*
X100483351Y-95230743D02*
X100483353Y-95230744D01*
X100483354Y-95230744D01*
X100628942Y-95291049D01*
X100759969Y-95378598D01*
X100871402Y-95490031D01*
X100958951Y-95621058D01*
X101019256Y-95766646D01*
X101050000Y-95921209D01*
X101050000Y-96078791D01*
X101019256Y-96233354D01*
X100958951Y-96378942D01*
X100871402Y-96509969D01*
X100759969Y-96621402D01*
X100628942Y-96708951D01*
X100483354Y-96769256D01*
X100483353Y-96769256D01*
X100483351Y-96769257D01*
X100328793Y-96800000D01*
X100171207Y-96800000D01*
X100016649Y-96769257D01*
X100016647Y-96769256D01*
X100016646Y-96769256D01*
X99871058Y-96708951D01*
X99740031Y-96621402D01*
X99628598Y-96509969D01*
X99541049Y-96378942D01*
X99480744Y-96233354D01*
X99450000Y-96078791D01*
X99450000Y-95921209D01*
X99480744Y-95766646D01*
X99541049Y-95621058D01*
X99628598Y-95490031D01*
X99740031Y-95378598D01*
X99871058Y-95291049D01*
X100016646Y-95230744D01*
X100016647Y-95230744D01*
X100016649Y-95230743D01*
X100171207Y-95200000D01*
X100328793Y-95200000D01*
X100483351Y-95230743D01*
X100483351Y-95230743D01*
G37*
G36*
X79483351Y-95230743D02*
X79483353Y-95230744D01*
X79483354Y-95230744D01*
X79628942Y-95291049D01*
X79759969Y-95378598D01*
X79871402Y-95490031D01*
X79958951Y-95621058D01*
X80019256Y-95766646D01*
X80050000Y-95921209D01*
X80050000Y-96078791D01*
X80019256Y-96233354D01*
X79958951Y-96378942D01*
X79871402Y-96509969D01*
X79759969Y-96621402D01*
X79628942Y-96708951D01*
X79483354Y-96769256D01*
X79483353Y-96769256D01*
X79483351Y-96769257D01*
X79328793Y-96800000D01*
X79171207Y-96800000D01*
X79016649Y-96769257D01*
X79016647Y-96769256D01*
X79016646Y-96769256D01*
X78871058Y-96708951D01*
X78740031Y-96621402D01*
X78628598Y-96509969D01*
X78541049Y-96378942D01*
X78480744Y-96233354D01*
X78450000Y-96078791D01*
X78450000Y-95921209D01*
X78480744Y-95766646D01*
X78541049Y-95621058D01*
X78628598Y-95490031D01*
X78740031Y-95378598D01*
X78871058Y-95291049D01*
X79016646Y-95230744D01*
X79016647Y-95230744D01*
X79016649Y-95230743D01*
X79171207Y-95200000D01*
X79328793Y-95200000D01*
X79483351Y-95230743D01*
X79483351Y-95230743D01*
G37*
G36*
X85483351Y-95230743D02*
X85483353Y-95230744D01*
X85483354Y-95230744D01*
X85628942Y-95291049D01*
X85759969Y-95378598D01*
X85871402Y-95490031D01*
X85958951Y-95621058D01*
X86019256Y-95766646D01*
X86050000Y-95921209D01*
X86050000Y-96078791D01*
X86019256Y-96233354D01*
X85958951Y-96378942D01*
X85871402Y-96509969D01*
X85759969Y-96621402D01*
X85628942Y-96708951D01*
X85483354Y-96769256D01*
X85483353Y-96769256D01*
X85483351Y-96769257D01*
X85328793Y-96800000D01*
X85171207Y-96800000D01*
X85016649Y-96769257D01*
X85016647Y-96769256D01*
X85016646Y-96769256D01*
X84871058Y-96708951D01*
X84740031Y-96621402D01*
X84628598Y-96509969D01*
X84541049Y-96378942D01*
X84480744Y-96233354D01*
X84450000Y-96078791D01*
X84450000Y-95921209D01*
X84480744Y-95766646D01*
X84541049Y-95621058D01*
X84628598Y-95490031D01*
X84740031Y-95378598D01*
X84871058Y-95291049D01*
X85016646Y-95230744D01*
X85016647Y-95230744D01*
X85016649Y-95230743D01*
X85171207Y-95200000D01*
X85328793Y-95200000D01*
X85483351Y-95230743D01*
X85483351Y-95230743D01*
G37*
G36*
X88483351Y-95230743D02*
X88483353Y-95230744D01*
X88483354Y-95230744D01*
X88628942Y-95291049D01*
X88759969Y-95378598D01*
X88871402Y-95490031D01*
X88958951Y-95621058D01*
X89019256Y-95766646D01*
X89050000Y-95921209D01*
X89050000Y-96078791D01*
X89019256Y-96233354D01*
X88958951Y-96378942D01*
X88871402Y-96509969D01*
X88759969Y-96621402D01*
X88628942Y-96708951D01*
X88483354Y-96769256D01*
X88483353Y-96769256D01*
X88483351Y-96769257D01*
X88328793Y-96800000D01*
X88171207Y-96800000D01*
X88016649Y-96769257D01*
X88016647Y-96769256D01*
X88016646Y-96769256D01*
X87871058Y-96708951D01*
X87740031Y-96621402D01*
X87628598Y-96509969D01*
X87541049Y-96378942D01*
X87480744Y-96233354D01*
X87450000Y-96078791D01*
X87450000Y-95921209D01*
X87480744Y-95766646D01*
X87541049Y-95621058D01*
X87628598Y-95490031D01*
X87740031Y-95378598D01*
X87871058Y-95291049D01*
X88016646Y-95230744D01*
X88016647Y-95230744D01*
X88016649Y-95230743D01*
X88171207Y-95200000D01*
X88328793Y-95200000D01*
X88483351Y-95230743D01*
X88483351Y-95230743D01*
G37*
G36*
X94483351Y-95230743D02*
X94483353Y-95230744D01*
X94483354Y-95230744D01*
X94628942Y-95291049D01*
X94759969Y-95378598D01*
X94871402Y-95490031D01*
X94958951Y-95621058D01*
X95019256Y-95766646D01*
X95050000Y-95921209D01*
X95050000Y-96078791D01*
X95019256Y-96233354D01*
X94958951Y-96378942D01*
X94871402Y-96509969D01*
X94759969Y-96621402D01*
X94628942Y-96708951D01*
X94483354Y-96769256D01*
X94483353Y-96769256D01*
X94483351Y-96769257D01*
X94328793Y-96800000D01*
X94171207Y-96800000D01*
X94016649Y-96769257D01*
X94016647Y-96769256D01*
X94016646Y-96769256D01*
X93871058Y-96708951D01*
X93740031Y-96621402D01*
X93628598Y-96509969D01*
X93541049Y-96378942D01*
X93480744Y-96233354D01*
X93450000Y-96078791D01*
X93450000Y-95921209D01*
X93480744Y-95766646D01*
X93541049Y-95621058D01*
X93628598Y-95490031D01*
X93740031Y-95378598D01*
X93871058Y-95291049D01*
X94016646Y-95230744D01*
X94016647Y-95230744D01*
X94016649Y-95230743D01*
X94171207Y-95200000D01*
X94328793Y-95200000D01*
X94483351Y-95230743D01*
X94483351Y-95230743D01*
G37*
G36*
X97483351Y-95230743D02*
X97483353Y-95230744D01*
X97483354Y-95230744D01*
X97628942Y-95291049D01*
X97759969Y-95378598D01*
X97871402Y-95490031D01*
X97958951Y-95621058D01*
X98019256Y-95766646D01*
X98050000Y-95921209D01*
X98050000Y-96078791D01*
X98019256Y-96233354D01*
X97958951Y-96378942D01*
X97871402Y-96509969D01*
X97759969Y-96621402D01*
X97628942Y-96708951D01*
X97483354Y-96769256D01*
X97483353Y-96769256D01*
X97483351Y-96769257D01*
X97328793Y-96800000D01*
X97171207Y-96800000D01*
X97016649Y-96769257D01*
X97016647Y-96769256D01*
X97016646Y-96769256D01*
X96871058Y-96708951D01*
X96740031Y-96621402D01*
X96628598Y-96509969D01*
X96541049Y-96378942D01*
X96480744Y-96233354D01*
X96450000Y-96078791D01*
X96450000Y-95921209D01*
X96480744Y-95766646D01*
X96541049Y-95621058D01*
X96628598Y-95490031D01*
X96740031Y-95378598D01*
X96871058Y-95291049D01*
X97016646Y-95230744D01*
X97016647Y-95230744D01*
X97016649Y-95230743D01*
X97171207Y-95200000D01*
X97328793Y-95200000D01*
X97483351Y-95230743D01*
X97483351Y-95230743D01*
G37*
G36*
X103483351Y-95230743D02*
X103483353Y-95230744D01*
X103483354Y-95230744D01*
X103628942Y-95291049D01*
X103759969Y-95378598D01*
X103871402Y-95490031D01*
X103958951Y-95621058D01*
X104019256Y-95766646D01*
X104050000Y-95921209D01*
X104050000Y-96078791D01*
X104019256Y-96233354D01*
X103958951Y-96378942D01*
X103871402Y-96509969D01*
X103759969Y-96621402D01*
X103628942Y-96708951D01*
X103483354Y-96769256D01*
X103483353Y-96769256D01*
X103483351Y-96769257D01*
X103328793Y-96800000D01*
X103171207Y-96800000D01*
X103016649Y-96769257D01*
X103016647Y-96769256D01*
X103016646Y-96769256D01*
X102871058Y-96708951D01*
X102740031Y-96621402D01*
X102628598Y-96509969D01*
X102541049Y-96378942D01*
X102480744Y-96233354D01*
X102450000Y-96078791D01*
X102450000Y-95921209D01*
X102480744Y-95766646D01*
X102541049Y-95621058D01*
X102628598Y-95490031D01*
X102740031Y-95378598D01*
X102871058Y-95291049D01*
X103016646Y-95230744D01*
X103016647Y-95230744D01*
X103016649Y-95230743D01*
X103171207Y-95200000D01*
X103328793Y-95200000D01*
X103483351Y-95230743D01*
X103483351Y-95230743D01*
G37*
G36*
X106483351Y-95230743D02*
X106483353Y-95230744D01*
X106483354Y-95230744D01*
X106628942Y-95291049D01*
X106759969Y-95378598D01*
X106871402Y-95490031D01*
X106958951Y-95621058D01*
X107019256Y-95766646D01*
X107050000Y-95921209D01*
X107050000Y-96078791D01*
X107019256Y-96233354D01*
X106958951Y-96378942D01*
X106871402Y-96509969D01*
X106759969Y-96621402D01*
X106628942Y-96708951D01*
X106483354Y-96769256D01*
X106483353Y-96769256D01*
X106483351Y-96769257D01*
X106328793Y-96800000D01*
X106171207Y-96800000D01*
X106016649Y-96769257D01*
X106016647Y-96769256D01*
X106016646Y-96769256D01*
X105871058Y-96708951D01*
X105740031Y-96621402D01*
X105628598Y-96509969D01*
X105541049Y-96378942D01*
X105480744Y-96233354D01*
X105450000Y-96078791D01*
X105450000Y-95921209D01*
X105480744Y-95766646D01*
X105541049Y-95621058D01*
X105628598Y-95490031D01*
X105740031Y-95378598D01*
X105871058Y-95291049D01*
X106016646Y-95230744D01*
X106016647Y-95230744D01*
X106016649Y-95230743D01*
X106171207Y-95200000D01*
X106328793Y-95200000D01*
X106483351Y-95230743D01*
X106483351Y-95230743D01*
G37*
G36*
X109483351Y-95230743D02*
X109483353Y-95230744D01*
X109483354Y-95230744D01*
X109628942Y-95291049D01*
X109759969Y-95378598D01*
X109871402Y-95490031D01*
X109958951Y-95621058D01*
X110019256Y-95766646D01*
X110050000Y-95921209D01*
X110050000Y-96078791D01*
X110019256Y-96233354D01*
X109958951Y-96378942D01*
X109871402Y-96509969D01*
X109759969Y-96621402D01*
X109628942Y-96708951D01*
X109483354Y-96769256D01*
X109483353Y-96769256D01*
X109483351Y-96769257D01*
X109328793Y-96800000D01*
X109171207Y-96800000D01*
X109016649Y-96769257D01*
X109016647Y-96769256D01*
X109016646Y-96769256D01*
X108871058Y-96708951D01*
X108740031Y-96621402D01*
X108628598Y-96509969D01*
X108541049Y-96378942D01*
X108480744Y-96233354D01*
X108450000Y-96078791D01*
X108450000Y-95921209D01*
X108480744Y-95766646D01*
X108541049Y-95621058D01*
X108628598Y-95490031D01*
X108740031Y-95378598D01*
X108871058Y-95291049D01*
X109016646Y-95230744D01*
X109016647Y-95230744D01*
X109016649Y-95230743D01*
X109171207Y-95200000D01*
X109328793Y-95200000D01*
X109483351Y-95230743D01*
X109483351Y-95230743D01*
G37*
G36*
X82483351Y-95230743D02*
X82483353Y-95230744D01*
X82483354Y-95230744D01*
X82628942Y-95291049D01*
X82759969Y-95378598D01*
X82871402Y-95490031D01*
X82958951Y-95621058D01*
X83019256Y-95766646D01*
X83050000Y-95921209D01*
X83050000Y-96078791D01*
X83019256Y-96233354D01*
X82958951Y-96378942D01*
X82871402Y-96509969D01*
X82759969Y-96621402D01*
X82628942Y-96708951D01*
X82483354Y-96769256D01*
X82483353Y-96769256D01*
X82483351Y-96769257D01*
X82328793Y-96800000D01*
X82171207Y-96800000D01*
X82016649Y-96769257D01*
X82016647Y-96769256D01*
X82016646Y-96769256D01*
X81871058Y-96708951D01*
X81740031Y-96621402D01*
X81628598Y-96509969D01*
X81541049Y-96378942D01*
X81480744Y-96233354D01*
X81450000Y-96078791D01*
X81450000Y-95921209D01*
X81480744Y-95766646D01*
X81541049Y-95621058D01*
X81628598Y-95490031D01*
X81740031Y-95378598D01*
X81871058Y-95291049D01*
X82016646Y-95230744D01*
X82016647Y-95230744D01*
X82016649Y-95230743D01*
X82171207Y-95200000D01*
X82328793Y-95200000D01*
X82483351Y-95230743D01*
X82483351Y-95230743D01*
G37*
G36*
X91483351Y-95230743D02*
X91483353Y-95230744D01*
X91483354Y-95230744D01*
X91628942Y-95291049D01*
X91759969Y-95378598D01*
X91871402Y-95490031D01*
X91958951Y-95621058D01*
X92019256Y-95766646D01*
X92050000Y-95921209D01*
X92050000Y-96078791D01*
X92019256Y-96233354D01*
X91958951Y-96378942D01*
X91871402Y-96509969D01*
X91759969Y-96621402D01*
X91628942Y-96708951D01*
X91483354Y-96769256D01*
X91483353Y-96769256D01*
X91483351Y-96769257D01*
X91328793Y-96800000D01*
X91171207Y-96800000D01*
X91016649Y-96769257D01*
X91016647Y-96769256D01*
X91016646Y-96769256D01*
X90871058Y-96708951D01*
X90740031Y-96621402D01*
X90628598Y-96509969D01*
X90541049Y-96378942D01*
X90480744Y-96233354D01*
X90450000Y-96078791D01*
X90450000Y-95921209D01*
X90480744Y-95766646D01*
X90541049Y-95621058D01*
X90628598Y-95490031D01*
X90740031Y-95378598D01*
X90871058Y-95291049D01*
X91016646Y-95230744D01*
X91016647Y-95230744D01*
X91016649Y-95230743D01*
X91171207Y-95200000D01*
X91328793Y-95200000D01*
X91483351Y-95230743D01*
X91483351Y-95230743D01*
G37*
G36*
X64950000Y-96700000D02*
X63550000Y-96700000D01*
X63550000Y-95300000D01*
X64950000Y-95300000D01*
X64950000Y-96700000D01*
X64950000Y-96700000D01*
G37*
G36*
X57370885Y-90988387D02*
X57370887Y-90988388D01*
X57370888Y-90988388D01*
X57525507Y-91052433D01*
X57789459Y-91161766D01*
X58166165Y-91413473D01*
X58486527Y-91733835D01*
X58738234Y-92110541D01*
X58911613Y-92529115D01*
X59000000Y-92973470D01*
X59000000Y-93426530D01*
X58911613Y-93870885D01*
X58738234Y-94289459D01*
X58486527Y-94666165D01*
X58166165Y-94986527D01*
X57789459Y-95238234D01*
X57525507Y-95347567D01*
X57370888Y-95411612D01*
X57370887Y-95411612D01*
X57370885Y-95411613D01*
X56926530Y-95500000D01*
X56473470Y-95500000D01*
X56029115Y-95411613D01*
X56029113Y-95411612D01*
X56029112Y-95411612D01*
X55874493Y-95347567D01*
X55610541Y-95238234D01*
X55233835Y-94986527D01*
X54913473Y-94666165D01*
X54661766Y-94289459D01*
X54488387Y-93870885D01*
X54400000Y-93426530D01*
X54400000Y-92973470D01*
X54488387Y-92529115D01*
X54661766Y-92110541D01*
X54913473Y-91733835D01*
X55233835Y-91413473D01*
X55610541Y-91161766D01*
X55874493Y-91052433D01*
X56029112Y-90988388D01*
X56029113Y-90988388D01*
X56029115Y-90988387D01*
X56473470Y-90900000D01*
X56926530Y-90900000D01*
X57370885Y-90988387D01*
X57370885Y-90988387D01*
G37*
G36*
X118970885Y-90988387D02*
X118970887Y-90988388D01*
X118970888Y-90988388D01*
X119125507Y-91052433D01*
X119389459Y-91161766D01*
X119766165Y-91413473D01*
X120086527Y-91733835D01*
X120338234Y-92110541D01*
X120511613Y-92529115D01*
X120600000Y-92973470D01*
X120600000Y-93426530D01*
X120511613Y-93870885D01*
X120338234Y-94289459D01*
X120086527Y-94666165D01*
X119766165Y-94986527D01*
X119389459Y-95238234D01*
X119125507Y-95347567D01*
X118970888Y-95411612D01*
X118970887Y-95411612D01*
X118970885Y-95411613D01*
X118526530Y-95500000D01*
X118073470Y-95500000D01*
X117629115Y-95411613D01*
X117629113Y-95411612D01*
X117629112Y-95411612D01*
X117474493Y-95347567D01*
X117210541Y-95238234D01*
X116833835Y-94986527D01*
X116513473Y-94666165D01*
X116261766Y-94289459D01*
X116088387Y-93870885D01*
X116000000Y-93426530D01*
X116000000Y-92973470D01*
X116088387Y-92529115D01*
X116261766Y-92110541D01*
X116513473Y-91733835D01*
X116833835Y-91413473D01*
X117210541Y-91161766D01*
X117474493Y-91052433D01*
X117629112Y-90988388D01*
X117629113Y-90988388D01*
X117629115Y-90988387D01*
X118073470Y-90900000D01*
X118526530Y-90900000D01*
X118970885Y-90988387D01*
X118970885Y-90988387D01*
G37*
G36*
X74983351Y-93730743D02*
X74983353Y-93730744D01*
X74983354Y-93730744D01*
X75128942Y-93791049D01*
X75259969Y-93878598D01*
X75371402Y-93990031D01*
X75458951Y-94121058D01*
X75519256Y-94266646D01*
X75550000Y-94421209D01*
X75550000Y-94578791D01*
X75519256Y-94733354D01*
X75458951Y-94878942D01*
X75371402Y-95009969D01*
X75259969Y-95121402D01*
X75128942Y-95208951D01*
X74983354Y-95269256D01*
X74983353Y-95269256D01*
X74983351Y-95269257D01*
X74828793Y-95300000D01*
X74671207Y-95300000D01*
X74516649Y-95269257D01*
X74516647Y-95269256D01*
X74516646Y-95269256D01*
X74371058Y-95208951D01*
X74240031Y-95121402D01*
X74128598Y-95009969D01*
X74041049Y-94878942D01*
X73980744Y-94733354D01*
X73950000Y-94578791D01*
X73950000Y-94421209D01*
X73980744Y-94266646D01*
X74041049Y-94121058D01*
X74128598Y-93990031D01*
X74240031Y-93878598D01*
X74371058Y-93791049D01*
X74516646Y-93730744D01*
X74516647Y-93730744D01*
X74516649Y-93730743D01*
X74671207Y-93700000D01*
X74828793Y-93700000D01*
X74983351Y-93730743D01*
X74983351Y-93730743D01*
G37*
G36*
X110983351Y-93730743D02*
X110983353Y-93730744D01*
X110983354Y-93730744D01*
X111128942Y-93791049D01*
X111259969Y-93878598D01*
X111371402Y-93990031D01*
X111458951Y-94121058D01*
X111519256Y-94266646D01*
X111550000Y-94421209D01*
X111550000Y-94578791D01*
X111519256Y-94733354D01*
X111458951Y-94878942D01*
X111371402Y-95009969D01*
X111259969Y-95121402D01*
X111128942Y-95208951D01*
X110983354Y-95269256D01*
X110983353Y-95269256D01*
X110983351Y-95269257D01*
X110828793Y-95300000D01*
X110671207Y-95300000D01*
X110516649Y-95269257D01*
X110516647Y-95269256D01*
X110516646Y-95269256D01*
X110371058Y-95208951D01*
X110240031Y-95121402D01*
X110128598Y-95009969D01*
X110041049Y-94878942D01*
X109980744Y-94733354D01*
X109950000Y-94578791D01*
X109950000Y-94421209D01*
X109980744Y-94266646D01*
X110041049Y-94121058D01*
X110128598Y-93990031D01*
X110240031Y-93878598D01*
X110371058Y-93791049D01*
X110516646Y-93730744D01*
X110516647Y-93730744D01*
X110516649Y-93730743D01*
X110671207Y-93700000D01*
X110828793Y-93700000D01*
X110983351Y-93730743D01*
X110983351Y-93730743D01*
G37*
G36*
X107983351Y-93730743D02*
X107983353Y-93730744D01*
X107983354Y-93730744D01*
X108128942Y-93791049D01*
X108259969Y-93878598D01*
X108371402Y-93990031D01*
X108458951Y-94121058D01*
X108519256Y-94266646D01*
X108550000Y-94421209D01*
X108550000Y-94578791D01*
X108519256Y-94733354D01*
X108458951Y-94878942D01*
X108371402Y-95009969D01*
X108259969Y-95121402D01*
X108128942Y-95208951D01*
X107983354Y-95269256D01*
X107983353Y-95269256D01*
X107983351Y-95269257D01*
X107828793Y-95300000D01*
X107671207Y-95300000D01*
X107516649Y-95269257D01*
X107516647Y-95269256D01*
X107516646Y-95269256D01*
X107371058Y-95208951D01*
X107240031Y-95121402D01*
X107128598Y-95009969D01*
X107041049Y-94878942D01*
X106980744Y-94733354D01*
X106950000Y-94578791D01*
X106950000Y-94421209D01*
X106980744Y-94266646D01*
X107041049Y-94121058D01*
X107128598Y-93990031D01*
X107240031Y-93878598D01*
X107371058Y-93791049D01*
X107516646Y-93730744D01*
X107516647Y-93730744D01*
X107516649Y-93730743D01*
X107671207Y-93700000D01*
X107828793Y-93700000D01*
X107983351Y-93730743D01*
X107983351Y-93730743D01*
G37*
G36*
X104983351Y-93730743D02*
X104983353Y-93730744D01*
X104983354Y-93730744D01*
X105128942Y-93791049D01*
X105259969Y-93878598D01*
X105371402Y-93990031D01*
X105458951Y-94121058D01*
X105519256Y-94266646D01*
X105550000Y-94421209D01*
X105550000Y-94578791D01*
X105519256Y-94733354D01*
X105458951Y-94878942D01*
X105371402Y-95009969D01*
X105259969Y-95121402D01*
X105128942Y-95208951D01*
X104983354Y-95269256D01*
X104983353Y-95269256D01*
X104983351Y-95269257D01*
X104828793Y-95300000D01*
X104671207Y-95300000D01*
X104516649Y-95269257D01*
X104516647Y-95269256D01*
X104516646Y-95269256D01*
X104371058Y-95208951D01*
X104240031Y-95121402D01*
X104128598Y-95009969D01*
X104041049Y-94878942D01*
X103980744Y-94733354D01*
X103950000Y-94578791D01*
X103950000Y-94421209D01*
X103980744Y-94266646D01*
X104041049Y-94121058D01*
X104128598Y-93990031D01*
X104240031Y-93878598D01*
X104371058Y-93791049D01*
X104516646Y-93730744D01*
X104516647Y-93730744D01*
X104516649Y-93730743D01*
X104671207Y-93700000D01*
X104828793Y-93700000D01*
X104983351Y-93730743D01*
X104983351Y-93730743D01*
G37*
G36*
X101983351Y-93730743D02*
X101983353Y-93730744D01*
X101983354Y-93730744D01*
X102128942Y-93791049D01*
X102259969Y-93878598D01*
X102371402Y-93990031D01*
X102458951Y-94121058D01*
X102519256Y-94266646D01*
X102550000Y-94421209D01*
X102550000Y-94578791D01*
X102519256Y-94733354D01*
X102458951Y-94878942D01*
X102371402Y-95009969D01*
X102259969Y-95121402D01*
X102128942Y-95208951D01*
X101983354Y-95269256D01*
X101983353Y-95269256D01*
X101983351Y-95269257D01*
X101828793Y-95300000D01*
X101671207Y-95300000D01*
X101516649Y-95269257D01*
X101516647Y-95269256D01*
X101516646Y-95269256D01*
X101371058Y-95208951D01*
X101240031Y-95121402D01*
X101128598Y-95009969D01*
X101041049Y-94878942D01*
X100980744Y-94733354D01*
X100950000Y-94578791D01*
X100950000Y-94421209D01*
X100980744Y-94266646D01*
X101041049Y-94121058D01*
X101128598Y-93990031D01*
X101240031Y-93878598D01*
X101371058Y-93791049D01*
X101516646Y-93730744D01*
X101516647Y-93730744D01*
X101516649Y-93730743D01*
X101671207Y-93700000D01*
X101828793Y-93700000D01*
X101983351Y-93730743D01*
X101983351Y-93730743D01*
G37*
G36*
X98983351Y-93730743D02*
X98983353Y-93730744D01*
X98983354Y-93730744D01*
X99128942Y-93791049D01*
X99259969Y-93878598D01*
X99371402Y-93990031D01*
X99458951Y-94121058D01*
X99519256Y-94266646D01*
X99550000Y-94421209D01*
X99550000Y-94578791D01*
X99519256Y-94733354D01*
X99458951Y-94878942D01*
X99371402Y-95009969D01*
X99259969Y-95121402D01*
X99128942Y-95208951D01*
X98983354Y-95269256D01*
X98983353Y-95269256D01*
X98983351Y-95269257D01*
X98828793Y-95300000D01*
X98671207Y-95300000D01*
X98516649Y-95269257D01*
X98516647Y-95269256D01*
X98516646Y-95269256D01*
X98371058Y-95208951D01*
X98240031Y-95121402D01*
X98128598Y-95009969D01*
X98041049Y-94878942D01*
X97980744Y-94733354D01*
X97950000Y-94578791D01*
X97950000Y-94421209D01*
X97980744Y-94266646D01*
X98041049Y-94121058D01*
X98128598Y-93990031D01*
X98240031Y-93878598D01*
X98371058Y-93791049D01*
X98516646Y-93730744D01*
X98516647Y-93730744D01*
X98516649Y-93730743D01*
X98671207Y-93700000D01*
X98828793Y-93700000D01*
X98983351Y-93730743D01*
X98983351Y-93730743D01*
G37*
G36*
X95983351Y-93730743D02*
X95983353Y-93730744D01*
X95983354Y-93730744D01*
X96128942Y-93791049D01*
X96259969Y-93878598D01*
X96371402Y-93990031D01*
X96458951Y-94121058D01*
X96519256Y-94266646D01*
X96550000Y-94421209D01*
X96550000Y-94578791D01*
X96519256Y-94733354D01*
X96458951Y-94878942D01*
X96371402Y-95009969D01*
X96259969Y-95121402D01*
X96128942Y-95208951D01*
X95983354Y-95269256D01*
X95983353Y-95269256D01*
X95983351Y-95269257D01*
X95828793Y-95300000D01*
X95671207Y-95300000D01*
X95516649Y-95269257D01*
X95516647Y-95269256D01*
X95516646Y-95269256D01*
X95371058Y-95208951D01*
X95240031Y-95121402D01*
X95128598Y-95009969D01*
X95041049Y-94878942D01*
X94980744Y-94733354D01*
X94950000Y-94578791D01*
X94950000Y-94421209D01*
X94980744Y-94266646D01*
X95041049Y-94121058D01*
X95128598Y-93990031D01*
X95240031Y-93878598D01*
X95371058Y-93791049D01*
X95516646Y-93730744D01*
X95516647Y-93730744D01*
X95516649Y-93730743D01*
X95671207Y-93700000D01*
X95828793Y-93700000D01*
X95983351Y-93730743D01*
X95983351Y-93730743D01*
G37*
G36*
X92983351Y-93730743D02*
X92983353Y-93730744D01*
X92983354Y-93730744D01*
X93128942Y-93791049D01*
X93259969Y-93878598D01*
X93371402Y-93990031D01*
X93458951Y-94121058D01*
X93519256Y-94266646D01*
X93550000Y-94421209D01*
X93550000Y-94578791D01*
X93519256Y-94733354D01*
X93458951Y-94878942D01*
X93371402Y-95009969D01*
X93259969Y-95121402D01*
X93128942Y-95208951D01*
X92983354Y-95269256D01*
X92983353Y-95269256D01*
X92983351Y-95269257D01*
X92828793Y-95300000D01*
X92671207Y-95300000D01*
X92516649Y-95269257D01*
X92516647Y-95269256D01*
X92516646Y-95269256D01*
X92371058Y-95208951D01*
X92240031Y-95121402D01*
X92128598Y-95009969D01*
X92041049Y-94878942D01*
X91980744Y-94733354D01*
X91950000Y-94578791D01*
X91950000Y-94421209D01*
X91980744Y-94266646D01*
X92041049Y-94121058D01*
X92128598Y-93990031D01*
X92240031Y-93878598D01*
X92371058Y-93791049D01*
X92516646Y-93730744D01*
X92516647Y-93730744D01*
X92516649Y-93730743D01*
X92671207Y-93700000D01*
X92828793Y-93700000D01*
X92983351Y-93730743D01*
X92983351Y-93730743D01*
G37*
G36*
X86983351Y-93730743D02*
X86983353Y-93730744D01*
X86983354Y-93730744D01*
X87128942Y-93791049D01*
X87259969Y-93878598D01*
X87371402Y-93990031D01*
X87458951Y-94121058D01*
X87519256Y-94266646D01*
X87550000Y-94421209D01*
X87550000Y-94578791D01*
X87519256Y-94733354D01*
X87458951Y-94878942D01*
X87371402Y-95009969D01*
X87259969Y-95121402D01*
X87128942Y-95208951D01*
X86983354Y-95269256D01*
X86983353Y-95269256D01*
X86983351Y-95269257D01*
X86828793Y-95300000D01*
X86671207Y-95300000D01*
X86516649Y-95269257D01*
X86516647Y-95269256D01*
X86516646Y-95269256D01*
X86371058Y-95208951D01*
X86240031Y-95121402D01*
X86128598Y-95009969D01*
X86041049Y-94878942D01*
X85980744Y-94733354D01*
X85950000Y-94578791D01*
X85950000Y-94421209D01*
X85980744Y-94266646D01*
X86041049Y-94121058D01*
X86128598Y-93990031D01*
X86240031Y-93878598D01*
X86371058Y-93791049D01*
X86516646Y-93730744D01*
X86516647Y-93730744D01*
X86516649Y-93730743D01*
X86671207Y-93700000D01*
X86828793Y-93700000D01*
X86983351Y-93730743D01*
X86983351Y-93730743D01*
G37*
G36*
X83983351Y-93730743D02*
X83983353Y-93730744D01*
X83983354Y-93730744D01*
X84128942Y-93791049D01*
X84259969Y-93878598D01*
X84371402Y-93990031D01*
X84458951Y-94121058D01*
X84519256Y-94266646D01*
X84550000Y-94421209D01*
X84550000Y-94578791D01*
X84519256Y-94733354D01*
X84458951Y-94878942D01*
X84371402Y-95009969D01*
X84259969Y-95121402D01*
X84128942Y-95208951D01*
X83983354Y-95269256D01*
X83983353Y-95269256D01*
X83983351Y-95269257D01*
X83828793Y-95300000D01*
X83671207Y-95300000D01*
X83516649Y-95269257D01*
X83516647Y-95269256D01*
X83516646Y-95269256D01*
X83371058Y-95208951D01*
X83240031Y-95121402D01*
X83128598Y-95009969D01*
X83041049Y-94878942D01*
X82980744Y-94733354D01*
X82950000Y-94578791D01*
X82950000Y-94421209D01*
X82980744Y-94266646D01*
X83041049Y-94121058D01*
X83128598Y-93990031D01*
X83240031Y-93878598D01*
X83371058Y-93791049D01*
X83516646Y-93730744D01*
X83516647Y-93730744D01*
X83516649Y-93730743D01*
X83671207Y-93700000D01*
X83828793Y-93700000D01*
X83983351Y-93730743D01*
X83983351Y-93730743D01*
G37*
G36*
X77983351Y-93730743D02*
X77983353Y-93730744D01*
X77983354Y-93730744D01*
X78128942Y-93791049D01*
X78259969Y-93878598D01*
X78371402Y-93990031D01*
X78458951Y-94121058D01*
X78519256Y-94266646D01*
X78550000Y-94421209D01*
X78550000Y-94578791D01*
X78519256Y-94733354D01*
X78458951Y-94878942D01*
X78371402Y-95009969D01*
X78259969Y-95121402D01*
X78128942Y-95208951D01*
X77983354Y-95269256D01*
X77983353Y-95269256D01*
X77983351Y-95269257D01*
X77828793Y-95300000D01*
X77671207Y-95300000D01*
X77516649Y-95269257D01*
X77516647Y-95269256D01*
X77516646Y-95269256D01*
X77371058Y-95208951D01*
X77240031Y-95121402D01*
X77128598Y-95009969D01*
X77041049Y-94878942D01*
X76980744Y-94733354D01*
X76950000Y-94578791D01*
X76950000Y-94421209D01*
X76980744Y-94266646D01*
X77041049Y-94121058D01*
X77128598Y-93990031D01*
X77240031Y-93878598D01*
X77371058Y-93791049D01*
X77516646Y-93730744D01*
X77516647Y-93730744D01*
X77516649Y-93730743D01*
X77671207Y-93700000D01*
X77828793Y-93700000D01*
X77983351Y-93730743D01*
X77983351Y-93730743D01*
G37*
G36*
X71983351Y-93730743D02*
X71983353Y-93730744D01*
X71983354Y-93730744D01*
X72128942Y-93791049D01*
X72259969Y-93878598D01*
X72371402Y-93990031D01*
X72458951Y-94121058D01*
X72519256Y-94266646D01*
X72550000Y-94421209D01*
X72550000Y-94578791D01*
X72519256Y-94733354D01*
X72458951Y-94878942D01*
X72371402Y-95009969D01*
X72259969Y-95121402D01*
X72128942Y-95208951D01*
X71983354Y-95269256D01*
X71983353Y-95269256D01*
X71983351Y-95269257D01*
X71828793Y-95300000D01*
X71671207Y-95300000D01*
X71516649Y-95269257D01*
X71516647Y-95269256D01*
X71516646Y-95269256D01*
X71371058Y-95208951D01*
X71240031Y-95121402D01*
X71128598Y-95009969D01*
X71041049Y-94878942D01*
X70980744Y-94733354D01*
X70950000Y-94578791D01*
X70950000Y-94421209D01*
X70980744Y-94266646D01*
X71041049Y-94121058D01*
X71128598Y-93990031D01*
X71240031Y-93878598D01*
X71371058Y-93791049D01*
X71516646Y-93730744D01*
X71516647Y-93730744D01*
X71516649Y-93730743D01*
X71671207Y-93700000D01*
X71828793Y-93700000D01*
X71983351Y-93730743D01*
X71983351Y-93730743D01*
G37*
G36*
X68983351Y-93730743D02*
X68983353Y-93730744D01*
X68983354Y-93730744D01*
X69128942Y-93791049D01*
X69259969Y-93878598D01*
X69371402Y-93990031D01*
X69458951Y-94121058D01*
X69519256Y-94266646D01*
X69550000Y-94421209D01*
X69550000Y-94578791D01*
X69519256Y-94733354D01*
X69458951Y-94878942D01*
X69371402Y-95009969D01*
X69259969Y-95121402D01*
X69128942Y-95208951D01*
X68983354Y-95269256D01*
X68983353Y-95269256D01*
X68983351Y-95269257D01*
X68828793Y-95300000D01*
X68671207Y-95300000D01*
X68516649Y-95269257D01*
X68516647Y-95269256D01*
X68516646Y-95269256D01*
X68371058Y-95208951D01*
X68240031Y-95121402D01*
X68128598Y-95009969D01*
X68041049Y-94878942D01*
X67980744Y-94733354D01*
X67950000Y-94578791D01*
X67950000Y-94421209D01*
X67980744Y-94266646D01*
X68041049Y-94121058D01*
X68128598Y-93990031D01*
X68240031Y-93878598D01*
X68371058Y-93791049D01*
X68516646Y-93730744D01*
X68516647Y-93730744D01*
X68516649Y-93730743D01*
X68671207Y-93700000D01*
X68828793Y-93700000D01*
X68983351Y-93730743D01*
X68983351Y-93730743D01*
G37*
G36*
X65983351Y-93730743D02*
X65983353Y-93730744D01*
X65983354Y-93730744D01*
X66128942Y-93791049D01*
X66259969Y-93878598D01*
X66371402Y-93990031D01*
X66458951Y-94121058D01*
X66519256Y-94266646D01*
X66550000Y-94421209D01*
X66550000Y-94578791D01*
X66519256Y-94733354D01*
X66458951Y-94878942D01*
X66371402Y-95009969D01*
X66259969Y-95121402D01*
X66128942Y-95208951D01*
X65983354Y-95269256D01*
X65983353Y-95269256D01*
X65983351Y-95269257D01*
X65828793Y-95300000D01*
X65671207Y-95300000D01*
X65516649Y-95269257D01*
X65516647Y-95269256D01*
X65516646Y-95269256D01*
X65371058Y-95208951D01*
X65240031Y-95121402D01*
X65128598Y-95009969D01*
X65041049Y-94878942D01*
X64980744Y-94733354D01*
X64950000Y-94578791D01*
X64950000Y-94421209D01*
X64980744Y-94266646D01*
X65041049Y-94121058D01*
X65128598Y-93990031D01*
X65240031Y-93878598D01*
X65371058Y-93791049D01*
X65516646Y-93730744D01*
X65516647Y-93730744D01*
X65516649Y-93730743D01*
X65671207Y-93700000D01*
X65828793Y-93700000D01*
X65983351Y-93730743D01*
X65983351Y-93730743D01*
G37*
G36*
X80983351Y-93730743D02*
X80983353Y-93730744D01*
X80983354Y-93730744D01*
X81128942Y-93791049D01*
X81259969Y-93878598D01*
X81371402Y-93990031D01*
X81458951Y-94121058D01*
X81519256Y-94266646D01*
X81550000Y-94421209D01*
X81550000Y-94578791D01*
X81519256Y-94733354D01*
X81458951Y-94878942D01*
X81371402Y-95009969D01*
X81259969Y-95121402D01*
X81128942Y-95208951D01*
X80983354Y-95269256D01*
X80983353Y-95269256D01*
X80983351Y-95269257D01*
X80828793Y-95300000D01*
X80671207Y-95300000D01*
X80516649Y-95269257D01*
X80516647Y-95269256D01*
X80516646Y-95269256D01*
X80371058Y-95208951D01*
X80240031Y-95121402D01*
X80128598Y-95009969D01*
X80041049Y-94878942D01*
X79980744Y-94733354D01*
X79950000Y-94578791D01*
X79950000Y-94421209D01*
X79980744Y-94266646D01*
X80041049Y-94121058D01*
X80128598Y-93990031D01*
X80240031Y-93878598D01*
X80371058Y-93791049D01*
X80516646Y-93730744D01*
X80516647Y-93730744D01*
X80516649Y-93730743D01*
X80671207Y-93700000D01*
X80828793Y-93700000D01*
X80983351Y-93730743D01*
X80983351Y-93730743D01*
G37*
G36*
X89983351Y-93730743D02*
X89983353Y-93730744D01*
X89983354Y-93730744D01*
X90128942Y-93791049D01*
X90259969Y-93878598D01*
X90371402Y-93990031D01*
X90458951Y-94121058D01*
X90519256Y-94266646D01*
X90550000Y-94421209D01*
X90550000Y-94578791D01*
X90519256Y-94733354D01*
X90458951Y-94878942D01*
X90371402Y-95009969D01*
X90259969Y-95121402D01*
X90128942Y-95208951D01*
X89983354Y-95269256D01*
X89983353Y-95269256D01*
X89983351Y-95269257D01*
X89828793Y-95300000D01*
X89671207Y-95300000D01*
X89516649Y-95269257D01*
X89516647Y-95269256D01*
X89516646Y-95269256D01*
X89371058Y-95208951D01*
X89240031Y-95121402D01*
X89128598Y-95009969D01*
X89041049Y-94878942D01*
X88980744Y-94733354D01*
X88950000Y-94578791D01*
X88950000Y-94421209D01*
X88980744Y-94266646D01*
X89041049Y-94121058D01*
X89128598Y-93990031D01*
X89240031Y-93878598D01*
X89371058Y-93791049D01*
X89516646Y-93730744D01*
X89516647Y-93730744D01*
X89516649Y-93730743D01*
X89671207Y-93700000D01*
X89828793Y-93700000D01*
X89983351Y-93730743D01*
X89983351Y-93730743D01*
G37*
G36*
X125170885Y-84288387D02*
X125170887Y-84288388D01*
X125170888Y-84288388D01*
X125325507Y-84352433D01*
X125589459Y-84461766D01*
X125966165Y-84713473D01*
X126286527Y-85033835D01*
X126538234Y-85410541D01*
X126538234Y-85410542D01*
X126687665Y-85771298D01*
X126711613Y-85829115D01*
X126800000Y-86273470D01*
X126800000Y-86726530D01*
X126799700Y-86728039D01*
X126711612Y-87170888D01*
X126647567Y-87325507D01*
X126538234Y-87589459D01*
X126286527Y-87966165D01*
X125966165Y-88286527D01*
X125589459Y-88538234D01*
X125325507Y-88647567D01*
X125170888Y-88711612D01*
X125170887Y-88711612D01*
X125170885Y-88711613D01*
X124726530Y-88800000D01*
X124273470Y-88800000D01*
X123829115Y-88711613D01*
X123829113Y-88711612D01*
X123829112Y-88711612D01*
X123674493Y-88647567D01*
X123410541Y-88538234D01*
X123033835Y-88286527D01*
X122713473Y-87966165D01*
X122461766Y-87589459D01*
X122352433Y-87325507D01*
X122288388Y-87170888D01*
X122200301Y-86728039D01*
X122200000Y-86726530D01*
X122200000Y-86273470D01*
X122288387Y-85829115D01*
X122312336Y-85771298D01*
X122461766Y-85410542D01*
X122461766Y-85410541D01*
X122713473Y-85033835D01*
X123033835Y-84713473D01*
X123410541Y-84461766D01*
X123674493Y-84352433D01*
X123829112Y-84288388D01*
X123829113Y-84288388D01*
X123829115Y-84288387D01*
X124273470Y-84200000D01*
X124726530Y-84200000D01*
X125170885Y-84288387D01*
X125170885Y-84288387D01*
G37*
G36*
X51170885Y-84288387D02*
X51170887Y-84288388D01*
X51170888Y-84288388D01*
X51325507Y-84352433D01*
X51589459Y-84461766D01*
X51966165Y-84713473D01*
X52286527Y-85033835D01*
X52538234Y-85410541D01*
X52538234Y-85410542D01*
X52687665Y-85771298D01*
X52711613Y-85829115D01*
X52800000Y-86273470D01*
X52800000Y-86726530D01*
X52799700Y-86728039D01*
X52711612Y-87170888D01*
X52647567Y-87325507D01*
X52538234Y-87589459D01*
X52286527Y-87966165D01*
X51966165Y-88286527D01*
X51589459Y-88538234D01*
X51325507Y-88647567D01*
X51170888Y-88711612D01*
X51170887Y-88711612D01*
X51170885Y-88711613D01*
X50726530Y-88800000D01*
X50273470Y-88800000D01*
X49829115Y-88711613D01*
X49829113Y-88711612D01*
X49829112Y-88711612D01*
X49674493Y-88647567D01*
X49410541Y-88538234D01*
X49033835Y-88286527D01*
X48713473Y-87966165D01*
X48461766Y-87589459D01*
X48352433Y-87325507D01*
X48288388Y-87170888D01*
X48200301Y-86728039D01*
X48200000Y-86726530D01*
X48200000Y-86273470D01*
X48288387Y-85829115D01*
X48312336Y-85771298D01*
X48461766Y-85410542D01*
X48461766Y-85410541D01*
X48713473Y-85033835D01*
X49033835Y-84713473D01*
X49410541Y-84461766D01*
X49674493Y-84352433D01*
X49829112Y-84288388D01*
X49829113Y-84288388D01*
X49829115Y-84288387D01*
X50273470Y-84200000D01*
X50726530Y-84200000D01*
X51170885Y-84288387D01*
X51170885Y-84288387D01*
G37*
G36*
X59929196Y-85349958D02*
X59929198Y-85349959D01*
X59929199Y-85349959D01*
X60165781Y-85447955D01*
X60378702Y-85590224D01*
X60559776Y-85771298D01*
X60702045Y-85984219D01*
X60800042Y-86220804D01*
X60850000Y-86471961D01*
X60850000Y-86728039D01*
X60800042Y-86979196D01*
X60702045Y-87215781D01*
X60559776Y-87428702D01*
X60378702Y-87609776D01*
X60165781Y-87752045D01*
X59929199Y-87850041D01*
X59929198Y-87850041D01*
X59929196Y-87850042D01*
X59678039Y-87900000D01*
X59421961Y-87900000D01*
X59170804Y-87850042D01*
X59170802Y-87850041D01*
X59170801Y-87850041D01*
X58934219Y-87752045D01*
X58721298Y-87609776D01*
X58540224Y-87428702D01*
X58397955Y-87215781D01*
X58299958Y-86979196D01*
X58250000Y-86728039D01*
X58250000Y-86471961D01*
X58299958Y-86220804D01*
X58397955Y-85984219D01*
X58540224Y-85771298D01*
X58721298Y-85590224D01*
X58934219Y-85447955D01*
X59170801Y-85349959D01*
X59170802Y-85349959D01*
X59170804Y-85349958D01*
X59421961Y-85300000D01*
X59678039Y-85300000D01*
X59929196Y-85349958D01*
X59929196Y-85349958D01*
G37*
G36*
X115829196Y-85349958D02*
X115829198Y-85349959D01*
X115829199Y-85349959D01*
X116065781Y-85447955D01*
X116278702Y-85590224D01*
X116459776Y-85771298D01*
X116602045Y-85984219D01*
X116700042Y-86220804D01*
X116750000Y-86471961D01*
X116750000Y-86728039D01*
X116700042Y-86979196D01*
X116602045Y-87215781D01*
X116459776Y-87428702D01*
X116278702Y-87609776D01*
X116065781Y-87752045D01*
X115829199Y-87850041D01*
X115829198Y-87850041D01*
X115829196Y-87850042D01*
X115578039Y-87900000D01*
X115321961Y-87900000D01*
X115070804Y-87850042D01*
X115070802Y-87850041D01*
X115070801Y-87850041D01*
X114834219Y-87752045D01*
X114621298Y-87609776D01*
X114440224Y-87428702D01*
X114297955Y-87215781D01*
X114199958Y-86979196D01*
X114150000Y-86728039D01*
X114150000Y-86471961D01*
X114199958Y-86220804D01*
X114297955Y-85984219D01*
X114440224Y-85771298D01*
X114621298Y-85590224D01*
X114834219Y-85447955D01*
X115070801Y-85349959D01*
X115070802Y-85349959D01*
X115070804Y-85349958D01*
X115321961Y-85300000D01*
X115578039Y-85300000D01*
X115829196Y-85349958D01*
X115829196Y-85349958D01*
G37*
M02*
