G04 #@! TF.GenerationSoftware,KiCad,Pcbnew,5.1.6-c6e7f7d~86~ubuntu20.04.1*
G04 #@! TF.CreationDate,2020-05-17T15:58:24+03:00*
G04 #@! TF.ProjectId,GB-BRK-SLOT-A,47422d42-524b-42d5-934c-4f542d412e6b,v1.1*
G04 #@! TF.SameCoordinates,Original*
G04 #@! TF.FileFunction,Soldermask,Top*
G04 #@! TF.FilePolarity,Negative*
%FSLAX46Y46*%
G04 Gerber Fmt 4.6, Leading zero omitted, Abs format (unit mm)*
G04 Created by KiCad (PCBNEW 5.1.6-c6e7f7d~86~ubuntu20.04.1) date 2020-05-17 15:58:24*
%MOMM*%
%LPD*%
G01*
G04 APERTURE LIST*
G04 #@! TA.AperFunction,Profile*
%ADD10C,0.150000*%
G04 #@! TD*
%ADD11O,1.700000X1.700000*%
%ADD12R,1.700000X1.700000*%
%ADD13C,4.600000*%
%ADD14C,2.600000*%
%ADD15R,1.400000X1.400000*%
%ADD16C,1.600000*%
%ADD17C,0.800000*%
%ADD18C,6.400000*%
G04 APERTURE END LIST*
D10*
X128000000Y-148000000D02*
G75*
G02*
X126000000Y-150000000I-2000000J0D01*
G01*
X49000000Y-150000000D02*
G75*
G02*
X47000000Y-148000000I0J2000000D01*
G01*
X47000000Y-72000000D02*
G75*
G02*
X49000000Y-70000000I2000000J0D01*
G01*
X126000000Y-70000000D02*
G75*
G02*
X128000000Y-72000000I0J-2000000D01*
G01*
X128000000Y-72000000D02*
X128000000Y-148000000D01*
X49000000Y-70000000D02*
X126000000Y-70000000D01*
X49000000Y-150000000D02*
X126000000Y-150000000D01*
X47000000Y-72000000D02*
X47000000Y-148000000D01*
D11*
X58300000Y-100760000D03*
D12*
X58300000Y-103300000D03*
G36*
G01*
X63625000Y-102465000D02*
X64875000Y-102465000D01*
G75*
G02*
X65125000Y-102715000I0J-250000D01*
G01*
X65125000Y-103640000D01*
G75*
G02*
X64875000Y-103890000I-250000J0D01*
G01*
X63625000Y-103890000D01*
G75*
G02*
X63375000Y-103640000I0J250000D01*
G01*
X63375000Y-102715000D01*
G75*
G02*
X63625000Y-102465000I250000J0D01*
G01*
G37*
G36*
G01*
X63625000Y-99490000D02*
X64875000Y-99490000D01*
G75*
G02*
X65125000Y-99740000I0J-250000D01*
G01*
X65125000Y-100665000D01*
G75*
G02*
X64875000Y-100915000I-250000J0D01*
G01*
X63625000Y-100915000D01*
G75*
G02*
X63375000Y-100665000I0J250000D01*
G01*
X63375000Y-99740000D01*
G75*
G02*
X63625000Y-99490000I250000J0D01*
G01*
G37*
G36*
G01*
X65350000Y-148656250D02*
X65350000Y-148143750D01*
G75*
G02*
X65568750Y-147925000I218750J0D01*
G01*
X66006250Y-147925000D01*
G75*
G02*
X66225000Y-148143750I0J-218750D01*
G01*
X66225000Y-148656250D01*
G75*
G02*
X66006250Y-148875000I-218750J0D01*
G01*
X65568750Y-148875000D01*
G75*
G02*
X65350000Y-148656250I0J218750D01*
G01*
G37*
G36*
G01*
X63775000Y-148656250D02*
X63775000Y-148143750D01*
G75*
G02*
X63993750Y-147925000I218750J0D01*
G01*
X64431250Y-147925000D01*
G75*
G02*
X64650000Y-148143750I0J-218750D01*
G01*
X64650000Y-148656250D01*
G75*
G02*
X64431250Y-148875000I-218750J0D01*
G01*
X63993750Y-148875000D01*
G75*
G02*
X63775000Y-148656250I0J218750D01*
G01*
G37*
D11*
X106550000Y-117460000D03*
X106550000Y-120000000D03*
X104010000Y-117460000D03*
X104010000Y-120000000D03*
X101470000Y-117460000D03*
X101470000Y-120000000D03*
X98930000Y-117460000D03*
X98930000Y-120000000D03*
X96390000Y-117460000D03*
X96390000Y-120000000D03*
X93850000Y-117460000D03*
X93850000Y-120000000D03*
X91310000Y-117460000D03*
X91310000Y-120000000D03*
X88770000Y-117460000D03*
X88770000Y-120000000D03*
X86230000Y-117460000D03*
X86230000Y-120000000D03*
X83690000Y-117460000D03*
X83690000Y-120000000D03*
X81150000Y-117460000D03*
X81150000Y-120000000D03*
X78610000Y-117460000D03*
X78610000Y-120000000D03*
X76070000Y-117460000D03*
X76070000Y-120000000D03*
X73530000Y-117460000D03*
X73530000Y-120000000D03*
X70990000Y-117460000D03*
X70990000Y-120000000D03*
X68450000Y-117460000D03*
D12*
X68450000Y-120000000D03*
G36*
G01*
X65350000Y-147056250D02*
X65350000Y-146543750D01*
G75*
G02*
X65568750Y-146325000I218750J0D01*
G01*
X66006250Y-146325000D01*
G75*
G02*
X66225000Y-146543750I0J-218750D01*
G01*
X66225000Y-147056250D01*
G75*
G02*
X66006250Y-147275000I-218750J0D01*
G01*
X65568750Y-147275000D01*
G75*
G02*
X65350000Y-147056250I0J218750D01*
G01*
G37*
G36*
G01*
X63775000Y-147056250D02*
X63775000Y-146543750D01*
G75*
G02*
X63993750Y-146325000I218750J0D01*
G01*
X64431250Y-146325000D01*
G75*
G02*
X64650000Y-146543750I0J-218750D01*
G01*
X64650000Y-147056250D01*
G75*
G02*
X64431250Y-147275000I-218750J0D01*
G01*
X63993750Y-147275000D01*
G75*
G02*
X63775000Y-147056250I0J218750D01*
G01*
G37*
G36*
G01*
X66225000Y-131975000D02*
X66225000Y-133225000D01*
G75*
G02*
X65975000Y-133475000I-250000J0D01*
G01*
X65225000Y-133475000D01*
G75*
G02*
X64975000Y-133225000I0J250000D01*
G01*
X64975000Y-131975000D01*
G75*
G02*
X65225000Y-131725000I250000J0D01*
G01*
X65975000Y-131725000D01*
G75*
G02*
X66225000Y-131975000I0J-250000D01*
G01*
G37*
G36*
G01*
X69025000Y-131975000D02*
X69025000Y-133225000D01*
G75*
G02*
X68775000Y-133475000I-250000J0D01*
G01*
X68025000Y-133475000D01*
G75*
G02*
X67775000Y-133225000I0J250000D01*
G01*
X67775000Y-131975000D01*
G75*
G02*
X68025000Y-131725000I250000J0D01*
G01*
X68775000Y-131725000D01*
G75*
G02*
X69025000Y-131975000I0J-250000D01*
G01*
G37*
G36*
G01*
X67250000Y-128843750D02*
X67250000Y-129356250D01*
G75*
G02*
X67031250Y-129575000I-218750J0D01*
G01*
X66593750Y-129575000D01*
G75*
G02*
X66375000Y-129356250I0J218750D01*
G01*
X66375000Y-128843750D01*
G75*
G02*
X66593750Y-128625000I218750J0D01*
G01*
X67031250Y-128625000D01*
G75*
G02*
X67250000Y-128843750I0J-218750D01*
G01*
G37*
G36*
G01*
X68825000Y-128843750D02*
X68825000Y-129356250D01*
G75*
G02*
X68606250Y-129575000I-218750J0D01*
G01*
X68168750Y-129575000D01*
G75*
G02*
X67950000Y-129356250I0J218750D01*
G01*
X67950000Y-128843750D01*
G75*
G02*
X68168750Y-128625000I218750J0D01*
G01*
X68606250Y-128625000D01*
G75*
G02*
X68825000Y-128843750I0J-218750D01*
G01*
G37*
D11*
X106550000Y-138730000D03*
X106550000Y-141270000D03*
X104010000Y-138730000D03*
X104010000Y-141270000D03*
X101470000Y-138730000D03*
X101470000Y-141270000D03*
X98930000Y-138730000D03*
X98930000Y-141270000D03*
X96390000Y-138730000D03*
X96390000Y-141270000D03*
X93850000Y-138730000D03*
X93850000Y-141270000D03*
X91310000Y-138730000D03*
X91310000Y-141270000D03*
X88770000Y-138730000D03*
X88770000Y-141270000D03*
X86230000Y-138730000D03*
X86230000Y-141270000D03*
X83690000Y-138730000D03*
X83690000Y-141270000D03*
X81150000Y-138730000D03*
X81150000Y-141270000D03*
X78610000Y-138730000D03*
X78610000Y-141270000D03*
X76070000Y-138730000D03*
X76070000Y-141270000D03*
X73530000Y-138730000D03*
X73530000Y-141270000D03*
X70990000Y-138730000D03*
X70990000Y-141270000D03*
X68450000Y-138730000D03*
D12*
X68450000Y-141270000D03*
G36*
G01*
X101350000Y-148656250D02*
X101350000Y-148143750D01*
G75*
G02*
X101568750Y-147925000I218750J0D01*
G01*
X102006250Y-147925000D01*
G75*
G02*
X102225000Y-148143750I0J-218750D01*
G01*
X102225000Y-148656250D01*
G75*
G02*
X102006250Y-148875000I-218750J0D01*
G01*
X101568750Y-148875000D01*
G75*
G02*
X101350000Y-148656250I0J218750D01*
G01*
G37*
G36*
G01*
X99775000Y-148656250D02*
X99775000Y-148143750D01*
G75*
G02*
X99993750Y-147925000I218750J0D01*
G01*
X100431250Y-147925000D01*
G75*
G02*
X100650000Y-148143750I0J-218750D01*
G01*
X100650000Y-148656250D01*
G75*
G02*
X100431250Y-148875000I-218750J0D01*
G01*
X99993750Y-148875000D01*
G75*
G02*
X99775000Y-148656250I0J218750D01*
G01*
G37*
G36*
G01*
X74350000Y-148656250D02*
X74350000Y-148143750D01*
G75*
G02*
X74568750Y-147925000I218750J0D01*
G01*
X75006250Y-147925000D01*
G75*
G02*
X75225000Y-148143750I0J-218750D01*
G01*
X75225000Y-148656250D01*
G75*
G02*
X75006250Y-148875000I-218750J0D01*
G01*
X74568750Y-148875000D01*
G75*
G02*
X74350000Y-148656250I0J218750D01*
G01*
G37*
G36*
G01*
X72775000Y-148656250D02*
X72775000Y-148143750D01*
G75*
G02*
X72993750Y-147925000I218750J0D01*
G01*
X73431250Y-147925000D01*
G75*
G02*
X73650000Y-148143750I0J-218750D01*
G01*
X73650000Y-148656250D01*
G75*
G02*
X73431250Y-148875000I-218750J0D01*
G01*
X72993750Y-148875000D01*
G75*
G02*
X72775000Y-148656250I0J218750D01*
G01*
G37*
G36*
G01*
X83350000Y-148656250D02*
X83350000Y-148143750D01*
G75*
G02*
X83568750Y-147925000I218750J0D01*
G01*
X84006250Y-147925000D01*
G75*
G02*
X84225000Y-148143750I0J-218750D01*
G01*
X84225000Y-148656250D01*
G75*
G02*
X84006250Y-148875000I-218750J0D01*
G01*
X83568750Y-148875000D01*
G75*
G02*
X83350000Y-148656250I0J218750D01*
G01*
G37*
G36*
G01*
X81775000Y-148656250D02*
X81775000Y-148143750D01*
G75*
G02*
X81993750Y-147925000I218750J0D01*
G01*
X82431250Y-147925000D01*
G75*
G02*
X82650000Y-148143750I0J-218750D01*
G01*
X82650000Y-148656250D01*
G75*
G02*
X82431250Y-148875000I-218750J0D01*
G01*
X81993750Y-148875000D01*
G75*
G02*
X81775000Y-148656250I0J218750D01*
G01*
G37*
G36*
G01*
X92350000Y-148656250D02*
X92350000Y-148143750D01*
G75*
G02*
X92568750Y-147925000I218750J0D01*
G01*
X93006250Y-147925000D01*
G75*
G02*
X93225000Y-148143750I0J-218750D01*
G01*
X93225000Y-148656250D01*
G75*
G02*
X93006250Y-148875000I-218750J0D01*
G01*
X92568750Y-148875000D01*
G75*
G02*
X92350000Y-148656250I0J218750D01*
G01*
G37*
G36*
G01*
X90775000Y-148656250D02*
X90775000Y-148143750D01*
G75*
G02*
X90993750Y-147925000I218750J0D01*
G01*
X91431250Y-147925000D01*
G75*
G02*
X91650000Y-148143750I0J-218750D01*
G01*
X91650000Y-148656250D01*
G75*
G02*
X91431250Y-148875000I-218750J0D01*
G01*
X90993750Y-148875000D01*
G75*
G02*
X90775000Y-148656250I0J218750D01*
G01*
G37*
G36*
G01*
X110350000Y-148656250D02*
X110350000Y-148143750D01*
G75*
G02*
X110568750Y-147925000I218750J0D01*
G01*
X111006250Y-147925000D01*
G75*
G02*
X111225000Y-148143750I0J-218750D01*
G01*
X111225000Y-148656250D01*
G75*
G02*
X111006250Y-148875000I-218750J0D01*
G01*
X110568750Y-148875000D01*
G75*
G02*
X110350000Y-148656250I0J218750D01*
G01*
G37*
G36*
G01*
X108775000Y-148656250D02*
X108775000Y-148143750D01*
G75*
G02*
X108993750Y-147925000I218750J0D01*
G01*
X109431250Y-147925000D01*
G75*
G02*
X109650000Y-148143750I0J-218750D01*
G01*
X109650000Y-148656250D01*
G75*
G02*
X109431250Y-148875000I-218750J0D01*
G01*
X108993750Y-148875000D01*
G75*
G02*
X108775000Y-148656250I0J218750D01*
G01*
G37*
G36*
G01*
X101350000Y-147056250D02*
X101350000Y-146543750D01*
G75*
G02*
X101568750Y-146325000I218750J0D01*
G01*
X102006250Y-146325000D01*
G75*
G02*
X102225000Y-146543750I0J-218750D01*
G01*
X102225000Y-147056250D01*
G75*
G02*
X102006250Y-147275000I-218750J0D01*
G01*
X101568750Y-147275000D01*
G75*
G02*
X101350000Y-147056250I0J218750D01*
G01*
G37*
G36*
G01*
X99775000Y-147056250D02*
X99775000Y-146543750D01*
G75*
G02*
X99993750Y-146325000I218750J0D01*
G01*
X100431250Y-146325000D01*
G75*
G02*
X100650000Y-146543750I0J-218750D01*
G01*
X100650000Y-147056250D01*
G75*
G02*
X100431250Y-147275000I-218750J0D01*
G01*
X99993750Y-147275000D01*
G75*
G02*
X99775000Y-147056250I0J218750D01*
G01*
G37*
G36*
G01*
X74350000Y-147056250D02*
X74350000Y-146543750D01*
G75*
G02*
X74568750Y-146325000I218750J0D01*
G01*
X75006250Y-146325000D01*
G75*
G02*
X75225000Y-146543750I0J-218750D01*
G01*
X75225000Y-147056250D01*
G75*
G02*
X75006250Y-147275000I-218750J0D01*
G01*
X74568750Y-147275000D01*
G75*
G02*
X74350000Y-147056250I0J218750D01*
G01*
G37*
G36*
G01*
X72775000Y-147056250D02*
X72775000Y-146543750D01*
G75*
G02*
X72993750Y-146325000I218750J0D01*
G01*
X73431250Y-146325000D01*
G75*
G02*
X73650000Y-146543750I0J-218750D01*
G01*
X73650000Y-147056250D01*
G75*
G02*
X73431250Y-147275000I-218750J0D01*
G01*
X72993750Y-147275000D01*
G75*
G02*
X72775000Y-147056250I0J218750D01*
G01*
G37*
G36*
G01*
X83350000Y-147056250D02*
X83350000Y-146543750D01*
G75*
G02*
X83568750Y-146325000I218750J0D01*
G01*
X84006250Y-146325000D01*
G75*
G02*
X84225000Y-146543750I0J-218750D01*
G01*
X84225000Y-147056250D01*
G75*
G02*
X84006250Y-147275000I-218750J0D01*
G01*
X83568750Y-147275000D01*
G75*
G02*
X83350000Y-147056250I0J218750D01*
G01*
G37*
G36*
G01*
X81775000Y-147056250D02*
X81775000Y-146543750D01*
G75*
G02*
X81993750Y-146325000I218750J0D01*
G01*
X82431250Y-146325000D01*
G75*
G02*
X82650000Y-146543750I0J-218750D01*
G01*
X82650000Y-147056250D01*
G75*
G02*
X82431250Y-147275000I-218750J0D01*
G01*
X81993750Y-147275000D01*
G75*
G02*
X81775000Y-147056250I0J218750D01*
G01*
G37*
G36*
G01*
X92350000Y-147056250D02*
X92350000Y-146543750D01*
G75*
G02*
X92568750Y-146325000I218750J0D01*
G01*
X93006250Y-146325000D01*
G75*
G02*
X93225000Y-146543750I0J-218750D01*
G01*
X93225000Y-147056250D01*
G75*
G02*
X93006250Y-147275000I-218750J0D01*
G01*
X92568750Y-147275000D01*
G75*
G02*
X92350000Y-147056250I0J218750D01*
G01*
G37*
G36*
G01*
X90775000Y-147056250D02*
X90775000Y-146543750D01*
G75*
G02*
X90993750Y-146325000I218750J0D01*
G01*
X91431250Y-146325000D01*
G75*
G02*
X91650000Y-146543750I0J-218750D01*
G01*
X91650000Y-147056250D01*
G75*
G02*
X91431250Y-147275000I-218750J0D01*
G01*
X90993750Y-147275000D01*
G75*
G02*
X90775000Y-147056250I0J218750D01*
G01*
G37*
G36*
G01*
X110350000Y-147056250D02*
X110350000Y-146543750D01*
G75*
G02*
X110568750Y-146325000I218750J0D01*
G01*
X111006250Y-146325000D01*
G75*
G02*
X111225000Y-146543750I0J-218750D01*
G01*
X111225000Y-147056250D01*
G75*
G02*
X111006250Y-147275000I-218750J0D01*
G01*
X110568750Y-147275000D01*
G75*
G02*
X110350000Y-147056250I0J218750D01*
G01*
G37*
G36*
G01*
X108775000Y-147056250D02*
X108775000Y-146543750D01*
G75*
G02*
X108993750Y-146325000I218750J0D01*
G01*
X109431250Y-146325000D01*
G75*
G02*
X109650000Y-146543750I0J-218750D01*
G01*
X109650000Y-147056250D01*
G75*
G02*
X109431250Y-147275000I-218750J0D01*
G01*
X108993750Y-147275000D01*
G75*
G02*
X108775000Y-147056250I0J218750D01*
G01*
G37*
D13*
X124500000Y-86500000D03*
X50500000Y-86500000D03*
D14*
X59550000Y-86600000D03*
X115450000Y-86600000D03*
D13*
X56700000Y-93200000D03*
X118300000Y-93200000D03*
D15*
X64250000Y-96000000D03*
D16*
X65750000Y-94500000D03*
X67250000Y-96000000D03*
X68750000Y-94500000D03*
X70250000Y-96000000D03*
X71750000Y-94500000D03*
X73250000Y-96000000D03*
X74750000Y-94500000D03*
X76250000Y-96000000D03*
X77750000Y-94500000D03*
X79250000Y-96000000D03*
X80750000Y-94500000D03*
X82250000Y-96000000D03*
X83750000Y-94500000D03*
X85250000Y-96000000D03*
X86750000Y-94500000D03*
X88250000Y-96000000D03*
X89750000Y-94500000D03*
X91250000Y-96000000D03*
X92750000Y-94500000D03*
X94250000Y-96000000D03*
X95750000Y-94500000D03*
X97250000Y-96000000D03*
X98750000Y-94500000D03*
X100250000Y-96000000D03*
X101750000Y-94500000D03*
X103250000Y-96000000D03*
X104750000Y-94500000D03*
X106250000Y-96000000D03*
X107750000Y-94500000D03*
X109250000Y-96000000D03*
X110750000Y-94500000D03*
D11*
X56170000Y-121960000D03*
X58710000Y-121960000D03*
X56170000Y-124500000D03*
D12*
X58710000Y-124500000D03*
D17*
X64197056Y-108302944D03*
X62500000Y-107600000D03*
X60802944Y-108302944D03*
X60100000Y-110000000D03*
X60802944Y-111697056D03*
X62500000Y-112400000D03*
X64197056Y-111697056D03*
X64900000Y-110000000D03*
D18*
X62500000Y-110000000D03*
D17*
X114197056Y-108302944D03*
X112500000Y-107600000D03*
X110802944Y-108302944D03*
X110100000Y-110000000D03*
X110802944Y-111697056D03*
X112500000Y-112400000D03*
X114197056Y-111697056D03*
X114900000Y-110000000D03*
D18*
X112500000Y-110000000D03*
D17*
X64197056Y-138302944D03*
X62500000Y-137600000D03*
X60802944Y-138302944D03*
X60100000Y-140000000D03*
X60802944Y-141697056D03*
X62500000Y-142400000D03*
X64197056Y-141697056D03*
X64900000Y-140000000D03*
D18*
X62500000Y-140000000D03*
D17*
X114197056Y-138302944D03*
X112500000Y-137600000D03*
X110802944Y-138302944D03*
X110100000Y-140000000D03*
X110802944Y-141697056D03*
X112500000Y-142400000D03*
X114197056Y-141697056D03*
X114900000Y-140000000D03*
D18*
X112500000Y-140000000D03*
M02*
