M48
;DRILL file {KiCad 5.0.2-bee76a0~70~ubuntu18.10.1} date su  6. tammikuuta 2019 00.11.06
;FORMAT={-:-/ absolute / inch / decimal}
FMAT,2
INCH,TZ
T1C0.0157
T2C0.0197
T3C0.0315
T4C0.0394
T5C0.1260
%
G90
G05
T1
X2.7559Y-5.6929
X2.8583Y-4.3976
X2.9173Y-4.3268
X2.9213Y-4.3976
X2.9449Y-5.6969
X2.9803Y-4.3661
X3.252Y-5.6929
X3.3307Y-4.3504
X3.4094Y-4.3504
X3.4882Y-4.3504
X3.5669Y-4.3504
X3.5748Y-3.9094
X3.6181Y-3.9606
X3.6457Y-4.3543
X3.6732Y-4.0118
X3.7244Y-4.3543
X3.7283Y-4.063
X3.7677Y-3.8504
X3.7795Y-4.1181
X3.7953Y-3.9055
X3.8307Y-4.4134
X3.8346Y-4.1772
X3.8465Y-5.7283
X3.8543Y-3.9606
X3.8858Y-4.2362
X3.9016Y-4.311
X3.9094Y-4.0157
X3.9646Y-4.0709
X3.9961Y-4.3228
X4.0197Y-4.126
X4.0787Y-4.1811
X4.0945Y-4.3858
X4.1417Y-5.6929
X4.1457Y-4.2362
X4.189Y-4.2953
X4.2441Y-4.3425
T2
X4.3346Y-4.3307
X4.3623Y-4.2639
X4.3623Y-4.3975
X4.4291Y-4.2362
X4.4291Y-4.4252
X4.4959Y-4.2639
X4.4959Y-4.3975
X4.5236Y-4.3307
X4.3346Y-5.5118
X4.3623Y-5.445
X4.3623Y-5.5786
X4.4291Y-5.4173
X4.4291Y-5.6063
X4.4959Y-5.445
X4.4959Y-5.5786
X4.5236Y-5.5118
X2.3661Y-5.5118
X2.3938Y-5.445
X2.3938Y-5.5786
X2.4606Y-5.4173
X2.4606Y-5.6063
X2.5274Y-5.445
X2.5274Y-5.5786
X2.5551Y-5.5118
X2.3661Y-4.3307
X2.3938Y-4.2639
X2.3938Y-4.3975
X2.4606Y-4.2362
X2.4606Y-4.4252
X2.5274Y-4.2639
X2.5274Y-4.3975
X2.5551Y-4.3307
T3
X2.2638Y-5.8425
X2.5236Y-5.2205
X2.5748Y-5.0827
T4
X2.2953Y-3.9669
X2.2953Y-4.0669
X2.6949Y-4.6244
X2.6949Y-4.7244
X2.7949Y-4.6244
X2.7949Y-4.7244
X2.8949Y-4.6244
X2.8949Y-4.7244
X2.9949Y-4.6244
X2.9949Y-4.7244
X3.0949Y-4.6244
X3.0949Y-4.7244
X3.1949Y-4.6244
X3.1949Y-4.7244
X3.2949Y-4.6244
X3.2949Y-4.7244
X3.3949Y-4.6244
X3.3949Y-4.7244
X3.4949Y-4.6244
X3.4949Y-4.7244
X3.5949Y-4.6244
X3.5949Y-4.7244
X3.6949Y-4.6244
X3.6949Y-4.7244
X3.7949Y-4.6244
X3.7949Y-4.7244
X3.8949Y-4.6244
X3.8949Y-4.7244
X3.9949Y-4.6244
X3.9949Y-4.7244
X4.0949Y-4.6244
X4.0949Y-4.7244
X4.1949Y-4.6244
X4.1949Y-4.7244
X2.5295Y-3.7795
X2.5886Y-3.7205
X2.6476Y-3.7795
X2.7067Y-3.7205
X2.7657Y-3.7795
X2.8248Y-3.7205
X2.8839Y-3.7795
X2.9429Y-3.7205
X3.002Y-3.7795
X3.061Y-3.7205
X3.1201Y-3.7795
X3.1791Y-3.7205
X3.2382Y-3.7795
X3.2972Y-3.7205
X3.3563Y-3.7795
X3.4154Y-3.7205
X3.4744Y-3.7795
X3.5335Y-3.7205
X3.5925Y-3.7795
X3.6516Y-3.7205
X3.7106Y-3.7795
X3.7697Y-3.7205
X3.8287Y-3.7795
X3.8878Y-3.7205
X3.9469Y-3.7795
X4.0059Y-3.7205
X4.065Y-3.7795
X4.124Y-3.7205
X4.1831Y-3.7795
X4.2421Y-3.7205
X4.3012Y-3.7795
X4.3602Y-3.7205
X2.6949Y-5.4618
X2.6949Y-5.5618
X2.7949Y-5.4618
X2.7949Y-5.5618
X2.8949Y-5.4618
X2.8949Y-5.5618
X2.9949Y-5.4618
X2.9949Y-5.5618
X3.0949Y-5.4618
X3.0949Y-5.5618
X3.1949Y-5.4618
X3.1949Y-5.5618
X3.2949Y-5.4618
X3.2949Y-5.5618
X3.3949Y-5.4618
X3.3949Y-5.5618
X3.4949Y-5.4618
X3.4949Y-5.5618
X3.5949Y-5.4618
X3.5949Y-5.5618
X3.6949Y-5.4618
X3.6949Y-5.5618
X3.7949Y-5.4618
X3.7949Y-5.5618
X3.8949Y-5.4618
X3.8949Y-5.5618
X3.9949Y-5.4618
X3.9949Y-5.5618
X4.0949Y-5.4618
X4.0949Y-5.5618
X4.1949Y-5.4618
X4.1949Y-5.5618
X2.2114Y-4.8016
X2.2114Y-4.9016
X2.3114Y-4.8016
X2.3114Y-4.9016
T5
X4.4291Y-4.3307
X4.4291Y-5.5118
X2.4606Y-5.5118
X2.4606Y-4.3307
T0
M30
