G04 #@! TF.GenerationSoftware,KiCad,Pcbnew,5.0.0-rc3-unknown-101b68b~65~ubuntu18.04.1*
G04 #@! TF.CreationDate,2018-07-11T12:24:32+03:00*
G04 #@! TF.ProjectId,GB-BRK-CPU-G1,47422D42524B2D4350552D47312E6B69,v1.0*
G04 #@! TF.SameCoordinates,Original*
G04 #@! TF.FileFunction,Copper,L1,Top,Signal*
G04 #@! TF.FilePolarity,Positive*
%FSLAX46Y46*%
G04 Gerber Fmt 4.6, Leading zero omitted, Abs format (unit mm)*
G04 Created by KiCad (PCBNEW 5.0.0-rc3-unknown-101b68b~65~ubuntu18.04.1) date Wed Jul 11 12:24:32 2018*
%MOMM*%
%LPD*%
G01*
G04 APERTURE LIST*
G04 #@! TA.AperFunction,NonConductor*
%ADD10C,0.150000*%
G04 #@! TD*
G04 #@! TA.AperFunction,SMDPad,CuDef*
%ADD11R,0.500000X2.500000*%
G04 #@! TD*
G04 #@! TA.AperFunction,SMDPad,CuDef*
%ADD12R,2.500000X0.500000*%
G04 #@! TD*
G04 #@! TA.AperFunction,ComponentPad*
%ADD13C,0.800000*%
G04 #@! TD*
G04 #@! TA.AperFunction,ComponentPad*
%ADD14C,6.400000*%
G04 #@! TD*
G04 #@! TA.AperFunction,Conductor*
%ADD15C,0.100000*%
G04 #@! TD*
G04 #@! TA.AperFunction,SMDPad,CuDef*
%ADD16C,0.875000*%
G04 #@! TD*
G04 #@! TA.AperFunction,SMDPad,CuDef*
%ADD17C,0.975000*%
G04 #@! TD*
G04 #@! TA.AperFunction,SMDPad,CuDef*
%ADD18C,1.250000*%
G04 #@! TD*
G04 #@! TA.AperFunction,SMDPad,CuDef*
%ADD19C,0.300000*%
G04 #@! TD*
G04 #@! TA.AperFunction,ComponentPad*
%ADD20O,1.700000X1.700000*%
G04 #@! TD*
G04 #@! TA.AperFunction,ComponentPad*
%ADD21R,1.700000X1.700000*%
G04 #@! TD*
G04 #@! TA.AperFunction,ViaPad*
%ADD22C,0.800000*%
G04 #@! TD*
G04 #@! TA.AperFunction,Conductor*
%ADD23C,0.320000*%
G04 #@! TD*
G04 APERTURE END LIST*
D10*
X140000000Y-60000000D02*
X60000000Y-60000000D01*
X140000000Y-140000000D02*
X140000000Y-60000000D01*
X60000000Y-140000000D02*
X140000000Y-140000000D01*
X60000000Y-60000000D02*
X60000000Y-140000000D01*
D11*
G04 #@! TO.P,U1,80*
G04 #@! TO.N,/Pin_80*
X94000000Y-88350000D03*
G04 #@! TO.P,U1,79*
G04 #@! TO.N,/Pin_79*
X94800000Y-88350000D03*
G04 #@! TO.P,U1,78*
G04 #@! TO.N,/Pin_78*
X95600000Y-88350000D03*
G04 #@! TO.P,U1,77*
G04 #@! TO.N,/Pin_77*
X96400000Y-88350000D03*
G04 #@! TO.P,U1,76*
G04 #@! TO.N,/Pin_76*
X97200000Y-88350000D03*
G04 #@! TO.P,U1,75*
G04 #@! TO.N,/Pin_75*
X98000000Y-88350000D03*
G04 #@! TO.P,U1,74*
G04 #@! TO.N,/Pin_74*
X98800000Y-88350000D03*
G04 #@! TO.P,U1,73*
G04 #@! TO.N,/Pin_73*
X99600000Y-88350000D03*
G04 #@! TO.P,U1,72*
G04 #@! TO.N,/Pin_72*
X100400000Y-88350000D03*
G04 #@! TO.P,U1,71*
G04 #@! TO.N,/Pin_71*
X101200000Y-88350000D03*
G04 #@! TO.P,U1,70*
G04 #@! TO.N,/Pin_70*
X102000000Y-88350000D03*
G04 #@! TO.P,U1,69*
G04 #@! TO.N,/Pin_69*
X102800000Y-88350000D03*
G04 #@! TO.P,U1,68*
G04 #@! TO.N,/Pin_68*
X103600000Y-88350000D03*
G04 #@! TO.P,U1,67*
G04 #@! TO.N,/Pin_67*
X104400000Y-88350000D03*
G04 #@! TO.P,U1,66*
G04 #@! TO.N,/Pin_66*
X105200000Y-88350000D03*
D12*
G04 #@! TO.P,U1,64*
G04 #@! TO.N,/Pin_64*
X108600000Y-90800000D03*
G04 #@! TO.P,U1,63*
G04 #@! TO.N,/Pin_63*
X108600000Y-91600000D03*
G04 #@! TO.P,U1,62*
G04 #@! TO.N,/Pin_62*
X108600000Y-92400000D03*
G04 #@! TO.P,U1,61*
G04 #@! TO.N,/Pin_61*
X108600000Y-93200000D03*
G04 #@! TO.P,U1,60*
G04 #@! TO.N,/Pin_60*
X108600000Y-94000000D03*
G04 #@! TO.P,U1,59*
G04 #@! TO.N,/Pin_59*
X108600000Y-94800000D03*
G04 #@! TO.P,U1,58*
G04 #@! TO.N,/Pin_58*
X108600000Y-95600000D03*
G04 #@! TO.P,U1,57*
G04 #@! TO.N,/Pin_57*
X108600000Y-96400000D03*
G04 #@! TO.P,U1,56*
G04 #@! TO.N,/Pin_56*
X108600000Y-97200000D03*
G04 #@! TO.P,U1,55*
G04 #@! TO.N,/Pin_55*
X108600000Y-98000000D03*
G04 #@! TO.P,U1,54*
G04 #@! TO.N,/Pin_54*
X108600000Y-98800000D03*
G04 #@! TO.P,U1,53*
G04 #@! TO.N,/Pin_53*
X108600000Y-99600000D03*
G04 #@! TO.P,U1,52*
G04 #@! TO.N,/Pin_52*
X108600000Y-100400000D03*
G04 #@! TO.P,U1,51*
G04 #@! TO.N,/Pin_51*
X108600000Y-101200000D03*
G04 #@! TO.P,U1,50*
G04 #@! TO.N,/Pin_50*
X108600000Y-102000000D03*
G04 #@! TO.P,U1,49*
G04 #@! TO.N,/Pin_49*
X108600000Y-102800000D03*
G04 #@! TO.P,U1,48*
G04 #@! TO.N,/Pin_48*
X108600000Y-103600000D03*
G04 #@! TO.P,U1,47*
G04 #@! TO.N,/Pin_47*
X108600000Y-104400000D03*
G04 #@! TO.P,U1,46*
G04 #@! TO.N,/Pin_46*
X108600000Y-105200000D03*
G04 #@! TO.P,U1,45*
G04 #@! TO.N,/Pin_45*
X108600000Y-106000000D03*
G04 #@! TO.P,U1,44*
G04 #@! TO.N,/Pin_44*
X108600000Y-106800000D03*
G04 #@! TO.P,U1,43*
G04 #@! TO.N,/Pin_43*
X108600000Y-107600000D03*
G04 #@! TO.P,U1,42*
G04 #@! TO.N,/Pin_42*
X108600000Y-108400000D03*
D11*
G04 #@! TO.P,U1,40*
G04 #@! TO.N,/Pin_40*
X106000000Y-111650000D03*
G04 #@! TO.P,U1,39*
G04 #@! TO.N,/Pin_39*
X105200000Y-111650000D03*
G04 #@! TO.P,U1,38*
G04 #@! TO.N,/Pin_38*
X104400000Y-111650000D03*
G04 #@! TO.P,U1,37*
G04 #@! TO.N,/Pin_37*
X103600000Y-111650000D03*
G04 #@! TO.P,U1,36*
G04 #@! TO.N,/Pin_36*
X102800000Y-111650000D03*
G04 #@! TO.P,U1,35*
G04 #@! TO.N,/Pin_35*
X102000000Y-111650000D03*
G04 #@! TO.P,U1,34*
G04 #@! TO.N,/Pin_34*
X101200000Y-111650000D03*
G04 #@! TO.P,U1,33*
G04 #@! TO.N,/Pin_33*
X100400000Y-111650000D03*
G04 #@! TO.P,U1,32*
G04 #@! TO.N,/Pin_32*
X99600000Y-111650000D03*
G04 #@! TO.P,U1,31*
G04 #@! TO.N,/Pin_31*
X98800000Y-111650000D03*
G04 #@! TO.P,U1,30*
G04 #@! TO.N,/Pin_30*
X98000000Y-111650000D03*
G04 #@! TO.P,U1,29*
G04 #@! TO.N,/Pin_29*
X97200000Y-111650000D03*
G04 #@! TO.P,U1,28*
G04 #@! TO.N,/Pin_28*
X96400000Y-111650000D03*
G04 #@! TO.P,U1,27*
G04 #@! TO.N,/Pin_27*
X95600000Y-111650000D03*
G04 #@! TO.P,U1,26*
G04 #@! TO.N,/Pin_26*
X94800000Y-111650000D03*
D12*
G04 #@! TO.P,U1,24*
G04 #@! TO.N,/Pin_24*
X91400000Y-109200000D03*
G04 #@! TO.P,U1,23*
G04 #@! TO.N,/Pin_23*
X91400000Y-108400000D03*
G04 #@! TO.P,U1,22*
G04 #@! TO.N,/Pin_22*
X91400000Y-107600000D03*
G04 #@! TO.P,U1,21*
G04 #@! TO.N,/Pin_21*
X91400000Y-106800000D03*
G04 #@! TO.P,U1,20*
G04 #@! TO.N,/Pin_20*
X91400000Y-106000000D03*
G04 #@! TO.P,U1,19*
G04 #@! TO.N,/Pin_19*
X91400000Y-105200000D03*
G04 #@! TO.P,U1,18*
G04 #@! TO.N,/Pin_18*
X91400000Y-104400000D03*
G04 #@! TO.P,U1,17*
G04 #@! TO.N,/Pin_17*
X91400000Y-103600000D03*
G04 #@! TO.P,U1,16*
G04 #@! TO.N,/Pin_16*
X91400000Y-102800000D03*
G04 #@! TO.P,U1,15*
G04 #@! TO.N,/Pin_15*
X91400000Y-102000000D03*
G04 #@! TO.P,U1,14*
G04 #@! TO.N,/Pin_14*
X91400000Y-101200000D03*
G04 #@! TO.P,U1,13*
G04 #@! TO.N,/Pin_13*
X91400000Y-100400000D03*
G04 #@! TO.P,U1,12*
G04 #@! TO.N,/Pin_12*
X91400000Y-99600000D03*
G04 #@! TO.P,U1,11*
G04 #@! TO.N,/Pin_11*
X91400000Y-98800000D03*
G04 #@! TO.P,U1,10*
G04 #@! TO.N,/Pin_10*
X91400000Y-98000000D03*
G04 #@! TO.P,U1,9*
G04 #@! TO.N,/Pin_9*
X91400000Y-97200000D03*
G04 #@! TO.P,U1,8*
G04 #@! TO.N,/Pin_8*
X91400000Y-96400000D03*
G04 #@! TO.P,U1,7*
G04 #@! TO.N,/Pin_7*
X91400000Y-95600000D03*
G04 #@! TO.P,U1,6*
G04 #@! TO.N,/Pin_6*
X91400000Y-94800000D03*
G04 #@! TO.P,U1,5*
G04 #@! TO.N,/Pin_5*
X91400000Y-94000000D03*
G04 #@! TO.P,U1,4*
G04 #@! TO.N,/Pin_4*
X91400000Y-93200000D03*
G04 #@! TO.P,U1,3*
G04 #@! TO.N,/Pin_3*
X91400000Y-92400000D03*
G04 #@! TO.P,U1,2*
G04 #@! TO.N,/Pin_2*
X91400000Y-91600000D03*
G04 #@! TO.P,U1,41*
G04 #@! TO.N,/Pin_41*
X108600000Y-109200000D03*
D11*
G04 #@! TO.P,U1,25*
G04 #@! TO.N,/Pin_25*
X94000000Y-111650000D03*
D12*
G04 #@! TO.P,U1,1*
G04 #@! TO.N,/Pin_1*
X91400000Y-90800000D03*
D11*
G04 #@! TO.P,U1,65*
G04 #@! TO.N,/Pin_65*
X106000000Y-88350000D03*
G04 #@! TD*
D13*
G04 #@! TO.P,MK2,1*
G04 #@! TO.N,GND*
X66697056Y-133302944D03*
X65000000Y-132600000D03*
X63302944Y-133302944D03*
X62600000Y-135000000D03*
X63302944Y-136697056D03*
X65000000Y-137400000D03*
X66697056Y-136697056D03*
X67400000Y-135000000D03*
D14*
X65000000Y-135000000D03*
G04 #@! TD*
D13*
G04 #@! TO.P,MK1,1*
G04 #@! TO.N,GND*
X66697056Y-63302944D03*
X65000000Y-62600000D03*
X63302944Y-63302944D03*
X62600000Y-65000000D03*
X63302944Y-66697056D03*
X65000000Y-67400000D03*
X66697056Y-66697056D03*
X67400000Y-65000000D03*
D14*
X65000000Y-65000000D03*
G04 #@! TD*
D13*
G04 #@! TO.P,MK3,1*
G04 #@! TO.N,GND*
X136697056Y-63302944D03*
X135000000Y-62600000D03*
X133302944Y-63302944D03*
X132600000Y-65000000D03*
X133302944Y-66697056D03*
X135000000Y-67400000D03*
X136697056Y-66697056D03*
X137400000Y-65000000D03*
D14*
X135000000Y-65000000D03*
G04 #@! TD*
D13*
G04 #@! TO.P,MK4,1*
G04 #@! TO.N,GND*
X136697056Y-133302944D03*
X135000000Y-132600000D03*
X133302944Y-133302944D03*
X132600000Y-135000000D03*
X133302944Y-136697056D03*
X135000000Y-137400000D03*
X136697056Y-136697056D03*
X137400000Y-135000000D03*
D14*
X135000000Y-135000000D03*
G04 #@! TD*
D15*
G04 #@! TO.N,GND*
G04 #@! TO.C,C1*
G36*
X115827691Y-82826053D02*
X115848926Y-82829203D01*
X115869750Y-82834419D01*
X115889962Y-82841651D01*
X115909368Y-82850830D01*
X115927781Y-82861866D01*
X115945024Y-82874654D01*
X115960930Y-82889070D01*
X115975346Y-82904976D01*
X115988134Y-82922219D01*
X115999170Y-82940632D01*
X116008349Y-82960038D01*
X116015581Y-82980250D01*
X116020797Y-83001074D01*
X116023947Y-83022309D01*
X116025000Y-83043750D01*
X116025000Y-83556250D01*
X116023947Y-83577691D01*
X116020797Y-83598926D01*
X116015581Y-83619750D01*
X116008349Y-83639962D01*
X115999170Y-83659368D01*
X115988134Y-83677781D01*
X115975346Y-83695024D01*
X115960930Y-83710930D01*
X115945024Y-83725346D01*
X115927781Y-83738134D01*
X115909368Y-83749170D01*
X115889962Y-83758349D01*
X115869750Y-83765581D01*
X115848926Y-83770797D01*
X115827691Y-83773947D01*
X115806250Y-83775000D01*
X115368750Y-83775000D01*
X115347309Y-83773947D01*
X115326074Y-83770797D01*
X115305250Y-83765581D01*
X115285038Y-83758349D01*
X115265632Y-83749170D01*
X115247219Y-83738134D01*
X115229976Y-83725346D01*
X115214070Y-83710930D01*
X115199654Y-83695024D01*
X115186866Y-83677781D01*
X115175830Y-83659368D01*
X115166651Y-83639962D01*
X115159419Y-83619750D01*
X115154203Y-83598926D01*
X115151053Y-83577691D01*
X115150000Y-83556250D01*
X115150000Y-83043750D01*
X115151053Y-83022309D01*
X115154203Y-83001074D01*
X115159419Y-82980250D01*
X115166651Y-82960038D01*
X115175830Y-82940632D01*
X115186866Y-82922219D01*
X115199654Y-82904976D01*
X115214070Y-82889070D01*
X115229976Y-82874654D01*
X115247219Y-82861866D01*
X115265632Y-82850830D01*
X115285038Y-82841651D01*
X115305250Y-82834419D01*
X115326074Y-82829203D01*
X115347309Y-82826053D01*
X115368750Y-82825000D01*
X115806250Y-82825000D01*
X115827691Y-82826053D01*
X115827691Y-82826053D01*
G37*
D16*
G04 #@! TD*
G04 #@! TO.P,C1,2*
G04 #@! TO.N,GND*
X115587500Y-83300000D03*
D15*
G04 #@! TO.N,+5V*
G04 #@! TO.C,C1*
G36*
X114252691Y-82826053D02*
X114273926Y-82829203D01*
X114294750Y-82834419D01*
X114314962Y-82841651D01*
X114334368Y-82850830D01*
X114352781Y-82861866D01*
X114370024Y-82874654D01*
X114385930Y-82889070D01*
X114400346Y-82904976D01*
X114413134Y-82922219D01*
X114424170Y-82940632D01*
X114433349Y-82960038D01*
X114440581Y-82980250D01*
X114445797Y-83001074D01*
X114448947Y-83022309D01*
X114450000Y-83043750D01*
X114450000Y-83556250D01*
X114448947Y-83577691D01*
X114445797Y-83598926D01*
X114440581Y-83619750D01*
X114433349Y-83639962D01*
X114424170Y-83659368D01*
X114413134Y-83677781D01*
X114400346Y-83695024D01*
X114385930Y-83710930D01*
X114370024Y-83725346D01*
X114352781Y-83738134D01*
X114334368Y-83749170D01*
X114314962Y-83758349D01*
X114294750Y-83765581D01*
X114273926Y-83770797D01*
X114252691Y-83773947D01*
X114231250Y-83775000D01*
X113793750Y-83775000D01*
X113772309Y-83773947D01*
X113751074Y-83770797D01*
X113730250Y-83765581D01*
X113710038Y-83758349D01*
X113690632Y-83749170D01*
X113672219Y-83738134D01*
X113654976Y-83725346D01*
X113639070Y-83710930D01*
X113624654Y-83695024D01*
X113611866Y-83677781D01*
X113600830Y-83659368D01*
X113591651Y-83639962D01*
X113584419Y-83619750D01*
X113579203Y-83598926D01*
X113576053Y-83577691D01*
X113575000Y-83556250D01*
X113575000Y-83043750D01*
X113576053Y-83022309D01*
X113579203Y-83001074D01*
X113584419Y-82980250D01*
X113591651Y-82960038D01*
X113600830Y-82940632D01*
X113611866Y-82922219D01*
X113624654Y-82904976D01*
X113639070Y-82889070D01*
X113654976Y-82874654D01*
X113672219Y-82861866D01*
X113690632Y-82850830D01*
X113710038Y-82841651D01*
X113730250Y-82834419D01*
X113751074Y-82829203D01*
X113772309Y-82826053D01*
X113793750Y-82825000D01*
X114231250Y-82825000D01*
X114252691Y-82826053D01*
X114252691Y-82826053D01*
G37*
D16*
G04 #@! TD*
G04 #@! TO.P,C1,1*
G04 #@! TO.N,+5V*
X114012500Y-83300000D03*
D15*
G04 #@! TO.N,GND*
G04 #@! TO.C,C2*
G36*
X116305142Y-79501174D02*
X116328803Y-79504684D01*
X116352007Y-79510496D01*
X116374529Y-79518554D01*
X116396153Y-79528782D01*
X116416670Y-79541079D01*
X116435883Y-79555329D01*
X116453607Y-79571393D01*
X116469671Y-79589117D01*
X116483921Y-79608330D01*
X116496218Y-79628847D01*
X116506446Y-79650471D01*
X116514504Y-79672993D01*
X116520316Y-79696197D01*
X116523826Y-79719858D01*
X116525000Y-79743750D01*
X116525000Y-80656250D01*
X116523826Y-80680142D01*
X116520316Y-80703803D01*
X116514504Y-80727007D01*
X116506446Y-80749529D01*
X116496218Y-80771153D01*
X116483921Y-80791670D01*
X116469671Y-80810883D01*
X116453607Y-80828607D01*
X116435883Y-80844671D01*
X116416670Y-80858921D01*
X116396153Y-80871218D01*
X116374529Y-80881446D01*
X116352007Y-80889504D01*
X116328803Y-80895316D01*
X116305142Y-80898826D01*
X116281250Y-80900000D01*
X115793750Y-80900000D01*
X115769858Y-80898826D01*
X115746197Y-80895316D01*
X115722993Y-80889504D01*
X115700471Y-80881446D01*
X115678847Y-80871218D01*
X115658330Y-80858921D01*
X115639117Y-80844671D01*
X115621393Y-80828607D01*
X115605329Y-80810883D01*
X115591079Y-80791670D01*
X115578782Y-80771153D01*
X115568554Y-80749529D01*
X115560496Y-80727007D01*
X115554684Y-80703803D01*
X115551174Y-80680142D01*
X115550000Y-80656250D01*
X115550000Y-79743750D01*
X115551174Y-79719858D01*
X115554684Y-79696197D01*
X115560496Y-79672993D01*
X115568554Y-79650471D01*
X115578782Y-79628847D01*
X115591079Y-79608330D01*
X115605329Y-79589117D01*
X115621393Y-79571393D01*
X115639117Y-79555329D01*
X115658330Y-79541079D01*
X115678847Y-79528782D01*
X115700471Y-79518554D01*
X115722993Y-79510496D01*
X115746197Y-79504684D01*
X115769858Y-79501174D01*
X115793750Y-79500000D01*
X116281250Y-79500000D01*
X116305142Y-79501174D01*
X116305142Y-79501174D01*
G37*
D17*
G04 #@! TD*
G04 #@! TO.P,C2,2*
G04 #@! TO.N,GND*
X116037500Y-80200000D03*
D15*
G04 #@! TO.N,+5V*
G04 #@! TO.C,C2*
G36*
X114430142Y-79501174D02*
X114453803Y-79504684D01*
X114477007Y-79510496D01*
X114499529Y-79518554D01*
X114521153Y-79528782D01*
X114541670Y-79541079D01*
X114560883Y-79555329D01*
X114578607Y-79571393D01*
X114594671Y-79589117D01*
X114608921Y-79608330D01*
X114621218Y-79628847D01*
X114631446Y-79650471D01*
X114639504Y-79672993D01*
X114645316Y-79696197D01*
X114648826Y-79719858D01*
X114650000Y-79743750D01*
X114650000Y-80656250D01*
X114648826Y-80680142D01*
X114645316Y-80703803D01*
X114639504Y-80727007D01*
X114631446Y-80749529D01*
X114621218Y-80771153D01*
X114608921Y-80791670D01*
X114594671Y-80810883D01*
X114578607Y-80828607D01*
X114560883Y-80844671D01*
X114541670Y-80858921D01*
X114521153Y-80871218D01*
X114499529Y-80881446D01*
X114477007Y-80889504D01*
X114453803Y-80895316D01*
X114430142Y-80898826D01*
X114406250Y-80900000D01*
X113918750Y-80900000D01*
X113894858Y-80898826D01*
X113871197Y-80895316D01*
X113847993Y-80889504D01*
X113825471Y-80881446D01*
X113803847Y-80871218D01*
X113783330Y-80858921D01*
X113764117Y-80844671D01*
X113746393Y-80828607D01*
X113730329Y-80810883D01*
X113716079Y-80791670D01*
X113703782Y-80771153D01*
X113693554Y-80749529D01*
X113685496Y-80727007D01*
X113679684Y-80703803D01*
X113676174Y-80680142D01*
X113675000Y-80656250D01*
X113675000Y-79743750D01*
X113676174Y-79719858D01*
X113679684Y-79696197D01*
X113685496Y-79672993D01*
X113693554Y-79650471D01*
X113703782Y-79628847D01*
X113716079Y-79608330D01*
X113730329Y-79589117D01*
X113746393Y-79571393D01*
X113764117Y-79555329D01*
X113783330Y-79541079D01*
X113803847Y-79528782D01*
X113825471Y-79518554D01*
X113847993Y-79510496D01*
X113871197Y-79504684D01*
X113894858Y-79501174D01*
X113918750Y-79500000D01*
X114406250Y-79500000D01*
X114430142Y-79501174D01*
X114430142Y-79501174D01*
G37*
D17*
G04 #@! TD*
G04 #@! TO.P,C2,1*
G04 #@! TO.N,+5V*
X114162500Y-80200000D03*
D15*
G04 #@! TO.N,GND*
G04 #@! TO.C,C3*
G36*
X117499504Y-75726204D02*
X117523773Y-75729804D01*
X117547571Y-75735765D01*
X117570671Y-75744030D01*
X117592849Y-75754520D01*
X117613893Y-75767133D01*
X117633598Y-75781747D01*
X117651777Y-75798223D01*
X117668253Y-75816402D01*
X117682867Y-75836107D01*
X117695480Y-75857151D01*
X117705970Y-75879329D01*
X117714235Y-75902429D01*
X117720196Y-75926227D01*
X117723796Y-75950496D01*
X117725000Y-75975000D01*
X117725000Y-77225000D01*
X117723796Y-77249504D01*
X117720196Y-77273773D01*
X117714235Y-77297571D01*
X117705970Y-77320671D01*
X117695480Y-77342849D01*
X117682867Y-77363893D01*
X117668253Y-77383598D01*
X117651777Y-77401777D01*
X117633598Y-77418253D01*
X117613893Y-77432867D01*
X117592849Y-77445480D01*
X117570671Y-77455970D01*
X117547571Y-77464235D01*
X117523773Y-77470196D01*
X117499504Y-77473796D01*
X117475000Y-77475000D01*
X116725000Y-77475000D01*
X116700496Y-77473796D01*
X116676227Y-77470196D01*
X116652429Y-77464235D01*
X116629329Y-77455970D01*
X116607151Y-77445480D01*
X116586107Y-77432867D01*
X116566402Y-77418253D01*
X116548223Y-77401777D01*
X116531747Y-77383598D01*
X116517133Y-77363893D01*
X116504520Y-77342849D01*
X116494030Y-77320671D01*
X116485765Y-77297571D01*
X116479804Y-77273773D01*
X116476204Y-77249504D01*
X116475000Y-77225000D01*
X116475000Y-75975000D01*
X116476204Y-75950496D01*
X116479804Y-75926227D01*
X116485765Y-75902429D01*
X116494030Y-75879329D01*
X116504520Y-75857151D01*
X116517133Y-75836107D01*
X116531747Y-75816402D01*
X116548223Y-75798223D01*
X116566402Y-75781747D01*
X116586107Y-75767133D01*
X116607151Y-75754520D01*
X116629329Y-75744030D01*
X116652429Y-75735765D01*
X116676227Y-75729804D01*
X116700496Y-75726204D01*
X116725000Y-75725000D01*
X117475000Y-75725000D01*
X117499504Y-75726204D01*
X117499504Y-75726204D01*
G37*
D18*
G04 #@! TD*
G04 #@! TO.P,C3,2*
G04 #@! TO.N,GND*
X117100000Y-76600000D03*
D15*
G04 #@! TO.N,+5V*
G04 #@! TO.C,C3*
G36*
X114699504Y-75726204D02*
X114723773Y-75729804D01*
X114747571Y-75735765D01*
X114770671Y-75744030D01*
X114792849Y-75754520D01*
X114813893Y-75767133D01*
X114833598Y-75781747D01*
X114851777Y-75798223D01*
X114868253Y-75816402D01*
X114882867Y-75836107D01*
X114895480Y-75857151D01*
X114905970Y-75879329D01*
X114914235Y-75902429D01*
X114920196Y-75926227D01*
X114923796Y-75950496D01*
X114925000Y-75975000D01*
X114925000Y-77225000D01*
X114923796Y-77249504D01*
X114920196Y-77273773D01*
X114914235Y-77297571D01*
X114905970Y-77320671D01*
X114895480Y-77342849D01*
X114882867Y-77363893D01*
X114868253Y-77383598D01*
X114851777Y-77401777D01*
X114833598Y-77418253D01*
X114813893Y-77432867D01*
X114792849Y-77445480D01*
X114770671Y-77455970D01*
X114747571Y-77464235D01*
X114723773Y-77470196D01*
X114699504Y-77473796D01*
X114675000Y-77475000D01*
X113925000Y-77475000D01*
X113900496Y-77473796D01*
X113876227Y-77470196D01*
X113852429Y-77464235D01*
X113829329Y-77455970D01*
X113807151Y-77445480D01*
X113786107Y-77432867D01*
X113766402Y-77418253D01*
X113748223Y-77401777D01*
X113731747Y-77383598D01*
X113717133Y-77363893D01*
X113704520Y-77342849D01*
X113694030Y-77320671D01*
X113685765Y-77297571D01*
X113679804Y-77273773D01*
X113676204Y-77249504D01*
X113675000Y-77225000D01*
X113675000Y-75975000D01*
X113676204Y-75950496D01*
X113679804Y-75926227D01*
X113685765Y-75902429D01*
X113694030Y-75879329D01*
X113704520Y-75857151D01*
X113717133Y-75836107D01*
X113731747Y-75816402D01*
X113748223Y-75798223D01*
X113766402Y-75781747D01*
X113786107Y-75767133D01*
X113807151Y-75754520D01*
X113829329Y-75744030D01*
X113852429Y-75735765D01*
X113876227Y-75729804D01*
X113900496Y-75726204D01*
X113925000Y-75725000D01*
X114675000Y-75725000D01*
X114699504Y-75726204D01*
X114699504Y-75726204D01*
G37*
D18*
G04 #@! TD*
G04 #@! TO.P,C3,1*
G04 #@! TO.N,+5V*
X114300000Y-76600000D03*
D19*
G04 #@! TO.P,JP3,1*
G04 #@! TO.N,/Pin_72*
X100425000Y-83300000D03*
D15*
G04 #@! TD*
G04 #@! TO.N,/Pin_72*
G04 #@! TO.C,JP3*
G36*
X99425000Y-83300000D02*
X99925000Y-82550000D01*
X100925000Y-82550000D01*
X100925000Y-84050000D01*
X99925000Y-84050000D01*
X99425000Y-83300000D01*
X99425000Y-83300000D01*
G37*
D19*
G04 #@! TO.P,JP3,2*
G04 #@! TO.N,GND*
X98975000Y-83300000D03*
D15*
G04 #@! TD*
G04 #@! TO.N,GND*
G04 #@! TO.C,JP3*
G36*
X98475000Y-82550000D02*
X99625000Y-82550000D01*
X99125000Y-83300000D01*
X99625000Y-84050000D01*
X98475000Y-84050000D01*
X98475000Y-82550000D01*
X98475000Y-82550000D01*
G37*
D19*
G04 #@! TO.P,JP2,1*
G04 #@! TO.N,+5V*
X112200000Y-85575000D03*
D15*
G04 #@! TD*
G04 #@! TO.N,+5V*
G04 #@! TO.C,JP2*
G36*
X112200000Y-86575000D02*
X111450000Y-86075000D01*
X111450000Y-85075000D01*
X112950000Y-85075000D01*
X112950000Y-86075000D01*
X112200000Y-86575000D01*
X112200000Y-86575000D01*
G37*
D19*
G04 #@! TO.P,JP2,2*
G04 #@! TO.N,/Pin_58*
X112200000Y-87025000D03*
D15*
G04 #@! TD*
G04 #@! TO.N,/Pin_58*
G04 #@! TO.C,JP2*
G36*
X111450000Y-87525000D02*
X111450000Y-86375000D01*
X112200000Y-86875000D01*
X112950000Y-86375000D01*
X112950000Y-87525000D01*
X111450000Y-87525000D01*
X111450000Y-87525000D01*
G37*
D19*
G04 #@! TO.P,JP1,1*
G04 #@! TO.N,/Pin_32*
X99575000Y-116700000D03*
D15*
G04 #@! TD*
G04 #@! TO.N,/Pin_32*
G04 #@! TO.C,JP1*
G36*
X100575000Y-116700000D02*
X100075000Y-117450000D01*
X99075000Y-117450000D01*
X99075000Y-115950000D01*
X100075000Y-115950000D01*
X100575000Y-116700000D01*
X100575000Y-116700000D01*
G37*
D19*
G04 #@! TO.P,JP1,2*
G04 #@! TO.N,GND*
X101025000Y-116700000D03*
D15*
G04 #@! TD*
G04 #@! TO.N,GND*
G04 #@! TO.C,JP1*
G36*
X101525000Y-117450000D02*
X100375000Y-117450000D01*
X100875000Y-116700000D01*
X100375000Y-115950000D01*
X101525000Y-115950000D01*
X101525000Y-117450000D01*
X101525000Y-117450000D01*
G37*
G04 #@! TO.N,Net-(D1-Pad2)*
G04 #@! TO.C,D1*
G36*
X118077691Y-72751053D02*
X118098926Y-72754203D01*
X118119750Y-72759419D01*
X118139962Y-72766651D01*
X118159368Y-72775830D01*
X118177781Y-72786866D01*
X118195024Y-72799654D01*
X118210930Y-72814070D01*
X118225346Y-72829976D01*
X118238134Y-72847219D01*
X118249170Y-72865632D01*
X118258349Y-72885038D01*
X118265581Y-72905250D01*
X118270797Y-72926074D01*
X118273947Y-72947309D01*
X118275000Y-72968750D01*
X118275000Y-73406250D01*
X118273947Y-73427691D01*
X118270797Y-73448926D01*
X118265581Y-73469750D01*
X118258349Y-73489962D01*
X118249170Y-73509368D01*
X118238134Y-73527781D01*
X118225346Y-73545024D01*
X118210930Y-73560930D01*
X118195024Y-73575346D01*
X118177781Y-73588134D01*
X118159368Y-73599170D01*
X118139962Y-73608349D01*
X118119750Y-73615581D01*
X118098926Y-73620797D01*
X118077691Y-73623947D01*
X118056250Y-73625000D01*
X117543750Y-73625000D01*
X117522309Y-73623947D01*
X117501074Y-73620797D01*
X117480250Y-73615581D01*
X117460038Y-73608349D01*
X117440632Y-73599170D01*
X117422219Y-73588134D01*
X117404976Y-73575346D01*
X117389070Y-73560930D01*
X117374654Y-73545024D01*
X117361866Y-73527781D01*
X117350830Y-73509368D01*
X117341651Y-73489962D01*
X117334419Y-73469750D01*
X117329203Y-73448926D01*
X117326053Y-73427691D01*
X117325000Y-73406250D01*
X117325000Y-72968750D01*
X117326053Y-72947309D01*
X117329203Y-72926074D01*
X117334419Y-72905250D01*
X117341651Y-72885038D01*
X117350830Y-72865632D01*
X117361866Y-72847219D01*
X117374654Y-72829976D01*
X117389070Y-72814070D01*
X117404976Y-72799654D01*
X117422219Y-72786866D01*
X117440632Y-72775830D01*
X117460038Y-72766651D01*
X117480250Y-72759419D01*
X117501074Y-72754203D01*
X117522309Y-72751053D01*
X117543750Y-72750000D01*
X118056250Y-72750000D01*
X118077691Y-72751053D01*
X118077691Y-72751053D01*
G37*
D16*
G04 #@! TD*
G04 #@! TO.P,D1,2*
G04 #@! TO.N,Net-(D1-Pad2)*
X117800000Y-73187500D03*
D15*
G04 #@! TO.N,GND*
G04 #@! TO.C,D1*
G36*
X118077691Y-71176053D02*
X118098926Y-71179203D01*
X118119750Y-71184419D01*
X118139962Y-71191651D01*
X118159368Y-71200830D01*
X118177781Y-71211866D01*
X118195024Y-71224654D01*
X118210930Y-71239070D01*
X118225346Y-71254976D01*
X118238134Y-71272219D01*
X118249170Y-71290632D01*
X118258349Y-71310038D01*
X118265581Y-71330250D01*
X118270797Y-71351074D01*
X118273947Y-71372309D01*
X118275000Y-71393750D01*
X118275000Y-71831250D01*
X118273947Y-71852691D01*
X118270797Y-71873926D01*
X118265581Y-71894750D01*
X118258349Y-71914962D01*
X118249170Y-71934368D01*
X118238134Y-71952781D01*
X118225346Y-71970024D01*
X118210930Y-71985930D01*
X118195024Y-72000346D01*
X118177781Y-72013134D01*
X118159368Y-72024170D01*
X118139962Y-72033349D01*
X118119750Y-72040581D01*
X118098926Y-72045797D01*
X118077691Y-72048947D01*
X118056250Y-72050000D01*
X117543750Y-72050000D01*
X117522309Y-72048947D01*
X117501074Y-72045797D01*
X117480250Y-72040581D01*
X117460038Y-72033349D01*
X117440632Y-72024170D01*
X117422219Y-72013134D01*
X117404976Y-72000346D01*
X117389070Y-71985930D01*
X117374654Y-71970024D01*
X117361866Y-71952781D01*
X117350830Y-71934368D01*
X117341651Y-71914962D01*
X117334419Y-71894750D01*
X117329203Y-71873926D01*
X117326053Y-71852691D01*
X117325000Y-71831250D01*
X117325000Y-71393750D01*
X117326053Y-71372309D01*
X117329203Y-71351074D01*
X117334419Y-71330250D01*
X117341651Y-71310038D01*
X117350830Y-71290632D01*
X117361866Y-71272219D01*
X117374654Y-71254976D01*
X117389070Y-71239070D01*
X117404976Y-71224654D01*
X117422219Y-71211866D01*
X117440632Y-71200830D01*
X117460038Y-71191651D01*
X117480250Y-71184419D01*
X117501074Y-71179203D01*
X117522309Y-71176053D01*
X117543750Y-71175000D01*
X118056250Y-71175000D01*
X118077691Y-71176053D01*
X118077691Y-71176053D01*
G37*
D16*
G04 #@! TD*
G04 #@! TO.P,D1,1*
G04 #@! TO.N,GND*
X117800000Y-71612500D03*
D15*
G04 #@! TO.N,+5V*
G04 #@! TO.C,R1*
G36*
X114552691Y-72726053D02*
X114573926Y-72729203D01*
X114594750Y-72734419D01*
X114614962Y-72741651D01*
X114634368Y-72750830D01*
X114652781Y-72761866D01*
X114670024Y-72774654D01*
X114685930Y-72789070D01*
X114700346Y-72804976D01*
X114713134Y-72822219D01*
X114724170Y-72840632D01*
X114733349Y-72860038D01*
X114740581Y-72880250D01*
X114745797Y-72901074D01*
X114748947Y-72922309D01*
X114750000Y-72943750D01*
X114750000Y-73456250D01*
X114748947Y-73477691D01*
X114745797Y-73498926D01*
X114740581Y-73519750D01*
X114733349Y-73539962D01*
X114724170Y-73559368D01*
X114713134Y-73577781D01*
X114700346Y-73595024D01*
X114685930Y-73610930D01*
X114670024Y-73625346D01*
X114652781Y-73638134D01*
X114634368Y-73649170D01*
X114614962Y-73658349D01*
X114594750Y-73665581D01*
X114573926Y-73670797D01*
X114552691Y-73673947D01*
X114531250Y-73675000D01*
X114093750Y-73675000D01*
X114072309Y-73673947D01*
X114051074Y-73670797D01*
X114030250Y-73665581D01*
X114010038Y-73658349D01*
X113990632Y-73649170D01*
X113972219Y-73638134D01*
X113954976Y-73625346D01*
X113939070Y-73610930D01*
X113924654Y-73595024D01*
X113911866Y-73577781D01*
X113900830Y-73559368D01*
X113891651Y-73539962D01*
X113884419Y-73519750D01*
X113879203Y-73498926D01*
X113876053Y-73477691D01*
X113875000Y-73456250D01*
X113875000Y-72943750D01*
X113876053Y-72922309D01*
X113879203Y-72901074D01*
X113884419Y-72880250D01*
X113891651Y-72860038D01*
X113900830Y-72840632D01*
X113911866Y-72822219D01*
X113924654Y-72804976D01*
X113939070Y-72789070D01*
X113954976Y-72774654D01*
X113972219Y-72761866D01*
X113990632Y-72750830D01*
X114010038Y-72741651D01*
X114030250Y-72734419D01*
X114051074Y-72729203D01*
X114072309Y-72726053D01*
X114093750Y-72725000D01*
X114531250Y-72725000D01*
X114552691Y-72726053D01*
X114552691Y-72726053D01*
G37*
D16*
G04 #@! TD*
G04 #@! TO.P,R1,2*
G04 #@! TO.N,+5V*
X114312500Y-73200000D03*
D15*
G04 #@! TO.N,Net-(D1-Pad2)*
G04 #@! TO.C,R1*
G36*
X116127691Y-72726053D02*
X116148926Y-72729203D01*
X116169750Y-72734419D01*
X116189962Y-72741651D01*
X116209368Y-72750830D01*
X116227781Y-72761866D01*
X116245024Y-72774654D01*
X116260930Y-72789070D01*
X116275346Y-72804976D01*
X116288134Y-72822219D01*
X116299170Y-72840632D01*
X116308349Y-72860038D01*
X116315581Y-72880250D01*
X116320797Y-72901074D01*
X116323947Y-72922309D01*
X116325000Y-72943750D01*
X116325000Y-73456250D01*
X116323947Y-73477691D01*
X116320797Y-73498926D01*
X116315581Y-73519750D01*
X116308349Y-73539962D01*
X116299170Y-73559368D01*
X116288134Y-73577781D01*
X116275346Y-73595024D01*
X116260930Y-73610930D01*
X116245024Y-73625346D01*
X116227781Y-73638134D01*
X116209368Y-73649170D01*
X116189962Y-73658349D01*
X116169750Y-73665581D01*
X116148926Y-73670797D01*
X116127691Y-73673947D01*
X116106250Y-73675000D01*
X115668750Y-73675000D01*
X115647309Y-73673947D01*
X115626074Y-73670797D01*
X115605250Y-73665581D01*
X115585038Y-73658349D01*
X115565632Y-73649170D01*
X115547219Y-73638134D01*
X115529976Y-73625346D01*
X115514070Y-73610930D01*
X115499654Y-73595024D01*
X115486866Y-73577781D01*
X115475830Y-73559368D01*
X115466651Y-73539962D01*
X115459419Y-73519750D01*
X115454203Y-73498926D01*
X115451053Y-73477691D01*
X115450000Y-73456250D01*
X115450000Y-72943750D01*
X115451053Y-72922309D01*
X115454203Y-72901074D01*
X115459419Y-72880250D01*
X115466651Y-72860038D01*
X115475830Y-72840632D01*
X115486866Y-72822219D01*
X115499654Y-72804976D01*
X115514070Y-72789070D01*
X115529976Y-72774654D01*
X115547219Y-72761866D01*
X115565632Y-72750830D01*
X115585038Y-72741651D01*
X115605250Y-72734419D01*
X115626074Y-72729203D01*
X115647309Y-72726053D01*
X115668750Y-72725000D01*
X116106250Y-72725000D01*
X116127691Y-72726053D01*
X116127691Y-72726053D01*
G37*
D16*
G04 #@! TD*
G04 #@! TO.P,R1,1*
G04 #@! TO.N,Net-(D1-Pad2)*
X115887500Y-73200000D03*
D20*
G04 #@! TO.P,J5,4*
G04 #@! TO.N,GND*
X120400000Y-126920000D03*
G04 #@! TO.P,J5,3*
X120400000Y-124380000D03*
G04 #@! TO.P,J5,2*
X120400000Y-121840000D03*
D21*
G04 #@! TO.P,J5,1*
X120400000Y-119300000D03*
G04 #@! TD*
D20*
G04 #@! TO.P,J1,24*
G04 #@! TO.N,/Pin_24*
X72540000Y-113940000D03*
G04 #@! TO.P,J1,23*
G04 #@! TO.N,/Pin_23*
X70000000Y-113940000D03*
G04 #@! TO.P,J1,22*
G04 #@! TO.N,/Pin_22*
X72540000Y-111400000D03*
G04 #@! TO.P,J1,21*
G04 #@! TO.N,/Pin_21*
X70000000Y-111400000D03*
G04 #@! TO.P,J1,20*
G04 #@! TO.N,/Pin_20*
X72540000Y-108860000D03*
G04 #@! TO.P,J1,19*
G04 #@! TO.N,/Pin_19*
X70000000Y-108860000D03*
G04 #@! TO.P,J1,18*
G04 #@! TO.N,/Pin_18*
X72540000Y-106320000D03*
G04 #@! TO.P,J1,17*
G04 #@! TO.N,/Pin_17*
X70000000Y-106320000D03*
G04 #@! TO.P,J1,16*
G04 #@! TO.N,/Pin_16*
X72540000Y-103780000D03*
G04 #@! TO.P,J1,15*
G04 #@! TO.N,/Pin_15*
X70000000Y-103780000D03*
G04 #@! TO.P,J1,14*
G04 #@! TO.N,/Pin_14*
X72540000Y-101240000D03*
G04 #@! TO.P,J1,13*
G04 #@! TO.N,/Pin_13*
X70000000Y-101240000D03*
G04 #@! TO.P,J1,12*
G04 #@! TO.N,/Pin_12*
X72540000Y-98700000D03*
G04 #@! TO.P,J1,11*
G04 #@! TO.N,/Pin_11*
X70000000Y-98700000D03*
G04 #@! TO.P,J1,10*
G04 #@! TO.N,/Pin_10*
X72540000Y-96160000D03*
G04 #@! TO.P,J1,9*
G04 #@! TO.N,/Pin_9*
X70000000Y-96160000D03*
G04 #@! TO.P,J1,8*
G04 #@! TO.N,/Pin_8*
X72540000Y-93620000D03*
G04 #@! TO.P,J1,7*
G04 #@! TO.N,/Pin_7*
X70000000Y-93620000D03*
G04 #@! TO.P,J1,6*
G04 #@! TO.N,/Pin_6*
X72540000Y-91080000D03*
G04 #@! TO.P,J1,5*
G04 #@! TO.N,/Pin_5*
X70000000Y-91080000D03*
G04 #@! TO.P,J1,4*
G04 #@! TO.N,/Pin_4*
X72540000Y-88540000D03*
G04 #@! TO.P,J1,3*
G04 #@! TO.N,/Pin_3*
X70000000Y-88540000D03*
G04 #@! TO.P,J1,2*
G04 #@! TO.N,/Pin_2*
X72540000Y-86000000D03*
D21*
G04 #@! TO.P,J1,1*
G04 #@! TO.N,/Pin_1*
X70000000Y-86000000D03*
G04 #@! TD*
D20*
G04 #@! TO.P,J2,16*
G04 #@! TO.N,/Pin_40*
X108880000Y-127460000D03*
G04 #@! TO.P,J2,15*
G04 #@! TO.N,/Pin_39*
X108880000Y-130000000D03*
G04 #@! TO.P,J2,14*
G04 #@! TO.N,/Pin_38*
X106340000Y-127460000D03*
G04 #@! TO.P,J2,13*
G04 #@! TO.N,/Pin_37*
X106340000Y-130000000D03*
G04 #@! TO.P,J2,12*
G04 #@! TO.N,/Pin_36*
X103800000Y-127460000D03*
G04 #@! TO.P,J2,11*
G04 #@! TO.N,/Pin_35*
X103800000Y-130000000D03*
G04 #@! TO.P,J2,10*
G04 #@! TO.N,/Pin_34*
X101260000Y-127460000D03*
G04 #@! TO.P,J2,9*
G04 #@! TO.N,/Pin_33*
X101260000Y-130000000D03*
G04 #@! TO.P,J2,8*
G04 #@! TO.N,/Pin_32*
X98720000Y-127460000D03*
G04 #@! TO.P,J2,7*
G04 #@! TO.N,/Pin_31*
X98720000Y-130000000D03*
G04 #@! TO.P,J2,6*
G04 #@! TO.N,/Pin_30*
X96180000Y-127460000D03*
G04 #@! TO.P,J2,5*
G04 #@! TO.N,/Pin_29*
X96180000Y-130000000D03*
G04 #@! TO.P,J2,4*
G04 #@! TO.N,/Pin_28*
X93640000Y-127460000D03*
G04 #@! TO.P,J2,3*
G04 #@! TO.N,/Pin_27*
X93640000Y-130000000D03*
G04 #@! TO.P,J2,2*
G04 #@! TO.N,/Pin_26*
X91100000Y-127460000D03*
D21*
G04 #@! TO.P,J2,1*
G04 #@! TO.N,/Pin_25*
X91100000Y-130000000D03*
G04 #@! TD*
D20*
G04 #@! TO.P,J3,24*
G04 #@! TO.N,/Pin_64*
X127460000Y-86060000D03*
G04 #@! TO.P,J3,23*
G04 #@! TO.N,/Pin_63*
X130000000Y-86060000D03*
G04 #@! TO.P,J3,22*
G04 #@! TO.N,/Pin_62*
X127460000Y-88600000D03*
G04 #@! TO.P,J3,21*
G04 #@! TO.N,/Pin_61*
X130000000Y-88600000D03*
G04 #@! TO.P,J3,20*
G04 #@! TO.N,/Pin_60*
X127460000Y-91140000D03*
G04 #@! TO.P,J3,19*
G04 #@! TO.N,/Pin_59*
X130000000Y-91140000D03*
G04 #@! TO.P,J3,18*
G04 #@! TO.N,/Pin_58*
X127460000Y-93680000D03*
G04 #@! TO.P,J3,17*
G04 #@! TO.N,/Pin_57*
X130000000Y-93680000D03*
G04 #@! TO.P,J3,16*
G04 #@! TO.N,/Pin_56*
X127460000Y-96220000D03*
G04 #@! TO.P,J3,15*
G04 #@! TO.N,/Pin_55*
X130000000Y-96220000D03*
G04 #@! TO.P,J3,14*
G04 #@! TO.N,/Pin_54*
X127460000Y-98760000D03*
G04 #@! TO.P,J3,13*
G04 #@! TO.N,/Pin_53*
X130000000Y-98760000D03*
G04 #@! TO.P,J3,12*
G04 #@! TO.N,/Pin_52*
X127460000Y-101300000D03*
G04 #@! TO.P,J3,11*
G04 #@! TO.N,/Pin_51*
X130000000Y-101300000D03*
G04 #@! TO.P,J3,10*
G04 #@! TO.N,/Pin_50*
X127460000Y-103840000D03*
G04 #@! TO.P,J3,9*
G04 #@! TO.N,/Pin_49*
X130000000Y-103840000D03*
G04 #@! TO.P,J3,8*
G04 #@! TO.N,/Pin_48*
X127460000Y-106380000D03*
G04 #@! TO.P,J3,7*
G04 #@! TO.N,/Pin_47*
X130000000Y-106380000D03*
G04 #@! TO.P,J3,6*
G04 #@! TO.N,/Pin_46*
X127460000Y-108920000D03*
G04 #@! TO.P,J3,5*
G04 #@! TO.N,/Pin_45*
X130000000Y-108920000D03*
G04 #@! TO.P,J3,4*
G04 #@! TO.N,/Pin_44*
X127460000Y-111460000D03*
G04 #@! TO.P,J3,3*
G04 #@! TO.N,/Pin_43*
X130000000Y-111460000D03*
G04 #@! TO.P,J3,2*
G04 #@! TO.N,/Pin_42*
X127460000Y-114000000D03*
D21*
G04 #@! TO.P,J3,1*
G04 #@! TO.N,/Pin_41*
X130000000Y-114000000D03*
G04 #@! TD*
D20*
G04 #@! TO.P,J4,16*
G04 #@! TO.N,/Pin_80*
X91120000Y-72540000D03*
G04 #@! TO.P,J4,15*
G04 #@! TO.N,/Pin_79*
X91120000Y-70000000D03*
G04 #@! TO.P,J4,14*
G04 #@! TO.N,/Pin_78*
X93660000Y-72540000D03*
G04 #@! TO.P,J4,13*
G04 #@! TO.N,/Pin_77*
X93660000Y-70000000D03*
G04 #@! TO.P,J4,12*
G04 #@! TO.N,/Pin_76*
X96200000Y-72540000D03*
G04 #@! TO.P,J4,11*
G04 #@! TO.N,/Pin_75*
X96200000Y-70000000D03*
G04 #@! TO.P,J4,10*
G04 #@! TO.N,/Pin_74*
X98740000Y-72540000D03*
G04 #@! TO.P,J4,9*
G04 #@! TO.N,/Pin_73*
X98740000Y-70000000D03*
G04 #@! TO.P,J4,8*
G04 #@! TO.N,/Pin_72*
X101280000Y-72540000D03*
G04 #@! TO.P,J4,7*
G04 #@! TO.N,/Pin_71*
X101280000Y-70000000D03*
G04 #@! TO.P,J4,6*
G04 #@! TO.N,/Pin_70*
X103820000Y-72540000D03*
G04 #@! TO.P,J4,5*
G04 #@! TO.N,/Pin_69*
X103820000Y-70000000D03*
G04 #@! TO.P,J4,4*
G04 #@! TO.N,/Pin_68*
X106360000Y-72540000D03*
G04 #@! TO.P,J4,3*
G04 #@! TO.N,/Pin_67*
X106360000Y-70000000D03*
G04 #@! TO.P,J4,2*
G04 #@! TO.N,/Pin_66*
X108900000Y-72540000D03*
D21*
G04 #@! TO.P,J4,1*
G04 #@! TO.N,/Pin_65*
X108900000Y-70000000D03*
G04 #@! TD*
D20*
G04 #@! TO.P,J6,4*
G04 #@! TO.N,+5V*
X125200000Y-78420000D03*
G04 #@! TO.P,J6,3*
X125200000Y-75880000D03*
G04 #@! TO.P,J6,2*
X125200000Y-73340000D03*
D21*
G04 #@! TO.P,J6,1*
X125200000Y-70800000D03*
G04 #@! TD*
D22*
G04 #@! TO.N,GND*
X102400000Y-116700000D03*
X97600000Y-83300000D03*
X116700000Y-83300000D03*
X117300000Y-80200000D03*
X118500000Y-76600000D03*
X117800000Y-70400000D03*
G04 #@! TD*
D23*
G04 #@! TO.N,GND*
X101025000Y-116700000D02*
X102400000Y-116700000D01*
X98975000Y-83300000D02*
X97600000Y-83300000D01*
X115600000Y-83300000D02*
X116700000Y-83300000D01*
X115980000Y-80200000D02*
X117300000Y-80200000D01*
X117130000Y-76600000D02*
X118500000Y-76600000D01*
X117800000Y-71600000D02*
X117800000Y-70400000D01*
G04 #@! TO.N,/Pin_32*
X99600000Y-116675000D02*
X99575000Y-116700000D01*
X99600000Y-111550000D02*
X99600000Y-116675000D01*
X98720000Y-118880000D02*
X98720000Y-127460000D01*
X99575000Y-116700000D02*
X99575000Y-118025000D01*
X99575000Y-118025000D02*
X98720000Y-118880000D01*
G04 #@! TO.N,/Pin_58*
X108525000Y-95625000D02*
X108500000Y-95600000D01*
X126257919Y-93680000D02*
X127460000Y-93680000D01*
X123620000Y-93680000D02*
X126257919Y-93680000D01*
X108500000Y-95600000D02*
X121700000Y-95600000D01*
X121700000Y-95600000D02*
X123620000Y-93680000D01*
X112200000Y-88200000D02*
X112200000Y-87025000D01*
X107080000Y-95600000D02*
X106100000Y-94620000D01*
X108500000Y-95600000D02*
X107080000Y-95600000D01*
X106100000Y-90900000D02*
X107800000Y-89200000D01*
X106100000Y-94620000D02*
X106100000Y-90900000D01*
X107800000Y-89200000D02*
X111200000Y-89200000D01*
X111200000Y-89200000D02*
X112200000Y-88200000D01*
G04 #@! TO.N,+5V*
X114000000Y-80420000D02*
X114220000Y-80200000D01*
X114000000Y-83300000D02*
X114000000Y-80420000D01*
X114220000Y-76650000D02*
X114270000Y-76600000D01*
X114220000Y-80200000D02*
X114220000Y-76650000D01*
X114300000Y-76570000D02*
X114270000Y-76600000D01*
X114300000Y-73200000D02*
X114300000Y-76570000D01*
X113000000Y-83300000D02*
X114000000Y-83300000D01*
X112200000Y-85575000D02*
X112200000Y-84100000D01*
X112200000Y-84100000D02*
X113000000Y-83300000D01*
X125200000Y-70800000D02*
X125200000Y-73340000D01*
X125200000Y-73340000D02*
X125200000Y-75880000D01*
X125200000Y-75880000D02*
X125200000Y-78420000D01*
X125200000Y-69800000D02*
X125200000Y-70800000D01*
X124400000Y-69000000D02*
X125200000Y-69800000D01*
X117680000Y-69000000D02*
X124400000Y-69000000D01*
X114300000Y-73200000D02*
X114300000Y-72380000D01*
X114300000Y-72380000D02*
X117680000Y-69000000D01*
G04 #@! TO.N,/Pin_72*
X100425000Y-88425000D02*
X100400000Y-88450000D01*
X100425000Y-83300000D02*
X100425000Y-88425000D01*
X101300000Y-72560000D02*
X101280000Y-72540000D01*
X100425000Y-83300000D02*
X100425000Y-75675000D01*
X101300000Y-74800000D02*
X101300000Y-72560000D01*
X100425000Y-75675000D02*
X101300000Y-74800000D01*
G04 #@! TO.N,Net-(D1-Pad2)*
X115900000Y-73200000D02*
X117800000Y-73200000D01*
G04 #@! TO.N,/Pin_65*
X110070000Y-70000000D02*
X108900000Y-70000000D01*
X111000000Y-70930000D02*
X110070000Y-70000000D01*
X111000000Y-79300000D02*
X111000000Y-70930000D01*
X106000000Y-88450000D02*
X106000000Y-84300000D01*
X106000000Y-84300000D02*
X111000000Y-79300000D01*
G04 #@! TO.N,/Pin_1*
X89900000Y-90800000D02*
X91500000Y-90800000D01*
X83000000Y-83900000D02*
X89900000Y-90800000D01*
X70930000Y-83900000D02*
X83000000Y-83900000D01*
X70000000Y-86000000D02*
X70000000Y-84830000D01*
X70000000Y-84830000D02*
X70930000Y-83900000D01*
G04 #@! TO.N,/Pin_25*
X89930000Y-130000000D02*
X91100000Y-130000000D01*
X89300000Y-129370000D02*
X89930000Y-130000000D01*
X89300000Y-117800000D02*
X89300000Y-129370000D01*
X94000000Y-111550000D02*
X94000000Y-113100000D01*
X94000000Y-113100000D02*
X89300000Y-117800000D01*
G04 #@! TO.N,/Pin_41*
X130000000Y-115170000D02*
X130000000Y-114000000D01*
X129170000Y-116000000D02*
X130000000Y-115170000D01*
X108500000Y-109200000D02*
X111600000Y-109200000D01*
X118400000Y-116000000D02*
X129170000Y-116000000D01*
X111600000Y-109200000D02*
X118400000Y-116000000D01*
G04 #@! TO.N,/Pin_2*
X90080000Y-91600000D02*
X91500000Y-91600000D01*
X88900000Y-91600000D02*
X90080000Y-91600000D01*
X72540000Y-86000000D02*
X83300000Y-86000000D01*
X83300000Y-86000000D02*
X88900000Y-91600000D01*
G04 #@! TO.N,/Pin_3*
X87600000Y-92400000D02*
X91500000Y-92400000D01*
X82529999Y-87329999D02*
X87600000Y-92400000D01*
X70000000Y-88540000D02*
X71210001Y-87329999D01*
X71210001Y-87329999D02*
X82529999Y-87329999D01*
G04 #@! TO.N,/Pin_4*
X72540000Y-88540000D02*
X82040000Y-88540000D01*
X86700000Y-93200000D02*
X91500000Y-93200000D01*
X82040000Y-88540000D02*
X86700000Y-93200000D01*
G04 #@! TO.N,/Pin_5*
X90080000Y-94000000D02*
X91500000Y-94000000D01*
X70000000Y-91080000D02*
X71210001Y-89869999D01*
X85700000Y-94000000D02*
X90080000Y-94000000D01*
X81569999Y-89869999D02*
X85700000Y-94000000D01*
X71210001Y-89869999D02*
X81569999Y-89869999D01*
G04 #@! TO.N,/Pin_6*
X84500000Y-94800000D02*
X91500000Y-94800000D01*
X72540000Y-91080000D02*
X80780000Y-91080000D01*
X80780000Y-91080000D02*
X84500000Y-94800000D01*
G04 #@! TO.N,/Pin_7*
X90080000Y-95600000D02*
X91500000Y-95600000D01*
X83300000Y-95600000D02*
X90080000Y-95600000D01*
X80109999Y-92409999D02*
X83300000Y-95600000D01*
X70000000Y-93620000D02*
X71210001Y-92409999D01*
X71210001Y-92409999D02*
X80109999Y-92409999D01*
G04 #@! TO.N,/Pin_8*
X90080000Y-96400000D02*
X91500000Y-96400000D01*
X82100000Y-96400000D02*
X90080000Y-96400000D01*
X72540000Y-93620000D02*
X79320000Y-93620000D01*
X79320000Y-93620000D02*
X82100000Y-96400000D01*
G04 #@! TO.N,/Pin_9*
X90080000Y-97200000D02*
X91500000Y-97200000D01*
X80600000Y-97200000D02*
X90080000Y-97200000D01*
X78349999Y-94949999D02*
X80600000Y-97200000D01*
X70000000Y-96160000D02*
X71210001Y-94949999D01*
X71210001Y-94949999D02*
X78349999Y-94949999D01*
G04 #@! TO.N,/Pin_10*
X72540000Y-96220000D02*
X72720000Y-96400000D01*
X90080000Y-98000000D02*
X91500000Y-98000000D01*
X79300000Y-98000000D02*
X90080000Y-98000000D01*
X72540000Y-96160000D02*
X77460000Y-96160000D01*
X77460000Y-96160000D02*
X79300000Y-98000000D01*
G04 #@! TO.N,/Pin_11*
X90080000Y-98800000D02*
X91500000Y-98800000D01*
X78100000Y-98800000D02*
X90080000Y-98800000D01*
X76789999Y-97489999D02*
X78100000Y-98800000D01*
X70000000Y-98700000D02*
X71210001Y-97489999D01*
X71210001Y-97489999D02*
X76789999Y-97489999D01*
G04 #@! TO.N,/Pin_12*
X90080000Y-99600000D02*
X91500000Y-99600000D01*
X76400000Y-99600000D02*
X90080000Y-99600000D01*
X72540000Y-98700000D02*
X75500000Y-98700000D01*
X75500000Y-98700000D02*
X76400000Y-99600000D01*
G04 #@! TO.N,/Pin_13*
X75100000Y-100400000D02*
X90080000Y-100400000D01*
X90080000Y-100400000D02*
X91500000Y-100400000D01*
X74610001Y-99910001D02*
X75100000Y-100400000D01*
X70000000Y-101240000D02*
X71329999Y-99910001D01*
X71329999Y-99910001D02*
X74610001Y-99910001D01*
G04 #@! TO.N,/Pin_14*
X91460000Y-101240000D02*
X91500000Y-101200000D01*
X72540000Y-101240000D02*
X91460000Y-101240000D01*
G04 #@! TO.N,/Pin_15*
X75100000Y-102000000D02*
X91500000Y-102000000D01*
X70000000Y-103780000D02*
X71329999Y-102450001D01*
X74649999Y-102450001D02*
X75100000Y-102000000D01*
X71329999Y-102450001D02*
X74649999Y-102450001D01*
G04 #@! TO.N,/Pin_16*
X76500000Y-102800000D02*
X90080000Y-102800000D01*
X72540000Y-103780000D02*
X75520000Y-103780000D01*
X90080000Y-102800000D02*
X91500000Y-102800000D01*
X75520000Y-103780000D02*
X76500000Y-102800000D01*
G04 #@! TO.N,/Pin_17*
X77009999Y-104990001D02*
X78400000Y-103600000D01*
X78400000Y-103600000D02*
X91500000Y-103600000D01*
X70000000Y-106320000D02*
X71329999Y-104990001D01*
X71329999Y-104990001D02*
X77009999Y-104990001D01*
G04 #@! TO.N,/Pin_18*
X90080000Y-104400000D02*
X91500000Y-104400000D01*
X80100000Y-104400000D02*
X90080000Y-104400000D01*
X72540000Y-106320000D02*
X78180000Y-106320000D01*
X78180000Y-106320000D02*
X80100000Y-104400000D01*
G04 #@! TO.N,/Pin_19*
X81600000Y-105200000D02*
X91500000Y-105200000D01*
X79269999Y-107530001D02*
X81600000Y-105200000D01*
X70000000Y-108860000D02*
X71329999Y-107530001D01*
X71329999Y-107530001D02*
X79269999Y-107530001D01*
G04 #@! TO.N,/Pin_20*
X90080000Y-106000000D02*
X91500000Y-106000000D01*
X83200000Y-106000000D02*
X90080000Y-106000000D01*
X72540000Y-108860000D02*
X80340000Y-108860000D01*
X80340000Y-108860000D02*
X83200000Y-106000000D01*
G04 #@! TO.N,/Pin_21*
X84900000Y-106800000D02*
X91500000Y-106800000D01*
X81629999Y-110070001D02*
X84900000Y-106800000D01*
X70000000Y-111400000D02*
X71329999Y-110070001D01*
X71329999Y-110070001D02*
X81629999Y-110070001D01*
G04 #@! TO.N,/Pin_22*
X72540000Y-111400000D02*
X82700000Y-111400000D01*
X86500000Y-107600000D02*
X91500000Y-107600000D01*
X82700000Y-111400000D02*
X86500000Y-107600000D01*
G04 #@! TO.N,/Pin_23*
X88300000Y-108400000D02*
X91500000Y-108400000D01*
X84089999Y-112610001D02*
X88300000Y-108400000D01*
X70000000Y-113940000D02*
X71329999Y-112610001D01*
X71329999Y-112610001D02*
X84089999Y-112610001D01*
G04 #@! TO.N,/Pin_24*
X90000000Y-109200000D02*
X91500000Y-109200000D01*
X72540000Y-113940000D02*
X85260000Y-113940000D01*
X85260000Y-113940000D02*
X90000000Y-109200000D01*
G04 #@! TO.N,/Pin_26*
X91100000Y-117800000D02*
X91100000Y-127460000D01*
X94800000Y-111550000D02*
X94800000Y-114100000D01*
X94800000Y-114100000D02*
X91100000Y-117800000D01*
G04 #@! TO.N,/Pin_27*
X92790001Y-129150001D02*
X93640000Y-130000000D01*
X92429999Y-128789999D02*
X92790001Y-129150001D01*
X92429999Y-117970001D02*
X92429999Y-128789999D01*
X95600000Y-111550000D02*
X95600000Y-114800000D01*
X95600000Y-114800000D02*
X92429999Y-117970001D01*
G04 #@! TO.N,/Pin_28*
X96400000Y-111550000D02*
X96400000Y-115500000D01*
X93640000Y-118260000D02*
X93640000Y-127460000D01*
X96400000Y-115500000D02*
X93640000Y-118260000D01*
G04 #@! TO.N,/Pin_29*
X95330001Y-129150001D02*
X96180000Y-130000000D01*
X94969999Y-128789999D02*
X95330001Y-129150001D01*
X94969999Y-118230001D02*
X94969999Y-128789999D01*
X97200000Y-111550000D02*
X97200000Y-116000000D01*
X97200000Y-116000000D02*
X94969999Y-118230001D01*
G04 #@! TO.N,/Pin_30*
X96180000Y-118420000D02*
X96180000Y-127460000D01*
X98000000Y-111550000D02*
X98000000Y-116600000D01*
X98000000Y-116600000D02*
X96180000Y-118420000D01*
G04 #@! TO.N,/Pin_31*
X97870001Y-129150001D02*
X98720000Y-130000000D01*
X98800000Y-115300000D02*
X98600000Y-115500000D01*
X98600000Y-115500000D02*
X98600000Y-117300000D01*
X98800000Y-111550000D02*
X98800000Y-115300000D01*
X98600000Y-117300000D02*
X97509999Y-118390001D01*
X97509999Y-118390001D02*
X97509999Y-128789999D01*
X97509999Y-128789999D02*
X97870001Y-129150001D01*
G04 #@! TO.N,/Pin_33*
X100410001Y-129150001D02*
X101260000Y-130000000D01*
X100400000Y-112970000D02*
X103300000Y-115870000D01*
X103300000Y-115870000D02*
X103300000Y-117300000D01*
X103300000Y-117300000D02*
X99930001Y-120669999D01*
X99930001Y-128670001D02*
X100410001Y-129150001D01*
X100400000Y-111550000D02*
X100400000Y-112970000D01*
X99930001Y-120669999D02*
X99930001Y-128670001D01*
G04 #@! TO.N,/Pin_34*
X101200000Y-127400000D02*
X101260000Y-127460000D01*
X101200000Y-120900000D02*
X101200000Y-127400000D01*
X103900000Y-118200000D02*
X101200000Y-120900000D01*
X103900000Y-115670000D02*
X103900000Y-118200000D01*
X101200000Y-111550000D02*
X101200000Y-112970000D01*
X101200000Y-112970000D02*
X103900000Y-115670000D01*
G04 #@! TO.N,/Pin_35*
X102000000Y-112970000D02*
X104500000Y-115470000D01*
X104500000Y-119100000D02*
X102589999Y-121010001D01*
X102000000Y-111550000D02*
X102000000Y-112970000D01*
X104500000Y-115470000D02*
X104500000Y-119100000D01*
X102589999Y-121010001D02*
X102589999Y-128789999D01*
X102950001Y-129150001D02*
X103800000Y-130000000D01*
X102589999Y-128789999D02*
X102950001Y-129150001D01*
G04 #@! TO.N,/Pin_36*
X103800000Y-121600000D02*
X103800000Y-127460000D01*
X105200000Y-120200000D02*
X103800000Y-121600000D01*
X105200000Y-115370000D02*
X105200000Y-120200000D01*
X102800000Y-111550000D02*
X102800000Y-112970000D01*
X102800000Y-112970000D02*
X105200000Y-115370000D01*
G04 #@! TO.N,/Pin_37*
X105490001Y-129150001D02*
X106340000Y-130000000D01*
X105000000Y-128660000D02*
X105490001Y-129150001D01*
X105000000Y-128050802D02*
X105000000Y-128660000D01*
X105010001Y-128040801D02*
X105000000Y-128050802D01*
X105010001Y-126879199D02*
X105010001Y-128040801D01*
X103600000Y-111550000D02*
X103600000Y-113034596D01*
X106000000Y-115434596D02*
X106000000Y-120900000D01*
X103600000Y-113034596D02*
X106000000Y-115434596D01*
X106000000Y-120900000D02*
X105000000Y-121900000D01*
X105000000Y-121900000D02*
X105000000Y-126869198D01*
X105000000Y-126869198D02*
X105010001Y-126879199D01*
G04 #@! TO.N,/Pin_38*
X106340000Y-122460000D02*
X106340000Y-127460000D01*
X106800000Y-115499193D02*
X106800000Y-122000000D01*
X106800000Y-122000000D02*
X106340000Y-122460000D01*
X104400000Y-111550000D02*
X104400000Y-113099193D01*
X104400000Y-113099193D02*
X106800000Y-115499193D01*
G04 #@! TO.N,/Pin_39*
X108030001Y-129150001D02*
X108880000Y-130000000D01*
X107669999Y-115633788D02*
X107669999Y-128789999D01*
X107669999Y-128789999D02*
X108030001Y-129150001D01*
X105200000Y-113163789D02*
X107669999Y-115633788D01*
X105200000Y-111550000D02*
X105200000Y-113163789D01*
G04 #@! TO.N,/Pin_40*
X108880000Y-126257919D02*
X108880000Y-127460000D01*
X108880000Y-115850000D02*
X108880000Y-126257919D01*
X106000000Y-111550000D02*
X106000000Y-112970000D01*
X106000000Y-112970000D02*
X108880000Y-115850000D01*
G04 #@! TO.N,/Pin_42*
X118300000Y-114000000D02*
X127460000Y-114000000D01*
X108500000Y-108400000D02*
X112700000Y-108400000D01*
X112700000Y-108400000D02*
X118300000Y-114000000D01*
G04 #@! TO.N,/Pin_43*
X128789999Y-112670001D02*
X129150001Y-112309999D01*
X129150001Y-112309999D02*
X130000000Y-111460000D01*
X118970001Y-112670001D02*
X128789999Y-112670001D01*
X108500000Y-107600000D02*
X113900000Y-107600000D01*
X113900000Y-107600000D02*
X118970001Y-112670001D01*
G04 #@! TO.N,/Pin_44*
X119860000Y-111460000D02*
X127460000Y-111460000D01*
X108500000Y-106800000D02*
X115200000Y-106800000D01*
X115200000Y-106800000D02*
X119860000Y-111460000D01*
G04 #@! TO.N,/Pin_45*
X129150001Y-109769999D02*
X130000000Y-108920000D01*
X120330001Y-110130001D02*
X128789999Y-110130001D01*
X128789999Y-110130001D02*
X129150001Y-109769999D01*
X108500000Y-106000000D02*
X116200000Y-106000000D01*
X116200000Y-106000000D02*
X120330001Y-110130001D01*
G04 #@! TO.N,/Pin_46*
X121020000Y-108920000D02*
X127460000Y-108920000D01*
X108500000Y-105200000D02*
X117300000Y-105200000D01*
X117300000Y-105200000D02*
X121020000Y-108920000D01*
G04 #@! TO.N,/Pin_47*
X129150001Y-107229999D02*
X130000000Y-106380000D01*
X128789999Y-107590001D02*
X129150001Y-107229999D01*
X121490001Y-107590001D02*
X128789999Y-107590001D01*
X108500000Y-104400000D02*
X118300000Y-104400000D01*
X118300000Y-104400000D02*
X121490001Y-107590001D01*
G04 #@! TO.N,/Pin_48*
X127440000Y-106400000D02*
X127460000Y-106380000D01*
X108500000Y-103600000D02*
X119600000Y-103600000D01*
X122400000Y-106400000D02*
X127440000Y-106400000D01*
X119600000Y-103600000D02*
X122400000Y-106400000D01*
G04 #@! TO.N,/Pin_49*
X129150001Y-104689999D02*
X130000000Y-103840000D01*
X123169999Y-105169999D02*
X128670001Y-105169999D01*
X108500000Y-102800000D02*
X120800000Y-102800000D01*
X128670001Y-105169999D02*
X129150001Y-104689999D01*
X120800000Y-102800000D02*
X123169999Y-105169999D01*
G04 #@! TO.N,/Pin_50*
X123940000Y-103840000D02*
X127460000Y-103840000D01*
X108500000Y-102000000D02*
X122100000Y-102000000D01*
X122100000Y-102000000D02*
X123940000Y-103840000D01*
G04 #@! TO.N,/Pin_51*
X129150001Y-102149999D02*
X130000000Y-101300000D01*
X128670001Y-102629999D02*
X129150001Y-102149999D01*
X124529999Y-102629999D02*
X128670001Y-102629999D01*
X108500000Y-101200000D02*
X123100000Y-101200000D01*
X123100000Y-101200000D02*
X124529999Y-102629999D01*
G04 #@! TO.N,/Pin_52*
X125000000Y-101300000D02*
X127460000Y-101300000D01*
X108500000Y-100400000D02*
X124100000Y-100400000D01*
X124100000Y-100400000D02*
X125000000Y-101300000D01*
G04 #@! TO.N,/Pin_53*
X128689999Y-100089999D02*
X128689999Y-100070001D01*
X125589999Y-100089999D02*
X128689999Y-100089999D01*
X128689999Y-100070001D02*
X130000000Y-98760000D01*
X108500000Y-99600000D02*
X125100000Y-99600000D01*
X125100000Y-99600000D02*
X125589999Y-100089999D01*
G04 #@! TO.N,/Pin_54*
X127420000Y-98800000D02*
X127460000Y-98760000D01*
X108500000Y-98800000D02*
X127420000Y-98800000D01*
G04 #@! TO.N,/Pin_55*
X129150001Y-97069999D02*
X130000000Y-96220000D01*
X128789999Y-97430001D02*
X129150001Y-97069999D01*
X125569999Y-97430001D02*
X128789999Y-97430001D01*
X108500000Y-98000000D02*
X125000000Y-98000000D01*
X125000000Y-98000000D02*
X125569999Y-97430001D01*
G04 #@! TO.N,/Pin_56*
X108500000Y-97200000D02*
X123900000Y-97200000D01*
X126257919Y-96220000D02*
X127460000Y-96220000D01*
X124880000Y-96220000D02*
X126257919Y-96220000D01*
X123900000Y-97200000D02*
X124880000Y-96220000D01*
G04 #@! TO.N,/Pin_57*
X129150001Y-94529999D02*
X130000000Y-93680000D01*
X128789999Y-94890001D02*
X129150001Y-94529999D01*
X124409999Y-94890001D02*
X128789999Y-94890001D01*
X108500000Y-96400000D02*
X122900000Y-96400000D01*
X122900000Y-96400000D02*
X124409999Y-94890001D01*
G04 #@! TO.N,/Pin_60*
X122060000Y-91140000D02*
X126257919Y-91140000D01*
X108500000Y-94000000D02*
X119200000Y-94000000D01*
X126257919Y-91140000D02*
X127460000Y-91140000D01*
X119200000Y-94000000D02*
X122060000Y-91140000D01*
G04 #@! TO.N,/Pin_61*
X128789999Y-89810001D02*
X129150001Y-89449999D01*
X121489999Y-89810001D02*
X128789999Y-89810001D01*
X129150001Y-89449999D02*
X130000000Y-88600000D01*
X108500000Y-93200000D02*
X118100000Y-93200000D01*
X118100000Y-93200000D02*
X121489999Y-89810001D01*
G04 #@! TO.N,/Pin_62*
X120700000Y-88600000D02*
X127460000Y-88600000D01*
X108500000Y-92400000D02*
X116900000Y-92400000D01*
X116900000Y-92400000D02*
X120700000Y-88600000D01*
G04 #@! TO.N,/Pin_63*
X129150001Y-86909999D02*
X130000000Y-86060000D01*
X128789999Y-87270001D02*
X129150001Y-86909999D01*
X119829999Y-87270001D02*
X128789999Y-87270001D01*
X108500000Y-91600000D02*
X115500000Y-91600000D01*
X115500000Y-91600000D02*
X119829999Y-87270001D01*
G04 #@! TO.N,/Pin_64*
X126257919Y-86060000D02*
X127460000Y-86060000D01*
X108500000Y-90800000D02*
X114300000Y-90800000D01*
X119040000Y-86060000D02*
X126257919Y-86060000D01*
X114300000Y-90800000D02*
X119040000Y-86060000D01*
G04 #@! TO.N,/Pin_66*
X108900000Y-79300000D02*
X108900000Y-72540000D01*
X105200000Y-88450000D02*
X105200000Y-83000000D01*
X105200000Y-83000000D02*
X108900000Y-79300000D01*
G04 #@! TO.N,/Pin_67*
X107209999Y-70849999D02*
X106360000Y-70000000D01*
X107570001Y-71210001D02*
X107209999Y-70849999D01*
X107570001Y-78629999D02*
X107570001Y-71210001D01*
X104400000Y-88450000D02*
X104400000Y-81800000D01*
X104400000Y-81800000D02*
X107570001Y-78629999D01*
G04 #@! TO.N,/Pin_68*
X106360000Y-77440000D02*
X106360000Y-72540000D01*
X103600000Y-88450000D02*
X103600000Y-80200000D01*
X103600000Y-80200000D02*
X106360000Y-77440000D01*
G04 #@! TO.N,/Pin_69*
X104669999Y-70849999D02*
X103820000Y-70000000D01*
X105030001Y-71210001D02*
X104669999Y-70849999D01*
X105030001Y-76569999D02*
X105030001Y-71210001D01*
X102800000Y-88450000D02*
X102800000Y-78800000D01*
X102800000Y-78800000D02*
X105030001Y-76569999D01*
G04 #@! TO.N,/Pin_71*
X102129999Y-70849999D02*
X101280000Y-70000000D01*
X101200000Y-84900000D02*
X101479990Y-84620010D01*
X101200000Y-88450000D02*
X101200000Y-84900000D01*
X101479990Y-84620010D02*
X101479990Y-76320010D01*
X101479990Y-76320010D02*
X102490001Y-75309999D01*
X102490001Y-75309999D02*
X102490001Y-71210001D01*
X102490001Y-71210001D02*
X102129999Y-70849999D01*
G04 #@! TO.N,/Pin_73*
X100000000Y-71260000D02*
X99589999Y-70849999D01*
X99600000Y-87030000D02*
X96839999Y-84269999D01*
X96839999Y-84269999D02*
X96839999Y-81860001D01*
X99600000Y-88450000D02*
X99600000Y-87030000D01*
X99700000Y-74800000D02*
X100000000Y-74500000D01*
X96839999Y-81860001D02*
X99700000Y-79000000D01*
X99589999Y-70849999D02*
X98740000Y-70000000D01*
X100000000Y-74500000D02*
X100000000Y-71260000D01*
X99700000Y-79000000D02*
X99700000Y-74800000D01*
G04 #@! TO.N,/Pin_74*
X96319989Y-80180011D02*
X98740000Y-77760000D01*
X96319989Y-84549989D02*
X96319989Y-80180011D01*
X98800000Y-88450000D02*
X98800000Y-87030000D01*
X98740000Y-77760000D02*
X98740000Y-72540000D01*
X98800000Y-87030000D02*
X96319989Y-84549989D01*
G04 #@! TO.N,/Pin_75*
X98000000Y-87030000D02*
X95799979Y-84829979D01*
X95799979Y-78500021D02*
X97410001Y-76889999D01*
X98000000Y-88450000D02*
X98000000Y-87030000D01*
X97410001Y-76889999D02*
X97410001Y-71210001D01*
X95799979Y-84829979D02*
X95799979Y-78500021D01*
X97049999Y-70849999D02*
X96200000Y-70000000D01*
X97410001Y-71210001D02*
X97049999Y-70849999D01*
G04 #@! TO.N,/Pin_76*
X96200000Y-76000000D02*
X96200000Y-72540000D01*
X95279969Y-76920031D02*
X96200000Y-76000000D01*
X95279969Y-85109969D02*
X95279969Y-76920031D01*
X97200000Y-88450000D02*
X97200000Y-87030000D01*
X97200000Y-87030000D02*
X95279969Y-85109969D01*
G04 #@! TO.N,/Pin_77*
X94509999Y-70849999D02*
X93660000Y-70000000D01*
X96400000Y-88450000D02*
X96400000Y-86965404D01*
X94870001Y-74429999D02*
X94870001Y-71210001D01*
X94870001Y-71210001D02*
X94509999Y-70849999D01*
X94500000Y-85065404D02*
X94500000Y-74800000D01*
X96400000Y-86965404D02*
X94500000Y-85065404D01*
X94500000Y-74800000D02*
X94870001Y-74429999D01*
G04 #@! TO.N,/Pin_78*
X93660000Y-73742081D02*
X93660000Y-72540000D01*
X93660000Y-85090000D02*
X93660000Y-73742081D01*
X95600000Y-87030000D02*
X93660000Y-85090000D01*
X95600000Y-88450000D02*
X95600000Y-87030000D01*
G04 #@! TO.N,/Pin_79*
X91969999Y-70849999D02*
X91120000Y-70000000D01*
X92330001Y-84560001D02*
X92330001Y-71210001D01*
X92330001Y-71210001D02*
X91969999Y-70849999D01*
X94800000Y-87030000D02*
X92330001Y-84560001D01*
X94800000Y-88450000D02*
X94800000Y-87030000D01*
G04 #@! TO.N,/Pin_80*
X91120000Y-84150000D02*
X91120000Y-73742081D01*
X91120000Y-73742081D02*
X91120000Y-72540000D01*
X94000000Y-87030000D02*
X91120000Y-84150000D01*
X94000000Y-88450000D02*
X94000000Y-87030000D01*
G04 #@! TO.N,/Pin_59*
X129150001Y-91989999D02*
X130000000Y-91140000D01*
X128789999Y-92350001D02*
X129150001Y-91989999D01*
X122949999Y-92350001D02*
X128789999Y-92350001D01*
X108500000Y-94800000D02*
X120500000Y-94800000D01*
X120500000Y-94800000D02*
X122949999Y-92350001D01*
G04 #@! TO.N,/Pin_70*
X103820000Y-75780000D02*
X103820000Y-72540000D01*
X102000000Y-88450000D02*
X102000000Y-77600000D01*
X102000000Y-77600000D02*
X103820000Y-75780000D01*
G04 #@! TD*
M02*
