G04 #@! TF.GenerationSoftware,KiCad,Pcbnew,5.0.2-bee76a0~70~ubuntu18.10.1*
G04 #@! TF.CreationDate,2019-01-06T00:09:58+02:00*
G04 #@! TF.ProjectId,GB-BRK-CPU-G1,47422d42-524b-42d4-9350-552d47312e6b,v1.0*
G04 #@! TF.SameCoordinates,Original*
G04 #@! TF.FileFunction,Paste,Top*
G04 #@! TF.FilePolarity,Positive*
%FSLAX46Y46*%
G04 Gerber Fmt 4.6, Leading zero omitted, Abs format (unit mm)*
G04 Created by KiCad (PCBNEW 5.0.2-bee76a0~70~ubuntu18.10.1) date su  6. tammikuuta 2019 00.09.58*
%MOMM*%
%LPD*%
G01*
G04 APERTURE LIST*
%ADD10C,0.150000*%
%ADD11R,0.500000X2.500000*%
%ADD12R,2.500000X0.500000*%
%ADD13C,0.100000*%
%ADD14C,0.875000*%
%ADD15C,0.975000*%
%ADD16C,1.250000*%
G04 APERTURE END LIST*
D10*
X140000000Y-60000000D02*
X60000000Y-60000000D01*
X140000000Y-140000000D02*
X140000000Y-60000000D01*
X60000000Y-140000000D02*
X140000000Y-140000000D01*
X60000000Y-60000000D02*
X60000000Y-140000000D01*
D11*
G04 #@! TO.C,U1*
X94000000Y-88350000D03*
X94800000Y-88350000D03*
X95600000Y-88350000D03*
X96400000Y-88350000D03*
X97200000Y-88350000D03*
X98000000Y-88350000D03*
X98800000Y-88350000D03*
X99600000Y-88350000D03*
X100400000Y-88350000D03*
X101200000Y-88350000D03*
X102000000Y-88350000D03*
X102800000Y-88350000D03*
X103600000Y-88350000D03*
X104400000Y-88350000D03*
X105200000Y-88350000D03*
D12*
X108600000Y-90800000D03*
X108600000Y-91600000D03*
X108600000Y-92400000D03*
X108600000Y-93200000D03*
X108600000Y-94000000D03*
X108600000Y-94800000D03*
X108600000Y-95600000D03*
X108600000Y-96400000D03*
X108600000Y-97200000D03*
X108600000Y-98000000D03*
X108600000Y-98800000D03*
X108600000Y-99600000D03*
X108600000Y-100400000D03*
X108600000Y-101200000D03*
X108600000Y-102000000D03*
X108600000Y-102800000D03*
X108600000Y-103600000D03*
X108600000Y-104400000D03*
X108600000Y-105200000D03*
X108600000Y-106000000D03*
X108600000Y-106800000D03*
X108600000Y-107600000D03*
X108600000Y-108400000D03*
D11*
X106000000Y-111650000D03*
X105200000Y-111650000D03*
X104400000Y-111650000D03*
X103600000Y-111650000D03*
X102800000Y-111650000D03*
X102000000Y-111650000D03*
X101200000Y-111650000D03*
X100400000Y-111650000D03*
X99600000Y-111650000D03*
X98800000Y-111650000D03*
X98000000Y-111650000D03*
X97200000Y-111650000D03*
X96400000Y-111650000D03*
X95600000Y-111650000D03*
X94800000Y-111650000D03*
D12*
X91400000Y-109200000D03*
X91400000Y-108400000D03*
X91400000Y-107600000D03*
X91400000Y-106800000D03*
X91400000Y-106000000D03*
X91400000Y-105200000D03*
X91400000Y-104400000D03*
X91400000Y-103600000D03*
X91400000Y-102800000D03*
X91400000Y-102000000D03*
X91400000Y-101200000D03*
X91400000Y-100400000D03*
X91400000Y-99600000D03*
X91400000Y-98800000D03*
X91400000Y-98000000D03*
X91400000Y-97200000D03*
X91400000Y-96400000D03*
X91400000Y-95600000D03*
X91400000Y-94800000D03*
X91400000Y-94000000D03*
X91400000Y-93200000D03*
X91400000Y-92400000D03*
X91400000Y-91600000D03*
X108600000Y-109200000D03*
D11*
X94000000Y-111650000D03*
D12*
X91400000Y-90800000D03*
D11*
X106000000Y-88350000D03*
G04 #@! TD*
D13*
G04 #@! TO.C,C1*
G36*
X115827691Y-82826053D02*
X115848926Y-82829203D01*
X115869750Y-82834419D01*
X115889962Y-82841651D01*
X115909368Y-82850830D01*
X115927781Y-82861866D01*
X115945024Y-82874654D01*
X115960930Y-82889070D01*
X115975346Y-82904976D01*
X115988134Y-82922219D01*
X115999170Y-82940632D01*
X116008349Y-82960038D01*
X116015581Y-82980250D01*
X116020797Y-83001074D01*
X116023947Y-83022309D01*
X116025000Y-83043750D01*
X116025000Y-83556250D01*
X116023947Y-83577691D01*
X116020797Y-83598926D01*
X116015581Y-83619750D01*
X116008349Y-83639962D01*
X115999170Y-83659368D01*
X115988134Y-83677781D01*
X115975346Y-83695024D01*
X115960930Y-83710930D01*
X115945024Y-83725346D01*
X115927781Y-83738134D01*
X115909368Y-83749170D01*
X115889962Y-83758349D01*
X115869750Y-83765581D01*
X115848926Y-83770797D01*
X115827691Y-83773947D01*
X115806250Y-83775000D01*
X115368750Y-83775000D01*
X115347309Y-83773947D01*
X115326074Y-83770797D01*
X115305250Y-83765581D01*
X115285038Y-83758349D01*
X115265632Y-83749170D01*
X115247219Y-83738134D01*
X115229976Y-83725346D01*
X115214070Y-83710930D01*
X115199654Y-83695024D01*
X115186866Y-83677781D01*
X115175830Y-83659368D01*
X115166651Y-83639962D01*
X115159419Y-83619750D01*
X115154203Y-83598926D01*
X115151053Y-83577691D01*
X115150000Y-83556250D01*
X115150000Y-83043750D01*
X115151053Y-83022309D01*
X115154203Y-83001074D01*
X115159419Y-82980250D01*
X115166651Y-82960038D01*
X115175830Y-82940632D01*
X115186866Y-82922219D01*
X115199654Y-82904976D01*
X115214070Y-82889070D01*
X115229976Y-82874654D01*
X115247219Y-82861866D01*
X115265632Y-82850830D01*
X115285038Y-82841651D01*
X115305250Y-82834419D01*
X115326074Y-82829203D01*
X115347309Y-82826053D01*
X115368750Y-82825000D01*
X115806250Y-82825000D01*
X115827691Y-82826053D01*
X115827691Y-82826053D01*
G37*
D14*
X115587500Y-83300000D03*
D13*
G36*
X114252691Y-82826053D02*
X114273926Y-82829203D01*
X114294750Y-82834419D01*
X114314962Y-82841651D01*
X114334368Y-82850830D01*
X114352781Y-82861866D01*
X114370024Y-82874654D01*
X114385930Y-82889070D01*
X114400346Y-82904976D01*
X114413134Y-82922219D01*
X114424170Y-82940632D01*
X114433349Y-82960038D01*
X114440581Y-82980250D01*
X114445797Y-83001074D01*
X114448947Y-83022309D01*
X114450000Y-83043750D01*
X114450000Y-83556250D01*
X114448947Y-83577691D01*
X114445797Y-83598926D01*
X114440581Y-83619750D01*
X114433349Y-83639962D01*
X114424170Y-83659368D01*
X114413134Y-83677781D01*
X114400346Y-83695024D01*
X114385930Y-83710930D01*
X114370024Y-83725346D01*
X114352781Y-83738134D01*
X114334368Y-83749170D01*
X114314962Y-83758349D01*
X114294750Y-83765581D01*
X114273926Y-83770797D01*
X114252691Y-83773947D01*
X114231250Y-83775000D01*
X113793750Y-83775000D01*
X113772309Y-83773947D01*
X113751074Y-83770797D01*
X113730250Y-83765581D01*
X113710038Y-83758349D01*
X113690632Y-83749170D01*
X113672219Y-83738134D01*
X113654976Y-83725346D01*
X113639070Y-83710930D01*
X113624654Y-83695024D01*
X113611866Y-83677781D01*
X113600830Y-83659368D01*
X113591651Y-83639962D01*
X113584419Y-83619750D01*
X113579203Y-83598926D01*
X113576053Y-83577691D01*
X113575000Y-83556250D01*
X113575000Y-83043750D01*
X113576053Y-83022309D01*
X113579203Y-83001074D01*
X113584419Y-82980250D01*
X113591651Y-82960038D01*
X113600830Y-82940632D01*
X113611866Y-82922219D01*
X113624654Y-82904976D01*
X113639070Y-82889070D01*
X113654976Y-82874654D01*
X113672219Y-82861866D01*
X113690632Y-82850830D01*
X113710038Y-82841651D01*
X113730250Y-82834419D01*
X113751074Y-82829203D01*
X113772309Y-82826053D01*
X113793750Y-82825000D01*
X114231250Y-82825000D01*
X114252691Y-82826053D01*
X114252691Y-82826053D01*
G37*
D14*
X114012500Y-83300000D03*
G04 #@! TD*
D13*
G04 #@! TO.C,C2*
G36*
X116305142Y-79501174D02*
X116328803Y-79504684D01*
X116352007Y-79510496D01*
X116374529Y-79518554D01*
X116396153Y-79528782D01*
X116416670Y-79541079D01*
X116435883Y-79555329D01*
X116453607Y-79571393D01*
X116469671Y-79589117D01*
X116483921Y-79608330D01*
X116496218Y-79628847D01*
X116506446Y-79650471D01*
X116514504Y-79672993D01*
X116520316Y-79696197D01*
X116523826Y-79719858D01*
X116525000Y-79743750D01*
X116525000Y-80656250D01*
X116523826Y-80680142D01*
X116520316Y-80703803D01*
X116514504Y-80727007D01*
X116506446Y-80749529D01*
X116496218Y-80771153D01*
X116483921Y-80791670D01*
X116469671Y-80810883D01*
X116453607Y-80828607D01*
X116435883Y-80844671D01*
X116416670Y-80858921D01*
X116396153Y-80871218D01*
X116374529Y-80881446D01*
X116352007Y-80889504D01*
X116328803Y-80895316D01*
X116305142Y-80898826D01*
X116281250Y-80900000D01*
X115793750Y-80900000D01*
X115769858Y-80898826D01*
X115746197Y-80895316D01*
X115722993Y-80889504D01*
X115700471Y-80881446D01*
X115678847Y-80871218D01*
X115658330Y-80858921D01*
X115639117Y-80844671D01*
X115621393Y-80828607D01*
X115605329Y-80810883D01*
X115591079Y-80791670D01*
X115578782Y-80771153D01*
X115568554Y-80749529D01*
X115560496Y-80727007D01*
X115554684Y-80703803D01*
X115551174Y-80680142D01*
X115550000Y-80656250D01*
X115550000Y-79743750D01*
X115551174Y-79719858D01*
X115554684Y-79696197D01*
X115560496Y-79672993D01*
X115568554Y-79650471D01*
X115578782Y-79628847D01*
X115591079Y-79608330D01*
X115605329Y-79589117D01*
X115621393Y-79571393D01*
X115639117Y-79555329D01*
X115658330Y-79541079D01*
X115678847Y-79528782D01*
X115700471Y-79518554D01*
X115722993Y-79510496D01*
X115746197Y-79504684D01*
X115769858Y-79501174D01*
X115793750Y-79500000D01*
X116281250Y-79500000D01*
X116305142Y-79501174D01*
X116305142Y-79501174D01*
G37*
D15*
X116037500Y-80200000D03*
D13*
G36*
X114430142Y-79501174D02*
X114453803Y-79504684D01*
X114477007Y-79510496D01*
X114499529Y-79518554D01*
X114521153Y-79528782D01*
X114541670Y-79541079D01*
X114560883Y-79555329D01*
X114578607Y-79571393D01*
X114594671Y-79589117D01*
X114608921Y-79608330D01*
X114621218Y-79628847D01*
X114631446Y-79650471D01*
X114639504Y-79672993D01*
X114645316Y-79696197D01*
X114648826Y-79719858D01*
X114650000Y-79743750D01*
X114650000Y-80656250D01*
X114648826Y-80680142D01*
X114645316Y-80703803D01*
X114639504Y-80727007D01*
X114631446Y-80749529D01*
X114621218Y-80771153D01*
X114608921Y-80791670D01*
X114594671Y-80810883D01*
X114578607Y-80828607D01*
X114560883Y-80844671D01*
X114541670Y-80858921D01*
X114521153Y-80871218D01*
X114499529Y-80881446D01*
X114477007Y-80889504D01*
X114453803Y-80895316D01*
X114430142Y-80898826D01*
X114406250Y-80900000D01*
X113918750Y-80900000D01*
X113894858Y-80898826D01*
X113871197Y-80895316D01*
X113847993Y-80889504D01*
X113825471Y-80881446D01*
X113803847Y-80871218D01*
X113783330Y-80858921D01*
X113764117Y-80844671D01*
X113746393Y-80828607D01*
X113730329Y-80810883D01*
X113716079Y-80791670D01*
X113703782Y-80771153D01*
X113693554Y-80749529D01*
X113685496Y-80727007D01*
X113679684Y-80703803D01*
X113676174Y-80680142D01*
X113675000Y-80656250D01*
X113675000Y-79743750D01*
X113676174Y-79719858D01*
X113679684Y-79696197D01*
X113685496Y-79672993D01*
X113693554Y-79650471D01*
X113703782Y-79628847D01*
X113716079Y-79608330D01*
X113730329Y-79589117D01*
X113746393Y-79571393D01*
X113764117Y-79555329D01*
X113783330Y-79541079D01*
X113803847Y-79528782D01*
X113825471Y-79518554D01*
X113847993Y-79510496D01*
X113871197Y-79504684D01*
X113894858Y-79501174D01*
X113918750Y-79500000D01*
X114406250Y-79500000D01*
X114430142Y-79501174D01*
X114430142Y-79501174D01*
G37*
D15*
X114162500Y-80200000D03*
G04 #@! TD*
D13*
G04 #@! TO.C,C3*
G36*
X117499504Y-75726204D02*
X117523773Y-75729804D01*
X117547571Y-75735765D01*
X117570671Y-75744030D01*
X117592849Y-75754520D01*
X117613893Y-75767133D01*
X117633598Y-75781747D01*
X117651777Y-75798223D01*
X117668253Y-75816402D01*
X117682867Y-75836107D01*
X117695480Y-75857151D01*
X117705970Y-75879329D01*
X117714235Y-75902429D01*
X117720196Y-75926227D01*
X117723796Y-75950496D01*
X117725000Y-75975000D01*
X117725000Y-77225000D01*
X117723796Y-77249504D01*
X117720196Y-77273773D01*
X117714235Y-77297571D01*
X117705970Y-77320671D01*
X117695480Y-77342849D01*
X117682867Y-77363893D01*
X117668253Y-77383598D01*
X117651777Y-77401777D01*
X117633598Y-77418253D01*
X117613893Y-77432867D01*
X117592849Y-77445480D01*
X117570671Y-77455970D01*
X117547571Y-77464235D01*
X117523773Y-77470196D01*
X117499504Y-77473796D01*
X117475000Y-77475000D01*
X116725000Y-77475000D01*
X116700496Y-77473796D01*
X116676227Y-77470196D01*
X116652429Y-77464235D01*
X116629329Y-77455970D01*
X116607151Y-77445480D01*
X116586107Y-77432867D01*
X116566402Y-77418253D01*
X116548223Y-77401777D01*
X116531747Y-77383598D01*
X116517133Y-77363893D01*
X116504520Y-77342849D01*
X116494030Y-77320671D01*
X116485765Y-77297571D01*
X116479804Y-77273773D01*
X116476204Y-77249504D01*
X116475000Y-77225000D01*
X116475000Y-75975000D01*
X116476204Y-75950496D01*
X116479804Y-75926227D01*
X116485765Y-75902429D01*
X116494030Y-75879329D01*
X116504520Y-75857151D01*
X116517133Y-75836107D01*
X116531747Y-75816402D01*
X116548223Y-75798223D01*
X116566402Y-75781747D01*
X116586107Y-75767133D01*
X116607151Y-75754520D01*
X116629329Y-75744030D01*
X116652429Y-75735765D01*
X116676227Y-75729804D01*
X116700496Y-75726204D01*
X116725000Y-75725000D01*
X117475000Y-75725000D01*
X117499504Y-75726204D01*
X117499504Y-75726204D01*
G37*
D16*
X117100000Y-76600000D03*
D13*
G36*
X114699504Y-75726204D02*
X114723773Y-75729804D01*
X114747571Y-75735765D01*
X114770671Y-75744030D01*
X114792849Y-75754520D01*
X114813893Y-75767133D01*
X114833598Y-75781747D01*
X114851777Y-75798223D01*
X114868253Y-75816402D01*
X114882867Y-75836107D01*
X114895480Y-75857151D01*
X114905970Y-75879329D01*
X114914235Y-75902429D01*
X114920196Y-75926227D01*
X114923796Y-75950496D01*
X114925000Y-75975000D01*
X114925000Y-77225000D01*
X114923796Y-77249504D01*
X114920196Y-77273773D01*
X114914235Y-77297571D01*
X114905970Y-77320671D01*
X114895480Y-77342849D01*
X114882867Y-77363893D01*
X114868253Y-77383598D01*
X114851777Y-77401777D01*
X114833598Y-77418253D01*
X114813893Y-77432867D01*
X114792849Y-77445480D01*
X114770671Y-77455970D01*
X114747571Y-77464235D01*
X114723773Y-77470196D01*
X114699504Y-77473796D01*
X114675000Y-77475000D01*
X113925000Y-77475000D01*
X113900496Y-77473796D01*
X113876227Y-77470196D01*
X113852429Y-77464235D01*
X113829329Y-77455970D01*
X113807151Y-77445480D01*
X113786107Y-77432867D01*
X113766402Y-77418253D01*
X113748223Y-77401777D01*
X113731747Y-77383598D01*
X113717133Y-77363893D01*
X113704520Y-77342849D01*
X113694030Y-77320671D01*
X113685765Y-77297571D01*
X113679804Y-77273773D01*
X113676204Y-77249504D01*
X113675000Y-77225000D01*
X113675000Y-75975000D01*
X113676204Y-75950496D01*
X113679804Y-75926227D01*
X113685765Y-75902429D01*
X113694030Y-75879329D01*
X113704520Y-75857151D01*
X113717133Y-75836107D01*
X113731747Y-75816402D01*
X113748223Y-75798223D01*
X113766402Y-75781747D01*
X113786107Y-75767133D01*
X113807151Y-75754520D01*
X113829329Y-75744030D01*
X113852429Y-75735765D01*
X113876227Y-75729804D01*
X113900496Y-75726204D01*
X113925000Y-75725000D01*
X114675000Y-75725000D01*
X114699504Y-75726204D01*
X114699504Y-75726204D01*
G37*
D16*
X114300000Y-76600000D03*
G04 #@! TD*
D13*
G04 #@! TO.C,D1*
G36*
X118077691Y-72751053D02*
X118098926Y-72754203D01*
X118119750Y-72759419D01*
X118139962Y-72766651D01*
X118159368Y-72775830D01*
X118177781Y-72786866D01*
X118195024Y-72799654D01*
X118210930Y-72814070D01*
X118225346Y-72829976D01*
X118238134Y-72847219D01*
X118249170Y-72865632D01*
X118258349Y-72885038D01*
X118265581Y-72905250D01*
X118270797Y-72926074D01*
X118273947Y-72947309D01*
X118275000Y-72968750D01*
X118275000Y-73406250D01*
X118273947Y-73427691D01*
X118270797Y-73448926D01*
X118265581Y-73469750D01*
X118258349Y-73489962D01*
X118249170Y-73509368D01*
X118238134Y-73527781D01*
X118225346Y-73545024D01*
X118210930Y-73560930D01*
X118195024Y-73575346D01*
X118177781Y-73588134D01*
X118159368Y-73599170D01*
X118139962Y-73608349D01*
X118119750Y-73615581D01*
X118098926Y-73620797D01*
X118077691Y-73623947D01*
X118056250Y-73625000D01*
X117543750Y-73625000D01*
X117522309Y-73623947D01*
X117501074Y-73620797D01*
X117480250Y-73615581D01*
X117460038Y-73608349D01*
X117440632Y-73599170D01*
X117422219Y-73588134D01*
X117404976Y-73575346D01*
X117389070Y-73560930D01*
X117374654Y-73545024D01*
X117361866Y-73527781D01*
X117350830Y-73509368D01*
X117341651Y-73489962D01*
X117334419Y-73469750D01*
X117329203Y-73448926D01*
X117326053Y-73427691D01*
X117325000Y-73406250D01*
X117325000Y-72968750D01*
X117326053Y-72947309D01*
X117329203Y-72926074D01*
X117334419Y-72905250D01*
X117341651Y-72885038D01*
X117350830Y-72865632D01*
X117361866Y-72847219D01*
X117374654Y-72829976D01*
X117389070Y-72814070D01*
X117404976Y-72799654D01*
X117422219Y-72786866D01*
X117440632Y-72775830D01*
X117460038Y-72766651D01*
X117480250Y-72759419D01*
X117501074Y-72754203D01*
X117522309Y-72751053D01*
X117543750Y-72750000D01*
X118056250Y-72750000D01*
X118077691Y-72751053D01*
X118077691Y-72751053D01*
G37*
D14*
X117800000Y-73187500D03*
D13*
G36*
X118077691Y-71176053D02*
X118098926Y-71179203D01*
X118119750Y-71184419D01*
X118139962Y-71191651D01*
X118159368Y-71200830D01*
X118177781Y-71211866D01*
X118195024Y-71224654D01*
X118210930Y-71239070D01*
X118225346Y-71254976D01*
X118238134Y-71272219D01*
X118249170Y-71290632D01*
X118258349Y-71310038D01*
X118265581Y-71330250D01*
X118270797Y-71351074D01*
X118273947Y-71372309D01*
X118275000Y-71393750D01*
X118275000Y-71831250D01*
X118273947Y-71852691D01*
X118270797Y-71873926D01*
X118265581Y-71894750D01*
X118258349Y-71914962D01*
X118249170Y-71934368D01*
X118238134Y-71952781D01*
X118225346Y-71970024D01*
X118210930Y-71985930D01*
X118195024Y-72000346D01*
X118177781Y-72013134D01*
X118159368Y-72024170D01*
X118139962Y-72033349D01*
X118119750Y-72040581D01*
X118098926Y-72045797D01*
X118077691Y-72048947D01*
X118056250Y-72050000D01*
X117543750Y-72050000D01*
X117522309Y-72048947D01*
X117501074Y-72045797D01*
X117480250Y-72040581D01*
X117460038Y-72033349D01*
X117440632Y-72024170D01*
X117422219Y-72013134D01*
X117404976Y-72000346D01*
X117389070Y-71985930D01*
X117374654Y-71970024D01*
X117361866Y-71952781D01*
X117350830Y-71934368D01*
X117341651Y-71914962D01*
X117334419Y-71894750D01*
X117329203Y-71873926D01*
X117326053Y-71852691D01*
X117325000Y-71831250D01*
X117325000Y-71393750D01*
X117326053Y-71372309D01*
X117329203Y-71351074D01*
X117334419Y-71330250D01*
X117341651Y-71310038D01*
X117350830Y-71290632D01*
X117361866Y-71272219D01*
X117374654Y-71254976D01*
X117389070Y-71239070D01*
X117404976Y-71224654D01*
X117422219Y-71211866D01*
X117440632Y-71200830D01*
X117460038Y-71191651D01*
X117480250Y-71184419D01*
X117501074Y-71179203D01*
X117522309Y-71176053D01*
X117543750Y-71175000D01*
X118056250Y-71175000D01*
X118077691Y-71176053D01*
X118077691Y-71176053D01*
G37*
D14*
X117800000Y-71612500D03*
G04 #@! TD*
D13*
G04 #@! TO.C,R1*
G36*
X114552691Y-72726053D02*
X114573926Y-72729203D01*
X114594750Y-72734419D01*
X114614962Y-72741651D01*
X114634368Y-72750830D01*
X114652781Y-72761866D01*
X114670024Y-72774654D01*
X114685930Y-72789070D01*
X114700346Y-72804976D01*
X114713134Y-72822219D01*
X114724170Y-72840632D01*
X114733349Y-72860038D01*
X114740581Y-72880250D01*
X114745797Y-72901074D01*
X114748947Y-72922309D01*
X114750000Y-72943750D01*
X114750000Y-73456250D01*
X114748947Y-73477691D01*
X114745797Y-73498926D01*
X114740581Y-73519750D01*
X114733349Y-73539962D01*
X114724170Y-73559368D01*
X114713134Y-73577781D01*
X114700346Y-73595024D01*
X114685930Y-73610930D01*
X114670024Y-73625346D01*
X114652781Y-73638134D01*
X114634368Y-73649170D01*
X114614962Y-73658349D01*
X114594750Y-73665581D01*
X114573926Y-73670797D01*
X114552691Y-73673947D01*
X114531250Y-73675000D01*
X114093750Y-73675000D01*
X114072309Y-73673947D01*
X114051074Y-73670797D01*
X114030250Y-73665581D01*
X114010038Y-73658349D01*
X113990632Y-73649170D01*
X113972219Y-73638134D01*
X113954976Y-73625346D01*
X113939070Y-73610930D01*
X113924654Y-73595024D01*
X113911866Y-73577781D01*
X113900830Y-73559368D01*
X113891651Y-73539962D01*
X113884419Y-73519750D01*
X113879203Y-73498926D01*
X113876053Y-73477691D01*
X113875000Y-73456250D01*
X113875000Y-72943750D01*
X113876053Y-72922309D01*
X113879203Y-72901074D01*
X113884419Y-72880250D01*
X113891651Y-72860038D01*
X113900830Y-72840632D01*
X113911866Y-72822219D01*
X113924654Y-72804976D01*
X113939070Y-72789070D01*
X113954976Y-72774654D01*
X113972219Y-72761866D01*
X113990632Y-72750830D01*
X114010038Y-72741651D01*
X114030250Y-72734419D01*
X114051074Y-72729203D01*
X114072309Y-72726053D01*
X114093750Y-72725000D01*
X114531250Y-72725000D01*
X114552691Y-72726053D01*
X114552691Y-72726053D01*
G37*
D14*
X114312500Y-73200000D03*
D13*
G36*
X116127691Y-72726053D02*
X116148926Y-72729203D01*
X116169750Y-72734419D01*
X116189962Y-72741651D01*
X116209368Y-72750830D01*
X116227781Y-72761866D01*
X116245024Y-72774654D01*
X116260930Y-72789070D01*
X116275346Y-72804976D01*
X116288134Y-72822219D01*
X116299170Y-72840632D01*
X116308349Y-72860038D01*
X116315581Y-72880250D01*
X116320797Y-72901074D01*
X116323947Y-72922309D01*
X116325000Y-72943750D01*
X116325000Y-73456250D01*
X116323947Y-73477691D01*
X116320797Y-73498926D01*
X116315581Y-73519750D01*
X116308349Y-73539962D01*
X116299170Y-73559368D01*
X116288134Y-73577781D01*
X116275346Y-73595024D01*
X116260930Y-73610930D01*
X116245024Y-73625346D01*
X116227781Y-73638134D01*
X116209368Y-73649170D01*
X116189962Y-73658349D01*
X116169750Y-73665581D01*
X116148926Y-73670797D01*
X116127691Y-73673947D01*
X116106250Y-73675000D01*
X115668750Y-73675000D01*
X115647309Y-73673947D01*
X115626074Y-73670797D01*
X115605250Y-73665581D01*
X115585038Y-73658349D01*
X115565632Y-73649170D01*
X115547219Y-73638134D01*
X115529976Y-73625346D01*
X115514070Y-73610930D01*
X115499654Y-73595024D01*
X115486866Y-73577781D01*
X115475830Y-73559368D01*
X115466651Y-73539962D01*
X115459419Y-73519750D01*
X115454203Y-73498926D01*
X115451053Y-73477691D01*
X115450000Y-73456250D01*
X115450000Y-72943750D01*
X115451053Y-72922309D01*
X115454203Y-72901074D01*
X115459419Y-72880250D01*
X115466651Y-72860038D01*
X115475830Y-72840632D01*
X115486866Y-72822219D01*
X115499654Y-72804976D01*
X115514070Y-72789070D01*
X115529976Y-72774654D01*
X115547219Y-72761866D01*
X115565632Y-72750830D01*
X115585038Y-72741651D01*
X115605250Y-72734419D01*
X115626074Y-72729203D01*
X115647309Y-72726053D01*
X115668750Y-72725000D01*
X116106250Y-72725000D01*
X116127691Y-72726053D01*
X116127691Y-72726053D01*
G37*
D14*
X115887500Y-73200000D03*
G04 #@! TD*
M02*
