M48
;DRILL file {KiCad 5.0.2-bee76a0~70~ubuntu18.10.1} date su  6. tammikuuta 2019 00.10.00
;FORMAT={-:-/ absolute / inch / decimal}
FMAT,2
INCH,TZ
T1C0.0157
T2C0.0197
T3C0.0394
T4C0.1260
%
G90
G05
T1
X3.8425Y-3.2795
X4.0315Y-4.5945
X4.5945Y-3.2795
X4.6181Y-3.1575
X4.6378Y-2.7717
X4.6654Y-3.0157
T2
X2.4646Y-5.315
X2.4922Y-5.2481
X2.4922Y-5.3818
X2.5591Y-5.2205
X2.5591Y-5.4094
X2.6259Y-5.2481
X2.6259Y-5.3818
X2.6535Y-5.315
X5.2205Y-2.5591
X5.2481Y-2.4922
X5.2481Y-2.6259
X5.315Y-2.4646
X5.315Y-2.6535
X5.3818Y-2.4922
X5.3818Y-2.6259
X5.4094Y-2.5591
X2.4646Y-2.5591
X2.4922Y-2.4922
X2.4922Y-2.6259
X2.5591Y-2.4646
X2.5591Y-2.6535
X2.6259Y-2.4922
X2.6259Y-2.6259
X2.6535Y-2.5591
X5.2205Y-5.315
X5.2481Y-5.2481
X5.2481Y-5.3818
X5.315Y-5.2205
X5.315Y-5.4094
X5.3818Y-5.2481
X5.3818Y-5.3818
X5.4094Y-5.315
T3
X3.5866Y-5.0181
X3.5866Y-5.1181
X3.6866Y-5.0181
X3.6866Y-5.1181
X3.7866Y-5.0181
X3.7866Y-5.1181
X3.8866Y-5.0181
X3.8866Y-5.1181
X3.9866Y-5.0181
X3.9866Y-5.1181
X4.0866Y-5.0181
X4.0866Y-5.1181
X4.1866Y-5.0181
X4.1866Y-5.1181
X4.2866Y-5.0181
X4.2866Y-5.1181
X4.7402Y-4.6969
X4.7402Y-4.7969
X4.7402Y-4.8969
X4.7402Y-4.9969
X4.9291Y-2.7874
X4.9291Y-2.8874
X4.9291Y-2.9874
X4.9291Y-3.0874
X5.0181Y-3.3882
X5.0181Y-3.4882
X5.0181Y-3.5882
X5.0181Y-3.6882
X5.0181Y-3.7882
X5.0181Y-3.8882
X5.0181Y-3.9882
X5.0181Y-4.0882
X5.0181Y-4.1882
X5.0181Y-4.2882
X5.0181Y-4.3882
X5.0181Y-4.4882
X5.1181Y-3.3882
X5.1181Y-3.4882
X5.1181Y-3.5882
X5.1181Y-3.6882
X5.1181Y-3.7882
X5.1181Y-3.8882
X5.1181Y-3.9882
X5.1181Y-4.0882
X5.1181Y-4.1882
X5.1181Y-4.2882
X5.1181Y-4.3882
X5.1181Y-4.4882
X2.7559Y-3.3858
X2.7559Y-3.4858
X2.7559Y-3.5858
X2.7559Y-3.6858
X2.7559Y-3.7858
X2.7559Y-3.8858
X2.7559Y-3.9858
X2.7559Y-4.0858
X2.7559Y-4.1858
X2.7559Y-4.2858
X2.7559Y-4.3858
X2.7559Y-4.4858
X2.8559Y-3.3858
X2.8559Y-3.4858
X2.8559Y-3.5858
X2.8559Y-3.6858
X2.8559Y-3.7858
X2.8559Y-3.8858
X2.8559Y-3.9858
X2.8559Y-4.0858
X2.8559Y-4.1858
X2.8559Y-4.2858
X2.8559Y-4.3858
X2.8559Y-4.4858
X3.5874Y-2.7559
X3.5874Y-2.8559
X3.6874Y-2.7559
X3.6874Y-2.8559
X3.7874Y-2.7559
X3.7874Y-2.8559
X3.8874Y-2.7559
X3.8874Y-2.8559
X3.9874Y-2.7559
X3.9874Y-2.8559
X4.0874Y-2.7559
X4.0874Y-2.8559
X4.1874Y-2.7559
X4.1874Y-2.8559
X4.2874Y-2.7559
X4.2874Y-2.8559
T4
X2.5591Y-2.5591
X5.315Y-5.315
X2.5591Y-5.315
X5.315Y-2.5591
T0
M30
