G04 #@! TF.GenerationSoftware,KiCad,Pcbnew,5.1.5-52549c5~84~ubuntu19.10.1*
G04 #@! TF.CreationDate,2020-02-14T19:08:51+02:00*
G04 #@! TF.ProjectId,GB-BRK-CPU-G1,47422d42-524b-42d4-9350-552d47312e6b,v1.1*
G04 #@! TF.SameCoordinates,Original*
G04 #@! TF.FileFunction,Legend,Top*
G04 #@! TF.FilePolarity,Positive*
%FSLAX46Y46*%
G04 Gerber Fmt 4.6, Leading zero omitted, Abs format (unit mm)*
G04 Created by KiCad (PCBNEW 5.1.5-52549c5~84~ubuntu19.10.1) date 2020-02-14 19:08:51*
%MOMM*%
%LPD*%
G04 APERTURE LIST*
%ADD10C,0.150000*%
%ADD11C,0.300000*%
%ADD12C,0.120000*%
G04 APERTURE END LIST*
D10*
X140000000Y-135000000D02*
G75*
G02X135000000Y-140000000I-5000000J0D01*
G01*
X65000000Y-140000000D02*
G75*
G02X60000000Y-135000000I0J5000000D01*
G01*
X60000000Y-65000000D02*
G75*
G02X65000000Y-60000000I5000000J0D01*
G01*
X135000000Y-60000000D02*
G75*
G02X140000000Y-65000000I0J-5000000D01*
G01*
D11*
X123271428Y-81507142D02*
X124414285Y-81507142D01*
X123842857Y-82078571D02*
X123842857Y-80935714D01*
X125842857Y-80578571D02*
X125128571Y-80578571D01*
X125057142Y-81292857D01*
X125128571Y-81221428D01*
X125271428Y-81150000D01*
X125628571Y-81150000D01*
X125771428Y-81221428D01*
X125842857Y-81292857D01*
X125914285Y-81435714D01*
X125914285Y-81792857D01*
X125842857Y-81935714D01*
X125771428Y-82007142D01*
X125628571Y-82078571D01*
X125271428Y-82078571D01*
X125128571Y-82007142D01*
X125057142Y-81935714D01*
X126342857Y-80578571D02*
X126842857Y-82078571D01*
X127342857Y-80578571D01*
X121405000Y-86778571D02*
X121405000Y-85278571D01*
X121976428Y-85278571D01*
X122119285Y-85350000D01*
X122190714Y-85421428D01*
X122262142Y-85564285D01*
X122262142Y-85778571D01*
X122190714Y-85921428D01*
X122119285Y-85992857D01*
X121976428Y-86064285D01*
X121405000Y-86064285D01*
X123690714Y-86778571D02*
X122833571Y-86778571D01*
X123262142Y-86778571D02*
X123262142Y-85278571D01*
X123119285Y-85492857D01*
X122976428Y-85635714D01*
X122833571Y-85707142D01*
X124190714Y-85278571D02*
X125119285Y-85278571D01*
X124619285Y-85850000D01*
X124833571Y-85850000D01*
X124976428Y-85921428D01*
X125047857Y-85992857D01*
X125119285Y-86135714D01*
X125119285Y-86492857D01*
X125047857Y-86635714D01*
X124976428Y-86707142D01*
X124833571Y-86778571D01*
X124405000Y-86778571D01*
X124262142Y-86707142D01*
X124190714Y-86635714D01*
X121405000Y-89278571D02*
X121405000Y-87778571D01*
X121976428Y-87778571D01*
X122119285Y-87850000D01*
X122190714Y-87921428D01*
X122262142Y-88064285D01*
X122262142Y-88278571D01*
X122190714Y-88421428D01*
X122119285Y-88492857D01*
X121976428Y-88564285D01*
X121405000Y-88564285D01*
X123690714Y-89278571D02*
X122833571Y-89278571D01*
X123262142Y-89278571D02*
X123262142Y-87778571D01*
X123119285Y-87992857D01*
X122976428Y-88135714D01*
X122833571Y-88207142D01*
X125047857Y-87778571D02*
X124333571Y-87778571D01*
X124262142Y-88492857D01*
X124333571Y-88421428D01*
X124476428Y-88350000D01*
X124833571Y-88350000D01*
X124976428Y-88421428D01*
X125047857Y-88492857D01*
X125119285Y-88635714D01*
X125119285Y-88992857D01*
X125047857Y-89135714D01*
X124976428Y-89207142D01*
X124833571Y-89278571D01*
X124476428Y-89278571D01*
X124333571Y-89207142D01*
X124262142Y-89135714D01*
X132352142Y-86678571D02*
X132352142Y-85178571D01*
X132923571Y-85178571D01*
X133066428Y-85250000D01*
X133137857Y-85321428D01*
X133209285Y-85464285D01*
X133209285Y-85678571D01*
X133137857Y-85821428D01*
X133066428Y-85892857D01*
X132923571Y-85964285D01*
X132352142Y-85964285D01*
X134637857Y-86678571D02*
X133780714Y-86678571D01*
X134209285Y-86678571D02*
X134209285Y-85178571D01*
X134066428Y-85392857D01*
X133923571Y-85535714D01*
X133780714Y-85607142D01*
X135923571Y-85678571D02*
X135923571Y-86678571D01*
X135566428Y-85107142D02*
X135209285Y-86178571D01*
X136137857Y-86178571D01*
X132137857Y-87778571D02*
X132637857Y-89278571D01*
X133137857Y-87778571D01*
X133637857Y-89278571D02*
X133637857Y-87778571D01*
X134352142Y-89278571D02*
X134352142Y-87778571D01*
X135209285Y-89278571D01*
X135209285Y-87778571D01*
X74952142Y-114578571D02*
X74952142Y-113078571D01*
X75309285Y-113078571D01*
X75523571Y-113150000D01*
X75666428Y-113292857D01*
X75737857Y-113435714D01*
X75809285Y-113721428D01*
X75809285Y-113935714D01*
X75737857Y-114221428D01*
X75666428Y-114364285D01*
X75523571Y-114507142D01*
X75309285Y-114578571D01*
X74952142Y-114578571D01*
X76309285Y-113078571D02*
X77309285Y-113078571D01*
X76666428Y-114578571D01*
X74952142Y-112078571D02*
X74952142Y-110578571D01*
X75309285Y-110578571D01*
X75523571Y-110650000D01*
X75666428Y-110792857D01*
X75737857Y-110935714D01*
X75809285Y-111221428D01*
X75809285Y-111435714D01*
X75737857Y-111721428D01*
X75666428Y-111864285D01*
X75523571Y-112007142D01*
X75309285Y-112078571D01*
X74952142Y-112078571D01*
X77166428Y-110578571D02*
X76452142Y-110578571D01*
X76380714Y-111292857D01*
X76452142Y-111221428D01*
X76595000Y-111150000D01*
X76952142Y-111150000D01*
X77095000Y-111221428D01*
X77166428Y-111292857D01*
X77237857Y-111435714D01*
X77237857Y-111792857D01*
X77166428Y-111935714D01*
X77095000Y-112007142D01*
X76952142Y-112078571D01*
X76595000Y-112078571D01*
X76452142Y-112007142D01*
X76380714Y-111935714D01*
X65433571Y-114578571D02*
X65433571Y-113078571D01*
X65790714Y-113078571D01*
X66005000Y-113150000D01*
X66147857Y-113292857D01*
X66219285Y-113435714D01*
X66290714Y-113721428D01*
X66290714Y-113935714D01*
X66219285Y-114221428D01*
X66147857Y-114364285D01*
X66005000Y-114507142D01*
X65790714Y-114578571D01*
X65433571Y-114578571D01*
X67576428Y-113078571D02*
X67290714Y-113078571D01*
X67147857Y-113150000D01*
X67076428Y-113221428D01*
X66933571Y-113435714D01*
X66862142Y-113721428D01*
X66862142Y-114292857D01*
X66933571Y-114435714D01*
X67005000Y-114507142D01*
X67147857Y-114578571D01*
X67433571Y-114578571D01*
X67576428Y-114507142D01*
X67647857Y-114435714D01*
X67719285Y-114292857D01*
X67719285Y-113935714D01*
X67647857Y-113792857D01*
X67576428Y-113721428D01*
X67433571Y-113650000D01*
X67147857Y-113650000D01*
X67005000Y-113721428D01*
X66933571Y-113792857D01*
X66862142Y-113935714D01*
X65433571Y-112078571D02*
X65433571Y-110578571D01*
X65790714Y-110578571D01*
X66005000Y-110650000D01*
X66147857Y-110792857D01*
X66219285Y-110935714D01*
X66290714Y-111221428D01*
X66290714Y-111435714D01*
X66219285Y-111721428D01*
X66147857Y-111864285D01*
X66005000Y-112007142D01*
X65790714Y-112078571D01*
X65433571Y-112078571D01*
X67576428Y-111078571D02*
X67576428Y-112078571D01*
X67219285Y-110507142D02*
X66862142Y-111578571D01*
X67790714Y-111578571D01*
X62928571Y-74675000D02*
X62785714Y-74603571D01*
X62571428Y-74603571D01*
X62357142Y-74675000D01*
X62214285Y-74817857D01*
X62142857Y-74960714D01*
X62071428Y-75246428D01*
X62071428Y-75460714D01*
X62142857Y-75746428D01*
X62214285Y-75889285D01*
X62357142Y-76032142D01*
X62571428Y-76103571D01*
X62714285Y-76103571D01*
X62928571Y-76032142D01*
X63000000Y-75960714D01*
X63000000Y-75460714D01*
X62714285Y-75460714D01*
X64142857Y-75317857D02*
X64357142Y-75389285D01*
X64428571Y-75460714D01*
X64500000Y-75603571D01*
X64500000Y-75817857D01*
X64428571Y-75960714D01*
X64357142Y-76032142D01*
X64214285Y-76103571D01*
X63642857Y-76103571D01*
X63642857Y-74603571D01*
X64142857Y-74603571D01*
X64285714Y-74675000D01*
X64357142Y-74746428D01*
X64428571Y-74889285D01*
X64428571Y-75032142D01*
X64357142Y-75175000D01*
X64285714Y-75246428D01*
X64142857Y-75317857D01*
X63642857Y-75317857D01*
X65142857Y-75532142D02*
X66285714Y-75532142D01*
X67500000Y-75317857D02*
X67714285Y-75389285D01*
X67785714Y-75460714D01*
X67857142Y-75603571D01*
X67857142Y-75817857D01*
X67785714Y-75960714D01*
X67714285Y-76032142D01*
X67571428Y-76103571D01*
X67000000Y-76103571D01*
X67000000Y-74603571D01*
X67500000Y-74603571D01*
X67642857Y-74675000D01*
X67714285Y-74746428D01*
X67785714Y-74889285D01*
X67785714Y-75032142D01*
X67714285Y-75175000D01*
X67642857Y-75246428D01*
X67500000Y-75317857D01*
X67000000Y-75317857D01*
X69357142Y-76103571D02*
X68857142Y-75389285D01*
X68500000Y-76103571D02*
X68500000Y-74603571D01*
X69071428Y-74603571D01*
X69214285Y-74675000D01*
X69285714Y-74746428D01*
X69357142Y-74889285D01*
X69357142Y-75103571D01*
X69285714Y-75246428D01*
X69214285Y-75317857D01*
X69071428Y-75389285D01*
X68500000Y-75389285D01*
X70000000Y-76103571D02*
X70000000Y-74603571D01*
X70857142Y-76103571D02*
X70214285Y-75246428D01*
X70857142Y-74603571D02*
X70000000Y-75460714D01*
X71500000Y-75532142D02*
X72642857Y-75532142D01*
X74214285Y-75960714D02*
X74142857Y-76032142D01*
X73928571Y-76103571D01*
X73785714Y-76103571D01*
X73571428Y-76032142D01*
X73428571Y-75889285D01*
X73357142Y-75746428D01*
X73285714Y-75460714D01*
X73285714Y-75246428D01*
X73357142Y-74960714D01*
X73428571Y-74817857D01*
X73571428Y-74675000D01*
X73785714Y-74603571D01*
X73928571Y-74603571D01*
X74142857Y-74675000D01*
X74214285Y-74746428D01*
X74857142Y-76103571D02*
X74857142Y-74603571D01*
X75428571Y-74603571D01*
X75571428Y-74675000D01*
X75642857Y-74746428D01*
X75714285Y-74889285D01*
X75714285Y-75103571D01*
X75642857Y-75246428D01*
X75571428Y-75317857D01*
X75428571Y-75389285D01*
X74857142Y-75389285D01*
X76357142Y-74603571D02*
X76357142Y-75817857D01*
X76428571Y-75960714D01*
X76500000Y-76032142D01*
X76642857Y-76103571D01*
X76928571Y-76103571D01*
X77071428Y-76032142D01*
X77142857Y-75960714D01*
X77214285Y-75817857D01*
X77214285Y-74603571D01*
X77928571Y-75532142D02*
X79071428Y-75532142D01*
X80571428Y-74675000D02*
X80428571Y-74603571D01*
X80214285Y-74603571D01*
X80000000Y-74675000D01*
X79857142Y-74817857D01*
X79785714Y-74960714D01*
X79714285Y-75246428D01*
X79714285Y-75460714D01*
X79785714Y-75746428D01*
X79857142Y-75889285D01*
X80000000Y-76032142D01*
X80214285Y-76103571D01*
X80357142Y-76103571D01*
X80571428Y-76032142D01*
X80642857Y-75960714D01*
X80642857Y-75460714D01*
X80357142Y-75460714D01*
X82071428Y-76103571D02*
X81214285Y-76103571D01*
X81642857Y-76103571D02*
X81642857Y-74603571D01*
X81500000Y-74817857D01*
X81357142Y-74960714D01*
X81214285Y-75032142D01*
X83714285Y-75103571D02*
X84071428Y-76103571D01*
X84428571Y-75103571D01*
X85785714Y-76103571D02*
X84928571Y-76103571D01*
X85357142Y-76103571D02*
X85357142Y-74603571D01*
X85214285Y-74817857D01*
X85071428Y-74960714D01*
X84928571Y-75032142D01*
X86428571Y-75960714D02*
X86500000Y-76032142D01*
X86428571Y-76103571D01*
X86357142Y-76032142D01*
X86428571Y-75960714D01*
X86428571Y-76103571D01*
X87928571Y-76103571D02*
X87071428Y-76103571D01*
X87500000Y-76103571D02*
X87500000Y-74603571D01*
X87357142Y-74817857D01*
X87214285Y-74960714D01*
X87071428Y-75032142D01*
X65892857Y-78653571D02*
X65892857Y-77153571D01*
X66535714Y-78653571D02*
X66535714Y-77867857D01*
X66464285Y-77725000D01*
X66321428Y-77653571D01*
X66107142Y-77653571D01*
X65964285Y-77725000D01*
X65892857Y-77796428D01*
X67035714Y-77653571D02*
X67607142Y-77653571D01*
X67250000Y-77153571D02*
X67250000Y-78439285D01*
X67321428Y-78582142D01*
X67464285Y-78653571D01*
X67607142Y-78653571D01*
X67892857Y-77653571D02*
X68464285Y-77653571D01*
X68107142Y-77153571D02*
X68107142Y-78439285D01*
X68178571Y-78582142D01*
X68321428Y-78653571D01*
X68464285Y-78653571D01*
X68964285Y-77653571D02*
X68964285Y-79153571D01*
X68964285Y-77725000D02*
X69107142Y-77653571D01*
X69392857Y-77653571D01*
X69535714Y-77725000D01*
X69607142Y-77796428D01*
X69678571Y-77939285D01*
X69678571Y-78367857D01*
X69607142Y-78510714D01*
X69535714Y-78582142D01*
X69392857Y-78653571D01*
X69107142Y-78653571D01*
X68964285Y-78582142D01*
X70250000Y-78582142D02*
X70392857Y-78653571D01*
X70678571Y-78653571D01*
X70821428Y-78582142D01*
X70892857Y-78439285D01*
X70892857Y-78367857D01*
X70821428Y-78225000D01*
X70678571Y-78153571D01*
X70464285Y-78153571D01*
X70321428Y-78082142D01*
X70250000Y-77939285D01*
X70250000Y-77867857D01*
X70321428Y-77725000D01*
X70464285Y-77653571D01*
X70678571Y-77653571D01*
X70821428Y-77725000D01*
X71535714Y-78510714D02*
X71607142Y-78582142D01*
X71535714Y-78653571D01*
X71464285Y-78582142D01*
X71535714Y-78510714D01*
X71535714Y-78653571D01*
X71535714Y-77725000D02*
X71607142Y-77796428D01*
X71535714Y-77867857D01*
X71464285Y-77796428D01*
X71535714Y-77725000D01*
X71535714Y-77867857D01*
X73321428Y-77082142D02*
X72035714Y-79010714D01*
X74892857Y-77082142D02*
X73607142Y-79010714D01*
X76035714Y-77653571D02*
X76035714Y-78867857D01*
X75964285Y-79010714D01*
X75892857Y-79082142D01*
X75750000Y-79153571D01*
X75535714Y-79153571D01*
X75392857Y-79082142D01*
X76035714Y-78582142D02*
X75892857Y-78653571D01*
X75607142Y-78653571D01*
X75464285Y-78582142D01*
X75392857Y-78510714D01*
X75321428Y-78367857D01*
X75321428Y-77939285D01*
X75392857Y-77796428D01*
X75464285Y-77725000D01*
X75607142Y-77653571D01*
X75892857Y-77653571D01*
X76035714Y-77725000D01*
X77321428Y-78582142D02*
X77178571Y-78653571D01*
X76892857Y-78653571D01*
X76750000Y-78582142D01*
X76678571Y-78439285D01*
X76678571Y-77867857D01*
X76750000Y-77725000D01*
X76892857Y-77653571D01*
X77178571Y-77653571D01*
X77321428Y-77725000D01*
X77392857Y-77867857D01*
X77392857Y-78010714D01*
X76678571Y-78153571D01*
X78035714Y-78653571D02*
X78035714Y-77153571D01*
X78178571Y-78082142D02*
X78607142Y-78653571D01*
X78607142Y-77653571D02*
X78035714Y-78225000D01*
X79250000Y-78653571D02*
X79250000Y-77153571D01*
X79392857Y-78082142D02*
X79821428Y-78653571D01*
X79821428Y-77653571D02*
X79250000Y-78225000D01*
X80464285Y-78653571D02*
X80464285Y-77653571D01*
X80464285Y-77153571D02*
X80392857Y-77225000D01*
X80464285Y-77296428D01*
X80535714Y-77225000D01*
X80464285Y-77153571D01*
X80464285Y-77296428D01*
X81392857Y-78653571D02*
X81250000Y-78582142D01*
X81178571Y-78510714D01*
X81107142Y-78367857D01*
X81107142Y-77939285D01*
X81178571Y-77796428D01*
X81250000Y-77725000D01*
X81392857Y-77653571D01*
X81607142Y-77653571D01*
X81750000Y-77725000D01*
X81821428Y-77796428D01*
X81892857Y-77939285D01*
X81892857Y-78367857D01*
X81821428Y-78510714D01*
X81750000Y-78582142D01*
X81607142Y-78653571D01*
X81392857Y-78653571D01*
X82535714Y-78510714D02*
X82607142Y-78582142D01*
X82535714Y-78653571D01*
X82464285Y-78582142D01*
X82535714Y-78510714D01*
X82535714Y-78653571D01*
X83035714Y-77653571D02*
X83607142Y-77653571D01*
X83250000Y-78653571D02*
X83250000Y-77367857D01*
X83321428Y-77225000D01*
X83464285Y-77153571D01*
X83607142Y-77153571D01*
X84107142Y-78653571D02*
X84107142Y-77653571D01*
X84107142Y-77153571D02*
X84035714Y-77225000D01*
X84107142Y-77296428D01*
X84178571Y-77225000D01*
X84107142Y-77153571D01*
X84107142Y-77296428D01*
X119157142Y-129150000D02*
X119014285Y-129078571D01*
X118800000Y-129078571D01*
X118585714Y-129150000D01*
X118442857Y-129292857D01*
X118371428Y-129435714D01*
X118300000Y-129721428D01*
X118300000Y-129935714D01*
X118371428Y-130221428D01*
X118442857Y-130364285D01*
X118585714Y-130507142D01*
X118800000Y-130578571D01*
X118942857Y-130578571D01*
X119157142Y-130507142D01*
X119228571Y-130435714D01*
X119228571Y-129935714D01*
X118942857Y-129935714D01*
X119871428Y-130578571D02*
X119871428Y-129078571D01*
X120728571Y-130578571D01*
X120728571Y-129078571D01*
X121442857Y-130578571D02*
X121442857Y-129078571D01*
X121800000Y-129078571D01*
X122014285Y-129150000D01*
X122157142Y-129292857D01*
X122228571Y-129435714D01*
X122300000Y-129721428D01*
X122300000Y-129935714D01*
X122228571Y-130221428D01*
X122157142Y-130364285D01*
X122014285Y-130507142D01*
X121800000Y-130578571D01*
X121442857Y-130578571D01*
X89730000Y-77523571D02*
X89730000Y-76023571D01*
X91735714Y-76309285D02*
X91807142Y-76380714D01*
X91878571Y-76595000D01*
X91878571Y-76737857D01*
X91807142Y-76952142D01*
X91664285Y-77095000D01*
X91521428Y-77166428D01*
X91235714Y-77237857D01*
X91021428Y-77237857D01*
X90735714Y-77166428D01*
X90592857Y-77095000D01*
X90450000Y-76952142D01*
X90378571Y-76737857D01*
X90378571Y-76595000D01*
X90450000Y-76380714D01*
X90521428Y-76309285D01*
X89730000Y-76023571D02*
X89730000Y-74595000D01*
X91807142Y-75737857D02*
X91878571Y-75523571D01*
X91878571Y-75166428D01*
X91807142Y-75023571D01*
X91735714Y-74952142D01*
X91592857Y-74880714D01*
X91450000Y-74880714D01*
X91307142Y-74952142D01*
X91235714Y-75023571D01*
X91164285Y-75166428D01*
X91092857Y-75452142D01*
X91021428Y-75595000D01*
X90950000Y-75666428D01*
X90807142Y-75737857D01*
X90664285Y-75737857D01*
X90521428Y-75666428D01*
X90450000Y-75595000D01*
X90378571Y-75452142D01*
X90378571Y-75095000D01*
X90450000Y-74880714D01*
X92330000Y-77809285D02*
X92330000Y-76095000D01*
X92978571Y-77595000D02*
X94478571Y-77237857D01*
X93407142Y-76952142D01*
X94478571Y-76666428D01*
X92978571Y-76309285D01*
X92330000Y-76095000D02*
X92330000Y-74595000D01*
X94478571Y-74880714D02*
X93764285Y-75380714D01*
X94478571Y-75737857D02*
X92978571Y-75737857D01*
X92978571Y-75166428D01*
X93050000Y-75023571D01*
X93121428Y-74952142D01*
X93264285Y-74880714D01*
X93478571Y-74880714D01*
X93621428Y-74952142D01*
X93692857Y-75023571D01*
X93764285Y-75166428D01*
X93764285Y-75737857D01*
X95478571Y-77023571D02*
X95478571Y-76166428D01*
X96978571Y-76595000D02*
X95478571Y-76595000D01*
X95621428Y-75737857D02*
X95550000Y-75666428D01*
X95478571Y-75523571D01*
X95478571Y-75166428D01*
X95550000Y-75023571D01*
X95621428Y-74952142D01*
X95764285Y-74880714D01*
X95907142Y-74880714D01*
X96121428Y-74952142D01*
X96978571Y-75809285D01*
X96978571Y-74880714D01*
X99435714Y-77809285D02*
X99507142Y-77880714D01*
X99578571Y-78095000D01*
X99578571Y-78237857D01*
X99507142Y-78452142D01*
X99364285Y-78595000D01*
X99221428Y-78666428D01*
X98935714Y-78737857D01*
X98721428Y-78737857D01*
X98435714Y-78666428D01*
X98292857Y-78595000D01*
X98150000Y-78452142D01*
X98078571Y-78237857D01*
X98078571Y-78095000D01*
X98150000Y-77880714D01*
X98221428Y-77809285D01*
X99578571Y-77166428D02*
X98078571Y-77166428D01*
X99578571Y-76309285D02*
X98721428Y-76952142D01*
X98078571Y-76309285D02*
X98935714Y-77166428D01*
X99578571Y-74880714D02*
X99578571Y-75737857D01*
X99578571Y-75309285D02*
X98078571Y-75309285D01*
X98292857Y-75452142D01*
X98435714Y-75595000D01*
X98507142Y-75737857D01*
X100650000Y-78023571D02*
X100578571Y-78166428D01*
X100578571Y-78380714D01*
X100650000Y-78595000D01*
X100792857Y-78737857D01*
X100935714Y-78809285D01*
X101221428Y-78880714D01*
X101435714Y-78880714D01*
X101721428Y-78809285D01*
X101864285Y-78737857D01*
X102007142Y-78595000D01*
X102078571Y-78380714D01*
X102078571Y-78237857D01*
X102007142Y-78023571D01*
X101935714Y-77952142D01*
X101435714Y-77952142D01*
X101435714Y-78237857D01*
X102078571Y-77309285D02*
X100578571Y-77309285D01*
X102078571Y-76452142D01*
X100578571Y-76452142D01*
X102078571Y-75737857D02*
X100578571Y-75737857D01*
X100578571Y-75380714D01*
X100650000Y-75166428D01*
X100792857Y-75023571D01*
X100935714Y-74952142D01*
X101221428Y-74880714D01*
X101435714Y-74880714D01*
X101721428Y-74952142D01*
X101864285Y-75023571D01*
X102007142Y-75166428D01*
X102078571Y-75380714D01*
X102078571Y-75737857D01*
X104507142Y-80023571D02*
X104578571Y-79809285D01*
X104578571Y-79452142D01*
X104507142Y-79309285D01*
X104435714Y-79237857D01*
X104292857Y-79166428D01*
X104150000Y-79166428D01*
X104007142Y-79237857D01*
X103935714Y-79309285D01*
X103864285Y-79452142D01*
X103792857Y-79737857D01*
X103721428Y-79880714D01*
X103650000Y-79952142D01*
X103507142Y-80023571D01*
X103364285Y-80023571D01*
X103221428Y-79952142D01*
X103150000Y-79880714D01*
X103078571Y-79737857D01*
X103078571Y-79380714D01*
X103150000Y-79166428D01*
X103078571Y-78237857D02*
X103078571Y-77952142D01*
X103150000Y-77809285D01*
X103292857Y-77666428D01*
X103578571Y-77595000D01*
X104078571Y-77595000D01*
X104364285Y-77666428D01*
X104507142Y-77809285D01*
X104578571Y-77952142D01*
X104578571Y-78237857D01*
X104507142Y-78380714D01*
X104364285Y-78523571D01*
X104078571Y-78595000D01*
X103578571Y-78595000D01*
X103292857Y-78523571D01*
X103150000Y-78380714D01*
X103078571Y-78237857D01*
X103078571Y-76952142D02*
X104292857Y-76952142D01*
X104435714Y-76880714D01*
X104507142Y-76809285D01*
X104578571Y-76666428D01*
X104578571Y-76380714D01*
X104507142Y-76237857D01*
X104435714Y-76166428D01*
X104292857Y-76095000D01*
X103078571Y-76095000D01*
X103078571Y-75595000D02*
X103078571Y-74737857D01*
X104578571Y-75166428D02*
X103078571Y-75166428D01*
X107107142Y-78737857D02*
X107178571Y-78523571D01*
X107178571Y-78166428D01*
X107107142Y-78023571D01*
X107035714Y-77952142D01*
X106892857Y-77880714D01*
X106750000Y-77880714D01*
X106607142Y-77952142D01*
X106535714Y-78023571D01*
X106464285Y-78166428D01*
X106392857Y-78452142D01*
X106321428Y-78595000D01*
X106250000Y-78666428D01*
X106107142Y-78737857D01*
X105964285Y-78737857D01*
X105821428Y-78666428D01*
X105750000Y-78595000D01*
X105678571Y-78452142D01*
X105678571Y-78095000D01*
X105750000Y-77880714D01*
X107035714Y-76380714D02*
X107107142Y-76452142D01*
X107178571Y-76666428D01*
X107178571Y-76809285D01*
X107107142Y-77023571D01*
X106964285Y-77166428D01*
X106821428Y-77237857D01*
X106535714Y-77309285D01*
X106321428Y-77309285D01*
X106035714Y-77237857D01*
X105892857Y-77166428D01*
X105750000Y-77023571D01*
X105678571Y-76809285D01*
X105678571Y-76666428D01*
X105750000Y-76452142D01*
X105821428Y-76380714D01*
X107178571Y-75737857D02*
X105678571Y-75737857D01*
X107178571Y-74880714D02*
X106321428Y-75523571D01*
X105678571Y-74880714D02*
X106535714Y-75737857D01*
X109678571Y-78595000D02*
X108178571Y-78595000D01*
X108178571Y-78023571D01*
X108250000Y-77880714D01*
X108321428Y-77809285D01*
X108464285Y-77737857D01*
X108678571Y-77737857D01*
X108821428Y-77809285D01*
X108892857Y-77880714D01*
X108964285Y-78023571D01*
X108964285Y-78595000D01*
X109678571Y-76309285D02*
X109678571Y-77166428D01*
X109678571Y-76737857D02*
X108178571Y-76737857D01*
X108392857Y-76880714D01*
X108535714Y-77023571D01*
X108607142Y-77166428D01*
X109678571Y-74880714D02*
X109678571Y-75737857D01*
X109678571Y-75309285D02*
X108178571Y-75309285D01*
X108392857Y-75452142D01*
X108535714Y-75595000D01*
X108607142Y-75737857D01*
X89730000Y-68005000D02*
X89730000Y-66505000D01*
X91878571Y-66790714D02*
X91164285Y-67290714D01*
X91878571Y-67647857D02*
X90378571Y-67647857D01*
X90378571Y-67076428D01*
X90450000Y-66933571D01*
X90521428Y-66862142D01*
X90664285Y-66790714D01*
X90878571Y-66790714D01*
X91021428Y-66862142D01*
X91092857Y-66933571D01*
X91164285Y-67076428D01*
X91164285Y-67647857D01*
X89730000Y-66505000D02*
X89730000Y-65005000D01*
X91878571Y-66147857D02*
X90378571Y-66147857D01*
X90378571Y-65790714D01*
X90450000Y-65576428D01*
X90592857Y-65433571D01*
X90735714Y-65362142D01*
X91021428Y-65290714D01*
X91235714Y-65290714D01*
X91521428Y-65362142D01*
X91664285Y-65433571D01*
X91807142Y-65576428D01*
X91878571Y-65790714D01*
X91878571Y-66147857D01*
X92978571Y-67862142D02*
X92978571Y-67005000D01*
X94478571Y-67433571D02*
X92978571Y-67433571D01*
X94478571Y-65719285D02*
X94478571Y-66576428D01*
X94478571Y-66147857D02*
X92978571Y-66147857D01*
X93192857Y-66290714D01*
X93335714Y-66433571D01*
X93407142Y-66576428D01*
X96978571Y-67647857D02*
X95478571Y-67647857D01*
X95478571Y-67076428D01*
X95550000Y-66933571D01*
X95621428Y-66862142D01*
X95764285Y-66790714D01*
X95978571Y-66790714D01*
X96121428Y-66862142D01*
X96192857Y-66933571D01*
X96264285Y-67076428D01*
X96264285Y-67647857D01*
X96978571Y-66147857D02*
X95478571Y-66147857D01*
X96192857Y-66147857D02*
X96192857Y-65290714D01*
X96978571Y-65290714D02*
X95478571Y-65290714D01*
X96978571Y-64576428D02*
X95478571Y-64576428D01*
X99335714Y-66790714D02*
X99407142Y-66862142D01*
X99478571Y-67076428D01*
X99478571Y-67219285D01*
X99407142Y-67433571D01*
X99264285Y-67576428D01*
X99121428Y-67647857D01*
X98835714Y-67719285D01*
X98621428Y-67719285D01*
X98335714Y-67647857D01*
X98192857Y-67576428D01*
X98050000Y-67433571D01*
X97978571Y-67219285D01*
X97978571Y-67076428D01*
X98050000Y-66862142D01*
X98121428Y-66790714D01*
X99478571Y-66147857D02*
X97978571Y-66147857D01*
X99478571Y-65290714D02*
X98621428Y-65933571D01*
X97978571Y-65290714D02*
X98835714Y-66147857D01*
X98121428Y-64719285D02*
X98050000Y-64647857D01*
X97978571Y-64505000D01*
X97978571Y-64147857D01*
X98050000Y-64005000D01*
X98121428Y-63933571D01*
X98264285Y-63862142D01*
X98407142Y-63862142D01*
X98621428Y-63933571D01*
X99478571Y-64790714D01*
X99478571Y-63862142D01*
X99930000Y-68005000D02*
X99930000Y-66505000D01*
X102078571Y-66790714D02*
X101364285Y-67290714D01*
X102078571Y-67647857D02*
X100578571Y-67647857D01*
X100578571Y-67076428D01*
X100650000Y-66933571D01*
X100721428Y-66862142D01*
X100864285Y-66790714D01*
X101078571Y-66790714D01*
X101221428Y-66862142D01*
X101292857Y-66933571D01*
X101364285Y-67076428D01*
X101364285Y-67647857D01*
X99930000Y-66505000D02*
X99930000Y-65147857D01*
X101292857Y-66147857D02*
X101292857Y-65647857D01*
X102078571Y-65433571D02*
X102078571Y-66147857D01*
X100578571Y-66147857D01*
X100578571Y-65433571D01*
X99930000Y-65147857D02*
X99930000Y-63719285D01*
X102007142Y-64862142D02*
X102078571Y-64647857D01*
X102078571Y-64290714D01*
X102007142Y-64147857D01*
X101935714Y-64076428D01*
X101792857Y-64005000D01*
X101650000Y-64005000D01*
X101507142Y-64076428D01*
X101435714Y-64147857D01*
X101364285Y-64290714D01*
X101292857Y-64576428D01*
X101221428Y-64719285D01*
X101150000Y-64790714D01*
X101007142Y-64862142D01*
X100864285Y-64862142D01*
X100721428Y-64790714D01*
X100650000Y-64719285D01*
X100578571Y-64576428D01*
X100578571Y-64219285D01*
X100650000Y-64005000D01*
X104607142Y-67719285D02*
X104678571Y-67505000D01*
X104678571Y-67147857D01*
X104607142Y-67005000D01*
X104535714Y-66933571D01*
X104392857Y-66862142D01*
X104250000Y-66862142D01*
X104107142Y-66933571D01*
X104035714Y-67005000D01*
X103964285Y-67147857D01*
X103892857Y-67433571D01*
X103821428Y-67576428D01*
X103750000Y-67647857D01*
X103607142Y-67719285D01*
X103464285Y-67719285D01*
X103321428Y-67647857D01*
X103250000Y-67576428D01*
X103178571Y-67433571D01*
X103178571Y-67076428D01*
X103250000Y-66862142D01*
X104678571Y-66219285D02*
X103178571Y-66219285D01*
X104678571Y-65505000D02*
X103178571Y-65505000D01*
X104678571Y-64647857D01*
X103178571Y-64647857D01*
X107178571Y-67647857D02*
X105678571Y-67647857D01*
X105678571Y-67076428D01*
X105750000Y-66933571D01*
X105821428Y-66862142D01*
X105964285Y-66790714D01*
X106178571Y-66790714D01*
X106321428Y-66862142D01*
X106392857Y-66933571D01*
X106464285Y-67076428D01*
X106464285Y-67647857D01*
X107178571Y-65362142D02*
X107178571Y-66219285D01*
X107178571Y-65790714D02*
X105678571Y-65790714D01*
X105892857Y-65933571D01*
X106035714Y-66076428D01*
X106107142Y-66219285D01*
X105678571Y-64433571D02*
X105678571Y-64290714D01*
X105750000Y-64147857D01*
X105821428Y-64076428D01*
X105964285Y-64005000D01*
X106250000Y-63933571D01*
X106607142Y-63933571D01*
X106892857Y-64005000D01*
X107035714Y-64076428D01*
X107107142Y-64147857D01*
X107178571Y-64290714D01*
X107178571Y-64433571D01*
X107107142Y-64576428D01*
X107035714Y-64647857D01*
X106892857Y-64719285D01*
X106607142Y-64790714D01*
X106250000Y-64790714D01*
X105964285Y-64719285D01*
X105821428Y-64647857D01*
X105750000Y-64576428D01*
X105678571Y-64433571D01*
X109678571Y-67647857D02*
X108178571Y-67647857D01*
X108178571Y-67076428D01*
X108250000Y-66933571D01*
X108321428Y-66862142D01*
X108464285Y-66790714D01*
X108678571Y-66790714D01*
X108821428Y-66862142D01*
X108892857Y-66933571D01*
X108964285Y-67076428D01*
X108964285Y-67647857D01*
X109678571Y-65362142D02*
X109678571Y-66219285D01*
X109678571Y-65790714D02*
X108178571Y-65790714D01*
X108392857Y-65933571D01*
X108535714Y-66076428D01*
X108607142Y-66219285D01*
X108321428Y-64790714D02*
X108250000Y-64719285D01*
X108178571Y-64576428D01*
X108178571Y-64219285D01*
X108250000Y-64076428D01*
X108321428Y-64005000D01*
X108464285Y-63933571D01*
X108607142Y-63933571D01*
X108821428Y-64005000D01*
X109678571Y-64862142D01*
X109678571Y-63933571D01*
X121262142Y-91707142D02*
X121476428Y-91778571D01*
X121833571Y-91778571D01*
X121976428Y-91707142D01*
X122047857Y-91635714D01*
X122119285Y-91492857D01*
X122119285Y-91350000D01*
X122047857Y-91207142D01*
X121976428Y-91135714D01*
X121833571Y-91064285D01*
X121547857Y-90992857D01*
X121405000Y-90921428D01*
X121333571Y-90850000D01*
X121262142Y-90707142D01*
X121262142Y-90564285D01*
X121333571Y-90421428D01*
X121405000Y-90350000D01*
X121547857Y-90278571D01*
X121905000Y-90278571D01*
X122119285Y-90350000D01*
X123047857Y-90278571D02*
X123333571Y-90278571D01*
X123476428Y-90350000D01*
X123619285Y-90492857D01*
X123690714Y-90778571D01*
X123690714Y-91278571D01*
X123619285Y-91564285D01*
X123476428Y-91707142D01*
X123333571Y-91778571D01*
X123047857Y-91778571D01*
X122905000Y-91707142D01*
X122762142Y-91564285D01*
X122690714Y-91278571D01*
X122690714Y-90778571D01*
X122762142Y-90492857D01*
X122905000Y-90350000D01*
X123047857Y-90278571D01*
X125119285Y-91778571D02*
X124262142Y-91778571D01*
X124690714Y-91778571D02*
X124690714Y-90278571D01*
X124547857Y-90492857D01*
X124405000Y-90635714D01*
X124262142Y-90707142D01*
X121262142Y-92878571D02*
X121762142Y-94378571D01*
X122262142Y-92878571D01*
X122762142Y-94378571D02*
X122762142Y-92878571D01*
X123119285Y-92878571D01*
X123333571Y-92950000D01*
X123476428Y-93092857D01*
X123547857Y-93235714D01*
X123619285Y-93521428D01*
X123619285Y-93735714D01*
X123547857Y-94021428D01*
X123476428Y-94164285D01*
X123333571Y-94307142D01*
X123119285Y-94378571D01*
X122762142Y-94378571D01*
X124262142Y-94378571D02*
X124262142Y-92878571D01*
X124619285Y-92878571D01*
X124833571Y-92950000D01*
X124976428Y-93092857D01*
X125047857Y-93235714D01*
X125119285Y-93521428D01*
X125119285Y-93735714D01*
X125047857Y-94021428D01*
X124976428Y-94164285D01*
X124833571Y-94307142D01*
X124619285Y-94378571D01*
X124262142Y-94378571D01*
X123476428Y-96092857D02*
X122976428Y-96092857D01*
X122976428Y-96878571D02*
X122976428Y-95378571D01*
X123690714Y-95378571D01*
X125119285Y-96878571D02*
X124619285Y-96164285D01*
X124262142Y-96878571D02*
X124262142Y-95378571D01*
X124833571Y-95378571D01*
X124976428Y-95450000D01*
X125047857Y-95521428D01*
X125119285Y-95664285D01*
X125119285Y-95878571D01*
X125047857Y-96021428D01*
X124976428Y-96092857D01*
X124833571Y-96164285D01*
X124262142Y-96164285D01*
X123119285Y-99307142D02*
X123333571Y-99378571D01*
X123690714Y-99378571D01*
X123833571Y-99307142D01*
X123905000Y-99235714D01*
X123976428Y-99092857D01*
X123976428Y-98950000D01*
X123905000Y-98807142D01*
X123833571Y-98735714D01*
X123690714Y-98664285D01*
X123405000Y-98592857D01*
X123262142Y-98521428D01*
X123190714Y-98450000D01*
X123119285Y-98307142D01*
X123119285Y-98164285D01*
X123190714Y-98021428D01*
X123262142Y-97950000D01*
X123405000Y-97878571D01*
X123762142Y-97878571D01*
X123976428Y-97950000D01*
X124405000Y-97878571D02*
X125262142Y-97878571D01*
X124833571Y-99378571D02*
X124833571Y-97878571D01*
X122119285Y-101735714D02*
X122047857Y-101807142D01*
X121833571Y-101878571D01*
X121690714Y-101878571D01*
X121476428Y-101807142D01*
X121333571Y-101664285D01*
X121262142Y-101521428D01*
X121190714Y-101235714D01*
X121190714Y-101021428D01*
X121262142Y-100735714D01*
X121333571Y-100592857D01*
X121476428Y-100450000D01*
X121690714Y-100378571D01*
X121833571Y-100378571D01*
X122047857Y-100450000D01*
X122119285Y-100521428D01*
X122762142Y-101878571D02*
X122762142Y-100378571D01*
X123333571Y-100378571D01*
X123476428Y-100450000D01*
X123547857Y-100521428D01*
X123619285Y-100664285D01*
X123619285Y-100878571D01*
X123547857Y-101021428D01*
X123476428Y-101092857D01*
X123333571Y-101164285D01*
X122762142Y-101164285D01*
X125047857Y-100450000D02*
X124905000Y-100378571D01*
X124690714Y-100378571D01*
X124476428Y-100450000D01*
X124333571Y-100592857D01*
X124262142Y-100735714D01*
X124190714Y-101021428D01*
X124190714Y-101235714D01*
X124262142Y-101521428D01*
X124333571Y-101664285D01*
X124476428Y-101807142D01*
X124690714Y-101878571D01*
X124833571Y-101878571D01*
X125047857Y-101807142D01*
X125119285Y-101735714D01*
X125119285Y-101235714D01*
X124833571Y-101235714D01*
X122333571Y-104478571D02*
X121619285Y-104478571D01*
X121619285Y-102978571D01*
X122833571Y-104478571D02*
X122833571Y-102978571D01*
X123190714Y-102978571D01*
X123405000Y-103050000D01*
X123547857Y-103192857D01*
X123619285Y-103335714D01*
X123690714Y-103621428D01*
X123690714Y-103835714D01*
X123619285Y-104121428D01*
X123547857Y-104264285D01*
X123405000Y-104407142D01*
X123190714Y-104478571D01*
X122833571Y-104478571D01*
X125119285Y-104478571D02*
X124262142Y-104478571D01*
X124690714Y-104478571D02*
X124690714Y-102978571D01*
X124547857Y-103192857D01*
X124405000Y-103335714D01*
X124262142Y-103407142D01*
X121333571Y-107078571D02*
X121333571Y-105578571D01*
X121833571Y-106650000D01*
X122333571Y-105578571D01*
X122333571Y-107078571D01*
X122976428Y-106650000D02*
X123690714Y-106650000D01*
X122833571Y-107078571D02*
X123333571Y-105578571D01*
X123833571Y-107078571D01*
X124547857Y-106221428D02*
X124405000Y-106150000D01*
X124333571Y-106078571D01*
X124262142Y-105935714D01*
X124262142Y-105864285D01*
X124333571Y-105721428D01*
X124405000Y-105650000D01*
X124547857Y-105578571D01*
X124833571Y-105578571D01*
X124976428Y-105650000D01*
X125047857Y-105721428D01*
X125119285Y-105864285D01*
X125119285Y-105935714D01*
X125047857Y-106078571D01*
X124976428Y-106150000D01*
X124833571Y-106221428D01*
X124547857Y-106221428D01*
X124405000Y-106292857D01*
X124333571Y-106364285D01*
X124262142Y-106507142D01*
X124262142Y-106792857D01*
X124333571Y-106935714D01*
X124405000Y-107007142D01*
X124547857Y-107078571D01*
X124833571Y-107078571D01*
X124976428Y-107007142D01*
X125047857Y-106935714D01*
X125119285Y-106792857D01*
X125119285Y-106507142D01*
X125047857Y-106364285D01*
X124976428Y-106292857D01*
X124833571Y-106221428D01*
X119905000Y-109478571D02*
X119905000Y-107978571D01*
X120405000Y-109050000D01*
X120905000Y-107978571D01*
X120905000Y-109478571D01*
X121547857Y-109050000D02*
X122262142Y-109050000D01*
X121405000Y-109478571D02*
X121905000Y-107978571D01*
X122405000Y-109478571D01*
X123690714Y-109478571D02*
X122833571Y-109478571D01*
X123262142Y-109478571D02*
X123262142Y-107978571D01*
X123119285Y-108192857D01*
X122976428Y-108335714D01*
X122833571Y-108407142D01*
X125119285Y-109478571D02*
X124262142Y-109478571D01*
X124690714Y-109478571D02*
X124690714Y-107978571D01*
X124547857Y-108192857D01*
X124405000Y-108335714D01*
X124262142Y-108407142D01*
X119905000Y-112078571D02*
X119905000Y-110578571D01*
X120405000Y-111650000D01*
X120905000Y-110578571D01*
X120905000Y-112078571D01*
X121547857Y-111650000D02*
X122262142Y-111650000D01*
X121405000Y-112078571D02*
X121905000Y-110578571D01*
X122405000Y-112078571D01*
X123690714Y-112078571D02*
X122833571Y-112078571D01*
X123262142Y-112078571D02*
X123262142Y-110578571D01*
X123119285Y-110792857D01*
X122976428Y-110935714D01*
X122833571Y-111007142D01*
X124619285Y-110578571D02*
X124762142Y-110578571D01*
X124905000Y-110650000D01*
X124976428Y-110721428D01*
X125047857Y-110864285D01*
X125119285Y-111150000D01*
X125119285Y-111507142D01*
X125047857Y-111792857D01*
X124976428Y-111935714D01*
X124905000Y-112007142D01*
X124762142Y-112078571D01*
X124619285Y-112078571D01*
X124476428Y-112007142D01*
X124405000Y-111935714D01*
X124333571Y-111792857D01*
X124262142Y-111507142D01*
X124262142Y-111150000D01*
X124333571Y-110864285D01*
X124405000Y-110721428D01*
X124476428Y-110650000D01*
X124619285Y-110578571D01*
X119905000Y-114678571D02*
X119905000Y-113178571D01*
X120405000Y-114250000D01*
X120905000Y-113178571D01*
X120905000Y-114678571D01*
X121547857Y-114250000D02*
X122262142Y-114250000D01*
X121405000Y-114678571D02*
X121905000Y-113178571D01*
X122405000Y-114678571D01*
X123690714Y-114678571D02*
X122833571Y-114678571D01*
X123262142Y-114678571D02*
X123262142Y-113178571D01*
X123119285Y-113392857D01*
X122976428Y-113535714D01*
X122833571Y-113607142D01*
X124262142Y-113321428D02*
X124333571Y-113250000D01*
X124476428Y-113178571D01*
X124833571Y-113178571D01*
X124976428Y-113250000D01*
X125047857Y-113321428D01*
X125119285Y-113464285D01*
X125119285Y-113607142D01*
X125047857Y-113821428D01*
X124190714Y-114678571D01*
X125119285Y-114678571D01*
X132280714Y-91807142D02*
X132495000Y-91878571D01*
X132852142Y-91878571D01*
X132995000Y-91807142D01*
X133066428Y-91735714D01*
X133137857Y-91592857D01*
X133137857Y-91450000D01*
X133066428Y-91307142D01*
X132995000Y-91235714D01*
X132852142Y-91164285D01*
X132566428Y-91092857D01*
X132423571Y-91021428D01*
X132352142Y-90950000D01*
X132280714Y-90807142D01*
X132280714Y-90664285D01*
X132352142Y-90521428D01*
X132423571Y-90450000D01*
X132566428Y-90378571D01*
X132923571Y-90378571D01*
X133137857Y-90450000D01*
X134066428Y-90378571D02*
X134352142Y-90378571D01*
X134495000Y-90450000D01*
X134637857Y-90592857D01*
X134709285Y-90878571D01*
X134709285Y-91378571D01*
X134637857Y-91664285D01*
X134495000Y-91807142D01*
X134352142Y-91878571D01*
X134066428Y-91878571D01*
X133923571Y-91807142D01*
X133780714Y-91664285D01*
X133709285Y-91378571D01*
X133709285Y-90878571D01*
X133780714Y-90592857D01*
X133923571Y-90450000D01*
X134066428Y-90378571D01*
X135280714Y-90521428D02*
X135352142Y-90450000D01*
X135495000Y-90378571D01*
X135852142Y-90378571D01*
X135995000Y-90450000D01*
X136066428Y-90521428D01*
X136137857Y-90664285D01*
X136137857Y-90807142D01*
X136066428Y-91021428D01*
X135209285Y-91878571D01*
X136137857Y-91878571D01*
X132280714Y-94307142D02*
X132495000Y-94378571D01*
X132852142Y-94378571D01*
X132995000Y-94307142D01*
X133066428Y-94235714D01*
X133137857Y-94092857D01*
X133137857Y-93950000D01*
X133066428Y-93807142D01*
X132995000Y-93735714D01*
X132852142Y-93664285D01*
X132566428Y-93592857D01*
X132423571Y-93521428D01*
X132352142Y-93450000D01*
X132280714Y-93307142D01*
X132280714Y-93164285D01*
X132352142Y-93021428D01*
X132423571Y-92950000D01*
X132566428Y-92878571D01*
X132923571Y-92878571D01*
X133137857Y-92950000D01*
X133209285Y-96835714D02*
X133137857Y-96907142D01*
X132923571Y-96978571D01*
X132780714Y-96978571D01*
X132566428Y-96907142D01*
X132423571Y-96764285D01*
X132352142Y-96621428D01*
X132280714Y-96335714D01*
X132280714Y-96121428D01*
X132352142Y-95835714D01*
X132423571Y-95692857D01*
X132566428Y-95550000D01*
X132780714Y-95478571D01*
X132923571Y-95478571D01*
X133137857Y-95550000D01*
X133209285Y-95621428D01*
X133852142Y-96978571D02*
X133852142Y-95478571D01*
X134423571Y-95478571D01*
X134566428Y-95550000D01*
X134637857Y-95621428D01*
X134709285Y-95764285D01*
X134709285Y-95978571D01*
X134637857Y-96121428D01*
X134566428Y-96192857D01*
X134423571Y-96264285D01*
X133852142Y-96264285D01*
X136066428Y-96978571D02*
X135352142Y-96978571D01*
X135352142Y-95478571D01*
X133209285Y-99435714D02*
X133137857Y-99507142D01*
X132923571Y-99578571D01*
X132780714Y-99578571D01*
X132566428Y-99507142D01*
X132423571Y-99364285D01*
X132352142Y-99221428D01*
X132280714Y-98935714D01*
X132280714Y-98721428D01*
X132352142Y-98435714D01*
X132423571Y-98292857D01*
X132566428Y-98150000D01*
X132780714Y-98078571D01*
X132923571Y-98078571D01*
X133137857Y-98150000D01*
X133209285Y-98221428D01*
X133852142Y-99578571D02*
X133852142Y-98078571D01*
X134423571Y-98078571D01*
X134566428Y-98150000D01*
X134637857Y-98221428D01*
X134709285Y-98364285D01*
X134709285Y-98578571D01*
X134637857Y-98721428D01*
X134566428Y-98792857D01*
X134423571Y-98864285D01*
X133852142Y-98864285D01*
X133066428Y-102078571D02*
X132352142Y-102078571D01*
X132352142Y-100578571D01*
X133566428Y-102078571D02*
X133566428Y-100578571D01*
X133923571Y-100578571D01*
X134137857Y-100650000D01*
X134280714Y-100792857D01*
X134352142Y-100935714D01*
X134423571Y-101221428D01*
X134423571Y-101435714D01*
X134352142Y-101721428D01*
X134280714Y-101864285D01*
X134137857Y-102007142D01*
X133923571Y-102078571D01*
X133566428Y-102078571D01*
X135352142Y-100578571D02*
X135495000Y-100578571D01*
X135637857Y-100650000D01*
X135709285Y-100721428D01*
X135780714Y-100864285D01*
X135852142Y-101150000D01*
X135852142Y-101507142D01*
X135780714Y-101792857D01*
X135709285Y-101935714D01*
X135637857Y-102007142D01*
X135495000Y-102078571D01*
X135352142Y-102078571D01*
X135209285Y-102007142D01*
X135137857Y-101935714D01*
X135066428Y-101792857D01*
X134995000Y-101507142D01*
X134995000Y-101150000D01*
X135066428Y-100864285D01*
X135137857Y-100721428D01*
X135209285Y-100650000D01*
X135352142Y-100578571D01*
X131995000Y-102430000D02*
X133709285Y-102430000D01*
X132352142Y-104578571D02*
X132352142Y-103078571D01*
X132852142Y-104150000D01*
X133352142Y-103078571D01*
X133352142Y-104578571D01*
X133709285Y-102430000D02*
X135423571Y-102430000D01*
X133923571Y-103078571D02*
X134280714Y-104578571D01*
X134566428Y-103507142D01*
X134852142Y-104578571D01*
X135209285Y-103078571D01*
X135423571Y-102430000D02*
X136923571Y-102430000D01*
X136637857Y-104578571D02*
X136137857Y-103864285D01*
X135780714Y-104578571D02*
X135780714Y-103078571D01*
X136352142Y-103078571D01*
X136495000Y-103150000D01*
X136566428Y-103221428D01*
X136637857Y-103364285D01*
X136637857Y-103578571D01*
X136566428Y-103721428D01*
X136495000Y-103792857D01*
X136352142Y-103864285D01*
X135780714Y-103864285D01*
X132352142Y-107078571D02*
X132352142Y-105578571D01*
X132852142Y-106650000D01*
X133352142Y-105578571D01*
X133352142Y-107078571D01*
X133995000Y-106650000D02*
X134709285Y-106650000D01*
X133852142Y-107078571D02*
X134352142Y-105578571D01*
X134852142Y-107078571D01*
X135423571Y-107078571D02*
X135709285Y-107078571D01*
X135852142Y-107007142D01*
X135923571Y-106935714D01*
X136066428Y-106721428D01*
X136137857Y-106435714D01*
X136137857Y-105864285D01*
X136066428Y-105721428D01*
X135995000Y-105650000D01*
X135852142Y-105578571D01*
X135566428Y-105578571D01*
X135423571Y-105650000D01*
X135352142Y-105721428D01*
X135280714Y-105864285D01*
X135280714Y-106221428D01*
X135352142Y-106364285D01*
X135423571Y-106435714D01*
X135566428Y-106507142D01*
X135852142Y-106507142D01*
X135995000Y-106435714D01*
X136066428Y-106364285D01*
X136137857Y-106221428D01*
X131995000Y-107430000D02*
X133709285Y-107430000D01*
X132352142Y-109578571D02*
X132352142Y-108078571D01*
X132852142Y-109150000D01*
X133352142Y-108078571D01*
X133352142Y-109578571D01*
X133709285Y-107430000D02*
X135209285Y-107430000D01*
X134923571Y-109578571D02*
X134423571Y-108864285D01*
X134066428Y-109578571D02*
X134066428Y-108078571D01*
X134637857Y-108078571D01*
X134780714Y-108150000D01*
X134852142Y-108221428D01*
X134923571Y-108364285D01*
X134923571Y-108578571D01*
X134852142Y-108721428D01*
X134780714Y-108792857D01*
X134637857Y-108864285D01*
X134066428Y-108864285D01*
X135209285Y-107430000D02*
X136709285Y-107430000D01*
X135566428Y-109578571D02*
X135566428Y-108078571D01*
X135923571Y-108078571D01*
X136137857Y-108150000D01*
X136280714Y-108292857D01*
X136352142Y-108435714D01*
X136423571Y-108721428D01*
X136423571Y-108935714D01*
X136352142Y-109221428D01*
X136280714Y-109364285D01*
X136137857Y-109507142D01*
X135923571Y-109578571D01*
X135566428Y-109578571D01*
X131995000Y-110130000D02*
X133709285Y-110130000D01*
X132352142Y-112278571D02*
X132352142Y-110778571D01*
X132852142Y-111850000D01*
X133352142Y-110778571D01*
X133352142Y-112278571D01*
X133709285Y-110130000D02*
X135209285Y-110130000D01*
X134923571Y-112135714D02*
X134852142Y-112207142D01*
X134637857Y-112278571D01*
X134495000Y-112278571D01*
X134280714Y-112207142D01*
X134137857Y-112064285D01*
X134066428Y-111921428D01*
X133995000Y-111635714D01*
X133995000Y-111421428D01*
X134066428Y-111135714D01*
X134137857Y-110992857D01*
X134280714Y-110850000D01*
X134495000Y-110778571D01*
X134637857Y-110778571D01*
X134852142Y-110850000D01*
X134923571Y-110921428D01*
X135209285Y-110130000D02*
X136637857Y-110130000D01*
X135495000Y-112207142D02*
X135709285Y-112278571D01*
X136066428Y-112278571D01*
X136209285Y-112207142D01*
X136280714Y-112135714D01*
X136352142Y-111992857D01*
X136352142Y-111850000D01*
X136280714Y-111707142D01*
X136209285Y-111635714D01*
X136066428Y-111564285D01*
X135780714Y-111492857D01*
X135637857Y-111421428D01*
X135566428Y-111350000D01*
X135495000Y-111207142D01*
X135495000Y-111064285D01*
X135566428Y-110921428D01*
X135637857Y-110850000D01*
X135780714Y-110778571D01*
X136137857Y-110778571D01*
X136352142Y-110850000D01*
X132352142Y-114678571D02*
X132352142Y-113178571D01*
X132852142Y-114250000D01*
X133352142Y-113178571D01*
X133352142Y-114678571D01*
X133995000Y-114250000D02*
X134709285Y-114250000D01*
X133852142Y-114678571D02*
X134352142Y-113178571D01*
X134852142Y-114678571D01*
X135209285Y-113178571D02*
X136209285Y-113178571D01*
X135566428Y-114678571D01*
X109578571Y-136066428D02*
X108078571Y-136066428D01*
X109150000Y-135566428D01*
X108078571Y-135066428D01*
X109578571Y-135066428D01*
X109150000Y-134423571D02*
X109150000Y-133709285D01*
X109578571Y-134566428D02*
X108078571Y-134066428D01*
X109578571Y-133566428D01*
X108078571Y-132352142D02*
X108078571Y-133066428D01*
X108792857Y-133137857D01*
X108721428Y-133066428D01*
X108650000Y-132923571D01*
X108650000Y-132566428D01*
X108721428Y-132423571D01*
X108792857Y-132352142D01*
X108935714Y-132280714D01*
X109292857Y-132280714D01*
X109435714Y-132352142D01*
X109507142Y-132423571D01*
X109578571Y-132566428D01*
X109578571Y-132923571D01*
X109507142Y-133066428D01*
X109435714Y-133137857D01*
X106978571Y-136066428D02*
X105478571Y-136066428D01*
X106550000Y-135566428D01*
X105478571Y-135066428D01*
X106978571Y-135066428D01*
X106550000Y-134423571D02*
X106550000Y-133709285D01*
X106978571Y-134566428D02*
X105478571Y-134066428D01*
X106978571Y-133566428D01*
X105478571Y-133209285D02*
X105478571Y-132280714D01*
X106050000Y-132780714D01*
X106050000Y-132566428D01*
X106121428Y-132423571D01*
X106192857Y-132352142D01*
X106335714Y-132280714D01*
X106692857Y-132280714D01*
X106835714Y-132352142D01*
X106907142Y-132423571D01*
X106978571Y-132566428D01*
X106978571Y-132995000D01*
X106907142Y-133137857D01*
X106835714Y-133209285D01*
X104478571Y-136066428D02*
X102978571Y-136066428D01*
X104050000Y-135566428D01*
X102978571Y-135066428D01*
X104478571Y-135066428D01*
X104050000Y-134423571D02*
X104050000Y-133709285D01*
X104478571Y-134566428D02*
X102978571Y-134066428D01*
X104478571Y-133566428D01*
X104478571Y-132280714D02*
X104478571Y-133137857D01*
X104478571Y-132709285D02*
X102978571Y-132709285D01*
X103192857Y-132852142D01*
X103335714Y-132995000D01*
X103407142Y-133137857D01*
X109578571Y-125047857D02*
X108078571Y-125047857D01*
X109150000Y-124547857D01*
X108078571Y-124047857D01*
X109578571Y-124047857D01*
X109150000Y-123405000D02*
X109150000Y-122690714D01*
X109578571Y-123547857D02*
X108078571Y-123047857D01*
X109578571Y-122547857D01*
X108078571Y-121405000D02*
X108078571Y-121690714D01*
X108150000Y-121833571D01*
X108221428Y-121905000D01*
X108435714Y-122047857D01*
X108721428Y-122119285D01*
X109292857Y-122119285D01*
X109435714Y-122047857D01*
X109507142Y-121976428D01*
X109578571Y-121833571D01*
X109578571Y-121547857D01*
X109507142Y-121405000D01*
X109435714Y-121333571D01*
X109292857Y-121262142D01*
X108935714Y-121262142D01*
X108792857Y-121333571D01*
X108721428Y-121405000D01*
X108650000Y-121547857D01*
X108650000Y-121833571D01*
X108721428Y-121976428D01*
X108792857Y-122047857D01*
X108935714Y-122119285D01*
X106978571Y-125047857D02*
X105478571Y-125047857D01*
X106550000Y-124547857D01*
X105478571Y-124047857D01*
X106978571Y-124047857D01*
X106550000Y-123405000D02*
X106550000Y-122690714D01*
X106978571Y-123547857D02*
X105478571Y-123047857D01*
X106978571Y-122547857D01*
X105978571Y-121405000D02*
X106978571Y-121405000D01*
X105407142Y-121762142D02*
X106478571Y-122119285D01*
X106478571Y-121190714D01*
X104478571Y-125047857D02*
X102978571Y-125047857D01*
X104050000Y-124547857D01*
X102978571Y-124047857D01*
X104478571Y-124047857D01*
X104050000Y-123405000D02*
X104050000Y-122690714D01*
X104478571Y-123547857D02*
X102978571Y-123047857D01*
X104478571Y-122547857D01*
X103121428Y-122119285D02*
X103050000Y-122047857D01*
X102978571Y-121905000D01*
X102978571Y-121547857D01*
X103050000Y-121405000D01*
X103121428Y-121333571D01*
X103264285Y-121262142D01*
X103407142Y-121262142D01*
X103621428Y-121333571D01*
X104478571Y-122190714D01*
X104478571Y-121262142D01*
X101978571Y-125047857D02*
X100478571Y-125047857D01*
X101550000Y-124547857D01*
X100478571Y-124047857D01*
X101978571Y-124047857D01*
X101550000Y-123405000D02*
X101550000Y-122690714D01*
X101978571Y-123547857D02*
X100478571Y-123047857D01*
X101978571Y-122547857D01*
X100478571Y-121762142D02*
X100478571Y-121619285D01*
X100550000Y-121476428D01*
X100621428Y-121405000D01*
X100764285Y-121333571D01*
X101050000Y-121262142D01*
X101407142Y-121262142D01*
X101692857Y-121333571D01*
X101835714Y-121405000D01*
X101907142Y-121476428D01*
X101978571Y-121619285D01*
X101978571Y-121762142D01*
X101907142Y-121905000D01*
X101835714Y-121976428D01*
X101692857Y-122047857D01*
X101407142Y-122119285D01*
X101050000Y-122119285D01*
X100764285Y-122047857D01*
X100621428Y-121976428D01*
X100550000Y-121905000D01*
X100478571Y-121762142D01*
X97950000Y-124262142D02*
X97878571Y-124405000D01*
X97878571Y-124619285D01*
X97950000Y-124833571D01*
X98092857Y-124976428D01*
X98235714Y-125047857D01*
X98521428Y-125119285D01*
X98735714Y-125119285D01*
X99021428Y-125047857D01*
X99164285Y-124976428D01*
X99307142Y-124833571D01*
X99378571Y-124619285D01*
X99378571Y-124476428D01*
X99307142Y-124262142D01*
X99235714Y-124190714D01*
X98735714Y-124190714D01*
X98735714Y-124476428D01*
X99378571Y-123547857D02*
X97878571Y-123547857D01*
X99378571Y-122690714D01*
X97878571Y-122690714D01*
X99378571Y-121976428D02*
X97878571Y-121976428D01*
X97878571Y-121619285D01*
X97950000Y-121405000D01*
X98092857Y-121262142D01*
X98235714Y-121190714D01*
X98521428Y-121119285D01*
X98735714Y-121119285D01*
X99021428Y-121190714D01*
X99164285Y-121262142D01*
X99307142Y-121405000D01*
X99378571Y-121619285D01*
X99378571Y-121976428D01*
X96878571Y-125047857D02*
X95378571Y-125047857D01*
X96450000Y-124547857D01*
X95378571Y-124047857D01*
X96878571Y-124047857D01*
X96878571Y-123333571D02*
X95378571Y-123333571D01*
X95378571Y-122976428D01*
X95450000Y-122762142D01*
X95592857Y-122619285D01*
X95735714Y-122547857D01*
X96021428Y-122476428D01*
X96235714Y-122476428D01*
X96521428Y-122547857D01*
X96664285Y-122619285D01*
X96807142Y-122762142D01*
X96878571Y-122976428D01*
X96878571Y-123333571D01*
X95521428Y-121905000D02*
X95450000Y-121833571D01*
X95378571Y-121690714D01*
X95378571Y-121333571D01*
X95450000Y-121190714D01*
X95521428Y-121119285D01*
X95664285Y-121047857D01*
X95807142Y-121047857D01*
X96021428Y-121119285D01*
X96878571Y-121976428D01*
X96878571Y-121047857D01*
X94278571Y-125047857D02*
X92778571Y-125047857D01*
X93850000Y-124547857D01*
X92778571Y-124047857D01*
X94278571Y-124047857D01*
X94278571Y-123333571D02*
X92778571Y-123333571D01*
X92778571Y-122976428D01*
X92850000Y-122762142D01*
X92992857Y-122619285D01*
X93135714Y-122547857D01*
X93421428Y-122476428D01*
X93635714Y-122476428D01*
X93921428Y-122547857D01*
X94064285Y-122619285D01*
X94207142Y-122762142D01*
X94278571Y-122976428D01*
X94278571Y-123333571D01*
X93278571Y-121190714D02*
X94278571Y-121190714D01*
X92707142Y-121547857D02*
X93778571Y-121905000D01*
X93778571Y-120976428D01*
X91778571Y-125047857D02*
X90278571Y-125047857D01*
X91350000Y-124547857D01*
X90278571Y-124047857D01*
X91778571Y-124047857D01*
X91778571Y-123333571D02*
X90278571Y-123333571D01*
X90278571Y-122976428D01*
X90350000Y-122762142D01*
X90492857Y-122619285D01*
X90635714Y-122547857D01*
X90921428Y-122476428D01*
X91135714Y-122476428D01*
X91421428Y-122547857D01*
X91564285Y-122619285D01*
X91707142Y-122762142D01*
X91778571Y-122976428D01*
X91778571Y-123333571D01*
X90278571Y-121190714D02*
X90278571Y-121476428D01*
X90350000Y-121619285D01*
X90421428Y-121690714D01*
X90635714Y-121833571D01*
X90921428Y-121905000D01*
X91492857Y-121905000D01*
X91635714Y-121833571D01*
X91707142Y-121762142D01*
X91778571Y-121619285D01*
X91778571Y-121333571D01*
X91707142Y-121190714D01*
X91635714Y-121119285D01*
X91492857Y-121047857D01*
X91135714Y-121047857D01*
X90992857Y-121119285D01*
X90921428Y-121190714D01*
X90850000Y-121333571D01*
X90850000Y-121619285D01*
X90921428Y-121762142D01*
X90992857Y-121833571D01*
X91135714Y-121905000D01*
X101978571Y-136280714D02*
X100478571Y-136280714D01*
X101550000Y-135780714D01*
X100478571Y-135280714D01*
X101978571Y-135280714D01*
X101978571Y-134566428D02*
X100478571Y-134566428D01*
X100478571Y-134209285D01*
X100550000Y-133995000D01*
X100692857Y-133852142D01*
X100835714Y-133780714D01*
X101121428Y-133709285D01*
X101335714Y-133709285D01*
X101621428Y-133780714D01*
X101764285Y-133852142D01*
X101907142Y-133995000D01*
X101978571Y-134209285D01*
X101978571Y-134566428D01*
X100478571Y-132780714D02*
X100478571Y-132637857D01*
X100550000Y-132495000D01*
X100621428Y-132423571D01*
X100764285Y-132352142D01*
X101050000Y-132280714D01*
X101407142Y-132280714D01*
X101692857Y-132352142D01*
X101835714Y-132423571D01*
X101907142Y-132495000D01*
X101978571Y-132637857D01*
X101978571Y-132780714D01*
X101907142Y-132923571D01*
X101835714Y-132995000D01*
X101692857Y-133066428D01*
X101407142Y-133137857D01*
X101050000Y-133137857D01*
X100764285Y-133066428D01*
X100621428Y-132995000D01*
X100550000Y-132923571D01*
X100478571Y-132780714D01*
X99378571Y-136280714D02*
X97878571Y-136280714D01*
X98950000Y-135780714D01*
X97878571Y-135280714D01*
X99378571Y-135280714D01*
X99378571Y-134566428D02*
X97878571Y-134566428D01*
X97878571Y-134209285D01*
X97950000Y-133995000D01*
X98092857Y-133852142D01*
X98235714Y-133780714D01*
X98521428Y-133709285D01*
X98735714Y-133709285D01*
X99021428Y-133780714D01*
X99164285Y-133852142D01*
X99307142Y-133995000D01*
X99378571Y-134209285D01*
X99378571Y-134566428D01*
X99378571Y-132280714D02*
X99378571Y-133137857D01*
X99378571Y-132709285D02*
X97878571Y-132709285D01*
X98092857Y-132852142D01*
X98235714Y-132995000D01*
X98307142Y-133137857D01*
X96878571Y-136280714D02*
X95378571Y-136280714D01*
X96450000Y-135780714D01*
X95378571Y-135280714D01*
X96878571Y-135280714D01*
X96878571Y-134566428D02*
X95378571Y-134566428D01*
X95378571Y-134209285D01*
X95450000Y-133995000D01*
X95592857Y-133852142D01*
X95735714Y-133780714D01*
X96021428Y-133709285D01*
X96235714Y-133709285D01*
X96521428Y-133780714D01*
X96664285Y-133852142D01*
X96807142Y-133995000D01*
X96878571Y-134209285D01*
X96878571Y-134566428D01*
X95378571Y-133209285D02*
X95378571Y-132280714D01*
X95950000Y-132780714D01*
X95950000Y-132566428D01*
X96021428Y-132423571D01*
X96092857Y-132352142D01*
X96235714Y-132280714D01*
X96592857Y-132280714D01*
X96735714Y-132352142D01*
X96807142Y-132423571D01*
X96878571Y-132566428D01*
X96878571Y-132995000D01*
X96807142Y-133137857D01*
X96735714Y-133209285D01*
X94278571Y-136280714D02*
X92778571Y-136280714D01*
X93850000Y-135780714D01*
X92778571Y-135280714D01*
X94278571Y-135280714D01*
X94278571Y-134566428D02*
X92778571Y-134566428D01*
X92778571Y-134209285D01*
X92850000Y-133995000D01*
X92992857Y-133852142D01*
X93135714Y-133780714D01*
X93421428Y-133709285D01*
X93635714Y-133709285D01*
X93921428Y-133780714D01*
X94064285Y-133852142D01*
X94207142Y-133995000D01*
X94278571Y-134209285D01*
X94278571Y-134566428D01*
X92778571Y-132352142D02*
X92778571Y-133066428D01*
X93492857Y-133137857D01*
X93421428Y-133066428D01*
X93350000Y-132923571D01*
X93350000Y-132566428D01*
X93421428Y-132423571D01*
X93492857Y-132352142D01*
X93635714Y-132280714D01*
X93992857Y-132280714D01*
X94135714Y-132352142D01*
X94207142Y-132423571D01*
X94278571Y-132566428D01*
X94278571Y-132923571D01*
X94207142Y-133066428D01*
X94135714Y-133137857D01*
X91778571Y-136280714D02*
X90278571Y-136280714D01*
X91350000Y-135780714D01*
X90278571Y-135280714D01*
X91778571Y-135280714D01*
X91778571Y-134566428D02*
X90278571Y-134566428D01*
X90278571Y-134209285D01*
X90350000Y-133995000D01*
X90492857Y-133852142D01*
X90635714Y-133780714D01*
X90921428Y-133709285D01*
X91135714Y-133709285D01*
X91421428Y-133780714D01*
X91564285Y-133852142D01*
X91707142Y-133995000D01*
X91778571Y-134209285D01*
X91778571Y-134566428D01*
X90278571Y-133209285D02*
X90278571Y-132209285D01*
X91778571Y-132852142D01*
X74952142Y-109578571D02*
X74952142Y-108078571D01*
X75309285Y-108078571D01*
X75523571Y-108150000D01*
X75666428Y-108292857D01*
X75737857Y-108435714D01*
X75809285Y-108721428D01*
X75809285Y-108935714D01*
X75737857Y-109221428D01*
X75666428Y-109364285D01*
X75523571Y-109507142D01*
X75309285Y-109578571D01*
X74952142Y-109578571D01*
X76309285Y-108078571D02*
X77237857Y-108078571D01*
X76737857Y-108650000D01*
X76952142Y-108650000D01*
X77095000Y-108721428D01*
X77166428Y-108792857D01*
X77237857Y-108935714D01*
X77237857Y-109292857D01*
X77166428Y-109435714D01*
X77095000Y-109507142D01*
X76952142Y-109578571D01*
X76523571Y-109578571D01*
X76380714Y-109507142D01*
X76309285Y-109435714D01*
X74952142Y-106978571D02*
X74952142Y-105478571D01*
X75309285Y-105478571D01*
X75523571Y-105550000D01*
X75666428Y-105692857D01*
X75737857Y-105835714D01*
X75809285Y-106121428D01*
X75809285Y-106335714D01*
X75737857Y-106621428D01*
X75666428Y-106764285D01*
X75523571Y-106907142D01*
X75309285Y-106978571D01*
X74952142Y-106978571D01*
X77237857Y-106978571D02*
X76380714Y-106978571D01*
X76809285Y-106978571D02*
X76809285Y-105478571D01*
X76666428Y-105692857D01*
X76523571Y-105835714D01*
X76380714Y-105907142D01*
X65433571Y-109578571D02*
X65433571Y-108078571D01*
X65790714Y-108078571D01*
X66005000Y-108150000D01*
X66147857Y-108292857D01*
X66219285Y-108435714D01*
X66290714Y-108721428D01*
X66290714Y-108935714D01*
X66219285Y-109221428D01*
X66147857Y-109364285D01*
X66005000Y-109507142D01*
X65790714Y-109578571D01*
X65433571Y-109578571D01*
X66862142Y-108221428D02*
X66933571Y-108150000D01*
X67076428Y-108078571D01*
X67433571Y-108078571D01*
X67576428Y-108150000D01*
X67647857Y-108221428D01*
X67719285Y-108364285D01*
X67719285Y-108507142D01*
X67647857Y-108721428D01*
X66790714Y-109578571D01*
X67719285Y-109578571D01*
X65433571Y-106978571D02*
X65433571Y-105478571D01*
X65790714Y-105478571D01*
X66005000Y-105550000D01*
X66147857Y-105692857D01*
X66219285Y-105835714D01*
X66290714Y-106121428D01*
X66290714Y-106335714D01*
X66219285Y-106621428D01*
X66147857Y-106764285D01*
X66005000Y-106907142D01*
X65790714Y-106978571D01*
X65433571Y-106978571D01*
X67219285Y-105478571D02*
X67362142Y-105478571D01*
X67505000Y-105550000D01*
X67576428Y-105621428D01*
X67647857Y-105764285D01*
X67719285Y-106050000D01*
X67719285Y-106407142D01*
X67647857Y-106692857D01*
X67576428Y-106835714D01*
X67505000Y-106907142D01*
X67362142Y-106978571D01*
X67219285Y-106978571D01*
X67076428Y-106907142D01*
X67005000Y-106835714D01*
X66933571Y-106692857D01*
X66862142Y-106407142D01*
X66862142Y-106050000D01*
X66933571Y-105764285D01*
X67005000Y-105621428D01*
X67076428Y-105550000D01*
X67219285Y-105478571D01*
X74880714Y-104050000D02*
X75595000Y-104050000D01*
X74737857Y-104478571D02*
X75237857Y-102978571D01*
X75737857Y-104478571D01*
X77023571Y-104478571D02*
X76166428Y-104478571D01*
X76595000Y-104478571D02*
X76595000Y-102978571D01*
X76452142Y-103192857D01*
X76309285Y-103335714D01*
X76166428Y-103407142D01*
X78380714Y-102978571D02*
X77666428Y-102978571D01*
X77595000Y-103692857D01*
X77666428Y-103621428D01*
X77809285Y-103550000D01*
X78166428Y-103550000D01*
X78309285Y-103621428D01*
X78380714Y-103692857D01*
X78452142Y-103835714D01*
X78452142Y-104192857D01*
X78380714Y-104335714D01*
X78309285Y-104407142D01*
X78166428Y-104478571D01*
X77809285Y-104478571D01*
X77666428Y-104407142D01*
X77595000Y-104335714D01*
X74880714Y-101550000D02*
X75595000Y-101550000D01*
X74737857Y-101978571D02*
X75237857Y-100478571D01*
X75737857Y-101978571D01*
X77023571Y-101978571D02*
X76166428Y-101978571D01*
X76595000Y-101978571D02*
X76595000Y-100478571D01*
X76452142Y-100692857D01*
X76309285Y-100835714D01*
X76166428Y-100907142D01*
X77523571Y-100478571D02*
X78452142Y-100478571D01*
X77952142Y-101050000D01*
X78166428Y-101050000D01*
X78309285Y-101121428D01*
X78380714Y-101192857D01*
X78452142Y-101335714D01*
X78452142Y-101692857D01*
X78380714Y-101835714D01*
X78309285Y-101907142D01*
X78166428Y-101978571D01*
X77737857Y-101978571D01*
X77595000Y-101907142D01*
X77523571Y-101835714D01*
X74880714Y-98950000D02*
X75595000Y-98950000D01*
X74737857Y-99378571D02*
X75237857Y-97878571D01*
X75737857Y-99378571D01*
X77023571Y-99378571D02*
X76166428Y-99378571D01*
X76595000Y-99378571D02*
X76595000Y-97878571D01*
X76452142Y-98092857D01*
X76309285Y-98235714D01*
X76166428Y-98307142D01*
X78452142Y-99378571D02*
X77595000Y-99378571D01*
X78023571Y-99378571D02*
X78023571Y-97878571D01*
X77880714Y-98092857D01*
X77737857Y-98235714D01*
X77595000Y-98307142D01*
X74880714Y-96450000D02*
X75595000Y-96450000D01*
X74737857Y-96878571D02*
X75237857Y-95378571D01*
X75737857Y-96878571D01*
X76309285Y-96878571D02*
X76595000Y-96878571D01*
X76737857Y-96807142D01*
X76809285Y-96735714D01*
X76952142Y-96521428D01*
X77023571Y-96235714D01*
X77023571Y-95664285D01*
X76952142Y-95521428D01*
X76880714Y-95450000D01*
X76737857Y-95378571D01*
X76452142Y-95378571D01*
X76309285Y-95450000D01*
X76237857Y-95521428D01*
X76166428Y-95664285D01*
X76166428Y-96021428D01*
X76237857Y-96164285D01*
X76309285Y-96235714D01*
X76452142Y-96307142D01*
X76737857Y-96307142D01*
X76880714Y-96235714D01*
X76952142Y-96164285D01*
X77023571Y-96021428D01*
X74880714Y-93950000D02*
X75595000Y-93950000D01*
X74737857Y-94378571D02*
X75237857Y-92878571D01*
X75737857Y-94378571D01*
X76095000Y-92878571D02*
X77095000Y-92878571D01*
X76452142Y-94378571D01*
X74880714Y-91350000D02*
X75595000Y-91350000D01*
X74737857Y-91778571D02*
X75237857Y-90278571D01*
X75737857Y-91778571D01*
X76952142Y-90278571D02*
X76237857Y-90278571D01*
X76166428Y-90992857D01*
X76237857Y-90921428D01*
X76380714Y-90850000D01*
X76737857Y-90850000D01*
X76880714Y-90921428D01*
X76952142Y-90992857D01*
X77023571Y-91135714D01*
X77023571Y-91492857D01*
X76952142Y-91635714D01*
X76880714Y-91707142D01*
X76737857Y-91778571D01*
X76380714Y-91778571D01*
X76237857Y-91707142D01*
X76166428Y-91635714D01*
X74880714Y-88750000D02*
X75595000Y-88750000D01*
X74737857Y-89178571D02*
X75237857Y-87678571D01*
X75737857Y-89178571D01*
X76095000Y-87678571D02*
X77023571Y-87678571D01*
X76523571Y-88250000D01*
X76737857Y-88250000D01*
X76880714Y-88321428D01*
X76952142Y-88392857D01*
X77023571Y-88535714D01*
X77023571Y-88892857D01*
X76952142Y-89035714D01*
X76880714Y-89107142D01*
X76737857Y-89178571D01*
X76309285Y-89178571D01*
X76166428Y-89107142D01*
X76095000Y-89035714D01*
X74880714Y-86250000D02*
X75595000Y-86250000D01*
X74737857Y-86678571D02*
X75237857Y-85178571D01*
X75737857Y-86678571D01*
X77023571Y-86678571D02*
X76166428Y-86678571D01*
X76595000Y-86678571D02*
X76595000Y-85178571D01*
X76452142Y-85392857D01*
X76309285Y-85535714D01*
X76166428Y-85607142D01*
X64147857Y-104050000D02*
X64862142Y-104050000D01*
X64005000Y-104478571D02*
X64505000Y-102978571D01*
X65005000Y-104478571D01*
X66290714Y-104478571D02*
X65433571Y-104478571D01*
X65862142Y-104478571D02*
X65862142Y-102978571D01*
X65719285Y-103192857D01*
X65576428Y-103335714D01*
X65433571Y-103407142D01*
X67576428Y-103478571D02*
X67576428Y-104478571D01*
X67219285Y-102907142D02*
X66862142Y-103978571D01*
X67790714Y-103978571D01*
X64147857Y-101450000D02*
X64862142Y-101450000D01*
X64005000Y-101878571D02*
X64505000Y-100378571D01*
X65005000Y-101878571D01*
X66290714Y-101878571D02*
X65433571Y-101878571D01*
X65862142Y-101878571D02*
X65862142Y-100378571D01*
X65719285Y-100592857D01*
X65576428Y-100735714D01*
X65433571Y-100807142D01*
X66862142Y-100521428D02*
X66933571Y-100450000D01*
X67076428Y-100378571D01*
X67433571Y-100378571D01*
X67576428Y-100450000D01*
X67647857Y-100521428D01*
X67719285Y-100664285D01*
X67719285Y-100807142D01*
X67647857Y-101021428D01*
X66790714Y-101878571D01*
X67719285Y-101878571D01*
X64147857Y-98950000D02*
X64862142Y-98950000D01*
X64005000Y-99378571D02*
X64505000Y-97878571D01*
X65005000Y-99378571D01*
X66290714Y-99378571D02*
X65433571Y-99378571D01*
X65862142Y-99378571D02*
X65862142Y-97878571D01*
X65719285Y-98092857D01*
X65576428Y-98235714D01*
X65433571Y-98307142D01*
X67219285Y-97878571D02*
X67362142Y-97878571D01*
X67505000Y-97950000D01*
X67576428Y-98021428D01*
X67647857Y-98164285D01*
X67719285Y-98450000D01*
X67719285Y-98807142D01*
X67647857Y-99092857D01*
X67576428Y-99235714D01*
X67505000Y-99307142D01*
X67362142Y-99378571D01*
X67219285Y-99378571D01*
X67076428Y-99307142D01*
X67005000Y-99235714D01*
X66933571Y-99092857D01*
X66862142Y-98807142D01*
X66862142Y-98450000D01*
X66933571Y-98164285D01*
X67005000Y-98021428D01*
X67076428Y-97950000D01*
X67219285Y-97878571D01*
X65576428Y-96450000D02*
X66290714Y-96450000D01*
X65433571Y-96878571D02*
X65933571Y-95378571D01*
X66433571Y-96878571D01*
X67147857Y-96021428D02*
X67005000Y-95950000D01*
X66933571Y-95878571D01*
X66862142Y-95735714D01*
X66862142Y-95664285D01*
X66933571Y-95521428D01*
X67005000Y-95450000D01*
X67147857Y-95378571D01*
X67433571Y-95378571D01*
X67576428Y-95450000D01*
X67647857Y-95521428D01*
X67719285Y-95664285D01*
X67719285Y-95735714D01*
X67647857Y-95878571D01*
X67576428Y-95950000D01*
X67433571Y-96021428D01*
X67147857Y-96021428D01*
X67005000Y-96092857D01*
X66933571Y-96164285D01*
X66862142Y-96307142D01*
X66862142Y-96592857D01*
X66933571Y-96735714D01*
X67005000Y-96807142D01*
X67147857Y-96878571D01*
X67433571Y-96878571D01*
X67576428Y-96807142D01*
X67647857Y-96735714D01*
X67719285Y-96592857D01*
X67719285Y-96307142D01*
X67647857Y-96164285D01*
X67576428Y-96092857D01*
X67433571Y-96021428D01*
X65576428Y-93850000D02*
X66290714Y-93850000D01*
X65433571Y-94278571D02*
X65933571Y-92778571D01*
X66433571Y-94278571D01*
X67576428Y-92778571D02*
X67290714Y-92778571D01*
X67147857Y-92850000D01*
X67076428Y-92921428D01*
X66933571Y-93135714D01*
X66862142Y-93421428D01*
X66862142Y-93992857D01*
X66933571Y-94135714D01*
X67005000Y-94207142D01*
X67147857Y-94278571D01*
X67433571Y-94278571D01*
X67576428Y-94207142D01*
X67647857Y-94135714D01*
X67719285Y-93992857D01*
X67719285Y-93635714D01*
X67647857Y-93492857D01*
X67576428Y-93421428D01*
X67433571Y-93350000D01*
X67147857Y-93350000D01*
X67005000Y-93421428D01*
X66933571Y-93492857D01*
X66862142Y-93635714D01*
X65576428Y-91250000D02*
X66290714Y-91250000D01*
X65433571Y-91678571D02*
X65933571Y-90178571D01*
X66433571Y-91678571D01*
X67576428Y-90678571D02*
X67576428Y-91678571D01*
X67219285Y-90107142D02*
X66862142Y-91178571D01*
X67790714Y-91178571D01*
X65576428Y-88750000D02*
X66290714Y-88750000D01*
X65433571Y-89178571D02*
X65933571Y-87678571D01*
X66433571Y-89178571D01*
X66862142Y-87821428D02*
X66933571Y-87750000D01*
X67076428Y-87678571D01*
X67433571Y-87678571D01*
X67576428Y-87750000D01*
X67647857Y-87821428D01*
X67719285Y-87964285D01*
X67719285Y-88107142D01*
X67647857Y-88321428D01*
X66790714Y-89178571D01*
X67719285Y-89178571D01*
X65576428Y-86250000D02*
X66290714Y-86250000D01*
X65433571Y-86678571D02*
X65933571Y-85178571D01*
X66433571Y-86678571D01*
X67219285Y-85178571D02*
X67362142Y-85178571D01*
X67505000Y-85250000D01*
X67576428Y-85321428D01*
X67647857Y-85464285D01*
X67719285Y-85750000D01*
X67719285Y-86107142D01*
X67647857Y-86392857D01*
X67576428Y-86535714D01*
X67505000Y-86607142D01*
X67362142Y-86678571D01*
X67219285Y-86678571D01*
X67076428Y-86607142D01*
X67005000Y-86535714D01*
X66933571Y-86392857D01*
X66862142Y-86107142D01*
X66862142Y-85750000D01*
X66933571Y-85464285D01*
X67005000Y-85321428D01*
X67076428Y-85250000D01*
X67219285Y-85178571D01*
D10*
X135000000Y-60000000D02*
X65000000Y-60000000D01*
X140000000Y-135000000D02*
X140000000Y-65000000D01*
X65000000Y-140000000D02*
X135000000Y-140000000D01*
X60000000Y-65000000D02*
X60000000Y-135000000D01*
D12*
X92890000Y-90265000D02*
X90050000Y-90265000D01*
X92890000Y-89890000D02*
X92890000Y-90265000D01*
X93465000Y-89890000D02*
X92890000Y-89890000D01*
X107110000Y-89890000D02*
X107110000Y-90265000D01*
X106535000Y-89890000D02*
X107110000Y-89890000D01*
X92890000Y-110110000D02*
X92890000Y-109735000D01*
X93465000Y-110110000D02*
X92890000Y-110110000D01*
X107110000Y-110110000D02*
X107110000Y-109735000D01*
X106535000Y-110110000D02*
X107110000Y-110110000D01*
X114637221Y-83810000D02*
X114962779Y-83810000D01*
X114637221Y-82790000D02*
X114962779Y-82790000D01*
X114841422Y-80910000D02*
X115358578Y-80910000D01*
X114841422Y-79490000D02*
X115358578Y-79490000D01*
X115097936Y-77510000D02*
X116302064Y-77510000D01*
X115097936Y-75690000D02*
X116302064Y-75690000D01*
X101100000Y-84300000D02*
X98300000Y-84300000D01*
X98300000Y-84300000D02*
X98300000Y-82300000D01*
X98300000Y-82300000D02*
X101100000Y-82300000D01*
X101100000Y-82300000D02*
X101100000Y-84300000D01*
X113200000Y-84900000D02*
X113200000Y-87700000D01*
X113200000Y-87700000D02*
X111200000Y-87700000D01*
X111200000Y-87700000D02*
X111200000Y-84900000D01*
X111200000Y-84900000D02*
X113200000Y-84900000D01*
X98900000Y-115700000D02*
X101700000Y-115700000D01*
X101700000Y-115700000D02*
X101700000Y-117700000D01*
X101700000Y-117700000D02*
X98900000Y-117700000D01*
X98900000Y-117700000D02*
X98900000Y-115700000D01*
X117065000Y-70915000D02*
X117065000Y-73200000D01*
X118535000Y-70915000D02*
X117065000Y-70915000D01*
X118535000Y-73200000D02*
X118535000Y-70915000D01*
X115262779Y-72690000D02*
X114937221Y-72690000D01*
X115262779Y-73710000D02*
X114937221Y-73710000D01*
X119070000Y-117970000D02*
X120400000Y-117970000D01*
X119070000Y-119300000D02*
X119070000Y-117970000D01*
X119070000Y-120570000D02*
X121730000Y-120570000D01*
X121730000Y-120570000D02*
X121730000Y-128250000D01*
X119070000Y-120570000D02*
X119070000Y-128250000D01*
X119070000Y-128250000D02*
X121730000Y-128250000D01*
X68670000Y-84670000D02*
X70000000Y-84670000D01*
X68670000Y-86000000D02*
X68670000Y-84670000D01*
X71270000Y-84670000D02*
X73870000Y-84670000D01*
X71270000Y-87270000D02*
X71270000Y-84670000D01*
X68670000Y-87270000D02*
X71270000Y-87270000D01*
X73870000Y-84670000D02*
X73870000Y-115270000D01*
X68670000Y-87270000D02*
X68670000Y-115270000D01*
X68670000Y-115270000D02*
X73870000Y-115270000D01*
X89770000Y-131330000D02*
X89770000Y-130000000D01*
X91100000Y-131330000D02*
X89770000Y-131330000D01*
X89770000Y-128730000D02*
X89770000Y-126130000D01*
X92370000Y-128730000D02*
X89770000Y-128730000D01*
X92370000Y-131330000D02*
X92370000Y-128730000D01*
X89770000Y-126130000D02*
X110210000Y-126130000D01*
X92370000Y-131330000D02*
X110210000Y-131330000D01*
X110210000Y-131330000D02*
X110210000Y-126130000D01*
X131330000Y-115330000D02*
X130000000Y-115330000D01*
X131330000Y-114000000D02*
X131330000Y-115330000D01*
X128730000Y-115330000D02*
X126130000Y-115330000D01*
X128730000Y-112730000D02*
X128730000Y-115330000D01*
X131330000Y-112730000D02*
X128730000Y-112730000D01*
X126130000Y-115330000D02*
X126130000Y-84730000D01*
X131330000Y-112730000D02*
X131330000Y-84730000D01*
X131330000Y-84730000D02*
X126130000Y-84730000D01*
X110230000Y-68670000D02*
X110230000Y-70000000D01*
X108900000Y-68670000D02*
X110230000Y-68670000D01*
X110230000Y-71270000D02*
X110230000Y-73870000D01*
X107630000Y-71270000D02*
X110230000Y-71270000D01*
X107630000Y-68670000D02*
X107630000Y-71270000D01*
X110230000Y-73870000D02*
X89790000Y-73870000D01*
X107630000Y-68670000D02*
X89790000Y-68670000D01*
X89790000Y-68670000D02*
X89790000Y-73870000D01*
X123870000Y-69470000D02*
X125200000Y-69470000D01*
X123870000Y-70800000D02*
X123870000Y-69470000D01*
X123870000Y-72070000D02*
X126530000Y-72070000D01*
X126530000Y-72070000D02*
X126530000Y-79750000D01*
X123870000Y-72070000D02*
X123870000Y-79750000D01*
X123870000Y-79750000D02*
X126530000Y-79750000D01*
D10*
X90038095Y-85202380D02*
X90038095Y-86011904D01*
X90085714Y-86107142D01*
X90133333Y-86154761D01*
X90228571Y-86202380D01*
X90419047Y-86202380D01*
X90514285Y-86154761D01*
X90561904Y-86107142D01*
X90609523Y-86011904D01*
X90609523Y-85202380D01*
X91609523Y-86202380D02*
X91038095Y-86202380D01*
X91323809Y-86202380D02*
X91323809Y-85202380D01*
X91228571Y-85345238D01*
X91133333Y-85440476D01*
X91038095Y-85488095D01*
X114633333Y-82207142D02*
X114585714Y-82254761D01*
X114442857Y-82302380D01*
X114347619Y-82302380D01*
X114204761Y-82254761D01*
X114109523Y-82159523D01*
X114061904Y-82064285D01*
X114014285Y-81873809D01*
X114014285Y-81730952D01*
X114061904Y-81540476D01*
X114109523Y-81445238D01*
X114204761Y-81350000D01*
X114347619Y-81302380D01*
X114442857Y-81302380D01*
X114585714Y-81350000D01*
X114633333Y-81397619D01*
X115585714Y-82302380D02*
X115014285Y-82302380D01*
X115300000Y-82302380D02*
X115300000Y-81302380D01*
X115204761Y-81445238D01*
X115109523Y-81540476D01*
X115014285Y-81588095D01*
X114933333Y-78907142D02*
X114885714Y-78954761D01*
X114742857Y-79002380D01*
X114647619Y-79002380D01*
X114504761Y-78954761D01*
X114409523Y-78859523D01*
X114361904Y-78764285D01*
X114314285Y-78573809D01*
X114314285Y-78430952D01*
X114361904Y-78240476D01*
X114409523Y-78145238D01*
X114504761Y-78050000D01*
X114647619Y-78002380D01*
X114742857Y-78002380D01*
X114885714Y-78050000D01*
X114933333Y-78097619D01*
X115314285Y-78097619D02*
X115361904Y-78050000D01*
X115457142Y-78002380D01*
X115695238Y-78002380D01*
X115790476Y-78050000D01*
X115838095Y-78097619D01*
X115885714Y-78192857D01*
X115885714Y-78288095D01*
X115838095Y-78430952D01*
X115266666Y-79002380D01*
X115885714Y-79002380D01*
X115533333Y-75107142D02*
X115485714Y-75154761D01*
X115342857Y-75202380D01*
X115247619Y-75202380D01*
X115104761Y-75154761D01*
X115009523Y-75059523D01*
X114961904Y-74964285D01*
X114914285Y-74773809D01*
X114914285Y-74630952D01*
X114961904Y-74440476D01*
X115009523Y-74345238D01*
X115104761Y-74250000D01*
X115247619Y-74202380D01*
X115342857Y-74202380D01*
X115485714Y-74250000D01*
X115533333Y-74297619D01*
X115866666Y-74202380D02*
X116485714Y-74202380D01*
X116152380Y-74583333D01*
X116295238Y-74583333D01*
X116390476Y-74630952D01*
X116438095Y-74678571D01*
X116485714Y-74773809D01*
X116485714Y-75011904D01*
X116438095Y-75107142D01*
X116390476Y-75154761D01*
X116295238Y-75202380D01*
X116009523Y-75202380D01*
X115914285Y-75154761D01*
X115866666Y-75107142D01*
X98866666Y-84552380D02*
X98866666Y-85266666D01*
X98819047Y-85409523D01*
X98723809Y-85504761D01*
X98580952Y-85552380D01*
X98485714Y-85552380D01*
X99342857Y-85552380D02*
X99342857Y-84552380D01*
X99723809Y-84552380D01*
X99819047Y-84600000D01*
X99866666Y-84647619D01*
X99914285Y-84742857D01*
X99914285Y-84885714D01*
X99866666Y-84980952D01*
X99819047Y-85028571D01*
X99723809Y-85076190D01*
X99342857Y-85076190D01*
X100247619Y-84552380D02*
X100866666Y-84552380D01*
X100533333Y-84933333D01*
X100676190Y-84933333D01*
X100771428Y-84980952D01*
X100819047Y-85028571D01*
X100866666Y-85123809D01*
X100866666Y-85361904D01*
X100819047Y-85457142D01*
X100771428Y-85504761D01*
X100676190Y-85552380D01*
X100390476Y-85552380D01*
X100295238Y-85504761D01*
X100247619Y-85457142D01*
X111366666Y-88052380D02*
X111366666Y-88766666D01*
X111319047Y-88909523D01*
X111223809Y-89004761D01*
X111080952Y-89052380D01*
X110985714Y-89052380D01*
X111842857Y-89052380D02*
X111842857Y-88052380D01*
X112223809Y-88052380D01*
X112319047Y-88100000D01*
X112366666Y-88147619D01*
X112414285Y-88242857D01*
X112414285Y-88385714D01*
X112366666Y-88480952D01*
X112319047Y-88528571D01*
X112223809Y-88576190D01*
X111842857Y-88576190D01*
X112795238Y-88147619D02*
X112842857Y-88100000D01*
X112938095Y-88052380D01*
X113176190Y-88052380D01*
X113271428Y-88100000D01*
X113319047Y-88147619D01*
X113366666Y-88242857D01*
X113366666Y-88338095D01*
X113319047Y-88480952D01*
X112747619Y-89052380D01*
X113366666Y-89052380D01*
X99466666Y-114352380D02*
X99466666Y-115066666D01*
X99419047Y-115209523D01*
X99323809Y-115304761D01*
X99180952Y-115352380D01*
X99085714Y-115352380D01*
X99942857Y-115352380D02*
X99942857Y-114352380D01*
X100323809Y-114352380D01*
X100419047Y-114400000D01*
X100466666Y-114447619D01*
X100514285Y-114542857D01*
X100514285Y-114685714D01*
X100466666Y-114780952D01*
X100419047Y-114828571D01*
X100323809Y-114876190D01*
X99942857Y-114876190D01*
X101466666Y-115352380D02*
X100895238Y-115352380D01*
X101180952Y-115352380D02*
X101180952Y-114352380D01*
X101085714Y-114495238D01*
X100990476Y-114590476D01*
X100895238Y-114638095D01*
X118961904Y-72852380D02*
X118961904Y-71852380D01*
X119200000Y-71852380D01*
X119342857Y-71900000D01*
X119438095Y-71995238D01*
X119485714Y-72090476D01*
X119533333Y-72280952D01*
X119533333Y-72423809D01*
X119485714Y-72614285D01*
X119438095Y-72709523D01*
X119342857Y-72804761D01*
X119200000Y-72852380D01*
X118961904Y-72852380D01*
X120485714Y-72852380D02*
X119914285Y-72852380D01*
X120200000Y-72852380D02*
X120200000Y-71852380D01*
X120104761Y-71995238D01*
X120009523Y-72090476D01*
X119914285Y-72138095D01*
X115033333Y-72152380D02*
X114700000Y-71676190D01*
X114461904Y-72152380D02*
X114461904Y-71152380D01*
X114842857Y-71152380D01*
X114938095Y-71200000D01*
X114985714Y-71247619D01*
X115033333Y-71342857D01*
X115033333Y-71485714D01*
X114985714Y-71580952D01*
X114938095Y-71628571D01*
X114842857Y-71676190D01*
X114461904Y-71676190D01*
X115985714Y-72152380D02*
X115414285Y-72152380D01*
X115700000Y-72152380D02*
X115700000Y-71152380D01*
X115604761Y-71295238D01*
X115509523Y-71390476D01*
X115414285Y-71438095D01*
X120066666Y-116422380D02*
X120066666Y-117136666D01*
X120019047Y-117279523D01*
X119923809Y-117374761D01*
X119780952Y-117422380D01*
X119685714Y-117422380D01*
X121019047Y-116422380D02*
X120542857Y-116422380D01*
X120495238Y-116898571D01*
X120542857Y-116850952D01*
X120638095Y-116803333D01*
X120876190Y-116803333D01*
X120971428Y-116850952D01*
X121019047Y-116898571D01*
X121066666Y-116993809D01*
X121066666Y-117231904D01*
X121019047Y-117327142D01*
X120971428Y-117374761D01*
X120876190Y-117422380D01*
X120638095Y-117422380D01*
X120542857Y-117374761D01*
X120495238Y-117327142D01*
X70936666Y-83122380D02*
X70936666Y-83836666D01*
X70889047Y-83979523D01*
X70793809Y-84074761D01*
X70650952Y-84122380D01*
X70555714Y-84122380D01*
X71936666Y-84122380D02*
X71365238Y-84122380D01*
X71650952Y-84122380D02*
X71650952Y-83122380D01*
X71555714Y-83265238D01*
X71460476Y-83360476D01*
X71365238Y-83408095D01*
X88222380Y-129063333D02*
X88936666Y-129063333D01*
X89079523Y-129110952D01*
X89174761Y-129206190D01*
X89222380Y-129349047D01*
X89222380Y-129444285D01*
X88317619Y-128634761D02*
X88270000Y-128587142D01*
X88222380Y-128491904D01*
X88222380Y-128253809D01*
X88270000Y-128158571D01*
X88317619Y-128110952D01*
X88412857Y-128063333D01*
X88508095Y-128063333D01*
X88650952Y-128110952D01*
X89222380Y-128682380D01*
X89222380Y-128063333D01*
X128396666Y-115782380D02*
X128396666Y-116496666D01*
X128349047Y-116639523D01*
X128253809Y-116734761D01*
X128110952Y-116782380D01*
X128015714Y-116782380D01*
X128777619Y-115782380D02*
X129396666Y-115782380D01*
X129063333Y-116163333D01*
X129206190Y-116163333D01*
X129301428Y-116210952D01*
X129349047Y-116258571D01*
X129396666Y-116353809D01*
X129396666Y-116591904D01*
X129349047Y-116687142D01*
X129301428Y-116734761D01*
X129206190Y-116782380D01*
X128920476Y-116782380D01*
X128825238Y-116734761D01*
X128777619Y-116687142D01*
X110682380Y-71603333D02*
X111396666Y-71603333D01*
X111539523Y-71650952D01*
X111634761Y-71746190D01*
X111682380Y-71889047D01*
X111682380Y-71984285D01*
X111015714Y-70698571D02*
X111682380Y-70698571D01*
X110634761Y-70936666D02*
X111349047Y-71174761D01*
X111349047Y-70555714D01*
X124866666Y-67922380D02*
X124866666Y-68636666D01*
X124819047Y-68779523D01*
X124723809Y-68874761D01*
X124580952Y-68922380D01*
X124485714Y-68922380D01*
X125771428Y-67922380D02*
X125580952Y-67922380D01*
X125485714Y-67970000D01*
X125438095Y-68017619D01*
X125342857Y-68160476D01*
X125295238Y-68350952D01*
X125295238Y-68731904D01*
X125342857Y-68827142D01*
X125390476Y-68874761D01*
X125485714Y-68922380D01*
X125676190Y-68922380D01*
X125771428Y-68874761D01*
X125819047Y-68827142D01*
X125866666Y-68731904D01*
X125866666Y-68493809D01*
X125819047Y-68398571D01*
X125771428Y-68350952D01*
X125676190Y-68303333D01*
X125485714Y-68303333D01*
X125390476Y-68350952D01*
X125342857Y-68398571D01*
X125295238Y-68493809D01*
M02*
