G04 #@! TF.GenerationSoftware,KiCad,Pcbnew,5.1.5-52549c5~84~ubuntu19.10.1*
G04 #@! TF.CreationDate,2020-02-14T19:08:51+02:00*
G04 #@! TF.ProjectId,GB-BRK-CPU-G1,47422d42-524b-42d4-9350-552d47312e6b,v1.1*
G04 #@! TF.SameCoordinates,Original*
G04 #@! TF.FileFunction,Copper,L2,Bot*
G04 #@! TF.FilePolarity,Positive*
%FSLAX46Y46*%
G04 Gerber Fmt 4.6, Leading zero omitted, Abs format (unit mm)*
G04 Created by KiCad (PCBNEW 5.1.5-52549c5~84~ubuntu19.10.1) date 2020-02-14 19:08:51*
%MOMM*%
%LPD*%
G04 APERTURE LIST*
%ADD10C,0.150000*%
%ADD11C,0.800000*%
%ADD12C,6.400000*%
%ADD13O,1.700000X1.700000*%
%ADD14R,1.700000X1.700000*%
%ADD15C,0.254000*%
G04 APERTURE END LIST*
D10*
X140000000Y-135000000D02*
G75*
G02X135000000Y-140000000I-5000000J0D01*
G01*
X65000000Y-140000000D02*
G75*
G02X60000000Y-135000000I0J5000000D01*
G01*
X60000000Y-65000000D02*
G75*
G02X65000000Y-60000000I5000000J0D01*
G01*
X135000000Y-60000000D02*
G75*
G02X140000000Y-65000000I0J-5000000D01*
G01*
X135000000Y-60000000D02*
X65000000Y-60000000D01*
X140000000Y-135000000D02*
X140000000Y-65000000D01*
X65000000Y-140000000D02*
X135000000Y-140000000D01*
X60000000Y-65000000D02*
X60000000Y-135000000D01*
D11*
X66697056Y-133302944D03*
X65000000Y-132600000D03*
X63302944Y-133302944D03*
X62600000Y-135000000D03*
X63302944Y-136697056D03*
X65000000Y-137400000D03*
X66697056Y-136697056D03*
X67400000Y-135000000D03*
D12*
X65000000Y-135000000D03*
D11*
X66697056Y-63302944D03*
X65000000Y-62600000D03*
X63302944Y-63302944D03*
X62600000Y-65000000D03*
X63302944Y-66697056D03*
X65000000Y-67400000D03*
X66697056Y-66697056D03*
X67400000Y-65000000D03*
D12*
X65000000Y-65000000D03*
D11*
X136697056Y-63302944D03*
X135000000Y-62600000D03*
X133302944Y-63302944D03*
X132600000Y-65000000D03*
X133302944Y-66697056D03*
X135000000Y-67400000D03*
X136697056Y-66697056D03*
X137400000Y-65000000D03*
D12*
X135000000Y-65000000D03*
D11*
X136697056Y-133302944D03*
X135000000Y-132600000D03*
X133302944Y-133302944D03*
X132600000Y-135000000D03*
X133302944Y-136697056D03*
X135000000Y-137400000D03*
X136697056Y-136697056D03*
X137400000Y-135000000D03*
D12*
X135000000Y-135000000D03*
D13*
X120400000Y-126920000D03*
X120400000Y-124380000D03*
X120400000Y-121840000D03*
D14*
X120400000Y-119300000D03*
D13*
X72540000Y-113940000D03*
X70000000Y-113940000D03*
X72540000Y-111400000D03*
X70000000Y-111400000D03*
X72540000Y-108860000D03*
X70000000Y-108860000D03*
X72540000Y-106320000D03*
X70000000Y-106320000D03*
X72540000Y-103780000D03*
X70000000Y-103780000D03*
X72540000Y-101240000D03*
X70000000Y-101240000D03*
X72540000Y-98700000D03*
X70000000Y-98700000D03*
X72540000Y-96160000D03*
X70000000Y-96160000D03*
X72540000Y-93620000D03*
X70000000Y-93620000D03*
X72540000Y-91080000D03*
X70000000Y-91080000D03*
X72540000Y-88540000D03*
X70000000Y-88540000D03*
X72540000Y-86000000D03*
D14*
X70000000Y-86000000D03*
D13*
X108880000Y-127460000D03*
X108880000Y-130000000D03*
X106340000Y-127460000D03*
X106340000Y-130000000D03*
X103800000Y-127460000D03*
X103800000Y-130000000D03*
X101260000Y-127460000D03*
X101260000Y-130000000D03*
X98720000Y-127460000D03*
X98720000Y-130000000D03*
X96180000Y-127460000D03*
X96180000Y-130000000D03*
X93640000Y-127460000D03*
X93640000Y-130000000D03*
X91100000Y-127460000D03*
D14*
X91100000Y-130000000D03*
D13*
X127460000Y-86060000D03*
X130000000Y-86060000D03*
X127460000Y-88600000D03*
X130000000Y-88600000D03*
X127460000Y-91140000D03*
X130000000Y-91140000D03*
X127460000Y-93680000D03*
X130000000Y-93680000D03*
X127460000Y-96220000D03*
X130000000Y-96220000D03*
X127460000Y-98760000D03*
X130000000Y-98760000D03*
X127460000Y-101300000D03*
X130000000Y-101300000D03*
X127460000Y-103840000D03*
X130000000Y-103840000D03*
X127460000Y-106380000D03*
X130000000Y-106380000D03*
X127460000Y-108920000D03*
X130000000Y-108920000D03*
X127460000Y-111460000D03*
X130000000Y-111460000D03*
X127460000Y-114000000D03*
D14*
X130000000Y-114000000D03*
D13*
X91120000Y-72540000D03*
X91120000Y-70000000D03*
X93660000Y-72540000D03*
X93660000Y-70000000D03*
X96200000Y-72540000D03*
X96200000Y-70000000D03*
X98740000Y-72540000D03*
X98740000Y-70000000D03*
X101280000Y-72540000D03*
X101280000Y-70000000D03*
X103820000Y-72540000D03*
X103820000Y-70000000D03*
X106360000Y-72540000D03*
X106360000Y-70000000D03*
X108900000Y-72540000D03*
D14*
X108900000Y-70000000D03*
D13*
X125200000Y-78420000D03*
X125200000Y-75880000D03*
X125200000Y-73340000D03*
D14*
X125200000Y-70800000D03*
D11*
X102400000Y-116700000D03*
X97600000Y-83300000D03*
X116700000Y-83300000D03*
X117300000Y-80200000D03*
X118500000Y-76600000D03*
X117800000Y-70400000D03*
D15*
G36*
X135759192Y-60780578D02*
G01*
X136494389Y-60981705D01*
X137182351Y-61309846D01*
X137801331Y-61754628D01*
X138331761Y-62301988D01*
X138756884Y-62934639D01*
X139063251Y-63632561D01*
X139242499Y-64379183D01*
X139290001Y-65026044D01*
X139290000Y-134968382D01*
X139219422Y-135759193D01*
X139018295Y-136494389D01*
X138690152Y-137182355D01*
X138245374Y-137801328D01*
X137698012Y-138331761D01*
X137065362Y-138756883D01*
X136367439Y-139063251D01*
X135620819Y-139242499D01*
X134973970Y-139290000D01*
X65031618Y-139290000D01*
X64240807Y-139219422D01*
X63505611Y-139018295D01*
X62817645Y-138690152D01*
X62198672Y-138245374D01*
X61668239Y-137698012D01*
X61243117Y-137065362D01*
X60936749Y-136367439D01*
X60757501Y-135620819D01*
X60710000Y-134973970D01*
X60710000Y-129150000D01*
X89611928Y-129150000D01*
X89611928Y-130850000D01*
X89624188Y-130974482D01*
X89660498Y-131094180D01*
X89719463Y-131204494D01*
X89798815Y-131301185D01*
X89895506Y-131380537D01*
X90005820Y-131439502D01*
X90125518Y-131475812D01*
X90250000Y-131488072D01*
X91950000Y-131488072D01*
X92074482Y-131475812D01*
X92194180Y-131439502D01*
X92304494Y-131380537D01*
X92401185Y-131301185D01*
X92480537Y-131204494D01*
X92539502Y-131094180D01*
X92561513Y-131021620D01*
X92693368Y-131153475D01*
X92936589Y-131315990D01*
X93206842Y-131427932D01*
X93493740Y-131485000D01*
X93786260Y-131485000D01*
X94073158Y-131427932D01*
X94343411Y-131315990D01*
X94586632Y-131153475D01*
X94793475Y-130946632D01*
X94910000Y-130772240D01*
X95026525Y-130946632D01*
X95233368Y-131153475D01*
X95476589Y-131315990D01*
X95746842Y-131427932D01*
X96033740Y-131485000D01*
X96326260Y-131485000D01*
X96613158Y-131427932D01*
X96883411Y-131315990D01*
X97126632Y-131153475D01*
X97333475Y-130946632D01*
X97450000Y-130772240D01*
X97566525Y-130946632D01*
X97773368Y-131153475D01*
X98016589Y-131315990D01*
X98286842Y-131427932D01*
X98573740Y-131485000D01*
X98866260Y-131485000D01*
X99153158Y-131427932D01*
X99423411Y-131315990D01*
X99666632Y-131153475D01*
X99873475Y-130946632D01*
X99990000Y-130772240D01*
X100106525Y-130946632D01*
X100313368Y-131153475D01*
X100556589Y-131315990D01*
X100826842Y-131427932D01*
X101113740Y-131485000D01*
X101406260Y-131485000D01*
X101693158Y-131427932D01*
X101963411Y-131315990D01*
X102206632Y-131153475D01*
X102413475Y-130946632D01*
X102530000Y-130772240D01*
X102646525Y-130946632D01*
X102853368Y-131153475D01*
X103096589Y-131315990D01*
X103366842Y-131427932D01*
X103653740Y-131485000D01*
X103946260Y-131485000D01*
X104233158Y-131427932D01*
X104503411Y-131315990D01*
X104746632Y-131153475D01*
X104953475Y-130946632D01*
X105070000Y-130772240D01*
X105186525Y-130946632D01*
X105393368Y-131153475D01*
X105636589Y-131315990D01*
X105906842Y-131427932D01*
X106193740Y-131485000D01*
X106486260Y-131485000D01*
X106773158Y-131427932D01*
X107043411Y-131315990D01*
X107286632Y-131153475D01*
X107493475Y-130946632D01*
X107610000Y-130772240D01*
X107726525Y-130946632D01*
X107933368Y-131153475D01*
X108176589Y-131315990D01*
X108446842Y-131427932D01*
X108733740Y-131485000D01*
X109026260Y-131485000D01*
X109313158Y-131427932D01*
X109583411Y-131315990D01*
X109826632Y-131153475D01*
X110033475Y-130946632D01*
X110195990Y-130703411D01*
X110307932Y-130433158D01*
X110365000Y-130146260D01*
X110365000Y-129853740D01*
X110307932Y-129566842D01*
X110195990Y-129296589D01*
X110033475Y-129053368D01*
X109826632Y-128846525D01*
X109652240Y-128730000D01*
X109826632Y-128613475D01*
X110033475Y-128406632D01*
X110195990Y-128163411D01*
X110307932Y-127893158D01*
X110365000Y-127606260D01*
X110365000Y-127313740D01*
X110307932Y-127026842D01*
X110195990Y-126756589D01*
X110033475Y-126513368D01*
X109826632Y-126306525D01*
X109583411Y-126144010D01*
X109313158Y-126032068D01*
X109026260Y-125975000D01*
X108733740Y-125975000D01*
X108446842Y-126032068D01*
X108176589Y-126144010D01*
X107933368Y-126306525D01*
X107726525Y-126513368D01*
X107610000Y-126687760D01*
X107493475Y-126513368D01*
X107286632Y-126306525D01*
X107043411Y-126144010D01*
X106773158Y-126032068D01*
X106486260Y-125975000D01*
X106193740Y-125975000D01*
X105906842Y-126032068D01*
X105636589Y-126144010D01*
X105393368Y-126306525D01*
X105186525Y-126513368D01*
X105070000Y-126687760D01*
X104953475Y-126513368D01*
X104746632Y-126306525D01*
X104503411Y-126144010D01*
X104233158Y-126032068D01*
X103946260Y-125975000D01*
X103653740Y-125975000D01*
X103366842Y-126032068D01*
X103096589Y-126144010D01*
X102853368Y-126306525D01*
X102646525Y-126513368D01*
X102530000Y-126687760D01*
X102413475Y-126513368D01*
X102206632Y-126306525D01*
X101963411Y-126144010D01*
X101693158Y-126032068D01*
X101406260Y-125975000D01*
X101113740Y-125975000D01*
X100826842Y-126032068D01*
X100556589Y-126144010D01*
X100313368Y-126306525D01*
X100106525Y-126513368D01*
X99990000Y-126687760D01*
X99873475Y-126513368D01*
X99666632Y-126306525D01*
X99423411Y-126144010D01*
X99153158Y-126032068D01*
X98866260Y-125975000D01*
X98573740Y-125975000D01*
X98286842Y-126032068D01*
X98016589Y-126144010D01*
X97773368Y-126306525D01*
X97566525Y-126513368D01*
X97450000Y-126687760D01*
X97333475Y-126513368D01*
X97126632Y-126306525D01*
X96883411Y-126144010D01*
X96613158Y-126032068D01*
X96326260Y-125975000D01*
X96033740Y-125975000D01*
X95746842Y-126032068D01*
X95476589Y-126144010D01*
X95233368Y-126306525D01*
X95026525Y-126513368D01*
X94910000Y-126687760D01*
X94793475Y-126513368D01*
X94586632Y-126306525D01*
X94343411Y-126144010D01*
X94073158Y-126032068D01*
X93786260Y-125975000D01*
X93493740Y-125975000D01*
X93206842Y-126032068D01*
X92936589Y-126144010D01*
X92693368Y-126306525D01*
X92486525Y-126513368D01*
X92370000Y-126687760D01*
X92253475Y-126513368D01*
X92046632Y-126306525D01*
X91803411Y-126144010D01*
X91533158Y-126032068D01*
X91246260Y-125975000D01*
X90953740Y-125975000D01*
X90666842Y-126032068D01*
X90396589Y-126144010D01*
X90153368Y-126306525D01*
X89946525Y-126513368D01*
X89784010Y-126756589D01*
X89672068Y-127026842D01*
X89615000Y-127313740D01*
X89615000Y-127606260D01*
X89672068Y-127893158D01*
X89784010Y-128163411D01*
X89946525Y-128406632D01*
X90078380Y-128538487D01*
X90005820Y-128560498D01*
X89895506Y-128619463D01*
X89798815Y-128698815D01*
X89719463Y-128795506D01*
X89660498Y-128905820D01*
X89624188Y-129025518D01*
X89611928Y-129150000D01*
X60710000Y-129150000D01*
X60710000Y-85150000D01*
X68511928Y-85150000D01*
X68511928Y-86850000D01*
X68524188Y-86974482D01*
X68560498Y-87094180D01*
X68619463Y-87204494D01*
X68698815Y-87301185D01*
X68795506Y-87380537D01*
X68905820Y-87439502D01*
X68978380Y-87461513D01*
X68846525Y-87593368D01*
X68684010Y-87836589D01*
X68572068Y-88106842D01*
X68515000Y-88393740D01*
X68515000Y-88686260D01*
X68572068Y-88973158D01*
X68684010Y-89243411D01*
X68846525Y-89486632D01*
X69053368Y-89693475D01*
X69227760Y-89810000D01*
X69053368Y-89926525D01*
X68846525Y-90133368D01*
X68684010Y-90376589D01*
X68572068Y-90646842D01*
X68515000Y-90933740D01*
X68515000Y-91226260D01*
X68572068Y-91513158D01*
X68684010Y-91783411D01*
X68846525Y-92026632D01*
X69053368Y-92233475D01*
X69227760Y-92350000D01*
X69053368Y-92466525D01*
X68846525Y-92673368D01*
X68684010Y-92916589D01*
X68572068Y-93186842D01*
X68515000Y-93473740D01*
X68515000Y-93766260D01*
X68572068Y-94053158D01*
X68684010Y-94323411D01*
X68846525Y-94566632D01*
X69053368Y-94773475D01*
X69227760Y-94890000D01*
X69053368Y-95006525D01*
X68846525Y-95213368D01*
X68684010Y-95456589D01*
X68572068Y-95726842D01*
X68515000Y-96013740D01*
X68515000Y-96306260D01*
X68572068Y-96593158D01*
X68684010Y-96863411D01*
X68846525Y-97106632D01*
X69053368Y-97313475D01*
X69227760Y-97430000D01*
X69053368Y-97546525D01*
X68846525Y-97753368D01*
X68684010Y-97996589D01*
X68572068Y-98266842D01*
X68515000Y-98553740D01*
X68515000Y-98846260D01*
X68572068Y-99133158D01*
X68684010Y-99403411D01*
X68846525Y-99646632D01*
X69053368Y-99853475D01*
X69227760Y-99970000D01*
X69053368Y-100086525D01*
X68846525Y-100293368D01*
X68684010Y-100536589D01*
X68572068Y-100806842D01*
X68515000Y-101093740D01*
X68515000Y-101386260D01*
X68572068Y-101673158D01*
X68684010Y-101943411D01*
X68846525Y-102186632D01*
X69053368Y-102393475D01*
X69227760Y-102510000D01*
X69053368Y-102626525D01*
X68846525Y-102833368D01*
X68684010Y-103076589D01*
X68572068Y-103346842D01*
X68515000Y-103633740D01*
X68515000Y-103926260D01*
X68572068Y-104213158D01*
X68684010Y-104483411D01*
X68846525Y-104726632D01*
X69053368Y-104933475D01*
X69227760Y-105050000D01*
X69053368Y-105166525D01*
X68846525Y-105373368D01*
X68684010Y-105616589D01*
X68572068Y-105886842D01*
X68515000Y-106173740D01*
X68515000Y-106466260D01*
X68572068Y-106753158D01*
X68684010Y-107023411D01*
X68846525Y-107266632D01*
X69053368Y-107473475D01*
X69227760Y-107590000D01*
X69053368Y-107706525D01*
X68846525Y-107913368D01*
X68684010Y-108156589D01*
X68572068Y-108426842D01*
X68515000Y-108713740D01*
X68515000Y-109006260D01*
X68572068Y-109293158D01*
X68684010Y-109563411D01*
X68846525Y-109806632D01*
X69053368Y-110013475D01*
X69227760Y-110130000D01*
X69053368Y-110246525D01*
X68846525Y-110453368D01*
X68684010Y-110696589D01*
X68572068Y-110966842D01*
X68515000Y-111253740D01*
X68515000Y-111546260D01*
X68572068Y-111833158D01*
X68684010Y-112103411D01*
X68846525Y-112346632D01*
X69053368Y-112553475D01*
X69227760Y-112670000D01*
X69053368Y-112786525D01*
X68846525Y-112993368D01*
X68684010Y-113236589D01*
X68572068Y-113506842D01*
X68515000Y-113793740D01*
X68515000Y-114086260D01*
X68572068Y-114373158D01*
X68684010Y-114643411D01*
X68846525Y-114886632D01*
X69053368Y-115093475D01*
X69296589Y-115255990D01*
X69566842Y-115367932D01*
X69853740Y-115425000D01*
X70146260Y-115425000D01*
X70433158Y-115367932D01*
X70703411Y-115255990D01*
X70946632Y-115093475D01*
X71153475Y-114886632D01*
X71270000Y-114712240D01*
X71386525Y-114886632D01*
X71593368Y-115093475D01*
X71836589Y-115255990D01*
X72106842Y-115367932D01*
X72393740Y-115425000D01*
X72686260Y-115425000D01*
X72973158Y-115367932D01*
X73243411Y-115255990D01*
X73486632Y-115093475D01*
X73693475Y-114886632D01*
X73855990Y-114643411D01*
X73967932Y-114373158D01*
X74025000Y-114086260D01*
X74025000Y-113793740D01*
X73967932Y-113506842D01*
X73855990Y-113236589D01*
X73693475Y-112993368D01*
X73486632Y-112786525D01*
X73312240Y-112670000D01*
X73486632Y-112553475D01*
X73693475Y-112346632D01*
X73855990Y-112103411D01*
X73967932Y-111833158D01*
X74025000Y-111546260D01*
X74025000Y-111253740D01*
X73967932Y-110966842D01*
X73855990Y-110696589D01*
X73693475Y-110453368D01*
X73486632Y-110246525D01*
X73312240Y-110130000D01*
X73486632Y-110013475D01*
X73693475Y-109806632D01*
X73855990Y-109563411D01*
X73967932Y-109293158D01*
X74025000Y-109006260D01*
X74025000Y-108713740D01*
X73967932Y-108426842D01*
X73855990Y-108156589D01*
X73693475Y-107913368D01*
X73486632Y-107706525D01*
X73312240Y-107590000D01*
X73486632Y-107473475D01*
X73693475Y-107266632D01*
X73855990Y-107023411D01*
X73967932Y-106753158D01*
X74025000Y-106466260D01*
X74025000Y-106173740D01*
X73967932Y-105886842D01*
X73855990Y-105616589D01*
X73693475Y-105373368D01*
X73486632Y-105166525D01*
X73312240Y-105050000D01*
X73486632Y-104933475D01*
X73693475Y-104726632D01*
X73855990Y-104483411D01*
X73967932Y-104213158D01*
X74025000Y-103926260D01*
X74025000Y-103633740D01*
X73967932Y-103346842D01*
X73855990Y-103076589D01*
X73693475Y-102833368D01*
X73486632Y-102626525D01*
X73312240Y-102510000D01*
X73486632Y-102393475D01*
X73693475Y-102186632D01*
X73855990Y-101943411D01*
X73967932Y-101673158D01*
X74025000Y-101386260D01*
X74025000Y-101093740D01*
X73967932Y-100806842D01*
X73855990Y-100536589D01*
X73693475Y-100293368D01*
X73486632Y-100086525D01*
X73312240Y-99970000D01*
X73486632Y-99853475D01*
X73693475Y-99646632D01*
X73855990Y-99403411D01*
X73967932Y-99133158D01*
X74025000Y-98846260D01*
X74025000Y-98553740D01*
X73967932Y-98266842D01*
X73855990Y-97996589D01*
X73693475Y-97753368D01*
X73486632Y-97546525D01*
X73312240Y-97430000D01*
X73486632Y-97313475D01*
X73693475Y-97106632D01*
X73855990Y-96863411D01*
X73967932Y-96593158D01*
X74025000Y-96306260D01*
X74025000Y-96013740D01*
X73967932Y-95726842D01*
X73855990Y-95456589D01*
X73693475Y-95213368D01*
X73486632Y-95006525D01*
X73312240Y-94890000D01*
X73486632Y-94773475D01*
X73693475Y-94566632D01*
X73855990Y-94323411D01*
X73967932Y-94053158D01*
X74025000Y-93766260D01*
X74025000Y-93473740D01*
X73967932Y-93186842D01*
X73855990Y-92916589D01*
X73693475Y-92673368D01*
X73486632Y-92466525D01*
X73312240Y-92350000D01*
X73486632Y-92233475D01*
X73693475Y-92026632D01*
X73855990Y-91783411D01*
X73967932Y-91513158D01*
X74025000Y-91226260D01*
X74025000Y-90933740D01*
X73967932Y-90646842D01*
X73855990Y-90376589D01*
X73693475Y-90133368D01*
X73486632Y-89926525D01*
X73312240Y-89810000D01*
X73486632Y-89693475D01*
X73693475Y-89486632D01*
X73855990Y-89243411D01*
X73967932Y-88973158D01*
X74025000Y-88686260D01*
X74025000Y-88393740D01*
X73967932Y-88106842D01*
X73855990Y-87836589D01*
X73693475Y-87593368D01*
X73486632Y-87386525D01*
X73312240Y-87270000D01*
X73486632Y-87153475D01*
X73693475Y-86946632D01*
X73855990Y-86703411D01*
X73967932Y-86433158D01*
X74025000Y-86146260D01*
X74025000Y-85913740D01*
X125975000Y-85913740D01*
X125975000Y-86206260D01*
X126032068Y-86493158D01*
X126144010Y-86763411D01*
X126306525Y-87006632D01*
X126513368Y-87213475D01*
X126687760Y-87330000D01*
X126513368Y-87446525D01*
X126306525Y-87653368D01*
X126144010Y-87896589D01*
X126032068Y-88166842D01*
X125975000Y-88453740D01*
X125975000Y-88746260D01*
X126032068Y-89033158D01*
X126144010Y-89303411D01*
X126306525Y-89546632D01*
X126513368Y-89753475D01*
X126687760Y-89870000D01*
X126513368Y-89986525D01*
X126306525Y-90193368D01*
X126144010Y-90436589D01*
X126032068Y-90706842D01*
X125975000Y-90993740D01*
X125975000Y-91286260D01*
X126032068Y-91573158D01*
X126144010Y-91843411D01*
X126306525Y-92086632D01*
X126513368Y-92293475D01*
X126687760Y-92410000D01*
X126513368Y-92526525D01*
X126306525Y-92733368D01*
X126144010Y-92976589D01*
X126032068Y-93246842D01*
X125975000Y-93533740D01*
X125975000Y-93826260D01*
X126032068Y-94113158D01*
X126144010Y-94383411D01*
X126306525Y-94626632D01*
X126513368Y-94833475D01*
X126687760Y-94950000D01*
X126513368Y-95066525D01*
X126306525Y-95273368D01*
X126144010Y-95516589D01*
X126032068Y-95786842D01*
X125975000Y-96073740D01*
X125975000Y-96366260D01*
X126032068Y-96653158D01*
X126144010Y-96923411D01*
X126306525Y-97166632D01*
X126513368Y-97373475D01*
X126687760Y-97490000D01*
X126513368Y-97606525D01*
X126306525Y-97813368D01*
X126144010Y-98056589D01*
X126032068Y-98326842D01*
X125975000Y-98613740D01*
X125975000Y-98906260D01*
X126032068Y-99193158D01*
X126144010Y-99463411D01*
X126306525Y-99706632D01*
X126513368Y-99913475D01*
X126687760Y-100030000D01*
X126513368Y-100146525D01*
X126306525Y-100353368D01*
X126144010Y-100596589D01*
X126032068Y-100866842D01*
X125975000Y-101153740D01*
X125975000Y-101446260D01*
X126032068Y-101733158D01*
X126144010Y-102003411D01*
X126306525Y-102246632D01*
X126513368Y-102453475D01*
X126687760Y-102570000D01*
X126513368Y-102686525D01*
X126306525Y-102893368D01*
X126144010Y-103136589D01*
X126032068Y-103406842D01*
X125975000Y-103693740D01*
X125975000Y-103986260D01*
X126032068Y-104273158D01*
X126144010Y-104543411D01*
X126306525Y-104786632D01*
X126513368Y-104993475D01*
X126687760Y-105110000D01*
X126513368Y-105226525D01*
X126306525Y-105433368D01*
X126144010Y-105676589D01*
X126032068Y-105946842D01*
X125975000Y-106233740D01*
X125975000Y-106526260D01*
X126032068Y-106813158D01*
X126144010Y-107083411D01*
X126306525Y-107326632D01*
X126513368Y-107533475D01*
X126687760Y-107650000D01*
X126513368Y-107766525D01*
X126306525Y-107973368D01*
X126144010Y-108216589D01*
X126032068Y-108486842D01*
X125975000Y-108773740D01*
X125975000Y-109066260D01*
X126032068Y-109353158D01*
X126144010Y-109623411D01*
X126306525Y-109866632D01*
X126513368Y-110073475D01*
X126687760Y-110190000D01*
X126513368Y-110306525D01*
X126306525Y-110513368D01*
X126144010Y-110756589D01*
X126032068Y-111026842D01*
X125975000Y-111313740D01*
X125975000Y-111606260D01*
X126032068Y-111893158D01*
X126144010Y-112163411D01*
X126306525Y-112406632D01*
X126513368Y-112613475D01*
X126687760Y-112730000D01*
X126513368Y-112846525D01*
X126306525Y-113053368D01*
X126144010Y-113296589D01*
X126032068Y-113566842D01*
X125975000Y-113853740D01*
X125975000Y-114146260D01*
X126032068Y-114433158D01*
X126144010Y-114703411D01*
X126306525Y-114946632D01*
X126513368Y-115153475D01*
X126756589Y-115315990D01*
X127026842Y-115427932D01*
X127313740Y-115485000D01*
X127606260Y-115485000D01*
X127893158Y-115427932D01*
X128163411Y-115315990D01*
X128406632Y-115153475D01*
X128538487Y-115021620D01*
X128560498Y-115094180D01*
X128619463Y-115204494D01*
X128698815Y-115301185D01*
X128795506Y-115380537D01*
X128905820Y-115439502D01*
X129025518Y-115475812D01*
X129150000Y-115488072D01*
X130850000Y-115488072D01*
X130974482Y-115475812D01*
X131094180Y-115439502D01*
X131204494Y-115380537D01*
X131301185Y-115301185D01*
X131380537Y-115204494D01*
X131439502Y-115094180D01*
X131475812Y-114974482D01*
X131488072Y-114850000D01*
X131488072Y-113150000D01*
X131475812Y-113025518D01*
X131439502Y-112905820D01*
X131380537Y-112795506D01*
X131301185Y-112698815D01*
X131204494Y-112619463D01*
X131094180Y-112560498D01*
X131021620Y-112538487D01*
X131153475Y-112406632D01*
X131315990Y-112163411D01*
X131427932Y-111893158D01*
X131485000Y-111606260D01*
X131485000Y-111313740D01*
X131427932Y-111026842D01*
X131315990Y-110756589D01*
X131153475Y-110513368D01*
X130946632Y-110306525D01*
X130772240Y-110190000D01*
X130946632Y-110073475D01*
X131153475Y-109866632D01*
X131315990Y-109623411D01*
X131427932Y-109353158D01*
X131485000Y-109066260D01*
X131485000Y-108773740D01*
X131427932Y-108486842D01*
X131315990Y-108216589D01*
X131153475Y-107973368D01*
X130946632Y-107766525D01*
X130772240Y-107650000D01*
X130946632Y-107533475D01*
X131153475Y-107326632D01*
X131315990Y-107083411D01*
X131427932Y-106813158D01*
X131485000Y-106526260D01*
X131485000Y-106233740D01*
X131427932Y-105946842D01*
X131315990Y-105676589D01*
X131153475Y-105433368D01*
X130946632Y-105226525D01*
X130772240Y-105110000D01*
X130946632Y-104993475D01*
X131153475Y-104786632D01*
X131315990Y-104543411D01*
X131427932Y-104273158D01*
X131485000Y-103986260D01*
X131485000Y-103693740D01*
X131427932Y-103406842D01*
X131315990Y-103136589D01*
X131153475Y-102893368D01*
X130946632Y-102686525D01*
X130772240Y-102570000D01*
X130946632Y-102453475D01*
X131153475Y-102246632D01*
X131315990Y-102003411D01*
X131427932Y-101733158D01*
X131485000Y-101446260D01*
X131485000Y-101153740D01*
X131427932Y-100866842D01*
X131315990Y-100596589D01*
X131153475Y-100353368D01*
X130946632Y-100146525D01*
X130772240Y-100030000D01*
X130946632Y-99913475D01*
X131153475Y-99706632D01*
X131315990Y-99463411D01*
X131427932Y-99193158D01*
X131485000Y-98906260D01*
X131485000Y-98613740D01*
X131427932Y-98326842D01*
X131315990Y-98056589D01*
X131153475Y-97813368D01*
X130946632Y-97606525D01*
X130772240Y-97490000D01*
X130946632Y-97373475D01*
X131153475Y-97166632D01*
X131315990Y-96923411D01*
X131427932Y-96653158D01*
X131485000Y-96366260D01*
X131485000Y-96073740D01*
X131427932Y-95786842D01*
X131315990Y-95516589D01*
X131153475Y-95273368D01*
X130946632Y-95066525D01*
X130772240Y-94950000D01*
X130946632Y-94833475D01*
X131153475Y-94626632D01*
X131315990Y-94383411D01*
X131427932Y-94113158D01*
X131485000Y-93826260D01*
X131485000Y-93533740D01*
X131427932Y-93246842D01*
X131315990Y-92976589D01*
X131153475Y-92733368D01*
X130946632Y-92526525D01*
X130772240Y-92410000D01*
X130946632Y-92293475D01*
X131153475Y-92086632D01*
X131315990Y-91843411D01*
X131427932Y-91573158D01*
X131485000Y-91286260D01*
X131485000Y-90993740D01*
X131427932Y-90706842D01*
X131315990Y-90436589D01*
X131153475Y-90193368D01*
X130946632Y-89986525D01*
X130772240Y-89870000D01*
X130946632Y-89753475D01*
X131153475Y-89546632D01*
X131315990Y-89303411D01*
X131427932Y-89033158D01*
X131485000Y-88746260D01*
X131485000Y-88453740D01*
X131427932Y-88166842D01*
X131315990Y-87896589D01*
X131153475Y-87653368D01*
X130946632Y-87446525D01*
X130772240Y-87330000D01*
X130946632Y-87213475D01*
X131153475Y-87006632D01*
X131315990Y-86763411D01*
X131427932Y-86493158D01*
X131485000Y-86206260D01*
X131485000Y-85913740D01*
X131427932Y-85626842D01*
X131315990Y-85356589D01*
X131153475Y-85113368D01*
X130946632Y-84906525D01*
X130703411Y-84744010D01*
X130433158Y-84632068D01*
X130146260Y-84575000D01*
X129853740Y-84575000D01*
X129566842Y-84632068D01*
X129296589Y-84744010D01*
X129053368Y-84906525D01*
X128846525Y-85113368D01*
X128730000Y-85287760D01*
X128613475Y-85113368D01*
X128406632Y-84906525D01*
X128163411Y-84744010D01*
X127893158Y-84632068D01*
X127606260Y-84575000D01*
X127313740Y-84575000D01*
X127026842Y-84632068D01*
X126756589Y-84744010D01*
X126513368Y-84906525D01*
X126306525Y-85113368D01*
X126144010Y-85356589D01*
X126032068Y-85626842D01*
X125975000Y-85913740D01*
X74025000Y-85913740D01*
X74025000Y-85853740D01*
X73967932Y-85566842D01*
X73855990Y-85296589D01*
X73693475Y-85053368D01*
X73486632Y-84846525D01*
X73243411Y-84684010D01*
X72973158Y-84572068D01*
X72686260Y-84515000D01*
X72393740Y-84515000D01*
X72106842Y-84572068D01*
X71836589Y-84684010D01*
X71593368Y-84846525D01*
X71461513Y-84978380D01*
X71439502Y-84905820D01*
X71380537Y-84795506D01*
X71301185Y-84698815D01*
X71204494Y-84619463D01*
X71094180Y-84560498D01*
X70974482Y-84524188D01*
X70850000Y-84511928D01*
X69150000Y-84511928D01*
X69025518Y-84524188D01*
X68905820Y-84560498D01*
X68795506Y-84619463D01*
X68698815Y-84698815D01*
X68619463Y-84795506D01*
X68560498Y-84905820D01*
X68524188Y-85025518D01*
X68511928Y-85150000D01*
X60710000Y-85150000D01*
X60710000Y-69853740D01*
X89635000Y-69853740D01*
X89635000Y-70146260D01*
X89692068Y-70433158D01*
X89804010Y-70703411D01*
X89966525Y-70946632D01*
X90173368Y-71153475D01*
X90347760Y-71270000D01*
X90173368Y-71386525D01*
X89966525Y-71593368D01*
X89804010Y-71836589D01*
X89692068Y-72106842D01*
X89635000Y-72393740D01*
X89635000Y-72686260D01*
X89692068Y-72973158D01*
X89804010Y-73243411D01*
X89966525Y-73486632D01*
X90173368Y-73693475D01*
X90416589Y-73855990D01*
X90686842Y-73967932D01*
X90973740Y-74025000D01*
X91266260Y-74025000D01*
X91553158Y-73967932D01*
X91823411Y-73855990D01*
X92066632Y-73693475D01*
X92273475Y-73486632D01*
X92390000Y-73312240D01*
X92506525Y-73486632D01*
X92713368Y-73693475D01*
X92956589Y-73855990D01*
X93226842Y-73967932D01*
X93513740Y-74025000D01*
X93806260Y-74025000D01*
X94093158Y-73967932D01*
X94363411Y-73855990D01*
X94606632Y-73693475D01*
X94813475Y-73486632D01*
X94930000Y-73312240D01*
X95046525Y-73486632D01*
X95253368Y-73693475D01*
X95496589Y-73855990D01*
X95766842Y-73967932D01*
X96053740Y-74025000D01*
X96346260Y-74025000D01*
X96633158Y-73967932D01*
X96903411Y-73855990D01*
X97146632Y-73693475D01*
X97353475Y-73486632D01*
X97470000Y-73312240D01*
X97586525Y-73486632D01*
X97793368Y-73693475D01*
X98036589Y-73855990D01*
X98306842Y-73967932D01*
X98593740Y-74025000D01*
X98886260Y-74025000D01*
X99173158Y-73967932D01*
X99443411Y-73855990D01*
X99686632Y-73693475D01*
X99893475Y-73486632D01*
X100010000Y-73312240D01*
X100126525Y-73486632D01*
X100333368Y-73693475D01*
X100576589Y-73855990D01*
X100846842Y-73967932D01*
X101133740Y-74025000D01*
X101426260Y-74025000D01*
X101713158Y-73967932D01*
X101983411Y-73855990D01*
X102226632Y-73693475D01*
X102433475Y-73486632D01*
X102550000Y-73312240D01*
X102666525Y-73486632D01*
X102873368Y-73693475D01*
X103116589Y-73855990D01*
X103386842Y-73967932D01*
X103673740Y-74025000D01*
X103966260Y-74025000D01*
X104253158Y-73967932D01*
X104523411Y-73855990D01*
X104766632Y-73693475D01*
X104973475Y-73486632D01*
X105090000Y-73312240D01*
X105206525Y-73486632D01*
X105413368Y-73693475D01*
X105656589Y-73855990D01*
X105926842Y-73967932D01*
X106213740Y-74025000D01*
X106506260Y-74025000D01*
X106793158Y-73967932D01*
X107063411Y-73855990D01*
X107306632Y-73693475D01*
X107513475Y-73486632D01*
X107630000Y-73312240D01*
X107746525Y-73486632D01*
X107953368Y-73693475D01*
X108196589Y-73855990D01*
X108466842Y-73967932D01*
X108753740Y-74025000D01*
X109046260Y-74025000D01*
X109333158Y-73967932D01*
X109603411Y-73855990D01*
X109846632Y-73693475D01*
X110053475Y-73486632D01*
X110215990Y-73243411D01*
X110327932Y-72973158D01*
X110385000Y-72686260D01*
X110385000Y-72393740D01*
X110327932Y-72106842D01*
X110215990Y-71836589D01*
X110053475Y-71593368D01*
X109921620Y-71461513D01*
X109994180Y-71439502D01*
X110104494Y-71380537D01*
X110201185Y-71301185D01*
X110280537Y-71204494D01*
X110339502Y-71094180D01*
X110375812Y-70974482D01*
X110388072Y-70850000D01*
X110388072Y-69950000D01*
X123711928Y-69950000D01*
X123711928Y-71650000D01*
X123724188Y-71774482D01*
X123760498Y-71894180D01*
X123819463Y-72004494D01*
X123898815Y-72101185D01*
X123995506Y-72180537D01*
X124105820Y-72239502D01*
X124178380Y-72261513D01*
X124046525Y-72393368D01*
X123884010Y-72636589D01*
X123772068Y-72906842D01*
X123715000Y-73193740D01*
X123715000Y-73486260D01*
X123772068Y-73773158D01*
X123884010Y-74043411D01*
X124046525Y-74286632D01*
X124253368Y-74493475D01*
X124427760Y-74610000D01*
X124253368Y-74726525D01*
X124046525Y-74933368D01*
X123884010Y-75176589D01*
X123772068Y-75446842D01*
X123715000Y-75733740D01*
X123715000Y-76026260D01*
X123772068Y-76313158D01*
X123884010Y-76583411D01*
X124046525Y-76826632D01*
X124253368Y-77033475D01*
X124427760Y-77150000D01*
X124253368Y-77266525D01*
X124046525Y-77473368D01*
X123884010Y-77716589D01*
X123772068Y-77986842D01*
X123715000Y-78273740D01*
X123715000Y-78566260D01*
X123772068Y-78853158D01*
X123884010Y-79123411D01*
X124046525Y-79366632D01*
X124253368Y-79573475D01*
X124496589Y-79735990D01*
X124766842Y-79847932D01*
X125053740Y-79905000D01*
X125346260Y-79905000D01*
X125633158Y-79847932D01*
X125903411Y-79735990D01*
X126146632Y-79573475D01*
X126353475Y-79366632D01*
X126515990Y-79123411D01*
X126627932Y-78853158D01*
X126685000Y-78566260D01*
X126685000Y-78273740D01*
X126627932Y-77986842D01*
X126515990Y-77716589D01*
X126353475Y-77473368D01*
X126146632Y-77266525D01*
X125972240Y-77150000D01*
X126146632Y-77033475D01*
X126353475Y-76826632D01*
X126515990Y-76583411D01*
X126627932Y-76313158D01*
X126685000Y-76026260D01*
X126685000Y-75733740D01*
X126627932Y-75446842D01*
X126515990Y-75176589D01*
X126353475Y-74933368D01*
X126146632Y-74726525D01*
X125972240Y-74610000D01*
X126146632Y-74493475D01*
X126353475Y-74286632D01*
X126515990Y-74043411D01*
X126627932Y-73773158D01*
X126685000Y-73486260D01*
X126685000Y-73193740D01*
X126627932Y-72906842D01*
X126515990Y-72636589D01*
X126353475Y-72393368D01*
X126221620Y-72261513D01*
X126294180Y-72239502D01*
X126404494Y-72180537D01*
X126501185Y-72101185D01*
X126580537Y-72004494D01*
X126639502Y-71894180D01*
X126675812Y-71774482D01*
X126688072Y-71650000D01*
X126688072Y-69950000D01*
X126675812Y-69825518D01*
X126639502Y-69705820D01*
X126580537Y-69595506D01*
X126501185Y-69498815D01*
X126404494Y-69419463D01*
X126294180Y-69360498D01*
X126174482Y-69324188D01*
X126050000Y-69311928D01*
X124350000Y-69311928D01*
X124225518Y-69324188D01*
X124105820Y-69360498D01*
X123995506Y-69419463D01*
X123898815Y-69498815D01*
X123819463Y-69595506D01*
X123760498Y-69705820D01*
X123724188Y-69825518D01*
X123711928Y-69950000D01*
X110388072Y-69950000D01*
X110388072Y-69150000D01*
X110375812Y-69025518D01*
X110339502Y-68905820D01*
X110280537Y-68795506D01*
X110201185Y-68698815D01*
X110104494Y-68619463D01*
X109994180Y-68560498D01*
X109874482Y-68524188D01*
X109750000Y-68511928D01*
X108050000Y-68511928D01*
X107925518Y-68524188D01*
X107805820Y-68560498D01*
X107695506Y-68619463D01*
X107598815Y-68698815D01*
X107519463Y-68795506D01*
X107460498Y-68905820D01*
X107438487Y-68978380D01*
X107306632Y-68846525D01*
X107063411Y-68684010D01*
X106793158Y-68572068D01*
X106506260Y-68515000D01*
X106213740Y-68515000D01*
X105926842Y-68572068D01*
X105656589Y-68684010D01*
X105413368Y-68846525D01*
X105206525Y-69053368D01*
X105090000Y-69227760D01*
X104973475Y-69053368D01*
X104766632Y-68846525D01*
X104523411Y-68684010D01*
X104253158Y-68572068D01*
X103966260Y-68515000D01*
X103673740Y-68515000D01*
X103386842Y-68572068D01*
X103116589Y-68684010D01*
X102873368Y-68846525D01*
X102666525Y-69053368D01*
X102550000Y-69227760D01*
X102433475Y-69053368D01*
X102226632Y-68846525D01*
X101983411Y-68684010D01*
X101713158Y-68572068D01*
X101426260Y-68515000D01*
X101133740Y-68515000D01*
X100846842Y-68572068D01*
X100576589Y-68684010D01*
X100333368Y-68846525D01*
X100126525Y-69053368D01*
X100010000Y-69227760D01*
X99893475Y-69053368D01*
X99686632Y-68846525D01*
X99443411Y-68684010D01*
X99173158Y-68572068D01*
X98886260Y-68515000D01*
X98593740Y-68515000D01*
X98306842Y-68572068D01*
X98036589Y-68684010D01*
X97793368Y-68846525D01*
X97586525Y-69053368D01*
X97470000Y-69227760D01*
X97353475Y-69053368D01*
X97146632Y-68846525D01*
X96903411Y-68684010D01*
X96633158Y-68572068D01*
X96346260Y-68515000D01*
X96053740Y-68515000D01*
X95766842Y-68572068D01*
X95496589Y-68684010D01*
X95253368Y-68846525D01*
X95046525Y-69053368D01*
X94930000Y-69227760D01*
X94813475Y-69053368D01*
X94606632Y-68846525D01*
X94363411Y-68684010D01*
X94093158Y-68572068D01*
X93806260Y-68515000D01*
X93513740Y-68515000D01*
X93226842Y-68572068D01*
X92956589Y-68684010D01*
X92713368Y-68846525D01*
X92506525Y-69053368D01*
X92390000Y-69227760D01*
X92273475Y-69053368D01*
X92066632Y-68846525D01*
X91823411Y-68684010D01*
X91553158Y-68572068D01*
X91266260Y-68515000D01*
X90973740Y-68515000D01*
X90686842Y-68572068D01*
X90416589Y-68684010D01*
X90173368Y-68846525D01*
X89966525Y-69053368D01*
X89804010Y-69296589D01*
X89692068Y-69566842D01*
X89635000Y-69853740D01*
X60710000Y-69853740D01*
X60710000Y-65031618D01*
X60780578Y-64240808D01*
X60981705Y-63505611D01*
X61309846Y-62817649D01*
X61754628Y-62198669D01*
X62301988Y-61668239D01*
X62934639Y-61243116D01*
X63632561Y-60936749D01*
X64379183Y-60757501D01*
X65026030Y-60710000D01*
X134968382Y-60710000D01*
X135759192Y-60780578D01*
G37*
X135759192Y-60780578D02*
X136494389Y-60981705D01*
X137182351Y-61309846D01*
X137801331Y-61754628D01*
X138331761Y-62301988D01*
X138756884Y-62934639D01*
X139063251Y-63632561D01*
X139242499Y-64379183D01*
X139290001Y-65026044D01*
X139290000Y-134968382D01*
X139219422Y-135759193D01*
X139018295Y-136494389D01*
X138690152Y-137182355D01*
X138245374Y-137801328D01*
X137698012Y-138331761D01*
X137065362Y-138756883D01*
X136367439Y-139063251D01*
X135620819Y-139242499D01*
X134973970Y-139290000D01*
X65031618Y-139290000D01*
X64240807Y-139219422D01*
X63505611Y-139018295D01*
X62817645Y-138690152D01*
X62198672Y-138245374D01*
X61668239Y-137698012D01*
X61243117Y-137065362D01*
X60936749Y-136367439D01*
X60757501Y-135620819D01*
X60710000Y-134973970D01*
X60710000Y-129150000D01*
X89611928Y-129150000D01*
X89611928Y-130850000D01*
X89624188Y-130974482D01*
X89660498Y-131094180D01*
X89719463Y-131204494D01*
X89798815Y-131301185D01*
X89895506Y-131380537D01*
X90005820Y-131439502D01*
X90125518Y-131475812D01*
X90250000Y-131488072D01*
X91950000Y-131488072D01*
X92074482Y-131475812D01*
X92194180Y-131439502D01*
X92304494Y-131380537D01*
X92401185Y-131301185D01*
X92480537Y-131204494D01*
X92539502Y-131094180D01*
X92561513Y-131021620D01*
X92693368Y-131153475D01*
X92936589Y-131315990D01*
X93206842Y-131427932D01*
X93493740Y-131485000D01*
X93786260Y-131485000D01*
X94073158Y-131427932D01*
X94343411Y-131315990D01*
X94586632Y-131153475D01*
X94793475Y-130946632D01*
X94910000Y-130772240D01*
X95026525Y-130946632D01*
X95233368Y-131153475D01*
X95476589Y-131315990D01*
X95746842Y-131427932D01*
X96033740Y-131485000D01*
X96326260Y-131485000D01*
X96613158Y-131427932D01*
X96883411Y-131315990D01*
X97126632Y-131153475D01*
X97333475Y-130946632D01*
X97450000Y-130772240D01*
X97566525Y-130946632D01*
X97773368Y-131153475D01*
X98016589Y-131315990D01*
X98286842Y-131427932D01*
X98573740Y-131485000D01*
X98866260Y-131485000D01*
X99153158Y-131427932D01*
X99423411Y-131315990D01*
X99666632Y-131153475D01*
X99873475Y-130946632D01*
X99990000Y-130772240D01*
X100106525Y-130946632D01*
X100313368Y-131153475D01*
X100556589Y-131315990D01*
X100826842Y-131427932D01*
X101113740Y-131485000D01*
X101406260Y-131485000D01*
X101693158Y-131427932D01*
X101963411Y-131315990D01*
X102206632Y-131153475D01*
X102413475Y-130946632D01*
X102530000Y-130772240D01*
X102646525Y-130946632D01*
X102853368Y-131153475D01*
X103096589Y-131315990D01*
X103366842Y-131427932D01*
X103653740Y-131485000D01*
X103946260Y-131485000D01*
X104233158Y-131427932D01*
X104503411Y-131315990D01*
X104746632Y-131153475D01*
X104953475Y-130946632D01*
X105070000Y-130772240D01*
X105186525Y-130946632D01*
X105393368Y-131153475D01*
X105636589Y-131315990D01*
X105906842Y-131427932D01*
X106193740Y-131485000D01*
X106486260Y-131485000D01*
X106773158Y-131427932D01*
X107043411Y-131315990D01*
X107286632Y-131153475D01*
X107493475Y-130946632D01*
X107610000Y-130772240D01*
X107726525Y-130946632D01*
X107933368Y-131153475D01*
X108176589Y-131315990D01*
X108446842Y-131427932D01*
X108733740Y-131485000D01*
X109026260Y-131485000D01*
X109313158Y-131427932D01*
X109583411Y-131315990D01*
X109826632Y-131153475D01*
X110033475Y-130946632D01*
X110195990Y-130703411D01*
X110307932Y-130433158D01*
X110365000Y-130146260D01*
X110365000Y-129853740D01*
X110307932Y-129566842D01*
X110195990Y-129296589D01*
X110033475Y-129053368D01*
X109826632Y-128846525D01*
X109652240Y-128730000D01*
X109826632Y-128613475D01*
X110033475Y-128406632D01*
X110195990Y-128163411D01*
X110307932Y-127893158D01*
X110365000Y-127606260D01*
X110365000Y-127313740D01*
X110307932Y-127026842D01*
X110195990Y-126756589D01*
X110033475Y-126513368D01*
X109826632Y-126306525D01*
X109583411Y-126144010D01*
X109313158Y-126032068D01*
X109026260Y-125975000D01*
X108733740Y-125975000D01*
X108446842Y-126032068D01*
X108176589Y-126144010D01*
X107933368Y-126306525D01*
X107726525Y-126513368D01*
X107610000Y-126687760D01*
X107493475Y-126513368D01*
X107286632Y-126306525D01*
X107043411Y-126144010D01*
X106773158Y-126032068D01*
X106486260Y-125975000D01*
X106193740Y-125975000D01*
X105906842Y-126032068D01*
X105636589Y-126144010D01*
X105393368Y-126306525D01*
X105186525Y-126513368D01*
X105070000Y-126687760D01*
X104953475Y-126513368D01*
X104746632Y-126306525D01*
X104503411Y-126144010D01*
X104233158Y-126032068D01*
X103946260Y-125975000D01*
X103653740Y-125975000D01*
X103366842Y-126032068D01*
X103096589Y-126144010D01*
X102853368Y-126306525D01*
X102646525Y-126513368D01*
X102530000Y-126687760D01*
X102413475Y-126513368D01*
X102206632Y-126306525D01*
X101963411Y-126144010D01*
X101693158Y-126032068D01*
X101406260Y-125975000D01*
X101113740Y-125975000D01*
X100826842Y-126032068D01*
X100556589Y-126144010D01*
X100313368Y-126306525D01*
X100106525Y-126513368D01*
X99990000Y-126687760D01*
X99873475Y-126513368D01*
X99666632Y-126306525D01*
X99423411Y-126144010D01*
X99153158Y-126032068D01*
X98866260Y-125975000D01*
X98573740Y-125975000D01*
X98286842Y-126032068D01*
X98016589Y-126144010D01*
X97773368Y-126306525D01*
X97566525Y-126513368D01*
X97450000Y-126687760D01*
X97333475Y-126513368D01*
X97126632Y-126306525D01*
X96883411Y-126144010D01*
X96613158Y-126032068D01*
X96326260Y-125975000D01*
X96033740Y-125975000D01*
X95746842Y-126032068D01*
X95476589Y-126144010D01*
X95233368Y-126306525D01*
X95026525Y-126513368D01*
X94910000Y-126687760D01*
X94793475Y-126513368D01*
X94586632Y-126306525D01*
X94343411Y-126144010D01*
X94073158Y-126032068D01*
X93786260Y-125975000D01*
X93493740Y-125975000D01*
X93206842Y-126032068D01*
X92936589Y-126144010D01*
X92693368Y-126306525D01*
X92486525Y-126513368D01*
X92370000Y-126687760D01*
X92253475Y-126513368D01*
X92046632Y-126306525D01*
X91803411Y-126144010D01*
X91533158Y-126032068D01*
X91246260Y-125975000D01*
X90953740Y-125975000D01*
X90666842Y-126032068D01*
X90396589Y-126144010D01*
X90153368Y-126306525D01*
X89946525Y-126513368D01*
X89784010Y-126756589D01*
X89672068Y-127026842D01*
X89615000Y-127313740D01*
X89615000Y-127606260D01*
X89672068Y-127893158D01*
X89784010Y-128163411D01*
X89946525Y-128406632D01*
X90078380Y-128538487D01*
X90005820Y-128560498D01*
X89895506Y-128619463D01*
X89798815Y-128698815D01*
X89719463Y-128795506D01*
X89660498Y-128905820D01*
X89624188Y-129025518D01*
X89611928Y-129150000D01*
X60710000Y-129150000D01*
X60710000Y-85150000D01*
X68511928Y-85150000D01*
X68511928Y-86850000D01*
X68524188Y-86974482D01*
X68560498Y-87094180D01*
X68619463Y-87204494D01*
X68698815Y-87301185D01*
X68795506Y-87380537D01*
X68905820Y-87439502D01*
X68978380Y-87461513D01*
X68846525Y-87593368D01*
X68684010Y-87836589D01*
X68572068Y-88106842D01*
X68515000Y-88393740D01*
X68515000Y-88686260D01*
X68572068Y-88973158D01*
X68684010Y-89243411D01*
X68846525Y-89486632D01*
X69053368Y-89693475D01*
X69227760Y-89810000D01*
X69053368Y-89926525D01*
X68846525Y-90133368D01*
X68684010Y-90376589D01*
X68572068Y-90646842D01*
X68515000Y-90933740D01*
X68515000Y-91226260D01*
X68572068Y-91513158D01*
X68684010Y-91783411D01*
X68846525Y-92026632D01*
X69053368Y-92233475D01*
X69227760Y-92350000D01*
X69053368Y-92466525D01*
X68846525Y-92673368D01*
X68684010Y-92916589D01*
X68572068Y-93186842D01*
X68515000Y-93473740D01*
X68515000Y-93766260D01*
X68572068Y-94053158D01*
X68684010Y-94323411D01*
X68846525Y-94566632D01*
X69053368Y-94773475D01*
X69227760Y-94890000D01*
X69053368Y-95006525D01*
X68846525Y-95213368D01*
X68684010Y-95456589D01*
X68572068Y-95726842D01*
X68515000Y-96013740D01*
X68515000Y-96306260D01*
X68572068Y-96593158D01*
X68684010Y-96863411D01*
X68846525Y-97106632D01*
X69053368Y-97313475D01*
X69227760Y-97430000D01*
X69053368Y-97546525D01*
X68846525Y-97753368D01*
X68684010Y-97996589D01*
X68572068Y-98266842D01*
X68515000Y-98553740D01*
X68515000Y-98846260D01*
X68572068Y-99133158D01*
X68684010Y-99403411D01*
X68846525Y-99646632D01*
X69053368Y-99853475D01*
X69227760Y-99970000D01*
X69053368Y-100086525D01*
X68846525Y-100293368D01*
X68684010Y-100536589D01*
X68572068Y-100806842D01*
X68515000Y-101093740D01*
X68515000Y-101386260D01*
X68572068Y-101673158D01*
X68684010Y-101943411D01*
X68846525Y-102186632D01*
X69053368Y-102393475D01*
X69227760Y-102510000D01*
X69053368Y-102626525D01*
X68846525Y-102833368D01*
X68684010Y-103076589D01*
X68572068Y-103346842D01*
X68515000Y-103633740D01*
X68515000Y-103926260D01*
X68572068Y-104213158D01*
X68684010Y-104483411D01*
X68846525Y-104726632D01*
X69053368Y-104933475D01*
X69227760Y-105050000D01*
X69053368Y-105166525D01*
X68846525Y-105373368D01*
X68684010Y-105616589D01*
X68572068Y-105886842D01*
X68515000Y-106173740D01*
X68515000Y-106466260D01*
X68572068Y-106753158D01*
X68684010Y-107023411D01*
X68846525Y-107266632D01*
X69053368Y-107473475D01*
X69227760Y-107590000D01*
X69053368Y-107706525D01*
X68846525Y-107913368D01*
X68684010Y-108156589D01*
X68572068Y-108426842D01*
X68515000Y-108713740D01*
X68515000Y-109006260D01*
X68572068Y-109293158D01*
X68684010Y-109563411D01*
X68846525Y-109806632D01*
X69053368Y-110013475D01*
X69227760Y-110130000D01*
X69053368Y-110246525D01*
X68846525Y-110453368D01*
X68684010Y-110696589D01*
X68572068Y-110966842D01*
X68515000Y-111253740D01*
X68515000Y-111546260D01*
X68572068Y-111833158D01*
X68684010Y-112103411D01*
X68846525Y-112346632D01*
X69053368Y-112553475D01*
X69227760Y-112670000D01*
X69053368Y-112786525D01*
X68846525Y-112993368D01*
X68684010Y-113236589D01*
X68572068Y-113506842D01*
X68515000Y-113793740D01*
X68515000Y-114086260D01*
X68572068Y-114373158D01*
X68684010Y-114643411D01*
X68846525Y-114886632D01*
X69053368Y-115093475D01*
X69296589Y-115255990D01*
X69566842Y-115367932D01*
X69853740Y-115425000D01*
X70146260Y-115425000D01*
X70433158Y-115367932D01*
X70703411Y-115255990D01*
X70946632Y-115093475D01*
X71153475Y-114886632D01*
X71270000Y-114712240D01*
X71386525Y-114886632D01*
X71593368Y-115093475D01*
X71836589Y-115255990D01*
X72106842Y-115367932D01*
X72393740Y-115425000D01*
X72686260Y-115425000D01*
X72973158Y-115367932D01*
X73243411Y-115255990D01*
X73486632Y-115093475D01*
X73693475Y-114886632D01*
X73855990Y-114643411D01*
X73967932Y-114373158D01*
X74025000Y-114086260D01*
X74025000Y-113793740D01*
X73967932Y-113506842D01*
X73855990Y-113236589D01*
X73693475Y-112993368D01*
X73486632Y-112786525D01*
X73312240Y-112670000D01*
X73486632Y-112553475D01*
X73693475Y-112346632D01*
X73855990Y-112103411D01*
X73967932Y-111833158D01*
X74025000Y-111546260D01*
X74025000Y-111253740D01*
X73967932Y-110966842D01*
X73855990Y-110696589D01*
X73693475Y-110453368D01*
X73486632Y-110246525D01*
X73312240Y-110130000D01*
X73486632Y-110013475D01*
X73693475Y-109806632D01*
X73855990Y-109563411D01*
X73967932Y-109293158D01*
X74025000Y-109006260D01*
X74025000Y-108713740D01*
X73967932Y-108426842D01*
X73855990Y-108156589D01*
X73693475Y-107913368D01*
X73486632Y-107706525D01*
X73312240Y-107590000D01*
X73486632Y-107473475D01*
X73693475Y-107266632D01*
X73855990Y-107023411D01*
X73967932Y-106753158D01*
X74025000Y-106466260D01*
X74025000Y-106173740D01*
X73967932Y-105886842D01*
X73855990Y-105616589D01*
X73693475Y-105373368D01*
X73486632Y-105166525D01*
X73312240Y-105050000D01*
X73486632Y-104933475D01*
X73693475Y-104726632D01*
X73855990Y-104483411D01*
X73967932Y-104213158D01*
X74025000Y-103926260D01*
X74025000Y-103633740D01*
X73967932Y-103346842D01*
X73855990Y-103076589D01*
X73693475Y-102833368D01*
X73486632Y-102626525D01*
X73312240Y-102510000D01*
X73486632Y-102393475D01*
X73693475Y-102186632D01*
X73855990Y-101943411D01*
X73967932Y-101673158D01*
X74025000Y-101386260D01*
X74025000Y-101093740D01*
X73967932Y-100806842D01*
X73855990Y-100536589D01*
X73693475Y-100293368D01*
X73486632Y-100086525D01*
X73312240Y-99970000D01*
X73486632Y-99853475D01*
X73693475Y-99646632D01*
X73855990Y-99403411D01*
X73967932Y-99133158D01*
X74025000Y-98846260D01*
X74025000Y-98553740D01*
X73967932Y-98266842D01*
X73855990Y-97996589D01*
X73693475Y-97753368D01*
X73486632Y-97546525D01*
X73312240Y-97430000D01*
X73486632Y-97313475D01*
X73693475Y-97106632D01*
X73855990Y-96863411D01*
X73967932Y-96593158D01*
X74025000Y-96306260D01*
X74025000Y-96013740D01*
X73967932Y-95726842D01*
X73855990Y-95456589D01*
X73693475Y-95213368D01*
X73486632Y-95006525D01*
X73312240Y-94890000D01*
X73486632Y-94773475D01*
X73693475Y-94566632D01*
X73855990Y-94323411D01*
X73967932Y-94053158D01*
X74025000Y-93766260D01*
X74025000Y-93473740D01*
X73967932Y-93186842D01*
X73855990Y-92916589D01*
X73693475Y-92673368D01*
X73486632Y-92466525D01*
X73312240Y-92350000D01*
X73486632Y-92233475D01*
X73693475Y-92026632D01*
X73855990Y-91783411D01*
X73967932Y-91513158D01*
X74025000Y-91226260D01*
X74025000Y-90933740D01*
X73967932Y-90646842D01*
X73855990Y-90376589D01*
X73693475Y-90133368D01*
X73486632Y-89926525D01*
X73312240Y-89810000D01*
X73486632Y-89693475D01*
X73693475Y-89486632D01*
X73855990Y-89243411D01*
X73967932Y-88973158D01*
X74025000Y-88686260D01*
X74025000Y-88393740D01*
X73967932Y-88106842D01*
X73855990Y-87836589D01*
X73693475Y-87593368D01*
X73486632Y-87386525D01*
X73312240Y-87270000D01*
X73486632Y-87153475D01*
X73693475Y-86946632D01*
X73855990Y-86703411D01*
X73967932Y-86433158D01*
X74025000Y-86146260D01*
X74025000Y-85913740D01*
X125975000Y-85913740D01*
X125975000Y-86206260D01*
X126032068Y-86493158D01*
X126144010Y-86763411D01*
X126306525Y-87006632D01*
X126513368Y-87213475D01*
X126687760Y-87330000D01*
X126513368Y-87446525D01*
X126306525Y-87653368D01*
X126144010Y-87896589D01*
X126032068Y-88166842D01*
X125975000Y-88453740D01*
X125975000Y-88746260D01*
X126032068Y-89033158D01*
X126144010Y-89303411D01*
X126306525Y-89546632D01*
X126513368Y-89753475D01*
X126687760Y-89870000D01*
X126513368Y-89986525D01*
X126306525Y-90193368D01*
X126144010Y-90436589D01*
X126032068Y-90706842D01*
X125975000Y-90993740D01*
X125975000Y-91286260D01*
X126032068Y-91573158D01*
X126144010Y-91843411D01*
X126306525Y-92086632D01*
X126513368Y-92293475D01*
X126687760Y-92410000D01*
X126513368Y-92526525D01*
X126306525Y-92733368D01*
X126144010Y-92976589D01*
X126032068Y-93246842D01*
X125975000Y-93533740D01*
X125975000Y-93826260D01*
X126032068Y-94113158D01*
X126144010Y-94383411D01*
X126306525Y-94626632D01*
X126513368Y-94833475D01*
X126687760Y-94950000D01*
X126513368Y-95066525D01*
X126306525Y-95273368D01*
X126144010Y-95516589D01*
X126032068Y-95786842D01*
X125975000Y-96073740D01*
X125975000Y-96366260D01*
X126032068Y-96653158D01*
X126144010Y-96923411D01*
X126306525Y-97166632D01*
X126513368Y-97373475D01*
X126687760Y-97490000D01*
X126513368Y-97606525D01*
X126306525Y-97813368D01*
X126144010Y-98056589D01*
X126032068Y-98326842D01*
X125975000Y-98613740D01*
X125975000Y-98906260D01*
X126032068Y-99193158D01*
X126144010Y-99463411D01*
X126306525Y-99706632D01*
X126513368Y-99913475D01*
X126687760Y-100030000D01*
X126513368Y-100146525D01*
X126306525Y-100353368D01*
X126144010Y-100596589D01*
X126032068Y-100866842D01*
X125975000Y-101153740D01*
X125975000Y-101446260D01*
X126032068Y-101733158D01*
X126144010Y-102003411D01*
X126306525Y-102246632D01*
X126513368Y-102453475D01*
X126687760Y-102570000D01*
X126513368Y-102686525D01*
X126306525Y-102893368D01*
X126144010Y-103136589D01*
X126032068Y-103406842D01*
X125975000Y-103693740D01*
X125975000Y-103986260D01*
X126032068Y-104273158D01*
X126144010Y-104543411D01*
X126306525Y-104786632D01*
X126513368Y-104993475D01*
X126687760Y-105110000D01*
X126513368Y-105226525D01*
X126306525Y-105433368D01*
X126144010Y-105676589D01*
X126032068Y-105946842D01*
X125975000Y-106233740D01*
X125975000Y-106526260D01*
X126032068Y-106813158D01*
X126144010Y-107083411D01*
X126306525Y-107326632D01*
X126513368Y-107533475D01*
X126687760Y-107650000D01*
X126513368Y-107766525D01*
X126306525Y-107973368D01*
X126144010Y-108216589D01*
X126032068Y-108486842D01*
X125975000Y-108773740D01*
X125975000Y-109066260D01*
X126032068Y-109353158D01*
X126144010Y-109623411D01*
X126306525Y-109866632D01*
X126513368Y-110073475D01*
X126687760Y-110190000D01*
X126513368Y-110306525D01*
X126306525Y-110513368D01*
X126144010Y-110756589D01*
X126032068Y-111026842D01*
X125975000Y-111313740D01*
X125975000Y-111606260D01*
X126032068Y-111893158D01*
X126144010Y-112163411D01*
X126306525Y-112406632D01*
X126513368Y-112613475D01*
X126687760Y-112730000D01*
X126513368Y-112846525D01*
X126306525Y-113053368D01*
X126144010Y-113296589D01*
X126032068Y-113566842D01*
X125975000Y-113853740D01*
X125975000Y-114146260D01*
X126032068Y-114433158D01*
X126144010Y-114703411D01*
X126306525Y-114946632D01*
X126513368Y-115153475D01*
X126756589Y-115315990D01*
X127026842Y-115427932D01*
X127313740Y-115485000D01*
X127606260Y-115485000D01*
X127893158Y-115427932D01*
X128163411Y-115315990D01*
X128406632Y-115153475D01*
X128538487Y-115021620D01*
X128560498Y-115094180D01*
X128619463Y-115204494D01*
X128698815Y-115301185D01*
X128795506Y-115380537D01*
X128905820Y-115439502D01*
X129025518Y-115475812D01*
X129150000Y-115488072D01*
X130850000Y-115488072D01*
X130974482Y-115475812D01*
X131094180Y-115439502D01*
X131204494Y-115380537D01*
X131301185Y-115301185D01*
X131380537Y-115204494D01*
X131439502Y-115094180D01*
X131475812Y-114974482D01*
X131488072Y-114850000D01*
X131488072Y-113150000D01*
X131475812Y-113025518D01*
X131439502Y-112905820D01*
X131380537Y-112795506D01*
X131301185Y-112698815D01*
X131204494Y-112619463D01*
X131094180Y-112560498D01*
X131021620Y-112538487D01*
X131153475Y-112406632D01*
X131315990Y-112163411D01*
X131427932Y-111893158D01*
X131485000Y-111606260D01*
X131485000Y-111313740D01*
X131427932Y-111026842D01*
X131315990Y-110756589D01*
X131153475Y-110513368D01*
X130946632Y-110306525D01*
X130772240Y-110190000D01*
X130946632Y-110073475D01*
X131153475Y-109866632D01*
X131315990Y-109623411D01*
X131427932Y-109353158D01*
X131485000Y-109066260D01*
X131485000Y-108773740D01*
X131427932Y-108486842D01*
X131315990Y-108216589D01*
X131153475Y-107973368D01*
X130946632Y-107766525D01*
X130772240Y-107650000D01*
X130946632Y-107533475D01*
X131153475Y-107326632D01*
X131315990Y-107083411D01*
X131427932Y-106813158D01*
X131485000Y-106526260D01*
X131485000Y-106233740D01*
X131427932Y-105946842D01*
X131315990Y-105676589D01*
X131153475Y-105433368D01*
X130946632Y-105226525D01*
X130772240Y-105110000D01*
X130946632Y-104993475D01*
X131153475Y-104786632D01*
X131315990Y-104543411D01*
X131427932Y-104273158D01*
X131485000Y-103986260D01*
X131485000Y-103693740D01*
X131427932Y-103406842D01*
X131315990Y-103136589D01*
X131153475Y-102893368D01*
X130946632Y-102686525D01*
X130772240Y-102570000D01*
X130946632Y-102453475D01*
X131153475Y-102246632D01*
X131315990Y-102003411D01*
X131427932Y-101733158D01*
X131485000Y-101446260D01*
X131485000Y-101153740D01*
X131427932Y-100866842D01*
X131315990Y-100596589D01*
X131153475Y-100353368D01*
X130946632Y-100146525D01*
X130772240Y-100030000D01*
X130946632Y-99913475D01*
X131153475Y-99706632D01*
X131315990Y-99463411D01*
X131427932Y-99193158D01*
X131485000Y-98906260D01*
X131485000Y-98613740D01*
X131427932Y-98326842D01*
X131315990Y-98056589D01*
X131153475Y-97813368D01*
X130946632Y-97606525D01*
X130772240Y-97490000D01*
X130946632Y-97373475D01*
X131153475Y-97166632D01*
X131315990Y-96923411D01*
X131427932Y-96653158D01*
X131485000Y-96366260D01*
X131485000Y-96073740D01*
X131427932Y-95786842D01*
X131315990Y-95516589D01*
X131153475Y-95273368D01*
X130946632Y-95066525D01*
X130772240Y-94950000D01*
X130946632Y-94833475D01*
X131153475Y-94626632D01*
X131315990Y-94383411D01*
X131427932Y-94113158D01*
X131485000Y-93826260D01*
X131485000Y-93533740D01*
X131427932Y-93246842D01*
X131315990Y-92976589D01*
X131153475Y-92733368D01*
X130946632Y-92526525D01*
X130772240Y-92410000D01*
X130946632Y-92293475D01*
X131153475Y-92086632D01*
X131315990Y-91843411D01*
X131427932Y-91573158D01*
X131485000Y-91286260D01*
X131485000Y-90993740D01*
X131427932Y-90706842D01*
X131315990Y-90436589D01*
X131153475Y-90193368D01*
X130946632Y-89986525D01*
X130772240Y-89870000D01*
X130946632Y-89753475D01*
X131153475Y-89546632D01*
X131315990Y-89303411D01*
X131427932Y-89033158D01*
X131485000Y-88746260D01*
X131485000Y-88453740D01*
X131427932Y-88166842D01*
X131315990Y-87896589D01*
X131153475Y-87653368D01*
X130946632Y-87446525D01*
X130772240Y-87330000D01*
X130946632Y-87213475D01*
X131153475Y-87006632D01*
X131315990Y-86763411D01*
X131427932Y-86493158D01*
X131485000Y-86206260D01*
X131485000Y-85913740D01*
X131427932Y-85626842D01*
X131315990Y-85356589D01*
X131153475Y-85113368D01*
X130946632Y-84906525D01*
X130703411Y-84744010D01*
X130433158Y-84632068D01*
X130146260Y-84575000D01*
X129853740Y-84575000D01*
X129566842Y-84632068D01*
X129296589Y-84744010D01*
X129053368Y-84906525D01*
X128846525Y-85113368D01*
X128730000Y-85287760D01*
X128613475Y-85113368D01*
X128406632Y-84906525D01*
X128163411Y-84744010D01*
X127893158Y-84632068D01*
X127606260Y-84575000D01*
X127313740Y-84575000D01*
X127026842Y-84632068D01*
X126756589Y-84744010D01*
X126513368Y-84906525D01*
X126306525Y-85113368D01*
X126144010Y-85356589D01*
X126032068Y-85626842D01*
X125975000Y-85913740D01*
X74025000Y-85913740D01*
X74025000Y-85853740D01*
X73967932Y-85566842D01*
X73855990Y-85296589D01*
X73693475Y-85053368D01*
X73486632Y-84846525D01*
X73243411Y-84684010D01*
X72973158Y-84572068D01*
X72686260Y-84515000D01*
X72393740Y-84515000D01*
X72106842Y-84572068D01*
X71836589Y-84684010D01*
X71593368Y-84846525D01*
X71461513Y-84978380D01*
X71439502Y-84905820D01*
X71380537Y-84795506D01*
X71301185Y-84698815D01*
X71204494Y-84619463D01*
X71094180Y-84560498D01*
X70974482Y-84524188D01*
X70850000Y-84511928D01*
X69150000Y-84511928D01*
X69025518Y-84524188D01*
X68905820Y-84560498D01*
X68795506Y-84619463D01*
X68698815Y-84698815D01*
X68619463Y-84795506D01*
X68560498Y-84905820D01*
X68524188Y-85025518D01*
X68511928Y-85150000D01*
X60710000Y-85150000D01*
X60710000Y-69853740D01*
X89635000Y-69853740D01*
X89635000Y-70146260D01*
X89692068Y-70433158D01*
X89804010Y-70703411D01*
X89966525Y-70946632D01*
X90173368Y-71153475D01*
X90347760Y-71270000D01*
X90173368Y-71386525D01*
X89966525Y-71593368D01*
X89804010Y-71836589D01*
X89692068Y-72106842D01*
X89635000Y-72393740D01*
X89635000Y-72686260D01*
X89692068Y-72973158D01*
X89804010Y-73243411D01*
X89966525Y-73486632D01*
X90173368Y-73693475D01*
X90416589Y-73855990D01*
X90686842Y-73967932D01*
X90973740Y-74025000D01*
X91266260Y-74025000D01*
X91553158Y-73967932D01*
X91823411Y-73855990D01*
X92066632Y-73693475D01*
X92273475Y-73486632D01*
X92390000Y-73312240D01*
X92506525Y-73486632D01*
X92713368Y-73693475D01*
X92956589Y-73855990D01*
X93226842Y-73967932D01*
X93513740Y-74025000D01*
X93806260Y-74025000D01*
X94093158Y-73967932D01*
X94363411Y-73855990D01*
X94606632Y-73693475D01*
X94813475Y-73486632D01*
X94930000Y-73312240D01*
X95046525Y-73486632D01*
X95253368Y-73693475D01*
X95496589Y-73855990D01*
X95766842Y-73967932D01*
X96053740Y-74025000D01*
X96346260Y-74025000D01*
X96633158Y-73967932D01*
X96903411Y-73855990D01*
X97146632Y-73693475D01*
X97353475Y-73486632D01*
X97470000Y-73312240D01*
X97586525Y-73486632D01*
X97793368Y-73693475D01*
X98036589Y-73855990D01*
X98306842Y-73967932D01*
X98593740Y-74025000D01*
X98886260Y-74025000D01*
X99173158Y-73967932D01*
X99443411Y-73855990D01*
X99686632Y-73693475D01*
X99893475Y-73486632D01*
X100010000Y-73312240D01*
X100126525Y-73486632D01*
X100333368Y-73693475D01*
X100576589Y-73855990D01*
X100846842Y-73967932D01*
X101133740Y-74025000D01*
X101426260Y-74025000D01*
X101713158Y-73967932D01*
X101983411Y-73855990D01*
X102226632Y-73693475D01*
X102433475Y-73486632D01*
X102550000Y-73312240D01*
X102666525Y-73486632D01*
X102873368Y-73693475D01*
X103116589Y-73855990D01*
X103386842Y-73967932D01*
X103673740Y-74025000D01*
X103966260Y-74025000D01*
X104253158Y-73967932D01*
X104523411Y-73855990D01*
X104766632Y-73693475D01*
X104973475Y-73486632D01*
X105090000Y-73312240D01*
X105206525Y-73486632D01*
X105413368Y-73693475D01*
X105656589Y-73855990D01*
X105926842Y-73967932D01*
X106213740Y-74025000D01*
X106506260Y-74025000D01*
X106793158Y-73967932D01*
X107063411Y-73855990D01*
X107306632Y-73693475D01*
X107513475Y-73486632D01*
X107630000Y-73312240D01*
X107746525Y-73486632D01*
X107953368Y-73693475D01*
X108196589Y-73855990D01*
X108466842Y-73967932D01*
X108753740Y-74025000D01*
X109046260Y-74025000D01*
X109333158Y-73967932D01*
X109603411Y-73855990D01*
X109846632Y-73693475D01*
X110053475Y-73486632D01*
X110215990Y-73243411D01*
X110327932Y-72973158D01*
X110385000Y-72686260D01*
X110385000Y-72393740D01*
X110327932Y-72106842D01*
X110215990Y-71836589D01*
X110053475Y-71593368D01*
X109921620Y-71461513D01*
X109994180Y-71439502D01*
X110104494Y-71380537D01*
X110201185Y-71301185D01*
X110280537Y-71204494D01*
X110339502Y-71094180D01*
X110375812Y-70974482D01*
X110388072Y-70850000D01*
X110388072Y-69950000D01*
X123711928Y-69950000D01*
X123711928Y-71650000D01*
X123724188Y-71774482D01*
X123760498Y-71894180D01*
X123819463Y-72004494D01*
X123898815Y-72101185D01*
X123995506Y-72180537D01*
X124105820Y-72239502D01*
X124178380Y-72261513D01*
X124046525Y-72393368D01*
X123884010Y-72636589D01*
X123772068Y-72906842D01*
X123715000Y-73193740D01*
X123715000Y-73486260D01*
X123772068Y-73773158D01*
X123884010Y-74043411D01*
X124046525Y-74286632D01*
X124253368Y-74493475D01*
X124427760Y-74610000D01*
X124253368Y-74726525D01*
X124046525Y-74933368D01*
X123884010Y-75176589D01*
X123772068Y-75446842D01*
X123715000Y-75733740D01*
X123715000Y-76026260D01*
X123772068Y-76313158D01*
X123884010Y-76583411D01*
X124046525Y-76826632D01*
X124253368Y-77033475D01*
X124427760Y-77150000D01*
X124253368Y-77266525D01*
X124046525Y-77473368D01*
X123884010Y-77716589D01*
X123772068Y-77986842D01*
X123715000Y-78273740D01*
X123715000Y-78566260D01*
X123772068Y-78853158D01*
X123884010Y-79123411D01*
X124046525Y-79366632D01*
X124253368Y-79573475D01*
X124496589Y-79735990D01*
X124766842Y-79847932D01*
X125053740Y-79905000D01*
X125346260Y-79905000D01*
X125633158Y-79847932D01*
X125903411Y-79735990D01*
X126146632Y-79573475D01*
X126353475Y-79366632D01*
X126515990Y-79123411D01*
X126627932Y-78853158D01*
X126685000Y-78566260D01*
X126685000Y-78273740D01*
X126627932Y-77986842D01*
X126515990Y-77716589D01*
X126353475Y-77473368D01*
X126146632Y-77266525D01*
X125972240Y-77150000D01*
X126146632Y-77033475D01*
X126353475Y-76826632D01*
X126515990Y-76583411D01*
X126627932Y-76313158D01*
X126685000Y-76026260D01*
X126685000Y-75733740D01*
X126627932Y-75446842D01*
X126515990Y-75176589D01*
X126353475Y-74933368D01*
X126146632Y-74726525D01*
X125972240Y-74610000D01*
X126146632Y-74493475D01*
X126353475Y-74286632D01*
X126515990Y-74043411D01*
X126627932Y-73773158D01*
X126685000Y-73486260D01*
X126685000Y-73193740D01*
X126627932Y-72906842D01*
X126515990Y-72636589D01*
X126353475Y-72393368D01*
X126221620Y-72261513D01*
X126294180Y-72239502D01*
X126404494Y-72180537D01*
X126501185Y-72101185D01*
X126580537Y-72004494D01*
X126639502Y-71894180D01*
X126675812Y-71774482D01*
X126688072Y-71650000D01*
X126688072Y-69950000D01*
X126675812Y-69825518D01*
X126639502Y-69705820D01*
X126580537Y-69595506D01*
X126501185Y-69498815D01*
X126404494Y-69419463D01*
X126294180Y-69360498D01*
X126174482Y-69324188D01*
X126050000Y-69311928D01*
X124350000Y-69311928D01*
X124225518Y-69324188D01*
X124105820Y-69360498D01*
X123995506Y-69419463D01*
X123898815Y-69498815D01*
X123819463Y-69595506D01*
X123760498Y-69705820D01*
X123724188Y-69825518D01*
X123711928Y-69950000D01*
X110388072Y-69950000D01*
X110388072Y-69150000D01*
X110375812Y-69025518D01*
X110339502Y-68905820D01*
X110280537Y-68795506D01*
X110201185Y-68698815D01*
X110104494Y-68619463D01*
X109994180Y-68560498D01*
X109874482Y-68524188D01*
X109750000Y-68511928D01*
X108050000Y-68511928D01*
X107925518Y-68524188D01*
X107805820Y-68560498D01*
X107695506Y-68619463D01*
X107598815Y-68698815D01*
X107519463Y-68795506D01*
X107460498Y-68905820D01*
X107438487Y-68978380D01*
X107306632Y-68846525D01*
X107063411Y-68684010D01*
X106793158Y-68572068D01*
X106506260Y-68515000D01*
X106213740Y-68515000D01*
X105926842Y-68572068D01*
X105656589Y-68684010D01*
X105413368Y-68846525D01*
X105206525Y-69053368D01*
X105090000Y-69227760D01*
X104973475Y-69053368D01*
X104766632Y-68846525D01*
X104523411Y-68684010D01*
X104253158Y-68572068D01*
X103966260Y-68515000D01*
X103673740Y-68515000D01*
X103386842Y-68572068D01*
X103116589Y-68684010D01*
X102873368Y-68846525D01*
X102666525Y-69053368D01*
X102550000Y-69227760D01*
X102433475Y-69053368D01*
X102226632Y-68846525D01*
X101983411Y-68684010D01*
X101713158Y-68572068D01*
X101426260Y-68515000D01*
X101133740Y-68515000D01*
X100846842Y-68572068D01*
X100576589Y-68684010D01*
X100333368Y-68846525D01*
X100126525Y-69053368D01*
X100010000Y-69227760D01*
X99893475Y-69053368D01*
X99686632Y-68846525D01*
X99443411Y-68684010D01*
X99173158Y-68572068D01*
X98886260Y-68515000D01*
X98593740Y-68515000D01*
X98306842Y-68572068D01*
X98036589Y-68684010D01*
X97793368Y-68846525D01*
X97586525Y-69053368D01*
X97470000Y-69227760D01*
X97353475Y-69053368D01*
X97146632Y-68846525D01*
X96903411Y-68684010D01*
X96633158Y-68572068D01*
X96346260Y-68515000D01*
X96053740Y-68515000D01*
X95766842Y-68572068D01*
X95496589Y-68684010D01*
X95253368Y-68846525D01*
X95046525Y-69053368D01*
X94930000Y-69227760D01*
X94813475Y-69053368D01*
X94606632Y-68846525D01*
X94363411Y-68684010D01*
X94093158Y-68572068D01*
X93806260Y-68515000D01*
X93513740Y-68515000D01*
X93226842Y-68572068D01*
X92956589Y-68684010D01*
X92713368Y-68846525D01*
X92506525Y-69053368D01*
X92390000Y-69227760D01*
X92273475Y-69053368D01*
X92066632Y-68846525D01*
X91823411Y-68684010D01*
X91553158Y-68572068D01*
X91266260Y-68515000D01*
X90973740Y-68515000D01*
X90686842Y-68572068D01*
X90416589Y-68684010D01*
X90173368Y-68846525D01*
X89966525Y-69053368D01*
X89804010Y-69296589D01*
X89692068Y-69566842D01*
X89635000Y-69853740D01*
X60710000Y-69853740D01*
X60710000Y-65031618D01*
X60780578Y-64240808D01*
X60981705Y-63505611D01*
X61309846Y-62817649D01*
X61754628Y-62198669D01*
X62301988Y-61668239D01*
X62934639Y-61243116D01*
X63632561Y-60936749D01*
X64379183Y-60757501D01*
X65026030Y-60710000D01*
X134968382Y-60710000D01*
X135759192Y-60780578D01*
M02*
