M48
; DRILL file {KiCad 5.1.7-a382d34a8~87~ubuntu20.04.1} date Sun Oct  4 21:32:40 2020
; FORMAT={-:-/ absolute / inch / decimal}
; #@! TF.CreationDate,2020-10-04T21:32:40+03:00
; #@! TF.GenerationSoftware,Kicad,Pcbnew,5.1.7-a382d34a8~87~ubuntu20.04.1
; #@! TF.FileFunction,Plated,1,2,PTH
FMAT,2
INCH
T1C0.0118
T2C0.0157
T3C0.0236
T4C0.0394
%
G90
G05
T1
X2.8341Y-3.7909
X2.8583Y-3.811
X2.8819Y-3.7874
X2.9134Y-3.8078
T2
X2.0669Y-3.4921
X2.1378Y-3.0945
X2.1614Y-3.7087
X2.1732Y-2.5236
X2.2559Y-3.2402
X2.2717Y-3.374
X2.3031Y-3.5433
X2.315Y-4.0748
X2.4409Y-3.6339
X2.4685Y-2.7913
X2.4921Y-3.811
X2.5354Y-4.0906
X2.5551Y-2.9016
X2.5591Y-2.3386
X2.5984Y-3.9843
X2.6024Y-3.5276
X2.6024Y-3.6378
X2.6417Y-3.3465
X2.6969Y-3.6969
X2.7421Y-3.813
X2.7441Y-2.7913
X2.7598Y-3.5472
X2.7756Y-3.7913
X2.7874Y-3.2047
X2.8268Y-3.2402
X2.8268Y-3.622
X2.8661Y-3.2756
X2.8976Y-2.4567
X2.9213Y-3.3268
X2.9213Y-3.1535
X2.9567Y-2.8346
X2.9606Y-3.5157
X2.9685Y-3.7953
X2.9803Y-2.9449
X2.9803Y-3.1142
X2.9882Y-3.3937
X2.9921Y-3.248
X3.0118Y-3.811
X3.0236Y-3.1496
X3.0394Y-2.9449
X3.0512Y-3.2638
X3.0512Y-3.3268
X3.063Y-3.1102
X3.0984Y-2.9449
X3.1063Y-3.1535
X3.1063Y-3.748
X3.1575Y-3.1181
X3.1693Y-2.9055
X3.1693Y-3.9016
X3.189Y-3.1496
X3.2205Y-2.7874
X3.2205Y-2.937
X3.2323Y-3.4843
X3.2323Y-3.5315
X3.2323Y-3.6063
X3.2323Y-3.6811
X3.2402Y-3.1181
X3.252Y-3.1654
X3.2756Y-2.9016
X3.2795Y-2.4764
X3.2874Y-3.4843
X3.3268Y-3.1299
X3.3268Y-3.5157
X3.3346Y-2.8425
X3.3386Y-3.4173
X3.3504Y-3.2008
X3.378Y-3.4528
X3.3819Y-3.9567
X3.3937Y-2.9449
X3.4055Y-3.185
X3.4173Y-3.1181
X3.4291Y-3.2953
X3.4409Y-3.5197
X3.4449Y-3.9567
X3.4488Y-2.7008
X3.4528Y-2.9449
X3.5079Y-3.9606
X3.5118Y-2.9449
X3.5315Y-3.4173
X3.5591Y-3.1811
X3.5709Y-2.9449
X3.6024Y-3.1339
X3.6378Y-2.311
X3.6378Y-3.9606
X3.6575Y-3.315
X3.6614Y-3.1969
X3.6772Y-3.9134
X3.689Y-2.7874
X3.6969Y-3.1496
X3.7126Y-3.8701
X3.7244Y-4.0079
X3.7323Y-3.1811
X3.7677Y-3.1496
X3.7874Y-4.0039
X3.7913Y-3.8071
X3.8031Y-3.1811
X3.8228Y-3.6339
X3.8228Y-3.5079
X3.8228Y-3.5669
X3.8228Y-3.7638
X3.8228Y-3.6929
X3.8346Y-3.252
X3.8346Y-3.4213
X3.8465Y-4.0039
X3.9488Y-3.9055
X3.9685Y-2.6929
X3.9843Y-3.9882
X4.0039Y-3.8583
X4.0551Y-4.0512
X4.0669Y-3.9213
X4.1024Y-3.6417
X4.126Y-3.9803
X4.1614Y-3.5906
X4.189Y-3.7598
X4.2205Y-3.5394
X4.2598Y-2.815
X4.2795Y-3.4843
X4.3307Y-3.6181
X4.3386Y-3.2087
X4.3386Y-3.4213
X4.3465Y-3.9764
X4.3701Y-3.7559
X4.3976Y-3.315
X4.4016Y-3.3661
X4.4213Y-3.9528
X4.4449Y-4.0748
X4.4567Y-2.9528
X4.4567Y-3.0906
X4.4606Y-3.2087
X4.4685Y-2.9016
X4.5039Y-3.4094
X4.5079Y-2.4488
X4.5551Y-3.2795
X4.5984Y-2.9016
X4.6496Y-3.2795
X4.752Y-3.0906
X4.752Y-3.7205
X4.7638Y-3.3661
X4.8937Y-2.5551
X5.0118Y-2.9961
T4
X2.5315Y-3.6811
X2.2323Y-2.6575
X2.2323Y-2.9213
T3
G00X2.7Y-3.8787
M15
G01X2.7Y-3.922
M16
G05
G00X2.7Y-4.0531
M15
G01X2.7Y-4.0768
M16
G05
G00X3.0402Y-3.8787
M15
G01X3.0402Y-3.922
M16
G05
G00X3.0402Y-4.0531
M15
G01X3.0402Y-4.0768
M16
G05
T0
M30
