%TF.GenerationSoftware,KiCad,Pcbnew,5.1.7-a382d34a8~87~ubuntu20.04.1*%
%TF.CreationDate,2020-10-04T21:46:04+03:00*%
%TF.ProjectId,GB-CARTPP-DIY,47422d43-4152-4545-9050-2d4449592e6b,v1.1*%
%TF.SameCoordinates,Original*%
%TF.FileFunction,Soldermask,Top*%
%TF.FilePolarity,Negative*%
%FSLAX46Y46*%
G04 Gerber Fmt 4.6, Leading zero omitted, Abs format (unit mm)*
G04 Created by KiCad (PCBNEW 5.1.7-a382d34a8~87~ubuntu20.04.1) date 2020-10-04 21:46:04*
%MOMM*%
%LPD*%
G01*
G04 APERTURE LIST*
%TA.AperFunction,Profile*%
%ADD10C,0.050000*%
%TD*%
%ADD11O,2.200000X2.200000*%
%ADD12R,2.200000X2.200000*%
%ADD13C,2.000000*%
%ADD14O,2.400000X2.400000*%
%ADD15C,2.400000*%
%ADD16C,5.300000*%
%ADD17C,0.100000*%
%ADD18O,2.400000X1.600000*%
%ADD19R,2.400000X1.600000*%
%ADD20O,1.600000X1.600000*%
%ADD21C,1.600000*%
%ADD22O,1.905000X2.000000*%
%ADD23R,1.905000X2.000000*%
%ADD24R,1.000000X2.400000*%
%ADD25R,6.000000X3.000000*%
%ADD26O,1.700000X1.700000*%
%ADD27R,1.700000X1.700000*%
%ADD28C,4.000000*%
%ADD29R,1.600000X1.600000*%
G04 APERTURE END LIST*
D10*
X150000000Y-145000000D02*
G75*
G02*
X145000000Y-150000000I-5000000J0D01*
G01*
X55000000Y-150000000D02*
G75*
G02*
X50000000Y-145000000I0J5000000D01*
G01*
X50000000Y-55000000D02*
G75*
G02*
X55000000Y-50000000I5000000J0D01*
G01*
X145000000Y-50000000D02*
G75*
G02*
X150000000Y-55000000I0J-5000000D01*
G01*
X145000000Y-50000000D02*
X55000000Y-50000000D01*
X150000000Y-145000000D02*
X150000000Y-55000000D01*
X55000000Y-150000000D02*
X145000000Y-150000000D01*
X50000000Y-55000000D02*
X50000000Y-145000000D01*
D11*
%TO.C,D1*%
X128960000Y-137900000D03*
D12*
X118800000Y-137900000D03*
%TD*%
D11*
%TO.C,D2*%
X65500000Y-113840000D03*
D12*
X65500000Y-124000000D03*
%TD*%
D11*
%TO.C,D3*%
X56300000Y-92540000D03*
D12*
X56300000Y-102700000D03*
%TD*%
D13*
%TO.C,TP4*%
X59500000Y-74400000D03*
%TD*%
D14*
%TO.C,FB1*%
X71980000Y-135800000D03*
D15*
X92300000Y-135800000D03*
%TD*%
D16*
%TO.C,H4*%
X144000000Y-144000000D03*
%TD*%
%TO.C,H3*%
X144000000Y-56000000D03*
%TD*%
%TO.C,H2*%
X56000000Y-144000000D03*
%TD*%
%TO.C,H1*%
X56000000Y-56000000D03*
%TD*%
D13*
%TO.C,TP1*%
X136800000Y-119000000D03*
%TD*%
D17*
%TO.C,JP1*%
G36*
X64350000Y-93249398D02*
G01*
X64325466Y-93249398D01*
X64276635Y-93244588D01*
X64228510Y-93235016D01*
X64181555Y-93220772D01*
X64136222Y-93201995D01*
X64092949Y-93178864D01*
X64052150Y-93151604D01*
X64014221Y-93120476D01*
X63979524Y-93085779D01*
X63948396Y-93047850D01*
X63921136Y-93007051D01*
X63898005Y-92963778D01*
X63879228Y-92918445D01*
X63864984Y-92871490D01*
X63855412Y-92823365D01*
X63850602Y-92774534D01*
X63850602Y-92750000D01*
X63850000Y-92750000D01*
X63850000Y-92250000D01*
X63850602Y-92250000D01*
X63850602Y-92225466D01*
X63855412Y-92176635D01*
X63864984Y-92128510D01*
X63879228Y-92081555D01*
X63898005Y-92036222D01*
X63921136Y-91992949D01*
X63948396Y-91952150D01*
X63979524Y-91914221D01*
X64014221Y-91879524D01*
X64052150Y-91848396D01*
X64092949Y-91821136D01*
X64136222Y-91798005D01*
X64181555Y-91779228D01*
X64228510Y-91764984D01*
X64276635Y-91755412D01*
X64325466Y-91750602D01*
X64350000Y-91750602D01*
X64350000Y-91750000D01*
X64850000Y-91750000D01*
X64850000Y-93250000D01*
X64350000Y-93250000D01*
X64350000Y-93249398D01*
G37*
G36*
X65150000Y-91750000D02*
G01*
X65650000Y-91750000D01*
X65650000Y-91750602D01*
X65674534Y-91750602D01*
X65723365Y-91755412D01*
X65771490Y-91764984D01*
X65818445Y-91779228D01*
X65863778Y-91798005D01*
X65907051Y-91821136D01*
X65947850Y-91848396D01*
X65985779Y-91879524D01*
X66020476Y-91914221D01*
X66051604Y-91952150D01*
X66078864Y-91992949D01*
X66101995Y-92036222D01*
X66120772Y-92081555D01*
X66135016Y-92128510D01*
X66144588Y-92176635D01*
X66149398Y-92225466D01*
X66149398Y-92250000D01*
X66150000Y-92250000D01*
X66150000Y-92750000D01*
X66149398Y-92750000D01*
X66149398Y-92774534D01*
X66144588Y-92823365D01*
X66135016Y-92871490D01*
X66120772Y-92918445D01*
X66101995Y-92963778D01*
X66078864Y-93007051D01*
X66051604Y-93047850D01*
X66020476Y-93085779D01*
X65985779Y-93120476D01*
X65947850Y-93151604D01*
X65907051Y-93178864D01*
X65863778Y-93201995D01*
X65818445Y-93220772D01*
X65771490Y-93235016D01*
X65723365Y-93244588D01*
X65674534Y-93249398D01*
X65650000Y-93249398D01*
X65650000Y-93250000D01*
X65150000Y-93250000D01*
X65150000Y-91750000D01*
G37*
%TD*%
D13*
%TO.C,C3*%
X84000000Y-146000000D03*
X84000000Y-141000000D03*
%TD*%
%TO.C,C1*%
X79000000Y-130100000D03*
X74000000Y-130100000D03*
%TD*%
D18*
%TO.C,U1*%
X99860000Y-144700000D03*
X115100000Y-96440000D03*
X99860000Y-142160000D03*
X115100000Y-98980000D03*
X99860000Y-139620000D03*
X115100000Y-101520000D03*
X99860000Y-137080000D03*
X115100000Y-104060000D03*
X99860000Y-134540000D03*
X115100000Y-106600000D03*
X99860000Y-132000000D03*
X115100000Y-109140000D03*
X99860000Y-129460000D03*
X115100000Y-111680000D03*
X99860000Y-126920000D03*
X115100000Y-114220000D03*
X99860000Y-124380000D03*
X115100000Y-116760000D03*
X99860000Y-121840000D03*
X115100000Y-119300000D03*
X99860000Y-119300000D03*
X115100000Y-121840000D03*
X99860000Y-116760000D03*
X115100000Y-124380000D03*
X99860000Y-114220000D03*
X115100000Y-126920000D03*
X99860000Y-111680000D03*
X115100000Y-129460000D03*
X99860000Y-109140000D03*
X115100000Y-132000000D03*
X99860000Y-106600000D03*
X115100000Y-134540000D03*
X99860000Y-104060000D03*
X115100000Y-137080000D03*
X99860000Y-101520000D03*
X115100000Y-139620000D03*
X99860000Y-98980000D03*
X115100000Y-142160000D03*
X99860000Y-96440000D03*
D19*
X115100000Y-144700000D03*
%TD*%
D13*
%TO.C,TP3*%
X65800000Y-74300000D03*
%TD*%
%TO.C,TP2*%
X86500000Y-126200000D03*
%TD*%
D20*
%TO.C,R2*%
X126420000Y-141400000D03*
D21*
X118800000Y-141400000D03*
%TD*%
D20*
%TO.C,R5*%
X134600000Y-75720000D03*
D21*
X134600000Y-68100000D03*
%TD*%
D20*
%TO.C,R4*%
X57880000Y-106100000D03*
D21*
X65500000Y-106100000D03*
%TD*%
D20*
%TO.C,R3*%
X65520000Y-110500000D03*
D21*
X57900000Y-110500000D03*
%TD*%
D20*
%TO.C,R1*%
X118780000Y-144700000D03*
D21*
X126400000Y-144700000D03*
%TD*%
D22*
%TO.C,Q1*%
X66280000Y-100100000D03*
X63740000Y-100100000D03*
D23*
X61200000Y-100100000D03*
%TD*%
D13*
%TO.C,J3*%
X113000000Y-67050000D03*
D24*
X123250000Y-75250000D03*
X121750000Y-75250000D03*
X120250000Y-75250000D03*
X118750000Y-75250000D03*
X117250000Y-75250000D03*
X115750000Y-75250000D03*
X114250000Y-75250000D03*
X112750000Y-75250000D03*
X111250000Y-75250000D03*
X109750000Y-75250000D03*
X108250000Y-75250000D03*
X106750000Y-75250000D03*
X105250000Y-75250000D03*
X103750000Y-75250000D03*
X102250000Y-75250000D03*
X100750000Y-75250000D03*
X99250000Y-75250000D03*
X97750000Y-75250000D03*
X96250000Y-75250000D03*
X94750000Y-75250000D03*
X93250000Y-75250000D03*
X91750000Y-75250000D03*
X90250000Y-75250000D03*
X88750000Y-75250000D03*
X87250000Y-75250000D03*
X85750000Y-75250000D03*
X84250000Y-75250000D03*
X82750000Y-75250000D03*
X81250000Y-75250000D03*
X79750000Y-75250000D03*
X78250000Y-75250000D03*
D13*
X87000000Y-67050000D03*
D25*
X113000000Y-55050000D03*
X87000000Y-55050000D03*
D24*
X76750000Y-75250000D03*
%TD*%
D26*
%TO.C,J2*%
X144080000Y-130460000D03*
X144080000Y-133000000D03*
X141540000Y-130460000D03*
X141540000Y-133000000D03*
X139000000Y-130460000D03*
D27*
X139000000Y-133000000D03*
%TD*%
D28*
%TO.C,J1*%
X76750000Y-145860000D03*
X64750000Y-145860000D03*
D21*
X72000000Y-143000000D03*
X69500000Y-143000000D03*
X69500000Y-141000000D03*
D29*
X72000000Y-141000000D03*
%TD*%
D21*
%TO.C,C8*%
X65300000Y-83800000D03*
D29*
X67800000Y-83800000D03*
%TD*%
D13*
%TO.C,C7*%
X120500000Y-115500000D03*
X120500000Y-120500000D03*
%TD*%
%TO.C,C6*%
X94500000Y-120600000D03*
X94500000Y-125600000D03*
%TD*%
%TO.C,C5*%
X126500000Y-115500000D03*
X126500000Y-120500000D03*
%TD*%
%TO.C,C4*%
X125700000Y-101500000D03*
X120700000Y-101500000D03*
%TD*%
D21*
%TO.C,C2*%
X92600000Y-145300000D03*
D29*
X95100000Y-145300000D03*
%TD*%
M02*
