%TF.GenerationSoftware,KiCad,Pcbnew,5.1.7-a382d34a8~87~ubuntu20.04.1*%
%TF.CreationDate,2020-10-04T21:46:04+03:00*%
%TF.ProjectId,GB-CARTPP-DIY,47422d43-4152-4545-9050-2d4449592e6b,v1.1*%
%TF.SameCoordinates,Original*%
%TF.FileFunction,Legend,Top*%
%TF.FilePolarity,Positive*%
%FSLAX46Y46*%
G04 Gerber Fmt 4.6, Leading zero omitted, Abs format (unit mm)*
G04 Created by KiCad (PCBNEW 5.1.7-a382d34a8~87~ubuntu20.04.1) date 2020-10-04 21:46:04*
%MOMM*%
%LPD*%
G01*
G04 APERTURE LIST*
%ADD10C,0.150000*%
%TA.AperFunction,Profile*%
%ADD11C,0.050000*%
%TD*%
%ADD12C,0.300000*%
%ADD13C,0.120000*%
G04 APERTURE END LIST*
D10*
X143600000Y-127740595D02*
X143552380Y-127835833D01*
X143552380Y-127978690D01*
X143600000Y-128121547D01*
X143695238Y-128216785D01*
X143790476Y-128264404D01*
X143980952Y-128312023D01*
X144123809Y-128312023D01*
X144314285Y-128264404D01*
X144409523Y-128216785D01*
X144504761Y-128121547D01*
X144552380Y-127978690D01*
X144552380Y-127883452D01*
X144504761Y-127740595D01*
X144457142Y-127692976D01*
X144123809Y-127692976D01*
X144123809Y-127883452D01*
X144552380Y-127264404D02*
X143552380Y-127264404D01*
X144552380Y-126692976D01*
X143552380Y-126692976D01*
X144552380Y-126216785D02*
X143552380Y-126216785D01*
X143552380Y-125978690D01*
X143600000Y-125835833D01*
X143695238Y-125740595D01*
X143790476Y-125692976D01*
X143980952Y-125645357D01*
X144123809Y-125645357D01*
X144314285Y-125692976D01*
X144409523Y-125740595D01*
X144504761Y-125835833D01*
X144552380Y-125978690D01*
X144552380Y-126216785D01*
X142052380Y-128264404D02*
X141052380Y-128264404D01*
X141957142Y-127216785D02*
X142004761Y-127264404D01*
X142052380Y-127407261D01*
X142052380Y-127502500D01*
X142004761Y-127645357D01*
X141909523Y-127740595D01*
X141814285Y-127788214D01*
X141623809Y-127835833D01*
X141480952Y-127835833D01*
X141290476Y-127788214D01*
X141195238Y-127740595D01*
X141100000Y-127645357D01*
X141052380Y-127502500D01*
X141052380Y-127407261D01*
X141100000Y-127264404D01*
X141147619Y-127216785D01*
X142052380Y-126788214D02*
X141052380Y-126788214D01*
X141052380Y-126407261D01*
X141100000Y-126312023D01*
X141147619Y-126264404D01*
X141242857Y-126216785D01*
X141385714Y-126216785D01*
X141480952Y-126264404D01*
X141528571Y-126312023D01*
X141576190Y-126407261D01*
X141576190Y-126788214D01*
X141100000Y-125264404D02*
X141052380Y-125359642D01*
X141052380Y-125502500D01*
X141100000Y-125645357D01*
X141195238Y-125740595D01*
X141290476Y-125788214D01*
X141480952Y-125835833D01*
X141623809Y-125835833D01*
X141814285Y-125788214D01*
X141909523Y-125740595D01*
X142004761Y-125645357D01*
X142052380Y-125502500D01*
X142052380Y-125407261D01*
X142004761Y-125264404D01*
X141957142Y-125216785D01*
X141623809Y-125216785D01*
X141623809Y-125407261D01*
X142052380Y-124788214D02*
X141052380Y-124788214D01*
X141052380Y-124550119D01*
X141100000Y-124407261D01*
X141195238Y-124312023D01*
X141290476Y-124264404D01*
X141480952Y-124216785D01*
X141623809Y-124216785D01*
X141814285Y-124264404D01*
X141909523Y-124312023D01*
X142004761Y-124407261D01*
X142052380Y-124550119D01*
X142052380Y-124788214D01*
X139071428Y-128264404D02*
X139071428Y-127502500D01*
X139452380Y-127883452D02*
X138690476Y-127883452D01*
X138452380Y-126550119D02*
X138452380Y-127026309D01*
X138928571Y-127073928D01*
X138880952Y-127026309D01*
X138833333Y-126931071D01*
X138833333Y-126692976D01*
X138880952Y-126597738D01*
X138928571Y-126550119D01*
X139023809Y-126502500D01*
X139261904Y-126502500D01*
X139357142Y-126550119D01*
X139404761Y-126597738D01*
X139452380Y-126692976D01*
X139452380Y-126931071D01*
X139404761Y-127026309D01*
X139357142Y-127073928D01*
X138452380Y-126216785D02*
X139452380Y-125883452D01*
X138452380Y-125550119D01*
X144552380Y-139135595D02*
X143552380Y-139135595D01*
X144457142Y-138087976D02*
X144504761Y-138135595D01*
X144552380Y-138278452D01*
X144552380Y-138373690D01*
X144504761Y-138516547D01*
X144409523Y-138611785D01*
X144314285Y-138659404D01*
X144123809Y-138707023D01*
X143980952Y-138707023D01*
X143790476Y-138659404D01*
X143695238Y-138611785D01*
X143600000Y-138516547D01*
X143552380Y-138373690D01*
X143552380Y-138278452D01*
X143600000Y-138135595D01*
X143647619Y-138087976D01*
X144552380Y-137659404D02*
X143552380Y-137659404D01*
X143552380Y-137278452D01*
X143600000Y-137183214D01*
X143647619Y-137135595D01*
X143742857Y-137087976D01*
X143885714Y-137087976D01*
X143980952Y-137135595D01*
X144028571Y-137183214D01*
X144076190Y-137278452D01*
X144076190Y-137659404D01*
X143600000Y-136135595D02*
X143552380Y-136230833D01*
X143552380Y-136373690D01*
X143600000Y-136516547D01*
X143695238Y-136611785D01*
X143790476Y-136659404D01*
X143980952Y-136707023D01*
X144123809Y-136707023D01*
X144314285Y-136659404D01*
X144409523Y-136611785D01*
X144504761Y-136516547D01*
X144552380Y-136373690D01*
X144552380Y-136278452D01*
X144504761Y-136135595D01*
X144457142Y-136087976D01*
X144123809Y-136087976D01*
X144123809Y-136278452D01*
X144457142Y-135087976D02*
X144504761Y-135135595D01*
X144552380Y-135278452D01*
X144552380Y-135373690D01*
X144504761Y-135516547D01*
X144409523Y-135611785D01*
X144314285Y-135659404D01*
X144123809Y-135707023D01*
X143980952Y-135707023D01*
X143790476Y-135659404D01*
X143695238Y-135611785D01*
X143600000Y-135516547D01*
X143552380Y-135373690D01*
X143552380Y-135278452D01*
X143600000Y-135135595D01*
X143647619Y-135087976D01*
X141000000Y-137183214D02*
X140952380Y-137278452D01*
X140952380Y-137421309D01*
X141000000Y-137564166D01*
X141095238Y-137659404D01*
X141190476Y-137707023D01*
X141380952Y-137754642D01*
X141523809Y-137754642D01*
X141714285Y-137707023D01*
X141809523Y-137659404D01*
X141904761Y-137564166D01*
X141952380Y-137421309D01*
X141952380Y-137326071D01*
X141904761Y-137183214D01*
X141857142Y-137135595D01*
X141523809Y-137135595D01*
X141523809Y-137326071D01*
X141952380Y-136707023D02*
X140952380Y-136707023D01*
X141952380Y-136135595D01*
X140952380Y-136135595D01*
X141952380Y-135659404D02*
X140952380Y-135659404D01*
X140952380Y-135421309D01*
X141000000Y-135278452D01*
X141095238Y-135183214D01*
X141190476Y-135135595D01*
X141380952Y-135087976D01*
X141523809Y-135087976D01*
X141714285Y-135135595D01*
X141809523Y-135183214D01*
X141904761Y-135278452D01*
X141952380Y-135421309D01*
X141952380Y-135659404D01*
X139452380Y-138992738D02*
X138452380Y-138992738D01*
X139357142Y-137945119D02*
X139404761Y-137992738D01*
X139452380Y-138135595D01*
X139452380Y-138230833D01*
X139404761Y-138373690D01*
X139309523Y-138468928D01*
X139214285Y-138516547D01*
X139023809Y-138564166D01*
X138880952Y-138564166D01*
X138690476Y-138516547D01*
X138595238Y-138468928D01*
X138500000Y-138373690D01*
X138452380Y-138230833D01*
X138452380Y-138135595D01*
X138500000Y-137992738D01*
X138547619Y-137945119D01*
X138452380Y-137659404D02*
X139452380Y-137326071D01*
X138452380Y-136992738D01*
X139452380Y-136659404D02*
X138452380Y-136659404D01*
X138452380Y-136278452D01*
X138500000Y-136183214D01*
X138547619Y-136135595D01*
X138642857Y-136087976D01*
X138785714Y-136087976D01*
X138880952Y-136135595D01*
X138928571Y-136183214D01*
X138976190Y-136278452D01*
X138976190Y-136659404D01*
X139452380Y-135659404D02*
X138452380Y-135659404D01*
X138452380Y-135278452D01*
X138500000Y-135183214D01*
X138547619Y-135135595D01*
X138642857Y-135087976D01*
X138785714Y-135087976D01*
X138880952Y-135135595D01*
X138928571Y-135183214D01*
X138976190Y-135278452D01*
X138976190Y-135659404D01*
X82833333Y-50952380D02*
X83023809Y-50952380D01*
X83119047Y-51000000D01*
X83214285Y-51095238D01*
X83261904Y-51285714D01*
X83261904Y-51619047D01*
X83214285Y-51809523D01*
X83119047Y-51904761D01*
X83023809Y-51952380D01*
X82833333Y-51952380D01*
X82738095Y-51904761D01*
X82642857Y-51809523D01*
X82595238Y-51619047D01*
X82595238Y-51285714D01*
X82642857Y-51095238D01*
X82738095Y-51000000D01*
X82833333Y-50952380D01*
X83690476Y-51285714D02*
X83690476Y-51952380D01*
X83690476Y-51380952D02*
X83738095Y-51333333D01*
X83833333Y-51285714D01*
X83976190Y-51285714D01*
X84071428Y-51333333D01*
X84119047Y-51428571D01*
X84119047Y-51952380D01*
X84738095Y-51952380D02*
X84642857Y-51904761D01*
X84595238Y-51809523D01*
X84595238Y-50952380D01*
X85023809Y-51285714D02*
X85261904Y-51952380D01*
X85500000Y-51285714D02*
X85261904Y-51952380D01*
X85166666Y-52190476D01*
X85119047Y-52238095D01*
X85023809Y-52285714D01*
X87166666Y-51000000D02*
X87071428Y-50952380D01*
X86928571Y-50952380D01*
X86785714Y-51000000D01*
X86690476Y-51095238D01*
X86642857Y-51190476D01*
X86595238Y-51380952D01*
X86595238Y-51523809D01*
X86642857Y-51714285D01*
X86690476Y-51809523D01*
X86785714Y-51904761D01*
X86928571Y-51952380D01*
X87023809Y-51952380D01*
X87166666Y-51904761D01*
X87214285Y-51857142D01*
X87214285Y-51523809D01*
X87023809Y-51523809D01*
X87976190Y-51428571D02*
X88119047Y-51476190D01*
X88166666Y-51523809D01*
X88214285Y-51619047D01*
X88214285Y-51761904D01*
X88166666Y-51857142D01*
X88119047Y-51904761D01*
X88023809Y-51952380D01*
X87642857Y-51952380D01*
X87642857Y-50952380D01*
X87976190Y-50952380D01*
X88071428Y-51000000D01*
X88119047Y-51047619D01*
X88166666Y-51142857D01*
X88166666Y-51238095D01*
X88119047Y-51333333D01*
X88071428Y-51380952D01*
X87976190Y-51428571D01*
X87642857Y-51428571D01*
X89357142Y-50904761D02*
X88500000Y-52190476D01*
X90214285Y-51000000D02*
X90119047Y-50952380D01*
X89976190Y-50952380D01*
X89833333Y-51000000D01*
X89738095Y-51095238D01*
X89690476Y-51190476D01*
X89642857Y-51380952D01*
X89642857Y-51523809D01*
X89690476Y-51714285D01*
X89738095Y-51809523D01*
X89833333Y-51904761D01*
X89976190Y-51952380D01*
X90071428Y-51952380D01*
X90214285Y-51904761D01*
X90261904Y-51857142D01*
X90261904Y-51523809D01*
X90071428Y-51523809D01*
X91023809Y-51428571D02*
X91166666Y-51476190D01*
X91214285Y-51523809D01*
X91261904Y-51619047D01*
X91261904Y-51761904D01*
X91214285Y-51857142D01*
X91166666Y-51904761D01*
X91071428Y-51952380D01*
X90690476Y-51952380D01*
X90690476Y-50952380D01*
X91023809Y-50952380D01*
X91119047Y-51000000D01*
X91166666Y-51047619D01*
X91214285Y-51142857D01*
X91214285Y-51238095D01*
X91166666Y-51333333D01*
X91119047Y-51380952D01*
X91023809Y-51428571D01*
X90690476Y-51428571D01*
X92261904Y-51857142D02*
X92214285Y-51904761D01*
X92071428Y-51952380D01*
X91976190Y-51952380D01*
X91833333Y-51904761D01*
X91738095Y-51809523D01*
X91690476Y-51714285D01*
X91642857Y-51523809D01*
X91642857Y-51380952D01*
X91690476Y-51190476D01*
X91738095Y-51095238D01*
X91833333Y-51000000D01*
X91976190Y-50952380D01*
X92071428Y-50952380D01*
X92214285Y-51000000D01*
X92261904Y-51047619D01*
X92690476Y-51857142D02*
X92738095Y-51904761D01*
X92690476Y-51952380D01*
X92642857Y-51904761D01*
X92690476Y-51857142D01*
X92690476Y-51952380D01*
X92690476Y-51571428D02*
X92642857Y-51000000D01*
X92690476Y-50952380D01*
X92738095Y-51000000D01*
X92690476Y-51571428D01*
X92690476Y-50952380D01*
X93928571Y-51952380D02*
X93928571Y-50952380D01*
X94500000Y-51952380D01*
X94500000Y-50952380D01*
X95119047Y-51952380D02*
X95023809Y-51904761D01*
X94976190Y-51857142D01*
X94928571Y-51761904D01*
X94928571Y-51476190D01*
X94976190Y-51380952D01*
X95023809Y-51333333D01*
X95119047Y-51285714D01*
X95261904Y-51285714D01*
X95357142Y-51333333D01*
X95404761Y-51380952D01*
X95452380Y-51476190D01*
X95452380Y-51761904D01*
X95404761Y-51857142D01*
X95357142Y-51904761D01*
X95261904Y-51952380D01*
X95119047Y-51952380D01*
X95738095Y-51285714D02*
X96119047Y-51285714D01*
X95880952Y-50952380D02*
X95880952Y-51809523D01*
X95928571Y-51904761D01*
X96023809Y-51952380D01*
X96119047Y-51952380D01*
X97642857Y-51904761D02*
X97547619Y-51952380D01*
X97357142Y-51952380D01*
X97261904Y-51904761D01*
X97214285Y-51857142D01*
X97166666Y-51761904D01*
X97166666Y-51476190D01*
X97214285Y-51380952D01*
X97261904Y-51333333D01*
X97357142Y-51285714D01*
X97547619Y-51285714D01*
X97642857Y-51333333D01*
X98214285Y-51952380D02*
X98119047Y-51904761D01*
X98071428Y-51857142D01*
X98023809Y-51761904D01*
X98023809Y-51476190D01*
X98071428Y-51380952D01*
X98119047Y-51333333D01*
X98214285Y-51285714D01*
X98357142Y-51285714D01*
X98452380Y-51333333D01*
X98500000Y-51380952D01*
X98547619Y-51476190D01*
X98547619Y-51761904D01*
X98500000Y-51857142D01*
X98452380Y-51904761D01*
X98357142Y-51952380D01*
X98214285Y-51952380D01*
X98976190Y-51952380D02*
X98976190Y-51285714D01*
X98976190Y-51380952D02*
X99023809Y-51333333D01*
X99119047Y-51285714D01*
X99261904Y-51285714D01*
X99357142Y-51333333D01*
X99404761Y-51428571D01*
X99404761Y-51952380D01*
X99404761Y-51428571D02*
X99452380Y-51333333D01*
X99547619Y-51285714D01*
X99690476Y-51285714D01*
X99785714Y-51333333D01*
X99833333Y-51428571D01*
X99833333Y-51952380D01*
X100309523Y-51285714D02*
X100309523Y-52285714D01*
X100309523Y-51333333D02*
X100404761Y-51285714D01*
X100595238Y-51285714D01*
X100690476Y-51333333D01*
X100738095Y-51380952D01*
X100785714Y-51476190D01*
X100785714Y-51761904D01*
X100738095Y-51857142D01*
X100690476Y-51904761D01*
X100595238Y-51952380D01*
X100404761Y-51952380D01*
X100309523Y-51904761D01*
X101642857Y-51952380D02*
X101642857Y-51428571D01*
X101595238Y-51333333D01*
X101500000Y-51285714D01*
X101309523Y-51285714D01*
X101214285Y-51333333D01*
X101642857Y-51904761D02*
X101547619Y-51952380D01*
X101309523Y-51952380D01*
X101214285Y-51904761D01*
X101166666Y-51809523D01*
X101166666Y-51714285D01*
X101214285Y-51619047D01*
X101309523Y-51571428D01*
X101547619Y-51571428D01*
X101642857Y-51523809D01*
X101976190Y-51285714D02*
X102357142Y-51285714D01*
X102119047Y-50952380D02*
X102119047Y-51809523D01*
X102166666Y-51904761D01*
X102261904Y-51952380D01*
X102357142Y-51952380D01*
X102690476Y-51952380D02*
X102690476Y-51285714D01*
X102690476Y-50952380D02*
X102642857Y-51000000D01*
X102690476Y-51047619D01*
X102738095Y-51000000D01*
X102690476Y-50952380D01*
X102690476Y-51047619D01*
X103166666Y-51952380D02*
X103166666Y-50952380D01*
X103166666Y-51333333D02*
X103261904Y-51285714D01*
X103452380Y-51285714D01*
X103547619Y-51333333D01*
X103595238Y-51380952D01*
X103642857Y-51476190D01*
X103642857Y-51761904D01*
X103595238Y-51857142D01*
X103547619Y-51904761D01*
X103452380Y-51952380D01*
X103261904Y-51952380D01*
X103166666Y-51904761D01*
X104214285Y-51952380D02*
X104119047Y-51904761D01*
X104071428Y-51809523D01*
X104071428Y-50952380D01*
X104976190Y-51904761D02*
X104880952Y-51952380D01*
X104690476Y-51952380D01*
X104595238Y-51904761D01*
X104547619Y-51809523D01*
X104547619Y-51428571D01*
X104595238Y-51333333D01*
X104690476Y-51285714D01*
X104880952Y-51285714D01*
X104976190Y-51333333D01*
X105023809Y-51428571D01*
X105023809Y-51523809D01*
X104547619Y-51619047D01*
X106119047Y-51285714D02*
X106309523Y-51952380D01*
X106500000Y-51476190D01*
X106690476Y-51952380D01*
X106880952Y-51285714D01*
X107261904Y-51952380D02*
X107261904Y-51285714D01*
X107261904Y-50952380D02*
X107214285Y-51000000D01*
X107261904Y-51047619D01*
X107309523Y-51000000D01*
X107261904Y-50952380D01*
X107261904Y-51047619D01*
X107595238Y-51285714D02*
X107976190Y-51285714D01*
X107738095Y-50952380D02*
X107738095Y-51809523D01*
X107785714Y-51904761D01*
X107880952Y-51952380D01*
X107976190Y-51952380D01*
X108309523Y-51952380D02*
X108309523Y-50952380D01*
X108738095Y-51952380D02*
X108738095Y-51428571D01*
X108690476Y-51333333D01*
X108595238Y-51285714D01*
X108452380Y-51285714D01*
X108357142Y-51333333D01*
X108309523Y-51380952D01*
X110500000Y-51000000D02*
X110404761Y-50952380D01*
X110261904Y-50952380D01*
X110119047Y-51000000D01*
X110023809Y-51095238D01*
X109976190Y-51190476D01*
X109928571Y-51380952D01*
X109928571Y-51523809D01*
X109976190Y-51714285D01*
X110023809Y-51809523D01*
X110119047Y-51904761D01*
X110261904Y-51952380D01*
X110357142Y-51952380D01*
X110500000Y-51904761D01*
X110547619Y-51857142D01*
X110547619Y-51523809D01*
X110357142Y-51523809D01*
X111309523Y-51428571D02*
X111452380Y-51476190D01*
X111500000Y-51523809D01*
X111547619Y-51619047D01*
X111547619Y-51761904D01*
X111500000Y-51857142D01*
X111452380Y-51904761D01*
X111357142Y-51952380D01*
X110976190Y-51952380D01*
X110976190Y-50952380D01*
X111309523Y-50952380D01*
X111404761Y-51000000D01*
X111452380Y-51047619D01*
X111500000Y-51142857D01*
X111500000Y-51238095D01*
X111452380Y-51333333D01*
X111404761Y-51380952D01*
X111309523Y-51428571D01*
X110976190Y-51428571D01*
X111928571Y-51666666D02*
X112404761Y-51666666D01*
X111833333Y-51952380D02*
X112166666Y-50952380D01*
X112500000Y-51952380D01*
X114023809Y-51904761D02*
X113928571Y-51952380D01*
X113738095Y-51952380D01*
X113642857Y-51904761D01*
X113595238Y-51857142D01*
X113547619Y-51761904D01*
X113547619Y-51476190D01*
X113595238Y-51380952D01*
X113642857Y-51333333D01*
X113738095Y-51285714D01*
X113928571Y-51285714D01*
X114023809Y-51333333D01*
X114880952Y-51952380D02*
X114880952Y-51428571D01*
X114833333Y-51333333D01*
X114738095Y-51285714D01*
X114547619Y-51285714D01*
X114452380Y-51333333D01*
X114880952Y-51904761D02*
X114785714Y-51952380D01*
X114547619Y-51952380D01*
X114452380Y-51904761D01*
X114404761Y-51809523D01*
X114404761Y-51714285D01*
X114452380Y-51619047D01*
X114547619Y-51571428D01*
X114785714Y-51571428D01*
X114880952Y-51523809D01*
X115357142Y-51952380D02*
X115357142Y-51285714D01*
X115357142Y-51476190D02*
X115404761Y-51380952D01*
X115452380Y-51333333D01*
X115547619Y-51285714D01*
X115642857Y-51285714D01*
X115833333Y-51285714D02*
X116214285Y-51285714D01*
X115976190Y-50952380D02*
X115976190Y-51809523D01*
X116023809Y-51904761D01*
X116119047Y-51952380D01*
X116214285Y-51952380D01*
X116500000Y-51904761D02*
X116595238Y-51952380D01*
X116785714Y-51952380D01*
X116880952Y-51904761D01*
X116928571Y-51809523D01*
X116928571Y-51761904D01*
X116880952Y-51666666D01*
X116785714Y-51619047D01*
X116642857Y-51619047D01*
X116547619Y-51571428D01*
X116500000Y-51476190D01*
X116500000Y-51428571D01*
X116547619Y-51333333D01*
X116642857Y-51285714D01*
X116785714Y-51285714D01*
X116880952Y-51333333D01*
X117357142Y-51857142D02*
X117404761Y-51904761D01*
X117357142Y-51952380D01*
X117309523Y-51904761D01*
X117357142Y-51857142D01*
X117357142Y-51952380D01*
X117357142Y-51571428D02*
X117309523Y-51000000D01*
X117357142Y-50952380D01*
X117404761Y-51000000D01*
X117357142Y-51571428D01*
X117357142Y-50952380D01*
D11*
X150000000Y-145000000D02*
G75*
G02*
X145000000Y-150000000I-5000000J0D01*
G01*
X55000000Y-150000000D02*
G75*
G02*
X50000000Y-145000000I0J5000000D01*
G01*
X50000000Y-55000000D02*
G75*
G02*
X55000000Y-50000000I5000000J0D01*
G01*
X145000000Y-50000000D02*
G75*
G02*
X150000000Y-55000000I0J-5000000D01*
G01*
D12*
X130521428Y-80300000D02*
X130378571Y-80228571D01*
X130164285Y-80228571D01*
X129950000Y-80300000D01*
X129807142Y-80442857D01*
X129735714Y-80585714D01*
X129664285Y-80871428D01*
X129664285Y-81085714D01*
X129735714Y-81371428D01*
X129807142Y-81514285D01*
X129950000Y-81657142D01*
X130164285Y-81728571D01*
X130307142Y-81728571D01*
X130521428Y-81657142D01*
X130592857Y-81585714D01*
X130592857Y-81085714D01*
X130307142Y-81085714D01*
X131735714Y-80942857D02*
X131950000Y-81014285D01*
X132021428Y-81085714D01*
X132092857Y-81228571D01*
X132092857Y-81442857D01*
X132021428Y-81585714D01*
X131950000Y-81657142D01*
X131807142Y-81728571D01*
X131235714Y-81728571D01*
X131235714Y-80228571D01*
X131735714Y-80228571D01*
X131878571Y-80300000D01*
X131950000Y-80371428D01*
X132021428Y-80514285D01*
X132021428Y-80657142D01*
X131950000Y-80800000D01*
X131878571Y-80871428D01*
X131735714Y-80942857D01*
X131235714Y-80942857D01*
X132735714Y-81157142D02*
X133878571Y-81157142D01*
X135450000Y-81585714D02*
X135378571Y-81657142D01*
X135164285Y-81728571D01*
X135021428Y-81728571D01*
X134807142Y-81657142D01*
X134664285Y-81514285D01*
X134592857Y-81371428D01*
X134521428Y-81085714D01*
X134521428Y-80871428D01*
X134592857Y-80585714D01*
X134664285Y-80442857D01*
X134807142Y-80300000D01*
X135021428Y-80228571D01*
X135164285Y-80228571D01*
X135378571Y-80300000D01*
X135450000Y-80371428D01*
X136021428Y-81300000D02*
X136735714Y-81300000D01*
X135878571Y-81728571D02*
X136378571Y-80228571D01*
X136878571Y-81728571D01*
X138235714Y-81728571D02*
X137735714Y-81014285D01*
X137378571Y-81728571D02*
X137378571Y-80228571D01*
X137950000Y-80228571D01*
X138092857Y-80300000D01*
X138164285Y-80371428D01*
X138235714Y-80514285D01*
X138235714Y-80728571D01*
X138164285Y-80871428D01*
X138092857Y-80942857D01*
X137950000Y-81014285D01*
X137378571Y-81014285D01*
X138664285Y-80228571D02*
X139521428Y-80228571D01*
X139092857Y-81728571D02*
X139092857Y-80228571D01*
X140021428Y-81728571D02*
X140021428Y-80228571D01*
X140592857Y-80228571D01*
X140735714Y-80300000D01*
X140807142Y-80371428D01*
X140878571Y-80514285D01*
X140878571Y-80728571D01*
X140807142Y-80871428D01*
X140735714Y-80942857D01*
X140592857Y-81014285D01*
X140021428Y-81014285D01*
X141521428Y-81728571D02*
X141521428Y-80228571D01*
X142092857Y-80228571D01*
X142235714Y-80300000D01*
X142307142Y-80371428D01*
X142378571Y-80514285D01*
X142378571Y-80728571D01*
X142307142Y-80871428D01*
X142235714Y-80942857D01*
X142092857Y-81014285D01*
X141521428Y-81014285D01*
X143021428Y-81157142D02*
X144164285Y-81157142D01*
X144878571Y-81728571D02*
X144878571Y-80228571D01*
X145235714Y-80228571D01*
X145450000Y-80300000D01*
X145592857Y-80442857D01*
X145664285Y-80585714D01*
X145735714Y-80871428D01*
X145735714Y-81085714D01*
X145664285Y-81371428D01*
X145592857Y-81514285D01*
X145450000Y-81657142D01*
X145235714Y-81728571D01*
X144878571Y-81728571D01*
X146378571Y-81728571D02*
X146378571Y-80228571D01*
X147378571Y-81014285D02*
X147378571Y-81728571D01*
X146878571Y-80228571D02*
X147378571Y-81014285D01*
X147878571Y-80228571D01*
X136557142Y-83278571D02*
X136914285Y-84278571D01*
X137271428Y-83278571D01*
X138628571Y-84278571D02*
X137771428Y-84278571D01*
X138200000Y-84278571D02*
X138200000Y-82778571D01*
X138057142Y-82992857D01*
X137914285Y-83135714D01*
X137771428Y-83207142D01*
X139271428Y-84135714D02*
X139342857Y-84207142D01*
X139271428Y-84278571D01*
X139200000Y-84207142D01*
X139271428Y-84135714D01*
X139271428Y-84278571D01*
X140771428Y-84278571D02*
X139914285Y-84278571D01*
X140342857Y-84278571D02*
X140342857Y-82778571D01*
X140200000Y-82992857D01*
X140057142Y-83135714D01*
X139914285Y-83207142D01*
X129592857Y-86828571D02*
X129592857Y-85328571D01*
X130235714Y-86828571D02*
X130235714Y-86042857D01*
X130164285Y-85900000D01*
X130021428Y-85828571D01*
X129807142Y-85828571D01*
X129664285Y-85900000D01*
X129592857Y-85971428D01*
X130735714Y-85828571D02*
X131307142Y-85828571D01*
X130950000Y-85328571D02*
X130950000Y-86614285D01*
X131021428Y-86757142D01*
X131164285Y-86828571D01*
X131307142Y-86828571D01*
X131592857Y-85828571D02*
X132164285Y-85828571D01*
X131807142Y-85328571D02*
X131807142Y-86614285D01*
X131878571Y-86757142D01*
X132021428Y-86828571D01*
X132164285Y-86828571D01*
X132664285Y-85828571D02*
X132664285Y-87328571D01*
X132664285Y-85900000D02*
X132807142Y-85828571D01*
X133092857Y-85828571D01*
X133235714Y-85900000D01*
X133307142Y-85971428D01*
X133378571Y-86114285D01*
X133378571Y-86542857D01*
X133307142Y-86685714D01*
X133235714Y-86757142D01*
X133092857Y-86828571D01*
X132807142Y-86828571D01*
X132664285Y-86757142D01*
X133950000Y-86757142D02*
X134092857Y-86828571D01*
X134378571Y-86828571D01*
X134521428Y-86757142D01*
X134592857Y-86614285D01*
X134592857Y-86542857D01*
X134521428Y-86400000D01*
X134378571Y-86328571D01*
X134164285Y-86328571D01*
X134021428Y-86257142D01*
X133950000Y-86114285D01*
X133950000Y-86042857D01*
X134021428Y-85900000D01*
X134164285Y-85828571D01*
X134378571Y-85828571D01*
X134521428Y-85900000D01*
X135235714Y-86685714D02*
X135307142Y-86757142D01*
X135235714Y-86828571D01*
X135164285Y-86757142D01*
X135235714Y-86685714D01*
X135235714Y-86828571D01*
X135235714Y-85900000D02*
X135307142Y-85971428D01*
X135235714Y-86042857D01*
X135164285Y-85971428D01*
X135235714Y-85900000D01*
X135235714Y-86042857D01*
X137021428Y-85257142D02*
X135735714Y-87185714D01*
X138592857Y-85257142D02*
X137307142Y-87185714D01*
X139735714Y-85828571D02*
X139735714Y-87042857D01*
X139664285Y-87185714D01*
X139592857Y-87257142D01*
X139450000Y-87328571D01*
X139235714Y-87328571D01*
X139092857Y-87257142D01*
X139735714Y-86757142D02*
X139592857Y-86828571D01*
X139307142Y-86828571D01*
X139164285Y-86757142D01*
X139092857Y-86685714D01*
X139021428Y-86542857D01*
X139021428Y-86114285D01*
X139092857Y-85971428D01*
X139164285Y-85900000D01*
X139307142Y-85828571D01*
X139592857Y-85828571D01*
X139735714Y-85900000D01*
X141021428Y-86757142D02*
X140878571Y-86828571D01*
X140592857Y-86828571D01*
X140450000Y-86757142D01*
X140378571Y-86614285D01*
X140378571Y-86042857D01*
X140450000Y-85900000D01*
X140592857Y-85828571D01*
X140878571Y-85828571D01*
X141021428Y-85900000D01*
X141092857Y-86042857D01*
X141092857Y-86185714D01*
X140378571Y-86328571D01*
X141735714Y-86828571D02*
X141735714Y-85328571D01*
X141878571Y-86257142D02*
X142307142Y-86828571D01*
X142307142Y-85828571D02*
X141735714Y-86400000D01*
X142950000Y-86828571D02*
X142950000Y-85328571D01*
X143092857Y-86257142D02*
X143521428Y-86828571D01*
X143521428Y-85828571D02*
X142950000Y-86400000D01*
X144164285Y-86828571D02*
X144164285Y-85828571D01*
X144164285Y-85328571D02*
X144092857Y-85400000D01*
X144164285Y-85471428D01*
X144235714Y-85400000D01*
X144164285Y-85328571D01*
X144164285Y-85471428D01*
X145092857Y-86828571D02*
X144950000Y-86757142D01*
X144878571Y-86685714D01*
X144807142Y-86542857D01*
X144807142Y-86114285D01*
X144878571Y-85971428D01*
X144950000Y-85900000D01*
X145092857Y-85828571D01*
X145307142Y-85828571D01*
X145450000Y-85900000D01*
X145521428Y-85971428D01*
X145592857Y-86114285D01*
X145592857Y-86542857D01*
X145521428Y-86685714D01*
X145450000Y-86757142D01*
X145307142Y-86828571D01*
X145092857Y-86828571D01*
X146235714Y-86685714D02*
X146307142Y-86757142D01*
X146235714Y-86828571D01*
X146164285Y-86757142D01*
X146235714Y-86685714D01*
X146235714Y-86828571D01*
X146735714Y-85828571D02*
X147307142Y-85828571D01*
X146950000Y-86828571D02*
X146950000Y-85542857D01*
X147021428Y-85400000D01*
X147164285Y-85328571D01*
X147307142Y-85328571D01*
X147807142Y-86828571D02*
X147807142Y-85828571D01*
X147807142Y-85328571D02*
X147735714Y-85400000D01*
X147807142Y-85471428D01*
X147878571Y-85400000D01*
X147807142Y-85328571D01*
X147807142Y-85471428D01*
D11*
X145000000Y-50000000D02*
X55000000Y-50000000D01*
X150000000Y-145000000D02*
X150000000Y-55000000D01*
X55000000Y-150000000D02*
X145000000Y-150000000D01*
X50000000Y-55000000D02*
X50000000Y-145000000D01*
D13*
%TO.C,D1*%
X121940000Y-136430000D02*
X121940000Y-139370000D01*
X122180000Y-136430000D02*
X122180000Y-139370000D01*
X122060000Y-136430000D02*
X122060000Y-139370000D01*
X127620000Y-137900000D02*
X126600000Y-137900000D01*
X120140000Y-137900000D02*
X121160000Y-137900000D01*
X126600000Y-136430000D02*
X121160000Y-136430000D01*
X126600000Y-139370000D02*
X126600000Y-136430000D01*
X121160000Y-139370000D02*
X126600000Y-139370000D01*
X121160000Y-136430000D02*
X121160000Y-139370000D01*
%TO.C,D2*%
X64030000Y-120860000D02*
X66970000Y-120860000D01*
X64030000Y-120620000D02*
X66970000Y-120620000D01*
X64030000Y-120740000D02*
X66970000Y-120740000D01*
X65500000Y-115180000D02*
X65500000Y-116200000D01*
X65500000Y-122660000D02*
X65500000Y-121640000D01*
X64030000Y-116200000D02*
X64030000Y-121640000D01*
X66970000Y-116200000D02*
X64030000Y-116200000D01*
X66970000Y-121640000D02*
X66970000Y-116200000D01*
X64030000Y-121640000D02*
X66970000Y-121640000D01*
%TO.C,D3*%
X54830000Y-99560000D02*
X57770000Y-99560000D01*
X54830000Y-99320000D02*
X57770000Y-99320000D01*
X54830000Y-99440000D02*
X57770000Y-99440000D01*
X56300000Y-93880000D02*
X56300000Y-94900000D01*
X56300000Y-101360000D02*
X56300000Y-100340000D01*
X54830000Y-94900000D02*
X54830000Y-100340000D01*
X57770000Y-94900000D02*
X54830000Y-94900000D01*
X57770000Y-100340000D02*
X57770000Y-94900000D01*
X54830000Y-100340000D02*
X57770000Y-100340000D01*
%TO.C,TP4*%
X60700000Y-74400000D02*
G75*
G03*
X60700000Y-74400000I-1200000J0D01*
G01*
%TO.C,FB1*%
X73420000Y-135800000D02*
X77070000Y-135800000D01*
X90860000Y-135800000D02*
X87210000Y-135800000D01*
X77070000Y-137720000D02*
X87210000Y-137720000D01*
X77070000Y-133880000D02*
X77070000Y-137720000D01*
X87210000Y-133880000D02*
X77070000Y-133880000D01*
X87210000Y-137720000D02*
X87210000Y-133880000D01*
%TO.C,TP1*%
X138000000Y-119000000D02*
G75*
G03*
X138000000Y-119000000I-1200000J0D01*
G01*
%TO.C,JP1*%
X65700000Y-93500000D02*
X64300000Y-93500000D01*
X63600000Y-92800000D02*
X63600000Y-92200000D01*
X64300000Y-91500000D02*
X65700000Y-91500000D01*
X66400000Y-92200000D02*
X66400000Y-92800000D01*
X66400000Y-92800000D02*
G75*
G02*
X65700000Y-93500000I-700000J0D01*
G01*
X65700000Y-91500000D02*
G75*
G02*
X66400000Y-92200000I0J-700000D01*
G01*
X63600000Y-92200000D02*
G75*
G02*
X64300000Y-91500000I700000J0D01*
G01*
X64300000Y-93500000D02*
G75*
G02*
X63600000Y-92800000I0J700000D01*
G01*
%TO.C,C3*%
X86620000Y-148870000D02*
X81380000Y-148870000D01*
X86620000Y-138130000D02*
X81380000Y-138130000D01*
X81380000Y-138130000D02*
X81380000Y-148870000D01*
X86620000Y-138130000D02*
X86620000Y-148870000D01*
%TO.C,C1*%
X81870000Y-127480000D02*
X81870000Y-132720000D01*
X71130000Y-127480000D02*
X71130000Y-132720000D01*
X71130000Y-132720000D02*
X81870000Y-132720000D01*
X71130000Y-127480000D02*
X81870000Y-127480000D01*
%TO.C,U1*%
X98420000Y-146090000D02*
X116540000Y-146090000D01*
X98420000Y-95050000D02*
X98420000Y-146090000D01*
X116540000Y-95050000D02*
X98420000Y-95050000D01*
X116540000Y-146090000D02*
X116540000Y-95050000D01*
X101420000Y-146030000D02*
X106480000Y-146030000D01*
X101420000Y-95110000D02*
X101420000Y-146030000D01*
X113540000Y-95110000D02*
X101420000Y-95110000D01*
X113540000Y-146030000D02*
X113540000Y-95110000D01*
X108480000Y-146030000D02*
X113540000Y-146030000D01*
X106480000Y-146030000D02*
G75*
G02*
X108480000Y-146030000I1000000J0D01*
G01*
%TO.C,TP3*%
X67000000Y-74300000D02*
G75*
G03*
X67000000Y-74300000I-1200000J0D01*
G01*
%TO.C,TP2*%
X87700000Y-126200000D02*
G75*
G03*
X87700000Y-126200000I-1200000J0D01*
G01*
%TO.C,R2*%
X125880000Y-142770000D02*
X125880000Y-142440000D01*
X119340000Y-142770000D02*
X125880000Y-142770000D01*
X119340000Y-142440000D02*
X119340000Y-142770000D01*
X125880000Y-140030000D02*
X125880000Y-140360000D01*
X119340000Y-140030000D02*
X125880000Y-140030000D01*
X119340000Y-140360000D02*
X119340000Y-140030000D01*
%TO.C,R5*%
X133230000Y-75180000D02*
X133560000Y-75180000D01*
X133230000Y-68640000D02*
X133230000Y-75180000D01*
X133560000Y-68640000D02*
X133230000Y-68640000D01*
X135970000Y-75180000D02*
X135640000Y-75180000D01*
X135970000Y-68640000D02*
X135970000Y-75180000D01*
X135640000Y-68640000D02*
X135970000Y-68640000D01*
%TO.C,R4*%
X58420000Y-104730000D02*
X58420000Y-105060000D01*
X64960000Y-104730000D02*
X58420000Y-104730000D01*
X64960000Y-105060000D02*
X64960000Y-104730000D01*
X58420000Y-107470000D02*
X58420000Y-107140000D01*
X64960000Y-107470000D02*
X58420000Y-107470000D01*
X64960000Y-107140000D02*
X64960000Y-107470000D01*
%TO.C,R3*%
X64980000Y-111870000D02*
X64980000Y-111540000D01*
X58440000Y-111870000D02*
X64980000Y-111870000D01*
X58440000Y-111540000D02*
X58440000Y-111870000D01*
X64980000Y-109130000D02*
X64980000Y-109460000D01*
X58440000Y-109130000D02*
X64980000Y-109130000D01*
X58440000Y-109460000D02*
X58440000Y-109130000D01*
%TO.C,R1*%
X119320000Y-143330000D02*
X119320000Y-143660000D01*
X125860000Y-143330000D02*
X119320000Y-143330000D01*
X125860000Y-143660000D02*
X125860000Y-143330000D01*
X119320000Y-146070000D02*
X119320000Y-145740000D01*
X125860000Y-146070000D02*
X119320000Y-146070000D01*
X125860000Y-145740000D02*
X125860000Y-146070000D01*
%TO.C,Q1*%
X65591000Y-96830000D02*
X65591000Y-98340000D01*
X61890000Y-96830000D02*
X61890000Y-98340000D01*
X58620000Y-98340000D02*
X68860000Y-98340000D01*
X68860000Y-96830000D02*
X68860000Y-101471000D01*
X58620000Y-96830000D02*
X58620000Y-101471000D01*
X58620000Y-101471000D02*
X68860000Y-101471000D01*
X58620000Y-96830000D02*
X68860000Y-96830000D01*
%TO.C,J3*%
X129300000Y-74300000D02*
X129300000Y-55800000D01*
X129300000Y-55800000D02*
X116200000Y-55800000D01*
X109800000Y-55800000D02*
X90200000Y-55800000D01*
X83800000Y-55800000D02*
X70800000Y-55800000D01*
X70800000Y-74300000D02*
X70800000Y-55800000D01*
X70800000Y-74300000D02*
X76000000Y-74300000D01*
X129300000Y-74300000D02*
X124000000Y-74300000D01*
X76000000Y-74300000D02*
X76000000Y-76400000D01*
%TO.C,J2*%
X137670000Y-134330000D02*
X137670000Y-133000000D01*
X139000000Y-134330000D02*
X137670000Y-134330000D01*
X137670000Y-131730000D02*
X137670000Y-129130000D01*
X140270000Y-131730000D02*
X137670000Y-131730000D01*
X140270000Y-134330000D02*
X140270000Y-131730000D01*
X137670000Y-129130000D02*
X145410000Y-129130000D01*
X140270000Y-134330000D02*
X145410000Y-134330000D01*
X145410000Y-134330000D02*
X145410000Y-129130000D01*
%TO.C,J1*%
X71500000Y-138950000D02*
X72000000Y-139450000D01*
X72500000Y-138950000D02*
X71500000Y-138950000D01*
X72000000Y-139450000D02*
X72500000Y-138950000D01*
X64640000Y-156270000D02*
X64640000Y-148300000D01*
X76860000Y-156270000D02*
X76860000Y-148300000D01*
X64640000Y-156270000D02*
X76860000Y-156270000D01*
X76860000Y-139650000D02*
X76860000Y-143400000D01*
X64640000Y-139650000D02*
X64640000Y-143400000D01*
X64640000Y-139650000D02*
X76860000Y-139650000D01*
%TO.C,C8*%
X69735241Y-85954000D02*
X69735241Y-85324000D01*
X70050241Y-85639000D02*
X69420241Y-85639000D01*
X63309000Y-84202000D02*
X63309000Y-83398000D01*
X63349000Y-84433000D02*
X63349000Y-83167000D01*
X63389000Y-84602000D02*
X63389000Y-82998000D01*
X63429000Y-84740000D02*
X63429000Y-82860000D01*
X63469000Y-84859000D02*
X63469000Y-82741000D01*
X63509000Y-84965000D02*
X63509000Y-82635000D01*
X63549000Y-85062000D02*
X63549000Y-82538000D01*
X63589000Y-85150000D02*
X63589000Y-82450000D01*
X63629000Y-85232000D02*
X63629000Y-82368000D01*
X63669000Y-85309000D02*
X63669000Y-82291000D01*
X63709000Y-85381000D02*
X63709000Y-82219000D01*
X63749000Y-85450000D02*
X63749000Y-82150000D01*
X63789000Y-85514000D02*
X63789000Y-82086000D01*
X63829000Y-85576000D02*
X63829000Y-82024000D01*
X63869000Y-85634000D02*
X63869000Y-81966000D01*
X63909000Y-85690000D02*
X63909000Y-81910000D01*
X63949000Y-85744000D02*
X63949000Y-81856000D01*
X63989000Y-85795000D02*
X63989000Y-81805000D01*
X64029000Y-85844000D02*
X64029000Y-81756000D01*
X64069000Y-85892000D02*
X64069000Y-81708000D01*
X64109000Y-85937000D02*
X64109000Y-81663000D01*
X64149000Y-85982000D02*
X64149000Y-81618000D01*
X64189000Y-86024000D02*
X64189000Y-81576000D01*
X64229000Y-86065000D02*
X64229000Y-81535000D01*
X64269000Y-82760000D02*
X64269000Y-81495000D01*
X64269000Y-86105000D02*
X64269000Y-84840000D01*
X64309000Y-82760000D02*
X64309000Y-81457000D01*
X64309000Y-86143000D02*
X64309000Y-84840000D01*
X64349000Y-82760000D02*
X64349000Y-81420000D01*
X64349000Y-86180000D02*
X64349000Y-84840000D01*
X64389000Y-82760000D02*
X64389000Y-81384000D01*
X64389000Y-86216000D02*
X64389000Y-84840000D01*
X64429000Y-82760000D02*
X64429000Y-81350000D01*
X64429000Y-86250000D02*
X64429000Y-84840000D01*
X64469000Y-82760000D02*
X64469000Y-81316000D01*
X64469000Y-86284000D02*
X64469000Y-84840000D01*
X64509000Y-82760000D02*
X64509000Y-81284000D01*
X64509000Y-86316000D02*
X64509000Y-84840000D01*
X64549000Y-82760000D02*
X64549000Y-81252000D01*
X64549000Y-86348000D02*
X64549000Y-84840000D01*
X64589000Y-82760000D02*
X64589000Y-81222000D01*
X64589000Y-86378000D02*
X64589000Y-84840000D01*
X64629000Y-82760000D02*
X64629000Y-81193000D01*
X64629000Y-86407000D02*
X64629000Y-84840000D01*
X64669000Y-82760000D02*
X64669000Y-81164000D01*
X64669000Y-86436000D02*
X64669000Y-84840000D01*
X64709000Y-82760000D02*
X64709000Y-81136000D01*
X64709000Y-86464000D02*
X64709000Y-84840000D01*
X64749000Y-82760000D02*
X64749000Y-81110000D01*
X64749000Y-86490000D02*
X64749000Y-84840000D01*
X64789000Y-82760000D02*
X64789000Y-81084000D01*
X64789000Y-86516000D02*
X64789000Y-84840000D01*
X64829000Y-82760000D02*
X64829000Y-81058000D01*
X64829000Y-86542000D02*
X64829000Y-84840000D01*
X64869000Y-82760000D02*
X64869000Y-81034000D01*
X64869000Y-86566000D02*
X64869000Y-84840000D01*
X64909000Y-82760000D02*
X64909000Y-81010000D01*
X64909000Y-86590000D02*
X64909000Y-84840000D01*
X64949000Y-82760000D02*
X64949000Y-80988000D01*
X64949000Y-86612000D02*
X64949000Y-84840000D01*
X64989000Y-82760000D02*
X64989000Y-80966000D01*
X64989000Y-86634000D02*
X64989000Y-84840000D01*
X65029000Y-82760000D02*
X65029000Y-80944000D01*
X65029000Y-86656000D02*
X65029000Y-84840000D01*
X65069000Y-82760000D02*
X65069000Y-80924000D01*
X65069000Y-86676000D02*
X65069000Y-84840000D01*
X65109000Y-82760000D02*
X65109000Y-80904000D01*
X65109000Y-86696000D02*
X65109000Y-84840000D01*
X65149000Y-82760000D02*
X65149000Y-80884000D01*
X65149000Y-86716000D02*
X65149000Y-84840000D01*
X65189000Y-82760000D02*
X65189000Y-80866000D01*
X65189000Y-86734000D02*
X65189000Y-84840000D01*
X65229000Y-82760000D02*
X65229000Y-80848000D01*
X65229000Y-86752000D02*
X65229000Y-84840000D01*
X65269000Y-82760000D02*
X65269000Y-80830000D01*
X65269000Y-86770000D02*
X65269000Y-84840000D01*
X65309000Y-82760000D02*
X65309000Y-80814000D01*
X65309000Y-86786000D02*
X65309000Y-84840000D01*
X65349000Y-82760000D02*
X65349000Y-80798000D01*
X65349000Y-86802000D02*
X65349000Y-84840000D01*
X65389000Y-82760000D02*
X65389000Y-80782000D01*
X65389000Y-86818000D02*
X65389000Y-84840000D01*
X65429000Y-82760000D02*
X65429000Y-80767000D01*
X65429000Y-86833000D02*
X65429000Y-84840000D01*
X65469000Y-82760000D02*
X65469000Y-80753000D01*
X65469000Y-86847000D02*
X65469000Y-84840000D01*
X65509000Y-82760000D02*
X65509000Y-80739000D01*
X65509000Y-86861000D02*
X65509000Y-84840000D01*
X65549000Y-82760000D02*
X65549000Y-80726000D01*
X65549000Y-86874000D02*
X65549000Y-84840000D01*
X65589000Y-82760000D02*
X65589000Y-80714000D01*
X65589000Y-86886000D02*
X65589000Y-84840000D01*
X65629000Y-82760000D02*
X65629000Y-80702000D01*
X65629000Y-86898000D02*
X65629000Y-84840000D01*
X65669000Y-82760000D02*
X65669000Y-80690000D01*
X65669000Y-86910000D02*
X65669000Y-84840000D01*
X65709000Y-82760000D02*
X65709000Y-80679000D01*
X65709000Y-86921000D02*
X65709000Y-84840000D01*
X65749000Y-82760000D02*
X65749000Y-80669000D01*
X65749000Y-86931000D02*
X65749000Y-84840000D01*
X65789000Y-82760000D02*
X65789000Y-80659000D01*
X65789000Y-86941000D02*
X65789000Y-84840000D01*
X65829000Y-82760000D02*
X65829000Y-80650000D01*
X65829000Y-86950000D02*
X65829000Y-84840000D01*
X65870000Y-82760000D02*
X65870000Y-80641000D01*
X65870000Y-86959000D02*
X65870000Y-84840000D01*
X65910000Y-82760000D02*
X65910000Y-80633000D01*
X65910000Y-86967000D02*
X65910000Y-84840000D01*
X65950000Y-82760000D02*
X65950000Y-80625000D01*
X65950000Y-86975000D02*
X65950000Y-84840000D01*
X65990000Y-82760000D02*
X65990000Y-80618000D01*
X65990000Y-86982000D02*
X65990000Y-84840000D01*
X66030000Y-82760000D02*
X66030000Y-80611000D01*
X66030000Y-86989000D02*
X66030000Y-84840000D01*
X66070000Y-82760000D02*
X66070000Y-80605000D01*
X66070000Y-86995000D02*
X66070000Y-84840000D01*
X66110000Y-82760000D02*
X66110000Y-80599000D01*
X66110000Y-87001000D02*
X66110000Y-84840000D01*
X66150000Y-82760000D02*
X66150000Y-80594000D01*
X66150000Y-87006000D02*
X66150000Y-84840000D01*
X66190000Y-82760000D02*
X66190000Y-80589000D01*
X66190000Y-87011000D02*
X66190000Y-84840000D01*
X66230000Y-82760000D02*
X66230000Y-80585000D01*
X66230000Y-87015000D02*
X66230000Y-84840000D01*
X66270000Y-82760000D02*
X66270000Y-80582000D01*
X66270000Y-87018000D02*
X66270000Y-84840000D01*
X66310000Y-82760000D02*
X66310000Y-80578000D01*
X66310000Y-87022000D02*
X66310000Y-84840000D01*
X66350000Y-87024000D02*
X66350000Y-80576000D01*
X66390000Y-87027000D02*
X66390000Y-80573000D01*
X66430000Y-87028000D02*
X66430000Y-80572000D01*
X66470000Y-87030000D02*
X66470000Y-80570000D01*
X66510000Y-87030000D02*
X66510000Y-80570000D01*
X66550000Y-87030000D02*
X66550000Y-80570000D01*
X69820000Y-83800000D02*
G75*
G03*
X69820000Y-83800000I-3270000J0D01*
G01*
%TO.C,C7*%
X117880000Y-112630000D02*
X123120000Y-112630000D01*
X117880000Y-123370000D02*
X123120000Y-123370000D01*
X123120000Y-123370000D02*
X123120000Y-112630000D01*
X117880000Y-123370000D02*
X117880000Y-112630000D01*
%TO.C,C6*%
X91880000Y-117730000D02*
X97120000Y-117730000D01*
X91880000Y-128470000D02*
X97120000Y-128470000D01*
X97120000Y-128470000D02*
X97120000Y-117730000D01*
X91880000Y-128470000D02*
X91880000Y-117730000D01*
%TO.C,C5*%
X123880000Y-112630000D02*
X129120000Y-112630000D01*
X123880000Y-123370000D02*
X129120000Y-123370000D01*
X129120000Y-123370000D02*
X129120000Y-112630000D01*
X123880000Y-123370000D02*
X123880000Y-112630000D01*
%TO.C,C4*%
X128570000Y-98880000D02*
X128570000Y-104120000D01*
X117830000Y-98880000D02*
X117830000Y-104120000D01*
X117830000Y-104120000D02*
X128570000Y-104120000D01*
X117830000Y-98880000D02*
X128570000Y-98880000D01*
%TO.C,C2*%
X97035241Y-147454000D02*
X97035241Y-146824000D01*
X97350241Y-147139000D02*
X96720241Y-147139000D01*
X90609000Y-145702000D02*
X90609000Y-144898000D01*
X90649000Y-145933000D02*
X90649000Y-144667000D01*
X90689000Y-146102000D02*
X90689000Y-144498000D01*
X90729000Y-146240000D02*
X90729000Y-144360000D01*
X90769000Y-146359000D02*
X90769000Y-144241000D01*
X90809000Y-146465000D02*
X90809000Y-144135000D01*
X90849000Y-146562000D02*
X90849000Y-144038000D01*
X90889000Y-146650000D02*
X90889000Y-143950000D01*
X90929000Y-146732000D02*
X90929000Y-143868000D01*
X90969000Y-146809000D02*
X90969000Y-143791000D01*
X91009000Y-146881000D02*
X91009000Y-143719000D01*
X91049000Y-146950000D02*
X91049000Y-143650000D01*
X91089000Y-147014000D02*
X91089000Y-143586000D01*
X91129000Y-147076000D02*
X91129000Y-143524000D01*
X91169000Y-147134000D02*
X91169000Y-143466000D01*
X91209000Y-147190000D02*
X91209000Y-143410000D01*
X91249000Y-147244000D02*
X91249000Y-143356000D01*
X91289000Y-147295000D02*
X91289000Y-143305000D01*
X91329000Y-147344000D02*
X91329000Y-143256000D01*
X91369000Y-147392000D02*
X91369000Y-143208000D01*
X91409000Y-147437000D02*
X91409000Y-143163000D01*
X91449000Y-147482000D02*
X91449000Y-143118000D01*
X91489000Y-147524000D02*
X91489000Y-143076000D01*
X91529000Y-147565000D02*
X91529000Y-143035000D01*
X91569000Y-144260000D02*
X91569000Y-142995000D01*
X91569000Y-147605000D02*
X91569000Y-146340000D01*
X91609000Y-144260000D02*
X91609000Y-142957000D01*
X91609000Y-147643000D02*
X91609000Y-146340000D01*
X91649000Y-144260000D02*
X91649000Y-142920000D01*
X91649000Y-147680000D02*
X91649000Y-146340000D01*
X91689000Y-144260000D02*
X91689000Y-142884000D01*
X91689000Y-147716000D02*
X91689000Y-146340000D01*
X91729000Y-144260000D02*
X91729000Y-142850000D01*
X91729000Y-147750000D02*
X91729000Y-146340000D01*
X91769000Y-144260000D02*
X91769000Y-142816000D01*
X91769000Y-147784000D02*
X91769000Y-146340000D01*
X91809000Y-144260000D02*
X91809000Y-142784000D01*
X91809000Y-147816000D02*
X91809000Y-146340000D01*
X91849000Y-144260000D02*
X91849000Y-142752000D01*
X91849000Y-147848000D02*
X91849000Y-146340000D01*
X91889000Y-144260000D02*
X91889000Y-142722000D01*
X91889000Y-147878000D02*
X91889000Y-146340000D01*
X91929000Y-144260000D02*
X91929000Y-142693000D01*
X91929000Y-147907000D02*
X91929000Y-146340000D01*
X91969000Y-144260000D02*
X91969000Y-142664000D01*
X91969000Y-147936000D02*
X91969000Y-146340000D01*
X92009000Y-144260000D02*
X92009000Y-142636000D01*
X92009000Y-147964000D02*
X92009000Y-146340000D01*
X92049000Y-144260000D02*
X92049000Y-142610000D01*
X92049000Y-147990000D02*
X92049000Y-146340000D01*
X92089000Y-144260000D02*
X92089000Y-142584000D01*
X92089000Y-148016000D02*
X92089000Y-146340000D01*
X92129000Y-144260000D02*
X92129000Y-142558000D01*
X92129000Y-148042000D02*
X92129000Y-146340000D01*
X92169000Y-144260000D02*
X92169000Y-142534000D01*
X92169000Y-148066000D02*
X92169000Y-146340000D01*
X92209000Y-144260000D02*
X92209000Y-142510000D01*
X92209000Y-148090000D02*
X92209000Y-146340000D01*
X92249000Y-144260000D02*
X92249000Y-142488000D01*
X92249000Y-148112000D02*
X92249000Y-146340000D01*
X92289000Y-144260000D02*
X92289000Y-142466000D01*
X92289000Y-148134000D02*
X92289000Y-146340000D01*
X92329000Y-144260000D02*
X92329000Y-142444000D01*
X92329000Y-148156000D02*
X92329000Y-146340000D01*
X92369000Y-144260000D02*
X92369000Y-142424000D01*
X92369000Y-148176000D02*
X92369000Y-146340000D01*
X92409000Y-144260000D02*
X92409000Y-142404000D01*
X92409000Y-148196000D02*
X92409000Y-146340000D01*
X92449000Y-144260000D02*
X92449000Y-142384000D01*
X92449000Y-148216000D02*
X92449000Y-146340000D01*
X92489000Y-144260000D02*
X92489000Y-142366000D01*
X92489000Y-148234000D02*
X92489000Y-146340000D01*
X92529000Y-144260000D02*
X92529000Y-142348000D01*
X92529000Y-148252000D02*
X92529000Y-146340000D01*
X92569000Y-144260000D02*
X92569000Y-142330000D01*
X92569000Y-148270000D02*
X92569000Y-146340000D01*
X92609000Y-144260000D02*
X92609000Y-142314000D01*
X92609000Y-148286000D02*
X92609000Y-146340000D01*
X92649000Y-144260000D02*
X92649000Y-142298000D01*
X92649000Y-148302000D02*
X92649000Y-146340000D01*
X92689000Y-144260000D02*
X92689000Y-142282000D01*
X92689000Y-148318000D02*
X92689000Y-146340000D01*
X92729000Y-144260000D02*
X92729000Y-142267000D01*
X92729000Y-148333000D02*
X92729000Y-146340000D01*
X92769000Y-144260000D02*
X92769000Y-142253000D01*
X92769000Y-148347000D02*
X92769000Y-146340000D01*
X92809000Y-144260000D02*
X92809000Y-142239000D01*
X92809000Y-148361000D02*
X92809000Y-146340000D01*
X92849000Y-144260000D02*
X92849000Y-142226000D01*
X92849000Y-148374000D02*
X92849000Y-146340000D01*
X92889000Y-144260000D02*
X92889000Y-142214000D01*
X92889000Y-148386000D02*
X92889000Y-146340000D01*
X92929000Y-144260000D02*
X92929000Y-142202000D01*
X92929000Y-148398000D02*
X92929000Y-146340000D01*
X92969000Y-144260000D02*
X92969000Y-142190000D01*
X92969000Y-148410000D02*
X92969000Y-146340000D01*
X93009000Y-144260000D02*
X93009000Y-142179000D01*
X93009000Y-148421000D02*
X93009000Y-146340000D01*
X93049000Y-144260000D02*
X93049000Y-142169000D01*
X93049000Y-148431000D02*
X93049000Y-146340000D01*
X93089000Y-144260000D02*
X93089000Y-142159000D01*
X93089000Y-148441000D02*
X93089000Y-146340000D01*
X93129000Y-144260000D02*
X93129000Y-142150000D01*
X93129000Y-148450000D02*
X93129000Y-146340000D01*
X93170000Y-144260000D02*
X93170000Y-142141000D01*
X93170000Y-148459000D02*
X93170000Y-146340000D01*
X93210000Y-144260000D02*
X93210000Y-142133000D01*
X93210000Y-148467000D02*
X93210000Y-146340000D01*
X93250000Y-144260000D02*
X93250000Y-142125000D01*
X93250000Y-148475000D02*
X93250000Y-146340000D01*
X93290000Y-144260000D02*
X93290000Y-142118000D01*
X93290000Y-148482000D02*
X93290000Y-146340000D01*
X93330000Y-144260000D02*
X93330000Y-142111000D01*
X93330000Y-148489000D02*
X93330000Y-146340000D01*
X93370000Y-144260000D02*
X93370000Y-142105000D01*
X93370000Y-148495000D02*
X93370000Y-146340000D01*
X93410000Y-144260000D02*
X93410000Y-142099000D01*
X93410000Y-148501000D02*
X93410000Y-146340000D01*
X93450000Y-144260000D02*
X93450000Y-142094000D01*
X93450000Y-148506000D02*
X93450000Y-146340000D01*
X93490000Y-144260000D02*
X93490000Y-142089000D01*
X93490000Y-148511000D02*
X93490000Y-146340000D01*
X93530000Y-144260000D02*
X93530000Y-142085000D01*
X93530000Y-148515000D02*
X93530000Y-146340000D01*
X93570000Y-144260000D02*
X93570000Y-142082000D01*
X93570000Y-148518000D02*
X93570000Y-146340000D01*
X93610000Y-144260000D02*
X93610000Y-142078000D01*
X93610000Y-148522000D02*
X93610000Y-146340000D01*
X93650000Y-148524000D02*
X93650000Y-142076000D01*
X93690000Y-148527000D02*
X93690000Y-142073000D01*
X93730000Y-148528000D02*
X93730000Y-142072000D01*
X93770000Y-148530000D02*
X93770000Y-142070000D01*
X93810000Y-148530000D02*
X93810000Y-142070000D01*
X93850000Y-148530000D02*
X93850000Y-142070000D01*
X97120000Y-145300000D02*
G75*
G03*
X97120000Y-145300000I-3270000J0D01*
G01*
%TD*%
%TO.C,D1*%
D10*
X123141904Y-135882380D02*
X123141904Y-134882380D01*
X123380000Y-134882380D01*
X123522857Y-134930000D01*
X123618095Y-135025238D01*
X123665714Y-135120476D01*
X123713333Y-135310952D01*
X123713333Y-135453809D01*
X123665714Y-135644285D01*
X123618095Y-135739523D01*
X123522857Y-135834761D01*
X123380000Y-135882380D01*
X123141904Y-135882380D01*
X124665714Y-135882380D02*
X124094285Y-135882380D01*
X124380000Y-135882380D02*
X124380000Y-134882380D01*
X124284761Y-135025238D01*
X124189523Y-135120476D01*
X124094285Y-135168095D01*
X125857142Y-135852380D02*
X125285714Y-135852380D01*
X125571428Y-135852380D02*
X125571428Y-134852380D01*
X125476190Y-134995238D01*
X125380952Y-135090476D01*
X125285714Y-135138095D01*
X126285714Y-135852380D02*
X126285714Y-134852380D01*
X126857142Y-135852380D01*
X126857142Y-134852380D01*
X127809523Y-134852380D02*
X127333333Y-134852380D01*
X127285714Y-135328571D01*
X127333333Y-135280952D01*
X127428571Y-135233333D01*
X127666666Y-135233333D01*
X127761904Y-135280952D01*
X127809523Y-135328571D01*
X127857142Y-135423809D01*
X127857142Y-135661904D01*
X127809523Y-135757142D01*
X127761904Y-135804761D01*
X127666666Y-135852380D01*
X127428571Y-135852380D01*
X127333333Y-135804761D01*
X127285714Y-135757142D01*
X128428571Y-135280952D02*
X128333333Y-135233333D01*
X128285714Y-135185714D01*
X128238095Y-135090476D01*
X128238095Y-135042857D01*
X128285714Y-134947619D01*
X128333333Y-134900000D01*
X128428571Y-134852380D01*
X128619047Y-134852380D01*
X128714285Y-134900000D01*
X128761904Y-134947619D01*
X128809523Y-135042857D01*
X128809523Y-135090476D01*
X128761904Y-135185714D01*
X128714285Y-135233333D01*
X128619047Y-135280952D01*
X128428571Y-135280952D01*
X128333333Y-135328571D01*
X128285714Y-135376190D01*
X128238095Y-135471428D01*
X128238095Y-135661904D01*
X128285714Y-135757142D01*
X128333333Y-135804761D01*
X128428571Y-135852380D01*
X128619047Y-135852380D01*
X128714285Y-135804761D01*
X128761904Y-135757142D01*
X128809523Y-135661904D01*
X128809523Y-135471428D01*
X128761904Y-135376190D01*
X128714285Y-135328571D01*
X128619047Y-135280952D01*
X129761904Y-135852380D02*
X129190476Y-135852380D01*
X129476190Y-135852380D02*
X129476190Y-134852380D01*
X129380952Y-134995238D01*
X129285714Y-135090476D01*
X129190476Y-135138095D01*
X130333333Y-135280952D02*
X130238095Y-135233333D01*
X130190476Y-135185714D01*
X130142857Y-135090476D01*
X130142857Y-135042857D01*
X130190476Y-134947619D01*
X130238095Y-134900000D01*
X130333333Y-134852380D01*
X130523809Y-134852380D01*
X130619047Y-134900000D01*
X130666666Y-134947619D01*
X130714285Y-135042857D01*
X130714285Y-135090476D01*
X130666666Y-135185714D01*
X130619047Y-135233333D01*
X130523809Y-135280952D01*
X130333333Y-135280952D01*
X130238095Y-135328571D01*
X130190476Y-135376190D01*
X130142857Y-135471428D01*
X130142857Y-135661904D01*
X130190476Y-135757142D01*
X130238095Y-135804761D01*
X130333333Y-135852380D01*
X130523809Y-135852380D01*
X130619047Y-135804761D01*
X130666666Y-135757142D01*
X130714285Y-135661904D01*
X130714285Y-135471428D01*
X130666666Y-135376190D01*
X130619047Y-135328571D01*
X130523809Y-135280952D01*
X118538095Y-136252380D02*
X118538095Y-135252380D01*
X119109523Y-136252380D02*
X118680952Y-135680952D01*
X119109523Y-135252380D02*
X118538095Y-135823809D01*
%TO.C,D2*%
X61761904Y-119452380D02*
X61761904Y-118452380D01*
X62000000Y-118452380D01*
X62142857Y-118500000D01*
X62238095Y-118595238D01*
X62285714Y-118690476D01*
X62333333Y-118880952D01*
X62333333Y-119023809D01*
X62285714Y-119214285D01*
X62238095Y-119309523D01*
X62142857Y-119404761D01*
X62000000Y-119452380D01*
X61761904Y-119452380D01*
X62714285Y-118547619D02*
X62761904Y-118500000D01*
X62857142Y-118452380D01*
X63095238Y-118452380D01*
X63190476Y-118500000D01*
X63238095Y-118547619D01*
X63285714Y-118642857D01*
X63285714Y-118738095D01*
X63238095Y-118880952D01*
X62666666Y-119452380D01*
X63285714Y-119452380D01*
X61009523Y-119852380D02*
X61580952Y-119852380D01*
X61295238Y-120852380D02*
X61295238Y-119852380D01*
X61771428Y-119852380D02*
X62104761Y-120852380D01*
X62438095Y-119852380D01*
X62723809Y-120804761D02*
X62866666Y-120852380D01*
X63104761Y-120852380D01*
X63200000Y-120804761D01*
X63247619Y-120757142D01*
X63295238Y-120661904D01*
X63295238Y-120566666D01*
X63247619Y-120471428D01*
X63200000Y-120423809D01*
X63104761Y-120376190D01*
X62914285Y-120328571D01*
X62819047Y-120280952D01*
X62771428Y-120233333D01*
X62723809Y-120138095D01*
X62723809Y-120042857D01*
X62771428Y-119947619D01*
X62819047Y-119900000D01*
X62914285Y-119852380D01*
X63152380Y-119852380D01*
X63295238Y-119900000D01*
X63138095Y-124452380D02*
X63138095Y-123452380D01*
X63709523Y-124452380D02*
X63280952Y-123880952D01*
X63709523Y-123452380D02*
X63138095Y-124023809D01*
%TO.C,D3*%
X52561904Y-98152380D02*
X52561904Y-97152380D01*
X52800000Y-97152380D01*
X52942857Y-97200000D01*
X53038095Y-97295238D01*
X53085714Y-97390476D01*
X53133333Y-97580952D01*
X53133333Y-97723809D01*
X53085714Y-97914285D01*
X53038095Y-98009523D01*
X52942857Y-98104761D01*
X52800000Y-98152380D01*
X52561904Y-98152380D01*
X53466666Y-97152380D02*
X54085714Y-97152380D01*
X53752380Y-97533333D01*
X53895238Y-97533333D01*
X53990476Y-97580952D01*
X54038095Y-97628571D01*
X54085714Y-97723809D01*
X54085714Y-97961904D01*
X54038095Y-98057142D01*
X53990476Y-98104761D01*
X53895238Y-98152380D01*
X53609523Y-98152380D01*
X53514285Y-98104761D01*
X53466666Y-98057142D01*
X51809523Y-98552380D02*
X52380952Y-98552380D01*
X52095238Y-99552380D02*
X52095238Y-98552380D01*
X52571428Y-98552380D02*
X52904761Y-99552380D01*
X53238095Y-98552380D01*
X53523809Y-99504761D02*
X53666666Y-99552380D01*
X53904761Y-99552380D01*
X54000000Y-99504761D01*
X54047619Y-99457142D01*
X54095238Y-99361904D01*
X54095238Y-99266666D01*
X54047619Y-99171428D01*
X54000000Y-99123809D01*
X53904761Y-99076190D01*
X53714285Y-99028571D01*
X53619047Y-98980952D01*
X53571428Y-98933333D01*
X53523809Y-98838095D01*
X53523809Y-98742857D01*
X53571428Y-98647619D01*
X53619047Y-98600000D01*
X53714285Y-98552380D01*
X53952380Y-98552380D01*
X54095238Y-98600000D01*
X53938095Y-103152380D02*
X53938095Y-102152380D01*
X54509523Y-103152380D02*
X54080952Y-102580952D01*
X54509523Y-102152380D02*
X53938095Y-102723809D01*
%TO.C,TP4*%
X58238095Y-71854380D02*
X58809523Y-71854380D01*
X58523809Y-72854380D02*
X58523809Y-71854380D01*
X59142857Y-72854380D02*
X59142857Y-71854380D01*
X59523809Y-71854380D01*
X59619047Y-71902000D01*
X59666666Y-71949619D01*
X59714285Y-72044857D01*
X59714285Y-72187714D01*
X59666666Y-72282952D01*
X59619047Y-72330571D01*
X59523809Y-72378190D01*
X59142857Y-72378190D01*
X60571428Y-72187714D02*
X60571428Y-72854380D01*
X60333333Y-71806761D02*
X60095238Y-72521047D01*
X60714285Y-72521047D01*
X58738095Y-75950000D02*
X58642857Y-75902380D01*
X58500000Y-75902380D01*
X58357142Y-75950000D01*
X58261904Y-76045238D01*
X58214285Y-76140476D01*
X58166666Y-76330952D01*
X58166666Y-76473809D01*
X58214285Y-76664285D01*
X58261904Y-76759523D01*
X58357142Y-76854761D01*
X58500000Y-76902380D01*
X58595238Y-76902380D01*
X58738095Y-76854761D01*
X58785714Y-76807142D01*
X58785714Y-76473809D01*
X58595238Y-76473809D01*
X59214285Y-76902380D02*
X59214285Y-75902380D01*
X59785714Y-76902380D01*
X59785714Y-75902380D01*
X60261904Y-76902380D02*
X60261904Y-75902380D01*
X60500000Y-75902380D01*
X60642857Y-75950000D01*
X60738095Y-76045238D01*
X60785714Y-76140476D01*
X60833333Y-76330952D01*
X60833333Y-76473809D01*
X60785714Y-76664285D01*
X60738095Y-76759523D01*
X60642857Y-76854761D01*
X60500000Y-76902380D01*
X60261904Y-76902380D01*
%TO.C,FB1*%
X85166666Y-132928571D02*
X84833333Y-132928571D01*
X84833333Y-133452380D02*
X84833333Y-132452380D01*
X85309523Y-132452380D01*
X86023809Y-132928571D02*
X86166666Y-132976190D01*
X86214285Y-133023809D01*
X86261904Y-133119047D01*
X86261904Y-133261904D01*
X86214285Y-133357142D01*
X86166666Y-133404761D01*
X86071428Y-133452380D01*
X85690476Y-133452380D01*
X85690476Y-132452380D01*
X86023809Y-132452380D01*
X86119047Y-132500000D01*
X86166666Y-132547619D01*
X86214285Y-132642857D01*
X86214285Y-132738095D01*
X86166666Y-132833333D01*
X86119047Y-132880952D01*
X86023809Y-132928571D01*
X85690476Y-132928571D01*
X87214285Y-133452380D02*
X86642857Y-133452380D01*
X86928571Y-133452380D02*
X86928571Y-132452380D01*
X86833333Y-132595238D01*
X86738095Y-132690476D01*
X86642857Y-132738095D01*
%TO.C,TP1*%
X135538095Y-116454380D02*
X136109523Y-116454380D01*
X135823809Y-117454380D02*
X135823809Y-116454380D01*
X136442857Y-117454380D02*
X136442857Y-116454380D01*
X136823809Y-116454380D01*
X136919047Y-116502000D01*
X136966666Y-116549619D01*
X137014285Y-116644857D01*
X137014285Y-116787714D01*
X136966666Y-116882952D01*
X136919047Y-116930571D01*
X136823809Y-116978190D01*
X136442857Y-116978190D01*
X137966666Y-117454380D02*
X137395238Y-117454380D01*
X137680952Y-117454380D02*
X137680952Y-116454380D01*
X137585714Y-116597238D01*
X137490476Y-116692476D01*
X137395238Y-116740095D01*
X136180952Y-121502380D02*
X135847619Y-121026190D01*
X135609523Y-121502380D02*
X135609523Y-120502380D01*
X135990476Y-120502380D01*
X136085714Y-120550000D01*
X136133333Y-120597619D01*
X136180952Y-120692857D01*
X136180952Y-120835714D01*
X136133333Y-120930952D01*
X136085714Y-120978571D01*
X135990476Y-121026190D01*
X135609523Y-121026190D01*
X136609523Y-120978571D02*
X136942857Y-120978571D01*
X137085714Y-121502380D02*
X136609523Y-121502380D01*
X136609523Y-120502380D01*
X137085714Y-120502380D01*
X138038095Y-121502380D02*
X137466666Y-121502380D01*
X137752380Y-121502380D02*
X137752380Y-120502380D01*
X137657142Y-120645238D01*
X137561904Y-120740476D01*
X137466666Y-120788095D01*
%TO.C,JP1*%
X64166666Y-93752380D02*
X64166666Y-94466666D01*
X64119047Y-94609523D01*
X64023809Y-94704761D01*
X63880952Y-94752380D01*
X63785714Y-94752380D01*
X64642857Y-94752380D02*
X64642857Y-93752380D01*
X65023809Y-93752380D01*
X65119047Y-93800000D01*
X65166666Y-93847619D01*
X65214285Y-93942857D01*
X65214285Y-94085714D01*
X65166666Y-94180952D01*
X65119047Y-94228571D01*
X65023809Y-94276190D01*
X64642857Y-94276190D01*
X66166666Y-94752380D02*
X65595238Y-94752380D01*
X65880952Y-94752380D02*
X65880952Y-93752380D01*
X65785714Y-93895238D01*
X65690476Y-93990476D01*
X65595238Y-94038095D01*
X62761904Y-90528571D02*
X62904761Y-90576190D01*
X62952380Y-90623809D01*
X63000000Y-90719047D01*
X63000000Y-90861904D01*
X62952380Y-90957142D01*
X62904761Y-91004761D01*
X62809523Y-91052380D01*
X62428571Y-91052380D01*
X62428571Y-90052380D01*
X62761904Y-90052380D01*
X62857142Y-90100000D01*
X62904761Y-90147619D01*
X62952380Y-90242857D01*
X62952380Y-90338095D01*
X62904761Y-90433333D01*
X62857142Y-90480952D01*
X62761904Y-90528571D01*
X62428571Y-90528571D01*
X63619047Y-90576190D02*
X63619047Y-91052380D01*
X63285714Y-90052380D02*
X63619047Y-90576190D01*
X63952380Y-90052380D01*
X64285714Y-91052380D02*
X64285714Y-90052380D01*
X64666666Y-90052380D01*
X64761904Y-90100000D01*
X64809523Y-90147619D01*
X64857142Y-90242857D01*
X64857142Y-90385714D01*
X64809523Y-90480952D01*
X64761904Y-90528571D01*
X64666666Y-90576190D01*
X64285714Y-90576190D01*
X65238095Y-90766666D02*
X65714285Y-90766666D01*
X65142857Y-91052380D02*
X65476190Y-90052380D01*
X65809523Y-91052380D01*
X66095238Y-91004761D02*
X66238095Y-91052380D01*
X66476190Y-91052380D01*
X66571428Y-91004761D01*
X66619047Y-90957142D01*
X66666666Y-90861904D01*
X66666666Y-90766666D01*
X66619047Y-90671428D01*
X66571428Y-90623809D01*
X66476190Y-90576190D01*
X66285714Y-90528571D01*
X66190476Y-90480952D01*
X66142857Y-90433333D01*
X66095238Y-90338095D01*
X66095238Y-90242857D01*
X66142857Y-90147619D01*
X66190476Y-90100000D01*
X66285714Y-90052380D01*
X66523809Y-90052380D01*
X66666666Y-90100000D01*
X67047619Y-91004761D02*
X67190476Y-91052380D01*
X67428571Y-91052380D01*
X67523809Y-91004761D01*
X67571428Y-90957142D01*
X67619047Y-90861904D01*
X67619047Y-90766666D01*
X67571428Y-90671428D01*
X67523809Y-90623809D01*
X67428571Y-90576190D01*
X67238095Y-90528571D01*
X67142857Y-90480952D01*
X67095238Y-90433333D01*
X67047619Y-90338095D01*
X67047619Y-90242857D01*
X67095238Y-90147619D01*
X67142857Y-90100000D01*
X67238095Y-90052380D01*
X67476190Y-90052380D01*
X67619047Y-90100000D01*
%TO.C,C3*%
X87833333Y-141057142D02*
X87785714Y-141104761D01*
X87642857Y-141152380D01*
X87547619Y-141152380D01*
X87404761Y-141104761D01*
X87309523Y-141009523D01*
X87261904Y-140914285D01*
X87214285Y-140723809D01*
X87214285Y-140580952D01*
X87261904Y-140390476D01*
X87309523Y-140295238D01*
X87404761Y-140200000D01*
X87547619Y-140152380D01*
X87642857Y-140152380D01*
X87785714Y-140200000D01*
X87833333Y-140247619D01*
X88166666Y-140152380D02*
X88785714Y-140152380D01*
X88452380Y-140533333D01*
X88595238Y-140533333D01*
X88690476Y-140580952D01*
X88738095Y-140628571D01*
X88785714Y-140723809D01*
X88785714Y-140961904D01*
X88738095Y-141057142D01*
X88690476Y-141104761D01*
X88595238Y-141152380D01*
X88309523Y-141152380D01*
X88214285Y-141104761D01*
X88166666Y-141057142D01*
X87852380Y-139652380D02*
X87280952Y-139652380D01*
X87566666Y-139652380D02*
X87566666Y-138652380D01*
X87471428Y-138795238D01*
X87376190Y-138890476D01*
X87280952Y-138938095D01*
X88471428Y-138652380D02*
X88566666Y-138652380D01*
X88661904Y-138700000D01*
X88709523Y-138747619D01*
X88757142Y-138842857D01*
X88804761Y-139033333D01*
X88804761Y-139271428D01*
X88757142Y-139461904D01*
X88709523Y-139557142D01*
X88661904Y-139604761D01*
X88566666Y-139652380D01*
X88471428Y-139652380D01*
X88376190Y-139604761D01*
X88328571Y-139557142D01*
X88280952Y-139461904D01*
X88233333Y-139271428D01*
X88233333Y-139033333D01*
X88280952Y-138842857D01*
X88328571Y-138747619D01*
X88376190Y-138700000D01*
X88471428Y-138652380D01*
X89423809Y-138652380D02*
X89519047Y-138652380D01*
X89614285Y-138700000D01*
X89661904Y-138747619D01*
X89709523Y-138842857D01*
X89757142Y-139033333D01*
X89757142Y-139271428D01*
X89709523Y-139461904D01*
X89661904Y-139557142D01*
X89614285Y-139604761D01*
X89519047Y-139652380D01*
X89423809Y-139652380D01*
X89328571Y-139604761D01*
X89280952Y-139557142D01*
X89233333Y-139461904D01*
X89185714Y-139271428D01*
X89185714Y-139033333D01*
X89233333Y-138842857D01*
X89280952Y-138747619D01*
X89328571Y-138700000D01*
X89423809Y-138652380D01*
X90185714Y-138985714D02*
X90185714Y-139652380D01*
X90185714Y-139080952D02*
X90233333Y-139033333D01*
X90328571Y-138985714D01*
X90471428Y-138985714D01*
X90566666Y-139033333D01*
X90614285Y-139128571D01*
X90614285Y-139652380D01*
X91423809Y-139128571D02*
X91090476Y-139128571D01*
X91090476Y-139652380D02*
X91090476Y-138652380D01*
X91566666Y-138652380D01*
%TO.C,C1*%
X82933333Y-130457142D02*
X82885714Y-130504761D01*
X82742857Y-130552380D01*
X82647619Y-130552380D01*
X82504761Y-130504761D01*
X82409523Y-130409523D01*
X82361904Y-130314285D01*
X82314285Y-130123809D01*
X82314285Y-129980952D01*
X82361904Y-129790476D01*
X82409523Y-129695238D01*
X82504761Y-129600000D01*
X82647619Y-129552380D01*
X82742857Y-129552380D01*
X82885714Y-129600000D01*
X82933333Y-129647619D01*
X83885714Y-130552380D02*
X83314285Y-130552380D01*
X83600000Y-130552380D02*
X83600000Y-129552380D01*
X83504761Y-129695238D01*
X83409523Y-129790476D01*
X83314285Y-129838095D01*
X75152380Y-126952380D02*
X74580952Y-126952380D01*
X74866666Y-126952380D02*
X74866666Y-125952380D01*
X74771428Y-126095238D01*
X74676190Y-126190476D01*
X74580952Y-126238095D01*
X75771428Y-125952380D02*
X75866666Y-125952380D01*
X75961904Y-126000000D01*
X76009523Y-126047619D01*
X76057142Y-126142857D01*
X76104761Y-126333333D01*
X76104761Y-126571428D01*
X76057142Y-126761904D01*
X76009523Y-126857142D01*
X75961904Y-126904761D01*
X75866666Y-126952380D01*
X75771428Y-126952380D01*
X75676190Y-126904761D01*
X75628571Y-126857142D01*
X75580952Y-126761904D01*
X75533333Y-126571428D01*
X75533333Y-126333333D01*
X75580952Y-126142857D01*
X75628571Y-126047619D01*
X75676190Y-126000000D01*
X75771428Y-125952380D01*
X76723809Y-125952380D02*
X76819047Y-125952380D01*
X76914285Y-126000000D01*
X76961904Y-126047619D01*
X77009523Y-126142857D01*
X77057142Y-126333333D01*
X77057142Y-126571428D01*
X77009523Y-126761904D01*
X76961904Y-126857142D01*
X76914285Y-126904761D01*
X76819047Y-126952380D01*
X76723809Y-126952380D01*
X76628571Y-126904761D01*
X76580952Y-126857142D01*
X76533333Y-126761904D01*
X76485714Y-126571428D01*
X76485714Y-126333333D01*
X76533333Y-126142857D01*
X76580952Y-126047619D01*
X76628571Y-126000000D01*
X76723809Y-125952380D01*
X77485714Y-126285714D02*
X77485714Y-126952380D01*
X77485714Y-126380952D02*
X77533333Y-126333333D01*
X77628571Y-126285714D01*
X77771428Y-126285714D01*
X77866666Y-126333333D01*
X77914285Y-126428571D01*
X77914285Y-126952380D01*
X78723809Y-126428571D02*
X78390476Y-126428571D01*
X78390476Y-126952380D02*
X78390476Y-125952380D01*
X78866666Y-125952380D01*
%TO.C,U1*%
X106718095Y-146482380D02*
X106718095Y-147291904D01*
X106765714Y-147387142D01*
X106813333Y-147434761D01*
X106908571Y-147482380D01*
X107099047Y-147482380D01*
X107194285Y-147434761D01*
X107241904Y-147387142D01*
X107289523Y-147291904D01*
X107289523Y-146482380D01*
X108289523Y-147482380D02*
X107718095Y-147482380D01*
X108003809Y-147482380D02*
X108003809Y-146482380D01*
X107908571Y-146625238D01*
X107813333Y-146720476D01*
X107718095Y-146768095D01*
X101337142Y-94562380D02*
X101337142Y-93562380D01*
X101718095Y-93562380D01*
X101813333Y-93610000D01*
X101860952Y-93657619D01*
X101908571Y-93752857D01*
X101908571Y-93895714D01*
X101860952Y-93990952D01*
X101813333Y-94038571D01*
X101718095Y-94086190D01*
X101337142Y-94086190D01*
X102337142Y-94562380D02*
X102337142Y-93562380D01*
X103384761Y-94467142D02*
X103337142Y-94514761D01*
X103194285Y-94562380D01*
X103099047Y-94562380D01*
X102956190Y-94514761D01*
X102860952Y-94419523D01*
X102813333Y-94324285D01*
X102765714Y-94133809D01*
X102765714Y-93990952D01*
X102813333Y-93800476D01*
X102860952Y-93705238D01*
X102956190Y-93610000D01*
X103099047Y-93562380D01*
X103194285Y-93562380D01*
X103337142Y-93610000D01*
X103384761Y-93657619D01*
X104337142Y-94562380D02*
X103765714Y-94562380D01*
X104051428Y-94562380D02*
X104051428Y-93562380D01*
X103956190Y-93705238D01*
X103860952Y-93800476D01*
X103765714Y-93848095D01*
X104908571Y-93990952D02*
X104813333Y-93943333D01*
X104765714Y-93895714D01*
X104718095Y-93800476D01*
X104718095Y-93752857D01*
X104765714Y-93657619D01*
X104813333Y-93610000D01*
X104908571Y-93562380D01*
X105099047Y-93562380D01*
X105194285Y-93610000D01*
X105241904Y-93657619D01*
X105289523Y-93752857D01*
X105289523Y-93800476D01*
X105241904Y-93895714D01*
X105194285Y-93943333D01*
X105099047Y-93990952D01*
X104908571Y-93990952D01*
X104813333Y-94038571D01*
X104765714Y-94086190D01*
X104718095Y-94181428D01*
X104718095Y-94371904D01*
X104765714Y-94467142D01*
X104813333Y-94514761D01*
X104908571Y-94562380D01*
X105099047Y-94562380D01*
X105194285Y-94514761D01*
X105241904Y-94467142D01*
X105289523Y-94371904D01*
X105289523Y-94181428D01*
X105241904Y-94086190D01*
X105194285Y-94038571D01*
X105099047Y-93990952D01*
X106051428Y-94038571D02*
X105718095Y-94038571D01*
X105718095Y-94562380D02*
X105718095Y-93562380D01*
X106194285Y-93562380D01*
X107003809Y-93895714D02*
X107003809Y-94562380D01*
X106765714Y-93514761D02*
X106527619Y-94229047D01*
X107146666Y-94229047D01*
X108003809Y-93562380D02*
X107527619Y-93562380D01*
X107480000Y-94038571D01*
X107527619Y-93990952D01*
X107622857Y-93943333D01*
X107860952Y-93943333D01*
X107956190Y-93990952D01*
X108003809Y-94038571D01*
X108051428Y-94133809D01*
X108051428Y-94371904D01*
X108003809Y-94467142D01*
X107956190Y-94514761D01*
X107860952Y-94562380D01*
X107622857Y-94562380D01*
X107527619Y-94514761D01*
X107480000Y-94467142D01*
X108480000Y-94562380D02*
X108480000Y-93562380D01*
X109051428Y-94562380D02*
X108622857Y-93990952D01*
X109051428Y-93562380D02*
X108480000Y-94133809D01*
X109956190Y-93562380D02*
X109480000Y-93562380D01*
X109432380Y-94038571D01*
X109480000Y-93990952D01*
X109575238Y-93943333D01*
X109813333Y-93943333D01*
X109908571Y-93990952D01*
X109956190Y-94038571D01*
X110003809Y-94133809D01*
X110003809Y-94371904D01*
X109956190Y-94467142D01*
X109908571Y-94514761D01*
X109813333Y-94562380D01*
X109575238Y-94562380D01*
X109480000Y-94514761D01*
X109432380Y-94467142D01*
X110622857Y-93562380D02*
X110718095Y-93562380D01*
X110813333Y-93610000D01*
X110860952Y-93657619D01*
X110908571Y-93752857D01*
X110956190Y-93943333D01*
X110956190Y-94181428D01*
X110908571Y-94371904D01*
X110860952Y-94467142D01*
X110813333Y-94514761D01*
X110718095Y-94562380D01*
X110622857Y-94562380D01*
X110527619Y-94514761D01*
X110480000Y-94467142D01*
X110432380Y-94371904D01*
X110384761Y-94181428D01*
X110384761Y-93943333D01*
X110432380Y-93752857D01*
X110480000Y-93657619D01*
X110527619Y-93610000D01*
X110622857Y-93562380D01*
X111384761Y-94181428D02*
X112146666Y-94181428D01*
X112622857Y-94562380D02*
X112622857Y-93562380D01*
X113099047Y-94562380D02*
X113099047Y-93562380D01*
X113480000Y-93562380D01*
X113575238Y-93610000D01*
X113622857Y-93657619D01*
X113670476Y-93752857D01*
X113670476Y-93895714D01*
X113622857Y-93990952D01*
X113575238Y-94038571D01*
X113480000Y-94086190D01*
X113099047Y-94086190D01*
%TO.C,TP3*%
X64538095Y-71754380D02*
X65109523Y-71754380D01*
X64823809Y-72754380D02*
X64823809Y-71754380D01*
X65442857Y-72754380D02*
X65442857Y-71754380D01*
X65823809Y-71754380D01*
X65919047Y-71802000D01*
X65966666Y-71849619D01*
X66014285Y-71944857D01*
X66014285Y-72087714D01*
X65966666Y-72182952D01*
X65919047Y-72230571D01*
X65823809Y-72278190D01*
X65442857Y-72278190D01*
X66347619Y-71754380D02*
X66966666Y-71754380D01*
X66633333Y-72135333D01*
X66776190Y-72135333D01*
X66871428Y-72182952D01*
X66919047Y-72230571D01*
X66966666Y-72325809D01*
X66966666Y-72563904D01*
X66919047Y-72659142D01*
X66871428Y-72706761D01*
X66776190Y-72754380D01*
X66490476Y-72754380D01*
X66395238Y-72706761D01*
X66347619Y-72659142D01*
X63657142Y-75802380D02*
X63990476Y-76802380D01*
X64323809Y-75802380D01*
X65228571Y-76707142D02*
X65180952Y-76754761D01*
X65038095Y-76802380D01*
X64942857Y-76802380D01*
X64800000Y-76754761D01*
X64704761Y-76659523D01*
X64657142Y-76564285D01*
X64609523Y-76373809D01*
X64609523Y-76230952D01*
X64657142Y-76040476D01*
X64704761Y-75945238D01*
X64800000Y-75850000D01*
X64942857Y-75802380D01*
X65038095Y-75802380D01*
X65180952Y-75850000D01*
X65228571Y-75897619D01*
X65609523Y-76516666D02*
X66085714Y-76516666D01*
X65514285Y-76802380D02*
X65847619Y-75802380D01*
X66180952Y-76802380D01*
X67085714Y-76802380D02*
X66752380Y-76326190D01*
X66514285Y-76802380D02*
X66514285Y-75802380D01*
X66895238Y-75802380D01*
X66990476Y-75850000D01*
X67038095Y-75897619D01*
X67085714Y-75992857D01*
X67085714Y-76135714D01*
X67038095Y-76230952D01*
X66990476Y-76278571D01*
X66895238Y-76326190D01*
X66514285Y-76326190D01*
X67371428Y-75802380D02*
X67942857Y-75802380D01*
X67657142Y-76802380D02*
X67657142Y-75802380D01*
%TO.C,TP2*%
X85238095Y-123654380D02*
X85809523Y-123654380D01*
X85523809Y-124654380D02*
X85523809Y-123654380D01*
X86142857Y-124654380D02*
X86142857Y-123654380D01*
X86523809Y-123654380D01*
X86619047Y-123702000D01*
X86666666Y-123749619D01*
X86714285Y-123844857D01*
X86714285Y-123987714D01*
X86666666Y-124082952D01*
X86619047Y-124130571D01*
X86523809Y-124178190D01*
X86142857Y-124178190D01*
X87095238Y-123749619D02*
X87142857Y-123702000D01*
X87238095Y-123654380D01*
X87476190Y-123654380D01*
X87571428Y-123702000D01*
X87619047Y-123749619D01*
X87666666Y-123844857D01*
X87666666Y-123940095D01*
X87619047Y-124082952D01*
X87047619Y-124654380D01*
X87666666Y-124654380D01*
X84666666Y-127702380D02*
X85000000Y-128702380D01*
X85333333Y-127702380D01*
X85666666Y-127702380D02*
X85666666Y-128511904D01*
X85714285Y-128607142D01*
X85761904Y-128654761D01*
X85857142Y-128702380D01*
X86047619Y-128702380D01*
X86142857Y-128654761D01*
X86190476Y-128607142D01*
X86238095Y-128511904D01*
X86238095Y-127702380D01*
X86666666Y-128654761D02*
X86809523Y-128702380D01*
X87047619Y-128702380D01*
X87142857Y-128654761D01*
X87190476Y-128607142D01*
X87238095Y-128511904D01*
X87238095Y-128416666D01*
X87190476Y-128321428D01*
X87142857Y-128273809D01*
X87047619Y-128226190D01*
X86857142Y-128178571D01*
X86761904Y-128130952D01*
X86714285Y-128083333D01*
X86666666Y-127988095D01*
X86666666Y-127892857D01*
X86714285Y-127797619D01*
X86761904Y-127750000D01*
X86857142Y-127702380D01*
X87095238Y-127702380D01*
X87238095Y-127750000D01*
X88000000Y-128178571D02*
X88142857Y-128226190D01*
X88190476Y-128273809D01*
X88238095Y-128369047D01*
X88238095Y-128511904D01*
X88190476Y-128607142D01*
X88142857Y-128654761D01*
X88047619Y-128702380D01*
X87666666Y-128702380D01*
X87666666Y-127702380D01*
X88000000Y-127702380D01*
X88095238Y-127750000D01*
X88142857Y-127797619D01*
X88190476Y-127892857D01*
X88190476Y-127988095D01*
X88142857Y-128083333D01*
X88095238Y-128130952D01*
X88000000Y-128178571D01*
X87666666Y-128178571D01*
%TO.C,R2*%
X129433333Y-141852380D02*
X129100000Y-141376190D01*
X128861904Y-141852380D02*
X128861904Y-140852380D01*
X129242857Y-140852380D01*
X129338095Y-140900000D01*
X129385714Y-140947619D01*
X129433333Y-141042857D01*
X129433333Y-141185714D01*
X129385714Y-141280952D01*
X129338095Y-141328571D01*
X129242857Y-141376190D01*
X128861904Y-141376190D01*
X129814285Y-140947619D02*
X129861904Y-140900000D01*
X129957142Y-140852380D01*
X130195238Y-140852380D01*
X130290476Y-140900000D01*
X130338095Y-140947619D01*
X130385714Y-141042857D01*
X130385714Y-141138095D01*
X130338095Y-141280952D01*
X129766666Y-141852380D01*
X130385714Y-141852380D01*
X131904761Y-141852380D02*
X131333333Y-141852380D01*
X131619047Y-141852380D02*
X131619047Y-140852380D01*
X131523809Y-140995238D01*
X131428571Y-141090476D01*
X131333333Y-141138095D01*
X132523809Y-140852380D02*
X132619047Y-140852380D01*
X132714285Y-140900000D01*
X132761904Y-140947619D01*
X132809523Y-141042857D01*
X132857142Y-141233333D01*
X132857142Y-141471428D01*
X132809523Y-141661904D01*
X132761904Y-141757142D01*
X132714285Y-141804761D01*
X132619047Y-141852380D01*
X132523809Y-141852380D01*
X132428571Y-141804761D01*
X132380952Y-141757142D01*
X132333333Y-141661904D01*
X132285714Y-141471428D01*
X132285714Y-141233333D01*
X132333333Y-141042857D01*
X132380952Y-140947619D01*
X132428571Y-140900000D01*
X132523809Y-140852380D01*
X133285714Y-141852380D02*
X133285714Y-140852380D01*
X133380952Y-141471428D02*
X133666666Y-141852380D01*
X133666666Y-141185714D02*
X133285714Y-141566666D01*
%TO.C,R5*%
X137233333Y-72352380D02*
X136900000Y-71876190D01*
X136661904Y-72352380D02*
X136661904Y-71352380D01*
X137042857Y-71352380D01*
X137138095Y-71400000D01*
X137185714Y-71447619D01*
X137233333Y-71542857D01*
X137233333Y-71685714D01*
X137185714Y-71780952D01*
X137138095Y-71828571D01*
X137042857Y-71876190D01*
X136661904Y-71876190D01*
X138138095Y-71352380D02*
X137661904Y-71352380D01*
X137614285Y-71828571D01*
X137661904Y-71780952D01*
X137757142Y-71733333D01*
X137995238Y-71733333D01*
X138090476Y-71780952D01*
X138138095Y-71828571D01*
X138185714Y-71923809D01*
X138185714Y-72161904D01*
X138138095Y-72257142D01*
X138090476Y-72304761D01*
X137995238Y-72352380D01*
X137757142Y-72352380D01*
X137661904Y-72304761D01*
X137614285Y-72257142D01*
X137204761Y-73852380D02*
X136633333Y-73852380D01*
X136919047Y-73852380D02*
X136919047Y-72852380D01*
X136823809Y-72995238D01*
X136728571Y-73090476D01*
X136633333Y-73138095D01*
X137823809Y-72852380D02*
X137919047Y-72852380D01*
X138014285Y-72900000D01*
X138061904Y-72947619D01*
X138109523Y-73042857D01*
X138157142Y-73233333D01*
X138157142Y-73471428D01*
X138109523Y-73661904D01*
X138061904Y-73757142D01*
X138014285Y-73804761D01*
X137919047Y-73852380D01*
X137823809Y-73852380D01*
X137728571Y-73804761D01*
X137680952Y-73757142D01*
X137633333Y-73661904D01*
X137585714Y-73471428D01*
X137585714Y-73233333D01*
X137633333Y-73042857D01*
X137680952Y-72947619D01*
X137728571Y-72900000D01*
X137823809Y-72852380D01*
X138585714Y-73852380D02*
X138585714Y-72852380D01*
X138680952Y-73471428D02*
X138966666Y-73852380D01*
X138966666Y-73185714D02*
X138585714Y-73566666D01*
%TO.C,R4*%
X67533333Y-106552380D02*
X67200000Y-106076190D01*
X66961904Y-106552380D02*
X66961904Y-105552380D01*
X67342857Y-105552380D01*
X67438095Y-105600000D01*
X67485714Y-105647619D01*
X67533333Y-105742857D01*
X67533333Y-105885714D01*
X67485714Y-105980952D01*
X67438095Y-106028571D01*
X67342857Y-106076190D01*
X66961904Y-106076190D01*
X68390476Y-105885714D02*
X68390476Y-106552380D01*
X68152380Y-105504761D02*
X67914285Y-106219047D01*
X68533333Y-106219047D01*
X54604761Y-106552380D02*
X54033333Y-106552380D01*
X54319047Y-106552380D02*
X54319047Y-105552380D01*
X54223809Y-105695238D01*
X54128571Y-105790476D01*
X54033333Y-105838095D01*
X55223809Y-105552380D02*
X55319047Y-105552380D01*
X55414285Y-105600000D01*
X55461904Y-105647619D01*
X55509523Y-105742857D01*
X55557142Y-105933333D01*
X55557142Y-106171428D01*
X55509523Y-106361904D01*
X55461904Y-106457142D01*
X55414285Y-106504761D01*
X55319047Y-106552380D01*
X55223809Y-106552380D01*
X55128571Y-106504761D01*
X55080952Y-106457142D01*
X55033333Y-106361904D01*
X54985714Y-106171428D01*
X54985714Y-105933333D01*
X55033333Y-105742857D01*
X55080952Y-105647619D01*
X55128571Y-105600000D01*
X55223809Y-105552380D01*
X55985714Y-106552380D02*
X55985714Y-105552380D01*
X56080952Y-106171428D02*
X56366666Y-106552380D01*
X56366666Y-105885714D02*
X55985714Y-106266666D01*
%TO.C,R3*%
X67533333Y-110952380D02*
X67200000Y-110476190D01*
X66961904Y-110952380D02*
X66961904Y-109952380D01*
X67342857Y-109952380D01*
X67438095Y-110000000D01*
X67485714Y-110047619D01*
X67533333Y-110142857D01*
X67533333Y-110285714D01*
X67485714Y-110380952D01*
X67438095Y-110428571D01*
X67342857Y-110476190D01*
X66961904Y-110476190D01*
X67866666Y-109952380D02*
X68485714Y-109952380D01*
X68152380Y-110333333D01*
X68295238Y-110333333D01*
X68390476Y-110380952D01*
X68438095Y-110428571D01*
X68485714Y-110523809D01*
X68485714Y-110761904D01*
X68438095Y-110857142D01*
X68390476Y-110904761D01*
X68295238Y-110952380D01*
X68009523Y-110952380D01*
X67914285Y-110904761D01*
X67866666Y-110857142D01*
X52914285Y-109952380D02*
X53533333Y-109952380D01*
X53200000Y-110333333D01*
X53342857Y-110333333D01*
X53438095Y-110380952D01*
X53485714Y-110428571D01*
X53533333Y-110523809D01*
X53533333Y-110761904D01*
X53485714Y-110857142D01*
X53438095Y-110904761D01*
X53342857Y-110952380D01*
X53057142Y-110952380D01*
X52961904Y-110904761D01*
X52914285Y-110857142D01*
X53866666Y-109952380D02*
X54485714Y-109952380D01*
X54152380Y-110333333D01*
X54295238Y-110333333D01*
X54390476Y-110380952D01*
X54438095Y-110428571D01*
X54485714Y-110523809D01*
X54485714Y-110761904D01*
X54438095Y-110857142D01*
X54390476Y-110904761D01*
X54295238Y-110952380D01*
X54009523Y-110952380D01*
X53914285Y-110904761D01*
X53866666Y-110857142D01*
X55104761Y-109952380D02*
X55200000Y-109952380D01*
X55295238Y-110000000D01*
X55342857Y-110047619D01*
X55390476Y-110142857D01*
X55438095Y-110333333D01*
X55438095Y-110571428D01*
X55390476Y-110761904D01*
X55342857Y-110857142D01*
X55295238Y-110904761D01*
X55200000Y-110952380D01*
X55104761Y-110952380D01*
X55009523Y-110904761D01*
X54961904Y-110857142D01*
X54914285Y-110761904D01*
X54866666Y-110571428D01*
X54866666Y-110333333D01*
X54914285Y-110142857D01*
X54961904Y-110047619D01*
X55009523Y-110000000D01*
X55104761Y-109952380D01*
X56438095Y-110952380D02*
X56104761Y-110476190D01*
X55866666Y-110952380D02*
X55866666Y-109952380D01*
X56247619Y-109952380D01*
X56342857Y-110000000D01*
X56390476Y-110047619D01*
X56438095Y-110142857D01*
X56438095Y-110285714D01*
X56390476Y-110380952D01*
X56342857Y-110428571D01*
X56247619Y-110476190D01*
X55866666Y-110476190D01*
%TO.C,R1*%
X129433333Y-145152380D02*
X129100000Y-144676190D01*
X128861904Y-145152380D02*
X128861904Y-144152380D01*
X129242857Y-144152380D01*
X129338095Y-144200000D01*
X129385714Y-144247619D01*
X129433333Y-144342857D01*
X129433333Y-144485714D01*
X129385714Y-144580952D01*
X129338095Y-144628571D01*
X129242857Y-144676190D01*
X128861904Y-144676190D01*
X130385714Y-145152380D02*
X129814285Y-145152380D01*
X130100000Y-145152380D02*
X130100000Y-144152380D01*
X130004761Y-144295238D01*
X129909523Y-144390476D01*
X129814285Y-144438095D01*
X131314285Y-144152380D02*
X131933333Y-144152380D01*
X131600000Y-144533333D01*
X131742857Y-144533333D01*
X131838095Y-144580952D01*
X131885714Y-144628571D01*
X131933333Y-144723809D01*
X131933333Y-144961904D01*
X131885714Y-145057142D01*
X131838095Y-145104761D01*
X131742857Y-145152380D01*
X131457142Y-145152380D01*
X131361904Y-145104761D01*
X131314285Y-145057142D01*
X132266666Y-144152380D02*
X132885714Y-144152380D01*
X132552380Y-144533333D01*
X132695238Y-144533333D01*
X132790476Y-144580952D01*
X132838095Y-144628571D01*
X132885714Y-144723809D01*
X132885714Y-144961904D01*
X132838095Y-145057142D01*
X132790476Y-145104761D01*
X132695238Y-145152380D01*
X132409523Y-145152380D01*
X132314285Y-145104761D01*
X132266666Y-145057142D01*
X133504761Y-144152380D02*
X133600000Y-144152380D01*
X133695238Y-144200000D01*
X133742857Y-144247619D01*
X133790476Y-144342857D01*
X133838095Y-144533333D01*
X133838095Y-144771428D01*
X133790476Y-144961904D01*
X133742857Y-145057142D01*
X133695238Y-145104761D01*
X133600000Y-145152380D01*
X133504761Y-145152380D01*
X133409523Y-145104761D01*
X133361904Y-145057142D01*
X133314285Y-144961904D01*
X133266666Y-144771428D01*
X133266666Y-144533333D01*
X133314285Y-144342857D01*
X133361904Y-144247619D01*
X133409523Y-144200000D01*
X133504761Y-144152380D01*
X134838095Y-145152380D02*
X134504761Y-144676190D01*
X134266666Y-145152380D02*
X134266666Y-144152380D01*
X134647619Y-144152380D01*
X134742857Y-144200000D01*
X134790476Y-144247619D01*
X134838095Y-144342857D01*
X134838095Y-144485714D01*
X134790476Y-144580952D01*
X134742857Y-144628571D01*
X134647619Y-144676190D01*
X134266666Y-144676190D01*
%TO.C,Q1*%
X70404761Y-99647619D02*
X70309523Y-99600000D01*
X70214285Y-99504761D01*
X70071428Y-99361904D01*
X69976190Y-99314285D01*
X69880952Y-99314285D01*
X69928571Y-99552380D02*
X69833333Y-99504761D01*
X69738095Y-99409523D01*
X69690476Y-99219047D01*
X69690476Y-98885714D01*
X69738095Y-98695238D01*
X69833333Y-98600000D01*
X69928571Y-98552380D01*
X70119047Y-98552380D01*
X70214285Y-98600000D01*
X70309523Y-98695238D01*
X70357142Y-98885714D01*
X70357142Y-99219047D01*
X70309523Y-99409523D01*
X70214285Y-99504761D01*
X70119047Y-99552380D01*
X69928571Y-99552380D01*
X71309523Y-99552380D02*
X70738095Y-99552380D01*
X71023809Y-99552380D02*
X71023809Y-98552380D01*
X70928571Y-98695238D01*
X70833333Y-98790476D01*
X70738095Y-98838095D01*
X61906666Y-103052380D02*
X61906666Y-102052380D01*
X62287619Y-102052380D01*
X62382857Y-102100000D01*
X62430476Y-102147619D01*
X62478095Y-102242857D01*
X62478095Y-102385714D01*
X62430476Y-102480952D01*
X62382857Y-102528571D01*
X62287619Y-102576190D01*
X61906666Y-102576190D01*
X62906666Y-103052380D02*
X62906666Y-102052380D01*
X63240000Y-102766666D01*
X63573333Y-102052380D01*
X63573333Y-103052380D01*
X64240000Y-102052380D02*
X64430476Y-102052380D01*
X64525714Y-102100000D01*
X64620952Y-102195238D01*
X64668571Y-102385714D01*
X64668571Y-102719047D01*
X64620952Y-102909523D01*
X64525714Y-103004761D01*
X64430476Y-103052380D01*
X64240000Y-103052380D01*
X64144761Y-103004761D01*
X64049523Y-102909523D01*
X64001904Y-102719047D01*
X64001904Y-102385714D01*
X64049523Y-102195238D01*
X64144761Y-102100000D01*
X64240000Y-102052380D01*
X65049523Y-103004761D02*
X65192380Y-103052380D01*
X65430476Y-103052380D01*
X65525714Y-103004761D01*
X65573333Y-102957142D01*
X65620952Y-102861904D01*
X65620952Y-102766666D01*
X65573333Y-102671428D01*
X65525714Y-102623809D01*
X65430476Y-102576190D01*
X65240000Y-102528571D01*
X65144761Y-102480952D01*
X65097142Y-102433333D01*
X65049523Y-102338095D01*
X65049523Y-102242857D01*
X65097142Y-102147619D01*
X65144761Y-102100000D01*
X65240000Y-102052380D01*
X65478095Y-102052380D01*
X65620952Y-102100000D01*
%TO.C,J3*%
X99666666Y-77452380D02*
X99666666Y-78166666D01*
X99619047Y-78309523D01*
X99523809Y-78404761D01*
X99380952Y-78452380D01*
X99285714Y-78452380D01*
X100047619Y-77452380D02*
X100666666Y-77452380D01*
X100333333Y-77833333D01*
X100476190Y-77833333D01*
X100571428Y-77880952D01*
X100619047Y-77928571D01*
X100666666Y-78023809D01*
X100666666Y-78261904D01*
X100619047Y-78357142D01*
X100571428Y-78404761D01*
X100476190Y-78452380D01*
X100190476Y-78452380D01*
X100095238Y-78404761D01*
X100047619Y-78357142D01*
%TO.C,J2*%
X135966666Y-131182380D02*
X135966666Y-131896666D01*
X135919047Y-132039523D01*
X135823809Y-132134761D01*
X135680952Y-132182380D01*
X135585714Y-132182380D01*
X136395238Y-131277619D02*
X136442857Y-131230000D01*
X136538095Y-131182380D01*
X136776190Y-131182380D01*
X136871428Y-131230000D01*
X136919047Y-131277619D01*
X136966666Y-131372857D01*
X136966666Y-131468095D01*
X136919047Y-131610952D01*
X136347619Y-132182380D01*
X136966666Y-132182380D01*
X146223809Y-132252380D02*
X146223809Y-131252380D01*
X147271428Y-132157142D02*
X147223809Y-132204761D01*
X147080952Y-132252380D01*
X146985714Y-132252380D01*
X146842857Y-132204761D01*
X146747619Y-132109523D01*
X146700000Y-132014285D01*
X146652380Y-131823809D01*
X146652380Y-131680952D01*
X146700000Y-131490476D01*
X146747619Y-131395238D01*
X146842857Y-131300000D01*
X146985714Y-131252380D01*
X147080952Y-131252380D01*
X147223809Y-131300000D01*
X147271428Y-131347619D01*
X147652380Y-132204761D02*
X147795238Y-132252380D01*
X148033333Y-132252380D01*
X148128571Y-132204761D01*
X148176190Y-132157142D01*
X148223809Y-132061904D01*
X148223809Y-131966666D01*
X148176190Y-131871428D01*
X148128571Y-131823809D01*
X148033333Y-131776190D01*
X147842857Y-131728571D01*
X147747619Y-131680952D01*
X147700000Y-131633333D01*
X147652380Y-131538095D01*
X147652380Y-131442857D01*
X147700000Y-131347619D01*
X147747619Y-131300000D01*
X147842857Y-131252380D01*
X148080952Y-131252380D01*
X148223809Y-131300000D01*
X148652380Y-132252380D02*
X148652380Y-131252380D01*
X149033333Y-131252380D01*
X149128571Y-131300000D01*
X149176190Y-131347619D01*
X149223809Y-131442857D01*
X149223809Y-131585714D01*
X149176190Y-131680952D01*
X149128571Y-131728571D01*
X149033333Y-131776190D01*
X148652380Y-131776190D01*
%TO.C,J1*%
X62666666Y-136152380D02*
X62666666Y-136866666D01*
X62619047Y-137009523D01*
X62523809Y-137104761D01*
X62380952Y-137152380D01*
X62285714Y-137152380D01*
X63666666Y-137152380D02*
X63095238Y-137152380D01*
X63380952Y-137152380D02*
X63380952Y-136152380D01*
X63285714Y-136295238D01*
X63190476Y-136390476D01*
X63095238Y-136438095D01*
X62457142Y-137752380D02*
X62457142Y-138561904D01*
X62504761Y-138657142D01*
X62552380Y-138704761D01*
X62647619Y-138752380D01*
X62838095Y-138752380D01*
X62933333Y-138704761D01*
X62980952Y-138657142D01*
X63028571Y-138561904D01*
X63028571Y-137752380D01*
X63457142Y-138704761D02*
X63600000Y-138752380D01*
X63838095Y-138752380D01*
X63933333Y-138704761D01*
X63980952Y-138657142D01*
X64028571Y-138561904D01*
X64028571Y-138466666D01*
X63980952Y-138371428D01*
X63933333Y-138323809D01*
X63838095Y-138276190D01*
X63647619Y-138228571D01*
X63552380Y-138180952D01*
X63504761Y-138133333D01*
X63457142Y-138038095D01*
X63457142Y-137942857D01*
X63504761Y-137847619D01*
X63552380Y-137800000D01*
X63647619Y-137752380D01*
X63885714Y-137752380D01*
X64028571Y-137800000D01*
X64790476Y-138228571D02*
X64933333Y-138276190D01*
X64980952Y-138323809D01*
X65028571Y-138419047D01*
X65028571Y-138561904D01*
X64980952Y-138657142D01*
X64933333Y-138704761D01*
X64838095Y-138752380D01*
X64457142Y-138752380D01*
X64457142Y-137752380D01*
X64790476Y-137752380D01*
X64885714Y-137800000D01*
X64933333Y-137847619D01*
X64980952Y-137942857D01*
X64980952Y-138038095D01*
X64933333Y-138133333D01*
X64885714Y-138180952D01*
X64790476Y-138228571D01*
X64457142Y-138228571D01*
X65219047Y-138847619D02*
X65980952Y-138847619D01*
X66552380Y-138228571D02*
X66695238Y-138276190D01*
X66742857Y-138323809D01*
X66790476Y-138419047D01*
X66790476Y-138561904D01*
X66742857Y-138657142D01*
X66695238Y-138704761D01*
X66600000Y-138752380D01*
X66219047Y-138752380D01*
X66219047Y-137752380D01*
X66552380Y-137752380D01*
X66647619Y-137800000D01*
X66695238Y-137847619D01*
X66742857Y-137942857D01*
X66742857Y-138038095D01*
X66695238Y-138133333D01*
X66647619Y-138180952D01*
X66552380Y-138228571D01*
X66219047Y-138228571D01*
%TO.C,C8*%
X66383333Y-88557142D02*
X66335714Y-88604761D01*
X66192857Y-88652380D01*
X66097619Y-88652380D01*
X65954761Y-88604761D01*
X65859523Y-88509523D01*
X65811904Y-88414285D01*
X65764285Y-88223809D01*
X65764285Y-88080952D01*
X65811904Y-87890476D01*
X65859523Y-87795238D01*
X65954761Y-87700000D01*
X66097619Y-87652380D01*
X66192857Y-87652380D01*
X66335714Y-87700000D01*
X66383333Y-87747619D01*
X66954761Y-88080952D02*
X66859523Y-88033333D01*
X66811904Y-87985714D01*
X66764285Y-87890476D01*
X66764285Y-87842857D01*
X66811904Y-87747619D01*
X66859523Y-87700000D01*
X66954761Y-87652380D01*
X67145238Y-87652380D01*
X67240476Y-87700000D01*
X67288095Y-87747619D01*
X67335714Y-87842857D01*
X67335714Y-87890476D01*
X67288095Y-87985714D01*
X67240476Y-88033333D01*
X67145238Y-88080952D01*
X66954761Y-88080952D01*
X66859523Y-88128571D01*
X66811904Y-88176190D01*
X66764285Y-88271428D01*
X66764285Y-88461904D01*
X66811904Y-88557142D01*
X66859523Y-88604761D01*
X66954761Y-88652380D01*
X67145238Y-88652380D01*
X67240476Y-88604761D01*
X67288095Y-88557142D01*
X67335714Y-88461904D01*
X67335714Y-88271428D01*
X67288095Y-88176190D01*
X67240476Y-88128571D01*
X67145238Y-88080952D01*
X65002380Y-79852380D02*
X64430952Y-79852380D01*
X64716666Y-79852380D02*
X64716666Y-78852380D01*
X64621428Y-78995238D01*
X64526190Y-79090476D01*
X64430952Y-79138095D01*
X65621428Y-78852380D02*
X65716666Y-78852380D01*
X65811904Y-78900000D01*
X65859523Y-78947619D01*
X65907142Y-79042857D01*
X65954761Y-79233333D01*
X65954761Y-79471428D01*
X65907142Y-79661904D01*
X65859523Y-79757142D01*
X65811904Y-79804761D01*
X65716666Y-79852380D01*
X65621428Y-79852380D01*
X65526190Y-79804761D01*
X65478571Y-79757142D01*
X65430952Y-79661904D01*
X65383333Y-79471428D01*
X65383333Y-79233333D01*
X65430952Y-79042857D01*
X65478571Y-78947619D01*
X65526190Y-78900000D01*
X65621428Y-78852380D01*
X66573809Y-78852380D02*
X66669047Y-78852380D01*
X66764285Y-78900000D01*
X66811904Y-78947619D01*
X66859523Y-79042857D01*
X66907142Y-79233333D01*
X66907142Y-79471428D01*
X66859523Y-79661904D01*
X66811904Y-79757142D01*
X66764285Y-79804761D01*
X66669047Y-79852380D01*
X66573809Y-79852380D01*
X66478571Y-79804761D01*
X66430952Y-79757142D01*
X66383333Y-79661904D01*
X66335714Y-79471428D01*
X66335714Y-79233333D01*
X66383333Y-79042857D01*
X66430952Y-78947619D01*
X66478571Y-78900000D01*
X66573809Y-78852380D01*
X67764285Y-79185714D02*
X67764285Y-79852380D01*
X67335714Y-79185714D02*
X67335714Y-79709523D01*
X67383333Y-79804761D01*
X67478571Y-79852380D01*
X67621428Y-79852380D01*
X67716666Y-79804761D01*
X67764285Y-79757142D01*
X68573809Y-79328571D02*
X68240476Y-79328571D01*
X68240476Y-79852380D02*
X68240476Y-78852380D01*
X68716666Y-78852380D01*
%TO.C,C7*%
X120333333Y-112157142D02*
X120285714Y-112204761D01*
X120142857Y-112252380D01*
X120047619Y-112252380D01*
X119904761Y-112204761D01*
X119809523Y-112109523D01*
X119761904Y-112014285D01*
X119714285Y-111823809D01*
X119714285Y-111680952D01*
X119761904Y-111490476D01*
X119809523Y-111395238D01*
X119904761Y-111300000D01*
X120047619Y-111252380D01*
X120142857Y-111252380D01*
X120285714Y-111300000D01*
X120333333Y-111347619D01*
X120666666Y-111252380D02*
X121333333Y-111252380D01*
X120904761Y-112252380D01*
X118952380Y-124752380D02*
X118380952Y-124752380D01*
X118666666Y-124752380D02*
X118666666Y-123752380D01*
X118571428Y-123895238D01*
X118476190Y-123990476D01*
X118380952Y-124038095D01*
X119571428Y-123752380D02*
X119666666Y-123752380D01*
X119761904Y-123800000D01*
X119809523Y-123847619D01*
X119857142Y-123942857D01*
X119904761Y-124133333D01*
X119904761Y-124371428D01*
X119857142Y-124561904D01*
X119809523Y-124657142D01*
X119761904Y-124704761D01*
X119666666Y-124752380D01*
X119571428Y-124752380D01*
X119476190Y-124704761D01*
X119428571Y-124657142D01*
X119380952Y-124561904D01*
X119333333Y-124371428D01*
X119333333Y-124133333D01*
X119380952Y-123942857D01*
X119428571Y-123847619D01*
X119476190Y-123800000D01*
X119571428Y-123752380D01*
X120523809Y-123752380D02*
X120619047Y-123752380D01*
X120714285Y-123800000D01*
X120761904Y-123847619D01*
X120809523Y-123942857D01*
X120857142Y-124133333D01*
X120857142Y-124371428D01*
X120809523Y-124561904D01*
X120761904Y-124657142D01*
X120714285Y-124704761D01*
X120619047Y-124752380D01*
X120523809Y-124752380D01*
X120428571Y-124704761D01*
X120380952Y-124657142D01*
X120333333Y-124561904D01*
X120285714Y-124371428D01*
X120285714Y-124133333D01*
X120333333Y-123942857D01*
X120380952Y-123847619D01*
X120428571Y-123800000D01*
X120523809Y-123752380D01*
X121285714Y-124085714D02*
X121285714Y-124752380D01*
X121285714Y-124180952D02*
X121333333Y-124133333D01*
X121428571Y-124085714D01*
X121571428Y-124085714D01*
X121666666Y-124133333D01*
X121714285Y-124228571D01*
X121714285Y-124752380D01*
X122523809Y-124228571D02*
X122190476Y-124228571D01*
X122190476Y-124752380D02*
X122190476Y-123752380D01*
X122666666Y-123752380D01*
%TO.C,C6*%
X94333333Y-117257142D02*
X94285714Y-117304761D01*
X94142857Y-117352380D01*
X94047619Y-117352380D01*
X93904761Y-117304761D01*
X93809523Y-117209523D01*
X93761904Y-117114285D01*
X93714285Y-116923809D01*
X93714285Y-116780952D01*
X93761904Y-116590476D01*
X93809523Y-116495238D01*
X93904761Y-116400000D01*
X94047619Y-116352380D01*
X94142857Y-116352380D01*
X94285714Y-116400000D01*
X94333333Y-116447619D01*
X95190476Y-116352380D02*
X95000000Y-116352380D01*
X94904761Y-116400000D01*
X94857142Y-116447619D01*
X94761904Y-116590476D01*
X94714285Y-116780952D01*
X94714285Y-117161904D01*
X94761904Y-117257142D01*
X94809523Y-117304761D01*
X94904761Y-117352380D01*
X95095238Y-117352380D01*
X95190476Y-117304761D01*
X95238095Y-117257142D01*
X95285714Y-117161904D01*
X95285714Y-116923809D01*
X95238095Y-116828571D01*
X95190476Y-116780952D01*
X95095238Y-116733333D01*
X94904761Y-116733333D01*
X94809523Y-116780952D01*
X94761904Y-116828571D01*
X94714285Y-116923809D01*
X92952380Y-129852380D02*
X92380952Y-129852380D01*
X92666666Y-129852380D02*
X92666666Y-128852380D01*
X92571428Y-128995238D01*
X92476190Y-129090476D01*
X92380952Y-129138095D01*
X93571428Y-128852380D02*
X93666666Y-128852380D01*
X93761904Y-128900000D01*
X93809523Y-128947619D01*
X93857142Y-129042857D01*
X93904761Y-129233333D01*
X93904761Y-129471428D01*
X93857142Y-129661904D01*
X93809523Y-129757142D01*
X93761904Y-129804761D01*
X93666666Y-129852380D01*
X93571428Y-129852380D01*
X93476190Y-129804761D01*
X93428571Y-129757142D01*
X93380952Y-129661904D01*
X93333333Y-129471428D01*
X93333333Y-129233333D01*
X93380952Y-129042857D01*
X93428571Y-128947619D01*
X93476190Y-128900000D01*
X93571428Y-128852380D01*
X94523809Y-128852380D02*
X94619047Y-128852380D01*
X94714285Y-128900000D01*
X94761904Y-128947619D01*
X94809523Y-129042857D01*
X94857142Y-129233333D01*
X94857142Y-129471428D01*
X94809523Y-129661904D01*
X94761904Y-129757142D01*
X94714285Y-129804761D01*
X94619047Y-129852380D01*
X94523809Y-129852380D01*
X94428571Y-129804761D01*
X94380952Y-129757142D01*
X94333333Y-129661904D01*
X94285714Y-129471428D01*
X94285714Y-129233333D01*
X94333333Y-129042857D01*
X94380952Y-128947619D01*
X94428571Y-128900000D01*
X94523809Y-128852380D01*
X95285714Y-129185714D02*
X95285714Y-129852380D01*
X95285714Y-129280952D02*
X95333333Y-129233333D01*
X95428571Y-129185714D01*
X95571428Y-129185714D01*
X95666666Y-129233333D01*
X95714285Y-129328571D01*
X95714285Y-129852380D01*
X96523809Y-129328571D02*
X96190476Y-129328571D01*
X96190476Y-129852380D02*
X96190476Y-128852380D01*
X96666666Y-128852380D01*
%TO.C,C5*%
X126333333Y-112157142D02*
X126285714Y-112204761D01*
X126142857Y-112252380D01*
X126047619Y-112252380D01*
X125904761Y-112204761D01*
X125809523Y-112109523D01*
X125761904Y-112014285D01*
X125714285Y-111823809D01*
X125714285Y-111680952D01*
X125761904Y-111490476D01*
X125809523Y-111395238D01*
X125904761Y-111300000D01*
X126047619Y-111252380D01*
X126142857Y-111252380D01*
X126285714Y-111300000D01*
X126333333Y-111347619D01*
X127238095Y-111252380D02*
X126761904Y-111252380D01*
X126714285Y-111728571D01*
X126761904Y-111680952D01*
X126857142Y-111633333D01*
X127095238Y-111633333D01*
X127190476Y-111680952D01*
X127238095Y-111728571D01*
X127285714Y-111823809D01*
X127285714Y-112061904D01*
X127238095Y-112157142D01*
X127190476Y-112204761D01*
X127095238Y-112252380D01*
X126857142Y-112252380D01*
X126761904Y-112204761D01*
X126714285Y-112157142D01*
X125904761Y-124752380D02*
X125333333Y-124752380D01*
X125619047Y-124752380D02*
X125619047Y-123752380D01*
X125523809Y-123895238D01*
X125428571Y-123990476D01*
X125333333Y-124038095D01*
X126761904Y-124085714D02*
X126761904Y-124752380D01*
X126333333Y-124085714D02*
X126333333Y-124609523D01*
X126380952Y-124704761D01*
X126476190Y-124752380D01*
X126619047Y-124752380D01*
X126714285Y-124704761D01*
X126761904Y-124657142D01*
X127571428Y-124228571D02*
X127238095Y-124228571D01*
X127238095Y-124752380D02*
X127238095Y-123752380D01*
X127714285Y-123752380D01*
%TO.C,C4*%
X123033333Y-98107142D02*
X122985714Y-98154761D01*
X122842857Y-98202380D01*
X122747619Y-98202380D01*
X122604761Y-98154761D01*
X122509523Y-98059523D01*
X122461904Y-97964285D01*
X122414285Y-97773809D01*
X122414285Y-97630952D01*
X122461904Y-97440476D01*
X122509523Y-97345238D01*
X122604761Y-97250000D01*
X122747619Y-97202380D01*
X122842857Y-97202380D01*
X122985714Y-97250000D01*
X123033333Y-97297619D01*
X123890476Y-97535714D02*
X123890476Y-98202380D01*
X123652380Y-97154761D02*
X123414285Y-97869047D01*
X124033333Y-97869047D01*
X122604761Y-105702380D02*
X122033333Y-105702380D01*
X122319047Y-105702380D02*
X122319047Y-104702380D01*
X122223809Y-104845238D01*
X122128571Y-104940476D01*
X122033333Y-104988095D01*
X123461904Y-105035714D02*
X123461904Y-105702380D01*
X123033333Y-105035714D02*
X123033333Y-105559523D01*
X123080952Y-105654761D01*
X123176190Y-105702380D01*
X123319047Y-105702380D01*
X123414285Y-105654761D01*
X123461904Y-105607142D01*
X124271428Y-105178571D02*
X123938095Y-105178571D01*
X123938095Y-105702380D02*
X123938095Y-104702380D01*
X124414285Y-104702380D01*
%TO.C,C2*%
X90133333Y-148857142D02*
X90085714Y-148904761D01*
X89942857Y-148952380D01*
X89847619Y-148952380D01*
X89704761Y-148904761D01*
X89609523Y-148809523D01*
X89561904Y-148714285D01*
X89514285Y-148523809D01*
X89514285Y-148380952D01*
X89561904Y-148190476D01*
X89609523Y-148095238D01*
X89704761Y-148000000D01*
X89847619Y-147952380D01*
X89942857Y-147952380D01*
X90085714Y-148000000D01*
X90133333Y-148047619D01*
X90514285Y-148047619D02*
X90561904Y-148000000D01*
X90657142Y-147952380D01*
X90895238Y-147952380D01*
X90990476Y-148000000D01*
X91038095Y-148047619D01*
X91085714Y-148142857D01*
X91085714Y-148238095D01*
X91038095Y-148380952D01*
X90466666Y-148952380D01*
X91085714Y-148952380D01*
X92595238Y-140685714D02*
X92595238Y-141352380D01*
X92357142Y-140304761D02*
X92119047Y-141019047D01*
X92738095Y-141019047D01*
X93119047Y-141257142D02*
X93166666Y-141304761D01*
X93119047Y-141352380D01*
X93071428Y-141304761D01*
X93119047Y-141257142D01*
X93119047Y-141352380D01*
X93500000Y-140352380D02*
X94166666Y-140352380D01*
X93738095Y-141352380D01*
X94976190Y-140685714D02*
X94976190Y-141352380D01*
X94547619Y-140685714D02*
X94547619Y-141209523D01*
X94595238Y-141304761D01*
X94690476Y-141352380D01*
X94833333Y-141352380D01*
X94928571Y-141304761D01*
X94976190Y-141257142D01*
X95785714Y-140828571D02*
X95452380Y-140828571D01*
X95452380Y-141352380D02*
X95452380Y-140352380D01*
X95928571Y-140352380D01*
%TD*%
M02*
