G04 #@! TF.GenerationSoftware,KiCad,Pcbnew,5.1.6-c6e7f7d~86~ubuntu20.04.1*
G04 #@! TF.CreationDate,2020-05-17T16:09:38+03:00*
G04 #@! TF.ProjectId,GB-LIVE32,47422d4c-4956-4453-9332-2e6b69636164,v2.0*
G04 #@! TF.SameCoordinates,Original*
G04 #@! TF.FileFunction,Copper,L4,Bot*
G04 #@! TF.FilePolarity,Positive*
%FSLAX46Y46*%
G04 Gerber Fmt 4.6, Leading zero omitted, Abs format (unit mm)*
G04 Created by KiCad (PCBNEW 5.1.6-c6e7f7d~86~ubuntu20.04.1) date 2020-05-17 16:09:38*
%MOMM*%
%LPD*%
G01*
G04 APERTURE LIST*
G04 #@! TA.AperFunction,Profile*
%ADD10C,0.150000*%
G04 #@! TD*
G04 #@! TA.AperFunction,ViaPad*
%ADD11C,0.600000*%
G04 #@! TD*
G04 #@! TA.AperFunction,Conductor*
%ADD12C,1.000000*%
G04 #@! TD*
G04 #@! TA.AperFunction,Conductor*
%ADD13C,0.320000*%
G04 #@! TD*
G04 APERTURE END LIST*
D10*
X121700000Y-41600000D02*
X125700000Y-41600000D01*
X121700000Y-39000000D02*
X121700000Y-41600000D01*
X125700000Y-41600000D02*
X125700000Y-91400000D01*
X74300000Y-39000000D02*
X121700000Y-39000000D01*
X74300000Y-91400000D02*
X74300000Y-39000000D01*
X124600000Y-91400000D02*
X125700000Y-91400000D01*
X75400000Y-91400000D02*
X74300000Y-91400000D01*
X124600000Y-91400000D02*
X124600000Y-100000000D01*
X75400000Y-100000000D02*
X124600000Y-100000000D01*
X75400000Y-91400000D02*
X75400000Y-100000000D01*
D11*
X84500000Y-48000000D03*
X92400000Y-48000000D03*
X93100000Y-39900000D03*
X92800000Y-86700000D03*
X120300000Y-86600000D03*
X123400000Y-90400000D03*
X78700000Y-88800000D03*
X81900000Y-89000000D03*
X90200000Y-81100000D03*
X84200000Y-81100000D03*
X110100000Y-89400000D03*
X110200000Y-81400000D03*
X110900000Y-81400000D03*
X86600000Y-46700000D03*
X81800000Y-43100000D03*
X81800000Y-44600000D03*
X96900000Y-40300000D03*
X107100000Y-44000000D03*
X122500000Y-82100000D03*
X120300000Y-80900000D03*
X105500000Y-75400000D03*
X107400000Y-89400000D03*
X107300000Y-82800000D03*
X103000000Y-69600000D03*
X97000000Y-72400000D03*
X97100000Y-58500000D03*
X79300000Y-59300000D03*
X92200000Y-73900000D03*
X114900000Y-50600000D03*
X110600000Y-44500000D03*
X113383309Y-64983309D03*
X97600000Y-53200000D03*
X96100000Y-48200000D03*
X94800000Y-42300000D03*
X83300000Y-46000000D03*
X78500000Y-48200000D03*
X84100000Y-50000000D03*
X120200000Y-52700000D03*
X87100000Y-52100000D03*
X124300000Y-52700000D03*
X92800000Y-88300000D03*
X78700000Y-85000000D03*
X107100000Y-42300000D03*
X122500000Y-83700000D03*
X120200000Y-82500000D03*
X105500000Y-77000000D03*
X107400000Y-87800000D03*
X97100000Y-60100000D03*
X79300000Y-60900000D03*
X92200000Y-72200000D03*
X114900000Y-52200000D03*
X115000000Y-44500000D03*
X119400000Y-44600000D03*
X92600000Y-77300000D03*
X122000000Y-68700000D03*
X95900000Y-53200000D03*
X120200000Y-51200000D03*
X87100000Y-50500000D03*
X80200000Y-40500000D03*
X93500000Y-46000000D03*
X76600000Y-90400004D03*
X120300000Y-88200000D03*
X116800000Y-79600000D03*
X92100000Y-57300000D03*
X103600000Y-47200000D03*
X110700000Y-79600000D03*
X93700000Y-65400000D03*
X95800000Y-69900000D03*
X101700000Y-52000000D03*
X102400000Y-47100000D03*
X98000000Y-60940000D03*
X122400002Y-63900000D03*
X99300000Y-52000000D03*
X99700000Y-48700000D03*
X113900000Y-55800006D03*
X118300000Y-56900000D03*
X100500000Y-52000000D03*
X101000000Y-48700000D03*
X78900000Y-55900000D03*
X114200000Y-72900000D03*
X78500000Y-56700000D03*
X114900000Y-72200000D03*
X78900000Y-57600000D03*
X115700000Y-71200000D03*
X78500000Y-58600000D03*
X116300000Y-69300000D03*
X83900000Y-60600000D03*
X90900000Y-51400000D03*
X84600000Y-61200000D03*
X91900000Y-51400000D03*
X84600000Y-62200000D03*
X92900000Y-51400000D03*
X84700000Y-63100000D03*
X93900000Y-51400000D03*
X90400000Y-57600000D03*
X103799994Y-55300000D03*
X104200000Y-78600000D03*
X88500000Y-78600000D03*
X104800000Y-79400000D03*
X89300006Y-79400000D03*
X105700000Y-80200000D03*
X90099992Y-80200000D03*
X96000000Y-68900000D03*
X106199978Y-64800000D03*
X97100000Y-68400000D03*
X104599978Y-66000000D03*
X117000000Y-65100000D03*
X109200000Y-68500000D03*
X98900000Y-67300000D03*
X102900006Y-66700000D03*
X100125000Y-65500000D03*
X102800000Y-64300000D03*
X101100000Y-66300000D03*
X104200000Y-64199994D03*
X112300000Y-56900000D03*
X110100000Y-56500000D03*
X111000000Y-65000000D03*
X90800000Y-62200000D03*
X111800000Y-64300010D03*
X90000004Y-61700000D03*
X113000000Y-64200000D03*
X89200000Y-61100000D03*
X114400000Y-64900000D03*
X88400000Y-60500000D03*
X83100000Y-86000000D03*
X108700000Y-82800000D03*
X107300000Y-86800000D03*
X116900000Y-89400000D03*
X120200000Y-49700000D03*
X106700000Y-51900000D03*
X101500000Y-55200000D03*
X99400001Y-55200000D03*
X86900000Y-59700000D03*
X120200000Y-54200000D03*
X106699992Y-52900000D03*
X105100000Y-52900000D03*
X86800000Y-61000000D03*
X120200000Y-55700000D03*
X105000000Y-54100000D03*
X106700008Y-54100000D03*
D12*
X84500000Y-48000000D02*
X92400000Y-48000000D01*
X88000000Y-40500000D02*
X93500000Y-46000000D01*
X80200000Y-40500000D02*
X88000000Y-40500000D01*
X76600000Y-90400004D02*
X118899996Y-90400004D01*
X120300000Y-89000000D02*
X120300000Y-88200000D01*
X118899996Y-90400004D02*
X120300000Y-89000000D01*
D13*
X116800000Y-79600000D02*
X110700000Y-79600000D01*
X105900000Y-49500000D02*
X103600000Y-47200000D01*
X103499999Y-57000001D02*
X105900000Y-54600000D01*
X92100000Y-57300000D02*
X92399999Y-57000001D01*
X105900000Y-54600000D02*
X105900000Y-49500000D01*
X92399999Y-57000001D02*
X103499999Y-57000001D01*
X93700000Y-67800000D02*
X95800000Y-69900000D01*
X93700000Y-65400000D02*
X93700000Y-67800000D01*
X101700000Y-52000000D02*
X101700000Y-47800000D01*
X101700000Y-47800000D02*
X102400000Y-47100000D01*
X98000000Y-58900000D02*
X99200000Y-57700000D01*
X99200000Y-57700000D02*
X116200002Y-57700000D01*
X98000000Y-60940000D02*
X98000000Y-58900000D01*
X116200002Y-57700000D02*
X122100003Y-63600001D01*
X122100003Y-63600001D02*
X122400002Y-63900000D01*
X99300000Y-52000000D02*
X99300000Y-49100000D01*
X99300000Y-49100000D02*
X99700000Y-48700000D01*
X114999994Y-56900000D02*
X113900000Y-55800006D01*
X118300000Y-56900000D02*
X114999994Y-56900000D01*
X100500000Y-49200000D02*
X101000000Y-48700000D01*
X100500000Y-52000000D02*
X100500000Y-49200000D01*
X98300000Y-72900000D02*
X114200000Y-72900000D01*
X78323198Y-55900000D02*
X76400000Y-57823198D01*
X78900000Y-55900000D02*
X78323198Y-55900000D01*
X76400000Y-57823198D02*
X76400000Y-63700000D01*
X76400000Y-63700000D02*
X87500000Y-74800000D01*
X87500000Y-74800000D02*
X96400000Y-74800000D01*
X96400000Y-74800000D02*
X98300000Y-72900000D01*
X114420010Y-71720010D02*
X114900000Y-72200000D01*
X77100000Y-58100000D02*
X77100000Y-63300000D01*
X78500000Y-56700000D02*
X77100000Y-58100000D01*
X77100000Y-63300000D02*
X86660001Y-72860001D01*
X86660001Y-72860001D02*
X92516801Y-72860001D01*
X92516801Y-72860001D02*
X93656792Y-71720010D01*
X93656792Y-71720010D02*
X114420010Y-71720010D01*
X85900000Y-71200000D02*
X115700000Y-71200000D01*
X77800000Y-58275736D02*
X77800000Y-63100000D01*
X78900000Y-57600000D02*
X78475736Y-57600000D01*
X77800000Y-63100000D02*
X85900000Y-71200000D01*
X78475736Y-57600000D02*
X77800000Y-58275736D01*
X115000000Y-70600000D02*
X116300000Y-69300000D01*
X86200000Y-70600000D02*
X115000000Y-70600000D01*
X78500000Y-58600000D02*
X78500000Y-62900000D01*
X78500000Y-62900000D02*
X86200000Y-70600000D01*
X90600001Y-51699999D02*
X90900000Y-51400000D01*
X89200001Y-51699999D02*
X90600001Y-51699999D01*
X83900000Y-60600000D02*
X83900000Y-57000000D01*
X83900000Y-57000000D02*
X89200001Y-51699999D01*
X84600000Y-57300000D02*
X84600000Y-61200000D01*
X89400000Y-52500000D02*
X84600000Y-57300000D01*
X91900000Y-51400000D02*
X90800000Y-52500000D01*
X90800000Y-52500000D02*
X89400000Y-52500000D01*
X89700000Y-53200000D02*
X85400000Y-57500000D01*
X92900000Y-51400000D02*
X92900000Y-51824264D01*
X85400000Y-61400000D02*
X84600000Y-62200000D01*
X85400000Y-57500000D02*
X85400000Y-61400000D01*
X91524264Y-53200000D02*
X89700000Y-53200000D01*
X92900000Y-51824264D02*
X91524264Y-53200000D01*
X86100000Y-61700000D02*
X84700000Y-63100000D01*
X86100000Y-57800000D02*
X86100000Y-61700000D01*
X90000000Y-53900000D02*
X86100000Y-57800000D01*
X91824264Y-53900000D02*
X90000000Y-53900000D01*
X93900000Y-51400000D02*
X93900000Y-51824264D01*
X93900000Y-51824264D02*
X91824264Y-53900000D01*
X102899994Y-56200000D02*
X103499995Y-55599999D01*
X103499995Y-55599999D02*
X103799994Y-55300000D01*
X91800000Y-56200000D02*
X102899994Y-56200000D01*
X90400000Y-57600000D02*
X91800000Y-56200000D01*
X104200000Y-78600000D02*
X88500000Y-78600000D01*
X104800000Y-79400000D02*
X89300006Y-79400000D01*
X105700000Y-80200000D02*
X90099992Y-80200000D01*
X106199978Y-65424322D02*
X106199978Y-65224264D01*
X106199978Y-65224264D02*
X106199978Y-64800000D01*
X96299999Y-69199999D02*
X102424301Y-69199999D01*
X102424301Y-69199999D02*
X106199978Y-65424322D01*
X96000000Y-68900000D02*
X96299999Y-69199999D01*
X104299979Y-66299999D02*
X104599978Y-66000000D01*
X97100000Y-68400000D02*
X102199978Y-68400000D01*
X102199978Y-68400000D02*
X104299979Y-66299999D01*
X113600000Y-68500000D02*
X109200000Y-68500000D01*
X113600000Y-68500000D02*
X117000000Y-65100000D01*
X98900000Y-67300000D02*
X102300006Y-67300000D01*
X102300006Y-67300000D02*
X102600007Y-66999999D01*
X102600007Y-66999999D02*
X102900006Y-66700000D01*
X100125000Y-65500000D02*
X101600000Y-65500000D01*
X101600000Y-65500000D02*
X102800000Y-64300000D01*
X102099994Y-66300000D02*
X104200000Y-64199994D01*
X101100000Y-66300000D02*
X102099994Y-66300000D01*
X112300000Y-56900000D02*
X110500000Y-56900000D01*
X110500000Y-56900000D02*
X110100000Y-56500000D01*
X111000000Y-65000000D02*
X109400000Y-63400000D01*
X91099999Y-62499999D02*
X90800000Y-62200000D01*
X109400000Y-63400000D02*
X92000000Y-63400000D01*
X92000000Y-63400000D02*
X91099999Y-62499999D01*
X111800000Y-64300010D02*
X110299990Y-62800000D01*
X110299990Y-62800000D02*
X92600000Y-62800000D01*
X92600000Y-62800000D02*
X91200001Y-61400001D01*
X90300003Y-61400001D02*
X90000004Y-61700000D01*
X91200001Y-61400001D02*
X90300003Y-61400001D01*
X89499999Y-60800001D02*
X89200000Y-61100000D01*
X93300000Y-62200000D02*
X91900001Y-60800001D01*
X91900001Y-60800001D02*
X89499999Y-60800001D01*
X111000000Y-62200000D02*
X93300000Y-62200000D01*
X113000000Y-64200000D02*
X111000000Y-62200000D01*
X114400000Y-64900000D02*
X114400000Y-64475736D01*
X114400000Y-64475736D02*
X111524264Y-61600000D01*
X111524264Y-61600000D02*
X94700000Y-61600000D01*
X88699999Y-60200001D02*
X88400000Y-60500000D01*
X94700000Y-61600000D02*
X93300001Y-60200001D01*
X93300001Y-60200001D02*
X88699999Y-60200001D01*
X84600000Y-87500000D02*
X83100000Y-86000000D01*
X95400000Y-89000000D02*
X93900000Y-87500000D01*
X108700000Y-82800000D02*
X102500000Y-89000000D01*
X93900000Y-87500000D02*
X84600000Y-87500000D01*
X102500000Y-89000000D02*
X95400000Y-89000000D01*
X107300000Y-86800000D02*
X114300000Y-86800000D01*
X114300000Y-86800000D02*
X116900000Y-89400000D01*
X120200000Y-49700000D02*
X108900000Y-49700000D01*
X108900000Y-49700000D02*
X106700000Y-51900000D01*
X101500000Y-55200000D02*
X99400001Y-55200000D01*
X118900000Y-52900000D02*
X107124256Y-52900000D01*
X107124256Y-52900000D02*
X106699992Y-52900000D01*
X120200000Y-54200000D02*
X118900000Y-52900000D01*
X90600000Y-54600000D02*
X97400000Y-54600000D01*
X97400000Y-54600000D02*
X99100000Y-52900000D01*
X86900000Y-58300000D02*
X90600000Y-54600000D01*
X86900000Y-59700000D02*
X86900000Y-58300000D01*
X99100000Y-52900000D02*
X104675736Y-52900000D01*
X104675736Y-52900000D02*
X105100000Y-52900000D01*
X99100000Y-54100000D02*
X104575736Y-54100000D01*
X91379990Y-55120010D02*
X98079990Y-55120010D01*
X86800000Y-61000000D02*
X89739999Y-58060001D01*
X89739999Y-56760001D02*
X91379990Y-55120010D01*
X89739999Y-58060001D02*
X89739999Y-56760001D01*
X104575736Y-54100000D02*
X105000000Y-54100000D01*
X98079990Y-55120010D02*
X99100000Y-54100000D01*
X107124272Y-54100000D02*
X106700008Y-54100000D01*
X118600000Y-54100000D02*
X107124272Y-54100000D01*
X120200000Y-55700000D02*
X118600000Y-54100000D01*
M02*
