G04 #@! TF.GenerationSoftware,KiCad,Pcbnew,5.1.6-c6e7f7d~86~ubuntu20.04.1*
G04 #@! TF.CreationDate,2020-05-17T16:09:38+03:00*
G04 #@! TF.ProjectId,GB-LIVE32,47422d4c-4956-4453-9332-2e6b69636164,v2.0*
G04 #@! TF.SameCoordinates,Original*
G04 #@! TF.FileFunction,Copper,L1,Top*
G04 #@! TF.FilePolarity,Positive*
%FSLAX46Y46*%
G04 Gerber Fmt 4.6, Leading zero omitted, Abs format (unit mm)*
G04 Created by KiCad (PCBNEW 5.1.6-c6e7f7d~86~ubuntu20.04.1) date 2020-05-17 16:09:38*
%MOMM*%
%LPD*%
G01*
G04 APERTURE LIST*
G04 #@! TA.AperFunction,Profile*
%ADD10C,0.150000*%
G04 #@! TD*
G04 #@! TA.AperFunction,SMDPad,CuDef*
%ADD11R,0.350000X1.500000*%
G04 #@! TD*
G04 #@! TA.AperFunction,SMDPad,CuDef*
%ADD12R,1.000000X0.600000*%
G04 #@! TD*
G04 #@! TA.AperFunction,SMDPad,CuDef*
%ADD13R,1.800000X1.250000*%
G04 #@! TD*
G04 #@! TA.AperFunction,SMDPad,CuDef*
%ADD14C,1.000000*%
G04 #@! TD*
G04 #@! TA.AperFunction,SMDPad,CuDef*
%ADD15R,1.400000X1.120000*%
G04 #@! TD*
G04 #@! TA.AperFunction,SMDPad,CuDef*
%ADD16R,0.820000X1.000000*%
G04 #@! TD*
G04 #@! TA.AperFunction,SMDPad,CuDef*
%ADD17R,1.000000X0.820000*%
G04 #@! TD*
G04 #@! TA.AperFunction,SMDPad,CuDef*
%ADD18R,1.120000X1.400000*%
G04 #@! TD*
G04 #@! TA.AperFunction,SMDPad,CuDef*
%ADD19R,0.900000X0.800000*%
G04 #@! TD*
G04 #@! TA.AperFunction,SMDPad,CuDef*
%ADD20R,0.500000X1.400000*%
G04 #@! TD*
G04 #@! TA.AperFunction,SMDPad,CuDef*
%ADD21R,2.500000X3.800000*%
G04 #@! TD*
G04 #@! TA.AperFunction,ConnectorPad*
%ADD22R,1.300000X6.000000*%
G04 #@! TD*
G04 #@! TA.AperFunction,ConnectorPad*
%ADD23R,1.000000X5.500000*%
G04 #@! TD*
G04 #@! TA.AperFunction,SMDPad,CuDef*
%ADD24C,0.100000*%
G04 #@! TD*
G04 #@! TA.AperFunction,SMDPad,CuDef*
%ADD25R,1.500000X1.000000*%
G04 #@! TD*
G04 #@! TA.AperFunction,SMDPad,CuDef*
%ADD26R,1.800000X1.000000*%
G04 #@! TD*
G04 #@! TA.AperFunction,SMDPad,CuDef*
%ADD27R,1.840000X2.200000*%
G04 #@! TD*
G04 #@! TA.AperFunction,SMDPad,CuDef*
%ADD28R,0.550000X1.500000*%
G04 #@! TD*
G04 #@! TA.AperFunction,SMDPad,CuDef*
%ADD29R,1.500000X0.550000*%
G04 #@! TD*
G04 #@! TA.AperFunction,SMDPad,CuDef*
%ADD30R,0.400000X0.650000*%
G04 #@! TD*
G04 #@! TA.AperFunction,SMDPad,CuDef*
%ADD31R,0.400000X1.100000*%
G04 #@! TD*
G04 #@! TA.AperFunction,SMDPad,CuDef*
%ADD32R,0.450000X1.450000*%
G04 #@! TD*
G04 #@! TA.AperFunction,SMDPad,CuDef*
%ADD33R,0.650000X0.400000*%
G04 #@! TD*
G04 #@! TA.AperFunction,ViaPad*
%ADD34C,0.600000*%
G04 #@! TD*
G04 #@! TA.AperFunction,Conductor*
%ADD35C,1.000000*%
G04 #@! TD*
G04 #@! TA.AperFunction,Conductor*
%ADD36C,0.320000*%
G04 #@! TD*
G04 #@! TA.AperFunction,Conductor*
%ADD37C,0.254000*%
G04 #@! TD*
G04 APERTURE END LIST*
D10*
X121700000Y-41600000D02*
X125700000Y-41600000D01*
X121700000Y-39000000D02*
X121700000Y-41600000D01*
X125700000Y-41600000D02*
X125700000Y-91400000D01*
X74300000Y-39000000D02*
X121700000Y-39000000D01*
X74300000Y-91400000D02*
X74300000Y-39000000D01*
X124600000Y-91400000D02*
X125700000Y-91400000D01*
X75400000Y-91400000D02*
X74300000Y-91400000D01*
X124600000Y-91400000D02*
X124600000Y-100000000D01*
X75400000Y-100000000D02*
X124600000Y-100000000D01*
X75400000Y-91400000D02*
X75400000Y-100000000D01*
D11*
X109925000Y-54050000D03*
X109925000Y-66950000D03*
X110475000Y-54050000D03*
X110475000Y-66950000D03*
X111025000Y-54050000D03*
X111025000Y-66950000D03*
X111575000Y-54050000D03*
X111575000Y-66950000D03*
X112125000Y-54050000D03*
X112125000Y-66950000D03*
X112675000Y-54050000D03*
X112675000Y-66950000D03*
X113225000Y-54050000D03*
X113225000Y-66950000D03*
X113775000Y-54050000D03*
X113775000Y-66950000D03*
X114325000Y-54050000D03*
X114325000Y-66950000D03*
X114875000Y-54050000D03*
X114875000Y-66950000D03*
X115425000Y-54050000D03*
X115425000Y-66950000D03*
X115975000Y-54050000D03*
X115975000Y-66950000D03*
X116525000Y-54050000D03*
X116525000Y-66950000D03*
X117075000Y-54050000D03*
X117075000Y-66950000D03*
D12*
X119105000Y-49700000D03*
X119105000Y-51200000D03*
X119105000Y-52700000D03*
X119105000Y-54200000D03*
X119105000Y-55700000D03*
D13*
X124295000Y-47095000D03*
X124295000Y-58305000D03*
D14*
X76000000Y-56200000D03*
X106200000Y-58000000D03*
X103400000Y-58000000D03*
X83700000Y-51700000D03*
X80100000Y-54300000D03*
X108900000Y-45300000D03*
X117400000Y-45300000D03*
X113100000Y-45300000D03*
X116900000Y-49300000D03*
X111900000Y-49300000D03*
X76000000Y-42000000D03*
X123100000Y-60500000D03*
D15*
X96900000Y-43280000D03*
X96900000Y-41520000D03*
D16*
X89800000Y-52100000D03*
X88200000Y-52100000D03*
D15*
X105700000Y-43980000D03*
X105700000Y-42220000D03*
D17*
X97600000Y-55800000D03*
X97600000Y-54200000D03*
D16*
X91200000Y-73900000D03*
X89600000Y-73900000D03*
D17*
X80400000Y-59300000D03*
X80400000Y-60900000D03*
X96000000Y-60100000D03*
X96000000Y-58500000D03*
X113800000Y-52200000D03*
X113800000Y-50600000D03*
X81200000Y-40500000D03*
X81200000Y-42100000D03*
D16*
X80800000Y-43900000D03*
X79200000Y-43900000D03*
D18*
X80980000Y-45800000D03*
X79220000Y-45800000D03*
D17*
X78700000Y-86100000D03*
X78700000Y-87700000D03*
X108600000Y-89400000D03*
X108600000Y-87800000D03*
X91700000Y-88300000D03*
X91700000Y-86700000D03*
X104300000Y-77000000D03*
X104300000Y-75400000D03*
X119100000Y-80900000D03*
X119100000Y-82500000D03*
X123700000Y-82100000D03*
X123700000Y-83700000D03*
X119100000Y-88200000D03*
X119100000Y-86600000D03*
D19*
X75700000Y-48550000D03*
X75700000Y-50450000D03*
X77700000Y-49500000D03*
D17*
X110600000Y-40400000D03*
X110600000Y-42000000D03*
X119100000Y-40400000D03*
X119100000Y-42000000D03*
X114800000Y-40400000D03*
X114800000Y-42000000D03*
X75700000Y-52100000D03*
X75700000Y-53700000D03*
X75700000Y-45300000D03*
X75700000Y-46900000D03*
D20*
X89800000Y-45100000D03*
X89000000Y-45100000D03*
X88200000Y-45100000D03*
X87400000Y-45100000D03*
X86600000Y-45100000D03*
D21*
X92400000Y-42700000D03*
X84000000Y-42700000D03*
D22*
X123400000Y-96000000D03*
D23*
X121750000Y-95750000D03*
X120250000Y-95750000D03*
X118750000Y-95750000D03*
X117250000Y-95750000D03*
X115750000Y-95750000D03*
X114250000Y-95750000D03*
X112750000Y-95750000D03*
X111250000Y-95750000D03*
X109750000Y-95750000D03*
X108250000Y-95750000D03*
X106750000Y-95750000D03*
X105250000Y-95750000D03*
X103750000Y-95750000D03*
X102250000Y-95750000D03*
X100750000Y-95750000D03*
X99250000Y-95750000D03*
X97750000Y-95750000D03*
X96250000Y-95750000D03*
X94750000Y-95750000D03*
X93250000Y-95750000D03*
X91750000Y-95750000D03*
X90250000Y-95750000D03*
X88750000Y-95750000D03*
X87250000Y-95750000D03*
X85750000Y-95750000D03*
X84250000Y-95750000D03*
X82750000Y-95750000D03*
X81250000Y-95750000D03*
X79750000Y-95750000D03*
D22*
X76600000Y-96000000D03*
D23*
X78250000Y-95750000D03*
D17*
X79200000Y-42100000D03*
X79200000Y-40500000D03*
X108900000Y-42000000D03*
X108900000Y-40400000D03*
D16*
X119300000Y-68700000D03*
X120900000Y-68700000D03*
X95200000Y-77300000D03*
X93600000Y-77300000D03*
D17*
X117400000Y-42000000D03*
X117400000Y-40400000D03*
X113100000Y-42000000D03*
X113100000Y-40400000D03*
X89600000Y-69000000D03*
X89600000Y-70600000D03*
X95900000Y-55800000D03*
X95900000Y-54200000D03*
D16*
X89600000Y-72200000D03*
X91200000Y-72200000D03*
X118900000Y-84200000D03*
X120500000Y-84200000D03*
G04 #@! TA.AperFunction,SMDPad,CuDef*
D24*
G36*
X99258000Y-44400000D02*
G01*
X98408000Y-43800000D01*
X98408000Y-42800000D01*
X99258000Y-42200000D01*
X99258000Y-44400000D01*
G37*
G04 #@! TD.AperFunction*
D25*
X102980000Y-44800000D03*
D26*
X102833500Y-43300000D03*
D25*
X102980000Y-41800000D03*
D27*
X100166500Y-43300000D03*
G04 #@! TA.AperFunction,SMDPad,CuDef*
D24*
G36*
X101076200Y-42200000D02*
G01*
X102076200Y-42900000D01*
X102076200Y-43700000D01*
X101076200Y-44400000D01*
X101076200Y-42200000D01*
G37*
G04 #@! TD.AperFunction*
D28*
X84200000Y-54100000D03*
X85000000Y-54100000D03*
X85800000Y-54100000D03*
X86600000Y-54100000D03*
X87400000Y-54100000D03*
X88200000Y-54100000D03*
X89000000Y-54100000D03*
X89800000Y-54100000D03*
X90600000Y-54100000D03*
X91400000Y-54100000D03*
X92200000Y-54100000D03*
D29*
X93900000Y-55800000D03*
X93900000Y-56600000D03*
X93900000Y-57400000D03*
X93900000Y-58200000D03*
X93900000Y-59000000D03*
X93900000Y-59800000D03*
X93900000Y-60600000D03*
X93900000Y-61400000D03*
X93900000Y-62200000D03*
X93900000Y-63000000D03*
X93900000Y-63800000D03*
D28*
X92200000Y-65500000D03*
X91400000Y-65500000D03*
X90600000Y-65500000D03*
X89800000Y-65500000D03*
X89000000Y-65500000D03*
X88200000Y-65500000D03*
X87400000Y-65500000D03*
X86600000Y-65500000D03*
X85800000Y-65500000D03*
X85000000Y-65500000D03*
X84200000Y-65500000D03*
D29*
X82500000Y-63800000D03*
X82500000Y-63000000D03*
X82500000Y-62200000D03*
X82500000Y-61400000D03*
X82500000Y-60600000D03*
X82500000Y-59800000D03*
X82500000Y-59000000D03*
X82500000Y-58200000D03*
X82500000Y-57400000D03*
X82500000Y-56600000D03*
X82500000Y-55800000D03*
D30*
X108650000Y-83850000D03*
X107350000Y-83850000D03*
X108000000Y-83850000D03*
X107350000Y-85750000D03*
X108650000Y-85750000D03*
D31*
X117375000Y-82550000D03*
X116725000Y-82550000D03*
X116075000Y-82550000D03*
X115425000Y-82550000D03*
X114775000Y-82550000D03*
X114125000Y-82550000D03*
X113475000Y-82550000D03*
X112825000Y-82550000D03*
X112175000Y-82550000D03*
X111525000Y-82550000D03*
X110875000Y-82550000D03*
X110225000Y-82550000D03*
X110225000Y-88250000D03*
X110875000Y-88250000D03*
X111525000Y-88250000D03*
X112175000Y-88250000D03*
X112825000Y-88250000D03*
X113475000Y-88250000D03*
X114125000Y-88250000D03*
X114775000Y-88250000D03*
X115425000Y-88250000D03*
X116075000Y-88250000D03*
X116725000Y-88250000D03*
X117375000Y-88250000D03*
D32*
X102725000Y-76950000D03*
X102075000Y-76950000D03*
X101425000Y-76950000D03*
X100775000Y-76950000D03*
X100125000Y-76950000D03*
X99475000Y-76950000D03*
X98825000Y-76950000D03*
X98175000Y-76950000D03*
X97525000Y-76950000D03*
X96875000Y-76950000D03*
X96875000Y-71050000D03*
X97525000Y-71050000D03*
X98175000Y-71050000D03*
X98825000Y-71050000D03*
X99475000Y-71050000D03*
X100125000Y-71050000D03*
X100775000Y-71050000D03*
X101425000Y-71050000D03*
X102075000Y-71050000D03*
X102725000Y-71050000D03*
X90125000Y-82450000D03*
X89475000Y-82450000D03*
X88825000Y-82450000D03*
X88175000Y-82450000D03*
X87525000Y-82450000D03*
X86875000Y-82450000D03*
X86225000Y-82450000D03*
X85575000Y-82450000D03*
X84925000Y-82450000D03*
X84275000Y-82450000D03*
X84275000Y-88350000D03*
X84925000Y-88350000D03*
X85575000Y-88350000D03*
X86225000Y-88350000D03*
X86875000Y-88350000D03*
X87525000Y-88350000D03*
X88175000Y-88350000D03*
X88825000Y-88350000D03*
X89475000Y-88350000D03*
X90125000Y-88350000D03*
D30*
X80550000Y-87950000D03*
X81850000Y-87950000D03*
X81200000Y-87950000D03*
X81850000Y-86050000D03*
X80550000Y-86050000D03*
D33*
X123750000Y-85250000D03*
X123750000Y-86550000D03*
X121850000Y-85900000D03*
X121850000Y-86550000D03*
X121850000Y-85250000D03*
D16*
X88200000Y-50500000D03*
X89800000Y-50500000D03*
D34*
X84500000Y-48000000D03*
X92400000Y-48000000D03*
X93100000Y-39900000D03*
X92800000Y-86700000D03*
X120300000Y-86600000D03*
X123400000Y-90400000D03*
X78700000Y-88800000D03*
X81900000Y-89000000D03*
X90200000Y-81100000D03*
X84200000Y-81100000D03*
X110100000Y-89400000D03*
X110200000Y-81400000D03*
X110900000Y-81400000D03*
X86600000Y-46700000D03*
X81800000Y-43100000D03*
X81800000Y-44600000D03*
X96900000Y-40300000D03*
X107100000Y-44000000D03*
X122500000Y-82100000D03*
X120300000Y-80900000D03*
X105500000Y-75400000D03*
X107400000Y-89400000D03*
X107300000Y-82800000D03*
X103000000Y-69600000D03*
X97000000Y-72400000D03*
X97100000Y-58500000D03*
X79300000Y-59300000D03*
X92200000Y-73900000D03*
X114900000Y-50600000D03*
X110600000Y-44500000D03*
X113383309Y-64983309D03*
X97600000Y-53200000D03*
X96100000Y-48200000D03*
X94800000Y-42300000D03*
X83300000Y-46000000D03*
X78500000Y-48200000D03*
X84100000Y-50000000D03*
X120200000Y-52700000D03*
X87100000Y-52100000D03*
X124300000Y-52700000D03*
X92800000Y-88300000D03*
X78700000Y-85000000D03*
X107100000Y-42300000D03*
X122500000Y-83700000D03*
X120200000Y-82500000D03*
X105500000Y-77000000D03*
X107400000Y-87800000D03*
X97100000Y-60100000D03*
X79300000Y-60900000D03*
X92200000Y-72200000D03*
X114900000Y-52200000D03*
X115000000Y-44500000D03*
X119400000Y-44600000D03*
X92600000Y-77300000D03*
X122000000Y-68700000D03*
X95900000Y-53200000D03*
X120200000Y-51200000D03*
X87100000Y-50500000D03*
X80200000Y-40500000D03*
X93500000Y-46000000D03*
X76600000Y-90400004D03*
X120300000Y-88200000D03*
X116800000Y-79600000D03*
X92100000Y-57300000D03*
X103600000Y-47200000D03*
X110700000Y-79600000D03*
X93700000Y-65400000D03*
X95800000Y-69900000D03*
X101700000Y-52000000D03*
X102400000Y-47100000D03*
X98000000Y-60940000D03*
X122400002Y-63900000D03*
X99300000Y-52000000D03*
X99700000Y-48700000D03*
X113900000Y-55800006D03*
X118300000Y-56900000D03*
X100500000Y-52000000D03*
X101000000Y-48700000D03*
X78900000Y-55900000D03*
X114200000Y-72900000D03*
X78500000Y-56700000D03*
X114900000Y-72200000D03*
X78900000Y-57600000D03*
X115700000Y-71200000D03*
X78500000Y-58600000D03*
X116300000Y-69300000D03*
X83900000Y-60600000D03*
X90900000Y-51400000D03*
X84600000Y-61200000D03*
X91900000Y-51400000D03*
X84600000Y-62200000D03*
X92900000Y-51400000D03*
X84700000Y-63100000D03*
X93900000Y-51400000D03*
X90400000Y-57600000D03*
X103799994Y-55300000D03*
X104200000Y-78600000D03*
X88500000Y-78600000D03*
X104800000Y-79400000D03*
X89300006Y-79400000D03*
X105700000Y-80200000D03*
X90099992Y-80200000D03*
X96000000Y-68900000D03*
X106199978Y-64800000D03*
X97100000Y-68400000D03*
X104599978Y-66000000D03*
X117000000Y-65100000D03*
X109200000Y-68500000D03*
X98900000Y-67300000D03*
X102900006Y-66700000D03*
X100125000Y-65500000D03*
X102800000Y-64300000D03*
X101100000Y-66300000D03*
X104200000Y-64199994D03*
X112300000Y-56900000D03*
X110100000Y-56500000D03*
X111000000Y-65000000D03*
X90800000Y-62200000D03*
X111800000Y-64300010D03*
X90000004Y-61700000D03*
X113000000Y-64200000D03*
X89200000Y-61100000D03*
X114400000Y-64900000D03*
X88400000Y-60500000D03*
X83100000Y-86000000D03*
X108700000Y-82800000D03*
X107300000Y-86800000D03*
X116900000Y-89400000D03*
X120200000Y-49700000D03*
X106700000Y-51900000D03*
X101500000Y-55200000D03*
X99400001Y-55200000D03*
X86900000Y-59700000D03*
X120200000Y-54200000D03*
X106699992Y-52900000D03*
X105100000Y-52900000D03*
X86800000Y-61000000D03*
X120200000Y-55700000D03*
X105000000Y-54100000D03*
X106700008Y-54100000D03*
D35*
X102833500Y-43300000D02*
X101576200Y-43300000D01*
X101576200Y-43300000D02*
X100166500Y-43300000D01*
X100166500Y-43300000D02*
X98833000Y-43300000D01*
X96920000Y-43300000D02*
X96900000Y-43280000D01*
X98833000Y-43300000D02*
X96920000Y-43300000D01*
X83000000Y-49500000D02*
X77700000Y-49500000D01*
X83000000Y-49500000D02*
X84500000Y-48000000D01*
X96900000Y-44840000D02*
X93740000Y-48000000D01*
X93740000Y-48000000D02*
X92400000Y-48000000D01*
X96900000Y-43280000D02*
X96900000Y-44840000D01*
X91700000Y-86700000D02*
X92800000Y-86700000D01*
X119100000Y-86600000D02*
X120300000Y-86600000D01*
X123400000Y-96000000D02*
X123400000Y-90400000D01*
X78700000Y-87700000D02*
X78700000Y-88800000D01*
D36*
X81850000Y-87950000D02*
X81850000Y-88950000D01*
X81850000Y-88950000D02*
X81900000Y-89000000D01*
X90125000Y-82450000D02*
X90125000Y-81175000D01*
X90125000Y-81175000D02*
X90200000Y-81100000D01*
X84275000Y-82450000D02*
X84275000Y-81175000D01*
X84275000Y-81175000D02*
X84200000Y-81100000D01*
X110225000Y-88250000D02*
X110225000Y-89275000D01*
X110225000Y-89275000D02*
X110100000Y-89400000D01*
X110225000Y-82550000D02*
X110225000Y-81425000D01*
X110225000Y-81425000D02*
X110200000Y-81400000D01*
X110875000Y-82550000D02*
X110875000Y-81425000D01*
X110875000Y-81425000D02*
X110900000Y-81400000D01*
X86600000Y-45100000D02*
X86600000Y-46700000D01*
D35*
X96900000Y-41520000D02*
X96900000Y-40300000D01*
X105700000Y-43980000D02*
X107080000Y-43980000D01*
X107080000Y-43980000D02*
X107100000Y-44000000D01*
D36*
X120350000Y-86550000D02*
X120300000Y-86600000D01*
X121850000Y-86550000D02*
X120350000Y-86550000D01*
D35*
X123700000Y-82100000D02*
X122500000Y-82100000D01*
X119100000Y-80900000D02*
X120300000Y-80900000D01*
X104300000Y-75400000D02*
X105500000Y-75400000D01*
X108600000Y-89400000D02*
X107400000Y-89400000D01*
D36*
X107350000Y-83850000D02*
X107350000Y-82850000D01*
X107350000Y-82850000D02*
X107300000Y-82800000D01*
X102725000Y-71050000D02*
X102725000Y-69875000D01*
X102725000Y-69875000D02*
X103000000Y-69600000D01*
X96875000Y-71050000D02*
X96875000Y-72275000D01*
X96875000Y-72275000D02*
X97000000Y-72400000D01*
X95180000Y-58500000D02*
X94700000Y-58980000D01*
X96000000Y-58500000D02*
X95180000Y-58500000D01*
X93920000Y-58980000D02*
X93900000Y-59000000D01*
X94700000Y-58980000D02*
X93920000Y-58980000D01*
X81430000Y-59800000D02*
X80930000Y-59300000D01*
X82500000Y-59800000D02*
X81430000Y-59800000D01*
X80930000Y-59300000D02*
X80400000Y-59300000D01*
D35*
X96000000Y-58500000D02*
X97100000Y-58500000D01*
X80400000Y-59300000D02*
X79300000Y-59300000D01*
X91200000Y-73900000D02*
X92200000Y-73900000D01*
X113800000Y-50600000D02*
X114900000Y-50600000D01*
D36*
X110600000Y-42000000D02*
X110600000Y-44500000D01*
X113225000Y-66750000D02*
X113225000Y-65141618D01*
X113225000Y-65141618D02*
X113383309Y-64983309D01*
D35*
X97600000Y-54200000D02*
X97600000Y-53200000D01*
X105680000Y-44000000D02*
X105700000Y-43980000D01*
X104700000Y-44000000D02*
X105680000Y-44000000D01*
X102980000Y-44800000D02*
X103900000Y-44800000D01*
X103900000Y-44800000D02*
X104700000Y-44000000D01*
D36*
X119105000Y-52700000D02*
X120200000Y-52700000D01*
D35*
X88200000Y-52100000D02*
X87100000Y-52100000D01*
D36*
X90175000Y-88300000D02*
X90125000Y-88350000D01*
X91700000Y-88300000D02*
X90175000Y-88300000D01*
D35*
X91700000Y-88300000D02*
X92800000Y-88300000D01*
D36*
X80500000Y-86100000D02*
X80550000Y-86050000D01*
X78700000Y-86100000D02*
X80500000Y-86100000D01*
D35*
X78700000Y-86100000D02*
X78700000Y-85000000D01*
X105700000Y-42220000D02*
X107020000Y-42220000D01*
X107020000Y-42220000D02*
X107100000Y-42300000D01*
D36*
X123750000Y-83750000D02*
X123700000Y-83700000D01*
X123750000Y-85250000D02*
X123750000Y-83750000D01*
D35*
X123700000Y-83700000D02*
X122500000Y-83700000D01*
D36*
X119050000Y-82550000D02*
X119100000Y-82500000D01*
X117375000Y-82550000D02*
X119050000Y-82550000D01*
X116725000Y-82550000D02*
X117375000Y-82550000D01*
D35*
X119100000Y-82500000D02*
X120200000Y-82500000D01*
D36*
X104250000Y-76950000D02*
X104300000Y-77000000D01*
X102725000Y-76950000D02*
X104250000Y-76950000D01*
D35*
X104300000Y-77000000D02*
X105500000Y-77000000D01*
X108600000Y-87800000D02*
X107400000Y-87800000D01*
D36*
X108650000Y-87750000D02*
X108600000Y-87800000D01*
X108650000Y-85750000D02*
X108650000Y-87750000D01*
X96000000Y-60100000D02*
X95100000Y-60100000D01*
X94800000Y-59800000D02*
X95100000Y-60100000D01*
X93900000Y-59800000D02*
X94800000Y-59800000D01*
X82500000Y-60600000D02*
X81200000Y-60600000D01*
X80900000Y-60900000D02*
X80400000Y-60900000D01*
X81200000Y-60600000D02*
X80900000Y-60900000D01*
D35*
X96000000Y-60100000D02*
X97100000Y-60100000D01*
X80400000Y-60900000D02*
X79300000Y-60900000D01*
X91200000Y-72200000D02*
X92200000Y-72200000D01*
D36*
X119100000Y-84000000D02*
X118900000Y-84200000D01*
X119100000Y-82500000D02*
X119100000Y-84000000D01*
X113775000Y-52225000D02*
X113800000Y-52200000D01*
X113775000Y-54150000D02*
X113775000Y-52225000D01*
D35*
X113800000Y-52200000D02*
X114900000Y-52200000D01*
D36*
X107400000Y-42000000D02*
X107100000Y-42300000D01*
X108900000Y-42000000D02*
X107400000Y-42000000D01*
X108900000Y-42000000D02*
X108900000Y-45300000D01*
X114800000Y-42000000D02*
X114800000Y-44300000D01*
X114800000Y-44300000D02*
X115000000Y-44500000D01*
X119100000Y-42000000D02*
X119100000Y-44300000D01*
X119100000Y-44300000D02*
X119400000Y-44600000D01*
X93600000Y-77300000D02*
X92600000Y-77300000D01*
X120900000Y-68700000D02*
X122000000Y-68700000D01*
D35*
X95900000Y-54200000D02*
X95900000Y-53200000D01*
X105680000Y-42200000D02*
X105700000Y-42220000D01*
X104500000Y-42200000D02*
X105680000Y-42200000D01*
X102980000Y-41800000D02*
X104100000Y-41800000D01*
X104100000Y-41800000D02*
X104500000Y-42200000D01*
D36*
X119105000Y-51200000D02*
X120200000Y-51200000D01*
D35*
X88200000Y-50500000D02*
X87100000Y-50500000D01*
D36*
X89600000Y-70600000D02*
X89600000Y-72200000D01*
X89600000Y-72200000D02*
X89600000Y-73900000D01*
D35*
X79200000Y-40500000D02*
X80200000Y-40500000D01*
X80200000Y-40500000D02*
X81200000Y-40500000D01*
D36*
X90400000Y-46700000D02*
X92800000Y-46700000D01*
X89800000Y-45100000D02*
X89800000Y-46100000D01*
X92800000Y-46700000D02*
X93500000Y-46000000D01*
X89800000Y-46100000D02*
X90400000Y-46700000D01*
D35*
X76600000Y-96000000D02*
X76600000Y-90400004D01*
X119100000Y-88200000D02*
X120300000Y-88200000D01*
D36*
X117425000Y-88200000D02*
X117375000Y-88250000D01*
X117375000Y-88250000D02*
X116725000Y-88250000D01*
X119050000Y-88250000D02*
X119100000Y-88200000D01*
X117375000Y-88250000D02*
X119050000Y-88250000D01*
D35*
X75700000Y-46900000D02*
X75700000Y-48550000D01*
X75700000Y-50450000D02*
X75700000Y-52100000D01*
D36*
X110600000Y-40400000D02*
X108900000Y-40400000D01*
X119100000Y-40400000D02*
X117400000Y-40400000D01*
X114800000Y-40400000D02*
X113100000Y-40400000D01*
X120250000Y-90570000D02*
X120250000Y-95750000D01*
X123750000Y-87070000D02*
X120250000Y-90570000D01*
X123750000Y-86550000D02*
X123750000Y-87070000D01*
X118750000Y-92600000D02*
X118750000Y-95750000D01*
X115425000Y-88250000D02*
X115425000Y-89275000D01*
X115425000Y-89275000D02*
X118750000Y-92600000D01*
X117250000Y-92680000D02*
X117250000Y-95750000D01*
X114775000Y-90205000D02*
X117250000Y-92680000D01*
X114775000Y-88250000D02*
X114775000Y-90205000D01*
X114125000Y-91055000D02*
X115750000Y-92680000D01*
X115750000Y-92680000D02*
X115750000Y-95750000D01*
X114125000Y-88250000D02*
X114125000Y-91055000D01*
X113475000Y-91905000D02*
X114250000Y-92680000D01*
X113475000Y-88250000D02*
X113475000Y-91905000D01*
X114250000Y-92680000D02*
X114250000Y-95750000D01*
X112825000Y-95675000D02*
X112750000Y-95750000D01*
X112825000Y-88250000D02*
X112825000Y-95675000D01*
X111250000Y-92200000D02*
X111250000Y-95750000D01*
X112175000Y-88250000D02*
X112175000Y-91275000D01*
X112175000Y-91275000D02*
X111250000Y-92200000D01*
X111525000Y-88250000D02*
X111525000Y-90225000D01*
X109750000Y-92000000D02*
X109750000Y-95750000D01*
X111525000Y-90225000D02*
X109750000Y-92000000D01*
X108250000Y-92200000D02*
X108250000Y-95750000D01*
X110875000Y-88250000D02*
X110875000Y-89575000D01*
X110875000Y-89575000D02*
X108250000Y-92200000D01*
X106750000Y-92680000D02*
X106750000Y-95750000D01*
X102500000Y-78200000D02*
X106400000Y-82100000D01*
X106400000Y-82100000D02*
X106400000Y-92330000D01*
X101726998Y-78200000D02*
X102500000Y-78200000D01*
X101425000Y-77898002D02*
X101726998Y-78200000D01*
X101425000Y-76950000D02*
X101425000Y-77898002D01*
X106400000Y-92330000D02*
X106750000Y-92680000D01*
X100775000Y-78275000D02*
X101400000Y-78900000D01*
X105700000Y-82300000D02*
X105700000Y-92230000D01*
X105250000Y-92680000D02*
X105250000Y-95750000D01*
X105700000Y-92230000D02*
X105250000Y-92680000D01*
X100775000Y-76950000D02*
X100775000Y-78275000D01*
X101400000Y-78900000D02*
X102300000Y-78900000D01*
X102300000Y-78900000D02*
X105700000Y-82300000D01*
X100125000Y-79125000D02*
X100600000Y-79600000D01*
X105000000Y-91430000D02*
X103750000Y-92680000D01*
X100125000Y-76950000D02*
X100125000Y-79125000D01*
X103750000Y-92680000D02*
X103750000Y-95750000D01*
X105000000Y-82500000D02*
X105000000Y-91430000D01*
X100600000Y-79600000D02*
X102100000Y-79600000D01*
X102100000Y-79600000D02*
X105000000Y-82500000D01*
X102250000Y-92680000D02*
X102250000Y-95750000D01*
X99475000Y-79575000D02*
X100200000Y-80300000D01*
X104300000Y-82700000D02*
X104300000Y-90630000D01*
X100200000Y-80300000D02*
X101900000Y-80300000D01*
X101900000Y-80300000D02*
X104300000Y-82700000D01*
X104300000Y-90630000D02*
X102250000Y-92680000D01*
X99475000Y-79575000D02*
X99475000Y-76950000D01*
X98825000Y-79675000D02*
X98825000Y-76950000D01*
X95600000Y-82900000D02*
X98825000Y-79675000D01*
X95600000Y-87500000D02*
X95600000Y-82900000D01*
X100750000Y-95750000D02*
X100750000Y-92650000D01*
X100750000Y-92650000D02*
X95600000Y-87500000D01*
X98175000Y-79425000D02*
X98175000Y-76950000D01*
X94999978Y-82600022D02*
X98175000Y-79425000D01*
X94999978Y-88399978D02*
X94999978Y-82600022D01*
X99250000Y-95750000D02*
X99250000Y-92650000D01*
X99250000Y-92650000D02*
X94999978Y-88399978D01*
X97525000Y-79175000D02*
X97525000Y-76950000D01*
X94400000Y-82300000D02*
X97525000Y-79175000D01*
X97750000Y-95750000D02*
X97750000Y-92550000D01*
X94400000Y-89200000D02*
X94400000Y-82300000D01*
X97750000Y-92550000D02*
X94400000Y-89200000D01*
X93800000Y-82047576D02*
X96875000Y-78972576D01*
X93800000Y-90200000D02*
X93800000Y-82047576D01*
X96250000Y-95750000D02*
X96250000Y-92650000D01*
X96875000Y-78972576D02*
X96875000Y-76950000D01*
X96250000Y-92650000D02*
X93800000Y-90200000D01*
X94750000Y-92750000D02*
X94750000Y-95750000D01*
X92400000Y-90400000D02*
X94750000Y-92750000D01*
X89800000Y-90400000D02*
X92400000Y-90400000D01*
X88800000Y-89400000D02*
X89800000Y-90400000D01*
X88825000Y-88350000D02*
X88800000Y-88350000D01*
X88800000Y-88350000D02*
X88800000Y-89400000D01*
X93200000Y-92800000D02*
X93200000Y-95700000D01*
X93200000Y-95700000D02*
X93250000Y-95750000D01*
X91400000Y-91000000D02*
X93200000Y-92800000D01*
X89500000Y-91000000D02*
X91400000Y-91000000D01*
X88175000Y-88350000D02*
X88175000Y-89675000D01*
X88175000Y-89675000D02*
X89500000Y-91000000D01*
X91750000Y-92680000D02*
X91750000Y-95750000D01*
X89200000Y-91600000D02*
X90670000Y-91600000D01*
X90670000Y-91600000D02*
X91750000Y-92680000D01*
X87525000Y-88350000D02*
X87525000Y-89925000D01*
X87525000Y-89925000D02*
X89200000Y-91600000D01*
X90250000Y-92750000D02*
X90250000Y-95750000D01*
X89700000Y-92200000D02*
X90250000Y-92750000D01*
X88900000Y-92200000D02*
X89700000Y-92200000D01*
X86875000Y-88350000D02*
X86875000Y-90175000D01*
X86875000Y-90175000D02*
X88900000Y-92200000D01*
X88725000Y-95725000D02*
X88750000Y-95750000D01*
X88750000Y-92950000D02*
X88750000Y-95750000D01*
X86225000Y-88350000D02*
X86225000Y-90425000D01*
X86225000Y-90425000D02*
X88750000Y-92950000D01*
X85575000Y-88350000D02*
X85575000Y-91175000D01*
X87250000Y-92850000D02*
X87250000Y-95750000D01*
X85575000Y-91175000D02*
X87250000Y-92850000D01*
X85750000Y-92680000D02*
X85750000Y-95750000D01*
X84925000Y-91855000D02*
X85750000Y-92680000D01*
X84925000Y-88350000D02*
X84925000Y-91855000D01*
X84275000Y-95725000D02*
X84250000Y-95750000D01*
X84275000Y-88350000D02*
X84275000Y-95725000D01*
X81200000Y-95700000D02*
X81250000Y-95750000D01*
X81200000Y-87950000D02*
X81200000Y-95700000D01*
X117400000Y-42000000D02*
X117400000Y-45300000D01*
X93000000Y-58200000D02*
X93900000Y-58200000D01*
X92100000Y-57300000D02*
X93000000Y-58200000D01*
X119300000Y-77100000D02*
X116800000Y-79600000D01*
X119300000Y-68700000D02*
X119300000Y-77100000D01*
X117400000Y-45300000D02*
X115500000Y-47200000D01*
X115500000Y-47200000D02*
X103600000Y-47200000D01*
X108000000Y-81875736D02*
X108000000Y-83000000D01*
X110275736Y-79600000D02*
X108000000Y-81875736D01*
X110700000Y-79600000D02*
X110275736Y-79600000D01*
X108000000Y-83850000D02*
X108000000Y-83000000D01*
X108000000Y-83000000D02*
X108000000Y-82475736D01*
X102075000Y-69548198D02*
X104223198Y-67400000D01*
X102075000Y-71050000D02*
X102075000Y-69548198D01*
X104223198Y-67400000D02*
X107623198Y-67400000D01*
X107623198Y-67400000D02*
X111483199Y-63539999D01*
X119300000Y-66244998D02*
X119300000Y-68700000D01*
X117400000Y-45300000D02*
X121200000Y-49100000D01*
X121200000Y-64344998D02*
X119300000Y-66244998D01*
X121200000Y-49100000D02*
X121200000Y-64344998D01*
X117205000Y-68700000D02*
X117900000Y-68700000D01*
X116525000Y-68020000D02*
X117205000Y-68700000D01*
X116525000Y-66950000D02*
X116525000Y-68020000D01*
X117355000Y-68700000D02*
X117900000Y-68700000D01*
X117900000Y-68700000D02*
X119300000Y-68700000D01*
X116525000Y-65926998D02*
X116525000Y-66950000D01*
X114138001Y-63539999D02*
X113250000Y-63539999D01*
X116525000Y-65926998D02*
X114138001Y-63539999D01*
X111483199Y-63539999D02*
X113250000Y-63539999D01*
X80500000Y-88000000D02*
X80550000Y-87950000D01*
X102100000Y-76925000D02*
X102075000Y-76950000D01*
X89100000Y-87100000D02*
X89475000Y-87475000D01*
X80876998Y-87100000D02*
X89100000Y-87100000D01*
X89475000Y-87475000D02*
X89475000Y-88350000D01*
X80550000Y-87950000D02*
X80550000Y-87426998D01*
X80550000Y-87426998D02*
X80876998Y-87100000D01*
X102075000Y-75905000D02*
X102075000Y-76950000D01*
X101670000Y-75500000D02*
X102075000Y-75905000D01*
X89100000Y-87100000D02*
X93000000Y-83200000D01*
X93000000Y-81173002D02*
X95200000Y-78973002D01*
X93000000Y-83200000D02*
X93000000Y-81173002D01*
X96400000Y-75500000D02*
X101670000Y-75500000D01*
X113100000Y-42000000D02*
X113100000Y-45300000D01*
X91823198Y-56600000D02*
X91439999Y-56983199D01*
X93900000Y-56600000D02*
X91823198Y-56600000D01*
X91439999Y-56983199D02*
X91439999Y-57739999D01*
X91439999Y-57739999D02*
X92426998Y-58726998D01*
X92426998Y-64126998D02*
X92426998Y-63100000D01*
X93700000Y-65400000D02*
X92426998Y-64126998D01*
X92426998Y-58726998D02*
X92426998Y-63100000D01*
X92426998Y-63100000D02*
X92426998Y-64026998D01*
X95800000Y-74900000D02*
X95800000Y-69900000D01*
X96400000Y-75500000D02*
X95800000Y-74900000D01*
X95200000Y-76700000D02*
X95200000Y-77300000D01*
X96400000Y-75500000D02*
X95200000Y-76700000D01*
X95200000Y-77300000D02*
X95200000Y-78973002D01*
X113100000Y-45300000D02*
X111900000Y-46500000D01*
X103000000Y-46500000D02*
X102400000Y-47100000D01*
X111900000Y-46500000D02*
X103000000Y-46500000D01*
X100400000Y-53300000D02*
X101700000Y-52000000D01*
X93900000Y-56600000D02*
X99300000Y-56600000D01*
X100400000Y-55500000D02*
X100400000Y-53300000D01*
X99300000Y-56600000D02*
X100400000Y-55500000D01*
X89000000Y-67670000D02*
X89000000Y-65500000D01*
X89600000Y-68270000D02*
X89000000Y-67670000D01*
X89600000Y-69000000D02*
X89600000Y-68270000D01*
X120500000Y-85195000D02*
X121205000Y-85900000D01*
X121205000Y-85900000D02*
X121850000Y-85900000D01*
X120500000Y-84200000D02*
X120500000Y-85195000D01*
X124099999Y-61499999D02*
X123100000Y-60500000D01*
X121400000Y-80300000D02*
X124100000Y-77600000D01*
X124100000Y-77600000D02*
X124099999Y-61499999D01*
X120500000Y-84200000D02*
X120500000Y-83500000D01*
X121400000Y-82600000D02*
X121400000Y-80300000D01*
X120500000Y-83500000D02*
X121400000Y-82600000D01*
X97979990Y-60960010D02*
X98000000Y-60940000D01*
X95224605Y-60960010D02*
X97979990Y-60960010D01*
X93900000Y-60600000D02*
X94864595Y-60600000D01*
X94864595Y-60600000D02*
X95224605Y-60960010D01*
X123000000Y-60400000D02*
X123100000Y-60500000D01*
X123100000Y-60500000D02*
X122400002Y-61199998D01*
X122400002Y-61199998D02*
X122400002Y-63475736D01*
X122400002Y-63475736D02*
X122400002Y-63900000D01*
X102000000Y-62200000D02*
X106200000Y-58000000D01*
X93900000Y-62200000D02*
X102000000Y-62200000D01*
X94973003Y-61600001D02*
X94773002Y-61400000D01*
X100860659Y-61600001D02*
X94973003Y-61600001D01*
X94773002Y-61400000D02*
X93900000Y-61400000D01*
X103400000Y-59060660D02*
X100860659Y-61600001D01*
X103400000Y-58000000D02*
X103400000Y-59060660D01*
X84200000Y-52200000D02*
X83700000Y-51700000D01*
X84200000Y-54100000D02*
X84200000Y-52200000D01*
X81600000Y-55800000D02*
X80100000Y-54300000D01*
X82500000Y-55800000D02*
X81600000Y-55800000D01*
X99100000Y-51800000D02*
X99300000Y-52000000D01*
X91430000Y-52200000D02*
X94200000Y-52200000D01*
X90600000Y-54100000D02*
X90600000Y-53030000D01*
X94600000Y-51800000D02*
X99100000Y-51800000D01*
X94200000Y-52200000D02*
X94600000Y-51800000D01*
X90600000Y-53030000D02*
X91430000Y-52200000D01*
X99700000Y-48700000D02*
X100400000Y-48000000D01*
X114325000Y-55375006D02*
X113900000Y-55800006D01*
X114325000Y-54150000D02*
X114325000Y-55375006D01*
X115600000Y-48000000D02*
X116900000Y-49300000D01*
X100400000Y-48000000D02*
X115600000Y-48000000D01*
X117800000Y-56400000D02*
X118300000Y-56900000D01*
X116900000Y-49300000D02*
X117800000Y-50200000D01*
X117800000Y-50200000D02*
X117800000Y-56400000D01*
X99839999Y-52660001D02*
X100500000Y-52000000D01*
X98760001Y-52660001D02*
X99839999Y-52660001D01*
X91400000Y-53226998D02*
X91783225Y-52843773D01*
X91400000Y-54100000D02*
X91400000Y-53226998D01*
X91783225Y-52843773D02*
X94756227Y-52843773D01*
X94756227Y-52843773D02*
X95260010Y-52339990D01*
X95260010Y-52339990D02*
X98439990Y-52339990D01*
X98439990Y-52339990D02*
X98760001Y-52660001D01*
X111400001Y-48800001D02*
X111900000Y-49300000D01*
X101000000Y-48700000D02*
X101100000Y-48800000D01*
X101100000Y-48800000D02*
X111400001Y-48800001D01*
X117075000Y-53030000D02*
X117075000Y-54150000D01*
X117075000Y-51558763D02*
X117075000Y-53030000D01*
X114816237Y-49300000D02*
X117075000Y-51558763D01*
X111900000Y-49300000D02*
X114816237Y-49300000D01*
X82500000Y-56600000D02*
X81464215Y-56600000D01*
X80764215Y-55900000D02*
X78900000Y-55900000D01*
X81464215Y-56600000D02*
X80764215Y-55900000D01*
X114125000Y-78583407D02*
X114125000Y-82550000D01*
X114325000Y-78383407D02*
X114125000Y-78583407D01*
X114200000Y-72900000D02*
X114325000Y-73025000D01*
X114325000Y-73025000D02*
X114325000Y-78383407D01*
X114325000Y-70675000D02*
X114325000Y-66750000D01*
X114200000Y-70800000D02*
X114325000Y-70675000D01*
X114200000Y-72900000D02*
X114200000Y-70800000D01*
X114875000Y-78270000D02*
X114864999Y-78280001D01*
X114875000Y-81125000D02*
X114875000Y-78270000D01*
X114775000Y-82550000D02*
X114775000Y-81225000D01*
X114775000Y-81225000D02*
X114875000Y-81125000D01*
X80828811Y-56700000D02*
X78500000Y-56700000D01*
X82500000Y-57400000D02*
X81528811Y-57400000D01*
X81528811Y-57400000D02*
X80828811Y-56700000D01*
X114900000Y-73900000D02*
X114900000Y-72200000D01*
X114875000Y-78270000D02*
X114875000Y-73925000D01*
X114875000Y-73925000D02*
X114900000Y-73900000D01*
X114875000Y-72175000D02*
X114900000Y-72200000D01*
X114875000Y-66950000D02*
X114875000Y-72175000D01*
X80993407Y-57600000D02*
X78900000Y-57600000D01*
X82500000Y-58200000D02*
X81593407Y-58200000D01*
X81593407Y-58200000D02*
X80993407Y-57600000D01*
X115700000Y-71200000D02*
X115700000Y-70775736D01*
X115700000Y-75000000D02*
X115700000Y-71200000D01*
X115425000Y-82550000D02*
X115425000Y-75275000D01*
X115425000Y-75275000D02*
X115700000Y-75000000D01*
X115425000Y-70500736D02*
X115700000Y-70775736D01*
X115425000Y-66950000D02*
X115425000Y-70500736D01*
X81097992Y-58439990D02*
X78660010Y-58439990D01*
X78660010Y-58439990D02*
X78500000Y-58600000D01*
X82500000Y-59000000D02*
X81658002Y-59000000D01*
X81658002Y-59000000D02*
X81097992Y-58439990D01*
X116075000Y-81175000D02*
X116075000Y-82550000D01*
X116500000Y-69500000D02*
X116500000Y-75500000D01*
X116300000Y-69300000D02*
X116500000Y-69500000D01*
X116500000Y-75500000D02*
X115975000Y-76025000D01*
X115975000Y-81075000D02*
X116075000Y-81175000D01*
X115975000Y-76025000D02*
X115975000Y-81075000D01*
X115975000Y-68975000D02*
X116300000Y-69300000D01*
X115975000Y-66950000D02*
X115975000Y-68975000D01*
X83900000Y-61070000D02*
X83900000Y-60600000D01*
X82500000Y-61400000D02*
X83570000Y-61400000D01*
X83570000Y-61400000D02*
X83900000Y-61070000D01*
X92900000Y-49400000D02*
X90900000Y-51400000D01*
X112125000Y-54150000D02*
X112125000Y-51725000D01*
X109800000Y-49400000D02*
X92900000Y-49400000D01*
X112125000Y-51725000D02*
X109800000Y-49400000D01*
X84925000Y-80725000D02*
X84925000Y-82450000D01*
X78800000Y-74600000D02*
X84925000Y-80725000D01*
X78800000Y-64030000D02*
X78800000Y-74600000D01*
X82500000Y-61400000D02*
X81430000Y-61400000D01*
X81430000Y-61400000D02*
X78800000Y-64030000D01*
X83600000Y-62200000D02*
X84600000Y-61200000D01*
X82500000Y-62200000D02*
X83600000Y-62200000D01*
X93300000Y-50000000D02*
X91900000Y-51400000D01*
X109400000Y-50000000D02*
X93300000Y-50000000D01*
X111575000Y-54150000D02*
X111575000Y-52175000D01*
X111575000Y-52175000D02*
X109400000Y-50000000D01*
X85575000Y-80275000D02*
X85575000Y-82450000D01*
X79500000Y-74200000D02*
X85575000Y-80275000D01*
X79500000Y-64326998D02*
X79500000Y-74200000D01*
X82500000Y-62200000D02*
X81626998Y-62200000D01*
X81626998Y-62200000D02*
X79500000Y-64326998D01*
X82500000Y-63000000D02*
X83800000Y-63000000D01*
X83800000Y-63000000D02*
X84600000Y-62200000D01*
X93700000Y-50600000D02*
X92900000Y-51400000D01*
X109000000Y-50600000D02*
X93700000Y-50600000D01*
X111025000Y-54150000D02*
X111025000Y-52625000D01*
X111025000Y-52625000D02*
X109000000Y-50600000D01*
X80200000Y-73800000D02*
X86225000Y-79825000D01*
X80200000Y-64426998D02*
X80200000Y-73800000D01*
X82500000Y-63000000D02*
X81626998Y-63000000D01*
X86225000Y-79825000D02*
X86225000Y-82450000D01*
X81626998Y-63000000D02*
X80200000Y-64426998D01*
X84000000Y-63800000D02*
X84700000Y-63100000D01*
X82500000Y-63800000D02*
X84000000Y-63800000D01*
X108645000Y-51200000D02*
X94100000Y-51200000D01*
X94100000Y-51200000D02*
X93900000Y-51400000D01*
X110475000Y-54150000D02*
X110475000Y-53030000D01*
X110475000Y-53030000D02*
X108645000Y-51200000D01*
X86875000Y-79375000D02*
X86875000Y-82450000D01*
X80900000Y-73400000D02*
X86875000Y-79375000D01*
X80900000Y-64600000D02*
X80900000Y-73400000D01*
X82500000Y-63800000D02*
X81700000Y-63800000D01*
X81700000Y-63800000D02*
X80900000Y-64600000D01*
X87525000Y-78225000D02*
X87525000Y-82450000D01*
X85800000Y-65500000D02*
X85800000Y-76500000D01*
X85800000Y-76500000D02*
X87525000Y-78225000D01*
X104399994Y-55900000D02*
X103799994Y-55300000D01*
X109500000Y-55900000D02*
X104399994Y-55900000D01*
X109925000Y-54150000D02*
X109925000Y-55475000D01*
X109925000Y-55475000D02*
X109500000Y-55900000D01*
X91500000Y-62500000D02*
X91500000Y-58700000D01*
X91500000Y-58700000D02*
X90400000Y-57600000D01*
X90400000Y-63600000D02*
X91500000Y-62500000D01*
X86800000Y-63600000D02*
X90400000Y-63600000D01*
X85800000Y-65500000D02*
X85800000Y-64600000D01*
X85800000Y-64600000D02*
X86800000Y-63600000D01*
X88175000Y-78925000D02*
X88500000Y-78600000D01*
X88175000Y-82450000D02*
X88175000Y-78925000D01*
X88500000Y-78100000D02*
X88500000Y-78600000D01*
X86600000Y-65500000D02*
X86600000Y-76200000D01*
X86600000Y-76200000D02*
X88500000Y-78100000D01*
X105400000Y-78600000D02*
X104200000Y-78600000D01*
X109925000Y-66750000D02*
X109925000Y-74075000D01*
X109925000Y-74075000D02*
X105400000Y-78600000D01*
X88825000Y-82450000D02*
X88825000Y-79875006D01*
X88825000Y-79875006D02*
X89300006Y-79400000D01*
X87400000Y-75400000D02*
X87400000Y-65500000D01*
X89300006Y-79400000D02*
X89300006Y-77300006D01*
X89300006Y-77300006D02*
X87400000Y-75400000D01*
X105500000Y-79400000D02*
X104800000Y-79400000D01*
X110475000Y-66750000D02*
X110475000Y-74425000D01*
X110475000Y-74425000D02*
X105500000Y-79400000D01*
X89475000Y-80824992D02*
X90099992Y-80200000D01*
X89475000Y-82450000D02*
X89475000Y-80824992D01*
X88200000Y-74600000D02*
X88200000Y-65500000D01*
X90099992Y-80200000D02*
X90099992Y-76499992D01*
X90099992Y-76499992D02*
X88200000Y-74600000D01*
X111025000Y-74875000D02*
X105700000Y-80200000D01*
X111025000Y-66750000D02*
X111025000Y-74875000D01*
X89800000Y-65500000D02*
X89800000Y-67100000D01*
X96453000Y-68900000D02*
X96000000Y-68900000D01*
X97525000Y-71050000D02*
X97525000Y-69972000D01*
X97525000Y-69972000D02*
X96453000Y-68900000D01*
X91600000Y-68900000D02*
X89800000Y-67100000D01*
X96000000Y-68900000D02*
X91600000Y-68900000D01*
X106624242Y-64800000D02*
X106199978Y-64800000D01*
X107200000Y-64800000D02*
X106624242Y-64800000D01*
X115425000Y-54150000D02*
X115425000Y-56575000D01*
X115425000Y-56575000D02*
X107200000Y-64800000D01*
X98175000Y-69475000D02*
X97100000Y-68400000D01*
X98175000Y-71050000D02*
X98175000Y-69475000D01*
X90600000Y-67000000D02*
X90600000Y-65500000D01*
X91700000Y-68100000D02*
X90600000Y-67000000D01*
X97100000Y-68400000D02*
X96800000Y-68100000D01*
X96800000Y-68100000D02*
X91700000Y-68100000D01*
X105024242Y-66000000D02*
X104599978Y-66000000D01*
X107000000Y-66000000D02*
X105024242Y-66000000D01*
X115975000Y-54150000D02*
X115975000Y-57025000D01*
X115975000Y-57025000D02*
X107000000Y-66000000D01*
X117075000Y-65175000D02*
X117075000Y-66750000D01*
X117000000Y-65100000D02*
X117075000Y-65175000D01*
X92100000Y-67500000D02*
X91400000Y-66800000D01*
X97500000Y-67500000D02*
X92100000Y-67500000D01*
X98889999Y-68889999D02*
X97500000Y-67500000D01*
X98825000Y-71050000D02*
X98889999Y-70985001D01*
X91400000Y-66800000D02*
X91400000Y-65500000D01*
X98889999Y-70985001D02*
X98889999Y-68889999D01*
X98825000Y-72095000D02*
X98825000Y-71050000D01*
X102773002Y-72600000D02*
X99330000Y-72600000D01*
X109200000Y-68500000D02*
X106873002Y-68500000D01*
X99330000Y-72600000D02*
X98825000Y-72095000D01*
X106873002Y-68500000D02*
X102773002Y-72600000D01*
X99475000Y-69715786D02*
X99475000Y-71050000D01*
X92200000Y-66700000D02*
X92200000Y-65500000D01*
X98900000Y-67300000D02*
X98500000Y-66900000D01*
X92400000Y-66900000D02*
X92200000Y-66700000D01*
X98500000Y-66900000D02*
X92400000Y-66900000D01*
X99475000Y-67875000D02*
X99475000Y-71050000D01*
X98900000Y-67300000D02*
X99475000Y-67875000D01*
X103324270Y-66700000D02*
X102900006Y-66700000D01*
X107300000Y-66700000D02*
X103324270Y-66700000D01*
X116525000Y-54150000D02*
X116525000Y-57475000D01*
X116525000Y-57475000D02*
X107300000Y-66700000D01*
X93900000Y-63800000D02*
X98900000Y-63800000D01*
X98900000Y-63800000D02*
X100125000Y-65025000D01*
X100125000Y-65500000D02*
X100125000Y-71050000D01*
X100125000Y-65025000D02*
X100125000Y-65500000D01*
X112675000Y-55270000D02*
X112675000Y-54150000D01*
X107845000Y-60100000D02*
X112675000Y-55270000D01*
X102800000Y-64300000D02*
X107000000Y-60100000D01*
X107000000Y-60100000D02*
X107845000Y-60100000D01*
X100839999Y-70985001D02*
X100775000Y-71050000D01*
X98924264Y-63000000D02*
X101100000Y-65175736D01*
X100775000Y-66625000D02*
X101100000Y-66300000D01*
X100775000Y-71050000D02*
X100775000Y-66625000D01*
X101100000Y-65175736D02*
X101100000Y-66300000D01*
X93900000Y-63000000D02*
X98924264Y-63000000D01*
X107499994Y-60900000D02*
X104200000Y-64199994D01*
X110100000Y-60900000D02*
X107499994Y-60900000D01*
X114875000Y-54150000D02*
X114875000Y-56125000D01*
X114875000Y-56125000D02*
X110100000Y-60900000D01*
X113225000Y-54150000D02*
X113225000Y-55975000D01*
X113225000Y-55975000D02*
X112300000Y-56900000D01*
X110100000Y-56800000D02*
X110100000Y-56500000D01*
X101425000Y-68875000D02*
X101900000Y-68400000D01*
X101425000Y-71050000D02*
X101425000Y-68875000D01*
X101900000Y-68400000D02*
X101900000Y-64223198D01*
X107600000Y-59300000D02*
X110100000Y-56800000D01*
X101900000Y-64223198D02*
X106823198Y-59300000D01*
X106823198Y-59300000D02*
X107600000Y-59300000D01*
X101500000Y-56500000D02*
X110100000Y-56500000D01*
X93900000Y-57400000D02*
X100600000Y-57400000D01*
X100600000Y-57400000D02*
X101500000Y-56500000D01*
X111575000Y-82500000D02*
X111525000Y-82550000D01*
X111575000Y-66750000D02*
X111575000Y-77400000D01*
X111575000Y-77150000D02*
X111575000Y-77400000D01*
X111575000Y-77400000D02*
X111575000Y-82500000D01*
X111575000Y-66750000D02*
X111575000Y-65575000D01*
X111575000Y-65575000D02*
X111000000Y-65000000D01*
X89000000Y-57200000D02*
X90800000Y-59000000D01*
X90800000Y-61775736D02*
X90800000Y-62200000D01*
X89000000Y-54100000D02*
X89000000Y-57200000D01*
X90800000Y-59000000D02*
X90800000Y-61775736D01*
X112125000Y-82500000D02*
X112175000Y-82550000D01*
X112125000Y-66750000D02*
X112125000Y-77400000D01*
X112125000Y-77150000D02*
X112125000Y-77400000D01*
X112125000Y-77400000D02*
X112125000Y-82500000D01*
X112125000Y-66750000D02*
X112125000Y-64625010D01*
X112125000Y-64625010D02*
X111800000Y-64300010D01*
X90000004Y-59100004D02*
X90000004Y-61275736D01*
X90000004Y-61275736D02*
X90000004Y-61700000D01*
X88200000Y-57300000D02*
X90000004Y-59100004D01*
X88200000Y-54100000D02*
X88200000Y-57300000D01*
X112825000Y-78420000D02*
X112825000Y-82550000D01*
X112675000Y-78270000D02*
X112825000Y-78420000D01*
X112675000Y-66750000D02*
X112675000Y-77500000D01*
X112675000Y-77150000D02*
X112675000Y-77500000D01*
X112675000Y-77500000D02*
X112675000Y-78270000D01*
X112675000Y-64525000D02*
X112675000Y-66750000D01*
X113000000Y-64200000D02*
X112675000Y-64525000D01*
X87400000Y-54100000D02*
X87400000Y-57800000D01*
X89200000Y-59600000D02*
X89200000Y-60675736D01*
X87400000Y-57800000D02*
X89200000Y-59600000D01*
X89200000Y-60675736D02*
X89200000Y-61100000D01*
X113775000Y-70425000D02*
X113775000Y-66750000D01*
X113475000Y-82550000D02*
X113475000Y-70725000D01*
X113475000Y-70725000D02*
X113775000Y-70425000D01*
X113775000Y-65525000D02*
X114400000Y-64900000D01*
X113775000Y-66750000D02*
X113775000Y-65525000D01*
X88400000Y-59900000D02*
X88400000Y-60500000D01*
X86600000Y-54100000D02*
X86600000Y-58100000D01*
X86600000Y-58100000D02*
X88400000Y-59900000D01*
X81850000Y-86050000D02*
X83050000Y-86050000D01*
X83050000Y-86050000D02*
X83100000Y-86000000D01*
X108650000Y-83850000D02*
X108650000Y-82850000D01*
X108650000Y-82850000D02*
X108700000Y-82800000D01*
X107350000Y-85750000D02*
X107350000Y-86750000D01*
X107350000Y-86750000D02*
X107300000Y-86800000D01*
X116355000Y-89400000D02*
X116075000Y-89120000D01*
X116075000Y-89120000D02*
X116075000Y-88250000D01*
X116900000Y-89400000D02*
X116355000Y-89400000D01*
X88920000Y-46230001D02*
X88920000Y-46665715D01*
X89000000Y-45100000D02*
X89000000Y-46150001D01*
X89000000Y-46150001D02*
X88920000Y-46230001D01*
X85720000Y-49865715D02*
X85720000Y-52894999D01*
X88920000Y-46665715D02*
X85720000Y-49865715D01*
X85720000Y-52894999D02*
X85800000Y-52974999D01*
X85800000Y-52974999D02*
X85800000Y-54100000D01*
X88280000Y-46230001D02*
X88280000Y-46400615D01*
X88200000Y-46150001D02*
X88280000Y-46230001D01*
X88200000Y-45100000D02*
X88200000Y-46150001D01*
X85080000Y-52894999D02*
X85000000Y-52974999D01*
X85000000Y-52974999D02*
X85000000Y-54100000D01*
X88280000Y-46400615D02*
X85080000Y-49600615D01*
X85080000Y-49600615D02*
X85080000Y-52894999D01*
X93900000Y-55800000D02*
X95900000Y-55800000D01*
X95900000Y-55800000D02*
X97600000Y-55800000D01*
X119105000Y-49700000D02*
X120200000Y-49700000D01*
X106700000Y-51900000D02*
X105100000Y-51900000D01*
X105100000Y-51900000D02*
X104800000Y-51900000D01*
X104800000Y-51900000D02*
X101500000Y-55200000D01*
X97600000Y-55800000D02*
X98800001Y-55800000D01*
X99100002Y-55499999D02*
X99400001Y-55200000D01*
X98800001Y-55800000D02*
X99100002Y-55499999D01*
X120200000Y-54200000D02*
X119105000Y-54200000D01*
X106699992Y-52900000D02*
X105100000Y-52900000D01*
X87199999Y-59999999D02*
X86900000Y-59700000D01*
X87700000Y-60500000D02*
X87199999Y-59999999D01*
X87700000Y-61900000D02*
X87700000Y-60500000D01*
X85000000Y-65500000D02*
X85000000Y-64600000D01*
X85000000Y-64600000D02*
X87700000Y-61900000D01*
X84200000Y-65500000D02*
X84200000Y-64576802D01*
X84200000Y-64576802D02*
X86900000Y-61876802D01*
X86900000Y-61876802D02*
X86900000Y-61100000D01*
X86900000Y-61100000D02*
X86800000Y-61000000D01*
X120200000Y-55700000D02*
X119105000Y-55700000D01*
X105000000Y-54100000D02*
X106700008Y-54100000D01*
X89800000Y-54100000D02*
X89800000Y-52100000D01*
D35*
X89800000Y-50500000D02*
X89800000Y-52100000D01*
D37*
G36*
X78169463Y-39735506D02*
G01*
X78110498Y-39845820D01*
X78074188Y-39965518D01*
X78061928Y-40090000D01*
X78061928Y-40475439D01*
X78059509Y-40500000D01*
X78061928Y-40524561D01*
X78061928Y-40910000D01*
X78074188Y-41034482D01*
X78110498Y-41154180D01*
X78169463Y-41264494D01*
X78248815Y-41361185D01*
X78345506Y-41440537D01*
X78455820Y-41499502D01*
X78575518Y-41535812D01*
X78700000Y-41548072D01*
X78753069Y-41548072D01*
X78763553Y-41553676D01*
X78977501Y-41618577D01*
X79144248Y-41635000D01*
X79673000Y-41635000D01*
X79673000Y-45973000D01*
X76570989Y-45973000D01*
X76554494Y-45959463D01*
X76444180Y-45900498D01*
X76324482Y-45864188D01*
X76200000Y-45851928D01*
X76146930Y-45851928D01*
X76136446Y-45846324D01*
X75922498Y-45781423D01*
X75700000Y-45759509D01*
X75477501Y-45781423D01*
X75263553Y-45846324D01*
X75253069Y-45851928D01*
X75200000Y-45851928D01*
X75075518Y-45864188D01*
X75010000Y-45884063D01*
X75010000Y-39710000D01*
X78190395Y-39710000D01*
X78169463Y-39735506D01*
G37*
X78169463Y-39735506D02*
X78110498Y-39845820D01*
X78074188Y-39965518D01*
X78061928Y-40090000D01*
X78061928Y-40475439D01*
X78059509Y-40500000D01*
X78061928Y-40524561D01*
X78061928Y-40910000D01*
X78074188Y-41034482D01*
X78110498Y-41154180D01*
X78169463Y-41264494D01*
X78248815Y-41361185D01*
X78345506Y-41440537D01*
X78455820Y-41499502D01*
X78575518Y-41535812D01*
X78700000Y-41548072D01*
X78753069Y-41548072D01*
X78763553Y-41553676D01*
X78977501Y-41618577D01*
X79144248Y-41635000D01*
X79673000Y-41635000D01*
X79673000Y-45973000D01*
X76570989Y-45973000D01*
X76554494Y-45959463D01*
X76444180Y-45900498D01*
X76324482Y-45864188D01*
X76200000Y-45851928D01*
X76146930Y-45851928D01*
X76136446Y-45846324D01*
X75922498Y-45781423D01*
X75700000Y-45759509D01*
X75477501Y-45781423D01*
X75263553Y-45846324D01*
X75253069Y-45851928D01*
X75200000Y-45851928D01*
X75075518Y-45864188D01*
X75010000Y-45884063D01*
X75010000Y-39710000D01*
X78190395Y-39710000D01*
X78169463Y-39735506D01*
G36*
X77473000Y-92428041D02*
G01*
X77395506Y-92469463D01*
X77298815Y-92548815D01*
X77219463Y-92645506D01*
X77160498Y-92755820D01*
X77124188Y-92875518D01*
X77114587Y-92973000D01*
X76110000Y-92973000D01*
X76110000Y-91434876D01*
X76113435Y-91400000D01*
X76099727Y-91260816D01*
X76059128Y-91126980D01*
X75993200Y-91003637D01*
X75904475Y-90895525D01*
X75796363Y-90806800D01*
X75673020Y-90740872D01*
X75539184Y-90700273D01*
X75434877Y-90690000D01*
X75400000Y-90686565D01*
X75365123Y-90690000D01*
X75010000Y-90690000D01*
X75010000Y-53427000D01*
X77473000Y-53427000D01*
X77473000Y-92428041D01*
G37*
X77473000Y-92428041D02*
X77395506Y-92469463D01*
X77298815Y-92548815D01*
X77219463Y-92645506D01*
X77160498Y-92755820D01*
X77124188Y-92875518D01*
X77114587Y-92973000D01*
X76110000Y-92973000D01*
X76110000Y-91434876D01*
X76113435Y-91400000D01*
X76099727Y-91260816D01*
X76059128Y-91126980D01*
X75993200Y-91003637D01*
X75904475Y-90895525D01*
X75796363Y-90806800D01*
X75673020Y-90740872D01*
X75539184Y-90700273D01*
X75434877Y-90690000D01*
X75400000Y-90686565D01*
X75365123Y-90690000D01*
X75010000Y-90690000D01*
X75010000Y-53427000D01*
X77473000Y-53427000D01*
X77473000Y-92428041D01*
G36*
X93573000Y-44573000D02*
G01*
X90927000Y-44573000D01*
X90927000Y-43900000D01*
X90924560Y-43875224D01*
X90917333Y-43851399D01*
X90905597Y-43829443D01*
X90889803Y-43810197D01*
X90870557Y-43794403D01*
X90848601Y-43782667D01*
X90824776Y-43775440D01*
X90800000Y-43773000D01*
X90162420Y-43773000D01*
X90050000Y-43761928D01*
X89550000Y-43761928D01*
X89437580Y-43773000D01*
X89362420Y-43773000D01*
X89250000Y-43761928D01*
X88750000Y-43761928D01*
X88637580Y-43773000D01*
X88562420Y-43773000D01*
X88450000Y-43761928D01*
X87950000Y-43761928D01*
X87837580Y-43773000D01*
X87762420Y-43773000D01*
X87650000Y-43761928D01*
X87150000Y-43761928D01*
X87037580Y-43773000D01*
X85500000Y-43773000D01*
X85475224Y-43775440D01*
X85451399Y-43782667D01*
X85429443Y-43794403D01*
X85410197Y-43810197D01*
X85394403Y-43829443D01*
X85382667Y-43851399D01*
X85375440Y-43875224D01*
X85373000Y-43900000D01*
X85373000Y-44573000D01*
X82827000Y-44573000D01*
X82827000Y-39710000D01*
X93573000Y-39710000D01*
X93573000Y-44573000D01*
G37*
X93573000Y-44573000D02*
X90927000Y-44573000D01*
X90927000Y-43900000D01*
X90924560Y-43875224D01*
X90917333Y-43851399D01*
X90905597Y-43829443D01*
X90889803Y-43810197D01*
X90870557Y-43794403D01*
X90848601Y-43782667D01*
X90824776Y-43775440D01*
X90800000Y-43773000D01*
X90162420Y-43773000D01*
X90050000Y-43761928D01*
X89550000Y-43761928D01*
X89437580Y-43773000D01*
X89362420Y-43773000D01*
X89250000Y-43761928D01*
X88750000Y-43761928D01*
X88637580Y-43773000D01*
X88562420Y-43773000D01*
X88450000Y-43761928D01*
X87950000Y-43761928D01*
X87837580Y-43773000D01*
X87762420Y-43773000D01*
X87650000Y-43761928D01*
X87150000Y-43761928D01*
X87037580Y-43773000D01*
X85500000Y-43773000D01*
X85475224Y-43775440D01*
X85451399Y-43782667D01*
X85429443Y-43794403D01*
X85410197Y-43810197D01*
X85394403Y-43829443D01*
X85382667Y-43851399D01*
X85375440Y-43875224D01*
X85373000Y-43900000D01*
X85373000Y-44573000D01*
X82827000Y-44573000D01*
X82827000Y-39710000D01*
X93573000Y-39710000D01*
X93573000Y-44573000D01*
G36*
X82073000Y-46373000D02*
G01*
X80527000Y-46373000D01*
X80527000Y-41635000D01*
X81255752Y-41635000D01*
X81422499Y-41618577D01*
X81636447Y-41553676D01*
X81646931Y-41548072D01*
X81700000Y-41548072D01*
X81824482Y-41535812D01*
X81944180Y-41499502D01*
X82054494Y-41440537D01*
X82073000Y-41425350D01*
X82073000Y-46373000D01*
G37*
X82073000Y-46373000D02*
X80527000Y-46373000D01*
X80527000Y-41635000D01*
X81255752Y-41635000D01*
X81422499Y-41618577D01*
X81636447Y-41553676D01*
X81646931Y-41548072D01*
X81700000Y-41548072D01*
X81824482Y-41535812D01*
X81944180Y-41499502D01*
X82054494Y-41440537D01*
X82073000Y-41425350D01*
X82073000Y-46373000D01*
G36*
X125098000Y-59273000D02*
G01*
X122027000Y-59273000D01*
X122027000Y-46127000D01*
X125098000Y-46127000D01*
X125098000Y-59273000D01*
G37*
X125098000Y-59273000D02*
X122027000Y-59273000D01*
X122027000Y-46127000D01*
X125098000Y-46127000D01*
X125098000Y-59273000D01*
M02*
