G04 #@! TF.GenerationSoftware,KiCad,Pcbnew,5.0.2-bee76a0~70~ubuntu18.10.1*
G04 #@! TF.CreationDate,2019-01-06T00:10:49+02:00*
G04 #@! TF.ProjectId,GB-BRK-M-XS,47422d42-524b-42d4-9d2d-58532e6b6963,v1.0*
G04 #@! TF.SameCoordinates,Original*
G04 #@! TF.FileFunction,Copper,L2,Bot*
G04 #@! TF.FilePolarity,Positive*
%FSLAX46Y46*%
G04 Gerber Fmt 4.6, Leading zero omitted, Abs format (unit mm)*
G04 Created by KiCad (PCBNEW 5.0.2-bee76a0~70~ubuntu18.10.1) date su  6. tammikuuta 2019 00.10.49*
%MOMM*%
%LPD*%
G01*
G04 APERTURE LIST*
G04 #@! TA.AperFunction,NonConductor*
%ADD10C,0.150000*%
G04 #@! TD*
G04 #@! TA.AperFunction,ViaPad*
%ADD11C,0.600000*%
G04 #@! TD*
G04 #@! TA.AperFunction,ViaPad*
%ADD12C,1.000000*%
G04 #@! TD*
G04 #@! TA.AperFunction,Conductor*
%ADD13C,0.400000*%
G04 #@! TD*
G04 #@! TA.AperFunction,Conductor*
%ADD14C,0.254000*%
G04 #@! TD*
G04 APERTURE END LIST*
D10*
X74300000Y-75000000D02*
X125700000Y-75000000D01*
X74300000Y-91400000D02*
X74300000Y-75000000D01*
X75400000Y-91400000D02*
X74300000Y-91400000D01*
X75400000Y-100000000D02*
X75400000Y-91400000D01*
X125700000Y-91400000D02*
X125700000Y-75000000D01*
X124600000Y-91400000D02*
X125700000Y-91400000D01*
X124600000Y-100000000D02*
X124600000Y-91400000D01*
X75400000Y-100000000D02*
X124600000Y-100000000D01*
D11*
G04 #@! TO.N,+5V*
X76600000Y-92600000D03*
D12*
G04 #@! TO.N,GND*
X78900000Y-76800000D03*
D11*
X123400000Y-92600000D03*
G04 #@! TO.N,~WR*
X86000000Y-82000000D03*
X79800000Y-92600000D03*
G04 #@! TO.N,~RD*
X88600000Y-82000000D03*
X81300000Y-92600000D03*
G04 #@! TO.N,~CS*
X91100000Y-82000000D03*
X82800000Y-92600000D03*
G04 #@! TO.N,~RES*
X114000000Y-82000000D03*
X120250000Y-92600000D03*
G04 #@! TO.N,/A0*
X84300000Y-92600000D03*
G04 #@! TO.N,/PHI*
X83500000Y-82000000D03*
X78300000Y-92600000D03*
G04 #@! TO.N,/A1*
X85700000Y-92600000D03*
G04 #@! TO.N,/A2*
X87250000Y-92600000D03*
G04 #@! TO.N,/A3*
X88800000Y-92600000D03*
G04 #@! TO.N,/A4*
X90200000Y-92600000D03*
G04 #@! TO.N,/D0*
X93700000Y-82000000D03*
X108250000Y-92600000D03*
G04 #@! TO.N,/A5*
X91800000Y-92600000D03*
G04 #@! TO.N,/D1*
X96200000Y-82000000D03*
X109750000Y-92600000D03*
G04 #@! TO.N,/A6*
X93300000Y-92600000D03*
G04 #@! TO.N,/D2*
X98700000Y-82000000D03*
X111250000Y-92600000D03*
G04 #@! TO.N,/A7*
X94700000Y-92600000D03*
G04 #@! TO.N,/D3*
X101300000Y-82000000D03*
X112750000Y-92600000D03*
G04 #@! TO.N,/A8*
X96200000Y-92600000D03*
G04 #@! TO.N,/D4*
X103800000Y-82000000D03*
X114250000Y-92600000D03*
G04 #@! TO.N,/A9*
X97700000Y-92600000D03*
G04 #@! TO.N,/D5*
X106300000Y-82000000D03*
X115750000Y-92600000D03*
G04 #@! TO.N,/A10*
X99300000Y-92600000D03*
G04 #@! TO.N,/D6*
X108900000Y-82000000D03*
X117250000Y-92600000D03*
G04 #@! TO.N,/A11*
X100800000Y-92600000D03*
G04 #@! TO.N,/D7*
X111400000Y-82000000D03*
X118750000Y-92600000D03*
G04 #@! TO.N,/A12*
X102300000Y-92600000D03*
G04 #@! TO.N,/A13*
X103800000Y-92600000D03*
G04 #@! TO.N,/VIN*
X116500000Y-82000000D03*
X121750000Y-92600000D03*
G04 #@! TO.N,/A14*
X105300000Y-92600000D03*
G04 #@! TO.N,/A15*
X106800000Y-92600000D03*
G04 #@! TD*
D13*
G04 #@! TO.N,~WR*
X79800000Y-92600000D02*
X79800000Y-90400000D01*
X79800000Y-90400000D02*
X86000000Y-84200000D01*
X86000000Y-84200000D02*
X86000000Y-82000000D01*
G04 #@! TO.N,~RD*
X81300000Y-92600000D02*
X81300000Y-91500000D01*
X81300000Y-91500000D02*
X88600000Y-84200000D01*
X88600000Y-84200000D02*
X88600000Y-82000000D01*
G04 #@! TO.N,~CS*
X82800000Y-92600000D02*
X91100000Y-84300000D01*
X91100000Y-84300000D02*
X91100000Y-82000000D01*
G04 #@! TO.N,~RES*
X120250000Y-92600000D02*
X120200000Y-92550000D01*
X120200000Y-92550000D02*
X120200000Y-88200000D01*
X120200000Y-88200000D02*
X114000000Y-82000000D01*
G04 #@! TO.N,/PHI*
X78300000Y-92600000D02*
X78300000Y-89300000D01*
X78300000Y-89300000D02*
X83500000Y-84100000D01*
X83500000Y-84100000D02*
X83500000Y-82000000D01*
G04 #@! TO.N,/D0*
X108250000Y-92600000D02*
X100650000Y-85000000D01*
X100650000Y-85000000D02*
X96700000Y-85000000D01*
X96700000Y-85000000D02*
X93700000Y-82000000D01*
G04 #@! TO.N,/D1*
X109750000Y-92600000D02*
X101250000Y-84100000D01*
X101250000Y-84100000D02*
X98300000Y-84100000D01*
X98300000Y-84100000D02*
X96200000Y-82000000D01*
G04 #@! TO.N,/D2*
X111250000Y-92600000D02*
X101850000Y-83200000D01*
X101850000Y-83200000D02*
X99900000Y-83200000D01*
X99900000Y-83200000D02*
X98700000Y-82000000D01*
G04 #@! TO.N,/D3*
X112750000Y-92600000D02*
X102450000Y-82300000D01*
X102450000Y-82300000D02*
X101500000Y-82300000D01*
X101500000Y-82300000D02*
X101300000Y-82100000D01*
X101300000Y-82100000D02*
X101300000Y-82000000D01*
G04 #@! TO.N,/D4*
X114250000Y-92600000D02*
X103800000Y-82150000D01*
X103800000Y-82150000D02*
X103800000Y-82000000D01*
G04 #@! TO.N,/D5*
X115750000Y-92600000D02*
X115750000Y-91450000D01*
X115750000Y-91450000D02*
X106300000Y-82000000D01*
G04 #@! TO.N,/D6*
X117250000Y-92600000D02*
X117250000Y-90350000D01*
X117250000Y-90350000D02*
X108900000Y-82000000D01*
G04 #@! TO.N,/D7*
X118750000Y-92600000D02*
X118750000Y-90250000D01*
X118750000Y-90250000D02*
X111400000Y-82900000D01*
X111400000Y-82900000D02*
X111400000Y-82000000D01*
G04 #@! TO.N,/VIN*
X121750000Y-92600000D02*
X121750000Y-87250000D01*
X121750000Y-87250000D02*
X116500000Y-82000000D01*
G04 #@! TD*
D14*
G04 #@! TO.N,GND*
G36*
X124990000Y-90690000D02*
X124669926Y-90690000D01*
X124600000Y-90676091D01*
X124530075Y-90690000D01*
X124530074Y-90690000D01*
X124322972Y-90731195D01*
X124088119Y-90888119D01*
X123931195Y-91122972D01*
X123876091Y-91400000D01*
X123890001Y-91469931D01*
X123890000Y-99290000D01*
X76110000Y-99290000D01*
X76110000Y-93409072D01*
X76414017Y-93535000D01*
X76785983Y-93535000D01*
X77129635Y-93392655D01*
X77392655Y-93129635D01*
X77450000Y-92991192D01*
X77507345Y-93129635D01*
X77770365Y-93392655D01*
X78114017Y-93535000D01*
X78485983Y-93535000D01*
X78829635Y-93392655D01*
X79050000Y-93172290D01*
X79270365Y-93392655D01*
X79614017Y-93535000D01*
X79985983Y-93535000D01*
X80329635Y-93392655D01*
X80550000Y-93172290D01*
X80770365Y-93392655D01*
X81114017Y-93535000D01*
X81485983Y-93535000D01*
X81829635Y-93392655D01*
X82050000Y-93172290D01*
X82270365Y-93392655D01*
X82614017Y-93535000D01*
X82985983Y-93535000D01*
X83329635Y-93392655D01*
X83550000Y-93172290D01*
X83770365Y-93392655D01*
X84114017Y-93535000D01*
X84485983Y-93535000D01*
X84829635Y-93392655D01*
X85000000Y-93222290D01*
X85170365Y-93392655D01*
X85514017Y-93535000D01*
X85885983Y-93535000D01*
X86229635Y-93392655D01*
X86475000Y-93147290D01*
X86720365Y-93392655D01*
X87064017Y-93535000D01*
X87435983Y-93535000D01*
X87779635Y-93392655D01*
X88025000Y-93147290D01*
X88270365Y-93392655D01*
X88614017Y-93535000D01*
X88985983Y-93535000D01*
X89329635Y-93392655D01*
X89500000Y-93222290D01*
X89670365Y-93392655D01*
X90014017Y-93535000D01*
X90385983Y-93535000D01*
X90729635Y-93392655D01*
X90992655Y-93129635D01*
X91000000Y-93111903D01*
X91007345Y-93129635D01*
X91270365Y-93392655D01*
X91614017Y-93535000D01*
X91985983Y-93535000D01*
X92329635Y-93392655D01*
X92550000Y-93172290D01*
X92770365Y-93392655D01*
X93114017Y-93535000D01*
X93485983Y-93535000D01*
X93829635Y-93392655D01*
X94000000Y-93222290D01*
X94170365Y-93392655D01*
X94514017Y-93535000D01*
X94885983Y-93535000D01*
X95229635Y-93392655D01*
X95450000Y-93172290D01*
X95670365Y-93392655D01*
X96014017Y-93535000D01*
X96385983Y-93535000D01*
X96729635Y-93392655D01*
X96950000Y-93172290D01*
X97170365Y-93392655D01*
X97514017Y-93535000D01*
X97885983Y-93535000D01*
X98229635Y-93392655D01*
X98492655Y-93129635D01*
X98500000Y-93111903D01*
X98507345Y-93129635D01*
X98770365Y-93392655D01*
X99114017Y-93535000D01*
X99485983Y-93535000D01*
X99829635Y-93392655D01*
X100050000Y-93172290D01*
X100270365Y-93392655D01*
X100614017Y-93535000D01*
X100985983Y-93535000D01*
X101329635Y-93392655D01*
X101550000Y-93172290D01*
X101770365Y-93392655D01*
X102114017Y-93535000D01*
X102485983Y-93535000D01*
X102829635Y-93392655D01*
X103050000Y-93172290D01*
X103270365Y-93392655D01*
X103614017Y-93535000D01*
X103985983Y-93535000D01*
X104329635Y-93392655D01*
X104550000Y-93172290D01*
X104770365Y-93392655D01*
X105114017Y-93535000D01*
X105485983Y-93535000D01*
X105829635Y-93392655D01*
X106050000Y-93172290D01*
X106270365Y-93392655D01*
X106614017Y-93535000D01*
X106985983Y-93535000D01*
X107329635Y-93392655D01*
X107525000Y-93197290D01*
X107720365Y-93392655D01*
X108064017Y-93535000D01*
X108435983Y-93535000D01*
X108779635Y-93392655D01*
X109000000Y-93172290D01*
X109220365Y-93392655D01*
X109564017Y-93535000D01*
X109935983Y-93535000D01*
X110279635Y-93392655D01*
X110500000Y-93172290D01*
X110720365Y-93392655D01*
X111064017Y-93535000D01*
X111435983Y-93535000D01*
X111779635Y-93392655D01*
X112000000Y-93172290D01*
X112220365Y-93392655D01*
X112564017Y-93535000D01*
X112935983Y-93535000D01*
X113279635Y-93392655D01*
X113500000Y-93172290D01*
X113720365Y-93392655D01*
X114064017Y-93535000D01*
X114435983Y-93535000D01*
X114779635Y-93392655D01*
X115000000Y-93172290D01*
X115220365Y-93392655D01*
X115564017Y-93535000D01*
X115935983Y-93535000D01*
X116279635Y-93392655D01*
X116500000Y-93172290D01*
X116720365Y-93392655D01*
X117064017Y-93535000D01*
X117435983Y-93535000D01*
X117779635Y-93392655D01*
X118000000Y-93172290D01*
X118220365Y-93392655D01*
X118564017Y-93535000D01*
X118935983Y-93535000D01*
X119279635Y-93392655D01*
X119500000Y-93172290D01*
X119720365Y-93392655D01*
X120064017Y-93535000D01*
X120435983Y-93535000D01*
X120779635Y-93392655D01*
X121000000Y-93172290D01*
X121220365Y-93392655D01*
X121564017Y-93535000D01*
X121935983Y-93535000D01*
X122279635Y-93392655D01*
X122542655Y-93129635D01*
X122685000Y-92785983D01*
X122685000Y-92414017D01*
X122585000Y-92172595D01*
X122585000Y-87332232D01*
X122601357Y-87249999D01*
X122585000Y-87167766D01*
X122585000Y-87167763D01*
X122536552Y-86924199D01*
X122352001Y-86647999D01*
X122282283Y-86601415D01*
X117392656Y-81711789D01*
X117292655Y-81470365D01*
X117029635Y-81207345D01*
X116685983Y-81065000D01*
X116314017Y-81065000D01*
X115970365Y-81207345D01*
X115707345Y-81470365D01*
X115565000Y-81814017D01*
X115565000Y-82185983D01*
X115705113Y-82524245D01*
X114892656Y-81711789D01*
X114792655Y-81470365D01*
X114529635Y-81207345D01*
X114185983Y-81065000D01*
X113814017Y-81065000D01*
X113470365Y-81207345D01*
X113207345Y-81470365D01*
X113065000Y-81814017D01*
X113065000Y-82185983D01*
X113207345Y-82529635D01*
X113470365Y-82792655D01*
X113711789Y-82892656D01*
X119365001Y-88545869D01*
X119365001Y-89667454D01*
X119352001Y-89647999D01*
X119282283Y-89601415D01*
X112235000Y-82554133D01*
X112235000Y-82427405D01*
X112335000Y-82185983D01*
X112335000Y-81814017D01*
X112192655Y-81470365D01*
X111929635Y-81207345D01*
X111585983Y-81065000D01*
X111214017Y-81065000D01*
X110870365Y-81207345D01*
X110607345Y-81470365D01*
X110465000Y-81814017D01*
X110465000Y-82185983D01*
X110565001Y-82427406D01*
X110565000Y-82484133D01*
X109792656Y-81711789D01*
X109692655Y-81470365D01*
X109429635Y-81207345D01*
X109085983Y-81065000D01*
X108714017Y-81065000D01*
X108370365Y-81207345D01*
X108107345Y-81470365D01*
X107965000Y-81814017D01*
X107965000Y-82185983D01*
X108107345Y-82529635D01*
X108370365Y-82792655D01*
X108611789Y-82892656D01*
X116415001Y-90695869D01*
X116415001Y-90942285D01*
X116352001Y-90847999D01*
X116282283Y-90801415D01*
X107192656Y-81711789D01*
X107092655Y-81470365D01*
X106829635Y-81207345D01*
X106485983Y-81065000D01*
X106114017Y-81065000D01*
X105770365Y-81207345D01*
X105507345Y-81470365D01*
X105365000Y-81814017D01*
X105365000Y-82185983D01*
X105507345Y-82529635D01*
X105770365Y-82792655D01*
X106011789Y-82892656D01*
X114915001Y-91795869D01*
X114915001Y-91942711D01*
X114779635Y-91807345D01*
X114538213Y-91707345D01*
X104735000Y-81904133D01*
X104735000Y-81814017D01*
X104592655Y-81470365D01*
X104329635Y-81207345D01*
X103985983Y-81065000D01*
X103614017Y-81065000D01*
X103270365Y-81207345D01*
X103007345Y-81470365D01*
X102943176Y-81625284D01*
X102775801Y-81513448D01*
X102532237Y-81465000D01*
X102532233Y-81465000D01*
X102450000Y-81448643D01*
X102367767Y-81465000D01*
X102087290Y-81465000D01*
X101829635Y-81207345D01*
X101485983Y-81065000D01*
X101114017Y-81065000D01*
X100770365Y-81207345D01*
X100507345Y-81470365D01*
X100365000Y-81814017D01*
X100365000Y-82185983D01*
X100439151Y-82365000D01*
X100245869Y-82365000D01*
X99592655Y-81711788D01*
X99492655Y-81470365D01*
X99229635Y-81207345D01*
X98885983Y-81065000D01*
X98514017Y-81065000D01*
X98170365Y-81207345D01*
X97907345Y-81470365D01*
X97765000Y-81814017D01*
X97765000Y-82185983D01*
X97905112Y-82524244D01*
X97092656Y-81711788D01*
X96992655Y-81470365D01*
X96729635Y-81207345D01*
X96385983Y-81065000D01*
X96014017Y-81065000D01*
X95670365Y-81207345D01*
X95407345Y-81470365D01*
X95265000Y-81814017D01*
X95265000Y-82185983D01*
X95405112Y-82524245D01*
X94592656Y-81711789D01*
X94492655Y-81470365D01*
X94229635Y-81207345D01*
X93885983Y-81065000D01*
X93514017Y-81065000D01*
X93170365Y-81207345D01*
X92907345Y-81470365D01*
X92765000Y-81814017D01*
X92765000Y-82185983D01*
X92907345Y-82529635D01*
X93170365Y-82792655D01*
X93411789Y-82892656D01*
X96051415Y-85532283D01*
X96097999Y-85602001D01*
X96374199Y-85786552D01*
X96617763Y-85835000D01*
X96700000Y-85851358D01*
X96782237Y-85835000D01*
X100304133Y-85835000D01*
X106274687Y-91805555D01*
X106270365Y-91807345D01*
X106050000Y-92027710D01*
X105829635Y-91807345D01*
X105485983Y-91665000D01*
X105114017Y-91665000D01*
X104770365Y-91807345D01*
X104550000Y-92027710D01*
X104329635Y-91807345D01*
X103985983Y-91665000D01*
X103614017Y-91665000D01*
X103270365Y-91807345D01*
X103050000Y-92027710D01*
X102829635Y-91807345D01*
X102485983Y-91665000D01*
X102114017Y-91665000D01*
X101770365Y-91807345D01*
X101550000Y-92027710D01*
X101329635Y-91807345D01*
X100985983Y-91665000D01*
X100614017Y-91665000D01*
X100270365Y-91807345D01*
X100050000Y-92027710D01*
X99829635Y-91807345D01*
X99485983Y-91665000D01*
X99114017Y-91665000D01*
X98770365Y-91807345D01*
X98507345Y-92070365D01*
X98500000Y-92088097D01*
X98492655Y-92070365D01*
X98229635Y-91807345D01*
X97885983Y-91665000D01*
X97514017Y-91665000D01*
X97170365Y-91807345D01*
X96950000Y-92027710D01*
X96729635Y-91807345D01*
X96385983Y-91665000D01*
X96014017Y-91665000D01*
X95670365Y-91807345D01*
X95450000Y-92027710D01*
X95229635Y-91807345D01*
X94885983Y-91665000D01*
X94514017Y-91665000D01*
X94170365Y-91807345D01*
X94000000Y-91977710D01*
X93829635Y-91807345D01*
X93485983Y-91665000D01*
X93114017Y-91665000D01*
X92770365Y-91807345D01*
X92550000Y-92027710D01*
X92329635Y-91807345D01*
X91985983Y-91665000D01*
X91614017Y-91665000D01*
X91270365Y-91807345D01*
X91007345Y-92070365D01*
X91000000Y-92088097D01*
X90992655Y-92070365D01*
X90729635Y-91807345D01*
X90385983Y-91665000D01*
X90014017Y-91665000D01*
X89670365Y-91807345D01*
X89500000Y-91977710D01*
X89329635Y-91807345D01*
X88985983Y-91665000D01*
X88614017Y-91665000D01*
X88270365Y-91807345D01*
X88025000Y-92052710D01*
X87779635Y-91807345D01*
X87435983Y-91665000D01*
X87064017Y-91665000D01*
X86720365Y-91807345D01*
X86475000Y-92052710D01*
X86229635Y-91807345D01*
X85885983Y-91665000D01*
X85514017Y-91665000D01*
X85170365Y-91807345D01*
X85000000Y-91977710D01*
X84829635Y-91807345D01*
X84789957Y-91790910D01*
X91632283Y-84948585D01*
X91702001Y-84902001D01*
X91886552Y-84625801D01*
X91935000Y-84382237D01*
X91935000Y-84382236D01*
X91951358Y-84300000D01*
X91935000Y-84217763D01*
X91935000Y-82427405D01*
X92035000Y-82185983D01*
X92035000Y-81814017D01*
X91892655Y-81470365D01*
X91629635Y-81207345D01*
X91285983Y-81065000D01*
X90914017Y-81065000D01*
X90570365Y-81207345D01*
X90307345Y-81470365D01*
X90165000Y-81814017D01*
X90165000Y-82185983D01*
X90265001Y-82427407D01*
X90265000Y-83954132D01*
X82511789Y-91707344D01*
X82270365Y-91807345D01*
X82135000Y-91942710D01*
X82135000Y-91845867D01*
X89132283Y-84848585D01*
X89202001Y-84802001D01*
X89386552Y-84525801D01*
X89435000Y-84282237D01*
X89435000Y-84282234D01*
X89451357Y-84200001D01*
X89435000Y-84117768D01*
X89435000Y-82427405D01*
X89535000Y-82185983D01*
X89535000Y-81814017D01*
X89392655Y-81470365D01*
X89129635Y-81207345D01*
X88785983Y-81065000D01*
X88414017Y-81065000D01*
X88070365Y-81207345D01*
X87807345Y-81470365D01*
X87665000Y-81814017D01*
X87665000Y-82185983D01*
X87765001Y-82427407D01*
X87765000Y-83854132D01*
X80767718Y-90851415D01*
X80698000Y-90897999D01*
X80651416Y-90967717D01*
X80635000Y-90992285D01*
X80635000Y-90745867D01*
X86532283Y-84848585D01*
X86602001Y-84802001D01*
X86786552Y-84525801D01*
X86835000Y-84282237D01*
X86835000Y-84282234D01*
X86851357Y-84200001D01*
X86835000Y-84117768D01*
X86835000Y-82427405D01*
X86935000Y-82185983D01*
X86935000Y-81814017D01*
X86792655Y-81470365D01*
X86529635Y-81207345D01*
X86185983Y-81065000D01*
X85814017Y-81065000D01*
X85470365Y-81207345D01*
X85207345Y-81470365D01*
X85065000Y-81814017D01*
X85065000Y-82185983D01*
X85165001Y-82427407D01*
X85165000Y-83854132D01*
X79267718Y-89751415D01*
X79198000Y-89797999D01*
X79151416Y-89867717D01*
X79135000Y-89892285D01*
X79135000Y-89645867D01*
X84032284Y-84748584D01*
X84102001Y-84702001D01*
X84286552Y-84425801D01*
X84335000Y-84182237D01*
X84335000Y-84182236D01*
X84351358Y-84100000D01*
X84335000Y-84017763D01*
X84335000Y-82427405D01*
X84435000Y-82185983D01*
X84435000Y-81814017D01*
X84292655Y-81470365D01*
X84029635Y-81207345D01*
X83685983Y-81065000D01*
X83314017Y-81065000D01*
X82970365Y-81207345D01*
X82707345Y-81470365D01*
X82565000Y-81814017D01*
X82565000Y-82185983D01*
X82665001Y-82427407D01*
X82665000Y-83754132D01*
X77767718Y-88651415D01*
X77698000Y-88697999D01*
X77651416Y-88767717D01*
X77513448Y-88974200D01*
X77448643Y-89300000D01*
X77465001Y-89382238D01*
X77465000Y-92172595D01*
X77450000Y-92208808D01*
X77392655Y-92070365D01*
X77129635Y-91807345D01*
X76785983Y-91665000D01*
X76414017Y-91665000D01*
X76110000Y-91790928D01*
X76110000Y-91469925D01*
X76123909Y-91400000D01*
X76068805Y-91122972D01*
X75911881Y-90888119D01*
X75677028Y-90731195D01*
X75469926Y-90690000D01*
X75400000Y-90676091D01*
X75330075Y-90690000D01*
X75010000Y-90690000D01*
X75010000Y-75710000D01*
X124990001Y-75710000D01*
X124990000Y-90690000D01*
X124990000Y-90690000D01*
G37*
X124990000Y-90690000D02*
X124669926Y-90690000D01*
X124600000Y-90676091D01*
X124530075Y-90690000D01*
X124530074Y-90690000D01*
X124322972Y-90731195D01*
X124088119Y-90888119D01*
X123931195Y-91122972D01*
X123876091Y-91400000D01*
X123890001Y-91469931D01*
X123890000Y-99290000D01*
X76110000Y-99290000D01*
X76110000Y-93409072D01*
X76414017Y-93535000D01*
X76785983Y-93535000D01*
X77129635Y-93392655D01*
X77392655Y-93129635D01*
X77450000Y-92991192D01*
X77507345Y-93129635D01*
X77770365Y-93392655D01*
X78114017Y-93535000D01*
X78485983Y-93535000D01*
X78829635Y-93392655D01*
X79050000Y-93172290D01*
X79270365Y-93392655D01*
X79614017Y-93535000D01*
X79985983Y-93535000D01*
X80329635Y-93392655D01*
X80550000Y-93172290D01*
X80770365Y-93392655D01*
X81114017Y-93535000D01*
X81485983Y-93535000D01*
X81829635Y-93392655D01*
X82050000Y-93172290D01*
X82270365Y-93392655D01*
X82614017Y-93535000D01*
X82985983Y-93535000D01*
X83329635Y-93392655D01*
X83550000Y-93172290D01*
X83770365Y-93392655D01*
X84114017Y-93535000D01*
X84485983Y-93535000D01*
X84829635Y-93392655D01*
X85000000Y-93222290D01*
X85170365Y-93392655D01*
X85514017Y-93535000D01*
X85885983Y-93535000D01*
X86229635Y-93392655D01*
X86475000Y-93147290D01*
X86720365Y-93392655D01*
X87064017Y-93535000D01*
X87435983Y-93535000D01*
X87779635Y-93392655D01*
X88025000Y-93147290D01*
X88270365Y-93392655D01*
X88614017Y-93535000D01*
X88985983Y-93535000D01*
X89329635Y-93392655D01*
X89500000Y-93222290D01*
X89670365Y-93392655D01*
X90014017Y-93535000D01*
X90385983Y-93535000D01*
X90729635Y-93392655D01*
X90992655Y-93129635D01*
X91000000Y-93111903D01*
X91007345Y-93129635D01*
X91270365Y-93392655D01*
X91614017Y-93535000D01*
X91985983Y-93535000D01*
X92329635Y-93392655D01*
X92550000Y-93172290D01*
X92770365Y-93392655D01*
X93114017Y-93535000D01*
X93485983Y-93535000D01*
X93829635Y-93392655D01*
X94000000Y-93222290D01*
X94170365Y-93392655D01*
X94514017Y-93535000D01*
X94885983Y-93535000D01*
X95229635Y-93392655D01*
X95450000Y-93172290D01*
X95670365Y-93392655D01*
X96014017Y-93535000D01*
X96385983Y-93535000D01*
X96729635Y-93392655D01*
X96950000Y-93172290D01*
X97170365Y-93392655D01*
X97514017Y-93535000D01*
X97885983Y-93535000D01*
X98229635Y-93392655D01*
X98492655Y-93129635D01*
X98500000Y-93111903D01*
X98507345Y-93129635D01*
X98770365Y-93392655D01*
X99114017Y-93535000D01*
X99485983Y-93535000D01*
X99829635Y-93392655D01*
X100050000Y-93172290D01*
X100270365Y-93392655D01*
X100614017Y-93535000D01*
X100985983Y-93535000D01*
X101329635Y-93392655D01*
X101550000Y-93172290D01*
X101770365Y-93392655D01*
X102114017Y-93535000D01*
X102485983Y-93535000D01*
X102829635Y-93392655D01*
X103050000Y-93172290D01*
X103270365Y-93392655D01*
X103614017Y-93535000D01*
X103985983Y-93535000D01*
X104329635Y-93392655D01*
X104550000Y-93172290D01*
X104770365Y-93392655D01*
X105114017Y-93535000D01*
X105485983Y-93535000D01*
X105829635Y-93392655D01*
X106050000Y-93172290D01*
X106270365Y-93392655D01*
X106614017Y-93535000D01*
X106985983Y-93535000D01*
X107329635Y-93392655D01*
X107525000Y-93197290D01*
X107720365Y-93392655D01*
X108064017Y-93535000D01*
X108435983Y-93535000D01*
X108779635Y-93392655D01*
X109000000Y-93172290D01*
X109220365Y-93392655D01*
X109564017Y-93535000D01*
X109935983Y-93535000D01*
X110279635Y-93392655D01*
X110500000Y-93172290D01*
X110720365Y-93392655D01*
X111064017Y-93535000D01*
X111435983Y-93535000D01*
X111779635Y-93392655D01*
X112000000Y-93172290D01*
X112220365Y-93392655D01*
X112564017Y-93535000D01*
X112935983Y-93535000D01*
X113279635Y-93392655D01*
X113500000Y-93172290D01*
X113720365Y-93392655D01*
X114064017Y-93535000D01*
X114435983Y-93535000D01*
X114779635Y-93392655D01*
X115000000Y-93172290D01*
X115220365Y-93392655D01*
X115564017Y-93535000D01*
X115935983Y-93535000D01*
X116279635Y-93392655D01*
X116500000Y-93172290D01*
X116720365Y-93392655D01*
X117064017Y-93535000D01*
X117435983Y-93535000D01*
X117779635Y-93392655D01*
X118000000Y-93172290D01*
X118220365Y-93392655D01*
X118564017Y-93535000D01*
X118935983Y-93535000D01*
X119279635Y-93392655D01*
X119500000Y-93172290D01*
X119720365Y-93392655D01*
X120064017Y-93535000D01*
X120435983Y-93535000D01*
X120779635Y-93392655D01*
X121000000Y-93172290D01*
X121220365Y-93392655D01*
X121564017Y-93535000D01*
X121935983Y-93535000D01*
X122279635Y-93392655D01*
X122542655Y-93129635D01*
X122685000Y-92785983D01*
X122685000Y-92414017D01*
X122585000Y-92172595D01*
X122585000Y-87332232D01*
X122601357Y-87249999D01*
X122585000Y-87167766D01*
X122585000Y-87167763D01*
X122536552Y-86924199D01*
X122352001Y-86647999D01*
X122282283Y-86601415D01*
X117392656Y-81711789D01*
X117292655Y-81470365D01*
X117029635Y-81207345D01*
X116685983Y-81065000D01*
X116314017Y-81065000D01*
X115970365Y-81207345D01*
X115707345Y-81470365D01*
X115565000Y-81814017D01*
X115565000Y-82185983D01*
X115705113Y-82524245D01*
X114892656Y-81711789D01*
X114792655Y-81470365D01*
X114529635Y-81207345D01*
X114185983Y-81065000D01*
X113814017Y-81065000D01*
X113470365Y-81207345D01*
X113207345Y-81470365D01*
X113065000Y-81814017D01*
X113065000Y-82185983D01*
X113207345Y-82529635D01*
X113470365Y-82792655D01*
X113711789Y-82892656D01*
X119365001Y-88545869D01*
X119365001Y-89667454D01*
X119352001Y-89647999D01*
X119282283Y-89601415D01*
X112235000Y-82554133D01*
X112235000Y-82427405D01*
X112335000Y-82185983D01*
X112335000Y-81814017D01*
X112192655Y-81470365D01*
X111929635Y-81207345D01*
X111585983Y-81065000D01*
X111214017Y-81065000D01*
X110870365Y-81207345D01*
X110607345Y-81470365D01*
X110465000Y-81814017D01*
X110465000Y-82185983D01*
X110565001Y-82427406D01*
X110565000Y-82484133D01*
X109792656Y-81711789D01*
X109692655Y-81470365D01*
X109429635Y-81207345D01*
X109085983Y-81065000D01*
X108714017Y-81065000D01*
X108370365Y-81207345D01*
X108107345Y-81470365D01*
X107965000Y-81814017D01*
X107965000Y-82185983D01*
X108107345Y-82529635D01*
X108370365Y-82792655D01*
X108611789Y-82892656D01*
X116415001Y-90695869D01*
X116415001Y-90942285D01*
X116352001Y-90847999D01*
X116282283Y-90801415D01*
X107192656Y-81711789D01*
X107092655Y-81470365D01*
X106829635Y-81207345D01*
X106485983Y-81065000D01*
X106114017Y-81065000D01*
X105770365Y-81207345D01*
X105507345Y-81470365D01*
X105365000Y-81814017D01*
X105365000Y-82185983D01*
X105507345Y-82529635D01*
X105770365Y-82792655D01*
X106011789Y-82892656D01*
X114915001Y-91795869D01*
X114915001Y-91942711D01*
X114779635Y-91807345D01*
X114538213Y-91707345D01*
X104735000Y-81904133D01*
X104735000Y-81814017D01*
X104592655Y-81470365D01*
X104329635Y-81207345D01*
X103985983Y-81065000D01*
X103614017Y-81065000D01*
X103270365Y-81207345D01*
X103007345Y-81470365D01*
X102943176Y-81625284D01*
X102775801Y-81513448D01*
X102532237Y-81465000D01*
X102532233Y-81465000D01*
X102450000Y-81448643D01*
X102367767Y-81465000D01*
X102087290Y-81465000D01*
X101829635Y-81207345D01*
X101485983Y-81065000D01*
X101114017Y-81065000D01*
X100770365Y-81207345D01*
X100507345Y-81470365D01*
X100365000Y-81814017D01*
X100365000Y-82185983D01*
X100439151Y-82365000D01*
X100245869Y-82365000D01*
X99592655Y-81711788D01*
X99492655Y-81470365D01*
X99229635Y-81207345D01*
X98885983Y-81065000D01*
X98514017Y-81065000D01*
X98170365Y-81207345D01*
X97907345Y-81470365D01*
X97765000Y-81814017D01*
X97765000Y-82185983D01*
X97905112Y-82524244D01*
X97092656Y-81711788D01*
X96992655Y-81470365D01*
X96729635Y-81207345D01*
X96385983Y-81065000D01*
X96014017Y-81065000D01*
X95670365Y-81207345D01*
X95407345Y-81470365D01*
X95265000Y-81814017D01*
X95265000Y-82185983D01*
X95405112Y-82524245D01*
X94592656Y-81711789D01*
X94492655Y-81470365D01*
X94229635Y-81207345D01*
X93885983Y-81065000D01*
X93514017Y-81065000D01*
X93170365Y-81207345D01*
X92907345Y-81470365D01*
X92765000Y-81814017D01*
X92765000Y-82185983D01*
X92907345Y-82529635D01*
X93170365Y-82792655D01*
X93411789Y-82892656D01*
X96051415Y-85532283D01*
X96097999Y-85602001D01*
X96374199Y-85786552D01*
X96617763Y-85835000D01*
X96700000Y-85851358D01*
X96782237Y-85835000D01*
X100304133Y-85835000D01*
X106274687Y-91805555D01*
X106270365Y-91807345D01*
X106050000Y-92027710D01*
X105829635Y-91807345D01*
X105485983Y-91665000D01*
X105114017Y-91665000D01*
X104770365Y-91807345D01*
X104550000Y-92027710D01*
X104329635Y-91807345D01*
X103985983Y-91665000D01*
X103614017Y-91665000D01*
X103270365Y-91807345D01*
X103050000Y-92027710D01*
X102829635Y-91807345D01*
X102485983Y-91665000D01*
X102114017Y-91665000D01*
X101770365Y-91807345D01*
X101550000Y-92027710D01*
X101329635Y-91807345D01*
X100985983Y-91665000D01*
X100614017Y-91665000D01*
X100270365Y-91807345D01*
X100050000Y-92027710D01*
X99829635Y-91807345D01*
X99485983Y-91665000D01*
X99114017Y-91665000D01*
X98770365Y-91807345D01*
X98507345Y-92070365D01*
X98500000Y-92088097D01*
X98492655Y-92070365D01*
X98229635Y-91807345D01*
X97885983Y-91665000D01*
X97514017Y-91665000D01*
X97170365Y-91807345D01*
X96950000Y-92027710D01*
X96729635Y-91807345D01*
X96385983Y-91665000D01*
X96014017Y-91665000D01*
X95670365Y-91807345D01*
X95450000Y-92027710D01*
X95229635Y-91807345D01*
X94885983Y-91665000D01*
X94514017Y-91665000D01*
X94170365Y-91807345D01*
X94000000Y-91977710D01*
X93829635Y-91807345D01*
X93485983Y-91665000D01*
X93114017Y-91665000D01*
X92770365Y-91807345D01*
X92550000Y-92027710D01*
X92329635Y-91807345D01*
X91985983Y-91665000D01*
X91614017Y-91665000D01*
X91270365Y-91807345D01*
X91007345Y-92070365D01*
X91000000Y-92088097D01*
X90992655Y-92070365D01*
X90729635Y-91807345D01*
X90385983Y-91665000D01*
X90014017Y-91665000D01*
X89670365Y-91807345D01*
X89500000Y-91977710D01*
X89329635Y-91807345D01*
X88985983Y-91665000D01*
X88614017Y-91665000D01*
X88270365Y-91807345D01*
X88025000Y-92052710D01*
X87779635Y-91807345D01*
X87435983Y-91665000D01*
X87064017Y-91665000D01*
X86720365Y-91807345D01*
X86475000Y-92052710D01*
X86229635Y-91807345D01*
X85885983Y-91665000D01*
X85514017Y-91665000D01*
X85170365Y-91807345D01*
X85000000Y-91977710D01*
X84829635Y-91807345D01*
X84789957Y-91790910D01*
X91632283Y-84948585D01*
X91702001Y-84902001D01*
X91886552Y-84625801D01*
X91935000Y-84382237D01*
X91935000Y-84382236D01*
X91951358Y-84300000D01*
X91935000Y-84217763D01*
X91935000Y-82427405D01*
X92035000Y-82185983D01*
X92035000Y-81814017D01*
X91892655Y-81470365D01*
X91629635Y-81207345D01*
X91285983Y-81065000D01*
X90914017Y-81065000D01*
X90570365Y-81207345D01*
X90307345Y-81470365D01*
X90165000Y-81814017D01*
X90165000Y-82185983D01*
X90265001Y-82427407D01*
X90265000Y-83954132D01*
X82511789Y-91707344D01*
X82270365Y-91807345D01*
X82135000Y-91942710D01*
X82135000Y-91845867D01*
X89132283Y-84848585D01*
X89202001Y-84802001D01*
X89386552Y-84525801D01*
X89435000Y-84282237D01*
X89435000Y-84282234D01*
X89451357Y-84200001D01*
X89435000Y-84117768D01*
X89435000Y-82427405D01*
X89535000Y-82185983D01*
X89535000Y-81814017D01*
X89392655Y-81470365D01*
X89129635Y-81207345D01*
X88785983Y-81065000D01*
X88414017Y-81065000D01*
X88070365Y-81207345D01*
X87807345Y-81470365D01*
X87665000Y-81814017D01*
X87665000Y-82185983D01*
X87765001Y-82427407D01*
X87765000Y-83854132D01*
X80767718Y-90851415D01*
X80698000Y-90897999D01*
X80651416Y-90967717D01*
X80635000Y-90992285D01*
X80635000Y-90745867D01*
X86532283Y-84848585D01*
X86602001Y-84802001D01*
X86786552Y-84525801D01*
X86835000Y-84282237D01*
X86835000Y-84282234D01*
X86851357Y-84200001D01*
X86835000Y-84117768D01*
X86835000Y-82427405D01*
X86935000Y-82185983D01*
X86935000Y-81814017D01*
X86792655Y-81470365D01*
X86529635Y-81207345D01*
X86185983Y-81065000D01*
X85814017Y-81065000D01*
X85470365Y-81207345D01*
X85207345Y-81470365D01*
X85065000Y-81814017D01*
X85065000Y-82185983D01*
X85165001Y-82427407D01*
X85165000Y-83854132D01*
X79267718Y-89751415D01*
X79198000Y-89797999D01*
X79151416Y-89867717D01*
X79135000Y-89892285D01*
X79135000Y-89645867D01*
X84032284Y-84748584D01*
X84102001Y-84702001D01*
X84286552Y-84425801D01*
X84335000Y-84182237D01*
X84335000Y-84182236D01*
X84351358Y-84100000D01*
X84335000Y-84017763D01*
X84335000Y-82427405D01*
X84435000Y-82185983D01*
X84435000Y-81814017D01*
X84292655Y-81470365D01*
X84029635Y-81207345D01*
X83685983Y-81065000D01*
X83314017Y-81065000D01*
X82970365Y-81207345D01*
X82707345Y-81470365D01*
X82565000Y-81814017D01*
X82565000Y-82185983D01*
X82665001Y-82427407D01*
X82665000Y-83754132D01*
X77767718Y-88651415D01*
X77698000Y-88697999D01*
X77651416Y-88767717D01*
X77513448Y-88974200D01*
X77448643Y-89300000D01*
X77465001Y-89382238D01*
X77465000Y-92172595D01*
X77450000Y-92208808D01*
X77392655Y-92070365D01*
X77129635Y-91807345D01*
X76785983Y-91665000D01*
X76414017Y-91665000D01*
X76110000Y-91790928D01*
X76110000Y-91469925D01*
X76123909Y-91400000D01*
X76068805Y-91122972D01*
X75911881Y-90888119D01*
X75677028Y-90731195D01*
X75469926Y-90690000D01*
X75400000Y-90676091D01*
X75330075Y-90690000D01*
X75010000Y-90690000D01*
X75010000Y-75710000D01*
X124990001Y-75710000D01*
X124990000Y-90690000D01*
G04 #@! TD*
M02*
