M48
;DRILL file {KiCad 5.0.2-bee76a0~70~ubuntu18.10.1} date su  6. tammikuuta 2019 00.10.51
;FORMAT={-:-/ absolute / inch / decimal}
FMAT,2
INCH,TZ
T1C0.0157
T2C0.0315
%
G90
G05
T1
X3.0157Y-3.6457
X3.0827Y-3.6457
X3.1417Y-3.6457
X3.2008Y-3.6457
X3.2598Y-3.6457
X3.2874Y-3.2283
X3.3189Y-3.6457
X3.374Y-3.6457
X3.3858Y-3.2283
X3.435Y-3.6457
X3.4882Y-3.2283
X3.4961Y-3.6457
X3.5512Y-3.6457
X3.5866Y-3.2283
X3.6142Y-3.6457
X3.6732Y-3.6457
X3.689Y-3.2283
X3.7283Y-3.6457
X3.7874Y-3.2283
X3.7874Y-3.6457
X3.8465Y-3.6457
X3.8858Y-3.2283
X3.9094Y-3.6457
X3.9685Y-3.6457
X3.9882Y-3.2283
X4.0276Y-3.6457
X4.0866Y-3.2283
X4.0866Y-3.6457
X4.1457Y-3.6457
X4.185Y-3.2283
X4.2047Y-3.6457
X4.2618Y-3.6457
X4.2874Y-3.2283
X4.3209Y-3.6457
X4.3799Y-3.6457
X4.3858Y-3.2283
X4.439Y-3.6457
X4.4882Y-3.2283
X4.498Y-3.6457
X4.5571Y-3.6457
X4.5866Y-3.2283
X4.6161Y-3.6457
X4.6752Y-3.6457
X4.7343Y-3.6457
X4.7933Y-3.6457
X4.8583Y-3.6457
T2
X3.1063Y-3.0236
T0
M30
