G04 #@! TF.FileFunction,Copper,L2,Bot,Signal*
%FSLAX46Y46*%
G04 Gerber Fmt 4.6, Leading zero omitted, Abs format (unit mm)*
G04 Created by KiCad (PCBNEW 4.0.7-e2-6376~60~ubuntu17.10.1) date Wed Jan 17 23:43:32 2018*
%MOMM*%
%LPD*%
G01*
G04 APERTURE LIST*
%ADD10C,0.100000*%
%ADD11C,0.150000*%
%ADD12C,0.600000*%
%ADD13C,1.000000*%
%ADD14C,0.400000*%
%ADD15C,0.254000*%
G04 APERTURE END LIST*
D10*
D11*
X74300000Y-75000000D02*
X125700000Y-75000000D01*
X74300000Y-91400000D02*
X74300000Y-75000000D01*
X75400000Y-91400000D02*
X74300000Y-91400000D01*
X75400000Y-100000000D02*
X75400000Y-91400000D01*
X125700000Y-91400000D02*
X125700000Y-75000000D01*
X124600000Y-91400000D02*
X125700000Y-91400000D01*
X124600000Y-100000000D02*
X124600000Y-91400000D01*
X75400000Y-100000000D02*
X124600000Y-100000000D01*
D12*
X76600000Y-92600000D03*
D13*
X78900000Y-76800000D03*
D12*
X123400000Y-92600000D03*
X86000000Y-82000000D03*
X79800000Y-92600000D03*
X88600000Y-82000000D03*
X81300000Y-92600000D03*
X91100000Y-82000000D03*
X82800000Y-92600000D03*
X114000000Y-82000000D03*
X120250000Y-92600000D03*
X84300000Y-92600000D03*
X83500000Y-82000000D03*
X78300000Y-92600000D03*
X85700000Y-92600000D03*
X87250000Y-92600000D03*
X88800000Y-92600000D03*
X90200000Y-92600000D03*
X93700000Y-82000000D03*
X108250000Y-92600000D03*
X91800000Y-92600000D03*
X96200000Y-82000000D03*
X109750000Y-92600000D03*
X93300000Y-92600000D03*
X98700000Y-82000000D03*
X111250000Y-92600000D03*
X94700000Y-92600000D03*
X101300000Y-82000000D03*
X112750000Y-92600000D03*
X96200000Y-92600000D03*
X103800000Y-82000000D03*
X114250000Y-92600000D03*
X97700000Y-92600000D03*
X106300000Y-82000000D03*
X115750000Y-92600000D03*
X99300000Y-92600000D03*
X108900000Y-82000000D03*
X117250000Y-92600000D03*
X100800000Y-92600000D03*
X111400000Y-82000000D03*
X118750000Y-92600000D03*
X102300000Y-92600000D03*
X103800000Y-92600000D03*
X116500000Y-82000000D03*
X121750000Y-92600000D03*
X105300000Y-92600000D03*
X106800000Y-92600000D03*
D14*
X79800000Y-92600000D02*
X79800000Y-90400000D01*
X79800000Y-90400000D02*
X86000000Y-84200000D01*
X86000000Y-84200000D02*
X86000000Y-82000000D01*
X81300000Y-92600000D02*
X81300000Y-91500000D01*
X81300000Y-91500000D02*
X88600000Y-84200000D01*
X88600000Y-84200000D02*
X88600000Y-82000000D01*
X82800000Y-92600000D02*
X91100000Y-84300000D01*
X91100000Y-84300000D02*
X91100000Y-82000000D01*
X120250000Y-92600000D02*
X120200000Y-92550000D01*
X120200000Y-92550000D02*
X120200000Y-88200000D01*
X120200000Y-88200000D02*
X114000000Y-82000000D01*
X78300000Y-92600000D02*
X78300000Y-89300000D01*
X78300000Y-89300000D02*
X83500000Y-84100000D01*
X83500000Y-84100000D02*
X83500000Y-82000000D01*
X108250000Y-92600000D02*
X100650000Y-85000000D01*
X100650000Y-85000000D02*
X96700000Y-85000000D01*
X96700000Y-85000000D02*
X93700000Y-82000000D01*
X109750000Y-92600000D02*
X101250000Y-84100000D01*
X101250000Y-84100000D02*
X98300000Y-84100000D01*
X98300000Y-84100000D02*
X96200000Y-82000000D01*
X111250000Y-92600000D02*
X101850000Y-83200000D01*
X101850000Y-83200000D02*
X99900000Y-83200000D01*
X99900000Y-83200000D02*
X98700000Y-82000000D01*
X112750000Y-92600000D02*
X102450000Y-82300000D01*
X102450000Y-82300000D02*
X101500000Y-82300000D01*
X101500000Y-82300000D02*
X101300000Y-82100000D01*
X101300000Y-82100000D02*
X101300000Y-82000000D01*
X114250000Y-92600000D02*
X103800000Y-82150000D01*
X103800000Y-82150000D02*
X103800000Y-82000000D01*
X115750000Y-92600000D02*
X115750000Y-91450000D01*
X115750000Y-91450000D02*
X106300000Y-82000000D01*
X117250000Y-92600000D02*
X117250000Y-90350000D01*
X117250000Y-90350000D02*
X108900000Y-82000000D01*
X118750000Y-92600000D02*
X118750000Y-90250000D01*
X118750000Y-90250000D02*
X111400000Y-82900000D01*
X111400000Y-82900000D02*
X111400000Y-82000000D01*
X121750000Y-92600000D02*
X121750000Y-87250000D01*
X121750000Y-87250000D02*
X116500000Y-82000000D01*
D15*
G36*
X124990000Y-90690000D02*
X124600000Y-90690000D01*
X124328295Y-90744046D01*
X124097954Y-90897954D01*
X123944046Y-91128295D01*
X123890000Y-91400000D01*
X123890000Y-99290000D01*
X76110000Y-99290000D01*
X76110000Y-93408937D01*
X76413201Y-93534838D01*
X76785167Y-93535162D01*
X77128943Y-93393117D01*
X77392192Y-93130327D01*
X77449966Y-92991193D01*
X77506883Y-93128943D01*
X77769673Y-93392192D01*
X78113201Y-93534838D01*
X78485167Y-93535162D01*
X78828943Y-93393117D01*
X79050155Y-93172291D01*
X79269673Y-93392192D01*
X79613201Y-93534838D01*
X79985167Y-93535162D01*
X80328943Y-93393117D01*
X80550155Y-93172291D01*
X80769673Y-93392192D01*
X81113201Y-93534838D01*
X81485167Y-93535162D01*
X81828943Y-93393117D01*
X82050155Y-93172291D01*
X82269673Y-93392192D01*
X82613201Y-93534838D01*
X82985167Y-93535162D01*
X83328943Y-93393117D01*
X83550155Y-93172291D01*
X83769673Y-93392192D01*
X84113201Y-93534838D01*
X84485167Y-93535162D01*
X84828943Y-93393117D01*
X85000068Y-93222291D01*
X85169673Y-93392192D01*
X85513201Y-93534838D01*
X85885167Y-93535162D01*
X86228943Y-93393117D01*
X86475199Y-93147291D01*
X86719673Y-93392192D01*
X87063201Y-93534838D01*
X87435167Y-93535162D01*
X87778943Y-93393117D01*
X88025199Y-93147291D01*
X88269673Y-93392192D01*
X88613201Y-93534838D01*
X88985167Y-93535162D01*
X89328943Y-93393117D01*
X89500068Y-93222291D01*
X89669673Y-93392192D01*
X90013201Y-93534838D01*
X90385167Y-93535162D01*
X90728943Y-93393117D01*
X90992192Y-93130327D01*
X90999842Y-93111903D01*
X91006883Y-93128943D01*
X91269673Y-93392192D01*
X91613201Y-93534838D01*
X91985167Y-93535162D01*
X92328943Y-93393117D01*
X92550155Y-93172291D01*
X92769673Y-93392192D01*
X93113201Y-93534838D01*
X93485167Y-93535162D01*
X93828943Y-93393117D01*
X94000068Y-93222291D01*
X94169673Y-93392192D01*
X94513201Y-93534838D01*
X94885167Y-93535162D01*
X95228943Y-93393117D01*
X95450155Y-93172291D01*
X95669673Y-93392192D01*
X96013201Y-93534838D01*
X96385167Y-93535162D01*
X96728943Y-93393117D01*
X96950155Y-93172291D01*
X97169673Y-93392192D01*
X97513201Y-93534838D01*
X97885167Y-93535162D01*
X98228943Y-93393117D01*
X98492192Y-93130327D01*
X98499842Y-93111903D01*
X98506883Y-93128943D01*
X98769673Y-93392192D01*
X99113201Y-93534838D01*
X99485167Y-93535162D01*
X99828943Y-93393117D01*
X100050155Y-93172291D01*
X100269673Y-93392192D01*
X100613201Y-93534838D01*
X100985167Y-93535162D01*
X101328943Y-93393117D01*
X101550155Y-93172291D01*
X101769673Y-93392192D01*
X102113201Y-93534838D01*
X102485167Y-93535162D01*
X102828943Y-93393117D01*
X103050155Y-93172291D01*
X103269673Y-93392192D01*
X103613201Y-93534838D01*
X103985167Y-93535162D01*
X104328943Y-93393117D01*
X104550155Y-93172291D01*
X104769673Y-93392192D01*
X105113201Y-93534838D01*
X105485167Y-93535162D01*
X105828943Y-93393117D01*
X106050155Y-93172291D01*
X106269673Y-93392192D01*
X106613201Y-93534838D01*
X106985167Y-93535162D01*
X107328943Y-93393117D01*
X107525111Y-93197291D01*
X107719673Y-93392192D01*
X108063201Y-93534838D01*
X108435167Y-93535162D01*
X108778943Y-93393117D01*
X109000155Y-93172291D01*
X109219673Y-93392192D01*
X109563201Y-93534838D01*
X109935167Y-93535162D01*
X110278943Y-93393117D01*
X110500155Y-93172291D01*
X110719673Y-93392192D01*
X111063201Y-93534838D01*
X111435167Y-93535162D01*
X111778943Y-93393117D01*
X112000155Y-93172291D01*
X112219673Y-93392192D01*
X112563201Y-93534838D01*
X112935167Y-93535162D01*
X113278943Y-93393117D01*
X113500155Y-93172291D01*
X113719673Y-93392192D01*
X114063201Y-93534838D01*
X114435167Y-93535162D01*
X114778943Y-93393117D01*
X115000155Y-93172291D01*
X115219673Y-93392192D01*
X115563201Y-93534838D01*
X115935167Y-93535162D01*
X116278943Y-93393117D01*
X116500155Y-93172291D01*
X116719673Y-93392192D01*
X117063201Y-93534838D01*
X117435167Y-93535162D01*
X117778943Y-93393117D01*
X118000155Y-93172291D01*
X118219673Y-93392192D01*
X118563201Y-93534838D01*
X118935167Y-93535162D01*
X119278943Y-93393117D01*
X119500155Y-93172291D01*
X119719673Y-93392192D01*
X120063201Y-93534838D01*
X120435167Y-93535162D01*
X120778943Y-93393117D01*
X121000155Y-93172291D01*
X121219673Y-93392192D01*
X121563201Y-93534838D01*
X121935167Y-93535162D01*
X122278943Y-93393117D01*
X122542192Y-93130327D01*
X122684838Y-92786799D01*
X122685162Y-92414833D01*
X122585000Y-92172422D01*
X122585000Y-87250000D01*
X122521439Y-86930459D01*
X122340434Y-86659566D01*
X117392535Y-81711667D01*
X117293117Y-81471057D01*
X117030327Y-81207808D01*
X116686799Y-81065162D01*
X116314833Y-81064838D01*
X115971057Y-81206883D01*
X115707808Y-81469673D01*
X115565162Y-81813201D01*
X115564838Y-82185167D01*
X115704821Y-82523953D01*
X114892535Y-81711667D01*
X114793117Y-81471057D01*
X114530327Y-81207808D01*
X114186799Y-81065162D01*
X113814833Y-81064838D01*
X113471057Y-81206883D01*
X113207808Y-81469673D01*
X113065162Y-81813201D01*
X113064838Y-82185167D01*
X113206883Y-82528943D01*
X113469673Y-82792192D01*
X113711910Y-82892778D01*
X119365000Y-88545868D01*
X119365000Y-89696332D01*
X119340434Y-89659566D01*
X112235000Y-82554132D01*
X112235000Y-82427234D01*
X112334838Y-82186799D01*
X112335162Y-81814833D01*
X112193117Y-81471057D01*
X111930327Y-81207808D01*
X111586799Y-81065162D01*
X111214833Y-81064838D01*
X110871057Y-81206883D01*
X110607808Y-81469673D01*
X110465162Y-81813201D01*
X110464838Y-82185167D01*
X110565000Y-82427578D01*
X110565000Y-82484132D01*
X109792535Y-81711667D01*
X109693117Y-81471057D01*
X109430327Y-81207808D01*
X109086799Y-81065162D01*
X108714833Y-81064838D01*
X108371057Y-81206883D01*
X108107808Y-81469673D01*
X107965162Y-81813201D01*
X107964838Y-82185167D01*
X108106883Y-82528943D01*
X108369673Y-82792192D01*
X108611910Y-82892778D01*
X116415000Y-90695868D01*
X116415000Y-90971162D01*
X116340434Y-90859566D01*
X107192535Y-81711667D01*
X107093117Y-81471057D01*
X106830327Y-81207808D01*
X106486799Y-81065162D01*
X106114833Y-81064838D01*
X105771057Y-81206883D01*
X105507808Y-81469673D01*
X105365162Y-81813201D01*
X105364838Y-82185167D01*
X105506883Y-82528943D01*
X105769673Y-82792192D01*
X106011910Y-82892778D01*
X114915000Y-91795868D01*
X114915000Y-91942716D01*
X114780327Y-91807808D01*
X114538090Y-91707222D01*
X104735084Y-81904216D01*
X104735162Y-81814833D01*
X104593117Y-81471057D01*
X104330327Y-81207808D01*
X103986799Y-81065162D01*
X103614833Y-81064838D01*
X103271057Y-81206883D01*
X103007808Y-81469673D01*
X102936917Y-81640398D01*
X102769541Y-81528561D01*
X102450000Y-81465000D01*
X102087071Y-81465000D01*
X101830327Y-81207808D01*
X101486799Y-81065162D01*
X101114833Y-81064838D01*
X100771057Y-81206883D01*
X100507808Y-81469673D01*
X100365162Y-81813201D01*
X100364838Y-82185167D01*
X100439143Y-82365000D01*
X100245868Y-82365000D01*
X99592535Y-81711667D01*
X99493117Y-81471057D01*
X99230327Y-81207808D01*
X98886799Y-81065162D01*
X98514833Y-81064838D01*
X98171057Y-81206883D01*
X97907808Y-81469673D01*
X97765162Y-81813201D01*
X97764838Y-82185167D01*
X97904821Y-82523952D01*
X97092535Y-81711666D01*
X96993117Y-81471057D01*
X96730327Y-81207808D01*
X96386799Y-81065162D01*
X96014833Y-81064838D01*
X95671057Y-81206883D01*
X95407808Y-81469673D01*
X95265162Y-81813201D01*
X95264838Y-82185167D01*
X95404821Y-82523953D01*
X94592535Y-81711667D01*
X94493117Y-81471057D01*
X94230327Y-81207808D01*
X93886799Y-81065162D01*
X93514833Y-81064838D01*
X93171057Y-81206883D01*
X92907808Y-81469673D01*
X92765162Y-81813201D01*
X92764838Y-82185167D01*
X92906883Y-82528943D01*
X93169673Y-82792192D01*
X93411910Y-82892778D01*
X96109566Y-85590434D01*
X96380460Y-85771440D01*
X96700000Y-85835000D01*
X100304132Y-85835000D01*
X106274565Y-91805433D01*
X106271057Y-91806883D01*
X106049845Y-92027709D01*
X105830327Y-91807808D01*
X105486799Y-91665162D01*
X105114833Y-91664838D01*
X104771057Y-91806883D01*
X104549845Y-92027709D01*
X104330327Y-91807808D01*
X103986799Y-91665162D01*
X103614833Y-91664838D01*
X103271057Y-91806883D01*
X103049845Y-92027709D01*
X102830327Y-91807808D01*
X102486799Y-91665162D01*
X102114833Y-91664838D01*
X101771057Y-91806883D01*
X101549845Y-92027709D01*
X101330327Y-91807808D01*
X100986799Y-91665162D01*
X100614833Y-91664838D01*
X100271057Y-91806883D01*
X100049845Y-92027709D01*
X99830327Y-91807808D01*
X99486799Y-91665162D01*
X99114833Y-91664838D01*
X98771057Y-91806883D01*
X98507808Y-92069673D01*
X98500158Y-92088097D01*
X98493117Y-92071057D01*
X98230327Y-91807808D01*
X97886799Y-91665162D01*
X97514833Y-91664838D01*
X97171057Y-91806883D01*
X96949845Y-92027709D01*
X96730327Y-91807808D01*
X96386799Y-91665162D01*
X96014833Y-91664838D01*
X95671057Y-91806883D01*
X95449845Y-92027709D01*
X95230327Y-91807808D01*
X94886799Y-91665162D01*
X94514833Y-91664838D01*
X94171057Y-91806883D01*
X93999932Y-91977709D01*
X93830327Y-91807808D01*
X93486799Y-91665162D01*
X93114833Y-91664838D01*
X92771057Y-91806883D01*
X92549845Y-92027709D01*
X92330327Y-91807808D01*
X91986799Y-91665162D01*
X91614833Y-91664838D01*
X91271057Y-91806883D01*
X91007808Y-92069673D01*
X91000158Y-92088097D01*
X90993117Y-92071057D01*
X90730327Y-91807808D01*
X90386799Y-91665162D01*
X90014833Y-91664838D01*
X89671057Y-91806883D01*
X89499932Y-91977709D01*
X89330327Y-91807808D01*
X88986799Y-91665162D01*
X88614833Y-91664838D01*
X88271057Y-91806883D01*
X88024801Y-92052709D01*
X87780327Y-91807808D01*
X87436799Y-91665162D01*
X87064833Y-91664838D01*
X86721057Y-91806883D01*
X86474801Y-92052709D01*
X86230327Y-91807808D01*
X85886799Y-91665162D01*
X85514833Y-91664838D01*
X85171057Y-91806883D01*
X84999932Y-91977709D01*
X84830327Y-91807808D01*
X84789862Y-91791006D01*
X91690434Y-84890434D01*
X91871440Y-84619540D01*
X91935000Y-84300000D01*
X91935000Y-82427234D01*
X92034838Y-82186799D01*
X92035162Y-81814833D01*
X91893117Y-81471057D01*
X91630327Y-81207808D01*
X91286799Y-81065162D01*
X90914833Y-81064838D01*
X90571057Y-81206883D01*
X90307808Y-81469673D01*
X90165162Y-81813201D01*
X90164838Y-82185167D01*
X90265000Y-82427578D01*
X90265000Y-83954132D01*
X82511667Y-91707465D01*
X82271057Y-91806883D01*
X82135000Y-91942703D01*
X82135000Y-91845868D01*
X89190434Y-84790434D01*
X89304621Y-84619541D01*
X89371439Y-84519541D01*
X89435000Y-84200000D01*
X89435000Y-82427234D01*
X89534838Y-82186799D01*
X89535162Y-81814833D01*
X89393117Y-81471057D01*
X89130327Y-81207808D01*
X88786799Y-81065162D01*
X88414833Y-81064838D01*
X88071057Y-81206883D01*
X87807808Y-81469673D01*
X87665162Y-81813201D01*
X87664838Y-82185167D01*
X87765000Y-82427578D01*
X87765000Y-83854132D01*
X80709566Y-90909566D01*
X80635000Y-91021162D01*
X80635000Y-90745868D01*
X86590434Y-84790434D01*
X86704621Y-84619541D01*
X86771439Y-84519541D01*
X86835000Y-84200000D01*
X86835000Y-82427234D01*
X86934838Y-82186799D01*
X86935162Y-81814833D01*
X86793117Y-81471057D01*
X86530327Y-81207808D01*
X86186799Y-81065162D01*
X85814833Y-81064838D01*
X85471057Y-81206883D01*
X85207808Y-81469673D01*
X85065162Y-81813201D01*
X85064838Y-82185167D01*
X85165000Y-82427578D01*
X85165000Y-83854132D01*
X79209566Y-89809566D01*
X79135000Y-89921162D01*
X79135000Y-89645868D01*
X84090434Y-84690434D01*
X84271440Y-84419540D01*
X84335000Y-84100000D01*
X84335000Y-82427234D01*
X84434838Y-82186799D01*
X84435162Y-81814833D01*
X84293117Y-81471057D01*
X84030327Y-81207808D01*
X83686799Y-81065162D01*
X83314833Y-81064838D01*
X82971057Y-81206883D01*
X82707808Y-81469673D01*
X82565162Y-81813201D01*
X82564838Y-82185167D01*
X82665000Y-82427578D01*
X82665000Y-83754132D01*
X77709566Y-88709566D01*
X77528561Y-88980459D01*
X77465000Y-89300000D01*
X77465000Y-92172766D01*
X77450034Y-92208807D01*
X77393117Y-92071057D01*
X77130327Y-91807808D01*
X76786799Y-91665162D01*
X76414833Y-91664838D01*
X76110000Y-91790792D01*
X76110000Y-91400000D01*
X76055954Y-91128295D01*
X75902046Y-90897954D01*
X75671705Y-90744046D01*
X75400000Y-90690000D01*
X75010000Y-90690000D01*
X75010000Y-75710000D01*
X124990000Y-75710000D01*
X124990000Y-90690000D01*
X124990000Y-90690000D01*
G37*
X124990000Y-90690000D02*
X124600000Y-90690000D01*
X124328295Y-90744046D01*
X124097954Y-90897954D01*
X123944046Y-91128295D01*
X123890000Y-91400000D01*
X123890000Y-99290000D01*
X76110000Y-99290000D01*
X76110000Y-93408937D01*
X76413201Y-93534838D01*
X76785167Y-93535162D01*
X77128943Y-93393117D01*
X77392192Y-93130327D01*
X77449966Y-92991193D01*
X77506883Y-93128943D01*
X77769673Y-93392192D01*
X78113201Y-93534838D01*
X78485167Y-93535162D01*
X78828943Y-93393117D01*
X79050155Y-93172291D01*
X79269673Y-93392192D01*
X79613201Y-93534838D01*
X79985167Y-93535162D01*
X80328943Y-93393117D01*
X80550155Y-93172291D01*
X80769673Y-93392192D01*
X81113201Y-93534838D01*
X81485167Y-93535162D01*
X81828943Y-93393117D01*
X82050155Y-93172291D01*
X82269673Y-93392192D01*
X82613201Y-93534838D01*
X82985167Y-93535162D01*
X83328943Y-93393117D01*
X83550155Y-93172291D01*
X83769673Y-93392192D01*
X84113201Y-93534838D01*
X84485167Y-93535162D01*
X84828943Y-93393117D01*
X85000068Y-93222291D01*
X85169673Y-93392192D01*
X85513201Y-93534838D01*
X85885167Y-93535162D01*
X86228943Y-93393117D01*
X86475199Y-93147291D01*
X86719673Y-93392192D01*
X87063201Y-93534838D01*
X87435167Y-93535162D01*
X87778943Y-93393117D01*
X88025199Y-93147291D01*
X88269673Y-93392192D01*
X88613201Y-93534838D01*
X88985167Y-93535162D01*
X89328943Y-93393117D01*
X89500068Y-93222291D01*
X89669673Y-93392192D01*
X90013201Y-93534838D01*
X90385167Y-93535162D01*
X90728943Y-93393117D01*
X90992192Y-93130327D01*
X90999842Y-93111903D01*
X91006883Y-93128943D01*
X91269673Y-93392192D01*
X91613201Y-93534838D01*
X91985167Y-93535162D01*
X92328943Y-93393117D01*
X92550155Y-93172291D01*
X92769673Y-93392192D01*
X93113201Y-93534838D01*
X93485167Y-93535162D01*
X93828943Y-93393117D01*
X94000068Y-93222291D01*
X94169673Y-93392192D01*
X94513201Y-93534838D01*
X94885167Y-93535162D01*
X95228943Y-93393117D01*
X95450155Y-93172291D01*
X95669673Y-93392192D01*
X96013201Y-93534838D01*
X96385167Y-93535162D01*
X96728943Y-93393117D01*
X96950155Y-93172291D01*
X97169673Y-93392192D01*
X97513201Y-93534838D01*
X97885167Y-93535162D01*
X98228943Y-93393117D01*
X98492192Y-93130327D01*
X98499842Y-93111903D01*
X98506883Y-93128943D01*
X98769673Y-93392192D01*
X99113201Y-93534838D01*
X99485167Y-93535162D01*
X99828943Y-93393117D01*
X100050155Y-93172291D01*
X100269673Y-93392192D01*
X100613201Y-93534838D01*
X100985167Y-93535162D01*
X101328943Y-93393117D01*
X101550155Y-93172291D01*
X101769673Y-93392192D01*
X102113201Y-93534838D01*
X102485167Y-93535162D01*
X102828943Y-93393117D01*
X103050155Y-93172291D01*
X103269673Y-93392192D01*
X103613201Y-93534838D01*
X103985167Y-93535162D01*
X104328943Y-93393117D01*
X104550155Y-93172291D01*
X104769673Y-93392192D01*
X105113201Y-93534838D01*
X105485167Y-93535162D01*
X105828943Y-93393117D01*
X106050155Y-93172291D01*
X106269673Y-93392192D01*
X106613201Y-93534838D01*
X106985167Y-93535162D01*
X107328943Y-93393117D01*
X107525111Y-93197291D01*
X107719673Y-93392192D01*
X108063201Y-93534838D01*
X108435167Y-93535162D01*
X108778943Y-93393117D01*
X109000155Y-93172291D01*
X109219673Y-93392192D01*
X109563201Y-93534838D01*
X109935167Y-93535162D01*
X110278943Y-93393117D01*
X110500155Y-93172291D01*
X110719673Y-93392192D01*
X111063201Y-93534838D01*
X111435167Y-93535162D01*
X111778943Y-93393117D01*
X112000155Y-93172291D01*
X112219673Y-93392192D01*
X112563201Y-93534838D01*
X112935167Y-93535162D01*
X113278943Y-93393117D01*
X113500155Y-93172291D01*
X113719673Y-93392192D01*
X114063201Y-93534838D01*
X114435167Y-93535162D01*
X114778943Y-93393117D01*
X115000155Y-93172291D01*
X115219673Y-93392192D01*
X115563201Y-93534838D01*
X115935167Y-93535162D01*
X116278943Y-93393117D01*
X116500155Y-93172291D01*
X116719673Y-93392192D01*
X117063201Y-93534838D01*
X117435167Y-93535162D01*
X117778943Y-93393117D01*
X118000155Y-93172291D01*
X118219673Y-93392192D01*
X118563201Y-93534838D01*
X118935167Y-93535162D01*
X119278943Y-93393117D01*
X119500155Y-93172291D01*
X119719673Y-93392192D01*
X120063201Y-93534838D01*
X120435167Y-93535162D01*
X120778943Y-93393117D01*
X121000155Y-93172291D01*
X121219673Y-93392192D01*
X121563201Y-93534838D01*
X121935167Y-93535162D01*
X122278943Y-93393117D01*
X122542192Y-93130327D01*
X122684838Y-92786799D01*
X122685162Y-92414833D01*
X122585000Y-92172422D01*
X122585000Y-87250000D01*
X122521439Y-86930459D01*
X122340434Y-86659566D01*
X117392535Y-81711667D01*
X117293117Y-81471057D01*
X117030327Y-81207808D01*
X116686799Y-81065162D01*
X116314833Y-81064838D01*
X115971057Y-81206883D01*
X115707808Y-81469673D01*
X115565162Y-81813201D01*
X115564838Y-82185167D01*
X115704821Y-82523953D01*
X114892535Y-81711667D01*
X114793117Y-81471057D01*
X114530327Y-81207808D01*
X114186799Y-81065162D01*
X113814833Y-81064838D01*
X113471057Y-81206883D01*
X113207808Y-81469673D01*
X113065162Y-81813201D01*
X113064838Y-82185167D01*
X113206883Y-82528943D01*
X113469673Y-82792192D01*
X113711910Y-82892778D01*
X119365000Y-88545868D01*
X119365000Y-89696332D01*
X119340434Y-89659566D01*
X112235000Y-82554132D01*
X112235000Y-82427234D01*
X112334838Y-82186799D01*
X112335162Y-81814833D01*
X112193117Y-81471057D01*
X111930327Y-81207808D01*
X111586799Y-81065162D01*
X111214833Y-81064838D01*
X110871057Y-81206883D01*
X110607808Y-81469673D01*
X110465162Y-81813201D01*
X110464838Y-82185167D01*
X110565000Y-82427578D01*
X110565000Y-82484132D01*
X109792535Y-81711667D01*
X109693117Y-81471057D01*
X109430327Y-81207808D01*
X109086799Y-81065162D01*
X108714833Y-81064838D01*
X108371057Y-81206883D01*
X108107808Y-81469673D01*
X107965162Y-81813201D01*
X107964838Y-82185167D01*
X108106883Y-82528943D01*
X108369673Y-82792192D01*
X108611910Y-82892778D01*
X116415000Y-90695868D01*
X116415000Y-90971162D01*
X116340434Y-90859566D01*
X107192535Y-81711667D01*
X107093117Y-81471057D01*
X106830327Y-81207808D01*
X106486799Y-81065162D01*
X106114833Y-81064838D01*
X105771057Y-81206883D01*
X105507808Y-81469673D01*
X105365162Y-81813201D01*
X105364838Y-82185167D01*
X105506883Y-82528943D01*
X105769673Y-82792192D01*
X106011910Y-82892778D01*
X114915000Y-91795868D01*
X114915000Y-91942716D01*
X114780327Y-91807808D01*
X114538090Y-91707222D01*
X104735084Y-81904216D01*
X104735162Y-81814833D01*
X104593117Y-81471057D01*
X104330327Y-81207808D01*
X103986799Y-81065162D01*
X103614833Y-81064838D01*
X103271057Y-81206883D01*
X103007808Y-81469673D01*
X102936917Y-81640398D01*
X102769541Y-81528561D01*
X102450000Y-81465000D01*
X102087071Y-81465000D01*
X101830327Y-81207808D01*
X101486799Y-81065162D01*
X101114833Y-81064838D01*
X100771057Y-81206883D01*
X100507808Y-81469673D01*
X100365162Y-81813201D01*
X100364838Y-82185167D01*
X100439143Y-82365000D01*
X100245868Y-82365000D01*
X99592535Y-81711667D01*
X99493117Y-81471057D01*
X99230327Y-81207808D01*
X98886799Y-81065162D01*
X98514833Y-81064838D01*
X98171057Y-81206883D01*
X97907808Y-81469673D01*
X97765162Y-81813201D01*
X97764838Y-82185167D01*
X97904821Y-82523952D01*
X97092535Y-81711666D01*
X96993117Y-81471057D01*
X96730327Y-81207808D01*
X96386799Y-81065162D01*
X96014833Y-81064838D01*
X95671057Y-81206883D01*
X95407808Y-81469673D01*
X95265162Y-81813201D01*
X95264838Y-82185167D01*
X95404821Y-82523953D01*
X94592535Y-81711667D01*
X94493117Y-81471057D01*
X94230327Y-81207808D01*
X93886799Y-81065162D01*
X93514833Y-81064838D01*
X93171057Y-81206883D01*
X92907808Y-81469673D01*
X92765162Y-81813201D01*
X92764838Y-82185167D01*
X92906883Y-82528943D01*
X93169673Y-82792192D01*
X93411910Y-82892778D01*
X96109566Y-85590434D01*
X96380460Y-85771440D01*
X96700000Y-85835000D01*
X100304132Y-85835000D01*
X106274565Y-91805433D01*
X106271057Y-91806883D01*
X106049845Y-92027709D01*
X105830327Y-91807808D01*
X105486799Y-91665162D01*
X105114833Y-91664838D01*
X104771057Y-91806883D01*
X104549845Y-92027709D01*
X104330327Y-91807808D01*
X103986799Y-91665162D01*
X103614833Y-91664838D01*
X103271057Y-91806883D01*
X103049845Y-92027709D01*
X102830327Y-91807808D01*
X102486799Y-91665162D01*
X102114833Y-91664838D01*
X101771057Y-91806883D01*
X101549845Y-92027709D01*
X101330327Y-91807808D01*
X100986799Y-91665162D01*
X100614833Y-91664838D01*
X100271057Y-91806883D01*
X100049845Y-92027709D01*
X99830327Y-91807808D01*
X99486799Y-91665162D01*
X99114833Y-91664838D01*
X98771057Y-91806883D01*
X98507808Y-92069673D01*
X98500158Y-92088097D01*
X98493117Y-92071057D01*
X98230327Y-91807808D01*
X97886799Y-91665162D01*
X97514833Y-91664838D01*
X97171057Y-91806883D01*
X96949845Y-92027709D01*
X96730327Y-91807808D01*
X96386799Y-91665162D01*
X96014833Y-91664838D01*
X95671057Y-91806883D01*
X95449845Y-92027709D01*
X95230327Y-91807808D01*
X94886799Y-91665162D01*
X94514833Y-91664838D01*
X94171057Y-91806883D01*
X93999932Y-91977709D01*
X93830327Y-91807808D01*
X93486799Y-91665162D01*
X93114833Y-91664838D01*
X92771057Y-91806883D01*
X92549845Y-92027709D01*
X92330327Y-91807808D01*
X91986799Y-91665162D01*
X91614833Y-91664838D01*
X91271057Y-91806883D01*
X91007808Y-92069673D01*
X91000158Y-92088097D01*
X90993117Y-92071057D01*
X90730327Y-91807808D01*
X90386799Y-91665162D01*
X90014833Y-91664838D01*
X89671057Y-91806883D01*
X89499932Y-91977709D01*
X89330327Y-91807808D01*
X88986799Y-91665162D01*
X88614833Y-91664838D01*
X88271057Y-91806883D01*
X88024801Y-92052709D01*
X87780327Y-91807808D01*
X87436799Y-91665162D01*
X87064833Y-91664838D01*
X86721057Y-91806883D01*
X86474801Y-92052709D01*
X86230327Y-91807808D01*
X85886799Y-91665162D01*
X85514833Y-91664838D01*
X85171057Y-91806883D01*
X84999932Y-91977709D01*
X84830327Y-91807808D01*
X84789862Y-91791006D01*
X91690434Y-84890434D01*
X91871440Y-84619540D01*
X91935000Y-84300000D01*
X91935000Y-82427234D01*
X92034838Y-82186799D01*
X92035162Y-81814833D01*
X91893117Y-81471057D01*
X91630327Y-81207808D01*
X91286799Y-81065162D01*
X90914833Y-81064838D01*
X90571057Y-81206883D01*
X90307808Y-81469673D01*
X90165162Y-81813201D01*
X90164838Y-82185167D01*
X90265000Y-82427578D01*
X90265000Y-83954132D01*
X82511667Y-91707465D01*
X82271057Y-91806883D01*
X82135000Y-91942703D01*
X82135000Y-91845868D01*
X89190434Y-84790434D01*
X89304621Y-84619541D01*
X89371439Y-84519541D01*
X89435000Y-84200000D01*
X89435000Y-82427234D01*
X89534838Y-82186799D01*
X89535162Y-81814833D01*
X89393117Y-81471057D01*
X89130327Y-81207808D01*
X88786799Y-81065162D01*
X88414833Y-81064838D01*
X88071057Y-81206883D01*
X87807808Y-81469673D01*
X87665162Y-81813201D01*
X87664838Y-82185167D01*
X87765000Y-82427578D01*
X87765000Y-83854132D01*
X80709566Y-90909566D01*
X80635000Y-91021162D01*
X80635000Y-90745868D01*
X86590434Y-84790434D01*
X86704621Y-84619541D01*
X86771439Y-84519541D01*
X86835000Y-84200000D01*
X86835000Y-82427234D01*
X86934838Y-82186799D01*
X86935162Y-81814833D01*
X86793117Y-81471057D01*
X86530327Y-81207808D01*
X86186799Y-81065162D01*
X85814833Y-81064838D01*
X85471057Y-81206883D01*
X85207808Y-81469673D01*
X85065162Y-81813201D01*
X85064838Y-82185167D01*
X85165000Y-82427578D01*
X85165000Y-83854132D01*
X79209566Y-89809566D01*
X79135000Y-89921162D01*
X79135000Y-89645868D01*
X84090434Y-84690434D01*
X84271440Y-84419540D01*
X84335000Y-84100000D01*
X84335000Y-82427234D01*
X84434838Y-82186799D01*
X84435162Y-81814833D01*
X84293117Y-81471057D01*
X84030327Y-81207808D01*
X83686799Y-81065162D01*
X83314833Y-81064838D01*
X82971057Y-81206883D01*
X82707808Y-81469673D01*
X82565162Y-81813201D01*
X82564838Y-82185167D01*
X82665000Y-82427578D01*
X82665000Y-83754132D01*
X77709566Y-88709566D01*
X77528561Y-88980459D01*
X77465000Y-89300000D01*
X77465000Y-92172766D01*
X77450034Y-92208807D01*
X77393117Y-92071057D01*
X77130327Y-91807808D01*
X76786799Y-91665162D01*
X76414833Y-91664838D01*
X76110000Y-91790792D01*
X76110000Y-91400000D01*
X76055954Y-91128295D01*
X75902046Y-90897954D01*
X75671705Y-90744046D01*
X75400000Y-90690000D01*
X75010000Y-90690000D01*
X75010000Y-75710000D01*
X124990000Y-75710000D01*
X124990000Y-90690000D01*
M02*
