G04 #@! TF.GenerationSoftware,KiCad,Pcbnew,5.1.6-c6e7f7d~86~ubuntu20.04.1*
G04 #@! TF.CreationDate,2020-05-17T16:02:51+03:00*
G04 #@! TF.ProjectId,GB-BRK-M-XS,47422d42-524b-42d4-9d2d-58532e6b6963,v1.0*
G04 #@! TF.SameCoordinates,Original*
G04 #@! TF.FileFunction,Legend,Top*
G04 #@! TF.FilePolarity,Positive*
%FSLAX46Y46*%
G04 Gerber Fmt 4.6, Leading zero omitted, Abs format (unit mm)*
G04 Created by KiCad (PCBNEW 5.1.6-c6e7f7d~86~ubuntu20.04.1) date 2020-05-17 16:02:51*
%MOMM*%
%LPD*%
G01*
G04 APERTURE LIST*
G04 #@! TA.AperFunction,Profile*
%ADD10C,0.150000*%
G04 #@! TD*
%ADD11C,0.120000*%
%ADD12C,0.150000*%
G04 APERTURE END LIST*
D10*
X74300000Y-75000000D02*
X125700000Y-75000000D01*
X74300000Y-91400000D02*
X74300000Y-75000000D01*
X75400000Y-91400000D02*
X74300000Y-91400000D01*
X75400000Y-100000000D02*
X75400000Y-91400000D01*
X125700000Y-91400000D02*
X125700000Y-75000000D01*
X124600000Y-91400000D02*
X125700000Y-91400000D01*
X124600000Y-100000000D02*
X124600000Y-91400000D01*
X75400000Y-100000000D02*
X124600000Y-100000000D01*
D11*
X78270000Y-76040000D02*
X76000000Y-76040000D01*
X78270000Y-77560000D02*
X78270000Y-76040000D01*
X76000000Y-77560000D02*
X78270000Y-77560000D01*
X117270000Y-79400000D02*
X118290000Y-79400000D01*
X117270000Y-84600000D02*
X118290000Y-84600000D01*
X114730000Y-79400000D02*
X115750000Y-79400000D01*
X114730000Y-84600000D02*
X115750000Y-84600000D01*
X112190000Y-79400000D02*
X113210000Y-79400000D01*
X112190000Y-84600000D02*
X113210000Y-84600000D01*
X109650000Y-79400000D02*
X110670000Y-79400000D01*
X109650000Y-84600000D02*
X110670000Y-84600000D01*
X107110000Y-79400000D02*
X108130000Y-79400000D01*
X107110000Y-84600000D02*
X108130000Y-84600000D01*
X104570000Y-79400000D02*
X105590000Y-79400000D01*
X104570000Y-84600000D02*
X105590000Y-84600000D01*
X102030000Y-79400000D02*
X103050000Y-79400000D01*
X102030000Y-84600000D02*
X103050000Y-84600000D01*
X99490000Y-79400000D02*
X100510000Y-79400000D01*
X99490000Y-84600000D02*
X100510000Y-84600000D01*
X96950000Y-79400000D02*
X97970000Y-79400000D01*
X96950000Y-84600000D02*
X97970000Y-84600000D01*
X94410000Y-79400000D02*
X95430000Y-79400000D01*
X94410000Y-84600000D02*
X95430000Y-84600000D01*
X91870000Y-79400000D02*
X92890000Y-79400000D01*
X91870000Y-84600000D02*
X92890000Y-84600000D01*
X89330000Y-79400000D02*
X90350000Y-79400000D01*
X89330000Y-84600000D02*
X90350000Y-84600000D01*
X86790000Y-79400000D02*
X87810000Y-79400000D01*
X86790000Y-84600000D02*
X87810000Y-84600000D01*
X84250000Y-79400000D02*
X85270000Y-79400000D01*
X84250000Y-84600000D02*
X85270000Y-84600000D01*
X81710000Y-79400000D02*
X82730000Y-79400000D01*
X81710000Y-84600000D02*
X82730000Y-84600000D01*
X119810000Y-79400000D02*
X120380000Y-79400000D01*
X119810000Y-84600000D02*
X120380000Y-84600000D01*
X79620000Y-79400000D02*
X80190000Y-79400000D01*
X79620000Y-84600000D02*
X80190000Y-84600000D01*
X80190000Y-86040000D02*
X80190000Y-84600000D01*
X120380000Y-84600000D02*
X120380000Y-79400000D01*
X79620000Y-84600000D02*
X79620000Y-79400000D01*
X76920000Y-78090000D02*
X76480000Y-78090000D01*
X76920000Y-79110000D02*
X76480000Y-79110000D01*
D12*
X122390476Y-90952380D02*
X123009523Y-90952380D01*
X122676190Y-91333333D01*
X122819047Y-91333333D01*
X122914285Y-91380952D01*
X122961904Y-91428571D01*
X123009523Y-91523809D01*
X123009523Y-91761904D01*
X122961904Y-91857142D01*
X122914285Y-91904761D01*
X122819047Y-91952380D01*
X122533333Y-91952380D01*
X122438095Y-91904761D01*
X122390476Y-91857142D01*
X123390476Y-91047619D02*
X123438095Y-91000000D01*
X123533333Y-90952380D01*
X123771428Y-90952380D01*
X123866666Y-91000000D01*
X123914285Y-91047619D01*
X123961904Y-91142857D01*
X123961904Y-91238095D01*
X123914285Y-91380952D01*
X123342857Y-91952380D01*
X123961904Y-91952380D01*
X76585714Y-91952380D02*
X76014285Y-91952380D01*
X76300000Y-91952380D02*
X76300000Y-90952380D01*
X76204761Y-91095238D01*
X76109523Y-91190476D01*
X76014285Y-91238095D01*
M02*
