G04 #@! TF.GenerationSoftware,KiCad,Pcbnew,5.0.2-bee76a0~70~ubuntu18.10.1*
G04 #@! TF.CreationDate,2019-01-06T00:10:49+02:00*
G04 #@! TF.ProjectId,GB-BRK-M-XS,47422d42-524b-42d4-9d2d-58532e6b6963,v1.0*
G04 #@! TF.SameCoordinates,Original*
G04 #@! TF.FileFunction,Legend,Bot*
G04 #@! TF.FilePolarity,Positive*
%FSLAX46Y46*%
G04 Gerber Fmt 4.6, Leading zero omitted, Abs format (unit mm)*
G04 Created by KiCad (PCBNEW 5.0.2-bee76a0~70~ubuntu18.10.1) date su  6. tammikuuta 2019 00.10.49*
%MOMM*%
%LPD*%
G01*
G04 APERTURE LIST*
%ADD10C,0.300000*%
%ADD11C,0.150000*%
G04 APERTURE END LIST*
D10*
X114142857Y-84350000D02*
X114333333Y-84254761D01*
X114619047Y-84254761D01*
X114904761Y-84350000D01*
X115095238Y-84540476D01*
X115190476Y-84730952D01*
X115285714Y-85111904D01*
X115285714Y-85397619D01*
X115190476Y-85778571D01*
X115095238Y-85969047D01*
X114904761Y-86159523D01*
X114619047Y-86254761D01*
X114428571Y-86254761D01*
X114142857Y-86159523D01*
X114047619Y-86064285D01*
X114047619Y-85397619D01*
X114428571Y-85397619D01*
X112523809Y-85207142D02*
X112238095Y-85302380D01*
X112142857Y-85397619D01*
X112047619Y-85588095D01*
X112047619Y-85873809D01*
X112142857Y-86064285D01*
X112238095Y-86159523D01*
X112428571Y-86254761D01*
X113190476Y-86254761D01*
X113190476Y-84254761D01*
X112523809Y-84254761D01*
X112333333Y-84350000D01*
X112238095Y-84445238D01*
X112142857Y-84635714D01*
X112142857Y-84826190D01*
X112238095Y-85016666D01*
X112333333Y-85111904D01*
X112523809Y-85207142D01*
X113190476Y-85207142D01*
X111190476Y-85492857D02*
X109666666Y-85492857D01*
X108047619Y-85207142D02*
X107761904Y-85302380D01*
X107666666Y-85397619D01*
X107571428Y-85588095D01*
X107571428Y-85873809D01*
X107666666Y-86064285D01*
X107761904Y-86159523D01*
X107952380Y-86254761D01*
X108714285Y-86254761D01*
X108714285Y-84254761D01*
X108047619Y-84254761D01*
X107857142Y-84350000D01*
X107761904Y-84445238D01*
X107666666Y-84635714D01*
X107666666Y-84826190D01*
X107761904Y-85016666D01*
X107857142Y-85111904D01*
X108047619Y-85207142D01*
X108714285Y-85207142D01*
X105571428Y-86254761D02*
X106238095Y-85302380D01*
X106714285Y-86254761D02*
X106714285Y-84254761D01*
X105952380Y-84254761D01*
X105761904Y-84350000D01*
X105666666Y-84445238D01*
X105571428Y-84635714D01*
X105571428Y-84921428D01*
X105666666Y-85111904D01*
X105761904Y-85207142D01*
X105952380Y-85302380D01*
X106714285Y-85302380D01*
X104714285Y-86254761D02*
X104714285Y-84254761D01*
X103571428Y-86254761D02*
X104428571Y-85111904D01*
X103571428Y-84254761D02*
X104714285Y-85397619D01*
X102714285Y-85492857D02*
X101190476Y-85492857D01*
X100238095Y-86254761D02*
X100238095Y-84254761D01*
X99571428Y-85683333D01*
X98904761Y-84254761D01*
X98904761Y-86254761D01*
X97952380Y-85492857D02*
X96428571Y-85492857D01*
X95666666Y-84254761D02*
X94333333Y-86254761D01*
X94333333Y-84254761D02*
X95666666Y-86254761D01*
X93666666Y-86159523D02*
X93380952Y-86254761D01*
X92904761Y-86254761D01*
X92714285Y-86159523D01*
X92619047Y-86064285D01*
X92523809Y-85873809D01*
X92523809Y-85683333D01*
X92619047Y-85492857D01*
X92714285Y-85397619D01*
X92904761Y-85302380D01*
X93285714Y-85207142D01*
X93476190Y-85111904D01*
X93571428Y-85016666D01*
X93666666Y-84826190D01*
X93666666Y-84635714D01*
X93571428Y-84445238D01*
X93476190Y-84350000D01*
X93285714Y-84254761D01*
X92809523Y-84254761D01*
X92523809Y-84350000D01*
X90333333Y-84921428D02*
X89857142Y-86254761D01*
X89380952Y-84921428D01*
X87571428Y-86254761D02*
X88714285Y-86254761D01*
X88142857Y-86254761D02*
X88142857Y-84254761D01*
X88333333Y-84540476D01*
X88523809Y-84730952D01*
X88714285Y-84826190D01*
X86714285Y-86064285D02*
X86619047Y-86159523D01*
X86714285Y-86254761D01*
X86809523Y-86159523D01*
X86714285Y-86064285D01*
X86714285Y-86254761D01*
X85380952Y-84254761D02*
X85190476Y-84254761D01*
X85000000Y-84350000D01*
X84904761Y-84445238D01*
X84809523Y-84635714D01*
X84714285Y-85016666D01*
X84714285Y-85492857D01*
X84809523Y-85873809D01*
X84904761Y-86064285D01*
X85000000Y-86159523D01*
X85190476Y-86254761D01*
X85380952Y-86254761D01*
X85571428Y-86159523D01*
X85666666Y-86064285D01*
X85761904Y-85873809D01*
X85857142Y-85492857D01*
X85857142Y-85016666D01*
X85761904Y-84635714D01*
X85666666Y-84445238D01*
X85571428Y-84350000D01*
X85380952Y-84254761D01*
X112142857Y-89554761D02*
X112142857Y-87554761D01*
X111285714Y-89554761D02*
X111285714Y-88507142D01*
X111380952Y-88316666D01*
X111571428Y-88221428D01*
X111857142Y-88221428D01*
X112047619Y-88316666D01*
X112142857Y-88411904D01*
X110619047Y-88221428D02*
X109857142Y-88221428D01*
X110333333Y-87554761D02*
X110333333Y-89269047D01*
X110238095Y-89459523D01*
X110047619Y-89554761D01*
X109857142Y-89554761D01*
X109476190Y-88221428D02*
X108714285Y-88221428D01*
X109190476Y-87554761D02*
X109190476Y-89269047D01*
X109095238Y-89459523D01*
X108904761Y-89554761D01*
X108714285Y-89554761D01*
X108047619Y-88221428D02*
X108047619Y-90221428D01*
X108047619Y-88316666D02*
X107857142Y-88221428D01*
X107476190Y-88221428D01*
X107285714Y-88316666D01*
X107190476Y-88411904D01*
X107095238Y-88602380D01*
X107095238Y-89173809D01*
X107190476Y-89364285D01*
X107285714Y-89459523D01*
X107476190Y-89554761D01*
X107857142Y-89554761D01*
X108047619Y-89459523D01*
X106333333Y-89459523D02*
X106142857Y-89554761D01*
X105761904Y-89554761D01*
X105571428Y-89459523D01*
X105476190Y-89269047D01*
X105476190Y-89173809D01*
X105571428Y-88983333D01*
X105761904Y-88888095D01*
X106047619Y-88888095D01*
X106238095Y-88792857D01*
X106333333Y-88602380D01*
X106333333Y-88507142D01*
X106238095Y-88316666D01*
X106047619Y-88221428D01*
X105761904Y-88221428D01*
X105571428Y-88316666D01*
X104619047Y-89364285D02*
X104523809Y-89459523D01*
X104619047Y-89554761D01*
X104714285Y-89459523D01*
X104619047Y-89364285D01*
X104619047Y-89554761D01*
X104619047Y-88316666D02*
X104523809Y-88411904D01*
X104619047Y-88507142D01*
X104714285Y-88411904D01*
X104619047Y-88316666D01*
X104619047Y-88507142D01*
X102238095Y-87459523D02*
X103952380Y-90030952D01*
X100142857Y-87459523D02*
X101857142Y-90030952D01*
X98619047Y-88221428D02*
X98619047Y-89840476D01*
X98714285Y-90030952D01*
X98809523Y-90126190D01*
X99000000Y-90221428D01*
X99285714Y-90221428D01*
X99476190Y-90126190D01*
X98619047Y-89459523D02*
X98809523Y-89554761D01*
X99190476Y-89554761D01*
X99380952Y-89459523D01*
X99476190Y-89364285D01*
X99571428Y-89173809D01*
X99571428Y-88602380D01*
X99476190Y-88411904D01*
X99380952Y-88316666D01*
X99190476Y-88221428D01*
X98809523Y-88221428D01*
X98619047Y-88316666D01*
X96904761Y-89459523D02*
X97095238Y-89554761D01*
X97476190Y-89554761D01*
X97666666Y-89459523D01*
X97761904Y-89269047D01*
X97761904Y-88507142D01*
X97666666Y-88316666D01*
X97476190Y-88221428D01*
X97095238Y-88221428D01*
X96904761Y-88316666D01*
X96809523Y-88507142D01*
X96809523Y-88697619D01*
X97761904Y-88888095D01*
X95952380Y-89554761D02*
X95952380Y-87554761D01*
X95761904Y-88792857D02*
X95190476Y-89554761D01*
X95190476Y-88221428D02*
X95952380Y-88983333D01*
X94333333Y-89554761D02*
X94333333Y-87554761D01*
X94142857Y-88792857D02*
X93571428Y-89554761D01*
X93571428Y-88221428D02*
X94333333Y-88983333D01*
X92714285Y-89554761D02*
X92714285Y-88221428D01*
X92714285Y-87554761D02*
X92809523Y-87650000D01*
X92714285Y-87745238D01*
X92619047Y-87650000D01*
X92714285Y-87554761D01*
X92714285Y-87745238D01*
X91476190Y-89554761D02*
X91666666Y-89459523D01*
X91761904Y-89364285D01*
X91857142Y-89173809D01*
X91857142Y-88602380D01*
X91761904Y-88411904D01*
X91666666Y-88316666D01*
X91476190Y-88221428D01*
X91190476Y-88221428D01*
X91000000Y-88316666D01*
X90904761Y-88411904D01*
X90809523Y-88602380D01*
X90809523Y-89173809D01*
X90904761Y-89364285D01*
X91000000Y-89459523D01*
X91190476Y-89554761D01*
X91476190Y-89554761D01*
X89952380Y-89364285D02*
X89857142Y-89459523D01*
X89952380Y-89554761D01*
X90047619Y-89459523D01*
X89952380Y-89364285D01*
X89952380Y-89554761D01*
X89285714Y-88221428D02*
X88523809Y-88221428D01*
X89000000Y-89554761D02*
X89000000Y-87840476D01*
X88904761Y-87650000D01*
X88714285Y-87554761D01*
X88523809Y-87554761D01*
X87857142Y-89554761D02*
X87857142Y-88221428D01*
X87857142Y-87554761D02*
X87952380Y-87650000D01*
X87857142Y-87745238D01*
X87761904Y-87650000D01*
X87857142Y-87554761D01*
X87857142Y-87745238D01*
D11*
X74300000Y-75000000D02*
X125700000Y-75000000D01*
X74300000Y-91400000D02*
X74300000Y-75000000D01*
X75400000Y-91400000D02*
X74300000Y-91400000D01*
X75400000Y-100000000D02*
X75400000Y-91400000D01*
X125700000Y-91400000D02*
X125700000Y-75000000D01*
X124600000Y-91400000D02*
X125700000Y-91400000D01*
X124600000Y-100000000D02*
X124600000Y-91400000D01*
X75400000Y-100000000D02*
X124600000Y-100000000D01*
M02*
