G04 #@! TF.GenerationSoftware,KiCad,Pcbnew,5.1.6-c6e7f7d~86~ubuntu20.04.1*
G04 #@! TF.CreationDate,2020-05-17T16:02:51+03:00*
G04 #@! TF.ProjectId,GB-BRK-M-XS,47422d42-524b-42d4-9d2d-58532e6b6963,v1.0*
G04 #@! TF.SameCoordinates,Original*
G04 #@! TF.FileFunction,Copper,L2,Bot*
G04 #@! TF.FilePolarity,Positive*
%FSLAX46Y46*%
G04 Gerber Fmt 4.6, Leading zero omitted, Abs format (unit mm)*
G04 Created by KiCad (PCBNEW 5.1.6-c6e7f7d~86~ubuntu20.04.1) date 2020-05-17 16:02:51*
%MOMM*%
%LPD*%
G01*
G04 APERTURE LIST*
G04 #@! TA.AperFunction,Profile*
%ADD10C,0.150000*%
G04 #@! TD*
G04 #@! TA.AperFunction,ViaPad*
%ADD11C,0.600000*%
G04 #@! TD*
G04 #@! TA.AperFunction,ViaPad*
%ADD12C,1.000000*%
G04 #@! TD*
G04 #@! TA.AperFunction,Conductor*
%ADD13C,0.400000*%
G04 #@! TD*
G04 #@! TA.AperFunction,Conductor*
%ADD14C,0.254000*%
G04 #@! TD*
G04 APERTURE END LIST*
D10*
X74300000Y-75000000D02*
X125700000Y-75000000D01*
X74300000Y-91400000D02*
X74300000Y-75000000D01*
X75400000Y-91400000D02*
X74300000Y-91400000D01*
X75400000Y-100000000D02*
X75400000Y-91400000D01*
X125700000Y-91400000D02*
X125700000Y-75000000D01*
X124600000Y-91400000D02*
X125700000Y-91400000D01*
X124600000Y-100000000D02*
X124600000Y-91400000D01*
X75400000Y-100000000D02*
X124600000Y-100000000D01*
D11*
X76600000Y-92600000D03*
D12*
X78900000Y-76800000D03*
D11*
X123400000Y-92600000D03*
X86000000Y-82000000D03*
X79800000Y-92600000D03*
X88600000Y-82000000D03*
X81300000Y-92600000D03*
X91100000Y-82000000D03*
X82800000Y-92600000D03*
X114000000Y-82000000D03*
X120250000Y-92600000D03*
X84300000Y-92600000D03*
X83500000Y-82000000D03*
X78300000Y-92600000D03*
X85700000Y-92600000D03*
X87250000Y-92600000D03*
X88800000Y-92600000D03*
X90200000Y-92600000D03*
X93700000Y-82000000D03*
X108250000Y-92600000D03*
X91800000Y-92600000D03*
X96200000Y-82000000D03*
X109750000Y-92600000D03*
X93300000Y-92600000D03*
X98700000Y-82000000D03*
X111250000Y-92600000D03*
X94700000Y-92600000D03*
X101300000Y-82000000D03*
X112750000Y-92600000D03*
X96200000Y-92600000D03*
X103800000Y-82000000D03*
X114250000Y-92600000D03*
X97700000Y-92600000D03*
X106300000Y-82000000D03*
X115750000Y-92600000D03*
X99300000Y-92600000D03*
X108900000Y-82000000D03*
X117250000Y-92600000D03*
X100800000Y-92600000D03*
X111400000Y-82000000D03*
X118750000Y-92600000D03*
X102300000Y-92600000D03*
X103800000Y-92600000D03*
X116500000Y-82000000D03*
X121750000Y-92600000D03*
X105300000Y-92600000D03*
X106800000Y-92600000D03*
D13*
X79800000Y-92600000D02*
X79800000Y-90400000D01*
X79800000Y-90400000D02*
X86000000Y-84200000D01*
X86000000Y-84200000D02*
X86000000Y-82000000D01*
X81300000Y-92600000D02*
X81300000Y-91500000D01*
X81300000Y-91500000D02*
X88600000Y-84200000D01*
X88600000Y-84200000D02*
X88600000Y-82000000D01*
X82800000Y-92600000D02*
X91100000Y-84300000D01*
X91100000Y-84300000D02*
X91100000Y-82000000D01*
X120250000Y-92600000D02*
X120200000Y-92550000D01*
X120200000Y-92550000D02*
X120200000Y-88200000D01*
X120200000Y-88200000D02*
X114000000Y-82000000D01*
X78300000Y-92600000D02*
X78300000Y-89300000D01*
X78300000Y-89300000D02*
X83500000Y-84100000D01*
X83500000Y-84100000D02*
X83500000Y-82000000D01*
X108250000Y-92600000D02*
X100650000Y-85000000D01*
X100650000Y-85000000D02*
X96700000Y-85000000D01*
X96700000Y-85000000D02*
X93700000Y-82000000D01*
X109750000Y-92600000D02*
X101250000Y-84100000D01*
X101250000Y-84100000D02*
X98300000Y-84100000D01*
X98300000Y-84100000D02*
X96200000Y-82000000D01*
X111250000Y-92600000D02*
X101850000Y-83200000D01*
X101850000Y-83200000D02*
X99900000Y-83200000D01*
X99900000Y-83200000D02*
X98700000Y-82000000D01*
X112750000Y-92600000D02*
X102450000Y-82300000D01*
X102450000Y-82300000D02*
X101500000Y-82300000D01*
X101500000Y-82300000D02*
X101300000Y-82100000D01*
X101300000Y-82100000D02*
X101300000Y-82000000D01*
X114250000Y-92600000D02*
X103800000Y-82150000D01*
X103800000Y-82150000D02*
X103800000Y-82000000D01*
X115750000Y-92600000D02*
X115750000Y-91450000D01*
X115750000Y-91450000D02*
X106300000Y-82000000D01*
X117250000Y-92600000D02*
X117250000Y-90350000D01*
X117250000Y-90350000D02*
X108900000Y-82000000D01*
X118750000Y-92600000D02*
X118750000Y-90250000D01*
X118750000Y-90250000D02*
X111400000Y-82900000D01*
X111400000Y-82900000D02*
X111400000Y-82000000D01*
X121750000Y-92600000D02*
X121750000Y-87250000D01*
X121750000Y-87250000D02*
X116500000Y-82000000D01*
D14*
G36*
X124990000Y-90690000D02*
G01*
X124634877Y-90690000D01*
X124600000Y-90686565D01*
X124565123Y-90690000D01*
X124460816Y-90700273D01*
X124326980Y-90740872D01*
X124203637Y-90806800D01*
X124095525Y-90895525D01*
X124006800Y-91003637D01*
X123940872Y-91126980D01*
X123900273Y-91260816D01*
X123886565Y-91400000D01*
X123890001Y-91434887D01*
X123890000Y-99290000D01*
X76110000Y-99290000D01*
X76110000Y-93397108D01*
X76157111Y-93428586D01*
X76327271Y-93499068D01*
X76507911Y-93535000D01*
X76692089Y-93535000D01*
X76872729Y-93499068D01*
X77042889Y-93428586D01*
X77196028Y-93326262D01*
X77326262Y-93196028D01*
X77428586Y-93042889D01*
X77450000Y-92991191D01*
X77471414Y-93042889D01*
X77573738Y-93196028D01*
X77703972Y-93326262D01*
X77857111Y-93428586D01*
X78027271Y-93499068D01*
X78207911Y-93535000D01*
X78392089Y-93535000D01*
X78572729Y-93499068D01*
X78742889Y-93428586D01*
X78896028Y-93326262D01*
X79026262Y-93196028D01*
X79050000Y-93160502D01*
X79073738Y-93196028D01*
X79203972Y-93326262D01*
X79357111Y-93428586D01*
X79527271Y-93499068D01*
X79707911Y-93535000D01*
X79892089Y-93535000D01*
X80072729Y-93499068D01*
X80242889Y-93428586D01*
X80396028Y-93326262D01*
X80526262Y-93196028D01*
X80550000Y-93160502D01*
X80573738Y-93196028D01*
X80703972Y-93326262D01*
X80857111Y-93428586D01*
X81027271Y-93499068D01*
X81207911Y-93535000D01*
X81392089Y-93535000D01*
X81572729Y-93499068D01*
X81742889Y-93428586D01*
X81896028Y-93326262D01*
X82026262Y-93196028D01*
X82050000Y-93160502D01*
X82073738Y-93196028D01*
X82203972Y-93326262D01*
X82357111Y-93428586D01*
X82527271Y-93499068D01*
X82707911Y-93535000D01*
X82892089Y-93535000D01*
X83072729Y-93499068D01*
X83242889Y-93428586D01*
X83396028Y-93326262D01*
X83526262Y-93196028D01*
X83550000Y-93160502D01*
X83573738Y-93196028D01*
X83703972Y-93326262D01*
X83857111Y-93428586D01*
X84027271Y-93499068D01*
X84207911Y-93535000D01*
X84392089Y-93535000D01*
X84572729Y-93499068D01*
X84742889Y-93428586D01*
X84896028Y-93326262D01*
X85000000Y-93222290D01*
X85103972Y-93326262D01*
X85257111Y-93428586D01*
X85427271Y-93499068D01*
X85607911Y-93535000D01*
X85792089Y-93535000D01*
X85972729Y-93499068D01*
X86142889Y-93428586D01*
X86296028Y-93326262D01*
X86426262Y-93196028D01*
X86475000Y-93123086D01*
X86523738Y-93196028D01*
X86653972Y-93326262D01*
X86807111Y-93428586D01*
X86977271Y-93499068D01*
X87157911Y-93535000D01*
X87342089Y-93535000D01*
X87522729Y-93499068D01*
X87692889Y-93428586D01*
X87846028Y-93326262D01*
X87976262Y-93196028D01*
X88025000Y-93123086D01*
X88073738Y-93196028D01*
X88203972Y-93326262D01*
X88357111Y-93428586D01*
X88527271Y-93499068D01*
X88707911Y-93535000D01*
X88892089Y-93535000D01*
X89072729Y-93499068D01*
X89242889Y-93428586D01*
X89396028Y-93326262D01*
X89500000Y-93222290D01*
X89603972Y-93326262D01*
X89757111Y-93428586D01*
X89927271Y-93499068D01*
X90107911Y-93535000D01*
X90292089Y-93535000D01*
X90472729Y-93499068D01*
X90642889Y-93428586D01*
X90796028Y-93326262D01*
X90926262Y-93196028D01*
X91000000Y-93085671D01*
X91073738Y-93196028D01*
X91203972Y-93326262D01*
X91357111Y-93428586D01*
X91527271Y-93499068D01*
X91707911Y-93535000D01*
X91892089Y-93535000D01*
X92072729Y-93499068D01*
X92242889Y-93428586D01*
X92396028Y-93326262D01*
X92526262Y-93196028D01*
X92550000Y-93160502D01*
X92573738Y-93196028D01*
X92703972Y-93326262D01*
X92857111Y-93428586D01*
X93027271Y-93499068D01*
X93207911Y-93535000D01*
X93392089Y-93535000D01*
X93572729Y-93499068D01*
X93742889Y-93428586D01*
X93896028Y-93326262D01*
X94000000Y-93222290D01*
X94103972Y-93326262D01*
X94257111Y-93428586D01*
X94427271Y-93499068D01*
X94607911Y-93535000D01*
X94792089Y-93535000D01*
X94972729Y-93499068D01*
X95142889Y-93428586D01*
X95296028Y-93326262D01*
X95426262Y-93196028D01*
X95450000Y-93160502D01*
X95473738Y-93196028D01*
X95603972Y-93326262D01*
X95757111Y-93428586D01*
X95927271Y-93499068D01*
X96107911Y-93535000D01*
X96292089Y-93535000D01*
X96472729Y-93499068D01*
X96642889Y-93428586D01*
X96796028Y-93326262D01*
X96926262Y-93196028D01*
X96950000Y-93160502D01*
X96973738Y-93196028D01*
X97103972Y-93326262D01*
X97257111Y-93428586D01*
X97427271Y-93499068D01*
X97607911Y-93535000D01*
X97792089Y-93535000D01*
X97972729Y-93499068D01*
X98142889Y-93428586D01*
X98296028Y-93326262D01*
X98426262Y-93196028D01*
X98500000Y-93085671D01*
X98573738Y-93196028D01*
X98703972Y-93326262D01*
X98857111Y-93428586D01*
X99027271Y-93499068D01*
X99207911Y-93535000D01*
X99392089Y-93535000D01*
X99572729Y-93499068D01*
X99742889Y-93428586D01*
X99896028Y-93326262D01*
X100026262Y-93196028D01*
X100050000Y-93160502D01*
X100073738Y-93196028D01*
X100203972Y-93326262D01*
X100357111Y-93428586D01*
X100527271Y-93499068D01*
X100707911Y-93535000D01*
X100892089Y-93535000D01*
X101072729Y-93499068D01*
X101242889Y-93428586D01*
X101396028Y-93326262D01*
X101526262Y-93196028D01*
X101550000Y-93160502D01*
X101573738Y-93196028D01*
X101703972Y-93326262D01*
X101857111Y-93428586D01*
X102027271Y-93499068D01*
X102207911Y-93535000D01*
X102392089Y-93535000D01*
X102572729Y-93499068D01*
X102742889Y-93428586D01*
X102896028Y-93326262D01*
X103026262Y-93196028D01*
X103050000Y-93160502D01*
X103073738Y-93196028D01*
X103203972Y-93326262D01*
X103357111Y-93428586D01*
X103527271Y-93499068D01*
X103707911Y-93535000D01*
X103892089Y-93535000D01*
X104072729Y-93499068D01*
X104242889Y-93428586D01*
X104396028Y-93326262D01*
X104526262Y-93196028D01*
X104550000Y-93160502D01*
X104573738Y-93196028D01*
X104703972Y-93326262D01*
X104857111Y-93428586D01*
X105027271Y-93499068D01*
X105207911Y-93535000D01*
X105392089Y-93535000D01*
X105572729Y-93499068D01*
X105742889Y-93428586D01*
X105896028Y-93326262D01*
X106026262Y-93196028D01*
X106050000Y-93160502D01*
X106073738Y-93196028D01*
X106203972Y-93326262D01*
X106357111Y-93428586D01*
X106527271Y-93499068D01*
X106707911Y-93535000D01*
X106892089Y-93535000D01*
X107072729Y-93499068D01*
X107242889Y-93428586D01*
X107396028Y-93326262D01*
X107525000Y-93197290D01*
X107653972Y-93326262D01*
X107807111Y-93428586D01*
X107977271Y-93499068D01*
X108157911Y-93535000D01*
X108342089Y-93535000D01*
X108522729Y-93499068D01*
X108692889Y-93428586D01*
X108846028Y-93326262D01*
X108976262Y-93196028D01*
X109000000Y-93160502D01*
X109023738Y-93196028D01*
X109153972Y-93326262D01*
X109307111Y-93428586D01*
X109477271Y-93499068D01*
X109657911Y-93535000D01*
X109842089Y-93535000D01*
X110022729Y-93499068D01*
X110192889Y-93428586D01*
X110346028Y-93326262D01*
X110476262Y-93196028D01*
X110500000Y-93160502D01*
X110523738Y-93196028D01*
X110653972Y-93326262D01*
X110807111Y-93428586D01*
X110977271Y-93499068D01*
X111157911Y-93535000D01*
X111342089Y-93535000D01*
X111522729Y-93499068D01*
X111692889Y-93428586D01*
X111846028Y-93326262D01*
X111976262Y-93196028D01*
X112000000Y-93160502D01*
X112023738Y-93196028D01*
X112153972Y-93326262D01*
X112307111Y-93428586D01*
X112477271Y-93499068D01*
X112657911Y-93535000D01*
X112842089Y-93535000D01*
X113022729Y-93499068D01*
X113192889Y-93428586D01*
X113346028Y-93326262D01*
X113476262Y-93196028D01*
X113500000Y-93160502D01*
X113523738Y-93196028D01*
X113653972Y-93326262D01*
X113807111Y-93428586D01*
X113977271Y-93499068D01*
X114157911Y-93535000D01*
X114342089Y-93535000D01*
X114522729Y-93499068D01*
X114692889Y-93428586D01*
X114846028Y-93326262D01*
X114976262Y-93196028D01*
X115000000Y-93160502D01*
X115023738Y-93196028D01*
X115153972Y-93326262D01*
X115307111Y-93428586D01*
X115477271Y-93499068D01*
X115657911Y-93535000D01*
X115842089Y-93535000D01*
X116022729Y-93499068D01*
X116192889Y-93428586D01*
X116346028Y-93326262D01*
X116476262Y-93196028D01*
X116500000Y-93160502D01*
X116523738Y-93196028D01*
X116653972Y-93326262D01*
X116807111Y-93428586D01*
X116977271Y-93499068D01*
X117157911Y-93535000D01*
X117342089Y-93535000D01*
X117522729Y-93499068D01*
X117692889Y-93428586D01*
X117846028Y-93326262D01*
X117976262Y-93196028D01*
X118000000Y-93160502D01*
X118023738Y-93196028D01*
X118153972Y-93326262D01*
X118307111Y-93428586D01*
X118477271Y-93499068D01*
X118657911Y-93535000D01*
X118842089Y-93535000D01*
X119022729Y-93499068D01*
X119192889Y-93428586D01*
X119346028Y-93326262D01*
X119476262Y-93196028D01*
X119500000Y-93160502D01*
X119523738Y-93196028D01*
X119653972Y-93326262D01*
X119807111Y-93428586D01*
X119977271Y-93499068D01*
X120157911Y-93535000D01*
X120342089Y-93535000D01*
X120522729Y-93499068D01*
X120692889Y-93428586D01*
X120846028Y-93326262D01*
X120976262Y-93196028D01*
X121000000Y-93160502D01*
X121023738Y-93196028D01*
X121153972Y-93326262D01*
X121307111Y-93428586D01*
X121477271Y-93499068D01*
X121657911Y-93535000D01*
X121842089Y-93535000D01*
X122022729Y-93499068D01*
X122192889Y-93428586D01*
X122346028Y-93326262D01*
X122476262Y-93196028D01*
X122578586Y-93042889D01*
X122649068Y-92872729D01*
X122685000Y-92692089D01*
X122685000Y-92507911D01*
X122649068Y-92327271D01*
X122585000Y-92172596D01*
X122585000Y-87291018D01*
X122589040Y-87249999D01*
X122572918Y-87086311D01*
X122525172Y-86928913D01*
X122447636Y-86783854D01*
X122343291Y-86656709D01*
X122311427Y-86630559D01*
X117392655Y-81711788D01*
X117328586Y-81557111D01*
X117226262Y-81403972D01*
X117096028Y-81273738D01*
X116942889Y-81171414D01*
X116772729Y-81100932D01*
X116592089Y-81065000D01*
X116407911Y-81065000D01*
X116227271Y-81100932D01*
X116057111Y-81171414D01*
X115903972Y-81273738D01*
X115773738Y-81403972D01*
X115671414Y-81557111D01*
X115600932Y-81727271D01*
X115565000Y-81907911D01*
X115565000Y-82092089D01*
X115600932Y-82272729D01*
X115671414Y-82442889D01*
X115767379Y-82586512D01*
X114892655Y-81711788D01*
X114828586Y-81557111D01*
X114726262Y-81403972D01*
X114596028Y-81273738D01*
X114442889Y-81171414D01*
X114272729Y-81100932D01*
X114092089Y-81065000D01*
X113907911Y-81065000D01*
X113727271Y-81100932D01*
X113557111Y-81171414D01*
X113403972Y-81273738D01*
X113273738Y-81403972D01*
X113171414Y-81557111D01*
X113100932Y-81727271D01*
X113065000Y-81907911D01*
X113065000Y-82092089D01*
X113100932Y-82272729D01*
X113171414Y-82442889D01*
X113273738Y-82596028D01*
X113403972Y-82726262D01*
X113557111Y-82828586D01*
X113711788Y-82892655D01*
X119365001Y-88545869D01*
X119365001Y-89683162D01*
X119343291Y-89656709D01*
X119311432Y-89630563D01*
X112235000Y-82554133D01*
X112235000Y-82427404D01*
X112299068Y-82272729D01*
X112335000Y-82092089D01*
X112335000Y-81907911D01*
X112299068Y-81727271D01*
X112228586Y-81557111D01*
X112126262Y-81403972D01*
X111996028Y-81273738D01*
X111842889Y-81171414D01*
X111672729Y-81100932D01*
X111492089Y-81065000D01*
X111307911Y-81065000D01*
X111127271Y-81100932D01*
X110957111Y-81171414D01*
X110803972Y-81273738D01*
X110673738Y-81403972D01*
X110571414Y-81557111D01*
X110500932Y-81727271D01*
X110465000Y-81907911D01*
X110465000Y-82092089D01*
X110500932Y-82272729D01*
X110565000Y-82427404D01*
X110565000Y-82484133D01*
X109792655Y-81711788D01*
X109728586Y-81557111D01*
X109626262Y-81403972D01*
X109496028Y-81273738D01*
X109342889Y-81171414D01*
X109172729Y-81100932D01*
X108992089Y-81065000D01*
X108807911Y-81065000D01*
X108627271Y-81100932D01*
X108457111Y-81171414D01*
X108303972Y-81273738D01*
X108173738Y-81403972D01*
X108071414Y-81557111D01*
X108000932Y-81727271D01*
X107965000Y-81907911D01*
X107965000Y-82092089D01*
X108000932Y-82272729D01*
X108071414Y-82442889D01*
X108173738Y-82596028D01*
X108303972Y-82726262D01*
X108457111Y-82828586D01*
X108611788Y-82892655D01*
X116415001Y-90695869D01*
X116415001Y-90944088D01*
X116343291Y-90856709D01*
X116311427Y-90830559D01*
X107192655Y-81711788D01*
X107128586Y-81557111D01*
X107026262Y-81403972D01*
X106896028Y-81273738D01*
X106742889Y-81171414D01*
X106572729Y-81100932D01*
X106392089Y-81065000D01*
X106207911Y-81065000D01*
X106027271Y-81100932D01*
X105857111Y-81171414D01*
X105703972Y-81273738D01*
X105573738Y-81403972D01*
X105471414Y-81557111D01*
X105400932Y-81727271D01*
X105365000Y-81907911D01*
X105365000Y-82092089D01*
X105400932Y-82272729D01*
X105471414Y-82442889D01*
X105573738Y-82596028D01*
X105703972Y-82726262D01*
X105857111Y-82828586D01*
X106011788Y-82892655D01*
X114915001Y-91795869D01*
X114915001Y-91942711D01*
X114846028Y-91873738D01*
X114692889Y-91771414D01*
X114538216Y-91707347D01*
X104734062Y-81903195D01*
X104699068Y-81727271D01*
X104628586Y-81557111D01*
X104526262Y-81403972D01*
X104396028Y-81273738D01*
X104242889Y-81171414D01*
X104072729Y-81100932D01*
X103892089Y-81065000D01*
X103707911Y-81065000D01*
X103527271Y-81100932D01*
X103357111Y-81171414D01*
X103203972Y-81273738D01*
X103073738Y-81403972D01*
X102971414Y-81557111D01*
X102943404Y-81624734D01*
X102916146Y-81602364D01*
X102771087Y-81524828D01*
X102613689Y-81477082D01*
X102491019Y-81465000D01*
X102491018Y-81465000D01*
X102450000Y-81460960D01*
X102408982Y-81465000D01*
X102067040Y-81465000D01*
X102026262Y-81403972D01*
X101896028Y-81273738D01*
X101742889Y-81171414D01*
X101572729Y-81100932D01*
X101392089Y-81065000D01*
X101207911Y-81065000D01*
X101027271Y-81100932D01*
X100857111Y-81171414D01*
X100703972Y-81273738D01*
X100573738Y-81403972D01*
X100471414Y-81557111D01*
X100400932Y-81727271D01*
X100365000Y-81907911D01*
X100365000Y-82092089D01*
X100400932Y-82272729D01*
X100439152Y-82365000D01*
X100245868Y-82365000D01*
X99592654Y-81711787D01*
X99528586Y-81557111D01*
X99426262Y-81403972D01*
X99296028Y-81273738D01*
X99142889Y-81171414D01*
X98972729Y-81100932D01*
X98792089Y-81065000D01*
X98607911Y-81065000D01*
X98427271Y-81100932D01*
X98257111Y-81171414D01*
X98103972Y-81273738D01*
X97973738Y-81403972D01*
X97871414Y-81557111D01*
X97800932Y-81727271D01*
X97765000Y-81907911D01*
X97765000Y-82092089D01*
X97800932Y-82272729D01*
X97871414Y-82442889D01*
X97967380Y-82586512D01*
X97092655Y-81711787D01*
X97028586Y-81557111D01*
X96926262Y-81403972D01*
X96796028Y-81273738D01*
X96642889Y-81171414D01*
X96472729Y-81100932D01*
X96292089Y-81065000D01*
X96107911Y-81065000D01*
X95927271Y-81100932D01*
X95757111Y-81171414D01*
X95603972Y-81273738D01*
X95473738Y-81403972D01*
X95371414Y-81557111D01*
X95300932Y-81727271D01*
X95265000Y-81907911D01*
X95265000Y-82092089D01*
X95300932Y-82272729D01*
X95371414Y-82442889D01*
X95467379Y-82586512D01*
X94592654Y-81711787D01*
X94528586Y-81557111D01*
X94426262Y-81403972D01*
X94296028Y-81273738D01*
X94142889Y-81171414D01*
X93972729Y-81100932D01*
X93792089Y-81065000D01*
X93607911Y-81065000D01*
X93427271Y-81100932D01*
X93257111Y-81171414D01*
X93103972Y-81273738D01*
X92973738Y-81403972D01*
X92871414Y-81557111D01*
X92800932Y-81727271D01*
X92765000Y-81907911D01*
X92765000Y-82092089D01*
X92800932Y-82272729D01*
X92871414Y-82442889D01*
X92973738Y-82596028D01*
X93103972Y-82726262D01*
X93257111Y-82828586D01*
X93411787Y-82892654D01*
X96080563Y-85561432D01*
X96106709Y-85593291D01*
X96233854Y-85697636D01*
X96378913Y-85775172D01*
X96536311Y-85822918D01*
X96658981Y-85835000D01*
X96658982Y-85835000D01*
X96700000Y-85839040D01*
X96741018Y-85835000D01*
X100304133Y-85835000D01*
X106287235Y-91818103D01*
X106203972Y-91873738D01*
X106073738Y-92003972D01*
X106050000Y-92039498D01*
X106026262Y-92003972D01*
X105896028Y-91873738D01*
X105742889Y-91771414D01*
X105572729Y-91700932D01*
X105392089Y-91665000D01*
X105207911Y-91665000D01*
X105027271Y-91700932D01*
X104857111Y-91771414D01*
X104703972Y-91873738D01*
X104573738Y-92003972D01*
X104550000Y-92039498D01*
X104526262Y-92003972D01*
X104396028Y-91873738D01*
X104242889Y-91771414D01*
X104072729Y-91700932D01*
X103892089Y-91665000D01*
X103707911Y-91665000D01*
X103527271Y-91700932D01*
X103357111Y-91771414D01*
X103203972Y-91873738D01*
X103073738Y-92003972D01*
X103050000Y-92039498D01*
X103026262Y-92003972D01*
X102896028Y-91873738D01*
X102742889Y-91771414D01*
X102572729Y-91700932D01*
X102392089Y-91665000D01*
X102207911Y-91665000D01*
X102027271Y-91700932D01*
X101857111Y-91771414D01*
X101703972Y-91873738D01*
X101573738Y-92003972D01*
X101550000Y-92039498D01*
X101526262Y-92003972D01*
X101396028Y-91873738D01*
X101242889Y-91771414D01*
X101072729Y-91700932D01*
X100892089Y-91665000D01*
X100707911Y-91665000D01*
X100527271Y-91700932D01*
X100357111Y-91771414D01*
X100203972Y-91873738D01*
X100073738Y-92003972D01*
X100050000Y-92039498D01*
X100026262Y-92003972D01*
X99896028Y-91873738D01*
X99742889Y-91771414D01*
X99572729Y-91700932D01*
X99392089Y-91665000D01*
X99207911Y-91665000D01*
X99027271Y-91700932D01*
X98857111Y-91771414D01*
X98703972Y-91873738D01*
X98573738Y-92003972D01*
X98500000Y-92114329D01*
X98426262Y-92003972D01*
X98296028Y-91873738D01*
X98142889Y-91771414D01*
X97972729Y-91700932D01*
X97792089Y-91665000D01*
X97607911Y-91665000D01*
X97427271Y-91700932D01*
X97257111Y-91771414D01*
X97103972Y-91873738D01*
X96973738Y-92003972D01*
X96950000Y-92039498D01*
X96926262Y-92003972D01*
X96796028Y-91873738D01*
X96642889Y-91771414D01*
X96472729Y-91700932D01*
X96292089Y-91665000D01*
X96107911Y-91665000D01*
X95927271Y-91700932D01*
X95757111Y-91771414D01*
X95603972Y-91873738D01*
X95473738Y-92003972D01*
X95450000Y-92039498D01*
X95426262Y-92003972D01*
X95296028Y-91873738D01*
X95142889Y-91771414D01*
X94972729Y-91700932D01*
X94792089Y-91665000D01*
X94607911Y-91665000D01*
X94427271Y-91700932D01*
X94257111Y-91771414D01*
X94103972Y-91873738D01*
X94000000Y-91977710D01*
X93896028Y-91873738D01*
X93742889Y-91771414D01*
X93572729Y-91700932D01*
X93392089Y-91665000D01*
X93207911Y-91665000D01*
X93027271Y-91700932D01*
X92857111Y-91771414D01*
X92703972Y-91873738D01*
X92573738Y-92003972D01*
X92550000Y-92039498D01*
X92526262Y-92003972D01*
X92396028Y-91873738D01*
X92242889Y-91771414D01*
X92072729Y-91700932D01*
X91892089Y-91665000D01*
X91707911Y-91665000D01*
X91527271Y-91700932D01*
X91357111Y-91771414D01*
X91203972Y-91873738D01*
X91073738Y-92003972D01*
X91000000Y-92114329D01*
X90926262Y-92003972D01*
X90796028Y-91873738D01*
X90642889Y-91771414D01*
X90472729Y-91700932D01*
X90292089Y-91665000D01*
X90107911Y-91665000D01*
X89927271Y-91700932D01*
X89757111Y-91771414D01*
X89603972Y-91873738D01*
X89500000Y-91977710D01*
X89396028Y-91873738D01*
X89242889Y-91771414D01*
X89072729Y-91700932D01*
X88892089Y-91665000D01*
X88707911Y-91665000D01*
X88527271Y-91700932D01*
X88357111Y-91771414D01*
X88203972Y-91873738D01*
X88073738Y-92003972D01*
X88025000Y-92076914D01*
X87976262Y-92003972D01*
X87846028Y-91873738D01*
X87692889Y-91771414D01*
X87522729Y-91700932D01*
X87342089Y-91665000D01*
X87157911Y-91665000D01*
X86977271Y-91700932D01*
X86807111Y-91771414D01*
X86653972Y-91873738D01*
X86523738Y-92003972D01*
X86475000Y-92076914D01*
X86426262Y-92003972D01*
X86296028Y-91873738D01*
X86142889Y-91771414D01*
X85972729Y-91700932D01*
X85792089Y-91665000D01*
X85607911Y-91665000D01*
X85427271Y-91700932D01*
X85257111Y-91771414D01*
X85103972Y-91873738D01*
X85000000Y-91977710D01*
X84896028Y-91873738D01*
X84782791Y-91798076D01*
X91661433Y-84919436D01*
X91693291Y-84893291D01*
X91797636Y-84766146D01*
X91875172Y-84621087D01*
X91922918Y-84463689D01*
X91935000Y-84341019D01*
X91935000Y-84341018D01*
X91939040Y-84300000D01*
X91935000Y-84258982D01*
X91935000Y-82427404D01*
X91999068Y-82272729D01*
X92035000Y-82092089D01*
X92035000Y-81907911D01*
X91999068Y-81727271D01*
X91928586Y-81557111D01*
X91826262Y-81403972D01*
X91696028Y-81273738D01*
X91542889Y-81171414D01*
X91372729Y-81100932D01*
X91192089Y-81065000D01*
X91007911Y-81065000D01*
X90827271Y-81100932D01*
X90657111Y-81171414D01*
X90503972Y-81273738D01*
X90373738Y-81403972D01*
X90271414Y-81557111D01*
X90200932Y-81727271D01*
X90165000Y-81907911D01*
X90165000Y-82092089D01*
X90200932Y-82272729D01*
X90265001Y-82427406D01*
X90265000Y-83954131D01*
X82511787Y-91707345D01*
X82357111Y-91771414D01*
X82203972Y-91873738D01*
X82135000Y-91942710D01*
X82135000Y-91845867D01*
X89161428Y-84819440D01*
X89193291Y-84793291D01*
X89297636Y-84666146D01*
X89375172Y-84521087D01*
X89422918Y-84363689D01*
X89435000Y-84241019D01*
X89435000Y-84241018D01*
X89439040Y-84200001D01*
X89435000Y-84158982D01*
X89435000Y-82427404D01*
X89499068Y-82272729D01*
X89535000Y-82092089D01*
X89535000Y-81907911D01*
X89499068Y-81727271D01*
X89428586Y-81557111D01*
X89326262Y-81403972D01*
X89196028Y-81273738D01*
X89042889Y-81171414D01*
X88872729Y-81100932D01*
X88692089Y-81065000D01*
X88507911Y-81065000D01*
X88327271Y-81100932D01*
X88157111Y-81171414D01*
X88003972Y-81273738D01*
X87873738Y-81403972D01*
X87771414Y-81557111D01*
X87700932Y-81727271D01*
X87665000Y-81907911D01*
X87665000Y-82092089D01*
X87700932Y-82272729D01*
X87765001Y-82427406D01*
X87765000Y-83854132D01*
X80738574Y-90880559D01*
X80706710Y-90906709D01*
X80655230Y-90969438D01*
X80635000Y-90994088D01*
X80635000Y-90745867D01*
X86561428Y-84819440D01*
X86593291Y-84793291D01*
X86697636Y-84666146D01*
X86775172Y-84521087D01*
X86822918Y-84363689D01*
X86835000Y-84241019D01*
X86835000Y-84241018D01*
X86839040Y-84200001D01*
X86835000Y-84158982D01*
X86835000Y-82427404D01*
X86899068Y-82272729D01*
X86935000Y-82092089D01*
X86935000Y-81907911D01*
X86899068Y-81727271D01*
X86828586Y-81557111D01*
X86726262Y-81403972D01*
X86596028Y-81273738D01*
X86442889Y-81171414D01*
X86272729Y-81100932D01*
X86092089Y-81065000D01*
X85907911Y-81065000D01*
X85727271Y-81100932D01*
X85557111Y-81171414D01*
X85403972Y-81273738D01*
X85273738Y-81403972D01*
X85171414Y-81557111D01*
X85100932Y-81727271D01*
X85065000Y-81907911D01*
X85065000Y-82092089D01*
X85100932Y-82272729D01*
X85165001Y-82427406D01*
X85165000Y-83854132D01*
X79238574Y-89780559D01*
X79206710Y-89806709D01*
X79180562Y-89838571D01*
X79135000Y-89894088D01*
X79135000Y-89645867D01*
X84061433Y-84719436D01*
X84093291Y-84693291D01*
X84119440Y-84661429D01*
X84152548Y-84621086D01*
X84197636Y-84566146D01*
X84275172Y-84421087D01*
X84322918Y-84263689D01*
X84335000Y-84141019D01*
X84335000Y-84141018D01*
X84339040Y-84100000D01*
X84335000Y-84058982D01*
X84335000Y-82427404D01*
X84399068Y-82272729D01*
X84435000Y-82092089D01*
X84435000Y-81907911D01*
X84399068Y-81727271D01*
X84328586Y-81557111D01*
X84226262Y-81403972D01*
X84096028Y-81273738D01*
X83942889Y-81171414D01*
X83772729Y-81100932D01*
X83592089Y-81065000D01*
X83407911Y-81065000D01*
X83227271Y-81100932D01*
X83057111Y-81171414D01*
X82903972Y-81273738D01*
X82773738Y-81403972D01*
X82671414Y-81557111D01*
X82600932Y-81727271D01*
X82565000Y-81907911D01*
X82565000Y-82092089D01*
X82600932Y-82272729D01*
X82665001Y-82427406D01*
X82665000Y-83754131D01*
X77738574Y-88680559D01*
X77706710Y-88706709D01*
X77680562Y-88738571D01*
X77602364Y-88833855D01*
X77524828Y-88978914D01*
X77477082Y-89136312D01*
X77460960Y-89300000D01*
X77465001Y-89341028D01*
X77465000Y-92172596D01*
X77450000Y-92208809D01*
X77428586Y-92157111D01*
X77326262Y-92003972D01*
X77196028Y-91873738D01*
X77042889Y-91771414D01*
X76872729Y-91700932D01*
X76692089Y-91665000D01*
X76507911Y-91665000D01*
X76327271Y-91700932D01*
X76157111Y-91771414D01*
X76110000Y-91802892D01*
X76110000Y-91434876D01*
X76113435Y-91400000D01*
X76099727Y-91260816D01*
X76059128Y-91126980D01*
X75993200Y-91003637D01*
X75904475Y-90895525D01*
X75796363Y-90806800D01*
X75673020Y-90740872D01*
X75539184Y-90700273D01*
X75434877Y-90690000D01*
X75400000Y-90686565D01*
X75365123Y-90690000D01*
X75010000Y-90690000D01*
X75010000Y-75710000D01*
X124990001Y-75710000D01*
X124990000Y-90690000D01*
G37*
X124990000Y-90690000D02*
X124634877Y-90690000D01*
X124600000Y-90686565D01*
X124565123Y-90690000D01*
X124460816Y-90700273D01*
X124326980Y-90740872D01*
X124203637Y-90806800D01*
X124095525Y-90895525D01*
X124006800Y-91003637D01*
X123940872Y-91126980D01*
X123900273Y-91260816D01*
X123886565Y-91400000D01*
X123890001Y-91434887D01*
X123890000Y-99290000D01*
X76110000Y-99290000D01*
X76110000Y-93397108D01*
X76157111Y-93428586D01*
X76327271Y-93499068D01*
X76507911Y-93535000D01*
X76692089Y-93535000D01*
X76872729Y-93499068D01*
X77042889Y-93428586D01*
X77196028Y-93326262D01*
X77326262Y-93196028D01*
X77428586Y-93042889D01*
X77450000Y-92991191D01*
X77471414Y-93042889D01*
X77573738Y-93196028D01*
X77703972Y-93326262D01*
X77857111Y-93428586D01*
X78027271Y-93499068D01*
X78207911Y-93535000D01*
X78392089Y-93535000D01*
X78572729Y-93499068D01*
X78742889Y-93428586D01*
X78896028Y-93326262D01*
X79026262Y-93196028D01*
X79050000Y-93160502D01*
X79073738Y-93196028D01*
X79203972Y-93326262D01*
X79357111Y-93428586D01*
X79527271Y-93499068D01*
X79707911Y-93535000D01*
X79892089Y-93535000D01*
X80072729Y-93499068D01*
X80242889Y-93428586D01*
X80396028Y-93326262D01*
X80526262Y-93196028D01*
X80550000Y-93160502D01*
X80573738Y-93196028D01*
X80703972Y-93326262D01*
X80857111Y-93428586D01*
X81027271Y-93499068D01*
X81207911Y-93535000D01*
X81392089Y-93535000D01*
X81572729Y-93499068D01*
X81742889Y-93428586D01*
X81896028Y-93326262D01*
X82026262Y-93196028D01*
X82050000Y-93160502D01*
X82073738Y-93196028D01*
X82203972Y-93326262D01*
X82357111Y-93428586D01*
X82527271Y-93499068D01*
X82707911Y-93535000D01*
X82892089Y-93535000D01*
X83072729Y-93499068D01*
X83242889Y-93428586D01*
X83396028Y-93326262D01*
X83526262Y-93196028D01*
X83550000Y-93160502D01*
X83573738Y-93196028D01*
X83703972Y-93326262D01*
X83857111Y-93428586D01*
X84027271Y-93499068D01*
X84207911Y-93535000D01*
X84392089Y-93535000D01*
X84572729Y-93499068D01*
X84742889Y-93428586D01*
X84896028Y-93326262D01*
X85000000Y-93222290D01*
X85103972Y-93326262D01*
X85257111Y-93428586D01*
X85427271Y-93499068D01*
X85607911Y-93535000D01*
X85792089Y-93535000D01*
X85972729Y-93499068D01*
X86142889Y-93428586D01*
X86296028Y-93326262D01*
X86426262Y-93196028D01*
X86475000Y-93123086D01*
X86523738Y-93196028D01*
X86653972Y-93326262D01*
X86807111Y-93428586D01*
X86977271Y-93499068D01*
X87157911Y-93535000D01*
X87342089Y-93535000D01*
X87522729Y-93499068D01*
X87692889Y-93428586D01*
X87846028Y-93326262D01*
X87976262Y-93196028D01*
X88025000Y-93123086D01*
X88073738Y-93196028D01*
X88203972Y-93326262D01*
X88357111Y-93428586D01*
X88527271Y-93499068D01*
X88707911Y-93535000D01*
X88892089Y-93535000D01*
X89072729Y-93499068D01*
X89242889Y-93428586D01*
X89396028Y-93326262D01*
X89500000Y-93222290D01*
X89603972Y-93326262D01*
X89757111Y-93428586D01*
X89927271Y-93499068D01*
X90107911Y-93535000D01*
X90292089Y-93535000D01*
X90472729Y-93499068D01*
X90642889Y-93428586D01*
X90796028Y-93326262D01*
X90926262Y-93196028D01*
X91000000Y-93085671D01*
X91073738Y-93196028D01*
X91203972Y-93326262D01*
X91357111Y-93428586D01*
X91527271Y-93499068D01*
X91707911Y-93535000D01*
X91892089Y-93535000D01*
X92072729Y-93499068D01*
X92242889Y-93428586D01*
X92396028Y-93326262D01*
X92526262Y-93196028D01*
X92550000Y-93160502D01*
X92573738Y-93196028D01*
X92703972Y-93326262D01*
X92857111Y-93428586D01*
X93027271Y-93499068D01*
X93207911Y-93535000D01*
X93392089Y-93535000D01*
X93572729Y-93499068D01*
X93742889Y-93428586D01*
X93896028Y-93326262D01*
X94000000Y-93222290D01*
X94103972Y-93326262D01*
X94257111Y-93428586D01*
X94427271Y-93499068D01*
X94607911Y-93535000D01*
X94792089Y-93535000D01*
X94972729Y-93499068D01*
X95142889Y-93428586D01*
X95296028Y-93326262D01*
X95426262Y-93196028D01*
X95450000Y-93160502D01*
X95473738Y-93196028D01*
X95603972Y-93326262D01*
X95757111Y-93428586D01*
X95927271Y-93499068D01*
X96107911Y-93535000D01*
X96292089Y-93535000D01*
X96472729Y-93499068D01*
X96642889Y-93428586D01*
X96796028Y-93326262D01*
X96926262Y-93196028D01*
X96950000Y-93160502D01*
X96973738Y-93196028D01*
X97103972Y-93326262D01*
X97257111Y-93428586D01*
X97427271Y-93499068D01*
X97607911Y-93535000D01*
X97792089Y-93535000D01*
X97972729Y-93499068D01*
X98142889Y-93428586D01*
X98296028Y-93326262D01*
X98426262Y-93196028D01*
X98500000Y-93085671D01*
X98573738Y-93196028D01*
X98703972Y-93326262D01*
X98857111Y-93428586D01*
X99027271Y-93499068D01*
X99207911Y-93535000D01*
X99392089Y-93535000D01*
X99572729Y-93499068D01*
X99742889Y-93428586D01*
X99896028Y-93326262D01*
X100026262Y-93196028D01*
X100050000Y-93160502D01*
X100073738Y-93196028D01*
X100203972Y-93326262D01*
X100357111Y-93428586D01*
X100527271Y-93499068D01*
X100707911Y-93535000D01*
X100892089Y-93535000D01*
X101072729Y-93499068D01*
X101242889Y-93428586D01*
X101396028Y-93326262D01*
X101526262Y-93196028D01*
X101550000Y-93160502D01*
X101573738Y-93196028D01*
X101703972Y-93326262D01*
X101857111Y-93428586D01*
X102027271Y-93499068D01*
X102207911Y-93535000D01*
X102392089Y-93535000D01*
X102572729Y-93499068D01*
X102742889Y-93428586D01*
X102896028Y-93326262D01*
X103026262Y-93196028D01*
X103050000Y-93160502D01*
X103073738Y-93196028D01*
X103203972Y-93326262D01*
X103357111Y-93428586D01*
X103527271Y-93499068D01*
X103707911Y-93535000D01*
X103892089Y-93535000D01*
X104072729Y-93499068D01*
X104242889Y-93428586D01*
X104396028Y-93326262D01*
X104526262Y-93196028D01*
X104550000Y-93160502D01*
X104573738Y-93196028D01*
X104703972Y-93326262D01*
X104857111Y-93428586D01*
X105027271Y-93499068D01*
X105207911Y-93535000D01*
X105392089Y-93535000D01*
X105572729Y-93499068D01*
X105742889Y-93428586D01*
X105896028Y-93326262D01*
X106026262Y-93196028D01*
X106050000Y-93160502D01*
X106073738Y-93196028D01*
X106203972Y-93326262D01*
X106357111Y-93428586D01*
X106527271Y-93499068D01*
X106707911Y-93535000D01*
X106892089Y-93535000D01*
X107072729Y-93499068D01*
X107242889Y-93428586D01*
X107396028Y-93326262D01*
X107525000Y-93197290D01*
X107653972Y-93326262D01*
X107807111Y-93428586D01*
X107977271Y-93499068D01*
X108157911Y-93535000D01*
X108342089Y-93535000D01*
X108522729Y-93499068D01*
X108692889Y-93428586D01*
X108846028Y-93326262D01*
X108976262Y-93196028D01*
X109000000Y-93160502D01*
X109023738Y-93196028D01*
X109153972Y-93326262D01*
X109307111Y-93428586D01*
X109477271Y-93499068D01*
X109657911Y-93535000D01*
X109842089Y-93535000D01*
X110022729Y-93499068D01*
X110192889Y-93428586D01*
X110346028Y-93326262D01*
X110476262Y-93196028D01*
X110500000Y-93160502D01*
X110523738Y-93196028D01*
X110653972Y-93326262D01*
X110807111Y-93428586D01*
X110977271Y-93499068D01*
X111157911Y-93535000D01*
X111342089Y-93535000D01*
X111522729Y-93499068D01*
X111692889Y-93428586D01*
X111846028Y-93326262D01*
X111976262Y-93196028D01*
X112000000Y-93160502D01*
X112023738Y-93196028D01*
X112153972Y-93326262D01*
X112307111Y-93428586D01*
X112477271Y-93499068D01*
X112657911Y-93535000D01*
X112842089Y-93535000D01*
X113022729Y-93499068D01*
X113192889Y-93428586D01*
X113346028Y-93326262D01*
X113476262Y-93196028D01*
X113500000Y-93160502D01*
X113523738Y-93196028D01*
X113653972Y-93326262D01*
X113807111Y-93428586D01*
X113977271Y-93499068D01*
X114157911Y-93535000D01*
X114342089Y-93535000D01*
X114522729Y-93499068D01*
X114692889Y-93428586D01*
X114846028Y-93326262D01*
X114976262Y-93196028D01*
X115000000Y-93160502D01*
X115023738Y-93196028D01*
X115153972Y-93326262D01*
X115307111Y-93428586D01*
X115477271Y-93499068D01*
X115657911Y-93535000D01*
X115842089Y-93535000D01*
X116022729Y-93499068D01*
X116192889Y-93428586D01*
X116346028Y-93326262D01*
X116476262Y-93196028D01*
X116500000Y-93160502D01*
X116523738Y-93196028D01*
X116653972Y-93326262D01*
X116807111Y-93428586D01*
X116977271Y-93499068D01*
X117157911Y-93535000D01*
X117342089Y-93535000D01*
X117522729Y-93499068D01*
X117692889Y-93428586D01*
X117846028Y-93326262D01*
X117976262Y-93196028D01*
X118000000Y-93160502D01*
X118023738Y-93196028D01*
X118153972Y-93326262D01*
X118307111Y-93428586D01*
X118477271Y-93499068D01*
X118657911Y-93535000D01*
X118842089Y-93535000D01*
X119022729Y-93499068D01*
X119192889Y-93428586D01*
X119346028Y-93326262D01*
X119476262Y-93196028D01*
X119500000Y-93160502D01*
X119523738Y-93196028D01*
X119653972Y-93326262D01*
X119807111Y-93428586D01*
X119977271Y-93499068D01*
X120157911Y-93535000D01*
X120342089Y-93535000D01*
X120522729Y-93499068D01*
X120692889Y-93428586D01*
X120846028Y-93326262D01*
X120976262Y-93196028D01*
X121000000Y-93160502D01*
X121023738Y-93196028D01*
X121153972Y-93326262D01*
X121307111Y-93428586D01*
X121477271Y-93499068D01*
X121657911Y-93535000D01*
X121842089Y-93535000D01*
X122022729Y-93499068D01*
X122192889Y-93428586D01*
X122346028Y-93326262D01*
X122476262Y-93196028D01*
X122578586Y-93042889D01*
X122649068Y-92872729D01*
X122685000Y-92692089D01*
X122685000Y-92507911D01*
X122649068Y-92327271D01*
X122585000Y-92172596D01*
X122585000Y-87291018D01*
X122589040Y-87249999D01*
X122572918Y-87086311D01*
X122525172Y-86928913D01*
X122447636Y-86783854D01*
X122343291Y-86656709D01*
X122311427Y-86630559D01*
X117392655Y-81711788D01*
X117328586Y-81557111D01*
X117226262Y-81403972D01*
X117096028Y-81273738D01*
X116942889Y-81171414D01*
X116772729Y-81100932D01*
X116592089Y-81065000D01*
X116407911Y-81065000D01*
X116227271Y-81100932D01*
X116057111Y-81171414D01*
X115903972Y-81273738D01*
X115773738Y-81403972D01*
X115671414Y-81557111D01*
X115600932Y-81727271D01*
X115565000Y-81907911D01*
X115565000Y-82092089D01*
X115600932Y-82272729D01*
X115671414Y-82442889D01*
X115767379Y-82586512D01*
X114892655Y-81711788D01*
X114828586Y-81557111D01*
X114726262Y-81403972D01*
X114596028Y-81273738D01*
X114442889Y-81171414D01*
X114272729Y-81100932D01*
X114092089Y-81065000D01*
X113907911Y-81065000D01*
X113727271Y-81100932D01*
X113557111Y-81171414D01*
X113403972Y-81273738D01*
X113273738Y-81403972D01*
X113171414Y-81557111D01*
X113100932Y-81727271D01*
X113065000Y-81907911D01*
X113065000Y-82092089D01*
X113100932Y-82272729D01*
X113171414Y-82442889D01*
X113273738Y-82596028D01*
X113403972Y-82726262D01*
X113557111Y-82828586D01*
X113711788Y-82892655D01*
X119365001Y-88545869D01*
X119365001Y-89683162D01*
X119343291Y-89656709D01*
X119311432Y-89630563D01*
X112235000Y-82554133D01*
X112235000Y-82427404D01*
X112299068Y-82272729D01*
X112335000Y-82092089D01*
X112335000Y-81907911D01*
X112299068Y-81727271D01*
X112228586Y-81557111D01*
X112126262Y-81403972D01*
X111996028Y-81273738D01*
X111842889Y-81171414D01*
X111672729Y-81100932D01*
X111492089Y-81065000D01*
X111307911Y-81065000D01*
X111127271Y-81100932D01*
X110957111Y-81171414D01*
X110803972Y-81273738D01*
X110673738Y-81403972D01*
X110571414Y-81557111D01*
X110500932Y-81727271D01*
X110465000Y-81907911D01*
X110465000Y-82092089D01*
X110500932Y-82272729D01*
X110565000Y-82427404D01*
X110565000Y-82484133D01*
X109792655Y-81711788D01*
X109728586Y-81557111D01*
X109626262Y-81403972D01*
X109496028Y-81273738D01*
X109342889Y-81171414D01*
X109172729Y-81100932D01*
X108992089Y-81065000D01*
X108807911Y-81065000D01*
X108627271Y-81100932D01*
X108457111Y-81171414D01*
X108303972Y-81273738D01*
X108173738Y-81403972D01*
X108071414Y-81557111D01*
X108000932Y-81727271D01*
X107965000Y-81907911D01*
X107965000Y-82092089D01*
X108000932Y-82272729D01*
X108071414Y-82442889D01*
X108173738Y-82596028D01*
X108303972Y-82726262D01*
X108457111Y-82828586D01*
X108611788Y-82892655D01*
X116415001Y-90695869D01*
X116415001Y-90944088D01*
X116343291Y-90856709D01*
X116311427Y-90830559D01*
X107192655Y-81711788D01*
X107128586Y-81557111D01*
X107026262Y-81403972D01*
X106896028Y-81273738D01*
X106742889Y-81171414D01*
X106572729Y-81100932D01*
X106392089Y-81065000D01*
X106207911Y-81065000D01*
X106027271Y-81100932D01*
X105857111Y-81171414D01*
X105703972Y-81273738D01*
X105573738Y-81403972D01*
X105471414Y-81557111D01*
X105400932Y-81727271D01*
X105365000Y-81907911D01*
X105365000Y-82092089D01*
X105400932Y-82272729D01*
X105471414Y-82442889D01*
X105573738Y-82596028D01*
X105703972Y-82726262D01*
X105857111Y-82828586D01*
X106011788Y-82892655D01*
X114915001Y-91795869D01*
X114915001Y-91942711D01*
X114846028Y-91873738D01*
X114692889Y-91771414D01*
X114538216Y-91707347D01*
X104734062Y-81903195D01*
X104699068Y-81727271D01*
X104628586Y-81557111D01*
X104526262Y-81403972D01*
X104396028Y-81273738D01*
X104242889Y-81171414D01*
X104072729Y-81100932D01*
X103892089Y-81065000D01*
X103707911Y-81065000D01*
X103527271Y-81100932D01*
X103357111Y-81171414D01*
X103203972Y-81273738D01*
X103073738Y-81403972D01*
X102971414Y-81557111D01*
X102943404Y-81624734D01*
X102916146Y-81602364D01*
X102771087Y-81524828D01*
X102613689Y-81477082D01*
X102491019Y-81465000D01*
X102491018Y-81465000D01*
X102450000Y-81460960D01*
X102408982Y-81465000D01*
X102067040Y-81465000D01*
X102026262Y-81403972D01*
X101896028Y-81273738D01*
X101742889Y-81171414D01*
X101572729Y-81100932D01*
X101392089Y-81065000D01*
X101207911Y-81065000D01*
X101027271Y-81100932D01*
X100857111Y-81171414D01*
X100703972Y-81273738D01*
X100573738Y-81403972D01*
X100471414Y-81557111D01*
X100400932Y-81727271D01*
X100365000Y-81907911D01*
X100365000Y-82092089D01*
X100400932Y-82272729D01*
X100439152Y-82365000D01*
X100245868Y-82365000D01*
X99592654Y-81711787D01*
X99528586Y-81557111D01*
X99426262Y-81403972D01*
X99296028Y-81273738D01*
X99142889Y-81171414D01*
X98972729Y-81100932D01*
X98792089Y-81065000D01*
X98607911Y-81065000D01*
X98427271Y-81100932D01*
X98257111Y-81171414D01*
X98103972Y-81273738D01*
X97973738Y-81403972D01*
X97871414Y-81557111D01*
X97800932Y-81727271D01*
X97765000Y-81907911D01*
X97765000Y-82092089D01*
X97800932Y-82272729D01*
X97871414Y-82442889D01*
X97967380Y-82586512D01*
X97092655Y-81711787D01*
X97028586Y-81557111D01*
X96926262Y-81403972D01*
X96796028Y-81273738D01*
X96642889Y-81171414D01*
X96472729Y-81100932D01*
X96292089Y-81065000D01*
X96107911Y-81065000D01*
X95927271Y-81100932D01*
X95757111Y-81171414D01*
X95603972Y-81273738D01*
X95473738Y-81403972D01*
X95371414Y-81557111D01*
X95300932Y-81727271D01*
X95265000Y-81907911D01*
X95265000Y-82092089D01*
X95300932Y-82272729D01*
X95371414Y-82442889D01*
X95467379Y-82586512D01*
X94592654Y-81711787D01*
X94528586Y-81557111D01*
X94426262Y-81403972D01*
X94296028Y-81273738D01*
X94142889Y-81171414D01*
X93972729Y-81100932D01*
X93792089Y-81065000D01*
X93607911Y-81065000D01*
X93427271Y-81100932D01*
X93257111Y-81171414D01*
X93103972Y-81273738D01*
X92973738Y-81403972D01*
X92871414Y-81557111D01*
X92800932Y-81727271D01*
X92765000Y-81907911D01*
X92765000Y-82092089D01*
X92800932Y-82272729D01*
X92871414Y-82442889D01*
X92973738Y-82596028D01*
X93103972Y-82726262D01*
X93257111Y-82828586D01*
X93411787Y-82892654D01*
X96080563Y-85561432D01*
X96106709Y-85593291D01*
X96233854Y-85697636D01*
X96378913Y-85775172D01*
X96536311Y-85822918D01*
X96658981Y-85835000D01*
X96658982Y-85835000D01*
X96700000Y-85839040D01*
X96741018Y-85835000D01*
X100304133Y-85835000D01*
X106287235Y-91818103D01*
X106203972Y-91873738D01*
X106073738Y-92003972D01*
X106050000Y-92039498D01*
X106026262Y-92003972D01*
X105896028Y-91873738D01*
X105742889Y-91771414D01*
X105572729Y-91700932D01*
X105392089Y-91665000D01*
X105207911Y-91665000D01*
X105027271Y-91700932D01*
X104857111Y-91771414D01*
X104703972Y-91873738D01*
X104573738Y-92003972D01*
X104550000Y-92039498D01*
X104526262Y-92003972D01*
X104396028Y-91873738D01*
X104242889Y-91771414D01*
X104072729Y-91700932D01*
X103892089Y-91665000D01*
X103707911Y-91665000D01*
X103527271Y-91700932D01*
X103357111Y-91771414D01*
X103203972Y-91873738D01*
X103073738Y-92003972D01*
X103050000Y-92039498D01*
X103026262Y-92003972D01*
X102896028Y-91873738D01*
X102742889Y-91771414D01*
X102572729Y-91700932D01*
X102392089Y-91665000D01*
X102207911Y-91665000D01*
X102027271Y-91700932D01*
X101857111Y-91771414D01*
X101703972Y-91873738D01*
X101573738Y-92003972D01*
X101550000Y-92039498D01*
X101526262Y-92003972D01*
X101396028Y-91873738D01*
X101242889Y-91771414D01*
X101072729Y-91700932D01*
X100892089Y-91665000D01*
X100707911Y-91665000D01*
X100527271Y-91700932D01*
X100357111Y-91771414D01*
X100203972Y-91873738D01*
X100073738Y-92003972D01*
X100050000Y-92039498D01*
X100026262Y-92003972D01*
X99896028Y-91873738D01*
X99742889Y-91771414D01*
X99572729Y-91700932D01*
X99392089Y-91665000D01*
X99207911Y-91665000D01*
X99027271Y-91700932D01*
X98857111Y-91771414D01*
X98703972Y-91873738D01*
X98573738Y-92003972D01*
X98500000Y-92114329D01*
X98426262Y-92003972D01*
X98296028Y-91873738D01*
X98142889Y-91771414D01*
X97972729Y-91700932D01*
X97792089Y-91665000D01*
X97607911Y-91665000D01*
X97427271Y-91700932D01*
X97257111Y-91771414D01*
X97103972Y-91873738D01*
X96973738Y-92003972D01*
X96950000Y-92039498D01*
X96926262Y-92003972D01*
X96796028Y-91873738D01*
X96642889Y-91771414D01*
X96472729Y-91700932D01*
X96292089Y-91665000D01*
X96107911Y-91665000D01*
X95927271Y-91700932D01*
X95757111Y-91771414D01*
X95603972Y-91873738D01*
X95473738Y-92003972D01*
X95450000Y-92039498D01*
X95426262Y-92003972D01*
X95296028Y-91873738D01*
X95142889Y-91771414D01*
X94972729Y-91700932D01*
X94792089Y-91665000D01*
X94607911Y-91665000D01*
X94427271Y-91700932D01*
X94257111Y-91771414D01*
X94103972Y-91873738D01*
X94000000Y-91977710D01*
X93896028Y-91873738D01*
X93742889Y-91771414D01*
X93572729Y-91700932D01*
X93392089Y-91665000D01*
X93207911Y-91665000D01*
X93027271Y-91700932D01*
X92857111Y-91771414D01*
X92703972Y-91873738D01*
X92573738Y-92003972D01*
X92550000Y-92039498D01*
X92526262Y-92003972D01*
X92396028Y-91873738D01*
X92242889Y-91771414D01*
X92072729Y-91700932D01*
X91892089Y-91665000D01*
X91707911Y-91665000D01*
X91527271Y-91700932D01*
X91357111Y-91771414D01*
X91203972Y-91873738D01*
X91073738Y-92003972D01*
X91000000Y-92114329D01*
X90926262Y-92003972D01*
X90796028Y-91873738D01*
X90642889Y-91771414D01*
X90472729Y-91700932D01*
X90292089Y-91665000D01*
X90107911Y-91665000D01*
X89927271Y-91700932D01*
X89757111Y-91771414D01*
X89603972Y-91873738D01*
X89500000Y-91977710D01*
X89396028Y-91873738D01*
X89242889Y-91771414D01*
X89072729Y-91700932D01*
X88892089Y-91665000D01*
X88707911Y-91665000D01*
X88527271Y-91700932D01*
X88357111Y-91771414D01*
X88203972Y-91873738D01*
X88073738Y-92003972D01*
X88025000Y-92076914D01*
X87976262Y-92003972D01*
X87846028Y-91873738D01*
X87692889Y-91771414D01*
X87522729Y-91700932D01*
X87342089Y-91665000D01*
X87157911Y-91665000D01*
X86977271Y-91700932D01*
X86807111Y-91771414D01*
X86653972Y-91873738D01*
X86523738Y-92003972D01*
X86475000Y-92076914D01*
X86426262Y-92003972D01*
X86296028Y-91873738D01*
X86142889Y-91771414D01*
X85972729Y-91700932D01*
X85792089Y-91665000D01*
X85607911Y-91665000D01*
X85427271Y-91700932D01*
X85257111Y-91771414D01*
X85103972Y-91873738D01*
X85000000Y-91977710D01*
X84896028Y-91873738D01*
X84782791Y-91798076D01*
X91661433Y-84919436D01*
X91693291Y-84893291D01*
X91797636Y-84766146D01*
X91875172Y-84621087D01*
X91922918Y-84463689D01*
X91935000Y-84341019D01*
X91935000Y-84341018D01*
X91939040Y-84300000D01*
X91935000Y-84258982D01*
X91935000Y-82427404D01*
X91999068Y-82272729D01*
X92035000Y-82092089D01*
X92035000Y-81907911D01*
X91999068Y-81727271D01*
X91928586Y-81557111D01*
X91826262Y-81403972D01*
X91696028Y-81273738D01*
X91542889Y-81171414D01*
X91372729Y-81100932D01*
X91192089Y-81065000D01*
X91007911Y-81065000D01*
X90827271Y-81100932D01*
X90657111Y-81171414D01*
X90503972Y-81273738D01*
X90373738Y-81403972D01*
X90271414Y-81557111D01*
X90200932Y-81727271D01*
X90165000Y-81907911D01*
X90165000Y-82092089D01*
X90200932Y-82272729D01*
X90265001Y-82427406D01*
X90265000Y-83954131D01*
X82511787Y-91707345D01*
X82357111Y-91771414D01*
X82203972Y-91873738D01*
X82135000Y-91942710D01*
X82135000Y-91845867D01*
X89161428Y-84819440D01*
X89193291Y-84793291D01*
X89297636Y-84666146D01*
X89375172Y-84521087D01*
X89422918Y-84363689D01*
X89435000Y-84241019D01*
X89435000Y-84241018D01*
X89439040Y-84200001D01*
X89435000Y-84158982D01*
X89435000Y-82427404D01*
X89499068Y-82272729D01*
X89535000Y-82092089D01*
X89535000Y-81907911D01*
X89499068Y-81727271D01*
X89428586Y-81557111D01*
X89326262Y-81403972D01*
X89196028Y-81273738D01*
X89042889Y-81171414D01*
X88872729Y-81100932D01*
X88692089Y-81065000D01*
X88507911Y-81065000D01*
X88327271Y-81100932D01*
X88157111Y-81171414D01*
X88003972Y-81273738D01*
X87873738Y-81403972D01*
X87771414Y-81557111D01*
X87700932Y-81727271D01*
X87665000Y-81907911D01*
X87665000Y-82092089D01*
X87700932Y-82272729D01*
X87765001Y-82427406D01*
X87765000Y-83854132D01*
X80738574Y-90880559D01*
X80706710Y-90906709D01*
X80655230Y-90969438D01*
X80635000Y-90994088D01*
X80635000Y-90745867D01*
X86561428Y-84819440D01*
X86593291Y-84793291D01*
X86697636Y-84666146D01*
X86775172Y-84521087D01*
X86822918Y-84363689D01*
X86835000Y-84241019D01*
X86835000Y-84241018D01*
X86839040Y-84200001D01*
X86835000Y-84158982D01*
X86835000Y-82427404D01*
X86899068Y-82272729D01*
X86935000Y-82092089D01*
X86935000Y-81907911D01*
X86899068Y-81727271D01*
X86828586Y-81557111D01*
X86726262Y-81403972D01*
X86596028Y-81273738D01*
X86442889Y-81171414D01*
X86272729Y-81100932D01*
X86092089Y-81065000D01*
X85907911Y-81065000D01*
X85727271Y-81100932D01*
X85557111Y-81171414D01*
X85403972Y-81273738D01*
X85273738Y-81403972D01*
X85171414Y-81557111D01*
X85100932Y-81727271D01*
X85065000Y-81907911D01*
X85065000Y-82092089D01*
X85100932Y-82272729D01*
X85165001Y-82427406D01*
X85165000Y-83854132D01*
X79238574Y-89780559D01*
X79206710Y-89806709D01*
X79180562Y-89838571D01*
X79135000Y-89894088D01*
X79135000Y-89645867D01*
X84061433Y-84719436D01*
X84093291Y-84693291D01*
X84119440Y-84661429D01*
X84152548Y-84621086D01*
X84197636Y-84566146D01*
X84275172Y-84421087D01*
X84322918Y-84263689D01*
X84335000Y-84141019D01*
X84335000Y-84141018D01*
X84339040Y-84100000D01*
X84335000Y-84058982D01*
X84335000Y-82427404D01*
X84399068Y-82272729D01*
X84435000Y-82092089D01*
X84435000Y-81907911D01*
X84399068Y-81727271D01*
X84328586Y-81557111D01*
X84226262Y-81403972D01*
X84096028Y-81273738D01*
X83942889Y-81171414D01*
X83772729Y-81100932D01*
X83592089Y-81065000D01*
X83407911Y-81065000D01*
X83227271Y-81100932D01*
X83057111Y-81171414D01*
X82903972Y-81273738D01*
X82773738Y-81403972D01*
X82671414Y-81557111D01*
X82600932Y-81727271D01*
X82565000Y-81907911D01*
X82565000Y-82092089D01*
X82600932Y-82272729D01*
X82665001Y-82427406D01*
X82665000Y-83754131D01*
X77738574Y-88680559D01*
X77706710Y-88706709D01*
X77680562Y-88738571D01*
X77602364Y-88833855D01*
X77524828Y-88978914D01*
X77477082Y-89136312D01*
X77460960Y-89300000D01*
X77465001Y-89341028D01*
X77465000Y-92172596D01*
X77450000Y-92208809D01*
X77428586Y-92157111D01*
X77326262Y-92003972D01*
X77196028Y-91873738D01*
X77042889Y-91771414D01*
X76872729Y-91700932D01*
X76692089Y-91665000D01*
X76507911Y-91665000D01*
X76327271Y-91700932D01*
X76157111Y-91771414D01*
X76110000Y-91802892D01*
X76110000Y-91434876D01*
X76113435Y-91400000D01*
X76099727Y-91260816D01*
X76059128Y-91126980D01*
X75993200Y-91003637D01*
X75904475Y-90895525D01*
X75796363Y-90806800D01*
X75673020Y-90740872D01*
X75539184Y-90700273D01*
X75434877Y-90690000D01*
X75400000Y-90686565D01*
X75365123Y-90690000D01*
X75010000Y-90690000D01*
X75010000Y-75710000D01*
X124990001Y-75710000D01*
X124990000Y-90690000D01*
M02*
