G04 #@! TF.GenerationSoftware,KiCad,Pcbnew,5.0.2-bee76a0~70~ubuntu18.10.1*
G04 #@! TF.CreationDate,2019-01-06T00:10:49+02:00*
G04 #@! TF.ProjectId,GB-BRK-M-XS,47422d42-524b-42d4-9d2d-58532e6b6963,v1.0*
G04 #@! TF.SameCoordinates,Original*
G04 #@! TF.FileFunction,Copper,L1,Top*
G04 #@! TF.FilePolarity,Positive*
%FSLAX46Y46*%
G04 Gerber Fmt 4.6, Leading zero omitted, Abs format (unit mm)*
G04 Created by KiCad (PCBNEW 5.0.2-bee76a0~70~ubuntu18.10.1) date su  6. tammikuuta 2019 00.10.49*
%MOMM*%
%LPD*%
G01*
G04 APERTURE LIST*
G04 #@! TA.AperFunction,NonConductor*
%ADD10C,0.150000*%
G04 #@! TD*
G04 #@! TA.AperFunction,ConnectorPad*
%ADD11R,1.300000X6.000000*%
G04 #@! TD*
G04 #@! TA.AperFunction,ConnectorPad*
%ADD12R,1.000000X5.500000*%
G04 #@! TD*
G04 #@! TA.AperFunction,SMDPad,CuDef*
%ADD13R,0.670000X1.000000*%
G04 #@! TD*
G04 #@! TA.AperFunction,SMDPad,CuDef*
%ADD14R,1.000000X3.150000*%
G04 #@! TD*
G04 #@! TA.AperFunction,ViaPad*
%ADD15C,0.600000*%
G04 #@! TD*
G04 #@! TA.AperFunction,ViaPad*
%ADD16C,1.000000*%
G04 #@! TD*
G04 #@! TA.AperFunction,Conductor*
%ADD17C,0.800000*%
G04 #@! TD*
G04 #@! TA.AperFunction,Conductor*
%ADD18C,1.000000*%
G04 #@! TD*
G04 #@! TA.AperFunction,Conductor*
%ADD19C,0.400000*%
G04 #@! TD*
G04 #@! TA.AperFunction,Conductor*
%ADD20C,0.254000*%
G04 #@! TD*
G04 APERTURE END LIST*
D10*
X74300000Y-75000000D02*
X125700000Y-75000000D01*
X74300000Y-91400000D02*
X74300000Y-75000000D01*
X75400000Y-91400000D02*
X74300000Y-91400000D01*
X75400000Y-100000000D02*
X75400000Y-91400000D01*
X125700000Y-91400000D02*
X125700000Y-75000000D01*
X124600000Y-91400000D02*
X125700000Y-91400000D01*
X124600000Y-100000000D02*
X124600000Y-91400000D01*
X75400000Y-100000000D02*
X124600000Y-100000000D01*
D11*
G04 #@! TO.P,J2,32*
G04 #@! TO.N,GND*
X123400000Y-96000000D03*
D12*
G04 #@! TO.P,J2,31*
G04 #@! TO.N,/VIN*
X121750000Y-95750000D03*
G04 #@! TO.P,J2,30*
G04 #@! TO.N,~RES*
X120250000Y-95750000D03*
G04 #@! TO.P,J2,29*
G04 #@! TO.N,/D7*
X118750000Y-95750000D03*
G04 #@! TO.P,J2,28*
G04 #@! TO.N,/D6*
X117250000Y-95750000D03*
G04 #@! TO.P,J2,27*
G04 #@! TO.N,/D5*
X115750000Y-95750000D03*
G04 #@! TO.P,J2,26*
G04 #@! TO.N,/D4*
X114250000Y-95750000D03*
G04 #@! TO.P,J2,25*
G04 #@! TO.N,/D3*
X112750000Y-95750000D03*
G04 #@! TO.P,J2,24*
G04 #@! TO.N,/D2*
X111250000Y-95750000D03*
G04 #@! TO.P,J2,23*
G04 #@! TO.N,/D1*
X109750000Y-95750000D03*
G04 #@! TO.P,J2,22*
G04 #@! TO.N,/D0*
X108250000Y-95750000D03*
G04 #@! TO.P,J2,21*
G04 #@! TO.N,/A15*
X106750000Y-95750000D03*
G04 #@! TO.P,J2,20*
G04 #@! TO.N,/A14*
X105250000Y-95750000D03*
G04 #@! TO.P,J2,19*
G04 #@! TO.N,/A13*
X103750000Y-95750000D03*
G04 #@! TO.P,J2,18*
G04 #@! TO.N,/A12*
X102250000Y-95750000D03*
G04 #@! TO.P,J2,17*
G04 #@! TO.N,/A11*
X100750000Y-95750000D03*
G04 #@! TO.P,J2,16*
G04 #@! TO.N,/A10*
X99250000Y-95750000D03*
G04 #@! TO.P,J2,15*
G04 #@! TO.N,/A9*
X97750000Y-95750000D03*
G04 #@! TO.P,J2,14*
G04 #@! TO.N,/A8*
X96250000Y-95750000D03*
G04 #@! TO.P,J2,13*
G04 #@! TO.N,/A7*
X94750000Y-95750000D03*
G04 #@! TO.P,J2,12*
G04 #@! TO.N,/A6*
X93250000Y-95750000D03*
G04 #@! TO.P,J2,11*
G04 #@! TO.N,/A5*
X91750000Y-95750000D03*
G04 #@! TO.P,J2,10*
G04 #@! TO.N,/A4*
X90250000Y-95750000D03*
G04 #@! TO.P,J2,9*
G04 #@! TO.N,/A3*
X88750000Y-95750000D03*
G04 #@! TO.P,J2,8*
G04 #@! TO.N,/A2*
X87250000Y-95750000D03*
G04 #@! TO.P,J2,7*
G04 #@! TO.N,/A1*
X85750000Y-95750000D03*
G04 #@! TO.P,J2,6*
G04 #@! TO.N,/A0*
X84250000Y-95750000D03*
G04 #@! TO.P,J2,5*
G04 #@! TO.N,~CS*
X82750000Y-95750000D03*
G04 #@! TO.P,J2,4*
G04 #@! TO.N,~RD*
X81250000Y-95750000D03*
G04 #@! TO.P,J2,3*
G04 #@! TO.N,~WR*
X79750000Y-95750000D03*
D11*
G04 #@! TO.P,J2,1*
G04 #@! TO.N,+5V*
X76600000Y-96000000D03*
D12*
G04 #@! TO.P,J2,2*
G04 #@! TO.N,/PHI*
X78250000Y-95750000D03*
G04 #@! TD*
D13*
G04 #@! TO.P,D1,1*
G04 #@! TO.N,GND*
X77675000Y-76800000D03*
G04 #@! TO.P,D1,2*
G04 #@! TO.N,Net-(D1-Pad2)*
X75925000Y-76800000D03*
G04 #@! TD*
D14*
G04 #@! TO.P,J1,1*
G04 #@! TO.N,/A0*
X80950000Y-84525000D03*
G04 #@! TO.P,J1,2*
G04 #@! TO.N,+5V*
X80950000Y-79475000D03*
G04 #@! TO.P,J1,3*
G04 #@! TO.N,/A1*
X83490000Y-84525000D03*
G04 #@! TO.P,J1,4*
G04 #@! TO.N,/PHI*
X83490000Y-79475000D03*
G04 #@! TO.P,J1,5*
G04 #@! TO.N,/A2*
X86030000Y-84525000D03*
G04 #@! TO.P,J1,6*
G04 #@! TO.N,~WR*
X86030000Y-79475000D03*
G04 #@! TO.P,J1,7*
G04 #@! TO.N,/A3*
X88570000Y-84525000D03*
G04 #@! TO.P,J1,8*
G04 #@! TO.N,~RD*
X88570000Y-79475000D03*
G04 #@! TO.P,J1,9*
G04 #@! TO.N,/A4*
X91110000Y-84525000D03*
G04 #@! TO.P,J1,10*
G04 #@! TO.N,~CS*
X91110000Y-79475000D03*
G04 #@! TO.P,J1,11*
G04 #@! TO.N,/A5*
X93650000Y-84525000D03*
G04 #@! TO.P,J1,12*
G04 #@! TO.N,/D0*
X93650000Y-79475000D03*
G04 #@! TO.P,J1,13*
G04 #@! TO.N,/A6*
X96190000Y-84525000D03*
G04 #@! TO.P,J1,14*
G04 #@! TO.N,/D1*
X96190000Y-79475000D03*
G04 #@! TO.P,J1,15*
G04 #@! TO.N,/A7*
X98730000Y-84525000D03*
G04 #@! TO.P,J1,16*
G04 #@! TO.N,/D2*
X98730000Y-79475000D03*
G04 #@! TO.P,J1,17*
G04 #@! TO.N,/A8*
X101270000Y-84525000D03*
G04 #@! TO.P,J1,18*
G04 #@! TO.N,/D3*
X101270000Y-79475000D03*
G04 #@! TO.P,J1,19*
G04 #@! TO.N,/A9*
X103810000Y-84525000D03*
G04 #@! TO.P,J1,20*
G04 #@! TO.N,/D4*
X103810000Y-79475000D03*
G04 #@! TO.P,J1,21*
G04 #@! TO.N,/A10*
X106350000Y-84525000D03*
G04 #@! TO.P,J1,22*
G04 #@! TO.N,/D5*
X106350000Y-79475000D03*
G04 #@! TO.P,J1,23*
G04 #@! TO.N,/A11*
X108890000Y-84525000D03*
G04 #@! TO.P,J1,24*
G04 #@! TO.N,/D6*
X108890000Y-79475000D03*
G04 #@! TO.P,J1,25*
G04 #@! TO.N,/A12*
X111430000Y-84525000D03*
G04 #@! TO.P,J1,26*
G04 #@! TO.N,/D7*
X111430000Y-79475000D03*
G04 #@! TO.P,J1,27*
G04 #@! TO.N,/A13*
X113970000Y-84525000D03*
G04 #@! TO.P,J1,28*
G04 #@! TO.N,~RES*
X113970000Y-79475000D03*
G04 #@! TO.P,J1,29*
G04 #@! TO.N,/A14*
X116510000Y-84525000D03*
G04 #@! TO.P,J1,30*
G04 #@! TO.N,/VIN*
X116510000Y-79475000D03*
G04 #@! TO.P,J1,31*
G04 #@! TO.N,/A15*
X119050000Y-84525000D03*
G04 #@! TO.P,J1,32*
G04 #@! TO.N,GND*
X119050000Y-79475000D03*
G04 #@! TD*
D13*
G04 #@! TO.P,R1,1*
G04 #@! TO.N,+5V*
X77575000Y-78600000D03*
G04 #@! TO.P,R1,2*
G04 #@! TO.N,Net-(D1-Pad2)*
X75825000Y-78600000D03*
G04 #@! TD*
D15*
G04 #@! TO.N,+5V*
X76600000Y-92600000D03*
D16*
G04 #@! TO.N,GND*
X78900000Y-76800000D03*
D15*
X123400000Y-92600000D03*
G04 #@! TO.N,~WR*
X86000000Y-82000000D03*
X79800000Y-92600000D03*
G04 #@! TO.N,~RD*
X88600000Y-82000000D03*
X81300000Y-92600000D03*
G04 #@! TO.N,~CS*
X91100000Y-82000000D03*
X82800000Y-92600000D03*
G04 #@! TO.N,~RES*
X114000000Y-82000000D03*
X120250000Y-92600000D03*
G04 #@! TO.N,/A0*
X84300000Y-92600000D03*
G04 #@! TO.N,/PHI*
X83500000Y-82000000D03*
X78300000Y-92600000D03*
G04 #@! TO.N,/A1*
X85700000Y-92600000D03*
G04 #@! TO.N,/A2*
X87250000Y-92600000D03*
G04 #@! TO.N,/A3*
X88800000Y-92600000D03*
G04 #@! TO.N,/A4*
X90200000Y-92600000D03*
G04 #@! TO.N,/D0*
X93700000Y-82000000D03*
X108250000Y-92600000D03*
G04 #@! TO.N,/A5*
X91800000Y-92600000D03*
G04 #@! TO.N,/D1*
X96200000Y-82000000D03*
X109750000Y-92600000D03*
G04 #@! TO.N,/A6*
X93300000Y-92600000D03*
G04 #@! TO.N,/D2*
X98700000Y-82000000D03*
X111250000Y-92600000D03*
G04 #@! TO.N,/A7*
X94700000Y-92600000D03*
G04 #@! TO.N,/D3*
X101300000Y-82000000D03*
X112750000Y-92600000D03*
G04 #@! TO.N,/A8*
X96200000Y-92600000D03*
G04 #@! TO.N,/D4*
X103800000Y-82000000D03*
X114250000Y-92600000D03*
G04 #@! TO.N,/A9*
X97700000Y-92600000D03*
G04 #@! TO.N,/D5*
X106300000Y-82000000D03*
X115750000Y-92600000D03*
G04 #@! TO.N,/A10*
X99300000Y-92600000D03*
G04 #@! TO.N,/D6*
X108900000Y-82000000D03*
X117250000Y-92600000D03*
G04 #@! TO.N,/A11*
X100800000Y-92600000D03*
G04 #@! TO.N,/D7*
X111400000Y-82000000D03*
X118750000Y-92600000D03*
G04 #@! TO.N,/A12*
X102300000Y-92600000D03*
G04 #@! TO.N,/A13*
X103800000Y-92600000D03*
G04 #@! TO.N,/VIN*
X116500000Y-82000000D03*
X121750000Y-92600000D03*
G04 #@! TO.N,/A14*
X105300000Y-92600000D03*
G04 #@! TO.N,/A15*
X106800000Y-92600000D03*
G04 #@! TD*
D17*
G04 #@! TO.N,+5V*
X76600000Y-92600000D02*
X76600000Y-91500000D01*
X76600000Y-95750000D02*
X76600000Y-92600000D01*
D18*
G04 #@! TO.N,GND*
X77600000Y-76800000D02*
X78900000Y-76800000D01*
D17*
X123400000Y-96000000D02*
X123400000Y-92600000D01*
D19*
G04 #@! TO.N,Net-(D1-Pad2)*
X75950000Y-78600000D02*
X75950000Y-76850000D01*
X75950000Y-76850000D02*
X76000000Y-76800000D01*
G04 #@! TO.N,~WR*
X86000000Y-82000000D02*
X86000000Y-79505000D01*
X86000000Y-79505000D02*
X86030000Y-79475000D01*
X79750000Y-95750000D02*
X79750000Y-92650000D01*
X79750000Y-92650000D02*
X79800000Y-92600000D01*
G04 #@! TO.N,~RD*
X88600000Y-82000000D02*
X88600000Y-79505000D01*
X88600000Y-79505000D02*
X88570000Y-79475000D01*
X81250000Y-95750000D02*
X81250000Y-92650000D01*
X81250000Y-92650000D02*
X81300000Y-92600000D01*
G04 #@! TO.N,~CS*
X91100000Y-82000000D02*
X91100000Y-79485000D01*
X91100000Y-79485000D02*
X91110000Y-79475000D01*
X82750000Y-95750000D02*
X82750000Y-92650000D01*
X82750000Y-92650000D02*
X82800000Y-92600000D01*
G04 #@! TO.N,~RES*
X114000000Y-82000000D02*
X114000000Y-79505000D01*
X114000000Y-79505000D02*
X113970000Y-79475000D01*
X120250000Y-92600000D02*
X120250000Y-95750000D01*
G04 #@! TO.N,/A0*
X80950000Y-84525000D02*
X80950000Y-89250000D01*
X80950000Y-89250000D02*
X84300000Y-92600000D01*
X84250000Y-95750000D02*
X84250000Y-92650000D01*
X84250000Y-92650000D02*
X84300000Y-92600000D01*
G04 #@! TO.N,/PHI*
X83490000Y-81990000D02*
X83500000Y-82000000D01*
X83490000Y-79475000D02*
X83490000Y-81990000D01*
X83500000Y-79485000D02*
X83500000Y-82000000D01*
X78250000Y-95750000D02*
X78250000Y-92650000D01*
X78250000Y-92650000D02*
X78300000Y-92600000D01*
G04 #@! TO.N,/A1*
X83490000Y-84525000D02*
X83490000Y-90390000D01*
X83490000Y-90390000D02*
X85700000Y-92600000D01*
X85750000Y-95750000D02*
X85750000Y-92650000D01*
X85750000Y-92650000D02*
X85700000Y-92600000D01*
G04 #@! TO.N,/A2*
X86030000Y-84525000D02*
X86030000Y-91380000D01*
X86030000Y-91380000D02*
X87250000Y-92600000D01*
X87250000Y-95750000D02*
X87250000Y-92600000D01*
G04 #@! TO.N,/A3*
X88570000Y-84525000D02*
X88570000Y-92370000D01*
X88570000Y-92370000D02*
X88800000Y-92600000D01*
X88750000Y-95750000D02*
X88750000Y-92650000D01*
X88750000Y-92650000D02*
X88800000Y-92600000D01*
G04 #@! TO.N,/A4*
X91110000Y-84525000D02*
X91110000Y-91690000D01*
X91110000Y-91690000D02*
X90200000Y-92600000D01*
X90250000Y-95750000D02*
X90250000Y-92650000D01*
X90250000Y-92650000D02*
X90200000Y-92600000D01*
G04 #@! TO.N,/D0*
X93700000Y-82000000D02*
X93700000Y-79525000D01*
X93700000Y-79525000D02*
X93650000Y-79475000D01*
X108250000Y-92600000D02*
X108250000Y-95750000D01*
G04 #@! TO.N,/A5*
X93650000Y-84525000D02*
X93650000Y-90750000D01*
X93650000Y-90750000D02*
X91800000Y-92600000D01*
X91750000Y-95750000D02*
X91750000Y-92650000D01*
X91750000Y-92650000D02*
X91800000Y-92600000D01*
G04 #@! TO.N,/D1*
X96200000Y-82000000D02*
X96200000Y-79485000D01*
X96200000Y-79485000D02*
X96190000Y-79475000D01*
X109750000Y-92600000D02*
X109750000Y-95750000D01*
G04 #@! TO.N,/A6*
X96190000Y-84525000D02*
X96190000Y-89710000D01*
X96190000Y-89710000D02*
X93300000Y-92600000D01*
X93250000Y-95750000D02*
X93250000Y-92650000D01*
X93250000Y-92650000D02*
X93300000Y-92600000D01*
G04 #@! TO.N,/D2*
X98700000Y-82000000D02*
X98700000Y-79505000D01*
X98700000Y-79505000D02*
X98730000Y-79475000D01*
X111250000Y-92600000D02*
X111250000Y-95750000D01*
G04 #@! TO.N,/A7*
X98730000Y-84525000D02*
X98730000Y-88570000D01*
X98730000Y-88570000D02*
X94700000Y-92600000D01*
X94750000Y-95750000D02*
X94750000Y-92650000D01*
X94750000Y-92650000D02*
X94700000Y-92600000D01*
G04 #@! TO.N,/D3*
X101300000Y-82000000D02*
X101300000Y-79505000D01*
X101300000Y-79505000D02*
X101270000Y-79475000D01*
X112750000Y-92600000D02*
X112750000Y-95750000D01*
G04 #@! TO.N,/A8*
X101270000Y-84525000D02*
X101270000Y-87530000D01*
X101270000Y-87530000D02*
X96200000Y-92600000D01*
X96250000Y-95750000D02*
X96250000Y-92650000D01*
X96250000Y-92650000D02*
X96200000Y-92600000D01*
G04 #@! TO.N,/D4*
X103800000Y-82000000D02*
X103800000Y-79485000D01*
X103800000Y-79485000D02*
X103810000Y-79475000D01*
X114250000Y-92600000D02*
X114250000Y-95750000D01*
G04 #@! TO.N,/A9*
X103810000Y-84525000D02*
X103810000Y-86490000D01*
X103810000Y-86490000D02*
X97700000Y-92600000D01*
X97750000Y-95750000D02*
X97750000Y-92650000D01*
X97750000Y-92650000D02*
X97700000Y-92600000D01*
G04 #@! TO.N,/D5*
X106300000Y-82000000D02*
X106300000Y-79525000D01*
X106300000Y-79525000D02*
X106350000Y-79475000D01*
X115750000Y-92600000D02*
X115750000Y-95750000D01*
G04 #@! TO.N,/A10*
X106350000Y-84525000D02*
X106350000Y-85600000D01*
X106350000Y-85600000D02*
X99350000Y-92600000D01*
X99350000Y-92600000D02*
X99300000Y-92600000D01*
X99250000Y-95750000D02*
X99250000Y-92650000D01*
X99250000Y-92650000D02*
X99300000Y-92600000D01*
G04 #@! TO.N,/D6*
X108900000Y-82000000D02*
X108900000Y-79485000D01*
X108900000Y-79485000D02*
X108890000Y-79475000D01*
X117250000Y-92600000D02*
X117250000Y-95750000D01*
G04 #@! TO.N,/A11*
X108890000Y-84525000D02*
X108890000Y-86610000D01*
X108890000Y-86610000D02*
X107900000Y-87600000D01*
X107900000Y-87600000D02*
X105800000Y-87600000D01*
X105800000Y-87600000D02*
X101099999Y-92300001D01*
X101099999Y-92300001D02*
X100800000Y-92600000D01*
X100750000Y-95750000D02*
X100750000Y-92650000D01*
X100750000Y-92650000D02*
X100800000Y-92600000D01*
G04 #@! TO.N,/D7*
X111400000Y-82000000D02*
X111400000Y-79505000D01*
X111400000Y-79505000D02*
X111430000Y-79475000D01*
X118750000Y-92600000D02*
X118750000Y-95750000D01*
G04 #@! TO.N,/A12*
X111430000Y-84525000D02*
X111430000Y-86670000D01*
X111430000Y-86670000D02*
X109600000Y-88500000D01*
X109600000Y-88500000D02*
X106400000Y-88500000D01*
X106400000Y-88500000D02*
X102599999Y-92300001D01*
X102599999Y-92300001D02*
X102300000Y-92600000D01*
X102250000Y-95750000D02*
X102250000Y-92650000D01*
X102250000Y-92650000D02*
X102300000Y-92600000D01*
G04 #@! TO.N,/A13*
X113970000Y-84525000D02*
X113970000Y-86730000D01*
X104099999Y-92300001D02*
X103800000Y-92600000D01*
X113970000Y-86730000D02*
X111300000Y-89400000D01*
X111300000Y-89400000D02*
X107000000Y-89400000D01*
X107000000Y-89400000D02*
X104099999Y-92300001D01*
X103750000Y-95750000D02*
X103750000Y-92650000D01*
X103750000Y-92650000D02*
X103800000Y-92600000D01*
G04 #@! TO.N,/VIN*
X116500000Y-82000000D02*
X116500000Y-79485000D01*
X116500000Y-79485000D02*
X116510000Y-79475000D01*
X121750000Y-92600000D02*
X121750000Y-95750000D01*
G04 #@! TO.N,/A14*
X116510000Y-84525000D02*
X116510000Y-86790000D01*
X116510000Y-86790000D02*
X113000000Y-90300000D01*
X105599999Y-92300001D02*
X105300000Y-92600000D01*
X113000000Y-90300000D02*
X107600000Y-90300000D01*
X107600000Y-90300000D02*
X105599999Y-92300001D01*
X105250000Y-95750000D02*
X105250000Y-92650000D01*
X105250000Y-92650000D02*
X105300000Y-92600000D01*
G04 #@! TO.N,/A15*
X119050000Y-84525000D02*
X119050000Y-86750000D01*
X119050000Y-86750000D02*
X114600000Y-91200000D01*
X114600000Y-91200000D02*
X108200000Y-91200000D01*
X108200000Y-91200000D02*
X107099999Y-92300001D01*
X107099999Y-92300001D02*
X106800000Y-92600000D01*
X106750000Y-95750000D02*
X106750000Y-92650000D01*
X106750000Y-92650000D02*
X106800000Y-92600000D01*
G04 #@! TD*
D20*
G04 #@! TO.N,+5V*
G36*
X82273000Y-81873000D02*
X79400000Y-81873000D01*
X79351399Y-81882667D01*
X79310197Y-81910197D01*
X79282667Y-81951399D01*
X79273000Y-82000000D01*
X79273000Y-90247394D01*
X77210197Y-92310197D01*
X77182667Y-92351399D01*
X77179962Y-92365000D01*
X76885750Y-92365000D01*
X76727000Y-92523750D01*
X76727000Y-95873000D01*
X76747000Y-95873000D01*
X76747000Y-96127000D01*
X76727000Y-96127000D01*
X76727000Y-96147000D01*
X76473000Y-96147000D01*
X76473000Y-96127000D01*
X76453000Y-96127000D01*
X76453000Y-95873000D01*
X76473000Y-95873000D01*
X76473000Y-92523750D01*
X76314250Y-92365000D01*
X76110000Y-92365000D01*
X76110000Y-91469925D01*
X76123909Y-91400000D01*
X76068805Y-91122972D01*
X75911881Y-90888119D01*
X75677028Y-90731195D01*
X75469926Y-90690000D01*
X75400000Y-90676091D01*
X75330075Y-90690000D01*
X75010000Y-90690000D01*
X75010000Y-79760750D01*
X79815000Y-79760750D01*
X79815000Y-81176309D01*
X79911673Y-81409698D01*
X80090301Y-81588327D01*
X80323690Y-81685000D01*
X80664250Y-81685000D01*
X80823000Y-81526250D01*
X80823000Y-79602000D01*
X81077000Y-79602000D01*
X81077000Y-81526250D01*
X81235750Y-81685000D01*
X81576310Y-81685000D01*
X81809699Y-81588327D01*
X81988327Y-81409698D01*
X82085000Y-81176309D01*
X82085000Y-79760750D01*
X81926250Y-79602000D01*
X81077000Y-79602000D01*
X80823000Y-79602000D01*
X79973750Y-79602000D01*
X79815000Y-79760750D01*
X75010000Y-79760750D01*
X75010000Y-79524598D01*
X75032191Y-79557809D01*
X75242235Y-79698157D01*
X75490000Y-79747440D01*
X76160000Y-79747440D01*
X76407765Y-79698157D01*
X76617809Y-79557809D01*
X76694667Y-79442784D01*
X76701673Y-79459699D01*
X76880302Y-79638327D01*
X77113691Y-79735000D01*
X77289250Y-79735000D01*
X77448000Y-79576250D01*
X77448000Y-78727000D01*
X77702000Y-78727000D01*
X77702000Y-79576250D01*
X77860750Y-79735000D01*
X78036309Y-79735000D01*
X78269698Y-79638327D01*
X78448327Y-79459699D01*
X78545000Y-79226310D01*
X78545000Y-78885750D01*
X78386250Y-78727000D01*
X77702000Y-78727000D01*
X77448000Y-78727000D01*
X77428000Y-78727000D01*
X77428000Y-78473000D01*
X77448000Y-78473000D01*
X77448000Y-78453000D01*
X77702000Y-78453000D01*
X77702000Y-78473000D01*
X78386250Y-78473000D01*
X78545000Y-78314250D01*
X78545000Y-77973690D01*
X78528974Y-77935000D01*
X79125766Y-77935000D01*
X79231072Y-77891381D01*
X79342855Y-77869146D01*
X79437620Y-77805826D01*
X79515201Y-77773691D01*
X79815000Y-77773691D01*
X79815000Y-79189250D01*
X79973750Y-79348000D01*
X80823000Y-79348000D01*
X80823000Y-77423750D01*
X81077000Y-77423750D01*
X81077000Y-79348000D01*
X81926250Y-79348000D01*
X82085000Y-79189250D01*
X82085000Y-77773691D01*
X81988327Y-77540302D01*
X81809699Y-77361673D01*
X81576310Y-77265000D01*
X81235750Y-77265000D01*
X81077000Y-77423750D01*
X80823000Y-77423750D01*
X80664250Y-77265000D01*
X80323690Y-77265000D01*
X80090301Y-77361673D01*
X79911673Y-77540302D01*
X79815000Y-77773691D01*
X79515201Y-77773691D01*
X79542926Y-77762207D01*
X79623524Y-77681609D01*
X79718289Y-77618289D01*
X79781609Y-77523524D01*
X79862207Y-77442926D01*
X79905826Y-77337620D01*
X79969146Y-77242855D01*
X79991381Y-77131072D01*
X80035000Y-77025766D01*
X80035000Y-76911783D01*
X80057235Y-76800000D01*
X80035000Y-76688217D01*
X80035000Y-76574234D01*
X79991381Y-76468928D01*
X79969146Y-76357145D01*
X79905826Y-76262380D01*
X79862207Y-76157074D01*
X79781609Y-76076476D01*
X79718289Y-75981711D01*
X79623524Y-75918391D01*
X79542926Y-75837793D01*
X79437620Y-75794174D01*
X79342855Y-75730854D01*
X79238014Y-75710000D01*
X82273000Y-75710000D01*
X82273000Y-81873000D01*
X82273000Y-81873000D01*
G37*
X82273000Y-81873000D02*
X79400000Y-81873000D01*
X79351399Y-81882667D01*
X79310197Y-81910197D01*
X79282667Y-81951399D01*
X79273000Y-82000000D01*
X79273000Y-90247394D01*
X77210197Y-92310197D01*
X77182667Y-92351399D01*
X77179962Y-92365000D01*
X76885750Y-92365000D01*
X76727000Y-92523750D01*
X76727000Y-95873000D01*
X76747000Y-95873000D01*
X76747000Y-96127000D01*
X76727000Y-96127000D01*
X76727000Y-96147000D01*
X76473000Y-96147000D01*
X76473000Y-96127000D01*
X76453000Y-96127000D01*
X76453000Y-95873000D01*
X76473000Y-95873000D01*
X76473000Y-92523750D01*
X76314250Y-92365000D01*
X76110000Y-92365000D01*
X76110000Y-91469925D01*
X76123909Y-91400000D01*
X76068805Y-91122972D01*
X75911881Y-90888119D01*
X75677028Y-90731195D01*
X75469926Y-90690000D01*
X75400000Y-90676091D01*
X75330075Y-90690000D01*
X75010000Y-90690000D01*
X75010000Y-79760750D01*
X79815000Y-79760750D01*
X79815000Y-81176309D01*
X79911673Y-81409698D01*
X80090301Y-81588327D01*
X80323690Y-81685000D01*
X80664250Y-81685000D01*
X80823000Y-81526250D01*
X80823000Y-79602000D01*
X81077000Y-79602000D01*
X81077000Y-81526250D01*
X81235750Y-81685000D01*
X81576310Y-81685000D01*
X81809699Y-81588327D01*
X81988327Y-81409698D01*
X82085000Y-81176309D01*
X82085000Y-79760750D01*
X81926250Y-79602000D01*
X81077000Y-79602000D01*
X80823000Y-79602000D01*
X79973750Y-79602000D01*
X79815000Y-79760750D01*
X75010000Y-79760750D01*
X75010000Y-79524598D01*
X75032191Y-79557809D01*
X75242235Y-79698157D01*
X75490000Y-79747440D01*
X76160000Y-79747440D01*
X76407765Y-79698157D01*
X76617809Y-79557809D01*
X76694667Y-79442784D01*
X76701673Y-79459699D01*
X76880302Y-79638327D01*
X77113691Y-79735000D01*
X77289250Y-79735000D01*
X77448000Y-79576250D01*
X77448000Y-78727000D01*
X77702000Y-78727000D01*
X77702000Y-79576250D01*
X77860750Y-79735000D01*
X78036309Y-79735000D01*
X78269698Y-79638327D01*
X78448327Y-79459699D01*
X78545000Y-79226310D01*
X78545000Y-78885750D01*
X78386250Y-78727000D01*
X77702000Y-78727000D01*
X77448000Y-78727000D01*
X77428000Y-78727000D01*
X77428000Y-78473000D01*
X77448000Y-78473000D01*
X77448000Y-78453000D01*
X77702000Y-78453000D01*
X77702000Y-78473000D01*
X78386250Y-78473000D01*
X78545000Y-78314250D01*
X78545000Y-77973690D01*
X78528974Y-77935000D01*
X79125766Y-77935000D01*
X79231072Y-77891381D01*
X79342855Y-77869146D01*
X79437620Y-77805826D01*
X79515201Y-77773691D01*
X79815000Y-77773691D01*
X79815000Y-79189250D01*
X79973750Y-79348000D01*
X80823000Y-79348000D01*
X80823000Y-77423750D01*
X81077000Y-77423750D01*
X81077000Y-79348000D01*
X81926250Y-79348000D01*
X82085000Y-79189250D01*
X82085000Y-77773691D01*
X81988327Y-77540302D01*
X81809699Y-77361673D01*
X81576310Y-77265000D01*
X81235750Y-77265000D01*
X81077000Y-77423750D01*
X80823000Y-77423750D01*
X80664250Y-77265000D01*
X80323690Y-77265000D01*
X80090301Y-77361673D01*
X79911673Y-77540302D01*
X79815000Y-77773691D01*
X79515201Y-77773691D01*
X79542926Y-77762207D01*
X79623524Y-77681609D01*
X79718289Y-77618289D01*
X79781609Y-77523524D01*
X79862207Y-77442926D01*
X79905826Y-77337620D01*
X79969146Y-77242855D01*
X79991381Y-77131072D01*
X80035000Y-77025766D01*
X80035000Y-76911783D01*
X80057235Y-76800000D01*
X80035000Y-76688217D01*
X80035000Y-76574234D01*
X79991381Y-76468928D01*
X79969146Y-76357145D01*
X79905826Y-76262380D01*
X79862207Y-76157074D01*
X79781609Y-76076476D01*
X79718289Y-75981711D01*
X79623524Y-75918391D01*
X79542926Y-75837793D01*
X79437620Y-75794174D01*
X79342855Y-75730854D01*
X79238014Y-75710000D01*
X82273000Y-75710000D01*
X82273000Y-81873000D01*
G04 #@! TO.N,GND*
G36*
X124990000Y-90690000D02*
X124669926Y-90690000D01*
X124600000Y-90676091D01*
X124530075Y-90690000D01*
X124530074Y-90690000D01*
X124322972Y-90731195D01*
X124088119Y-90888119D01*
X123931195Y-91122972D01*
X123876091Y-91400000D01*
X123890001Y-91469931D01*
X123890001Y-92365000D01*
X123685750Y-92365000D01*
X123527000Y-92523750D01*
X123527000Y-95873000D01*
X123547000Y-95873000D01*
X123547000Y-96127000D01*
X123527000Y-96127000D01*
X123527000Y-96147000D01*
X123273000Y-96147000D01*
X123273000Y-96127000D01*
X123253000Y-96127000D01*
X123253000Y-95873000D01*
X123273000Y-95873000D01*
X123273000Y-92523750D01*
X123114250Y-92365000D01*
X122664697Y-92365000D01*
X122542655Y-92070365D01*
X122279635Y-91807345D01*
X121935983Y-91665000D01*
X121765752Y-91665000D01*
X120627000Y-90255117D01*
X120627000Y-82000000D01*
X120617333Y-81951399D01*
X120589803Y-81910197D01*
X120548601Y-81882667D01*
X120500000Y-81873000D01*
X117727000Y-81873000D01*
X117727000Y-79760750D01*
X117915000Y-79760750D01*
X117915000Y-81176309D01*
X118011673Y-81409698D01*
X118190301Y-81588327D01*
X118423690Y-81685000D01*
X118764250Y-81685000D01*
X118923000Y-81526250D01*
X118923000Y-79602000D01*
X119177000Y-79602000D01*
X119177000Y-81526250D01*
X119335750Y-81685000D01*
X119676310Y-81685000D01*
X119909699Y-81588327D01*
X120088327Y-81409698D01*
X120185000Y-81176309D01*
X120185000Y-79760750D01*
X120026250Y-79602000D01*
X119177000Y-79602000D01*
X118923000Y-79602000D01*
X118073750Y-79602000D01*
X117915000Y-79760750D01*
X117727000Y-79760750D01*
X117727000Y-77773691D01*
X117915000Y-77773691D01*
X117915000Y-79189250D01*
X118073750Y-79348000D01*
X118923000Y-79348000D01*
X118923000Y-77423750D01*
X119177000Y-77423750D01*
X119177000Y-79348000D01*
X120026250Y-79348000D01*
X120185000Y-79189250D01*
X120185000Y-77773691D01*
X120088327Y-77540302D01*
X119909699Y-77361673D01*
X119676310Y-77265000D01*
X119335750Y-77265000D01*
X119177000Y-77423750D01*
X118923000Y-77423750D01*
X118764250Y-77265000D01*
X118423690Y-77265000D01*
X118190301Y-77361673D01*
X118011673Y-77540302D01*
X117915000Y-77773691D01*
X117727000Y-77773691D01*
X117727000Y-75710000D01*
X124990001Y-75710000D01*
X124990000Y-90690000D01*
X124990000Y-90690000D01*
G37*
X124990000Y-90690000D02*
X124669926Y-90690000D01*
X124600000Y-90676091D01*
X124530075Y-90690000D01*
X124530074Y-90690000D01*
X124322972Y-90731195D01*
X124088119Y-90888119D01*
X123931195Y-91122972D01*
X123876091Y-91400000D01*
X123890001Y-91469931D01*
X123890001Y-92365000D01*
X123685750Y-92365000D01*
X123527000Y-92523750D01*
X123527000Y-95873000D01*
X123547000Y-95873000D01*
X123547000Y-96127000D01*
X123527000Y-96127000D01*
X123527000Y-96147000D01*
X123273000Y-96147000D01*
X123273000Y-96127000D01*
X123253000Y-96127000D01*
X123253000Y-95873000D01*
X123273000Y-95873000D01*
X123273000Y-92523750D01*
X123114250Y-92365000D01*
X122664697Y-92365000D01*
X122542655Y-92070365D01*
X122279635Y-91807345D01*
X121935983Y-91665000D01*
X121765752Y-91665000D01*
X120627000Y-90255117D01*
X120627000Y-82000000D01*
X120617333Y-81951399D01*
X120589803Y-81910197D01*
X120548601Y-81882667D01*
X120500000Y-81873000D01*
X117727000Y-81873000D01*
X117727000Y-79760750D01*
X117915000Y-79760750D01*
X117915000Y-81176309D01*
X118011673Y-81409698D01*
X118190301Y-81588327D01*
X118423690Y-81685000D01*
X118764250Y-81685000D01*
X118923000Y-81526250D01*
X118923000Y-79602000D01*
X119177000Y-79602000D01*
X119177000Y-81526250D01*
X119335750Y-81685000D01*
X119676310Y-81685000D01*
X119909699Y-81588327D01*
X120088327Y-81409698D01*
X120185000Y-81176309D01*
X120185000Y-79760750D01*
X120026250Y-79602000D01*
X119177000Y-79602000D01*
X118923000Y-79602000D01*
X118073750Y-79602000D01*
X117915000Y-79760750D01*
X117727000Y-79760750D01*
X117727000Y-77773691D01*
X117915000Y-77773691D01*
X117915000Y-79189250D01*
X118073750Y-79348000D01*
X118923000Y-79348000D01*
X118923000Y-77423750D01*
X119177000Y-77423750D01*
X119177000Y-79348000D01*
X120026250Y-79348000D01*
X120185000Y-79189250D01*
X120185000Y-77773691D01*
X120088327Y-77540302D01*
X119909699Y-77361673D01*
X119676310Y-77265000D01*
X119335750Y-77265000D01*
X119177000Y-77423750D01*
X118923000Y-77423750D01*
X118764250Y-77265000D01*
X118423690Y-77265000D01*
X118190301Y-77361673D01*
X118011673Y-77540302D01*
X117915000Y-77773691D01*
X117727000Y-77773691D01*
X117727000Y-75710000D01*
X124990001Y-75710000D01*
X124990000Y-90690000D01*
G04 #@! TD*
M02*
