G04 #@! TF.GenerationSoftware,KiCad,Pcbnew,5.0.2-bee76a0~70~ubuntu18.10.1*
G04 #@! TF.CreationDate,2019-01-06T00:08:24+02:00*
G04 #@! TF.ProjectId,GB-BENCH-G1,47422d42-454e-4434-982d-47312e6b6963,rev?*
G04 #@! TF.SameCoordinates,Original*
G04 #@! TF.FileFunction,Legend,Top*
G04 #@! TF.FilePolarity,Positive*
%FSLAX46Y46*%
G04 Gerber Fmt 4.6, Leading zero omitted, Abs format (unit mm)*
G04 Created by KiCad (PCBNEW 5.0.2-bee76a0~70~ubuntu18.10.1) date su  6. tammikuuta 2019 00.08.24*
%MOMM*%
%LPD*%
G01*
G04 APERTURE LIST*
%ADD10C,0.300000*%
%ADD11C,0.200000*%
%ADD12C,0.120000*%
%ADD13C,0.150000*%
G04 APERTURE END LIST*
D10*
X111557142Y-129204761D02*
X111557142Y-127204761D01*
X112414285Y-129204761D02*
X112414285Y-128157142D01*
X112319047Y-127966666D01*
X112128571Y-127871428D01*
X111842857Y-127871428D01*
X111652380Y-127966666D01*
X111557142Y-128061904D01*
X113080952Y-127871428D02*
X113842857Y-127871428D01*
X113366666Y-127204761D02*
X113366666Y-128919047D01*
X113461904Y-129109523D01*
X113652380Y-129204761D01*
X113842857Y-129204761D01*
X114223809Y-127871428D02*
X114985714Y-127871428D01*
X114509523Y-127204761D02*
X114509523Y-128919047D01*
X114604761Y-129109523D01*
X114795238Y-129204761D01*
X114985714Y-129204761D01*
X115652380Y-127871428D02*
X115652380Y-129871428D01*
X115652380Y-127966666D02*
X115842857Y-127871428D01*
X116223809Y-127871428D01*
X116414285Y-127966666D01*
X116509523Y-128061904D01*
X116604761Y-128252380D01*
X116604761Y-128823809D01*
X116509523Y-129014285D01*
X116414285Y-129109523D01*
X116223809Y-129204761D01*
X115842857Y-129204761D01*
X115652380Y-129109523D01*
X117366666Y-129109523D02*
X117557142Y-129204761D01*
X117938095Y-129204761D01*
X118128571Y-129109523D01*
X118223809Y-128919047D01*
X118223809Y-128823809D01*
X118128571Y-128633333D01*
X117938095Y-128538095D01*
X117652380Y-128538095D01*
X117461904Y-128442857D01*
X117366666Y-128252380D01*
X117366666Y-128157142D01*
X117461904Y-127966666D01*
X117652380Y-127871428D01*
X117938095Y-127871428D01*
X118128571Y-127966666D01*
X119080952Y-129014285D02*
X119176190Y-129109523D01*
X119080952Y-129204761D01*
X118985714Y-129109523D01*
X119080952Y-129014285D01*
X119080952Y-129204761D01*
X119080952Y-127966666D02*
X119176190Y-128061904D01*
X119080952Y-128157142D01*
X118985714Y-128061904D01*
X119080952Y-127966666D01*
X119080952Y-128157142D01*
X121461904Y-127109523D02*
X119747619Y-129680952D01*
X123557142Y-127109523D02*
X121842857Y-129680952D01*
X125080952Y-127871428D02*
X125080952Y-129490476D01*
X124985714Y-129680952D01*
X124890476Y-129776190D01*
X124699999Y-129871428D01*
X124414285Y-129871428D01*
X124223809Y-129776190D01*
X125080952Y-129109523D02*
X124890476Y-129204761D01*
X124509523Y-129204761D01*
X124319047Y-129109523D01*
X124223809Y-129014285D01*
X124128571Y-128823809D01*
X124128571Y-128252380D01*
X124223809Y-128061904D01*
X124319047Y-127966666D01*
X124509523Y-127871428D01*
X124890476Y-127871428D01*
X125080952Y-127966666D01*
X126795238Y-129109523D02*
X126604761Y-129204761D01*
X126223809Y-129204761D01*
X126033333Y-129109523D01*
X125938095Y-128919047D01*
X125938095Y-128157142D01*
X126033333Y-127966666D01*
X126223809Y-127871428D01*
X126604761Y-127871428D01*
X126795238Y-127966666D01*
X126890476Y-128157142D01*
X126890476Y-128347619D01*
X125938095Y-128538095D01*
X127747619Y-129204761D02*
X127747619Y-127204761D01*
X127938095Y-128442857D02*
X128509523Y-129204761D01*
X128509523Y-127871428D02*
X127747619Y-128633333D01*
X129366666Y-129204761D02*
X129366666Y-127204761D01*
X129557142Y-128442857D02*
X130128571Y-129204761D01*
X130128571Y-127871428D02*
X129366666Y-128633333D01*
X130985714Y-129204761D02*
X130985714Y-127871428D01*
X130985714Y-127204761D02*
X130890476Y-127300000D01*
X130985714Y-127395238D01*
X131080952Y-127300000D01*
X130985714Y-127204761D01*
X130985714Y-127395238D01*
X132223809Y-129204761D02*
X132033333Y-129109523D01*
X131938095Y-129014285D01*
X131842857Y-128823809D01*
X131842857Y-128252380D01*
X131938095Y-128061904D01*
X132033333Y-127966666D01*
X132223809Y-127871428D01*
X132509523Y-127871428D01*
X132700000Y-127966666D01*
X132795238Y-128061904D01*
X132890476Y-128252380D01*
X132890476Y-128823809D01*
X132795238Y-129014285D01*
X132700000Y-129109523D01*
X132509523Y-129204761D01*
X132223809Y-129204761D01*
X133747619Y-129014285D02*
X133842857Y-129109523D01*
X133747619Y-129204761D01*
X133652380Y-129109523D01*
X133747619Y-129014285D01*
X133747619Y-129204761D01*
X134414285Y-127871428D02*
X135176190Y-127871428D01*
X134700000Y-129204761D02*
X134700000Y-127490476D01*
X134795238Y-127300000D01*
X134985714Y-127204761D01*
X135176190Y-127204761D01*
X135842857Y-129204761D02*
X135842857Y-127871428D01*
X135842857Y-127204761D02*
X135747619Y-127300000D01*
X135842857Y-127395238D01*
X135938095Y-127300000D01*
X135842857Y-127204761D01*
X135842857Y-127395238D01*
X77990476Y-127400000D02*
X77800000Y-127304761D01*
X77514285Y-127304761D01*
X77228571Y-127400000D01*
X77038095Y-127590476D01*
X76942857Y-127780952D01*
X76847619Y-128161904D01*
X76847619Y-128447619D01*
X76942857Y-128828571D01*
X77038095Y-129019047D01*
X77228571Y-129209523D01*
X77514285Y-129304761D01*
X77704761Y-129304761D01*
X77990476Y-129209523D01*
X78085714Y-129114285D01*
X78085714Y-128447619D01*
X77704761Y-128447619D01*
X79609523Y-128257142D02*
X79895238Y-128352380D01*
X79990476Y-128447619D01*
X80085714Y-128638095D01*
X80085714Y-128923809D01*
X79990476Y-129114285D01*
X79895238Y-129209523D01*
X79704761Y-129304761D01*
X78942857Y-129304761D01*
X78942857Y-127304761D01*
X79609523Y-127304761D01*
X79800000Y-127400000D01*
X79895238Y-127495238D01*
X79990476Y-127685714D01*
X79990476Y-127876190D01*
X79895238Y-128066666D01*
X79800000Y-128161904D01*
X79609523Y-128257142D01*
X78942857Y-128257142D01*
X80942857Y-128542857D02*
X82466666Y-128542857D01*
X84085714Y-128257142D02*
X84371428Y-128352380D01*
X84466666Y-128447619D01*
X84561904Y-128638095D01*
X84561904Y-128923809D01*
X84466666Y-129114285D01*
X84371428Y-129209523D01*
X84180952Y-129304761D01*
X83419047Y-129304761D01*
X83419047Y-127304761D01*
X84085714Y-127304761D01*
X84276190Y-127400000D01*
X84371428Y-127495238D01*
X84466666Y-127685714D01*
X84466666Y-127876190D01*
X84371428Y-128066666D01*
X84276190Y-128161904D01*
X84085714Y-128257142D01*
X83419047Y-128257142D01*
X85419047Y-128257142D02*
X86085714Y-128257142D01*
X86371428Y-129304761D02*
X85419047Y-129304761D01*
X85419047Y-127304761D01*
X86371428Y-127304761D01*
X87228571Y-129304761D02*
X87228571Y-127304761D01*
X88371428Y-129304761D01*
X88371428Y-127304761D01*
X90466666Y-129114285D02*
X90371428Y-129209523D01*
X90085714Y-129304761D01*
X89895238Y-129304761D01*
X89609523Y-129209523D01*
X89419047Y-129019047D01*
X89323809Y-128828571D01*
X89228571Y-128447619D01*
X89228571Y-128161904D01*
X89323809Y-127780952D01*
X89419047Y-127590476D01*
X89609523Y-127400000D01*
X89895238Y-127304761D01*
X90085714Y-127304761D01*
X90371428Y-127400000D01*
X90466666Y-127495238D01*
X91323809Y-129304761D02*
X91323809Y-127304761D01*
X91323809Y-128257142D02*
X92466666Y-128257142D01*
X92466666Y-129304761D02*
X92466666Y-127304761D01*
X93419047Y-128542857D02*
X94942857Y-128542857D01*
X96942857Y-127400000D02*
X96752380Y-127304761D01*
X96466666Y-127304761D01*
X96180952Y-127400000D01*
X95990476Y-127590476D01*
X95895238Y-127780952D01*
X95800000Y-128161904D01*
X95800000Y-128447619D01*
X95895238Y-128828571D01*
X95990476Y-129019047D01*
X96180952Y-129209523D01*
X96466666Y-129304761D01*
X96657142Y-129304761D01*
X96942857Y-129209523D01*
X97038095Y-129114285D01*
X97038095Y-128447619D01*
X96657142Y-128447619D01*
X98942857Y-129304761D02*
X97800000Y-129304761D01*
X98371428Y-129304761D02*
X98371428Y-127304761D01*
X98180952Y-127590476D01*
X97990476Y-127780952D01*
X97800000Y-127876190D01*
X101133333Y-127971428D02*
X101609523Y-129304761D01*
X102085714Y-127971428D01*
X103895238Y-129304761D02*
X102752380Y-129304761D01*
X103323809Y-129304761D02*
X103323809Y-127304761D01*
X103133333Y-127590476D01*
X102942857Y-127780952D01*
X102752380Y-127876190D01*
X104752380Y-129114285D02*
X104847619Y-129209523D01*
X104752380Y-129304761D01*
X104657142Y-129209523D01*
X104752380Y-129114285D01*
X104752380Y-129304761D01*
X106085714Y-127304761D02*
X106276190Y-127304761D01*
X106466666Y-127400000D01*
X106561904Y-127495238D01*
X106657142Y-127685714D01*
X106752380Y-128066666D01*
X106752380Y-128542857D01*
X106657142Y-128923809D01*
X106561904Y-129114285D01*
X106466666Y-129209523D01*
X106276190Y-129304761D01*
X106085714Y-129304761D01*
X105895238Y-129209523D01*
X105800000Y-129114285D01*
X105704761Y-128923809D01*
X105609523Y-128542857D01*
X105609523Y-128066666D01*
X105704761Y-127685714D01*
X105800000Y-127495238D01*
X105895238Y-127400000D01*
X106085714Y-127304761D01*
D11*
X105400000Y-73600000D02*
X103900000Y-73600000D01*
X105400000Y-63800000D02*
X105400000Y-73600000D01*
D12*
X128020857Y-113407142D02*
X127592285Y-113407142D01*
X127592285Y-112507142D01*
X128320857Y-113407142D02*
X128320857Y-112507142D01*
X128535142Y-112507142D01*
X128663714Y-112550000D01*
X128749428Y-112635714D01*
X128792285Y-112721428D01*
X128835142Y-112892857D01*
X128835142Y-113021428D01*
X128792285Y-113192857D01*
X128749428Y-113278571D01*
X128663714Y-113364285D01*
X128535142Y-113407142D01*
X128320857Y-113407142D01*
X129692285Y-113407142D02*
X129178000Y-113407142D01*
X129435142Y-113407142D02*
X129435142Y-112507142D01*
X129349428Y-112635714D01*
X129263714Y-112721428D01*
X129178000Y-112764285D01*
X128020857Y-111007142D02*
X127592285Y-111007142D01*
X127592285Y-110107142D01*
X128320857Y-111007142D02*
X128320857Y-110107142D01*
X128535142Y-110107142D01*
X128663714Y-110150000D01*
X128749428Y-110235714D01*
X128792285Y-110321428D01*
X128835142Y-110492857D01*
X128835142Y-110621428D01*
X128792285Y-110792857D01*
X128749428Y-110878571D01*
X128663714Y-110964285D01*
X128535142Y-111007142D01*
X128320857Y-111007142D01*
X129392285Y-110107142D02*
X129478000Y-110107142D01*
X129563714Y-110150000D01*
X129606571Y-110192857D01*
X129649428Y-110278571D01*
X129692285Y-110450000D01*
X129692285Y-110664285D01*
X129649428Y-110835714D01*
X129606571Y-110921428D01*
X129563714Y-110964285D01*
X129478000Y-111007142D01*
X129392285Y-111007142D01*
X129306571Y-110964285D01*
X129263714Y-110921428D01*
X129220857Y-110835714D01*
X129178000Y-110664285D01*
X129178000Y-110450000D01*
X129220857Y-110278571D01*
X129263714Y-110192857D01*
X129306571Y-110150000D01*
X129392285Y-110107142D01*
X128106571Y-108321428D02*
X128063714Y-108364285D01*
X127935142Y-108407142D01*
X127849428Y-108407142D01*
X127720857Y-108364285D01*
X127635142Y-108278571D01*
X127592285Y-108192857D01*
X127549428Y-108021428D01*
X127549428Y-107892857D01*
X127592285Y-107721428D01*
X127635142Y-107635714D01*
X127720857Y-107550000D01*
X127849428Y-107507142D01*
X127935142Y-107507142D01*
X128063714Y-107550000D01*
X128106571Y-107592857D01*
X128492285Y-108407142D02*
X128492285Y-107507142D01*
X128835142Y-107507142D01*
X128920857Y-107550000D01*
X128963714Y-107592857D01*
X129006571Y-107678571D01*
X129006571Y-107807142D01*
X128963714Y-107892857D01*
X128920857Y-107935714D01*
X128835142Y-107978571D01*
X128492285Y-107978571D01*
X129863714Y-107550000D02*
X129778000Y-107507142D01*
X129649428Y-107507142D01*
X129520857Y-107550000D01*
X129435142Y-107635714D01*
X129392285Y-107721428D01*
X129349428Y-107892857D01*
X129349428Y-108021428D01*
X129392285Y-108192857D01*
X129435142Y-108278571D01*
X129520857Y-108364285D01*
X129649428Y-108407142D01*
X129735142Y-108407142D01*
X129863714Y-108364285D01*
X129906571Y-108321428D01*
X129906571Y-108021428D01*
X129735142Y-108021428D01*
X128106571Y-105921428D02*
X128063714Y-105964285D01*
X127935142Y-106007142D01*
X127849428Y-106007142D01*
X127720857Y-105964285D01*
X127635142Y-105878571D01*
X127592285Y-105792857D01*
X127549428Y-105621428D01*
X127549428Y-105492857D01*
X127592285Y-105321428D01*
X127635142Y-105235714D01*
X127720857Y-105150000D01*
X127849428Y-105107142D01*
X127935142Y-105107142D01*
X128063714Y-105150000D01*
X128106571Y-105192857D01*
X128492285Y-106007142D02*
X128492285Y-105107142D01*
X128835142Y-105107142D01*
X128920857Y-105150000D01*
X128963714Y-105192857D01*
X129006571Y-105278571D01*
X129006571Y-105407142D01*
X128963714Y-105492857D01*
X128920857Y-105535714D01*
X128835142Y-105578571D01*
X128492285Y-105578571D01*
X127492285Y-103407142D02*
X127492285Y-102507142D01*
X127492285Y-102935714D02*
X128006571Y-102935714D01*
X128006571Y-103407142D02*
X128006571Y-102507142D01*
X128392285Y-103364285D02*
X128520857Y-103407142D01*
X128735142Y-103407142D01*
X128820857Y-103364285D01*
X128863714Y-103321428D01*
X128906571Y-103235714D01*
X128906571Y-103150000D01*
X128863714Y-103064285D01*
X128820857Y-103021428D01*
X128735142Y-102978571D01*
X128563714Y-102935714D01*
X128478000Y-102892857D01*
X128435142Y-102850000D01*
X128392285Y-102764285D01*
X128392285Y-102678571D01*
X128435142Y-102592857D01*
X128478000Y-102550000D01*
X128563714Y-102507142D01*
X128778000Y-102507142D01*
X128906571Y-102550000D01*
X129463714Y-102978571D02*
X129463714Y-103407142D01*
X129163714Y-102507142D02*
X129463714Y-102978571D01*
X129763714Y-102507142D01*
X130063714Y-103407142D02*
X130063714Y-102507142D01*
X130578000Y-103407142D01*
X130578000Y-102507142D01*
X128006571Y-100721428D02*
X127963714Y-100764285D01*
X127835142Y-100807142D01*
X127749428Y-100807142D01*
X127620857Y-100764285D01*
X127535142Y-100678571D01*
X127492285Y-100592857D01*
X127449428Y-100421428D01*
X127449428Y-100292857D01*
X127492285Y-100121428D01*
X127535142Y-100035714D01*
X127620857Y-99950000D01*
X127749428Y-99907142D01*
X127835142Y-99907142D01*
X127963714Y-99950000D01*
X128006571Y-99992857D01*
X128392285Y-100807142D02*
X128392285Y-99907142D01*
X128735142Y-99907142D01*
X128820857Y-99950000D01*
X128863714Y-99992857D01*
X128906571Y-100078571D01*
X128906571Y-100207142D01*
X128863714Y-100292857D01*
X128820857Y-100335714D01*
X128735142Y-100378571D01*
X128392285Y-100378571D01*
X129720857Y-100807142D02*
X129292285Y-100807142D01*
X129292285Y-99907142D01*
X127792285Y-97835714D02*
X127492285Y-97835714D01*
X127492285Y-98307142D02*
X127492285Y-97407142D01*
X127920857Y-97407142D01*
X128778000Y-98307142D02*
X128478000Y-97878571D01*
X128263714Y-98307142D02*
X128263714Y-97407142D01*
X128606571Y-97407142D01*
X128692285Y-97450000D01*
X128735142Y-97492857D01*
X128778000Y-97578571D01*
X128778000Y-97707142D01*
X128735142Y-97792857D01*
X128692285Y-97835714D01*
X128606571Y-97878571D01*
X128263714Y-97878571D01*
X127363714Y-93707142D02*
X127663714Y-94607142D01*
X127963714Y-93707142D01*
X128220857Y-94564285D02*
X128349428Y-94607142D01*
X128563714Y-94607142D01*
X128649428Y-94564285D01*
X128692285Y-94521428D01*
X128735142Y-94435714D01*
X128735142Y-94350000D01*
X128692285Y-94264285D01*
X128649428Y-94221428D01*
X128563714Y-94178571D01*
X128392285Y-94135714D01*
X128306571Y-94092857D01*
X128263714Y-94050000D01*
X128220857Y-93964285D01*
X128220857Y-93878571D01*
X128263714Y-93792857D01*
X128306571Y-93750000D01*
X128392285Y-93707142D01*
X128606571Y-93707142D01*
X128735142Y-93750000D01*
X129292285Y-94178571D02*
X129292285Y-94607142D01*
X128992285Y-93707142D02*
X129292285Y-94178571D01*
X129592285Y-93707142D01*
X129892285Y-94607142D02*
X129892285Y-93707142D01*
X130406571Y-94607142D01*
X130406571Y-93707142D01*
X131349428Y-94521428D02*
X131306571Y-94564285D01*
X131178000Y-94607142D01*
X131092285Y-94607142D01*
X130963714Y-94564285D01*
X130878000Y-94478571D01*
X130835142Y-94392857D01*
X130792285Y-94221428D01*
X130792285Y-94092857D01*
X130835142Y-93921428D01*
X130878000Y-93835714D01*
X130963714Y-93750000D01*
X131092285Y-93707142D01*
X131178000Y-93707142D01*
X131306571Y-93750000D01*
X131349428Y-93792857D01*
X121064857Y-109650000D02*
X120979142Y-109607142D01*
X120850571Y-109607142D01*
X120722000Y-109650000D01*
X120636285Y-109735714D01*
X120593428Y-109821428D01*
X120550571Y-109992857D01*
X120550571Y-110121428D01*
X120593428Y-110292857D01*
X120636285Y-110378571D01*
X120722000Y-110464285D01*
X120850571Y-110507142D01*
X120936285Y-110507142D01*
X121064857Y-110464285D01*
X121107714Y-110421428D01*
X121107714Y-110121428D01*
X120936285Y-110121428D01*
X121493428Y-110507142D02*
X121493428Y-109607142D01*
X122007714Y-110507142D01*
X122007714Y-109607142D01*
X122436285Y-110507142D02*
X122436285Y-109607142D01*
X122650571Y-109607142D01*
X122779142Y-109650000D01*
X122864857Y-109735714D01*
X122907714Y-109821428D01*
X122950571Y-109992857D01*
X122950571Y-110121428D01*
X122907714Y-110292857D01*
X122864857Y-110378571D01*
X122779142Y-110464285D01*
X122650571Y-110507142D01*
X122436285Y-110507142D01*
X117279142Y-105507142D02*
X116979142Y-105078571D01*
X116764857Y-105507142D02*
X116764857Y-104607142D01*
X117107714Y-104607142D01*
X117193428Y-104650000D01*
X117236285Y-104692857D01*
X117279142Y-104778571D01*
X117279142Y-104907142D01*
X117236285Y-104992857D01*
X117193428Y-105035714D01*
X117107714Y-105078571D01*
X116764857Y-105078571D01*
X117836285Y-104607142D02*
X118007714Y-104607142D01*
X118093428Y-104650000D01*
X118179142Y-104735714D01*
X118222000Y-104907142D01*
X118222000Y-105207142D01*
X118179142Y-105378571D01*
X118093428Y-105464285D01*
X118007714Y-105507142D01*
X117836285Y-105507142D01*
X117750571Y-105464285D01*
X117664857Y-105378571D01*
X117622000Y-105207142D01*
X117622000Y-104907142D01*
X117664857Y-104735714D01*
X117750571Y-104650000D01*
X117836285Y-104607142D01*
X118607714Y-104607142D02*
X118607714Y-105335714D01*
X118650571Y-105421428D01*
X118693428Y-105464285D01*
X118779142Y-105507142D01*
X118950571Y-105507142D01*
X119036285Y-105464285D01*
X119079142Y-105421428D01*
X119122000Y-105335714D01*
X119122000Y-104607142D01*
X119422000Y-104607142D02*
X119936285Y-104607142D01*
X119679142Y-105507142D02*
X119679142Y-104607142D01*
X117864857Y-102350000D02*
X117779142Y-102307142D01*
X117650571Y-102307142D01*
X117522000Y-102350000D01*
X117436285Y-102435714D01*
X117393428Y-102521428D01*
X117350571Y-102692857D01*
X117350571Y-102821428D01*
X117393428Y-102992857D01*
X117436285Y-103078571D01*
X117522000Y-103164285D01*
X117650571Y-103207142D01*
X117736285Y-103207142D01*
X117864857Y-103164285D01*
X117907714Y-103121428D01*
X117907714Y-102821428D01*
X117736285Y-102821428D01*
X118293428Y-103207142D02*
X118293428Y-102307142D01*
X118807714Y-103207142D01*
X118807714Y-102307142D01*
X119236285Y-103207142D02*
X119236285Y-102307142D01*
X119450571Y-102307142D01*
X119579142Y-102350000D01*
X119664857Y-102435714D01*
X119707714Y-102521428D01*
X119750571Y-102692857D01*
X119750571Y-102821428D01*
X119707714Y-102992857D01*
X119664857Y-103078571D01*
X119579142Y-103164285D01*
X119450571Y-103207142D01*
X119236285Y-103207142D01*
X117264857Y-100707142D02*
X116836285Y-100707142D01*
X116836285Y-99807142D01*
X117736285Y-99807142D02*
X117907714Y-99807142D01*
X117993428Y-99850000D01*
X118079142Y-99935714D01*
X118122000Y-100107142D01*
X118122000Y-100407142D01*
X118079142Y-100578571D01*
X117993428Y-100664285D01*
X117907714Y-100707142D01*
X117736285Y-100707142D01*
X117650571Y-100664285D01*
X117564857Y-100578571D01*
X117522000Y-100407142D01*
X117522000Y-100107142D01*
X117564857Y-99935714D01*
X117650571Y-99850000D01*
X117736285Y-99807142D01*
X118507714Y-99807142D02*
X118507714Y-100535714D01*
X118550571Y-100621428D01*
X118593428Y-100664285D01*
X118679142Y-100707142D01*
X118850571Y-100707142D01*
X118936285Y-100664285D01*
X118979142Y-100621428D01*
X119022000Y-100535714D01*
X119022000Y-99807142D01*
X119322000Y-99807142D02*
X119836285Y-99807142D01*
X119579142Y-100707142D02*
X119579142Y-99807142D01*
X117964857Y-97350000D02*
X117879142Y-97307142D01*
X117750571Y-97307142D01*
X117622000Y-97350000D01*
X117536285Y-97435714D01*
X117493428Y-97521428D01*
X117450571Y-97692857D01*
X117450571Y-97821428D01*
X117493428Y-97992857D01*
X117536285Y-98078571D01*
X117622000Y-98164285D01*
X117750571Y-98207142D01*
X117836285Y-98207142D01*
X117964857Y-98164285D01*
X118007714Y-98121428D01*
X118007714Y-97821428D01*
X117836285Y-97821428D01*
X118393428Y-98207142D02*
X118393428Y-97307142D01*
X118907714Y-98207142D01*
X118907714Y-97307142D01*
X119336285Y-98207142D02*
X119336285Y-97307142D01*
X119550571Y-97307142D01*
X119679142Y-97350000D01*
X119764857Y-97435714D01*
X119807714Y-97521428D01*
X119850571Y-97692857D01*
X119850571Y-97821428D01*
X119807714Y-97992857D01*
X119764857Y-98078571D01*
X119679142Y-98164285D01*
X119550571Y-98207142D01*
X119336285Y-98207142D01*
X118064857Y-94807142D02*
X118364857Y-95707142D01*
X118664857Y-94807142D01*
X118964857Y-95707142D02*
X118964857Y-94807142D01*
X119393428Y-95707142D02*
X119393428Y-94807142D01*
X119907714Y-95707142D01*
X119907714Y-94807142D01*
X134307142Y-143407714D02*
X133407142Y-143407714D01*
X134050000Y-143107714D01*
X133407142Y-142807714D01*
X134307142Y-142807714D01*
X134221428Y-141864857D02*
X134264285Y-141907714D01*
X134307142Y-142036285D01*
X134307142Y-142122000D01*
X134264285Y-142250571D01*
X134178571Y-142336285D01*
X134092857Y-142379142D01*
X133921428Y-142422000D01*
X133792857Y-142422000D01*
X133621428Y-142379142D01*
X133535714Y-142336285D01*
X133450000Y-142250571D01*
X133407142Y-142122000D01*
X133407142Y-142036285D01*
X133450000Y-141907714D01*
X133492857Y-141864857D01*
X134264285Y-141522000D02*
X134307142Y-141393428D01*
X134307142Y-141179142D01*
X134264285Y-141093428D01*
X134221428Y-141050571D01*
X134135714Y-141007714D01*
X134050000Y-141007714D01*
X133964285Y-141050571D01*
X133921428Y-141093428D01*
X133878571Y-141179142D01*
X133835714Y-141350571D01*
X133792857Y-141436285D01*
X133750000Y-141479142D01*
X133664285Y-141522000D01*
X133578571Y-141522000D01*
X133492857Y-141479142D01*
X133450000Y-141436285D01*
X133407142Y-141350571D01*
X133407142Y-141136285D01*
X133450000Y-141007714D01*
X135907142Y-143407714D02*
X135007142Y-143407714D01*
X135650000Y-143107714D01*
X135007142Y-142807714D01*
X135907142Y-142807714D01*
X135907142Y-141864857D02*
X135478571Y-142164857D01*
X135907142Y-142379142D02*
X135007142Y-142379142D01*
X135007142Y-142036285D01*
X135050000Y-141950571D01*
X135092857Y-141907714D01*
X135178571Y-141864857D01*
X135307142Y-141864857D01*
X135392857Y-141907714D01*
X135435714Y-141950571D01*
X135478571Y-142036285D01*
X135478571Y-142379142D01*
X135907142Y-141479142D02*
X135007142Y-141479142D01*
X135007142Y-141264857D01*
X135050000Y-141136285D01*
X135135714Y-141050571D01*
X135221428Y-141007714D01*
X135392857Y-140964857D01*
X135521428Y-140964857D01*
X135692857Y-141007714D01*
X135778571Y-141050571D01*
X135864285Y-141136285D01*
X135907142Y-141264857D01*
X135907142Y-141479142D01*
X137607142Y-143407714D02*
X136707142Y-143407714D01*
X137350000Y-143107714D01*
X136707142Y-142807714D01*
X137607142Y-142807714D01*
X136707142Y-142464857D02*
X137607142Y-142250571D01*
X136964285Y-142079142D01*
X137607142Y-141907714D01*
X136707142Y-141693428D01*
X137607142Y-140836285D02*
X137178571Y-141136285D01*
X137607142Y-141350571D02*
X136707142Y-141350571D01*
X136707142Y-141007714D01*
X136750000Y-140922000D01*
X136792857Y-140879142D01*
X136878571Y-140836285D01*
X137007142Y-140836285D01*
X137092857Y-140879142D01*
X137135714Y-140922000D01*
X137178571Y-141007714D01*
X137178571Y-141350571D01*
X148114285Y-84807142D02*
X147685714Y-84807142D01*
X147642857Y-85235714D01*
X147685714Y-85192857D01*
X147771428Y-85150000D01*
X147985714Y-85150000D01*
X148071428Y-85192857D01*
X148114285Y-85235714D01*
X148157142Y-85321428D01*
X148157142Y-85535714D01*
X148114285Y-85621428D01*
X148071428Y-85664285D01*
X147985714Y-85707142D01*
X147771428Y-85707142D01*
X147685714Y-85664285D01*
X147642857Y-85621428D01*
X145471428Y-85107142D02*
X145471428Y-85707142D01*
X145257142Y-84764285D02*
X145042857Y-85407142D01*
X145600000Y-85407142D01*
X142500000Y-84807142D02*
X143057142Y-84807142D01*
X142757142Y-85150000D01*
X142885714Y-85150000D01*
X142971428Y-85192857D01*
X143014285Y-85235714D01*
X143057142Y-85321428D01*
X143057142Y-85535714D01*
X143014285Y-85621428D01*
X142971428Y-85664285D01*
X142885714Y-85707142D01*
X142628571Y-85707142D01*
X142542857Y-85664285D01*
X142500000Y-85621428D01*
X140042857Y-84892857D02*
X140085714Y-84850000D01*
X140171428Y-84807142D01*
X140385714Y-84807142D01*
X140471428Y-84850000D01*
X140514285Y-84892857D01*
X140557142Y-84978571D01*
X140557142Y-85064285D01*
X140514285Y-85192857D01*
X140000000Y-85707142D01*
X140557142Y-85707142D01*
X137957142Y-85707142D02*
X137442857Y-85707142D01*
X137700000Y-85707142D02*
X137700000Y-84807142D01*
X137614285Y-84935714D01*
X137528571Y-85021428D01*
X137442857Y-85064285D01*
D11*
X131561904Y-84852380D02*
X131561904Y-83852380D01*
X131942857Y-83852380D01*
X132038095Y-83900000D01*
X132085714Y-83947619D01*
X132133333Y-84042857D01*
X132133333Y-84185714D01*
X132085714Y-84280952D01*
X132038095Y-84328571D01*
X131942857Y-84376190D01*
X131561904Y-84376190D01*
X133085714Y-84852380D02*
X132514285Y-84852380D01*
X132800000Y-84852380D02*
X132800000Y-83852380D01*
X132704761Y-83995238D01*
X132609523Y-84090476D01*
X132514285Y-84138095D01*
X139628571Y-80604761D02*
X139771428Y-80652380D01*
X140009523Y-80652380D01*
X140104761Y-80604761D01*
X140152380Y-80557142D01*
X140200000Y-80461904D01*
X140200000Y-80366666D01*
X140152380Y-80271428D01*
X140104761Y-80223809D01*
X140009523Y-80176190D01*
X139819047Y-80128571D01*
X139723809Y-80080952D01*
X139676190Y-80033333D01*
X139628571Y-79938095D01*
X139628571Y-79842857D01*
X139676190Y-79747619D01*
X139723809Y-79700000D01*
X139819047Y-79652380D01*
X140057142Y-79652380D01*
X140200000Y-79700000D01*
X140819047Y-80176190D02*
X140819047Y-80652380D01*
X140485714Y-79652380D02*
X140819047Y-80176190D01*
X141152380Y-79652380D01*
X141438095Y-80604761D02*
X141580952Y-80652380D01*
X141819047Y-80652380D01*
X141914285Y-80604761D01*
X141961904Y-80557142D01*
X142009523Y-80461904D01*
X142009523Y-80366666D01*
X141961904Y-80271428D01*
X141914285Y-80223809D01*
X141819047Y-80176190D01*
X141628571Y-80128571D01*
X141533333Y-80080952D01*
X141485714Y-80033333D01*
X141438095Y-79938095D01*
X141438095Y-79842857D01*
X141485714Y-79747619D01*
X141533333Y-79700000D01*
X141628571Y-79652380D01*
X141866666Y-79652380D01*
X142009523Y-79700000D01*
X143533333Y-80128571D02*
X143676190Y-80176190D01*
X143723809Y-80223809D01*
X143771428Y-80319047D01*
X143771428Y-80461904D01*
X143723809Y-80557142D01*
X143676190Y-80604761D01*
X143580952Y-80652380D01*
X143200000Y-80652380D01*
X143200000Y-79652380D01*
X143533333Y-79652380D01*
X143628571Y-79700000D01*
X143676190Y-79747619D01*
X143723809Y-79842857D01*
X143723809Y-79938095D01*
X143676190Y-80033333D01*
X143628571Y-80080952D01*
X143533333Y-80128571D01*
X143200000Y-80128571D01*
X129400000Y-80604761D02*
X129542857Y-80652380D01*
X129780952Y-80652380D01*
X129876190Y-80604761D01*
X129923809Y-80557142D01*
X129971428Y-80461904D01*
X129971428Y-80366666D01*
X129923809Y-80271428D01*
X129876190Y-80223809D01*
X129780952Y-80176190D01*
X129590476Y-80128571D01*
X129495238Y-80080952D01*
X129447619Y-80033333D01*
X129400000Y-79938095D01*
X129400000Y-79842857D01*
X129447619Y-79747619D01*
X129495238Y-79700000D01*
X129590476Y-79652380D01*
X129828571Y-79652380D01*
X129971428Y-79700000D01*
X130590476Y-80176190D02*
X130590476Y-80652380D01*
X130257142Y-79652380D02*
X130590476Y-80176190D01*
X130923809Y-79652380D01*
X131209523Y-80604761D02*
X131352380Y-80652380D01*
X131590476Y-80652380D01*
X131685714Y-80604761D01*
X131733333Y-80557142D01*
X131780952Y-80461904D01*
X131780952Y-80366666D01*
X131733333Y-80271428D01*
X131685714Y-80223809D01*
X131590476Y-80176190D01*
X131400000Y-80128571D01*
X131304761Y-80080952D01*
X131257142Y-80033333D01*
X131209523Y-79938095D01*
X131209523Y-79842857D01*
X131257142Y-79747619D01*
X131304761Y-79700000D01*
X131400000Y-79652380D01*
X131638095Y-79652380D01*
X131780952Y-79700000D01*
X132923809Y-80366666D02*
X133400000Y-80366666D01*
X132828571Y-80652380D02*
X133161904Y-79652380D01*
X133495238Y-80652380D01*
D12*
X135057142Y-84807142D02*
X135142857Y-84807142D01*
X135228571Y-84850000D01*
X135271428Y-84892857D01*
X135314285Y-84978571D01*
X135357142Y-85150000D01*
X135357142Y-85364285D01*
X135314285Y-85535714D01*
X135271428Y-85621428D01*
X135228571Y-85664285D01*
X135142857Y-85707142D01*
X135057142Y-85707142D01*
X134971428Y-85664285D01*
X134928571Y-85621428D01*
X134885714Y-85535714D01*
X134842857Y-85364285D01*
X134842857Y-85150000D01*
X134885714Y-84978571D01*
X134928571Y-84892857D01*
X134971428Y-84850000D01*
X135057142Y-84807142D01*
X138293428Y-117764285D02*
X138979142Y-117764285D01*
X138636285Y-118107142D02*
X138636285Y-117421428D01*
X139836285Y-117207142D02*
X139407714Y-117207142D01*
X139364857Y-117635714D01*
X139407714Y-117592857D01*
X139493428Y-117550000D01*
X139707714Y-117550000D01*
X139793428Y-117592857D01*
X139836285Y-117635714D01*
X139879142Y-117721428D01*
X139879142Y-117935714D01*
X139836285Y-118021428D01*
X139793428Y-118064285D01*
X139707714Y-118107142D01*
X139493428Y-118107142D01*
X139407714Y-118064285D01*
X139364857Y-118021428D01*
X140136285Y-117207142D02*
X140436285Y-118107142D01*
X140736285Y-117207142D01*
X137864857Y-119196000D02*
X138893428Y-119196000D01*
X138079142Y-120407142D02*
X138079142Y-119507142D01*
X138379142Y-120150000D01*
X138679142Y-119507142D01*
X138679142Y-120407142D01*
X138893428Y-119196000D02*
X139922000Y-119196000D01*
X139022000Y-119507142D02*
X139236285Y-120407142D01*
X139407714Y-119764285D01*
X139579142Y-120407142D01*
X139793428Y-119507142D01*
X139922000Y-119196000D02*
X140822000Y-119196000D01*
X140650571Y-120407142D02*
X140350571Y-119978571D01*
X140136285Y-120407142D02*
X140136285Y-119507142D01*
X140479142Y-119507142D01*
X140564857Y-119550000D01*
X140607714Y-119592857D01*
X140650571Y-119678571D01*
X140650571Y-119807142D01*
X140607714Y-119892857D01*
X140564857Y-119935714D01*
X140479142Y-119978571D01*
X140136285Y-119978571D01*
X137993428Y-121796000D02*
X139022000Y-121796000D01*
X138207714Y-123007142D02*
X138207714Y-122107142D01*
X138507714Y-122750000D01*
X138807714Y-122107142D01*
X138807714Y-123007142D01*
X139022000Y-121796000D02*
X139922000Y-121796000D01*
X139750571Y-123007142D02*
X139450571Y-122578571D01*
X139236285Y-123007142D02*
X139236285Y-122107142D01*
X139579142Y-122107142D01*
X139664857Y-122150000D01*
X139707714Y-122192857D01*
X139750571Y-122278571D01*
X139750571Y-122407142D01*
X139707714Y-122492857D01*
X139664857Y-122535714D01*
X139579142Y-122578571D01*
X139236285Y-122578571D01*
X139922000Y-121796000D02*
X140822000Y-121796000D01*
X140136285Y-123007142D02*
X140136285Y-122107142D01*
X140350571Y-122107142D01*
X140479142Y-122150000D01*
X140564857Y-122235714D01*
X140607714Y-122321428D01*
X140650571Y-122492857D01*
X140650571Y-122621428D01*
X140607714Y-122792857D01*
X140564857Y-122878571D01*
X140479142Y-122964285D01*
X140350571Y-123007142D01*
X140136285Y-123007142D01*
X138036285Y-124296000D02*
X139064857Y-124296000D01*
X138250571Y-125507142D02*
X138250571Y-124607142D01*
X138550571Y-125250000D01*
X138850571Y-124607142D01*
X138850571Y-125507142D01*
X139064857Y-124296000D02*
X139964857Y-124296000D01*
X139793428Y-125421428D02*
X139750571Y-125464285D01*
X139622000Y-125507142D01*
X139536285Y-125507142D01*
X139407714Y-125464285D01*
X139322000Y-125378571D01*
X139279142Y-125292857D01*
X139236285Y-125121428D01*
X139236285Y-124992857D01*
X139279142Y-124821428D01*
X139322000Y-124735714D01*
X139407714Y-124650000D01*
X139536285Y-124607142D01*
X139622000Y-124607142D01*
X139750571Y-124650000D01*
X139793428Y-124692857D01*
X139964857Y-124296000D02*
X140822000Y-124296000D01*
X140136285Y-125464285D02*
X140264857Y-125507142D01*
X140479142Y-125507142D01*
X140564857Y-125464285D01*
X140607714Y-125421428D01*
X140650571Y-125335714D01*
X140650571Y-125250000D01*
X140607714Y-125164285D01*
X140564857Y-125121428D01*
X140479142Y-125078571D01*
X140307714Y-125035714D01*
X140222000Y-124992857D01*
X140179142Y-124950000D01*
X140136285Y-124864285D01*
X140136285Y-124778571D01*
X140179142Y-124692857D01*
X140222000Y-124650000D01*
X140307714Y-124607142D01*
X140522000Y-124607142D01*
X140650571Y-124650000D01*
X138250571Y-128107142D02*
X138250571Y-127207142D01*
X138550571Y-127850000D01*
X138850571Y-127207142D01*
X138850571Y-128107142D01*
X139279142Y-128107142D02*
X139279142Y-127207142D01*
X139493428Y-127207142D01*
X139622000Y-127250000D01*
X139707714Y-127335714D01*
X139750571Y-127421428D01*
X139793428Y-127592857D01*
X139793428Y-127721428D01*
X139750571Y-127892857D01*
X139707714Y-127978571D01*
X139622000Y-128064285D01*
X139493428Y-128107142D01*
X139279142Y-128107142D01*
X140350571Y-127207142D02*
X140436285Y-127207142D01*
X140522000Y-127250000D01*
X140564857Y-127292857D01*
X140607714Y-127378571D01*
X140650571Y-127550000D01*
X140650571Y-127764285D01*
X140607714Y-127935714D01*
X140564857Y-128021428D01*
X140522000Y-128064285D01*
X140436285Y-128107142D01*
X140350571Y-128107142D01*
X140264857Y-128064285D01*
X140222000Y-128021428D01*
X140179142Y-127935714D01*
X140136285Y-127764285D01*
X140136285Y-127550000D01*
X140179142Y-127378571D01*
X140222000Y-127292857D01*
X140264857Y-127250000D01*
X140350571Y-127207142D01*
X138250571Y-130607142D02*
X138250571Y-129707142D01*
X138550571Y-130350000D01*
X138850571Y-129707142D01*
X138850571Y-130607142D01*
X139279142Y-130607142D02*
X139279142Y-129707142D01*
X139493428Y-129707142D01*
X139622000Y-129750000D01*
X139707714Y-129835714D01*
X139750571Y-129921428D01*
X139793428Y-130092857D01*
X139793428Y-130221428D01*
X139750571Y-130392857D01*
X139707714Y-130478571D01*
X139622000Y-130564285D01*
X139493428Y-130607142D01*
X139279142Y-130607142D01*
X140650571Y-130607142D02*
X140136285Y-130607142D01*
X140393428Y-130607142D02*
X140393428Y-129707142D01*
X140307714Y-129835714D01*
X140222000Y-129921428D01*
X140136285Y-129964285D01*
X138250571Y-133207142D02*
X138250571Y-132307142D01*
X138550571Y-132950000D01*
X138850571Y-132307142D01*
X138850571Y-133207142D01*
X139279142Y-133207142D02*
X139279142Y-132307142D01*
X139493428Y-132307142D01*
X139622000Y-132350000D01*
X139707714Y-132435714D01*
X139750571Y-132521428D01*
X139793428Y-132692857D01*
X139793428Y-132821428D01*
X139750571Y-132992857D01*
X139707714Y-133078571D01*
X139622000Y-133164285D01*
X139493428Y-133207142D01*
X139279142Y-133207142D01*
X140136285Y-132392857D02*
X140179142Y-132350000D01*
X140264857Y-132307142D01*
X140479142Y-132307142D01*
X140564857Y-132350000D01*
X140607714Y-132392857D01*
X140650571Y-132478571D01*
X140650571Y-132564285D01*
X140607714Y-132692857D01*
X140093428Y-133207142D01*
X140650571Y-133207142D01*
X138250571Y-135807142D02*
X138250571Y-134907142D01*
X138550571Y-135550000D01*
X138850571Y-134907142D01*
X138850571Y-135807142D01*
X139279142Y-135807142D02*
X139279142Y-134907142D01*
X139493428Y-134907142D01*
X139622000Y-134950000D01*
X139707714Y-135035714D01*
X139750571Y-135121428D01*
X139793428Y-135292857D01*
X139793428Y-135421428D01*
X139750571Y-135592857D01*
X139707714Y-135678571D01*
X139622000Y-135764285D01*
X139493428Y-135807142D01*
X139279142Y-135807142D01*
X140093428Y-134907142D02*
X140650571Y-134907142D01*
X140350571Y-135250000D01*
X140479142Y-135250000D01*
X140564857Y-135292857D01*
X140607714Y-135335714D01*
X140650571Y-135421428D01*
X140650571Y-135635714D01*
X140607714Y-135721428D01*
X140564857Y-135764285D01*
X140479142Y-135807142D01*
X140222000Y-135807142D01*
X140136285Y-135764285D01*
X140093428Y-135721428D01*
X138250571Y-138307142D02*
X138250571Y-137407142D01*
X138550571Y-138050000D01*
X138850571Y-137407142D01*
X138850571Y-138307142D01*
X139279142Y-138307142D02*
X139279142Y-137407142D01*
X139493428Y-137407142D01*
X139622000Y-137450000D01*
X139707714Y-137535714D01*
X139750571Y-137621428D01*
X139793428Y-137792857D01*
X139793428Y-137921428D01*
X139750571Y-138092857D01*
X139707714Y-138178571D01*
X139622000Y-138264285D01*
X139493428Y-138307142D01*
X139279142Y-138307142D01*
X140564857Y-137707142D02*
X140564857Y-138307142D01*
X140350571Y-137364285D02*
X140136285Y-138007142D01*
X140693428Y-138007142D01*
X138250571Y-140807142D02*
X138250571Y-139907142D01*
X138550571Y-140550000D01*
X138850571Y-139907142D01*
X138850571Y-140807142D01*
X139279142Y-140807142D02*
X139279142Y-139907142D01*
X139493428Y-139907142D01*
X139622000Y-139950000D01*
X139707714Y-140035714D01*
X139750571Y-140121428D01*
X139793428Y-140292857D01*
X139793428Y-140421428D01*
X139750571Y-140592857D01*
X139707714Y-140678571D01*
X139622000Y-140764285D01*
X139493428Y-140807142D01*
X139279142Y-140807142D01*
X140607714Y-139907142D02*
X140179142Y-139907142D01*
X140136285Y-140335714D01*
X140179142Y-140292857D01*
X140264857Y-140250000D01*
X140479142Y-140250000D01*
X140564857Y-140292857D01*
X140607714Y-140335714D01*
X140650571Y-140421428D01*
X140650571Y-140635714D01*
X140607714Y-140721428D01*
X140564857Y-140764285D01*
X140479142Y-140807142D01*
X140264857Y-140807142D01*
X140179142Y-140764285D01*
X140136285Y-140721428D01*
X138250571Y-143407142D02*
X138250571Y-142507142D01*
X138550571Y-143150000D01*
X138850571Y-142507142D01*
X138850571Y-143407142D01*
X139279142Y-143407142D02*
X139279142Y-142507142D01*
X139493428Y-142507142D01*
X139622000Y-142550000D01*
X139707714Y-142635714D01*
X139750571Y-142721428D01*
X139793428Y-142892857D01*
X139793428Y-143021428D01*
X139750571Y-143192857D01*
X139707714Y-143278571D01*
X139622000Y-143364285D01*
X139493428Y-143407142D01*
X139279142Y-143407142D01*
X140564857Y-142507142D02*
X140393428Y-142507142D01*
X140307714Y-142550000D01*
X140264857Y-142592857D01*
X140179142Y-142721428D01*
X140136285Y-142892857D01*
X140136285Y-143235714D01*
X140179142Y-143321428D01*
X140222000Y-143364285D01*
X140307714Y-143407142D01*
X140479142Y-143407142D01*
X140564857Y-143364285D01*
X140607714Y-143321428D01*
X140650571Y-143235714D01*
X140650571Y-143021428D01*
X140607714Y-142935714D01*
X140564857Y-142892857D01*
X140479142Y-142850000D01*
X140307714Y-142850000D01*
X140222000Y-142892857D01*
X140179142Y-142935714D01*
X140136285Y-143021428D01*
X146492285Y-117907142D02*
X146492285Y-117007142D01*
X146792285Y-117650000D01*
X147092285Y-117007142D01*
X147092285Y-117907142D01*
X147478000Y-117650000D02*
X147906571Y-117650000D01*
X147392285Y-117907142D02*
X147692285Y-117007142D01*
X147992285Y-117907142D01*
X148463714Y-117007142D02*
X148549428Y-117007142D01*
X148635142Y-117050000D01*
X148678000Y-117092857D01*
X148720857Y-117178571D01*
X148763714Y-117350000D01*
X148763714Y-117564285D01*
X148720857Y-117735714D01*
X148678000Y-117821428D01*
X148635142Y-117864285D01*
X148549428Y-117907142D01*
X148463714Y-117907142D01*
X148378000Y-117864285D01*
X148335142Y-117821428D01*
X148292285Y-117735714D01*
X148249428Y-117564285D01*
X148249428Y-117350000D01*
X148292285Y-117178571D01*
X148335142Y-117092857D01*
X148378000Y-117050000D01*
X148463714Y-117007142D01*
X146492285Y-120507142D02*
X146492285Y-119607142D01*
X146792285Y-120250000D01*
X147092285Y-119607142D01*
X147092285Y-120507142D01*
X147478000Y-120250000D02*
X147906571Y-120250000D01*
X147392285Y-120507142D02*
X147692285Y-119607142D01*
X147992285Y-120507142D01*
X148763714Y-120507142D02*
X148249428Y-120507142D01*
X148506571Y-120507142D02*
X148506571Y-119607142D01*
X148420857Y-119735714D01*
X148335142Y-119821428D01*
X148249428Y-119864285D01*
X146492285Y-123007142D02*
X146492285Y-122107142D01*
X146792285Y-122750000D01*
X147092285Y-122107142D01*
X147092285Y-123007142D01*
X147478000Y-122750000D02*
X147906571Y-122750000D01*
X147392285Y-123007142D02*
X147692285Y-122107142D01*
X147992285Y-123007142D01*
X148249428Y-122192857D02*
X148292285Y-122150000D01*
X148378000Y-122107142D01*
X148592285Y-122107142D01*
X148678000Y-122150000D01*
X148720857Y-122192857D01*
X148763714Y-122278571D01*
X148763714Y-122364285D01*
X148720857Y-122492857D01*
X148206571Y-123007142D01*
X148763714Y-123007142D01*
X146492285Y-125507142D02*
X146492285Y-124607142D01*
X146792285Y-125250000D01*
X147092285Y-124607142D01*
X147092285Y-125507142D01*
X147478000Y-125250000D02*
X147906571Y-125250000D01*
X147392285Y-125507142D02*
X147692285Y-124607142D01*
X147992285Y-125507142D01*
X148206571Y-124607142D02*
X148763714Y-124607142D01*
X148463714Y-124950000D01*
X148592285Y-124950000D01*
X148678000Y-124992857D01*
X148720857Y-125035714D01*
X148763714Y-125121428D01*
X148763714Y-125335714D01*
X148720857Y-125421428D01*
X148678000Y-125464285D01*
X148592285Y-125507142D01*
X148335142Y-125507142D01*
X148249428Y-125464285D01*
X148206571Y-125421428D01*
X146492285Y-128107142D02*
X146492285Y-127207142D01*
X146792285Y-127850000D01*
X147092285Y-127207142D01*
X147092285Y-128107142D01*
X147478000Y-127850000D02*
X147906571Y-127850000D01*
X147392285Y-128107142D02*
X147692285Y-127207142D01*
X147992285Y-128107142D01*
X148678000Y-127507142D02*
X148678000Y-128107142D01*
X148463714Y-127164285D02*
X148249428Y-127807142D01*
X148806571Y-127807142D01*
X146492285Y-130607142D02*
X146492285Y-129707142D01*
X146792285Y-130350000D01*
X147092285Y-129707142D01*
X147092285Y-130607142D01*
X147478000Y-130350000D02*
X147906571Y-130350000D01*
X147392285Y-130607142D02*
X147692285Y-129707142D01*
X147992285Y-130607142D01*
X148720857Y-129707142D02*
X148292285Y-129707142D01*
X148249428Y-130135714D01*
X148292285Y-130092857D01*
X148378000Y-130050000D01*
X148592285Y-130050000D01*
X148678000Y-130092857D01*
X148720857Y-130135714D01*
X148763714Y-130221428D01*
X148763714Y-130435714D01*
X148720857Y-130521428D01*
X148678000Y-130564285D01*
X148592285Y-130607142D01*
X148378000Y-130607142D01*
X148292285Y-130564285D01*
X148249428Y-130521428D01*
X146492285Y-133207142D02*
X146492285Y-132307142D01*
X146792285Y-132950000D01*
X147092285Y-132307142D01*
X147092285Y-133207142D01*
X147478000Y-132950000D02*
X147906571Y-132950000D01*
X147392285Y-133207142D02*
X147692285Y-132307142D01*
X147992285Y-133207142D01*
X148678000Y-132307142D02*
X148506571Y-132307142D01*
X148420857Y-132350000D01*
X148378000Y-132392857D01*
X148292285Y-132521428D01*
X148249428Y-132692857D01*
X148249428Y-133035714D01*
X148292285Y-133121428D01*
X148335142Y-133164285D01*
X148420857Y-133207142D01*
X148592285Y-133207142D01*
X148678000Y-133164285D01*
X148720857Y-133121428D01*
X148763714Y-133035714D01*
X148763714Y-132821428D01*
X148720857Y-132735714D01*
X148678000Y-132692857D01*
X148592285Y-132650000D01*
X148420857Y-132650000D01*
X148335142Y-132692857D01*
X148292285Y-132735714D01*
X148249428Y-132821428D01*
X146492285Y-135707142D02*
X146492285Y-134807142D01*
X146792285Y-135450000D01*
X147092285Y-134807142D01*
X147092285Y-135707142D01*
X147478000Y-135450000D02*
X147906571Y-135450000D01*
X147392285Y-135707142D02*
X147692285Y-134807142D01*
X147992285Y-135707142D01*
X148206571Y-134807142D02*
X148806571Y-134807142D01*
X148420857Y-135707142D01*
X146492285Y-138307142D02*
X146492285Y-137407142D01*
X146792285Y-138050000D01*
X147092285Y-137407142D01*
X147092285Y-138307142D01*
X147478000Y-138050000D02*
X147906571Y-138050000D01*
X147392285Y-138307142D02*
X147692285Y-137407142D01*
X147992285Y-138307142D01*
X148420857Y-137792857D02*
X148335142Y-137750000D01*
X148292285Y-137707142D01*
X148249428Y-137621428D01*
X148249428Y-137578571D01*
X148292285Y-137492857D01*
X148335142Y-137450000D01*
X148420857Y-137407142D01*
X148592285Y-137407142D01*
X148678000Y-137450000D01*
X148720857Y-137492857D01*
X148763714Y-137578571D01*
X148763714Y-137621428D01*
X148720857Y-137707142D01*
X148678000Y-137750000D01*
X148592285Y-137792857D01*
X148420857Y-137792857D01*
X148335142Y-137835714D01*
X148292285Y-137878571D01*
X148249428Y-137964285D01*
X148249428Y-138135714D01*
X148292285Y-138221428D01*
X148335142Y-138264285D01*
X148420857Y-138307142D01*
X148592285Y-138307142D01*
X148678000Y-138264285D01*
X148720857Y-138221428D01*
X148763714Y-138135714D01*
X148763714Y-137964285D01*
X148720857Y-137878571D01*
X148678000Y-137835714D01*
X148592285Y-137792857D01*
X146492285Y-140807142D02*
X146492285Y-139907142D01*
X146792285Y-140550000D01*
X147092285Y-139907142D01*
X147092285Y-140807142D01*
X147478000Y-140550000D02*
X147906571Y-140550000D01*
X147392285Y-140807142D02*
X147692285Y-139907142D01*
X147992285Y-140807142D01*
X148335142Y-140807142D02*
X148506571Y-140807142D01*
X148592285Y-140764285D01*
X148635142Y-140721428D01*
X148720857Y-140592857D01*
X148763714Y-140421428D01*
X148763714Y-140078571D01*
X148720857Y-139992857D01*
X148678000Y-139950000D01*
X148592285Y-139907142D01*
X148420857Y-139907142D01*
X148335142Y-139950000D01*
X148292285Y-139992857D01*
X148249428Y-140078571D01*
X148249428Y-140292857D01*
X148292285Y-140378571D01*
X148335142Y-140421428D01*
X148420857Y-140464285D01*
X148592285Y-140464285D01*
X148678000Y-140421428D01*
X148720857Y-140378571D01*
X148763714Y-140292857D01*
X146492285Y-143407142D02*
X146492285Y-142507142D01*
X146792285Y-143150000D01*
X147092285Y-142507142D01*
X147092285Y-143407142D01*
X147478000Y-143150000D02*
X147906571Y-143150000D01*
X147392285Y-143407142D02*
X147692285Y-142507142D01*
X147992285Y-143407142D01*
X148763714Y-143407142D02*
X148249428Y-143407142D01*
X148506571Y-143407142D02*
X148506571Y-142507142D01*
X148420857Y-142635714D01*
X148335142Y-142721428D01*
X148249428Y-142764285D01*
X149320857Y-142507142D02*
X149406571Y-142507142D01*
X149492285Y-142550000D01*
X149535142Y-142592857D01*
X149578000Y-142678571D01*
X149620857Y-142850000D01*
X149620857Y-143064285D01*
X149578000Y-143235714D01*
X149535142Y-143321428D01*
X149492285Y-143364285D01*
X149406571Y-143407142D01*
X149320857Y-143407142D01*
X149235142Y-143364285D01*
X149192285Y-143321428D01*
X149149428Y-143235714D01*
X149106571Y-143064285D01*
X149106571Y-142850000D01*
X149149428Y-142678571D01*
X149192285Y-142592857D01*
X149235142Y-142550000D01*
X149320857Y-142507142D01*
X146492285Y-145907142D02*
X146492285Y-145007142D01*
X146792285Y-145650000D01*
X147092285Y-145007142D01*
X147092285Y-145907142D01*
X147478000Y-145650000D02*
X147906571Y-145650000D01*
X147392285Y-145907142D02*
X147692285Y-145007142D01*
X147992285Y-145907142D01*
X148763714Y-145907142D02*
X148249428Y-145907142D01*
X148506571Y-145907142D02*
X148506571Y-145007142D01*
X148420857Y-145135714D01*
X148335142Y-145221428D01*
X148249428Y-145264285D01*
X149620857Y-145907142D02*
X149106571Y-145907142D01*
X149363714Y-145907142D02*
X149363714Y-145007142D01*
X149278000Y-145135714D01*
X149192285Y-145221428D01*
X149106571Y-145264285D01*
D11*
X134500000Y-134400000D02*
X127400000Y-134400000D01*
X134500000Y-137700000D02*
X134500000Y-134400000D01*
X127400000Y-137700000D02*
X134500000Y-137700000D01*
X127400000Y-134400000D02*
X127400000Y-137700000D01*
D12*
X138250571Y-146007142D02*
X138250571Y-145107142D01*
X138550571Y-145750000D01*
X138850571Y-145107142D01*
X138850571Y-146007142D01*
X139279142Y-146007142D02*
X139279142Y-145107142D01*
X139493428Y-145107142D01*
X139622000Y-145150000D01*
X139707714Y-145235714D01*
X139750571Y-145321428D01*
X139793428Y-145492857D01*
X139793428Y-145621428D01*
X139750571Y-145792857D01*
X139707714Y-145878571D01*
X139622000Y-145964285D01*
X139493428Y-146007142D01*
X139279142Y-146007142D01*
X140093428Y-145107142D02*
X140693428Y-145107142D01*
X140307714Y-146007142D01*
X138764857Y-147650000D02*
X138679142Y-147607142D01*
X138550571Y-147607142D01*
X138422000Y-147650000D01*
X138336285Y-147735714D01*
X138293428Y-147821428D01*
X138250571Y-147992857D01*
X138250571Y-148121428D01*
X138293428Y-148292857D01*
X138336285Y-148378571D01*
X138422000Y-148464285D01*
X138550571Y-148507142D01*
X138636285Y-148507142D01*
X138764857Y-148464285D01*
X138807714Y-148421428D01*
X138807714Y-148121428D01*
X138636285Y-148121428D01*
X139193428Y-148507142D02*
X139193428Y-147607142D01*
X139707714Y-148507142D01*
X139707714Y-147607142D01*
X140136285Y-148507142D02*
X140136285Y-147607142D01*
X140350571Y-147607142D01*
X140479142Y-147650000D01*
X140564857Y-147735714D01*
X140607714Y-147821428D01*
X140650571Y-147992857D01*
X140650571Y-148121428D01*
X140607714Y-148292857D01*
X140564857Y-148378571D01*
X140479142Y-148464285D01*
X140350571Y-148507142D01*
X140136285Y-148507142D01*
X110800000Y-50864285D02*
X111485714Y-50864285D01*
X111142857Y-51207142D02*
X111142857Y-50521428D01*
X112385714Y-51207142D02*
X111871428Y-51207142D01*
X112128571Y-51207142D02*
X112128571Y-50307142D01*
X112042857Y-50435714D01*
X111957142Y-50521428D01*
X111871428Y-50564285D01*
X112771428Y-51121428D02*
X112814285Y-51164285D01*
X112771428Y-51207142D01*
X112728571Y-51164285D01*
X112771428Y-51121428D01*
X112771428Y-51207142D01*
X113328571Y-50692857D02*
X113242857Y-50650000D01*
X113200000Y-50607142D01*
X113157142Y-50521428D01*
X113157142Y-50478571D01*
X113200000Y-50392857D01*
X113242857Y-50350000D01*
X113328571Y-50307142D01*
X113500000Y-50307142D01*
X113585714Y-50350000D01*
X113628571Y-50392857D01*
X113671428Y-50478571D01*
X113671428Y-50521428D01*
X113628571Y-50607142D01*
X113585714Y-50650000D01*
X113500000Y-50692857D01*
X113328571Y-50692857D01*
X113242857Y-50735714D01*
X113200000Y-50778571D01*
X113157142Y-50864285D01*
X113157142Y-51035714D01*
X113200000Y-51121428D01*
X113242857Y-51164285D01*
X113328571Y-51207142D01*
X113500000Y-51207142D01*
X113585714Y-51164285D01*
X113628571Y-51121428D01*
X113671428Y-51035714D01*
X113671428Y-50864285D01*
X113628571Y-50778571D01*
X113585714Y-50735714D01*
X113500000Y-50692857D01*
X113928571Y-50307142D02*
X114228571Y-51207142D01*
X114528571Y-50307142D01*
D13*
X55038095Y-100700000D02*
X54942857Y-100652380D01*
X54800000Y-100652380D01*
X54657142Y-100700000D01*
X54561904Y-100795238D01*
X54514285Y-100890476D01*
X54466666Y-101080952D01*
X54466666Y-101223809D01*
X54514285Y-101414285D01*
X54561904Y-101509523D01*
X54657142Y-101604761D01*
X54800000Y-101652380D01*
X54895238Y-101652380D01*
X55038095Y-101604761D01*
X55085714Y-101557142D01*
X55085714Y-101223809D01*
X54895238Y-101223809D01*
X55514285Y-101652380D02*
X55514285Y-100652380D01*
X56085714Y-101652380D01*
X56085714Y-100652380D01*
X56561904Y-101652380D02*
X56561904Y-100652380D01*
X56800000Y-100652380D01*
X56942857Y-100700000D01*
X57038095Y-100795238D01*
X57085714Y-100890476D01*
X57133333Y-101080952D01*
X57133333Y-101223809D01*
X57085714Y-101414285D01*
X57038095Y-101509523D01*
X56942857Y-101604761D01*
X56800000Y-101652380D01*
X56561904Y-101652380D01*
D11*
X59800000Y-100300000D02*
X59800000Y-99300000D01*
X51300000Y-100300000D02*
X59800000Y-100300000D01*
X51300000Y-99300000D02*
X51300000Y-100300000D01*
D12*
X74242857Y-94864285D02*
X74928571Y-94864285D01*
X74585714Y-95207142D02*
X74585714Y-94521428D01*
X75785714Y-94307142D02*
X75357142Y-94307142D01*
X75314285Y-94735714D01*
X75357142Y-94692857D01*
X75442857Y-94650000D01*
X75657142Y-94650000D01*
X75742857Y-94692857D01*
X75785714Y-94735714D01*
X75828571Y-94821428D01*
X75828571Y-95035714D01*
X75785714Y-95121428D01*
X75742857Y-95164285D01*
X75657142Y-95207142D01*
X75442857Y-95207142D01*
X75357142Y-95164285D01*
X75314285Y-95121428D01*
X76085714Y-94307142D02*
X76385714Y-95207142D01*
X76685714Y-94307142D01*
X71378571Y-99464285D02*
X71507142Y-99507142D01*
X71721428Y-99507142D01*
X71807142Y-99464285D01*
X71850000Y-99421428D01*
X71892857Y-99335714D01*
X71892857Y-99250000D01*
X71850000Y-99164285D01*
X71807142Y-99121428D01*
X71721428Y-99078571D01*
X71550000Y-99035714D01*
X71464285Y-98992857D01*
X71421428Y-98950000D01*
X71378571Y-98864285D01*
X71378571Y-98778571D01*
X71421428Y-98692857D01*
X71464285Y-98650000D01*
X71550000Y-98607142D01*
X71764285Y-98607142D01*
X71892857Y-98650000D01*
X72792857Y-99421428D02*
X72750000Y-99464285D01*
X72621428Y-99507142D01*
X72535714Y-99507142D01*
X72407142Y-99464285D01*
X72321428Y-99378571D01*
X72278571Y-99292857D01*
X72235714Y-99121428D01*
X72235714Y-98992857D01*
X72278571Y-98821428D01*
X72321428Y-98735714D01*
X72407142Y-98650000D01*
X72535714Y-98607142D01*
X72621428Y-98607142D01*
X72750000Y-98650000D01*
X72792857Y-98692857D01*
X73607142Y-99507142D02*
X73178571Y-99507142D01*
X73178571Y-98607142D01*
X73907142Y-99507142D02*
X73907142Y-98607142D01*
X74421428Y-99507142D02*
X74035714Y-98992857D01*
X74421428Y-98607142D02*
X73907142Y-99121428D01*
X69357142Y-95164285D02*
X69485714Y-95207142D01*
X69700000Y-95207142D01*
X69785714Y-95164285D01*
X69828571Y-95121428D01*
X69871428Y-95035714D01*
X69871428Y-94950000D01*
X69828571Y-94864285D01*
X69785714Y-94821428D01*
X69700000Y-94778571D01*
X69528571Y-94735714D01*
X69442857Y-94692857D01*
X69400000Y-94650000D01*
X69357142Y-94564285D01*
X69357142Y-94478571D01*
X69400000Y-94392857D01*
X69442857Y-94350000D01*
X69528571Y-94307142D01*
X69742857Y-94307142D01*
X69871428Y-94350000D01*
X70257142Y-95207142D02*
X70257142Y-94307142D01*
X70685714Y-95207142D02*
X70685714Y-94307142D01*
X71200000Y-95207142D01*
X71200000Y-94307142D01*
X66157142Y-99564285D02*
X66285714Y-99607142D01*
X66500000Y-99607142D01*
X66585714Y-99564285D01*
X66628571Y-99521428D01*
X66671428Y-99435714D01*
X66671428Y-99350000D01*
X66628571Y-99264285D01*
X66585714Y-99221428D01*
X66500000Y-99178571D01*
X66328571Y-99135714D01*
X66242857Y-99092857D01*
X66200000Y-99050000D01*
X66157142Y-98964285D01*
X66157142Y-98878571D01*
X66200000Y-98792857D01*
X66242857Y-98750000D01*
X66328571Y-98707142D01*
X66542857Y-98707142D01*
X66671428Y-98750000D01*
X67228571Y-98707142D02*
X67400000Y-98707142D01*
X67485714Y-98750000D01*
X67571428Y-98835714D01*
X67614285Y-99007142D01*
X67614285Y-99307142D01*
X67571428Y-99478571D01*
X67485714Y-99564285D01*
X67400000Y-99607142D01*
X67228571Y-99607142D01*
X67142857Y-99564285D01*
X67057142Y-99478571D01*
X67014285Y-99307142D01*
X67014285Y-99007142D01*
X67057142Y-98835714D01*
X67142857Y-98750000D01*
X67228571Y-98707142D01*
X68000000Y-98707142D02*
X68000000Y-99435714D01*
X68042857Y-99521428D01*
X68085714Y-99564285D01*
X68171428Y-99607142D01*
X68342857Y-99607142D01*
X68428571Y-99564285D01*
X68471428Y-99521428D01*
X68514285Y-99435714D01*
X68514285Y-98707142D01*
X68814285Y-98707142D02*
X69328571Y-98707142D01*
X69071428Y-99607142D02*
X69071428Y-98707142D01*
X64514285Y-94450000D02*
X64428571Y-94407142D01*
X64300000Y-94407142D01*
X64171428Y-94450000D01*
X64085714Y-94535714D01*
X64042857Y-94621428D01*
X64000000Y-94792857D01*
X64000000Y-94921428D01*
X64042857Y-95092857D01*
X64085714Y-95178571D01*
X64171428Y-95264285D01*
X64300000Y-95307142D01*
X64385714Y-95307142D01*
X64514285Y-95264285D01*
X64557142Y-95221428D01*
X64557142Y-94921428D01*
X64385714Y-94921428D01*
X64942857Y-95307142D02*
X64942857Y-94407142D01*
X65457142Y-95307142D01*
X65457142Y-94407142D01*
X65885714Y-95307142D02*
X65885714Y-94407142D01*
X66100000Y-94407142D01*
X66228571Y-94450000D01*
X66314285Y-94535714D01*
X66357142Y-94621428D01*
X66400000Y-94792857D01*
X66400000Y-94921428D01*
X66357142Y-95092857D01*
X66314285Y-95178571D01*
X66228571Y-95264285D01*
X66100000Y-95307142D01*
X65885714Y-95307142D01*
X50493428Y-110064285D02*
X51179142Y-110064285D01*
X50836285Y-110407142D02*
X50836285Y-109721428D01*
X52036285Y-109507142D02*
X51607714Y-109507142D01*
X51564857Y-109935714D01*
X51607714Y-109892857D01*
X51693428Y-109850000D01*
X51907714Y-109850000D01*
X51993428Y-109892857D01*
X52036285Y-109935714D01*
X52079142Y-110021428D01*
X52079142Y-110235714D01*
X52036285Y-110321428D01*
X51993428Y-110364285D01*
X51907714Y-110407142D01*
X51693428Y-110407142D01*
X51607714Y-110364285D01*
X51564857Y-110321428D01*
X52336285Y-109507142D02*
X52636285Y-110407142D01*
X52936285Y-109507142D01*
X50964857Y-112807142D02*
X50964857Y-111907142D01*
X51307714Y-111907142D01*
X51393428Y-111950000D01*
X51436285Y-111992857D01*
X51479142Y-112078571D01*
X51479142Y-112207142D01*
X51436285Y-112292857D01*
X51393428Y-112335714D01*
X51307714Y-112378571D01*
X50964857Y-112378571D01*
X51864857Y-112807142D02*
X51864857Y-111907142D01*
X51864857Y-112335714D02*
X52379142Y-112335714D01*
X52379142Y-112807142D02*
X52379142Y-111907142D01*
X52807714Y-112807142D02*
X52807714Y-111907142D01*
X51093428Y-114196000D02*
X52122000Y-114196000D01*
X51222000Y-114507142D02*
X51436285Y-115407142D01*
X51607714Y-114764285D01*
X51779142Y-115407142D01*
X51993428Y-114507142D01*
X52122000Y-114196000D02*
X53022000Y-114196000D01*
X52850571Y-115407142D02*
X52550571Y-114978571D01*
X52336285Y-115407142D02*
X52336285Y-114507142D01*
X52679142Y-114507142D01*
X52764857Y-114550000D01*
X52807714Y-114592857D01*
X52850571Y-114678571D01*
X52850571Y-114807142D01*
X52807714Y-114892857D01*
X52764857Y-114935714D01*
X52679142Y-114978571D01*
X52336285Y-114978571D01*
X51222000Y-116696000D02*
X52122000Y-116696000D01*
X51950571Y-117907142D02*
X51650571Y-117478571D01*
X51436285Y-117907142D02*
X51436285Y-117007142D01*
X51779142Y-117007142D01*
X51864857Y-117050000D01*
X51907714Y-117092857D01*
X51950571Y-117178571D01*
X51950571Y-117307142D01*
X51907714Y-117392857D01*
X51864857Y-117435714D01*
X51779142Y-117478571D01*
X51436285Y-117478571D01*
X52122000Y-116696000D02*
X53022000Y-116696000D01*
X52336285Y-117907142D02*
X52336285Y-117007142D01*
X52550571Y-117007142D01*
X52679142Y-117050000D01*
X52764857Y-117135714D01*
X52807714Y-117221428D01*
X52850571Y-117392857D01*
X52850571Y-117521428D01*
X52807714Y-117692857D01*
X52764857Y-117778571D01*
X52679142Y-117864285D01*
X52550571Y-117907142D01*
X52336285Y-117907142D01*
X51264857Y-119196000D02*
X52164857Y-119196000D01*
X51993428Y-120321428D02*
X51950571Y-120364285D01*
X51822000Y-120407142D01*
X51736285Y-120407142D01*
X51607714Y-120364285D01*
X51522000Y-120278571D01*
X51479142Y-120192857D01*
X51436285Y-120021428D01*
X51436285Y-119892857D01*
X51479142Y-119721428D01*
X51522000Y-119635714D01*
X51607714Y-119550000D01*
X51736285Y-119507142D01*
X51822000Y-119507142D01*
X51950571Y-119550000D01*
X51993428Y-119592857D01*
X52164857Y-119196000D02*
X53022000Y-119196000D01*
X52336285Y-120364285D02*
X52464857Y-120407142D01*
X52679142Y-120407142D01*
X52764857Y-120364285D01*
X52807714Y-120321428D01*
X52850571Y-120235714D01*
X52850571Y-120150000D01*
X52807714Y-120064285D01*
X52764857Y-120021428D01*
X52679142Y-119978571D01*
X52507714Y-119935714D01*
X52422000Y-119892857D01*
X52379142Y-119850000D01*
X52336285Y-119764285D01*
X52336285Y-119678571D01*
X52379142Y-119592857D01*
X52422000Y-119550000D01*
X52507714Y-119507142D01*
X52722000Y-119507142D01*
X52850571Y-119550000D01*
X51479142Y-123007142D02*
X51479142Y-122107142D01*
X51693428Y-122107142D01*
X51822000Y-122150000D01*
X51907714Y-122235714D01*
X51950571Y-122321428D01*
X51993428Y-122492857D01*
X51993428Y-122621428D01*
X51950571Y-122792857D01*
X51907714Y-122878571D01*
X51822000Y-122964285D01*
X51693428Y-123007142D01*
X51479142Y-123007142D01*
X52550571Y-122107142D02*
X52636285Y-122107142D01*
X52722000Y-122150000D01*
X52764857Y-122192857D01*
X52807714Y-122278571D01*
X52850571Y-122450000D01*
X52850571Y-122664285D01*
X52807714Y-122835714D01*
X52764857Y-122921428D01*
X52722000Y-122964285D01*
X52636285Y-123007142D01*
X52550571Y-123007142D01*
X52464857Y-122964285D01*
X52422000Y-122921428D01*
X52379142Y-122835714D01*
X52336285Y-122664285D01*
X52336285Y-122450000D01*
X52379142Y-122278571D01*
X52422000Y-122192857D01*
X52464857Y-122150000D01*
X52550571Y-122107142D01*
X51479142Y-125607142D02*
X51479142Y-124707142D01*
X51693428Y-124707142D01*
X51822000Y-124750000D01*
X51907714Y-124835714D01*
X51950571Y-124921428D01*
X51993428Y-125092857D01*
X51993428Y-125221428D01*
X51950571Y-125392857D01*
X51907714Y-125478571D01*
X51822000Y-125564285D01*
X51693428Y-125607142D01*
X51479142Y-125607142D01*
X52850571Y-125607142D02*
X52336285Y-125607142D01*
X52593428Y-125607142D02*
X52593428Y-124707142D01*
X52507714Y-124835714D01*
X52422000Y-124921428D01*
X52336285Y-124964285D01*
X51479142Y-128107142D02*
X51479142Y-127207142D01*
X51693428Y-127207142D01*
X51822000Y-127250000D01*
X51907714Y-127335714D01*
X51950571Y-127421428D01*
X51993428Y-127592857D01*
X51993428Y-127721428D01*
X51950571Y-127892857D01*
X51907714Y-127978571D01*
X51822000Y-128064285D01*
X51693428Y-128107142D01*
X51479142Y-128107142D01*
X52336285Y-127292857D02*
X52379142Y-127250000D01*
X52464857Y-127207142D01*
X52679142Y-127207142D01*
X52764857Y-127250000D01*
X52807714Y-127292857D01*
X52850571Y-127378571D01*
X52850571Y-127464285D01*
X52807714Y-127592857D01*
X52293428Y-128107142D01*
X52850571Y-128107142D01*
X51479142Y-130607142D02*
X51479142Y-129707142D01*
X51693428Y-129707142D01*
X51822000Y-129750000D01*
X51907714Y-129835714D01*
X51950571Y-129921428D01*
X51993428Y-130092857D01*
X51993428Y-130221428D01*
X51950571Y-130392857D01*
X51907714Y-130478571D01*
X51822000Y-130564285D01*
X51693428Y-130607142D01*
X51479142Y-130607142D01*
X52293428Y-129707142D02*
X52850571Y-129707142D01*
X52550571Y-130050000D01*
X52679142Y-130050000D01*
X52764857Y-130092857D01*
X52807714Y-130135714D01*
X52850571Y-130221428D01*
X52850571Y-130435714D01*
X52807714Y-130521428D01*
X52764857Y-130564285D01*
X52679142Y-130607142D01*
X52422000Y-130607142D01*
X52336285Y-130564285D01*
X52293428Y-130521428D01*
X51479142Y-133107142D02*
X51479142Y-132207142D01*
X51693428Y-132207142D01*
X51822000Y-132250000D01*
X51907714Y-132335714D01*
X51950571Y-132421428D01*
X51993428Y-132592857D01*
X51993428Y-132721428D01*
X51950571Y-132892857D01*
X51907714Y-132978571D01*
X51822000Y-133064285D01*
X51693428Y-133107142D01*
X51479142Y-133107142D01*
X52764857Y-132507142D02*
X52764857Y-133107142D01*
X52550571Y-132164285D02*
X52336285Y-132807142D01*
X52893428Y-132807142D01*
X51479142Y-135707142D02*
X51479142Y-134807142D01*
X51693428Y-134807142D01*
X51822000Y-134850000D01*
X51907714Y-134935714D01*
X51950571Y-135021428D01*
X51993428Y-135192857D01*
X51993428Y-135321428D01*
X51950571Y-135492857D01*
X51907714Y-135578571D01*
X51822000Y-135664285D01*
X51693428Y-135707142D01*
X51479142Y-135707142D01*
X52807714Y-134807142D02*
X52379142Y-134807142D01*
X52336285Y-135235714D01*
X52379142Y-135192857D01*
X52464857Y-135150000D01*
X52679142Y-135150000D01*
X52764857Y-135192857D01*
X52807714Y-135235714D01*
X52850571Y-135321428D01*
X52850571Y-135535714D01*
X52807714Y-135621428D01*
X52764857Y-135664285D01*
X52679142Y-135707142D01*
X52464857Y-135707142D01*
X52379142Y-135664285D01*
X52336285Y-135621428D01*
X51479142Y-138207142D02*
X51479142Y-137307142D01*
X51693428Y-137307142D01*
X51822000Y-137350000D01*
X51907714Y-137435714D01*
X51950571Y-137521428D01*
X51993428Y-137692857D01*
X51993428Y-137821428D01*
X51950571Y-137992857D01*
X51907714Y-138078571D01*
X51822000Y-138164285D01*
X51693428Y-138207142D01*
X51479142Y-138207142D01*
X52764857Y-137307142D02*
X52593428Y-137307142D01*
X52507714Y-137350000D01*
X52464857Y-137392857D01*
X52379142Y-137521428D01*
X52336285Y-137692857D01*
X52336285Y-138035714D01*
X52379142Y-138121428D01*
X52422000Y-138164285D01*
X52507714Y-138207142D01*
X52679142Y-138207142D01*
X52764857Y-138164285D01*
X52807714Y-138121428D01*
X52850571Y-138035714D01*
X52850571Y-137821428D01*
X52807714Y-137735714D01*
X52764857Y-137692857D01*
X52679142Y-137650000D01*
X52507714Y-137650000D01*
X52422000Y-137692857D01*
X52379142Y-137735714D01*
X52336285Y-137821428D01*
X51479142Y-140807142D02*
X51479142Y-139907142D01*
X51693428Y-139907142D01*
X51822000Y-139950000D01*
X51907714Y-140035714D01*
X51950571Y-140121428D01*
X51993428Y-140292857D01*
X51993428Y-140421428D01*
X51950571Y-140592857D01*
X51907714Y-140678571D01*
X51822000Y-140764285D01*
X51693428Y-140807142D01*
X51479142Y-140807142D01*
X52293428Y-139907142D02*
X52893428Y-139907142D01*
X52507714Y-140807142D01*
X50450571Y-142196000D02*
X51350571Y-142196000D01*
X51179142Y-143407142D02*
X50879142Y-142978571D01*
X50664857Y-143407142D02*
X50664857Y-142507142D01*
X51007714Y-142507142D01*
X51093428Y-142550000D01*
X51136285Y-142592857D01*
X51179142Y-142678571D01*
X51179142Y-142807142D01*
X51136285Y-142892857D01*
X51093428Y-142935714D01*
X51007714Y-142978571D01*
X50664857Y-142978571D01*
X51350571Y-142196000D02*
X52164857Y-142196000D01*
X51564857Y-142935714D02*
X51864857Y-142935714D01*
X51993428Y-143407142D02*
X51564857Y-143407142D01*
X51564857Y-142507142D01*
X51993428Y-142507142D01*
X52164857Y-142196000D02*
X53022000Y-142196000D01*
X52336285Y-143364285D02*
X52464857Y-143407142D01*
X52679142Y-143407142D01*
X52764857Y-143364285D01*
X52807714Y-143321428D01*
X52850571Y-143235714D01*
X52850571Y-143150000D01*
X52807714Y-143064285D01*
X52764857Y-143021428D01*
X52679142Y-142978571D01*
X52507714Y-142935714D01*
X52422000Y-142892857D01*
X52379142Y-142850000D01*
X52336285Y-142764285D01*
X52336285Y-142678571D01*
X52379142Y-142592857D01*
X52422000Y-142550000D01*
X52507714Y-142507142D01*
X52722000Y-142507142D01*
X52850571Y-142550000D01*
X50964857Y-144907142D02*
X51264857Y-145807142D01*
X51564857Y-144907142D01*
X51864857Y-145807142D02*
X51864857Y-144907142D01*
X52293428Y-145807142D02*
X52293428Y-144907142D01*
X52807714Y-145807142D01*
X52807714Y-144907142D01*
D11*
X68900000Y-144000000D02*
X67200000Y-144000000D01*
X68900000Y-135100000D02*
X68900000Y-144000000D01*
X74600000Y-132300000D02*
X66300000Y-132300000D01*
X74600000Y-135100000D02*
X74600000Y-132300000D01*
X66300000Y-135100000D02*
X74600000Y-135100000D01*
X66300000Y-132300000D02*
X66300000Y-135100000D01*
D12*
X66421428Y-143050000D02*
X66464285Y-143092857D01*
X66507142Y-143221428D01*
X66507142Y-143307142D01*
X66464285Y-143435714D01*
X66378571Y-143521428D01*
X66292857Y-143564285D01*
X66121428Y-143607142D01*
X65992857Y-143607142D01*
X65821428Y-143564285D01*
X65735714Y-143521428D01*
X65650000Y-143435714D01*
X65607142Y-143307142D01*
X65607142Y-143221428D01*
X65650000Y-143092857D01*
X65692857Y-143050000D01*
X66464285Y-142707142D02*
X66507142Y-142578571D01*
X66507142Y-142364285D01*
X66464285Y-142278571D01*
X66421428Y-142235714D01*
X66335714Y-142192857D01*
X66250000Y-142192857D01*
X66164285Y-142235714D01*
X66121428Y-142278571D01*
X66078571Y-142364285D01*
X66035714Y-142535714D01*
X65992857Y-142621428D01*
X65950000Y-142664285D01*
X65864285Y-142707142D01*
X65778571Y-142707142D01*
X65692857Y-142664285D01*
X65650000Y-142621428D01*
X65607142Y-142535714D01*
X65607142Y-142321428D01*
X65650000Y-142192857D01*
X64907142Y-143071428D02*
X64478571Y-143371428D01*
X64907142Y-143585714D02*
X64007142Y-143585714D01*
X64007142Y-143242857D01*
X64050000Y-143157142D01*
X64092857Y-143114285D01*
X64178571Y-143071428D01*
X64307142Y-143071428D01*
X64392857Y-143114285D01*
X64435714Y-143157142D01*
X64478571Y-143242857D01*
X64478571Y-143585714D01*
X64907142Y-142685714D02*
X64007142Y-142685714D01*
X64007142Y-142471428D01*
X64050000Y-142342857D01*
X64135714Y-142257142D01*
X64221428Y-142214285D01*
X64392857Y-142171428D01*
X64521428Y-142171428D01*
X64692857Y-142214285D01*
X64778571Y-142257142D01*
X64864285Y-142342857D01*
X64907142Y-142471428D01*
X64907142Y-142685714D01*
X62507142Y-143635714D02*
X63407142Y-143421428D01*
X62764285Y-143250000D01*
X63407142Y-143078571D01*
X62507142Y-142864285D01*
X63407142Y-142007142D02*
X62978571Y-142307142D01*
X63407142Y-142521428D02*
X62507142Y-142521428D01*
X62507142Y-142178571D01*
X62550000Y-142092857D01*
X62592857Y-142050000D01*
X62678571Y-142007142D01*
X62807142Y-142007142D01*
X62892857Y-142050000D01*
X62935714Y-142092857D01*
X62978571Y-142178571D01*
X62978571Y-142521428D01*
X59249428Y-137950000D02*
X59678000Y-137950000D01*
X59163714Y-138207142D02*
X59463714Y-137307142D01*
X59763714Y-138207142D01*
X60535142Y-138207142D02*
X60020857Y-138207142D01*
X60278000Y-138207142D02*
X60278000Y-137307142D01*
X60192285Y-137435714D01*
X60106571Y-137521428D01*
X60020857Y-137564285D01*
X61392285Y-138207142D02*
X60878000Y-138207142D01*
X61135142Y-138207142D02*
X61135142Y-137307142D01*
X61049428Y-137435714D01*
X60963714Y-137521428D01*
X60878000Y-137564285D01*
X59249428Y-140550000D02*
X59678000Y-140550000D01*
X59163714Y-140807142D02*
X59463714Y-139907142D01*
X59763714Y-140807142D01*
X60535142Y-140807142D02*
X60020857Y-140807142D01*
X60278000Y-140807142D02*
X60278000Y-139907142D01*
X60192285Y-140035714D01*
X60106571Y-140121428D01*
X60020857Y-140164285D01*
X60878000Y-139992857D02*
X60920857Y-139950000D01*
X61006571Y-139907142D01*
X61220857Y-139907142D01*
X61306571Y-139950000D01*
X61349428Y-139992857D01*
X61392285Y-140078571D01*
X61392285Y-140164285D01*
X61349428Y-140292857D01*
X60835142Y-140807142D01*
X61392285Y-140807142D01*
X59249428Y-143050000D02*
X59678000Y-143050000D01*
X59163714Y-143307142D02*
X59463714Y-142407142D01*
X59763714Y-143307142D01*
X60535142Y-143307142D02*
X60020857Y-143307142D01*
X60278000Y-143307142D02*
X60278000Y-142407142D01*
X60192285Y-142535714D01*
X60106571Y-142621428D01*
X60020857Y-142664285D01*
X60835142Y-142407142D02*
X61392285Y-142407142D01*
X61092285Y-142750000D01*
X61220857Y-142750000D01*
X61306571Y-142792857D01*
X61349428Y-142835714D01*
X61392285Y-142921428D01*
X61392285Y-143135714D01*
X61349428Y-143221428D01*
X61306571Y-143264285D01*
X61220857Y-143307142D01*
X60963714Y-143307142D01*
X60878000Y-143264285D01*
X60835142Y-143221428D01*
X59249428Y-145650000D02*
X59678000Y-145650000D01*
X59163714Y-145907142D02*
X59463714Y-145007142D01*
X59763714Y-145907142D01*
X60535142Y-145907142D02*
X60020857Y-145907142D01*
X60278000Y-145907142D02*
X60278000Y-145007142D01*
X60192285Y-145135714D01*
X60106571Y-145221428D01*
X60020857Y-145264285D01*
X61306571Y-145307142D02*
X61306571Y-145907142D01*
X61092285Y-144964285D02*
X60878000Y-145607142D01*
X61435142Y-145607142D01*
X59249428Y-135450000D02*
X59678000Y-135450000D01*
X59163714Y-135707142D02*
X59463714Y-134807142D01*
X59763714Y-135707142D01*
X60535142Y-135707142D02*
X60020857Y-135707142D01*
X60278000Y-135707142D02*
X60278000Y-134807142D01*
X60192285Y-134935714D01*
X60106571Y-135021428D01*
X60020857Y-135064285D01*
X61092285Y-134807142D02*
X61178000Y-134807142D01*
X61263714Y-134850000D01*
X61306571Y-134892857D01*
X61349428Y-134978571D01*
X61392285Y-135150000D01*
X61392285Y-135364285D01*
X61349428Y-135535714D01*
X61306571Y-135621428D01*
X61263714Y-135664285D01*
X61178000Y-135707142D01*
X61092285Y-135707142D01*
X61006571Y-135664285D01*
X60963714Y-135621428D01*
X60920857Y-135535714D01*
X60878000Y-135364285D01*
X60878000Y-135150000D01*
X60920857Y-134978571D01*
X60963714Y-134892857D01*
X61006571Y-134850000D01*
X61092285Y-134807142D01*
X59249428Y-132850000D02*
X59678000Y-132850000D01*
X59163714Y-133107142D02*
X59463714Y-132207142D01*
X59763714Y-133107142D01*
X60106571Y-133107142D02*
X60278000Y-133107142D01*
X60363714Y-133064285D01*
X60406571Y-133021428D01*
X60492285Y-132892857D01*
X60535142Y-132721428D01*
X60535142Y-132378571D01*
X60492285Y-132292857D01*
X60449428Y-132250000D01*
X60363714Y-132207142D01*
X60192285Y-132207142D01*
X60106571Y-132250000D01*
X60063714Y-132292857D01*
X60020857Y-132378571D01*
X60020857Y-132592857D01*
X60063714Y-132678571D01*
X60106571Y-132721428D01*
X60192285Y-132764285D01*
X60363714Y-132764285D01*
X60449428Y-132721428D01*
X60492285Y-132678571D01*
X60535142Y-132592857D01*
X59249428Y-130350000D02*
X59678000Y-130350000D01*
X59163714Y-130607142D02*
X59463714Y-129707142D01*
X59763714Y-130607142D01*
X60192285Y-130092857D02*
X60106571Y-130050000D01*
X60063714Y-130007142D01*
X60020857Y-129921428D01*
X60020857Y-129878571D01*
X60063714Y-129792857D01*
X60106571Y-129750000D01*
X60192285Y-129707142D01*
X60363714Y-129707142D01*
X60449428Y-129750000D01*
X60492285Y-129792857D01*
X60535142Y-129878571D01*
X60535142Y-129921428D01*
X60492285Y-130007142D01*
X60449428Y-130050000D01*
X60363714Y-130092857D01*
X60192285Y-130092857D01*
X60106571Y-130135714D01*
X60063714Y-130178571D01*
X60020857Y-130264285D01*
X60020857Y-130435714D01*
X60063714Y-130521428D01*
X60106571Y-130564285D01*
X60192285Y-130607142D01*
X60363714Y-130607142D01*
X60449428Y-130564285D01*
X60492285Y-130521428D01*
X60535142Y-130435714D01*
X60535142Y-130264285D01*
X60492285Y-130178571D01*
X60449428Y-130135714D01*
X60363714Y-130092857D01*
X59249428Y-127850000D02*
X59678000Y-127850000D01*
X59163714Y-128107142D02*
X59463714Y-127207142D01*
X59763714Y-128107142D01*
X59978000Y-127207142D02*
X60578000Y-127207142D01*
X60192285Y-128107142D01*
X59249428Y-125250000D02*
X59678000Y-125250000D01*
X59163714Y-125507142D02*
X59463714Y-124607142D01*
X59763714Y-125507142D01*
X60449428Y-124607142D02*
X60278000Y-124607142D01*
X60192285Y-124650000D01*
X60149428Y-124692857D01*
X60063714Y-124821428D01*
X60020857Y-124992857D01*
X60020857Y-125335714D01*
X60063714Y-125421428D01*
X60106571Y-125464285D01*
X60192285Y-125507142D01*
X60363714Y-125507142D01*
X60449428Y-125464285D01*
X60492285Y-125421428D01*
X60535142Y-125335714D01*
X60535142Y-125121428D01*
X60492285Y-125035714D01*
X60449428Y-124992857D01*
X60363714Y-124950000D01*
X60192285Y-124950000D01*
X60106571Y-124992857D01*
X60063714Y-125035714D01*
X60020857Y-125121428D01*
X59249428Y-122750000D02*
X59678000Y-122750000D01*
X59163714Y-123007142D02*
X59463714Y-122107142D01*
X59763714Y-123007142D01*
X60492285Y-122107142D02*
X60063714Y-122107142D01*
X60020857Y-122535714D01*
X60063714Y-122492857D01*
X60149428Y-122450000D01*
X60363714Y-122450000D01*
X60449428Y-122492857D01*
X60492285Y-122535714D01*
X60535142Y-122621428D01*
X60535142Y-122835714D01*
X60492285Y-122921428D01*
X60449428Y-122964285D01*
X60363714Y-123007142D01*
X60149428Y-123007142D01*
X60063714Y-122964285D01*
X60020857Y-122921428D01*
X59249428Y-120150000D02*
X59678000Y-120150000D01*
X59163714Y-120407142D02*
X59463714Y-119507142D01*
X59763714Y-120407142D01*
X60449428Y-119807142D02*
X60449428Y-120407142D01*
X60235142Y-119464285D02*
X60020857Y-120107142D01*
X60578000Y-120107142D01*
X59249428Y-117650000D02*
X59678000Y-117650000D01*
X59163714Y-117907142D02*
X59463714Y-117007142D01*
X59763714Y-117907142D01*
X59978000Y-117007142D02*
X60535142Y-117007142D01*
X60235142Y-117350000D01*
X60363714Y-117350000D01*
X60449428Y-117392857D01*
X60492285Y-117435714D01*
X60535142Y-117521428D01*
X60535142Y-117735714D01*
X60492285Y-117821428D01*
X60449428Y-117864285D01*
X60363714Y-117907142D01*
X60106571Y-117907142D01*
X60020857Y-117864285D01*
X59978000Y-117821428D01*
X59249428Y-115150000D02*
X59678000Y-115150000D01*
X59163714Y-115407142D02*
X59463714Y-114507142D01*
X59763714Y-115407142D01*
X60020857Y-114592857D02*
X60063714Y-114550000D01*
X60149428Y-114507142D01*
X60363714Y-114507142D01*
X60449428Y-114550000D01*
X60492285Y-114592857D01*
X60535142Y-114678571D01*
X60535142Y-114764285D01*
X60492285Y-114892857D01*
X59978000Y-115407142D01*
X60535142Y-115407142D01*
X59249428Y-112550000D02*
X59678000Y-112550000D01*
X59163714Y-112807142D02*
X59463714Y-111907142D01*
X59763714Y-112807142D01*
X60535142Y-112807142D02*
X60020857Y-112807142D01*
X60278000Y-112807142D02*
X60278000Y-111907142D01*
X60192285Y-112035714D01*
X60106571Y-112121428D01*
X60020857Y-112164285D01*
X59249428Y-110150000D02*
X59678000Y-110150000D01*
X59163714Y-110407142D02*
X59463714Y-109507142D01*
X59763714Y-110407142D01*
X60235142Y-109507142D02*
X60320857Y-109507142D01*
X60406571Y-109550000D01*
X60449428Y-109592857D01*
X60492285Y-109678571D01*
X60535142Y-109850000D01*
X60535142Y-110064285D01*
X60492285Y-110235714D01*
X60449428Y-110321428D01*
X60406571Y-110364285D01*
X60320857Y-110407142D01*
X60235142Y-110407142D01*
X60149428Y-110364285D01*
X60106571Y-110321428D01*
X60063714Y-110235714D01*
X60020857Y-110064285D01*
X60020857Y-109850000D01*
X60063714Y-109678571D01*
X60106571Y-109592857D01*
X60149428Y-109550000D01*
X60235142Y-109507142D01*
X59249428Y-148150000D02*
X59678000Y-148150000D01*
X59163714Y-148407142D02*
X59463714Y-147507142D01*
X59763714Y-148407142D01*
X60535142Y-148407142D02*
X60020857Y-148407142D01*
X60278000Y-148407142D02*
X60278000Y-147507142D01*
X60192285Y-147635714D01*
X60106571Y-147721428D01*
X60020857Y-147764285D01*
X61349428Y-147507142D02*
X60920857Y-147507142D01*
X60878000Y-147935714D01*
X60920857Y-147892857D01*
X61006571Y-147850000D01*
X61220857Y-147850000D01*
X61306571Y-147892857D01*
X61349428Y-147935714D01*
X61392285Y-148021428D01*
X61392285Y-148235714D01*
X61349428Y-148321428D01*
X61306571Y-148364285D01*
X61220857Y-148407142D01*
X61006571Y-148407142D01*
X60920857Y-148364285D01*
X60878000Y-148321428D01*
D11*
X100800000Y-63800000D02*
X100800000Y-57900000D01*
X107900000Y-63800000D02*
X100800000Y-63800000D01*
X107900000Y-57900000D02*
X107900000Y-63800000D01*
X100800000Y-57900000D02*
X107900000Y-57900000D01*
X130100000Y-83500000D02*
X126700000Y-83500000D01*
X130100000Y-88400000D02*
X130100000Y-83500000D01*
X126700000Y-88400000D02*
X130100000Y-88400000D01*
X126700000Y-83500000D02*
X126700000Y-88400000D01*
D12*
X119278571Y-56807142D02*
X119792857Y-56807142D01*
X119535714Y-57707142D02*
X119535714Y-56807142D01*
X120092857Y-57707142D02*
X120092857Y-56807142D01*
X120307142Y-56807142D01*
X120435714Y-56850000D01*
X120521428Y-56935714D01*
X120564285Y-57021428D01*
X120607142Y-57192857D01*
X120607142Y-57321428D01*
X120564285Y-57492857D01*
X120521428Y-57578571D01*
X120435714Y-57664285D01*
X120307142Y-57707142D01*
X120092857Y-57707142D01*
X120992857Y-57707142D02*
X120992857Y-56807142D01*
X114000000Y-56807142D02*
X114514285Y-56807142D01*
X114257142Y-57707142D02*
X114257142Y-56807142D01*
X114814285Y-57707142D02*
X114814285Y-56807142D01*
X115114285Y-57450000D01*
X115414285Y-56807142D01*
X115414285Y-57707142D01*
X115800000Y-57664285D02*
X115928571Y-57707142D01*
X116142857Y-57707142D01*
X116228571Y-57664285D01*
X116271428Y-57621428D01*
X116314285Y-57535714D01*
X116314285Y-57450000D01*
X116271428Y-57364285D01*
X116228571Y-57321428D01*
X116142857Y-57278571D01*
X115971428Y-57235714D01*
X115885714Y-57192857D01*
X115842857Y-57150000D01*
X115800000Y-57064285D01*
X115800000Y-56978571D01*
X115842857Y-56892857D01*
X115885714Y-56850000D01*
X115971428Y-56807142D01*
X116185714Y-56807142D01*
X116314285Y-56850000D01*
X111421428Y-56807142D02*
X111935714Y-56807142D01*
X111678571Y-57707142D02*
X111678571Y-56807142D01*
X112235714Y-57707142D02*
X112235714Y-56807142D01*
X112450000Y-56807142D01*
X112578571Y-56850000D01*
X112664285Y-56935714D01*
X112707142Y-57021428D01*
X112750000Y-57192857D01*
X112750000Y-57321428D01*
X112707142Y-57492857D01*
X112664285Y-57578571D01*
X112578571Y-57664285D01*
X112450000Y-57707142D01*
X112235714Y-57707142D01*
X113307142Y-56807142D02*
X113478571Y-56807142D01*
X113564285Y-56850000D01*
X113650000Y-56935714D01*
X113692857Y-57107142D01*
X113692857Y-57407142D01*
X113650000Y-57578571D01*
X113564285Y-57664285D01*
X113478571Y-57707142D01*
X113307142Y-57707142D01*
X113221428Y-57664285D01*
X113135714Y-57578571D01*
X113092857Y-57407142D01*
X113092857Y-57107142D01*
X113135714Y-56935714D01*
X113221428Y-56850000D01*
X113307142Y-56807142D01*
X108942857Y-56807142D02*
X109457142Y-56807142D01*
X109200000Y-57707142D02*
X109200000Y-56807142D01*
X110271428Y-57621428D02*
X110228571Y-57664285D01*
X110100000Y-57707142D01*
X110014285Y-57707142D01*
X109885714Y-57664285D01*
X109800000Y-57578571D01*
X109757142Y-57492857D01*
X109714285Y-57321428D01*
X109714285Y-57192857D01*
X109757142Y-57021428D01*
X109800000Y-56935714D01*
X109885714Y-56850000D01*
X110014285Y-56807142D01*
X110100000Y-56807142D01*
X110228571Y-56850000D01*
X110271428Y-56892857D01*
X110657142Y-57707142D02*
X110657142Y-56807142D01*
X111171428Y-57707142D02*
X110785714Y-57192857D01*
X111171428Y-56807142D02*
X110657142Y-57321428D01*
X119714285Y-50350000D02*
X119628571Y-50307142D01*
X119500000Y-50307142D01*
X119371428Y-50350000D01*
X119285714Y-50435714D01*
X119242857Y-50521428D01*
X119200000Y-50692857D01*
X119200000Y-50821428D01*
X119242857Y-50992857D01*
X119285714Y-51078571D01*
X119371428Y-51164285D01*
X119500000Y-51207142D01*
X119585714Y-51207142D01*
X119714285Y-51164285D01*
X119757142Y-51121428D01*
X119757142Y-50821428D01*
X119585714Y-50821428D01*
X120142857Y-51207142D02*
X120142857Y-50307142D01*
X120657142Y-51207142D01*
X120657142Y-50307142D01*
X121085714Y-51207142D02*
X121085714Y-50307142D01*
X121300000Y-50307142D01*
X121428571Y-50350000D01*
X121514285Y-50435714D01*
X121557142Y-50521428D01*
X121600000Y-50692857D01*
X121600000Y-50821428D01*
X121557142Y-50992857D01*
X121514285Y-51078571D01*
X121428571Y-51164285D01*
X121300000Y-51207142D01*
X121085714Y-51207142D01*
X108614285Y-50350000D02*
X108528571Y-50307142D01*
X108400000Y-50307142D01*
X108271428Y-50350000D01*
X108185714Y-50435714D01*
X108142857Y-50521428D01*
X108100000Y-50692857D01*
X108100000Y-50821428D01*
X108142857Y-50992857D01*
X108185714Y-51078571D01*
X108271428Y-51164285D01*
X108400000Y-51207142D01*
X108485714Y-51207142D01*
X108614285Y-51164285D01*
X108657142Y-51121428D01*
X108657142Y-50821428D01*
X108485714Y-50821428D01*
X109042857Y-51207142D02*
X109042857Y-50307142D01*
X109557142Y-51207142D01*
X109557142Y-50307142D01*
X109985714Y-51207142D02*
X109985714Y-50307142D01*
X110200000Y-50307142D01*
X110328571Y-50350000D01*
X110414285Y-50435714D01*
X110457142Y-50521428D01*
X110500000Y-50692857D01*
X110500000Y-50821428D01*
X110457142Y-50992857D01*
X110414285Y-51078571D01*
X110328571Y-51164285D01*
X110200000Y-51207142D01*
X109985714Y-51207142D01*
X50964857Y-147550000D02*
X50879142Y-147507142D01*
X50750571Y-147507142D01*
X50622000Y-147550000D01*
X50536285Y-147635714D01*
X50493428Y-147721428D01*
X50450571Y-147892857D01*
X50450571Y-148021428D01*
X50493428Y-148192857D01*
X50536285Y-148278571D01*
X50622000Y-148364285D01*
X50750571Y-148407142D01*
X50836285Y-148407142D01*
X50964857Y-148364285D01*
X51007714Y-148321428D01*
X51007714Y-148021428D01*
X50836285Y-148021428D01*
X51393428Y-148407142D02*
X51393428Y-147507142D01*
X51907714Y-148407142D01*
X51907714Y-147507142D01*
X52336285Y-148407142D02*
X52336285Y-147507142D01*
X52550571Y-147507142D01*
X52679142Y-147550000D01*
X52764857Y-147635714D01*
X52807714Y-147721428D01*
X52850571Y-147892857D01*
X52850571Y-148021428D01*
X52807714Y-148192857D01*
X52764857Y-148278571D01*
X52679142Y-148364285D01*
X52550571Y-148407142D01*
X52336285Y-148407142D01*
X146492285Y-148407142D02*
X146492285Y-147507142D01*
X146792285Y-148150000D01*
X147092285Y-147507142D01*
X147092285Y-148407142D01*
X147478000Y-148150000D02*
X147906571Y-148150000D01*
X147392285Y-148407142D02*
X147692285Y-147507142D01*
X147992285Y-148407142D01*
X148763714Y-148407142D02*
X148249428Y-148407142D01*
X148506571Y-148407142D02*
X148506571Y-147507142D01*
X148420857Y-147635714D01*
X148335142Y-147721428D01*
X148249428Y-147764285D01*
X149106571Y-147592857D02*
X149149428Y-147550000D01*
X149235142Y-147507142D01*
X149449428Y-147507142D01*
X149535142Y-147550000D01*
X149578000Y-147592857D01*
X149620857Y-147678571D01*
X149620857Y-147764285D01*
X149578000Y-147892857D01*
X149063714Y-148407142D01*
X149620857Y-148407142D01*
D13*
X77000000Y-139000000D02*
X77000000Y-150000000D01*
X123000000Y-139000000D02*
X77000000Y-139000000D01*
X123000000Y-150000000D02*
X123000000Y-139000000D01*
X123000000Y-150000000D02*
X150000000Y-150000000D01*
X50000000Y-150000000D02*
X77000000Y-150000000D01*
X150000000Y-50000000D02*
X150000000Y-150000000D01*
X50000000Y-50000000D02*
X50000000Y-150000000D01*
X50000000Y-50000000D02*
X150000000Y-50000000D01*
G04 #@! TO.C,U6*
X131000000Y-111300000D02*
G75*
G03X131000000Y-111300000I-500000J0D01*
G01*
X149200000Y-110500000D02*
X148700000Y-110500000D01*
X149200000Y-101500000D02*
X149200000Y-110500000D01*
X148700000Y-101500000D02*
X149200000Y-101500000D01*
X130800000Y-110500000D02*
X131300000Y-110500000D01*
X130800000Y-101500000D02*
X130800000Y-110500000D01*
X131300000Y-101500000D02*
X130800000Y-101500000D01*
G04 #@! TO.C,J2*
X54660000Y-97700000D02*
X56460000Y-97700000D01*
X54660000Y-96700000D02*
X56460000Y-96700000D01*
G04 #@! TO.C,U7*
X65400000Y-103515000D02*
G75*
G03X65400000Y-103515000I-500000J0D01*
G01*
X65700000Y-122215000D02*
X65700000Y-121715000D01*
X74700000Y-122215000D02*
X65700000Y-122215000D01*
X74700000Y-121715000D02*
X74700000Y-122215000D01*
X65700000Y-103815000D02*
X65700000Y-104315000D01*
X74700000Y-103815000D02*
X65700000Y-103815000D01*
X74700000Y-104315000D02*
X74700000Y-103815000D01*
G04 #@! TO.C,U8*
X94516228Y-101100000D02*
G75*
G03X94516228Y-101100000I-316228J0D01*
G01*
X109600000Y-120500000D02*
X109600000Y-121400000D01*
X109600000Y-121400000D02*
X108700000Y-121400000D01*
X95200000Y-120500000D02*
X95200000Y-121400000D01*
X95200000Y-121400000D02*
X96100000Y-121400000D01*
X108700000Y-101000000D02*
X109600000Y-101000000D01*
X109600000Y-101000000D02*
X109600000Y-101900000D01*
X96100000Y-101000000D02*
X95200000Y-101000000D01*
X95200000Y-101000000D02*
X95200000Y-101900000D01*
D12*
G04 #@! TO.C,TP8*
X102703219Y-94200000D02*
G75*
G03X102703219Y-94200000I-803219J0D01*
G01*
G04 #@! TO.C,TP4*
X53503219Y-92200000D02*
G75*
G03X53503219Y-92200000I-803219J0D01*
G01*
G04 #@! TO.C,J3*
X139030000Y-50770000D02*
X139030000Y-79210000D01*
X139030000Y-79210000D02*
X129430000Y-79210000D01*
X129430000Y-79210000D02*
X129430000Y-50770000D01*
X129430000Y-50770000D02*
X139030000Y-50770000D01*
G04 #@! TO.C,C1*
X89700000Y-90480000D02*
X87700000Y-90480000D01*
X87700000Y-92520000D02*
X89700000Y-92520000D01*
G04 #@! TO.C,C2*
X78200000Y-82350000D02*
X78200000Y-83050000D01*
X77000000Y-83050000D02*
X77000000Y-82350000D01*
G04 #@! TO.C,C3*
X88350000Y-88100000D02*
X89050000Y-88100000D01*
X89050000Y-89300000D02*
X88350000Y-89300000D01*
G04 #@! TO.C,C4*
X97800000Y-81250000D02*
X97800000Y-81950000D01*
X96600000Y-81950000D02*
X96600000Y-81250000D01*
G04 #@! TO.C,C5*
X79200000Y-67320000D02*
X81200000Y-67320000D01*
X81200000Y-65280000D02*
X79200000Y-65280000D01*
G04 #@! TO.C,C6*
X80550000Y-69700000D02*
X79850000Y-69700000D01*
X79850000Y-68500000D02*
X80550000Y-68500000D01*
G04 #@! TO.C,C7*
X77000000Y-79750000D02*
X77000000Y-79050000D01*
X78200000Y-79050000D02*
X78200000Y-79750000D01*
G04 #@! TO.C,C8*
X94050000Y-88100000D02*
X94750000Y-88100000D01*
X94750000Y-89300000D02*
X94050000Y-89300000D01*
G04 #@! TO.C,C9*
X97800000Y-77800000D02*
X97800000Y-78500000D01*
X96600000Y-78500000D02*
X96600000Y-77800000D01*
G04 #@! TO.C,C10*
X68100000Y-73680000D02*
X66100000Y-73680000D01*
X66100000Y-75720000D02*
X68100000Y-75720000D01*
G04 #@! TO.C,C11*
X68100000Y-81680000D02*
X66100000Y-81680000D01*
X66100000Y-83720000D02*
X68100000Y-83720000D01*
G04 #@! TO.C,C12*
X68100000Y-89680000D02*
X66100000Y-89680000D01*
X66100000Y-91720000D02*
X68100000Y-91720000D01*
G04 #@! TO.C,C13*
X88450000Y-68500000D02*
X89150000Y-68500000D01*
X89150000Y-69700000D02*
X88450000Y-69700000D01*
G04 #@! TO.C,C14*
X77000000Y-76550000D02*
X77000000Y-75850000D01*
X78200000Y-75850000D02*
X78200000Y-76550000D01*
G04 #@! TO.C,C15*
X56580000Y-73700000D02*
X56580000Y-75700000D01*
X58620000Y-75700000D02*
X58620000Y-73700000D01*
G04 #@! TO.C,C16*
X56580000Y-81700000D02*
X56580000Y-83700000D01*
X58620000Y-83700000D02*
X58620000Y-81700000D01*
G04 #@! TO.C,C17*
X56580000Y-89700000D02*
X56580000Y-91700000D01*
X58620000Y-91700000D02*
X58620000Y-89700000D01*
G04 #@! TO.C,C18*
X96600000Y-75450000D02*
X96600000Y-74750000D01*
X97800000Y-74750000D02*
X97800000Y-75450000D01*
G04 #@! TO.C,C19*
X114050000Y-89300000D02*
X113350000Y-89300000D01*
X113350000Y-88100000D02*
X114050000Y-88100000D01*
G04 #@! TO.C,C20*
X125600000Y-81250000D02*
X125600000Y-81950000D01*
X124400000Y-81950000D02*
X124400000Y-81250000D01*
G04 #@! TO.C,C21*
X106000000Y-82350000D02*
X106000000Y-83050000D01*
X104800000Y-83050000D02*
X104800000Y-82350000D01*
G04 #@! TO.C,C22*
X122050000Y-87900000D02*
X122750000Y-87900000D01*
X122750000Y-89100000D02*
X122050000Y-89100000D01*
G04 #@! TO.C,C23*
X125600000Y-78050000D02*
X125600000Y-78750000D01*
X124400000Y-78750000D02*
X124400000Y-78050000D01*
G04 #@! TO.C,C24*
X108350000Y-69700000D02*
X107650000Y-69700000D01*
X107650000Y-68500000D02*
X108350000Y-68500000D01*
G04 #@! TO.C,C25*
X104800000Y-80050000D02*
X104800000Y-79350000D01*
X106000000Y-79350000D02*
X106000000Y-80050000D01*
G04 #@! TO.C,C26*
X106900000Y-67320000D02*
X108900000Y-67320000D01*
X108900000Y-65280000D02*
X106900000Y-65280000D01*
G04 #@! TO.C,C27*
X124400000Y-75450000D02*
X124400000Y-74750000D01*
X125600000Y-74750000D02*
X125600000Y-75450000D01*
G04 #@! TO.C,C28*
X116350000Y-68500000D02*
X117050000Y-68500000D01*
X117050000Y-69700000D02*
X116350000Y-69700000D01*
G04 #@! TO.C,C29*
X104800000Y-76450000D02*
X104800000Y-75750000D01*
X106000000Y-75750000D02*
X106000000Y-76450000D01*
G04 #@! TO.C,C30*
X117700000Y-65280000D02*
X115700000Y-65280000D01*
X115700000Y-67320000D02*
X117700000Y-67320000D01*
G04 #@! TO.C,C31*
X101850000Y-74200000D02*
X101150000Y-74200000D01*
X101150000Y-73000000D02*
X101850000Y-73000000D01*
G04 #@! TO.C,C32*
X131350000Y-98800000D02*
X130650000Y-98800000D01*
X130650000Y-97600000D02*
X131350000Y-97600000D01*
G04 #@! TO.C,C33*
X131350000Y-97200000D02*
X130650000Y-97200000D01*
X130650000Y-96000000D02*
X131350000Y-96000000D01*
G04 #@! TO.C,C34*
X75350000Y-101900000D02*
X74650000Y-101900000D01*
X74650000Y-100700000D02*
X75350000Y-100700000D01*
G04 #@! TO.C,C35*
X114100000Y-107250000D02*
X114100000Y-107950000D01*
X112900000Y-107950000D02*
X112900000Y-107250000D01*
G04 #@! TO.C,C36*
X75350000Y-103400000D02*
X74650000Y-103400000D01*
X74650000Y-102200000D02*
X75350000Y-102200000D01*
G04 #@! TO.C,C37*
X116500000Y-107250000D02*
X116500000Y-107950000D01*
X115300000Y-107950000D02*
X115300000Y-107250000D01*
G04 #@! TO.C,C38*
X119450000Y-108100000D02*
X119450000Y-107100000D01*
X117750000Y-107100000D02*
X117750000Y-108100000D01*
G04 #@! TO.C,D1*
X53678608Y-70702335D02*
G75*
G03X53835516Y-67470000I-1078608J1672335D01*
G01*
X51521392Y-70702335D02*
G75*
G02X51364484Y-67470000I1078608J1672335D01*
G01*
X53679837Y-70071130D02*
G75*
G03X53680000Y-67989039I-1079837J1041130D01*
G01*
X51520163Y-70071130D02*
G75*
G02X51520000Y-67989039I1079837J1041130D01*
G01*
X53836000Y-67470000D02*
X53680000Y-67470000D01*
X51520000Y-67470000D02*
X51364000Y-67470000D01*
G04 #@! TO.C,D2*
X136000000Y-144000000D02*
X135000000Y-144000000D01*
X135000000Y-144000000D02*
X135000000Y-146100000D01*
X136000000Y-144000000D02*
X136000000Y-146100000D01*
G04 #@! TO.C,D3*
X137600000Y-144000000D02*
X136600000Y-144000000D01*
X136600000Y-144000000D02*
X136600000Y-146100000D01*
X137600000Y-144000000D02*
X137600000Y-146100000D01*
G04 #@! TO.C,D4*
X134400000Y-144000000D02*
X133400000Y-144000000D01*
X133400000Y-144000000D02*
X133400000Y-146100000D01*
X134400000Y-144000000D02*
X134400000Y-146100000D01*
G04 #@! TO.C,D5*
X65000000Y-144000000D02*
X64000000Y-144000000D01*
X64000000Y-144000000D02*
X64000000Y-146100000D01*
X65000000Y-144000000D02*
X65000000Y-146100000D01*
G04 #@! TO.C,D6*
X66600000Y-144000000D02*
X65600000Y-144000000D01*
X65600000Y-144000000D02*
X65600000Y-146100000D01*
X66600000Y-144000000D02*
X66600000Y-146100000D01*
G04 #@! TO.C,D7*
X63400000Y-144000000D02*
X62400000Y-144000000D01*
X62400000Y-144000000D02*
X62400000Y-146100000D01*
X63400000Y-144000000D02*
X63400000Y-146100000D01*
G04 #@! TO.C,F1*
X64200000Y-65730000D02*
X66200000Y-65730000D01*
X66200000Y-67870000D02*
X64200000Y-67870000D01*
G04 #@! TO.C,J4*
X149230000Y-50770000D02*
X149230000Y-79210000D01*
X149230000Y-79210000D02*
X139630000Y-79210000D01*
X139630000Y-79210000D02*
X139630000Y-50770000D01*
X139630000Y-50770000D02*
X149230000Y-50770000D01*
G04 #@! TO.C,J8*
X140970000Y-149310000D02*
X146170000Y-149310000D01*
X140970000Y-118770000D02*
X140970000Y-149310000D01*
X146170000Y-116170000D02*
X146170000Y-149310000D01*
X140970000Y-118770000D02*
X143570000Y-118770000D01*
X143570000Y-118770000D02*
X143570000Y-116170000D01*
X143570000Y-116170000D02*
X146170000Y-116170000D01*
X140970000Y-117500000D02*
X140970000Y-116170000D01*
X140970000Y-116170000D02*
X142300000Y-116170000D01*
G04 #@! TO.C,J9*
X127130000Y-93950000D02*
X124470000Y-93950000D01*
X127130000Y-111790000D02*
X127130000Y-93950000D01*
X124470000Y-111790000D02*
X124470000Y-93950000D01*
X127130000Y-111790000D02*
X124470000Y-111790000D01*
X127130000Y-113060000D02*
X127130000Y-114390000D01*
X127130000Y-114390000D02*
X125800000Y-114390000D01*
G04 #@! TO.C,J10*
X149210000Y-84230000D02*
X149210000Y-81570000D01*
X136450000Y-84230000D02*
X149210000Y-84230000D01*
X136450000Y-81570000D02*
X149210000Y-81570000D01*
X136450000Y-84230000D02*
X136450000Y-81570000D01*
X135180000Y-84230000D02*
X133850000Y-84230000D01*
X133850000Y-84230000D02*
X133850000Y-82900000D01*
G04 #@! TO.C,J11*
X53270000Y-149310000D02*
X58470000Y-149310000D01*
X53270000Y-111150000D02*
X53270000Y-149310000D01*
X58470000Y-108550000D02*
X58470000Y-149310000D01*
X53270000Y-111150000D02*
X55870000Y-111150000D01*
X55870000Y-111150000D02*
X55870000Y-108550000D01*
X55870000Y-108550000D02*
X58470000Y-108550000D01*
X53270000Y-109880000D02*
X53270000Y-108550000D01*
X53270000Y-108550000D02*
X54600000Y-108550000D01*
G04 #@! TO.C,J12*
X120570000Y-109310000D02*
X123230000Y-109310000D01*
X120570000Y-96550000D02*
X120570000Y-109310000D01*
X123230000Y-96550000D02*
X123230000Y-109310000D01*
X120570000Y-96550000D02*
X123230000Y-96550000D01*
X120570000Y-95280000D02*
X120570000Y-93950000D01*
X120570000Y-93950000D02*
X121900000Y-93950000D01*
D13*
G04 #@! TO.C,J13*
X125800000Y-136050000D02*
X125800000Y-137950000D01*
X123900000Y-136050000D02*
X125800000Y-136050000D01*
X76100000Y-136050000D02*
X74200000Y-136050000D01*
X74200000Y-136050000D02*
X74200000Y-137950000D01*
D12*
G04 #@! TO.C,J14*
X63890000Y-95570000D02*
X63890000Y-98230000D01*
X74110000Y-95570000D02*
X63890000Y-95570000D01*
X74110000Y-98230000D02*
X63890000Y-98230000D01*
X74110000Y-95570000D02*
X74110000Y-98230000D01*
X75380000Y-95570000D02*
X76710000Y-95570000D01*
X76710000Y-95570000D02*
X76710000Y-96900000D01*
G04 #@! TO.C,JP1*
X65830000Y-55130000D02*
X63170000Y-55130000D01*
X65830000Y-57730000D02*
X65830000Y-55130000D01*
X63170000Y-57730000D02*
X63170000Y-55130000D01*
X65830000Y-57730000D02*
X63170000Y-57730000D01*
X65830000Y-59000000D02*
X65830000Y-60330000D01*
X65830000Y-60330000D02*
X64500000Y-60330000D01*
G04 #@! TO.C,R1*
X106100000Y-94580000D02*
X105100000Y-94580000D01*
X105100000Y-93220000D02*
X106100000Y-93220000D01*
G04 #@! TO.C,R2*
X56600000Y-69320000D02*
X56600000Y-68990000D01*
X56600000Y-68990000D02*
X63020000Y-68990000D01*
X63020000Y-68990000D02*
X63020000Y-69320000D01*
X56600000Y-71280000D02*
X56600000Y-71610000D01*
X56600000Y-71610000D02*
X63020000Y-71610000D01*
X63020000Y-71610000D02*
X63020000Y-71280000D01*
G04 #@! TO.C,R3*
X128280000Y-53800000D02*
X128280000Y-54800000D01*
X126920000Y-54800000D02*
X126920000Y-53800000D01*
G04 #@! TO.C,R4*
X103020000Y-54050000D02*
X103020000Y-53050000D01*
X104380000Y-53050000D02*
X104380000Y-54050000D01*
G04 #@! TO.C,R5*
X106620000Y-54950000D02*
X106620000Y-53950000D01*
X107980000Y-53950000D02*
X107980000Y-54950000D01*
G04 #@! TO.C,R6*
X104820000Y-54050000D02*
X104820000Y-53050000D01*
X106180000Y-53050000D02*
X106180000Y-54050000D01*
G04 #@! TO.C,R7*
X134820000Y-148600000D02*
X134820000Y-147600000D01*
X136180000Y-147600000D02*
X136180000Y-148600000D01*
G04 #@! TO.C,R8*
X136420000Y-148600000D02*
X136420000Y-147600000D01*
X137780000Y-147600000D02*
X137780000Y-148600000D01*
G04 #@! TO.C,R9*
X133220000Y-148600000D02*
X133220000Y-147600000D01*
X134580000Y-147600000D02*
X134580000Y-148600000D01*
G04 #@! TO.C,R10*
X65180000Y-147600000D02*
X65180000Y-148600000D01*
X63820000Y-148600000D02*
X63820000Y-147600000D01*
G04 #@! TO.C,R11*
X66780000Y-147600000D02*
X66780000Y-148600000D01*
X65420000Y-148600000D02*
X65420000Y-147600000D01*
G04 #@! TO.C,R12*
X63580000Y-147600000D02*
X63580000Y-148600000D01*
X62220000Y-148600000D02*
X62220000Y-147600000D01*
G04 #@! TO.C,TP1*
X65303219Y-52600000D02*
G75*
G03X65303219Y-52600000I-803219J0D01*
G01*
G04 #@! TO.C,TP2*
X53503219Y-76200000D02*
G75*
G03X53503219Y-76200000I-803219J0D01*
G01*
G04 #@! TO.C,TP3*
X53503219Y-84200000D02*
G75*
G03X53503219Y-84200000I-803219J0D01*
G01*
G04 #@! TO.C,TP5*
X104703219Y-92000000D02*
G75*
G03X104703219Y-92000000I-803219J0D01*
G01*
G04 #@! TO.C,TP6*
X100903219Y-92000000D02*
G75*
G03X100903219Y-92000000I-803219J0D01*
G01*
G04 #@! TO.C,TP7*
X99103219Y-94200000D02*
G75*
G03X99103219Y-94200000I-803219J0D01*
G01*
D13*
G04 #@! TO.C,U1*
X94575000Y-71725000D02*
X93850000Y-71725000D01*
X94575000Y-86075000D02*
X93775000Y-86075000D01*
X80225000Y-86075000D02*
X81025000Y-86075000D01*
X80225000Y-71725000D02*
X81025000Y-71725000D01*
X94575000Y-71725000D02*
X94575000Y-72525000D01*
X80225000Y-71725000D02*
X80225000Y-72525000D01*
X80225000Y-86075000D02*
X80225000Y-85275000D01*
X94575000Y-86075000D02*
X94575000Y-85275000D01*
X93850000Y-71725000D02*
X93850000Y-70450000D01*
D12*
G04 #@! TO.C,U2*
X63180000Y-75900000D02*
X63180000Y-77100000D01*
X63180000Y-77100000D02*
X60480000Y-77100000D01*
X59180000Y-72300000D02*
X63180000Y-72300000D01*
X63180000Y-72300000D02*
X63180000Y-73500000D01*
G04 #@! TO.C,U3*
X63180000Y-83900000D02*
X63180000Y-85100000D01*
X63180000Y-85100000D02*
X60480000Y-85100000D01*
X59180000Y-80300000D02*
X63180000Y-80300000D01*
X63180000Y-80300000D02*
X63180000Y-81500000D01*
G04 #@! TO.C,U4*
X63180000Y-91900000D02*
X63180000Y-93100000D01*
X63180000Y-93100000D02*
X60480000Y-93100000D01*
X59180000Y-88300000D02*
X63180000Y-88300000D01*
X63180000Y-88300000D02*
X63180000Y-89500000D01*
D13*
G04 #@! TO.C,U5*
X108025000Y-86075000D02*
X108750000Y-86075000D01*
X108025000Y-71725000D02*
X108825000Y-71725000D01*
X122375000Y-71725000D02*
X121575000Y-71725000D01*
X122375000Y-86075000D02*
X121575000Y-86075000D01*
X108025000Y-86075000D02*
X108025000Y-85275000D01*
X122375000Y-86075000D02*
X122375000Y-85275000D01*
X122375000Y-71725000D02*
X122375000Y-72525000D01*
X108025000Y-71725000D02*
X108025000Y-72525000D01*
X108750000Y-86075000D02*
X108750000Y-87350000D01*
D12*
G04 #@! TO.C,TP9*
X102303219Y-83200000D02*
G75*
G03X102303219Y-83200000I-803219J0D01*
G01*
G04 #@! TO.C,J7*
X121570000Y-56530000D02*
X121570000Y-51330000D01*
X111350000Y-56530000D02*
X121570000Y-56530000D01*
X108750000Y-51330000D02*
X121570000Y-51330000D01*
X111350000Y-56530000D02*
X111350000Y-53930000D01*
X111350000Y-53930000D02*
X108750000Y-53930000D01*
X108750000Y-53930000D02*
X108750000Y-51330000D01*
X110080000Y-56530000D02*
X108750000Y-56530000D01*
X108750000Y-56530000D02*
X108750000Y-55200000D01*
G04 #@! TO.C,D8*
X73100000Y-73300000D02*
X73100000Y-72300000D01*
X73100000Y-72300000D02*
X71000000Y-72300000D01*
X73100000Y-73300000D02*
X71000000Y-73300000D01*
G04 #@! TO.C,D9*
X74300000Y-72300000D02*
X74300000Y-73300000D01*
X74300000Y-73300000D02*
X76400000Y-73300000D01*
X74300000Y-72300000D02*
X76400000Y-72300000D01*
G04 #@! TO.C,D10*
X101300000Y-68900000D02*
X101300000Y-67900000D01*
X101300000Y-67900000D02*
X99200000Y-67900000D01*
X101300000Y-68900000D02*
X99200000Y-68900000D01*
G04 #@! TO.C,D11*
X102200000Y-67900000D02*
X102200000Y-68900000D01*
X102200000Y-68900000D02*
X104300000Y-68900000D01*
X102200000Y-67900000D02*
X104300000Y-67900000D01*
G04 #@! TO.C,R13*
X71300000Y-70620000D02*
X72300000Y-70620000D01*
X72300000Y-71980000D02*
X71300000Y-71980000D01*
G04 #@! TO.C,R14*
X76000000Y-71980000D02*
X75000000Y-71980000D01*
X75000000Y-70620000D02*
X76000000Y-70620000D01*
G04 #@! TO.C,R15*
X99450000Y-66220000D02*
X100450000Y-66220000D01*
X100450000Y-67580000D02*
X99450000Y-67580000D01*
G04 #@! TO.C,R16*
X104000000Y-67580000D02*
X103000000Y-67580000D01*
X103000000Y-66220000D02*
X104000000Y-66220000D01*
D13*
G04 #@! TO.C,SW1*
X67700000Y-50900000D02*
X67700000Y-63300000D01*
X87100000Y-50900000D02*
X67700000Y-50900000D01*
X87100000Y-63300000D02*
X87100000Y-50900000D01*
X67700000Y-63300000D02*
X87100000Y-63300000D01*
G04 #@! TO.C,J1*
X59300000Y-65300000D02*
X61500000Y-65300000D01*
X61500000Y-65300000D02*
X61500000Y-50700000D01*
X61500000Y-50700000D02*
X52300000Y-50700000D01*
X52300000Y-50700000D02*
X52300000Y-59300000D01*
X52300000Y-63700000D02*
X52300000Y-65300000D01*
X52300000Y-65300000D02*
X54500000Y-65300000D01*
G04 #@! TD*
G04 #@! TO.C,U6*
X128938095Y-104052380D02*
X128938095Y-104861904D01*
X128985714Y-104957142D01*
X129033333Y-105004761D01*
X129128571Y-105052380D01*
X129319047Y-105052380D01*
X129414285Y-105004761D01*
X129461904Y-104957142D01*
X129509523Y-104861904D01*
X129509523Y-104052380D01*
X130414285Y-104052380D02*
X130223809Y-104052380D01*
X130128571Y-104100000D01*
X130080952Y-104147619D01*
X129985714Y-104290476D01*
X129938095Y-104480952D01*
X129938095Y-104861904D01*
X129985714Y-104957142D01*
X130033333Y-105004761D01*
X130128571Y-105052380D01*
X130319047Y-105052380D01*
X130414285Y-105004761D01*
X130461904Y-104957142D01*
X130509523Y-104861904D01*
X130509523Y-104623809D01*
X130461904Y-104528571D01*
X130414285Y-104480952D01*
X130319047Y-104433333D01*
X130128571Y-104433333D01*
X130033333Y-104480952D01*
X129985714Y-104528571D01*
X129938095Y-104623809D01*
G04 #@! TO.C,J2*
X61066666Y-96752380D02*
X61066666Y-97466666D01*
X61019047Y-97609523D01*
X60923809Y-97704761D01*
X60780952Y-97752380D01*
X60685714Y-97752380D01*
X61495238Y-96847619D02*
X61542857Y-96800000D01*
X61638095Y-96752380D01*
X61876190Y-96752380D01*
X61971428Y-96800000D01*
X62019047Y-96847619D01*
X62066666Y-96942857D01*
X62066666Y-97038095D01*
X62019047Y-97180952D01*
X61447619Y-97752380D01*
X62066666Y-97752380D01*
G04 #@! TO.C,U7*
X69238095Y-122652380D02*
X69238095Y-123461904D01*
X69285714Y-123557142D01*
X69333333Y-123604761D01*
X69428571Y-123652380D01*
X69619047Y-123652380D01*
X69714285Y-123604761D01*
X69761904Y-123557142D01*
X69809523Y-123461904D01*
X69809523Y-122652380D01*
X70190476Y-122652380D02*
X70857142Y-122652380D01*
X70428571Y-123652380D01*
G04 #@! TO.C,U8*
X109538095Y-99652380D02*
X109538095Y-100461904D01*
X109585714Y-100557142D01*
X109633333Y-100604761D01*
X109728571Y-100652380D01*
X109919047Y-100652380D01*
X110014285Y-100604761D01*
X110061904Y-100557142D01*
X110109523Y-100461904D01*
X110109523Y-99652380D01*
X110728571Y-100080952D02*
X110633333Y-100033333D01*
X110585714Y-99985714D01*
X110538095Y-99890476D01*
X110538095Y-99842857D01*
X110585714Y-99747619D01*
X110633333Y-99700000D01*
X110728571Y-99652380D01*
X110919047Y-99652380D01*
X111014285Y-99700000D01*
X111061904Y-99747619D01*
X111109523Y-99842857D01*
X111109523Y-99890476D01*
X111061904Y-99985714D01*
X111014285Y-100033333D01*
X110919047Y-100080952D01*
X110728571Y-100080952D01*
X110633333Y-100128571D01*
X110585714Y-100176190D01*
X110538095Y-100271428D01*
X110538095Y-100461904D01*
X110585714Y-100557142D01*
X110633333Y-100604761D01*
X110728571Y-100652380D01*
X110919047Y-100652380D01*
X111014285Y-100604761D01*
X111061904Y-100557142D01*
X111109523Y-100461904D01*
X111109523Y-100271428D01*
X111061904Y-100176190D01*
X111014285Y-100128571D01*
X110919047Y-100080952D01*
G04 #@! TO.C,TP8*
D12*
X100764285Y-95507142D02*
X101278571Y-95507142D01*
X101021428Y-96407142D02*
X101021428Y-95507142D01*
X101578571Y-96407142D02*
X101578571Y-95507142D01*
X101921428Y-95507142D01*
X102007142Y-95550000D01*
X102050000Y-95592857D01*
X102092857Y-95678571D01*
X102092857Y-95807142D01*
X102050000Y-95892857D01*
X102007142Y-95935714D01*
X101921428Y-95978571D01*
X101578571Y-95978571D01*
X102607142Y-95892857D02*
X102521428Y-95850000D01*
X102478571Y-95807142D01*
X102435714Y-95721428D01*
X102435714Y-95678571D01*
X102478571Y-95592857D01*
X102521428Y-95550000D01*
X102607142Y-95507142D01*
X102778571Y-95507142D01*
X102864285Y-95550000D01*
X102907142Y-95592857D01*
X102950000Y-95678571D01*
X102950000Y-95721428D01*
X102907142Y-95807142D01*
X102864285Y-95850000D01*
X102778571Y-95892857D01*
X102607142Y-95892857D01*
X102521428Y-95935714D01*
X102478571Y-95978571D01*
X102435714Y-96064285D01*
X102435714Y-96235714D01*
X102478571Y-96321428D01*
X102521428Y-96364285D01*
X102607142Y-96407142D01*
X102778571Y-96407142D01*
X102864285Y-96364285D01*
X102907142Y-96321428D01*
X102950000Y-96235714D01*
X102950000Y-96064285D01*
X102907142Y-95978571D01*
X102864285Y-95935714D01*
X102778571Y-95892857D01*
X101364285Y-97421428D02*
X101321428Y-97464285D01*
X101192857Y-97507142D01*
X101107142Y-97507142D01*
X100978571Y-97464285D01*
X100892857Y-97378571D01*
X100850000Y-97292857D01*
X100807142Y-97121428D01*
X100807142Y-96992857D01*
X100850000Y-96821428D01*
X100892857Y-96735714D01*
X100978571Y-96650000D01*
X101107142Y-96607142D01*
X101192857Y-96607142D01*
X101321428Y-96650000D01*
X101364285Y-96692857D01*
X102178571Y-97507142D02*
X101750000Y-97507142D01*
X101750000Y-96607142D01*
X102478571Y-97507142D02*
X102478571Y-96607142D01*
X102992857Y-97507142D02*
X102607142Y-96992857D01*
X102992857Y-96607142D02*
X102478571Y-97121428D01*
G04 #@! TO.C,TP4*
D13*
X51438095Y-89652380D02*
X52009523Y-89652380D01*
X51723809Y-90652380D02*
X51723809Y-89652380D01*
X52342857Y-90652380D02*
X52342857Y-89652380D01*
X52723809Y-89652380D01*
X52819047Y-89700000D01*
X52866666Y-89747619D01*
X52914285Y-89842857D01*
X52914285Y-89985714D01*
X52866666Y-90080952D01*
X52819047Y-90128571D01*
X52723809Y-90176190D01*
X52342857Y-90176190D01*
X53771428Y-89985714D02*
X53771428Y-90652380D01*
X53533333Y-89604761D02*
X53295238Y-90319047D01*
X53914285Y-90319047D01*
X51795238Y-93652380D02*
X51319047Y-93652380D01*
X51271428Y-94128571D01*
X51319047Y-94080952D01*
X51414285Y-94033333D01*
X51652380Y-94033333D01*
X51747619Y-94080952D01*
X51795238Y-94128571D01*
X51842857Y-94223809D01*
X51842857Y-94461904D01*
X51795238Y-94557142D01*
X51747619Y-94604761D01*
X51652380Y-94652380D01*
X51414285Y-94652380D01*
X51319047Y-94604761D01*
X51271428Y-94557142D01*
X52271428Y-94557142D02*
X52319047Y-94604761D01*
X52271428Y-94652380D01*
X52223809Y-94604761D01*
X52271428Y-94557142D01*
X52271428Y-94652380D01*
X52938095Y-93652380D02*
X53033333Y-93652380D01*
X53128571Y-93700000D01*
X53176190Y-93747619D01*
X53223809Y-93842857D01*
X53271428Y-94033333D01*
X53271428Y-94271428D01*
X53223809Y-94461904D01*
X53176190Y-94557142D01*
X53128571Y-94604761D01*
X53033333Y-94652380D01*
X52938095Y-94652380D01*
X52842857Y-94604761D01*
X52795238Y-94557142D01*
X52747619Y-94461904D01*
X52700000Y-94271428D01*
X52700000Y-94033333D01*
X52747619Y-93842857D01*
X52795238Y-93747619D01*
X52842857Y-93700000D01*
X52938095Y-93652380D01*
X53557142Y-93652380D02*
X53890476Y-94652380D01*
X54223809Y-93652380D01*
G04 #@! TO.C,J3*
X136366666Y-79752380D02*
X136366666Y-80466666D01*
X136319047Y-80609523D01*
X136223809Y-80704761D01*
X136080952Y-80752380D01*
X135985714Y-80752380D01*
X136747619Y-79752380D02*
X137366666Y-79752380D01*
X137033333Y-80133333D01*
X137176190Y-80133333D01*
X137271428Y-80180952D01*
X137319047Y-80228571D01*
X137366666Y-80323809D01*
X137366666Y-80561904D01*
X137319047Y-80657142D01*
X137271428Y-80704761D01*
X137176190Y-80752380D01*
X136890476Y-80752380D01*
X136795238Y-80704761D01*
X136747619Y-80657142D01*
D12*
X131692380Y-55834285D02*
X131692380Y-56405714D01*
X131692380Y-56120000D02*
X130692380Y-56120000D01*
X130835238Y-56215238D01*
X130930476Y-56310476D01*
X130978095Y-56405714D01*
G04 #@! TO.C,C1*
D13*
X85333333Y-91957142D02*
X85285714Y-92004761D01*
X85142857Y-92052380D01*
X85047619Y-92052380D01*
X84904761Y-92004761D01*
X84809523Y-91909523D01*
X84761904Y-91814285D01*
X84714285Y-91623809D01*
X84714285Y-91480952D01*
X84761904Y-91290476D01*
X84809523Y-91195238D01*
X84904761Y-91100000D01*
X85047619Y-91052380D01*
X85142857Y-91052380D01*
X85285714Y-91100000D01*
X85333333Y-91147619D01*
X86285714Y-92052380D02*
X85714285Y-92052380D01*
X86000000Y-92052380D02*
X86000000Y-91052380D01*
X85904761Y-91195238D01*
X85809523Y-91290476D01*
X85714285Y-91338095D01*
G04 #@! TO.C,C2*
X74433333Y-83057142D02*
X74385714Y-83104761D01*
X74242857Y-83152380D01*
X74147619Y-83152380D01*
X74004761Y-83104761D01*
X73909523Y-83009523D01*
X73861904Y-82914285D01*
X73814285Y-82723809D01*
X73814285Y-82580952D01*
X73861904Y-82390476D01*
X73909523Y-82295238D01*
X74004761Y-82200000D01*
X74147619Y-82152380D01*
X74242857Y-82152380D01*
X74385714Y-82200000D01*
X74433333Y-82247619D01*
X74814285Y-82247619D02*
X74861904Y-82200000D01*
X74957142Y-82152380D01*
X75195238Y-82152380D01*
X75290476Y-82200000D01*
X75338095Y-82247619D01*
X75385714Y-82342857D01*
X75385714Y-82438095D01*
X75338095Y-82580952D01*
X74766666Y-83152380D01*
X75385714Y-83152380D01*
G04 #@! TO.C,C3*
X85333333Y-89157142D02*
X85285714Y-89204761D01*
X85142857Y-89252380D01*
X85047619Y-89252380D01*
X84904761Y-89204761D01*
X84809523Y-89109523D01*
X84761904Y-89014285D01*
X84714285Y-88823809D01*
X84714285Y-88680952D01*
X84761904Y-88490476D01*
X84809523Y-88395238D01*
X84904761Y-88300000D01*
X85047619Y-88252380D01*
X85142857Y-88252380D01*
X85285714Y-88300000D01*
X85333333Y-88347619D01*
X85666666Y-88252380D02*
X86285714Y-88252380D01*
X85952380Y-88633333D01*
X86095238Y-88633333D01*
X86190476Y-88680952D01*
X86238095Y-88728571D01*
X86285714Y-88823809D01*
X86285714Y-89061904D01*
X86238095Y-89157142D01*
X86190476Y-89204761D01*
X86095238Y-89252380D01*
X85809523Y-89252380D01*
X85714285Y-89204761D01*
X85666666Y-89157142D01*
G04 #@! TO.C,C4*
X101833333Y-63257142D02*
X101785714Y-63304761D01*
X101642857Y-63352380D01*
X101547619Y-63352380D01*
X101404761Y-63304761D01*
X101309523Y-63209523D01*
X101261904Y-63114285D01*
X101214285Y-62923809D01*
X101214285Y-62780952D01*
X101261904Y-62590476D01*
X101309523Y-62495238D01*
X101404761Y-62400000D01*
X101547619Y-62352380D01*
X101642857Y-62352380D01*
X101785714Y-62400000D01*
X101833333Y-62447619D01*
X102690476Y-62685714D02*
X102690476Y-63352380D01*
X102452380Y-62304761D02*
X102214285Y-63019047D01*
X102833333Y-63019047D01*
G04 #@! TO.C,C5*
X83333333Y-66657142D02*
X83285714Y-66704761D01*
X83142857Y-66752380D01*
X83047619Y-66752380D01*
X82904761Y-66704761D01*
X82809523Y-66609523D01*
X82761904Y-66514285D01*
X82714285Y-66323809D01*
X82714285Y-66180952D01*
X82761904Y-65990476D01*
X82809523Y-65895238D01*
X82904761Y-65800000D01*
X83047619Y-65752380D01*
X83142857Y-65752380D01*
X83285714Y-65800000D01*
X83333333Y-65847619D01*
X84238095Y-65752380D02*
X83761904Y-65752380D01*
X83714285Y-66228571D01*
X83761904Y-66180952D01*
X83857142Y-66133333D01*
X84095238Y-66133333D01*
X84190476Y-66180952D01*
X84238095Y-66228571D01*
X84285714Y-66323809D01*
X84285714Y-66561904D01*
X84238095Y-66657142D01*
X84190476Y-66704761D01*
X84095238Y-66752380D01*
X83857142Y-66752380D01*
X83761904Y-66704761D01*
X83714285Y-66657142D01*
G04 #@! TO.C,C6*
X82633333Y-69457142D02*
X82585714Y-69504761D01*
X82442857Y-69552380D01*
X82347619Y-69552380D01*
X82204761Y-69504761D01*
X82109523Y-69409523D01*
X82061904Y-69314285D01*
X82014285Y-69123809D01*
X82014285Y-68980952D01*
X82061904Y-68790476D01*
X82109523Y-68695238D01*
X82204761Y-68600000D01*
X82347619Y-68552380D01*
X82442857Y-68552380D01*
X82585714Y-68600000D01*
X82633333Y-68647619D01*
X83490476Y-68552380D02*
X83300000Y-68552380D01*
X83204761Y-68600000D01*
X83157142Y-68647619D01*
X83061904Y-68790476D01*
X83014285Y-68980952D01*
X83014285Y-69361904D01*
X83061904Y-69457142D01*
X83109523Y-69504761D01*
X83204761Y-69552380D01*
X83395238Y-69552380D01*
X83490476Y-69504761D01*
X83538095Y-69457142D01*
X83585714Y-69361904D01*
X83585714Y-69123809D01*
X83538095Y-69028571D01*
X83490476Y-68980952D01*
X83395238Y-68933333D01*
X83204761Y-68933333D01*
X83109523Y-68980952D01*
X83061904Y-69028571D01*
X83014285Y-69123809D01*
G04 #@! TO.C,C7*
X74433333Y-79857142D02*
X74385714Y-79904761D01*
X74242857Y-79952380D01*
X74147619Y-79952380D01*
X74004761Y-79904761D01*
X73909523Y-79809523D01*
X73861904Y-79714285D01*
X73814285Y-79523809D01*
X73814285Y-79380952D01*
X73861904Y-79190476D01*
X73909523Y-79095238D01*
X74004761Y-79000000D01*
X74147619Y-78952380D01*
X74242857Y-78952380D01*
X74385714Y-79000000D01*
X74433333Y-79047619D01*
X74766666Y-78952380D02*
X75433333Y-78952380D01*
X75004761Y-79952380D01*
G04 #@! TO.C,C8*
X95133333Y-87557142D02*
X95085714Y-87604761D01*
X94942857Y-87652380D01*
X94847619Y-87652380D01*
X94704761Y-87604761D01*
X94609523Y-87509523D01*
X94561904Y-87414285D01*
X94514285Y-87223809D01*
X94514285Y-87080952D01*
X94561904Y-86890476D01*
X94609523Y-86795238D01*
X94704761Y-86700000D01*
X94847619Y-86652380D01*
X94942857Y-86652380D01*
X95085714Y-86700000D01*
X95133333Y-86747619D01*
X95704761Y-87080952D02*
X95609523Y-87033333D01*
X95561904Y-86985714D01*
X95514285Y-86890476D01*
X95514285Y-86842857D01*
X95561904Y-86747619D01*
X95609523Y-86700000D01*
X95704761Y-86652380D01*
X95895238Y-86652380D01*
X95990476Y-86700000D01*
X96038095Y-86747619D01*
X96085714Y-86842857D01*
X96085714Y-86890476D01*
X96038095Y-86985714D01*
X95990476Y-87033333D01*
X95895238Y-87080952D01*
X95704761Y-87080952D01*
X95609523Y-87128571D01*
X95561904Y-87176190D01*
X95514285Y-87271428D01*
X95514285Y-87461904D01*
X95561904Y-87557142D01*
X95609523Y-87604761D01*
X95704761Y-87652380D01*
X95895238Y-87652380D01*
X95990476Y-87604761D01*
X96038095Y-87557142D01*
X96085714Y-87461904D01*
X96085714Y-87271428D01*
X96038095Y-87176190D01*
X95990476Y-87128571D01*
X95895238Y-87080952D01*
G04 #@! TO.C,C9*
X101833333Y-61857142D02*
X101785714Y-61904761D01*
X101642857Y-61952380D01*
X101547619Y-61952380D01*
X101404761Y-61904761D01*
X101309523Y-61809523D01*
X101261904Y-61714285D01*
X101214285Y-61523809D01*
X101214285Y-61380952D01*
X101261904Y-61190476D01*
X101309523Y-61095238D01*
X101404761Y-61000000D01*
X101547619Y-60952380D01*
X101642857Y-60952380D01*
X101785714Y-61000000D01*
X101833333Y-61047619D01*
X102309523Y-61952380D02*
X102500000Y-61952380D01*
X102595238Y-61904761D01*
X102642857Y-61857142D01*
X102738095Y-61714285D01*
X102785714Y-61523809D01*
X102785714Y-61142857D01*
X102738095Y-61047619D01*
X102690476Y-61000000D01*
X102595238Y-60952380D01*
X102404761Y-60952380D01*
X102309523Y-61000000D01*
X102261904Y-61047619D01*
X102214285Y-61142857D01*
X102214285Y-61380952D01*
X102261904Y-61476190D01*
X102309523Y-61523809D01*
X102404761Y-61571428D01*
X102595238Y-61571428D01*
X102690476Y-61523809D01*
X102738095Y-61476190D01*
X102785714Y-61380952D01*
G04 #@! TO.C,C10*
X66457142Y-73307142D02*
X66409523Y-73354761D01*
X66266666Y-73402380D01*
X66171428Y-73402380D01*
X66028571Y-73354761D01*
X65933333Y-73259523D01*
X65885714Y-73164285D01*
X65838095Y-72973809D01*
X65838095Y-72830952D01*
X65885714Y-72640476D01*
X65933333Y-72545238D01*
X66028571Y-72450000D01*
X66171428Y-72402380D01*
X66266666Y-72402380D01*
X66409523Y-72450000D01*
X66457142Y-72497619D01*
X67409523Y-73402380D02*
X66838095Y-73402380D01*
X67123809Y-73402380D02*
X67123809Y-72402380D01*
X67028571Y-72545238D01*
X66933333Y-72640476D01*
X66838095Y-72688095D01*
X68028571Y-72402380D02*
X68123809Y-72402380D01*
X68219047Y-72450000D01*
X68266666Y-72497619D01*
X68314285Y-72592857D01*
X68361904Y-72783333D01*
X68361904Y-73021428D01*
X68314285Y-73211904D01*
X68266666Y-73307142D01*
X68219047Y-73354761D01*
X68123809Y-73402380D01*
X68028571Y-73402380D01*
X67933333Y-73354761D01*
X67885714Y-73307142D01*
X67838095Y-73211904D01*
X67790476Y-73021428D01*
X67790476Y-72783333D01*
X67838095Y-72592857D01*
X67885714Y-72497619D01*
X67933333Y-72450000D01*
X68028571Y-72402380D01*
G04 #@! TO.C,C11*
X66457142Y-81307142D02*
X66409523Y-81354761D01*
X66266666Y-81402380D01*
X66171428Y-81402380D01*
X66028571Y-81354761D01*
X65933333Y-81259523D01*
X65885714Y-81164285D01*
X65838095Y-80973809D01*
X65838095Y-80830952D01*
X65885714Y-80640476D01*
X65933333Y-80545238D01*
X66028571Y-80450000D01*
X66171428Y-80402380D01*
X66266666Y-80402380D01*
X66409523Y-80450000D01*
X66457142Y-80497619D01*
X67409523Y-81402380D02*
X66838095Y-81402380D01*
X67123809Y-81402380D02*
X67123809Y-80402380D01*
X67028571Y-80545238D01*
X66933333Y-80640476D01*
X66838095Y-80688095D01*
X68361904Y-81402380D02*
X67790476Y-81402380D01*
X68076190Y-81402380D02*
X68076190Y-80402380D01*
X67980952Y-80545238D01*
X67885714Y-80640476D01*
X67790476Y-80688095D01*
G04 #@! TO.C,C12*
X66457142Y-89307142D02*
X66409523Y-89354761D01*
X66266666Y-89402380D01*
X66171428Y-89402380D01*
X66028571Y-89354761D01*
X65933333Y-89259523D01*
X65885714Y-89164285D01*
X65838095Y-88973809D01*
X65838095Y-88830952D01*
X65885714Y-88640476D01*
X65933333Y-88545238D01*
X66028571Y-88450000D01*
X66171428Y-88402380D01*
X66266666Y-88402380D01*
X66409523Y-88450000D01*
X66457142Y-88497619D01*
X67409523Y-89402380D02*
X66838095Y-89402380D01*
X67123809Y-89402380D02*
X67123809Y-88402380D01*
X67028571Y-88545238D01*
X66933333Y-88640476D01*
X66838095Y-88688095D01*
X67790476Y-88497619D02*
X67838095Y-88450000D01*
X67933333Y-88402380D01*
X68171428Y-88402380D01*
X68266666Y-88450000D01*
X68314285Y-88497619D01*
X68361904Y-88592857D01*
X68361904Y-88688095D01*
X68314285Y-88830952D01*
X67742857Y-89402380D01*
X68361904Y-89402380D01*
G04 #@! TO.C,C13*
X91057142Y-69457142D02*
X91009523Y-69504761D01*
X90866666Y-69552380D01*
X90771428Y-69552380D01*
X90628571Y-69504761D01*
X90533333Y-69409523D01*
X90485714Y-69314285D01*
X90438095Y-69123809D01*
X90438095Y-68980952D01*
X90485714Y-68790476D01*
X90533333Y-68695238D01*
X90628571Y-68600000D01*
X90771428Y-68552380D01*
X90866666Y-68552380D01*
X91009523Y-68600000D01*
X91057142Y-68647619D01*
X92009523Y-69552380D02*
X91438095Y-69552380D01*
X91723809Y-69552380D02*
X91723809Y-68552380D01*
X91628571Y-68695238D01*
X91533333Y-68790476D01*
X91438095Y-68838095D01*
X92342857Y-68552380D02*
X92961904Y-68552380D01*
X92628571Y-68933333D01*
X92771428Y-68933333D01*
X92866666Y-68980952D01*
X92914285Y-69028571D01*
X92961904Y-69123809D01*
X92961904Y-69361904D01*
X92914285Y-69457142D01*
X92866666Y-69504761D01*
X92771428Y-69552380D01*
X92485714Y-69552380D01*
X92390476Y-69504761D01*
X92342857Y-69457142D01*
G04 #@! TO.C,C14*
X73757142Y-76657142D02*
X73709523Y-76704761D01*
X73566666Y-76752380D01*
X73471428Y-76752380D01*
X73328571Y-76704761D01*
X73233333Y-76609523D01*
X73185714Y-76514285D01*
X73138095Y-76323809D01*
X73138095Y-76180952D01*
X73185714Y-75990476D01*
X73233333Y-75895238D01*
X73328571Y-75800000D01*
X73471428Y-75752380D01*
X73566666Y-75752380D01*
X73709523Y-75800000D01*
X73757142Y-75847619D01*
X74709523Y-76752380D02*
X74138095Y-76752380D01*
X74423809Y-76752380D02*
X74423809Y-75752380D01*
X74328571Y-75895238D01*
X74233333Y-75990476D01*
X74138095Y-76038095D01*
X75566666Y-76085714D02*
X75566666Y-76752380D01*
X75328571Y-75704761D02*
X75090476Y-76419047D01*
X75709523Y-76419047D01*
G04 #@! TO.C,C15*
X56957142Y-78257142D02*
X56909523Y-78304761D01*
X56766666Y-78352380D01*
X56671428Y-78352380D01*
X56528571Y-78304761D01*
X56433333Y-78209523D01*
X56385714Y-78114285D01*
X56338095Y-77923809D01*
X56338095Y-77780952D01*
X56385714Y-77590476D01*
X56433333Y-77495238D01*
X56528571Y-77400000D01*
X56671428Y-77352380D01*
X56766666Y-77352380D01*
X56909523Y-77400000D01*
X56957142Y-77447619D01*
X57909523Y-78352380D02*
X57338095Y-78352380D01*
X57623809Y-78352380D02*
X57623809Y-77352380D01*
X57528571Y-77495238D01*
X57433333Y-77590476D01*
X57338095Y-77638095D01*
X58814285Y-77352380D02*
X58338095Y-77352380D01*
X58290476Y-77828571D01*
X58338095Y-77780952D01*
X58433333Y-77733333D01*
X58671428Y-77733333D01*
X58766666Y-77780952D01*
X58814285Y-77828571D01*
X58861904Y-77923809D01*
X58861904Y-78161904D01*
X58814285Y-78257142D01*
X58766666Y-78304761D01*
X58671428Y-78352380D01*
X58433333Y-78352380D01*
X58338095Y-78304761D01*
X58290476Y-78257142D01*
G04 #@! TO.C,C16*
X56957142Y-86257142D02*
X56909523Y-86304761D01*
X56766666Y-86352380D01*
X56671428Y-86352380D01*
X56528571Y-86304761D01*
X56433333Y-86209523D01*
X56385714Y-86114285D01*
X56338095Y-85923809D01*
X56338095Y-85780952D01*
X56385714Y-85590476D01*
X56433333Y-85495238D01*
X56528571Y-85400000D01*
X56671428Y-85352380D01*
X56766666Y-85352380D01*
X56909523Y-85400000D01*
X56957142Y-85447619D01*
X57909523Y-86352380D02*
X57338095Y-86352380D01*
X57623809Y-86352380D02*
X57623809Y-85352380D01*
X57528571Y-85495238D01*
X57433333Y-85590476D01*
X57338095Y-85638095D01*
X58766666Y-85352380D02*
X58576190Y-85352380D01*
X58480952Y-85400000D01*
X58433333Y-85447619D01*
X58338095Y-85590476D01*
X58290476Y-85780952D01*
X58290476Y-86161904D01*
X58338095Y-86257142D01*
X58385714Y-86304761D01*
X58480952Y-86352380D01*
X58671428Y-86352380D01*
X58766666Y-86304761D01*
X58814285Y-86257142D01*
X58861904Y-86161904D01*
X58861904Y-85923809D01*
X58814285Y-85828571D01*
X58766666Y-85780952D01*
X58671428Y-85733333D01*
X58480952Y-85733333D01*
X58385714Y-85780952D01*
X58338095Y-85828571D01*
X58290476Y-85923809D01*
G04 #@! TO.C,C17*
X56957142Y-94257142D02*
X56909523Y-94304761D01*
X56766666Y-94352380D01*
X56671428Y-94352380D01*
X56528571Y-94304761D01*
X56433333Y-94209523D01*
X56385714Y-94114285D01*
X56338095Y-93923809D01*
X56338095Y-93780952D01*
X56385714Y-93590476D01*
X56433333Y-93495238D01*
X56528571Y-93400000D01*
X56671428Y-93352380D01*
X56766666Y-93352380D01*
X56909523Y-93400000D01*
X56957142Y-93447619D01*
X57909523Y-94352380D02*
X57338095Y-94352380D01*
X57623809Y-94352380D02*
X57623809Y-93352380D01*
X57528571Y-93495238D01*
X57433333Y-93590476D01*
X57338095Y-93638095D01*
X58242857Y-93352380D02*
X58909523Y-93352380D01*
X58480952Y-94352380D01*
G04 #@! TO.C,C18*
X101857142Y-60457142D02*
X101809523Y-60504761D01*
X101666666Y-60552380D01*
X101571428Y-60552380D01*
X101428571Y-60504761D01*
X101333333Y-60409523D01*
X101285714Y-60314285D01*
X101238095Y-60123809D01*
X101238095Y-59980952D01*
X101285714Y-59790476D01*
X101333333Y-59695238D01*
X101428571Y-59600000D01*
X101571428Y-59552380D01*
X101666666Y-59552380D01*
X101809523Y-59600000D01*
X101857142Y-59647619D01*
X102809523Y-60552380D02*
X102238095Y-60552380D01*
X102523809Y-60552380D02*
X102523809Y-59552380D01*
X102428571Y-59695238D01*
X102333333Y-59790476D01*
X102238095Y-59838095D01*
X103380952Y-59980952D02*
X103285714Y-59933333D01*
X103238095Y-59885714D01*
X103190476Y-59790476D01*
X103190476Y-59742857D01*
X103238095Y-59647619D01*
X103285714Y-59600000D01*
X103380952Y-59552380D01*
X103571428Y-59552380D01*
X103666666Y-59600000D01*
X103714285Y-59647619D01*
X103761904Y-59742857D01*
X103761904Y-59790476D01*
X103714285Y-59885714D01*
X103666666Y-59933333D01*
X103571428Y-59980952D01*
X103380952Y-59980952D01*
X103285714Y-60028571D01*
X103238095Y-60076190D01*
X103190476Y-60171428D01*
X103190476Y-60361904D01*
X103238095Y-60457142D01*
X103285714Y-60504761D01*
X103380952Y-60552380D01*
X103571428Y-60552380D01*
X103666666Y-60504761D01*
X103714285Y-60457142D01*
X103761904Y-60361904D01*
X103761904Y-60171428D01*
X103714285Y-60076190D01*
X103666666Y-60028571D01*
X103571428Y-59980952D01*
G04 #@! TO.C,C19*
X113057142Y-91557142D02*
X113009523Y-91604761D01*
X112866666Y-91652380D01*
X112771428Y-91652380D01*
X112628571Y-91604761D01*
X112533333Y-91509523D01*
X112485714Y-91414285D01*
X112438095Y-91223809D01*
X112438095Y-91080952D01*
X112485714Y-90890476D01*
X112533333Y-90795238D01*
X112628571Y-90700000D01*
X112771428Y-90652380D01*
X112866666Y-90652380D01*
X113009523Y-90700000D01*
X113057142Y-90747619D01*
X114009523Y-91652380D02*
X113438095Y-91652380D01*
X113723809Y-91652380D02*
X113723809Y-90652380D01*
X113628571Y-90795238D01*
X113533333Y-90890476D01*
X113438095Y-90938095D01*
X114485714Y-91652380D02*
X114676190Y-91652380D01*
X114771428Y-91604761D01*
X114819047Y-91557142D01*
X114914285Y-91414285D01*
X114961904Y-91223809D01*
X114961904Y-90842857D01*
X114914285Y-90747619D01*
X114866666Y-90700000D01*
X114771428Y-90652380D01*
X114580952Y-90652380D01*
X114485714Y-90700000D01*
X114438095Y-90747619D01*
X114390476Y-90842857D01*
X114390476Y-91080952D01*
X114438095Y-91176190D01*
X114485714Y-91223809D01*
X114580952Y-91271428D01*
X114771428Y-91271428D01*
X114866666Y-91223809D01*
X114914285Y-91176190D01*
X114961904Y-91080952D01*
G04 #@! TO.C,C20*
X127757142Y-87857142D02*
X127709523Y-87904761D01*
X127566666Y-87952380D01*
X127471428Y-87952380D01*
X127328571Y-87904761D01*
X127233333Y-87809523D01*
X127185714Y-87714285D01*
X127138095Y-87523809D01*
X127138095Y-87380952D01*
X127185714Y-87190476D01*
X127233333Y-87095238D01*
X127328571Y-87000000D01*
X127471428Y-86952380D01*
X127566666Y-86952380D01*
X127709523Y-87000000D01*
X127757142Y-87047619D01*
X128138095Y-87047619D02*
X128185714Y-87000000D01*
X128280952Y-86952380D01*
X128519047Y-86952380D01*
X128614285Y-87000000D01*
X128661904Y-87047619D01*
X128709523Y-87142857D01*
X128709523Y-87238095D01*
X128661904Y-87380952D01*
X128090476Y-87952380D01*
X128709523Y-87952380D01*
X129328571Y-86952380D02*
X129423809Y-86952380D01*
X129519047Y-87000000D01*
X129566666Y-87047619D01*
X129614285Y-87142857D01*
X129661904Y-87333333D01*
X129661904Y-87571428D01*
X129614285Y-87761904D01*
X129566666Y-87857142D01*
X129519047Y-87904761D01*
X129423809Y-87952380D01*
X129328571Y-87952380D01*
X129233333Y-87904761D01*
X129185714Y-87857142D01*
X129138095Y-87761904D01*
X129090476Y-87571428D01*
X129090476Y-87333333D01*
X129138095Y-87142857D01*
X129185714Y-87047619D01*
X129233333Y-87000000D01*
X129328571Y-86952380D01*
G04 #@! TO.C,C21*
X105657142Y-63257142D02*
X105609523Y-63304761D01*
X105466666Y-63352380D01*
X105371428Y-63352380D01*
X105228571Y-63304761D01*
X105133333Y-63209523D01*
X105085714Y-63114285D01*
X105038095Y-62923809D01*
X105038095Y-62780952D01*
X105085714Y-62590476D01*
X105133333Y-62495238D01*
X105228571Y-62400000D01*
X105371428Y-62352380D01*
X105466666Y-62352380D01*
X105609523Y-62400000D01*
X105657142Y-62447619D01*
X106038095Y-62447619D02*
X106085714Y-62400000D01*
X106180952Y-62352380D01*
X106419047Y-62352380D01*
X106514285Y-62400000D01*
X106561904Y-62447619D01*
X106609523Y-62542857D01*
X106609523Y-62638095D01*
X106561904Y-62780952D01*
X105990476Y-63352380D01*
X106609523Y-63352380D01*
X107561904Y-63352380D02*
X106990476Y-63352380D01*
X107276190Y-63352380D02*
X107276190Y-62352380D01*
X107180952Y-62495238D01*
X107085714Y-62590476D01*
X106990476Y-62638095D01*
G04 #@! TO.C,C22*
X118757142Y-88857142D02*
X118709523Y-88904761D01*
X118566666Y-88952380D01*
X118471428Y-88952380D01*
X118328571Y-88904761D01*
X118233333Y-88809523D01*
X118185714Y-88714285D01*
X118138095Y-88523809D01*
X118138095Y-88380952D01*
X118185714Y-88190476D01*
X118233333Y-88095238D01*
X118328571Y-88000000D01*
X118471428Y-87952380D01*
X118566666Y-87952380D01*
X118709523Y-88000000D01*
X118757142Y-88047619D01*
X119138095Y-88047619D02*
X119185714Y-88000000D01*
X119280952Y-87952380D01*
X119519047Y-87952380D01*
X119614285Y-88000000D01*
X119661904Y-88047619D01*
X119709523Y-88142857D01*
X119709523Y-88238095D01*
X119661904Y-88380952D01*
X119090476Y-88952380D01*
X119709523Y-88952380D01*
X120090476Y-88047619D02*
X120138095Y-88000000D01*
X120233333Y-87952380D01*
X120471428Y-87952380D01*
X120566666Y-88000000D01*
X120614285Y-88047619D01*
X120661904Y-88142857D01*
X120661904Y-88238095D01*
X120614285Y-88380952D01*
X120042857Y-88952380D01*
X120661904Y-88952380D01*
G04 #@! TO.C,C23*
X127757142Y-86357142D02*
X127709523Y-86404761D01*
X127566666Y-86452380D01*
X127471428Y-86452380D01*
X127328571Y-86404761D01*
X127233333Y-86309523D01*
X127185714Y-86214285D01*
X127138095Y-86023809D01*
X127138095Y-85880952D01*
X127185714Y-85690476D01*
X127233333Y-85595238D01*
X127328571Y-85500000D01*
X127471428Y-85452380D01*
X127566666Y-85452380D01*
X127709523Y-85500000D01*
X127757142Y-85547619D01*
X128138095Y-85547619D02*
X128185714Y-85500000D01*
X128280952Y-85452380D01*
X128519047Y-85452380D01*
X128614285Y-85500000D01*
X128661904Y-85547619D01*
X128709523Y-85642857D01*
X128709523Y-85738095D01*
X128661904Y-85880952D01*
X128090476Y-86452380D01*
X128709523Y-86452380D01*
X129042857Y-85452380D02*
X129661904Y-85452380D01*
X129328571Y-85833333D01*
X129471428Y-85833333D01*
X129566666Y-85880952D01*
X129614285Y-85928571D01*
X129661904Y-86023809D01*
X129661904Y-86261904D01*
X129614285Y-86357142D01*
X129566666Y-86404761D01*
X129471428Y-86452380D01*
X129185714Y-86452380D01*
X129090476Y-86404761D01*
X129042857Y-86357142D01*
G04 #@! TO.C,C24*
X110657142Y-69457142D02*
X110609523Y-69504761D01*
X110466666Y-69552380D01*
X110371428Y-69552380D01*
X110228571Y-69504761D01*
X110133333Y-69409523D01*
X110085714Y-69314285D01*
X110038095Y-69123809D01*
X110038095Y-68980952D01*
X110085714Y-68790476D01*
X110133333Y-68695238D01*
X110228571Y-68600000D01*
X110371428Y-68552380D01*
X110466666Y-68552380D01*
X110609523Y-68600000D01*
X110657142Y-68647619D01*
X111038095Y-68647619D02*
X111085714Y-68600000D01*
X111180952Y-68552380D01*
X111419047Y-68552380D01*
X111514285Y-68600000D01*
X111561904Y-68647619D01*
X111609523Y-68742857D01*
X111609523Y-68838095D01*
X111561904Y-68980952D01*
X110990476Y-69552380D01*
X111609523Y-69552380D01*
X112466666Y-68885714D02*
X112466666Y-69552380D01*
X112228571Y-68504761D02*
X111990476Y-69219047D01*
X112609523Y-69219047D01*
G04 #@! TO.C,C25*
X105657142Y-61857142D02*
X105609523Y-61904761D01*
X105466666Y-61952380D01*
X105371428Y-61952380D01*
X105228571Y-61904761D01*
X105133333Y-61809523D01*
X105085714Y-61714285D01*
X105038095Y-61523809D01*
X105038095Y-61380952D01*
X105085714Y-61190476D01*
X105133333Y-61095238D01*
X105228571Y-61000000D01*
X105371428Y-60952380D01*
X105466666Y-60952380D01*
X105609523Y-61000000D01*
X105657142Y-61047619D01*
X106038095Y-61047619D02*
X106085714Y-61000000D01*
X106180952Y-60952380D01*
X106419047Y-60952380D01*
X106514285Y-61000000D01*
X106561904Y-61047619D01*
X106609523Y-61142857D01*
X106609523Y-61238095D01*
X106561904Y-61380952D01*
X105990476Y-61952380D01*
X106609523Y-61952380D01*
X107514285Y-60952380D02*
X107038095Y-60952380D01*
X106990476Y-61428571D01*
X107038095Y-61380952D01*
X107133333Y-61333333D01*
X107371428Y-61333333D01*
X107466666Y-61380952D01*
X107514285Y-61428571D01*
X107561904Y-61523809D01*
X107561904Y-61761904D01*
X107514285Y-61857142D01*
X107466666Y-61904761D01*
X107371428Y-61952380D01*
X107133333Y-61952380D01*
X107038095Y-61904761D01*
X106990476Y-61857142D01*
G04 #@! TO.C,C26*
X111057142Y-66657142D02*
X111009523Y-66704761D01*
X110866666Y-66752380D01*
X110771428Y-66752380D01*
X110628571Y-66704761D01*
X110533333Y-66609523D01*
X110485714Y-66514285D01*
X110438095Y-66323809D01*
X110438095Y-66180952D01*
X110485714Y-65990476D01*
X110533333Y-65895238D01*
X110628571Y-65800000D01*
X110771428Y-65752380D01*
X110866666Y-65752380D01*
X111009523Y-65800000D01*
X111057142Y-65847619D01*
X111438095Y-65847619D02*
X111485714Y-65800000D01*
X111580952Y-65752380D01*
X111819047Y-65752380D01*
X111914285Y-65800000D01*
X111961904Y-65847619D01*
X112009523Y-65942857D01*
X112009523Y-66038095D01*
X111961904Y-66180952D01*
X111390476Y-66752380D01*
X112009523Y-66752380D01*
X112866666Y-65752380D02*
X112676190Y-65752380D01*
X112580952Y-65800000D01*
X112533333Y-65847619D01*
X112438095Y-65990476D01*
X112390476Y-66180952D01*
X112390476Y-66561904D01*
X112438095Y-66657142D01*
X112485714Y-66704761D01*
X112580952Y-66752380D01*
X112771428Y-66752380D01*
X112866666Y-66704761D01*
X112914285Y-66657142D01*
X112961904Y-66561904D01*
X112961904Y-66323809D01*
X112914285Y-66228571D01*
X112866666Y-66180952D01*
X112771428Y-66133333D01*
X112580952Y-66133333D01*
X112485714Y-66180952D01*
X112438095Y-66228571D01*
X112390476Y-66323809D01*
G04 #@! TO.C,C27*
X127757142Y-84857142D02*
X127709523Y-84904761D01*
X127566666Y-84952380D01*
X127471428Y-84952380D01*
X127328571Y-84904761D01*
X127233333Y-84809523D01*
X127185714Y-84714285D01*
X127138095Y-84523809D01*
X127138095Y-84380952D01*
X127185714Y-84190476D01*
X127233333Y-84095238D01*
X127328571Y-84000000D01*
X127471428Y-83952380D01*
X127566666Y-83952380D01*
X127709523Y-84000000D01*
X127757142Y-84047619D01*
X128138095Y-84047619D02*
X128185714Y-84000000D01*
X128280952Y-83952380D01*
X128519047Y-83952380D01*
X128614285Y-84000000D01*
X128661904Y-84047619D01*
X128709523Y-84142857D01*
X128709523Y-84238095D01*
X128661904Y-84380952D01*
X128090476Y-84952380D01*
X128709523Y-84952380D01*
X129042857Y-83952380D02*
X129709523Y-83952380D01*
X129280952Y-84952380D01*
G04 #@! TO.C,C28*
X119057142Y-69457142D02*
X119009523Y-69504761D01*
X118866666Y-69552380D01*
X118771428Y-69552380D01*
X118628571Y-69504761D01*
X118533333Y-69409523D01*
X118485714Y-69314285D01*
X118438095Y-69123809D01*
X118438095Y-68980952D01*
X118485714Y-68790476D01*
X118533333Y-68695238D01*
X118628571Y-68600000D01*
X118771428Y-68552380D01*
X118866666Y-68552380D01*
X119009523Y-68600000D01*
X119057142Y-68647619D01*
X119438095Y-68647619D02*
X119485714Y-68600000D01*
X119580952Y-68552380D01*
X119819047Y-68552380D01*
X119914285Y-68600000D01*
X119961904Y-68647619D01*
X120009523Y-68742857D01*
X120009523Y-68838095D01*
X119961904Y-68980952D01*
X119390476Y-69552380D01*
X120009523Y-69552380D01*
X120580952Y-68980952D02*
X120485714Y-68933333D01*
X120438095Y-68885714D01*
X120390476Y-68790476D01*
X120390476Y-68742857D01*
X120438095Y-68647619D01*
X120485714Y-68600000D01*
X120580952Y-68552380D01*
X120771428Y-68552380D01*
X120866666Y-68600000D01*
X120914285Y-68647619D01*
X120961904Y-68742857D01*
X120961904Y-68790476D01*
X120914285Y-68885714D01*
X120866666Y-68933333D01*
X120771428Y-68980952D01*
X120580952Y-68980952D01*
X120485714Y-69028571D01*
X120438095Y-69076190D01*
X120390476Y-69171428D01*
X120390476Y-69361904D01*
X120438095Y-69457142D01*
X120485714Y-69504761D01*
X120580952Y-69552380D01*
X120771428Y-69552380D01*
X120866666Y-69504761D01*
X120914285Y-69457142D01*
X120961904Y-69361904D01*
X120961904Y-69171428D01*
X120914285Y-69076190D01*
X120866666Y-69028571D01*
X120771428Y-68980952D01*
G04 #@! TO.C,C29*
X105657142Y-60457142D02*
X105609523Y-60504761D01*
X105466666Y-60552380D01*
X105371428Y-60552380D01*
X105228571Y-60504761D01*
X105133333Y-60409523D01*
X105085714Y-60314285D01*
X105038095Y-60123809D01*
X105038095Y-59980952D01*
X105085714Y-59790476D01*
X105133333Y-59695238D01*
X105228571Y-59600000D01*
X105371428Y-59552380D01*
X105466666Y-59552380D01*
X105609523Y-59600000D01*
X105657142Y-59647619D01*
X106038095Y-59647619D02*
X106085714Y-59600000D01*
X106180952Y-59552380D01*
X106419047Y-59552380D01*
X106514285Y-59600000D01*
X106561904Y-59647619D01*
X106609523Y-59742857D01*
X106609523Y-59838095D01*
X106561904Y-59980952D01*
X105990476Y-60552380D01*
X106609523Y-60552380D01*
X107085714Y-60552380D02*
X107276190Y-60552380D01*
X107371428Y-60504761D01*
X107419047Y-60457142D01*
X107514285Y-60314285D01*
X107561904Y-60123809D01*
X107561904Y-59742857D01*
X107514285Y-59647619D01*
X107466666Y-59600000D01*
X107371428Y-59552380D01*
X107180952Y-59552380D01*
X107085714Y-59600000D01*
X107038095Y-59647619D01*
X106990476Y-59742857D01*
X106990476Y-59980952D01*
X107038095Y-60076190D01*
X107085714Y-60123809D01*
X107180952Y-60171428D01*
X107371428Y-60171428D01*
X107466666Y-60123809D01*
X107514285Y-60076190D01*
X107561904Y-59980952D01*
G04 #@! TO.C,C30*
X119957142Y-66657142D02*
X119909523Y-66704761D01*
X119766666Y-66752380D01*
X119671428Y-66752380D01*
X119528571Y-66704761D01*
X119433333Y-66609523D01*
X119385714Y-66514285D01*
X119338095Y-66323809D01*
X119338095Y-66180952D01*
X119385714Y-65990476D01*
X119433333Y-65895238D01*
X119528571Y-65800000D01*
X119671428Y-65752380D01*
X119766666Y-65752380D01*
X119909523Y-65800000D01*
X119957142Y-65847619D01*
X120290476Y-65752380D02*
X120909523Y-65752380D01*
X120576190Y-66133333D01*
X120719047Y-66133333D01*
X120814285Y-66180952D01*
X120861904Y-66228571D01*
X120909523Y-66323809D01*
X120909523Y-66561904D01*
X120861904Y-66657142D01*
X120814285Y-66704761D01*
X120719047Y-66752380D01*
X120433333Y-66752380D01*
X120338095Y-66704761D01*
X120290476Y-66657142D01*
X121528571Y-65752380D02*
X121623809Y-65752380D01*
X121719047Y-65800000D01*
X121766666Y-65847619D01*
X121814285Y-65942857D01*
X121861904Y-66133333D01*
X121861904Y-66371428D01*
X121814285Y-66561904D01*
X121766666Y-66657142D01*
X121719047Y-66704761D01*
X121623809Y-66752380D01*
X121528571Y-66752380D01*
X121433333Y-66704761D01*
X121385714Y-66657142D01*
X121338095Y-66561904D01*
X121290476Y-66371428D01*
X121290476Y-66133333D01*
X121338095Y-65942857D01*
X121385714Y-65847619D01*
X121433333Y-65800000D01*
X121528571Y-65752380D01*
G04 #@! TO.C,C31*
X103757142Y-59157142D02*
X103709523Y-59204761D01*
X103566666Y-59252380D01*
X103471428Y-59252380D01*
X103328571Y-59204761D01*
X103233333Y-59109523D01*
X103185714Y-59014285D01*
X103138095Y-58823809D01*
X103138095Y-58680952D01*
X103185714Y-58490476D01*
X103233333Y-58395238D01*
X103328571Y-58300000D01*
X103471428Y-58252380D01*
X103566666Y-58252380D01*
X103709523Y-58300000D01*
X103757142Y-58347619D01*
X104090476Y-58252380D02*
X104709523Y-58252380D01*
X104376190Y-58633333D01*
X104519047Y-58633333D01*
X104614285Y-58680952D01*
X104661904Y-58728571D01*
X104709523Y-58823809D01*
X104709523Y-59061904D01*
X104661904Y-59157142D01*
X104614285Y-59204761D01*
X104519047Y-59252380D01*
X104233333Y-59252380D01*
X104138095Y-59204761D01*
X104090476Y-59157142D01*
X105661904Y-59252380D02*
X105090476Y-59252380D01*
X105376190Y-59252380D02*
X105376190Y-58252380D01*
X105280952Y-58395238D01*
X105185714Y-58490476D01*
X105090476Y-58538095D01*
G04 #@! TO.C,C32*
X133357142Y-98057142D02*
X133309523Y-98104761D01*
X133166666Y-98152380D01*
X133071428Y-98152380D01*
X132928571Y-98104761D01*
X132833333Y-98009523D01*
X132785714Y-97914285D01*
X132738095Y-97723809D01*
X132738095Y-97580952D01*
X132785714Y-97390476D01*
X132833333Y-97295238D01*
X132928571Y-97200000D01*
X133071428Y-97152380D01*
X133166666Y-97152380D01*
X133309523Y-97200000D01*
X133357142Y-97247619D01*
X133690476Y-97152380D02*
X134309523Y-97152380D01*
X133976190Y-97533333D01*
X134119047Y-97533333D01*
X134214285Y-97580952D01*
X134261904Y-97628571D01*
X134309523Y-97723809D01*
X134309523Y-97961904D01*
X134261904Y-98057142D01*
X134214285Y-98104761D01*
X134119047Y-98152380D01*
X133833333Y-98152380D01*
X133738095Y-98104761D01*
X133690476Y-98057142D01*
X134690476Y-97247619D02*
X134738095Y-97200000D01*
X134833333Y-97152380D01*
X135071428Y-97152380D01*
X135166666Y-97200000D01*
X135214285Y-97247619D01*
X135261904Y-97342857D01*
X135261904Y-97438095D01*
X135214285Y-97580952D01*
X134642857Y-98152380D01*
X135261904Y-98152380D01*
G04 #@! TO.C,C33*
X133357142Y-96757142D02*
X133309523Y-96804761D01*
X133166666Y-96852380D01*
X133071428Y-96852380D01*
X132928571Y-96804761D01*
X132833333Y-96709523D01*
X132785714Y-96614285D01*
X132738095Y-96423809D01*
X132738095Y-96280952D01*
X132785714Y-96090476D01*
X132833333Y-95995238D01*
X132928571Y-95900000D01*
X133071428Y-95852380D01*
X133166666Y-95852380D01*
X133309523Y-95900000D01*
X133357142Y-95947619D01*
X133690476Y-95852380D02*
X134309523Y-95852380D01*
X133976190Y-96233333D01*
X134119047Y-96233333D01*
X134214285Y-96280952D01*
X134261904Y-96328571D01*
X134309523Y-96423809D01*
X134309523Y-96661904D01*
X134261904Y-96757142D01*
X134214285Y-96804761D01*
X134119047Y-96852380D01*
X133833333Y-96852380D01*
X133738095Y-96804761D01*
X133690476Y-96757142D01*
X134642857Y-95852380D02*
X135261904Y-95852380D01*
X134928571Y-96233333D01*
X135071428Y-96233333D01*
X135166666Y-96280952D01*
X135214285Y-96328571D01*
X135261904Y-96423809D01*
X135261904Y-96661904D01*
X135214285Y-96757142D01*
X135166666Y-96804761D01*
X135071428Y-96852380D01*
X134785714Y-96852380D01*
X134690476Y-96804761D01*
X134642857Y-96757142D01*
G04 #@! TO.C,C34*
X71557142Y-101657142D02*
X71509523Y-101704761D01*
X71366666Y-101752380D01*
X71271428Y-101752380D01*
X71128571Y-101704761D01*
X71033333Y-101609523D01*
X70985714Y-101514285D01*
X70938095Y-101323809D01*
X70938095Y-101180952D01*
X70985714Y-100990476D01*
X71033333Y-100895238D01*
X71128571Y-100800000D01*
X71271428Y-100752380D01*
X71366666Y-100752380D01*
X71509523Y-100800000D01*
X71557142Y-100847619D01*
X71890476Y-100752380D02*
X72509523Y-100752380D01*
X72176190Y-101133333D01*
X72319047Y-101133333D01*
X72414285Y-101180952D01*
X72461904Y-101228571D01*
X72509523Y-101323809D01*
X72509523Y-101561904D01*
X72461904Y-101657142D01*
X72414285Y-101704761D01*
X72319047Y-101752380D01*
X72033333Y-101752380D01*
X71938095Y-101704761D01*
X71890476Y-101657142D01*
X73366666Y-101085714D02*
X73366666Y-101752380D01*
X73128571Y-100704761D02*
X72890476Y-101419047D01*
X73509523Y-101419047D01*
G04 #@! TO.C,C35*
X113257142Y-111657142D02*
X113209523Y-111704761D01*
X113066666Y-111752380D01*
X112971428Y-111752380D01*
X112828571Y-111704761D01*
X112733333Y-111609523D01*
X112685714Y-111514285D01*
X112638095Y-111323809D01*
X112638095Y-111180952D01*
X112685714Y-110990476D01*
X112733333Y-110895238D01*
X112828571Y-110800000D01*
X112971428Y-110752380D01*
X113066666Y-110752380D01*
X113209523Y-110800000D01*
X113257142Y-110847619D01*
X113590476Y-110752380D02*
X114209523Y-110752380D01*
X113876190Y-111133333D01*
X114019047Y-111133333D01*
X114114285Y-111180952D01*
X114161904Y-111228571D01*
X114209523Y-111323809D01*
X114209523Y-111561904D01*
X114161904Y-111657142D01*
X114114285Y-111704761D01*
X114019047Y-111752380D01*
X113733333Y-111752380D01*
X113638095Y-111704761D01*
X113590476Y-111657142D01*
X115114285Y-110752380D02*
X114638095Y-110752380D01*
X114590476Y-111228571D01*
X114638095Y-111180952D01*
X114733333Y-111133333D01*
X114971428Y-111133333D01*
X115066666Y-111180952D01*
X115114285Y-111228571D01*
X115161904Y-111323809D01*
X115161904Y-111561904D01*
X115114285Y-111657142D01*
X115066666Y-111704761D01*
X114971428Y-111752380D01*
X114733333Y-111752380D01*
X114638095Y-111704761D01*
X114590476Y-111657142D01*
G04 #@! TO.C,C36*
X71557142Y-103257142D02*
X71509523Y-103304761D01*
X71366666Y-103352380D01*
X71271428Y-103352380D01*
X71128571Y-103304761D01*
X71033333Y-103209523D01*
X70985714Y-103114285D01*
X70938095Y-102923809D01*
X70938095Y-102780952D01*
X70985714Y-102590476D01*
X71033333Y-102495238D01*
X71128571Y-102400000D01*
X71271428Y-102352380D01*
X71366666Y-102352380D01*
X71509523Y-102400000D01*
X71557142Y-102447619D01*
X71890476Y-102352380D02*
X72509523Y-102352380D01*
X72176190Y-102733333D01*
X72319047Y-102733333D01*
X72414285Y-102780952D01*
X72461904Y-102828571D01*
X72509523Y-102923809D01*
X72509523Y-103161904D01*
X72461904Y-103257142D01*
X72414285Y-103304761D01*
X72319047Y-103352380D01*
X72033333Y-103352380D01*
X71938095Y-103304761D01*
X71890476Y-103257142D01*
X73366666Y-102352380D02*
X73176190Y-102352380D01*
X73080952Y-102400000D01*
X73033333Y-102447619D01*
X72938095Y-102590476D01*
X72890476Y-102780952D01*
X72890476Y-103161904D01*
X72938095Y-103257142D01*
X72985714Y-103304761D01*
X73080952Y-103352380D01*
X73271428Y-103352380D01*
X73366666Y-103304761D01*
X73414285Y-103257142D01*
X73461904Y-103161904D01*
X73461904Y-102923809D01*
X73414285Y-102828571D01*
X73366666Y-102780952D01*
X73271428Y-102733333D01*
X73080952Y-102733333D01*
X72985714Y-102780952D01*
X72938095Y-102828571D01*
X72890476Y-102923809D01*
G04 #@! TO.C,C37*
X116157142Y-111657142D02*
X116109523Y-111704761D01*
X115966666Y-111752380D01*
X115871428Y-111752380D01*
X115728571Y-111704761D01*
X115633333Y-111609523D01*
X115585714Y-111514285D01*
X115538095Y-111323809D01*
X115538095Y-111180952D01*
X115585714Y-110990476D01*
X115633333Y-110895238D01*
X115728571Y-110800000D01*
X115871428Y-110752380D01*
X115966666Y-110752380D01*
X116109523Y-110800000D01*
X116157142Y-110847619D01*
X116490476Y-110752380D02*
X117109523Y-110752380D01*
X116776190Y-111133333D01*
X116919047Y-111133333D01*
X117014285Y-111180952D01*
X117061904Y-111228571D01*
X117109523Y-111323809D01*
X117109523Y-111561904D01*
X117061904Y-111657142D01*
X117014285Y-111704761D01*
X116919047Y-111752380D01*
X116633333Y-111752380D01*
X116538095Y-111704761D01*
X116490476Y-111657142D01*
X117442857Y-110752380D02*
X118109523Y-110752380D01*
X117680952Y-111752380D01*
G04 #@! TO.C,C38*
X119057142Y-111657142D02*
X119009523Y-111704761D01*
X118866666Y-111752380D01*
X118771428Y-111752380D01*
X118628571Y-111704761D01*
X118533333Y-111609523D01*
X118485714Y-111514285D01*
X118438095Y-111323809D01*
X118438095Y-111180952D01*
X118485714Y-110990476D01*
X118533333Y-110895238D01*
X118628571Y-110800000D01*
X118771428Y-110752380D01*
X118866666Y-110752380D01*
X119009523Y-110800000D01*
X119057142Y-110847619D01*
X119390476Y-110752380D02*
X120009523Y-110752380D01*
X119676190Y-111133333D01*
X119819047Y-111133333D01*
X119914285Y-111180952D01*
X119961904Y-111228571D01*
X120009523Y-111323809D01*
X120009523Y-111561904D01*
X119961904Y-111657142D01*
X119914285Y-111704761D01*
X119819047Y-111752380D01*
X119533333Y-111752380D01*
X119438095Y-111704761D01*
X119390476Y-111657142D01*
X120580952Y-111180952D02*
X120485714Y-111133333D01*
X120438095Y-111085714D01*
X120390476Y-110990476D01*
X120390476Y-110942857D01*
X120438095Y-110847619D01*
X120485714Y-110800000D01*
X120580952Y-110752380D01*
X120771428Y-110752380D01*
X120866666Y-110800000D01*
X120914285Y-110847619D01*
X120961904Y-110942857D01*
X120961904Y-110990476D01*
X120914285Y-111085714D01*
X120866666Y-111133333D01*
X120771428Y-111180952D01*
X120580952Y-111180952D01*
X120485714Y-111228571D01*
X120438095Y-111276190D01*
X120390476Y-111371428D01*
X120390476Y-111561904D01*
X120438095Y-111657142D01*
X120485714Y-111704761D01*
X120580952Y-111752380D01*
X120771428Y-111752380D01*
X120866666Y-111704761D01*
X120914285Y-111657142D01*
X120961904Y-111561904D01*
X120961904Y-111371428D01*
X120914285Y-111276190D01*
X120866666Y-111228571D01*
X120771428Y-111180952D01*
G04 #@! TO.C,D1*
X51861904Y-72652380D02*
X51861904Y-71652380D01*
X52100000Y-71652380D01*
X52242857Y-71700000D01*
X52338095Y-71795238D01*
X52385714Y-71890476D01*
X52433333Y-72080952D01*
X52433333Y-72223809D01*
X52385714Y-72414285D01*
X52338095Y-72509523D01*
X52242857Y-72604761D01*
X52100000Y-72652380D01*
X51861904Y-72652380D01*
X53385714Y-72652380D02*
X52814285Y-72652380D01*
X53100000Y-72652380D02*
X53100000Y-71652380D01*
X53004761Y-71795238D01*
X52909523Y-71890476D01*
X52814285Y-71938095D01*
G04 #@! TO.C,D2*
X130261904Y-135852380D02*
X130261904Y-134852380D01*
X130500000Y-134852380D01*
X130642857Y-134900000D01*
X130738095Y-134995238D01*
X130785714Y-135090476D01*
X130833333Y-135280952D01*
X130833333Y-135423809D01*
X130785714Y-135614285D01*
X130738095Y-135709523D01*
X130642857Y-135804761D01*
X130500000Y-135852380D01*
X130261904Y-135852380D01*
X131214285Y-134947619D02*
X131261904Y-134900000D01*
X131357142Y-134852380D01*
X131595238Y-134852380D01*
X131690476Y-134900000D01*
X131738095Y-134947619D01*
X131785714Y-135042857D01*
X131785714Y-135138095D01*
X131738095Y-135280952D01*
X131166666Y-135852380D01*
X131785714Y-135852380D01*
G04 #@! TO.C,D3*
X132561904Y-135852380D02*
X132561904Y-134852380D01*
X132800000Y-134852380D01*
X132942857Y-134900000D01*
X133038095Y-134995238D01*
X133085714Y-135090476D01*
X133133333Y-135280952D01*
X133133333Y-135423809D01*
X133085714Y-135614285D01*
X133038095Y-135709523D01*
X132942857Y-135804761D01*
X132800000Y-135852380D01*
X132561904Y-135852380D01*
X133466666Y-134852380D02*
X134085714Y-134852380D01*
X133752380Y-135233333D01*
X133895238Y-135233333D01*
X133990476Y-135280952D01*
X134038095Y-135328571D01*
X134085714Y-135423809D01*
X134085714Y-135661904D01*
X134038095Y-135757142D01*
X133990476Y-135804761D01*
X133895238Y-135852380D01*
X133609523Y-135852380D01*
X133514285Y-135804761D01*
X133466666Y-135757142D01*
G04 #@! TO.C,D4*
X127861904Y-135852380D02*
X127861904Y-134852380D01*
X128100000Y-134852380D01*
X128242857Y-134900000D01*
X128338095Y-134995238D01*
X128385714Y-135090476D01*
X128433333Y-135280952D01*
X128433333Y-135423809D01*
X128385714Y-135614285D01*
X128338095Y-135709523D01*
X128242857Y-135804761D01*
X128100000Y-135852380D01*
X127861904Y-135852380D01*
X129290476Y-135185714D02*
X129290476Y-135852380D01*
X129052380Y-134804761D02*
X128814285Y-135519047D01*
X129433333Y-135519047D01*
G04 #@! TO.C,D5*
D12*
X69335714Y-133507142D02*
X69335714Y-132607142D01*
X69550000Y-132607142D01*
X69678571Y-132650000D01*
X69764285Y-132735714D01*
X69807142Y-132821428D01*
X69850000Y-132992857D01*
X69850000Y-133121428D01*
X69807142Y-133292857D01*
X69764285Y-133378571D01*
X69678571Y-133464285D01*
X69550000Y-133507142D01*
X69335714Y-133507142D01*
X70664285Y-132607142D02*
X70235714Y-132607142D01*
X70192857Y-133035714D01*
X70235714Y-132992857D01*
X70321428Y-132950000D01*
X70535714Y-132950000D01*
X70621428Y-132992857D01*
X70664285Y-133035714D01*
X70707142Y-133121428D01*
X70707142Y-133335714D01*
X70664285Y-133421428D01*
X70621428Y-133464285D01*
X70535714Y-133507142D01*
X70321428Y-133507142D01*
X70235714Y-133464285D01*
X70192857Y-133421428D01*
G04 #@! TO.C,D6*
X72035714Y-133507142D02*
X72035714Y-132607142D01*
X72250000Y-132607142D01*
X72378571Y-132650000D01*
X72464285Y-132735714D01*
X72507142Y-132821428D01*
X72550000Y-132992857D01*
X72550000Y-133121428D01*
X72507142Y-133292857D01*
X72464285Y-133378571D01*
X72378571Y-133464285D01*
X72250000Y-133507142D01*
X72035714Y-133507142D01*
X73321428Y-132607142D02*
X73150000Y-132607142D01*
X73064285Y-132650000D01*
X73021428Y-132692857D01*
X72935714Y-132821428D01*
X72892857Y-132992857D01*
X72892857Y-133335714D01*
X72935714Y-133421428D01*
X72978571Y-133464285D01*
X73064285Y-133507142D01*
X73235714Y-133507142D01*
X73321428Y-133464285D01*
X73364285Y-133421428D01*
X73407142Y-133335714D01*
X73407142Y-133121428D01*
X73364285Y-133035714D01*
X73321428Y-132992857D01*
X73235714Y-132950000D01*
X73064285Y-132950000D01*
X72978571Y-132992857D01*
X72935714Y-133035714D01*
X72892857Y-133121428D01*
G04 #@! TO.C,D7*
X66835714Y-133507142D02*
X66835714Y-132607142D01*
X67050000Y-132607142D01*
X67178571Y-132650000D01*
X67264285Y-132735714D01*
X67307142Y-132821428D01*
X67350000Y-132992857D01*
X67350000Y-133121428D01*
X67307142Y-133292857D01*
X67264285Y-133378571D01*
X67178571Y-133464285D01*
X67050000Y-133507142D01*
X66835714Y-133507142D01*
X67650000Y-132607142D02*
X68250000Y-132607142D01*
X67864285Y-133507142D01*
G04 #@! TO.C,F1*
D13*
X64866666Y-64728571D02*
X64533333Y-64728571D01*
X64533333Y-65252380D02*
X64533333Y-64252380D01*
X65009523Y-64252380D01*
X65914285Y-65252380D02*
X65342857Y-65252380D01*
X65628571Y-65252380D02*
X65628571Y-64252380D01*
X65533333Y-64395238D01*
X65438095Y-64490476D01*
X65342857Y-64538095D01*
G04 #@! TO.C,J4*
X146466666Y-79752380D02*
X146466666Y-80466666D01*
X146419047Y-80609523D01*
X146323809Y-80704761D01*
X146180952Y-80752380D01*
X146085714Y-80752380D01*
X147371428Y-80085714D02*
X147371428Y-80752380D01*
X147133333Y-79704761D02*
X146895238Y-80419047D01*
X147514285Y-80419047D01*
D12*
X141892380Y-55834285D02*
X141892380Y-56405714D01*
X141892380Y-56120000D02*
X140892380Y-56120000D01*
X141035238Y-56215238D01*
X141130476Y-56310476D01*
X141178095Y-56405714D01*
G04 #@! TO.C,J8*
D13*
X143236666Y-114622380D02*
X143236666Y-115336666D01*
X143189047Y-115479523D01*
X143093809Y-115574761D01*
X142950952Y-115622380D01*
X142855714Y-115622380D01*
X143855714Y-115050952D02*
X143760476Y-115003333D01*
X143712857Y-114955714D01*
X143665238Y-114860476D01*
X143665238Y-114812857D01*
X143712857Y-114717619D01*
X143760476Y-114670000D01*
X143855714Y-114622380D01*
X144046190Y-114622380D01*
X144141428Y-114670000D01*
X144189047Y-114717619D01*
X144236666Y-114812857D01*
X144236666Y-114860476D01*
X144189047Y-114955714D01*
X144141428Y-115003333D01*
X144046190Y-115050952D01*
X143855714Y-115050952D01*
X143760476Y-115098571D01*
X143712857Y-115146190D01*
X143665238Y-115241428D01*
X143665238Y-115431904D01*
X143712857Y-115527142D01*
X143760476Y-115574761D01*
X143855714Y-115622380D01*
X144046190Y-115622380D01*
X144141428Y-115574761D01*
X144189047Y-115527142D01*
X144236666Y-115431904D01*
X144236666Y-115241428D01*
X144189047Y-115146190D01*
X144141428Y-115098571D01*
X144046190Y-115050952D01*
G04 #@! TO.C,J9*
X125466666Y-92412380D02*
X125466666Y-93126666D01*
X125419047Y-93269523D01*
X125323809Y-93364761D01*
X125180952Y-93412380D01*
X125085714Y-93412380D01*
X125990476Y-93412380D02*
X126180952Y-93412380D01*
X126276190Y-93364761D01*
X126323809Y-93317142D01*
X126419047Y-93174285D01*
X126466666Y-92983809D01*
X126466666Y-92602857D01*
X126419047Y-92507619D01*
X126371428Y-92460000D01*
X126276190Y-92412380D01*
X126085714Y-92412380D01*
X125990476Y-92460000D01*
X125942857Y-92507619D01*
X125895238Y-92602857D01*
X125895238Y-92840952D01*
X125942857Y-92936190D01*
X125990476Y-92983809D01*
X126085714Y-93031428D01*
X126276190Y-93031428D01*
X126371428Y-92983809D01*
X126419047Y-92936190D01*
X126466666Y-92840952D01*
G04 #@! TO.C,J10*
X131090476Y-82352380D02*
X131090476Y-83066666D01*
X131042857Y-83209523D01*
X130947619Y-83304761D01*
X130804761Y-83352380D01*
X130709523Y-83352380D01*
X132090476Y-83352380D02*
X131519047Y-83352380D01*
X131804761Y-83352380D02*
X131804761Y-82352380D01*
X131709523Y-82495238D01*
X131614285Y-82590476D01*
X131519047Y-82638095D01*
X132709523Y-82352380D02*
X132804761Y-82352380D01*
X132900000Y-82400000D01*
X132947619Y-82447619D01*
X132995238Y-82542857D01*
X133042857Y-82733333D01*
X133042857Y-82971428D01*
X132995238Y-83161904D01*
X132947619Y-83257142D01*
X132900000Y-83304761D01*
X132804761Y-83352380D01*
X132709523Y-83352380D01*
X132614285Y-83304761D01*
X132566666Y-83257142D01*
X132519047Y-83161904D01*
X132471428Y-82971428D01*
X132471428Y-82733333D01*
X132519047Y-82542857D01*
X132566666Y-82447619D01*
X132614285Y-82400000D01*
X132709523Y-82352380D01*
G04 #@! TO.C,J11*
X55060476Y-107002380D02*
X55060476Y-107716666D01*
X55012857Y-107859523D01*
X54917619Y-107954761D01*
X54774761Y-108002380D01*
X54679523Y-108002380D01*
X56060476Y-108002380D02*
X55489047Y-108002380D01*
X55774761Y-108002380D02*
X55774761Y-107002380D01*
X55679523Y-107145238D01*
X55584285Y-107240476D01*
X55489047Y-107288095D01*
X57012857Y-108002380D02*
X56441428Y-108002380D01*
X56727142Y-108002380D02*
X56727142Y-107002380D01*
X56631904Y-107145238D01*
X56536666Y-107240476D01*
X56441428Y-107288095D01*
G04 #@! TO.C,J12*
X121090476Y-92402380D02*
X121090476Y-93116666D01*
X121042857Y-93259523D01*
X120947619Y-93354761D01*
X120804761Y-93402380D01*
X120709523Y-93402380D01*
X122090476Y-93402380D02*
X121519047Y-93402380D01*
X121804761Y-93402380D02*
X121804761Y-92402380D01*
X121709523Y-92545238D01*
X121614285Y-92640476D01*
X121519047Y-92688095D01*
X122471428Y-92497619D02*
X122519047Y-92450000D01*
X122614285Y-92402380D01*
X122852380Y-92402380D01*
X122947619Y-92450000D01*
X122995238Y-92497619D01*
X123042857Y-92592857D01*
X123042857Y-92688095D01*
X122995238Y-92830952D01*
X122423809Y-93402380D01*
X123042857Y-93402380D01*
G04 #@! TO.C,J13*
X99190476Y-131202380D02*
X99190476Y-131916666D01*
X99142857Y-132059523D01*
X99047619Y-132154761D01*
X98904761Y-132202380D01*
X98809523Y-132202380D01*
X100190476Y-132202380D02*
X99619047Y-132202380D01*
X99904761Y-132202380D02*
X99904761Y-131202380D01*
X99809523Y-131345238D01*
X99714285Y-131440476D01*
X99619047Y-131488095D01*
X100523809Y-131202380D02*
X101142857Y-131202380D01*
X100809523Y-131583333D01*
X100952380Y-131583333D01*
X101047619Y-131630952D01*
X101095238Y-131678571D01*
X101142857Y-131773809D01*
X101142857Y-132011904D01*
X101095238Y-132107142D01*
X101047619Y-132154761D01*
X100952380Y-132202380D01*
X100666666Y-132202380D01*
X100571428Y-132154761D01*
X100523809Y-132107142D01*
G04 #@! TO.C,J14*
X77690476Y-96352380D02*
X77690476Y-97066666D01*
X77642857Y-97209523D01*
X77547619Y-97304761D01*
X77404761Y-97352380D01*
X77309523Y-97352380D01*
X78690476Y-97352380D02*
X78119047Y-97352380D01*
X78404761Y-97352380D02*
X78404761Y-96352380D01*
X78309523Y-96495238D01*
X78214285Y-96590476D01*
X78119047Y-96638095D01*
X79547619Y-96685714D02*
X79547619Y-97352380D01*
X79309523Y-96304761D02*
X79071428Y-97019047D01*
X79690476Y-97019047D01*
G04 #@! TO.C,JP1*
X63666666Y-60782380D02*
X63666666Y-61496666D01*
X63619047Y-61639523D01*
X63523809Y-61734761D01*
X63380952Y-61782380D01*
X63285714Y-61782380D01*
X64142857Y-61782380D02*
X64142857Y-60782380D01*
X64523809Y-60782380D01*
X64619047Y-60830000D01*
X64666666Y-60877619D01*
X64714285Y-60972857D01*
X64714285Y-61115714D01*
X64666666Y-61210952D01*
X64619047Y-61258571D01*
X64523809Y-61306190D01*
X64142857Y-61306190D01*
X65666666Y-61782380D02*
X65095238Y-61782380D01*
X65380952Y-61782380D02*
X65380952Y-60782380D01*
X65285714Y-60925238D01*
X65190476Y-61020476D01*
X65095238Y-61068095D01*
G04 #@! TO.C,R1*
X105933333Y-92852380D02*
X105600000Y-92376190D01*
X105361904Y-92852380D02*
X105361904Y-91852380D01*
X105742857Y-91852380D01*
X105838095Y-91900000D01*
X105885714Y-91947619D01*
X105933333Y-92042857D01*
X105933333Y-92185714D01*
X105885714Y-92280952D01*
X105838095Y-92328571D01*
X105742857Y-92376190D01*
X105361904Y-92376190D01*
X106885714Y-92852380D02*
X106314285Y-92852380D01*
X106600000Y-92852380D02*
X106600000Y-91852380D01*
X106504761Y-91995238D01*
X106409523Y-92090476D01*
X106314285Y-92138095D01*
G04 #@! TO.C,R2*
X59643333Y-68442380D02*
X59310000Y-67966190D01*
X59071904Y-68442380D02*
X59071904Y-67442380D01*
X59452857Y-67442380D01*
X59548095Y-67490000D01*
X59595714Y-67537619D01*
X59643333Y-67632857D01*
X59643333Y-67775714D01*
X59595714Y-67870952D01*
X59548095Y-67918571D01*
X59452857Y-67966190D01*
X59071904Y-67966190D01*
X60024285Y-67537619D02*
X60071904Y-67490000D01*
X60167142Y-67442380D01*
X60405238Y-67442380D01*
X60500476Y-67490000D01*
X60548095Y-67537619D01*
X60595714Y-67632857D01*
X60595714Y-67728095D01*
X60548095Y-67870952D01*
X59976666Y-68442380D01*
X60595714Y-68442380D01*
G04 #@! TO.C,R3*
X127433333Y-56852380D02*
X127100000Y-56376190D01*
X126861904Y-56852380D02*
X126861904Y-55852380D01*
X127242857Y-55852380D01*
X127338095Y-55900000D01*
X127385714Y-55947619D01*
X127433333Y-56042857D01*
X127433333Y-56185714D01*
X127385714Y-56280952D01*
X127338095Y-56328571D01*
X127242857Y-56376190D01*
X126861904Y-56376190D01*
X127766666Y-55852380D02*
X128385714Y-55852380D01*
X128052380Y-56233333D01*
X128195238Y-56233333D01*
X128290476Y-56280952D01*
X128338095Y-56328571D01*
X128385714Y-56423809D01*
X128385714Y-56661904D01*
X128338095Y-56757142D01*
X128290476Y-56804761D01*
X128195238Y-56852380D01*
X127909523Y-56852380D01*
X127814285Y-56804761D01*
X127766666Y-56757142D01*
G04 #@! TO.C,R4*
X103233333Y-56952380D02*
X102900000Y-56476190D01*
X102661904Y-56952380D02*
X102661904Y-55952380D01*
X103042857Y-55952380D01*
X103138095Y-56000000D01*
X103185714Y-56047619D01*
X103233333Y-56142857D01*
X103233333Y-56285714D01*
X103185714Y-56380952D01*
X103138095Y-56428571D01*
X103042857Y-56476190D01*
X102661904Y-56476190D01*
X104090476Y-56285714D02*
X104090476Y-56952380D01*
X103852380Y-55904761D02*
X103614285Y-56619047D01*
X104233333Y-56619047D01*
G04 #@! TO.C,R5*
X107033333Y-56952380D02*
X106700000Y-56476190D01*
X106461904Y-56952380D02*
X106461904Y-55952380D01*
X106842857Y-55952380D01*
X106938095Y-56000000D01*
X106985714Y-56047619D01*
X107033333Y-56142857D01*
X107033333Y-56285714D01*
X106985714Y-56380952D01*
X106938095Y-56428571D01*
X106842857Y-56476190D01*
X106461904Y-56476190D01*
X107938095Y-55952380D02*
X107461904Y-55952380D01*
X107414285Y-56428571D01*
X107461904Y-56380952D01*
X107557142Y-56333333D01*
X107795238Y-56333333D01*
X107890476Y-56380952D01*
X107938095Y-56428571D01*
X107985714Y-56523809D01*
X107985714Y-56761904D01*
X107938095Y-56857142D01*
X107890476Y-56904761D01*
X107795238Y-56952380D01*
X107557142Y-56952380D01*
X107461904Y-56904761D01*
X107414285Y-56857142D01*
G04 #@! TO.C,R6*
X105133333Y-56952380D02*
X104800000Y-56476190D01*
X104561904Y-56952380D02*
X104561904Y-55952380D01*
X104942857Y-55952380D01*
X105038095Y-56000000D01*
X105085714Y-56047619D01*
X105133333Y-56142857D01*
X105133333Y-56285714D01*
X105085714Y-56380952D01*
X105038095Y-56428571D01*
X104942857Y-56476190D01*
X104561904Y-56476190D01*
X105990476Y-55952380D02*
X105800000Y-55952380D01*
X105704761Y-56000000D01*
X105657142Y-56047619D01*
X105561904Y-56190476D01*
X105514285Y-56380952D01*
X105514285Y-56761904D01*
X105561904Y-56857142D01*
X105609523Y-56904761D01*
X105704761Y-56952380D01*
X105895238Y-56952380D01*
X105990476Y-56904761D01*
X106038095Y-56857142D01*
X106085714Y-56761904D01*
X106085714Y-56523809D01*
X106038095Y-56428571D01*
X105990476Y-56380952D01*
X105895238Y-56333333D01*
X105704761Y-56333333D01*
X105609523Y-56380952D01*
X105561904Y-56428571D01*
X105514285Y-56523809D01*
G04 #@! TO.C,R7*
X130833333Y-137252380D02*
X130500000Y-136776190D01*
X130261904Y-137252380D02*
X130261904Y-136252380D01*
X130642857Y-136252380D01*
X130738095Y-136300000D01*
X130785714Y-136347619D01*
X130833333Y-136442857D01*
X130833333Y-136585714D01*
X130785714Y-136680952D01*
X130738095Y-136728571D01*
X130642857Y-136776190D01*
X130261904Y-136776190D01*
X131166666Y-136252380D02*
X131833333Y-136252380D01*
X131404761Y-137252380D01*
G04 #@! TO.C,R8*
X133133333Y-137252380D02*
X132800000Y-136776190D01*
X132561904Y-137252380D02*
X132561904Y-136252380D01*
X132942857Y-136252380D01*
X133038095Y-136300000D01*
X133085714Y-136347619D01*
X133133333Y-136442857D01*
X133133333Y-136585714D01*
X133085714Y-136680952D01*
X133038095Y-136728571D01*
X132942857Y-136776190D01*
X132561904Y-136776190D01*
X133704761Y-136680952D02*
X133609523Y-136633333D01*
X133561904Y-136585714D01*
X133514285Y-136490476D01*
X133514285Y-136442857D01*
X133561904Y-136347619D01*
X133609523Y-136300000D01*
X133704761Y-136252380D01*
X133895238Y-136252380D01*
X133990476Y-136300000D01*
X134038095Y-136347619D01*
X134085714Y-136442857D01*
X134085714Y-136490476D01*
X134038095Y-136585714D01*
X133990476Y-136633333D01*
X133895238Y-136680952D01*
X133704761Y-136680952D01*
X133609523Y-136728571D01*
X133561904Y-136776190D01*
X133514285Y-136871428D01*
X133514285Y-137061904D01*
X133561904Y-137157142D01*
X133609523Y-137204761D01*
X133704761Y-137252380D01*
X133895238Y-137252380D01*
X133990476Y-137204761D01*
X134038095Y-137157142D01*
X134085714Y-137061904D01*
X134085714Y-136871428D01*
X134038095Y-136776190D01*
X133990476Y-136728571D01*
X133895238Y-136680952D01*
G04 #@! TO.C,R9*
X128433333Y-137252380D02*
X128100000Y-136776190D01*
X127861904Y-137252380D02*
X127861904Y-136252380D01*
X128242857Y-136252380D01*
X128338095Y-136300000D01*
X128385714Y-136347619D01*
X128433333Y-136442857D01*
X128433333Y-136585714D01*
X128385714Y-136680952D01*
X128338095Y-136728571D01*
X128242857Y-136776190D01*
X127861904Y-136776190D01*
X128909523Y-137252380D02*
X129100000Y-137252380D01*
X129195238Y-137204761D01*
X129242857Y-137157142D01*
X129338095Y-137014285D01*
X129385714Y-136823809D01*
X129385714Y-136442857D01*
X129338095Y-136347619D01*
X129290476Y-136300000D01*
X129195238Y-136252380D01*
X129004761Y-136252380D01*
X128909523Y-136300000D01*
X128861904Y-136347619D01*
X128814285Y-136442857D01*
X128814285Y-136680952D01*
X128861904Y-136776190D01*
X128909523Y-136823809D01*
X129004761Y-136871428D01*
X129195238Y-136871428D01*
X129290476Y-136823809D01*
X129338095Y-136776190D01*
X129385714Y-136680952D01*
G04 #@! TO.C,R10*
D12*
X69821428Y-134807142D02*
X69521428Y-134378571D01*
X69307142Y-134807142D02*
X69307142Y-133907142D01*
X69650000Y-133907142D01*
X69735714Y-133950000D01*
X69778571Y-133992857D01*
X69821428Y-134078571D01*
X69821428Y-134207142D01*
X69778571Y-134292857D01*
X69735714Y-134335714D01*
X69650000Y-134378571D01*
X69307142Y-134378571D01*
X70678571Y-134807142D02*
X70164285Y-134807142D01*
X70421428Y-134807142D02*
X70421428Y-133907142D01*
X70335714Y-134035714D01*
X70250000Y-134121428D01*
X70164285Y-134164285D01*
X71235714Y-133907142D02*
X71321428Y-133907142D01*
X71407142Y-133950000D01*
X71450000Y-133992857D01*
X71492857Y-134078571D01*
X71535714Y-134250000D01*
X71535714Y-134464285D01*
X71492857Y-134635714D01*
X71450000Y-134721428D01*
X71407142Y-134764285D01*
X71321428Y-134807142D01*
X71235714Y-134807142D01*
X71150000Y-134764285D01*
X71107142Y-134721428D01*
X71064285Y-134635714D01*
X71021428Y-134464285D01*
X71021428Y-134250000D01*
X71064285Y-134078571D01*
X71107142Y-133992857D01*
X71150000Y-133950000D01*
X71235714Y-133907142D01*
G04 #@! TO.C,R11*
X72521428Y-134807142D02*
X72221428Y-134378571D01*
X72007142Y-134807142D02*
X72007142Y-133907142D01*
X72350000Y-133907142D01*
X72435714Y-133950000D01*
X72478571Y-133992857D01*
X72521428Y-134078571D01*
X72521428Y-134207142D01*
X72478571Y-134292857D01*
X72435714Y-134335714D01*
X72350000Y-134378571D01*
X72007142Y-134378571D01*
X73378571Y-134807142D02*
X72864285Y-134807142D01*
X73121428Y-134807142D02*
X73121428Y-133907142D01*
X73035714Y-134035714D01*
X72950000Y-134121428D01*
X72864285Y-134164285D01*
X74235714Y-134807142D02*
X73721428Y-134807142D01*
X73978571Y-134807142D02*
X73978571Y-133907142D01*
X73892857Y-134035714D01*
X73807142Y-134121428D01*
X73721428Y-134164285D01*
G04 #@! TO.C,R12*
X67321428Y-134807142D02*
X67021428Y-134378571D01*
X66807142Y-134807142D02*
X66807142Y-133907142D01*
X67150000Y-133907142D01*
X67235714Y-133950000D01*
X67278571Y-133992857D01*
X67321428Y-134078571D01*
X67321428Y-134207142D01*
X67278571Y-134292857D01*
X67235714Y-134335714D01*
X67150000Y-134378571D01*
X66807142Y-134378571D01*
X68178571Y-134807142D02*
X67664285Y-134807142D01*
X67921428Y-134807142D02*
X67921428Y-133907142D01*
X67835714Y-134035714D01*
X67750000Y-134121428D01*
X67664285Y-134164285D01*
X68521428Y-133992857D02*
X68564285Y-133950000D01*
X68650000Y-133907142D01*
X68864285Y-133907142D01*
X68950000Y-133950000D01*
X68992857Y-133992857D01*
X69035714Y-134078571D01*
X69035714Y-134164285D01*
X68992857Y-134292857D01*
X68478571Y-134807142D01*
X69035714Y-134807142D01*
G04 #@! TO.C,TP1*
D13*
X63238095Y-50452380D02*
X63809523Y-50452380D01*
X63523809Y-51452380D02*
X63523809Y-50452380D01*
X64142857Y-51452380D02*
X64142857Y-50452380D01*
X64523809Y-50452380D01*
X64619047Y-50500000D01*
X64666666Y-50547619D01*
X64714285Y-50642857D01*
X64714285Y-50785714D01*
X64666666Y-50880952D01*
X64619047Y-50928571D01*
X64523809Y-50976190D01*
X64142857Y-50976190D01*
X65666666Y-51452380D02*
X65095238Y-51452380D01*
X65380952Y-51452380D02*
X65380952Y-50452380D01*
X65285714Y-50595238D01*
X65190476Y-50690476D01*
X65095238Y-50738095D01*
X63166666Y-53652380D02*
X63500000Y-54652380D01*
X63833333Y-53652380D01*
X64166666Y-54652380D02*
X64166666Y-53652380D01*
X64404761Y-53652380D01*
X64547619Y-53700000D01*
X64642857Y-53795238D01*
X64690476Y-53890476D01*
X64738095Y-54080952D01*
X64738095Y-54223809D01*
X64690476Y-54414285D01*
X64642857Y-54509523D01*
X64547619Y-54604761D01*
X64404761Y-54652380D01*
X64166666Y-54652380D01*
X65738095Y-54557142D02*
X65690476Y-54604761D01*
X65547619Y-54652380D01*
X65452380Y-54652380D01*
X65309523Y-54604761D01*
X65214285Y-54509523D01*
X65166666Y-54414285D01*
X65119047Y-54223809D01*
X65119047Y-54080952D01*
X65166666Y-53890476D01*
X65214285Y-53795238D01*
X65309523Y-53700000D01*
X65452380Y-53652380D01*
X65547619Y-53652380D01*
X65690476Y-53700000D01*
X65738095Y-53747619D01*
G04 #@! TO.C,TP2*
X51438095Y-73652380D02*
X52009523Y-73652380D01*
X51723809Y-74652380D02*
X51723809Y-73652380D01*
X52342857Y-74652380D02*
X52342857Y-73652380D01*
X52723809Y-73652380D01*
X52819047Y-73700000D01*
X52866666Y-73747619D01*
X52914285Y-73842857D01*
X52914285Y-73985714D01*
X52866666Y-74080952D01*
X52819047Y-74128571D01*
X52723809Y-74176190D01*
X52342857Y-74176190D01*
X53295238Y-73747619D02*
X53342857Y-73700000D01*
X53438095Y-73652380D01*
X53676190Y-73652380D01*
X53771428Y-73700000D01*
X53819047Y-73747619D01*
X53866666Y-73842857D01*
X53866666Y-73938095D01*
X53819047Y-74080952D01*
X53247619Y-74652380D01*
X53866666Y-74652380D01*
X51842857Y-78652380D02*
X51271428Y-78652380D01*
X51557142Y-78652380D02*
X51557142Y-77652380D01*
X51461904Y-77795238D01*
X51366666Y-77890476D01*
X51271428Y-77938095D01*
X52271428Y-78557142D02*
X52319047Y-78604761D01*
X52271428Y-78652380D01*
X52223809Y-78604761D01*
X52271428Y-78557142D01*
X52271428Y-78652380D01*
X52890476Y-78080952D02*
X52795238Y-78033333D01*
X52747619Y-77985714D01*
X52700000Y-77890476D01*
X52700000Y-77842857D01*
X52747619Y-77747619D01*
X52795238Y-77700000D01*
X52890476Y-77652380D01*
X53080952Y-77652380D01*
X53176190Y-77700000D01*
X53223809Y-77747619D01*
X53271428Y-77842857D01*
X53271428Y-77890476D01*
X53223809Y-77985714D01*
X53176190Y-78033333D01*
X53080952Y-78080952D01*
X52890476Y-78080952D01*
X52795238Y-78128571D01*
X52747619Y-78176190D01*
X52700000Y-78271428D01*
X52700000Y-78461904D01*
X52747619Y-78557142D01*
X52795238Y-78604761D01*
X52890476Y-78652380D01*
X53080952Y-78652380D01*
X53176190Y-78604761D01*
X53223809Y-78557142D01*
X53271428Y-78461904D01*
X53271428Y-78271428D01*
X53223809Y-78176190D01*
X53176190Y-78128571D01*
X53080952Y-78080952D01*
X53557142Y-77652380D02*
X53890476Y-78652380D01*
X54223809Y-77652380D01*
G04 #@! TO.C,TP3*
X51438095Y-81652380D02*
X52009523Y-81652380D01*
X51723809Y-82652380D02*
X51723809Y-81652380D01*
X52342857Y-82652380D02*
X52342857Y-81652380D01*
X52723809Y-81652380D01*
X52819047Y-81700000D01*
X52866666Y-81747619D01*
X52914285Y-81842857D01*
X52914285Y-81985714D01*
X52866666Y-82080952D01*
X52819047Y-82128571D01*
X52723809Y-82176190D01*
X52342857Y-82176190D01*
X53247619Y-81652380D02*
X53866666Y-81652380D01*
X53533333Y-82033333D01*
X53676190Y-82033333D01*
X53771428Y-82080952D01*
X53819047Y-82128571D01*
X53866666Y-82223809D01*
X53866666Y-82461904D01*
X53819047Y-82557142D01*
X53771428Y-82604761D01*
X53676190Y-82652380D01*
X53390476Y-82652380D01*
X53295238Y-82604761D01*
X53247619Y-82557142D01*
X51223809Y-85652380D02*
X51842857Y-85652380D01*
X51509523Y-86033333D01*
X51652380Y-86033333D01*
X51747619Y-86080952D01*
X51795238Y-86128571D01*
X51842857Y-86223809D01*
X51842857Y-86461904D01*
X51795238Y-86557142D01*
X51747619Y-86604761D01*
X51652380Y-86652380D01*
X51366666Y-86652380D01*
X51271428Y-86604761D01*
X51223809Y-86557142D01*
X52271428Y-86557142D02*
X52319047Y-86604761D01*
X52271428Y-86652380D01*
X52223809Y-86604761D01*
X52271428Y-86557142D01*
X52271428Y-86652380D01*
X52652380Y-85652380D02*
X53271428Y-85652380D01*
X52938095Y-86033333D01*
X53080952Y-86033333D01*
X53176190Y-86080952D01*
X53223809Y-86128571D01*
X53271428Y-86223809D01*
X53271428Y-86461904D01*
X53223809Y-86557142D01*
X53176190Y-86604761D01*
X53080952Y-86652380D01*
X52795238Y-86652380D01*
X52700000Y-86604761D01*
X52652380Y-86557142D01*
X53557142Y-85652380D02*
X53890476Y-86652380D01*
X54223809Y-85652380D01*
G04 #@! TO.C,TP5*
D12*
X102764285Y-88607142D02*
X103278571Y-88607142D01*
X103021428Y-89507142D02*
X103021428Y-88607142D01*
X103578571Y-89507142D02*
X103578571Y-88607142D01*
X103921428Y-88607142D01*
X104007142Y-88650000D01*
X104050000Y-88692857D01*
X104092857Y-88778571D01*
X104092857Y-88907142D01*
X104050000Y-88992857D01*
X104007142Y-89035714D01*
X103921428Y-89078571D01*
X103578571Y-89078571D01*
X104907142Y-88607142D02*
X104478571Y-88607142D01*
X104435714Y-89035714D01*
X104478571Y-88992857D01*
X104564285Y-88950000D01*
X104778571Y-88950000D01*
X104864285Y-88992857D01*
X104907142Y-89035714D01*
X104950000Y-89121428D01*
X104950000Y-89335714D01*
X104907142Y-89421428D01*
X104864285Y-89464285D01*
X104778571Y-89507142D01*
X104564285Y-89507142D01*
X104478571Y-89464285D01*
X104435714Y-89421428D01*
X103128571Y-89807142D02*
X103728571Y-90707142D01*
X103728571Y-89807142D02*
X103128571Y-90707142D01*
X104242857Y-89807142D02*
X104414285Y-89807142D01*
X104500000Y-89850000D01*
X104585714Y-89935714D01*
X104628571Y-90107142D01*
X104628571Y-90407142D01*
X104585714Y-90578571D01*
X104500000Y-90664285D01*
X104414285Y-90707142D01*
X104242857Y-90707142D01*
X104157142Y-90664285D01*
X104071428Y-90578571D01*
X104028571Y-90407142D01*
X104028571Y-90107142D01*
X104071428Y-89935714D01*
X104157142Y-89850000D01*
X104242857Y-89807142D01*
G04 #@! TO.C,TP6*
X98964285Y-88607142D02*
X99478571Y-88607142D01*
X99221428Y-89507142D02*
X99221428Y-88607142D01*
X99778571Y-89507142D02*
X99778571Y-88607142D01*
X100121428Y-88607142D01*
X100207142Y-88650000D01*
X100250000Y-88692857D01*
X100292857Y-88778571D01*
X100292857Y-88907142D01*
X100250000Y-88992857D01*
X100207142Y-89035714D01*
X100121428Y-89078571D01*
X99778571Y-89078571D01*
X101064285Y-88607142D02*
X100892857Y-88607142D01*
X100807142Y-88650000D01*
X100764285Y-88692857D01*
X100678571Y-88821428D01*
X100635714Y-88992857D01*
X100635714Y-89335714D01*
X100678571Y-89421428D01*
X100721428Y-89464285D01*
X100807142Y-89507142D01*
X100978571Y-89507142D01*
X101064285Y-89464285D01*
X101107142Y-89421428D01*
X101150000Y-89335714D01*
X101150000Y-89121428D01*
X101107142Y-89035714D01*
X101064285Y-88992857D01*
X100978571Y-88950000D01*
X100807142Y-88950000D01*
X100721428Y-88992857D01*
X100678571Y-89035714D01*
X100635714Y-89121428D01*
X99414285Y-89807142D02*
X99928571Y-89807142D01*
X99671428Y-90707142D02*
X99671428Y-89807142D01*
X100700000Y-90707142D02*
X100185714Y-90707142D01*
X100442857Y-90707142D02*
X100442857Y-89807142D01*
X100357142Y-89935714D01*
X100271428Y-90021428D01*
X100185714Y-90064285D01*
G04 #@! TO.C,TP7*
X97164285Y-95507142D02*
X97678571Y-95507142D01*
X97421428Y-96407142D02*
X97421428Y-95507142D01*
X97978571Y-96407142D02*
X97978571Y-95507142D01*
X98321428Y-95507142D01*
X98407142Y-95550000D01*
X98450000Y-95592857D01*
X98492857Y-95678571D01*
X98492857Y-95807142D01*
X98450000Y-95892857D01*
X98407142Y-95935714D01*
X98321428Y-95978571D01*
X97978571Y-95978571D01*
X98792857Y-95507142D02*
X99392857Y-95507142D01*
X99007142Y-96407142D01*
X97614285Y-96607142D02*
X98128571Y-96607142D01*
X97871428Y-97507142D02*
X97871428Y-96607142D01*
X98385714Y-96692857D02*
X98428571Y-96650000D01*
X98514285Y-96607142D01*
X98728571Y-96607142D01*
X98814285Y-96650000D01*
X98857142Y-96692857D01*
X98900000Y-96778571D01*
X98900000Y-96864285D01*
X98857142Y-96992857D01*
X98342857Y-97507142D01*
X98900000Y-97507142D01*
G04 #@! TO.C,U1*
D13*
X79038095Y-86452380D02*
X79038095Y-87261904D01*
X79085714Y-87357142D01*
X79133333Y-87404761D01*
X79228571Y-87452380D01*
X79419047Y-87452380D01*
X79514285Y-87404761D01*
X79561904Y-87357142D01*
X79609523Y-87261904D01*
X79609523Y-86452380D01*
X80609523Y-87452380D02*
X80038095Y-87452380D01*
X80323809Y-87452380D02*
X80323809Y-86452380D01*
X80228571Y-86595238D01*
X80133333Y-86690476D01*
X80038095Y-86738095D01*
G04 #@! TO.C,U2*
X61088095Y-77552380D02*
X61088095Y-78361904D01*
X61135714Y-78457142D01*
X61183333Y-78504761D01*
X61278571Y-78552380D01*
X61469047Y-78552380D01*
X61564285Y-78504761D01*
X61611904Y-78457142D01*
X61659523Y-78361904D01*
X61659523Y-77552380D01*
X62088095Y-77647619D02*
X62135714Y-77600000D01*
X62230952Y-77552380D01*
X62469047Y-77552380D01*
X62564285Y-77600000D01*
X62611904Y-77647619D01*
X62659523Y-77742857D01*
X62659523Y-77838095D01*
X62611904Y-77980952D01*
X62040476Y-78552380D01*
X62659523Y-78552380D01*
G04 #@! TO.C,U3*
X61088095Y-85552380D02*
X61088095Y-86361904D01*
X61135714Y-86457142D01*
X61183333Y-86504761D01*
X61278571Y-86552380D01*
X61469047Y-86552380D01*
X61564285Y-86504761D01*
X61611904Y-86457142D01*
X61659523Y-86361904D01*
X61659523Y-85552380D01*
X62040476Y-85552380D02*
X62659523Y-85552380D01*
X62326190Y-85933333D01*
X62469047Y-85933333D01*
X62564285Y-85980952D01*
X62611904Y-86028571D01*
X62659523Y-86123809D01*
X62659523Y-86361904D01*
X62611904Y-86457142D01*
X62564285Y-86504761D01*
X62469047Y-86552380D01*
X62183333Y-86552380D01*
X62088095Y-86504761D01*
X62040476Y-86457142D01*
G04 #@! TO.C,U4*
X61088095Y-93552380D02*
X61088095Y-94361904D01*
X61135714Y-94457142D01*
X61183333Y-94504761D01*
X61278571Y-94552380D01*
X61469047Y-94552380D01*
X61564285Y-94504761D01*
X61611904Y-94457142D01*
X61659523Y-94361904D01*
X61659523Y-93552380D01*
X62564285Y-93885714D02*
X62564285Y-94552380D01*
X62326190Y-93504761D02*
X62088095Y-94219047D01*
X62707142Y-94219047D01*
G04 #@! TO.C,U5*
X124338095Y-70852380D02*
X124338095Y-71661904D01*
X124385714Y-71757142D01*
X124433333Y-71804761D01*
X124528571Y-71852380D01*
X124719047Y-71852380D01*
X124814285Y-71804761D01*
X124861904Y-71757142D01*
X124909523Y-71661904D01*
X124909523Y-70852380D01*
X125861904Y-70852380D02*
X125385714Y-70852380D01*
X125338095Y-71328571D01*
X125385714Y-71280952D01*
X125480952Y-71233333D01*
X125719047Y-71233333D01*
X125814285Y-71280952D01*
X125861904Y-71328571D01*
X125909523Y-71423809D01*
X125909523Y-71661904D01*
X125861904Y-71757142D01*
X125814285Y-71804761D01*
X125719047Y-71852380D01*
X125480952Y-71852380D01*
X125385714Y-71804761D01*
X125338095Y-71757142D01*
G04 #@! TO.C,X1*
X101390476Y-78552380D02*
X102057142Y-79552380D01*
X102057142Y-78552380D02*
X101390476Y-79552380D01*
X102961904Y-79552380D02*
X102390476Y-79552380D01*
X102676190Y-79552380D02*
X102676190Y-78552380D01*
X102580952Y-78695238D01*
X102485714Y-78790476D01*
X102390476Y-78838095D01*
G04 #@! TO.C,TP9*
X100238095Y-81052380D02*
X100809523Y-81052380D01*
X100523809Y-82052380D02*
X100523809Y-81052380D01*
X101142857Y-82052380D02*
X101142857Y-81052380D01*
X101523809Y-81052380D01*
X101619047Y-81100000D01*
X101666666Y-81147619D01*
X101714285Y-81242857D01*
X101714285Y-81385714D01*
X101666666Y-81480952D01*
X101619047Y-81528571D01*
X101523809Y-81576190D01*
X101142857Y-81576190D01*
X102190476Y-82052380D02*
X102380952Y-82052380D01*
X102476190Y-82004761D01*
X102523809Y-81957142D01*
X102619047Y-81814285D01*
X102666666Y-81623809D01*
X102666666Y-81242857D01*
X102619047Y-81147619D01*
X102571428Y-81100000D01*
X102476190Y-81052380D01*
X102285714Y-81052380D01*
X102190476Y-81100000D01*
X102142857Y-81147619D01*
X102095238Y-81242857D01*
X102095238Y-81480952D01*
X102142857Y-81576190D01*
X102190476Y-81623809D01*
X102285714Y-81671428D01*
X102476190Y-81671428D01*
X102571428Y-81623809D01*
X102619047Y-81576190D01*
X102666666Y-81480952D01*
X98523809Y-85404761D02*
X98666666Y-85452380D01*
X98904761Y-85452380D01*
X99000000Y-85404761D01*
X99047619Y-85357142D01*
X99095238Y-85261904D01*
X99095238Y-85166666D01*
X99047619Y-85071428D01*
X99000000Y-85023809D01*
X98904761Y-84976190D01*
X98714285Y-84928571D01*
X98619047Y-84880952D01*
X98571428Y-84833333D01*
X98523809Y-84738095D01*
X98523809Y-84642857D01*
X98571428Y-84547619D01*
X98619047Y-84500000D01*
X98714285Y-84452380D01*
X98952380Y-84452380D01*
X99095238Y-84500000D01*
X99714285Y-84976190D02*
X99714285Y-85452380D01*
X99380952Y-84452380D02*
X99714285Y-84976190D01*
X100047619Y-84452380D01*
X100333333Y-85404761D02*
X100476190Y-85452380D01*
X100714285Y-85452380D01*
X100809523Y-85404761D01*
X100857142Y-85357142D01*
X100904761Y-85261904D01*
X100904761Y-85166666D01*
X100857142Y-85071428D01*
X100809523Y-85023809D01*
X100714285Y-84976190D01*
X100523809Y-84928571D01*
X100428571Y-84880952D01*
X100380952Y-84833333D01*
X100333333Y-84738095D01*
X100333333Y-84642857D01*
X100380952Y-84547619D01*
X100428571Y-84500000D01*
X100523809Y-84452380D01*
X100761904Y-84452380D01*
X100904761Y-84500000D01*
X101095238Y-85547619D02*
X101857142Y-85547619D01*
X102666666Y-85357142D02*
X102619047Y-85404761D01*
X102476190Y-85452380D01*
X102380952Y-85452380D01*
X102238095Y-85404761D01*
X102142857Y-85309523D01*
X102095238Y-85214285D01*
X102047619Y-85023809D01*
X102047619Y-84880952D01*
X102095238Y-84690476D01*
X102142857Y-84595238D01*
X102238095Y-84500000D01*
X102380952Y-84452380D01*
X102476190Y-84452380D01*
X102619047Y-84500000D01*
X102666666Y-84547619D01*
X103571428Y-85452380D02*
X103095238Y-85452380D01*
X103095238Y-84452380D01*
X103904761Y-85452380D02*
X103904761Y-84452380D01*
X104476190Y-85452380D02*
X104047619Y-84880952D01*
X104476190Y-84452380D02*
X103904761Y-85023809D01*
G04 #@! TO.C,J7*
X122666666Y-53452380D02*
X122666666Y-54166666D01*
X122619047Y-54309523D01*
X122523809Y-54404761D01*
X122380952Y-54452380D01*
X122285714Y-54452380D01*
X123047619Y-53452380D02*
X123714285Y-53452380D01*
X123285714Y-54452380D01*
G04 #@! TO.C,D8*
X71061904Y-74752380D02*
X71061904Y-73752380D01*
X71300000Y-73752380D01*
X71442857Y-73800000D01*
X71538095Y-73895238D01*
X71585714Y-73990476D01*
X71633333Y-74180952D01*
X71633333Y-74323809D01*
X71585714Y-74514285D01*
X71538095Y-74609523D01*
X71442857Y-74704761D01*
X71300000Y-74752380D01*
X71061904Y-74752380D01*
X72204761Y-74180952D02*
X72109523Y-74133333D01*
X72061904Y-74085714D01*
X72014285Y-73990476D01*
X72014285Y-73942857D01*
X72061904Y-73847619D01*
X72109523Y-73800000D01*
X72204761Y-73752380D01*
X72395238Y-73752380D01*
X72490476Y-73800000D01*
X72538095Y-73847619D01*
X72585714Y-73942857D01*
X72585714Y-73990476D01*
X72538095Y-74085714D01*
X72490476Y-74133333D01*
X72395238Y-74180952D01*
X72204761Y-74180952D01*
X72109523Y-74228571D01*
X72061904Y-74276190D01*
X72014285Y-74371428D01*
X72014285Y-74561904D01*
X72061904Y-74657142D01*
X72109523Y-74704761D01*
X72204761Y-74752380D01*
X72395238Y-74752380D01*
X72490476Y-74704761D01*
X72538095Y-74657142D01*
X72585714Y-74561904D01*
X72585714Y-74371428D01*
X72538095Y-74276190D01*
X72490476Y-74228571D01*
X72395238Y-74180952D01*
G04 #@! TO.C,D9*
X74861904Y-74752380D02*
X74861904Y-73752380D01*
X75100000Y-73752380D01*
X75242857Y-73800000D01*
X75338095Y-73895238D01*
X75385714Y-73990476D01*
X75433333Y-74180952D01*
X75433333Y-74323809D01*
X75385714Y-74514285D01*
X75338095Y-74609523D01*
X75242857Y-74704761D01*
X75100000Y-74752380D01*
X74861904Y-74752380D01*
X75909523Y-74752380D02*
X76100000Y-74752380D01*
X76195238Y-74704761D01*
X76242857Y-74657142D01*
X76338095Y-74514285D01*
X76385714Y-74323809D01*
X76385714Y-73942857D01*
X76338095Y-73847619D01*
X76290476Y-73800000D01*
X76195238Y-73752380D01*
X76004761Y-73752380D01*
X75909523Y-73800000D01*
X75861904Y-73847619D01*
X75814285Y-73942857D01*
X75814285Y-74180952D01*
X75861904Y-74276190D01*
X75909523Y-74323809D01*
X76004761Y-74371428D01*
X76195238Y-74371428D01*
X76290476Y-74323809D01*
X76338095Y-74276190D01*
X76385714Y-74180952D01*
G04 #@! TO.C,D10*
X98785714Y-71552380D02*
X98785714Y-70552380D01*
X99023809Y-70552380D01*
X99166666Y-70600000D01*
X99261904Y-70695238D01*
X99309523Y-70790476D01*
X99357142Y-70980952D01*
X99357142Y-71123809D01*
X99309523Y-71314285D01*
X99261904Y-71409523D01*
X99166666Y-71504761D01*
X99023809Y-71552380D01*
X98785714Y-71552380D01*
X100309523Y-71552380D02*
X99738095Y-71552380D01*
X100023809Y-71552380D02*
X100023809Y-70552380D01*
X99928571Y-70695238D01*
X99833333Y-70790476D01*
X99738095Y-70838095D01*
X100928571Y-70552380D02*
X101023809Y-70552380D01*
X101119047Y-70600000D01*
X101166666Y-70647619D01*
X101214285Y-70742857D01*
X101261904Y-70933333D01*
X101261904Y-71171428D01*
X101214285Y-71361904D01*
X101166666Y-71457142D01*
X101119047Y-71504761D01*
X101023809Y-71552380D01*
X100928571Y-71552380D01*
X100833333Y-71504761D01*
X100785714Y-71457142D01*
X100738095Y-71361904D01*
X100690476Y-71171428D01*
X100690476Y-70933333D01*
X100738095Y-70742857D01*
X100785714Y-70647619D01*
X100833333Y-70600000D01*
X100928571Y-70552380D01*
G04 #@! TO.C,D11*
X102285714Y-71552380D02*
X102285714Y-70552380D01*
X102523809Y-70552380D01*
X102666666Y-70600000D01*
X102761904Y-70695238D01*
X102809523Y-70790476D01*
X102857142Y-70980952D01*
X102857142Y-71123809D01*
X102809523Y-71314285D01*
X102761904Y-71409523D01*
X102666666Y-71504761D01*
X102523809Y-71552380D01*
X102285714Y-71552380D01*
X103809523Y-71552380D02*
X103238095Y-71552380D01*
X103523809Y-71552380D02*
X103523809Y-70552380D01*
X103428571Y-70695238D01*
X103333333Y-70790476D01*
X103238095Y-70838095D01*
X104761904Y-71552380D02*
X104190476Y-71552380D01*
X104476190Y-71552380D02*
X104476190Y-70552380D01*
X104380952Y-70695238D01*
X104285714Y-70790476D01*
X104190476Y-70838095D01*
G04 #@! TO.C,R13*
X71157142Y-70352380D02*
X70823809Y-69876190D01*
X70585714Y-70352380D02*
X70585714Y-69352380D01*
X70966666Y-69352380D01*
X71061904Y-69400000D01*
X71109523Y-69447619D01*
X71157142Y-69542857D01*
X71157142Y-69685714D01*
X71109523Y-69780952D01*
X71061904Y-69828571D01*
X70966666Y-69876190D01*
X70585714Y-69876190D01*
X72109523Y-70352380D02*
X71538095Y-70352380D01*
X71823809Y-70352380D02*
X71823809Y-69352380D01*
X71728571Y-69495238D01*
X71633333Y-69590476D01*
X71538095Y-69638095D01*
X72442857Y-69352380D02*
X73061904Y-69352380D01*
X72728571Y-69733333D01*
X72871428Y-69733333D01*
X72966666Y-69780952D01*
X73014285Y-69828571D01*
X73061904Y-69923809D01*
X73061904Y-70161904D01*
X73014285Y-70257142D01*
X72966666Y-70304761D01*
X72871428Y-70352380D01*
X72585714Y-70352380D01*
X72490476Y-70304761D01*
X72442857Y-70257142D01*
G04 #@! TO.C,R14*
X74857142Y-70302380D02*
X74523809Y-69826190D01*
X74285714Y-70302380D02*
X74285714Y-69302380D01*
X74666666Y-69302380D01*
X74761904Y-69350000D01*
X74809523Y-69397619D01*
X74857142Y-69492857D01*
X74857142Y-69635714D01*
X74809523Y-69730952D01*
X74761904Y-69778571D01*
X74666666Y-69826190D01*
X74285714Y-69826190D01*
X75809523Y-70302380D02*
X75238095Y-70302380D01*
X75523809Y-70302380D02*
X75523809Y-69302380D01*
X75428571Y-69445238D01*
X75333333Y-69540476D01*
X75238095Y-69588095D01*
X76666666Y-69635714D02*
X76666666Y-70302380D01*
X76428571Y-69254761D02*
X76190476Y-69969047D01*
X76809523Y-69969047D01*
G04 #@! TO.C,R15*
X99357142Y-70252380D02*
X99023809Y-69776190D01*
X98785714Y-70252380D02*
X98785714Y-69252380D01*
X99166666Y-69252380D01*
X99261904Y-69300000D01*
X99309523Y-69347619D01*
X99357142Y-69442857D01*
X99357142Y-69585714D01*
X99309523Y-69680952D01*
X99261904Y-69728571D01*
X99166666Y-69776190D01*
X98785714Y-69776190D01*
X100309523Y-70252380D02*
X99738095Y-70252380D01*
X100023809Y-70252380D02*
X100023809Y-69252380D01*
X99928571Y-69395238D01*
X99833333Y-69490476D01*
X99738095Y-69538095D01*
X101214285Y-69252380D02*
X100738095Y-69252380D01*
X100690476Y-69728571D01*
X100738095Y-69680952D01*
X100833333Y-69633333D01*
X101071428Y-69633333D01*
X101166666Y-69680952D01*
X101214285Y-69728571D01*
X101261904Y-69823809D01*
X101261904Y-70061904D01*
X101214285Y-70157142D01*
X101166666Y-70204761D01*
X101071428Y-70252380D01*
X100833333Y-70252380D01*
X100738095Y-70204761D01*
X100690476Y-70157142D01*
G04 #@! TO.C,R16*
X102857142Y-70252380D02*
X102523809Y-69776190D01*
X102285714Y-70252380D02*
X102285714Y-69252380D01*
X102666666Y-69252380D01*
X102761904Y-69300000D01*
X102809523Y-69347619D01*
X102857142Y-69442857D01*
X102857142Y-69585714D01*
X102809523Y-69680952D01*
X102761904Y-69728571D01*
X102666666Y-69776190D01*
X102285714Y-69776190D01*
X103809523Y-70252380D02*
X103238095Y-70252380D01*
X103523809Y-70252380D02*
X103523809Y-69252380D01*
X103428571Y-69395238D01*
X103333333Y-69490476D01*
X103238095Y-69538095D01*
X104666666Y-69252380D02*
X104476190Y-69252380D01*
X104380952Y-69300000D01*
X104333333Y-69347619D01*
X104238095Y-69490476D01*
X104190476Y-69680952D01*
X104190476Y-70061904D01*
X104238095Y-70157142D01*
X104285714Y-70204761D01*
X104380952Y-70252380D01*
X104571428Y-70252380D01*
X104666666Y-70204761D01*
X104714285Y-70157142D01*
X104761904Y-70061904D01*
X104761904Y-69823809D01*
X104714285Y-69728571D01*
X104666666Y-69680952D01*
X104571428Y-69633333D01*
X104380952Y-69633333D01*
X104285714Y-69680952D01*
X104238095Y-69728571D01*
X104190476Y-69823809D01*
G04 #@! TO.C,SW1*
X88666666Y-53004761D02*
X88809523Y-53052380D01*
X89047619Y-53052380D01*
X89142857Y-53004761D01*
X89190476Y-52957142D01*
X89238095Y-52861904D01*
X89238095Y-52766666D01*
X89190476Y-52671428D01*
X89142857Y-52623809D01*
X89047619Y-52576190D01*
X88857142Y-52528571D01*
X88761904Y-52480952D01*
X88714285Y-52433333D01*
X88666666Y-52338095D01*
X88666666Y-52242857D01*
X88714285Y-52147619D01*
X88761904Y-52100000D01*
X88857142Y-52052380D01*
X89095238Y-52052380D01*
X89238095Y-52100000D01*
X89571428Y-52052380D02*
X89809523Y-53052380D01*
X90000000Y-52338095D01*
X90190476Y-53052380D01*
X90428571Y-52052380D01*
X91333333Y-53052380D02*
X90761904Y-53052380D01*
X91047619Y-53052380D02*
X91047619Y-52052380D01*
X90952380Y-52195238D01*
X90857142Y-52290476D01*
X90761904Y-52338095D01*
G04 #@! TO.C,J1*
X56716666Y-66552380D02*
X56716666Y-67266666D01*
X56669047Y-67409523D01*
X56573809Y-67504761D01*
X56430952Y-67552380D01*
X56335714Y-67552380D01*
X57716666Y-67552380D02*
X57145238Y-67552380D01*
X57430952Y-67552380D02*
X57430952Y-66552380D01*
X57335714Y-66695238D01*
X57240476Y-66790476D01*
X57145238Y-66838095D01*
G04 #@! TD*
M02*
