G04 #@! TF.FileFunction,Legend,Top*
%FSLAX46Y46*%
G04 Gerber Fmt 4.6, Leading zero omitted, Abs format (unit mm)*
G04 Created by KiCad (PCBNEW 4.0.7-e1-6374~58~ubuntu17.04.1) date Tue Aug  1 22:36:46 2017*
%MOMM*%
%LPD*%
G01*
G04 APERTURE LIST*
%ADD10C,0.100000*%
%ADD11C,0.300000*%
%ADD12C,0.200000*%
%ADD13C,0.120000*%
%ADD14C,0.150000*%
G04 APERTURE END LIST*
D10*
D11*
X111557142Y-129204762D02*
X111557142Y-127204762D01*
X112414285Y-129204762D02*
X112414285Y-128157143D01*
X112319047Y-127966667D01*
X112128571Y-127871429D01*
X111842857Y-127871429D01*
X111652381Y-127966667D01*
X111557142Y-128061905D01*
X113080952Y-127871429D02*
X113842857Y-127871429D01*
X113366666Y-127204762D02*
X113366666Y-128919048D01*
X113461905Y-129109524D01*
X113652381Y-129204762D01*
X113842857Y-129204762D01*
X114223809Y-127871429D02*
X114985714Y-127871429D01*
X114509523Y-127204762D02*
X114509523Y-128919048D01*
X114604762Y-129109524D01*
X114795238Y-129204762D01*
X114985714Y-129204762D01*
X115652380Y-127871429D02*
X115652380Y-129871429D01*
X115652380Y-127966667D02*
X115842857Y-127871429D01*
X116223809Y-127871429D01*
X116414285Y-127966667D01*
X116509523Y-128061905D01*
X116604761Y-128252381D01*
X116604761Y-128823810D01*
X116509523Y-129014286D01*
X116414285Y-129109524D01*
X116223809Y-129204762D01*
X115842857Y-129204762D01*
X115652380Y-129109524D01*
X117366666Y-129109524D02*
X117557143Y-129204762D01*
X117938095Y-129204762D01*
X118128571Y-129109524D01*
X118223809Y-128919048D01*
X118223809Y-128823810D01*
X118128571Y-128633333D01*
X117938095Y-128538095D01*
X117652381Y-128538095D01*
X117461904Y-128442857D01*
X117366666Y-128252381D01*
X117366666Y-128157143D01*
X117461904Y-127966667D01*
X117652381Y-127871429D01*
X117938095Y-127871429D01*
X118128571Y-127966667D01*
X119080952Y-129014286D02*
X119176191Y-129109524D01*
X119080952Y-129204762D01*
X118985714Y-129109524D01*
X119080952Y-129014286D01*
X119080952Y-129204762D01*
X119080952Y-127966667D02*
X119176191Y-128061905D01*
X119080952Y-128157143D01*
X118985714Y-128061905D01*
X119080952Y-127966667D01*
X119080952Y-128157143D01*
X121461905Y-127109524D02*
X119747619Y-129680952D01*
X123557143Y-127109524D02*
X121842857Y-129680952D01*
X125080952Y-127871429D02*
X125080952Y-129490476D01*
X124985714Y-129680952D01*
X124890476Y-129776190D01*
X124700000Y-129871429D01*
X124414286Y-129871429D01*
X124223809Y-129776190D01*
X125080952Y-129109524D02*
X124890476Y-129204762D01*
X124509524Y-129204762D01*
X124319048Y-129109524D01*
X124223809Y-129014286D01*
X124128571Y-128823810D01*
X124128571Y-128252381D01*
X124223809Y-128061905D01*
X124319048Y-127966667D01*
X124509524Y-127871429D01*
X124890476Y-127871429D01*
X125080952Y-127966667D01*
X126795238Y-129109524D02*
X126604762Y-129204762D01*
X126223810Y-129204762D01*
X126033333Y-129109524D01*
X125938095Y-128919048D01*
X125938095Y-128157143D01*
X126033333Y-127966667D01*
X126223810Y-127871429D01*
X126604762Y-127871429D01*
X126795238Y-127966667D01*
X126890476Y-128157143D01*
X126890476Y-128347619D01*
X125938095Y-128538095D01*
X127747619Y-129204762D02*
X127747619Y-127204762D01*
X127938096Y-128442857D02*
X128509524Y-129204762D01*
X128509524Y-127871429D02*
X127747619Y-128633333D01*
X129366667Y-129204762D02*
X129366667Y-127204762D01*
X129557144Y-128442857D02*
X130128572Y-129204762D01*
X130128572Y-127871429D02*
X129366667Y-128633333D01*
X130985715Y-129204762D02*
X130985715Y-127871429D01*
X130985715Y-127204762D02*
X130890477Y-127300000D01*
X130985715Y-127395238D01*
X131080954Y-127300000D01*
X130985715Y-127204762D01*
X130985715Y-127395238D01*
X132223811Y-129204762D02*
X132033335Y-129109524D01*
X131938096Y-129014286D01*
X131842858Y-128823810D01*
X131842858Y-128252381D01*
X131938096Y-128061905D01*
X132033335Y-127966667D01*
X132223811Y-127871429D01*
X132509525Y-127871429D01*
X132700001Y-127966667D01*
X132795239Y-128061905D01*
X132890477Y-128252381D01*
X132890477Y-128823810D01*
X132795239Y-129014286D01*
X132700001Y-129109524D01*
X132509525Y-129204762D01*
X132223811Y-129204762D01*
X133747620Y-129014286D02*
X133842859Y-129109524D01*
X133747620Y-129204762D01*
X133652382Y-129109524D01*
X133747620Y-129014286D01*
X133747620Y-129204762D01*
X134414287Y-127871429D02*
X135176192Y-127871429D01*
X134700001Y-129204762D02*
X134700001Y-127490476D01*
X134795240Y-127300000D01*
X134985716Y-127204762D01*
X135176192Y-127204762D01*
X135842858Y-129204762D02*
X135842858Y-127871429D01*
X135842858Y-127204762D02*
X135747620Y-127300000D01*
X135842858Y-127395238D01*
X135938097Y-127300000D01*
X135842858Y-127204762D01*
X135842858Y-127395238D01*
X77990477Y-127400000D02*
X77800000Y-127304762D01*
X77514286Y-127304762D01*
X77228572Y-127400000D01*
X77038096Y-127590476D01*
X76942857Y-127780952D01*
X76847619Y-128161905D01*
X76847619Y-128447619D01*
X76942857Y-128828571D01*
X77038096Y-129019048D01*
X77228572Y-129209524D01*
X77514286Y-129304762D01*
X77704762Y-129304762D01*
X77990477Y-129209524D01*
X78085715Y-129114286D01*
X78085715Y-128447619D01*
X77704762Y-128447619D01*
X79609524Y-128257143D02*
X79895238Y-128352381D01*
X79990477Y-128447619D01*
X80085715Y-128638095D01*
X80085715Y-128923810D01*
X79990477Y-129114286D01*
X79895238Y-129209524D01*
X79704762Y-129304762D01*
X78942857Y-129304762D01*
X78942857Y-127304762D01*
X79609524Y-127304762D01*
X79800000Y-127400000D01*
X79895238Y-127495238D01*
X79990477Y-127685714D01*
X79990477Y-127876190D01*
X79895238Y-128066667D01*
X79800000Y-128161905D01*
X79609524Y-128257143D01*
X78942857Y-128257143D01*
X80942857Y-128542857D02*
X82466667Y-128542857D01*
X84085714Y-128257143D02*
X84371428Y-128352381D01*
X84466667Y-128447619D01*
X84561905Y-128638095D01*
X84561905Y-128923810D01*
X84466667Y-129114286D01*
X84371428Y-129209524D01*
X84180952Y-129304762D01*
X83419047Y-129304762D01*
X83419047Y-127304762D01*
X84085714Y-127304762D01*
X84276190Y-127400000D01*
X84371428Y-127495238D01*
X84466667Y-127685714D01*
X84466667Y-127876190D01*
X84371428Y-128066667D01*
X84276190Y-128161905D01*
X84085714Y-128257143D01*
X83419047Y-128257143D01*
X85419047Y-128257143D02*
X86085714Y-128257143D01*
X86371428Y-129304762D02*
X85419047Y-129304762D01*
X85419047Y-127304762D01*
X86371428Y-127304762D01*
X87228571Y-129304762D02*
X87228571Y-127304762D01*
X88371429Y-129304762D01*
X88371429Y-127304762D01*
X90466667Y-129114286D02*
X90371429Y-129209524D01*
X90085714Y-129304762D01*
X89895238Y-129304762D01*
X89609524Y-129209524D01*
X89419048Y-129019048D01*
X89323809Y-128828571D01*
X89228571Y-128447619D01*
X89228571Y-128161905D01*
X89323809Y-127780952D01*
X89419048Y-127590476D01*
X89609524Y-127400000D01*
X89895238Y-127304762D01*
X90085714Y-127304762D01*
X90371429Y-127400000D01*
X90466667Y-127495238D01*
X91323809Y-129304762D02*
X91323809Y-127304762D01*
X91323809Y-128257143D02*
X92466667Y-128257143D01*
X92466667Y-129304762D02*
X92466667Y-127304762D01*
X93419047Y-128542857D02*
X94942857Y-128542857D01*
X96942857Y-127400000D02*
X96752380Y-127304762D01*
X96466666Y-127304762D01*
X96180952Y-127400000D01*
X95990476Y-127590476D01*
X95895237Y-127780952D01*
X95799999Y-128161905D01*
X95799999Y-128447619D01*
X95895237Y-128828571D01*
X95990476Y-129019048D01*
X96180952Y-129209524D01*
X96466666Y-129304762D01*
X96657142Y-129304762D01*
X96942857Y-129209524D01*
X97038095Y-129114286D01*
X97038095Y-128447619D01*
X96657142Y-128447619D01*
X98942857Y-129304762D02*
X97799999Y-129304762D01*
X98371428Y-129304762D02*
X98371428Y-127304762D01*
X98180952Y-127590476D01*
X97990476Y-127780952D01*
X97799999Y-127876190D01*
X101133333Y-127971429D02*
X101609524Y-129304762D01*
X102085714Y-127971429D01*
X103895239Y-129304762D02*
X102752381Y-129304762D01*
X103323810Y-129304762D02*
X103323810Y-127304762D01*
X103133334Y-127590476D01*
X102942858Y-127780952D01*
X102752381Y-127876190D01*
X104752381Y-129114286D02*
X104847620Y-129209524D01*
X104752381Y-129304762D01*
X104657143Y-129209524D01*
X104752381Y-129114286D01*
X104752381Y-129304762D01*
X106085715Y-127304762D02*
X106276191Y-127304762D01*
X106466667Y-127400000D01*
X106561905Y-127495238D01*
X106657143Y-127685714D01*
X106752382Y-128066667D01*
X106752382Y-128542857D01*
X106657143Y-128923810D01*
X106561905Y-129114286D01*
X106466667Y-129209524D01*
X106276191Y-129304762D01*
X106085715Y-129304762D01*
X105895239Y-129209524D01*
X105800001Y-129114286D01*
X105704762Y-128923810D01*
X105609524Y-128542857D01*
X105609524Y-128066667D01*
X105704762Y-127685714D01*
X105800001Y-127495238D01*
X105895239Y-127400000D01*
X106085715Y-127304762D01*
D12*
X105400000Y-73600000D02*
X103900000Y-73600000D01*
X105400000Y-63800000D02*
X105400000Y-73600000D01*
D13*
X127942857Y-113407143D02*
X127514286Y-113407143D01*
X127514286Y-112507143D01*
X128242857Y-113407143D02*
X128242857Y-112507143D01*
X128457142Y-112507143D01*
X128585714Y-112550000D01*
X128671428Y-112635714D01*
X128714285Y-112721429D01*
X128757142Y-112892857D01*
X128757142Y-113021429D01*
X128714285Y-113192857D01*
X128671428Y-113278571D01*
X128585714Y-113364286D01*
X128457142Y-113407143D01*
X128242857Y-113407143D01*
X129614285Y-113407143D02*
X129100000Y-113407143D01*
X129357142Y-113407143D02*
X129357142Y-112507143D01*
X129271428Y-112635714D01*
X129185714Y-112721429D01*
X129100000Y-112764286D01*
X127942857Y-111007143D02*
X127514286Y-111007143D01*
X127514286Y-110107143D01*
X128242857Y-111007143D02*
X128242857Y-110107143D01*
X128457142Y-110107143D01*
X128585714Y-110150000D01*
X128671428Y-110235714D01*
X128714285Y-110321429D01*
X128757142Y-110492857D01*
X128757142Y-110621429D01*
X128714285Y-110792857D01*
X128671428Y-110878571D01*
X128585714Y-110964286D01*
X128457142Y-111007143D01*
X128242857Y-111007143D01*
X129314285Y-110107143D02*
X129400000Y-110107143D01*
X129485714Y-110150000D01*
X129528571Y-110192857D01*
X129571428Y-110278571D01*
X129614285Y-110450000D01*
X129614285Y-110664286D01*
X129571428Y-110835714D01*
X129528571Y-110921429D01*
X129485714Y-110964286D01*
X129400000Y-111007143D01*
X129314285Y-111007143D01*
X129228571Y-110964286D01*
X129185714Y-110921429D01*
X129142857Y-110835714D01*
X129100000Y-110664286D01*
X129100000Y-110450000D01*
X129142857Y-110278571D01*
X129185714Y-110192857D01*
X129228571Y-110150000D01*
X129314285Y-110107143D01*
X128028571Y-108321429D02*
X127985714Y-108364286D01*
X127857143Y-108407143D01*
X127771429Y-108407143D01*
X127642857Y-108364286D01*
X127557143Y-108278571D01*
X127514286Y-108192857D01*
X127471429Y-108021429D01*
X127471429Y-107892857D01*
X127514286Y-107721429D01*
X127557143Y-107635714D01*
X127642857Y-107550000D01*
X127771429Y-107507143D01*
X127857143Y-107507143D01*
X127985714Y-107550000D01*
X128028571Y-107592857D01*
X128414286Y-108407143D02*
X128414286Y-107507143D01*
X128757143Y-107507143D01*
X128842857Y-107550000D01*
X128885714Y-107592857D01*
X128928571Y-107678571D01*
X128928571Y-107807143D01*
X128885714Y-107892857D01*
X128842857Y-107935714D01*
X128757143Y-107978571D01*
X128414286Y-107978571D01*
X129785714Y-107550000D02*
X129700000Y-107507143D01*
X129571429Y-107507143D01*
X129442857Y-107550000D01*
X129357143Y-107635714D01*
X129314286Y-107721429D01*
X129271429Y-107892857D01*
X129271429Y-108021429D01*
X129314286Y-108192857D01*
X129357143Y-108278571D01*
X129442857Y-108364286D01*
X129571429Y-108407143D01*
X129657143Y-108407143D01*
X129785714Y-108364286D01*
X129828571Y-108321429D01*
X129828571Y-108021429D01*
X129657143Y-108021429D01*
X128028571Y-105921429D02*
X127985714Y-105964286D01*
X127857143Y-106007143D01*
X127771429Y-106007143D01*
X127642857Y-105964286D01*
X127557143Y-105878571D01*
X127514286Y-105792857D01*
X127471429Y-105621429D01*
X127471429Y-105492857D01*
X127514286Y-105321429D01*
X127557143Y-105235714D01*
X127642857Y-105150000D01*
X127771429Y-105107143D01*
X127857143Y-105107143D01*
X127985714Y-105150000D01*
X128028571Y-105192857D01*
X128414286Y-106007143D02*
X128414286Y-105107143D01*
X128757143Y-105107143D01*
X128842857Y-105150000D01*
X128885714Y-105192857D01*
X128928571Y-105278571D01*
X128928571Y-105407143D01*
X128885714Y-105492857D01*
X128842857Y-105535714D01*
X128757143Y-105578571D01*
X128414286Y-105578571D01*
X127414286Y-103407143D02*
X127414286Y-102507143D01*
X127414286Y-102935714D02*
X127928571Y-102935714D01*
X127928571Y-103407143D02*
X127928571Y-102507143D01*
X128314286Y-103364286D02*
X128442857Y-103407143D01*
X128657143Y-103407143D01*
X128742857Y-103364286D01*
X128785714Y-103321429D01*
X128828571Y-103235714D01*
X128828571Y-103150000D01*
X128785714Y-103064286D01*
X128742857Y-103021429D01*
X128657143Y-102978571D01*
X128485714Y-102935714D01*
X128400000Y-102892857D01*
X128357143Y-102850000D01*
X128314286Y-102764286D01*
X128314286Y-102678571D01*
X128357143Y-102592857D01*
X128400000Y-102550000D01*
X128485714Y-102507143D01*
X128700000Y-102507143D01*
X128828571Y-102550000D01*
X129385714Y-102978571D02*
X129385714Y-103407143D01*
X129085714Y-102507143D02*
X129385714Y-102978571D01*
X129685714Y-102507143D01*
X129985715Y-103407143D02*
X129985715Y-102507143D01*
X130500000Y-103407143D01*
X130500000Y-102507143D01*
X127928571Y-100721429D02*
X127885714Y-100764286D01*
X127757143Y-100807143D01*
X127671429Y-100807143D01*
X127542857Y-100764286D01*
X127457143Y-100678571D01*
X127414286Y-100592857D01*
X127371429Y-100421429D01*
X127371429Y-100292857D01*
X127414286Y-100121429D01*
X127457143Y-100035714D01*
X127542857Y-99950000D01*
X127671429Y-99907143D01*
X127757143Y-99907143D01*
X127885714Y-99950000D01*
X127928571Y-99992857D01*
X128314286Y-100807143D02*
X128314286Y-99907143D01*
X128657143Y-99907143D01*
X128742857Y-99950000D01*
X128785714Y-99992857D01*
X128828571Y-100078571D01*
X128828571Y-100207143D01*
X128785714Y-100292857D01*
X128742857Y-100335714D01*
X128657143Y-100378571D01*
X128314286Y-100378571D01*
X129642857Y-100807143D02*
X129214286Y-100807143D01*
X129214286Y-99907143D01*
X127714286Y-97835714D02*
X127414286Y-97835714D01*
X127414286Y-98307143D02*
X127414286Y-97407143D01*
X127842857Y-97407143D01*
X128700000Y-98307143D02*
X128400000Y-97878571D01*
X128185715Y-98307143D02*
X128185715Y-97407143D01*
X128528572Y-97407143D01*
X128614286Y-97450000D01*
X128657143Y-97492857D01*
X128700000Y-97578571D01*
X128700000Y-97707143D01*
X128657143Y-97792857D01*
X128614286Y-97835714D01*
X128528572Y-97878571D01*
X128185715Y-97878571D01*
X127285714Y-93707143D02*
X127585714Y-94607143D01*
X127885714Y-93707143D01*
X128142858Y-94564286D02*
X128271429Y-94607143D01*
X128485715Y-94607143D01*
X128571429Y-94564286D01*
X128614286Y-94521429D01*
X128657143Y-94435714D01*
X128657143Y-94350000D01*
X128614286Y-94264286D01*
X128571429Y-94221429D01*
X128485715Y-94178571D01*
X128314286Y-94135714D01*
X128228572Y-94092857D01*
X128185715Y-94050000D01*
X128142858Y-93964286D01*
X128142858Y-93878571D01*
X128185715Y-93792857D01*
X128228572Y-93750000D01*
X128314286Y-93707143D01*
X128528572Y-93707143D01*
X128657143Y-93750000D01*
X129214286Y-94178571D02*
X129214286Y-94607143D01*
X128914286Y-93707143D02*
X129214286Y-94178571D01*
X129514286Y-93707143D01*
X129814287Y-94607143D02*
X129814287Y-93707143D01*
X130328572Y-94607143D01*
X130328572Y-93707143D01*
X131271429Y-94521429D02*
X131228572Y-94564286D01*
X131100001Y-94607143D01*
X131014287Y-94607143D01*
X130885715Y-94564286D01*
X130800001Y-94478571D01*
X130757144Y-94392857D01*
X130714287Y-94221429D01*
X130714287Y-94092857D01*
X130757144Y-93921429D01*
X130800001Y-93835714D01*
X130885715Y-93750000D01*
X131014287Y-93707143D01*
X131100001Y-93707143D01*
X131228572Y-93750000D01*
X131271429Y-93792857D01*
X121142857Y-109650000D02*
X121057143Y-109607143D01*
X120928572Y-109607143D01*
X120800000Y-109650000D01*
X120714286Y-109735714D01*
X120671429Y-109821429D01*
X120628572Y-109992857D01*
X120628572Y-110121429D01*
X120671429Y-110292857D01*
X120714286Y-110378571D01*
X120800000Y-110464286D01*
X120928572Y-110507143D01*
X121014286Y-110507143D01*
X121142857Y-110464286D01*
X121185714Y-110421429D01*
X121185714Y-110121429D01*
X121014286Y-110121429D01*
X121571429Y-110507143D02*
X121571429Y-109607143D01*
X122085714Y-110507143D01*
X122085714Y-109607143D01*
X122514286Y-110507143D02*
X122514286Y-109607143D01*
X122728571Y-109607143D01*
X122857143Y-109650000D01*
X122942857Y-109735714D01*
X122985714Y-109821429D01*
X123028571Y-109992857D01*
X123028571Y-110121429D01*
X122985714Y-110292857D01*
X122942857Y-110378571D01*
X122857143Y-110464286D01*
X122728571Y-110507143D01*
X122514286Y-110507143D01*
X117357143Y-105507143D02*
X117057143Y-105078571D01*
X116842858Y-105507143D02*
X116842858Y-104607143D01*
X117185715Y-104607143D01*
X117271429Y-104650000D01*
X117314286Y-104692857D01*
X117357143Y-104778571D01*
X117357143Y-104907143D01*
X117314286Y-104992857D01*
X117271429Y-105035714D01*
X117185715Y-105078571D01*
X116842858Y-105078571D01*
X117914286Y-104607143D02*
X118085715Y-104607143D01*
X118171429Y-104650000D01*
X118257143Y-104735714D01*
X118300001Y-104907143D01*
X118300001Y-105207143D01*
X118257143Y-105378571D01*
X118171429Y-105464286D01*
X118085715Y-105507143D01*
X117914286Y-105507143D01*
X117828572Y-105464286D01*
X117742858Y-105378571D01*
X117700001Y-105207143D01*
X117700001Y-104907143D01*
X117742858Y-104735714D01*
X117828572Y-104650000D01*
X117914286Y-104607143D01*
X118685715Y-104607143D02*
X118685715Y-105335714D01*
X118728572Y-105421429D01*
X118771429Y-105464286D01*
X118857143Y-105507143D01*
X119028572Y-105507143D01*
X119114286Y-105464286D01*
X119157143Y-105421429D01*
X119200000Y-105335714D01*
X119200000Y-104607143D01*
X119500000Y-104607143D02*
X120014286Y-104607143D01*
X119757143Y-105507143D02*
X119757143Y-104607143D01*
X117942857Y-102350000D02*
X117857143Y-102307143D01*
X117728572Y-102307143D01*
X117600000Y-102350000D01*
X117514286Y-102435714D01*
X117471429Y-102521429D01*
X117428572Y-102692857D01*
X117428572Y-102821429D01*
X117471429Y-102992857D01*
X117514286Y-103078571D01*
X117600000Y-103164286D01*
X117728572Y-103207143D01*
X117814286Y-103207143D01*
X117942857Y-103164286D01*
X117985714Y-103121429D01*
X117985714Y-102821429D01*
X117814286Y-102821429D01*
X118371429Y-103207143D02*
X118371429Y-102307143D01*
X118885714Y-103207143D01*
X118885714Y-102307143D01*
X119314286Y-103207143D02*
X119314286Y-102307143D01*
X119528571Y-102307143D01*
X119657143Y-102350000D01*
X119742857Y-102435714D01*
X119785714Y-102521429D01*
X119828571Y-102692857D01*
X119828571Y-102821429D01*
X119785714Y-102992857D01*
X119742857Y-103078571D01*
X119657143Y-103164286D01*
X119528571Y-103207143D01*
X119314286Y-103207143D01*
X117342858Y-100707143D02*
X116914287Y-100707143D01*
X116914287Y-99807143D01*
X117814286Y-99807143D02*
X117985715Y-99807143D01*
X118071429Y-99850000D01*
X118157143Y-99935714D01*
X118200001Y-100107143D01*
X118200001Y-100407143D01*
X118157143Y-100578571D01*
X118071429Y-100664286D01*
X117985715Y-100707143D01*
X117814286Y-100707143D01*
X117728572Y-100664286D01*
X117642858Y-100578571D01*
X117600001Y-100407143D01*
X117600001Y-100107143D01*
X117642858Y-99935714D01*
X117728572Y-99850000D01*
X117814286Y-99807143D01*
X118585715Y-99807143D02*
X118585715Y-100535714D01*
X118628572Y-100621429D01*
X118671429Y-100664286D01*
X118757143Y-100707143D01*
X118928572Y-100707143D01*
X119014286Y-100664286D01*
X119057143Y-100621429D01*
X119100000Y-100535714D01*
X119100000Y-99807143D01*
X119400000Y-99807143D02*
X119914286Y-99807143D01*
X119657143Y-100707143D02*
X119657143Y-99807143D01*
X118042857Y-97350000D02*
X117957143Y-97307143D01*
X117828572Y-97307143D01*
X117700000Y-97350000D01*
X117614286Y-97435714D01*
X117571429Y-97521429D01*
X117528572Y-97692857D01*
X117528572Y-97821429D01*
X117571429Y-97992857D01*
X117614286Y-98078571D01*
X117700000Y-98164286D01*
X117828572Y-98207143D01*
X117914286Y-98207143D01*
X118042857Y-98164286D01*
X118085714Y-98121429D01*
X118085714Y-97821429D01*
X117914286Y-97821429D01*
X118471429Y-98207143D02*
X118471429Y-97307143D01*
X118985714Y-98207143D01*
X118985714Y-97307143D01*
X119414286Y-98207143D02*
X119414286Y-97307143D01*
X119628571Y-97307143D01*
X119757143Y-97350000D01*
X119842857Y-97435714D01*
X119885714Y-97521429D01*
X119928571Y-97692857D01*
X119928571Y-97821429D01*
X119885714Y-97992857D01*
X119842857Y-98078571D01*
X119757143Y-98164286D01*
X119628571Y-98207143D01*
X119414286Y-98207143D01*
X118142857Y-94807143D02*
X118442857Y-95707143D01*
X118742857Y-94807143D01*
X119042858Y-95707143D02*
X119042858Y-94807143D01*
X119471429Y-95707143D02*
X119471429Y-94807143D01*
X119985714Y-95707143D01*
X119985714Y-94807143D01*
X134307143Y-143485714D02*
X133407143Y-143485714D01*
X134050000Y-143185714D01*
X133407143Y-142885714D01*
X134307143Y-142885714D01*
X134221429Y-141942858D02*
X134264286Y-141985715D01*
X134307143Y-142114286D01*
X134307143Y-142200000D01*
X134264286Y-142328572D01*
X134178571Y-142414286D01*
X134092857Y-142457143D01*
X133921429Y-142500000D01*
X133792857Y-142500000D01*
X133621429Y-142457143D01*
X133535714Y-142414286D01*
X133450000Y-142328572D01*
X133407143Y-142200000D01*
X133407143Y-142114286D01*
X133450000Y-141985715D01*
X133492857Y-141942858D01*
X134264286Y-141600000D02*
X134307143Y-141471429D01*
X134307143Y-141257143D01*
X134264286Y-141171429D01*
X134221429Y-141128572D01*
X134135714Y-141085715D01*
X134050000Y-141085715D01*
X133964286Y-141128572D01*
X133921429Y-141171429D01*
X133878571Y-141257143D01*
X133835714Y-141428572D01*
X133792857Y-141514286D01*
X133750000Y-141557143D01*
X133664286Y-141600000D01*
X133578571Y-141600000D01*
X133492857Y-141557143D01*
X133450000Y-141514286D01*
X133407143Y-141428572D01*
X133407143Y-141214286D01*
X133450000Y-141085715D01*
X135907143Y-143485714D02*
X135007143Y-143485714D01*
X135650000Y-143185714D01*
X135007143Y-142885714D01*
X135907143Y-142885714D01*
X135907143Y-141942858D02*
X135478571Y-142242858D01*
X135907143Y-142457143D02*
X135007143Y-142457143D01*
X135007143Y-142114286D01*
X135050000Y-142028572D01*
X135092857Y-141985715D01*
X135178571Y-141942858D01*
X135307143Y-141942858D01*
X135392857Y-141985715D01*
X135435714Y-142028572D01*
X135478571Y-142114286D01*
X135478571Y-142457143D01*
X135907143Y-141557143D02*
X135007143Y-141557143D01*
X135007143Y-141342858D01*
X135050000Y-141214286D01*
X135135714Y-141128572D01*
X135221429Y-141085715D01*
X135392857Y-141042858D01*
X135521429Y-141042858D01*
X135692857Y-141085715D01*
X135778571Y-141128572D01*
X135864286Y-141214286D01*
X135907143Y-141342858D01*
X135907143Y-141557143D01*
X137607143Y-143485714D02*
X136707143Y-143485714D01*
X137350000Y-143185714D01*
X136707143Y-142885714D01*
X137607143Y-142885714D01*
X136707143Y-142542858D02*
X137607143Y-142328572D01*
X136964286Y-142157143D01*
X137607143Y-141985715D01*
X136707143Y-141771429D01*
X137607143Y-140914287D02*
X137178571Y-141214287D01*
X137607143Y-141428572D02*
X136707143Y-141428572D01*
X136707143Y-141085715D01*
X136750000Y-141000001D01*
X136792857Y-140957144D01*
X136878571Y-140914287D01*
X137007143Y-140914287D01*
X137092857Y-140957144D01*
X137135714Y-141000001D01*
X137178571Y-141085715D01*
X137178571Y-141428572D01*
X148114286Y-84807143D02*
X147685715Y-84807143D01*
X147642858Y-85235714D01*
X147685715Y-85192857D01*
X147771429Y-85150000D01*
X147985715Y-85150000D01*
X148071429Y-85192857D01*
X148114286Y-85235714D01*
X148157143Y-85321429D01*
X148157143Y-85535714D01*
X148114286Y-85621429D01*
X148071429Y-85664286D01*
X147985715Y-85707143D01*
X147771429Y-85707143D01*
X147685715Y-85664286D01*
X147642858Y-85621429D01*
X145471429Y-85107143D02*
X145471429Y-85707143D01*
X145257143Y-84764286D02*
X145042858Y-85407143D01*
X145600000Y-85407143D01*
X142500000Y-84807143D02*
X143057143Y-84807143D01*
X142757143Y-85150000D01*
X142885715Y-85150000D01*
X142971429Y-85192857D01*
X143014286Y-85235714D01*
X143057143Y-85321429D01*
X143057143Y-85535714D01*
X143014286Y-85621429D01*
X142971429Y-85664286D01*
X142885715Y-85707143D01*
X142628572Y-85707143D01*
X142542858Y-85664286D01*
X142500000Y-85621429D01*
X140042858Y-84892857D02*
X140085715Y-84850000D01*
X140171429Y-84807143D01*
X140385715Y-84807143D01*
X140471429Y-84850000D01*
X140514286Y-84892857D01*
X140557143Y-84978571D01*
X140557143Y-85064286D01*
X140514286Y-85192857D01*
X140000000Y-85707143D01*
X140557143Y-85707143D01*
X137957143Y-85707143D02*
X137442858Y-85707143D01*
X137700000Y-85707143D02*
X137700000Y-84807143D01*
X137614286Y-84935714D01*
X137528572Y-85021429D01*
X137442858Y-85064286D01*
D12*
X131561905Y-84852381D02*
X131561905Y-83852381D01*
X131942858Y-83852381D01*
X132038096Y-83900000D01*
X132085715Y-83947619D01*
X132133334Y-84042857D01*
X132133334Y-84185714D01*
X132085715Y-84280952D01*
X132038096Y-84328571D01*
X131942858Y-84376190D01*
X131561905Y-84376190D01*
X133085715Y-84852381D02*
X132514286Y-84852381D01*
X132800000Y-84852381D02*
X132800000Y-83852381D01*
X132704762Y-83995238D01*
X132609524Y-84090476D01*
X132514286Y-84138095D01*
X139628571Y-80604762D02*
X139771428Y-80652381D01*
X140009524Y-80652381D01*
X140104762Y-80604762D01*
X140152381Y-80557143D01*
X140200000Y-80461905D01*
X140200000Y-80366667D01*
X140152381Y-80271429D01*
X140104762Y-80223810D01*
X140009524Y-80176190D01*
X139819047Y-80128571D01*
X139723809Y-80080952D01*
X139676190Y-80033333D01*
X139628571Y-79938095D01*
X139628571Y-79842857D01*
X139676190Y-79747619D01*
X139723809Y-79700000D01*
X139819047Y-79652381D01*
X140057143Y-79652381D01*
X140200000Y-79700000D01*
X140819047Y-80176190D02*
X140819047Y-80652381D01*
X140485714Y-79652381D02*
X140819047Y-80176190D01*
X141152381Y-79652381D01*
X141438095Y-80604762D02*
X141580952Y-80652381D01*
X141819048Y-80652381D01*
X141914286Y-80604762D01*
X141961905Y-80557143D01*
X142009524Y-80461905D01*
X142009524Y-80366667D01*
X141961905Y-80271429D01*
X141914286Y-80223810D01*
X141819048Y-80176190D01*
X141628571Y-80128571D01*
X141533333Y-80080952D01*
X141485714Y-80033333D01*
X141438095Y-79938095D01*
X141438095Y-79842857D01*
X141485714Y-79747619D01*
X141533333Y-79700000D01*
X141628571Y-79652381D01*
X141866667Y-79652381D01*
X142009524Y-79700000D01*
X143533334Y-80128571D02*
X143676191Y-80176190D01*
X143723810Y-80223810D01*
X143771429Y-80319048D01*
X143771429Y-80461905D01*
X143723810Y-80557143D01*
X143676191Y-80604762D01*
X143580953Y-80652381D01*
X143200000Y-80652381D01*
X143200000Y-79652381D01*
X143533334Y-79652381D01*
X143628572Y-79700000D01*
X143676191Y-79747619D01*
X143723810Y-79842857D01*
X143723810Y-79938095D01*
X143676191Y-80033333D01*
X143628572Y-80080952D01*
X143533334Y-80128571D01*
X143200000Y-80128571D01*
X129400000Y-80604762D02*
X129542857Y-80652381D01*
X129780953Y-80652381D01*
X129876191Y-80604762D01*
X129923810Y-80557143D01*
X129971429Y-80461905D01*
X129971429Y-80366667D01*
X129923810Y-80271429D01*
X129876191Y-80223810D01*
X129780953Y-80176190D01*
X129590476Y-80128571D01*
X129495238Y-80080952D01*
X129447619Y-80033333D01*
X129400000Y-79938095D01*
X129400000Y-79842857D01*
X129447619Y-79747619D01*
X129495238Y-79700000D01*
X129590476Y-79652381D01*
X129828572Y-79652381D01*
X129971429Y-79700000D01*
X130590476Y-80176190D02*
X130590476Y-80652381D01*
X130257143Y-79652381D02*
X130590476Y-80176190D01*
X130923810Y-79652381D01*
X131209524Y-80604762D02*
X131352381Y-80652381D01*
X131590477Y-80652381D01*
X131685715Y-80604762D01*
X131733334Y-80557143D01*
X131780953Y-80461905D01*
X131780953Y-80366667D01*
X131733334Y-80271429D01*
X131685715Y-80223810D01*
X131590477Y-80176190D01*
X131400000Y-80128571D01*
X131304762Y-80080952D01*
X131257143Y-80033333D01*
X131209524Y-79938095D01*
X131209524Y-79842857D01*
X131257143Y-79747619D01*
X131304762Y-79700000D01*
X131400000Y-79652381D01*
X131638096Y-79652381D01*
X131780953Y-79700000D01*
X132923810Y-80366667D02*
X133400001Y-80366667D01*
X132828572Y-80652381D02*
X133161905Y-79652381D01*
X133495239Y-80652381D01*
D13*
X135057143Y-84807143D02*
X135142858Y-84807143D01*
X135228572Y-84850000D01*
X135271429Y-84892857D01*
X135314286Y-84978571D01*
X135357143Y-85150000D01*
X135357143Y-85364286D01*
X135314286Y-85535714D01*
X135271429Y-85621429D01*
X135228572Y-85664286D01*
X135142858Y-85707143D01*
X135057143Y-85707143D01*
X134971429Y-85664286D01*
X134928572Y-85621429D01*
X134885715Y-85535714D01*
X134842858Y-85364286D01*
X134842858Y-85150000D01*
X134885715Y-84978571D01*
X134928572Y-84892857D01*
X134971429Y-84850000D01*
X135057143Y-84807143D01*
X138371428Y-117764286D02*
X139057142Y-117764286D01*
X138714285Y-118107143D02*
X138714285Y-117421429D01*
X139914285Y-117207143D02*
X139485714Y-117207143D01*
X139442857Y-117635714D01*
X139485714Y-117592857D01*
X139571428Y-117550000D01*
X139785714Y-117550000D01*
X139871428Y-117592857D01*
X139914285Y-117635714D01*
X139957142Y-117721429D01*
X139957142Y-117935714D01*
X139914285Y-118021429D01*
X139871428Y-118064286D01*
X139785714Y-118107143D01*
X139571428Y-118107143D01*
X139485714Y-118064286D01*
X139442857Y-118021429D01*
X140214285Y-117207143D02*
X140514285Y-118107143D01*
X140814285Y-117207143D01*
X138157144Y-120407143D02*
X138157144Y-119507143D01*
X138457144Y-120150000D01*
X138757144Y-119507143D01*
X138757144Y-120407143D01*
X139100000Y-119507143D02*
X139314286Y-120407143D01*
X139485715Y-119764286D01*
X139657143Y-120407143D01*
X139871429Y-119507143D01*
X140728571Y-120407143D02*
X140428571Y-119978571D01*
X140214286Y-120407143D02*
X140214286Y-119507143D01*
X140557143Y-119507143D01*
X140642857Y-119550000D01*
X140685714Y-119592857D01*
X140728571Y-119678571D01*
X140728571Y-119807143D01*
X140685714Y-119892857D01*
X140642857Y-119935714D01*
X140557143Y-119978571D01*
X140214286Y-119978571D01*
X137942858Y-119352000D02*
X140900000Y-119352000D01*
X138285715Y-123007143D02*
X138285715Y-122107143D01*
X138585715Y-122750000D01*
X138885715Y-122107143D01*
X138885715Y-123007143D01*
X139828571Y-123007143D02*
X139528571Y-122578571D01*
X139314286Y-123007143D02*
X139314286Y-122107143D01*
X139657143Y-122107143D01*
X139742857Y-122150000D01*
X139785714Y-122192857D01*
X139828571Y-122278571D01*
X139828571Y-122407143D01*
X139785714Y-122492857D01*
X139742857Y-122535714D01*
X139657143Y-122578571D01*
X139314286Y-122578571D01*
X140214286Y-123007143D02*
X140214286Y-122107143D01*
X140428571Y-122107143D01*
X140557143Y-122150000D01*
X140642857Y-122235714D01*
X140685714Y-122321429D01*
X140728571Y-122492857D01*
X140728571Y-122621429D01*
X140685714Y-122792857D01*
X140642857Y-122878571D01*
X140557143Y-122964286D01*
X140428571Y-123007143D01*
X140214286Y-123007143D01*
X138071429Y-121952000D02*
X140900000Y-121952000D01*
X138328572Y-125507143D02*
X138328572Y-124607143D01*
X138628572Y-125250000D01*
X138928572Y-124607143D01*
X138928572Y-125507143D01*
X139871428Y-125421429D02*
X139828571Y-125464286D01*
X139700000Y-125507143D01*
X139614286Y-125507143D01*
X139485714Y-125464286D01*
X139400000Y-125378571D01*
X139357143Y-125292857D01*
X139314286Y-125121429D01*
X139314286Y-124992857D01*
X139357143Y-124821429D01*
X139400000Y-124735714D01*
X139485714Y-124650000D01*
X139614286Y-124607143D01*
X139700000Y-124607143D01*
X139828571Y-124650000D01*
X139871428Y-124692857D01*
X140214286Y-125464286D02*
X140342857Y-125507143D01*
X140557143Y-125507143D01*
X140642857Y-125464286D01*
X140685714Y-125421429D01*
X140728571Y-125335714D01*
X140728571Y-125250000D01*
X140685714Y-125164286D01*
X140642857Y-125121429D01*
X140557143Y-125078571D01*
X140385714Y-125035714D01*
X140300000Y-124992857D01*
X140257143Y-124950000D01*
X140214286Y-124864286D01*
X140214286Y-124778571D01*
X140257143Y-124692857D01*
X140300000Y-124650000D01*
X140385714Y-124607143D01*
X140600000Y-124607143D01*
X140728571Y-124650000D01*
X138114286Y-124452000D02*
X140900000Y-124452000D01*
X138328572Y-128107143D02*
X138328572Y-127207143D01*
X138628572Y-127850000D01*
X138928572Y-127207143D01*
X138928572Y-128107143D01*
X139357143Y-128107143D02*
X139357143Y-127207143D01*
X139571428Y-127207143D01*
X139700000Y-127250000D01*
X139785714Y-127335714D01*
X139828571Y-127421429D01*
X139871428Y-127592857D01*
X139871428Y-127721429D01*
X139828571Y-127892857D01*
X139785714Y-127978571D01*
X139700000Y-128064286D01*
X139571428Y-128107143D01*
X139357143Y-128107143D01*
X140428571Y-127207143D02*
X140514286Y-127207143D01*
X140600000Y-127250000D01*
X140642857Y-127292857D01*
X140685714Y-127378571D01*
X140728571Y-127550000D01*
X140728571Y-127764286D01*
X140685714Y-127935714D01*
X140642857Y-128021429D01*
X140600000Y-128064286D01*
X140514286Y-128107143D01*
X140428571Y-128107143D01*
X140342857Y-128064286D01*
X140300000Y-128021429D01*
X140257143Y-127935714D01*
X140214286Y-127764286D01*
X140214286Y-127550000D01*
X140257143Y-127378571D01*
X140300000Y-127292857D01*
X140342857Y-127250000D01*
X140428571Y-127207143D01*
X138328572Y-130607143D02*
X138328572Y-129707143D01*
X138628572Y-130350000D01*
X138928572Y-129707143D01*
X138928572Y-130607143D01*
X139357143Y-130607143D02*
X139357143Y-129707143D01*
X139571428Y-129707143D01*
X139700000Y-129750000D01*
X139785714Y-129835714D01*
X139828571Y-129921429D01*
X139871428Y-130092857D01*
X139871428Y-130221429D01*
X139828571Y-130392857D01*
X139785714Y-130478571D01*
X139700000Y-130564286D01*
X139571428Y-130607143D01*
X139357143Y-130607143D01*
X140728571Y-130607143D02*
X140214286Y-130607143D01*
X140471428Y-130607143D02*
X140471428Y-129707143D01*
X140385714Y-129835714D01*
X140300000Y-129921429D01*
X140214286Y-129964286D01*
X138328572Y-133207143D02*
X138328572Y-132307143D01*
X138628572Y-132950000D01*
X138928572Y-132307143D01*
X138928572Y-133207143D01*
X139357143Y-133207143D02*
X139357143Y-132307143D01*
X139571428Y-132307143D01*
X139700000Y-132350000D01*
X139785714Y-132435714D01*
X139828571Y-132521429D01*
X139871428Y-132692857D01*
X139871428Y-132821429D01*
X139828571Y-132992857D01*
X139785714Y-133078571D01*
X139700000Y-133164286D01*
X139571428Y-133207143D01*
X139357143Y-133207143D01*
X140214286Y-132392857D02*
X140257143Y-132350000D01*
X140342857Y-132307143D01*
X140557143Y-132307143D01*
X140642857Y-132350000D01*
X140685714Y-132392857D01*
X140728571Y-132478571D01*
X140728571Y-132564286D01*
X140685714Y-132692857D01*
X140171428Y-133207143D01*
X140728571Y-133207143D01*
X138328572Y-135807143D02*
X138328572Y-134907143D01*
X138628572Y-135550000D01*
X138928572Y-134907143D01*
X138928572Y-135807143D01*
X139357143Y-135807143D02*
X139357143Y-134907143D01*
X139571428Y-134907143D01*
X139700000Y-134950000D01*
X139785714Y-135035714D01*
X139828571Y-135121429D01*
X139871428Y-135292857D01*
X139871428Y-135421429D01*
X139828571Y-135592857D01*
X139785714Y-135678571D01*
X139700000Y-135764286D01*
X139571428Y-135807143D01*
X139357143Y-135807143D01*
X140171428Y-134907143D02*
X140728571Y-134907143D01*
X140428571Y-135250000D01*
X140557143Y-135250000D01*
X140642857Y-135292857D01*
X140685714Y-135335714D01*
X140728571Y-135421429D01*
X140728571Y-135635714D01*
X140685714Y-135721429D01*
X140642857Y-135764286D01*
X140557143Y-135807143D01*
X140300000Y-135807143D01*
X140214286Y-135764286D01*
X140171428Y-135721429D01*
X138328572Y-138307143D02*
X138328572Y-137407143D01*
X138628572Y-138050000D01*
X138928572Y-137407143D01*
X138928572Y-138307143D01*
X139357143Y-138307143D02*
X139357143Y-137407143D01*
X139571428Y-137407143D01*
X139700000Y-137450000D01*
X139785714Y-137535714D01*
X139828571Y-137621429D01*
X139871428Y-137792857D01*
X139871428Y-137921429D01*
X139828571Y-138092857D01*
X139785714Y-138178571D01*
X139700000Y-138264286D01*
X139571428Y-138307143D01*
X139357143Y-138307143D01*
X140642857Y-137707143D02*
X140642857Y-138307143D01*
X140428571Y-137364286D02*
X140214286Y-138007143D01*
X140771428Y-138007143D01*
X138328572Y-140807143D02*
X138328572Y-139907143D01*
X138628572Y-140550000D01*
X138928572Y-139907143D01*
X138928572Y-140807143D01*
X139357143Y-140807143D02*
X139357143Y-139907143D01*
X139571428Y-139907143D01*
X139700000Y-139950000D01*
X139785714Y-140035714D01*
X139828571Y-140121429D01*
X139871428Y-140292857D01*
X139871428Y-140421429D01*
X139828571Y-140592857D01*
X139785714Y-140678571D01*
X139700000Y-140764286D01*
X139571428Y-140807143D01*
X139357143Y-140807143D01*
X140685714Y-139907143D02*
X140257143Y-139907143D01*
X140214286Y-140335714D01*
X140257143Y-140292857D01*
X140342857Y-140250000D01*
X140557143Y-140250000D01*
X140642857Y-140292857D01*
X140685714Y-140335714D01*
X140728571Y-140421429D01*
X140728571Y-140635714D01*
X140685714Y-140721429D01*
X140642857Y-140764286D01*
X140557143Y-140807143D01*
X140342857Y-140807143D01*
X140257143Y-140764286D01*
X140214286Y-140721429D01*
X138328572Y-143407143D02*
X138328572Y-142507143D01*
X138628572Y-143150000D01*
X138928572Y-142507143D01*
X138928572Y-143407143D01*
X139357143Y-143407143D02*
X139357143Y-142507143D01*
X139571428Y-142507143D01*
X139700000Y-142550000D01*
X139785714Y-142635714D01*
X139828571Y-142721429D01*
X139871428Y-142892857D01*
X139871428Y-143021429D01*
X139828571Y-143192857D01*
X139785714Y-143278571D01*
X139700000Y-143364286D01*
X139571428Y-143407143D01*
X139357143Y-143407143D01*
X140642857Y-142507143D02*
X140471428Y-142507143D01*
X140385714Y-142550000D01*
X140342857Y-142592857D01*
X140257143Y-142721429D01*
X140214286Y-142892857D01*
X140214286Y-143235714D01*
X140257143Y-143321429D01*
X140300000Y-143364286D01*
X140385714Y-143407143D01*
X140557143Y-143407143D01*
X140642857Y-143364286D01*
X140685714Y-143321429D01*
X140728571Y-143235714D01*
X140728571Y-143021429D01*
X140685714Y-142935714D01*
X140642857Y-142892857D01*
X140557143Y-142850000D01*
X140385714Y-142850000D01*
X140300000Y-142892857D01*
X140257143Y-142935714D01*
X140214286Y-143021429D01*
X146414286Y-117907143D02*
X146414286Y-117007143D01*
X146714286Y-117650000D01*
X147014286Y-117007143D01*
X147014286Y-117907143D01*
X147400000Y-117650000D02*
X147828571Y-117650000D01*
X147314285Y-117907143D02*
X147614285Y-117007143D01*
X147914285Y-117907143D01*
X148385714Y-117007143D02*
X148471429Y-117007143D01*
X148557143Y-117050000D01*
X148600000Y-117092857D01*
X148642857Y-117178571D01*
X148685714Y-117350000D01*
X148685714Y-117564286D01*
X148642857Y-117735714D01*
X148600000Y-117821429D01*
X148557143Y-117864286D01*
X148471429Y-117907143D01*
X148385714Y-117907143D01*
X148300000Y-117864286D01*
X148257143Y-117821429D01*
X148214286Y-117735714D01*
X148171429Y-117564286D01*
X148171429Y-117350000D01*
X148214286Y-117178571D01*
X148257143Y-117092857D01*
X148300000Y-117050000D01*
X148385714Y-117007143D01*
X146414286Y-120507143D02*
X146414286Y-119607143D01*
X146714286Y-120250000D01*
X147014286Y-119607143D01*
X147014286Y-120507143D01*
X147400000Y-120250000D02*
X147828571Y-120250000D01*
X147314285Y-120507143D02*
X147614285Y-119607143D01*
X147914285Y-120507143D01*
X148685714Y-120507143D02*
X148171429Y-120507143D01*
X148428571Y-120507143D02*
X148428571Y-119607143D01*
X148342857Y-119735714D01*
X148257143Y-119821429D01*
X148171429Y-119864286D01*
X146414286Y-123007143D02*
X146414286Y-122107143D01*
X146714286Y-122750000D01*
X147014286Y-122107143D01*
X147014286Y-123007143D01*
X147400000Y-122750000D02*
X147828571Y-122750000D01*
X147314285Y-123007143D02*
X147614285Y-122107143D01*
X147914285Y-123007143D01*
X148171429Y-122192857D02*
X148214286Y-122150000D01*
X148300000Y-122107143D01*
X148514286Y-122107143D01*
X148600000Y-122150000D01*
X148642857Y-122192857D01*
X148685714Y-122278571D01*
X148685714Y-122364286D01*
X148642857Y-122492857D01*
X148128571Y-123007143D01*
X148685714Y-123007143D01*
X146414286Y-125507143D02*
X146414286Y-124607143D01*
X146714286Y-125250000D01*
X147014286Y-124607143D01*
X147014286Y-125507143D01*
X147400000Y-125250000D02*
X147828571Y-125250000D01*
X147314285Y-125507143D02*
X147614285Y-124607143D01*
X147914285Y-125507143D01*
X148128571Y-124607143D02*
X148685714Y-124607143D01*
X148385714Y-124950000D01*
X148514286Y-124950000D01*
X148600000Y-124992857D01*
X148642857Y-125035714D01*
X148685714Y-125121429D01*
X148685714Y-125335714D01*
X148642857Y-125421429D01*
X148600000Y-125464286D01*
X148514286Y-125507143D01*
X148257143Y-125507143D01*
X148171429Y-125464286D01*
X148128571Y-125421429D01*
X146414286Y-128107143D02*
X146414286Y-127207143D01*
X146714286Y-127850000D01*
X147014286Y-127207143D01*
X147014286Y-128107143D01*
X147400000Y-127850000D02*
X147828571Y-127850000D01*
X147314285Y-128107143D02*
X147614285Y-127207143D01*
X147914285Y-128107143D01*
X148600000Y-127507143D02*
X148600000Y-128107143D01*
X148385714Y-127164286D02*
X148171429Y-127807143D01*
X148728571Y-127807143D01*
X146414286Y-130607143D02*
X146414286Y-129707143D01*
X146714286Y-130350000D01*
X147014286Y-129707143D01*
X147014286Y-130607143D01*
X147400000Y-130350000D02*
X147828571Y-130350000D01*
X147314285Y-130607143D02*
X147614285Y-129707143D01*
X147914285Y-130607143D01*
X148642857Y-129707143D02*
X148214286Y-129707143D01*
X148171429Y-130135714D01*
X148214286Y-130092857D01*
X148300000Y-130050000D01*
X148514286Y-130050000D01*
X148600000Y-130092857D01*
X148642857Y-130135714D01*
X148685714Y-130221429D01*
X148685714Y-130435714D01*
X148642857Y-130521429D01*
X148600000Y-130564286D01*
X148514286Y-130607143D01*
X148300000Y-130607143D01*
X148214286Y-130564286D01*
X148171429Y-130521429D01*
X146414286Y-133207143D02*
X146414286Y-132307143D01*
X146714286Y-132950000D01*
X147014286Y-132307143D01*
X147014286Y-133207143D01*
X147400000Y-132950000D02*
X147828571Y-132950000D01*
X147314285Y-133207143D02*
X147614285Y-132307143D01*
X147914285Y-133207143D01*
X148600000Y-132307143D02*
X148428571Y-132307143D01*
X148342857Y-132350000D01*
X148300000Y-132392857D01*
X148214286Y-132521429D01*
X148171429Y-132692857D01*
X148171429Y-133035714D01*
X148214286Y-133121429D01*
X148257143Y-133164286D01*
X148342857Y-133207143D01*
X148514286Y-133207143D01*
X148600000Y-133164286D01*
X148642857Y-133121429D01*
X148685714Y-133035714D01*
X148685714Y-132821429D01*
X148642857Y-132735714D01*
X148600000Y-132692857D01*
X148514286Y-132650000D01*
X148342857Y-132650000D01*
X148257143Y-132692857D01*
X148214286Y-132735714D01*
X148171429Y-132821429D01*
X146414286Y-135707143D02*
X146414286Y-134807143D01*
X146714286Y-135450000D01*
X147014286Y-134807143D01*
X147014286Y-135707143D01*
X147400000Y-135450000D02*
X147828571Y-135450000D01*
X147314285Y-135707143D02*
X147614285Y-134807143D01*
X147914285Y-135707143D01*
X148128571Y-134807143D02*
X148728571Y-134807143D01*
X148342857Y-135707143D01*
X146414286Y-138307143D02*
X146414286Y-137407143D01*
X146714286Y-138050000D01*
X147014286Y-137407143D01*
X147014286Y-138307143D01*
X147400000Y-138050000D02*
X147828571Y-138050000D01*
X147314285Y-138307143D02*
X147614285Y-137407143D01*
X147914285Y-138307143D01*
X148342857Y-137792857D02*
X148257143Y-137750000D01*
X148214286Y-137707143D01*
X148171429Y-137621429D01*
X148171429Y-137578571D01*
X148214286Y-137492857D01*
X148257143Y-137450000D01*
X148342857Y-137407143D01*
X148514286Y-137407143D01*
X148600000Y-137450000D01*
X148642857Y-137492857D01*
X148685714Y-137578571D01*
X148685714Y-137621429D01*
X148642857Y-137707143D01*
X148600000Y-137750000D01*
X148514286Y-137792857D01*
X148342857Y-137792857D01*
X148257143Y-137835714D01*
X148214286Y-137878571D01*
X148171429Y-137964286D01*
X148171429Y-138135714D01*
X148214286Y-138221429D01*
X148257143Y-138264286D01*
X148342857Y-138307143D01*
X148514286Y-138307143D01*
X148600000Y-138264286D01*
X148642857Y-138221429D01*
X148685714Y-138135714D01*
X148685714Y-137964286D01*
X148642857Y-137878571D01*
X148600000Y-137835714D01*
X148514286Y-137792857D01*
X146414286Y-140807143D02*
X146414286Y-139907143D01*
X146714286Y-140550000D01*
X147014286Y-139907143D01*
X147014286Y-140807143D01*
X147400000Y-140550000D02*
X147828571Y-140550000D01*
X147314285Y-140807143D02*
X147614285Y-139907143D01*
X147914285Y-140807143D01*
X148257143Y-140807143D02*
X148428571Y-140807143D01*
X148514286Y-140764286D01*
X148557143Y-140721429D01*
X148642857Y-140592857D01*
X148685714Y-140421429D01*
X148685714Y-140078571D01*
X148642857Y-139992857D01*
X148600000Y-139950000D01*
X148514286Y-139907143D01*
X148342857Y-139907143D01*
X148257143Y-139950000D01*
X148214286Y-139992857D01*
X148171429Y-140078571D01*
X148171429Y-140292857D01*
X148214286Y-140378571D01*
X148257143Y-140421429D01*
X148342857Y-140464286D01*
X148514286Y-140464286D01*
X148600000Y-140421429D01*
X148642857Y-140378571D01*
X148685714Y-140292857D01*
X146414286Y-143407143D02*
X146414286Y-142507143D01*
X146714286Y-143150000D01*
X147014286Y-142507143D01*
X147014286Y-143407143D01*
X147400000Y-143150000D02*
X147828571Y-143150000D01*
X147314285Y-143407143D02*
X147614285Y-142507143D01*
X147914285Y-143407143D01*
X148685714Y-143407143D02*
X148171429Y-143407143D01*
X148428571Y-143407143D02*
X148428571Y-142507143D01*
X148342857Y-142635714D01*
X148257143Y-142721429D01*
X148171429Y-142764286D01*
X149242857Y-142507143D02*
X149328572Y-142507143D01*
X149414286Y-142550000D01*
X149457143Y-142592857D01*
X149500000Y-142678571D01*
X149542857Y-142850000D01*
X149542857Y-143064286D01*
X149500000Y-143235714D01*
X149457143Y-143321429D01*
X149414286Y-143364286D01*
X149328572Y-143407143D01*
X149242857Y-143407143D01*
X149157143Y-143364286D01*
X149114286Y-143321429D01*
X149071429Y-143235714D01*
X149028572Y-143064286D01*
X149028572Y-142850000D01*
X149071429Y-142678571D01*
X149114286Y-142592857D01*
X149157143Y-142550000D01*
X149242857Y-142507143D01*
X146414286Y-145907143D02*
X146414286Y-145007143D01*
X146714286Y-145650000D01*
X147014286Y-145007143D01*
X147014286Y-145907143D01*
X147400000Y-145650000D02*
X147828571Y-145650000D01*
X147314285Y-145907143D02*
X147614285Y-145007143D01*
X147914285Y-145907143D01*
X148685714Y-145907143D02*
X148171429Y-145907143D01*
X148428571Y-145907143D02*
X148428571Y-145007143D01*
X148342857Y-145135714D01*
X148257143Y-145221429D01*
X148171429Y-145264286D01*
X149542857Y-145907143D02*
X149028572Y-145907143D01*
X149285714Y-145907143D02*
X149285714Y-145007143D01*
X149200000Y-145135714D01*
X149114286Y-145221429D01*
X149028572Y-145264286D01*
D12*
X134500000Y-134400000D02*
X127400000Y-134400000D01*
X134500000Y-137700000D02*
X134500000Y-134400000D01*
X127400000Y-137700000D02*
X134500000Y-137700000D01*
X127400000Y-134400000D02*
X127400000Y-137700000D01*
D13*
X138328572Y-146007143D02*
X138328572Y-145107143D01*
X138628572Y-145750000D01*
X138928572Y-145107143D01*
X138928572Y-146007143D01*
X139357143Y-146007143D02*
X139357143Y-145107143D01*
X139571428Y-145107143D01*
X139700000Y-145150000D01*
X139785714Y-145235714D01*
X139828571Y-145321429D01*
X139871428Y-145492857D01*
X139871428Y-145621429D01*
X139828571Y-145792857D01*
X139785714Y-145878571D01*
X139700000Y-145964286D01*
X139571428Y-146007143D01*
X139357143Y-146007143D01*
X140171428Y-145107143D02*
X140771428Y-145107143D01*
X140385714Y-146007143D01*
X138842857Y-147650000D02*
X138757143Y-147607143D01*
X138628572Y-147607143D01*
X138500000Y-147650000D01*
X138414286Y-147735714D01*
X138371429Y-147821429D01*
X138328572Y-147992857D01*
X138328572Y-148121429D01*
X138371429Y-148292857D01*
X138414286Y-148378571D01*
X138500000Y-148464286D01*
X138628572Y-148507143D01*
X138714286Y-148507143D01*
X138842857Y-148464286D01*
X138885714Y-148421429D01*
X138885714Y-148121429D01*
X138714286Y-148121429D01*
X139271429Y-148507143D02*
X139271429Y-147607143D01*
X139785714Y-148507143D01*
X139785714Y-147607143D01*
X140214286Y-148507143D02*
X140214286Y-147607143D01*
X140428571Y-147607143D01*
X140557143Y-147650000D01*
X140642857Y-147735714D01*
X140685714Y-147821429D01*
X140728571Y-147992857D01*
X140728571Y-148121429D01*
X140685714Y-148292857D01*
X140642857Y-148378571D01*
X140557143Y-148464286D01*
X140428571Y-148507143D01*
X140214286Y-148507143D01*
X110800000Y-50864286D02*
X111485714Y-50864286D01*
X111142857Y-51207143D02*
X111142857Y-50521429D01*
X112385714Y-51207143D02*
X111871429Y-51207143D01*
X112128571Y-51207143D02*
X112128571Y-50307143D01*
X112042857Y-50435714D01*
X111957143Y-50521429D01*
X111871429Y-50564286D01*
X112771429Y-51121429D02*
X112814286Y-51164286D01*
X112771429Y-51207143D01*
X112728572Y-51164286D01*
X112771429Y-51121429D01*
X112771429Y-51207143D01*
X113328571Y-50692857D02*
X113242857Y-50650000D01*
X113200000Y-50607143D01*
X113157143Y-50521429D01*
X113157143Y-50478571D01*
X113200000Y-50392857D01*
X113242857Y-50350000D01*
X113328571Y-50307143D01*
X113500000Y-50307143D01*
X113585714Y-50350000D01*
X113628571Y-50392857D01*
X113671428Y-50478571D01*
X113671428Y-50521429D01*
X113628571Y-50607143D01*
X113585714Y-50650000D01*
X113500000Y-50692857D01*
X113328571Y-50692857D01*
X113242857Y-50735714D01*
X113200000Y-50778571D01*
X113157143Y-50864286D01*
X113157143Y-51035714D01*
X113200000Y-51121429D01*
X113242857Y-51164286D01*
X113328571Y-51207143D01*
X113500000Y-51207143D01*
X113585714Y-51164286D01*
X113628571Y-51121429D01*
X113671428Y-51035714D01*
X113671428Y-50864286D01*
X113628571Y-50778571D01*
X113585714Y-50735714D01*
X113500000Y-50692857D01*
X113928571Y-50307143D02*
X114228571Y-51207143D01*
X114528571Y-50307143D01*
D14*
X55038096Y-100700000D02*
X54942858Y-100652381D01*
X54800001Y-100652381D01*
X54657143Y-100700000D01*
X54561905Y-100795238D01*
X54514286Y-100890476D01*
X54466667Y-101080952D01*
X54466667Y-101223810D01*
X54514286Y-101414286D01*
X54561905Y-101509524D01*
X54657143Y-101604762D01*
X54800001Y-101652381D01*
X54895239Y-101652381D01*
X55038096Y-101604762D01*
X55085715Y-101557143D01*
X55085715Y-101223810D01*
X54895239Y-101223810D01*
X55514286Y-101652381D02*
X55514286Y-100652381D01*
X56085715Y-101652381D01*
X56085715Y-100652381D01*
X56561905Y-101652381D02*
X56561905Y-100652381D01*
X56800000Y-100652381D01*
X56942858Y-100700000D01*
X57038096Y-100795238D01*
X57085715Y-100890476D01*
X57133334Y-101080952D01*
X57133334Y-101223810D01*
X57085715Y-101414286D01*
X57038096Y-101509524D01*
X56942858Y-101604762D01*
X56800000Y-101652381D01*
X56561905Y-101652381D01*
D12*
X59800000Y-100300000D02*
X59800000Y-99300000D01*
X51300000Y-100300000D02*
X59800000Y-100300000D01*
X51300000Y-99300000D02*
X51300000Y-100300000D01*
D13*
X74242857Y-94864286D02*
X74928571Y-94864286D01*
X74585714Y-95207143D02*
X74585714Y-94521429D01*
X75785714Y-94307143D02*
X75357143Y-94307143D01*
X75314286Y-94735714D01*
X75357143Y-94692857D01*
X75442857Y-94650000D01*
X75657143Y-94650000D01*
X75742857Y-94692857D01*
X75785714Y-94735714D01*
X75828571Y-94821429D01*
X75828571Y-95035714D01*
X75785714Y-95121429D01*
X75742857Y-95164286D01*
X75657143Y-95207143D01*
X75442857Y-95207143D01*
X75357143Y-95164286D01*
X75314286Y-95121429D01*
X76085714Y-94307143D02*
X76385714Y-95207143D01*
X76685714Y-94307143D01*
X71378572Y-99464286D02*
X71507143Y-99507143D01*
X71721429Y-99507143D01*
X71807143Y-99464286D01*
X71850000Y-99421429D01*
X71892857Y-99335714D01*
X71892857Y-99250000D01*
X71850000Y-99164286D01*
X71807143Y-99121429D01*
X71721429Y-99078571D01*
X71550000Y-99035714D01*
X71464286Y-98992857D01*
X71421429Y-98950000D01*
X71378572Y-98864286D01*
X71378572Y-98778571D01*
X71421429Y-98692857D01*
X71464286Y-98650000D01*
X71550000Y-98607143D01*
X71764286Y-98607143D01*
X71892857Y-98650000D01*
X72792857Y-99421429D02*
X72750000Y-99464286D01*
X72621429Y-99507143D01*
X72535715Y-99507143D01*
X72407143Y-99464286D01*
X72321429Y-99378571D01*
X72278572Y-99292857D01*
X72235715Y-99121429D01*
X72235715Y-98992857D01*
X72278572Y-98821429D01*
X72321429Y-98735714D01*
X72407143Y-98650000D01*
X72535715Y-98607143D01*
X72621429Y-98607143D01*
X72750000Y-98650000D01*
X72792857Y-98692857D01*
X73607143Y-99507143D02*
X73178572Y-99507143D01*
X73178572Y-98607143D01*
X73907143Y-99507143D02*
X73907143Y-98607143D01*
X74421428Y-99507143D02*
X74035714Y-98992857D01*
X74421428Y-98607143D02*
X73907143Y-99121429D01*
X69357144Y-95164286D02*
X69485715Y-95207143D01*
X69700001Y-95207143D01*
X69785715Y-95164286D01*
X69828572Y-95121429D01*
X69871429Y-95035714D01*
X69871429Y-94950000D01*
X69828572Y-94864286D01*
X69785715Y-94821429D01*
X69700001Y-94778571D01*
X69528572Y-94735714D01*
X69442858Y-94692857D01*
X69400001Y-94650000D01*
X69357144Y-94564286D01*
X69357144Y-94478571D01*
X69400001Y-94392857D01*
X69442858Y-94350000D01*
X69528572Y-94307143D01*
X69742858Y-94307143D01*
X69871429Y-94350000D01*
X70257144Y-95207143D02*
X70257144Y-94307143D01*
X70685715Y-95207143D02*
X70685715Y-94307143D01*
X71200000Y-95207143D01*
X71200000Y-94307143D01*
X66157144Y-99564286D02*
X66285715Y-99607143D01*
X66500001Y-99607143D01*
X66585715Y-99564286D01*
X66628572Y-99521429D01*
X66671429Y-99435714D01*
X66671429Y-99350000D01*
X66628572Y-99264286D01*
X66585715Y-99221429D01*
X66500001Y-99178571D01*
X66328572Y-99135714D01*
X66242858Y-99092857D01*
X66200001Y-99050000D01*
X66157144Y-98964286D01*
X66157144Y-98878571D01*
X66200001Y-98792857D01*
X66242858Y-98750000D01*
X66328572Y-98707143D01*
X66542858Y-98707143D01*
X66671429Y-98750000D01*
X67228572Y-98707143D02*
X67400001Y-98707143D01*
X67485715Y-98750000D01*
X67571429Y-98835714D01*
X67614287Y-99007143D01*
X67614287Y-99307143D01*
X67571429Y-99478571D01*
X67485715Y-99564286D01*
X67400001Y-99607143D01*
X67228572Y-99607143D01*
X67142858Y-99564286D01*
X67057144Y-99478571D01*
X67014287Y-99307143D01*
X67014287Y-99007143D01*
X67057144Y-98835714D01*
X67142858Y-98750000D01*
X67228572Y-98707143D01*
X68000001Y-98707143D02*
X68000001Y-99435714D01*
X68042858Y-99521429D01*
X68085715Y-99564286D01*
X68171429Y-99607143D01*
X68342858Y-99607143D01*
X68428572Y-99564286D01*
X68471429Y-99521429D01*
X68514286Y-99435714D01*
X68514286Y-98707143D01*
X68814286Y-98707143D02*
X69328572Y-98707143D01*
X69071429Y-99607143D02*
X69071429Y-98707143D01*
X64514286Y-94450000D02*
X64428572Y-94407143D01*
X64300001Y-94407143D01*
X64171429Y-94450000D01*
X64085715Y-94535714D01*
X64042858Y-94621429D01*
X64000001Y-94792857D01*
X64000001Y-94921429D01*
X64042858Y-95092857D01*
X64085715Y-95178571D01*
X64171429Y-95264286D01*
X64300001Y-95307143D01*
X64385715Y-95307143D01*
X64514286Y-95264286D01*
X64557143Y-95221429D01*
X64557143Y-94921429D01*
X64385715Y-94921429D01*
X64942858Y-95307143D02*
X64942858Y-94407143D01*
X65457143Y-95307143D01*
X65457143Y-94407143D01*
X65885715Y-95307143D02*
X65885715Y-94407143D01*
X66100000Y-94407143D01*
X66228572Y-94450000D01*
X66314286Y-94535714D01*
X66357143Y-94621429D01*
X66400000Y-94792857D01*
X66400000Y-94921429D01*
X66357143Y-95092857D01*
X66314286Y-95178571D01*
X66228572Y-95264286D01*
X66100000Y-95307143D01*
X65885715Y-95307143D01*
X50571428Y-110064286D02*
X51257142Y-110064286D01*
X50914285Y-110407143D02*
X50914285Y-109721429D01*
X52114285Y-109507143D02*
X51685714Y-109507143D01*
X51642857Y-109935714D01*
X51685714Y-109892857D01*
X51771428Y-109850000D01*
X51985714Y-109850000D01*
X52071428Y-109892857D01*
X52114285Y-109935714D01*
X52157142Y-110021429D01*
X52157142Y-110235714D01*
X52114285Y-110321429D01*
X52071428Y-110364286D01*
X51985714Y-110407143D01*
X51771428Y-110407143D01*
X51685714Y-110364286D01*
X51642857Y-110321429D01*
X52414285Y-109507143D02*
X52714285Y-110407143D01*
X53014285Y-109507143D01*
X51042858Y-112807143D02*
X51042858Y-111907143D01*
X51385715Y-111907143D01*
X51471429Y-111950000D01*
X51514286Y-111992857D01*
X51557143Y-112078571D01*
X51557143Y-112207143D01*
X51514286Y-112292857D01*
X51471429Y-112335714D01*
X51385715Y-112378571D01*
X51042858Y-112378571D01*
X51942858Y-112807143D02*
X51942858Y-111907143D01*
X51942858Y-112335714D02*
X52457143Y-112335714D01*
X52457143Y-112807143D02*
X52457143Y-111907143D01*
X52885715Y-112807143D02*
X52885715Y-111907143D01*
X51300000Y-114507143D02*
X51514286Y-115407143D01*
X51685715Y-114764286D01*
X51857143Y-115407143D01*
X52071429Y-114507143D01*
X52928571Y-115407143D02*
X52628571Y-114978571D01*
X52414286Y-115407143D02*
X52414286Y-114507143D01*
X52757143Y-114507143D01*
X52842857Y-114550000D01*
X52885714Y-114592857D01*
X52928571Y-114678571D01*
X52928571Y-114807143D01*
X52885714Y-114892857D01*
X52842857Y-114935714D01*
X52757143Y-114978571D01*
X52414286Y-114978571D01*
X51171429Y-114352000D02*
X53100000Y-114352000D01*
X52028571Y-117907143D02*
X51728571Y-117478571D01*
X51514286Y-117907143D02*
X51514286Y-117007143D01*
X51857143Y-117007143D01*
X51942857Y-117050000D01*
X51985714Y-117092857D01*
X52028571Y-117178571D01*
X52028571Y-117307143D01*
X51985714Y-117392857D01*
X51942857Y-117435714D01*
X51857143Y-117478571D01*
X51514286Y-117478571D01*
X52414286Y-117907143D02*
X52414286Y-117007143D01*
X52628571Y-117007143D01*
X52757143Y-117050000D01*
X52842857Y-117135714D01*
X52885714Y-117221429D01*
X52928571Y-117392857D01*
X52928571Y-117521429D01*
X52885714Y-117692857D01*
X52842857Y-117778571D01*
X52757143Y-117864286D01*
X52628571Y-117907143D01*
X52414286Y-117907143D01*
X51300000Y-116852000D02*
X53100000Y-116852000D01*
X52071428Y-120321429D02*
X52028571Y-120364286D01*
X51900000Y-120407143D01*
X51814286Y-120407143D01*
X51685714Y-120364286D01*
X51600000Y-120278571D01*
X51557143Y-120192857D01*
X51514286Y-120021429D01*
X51514286Y-119892857D01*
X51557143Y-119721429D01*
X51600000Y-119635714D01*
X51685714Y-119550000D01*
X51814286Y-119507143D01*
X51900000Y-119507143D01*
X52028571Y-119550000D01*
X52071428Y-119592857D01*
X52414286Y-120364286D02*
X52542857Y-120407143D01*
X52757143Y-120407143D01*
X52842857Y-120364286D01*
X52885714Y-120321429D01*
X52928571Y-120235714D01*
X52928571Y-120150000D01*
X52885714Y-120064286D01*
X52842857Y-120021429D01*
X52757143Y-119978571D01*
X52585714Y-119935714D01*
X52500000Y-119892857D01*
X52457143Y-119850000D01*
X52414286Y-119764286D01*
X52414286Y-119678571D01*
X52457143Y-119592857D01*
X52500000Y-119550000D01*
X52585714Y-119507143D01*
X52800000Y-119507143D01*
X52928571Y-119550000D01*
X51342857Y-119352000D02*
X53100000Y-119352000D01*
X51557143Y-123007143D02*
X51557143Y-122107143D01*
X51771428Y-122107143D01*
X51900000Y-122150000D01*
X51985714Y-122235714D01*
X52028571Y-122321429D01*
X52071428Y-122492857D01*
X52071428Y-122621429D01*
X52028571Y-122792857D01*
X51985714Y-122878571D01*
X51900000Y-122964286D01*
X51771428Y-123007143D01*
X51557143Y-123007143D01*
X52628571Y-122107143D02*
X52714286Y-122107143D01*
X52800000Y-122150000D01*
X52842857Y-122192857D01*
X52885714Y-122278571D01*
X52928571Y-122450000D01*
X52928571Y-122664286D01*
X52885714Y-122835714D01*
X52842857Y-122921429D01*
X52800000Y-122964286D01*
X52714286Y-123007143D01*
X52628571Y-123007143D01*
X52542857Y-122964286D01*
X52500000Y-122921429D01*
X52457143Y-122835714D01*
X52414286Y-122664286D01*
X52414286Y-122450000D01*
X52457143Y-122278571D01*
X52500000Y-122192857D01*
X52542857Y-122150000D01*
X52628571Y-122107143D01*
X51557143Y-125607143D02*
X51557143Y-124707143D01*
X51771428Y-124707143D01*
X51900000Y-124750000D01*
X51985714Y-124835714D01*
X52028571Y-124921429D01*
X52071428Y-125092857D01*
X52071428Y-125221429D01*
X52028571Y-125392857D01*
X51985714Y-125478571D01*
X51900000Y-125564286D01*
X51771428Y-125607143D01*
X51557143Y-125607143D01*
X52928571Y-125607143D02*
X52414286Y-125607143D01*
X52671428Y-125607143D02*
X52671428Y-124707143D01*
X52585714Y-124835714D01*
X52500000Y-124921429D01*
X52414286Y-124964286D01*
X51557143Y-128107143D02*
X51557143Y-127207143D01*
X51771428Y-127207143D01*
X51900000Y-127250000D01*
X51985714Y-127335714D01*
X52028571Y-127421429D01*
X52071428Y-127592857D01*
X52071428Y-127721429D01*
X52028571Y-127892857D01*
X51985714Y-127978571D01*
X51900000Y-128064286D01*
X51771428Y-128107143D01*
X51557143Y-128107143D01*
X52414286Y-127292857D02*
X52457143Y-127250000D01*
X52542857Y-127207143D01*
X52757143Y-127207143D01*
X52842857Y-127250000D01*
X52885714Y-127292857D01*
X52928571Y-127378571D01*
X52928571Y-127464286D01*
X52885714Y-127592857D01*
X52371428Y-128107143D01*
X52928571Y-128107143D01*
X51557143Y-130607143D02*
X51557143Y-129707143D01*
X51771428Y-129707143D01*
X51900000Y-129750000D01*
X51985714Y-129835714D01*
X52028571Y-129921429D01*
X52071428Y-130092857D01*
X52071428Y-130221429D01*
X52028571Y-130392857D01*
X51985714Y-130478571D01*
X51900000Y-130564286D01*
X51771428Y-130607143D01*
X51557143Y-130607143D01*
X52371428Y-129707143D02*
X52928571Y-129707143D01*
X52628571Y-130050000D01*
X52757143Y-130050000D01*
X52842857Y-130092857D01*
X52885714Y-130135714D01*
X52928571Y-130221429D01*
X52928571Y-130435714D01*
X52885714Y-130521429D01*
X52842857Y-130564286D01*
X52757143Y-130607143D01*
X52500000Y-130607143D01*
X52414286Y-130564286D01*
X52371428Y-130521429D01*
X51557143Y-133107143D02*
X51557143Y-132207143D01*
X51771428Y-132207143D01*
X51900000Y-132250000D01*
X51985714Y-132335714D01*
X52028571Y-132421429D01*
X52071428Y-132592857D01*
X52071428Y-132721429D01*
X52028571Y-132892857D01*
X51985714Y-132978571D01*
X51900000Y-133064286D01*
X51771428Y-133107143D01*
X51557143Y-133107143D01*
X52842857Y-132507143D02*
X52842857Y-133107143D01*
X52628571Y-132164286D02*
X52414286Y-132807143D01*
X52971428Y-132807143D01*
X51557143Y-135707143D02*
X51557143Y-134807143D01*
X51771428Y-134807143D01*
X51900000Y-134850000D01*
X51985714Y-134935714D01*
X52028571Y-135021429D01*
X52071428Y-135192857D01*
X52071428Y-135321429D01*
X52028571Y-135492857D01*
X51985714Y-135578571D01*
X51900000Y-135664286D01*
X51771428Y-135707143D01*
X51557143Y-135707143D01*
X52885714Y-134807143D02*
X52457143Y-134807143D01*
X52414286Y-135235714D01*
X52457143Y-135192857D01*
X52542857Y-135150000D01*
X52757143Y-135150000D01*
X52842857Y-135192857D01*
X52885714Y-135235714D01*
X52928571Y-135321429D01*
X52928571Y-135535714D01*
X52885714Y-135621429D01*
X52842857Y-135664286D01*
X52757143Y-135707143D01*
X52542857Y-135707143D01*
X52457143Y-135664286D01*
X52414286Y-135621429D01*
X51557143Y-138207143D02*
X51557143Y-137307143D01*
X51771428Y-137307143D01*
X51900000Y-137350000D01*
X51985714Y-137435714D01*
X52028571Y-137521429D01*
X52071428Y-137692857D01*
X52071428Y-137821429D01*
X52028571Y-137992857D01*
X51985714Y-138078571D01*
X51900000Y-138164286D01*
X51771428Y-138207143D01*
X51557143Y-138207143D01*
X52842857Y-137307143D02*
X52671428Y-137307143D01*
X52585714Y-137350000D01*
X52542857Y-137392857D01*
X52457143Y-137521429D01*
X52414286Y-137692857D01*
X52414286Y-138035714D01*
X52457143Y-138121429D01*
X52500000Y-138164286D01*
X52585714Y-138207143D01*
X52757143Y-138207143D01*
X52842857Y-138164286D01*
X52885714Y-138121429D01*
X52928571Y-138035714D01*
X52928571Y-137821429D01*
X52885714Y-137735714D01*
X52842857Y-137692857D01*
X52757143Y-137650000D01*
X52585714Y-137650000D01*
X52500000Y-137692857D01*
X52457143Y-137735714D01*
X52414286Y-137821429D01*
X51557143Y-140807143D02*
X51557143Y-139907143D01*
X51771428Y-139907143D01*
X51900000Y-139950000D01*
X51985714Y-140035714D01*
X52028571Y-140121429D01*
X52071428Y-140292857D01*
X52071428Y-140421429D01*
X52028571Y-140592857D01*
X51985714Y-140678571D01*
X51900000Y-140764286D01*
X51771428Y-140807143D01*
X51557143Y-140807143D01*
X52371428Y-139907143D02*
X52971428Y-139907143D01*
X52585714Y-140807143D01*
X51257142Y-143407143D02*
X50957142Y-142978571D01*
X50742857Y-143407143D02*
X50742857Y-142507143D01*
X51085714Y-142507143D01*
X51171428Y-142550000D01*
X51214285Y-142592857D01*
X51257142Y-142678571D01*
X51257142Y-142807143D01*
X51214285Y-142892857D01*
X51171428Y-142935714D01*
X51085714Y-142978571D01*
X50742857Y-142978571D01*
X51642857Y-142935714D02*
X51942857Y-142935714D01*
X52071428Y-143407143D02*
X51642857Y-143407143D01*
X51642857Y-142507143D01*
X52071428Y-142507143D01*
X52414286Y-143364286D02*
X52542857Y-143407143D01*
X52757143Y-143407143D01*
X52842857Y-143364286D01*
X52885714Y-143321429D01*
X52928571Y-143235714D01*
X52928571Y-143150000D01*
X52885714Y-143064286D01*
X52842857Y-143021429D01*
X52757143Y-142978571D01*
X52585714Y-142935714D01*
X52500000Y-142892857D01*
X52457143Y-142850000D01*
X52414286Y-142764286D01*
X52414286Y-142678571D01*
X52457143Y-142592857D01*
X52500000Y-142550000D01*
X52585714Y-142507143D01*
X52800000Y-142507143D01*
X52928571Y-142550000D01*
X50528571Y-142352000D02*
X53100000Y-142352000D01*
X51042857Y-144907143D02*
X51342857Y-145807143D01*
X51642857Y-144907143D01*
X51942858Y-145807143D02*
X51942858Y-144907143D01*
X52371429Y-145807143D02*
X52371429Y-144907143D01*
X52885714Y-145807143D01*
X52885714Y-144907143D01*
D12*
X68900000Y-144000000D02*
X67200000Y-144000000D01*
X68900000Y-135100000D02*
X68900000Y-144000000D01*
X74600000Y-132300000D02*
X66300000Y-132300000D01*
X74600000Y-135100000D02*
X74600000Y-132300000D01*
X66300000Y-135100000D02*
X74600000Y-135100000D01*
X66300000Y-132300000D02*
X66300000Y-135100000D01*
D13*
X66421429Y-143050000D02*
X66464286Y-143092857D01*
X66507143Y-143221428D01*
X66507143Y-143307142D01*
X66464286Y-143435714D01*
X66378571Y-143521428D01*
X66292857Y-143564285D01*
X66121429Y-143607142D01*
X65992857Y-143607142D01*
X65821429Y-143564285D01*
X65735714Y-143521428D01*
X65650000Y-143435714D01*
X65607143Y-143307142D01*
X65607143Y-143221428D01*
X65650000Y-143092857D01*
X65692857Y-143050000D01*
X66464286Y-142707142D02*
X66507143Y-142578571D01*
X66507143Y-142364285D01*
X66464286Y-142278571D01*
X66421429Y-142235714D01*
X66335714Y-142192857D01*
X66250000Y-142192857D01*
X66164286Y-142235714D01*
X66121429Y-142278571D01*
X66078571Y-142364285D01*
X66035714Y-142535714D01*
X65992857Y-142621428D01*
X65950000Y-142664285D01*
X65864286Y-142707142D01*
X65778571Y-142707142D01*
X65692857Y-142664285D01*
X65650000Y-142621428D01*
X65607143Y-142535714D01*
X65607143Y-142321428D01*
X65650000Y-142192857D01*
X64907143Y-143071429D02*
X64478571Y-143371429D01*
X64907143Y-143585714D02*
X64007143Y-143585714D01*
X64007143Y-143242857D01*
X64050000Y-143157143D01*
X64092857Y-143114286D01*
X64178571Y-143071429D01*
X64307143Y-143071429D01*
X64392857Y-143114286D01*
X64435714Y-143157143D01*
X64478571Y-143242857D01*
X64478571Y-143585714D01*
X64907143Y-142685714D02*
X64007143Y-142685714D01*
X64007143Y-142471429D01*
X64050000Y-142342857D01*
X64135714Y-142257143D01*
X64221429Y-142214286D01*
X64392857Y-142171429D01*
X64521429Y-142171429D01*
X64692857Y-142214286D01*
X64778571Y-142257143D01*
X64864286Y-142342857D01*
X64907143Y-142471429D01*
X64907143Y-142685714D01*
X62507143Y-143635714D02*
X63407143Y-143421428D01*
X62764286Y-143249999D01*
X63407143Y-143078571D01*
X62507143Y-142864285D01*
X63407143Y-142007143D02*
X62978571Y-142307143D01*
X63407143Y-142521428D02*
X62507143Y-142521428D01*
X62507143Y-142178571D01*
X62550000Y-142092857D01*
X62592857Y-142050000D01*
X62678571Y-142007143D01*
X62807143Y-142007143D01*
X62892857Y-142050000D01*
X62935714Y-142092857D01*
X62978571Y-142178571D01*
X62978571Y-142521428D01*
X59171429Y-137950000D02*
X59600000Y-137950000D01*
X59085714Y-138207143D02*
X59385714Y-137307143D01*
X59685714Y-138207143D01*
X60457143Y-138207143D02*
X59942858Y-138207143D01*
X60200000Y-138207143D02*
X60200000Y-137307143D01*
X60114286Y-137435714D01*
X60028572Y-137521429D01*
X59942858Y-137564286D01*
X61314286Y-138207143D02*
X60800001Y-138207143D01*
X61057143Y-138207143D02*
X61057143Y-137307143D01*
X60971429Y-137435714D01*
X60885715Y-137521429D01*
X60800001Y-137564286D01*
X59171429Y-140550000D02*
X59600000Y-140550000D01*
X59085714Y-140807143D02*
X59385714Y-139907143D01*
X59685714Y-140807143D01*
X60457143Y-140807143D02*
X59942858Y-140807143D01*
X60200000Y-140807143D02*
X60200000Y-139907143D01*
X60114286Y-140035714D01*
X60028572Y-140121429D01*
X59942858Y-140164286D01*
X60800001Y-139992857D02*
X60842858Y-139950000D01*
X60928572Y-139907143D01*
X61142858Y-139907143D01*
X61228572Y-139950000D01*
X61271429Y-139992857D01*
X61314286Y-140078571D01*
X61314286Y-140164286D01*
X61271429Y-140292857D01*
X60757143Y-140807143D01*
X61314286Y-140807143D01*
X59171429Y-143050000D02*
X59600000Y-143050000D01*
X59085714Y-143307143D02*
X59385714Y-142407143D01*
X59685714Y-143307143D01*
X60457143Y-143307143D02*
X59942858Y-143307143D01*
X60200000Y-143307143D02*
X60200000Y-142407143D01*
X60114286Y-142535714D01*
X60028572Y-142621429D01*
X59942858Y-142664286D01*
X60757143Y-142407143D02*
X61314286Y-142407143D01*
X61014286Y-142750000D01*
X61142858Y-142750000D01*
X61228572Y-142792857D01*
X61271429Y-142835714D01*
X61314286Y-142921429D01*
X61314286Y-143135714D01*
X61271429Y-143221429D01*
X61228572Y-143264286D01*
X61142858Y-143307143D01*
X60885715Y-143307143D01*
X60800001Y-143264286D01*
X60757143Y-143221429D01*
X59171429Y-145650000D02*
X59600000Y-145650000D01*
X59085714Y-145907143D02*
X59385714Y-145007143D01*
X59685714Y-145907143D01*
X60457143Y-145907143D02*
X59942858Y-145907143D01*
X60200000Y-145907143D02*
X60200000Y-145007143D01*
X60114286Y-145135714D01*
X60028572Y-145221429D01*
X59942858Y-145264286D01*
X61228572Y-145307143D02*
X61228572Y-145907143D01*
X61014286Y-144964286D02*
X60800001Y-145607143D01*
X61357143Y-145607143D01*
X59171429Y-135450000D02*
X59600000Y-135450000D01*
X59085714Y-135707143D02*
X59385714Y-134807143D01*
X59685714Y-135707143D01*
X60457143Y-135707143D02*
X59942858Y-135707143D01*
X60200000Y-135707143D02*
X60200000Y-134807143D01*
X60114286Y-134935714D01*
X60028572Y-135021429D01*
X59942858Y-135064286D01*
X61014286Y-134807143D02*
X61100001Y-134807143D01*
X61185715Y-134850000D01*
X61228572Y-134892857D01*
X61271429Y-134978571D01*
X61314286Y-135150000D01*
X61314286Y-135364286D01*
X61271429Y-135535714D01*
X61228572Y-135621429D01*
X61185715Y-135664286D01*
X61100001Y-135707143D01*
X61014286Y-135707143D01*
X60928572Y-135664286D01*
X60885715Y-135621429D01*
X60842858Y-135535714D01*
X60800001Y-135364286D01*
X60800001Y-135150000D01*
X60842858Y-134978571D01*
X60885715Y-134892857D01*
X60928572Y-134850000D01*
X61014286Y-134807143D01*
X59171429Y-132850000D02*
X59600000Y-132850000D01*
X59085714Y-133107143D02*
X59385714Y-132207143D01*
X59685714Y-133107143D01*
X60028572Y-133107143D02*
X60200000Y-133107143D01*
X60285715Y-133064286D01*
X60328572Y-133021429D01*
X60414286Y-132892857D01*
X60457143Y-132721429D01*
X60457143Y-132378571D01*
X60414286Y-132292857D01*
X60371429Y-132250000D01*
X60285715Y-132207143D01*
X60114286Y-132207143D01*
X60028572Y-132250000D01*
X59985715Y-132292857D01*
X59942858Y-132378571D01*
X59942858Y-132592857D01*
X59985715Y-132678571D01*
X60028572Y-132721429D01*
X60114286Y-132764286D01*
X60285715Y-132764286D01*
X60371429Y-132721429D01*
X60414286Y-132678571D01*
X60457143Y-132592857D01*
X59171429Y-130350000D02*
X59600000Y-130350000D01*
X59085714Y-130607143D02*
X59385714Y-129707143D01*
X59685714Y-130607143D01*
X60114286Y-130092857D02*
X60028572Y-130050000D01*
X59985715Y-130007143D01*
X59942858Y-129921429D01*
X59942858Y-129878571D01*
X59985715Y-129792857D01*
X60028572Y-129750000D01*
X60114286Y-129707143D01*
X60285715Y-129707143D01*
X60371429Y-129750000D01*
X60414286Y-129792857D01*
X60457143Y-129878571D01*
X60457143Y-129921429D01*
X60414286Y-130007143D01*
X60371429Y-130050000D01*
X60285715Y-130092857D01*
X60114286Y-130092857D01*
X60028572Y-130135714D01*
X59985715Y-130178571D01*
X59942858Y-130264286D01*
X59942858Y-130435714D01*
X59985715Y-130521429D01*
X60028572Y-130564286D01*
X60114286Y-130607143D01*
X60285715Y-130607143D01*
X60371429Y-130564286D01*
X60414286Y-130521429D01*
X60457143Y-130435714D01*
X60457143Y-130264286D01*
X60414286Y-130178571D01*
X60371429Y-130135714D01*
X60285715Y-130092857D01*
X59171429Y-127850000D02*
X59600000Y-127850000D01*
X59085714Y-128107143D02*
X59385714Y-127207143D01*
X59685714Y-128107143D01*
X59900000Y-127207143D02*
X60500000Y-127207143D01*
X60114286Y-128107143D01*
X59171429Y-125250000D02*
X59600000Y-125250000D01*
X59085714Y-125507143D02*
X59385714Y-124607143D01*
X59685714Y-125507143D01*
X60371429Y-124607143D02*
X60200000Y-124607143D01*
X60114286Y-124650000D01*
X60071429Y-124692857D01*
X59985715Y-124821429D01*
X59942858Y-124992857D01*
X59942858Y-125335714D01*
X59985715Y-125421429D01*
X60028572Y-125464286D01*
X60114286Y-125507143D01*
X60285715Y-125507143D01*
X60371429Y-125464286D01*
X60414286Y-125421429D01*
X60457143Y-125335714D01*
X60457143Y-125121429D01*
X60414286Y-125035714D01*
X60371429Y-124992857D01*
X60285715Y-124950000D01*
X60114286Y-124950000D01*
X60028572Y-124992857D01*
X59985715Y-125035714D01*
X59942858Y-125121429D01*
X59171429Y-122750000D02*
X59600000Y-122750000D01*
X59085714Y-123007143D02*
X59385714Y-122107143D01*
X59685714Y-123007143D01*
X60414286Y-122107143D02*
X59985715Y-122107143D01*
X59942858Y-122535714D01*
X59985715Y-122492857D01*
X60071429Y-122450000D01*
X60285715Y-122450000D01*
X60371429Y-122492857D01*
X60414286Y-122535714D01*
X60457143Y-122621429D01*
X60457143Y-122835714D01*
X60414286Y-122921429D01*
X60371429Y-122964286D01*
X60285715Y-123007143D01*
X60071429Y-123007143D01*
X59985715Y-122964286D01*
X59942858Y-122921429D01*
X59171429Y-120150000D02*
X59600000Y-120150000D01*
X59085714Y-120407143D02*
X59385714Y-119507143D01*
X59685714Y-120407143D01*
X60371429Y-119807143D02*
X60371429Y-120407143D01*
X60157143Y-119464286D02*
X59942858Y-120107143D01*
X60500000Y-120107143D01*
X59171429Y-117650000D02*
X59600000Y-117650000D01*
X59085714Y-117907143D02*
X59385714Y-117007143D01*
X59685714Y-117907143D01*
X59900000Y-117007143D02*
X60457143Y-117007143D01*
X60157143Y-117350000D01*
X60285715Y-117350000D01*
X60371429Y-117392857D01*
X60414286Y-117435714D01*
X60457143Y-117521429D01*
X60457143Y-117735714D01*
X60414286Y-117821429D01*
X60371429Y-117864286D01*
X60285715Y-117907143D01*
X60028572Y-117907143D01*
X59942858Y-117864286D01*
X59900000Y-117821429D01*
X59171429Y-115150000D02*
X59600000Y-115150000D01*
X59085714Y-115407143D02*
X59385714Y-114507143D01*
X59685714Y-115407143D01*
X59942858Y-114592857D02*
X59985715Y-114550000D01*
X60071429Y-114507143D01*
X60285715Y-114507143D01*
X60371429Y-114550000D01*
X60414286Y-114592857D01*
X60457143Y-114678571D01*
X60457143Y-114764286D01*
X60414286Y-114892857D01*
X59900000Y-115407143D01*
X60457143Y-115407143D01*
X59171429Y-112550000D02*
X59600000Y-112550000D01*
X59085714Y-112807143D02*
X59385714Y-111907143D01*
X59685714Y-112807143D01*
X60457143Y-112807143D02*
X59942858Y-112807143D01*
X60200000Y-112807143D02*
X60200000Y-111907143D01*
X60114286Y-112035714D01*
X60028572Y-112121429D01*
X59942858Y-112164286D01*
X59171429Y-110150000D02*
X59600000Y-110150000D01*
X59085714Y-110407143D02*
X59385714Y-109507143D01*
X59685714Y-110407143D01*
X60157143Y-109507143D02*
X60242858Y-109507143D01*
X60328572Y-109550000D01*
X60371429Y-109592857D01*
X60414286Y-109678571D01*
X60457143Y-109850000D01*
X60457143Y-110064286D01*
X60414286Y-110235714D01*
X60371429Y-110321429D01*
X60328572Y-110364286D01*
X60242858Y-110407143D01*
X60157143Y-110407143D01*
X60071429Y-110364286D01*
X60028572Y-110321429D01*
X59985715Y-110235714D01*
X59942858Y-110064286D01*
X59942858Y-109850000D01*
X59985715Y-109678571D01*
X60028572Y-109592857D01*
X60071429Y-109550000D01*
X60157143Y-109507143D01*
X59171429Y-148150000D02*
X59600000Y-148150000D01*
X59085714Y-148407143D02*
X59385714Y-147507143D01*
X59685714Y-148407143D01*
X60457143Y-148407143D02*
X59942858Y-148407143D01*
X60200000Y-148407143D02*
X60200000Y-147507143D01*
X60114286Y-147635714D01*
X60028572Y-147721429D01*
X59942858Y-147764286D01*
X61271429Y-147507143D02*
X60842858Y-147507143D01*
X60800001Y-147935714D01*
X60842858Y-147892857D01*
X60928572Y-147850000D01*
X61142858Y-147850000D01*
X61228572Y-147892857D01*
X61271429Y-147935714D01*
X61314286Y-148021429D01*
X61314286Y-148235714D01*
X61271429Y-148321429D01*
X61228572Y-148364286D01*
X61142858Y-148407143D01*
X60928572Y-148407143D01*
X60842858Y-148364286D01*
X60800001Y-148321429D01*
D12*
X100800000Y-63800000D02*
X100800000Y-57900000D01*
X107900000Y-63800000D02*
X100800000Y-63800000D01*
X107900000Y-57900000D02*
X107900000Y-63800000D01*
X100800000Y-57900000D02*
X107900000Y-57900000D01*
X130100000Y-83500000D02*
X126700000Y-83500000D01*
X130100000Y-88400000D02*
X130100000Y-83500000D01*
X126700000Y-88400000D02*
X130100000Y-88400000D01*
X126700000Y-83500000D02*
X126700000Y-88400000D01*
D13*
X119278572Y-56807143D02*
X119792858Y-56807143D01*
X119535715Y-57707143D02*
X119535715Y-56807143D01*
X120092858Y-57707143D02*
X120092858Y-56807143D01*
X120307143Y-56807143D01*
X120435715Y-56850000D01*
X120521429Y-56935714D01*
X120564286Y-57021429D01*
X120607143Y-57192857D01*
X120607143Y-57321429D01*
X120564286Y-57492857D01*
X120521429Y-57578571D01*
X120435715Y-57664286D01*
X120307143Y-57707143D01*
X120092858Y-57707143D01*
X120992858Y-57707143D02*
X120992858Y-56807143D01*
X114000000Y-56807143D02*
X114514286Y-56807143D01*
X114257143Y-57707143D02*
X114257143Y-56807143D01*
X114814286Y-57707143D02*
X114814286Y-56807143D01*
X115114286Y-57450000D01*
X115414286Y-56807143D01*
X115414286Y-57707143D01*
X115800000Y-57664286D02*
X115928571Y-57707143D01*
X116142857Y-57707143D01*
X116228571Y-57664286D01*
X116271428Y-57621429D01*
X116314285Y-57535714D01*
X116314285Y-57450000D01*
X116271428Y-57364286D01*
X116228571Y-57321429D01*
X116142857Y-57278571D01*
X115971428Y-57235714D01*
X115885714Y-57192857D01*
X115842857Y-57150000D01*
X115800000Y-57064286D01*
X115800000Y-56978571D01*
X115842857Y-56892857D01*
X115885714Y-56850000D01*
X115971428Y-56807143D01*
X116185714Y-56807143D01*
X116314285Y-56850000D01*
X111421429Y-56807143D02*
X111935715Y-56807143D01*
X111678572Y-57707143D02*
X111678572Y-56807143D01*
X112235715Y-57707143D02*
X112235715Y-56807143D01*
X112450000Y-56807143D01*
X112578572Y-56850000D01*
X112664286Y-56935714D01*
X112707143Y-57021429D01*
X112750000Y-57192857D01*
X112750000Y-57321429D01*
X112707143Y-57492857D01*
X112664286Y-57578571D01*
X112578572Y-57664286D01*
X112450000Y-57707143D01*
X112235715Y-57707143D01*
X113307143Y-56807143D02*
X113478572Y-56807143D01*
X113564286Y-56850000D01*
X113650000Y-56935714D01*
X113692858Y-57107143D01*
X113692858Y-57407143D01*
X113650000Y-57578571D01*
X113564286Y-57664286D01*
X113478572Y-57707143D01*
X113307143Y-57707143D01*
X113221429Y-57664286D01*
X113135715Y-57578571D01*
X113092858Y-57407143D01*
X113092858Y-57107143D01*
X113135715Y-56935714D01*
X113221429Y-56850000D01*
X113307143Y-56807143D01*
X108942857Y-56807143D02*
X109457143Y-56807143D01*
X109200000Y-57707143D02*
X109200000Y-56807143D01*
X110271428Y-57621429D02*
X110228571Y-57664286D01*
X110100000Y-57707143D01*
X110014286Y-57707143D01*
X109885714Y-57664286D01*
X109800000Y-57578571D01*
X109757143Y-57492857D01*
X109714286Y-57321429D01*
X109714286Y-57192857D01*
X109757143Y-57021429D01*
X109800000Y-56935714D01*
X109885714Y-56850000D01*
X110014286Y-56807143D01*
X110100000Y-56807143D01*
X110228571Y-56850000D01*
X110271428Y-56892857D01*
X110657143Y-57707143D02*
X110657143Y-56807143D01*
X111171428Y-57707143D02*
X110785714Y-57192857D01*
X111171428Y-56807143D02*
X110657143Y-57321429D01*
X119714286Y-50350000D02*
X119628572Y-50307143D01*
X119500001Y-50307143D01*
X119371429Y-50350000D01*
X119285715Y-50435714D01*
X119242858Y-50521429D01*
X119200001Y-50692857D01*
X119200001Y-50821429D01*
X119242858Y-50992857D01*
X119285715Y-51078571D01*
X119371429Y-51164286D01*
X119500001Y-51207143D01*
X119585715Y-51207143D01*
X119714286Y-51164286D01*
X119757143Y-51121429D01*
X119757143Y-50821429D01*
X119585715Y-50821429D01*
X120142858Y-51207143D02*
X120142858Y-50307143D01*
X120657143Y-51207143D01*
X120657143Y-50307143D01*
X121085715Y-51207143D02*
X121085715Y-50307143D01*
X121300000Y-50307143D01*
X121428572Y-50350000D01*
X121514286Y-50435714D01*
X121557143Y-50521429D01*
X121600000Y-50692857D01*
X121600000Y-50821429D01*
X121557143Y-50992857D01*
X121514286Y-51078571D01*
X121428572Y-51164286D01*
X121300000Y-51207143D01*
X121085715Y-51207143D01*
X108614286Y-50350000D02*
X108528572Y-50307143D01*
X108400001Y-50307143D01*
X108271429Y-50350000D01*
X108185715Y-50435714D01*
X108142858Y-50521429D01*
X108100001Y-50692857D01*
X108100001Y-50821429D01*
X108142858Y-50992857D01*
X108185715Y-51078571D01*
X108271429Y-51164286D01*
X108400001Y-51207143D01*
X108485715Y-51207143D01*
X108614286Y-51164286D01*
X108657143Y-51121429D01*
X108657143Y-50821429D01*
X108485715Y-50821429D01*
X109042858Y-51207143D02*
X109042858Y-50307143D01*
X109557143Y-51207143D01*
X109557143Y-50307143D01*
X109985715Y-51207143D02*
X109985715Y-50307143D01*
X110200000Y-50307143D01*
X110328572Y-50350000D01*
X110414286Y-50435714D01*
X110457143Y-50521429D01*
X110500000Y-50692857D01*
X110500000Y-50821429D01*
X110457143Y-50992857D01*
X110414286Y-51078571D01*
X110328572Y-51164286D01*
X110200000Y-51207143D01*
X109985715Y-51207143D01*
X51042857Y-147550000D02*
X50957143Y-147507143D01*
X50828572Y-147507143D01*
X50700000Y-147550000D01*
X50614286Y-147635714D01*
X50571429Y-147721429D01*
X50528572Y-147892857D01*
X50528572Y-148021429D01*
X50571429Y-148192857D01*
X50614286Y-148278571D01*
X50700000Y-148364286D01*
X50828572Y-148407143D01*
X50914286Y-148407143D01*
X51042857Y-148364286D01*
X51085714Y-148321429D01*
X51085714Y-148021429D01*
X50914286Y-148021429D01*
X51471429Y-148407143D02*
X51471429Y-147507143D01*
X51985714Y-148407143D01*
X51985714Y-147507143D01*
X52414286Y-148407143D02*
X52414286Y-147507143D01*
X52628571Y-147507143D01*
X52757143Y-147550000D01*
X52842857Y-147635714D01*
X52885714Y-147721429D01*
X52928571Y-147892857D01*
X52928571Y-148021429D01*
X52885714Y-148192857D01*
X52842857Y-148278571D01*
X52757143Y-148364286D01*
X52628571Y-148407143D01*
X52414286Y-148407143D01*
X146414286Y-148407143D02*
X146414286Y-147507143D01*
X146714286Y-148150000D01*
X147014286Y-147507143D01*
X147014286Y-148407143D01*
X147400000Y-148150000D02*
X147828571Y-148150000D01*
X147314285Y-148407143D02*
X147614285Y-147507143D01*
X147914285Y-148407143D01*
X148685714Y-148407143D02*
X148171429Y-148407143D01*
X148428571Y-148407143D02*
X148428571Y-147507143D01*
X148342857Y-147635714D01*
X148257143Y-147721429D01*
X148171429Y-147764286D01*
X149028572Y-147592857D02*
X149071429Y-147550000D01*
X149157143Y-147507143D01*
X149371429Y-147507143D01*
X149457143Y-147550000D01*
X149500000Y-147592857D01*
X149542857Y-147678571D01*
X149542857Y-147764286D01*
X149500000Y-147892857D01*
X148985714Y-148407143D01*
X149542857Y-148407143D01*
D14*
X77000000Y-139000000D02*
X77000000Y-150000000D01*
X123000000Y-139000000D02*
X77000000Y-139000000D01*
X123000000Y-150000000D02*
X123000000Y-139000000D01*
X123000000Y-150000000D02*
X150000000Y-150000000D01*
X50000000Y-150000000D02*
X77000000Y-150000000D01*
X150000000Y-50000000D02*
X150000000Y-150000000D01*
X50000000Y-50000000D02*
X50000000Y-150000000D01*
X50000000Y-50000000D02*
X150000000Y-50000000D01*
X131000000Y-111300000D02*
G75*
G03X131000000Y-111300000I-500000J0D01*
G01*
X149200000Y-110500000D02*
X148700000Y-110500000D01*
X149200000Y-101500000D02*
X149200000Y-110500000D01*
X148700000Y-101500000D02*
X149200000Y-101500000D01*
X130800000Y-110500000D02*
X131300000Y-110500000D01*
X130800000Y-101500000D02*
X130800000Y-110500000D01*
X131300000Y-101500000D02*
X130800000Y-101500000D01*
X54660000Y-97700000D02*
X56460000Y-97700000D01*
X54660000Y-96700000D02*
X56460000Y-96700000D01*
X65400000Y-103515000D02*
G75*
G03X65400000Y-103515000I-500000J0D01*
G01*
X65700000Y-122215000D02*
X65700000Y-121715000D01*
X74700000Y-122215000D02*
X65700000Y-122215000D01*
X74700000Y-121715000D02*
X74700000Y-122215000D01*
X65700000Y-103815000D02*
X65700000Y-104315000D01*
X74700000Y-103815000D02*
X65700000Y-103815000D01*
X74700000Y-104315000D02*
X74700000Y-103815000D01*
X94516228Y-101100000D02*
G75*
G03X94516228Y-101100000I-316228J0D01*
G01*
X109600000Y-120500000D02*
X109600000Y-121400000D01*
X109600000Y-121400000D02*
X108700000Y-121400000D01*
X95200000Y-120500000D02*
X95200000Y-121400000D01*
X95200000Y-121400000D02*
X96100000Y-121400000D01*
X108700000Y-101000000D02*
X109600000Y-101000000D01*
X109600000Y-101000000D02*
X109600000Y-101900000D01*
X96100000Y-101000000D02*
X95200000Y-101000000D01*
X95200000Y-101000000D02*
X95200000Y-101900000D01*
D13*
X102703219Y-94200000D02*
G75*
G03X102703219Y-94200000I-803219J0D01*
G01*
X53503219Y-92200000D02*
G75*
G03X53503219Y-92200000I-803219J0D01*
G01*
X139030000Y-50770000D02*
X139030000Y-79210000D01*
X139030000Y-79210000D02*
X129430000Y-79210000D01*
X129430000Y-79210000D02*
X129430000Y-50770000D01*
X129430000Y-50770000D02*
X139030000Y-50770000D01*
X89700000Y-90480000D02*
X87700000Y-90480000D01*
X87700000Y-92520000D02*
X89700000Y-92520000D01*
X78200000Y-82350000D02*
X78200000Y-83050000D01*
X77000000Y-83050000D02*
X77000000Y-82350000D01*
X88350000Y-88100000D02*
X89050000Y-88100000D01*
X89050000Y-89300000D02*
X88350000Y-89300000D01*
X97800000Y-81250000D02*
X97800000Y-81950000D01*
X96600000Y-81950000D02*
X96600000Y-81250000D01*
X79200000Y-67320000D02*
X81200000Y-67320000D01*
X81200000Y-65280000D02*
X79200000Y-65280000D01*
X80550000Y-69700000D02*
X79850000Y-69700000D01*
X79850000Y-68500000D02*
X80550000Y-68500000D01*
X77000000Y-79750000D02*
X77000000Y-79050000D01*
X78200000Y-79050000D02*
X78200000Y-79750000D01*
X94050000Y-88100000D02*
X94750000Y-88100000D01*
X94750000Y-89300000D02*
X94050000Y-89300000D01*
X97800000Y-77800000D02*
X97800000Y-78500000D01*
X96600000Y-78500000D02*
X96600000Y-77800000D01*
X68100000Y-73680000D02*
X66100000Y-73680000D01*
X66100000Y-75720000D02*
X68100000Y-75720000D01*
X68100000Y-81680000D02*
X66100000Y-81680000D01*
X66100000Y-83720000D02*
X68100000Y-83720000D01*
X68100000Y-89680000D02*
X66100000Y-89680000D01*
X66100000Y-91720000D02*
X68100000Y-91720000D01*
X88450000Y-68500000D02*
X89150000Y-68500000D01*
X89150000Y-69700000D02*
X88450000Y-69700000D01*
X77000000Y-76550000D02*
X77000000Y-75850000D01*
X78200000Y-75850000D02*
X78200000Y-76550000D01*
X56580000Y-73700000D02*
X56580000Y-75700000D01*
X58620000Y-75700000D02*
X58620000Y-73700000D01*
X56580000Y-81700000D02*
X56580000Y-83700000D01*
X58620000Y-83700000D02*
X58620000Y-81700000D01*
X56580000Y-89700000D02*
X56580000Y-91700000D01*
X58620000Y-91700000D02*
X58620000Y-89700000D01*
X96600000Y-75450000D02*
X96600000Y-74750000D01*
X97800000Y-74750000D02*
X97800000Y-75450000D01*
X114050000Y-89300000D02*
X113350000Y-89300000D01*
X113350000Y-88100000D02*
X114050000Y-88100000D01*
X125600000Y-81250000D02*
X125600000Y-81950000D01*
X124400000Y-81950000D02*
X124400000Y-81250000D01*
X106000000Y-82350000D02*
X106000000Y-83050000D01*
X104800000Y-83050000D02*
X104800000Y-82350000D01*
X122050000Y-87900000D02*
X122750000Y-87900000D01*
X122750000Y-89100000D02*
X122050000Y-89100000D01*
X125600000Y-78050000D02*
X125600000Y-78750000D01*
X124400000Y-78750000D02*
X124400000Y-78050000D01*
X108350000Y-69700000D02*
X107650000Y-69700000D01*
X107650000Y-68500000D02*
X108350000Y-68500000D01*
X104800000Y-80050000D02*
X104800000Y-79350000D01*
X106000000Y-79350000D02*
X106000000Y-80050000D01*
X106900000Y-67320000D02*
X108900000Y-67320000D01*
X108900000Y-65280000D02*
X106900000Y-65280000D01*
X124400000Y-75450000D02*
X124400000Y-74750000D01*
X125600000Y-74750000D02*
X125600000Y-75450000D01*
X116350000Y-68500000D02*
X117050000Y-68500000D01*
X117050000Y-69700000D02*
X116350000Y-69700000D01*
X104800000Y-76450000D02*
X104800000Y-75750000D01*
X106000000Y-75750000D02*
X106000000Y-76450000D01*
X117700000Y-65280000D02*
X115700000Y-65280000D01*
X115700000Y-67320000D02*
X117700000Y-67320000D01*
X101850000Y-74200000D02*
X101150000Y-74200000D01*
X101150000Y-73000000D02*
X101850000Y-73000000D01*
X131350000Y-98800000D02*
X130650000Y-98800000D01*
X130650000Y-97600000D02*
X131350000Y-97600000D01*
X131350000Y-97200000D02*
X130650000Y-97200000D01*
X130650000Y-96000000D02*
X131350000Y-96000000D01*
X75350000Y-101900000D02*
X74650000Y-101900000D01*
X74650000Y-100700000D02*
X75350000Y-100700000D01*
X114100000Y-107250000D02*
X114100000Y-107950000D01*
X112900000Y-107950000D02*
X112900000Y-107250000D01*
X75350000Y-103400000D02*
X74650000Y-103400000D01*
X74650000Y-102200000D02*
X75350000Y-102200000D01*
X116500000Y-107250000D02*
X116500000Y-107950000D01*
X115300000Y-107950000D02*
X115300000Y-107250000D01*
X119450000Y-108100000D02*
X119450000Y-107100000D01*
X117750000Y-107100000D02*
X117750000Y-108100000D01*
X53678608Y-70702335D02*
G75*
G03X53835516Y-67470000I-1078608J1672335D01*
G01*
X51521392Y-70702335D02*
G75*
G02X51364484Y-67470000I1078608J1672335D01*
G01*
X53679837Y-70071130D02*
G75*
G03X53680000Y-67989039I-1079837J1041130D01*
G01*
X51520163Y-70071130D02*
G75*
G02X51520000Y-67989039I1079837J1041130D01*
G01*
X53836000Y-67470000D02*
X53680000Y-67470000D01*
X51520000Y-67470000D02*
X51364000Y-67470000D01*
X136000000Y-144000000D02*
X135000000Y-144000000D01*
X135000000Y-144000000D02*
X135000000Y-146100000D01*
X136000000Y-144000000D02*
X136000000Y-146100000D01*
X137600000Y-144000000D02*
X136600000Y-144000000D01*
X136600000Y-144000000D02*
X136600000Y-146100000D01*
X137600000Y-144000000D02*
X137600000Y-146100000D01*
X134400000Y-144000000D02*
X133400000Y-144000000D01*
X133400000Y-144000000D02*
X133400000Y-146100000D01*
X134400000Y-144000000D02*
X134400000Y-146100000D01*
X65000000Y-144000000D02*
X64000000Y-144000000D01*
X64000000Y-144000000D02*
X64000000Y-146100000D01*
X65000000Y-144000000D02*
X65000000Y-146100000D01*
X66600000Y-144000000D02*
X65600000Y-144000000D01*
X65600000Y-144000000D02*
X65600000Y-146100000D01*
X66600000Y-144000000D02*
X66600000Y-146100000D01*
X63400000Y-144000000D02*
X62400000Y-144000000D01*
X62400000Y-144000000D02*
X62400000Y-146100000D01*
X63400000Y-144000000D02*
X63400000Y-146100000D01*
X64200000Y-65730000D02*
X66200000Y-65730000D01*
X66200000Y-67870000D02*
X64200000Y-67870000D01*
D14*
X59400000Y-65300000D02*
X61600000Y-65300000D01*
X61600000Y-65300000D02*
X61600000Y-50700000D01*
X61600000Y-50700000D02*
X52400000Y-50700000D01*
X52400000Y-50700000D02*
X52400000Y-59300000D01*
X52400000Y-63700000D02*
X52400000Y-65300000D01*
X52400000Y-65300000D02*
X54600000Y-65300000D01*
D13*
X149230000Y-50770000D02*
X149230000Y-79210000D01*
X149230000Y-79210000D02*
X139630000Y-79210000D01*
X139630000Y-79210000D02*
X139630000Y-50770000D01*
X139630000Y-50770000D02*
X149230000Y-50770000D01*
X140970000Y-149310000D02*
X146170000Y-149310000D01*
X140970000Y-118770000D02*
X140970000Y-149310000D01*
X146170000Y-116170000D02*
X146170000Y-149310000D01*
X140970000Y-118770000D02*
X143570000Y-118770000D01*
X143570000Y-118770000D02*
X143570000Y-116170000D01*
X143570000Y-116170000D02*
X146170000Y-116170000D01*
X140970000Y-117500000D02*
X140970000Y-116170000D01*
X140970000Y-116170000D02*
X142300000Y-116170000D01*
X127130000Y-93950000D02*
X124470000Y-93950000D01*
X127130000Y-111790000D02*
X127130000Y-93950000D01*
X124470000Y-111790000D02*
X124470000Y-93950000D01*
X127130000Y-111790000D02*
X124470000Y-111790000D01*
X127130000Y-113060000D02*
X127130000Y-114390000D01*
X127130000Y-114390000D02*
X125800000Y-114390000D01*
X149210000Y-84230000D02*
X149210000Y-81570000D01*
X136450000Y-84230000D02*
X149210000Y-84230000D01*
X136450000Y-81570000D02*
X149210000Y-81570000D01*
X136450000Y-84230000D02*
X136450000Y-81570000D01*
X135180000Y-84230000D02*
X133850000Y-84230000D01*
X133850000Y-84230000D02*
X133850000Y-82900000D01*
X53270000Y-149310000D02*
X58470000Y-149310000D01*
X53270000Y-111150000D02*
X53270000Y-149310000D01*
X58470000Y-108550000D02*
X58470000Y-149310000D01*
X53270000Y-111150000D02*
X55870000Y-111150000D01*
X55870000Y-111150000D02*
X55870000Y-108550000D01*
X55870000Y-108550000D02*
X58470000Y-108550000D01*
X53270000Y-109880000D02*
X53270000Y-108550000D01*
X53270000Y-108550000D02*
X54600000Y-108550000D01*
X120570000Y-109310000D02*
X123230000Y-109310000D01*
X120570000Y-96550000D02*
X120570000Y-109310000D01*
X123230000Y-96550000D02*
X123230000Y-109310000D01*
X120570000Y-96550000D02*
X123230000Y-96550000D01*
X120570000Y-95280000D02*
X120570000Y-93950000D01*
X120570000Y-93950000D02*
X121900000Y-93950000D01*
D14*
X125800000Y-136050000D02*
X125800000Y-137950000D01*
X123900000Y-136050000D02*
X125800000Y-136050000D01*
X76100000Y-136050000D02*
X74200000Y-136050000D01*
X74200000Y-136050000D02*
X74200000Y-137950000D01*
D13*
X63890000Y-95570000D02*
X63890000Y-98230000D01*
X74110000Y-95570000D02*
X63890000Y-95570000D01*
X74110000Y-98230000D02*
X63890000Y-98230000D01*
X74110000Y-95570000D02*
X74110000Y-98230000D01*
X75380000Y-95570000D02*
X76710000Y-95570000D01*
X76710000Y-95570000D02*
X76710000Y-96900000D01*
X65830000Y-55130000D02*
X63170000Y-55130000D01*
X65830000Y-57730000D02*
X65830000Y-55130000D01*
X63170000Y-57730000D02*
X63170000Y-55130000D01*
X65830000Y-57730000D02*
X63170000Y-57730000D01*
X65830000Y-59000000D02*
X65830000Y-60330000D01*
X65830000Y-60330000D02*
X64500000Y-60330000D01*
X106100000Y-94580000D02*
X105100000Y-94580000D01*
X105100000Y-93220000D02*
X106100000Y-93220000D01*
X56600000Y-69320000D02*
X56600000Y-68990000D01*
X56600000Y-68990000D02*
X63020000Y-68990000D01*
X63020000Y-68990000D02*
X63020000Y-69320000D01*
X56600000Y-71280000D02*
X56600000Y-71610000D01*
X56600000Y-71610000D02*
X63020000Y-71610000D01*
X63020000Y-71610000D02*
X63020000Y-71280000D01*
X128280000Y-53800000D02*
X128280000Y-54800000D01*
X126920000Y-54800000D02*
X126920000Y-53800000D01*
X103020000Y-54050000D02*
X103020000Y-53050000D01*
X104380000Y-53050000D02*
X104380000Y-54050000D01*
X106620000Y-54950000D02*
X106620000Y-53950000D01*
X107980000Y-53950000D02*
X107980000Y-54950000D01*
X104820000Y-54050000D02*
X104820000Y-53050000D01*
X106180000Y-53050000D02*
X106180000Y-54050000D01*
X134820000Y-148600000D02*
X134820000Y-147600000D01*
X136180000Y-147600000D02*
X136180000Y-148600000D01*
X136420000Y-148600000D02*
X136420000Y-147600000D01*
X137780000Y-147600000D02*
X137780000Y-148600000D01*
X133220000Y-148600000D02*
X133220000Y-147600000D01*
X134580000Y-147600000D02*
X134580000Y-148600000D01*
X65180000Y-147600000D02*
X65180000Y-148600000D01*
X63820000Y-148600000D02*
X63820000Y-147600000D01*
X66780000Y-147600000D02*
X66780000Y-148600000D01*
X65420000Y-148600000D02*
X65420000Y-147600000D01*
X63580000Y-147600000D02*
X63580000Y-148600000D01*
X62220000Y-148600000D02*
X62220000Y-147600000D01*
X65303219Y-52600000D02*
G75*
G03X65303219Y-52600000I-803219J0D01*
G01*
X53503219Y-76200000D02*
G75*
G03X53503219Y-76200000I-803219J0D01*
G01*
X53503219Y-84200000D02*
G75*
G03X53503219Y-84200000I-803219J0D01*
G01*
X104703219Y-92000000D02*
G75*
G03X104703219Y-92000000I-803219J0D01*
G01*
X100903219Y-92000000D02*
G75*
G03X100903219Y-92000000I-803219J0D01*
G01*
X99103219Y-94200000D02*
G75*
G03X99103219Y-94200000I-803219J0D01*
G01*
D14*
X94575000Y-71725000D02*
X93850000Y-71725000D01*
X94575000Y-86075000D02*
X93775000Y-86075000D01*
X80225000Y-86075000D02*
X81025000Y-86075000D01*
X80225000Y-71725000D02*
X81025000Y-71725000D01*
X94575000Y-71725000D02*
X94575000Y-72525000D01*
X80225000Y-71725000D02*
X80225000Y-72525000D01*
X80225000Y-86075000D02*
X80225000Y-85275000D01*
X94575000Y-86075000D02*
X94575000Y-85275000D01*
X93850000Y-71725000D02*
X93850000Y-70450000D01*
D13*
X63180000Y-75900000D02*
X63180000Y-77100000D01*
X63180000Y-77100000D02*
X60480000Y-77100000D01*
X59180000Y-72300000D02*
X63180000Y-72300000D01*
X63180000Y-72300000D02*
X63180000Y-73500000D01*
X63180000Y-83900000D02*
X63180000Y-85100000D01*
X63180000Y-85100000D02*
X60480000Y-85100000D01*
X59180000Y-80300000D02*
X63180000Y-80300000D01*
X63180000Y-80300000D02*
X63180000Y-81500000D01*
X63180000Y-91900000D02*
X63180000Y-93100000D01*
X63180000Y-93100000D02*
X60480000Y-93100000D01*
X59180000Y-88300000D02*
X63180000Y-88300000D01*
X63180000Y-88300000D02*
X63180000Y-89500000D01*
D14*
X108025000Y-86075000D02*
X108750000Y-86075000D01*
X108025000Y-71725000D02*
X108825000Y-71725000D01*
X122375000Y-71725000D02*
X121575000Y-71725000D01*
X122375000Y-86075000D02*
X121575000Y-86075000D01*
X108025000Y-86075000D02*
X108025000Y-85275000D01*
X122375000Y-86075000D02*
X122375000Y-85275000D01*
X122375000Y-71725000D02*
X122375000Y-72525000D01*
X108025000Y-71725000D02*
X108025000Y-72525000D01*
X108750000Y-86075000D02*
X108750000Y-87350000D01*
D13*
X102303219Y-83200000D02*
G75*
G03X102303219Y-83200000I-803219J0D01*
G01*
X121570000Y-56530000D02*
X121570000Y-51330000D01*
X111350000Y-56530000D02*
X121570000Y-56530000D01*
X108750000Y-51330000D02*
X121570000Y-51330000D01*
X111350000Y-56530000D02*
X111350000Y-53930000D01*
X111350000Y-53930000D02*
X108750000Y-53930000D01*
X108750000Y-53930000D02*
X108750000Y-51330000D01*
X110080000Y-56530000D02*
X108750000Y-56530000D01*
X108750000Y-56530000D02*
X108750000Y-55200000D01*
X73100000Y-73300000D02*
X73100000Y-72300000D01*
X73100000Y-72300000D02*
X71000000Y-72300000D01*
X73100000Y-73300000D02*
X71000000Y-73300000D01*
X74300000Y-72300000D02*
X74300000Y-73300000D01*
X74300000Y-73300000D02*
X76400000Y-73300000D01*
X74300000Y-72300000D02*
X76400000Y-72300000D01*
X101300000Y-68900000D02*
X101300000Y-67900000D01*
X101300000Y-67900000D02*
X99200000Y-67900000D01*
X101300000Y-68900000D02*
X99200000Y-68900000D01*
X102200000Y-67900000D02*
X102200000Y-68900000D01*
X102200000Y-68900000D02*
X104300000Y-68900000D01*
X102200000Y-67900000D02*
X104300000Y-67900000D01*
X71300000Y-70620000D02*
X72300000Y-70620000D01*
X72300000Y-71980000D02*
X71300000Y-71980000D01*
X76000000Y-71980000D02*
X75000000Y-71980000D01*
X75000000Y-70620000D02*
X76000000Y-70620000D01*
X99450000Y-66220000D02*
X100450000Y-66220000D01*
X100450000Y-67580000D02*
X99450000Y-67580000D01*
X104000000Y-67580000D02*
X103000000Y-67580000D01*
X103000000Y-66220000D02*
X104000000Y-66220000D01*
D14*
X67700000Y-50900000D02*
X67700000Y-63300000D01*
X87100000Y-50900000D02*
X67700000Y-50900000D01*
X87100000Y-63300000D02*
X87100000Y-50900000D01*
X67700000Y-63300000D02*
X87100000Y-63300000D01*
X128938095Y-104052381D02*
X128938095Y-104861905D01*
X128985714Y-104957143D01*
X129033333Y-105004762D01*
X129128571Y-105052381D01*
X129319048Y-105052381D01*
X129414286Y-105004762D01*
X129461905Y-104957143D01*
X129509524Y-104861905D01*
X129509524Y-104052381D01*
X130414286Y-104052381D02*
X130223809Y-104052381D01*
X130128571Y-104100000D01*
X130080952Y-104147619D01*
X129985714Y-104290476D01*
X129938095Y-104480952D01*
X129938095Y-104861905D01*
X129985714Y-104957143D01*
X130033333Y-105004762D01*
X130128571Y-105052381D01*
X130319048Y-105052381D01*
X130414286Y-105004762D01*
X130461905Y-104957143D01*
X130509524Y-104861905D01*
X130509524Y-104623810D01*
X130461905Y-104528571D01*
X130414286Y-104480952D01*
X130319048Y-104433333D01*
X130128571Y-104433333D01*
X130033333Y-104480952D01*
X129985714Y-104528571D01*
X129938095Y-104623810D01*
X61066667Y-96752381D02*
X61066667Y-97466667D01*
X61019047Y-97609524D01*
X60923809Y-97704762D01*
X60780952Y-97752381D01*
X60685714Y-97752381D01*
X61495238Y-96847619D02*
X61542857Y-96800000D01*
X61638095Y-96752381D01*
X61876191Y-96752381D01*
X61971429Y-96800000D01*
X62019048Y-96847619D01*
X62066667Y-96942857D01*
X62066667Y-97038095D01*
X62019048Y-97180952D01*
X61447619Y-97752381D01*
X62066667Y-97752381D01*
X69238095Y-122652381D02*
X69238095Y-123461905D01*
X69285714Y-123557143D01*
X69333333Y-123604762D01*
X69428571Y-123652381D01*
X69619048Y-123652381D01*
X69714286Y-123604762D01*
X69761905Y-123557143D01*
X69809524Y-123461905D01*
X69809524Y-122652381D01*
X70190476Y-122652381D02*
X70857143Y-122652381D01*
X70428571Y-123652381D01*
X109538095Y-99652381D02*
X109538095Y-100461905D01*
X109585714Y-100557143D01*
X109633333Y-100604762D01*
X109728571Y-100652381D01*
X109919048Y-100652381D01*
X110014286Y-100604762D01*
X110061905Y-100557143D01*
X110109524Y-100461905D01*
X110109524Y-99652381D01*
X110728571Y-100080952D02*
X110633333Y-100033333D01*
X110585714Y-99985714D01*
X110538095Y-99890476D01*
X110538095Y-99842857D01*
X110585714Y-99747619D01*
X110633333Y-99700000D01*
X110728571Y-99652381D01*
X110919048Y-99652381D01*
X111014286Y-99700000D01*
X111061905Y-99747619D01*
X111109524Y-99842857D01*
X111109524Y-99890476D01*
X111061905Y-99985714D01*
X111014286Y-100033333D01*
X110919048Y-100080952D01*
X110728571Y-100080952D01*
X110633333Y-100128571D01*
X110585714Y-100176190D01*
X110538095Y-100271429D01*
X110538095Y-100461905D01*
X110585714Y-100557143D01*
X110633333Y-100604762D01*
X110728571Y-100652381D01*
X110919048Y-100652381D01*
X111014286Y-100604762D01*
X111061905Y-100557143D01*
X111109524Y-100461905D01*
X111109524Y-100271429D01*
X111061905Y-100176190D01*
X111014286Y-100128571D01*
X110919048Y-100080952D01*
D13*
X100764286Y-95507143D02*
X101278572Y-95507143D01*
X101021429Y-96407143D02*
X101021429Y-95507143D01*
X101578572Y-96407143D02*
X101578572Y-95507143D01*
X101921429Y-95507143D01*
X102007143Y-95550000D01*
X102050000Y-95592857D01*
X102092857Y-95678571D01*
X102092857Y-95807143D01*
X102050000Y-95892857D01*
X102007143Y-95935714D01*
X101921429Y-95978571D01*
X101578572Y-95978571D01*
X102607143Y-95892857D02*
X102521429Y-95850000D01*
X102478572Y-95807143D01*
X102435715Y-95721429D01*
X102435715Y-95678571D01*
X102478572Y-95592857D01*
X102521429Y-95550000D01*
X102607143Y-95507143D01*
X102778572Y-95507143D01*
X102864286Y-95550000D01*
X102907143Y-95592857D01*
X102950000Y-95678571D01*
X102950000Y-95721429D01*
X102907143Y-95807143D01*
X102864286Y-95850000D01*
X102778572Y-95892857D01*
X102607143Y-95892857D01*
X102521429Y-95935714D01*
X102478572Y-95978571D01*
X102435715Y-96064286D01*
X102435715Y-96235714D01*
X102478572Y-96321429D01*
X102521429Y-96364286D01*
X102607143Y-96407143D01*
X102778572Y-96407143D01*
X102864286Y-96364286D01*
X102907143Y-96321429D01*
X102950000Y-96235714D01*
X102950000Y-96064286D01*
X102907143Y-95978571D01*
X102864286Y-95935714D01*
X102778572Y-95892857D01*
X101364286Y-97421429D02*
X101321429Y-97464286D01*
X101192858Y-97507143D01*
X101107144Y-97507143D01*
X100978572Y-97464286D01*
X100892858Y-97378571D01*
X100850001Y-97292857D01*
X100807144Y-97121429D01*
X100807144Y-96992857D01*
X100850001Y-96821429D01*
X100892858Y-96735714D01*
X100978572Y-96650000D01*
X101107144Y-96607143D01*
X101192858Y-96607143D01*
X101321429Y-96650000D01*
X101364286Y-96692857D01*
X102178572Y-97507143D02*
X101750001Y-97507143D01*
X101750001Y-96607143D01*
X102478572Y-97507143D02*
X102478572Y-96607143D01*
X102992857Y-97507143D02*
X102607143Y-96992857D01*
X102992857Y-96607143D02*
X102478572Y-97121429D01*
D14*
X51438095Y-89652381D02*
X52009524Y-89652381D01*
X51723809Y-90652381D02*
X51723809Y-89652381D01*
X52342857Y-90652381D02*
X52342857Y-89652381D01*
X52723810Y-89652381D01*
X52819048Y-89700000D01*
X52866667Y-89747619D01*
X52914286Y-89842857D01*
X52914286Y-89985714D01*
X52866667Y-90080952D01*
X52819048Y-90128571D01*
X52723810Y-90176190D01*
X52342857Y-90176190D01*
X53771429Y-89985714D02*
X53771429Y-90652381D01*
X53533333Y-89604762D02*
X53295238Y-90319048D01*
X53914286Y-90319048D01*
X51795239Y-93652381D02*
X51319048Y-93652381D01*
X51271429Y-94128571D01*
X51319048Y-94080952D01*
X51414286Y-94033333D01*
X51652382Y-94033333D01*
X51747620Y-94080952D01*
X51795239Y-94128571D01*
X51842858Y-94223810D01*
X51842858Y-94461905D01*
X51795239Y-94557143D01*
X51747620Y-94604762D01*
X51652382Y-94652381D01*
X51414286Y-94652381D01*
X51319048Y-94604762D01*
X51271429Y-94557143D01*
X52271429Y-94557143D02*
X52319048Y-94604762D01*
X52271429Y-94652381D01*
X52223810Y-94604762D01*
X52271429Y-94557143D01*
X52271429Y-94652381D01*
X52938095Y-93652381D02*
X53033334Y-93652381D01*
X53128572Y-93700000D01*
X53176191Y-93747619D01*
X53223810Y-93842857D01*
X53271429Y-94033333D01*
X53271429Y-94271429D01*
X53223810Y-94461905D01*
X53176191Y-94557143D01*
X53128572Y-94604762D01*
X53033334Y-94652381D01*
X52938095Y-94652381D01*
X52842857Y-94604762D01*
X52795238Y-94557143D01*
X52747619Y-94461905D01*
X52700000Y-94271429D01*
X52700000Y-94033333D01*
X52747619Y-93842857D01*
X52795238Y-93747619D01*
X52842857Y-93700000D01*
X52938095Y-93652381D01*
X53557143Y-93652381D02*
X53890476Y-94652381D01*
X54223810Y-93652381D01*
X136366667Y-79752381D02*
X136366667Y-80466667D01*
X136319047Y-80609524D01*
X136223809Y-80704762D01*
X136080952Y-80752381D01*
X135985714Y-80752381D01*
X136747619Y-79752381D02*
X137366667Y-79752381D01*
X137033333Y-80133333D01*
X137176191Y-80133333D01*
X137271429Y-80180952D01*
X137319048Y-80228571D01*
X137366667Y-80323810D01*
X137366667Y-80561905D01*
X137319048Y-80657143D01*
X137271429Y-80704762D01*
X137176191Y-80752381D01*
X136890476Y-80752381D01*
X136795238Y-80704762D01*
X136747619Y-80657143D01*
D13*
X131692381Y-55834285D02*
X131692381Y-56405714D01*
X131692381Y-56120000D02*
X130692381Y-56120000D01*
X130835238Y-56215238D01*
X130930476Y-56310476D01*
X130978095Y-56405714D01*
D14*
X85333334Y-91957143D02*
X85285715Y-92004762D01*
X85142858Y-92052381D01*
X85047620Y-92052381D01*
X84904762Y-92004762D01*
X84809524Y-91909524D01*
X84761905Y-91814286D01*
X84714286Y-91623810D01*
X84714286Y-91480952D01*
X84761905Y-91290476D01*
X84809524Y-91195238D01*
X84904762Y-91100000D01*
X85047620Y-91052381D01*
X85142858Y-91052381D01*
X85285715Y-91100000D01*
X85333334Y-91147619D01*
X86285715Y-92052381D02*
X85714286Y-92052381D01*
X86000000Y-92052381D02*
X86000000Y-91052381D01*
X85904762Y-91195238D01*
X85809524Y-91290476D01*
X85714286Y-91338095D01*
X74433334Y-83057143D02*
X74385715Y-83104762D01*
X74242858Y-83152381D01*
X74147620Y-83152381D01*
X74004762Y-83104762D01*
X73909524Y-83009524D01*
X73861905Y-82914286D01*
X73814286Y-82723810D01*
X73814286Y-82580952D01*
X73861905Y-82390476D01*
X73909524Y-82295238D01*
X74004762Y-82200000D01*
X74147620Y-82152381D01*
X74242858Y-82152381D01*
X74385715Y-82200000D01*
X74433334Y-82247619D01*
X74814286Y-82247619D02*
X74861905Y-82200000D01*
X74957143Y-82152381D01*
X75195239Y-82152381D01*
X75290477Y-82200000D01*
X75338096Y-82247619D01*
X75385715Y-82342857D01*
X75385715Y-82438095D01*
X75338096Y-82580952D01*
X74766667Y-83152381D01*
X75385715Y-83152381D01*
X85333334Y-89157143D02*
X85285715Y-89204762D01*
X85142858Y-89252381D01*
X85047620Y-89252381D01*
X84904762Y-89204762D01*
X84809524Y-89109524D01*
X84761905Y-89014286D01*
X84714286Y-88823810D01*
X84714286Y-88680952D01*
X84761905Y-88490476D01*
X84809524Y-88395238D01*
X84904762Y-88300000D01*
X85047620Y-88252381D01*
X85142858Y-88252381D01*
X85285715Y-88300000D01*
X85333334Y-88347619D01*
X85666667Y-88252381D02*
X86285715Y-88252381D01*
X85952381Y-88633333D01*
X86095239Y-88633333D01*
X86190477Y-88680952D01*
X86238096Y-88728571D01*
X86285715Y-88823810D01*
X86285715Y-89061905D01*
X86238096Y-89157143D01*
X86190477Y-89204762D01*
X86095239Y-89252381D01*
X85809524Y-89252381D01*
X85714286Y-89204762D01*
X85666667Y-89157143D01*
X101833334Y-63257143D02*
X101785715Y-63304762D01*
X101642858Y-63352381D01*
X101547620Y-63352381D01*
X101404762Y-63304762D01*
X101309524Y-63209524D01*
X101261905Y-63114286D01*
X101214286Y-62923810D01*
X101214286Y-62780952D01*
X101261905Y-62590476D01*
X101309524Y-62495238D01*
X101404762Y-62400000D01*
X101547620Y-62352381D01*
X101642858Y-62352381D01*
X101785715Y-62400000D01*
X101833334Y-62447619D01*
X102690477Y-62685714D02*
X102690477Y-63352381D01*
X102452381Y-62304762D02*
X102214286Y-63019048D01*
X102833334Y-63019048D01*
X83333334Y-66657143D02*
X83285715Y-66704762D01*
X83142858Y-66752381D01*
X83047620Y-66752381D01*
X82904762Y-66704762D01*
X82809524Y-66609524D01*
X82761905Y-66514286D01*
X82714286Y-66323810D01*
X82714286Y-66180952D01*
X82761905Y-65990476D01*
X82809524Y-65895238D01*
X82904762Y-65800000D01*
X83047620Y-65752381D01*
X83142858Y-65752381D01*
X83285715Y-65800000D01*
X83333334Y-65847619D01*
X84238096Y-65752381D02*
X83761905Y-65752381D01*
X83714286Y-66228571D01*
X83761905Y-66180952D01*
X83857143Y-66133333D01*
X84095239Y-66133333D01*
X84190477Y-66180952D01*
X84238096Y-66228571D01*
X84285715Y-66323810D01*
X84285715Y-66561905D01*
X84238096Y-66657143D01*
X84190477Y-66704762D01*
X84095239Y-66752381D01*
X83857143Y-66752381D01*
X83761905Y-66704762D01*
X83714286Y-66657143D01*
X82633334Y-69457143D02*
X82585715Y-69504762D01*
X82442858Y-69552381D01*
X82347620Y-69552381D01*
X82204762Y-69504762D01*
X82109524Y-69409524D01*
X82061905Y-69314286D01*
X82014286Y-69123810D01*
X82014286Y-68980952D01*
X82061905Y-68790476D01*
X82109524Y-68695238D01*
X82204762Y-68600000D01*
X82347620Y-68552381D01*
X82442858Y-68552381D01*
X82585715Y-68600000D01*
X82633334Y-68647619D01*
X83490477Y-68552381D02*
X83300000Y-68552381D01*
X83204762Y-68600000D01*
X83157143Y-68647619D01*
X83061905Y-68790476D01*
X83014286Y-68980952D01*
X83014286Y-69361905D01*
X83061905Y-69457143D01*
X83109524Y-69504762D01*
X83204762Y-69552381D01*
X83395239Y-69552381D01*
X83490477Y-69504762D01*
X83538096Y-69457143D01*
X83585715Y-69361905D01*
X83585715Y-69123810D01*
X83538096Y-69028571D01*
X83490477Y-68980952D01*
X83395239Y-68933333D01*
X83204762Y-68933333D01*
X83109524Y-68980952D01*
X83061905Y-69028571D01*
X83014286Y-69123810D01*
X74433334Y-79857143D02*
X74385715Y-79904762D01*
X74242858Y-79952381D01*
X74147620Y-79952381D01*
X74004762Y-79904762D01*
X73909524Y-79809524D01*
X73861905Y-79714286D01*
X73814286Y-79523810D01*
X73814286Y-79380952D01*
X73861905Y-79190476D01*
X73909524Y-79095238D01*
X74004762Y-79000000D01*
X74147620Y-78952381D01*
X74242858Y-78952381D01*
X74385715Y-79000000D01*
X74433334Y-79047619D01*
X74766667Y-78952381D02*
X75433334Y-78952381D01*
X75004762Y-79952381D01*
X95133334Y-87557143D02*
X95085715Y-87604762D01*
X94942858Y-87652381D01*
X94847620Y-87652381D01*
X94704762Y-87604762D01*
X94609524Y-87509524D01*
X94561905Y-87414286D01*
X94514286Y-87223810D01*
X94514286Y-87080952D01*
X94561905Y-86890476D01*
X94609524Y-86795238D01*
X94704762Y-86700000D01*
X94847620Y-86652381D01*
X94942858Y-86652381D01*
X95085715Y-86700000D01*
X95133334Y-86747619D01*
X95704762Y-87080952D02*
X95609524Y-87033333D01*
X95561905Y-86985714D01*
X95514286Y-86890476D01*
X95514286Y-86842857D01*
X95561905Y-86747619D01*
X95609524Y-86700000D01*
X95704762Y-86652381D01*
X95895239Y-86652381D01*
X95990477Y-86700000D01*
X96038096Y-86747619D01*
X96085715Y-86842857D01*
X96085715Y-86890476D01*
X96038096Y-86985714D01*
X95990477Y-87033333D01*
X95895239Y-87080952D01*
X95704762Y-87080952D01*
X95609524Y-87128571D01*
X95561905Y-87176190D01*
X95514286Y-87271429D01*
X95514286Y-87461905D01*
X95561905Y-87557143D01*
X95609524Y-87604762D01*
X95704762Y-87652381D01*
X95895239Y-87652381D01*
X95990477Y-87604762D01*
X96038096Y-87557143D01*
X96085715Y-87461905D01*
X96085715Y-87271429D01*
X96038096Y-87176190D01*
X95990477Y-87128571D01*
X95895239Y-87080952D01*
X101833334Y-61857143D02*
X101785715Y-61904762D01*
X101642858Y-61952381D01*
X101547620Y-61952381D01*
X101404762Y-61904762D01*
X101309524Y-61809524D01*
X101261905Y-61714286D01*
X101214286Y-61523810D01*
X101214286Y-61380952D01*
X101261905Y-61190476D01*
X101309524Y-61095238D01*
X101404762Y-61000000D01*
X101547620Y-60952381D01*
X101642858Y-60952381D01*
X101785715Y-61000000D01*
X101833334Y-61047619D01*
X102309524Y-61952381D02*
X102500000Y-61952381D01*
X102595239Y-61904762D01*
X102642858Y-61857143D01*
X102738096Y-61714286D01*
X102785715Y-61523810D01*
X102785715Y-61142857D01*
X102738096Y-61047619D01*
X102690477Y-61000000D01*
X102595239Y-60952381D01*
X102404762Y-60952381D01*
X102309524Y-61000000D01*
X102261905Y-61047619D01*
X102214286Y-61142857D01*
X102214286Y-61380952D01*
X102261905Y-61476190D01*
X102309524Y-61523810D01*
X102404762Y-61571429D01*
X102595239Y-61571429D01*
X102690477Y-61523810D01*
X102738096Y-61476190D01*
X102785715Y-61380952D01*
X66457143Y-73307143D02*
X66409524Y-73354762D01*
X66266667Y-73402381D01*
X66171429Y-73402381D01*
X66028571Y-73354762D01*
X65933333Y-73259524D01*
X65885714Y-73164286D01*
X65838095Y-72973810D01*
X65838095Y-72830952D01*
X65885714Y-72640476D01*
X65933333Y-72545238D01*
X66028571Y-72450000D01*
X66171429Y-72402381D01*
X66266667Y-72402381D01*
X66409524Y-72450000D01*
X66457143Y-72497619D01*
X67409524Y-73402381D02*
X66838095Y-73402381D01*
X67123809Y-73402381D02*
X67123809Y-72402381D01*
X67028571Y-72545238D01*
X66933333Y-72640476D01*
X66838095Y-72688095D01*
X68028571Y-72402381D02*
X68123810Y-72402381D01*
X68219048Y-72450000D01*
X68266667Y-72497619D01*
X68314286Y-72592857D01*
X68361905Y-72783333D01*
X68361905Y-73021429D01*
X68314286Y-73211905D01*
X68266667Y-73307143D01*
X68219048Y-73354762D01*
X68123810Y-73402381D01*
X68028571Y-73402381D01*
X67933333Y-73354762D01*
X67885714Y-73307143D01*
X67838095Y-73211905D01*
X67790476Y-73021429D01*
X67790476Y-72783333D01*
X67838095Y-72592857D01*
X67885714Y-72497619D01*
X67933333Y-72450000D01*
X68028571Y-72402381D01*
X66457143Y-81307143D02*
X66409524Y-81354762D01*
X66266667Y-81402381D01*
X66171429Y-81402381D01*
X66028571Y-81354762D01*
X65933333Y-81259524D01*
X65885714Y-81164286D01*
X65838095Y-80973810D01*
X65838095Y-80830952D01*
X65885714Y-80640476D01*
X65933333Y-80545238D01*
X66028571Y-80450000D01*
X66171429Y-80402381D01*
X66266667Y-80402381D01*
X66409524Y-80450000D01*
X66457143Y-80497619D01*
X67409524Y-81402381D02*
X66838095Y-81402381D01*
X67123809Y-81402381D02*
X67123809Y-80402381D01*
X67028571Y-80545238D01*
X66933333Y-80640476D01*
X66838095Y-80688095D01*
X68361905Y-81402381D02*
X67790476Y-81402381D01*
X68076190Y-81402381D02*
X68076190Y-80402381D01*
X67980952Y-80545238D01*
X67885714Y-80640476D01*
X67790476Y-80688095D01*
X66457143Y-89307143D02*
X66409524Y-89354762D01*
X66266667Y-89402381D01*
X66171429Y-89402381D01*
X66028571Y-89354762D01*
X65933333Y-89259524D01*
X65885714Y-89164286D01*
X65838095Y-88973810D01*
X65838095Y-88830952D01*
X65885714Y-88640476D01*
X65933333Y-88545238D01*
X66028571Y-88450000D01*
X66171429Y-88402381D01*
X66266667Y-88402381D01*
X66409524Y-88450000D01*
X66457143Y-88497619D01*
X67409524Y-89402381D02*
X66838095Y-89402381D01*
X67123809Y-89402381D02*
X67123809Y-88402381D01*
X67028571Y-88545238D01*
X66933333Y-88640476D01*
X66838095Y-88688095D01*
X67790476Y-88497619D02*
X67838095Y-88450000D01*
X67933333Y-88402381D01*
X68171429Y-88402381D01*
X68266667Y-88450000D01*
X68314286Y-88497619D01*
X68361905Y-88592857D01*
X68361905Y-88688095D01*
X68314286Y-88830952D01*
X67742857Y-89402381D01*
X68361905Y-89402381D01*
X91057143Y-69457143D02*
X91009524Y-69504762D01*
X90866667Y-69552381D01*
X90771429Y-69552381D01*
X90628571Y-69504762D01*
X90533333Y-69409524D01*
X90485714Y-69314286D01*
X90438095Y-69123810D01*
X90438095Y-68980952D01*
X90485714Y-68790476D01*
X90533333Y-68695238D01*
X90628571Y-68600000D01*
X90771429Y-68552381D01*
X90866667Y-68552381D01*
X91009524Y-68600000D01*
X91057143Y-68647619D01*
X92009524Y-69552381D02*
X91438095Y-69552381D01*
X91723809Y-69552381D02*
X91723809Y-68552381D01*
X91628571Y-68695238D01*
X91533333Y-68790476D01*
X91438095Y-68838095D01*
X92342857Y-68552381D02*
X92961905Y-68552381D01*
X92628571Y-68933333D01*
X92771429Y-68933333D01*
X92866667Y-68980952D01*
X92914286Y-69028571D01*
X92961905Y-69123810D01*
X92961905Y-69361905D01*
X92914286Y-69457143D01*
X92866667Y-69504762D01*
X92771429Y-69552381D01*
X92485714Y-69552381D01*
X92390476Y-69504762D01*
X92342857Y-69457143D01*
X73757143Y-76657143D02*
X73709524Y-76704762D01*
X73566667Y-76752381D01*
X73471429Y-76752381D01*
X73328571Y-76704762D01*
X73233333Y-76609524D01*
X73185714Y-76514286D01*
X73138095Y-76323810D01*
X73138095Y-76180952D01*
X73185714Y-75990476D01*
X73233333Y-75895238D01*
X73328571Y-75800000D01*
X73471429Y-75752381D01*
X73566667Y-75752381D01*
X73709524Y-75800000D01*
X73757143Y-75847619D01*
X74709524Y-76752381D02*
X74138095Y-76752381D01*
X74423809Y-76752381D02*
X74423809Y-75752381D01*
X74328571Y-75895238D01*
X74233333Y-75990476D01*
X74138095Y-76038095D01*
X75566667Y-76085714D02*
X75566667Y-76752381D01*
X75328571Y-75704762D02*
X75090476Y-76419048D01*
X75709524Y-76419048D01*
X56957143Y-78257143D02*
X56909524Y-78304762D01*
X56766667Y-78352381D01*
X56671429Y-78352381D01*
X56528571Y-78304762D01*
X56433333Y-78209524D01*
X56385714Y-78114286D01*
X56338095Y-77923810D01*
X56338095Y-77780952D01*
X56385714Y-77590476D01*
X56433333Y-77495238D01*
X56528571Y-77400000D01*
X56671429Y-77352381D01*
X56766667Y-77352381D01*
X56909524Y-77400000D01*
X56957143Y-77447619D01*
X57909524Y-78352381D02*
X57338095Y-78352381D01*
X57623809Y-78352381D02*
X57623809Y-77352381D01*
X57528571Y-77495238D01*
X57433333Y-77590476D01*
X57338095Y-77638095D01*
X58814286Y-77352381D02*
X58338095Y-77352381D01*
X58290476Y-77828571D01*
X58338095Y-77780952D01*
X58433333Y-77733333D01*
X58671429Y-77733333D01*
X58766667Y-77780952D01*
X58814286Y-77828571D01*
X58861905Y-77923810D01*
X58861905Y-78161905D01*
X58814286Y-78257143D01*
X58766667Y-78304762D01*
X58671429Y-78352381D01*
X58433333Y-78352381D01*
X58338095Y-78304762D01*
X58290476Y-78257143D01*
X56957143Y-86257143D02*
X56909524Y-86304762D01*
X56766667Y-86352381D01*
X56671429Y-86352381D01*
X56528571Y-86304762D01*
X56433333Y-86209524D01*
X56385714Y-86114286D01*
X56338095Y-85923810D01*
X56338095Y-85780952D01*
X56385714Y-85590476D01*
X56433333Y-85495238D01*
X56528571Y-85400000D01*
X56671429Y-85352381D01*
X56766667Y-85352381D01*
X56909524Y-85400000D01*
X56957143Y-85447619D01*
X57909524Y-86352381D02*
X57338095Y-86352381D01*
X57623809Y-86352381D02*
X57623809Y-85352381D01*
X57528571Y-85495238D01*
X57433333Y-85590476D01*
X57338095Y-85638095D01*
X58766667Y-85352381D02*
X58576190Y-85352381D01*
X58480952Y-85400000D01*
X58433333Y-85447619D01*
X58338095Y-85590476D01*
X58290476Y-85780952D01*
X58290476Y-86161905D01*
X58338095Y-86257143D01*
X58385714Y-86304762D01*
X58480952Y-86352381D01*
X58671429Y-86352381D01*
X58766667Y-86304762D01*
X58814286Y-86257143D01*
X58861905Y-86161905D01*
X58861905Y-85923810D01*
X58814286Y-85828571D01*
X58766667Y-85780952D01*
X58671429Y-85733333D01*
X58480952Y-85733333D01*
X58385714Y-85780952D01*
X58338095Y-85828571D01*
X58290476Y-85923810D01*
X56957143Y-94257143D02*
X56909524Y-94304762D01*
X56766667Y-94352381D01*
X56671429Y-94352381D01*
X56528571Y-94304762D01*
X56433333Y-94209524D01*
X56385714Y-94114286D01*
X56338095Y-93923810D01*
X56338095Y-93780952D01*
X56385714Y-93590476D01*
X56433333Y-93495238D01*
X56528571Y-93400000D01*
X56671429Y-93352381D01*
X56766667Y-93352381D01*
X56909524Y-93400000D01*
X56957143Y-93447619D01*
X57909524Y-94352381D02*
X57338095Y-94352381D01*
X57623809Y-94352381D02*
X57623809Y-93352381D01*
X57528571Y-93495238D01*
X57433333Y-93590476D01*
X57338095Y-93638095D01*
X58242857Y-93352381D02*
X58909524Y-93352381D01*
X58480952Y-94352381D01*
X101857143Y-60457143D02*
X101809524Y-60504762D01*
X101666667Y-60552381D01*
X101571429Y-60552381D01*
X101428571Y-60504762D01*
X101333333Y-60409524D01*
X101285714Y-60314286D01*
X101238095Y-60123810D01*
X101238095Y-59980952D01*
X101285714Y-59790476D01*
X101333333Y-59695238D01*
X101428571Y-59600000D01*
X101571429Y-59552381D01*
X101666667Y-59552381D01*
X101809524Y-59600000D01*
X101857143Y-59647619D01*
X102809524Y-60552381D02*
X102238095Y-60552381D01*
X102523809Y-60552381D02*
X102523809Y-59552381D01*
X102428571Y-59695238D01*
X102333333Y-59790476D01*
X102238095Y-59838095D01*
X103380952Y-59980952D02*
X103285714Y-59933333D01*
X103238095Y-59885714D01*
X103190476Y-59790476D01*
X103190476Y-59742857D01*
X103238095Y-59647619D01*
X103285714Y-59600000D01*
X103380952Y-59552381D01*
X103571429Y-59552381D01*
X103666667Y-59600000D01*
X103714286Y-59647619D01*
X103761905Y-59742857D01*
X103761905Y-59790476D01*
X103714286Y-59885714D01*
X103666667Y-59933333D01*
X103571429Y-59980952D01*
X103380952Y-59980952D01*
X103285714Y-60028571D01*
X103238095Y-60076190D01*
X103190476Y-60171429D01*
X103190476Y-60361905D01*
X103238095Y-60457143D01*
X103285714Y-60504762D01*
X103380952Y-60552381D01*
X103571429Y-60552381D01*
X103666667Y-60504762D01*
X103714286Y-60457143D01*
X103761905Y-60361905D01*
X103761905Y-60171429D01*
X103714286Y-60076190D01*
X103666667Y-60028571D01*
X103571429Y-59980952D01*
X113057143Y-91557143D02*
X113009524Y-91604762D01*
X112866667Y-91652381D01*
X112771429Y-91652381D01*
X112628571Y-91604762D01*
X112533333Y-91509524D01*
X112485714Y-91414286D01*
X112438095Y-91223810D01*
X112438095Y-91080952D01*
X112485714Y-90890476D01*
X112533333Y-90795238D01*
X112628571Y-90700000D01*
X112771429Y-90652381D01*
X112866667Y-90652381D01*
X113009524Y-90700000D01*
X113057143Y-90747619D01*
X114009524Y-91652381D02*
X113438095Y-91652381D01*
X113723809Y-91652381D02*
X113723809Y-90652381D01*
X113628571Y-90795238D01*
X113533333Y-90890476D01*
X113438095Y-90938095D01*
X114485714Y-91652381D02*
X114676190Y-91652381D01*
X114771429Y-91604762D01*
X114819048Y-91557143D01*
X114914286Y-91414286D01*
X114961905Y-91223810D01*
X114961905Y-90842857D01*
X114914286Y-90747619D01*
X114866667Y-90700000D01*
X114771429Y-90652381D01*
X114580952Y-90652381D01*
X114485714Y-90700000D01*
X114438095Y-90747619D01*
X114390476Y-90842857D01*
X114390476Y-91080952D01*
X114438095Y-91176190D01*
X114485714Y-91223810D01*
X114580952Y-91271429D01*
X114771429Y-91271429D01*
X114866667Y-91223810D01*
X114914286Y-91176190D01*
X114961905Y-91080952D01*
X127757143Y-87857143D02*
X127709524Y-87904762D01*
X127566667Y-87952381D01*
X127471429Y-87952381D01*
X127328571Y-87904762D01*
X127233333Y-87809524D01*
X127185714Y-87714286D01*
X127138095Y-87523810D01*
X127138095Y-87380952D01*
X127185714Y-87190476D01*
X127233333Y-87095238D01*
X127328571Y-87000000D01*
X127471429Y-86952381D01*
X127566667Y-86952381D01*
X127709524Y-87000000D01*
X127757143Y-87047619D01*
X128138095Y-87047619D02*
X128185714Y-87000000D01*
X128280952Y-86952381D01*
X128519048Y-86952381D01*
X128614286Y-87000000D01*
X128661905Y-87047619D01*
X128709524Y-87142857D01*
X128709524Y-87238095D01*
X128661905Y-87380952D01*
X128090476Y-87952381D01*
X128709524Y-87952381D01*
X129328571Y-86952381D02*
X129423810Y-86952381D01*
X129519048Y-87000000D01*
X129566667Y-87047619D01*
X129614286Y-87142857D01*
X129661905Y-87333333D01*
X129661905Y-87571429D01*
X129614286Y-87761905D01*
X129566667Y-87857143D01*
X129519048Y-87904762D01*
X129423810Y-87952381D01*
X129328571Y-87952381D01*
X129233333Y-87904762D01*
X129185714Y-87857143D01*
X129138095Y-87761905D01*
X129090476Y-87571429D01*
X129090476Y-87333333D01*
X129138095Y-87142857D01*
X129185714Y-87047619D01*
X129233333Y-87000000D01*
X129328571Y-86952381D01*
X105657143Y-63257143D02*
X105609524Y-63304762D01*
X105466667Y-63352381D01*
X105371429Y-63352381D01*
X105228571Y-63304762D01*
X105133333Y-63209524D01*
X105085714Y-63114286D01*
X105038095Y-62923810D01*
X105038095Y-62780952D01*
X105085714Y-62590476D01*
X105133333Y-62495238D01*
X105228571Y-62400000D01*
X105371429Y-62352381D01*
X105466667Y-62352381D01*
X105609524Y-62400000D01*
X105657143Y-62447619D01*
X106038095Y-62447619D02*
X106085714Y-62400000D01*
X106180952Y-62352381D01*
X106419048Y-62352381D01*
X106514286Y-62400000D01*
X106561905Y-62447619D01*
X106609524Y-62542857D01*
X106609524Y-62638095D01*
X106561905Y-62780952D01*
X105990476Y-63352381D01*
X106609524Y-63352381D01*
X107561905Y-63352381D02*
X106990476Y-63352381D01*
X107276190Y-63352381D02*
X107276190Y-62352381D01*
X107180952Y-62495238D01*
X107085714Y-62590476D01*
X106990476Y-62638095D01*
X118757143Y-88857143D02*
X118709524Y-88904762D01*
X118566667Y-88952381D01*
X118471429Y-88952381D01*
X118328571Y-88904762D01*
X118233333Y-88809524D01*
X118185714Y-88714286D01*
X118138095Y-88523810D01*
X118138095Y-88380952D01*
X118185714Y-88190476D01*
X118233333Y-88095238D01*
X118328571Y-88000000D01*
X118471429Y-87952381D01*
X118566667Y-87952381D01*
X118709524Y-88000000D01*
X118757143Y-88047619D01*
X119138095Y-88047619D02*
X119185714Y-88000000D01*
X119280952Y-87952381D01*
X119519048Y-87952381D01*
X119614286Y-88000000D01*
X119661905Y-88047619D01*
X119709524Y-88142857D01*
X119709524Y-88238095D01*
X119661905Y-88380952D01*
X119090476Y-88952381D01*
X119709524Y-88952381D01*
X120090476Y-88047619D02*
X120138095Y-88000000D01*
X120233333Y-87952381D01*
X120471429Y-87952381D01*
X120566667Y-88000000D01*
X120614286Y-88047619D01*
X120661905Y-88142857D01*
X120661905Y-88238095D01*
X120614286Y-88380952D01*
X120042857Y-88952381D01*
X120661905Y-88952381D01*
X127757143Y-86357143D02*
X127709524Y-86404762D01*
X127566667Y-86452381D01*
X127471429Y-86452381D01*
X127328571Y-86404762D01*
X127233333Y-86309524D01*
X127185714Y-86214286D01*
X127138095Y-86023810D01*
X127138095Y-85880952D01*
X127185714Y-85690476D01*
X127233333Y-85595238D01*
X127328571Y-85500000D01*
X127471429Y-85452381D01*
X127566667Y-85452381D01*
X127709524Y-85500000D01*
X127757143Y-85547619D01*
X128138095Y-85547619D02*
X128185714Y-85500000D01*
X128280952Y-85452381D01*
X128519048Y-85452381D01*
X128614286Y-85500000D01*
X128661905Y-85547619D01*
X128709524Y-85642857D01*
X128709524Y-85738095D01*
X128661905Y-85880952D01*
X128090476Y-86452381D01*
X128709524Y-86452381D01*
X129042857Y-85452381D02*
X129661905Y-85452381D01*
X129328571Y-85833333D01*
X129471429Y-85833333D01*
X129566667Y-85880952D01*
X129614286Y-85928571D01*
X129661905Y-86023810D01*
X129661905Y-86261905D01*
X129614286Y-86357143D01*
X129566667Y-86404762D01*
X129471429Y-86452381D01*
X129185714Y-86452381D01*
X129090476Y-86404762D01*
X129042857Y-86357143D01*
X110657143Y-69457143D02*
X110609524Y-69504762D01*
X110466667Y-69552381D01*
X110371429Y-69552381D01*
X110228571Y-69504762D01*
X110133333Y-69409524D01*
X110085714Y-69314286D01*
X110038095Y-69123810D01*
X110038095Y-68980952D01*
X110085714Y-68790476D01*
X110133333Y-68695238D01*
X110228571Y-68600000D01*
X110371429Y-68552381D01*
X110466667Y-68552381D01*
X110609524Y-68600000D01*
X110657143Y-68647619D01*
X111038095Y-68647619D02*
X111085714Y-68600000D01*
X111180952Y-68552381D01*
X111419048Y-68552381D01*
X111514286Y-68600000D01*
X111561905Y-68647619D01*
X111609524Y-68742857D01*
X111609524Y-68838095D01*
X111561905Y-68980952D01*
X110990476Y-69552381D01*
X111609524Y-69552381D01*
X112466667Y-68885714D02*
X112466667Y-69552381D01*
X112228571Y-68504762D02*
X111990476Y-69219048D01*
X112609524Y-69219048D01*
X105657143Y-61857143D02*
X105609524Y-61904762D01*
X105466667Y-61952381D01*
X105371429Y-61952381D01*
X105228571Y-61904762D01*
X105133333Y-61809524D01*
X105085714Y-61714286D01*
X105038095Y-61523810D01*
X105038095Y-61380952D01*
X105085714Y-61190476D01*
X105133333Y-61095238D01*
X105228571Y-61000000D01*
X105371429Y-60952381D01*
X105466667Y-60952381D01*
X105609524Y-61000000D01*
X105657143Y-61047619D01*
X106038095Y-61047619D02*
X106085714Y-61000000D01*
X106180952Y-60952381D01*
X106419048Y-60952381D01*
X106514286Y-61000000D01*
X106561905Y-61047619D01*
X106609524Y-61142857D01*
X106609524Y-61238095D01*
X106561905Y-61380952D01*
X105990476Y-61952381D01*
X106609524Y-61952381D01*
X107514286Y-60952381D02*
X107038095Y-60952381D01*
X106990476Y-61428571D01*
X107038095Y-61380952D01*
X107133333Y-61333333D01*
X107371429Y-61333333D01*
X107466667Y-61380952D01*
X107514286Y-61428571D01*
X107561905Y-61523810D01*
X107561905Y-61761905D01*
X107514286Y-61857143D01*
X107466667Y-61904762D01*
X107371429Y-61952381D01*
X107133333Y-61952381D01*
X107038095Y-61904762D01*
X106990476Y-61857143D01*
X111057143Y-66657143D02*
X111009524Y-66704762D01*
X110866667Y-66752381D01*
X110771429Y-66752381D01*
X110628571Y-66704762D01*
X110533333Y-66609524D01*
X110485714Y-66514286D01*
X110438095Y-66323810D01*
X110438095Y-66180952D01*
X110485714Y-65990476D01*
X110533333Y-65895238D01*
X110628571Y-65800000D01*
X110771429Y-65752381D01*
X110866667Y-65752381D01*
X111009524Y-65800000D01*
X111057143Y-65847619D01*
X111438095Y-65847619D02*
X111485714Y-65800000D01*
X111580952Y-65752381D01*
X111819048Y-65752381D01*
X111914286Y-65800000D01*
X111961905Y-65847619D01*
X112009524Y-65942857D01*
X112009524Y-66038095D01*
X111961905Y-66180952D01*
X111390476Y-66752381D01*
X112009524Y-66752381D01*
X112866667Y-65752381D02*
X112676190Y-65752381D01*
X112580952Y-65800000D01*
X112533333Y-65847619D01*
X112438095Y-65990476D01*
X112390476Y-66180952D01*
X112390476Y-66561905D01*
X112438095Y-66657143D01*
X112485714Y-66704762D01*
X112580952Y-66752381D01*
X112771429Y-66752381D01*
X112866667Y-66704762D01*
X112914286Y-66657143D01*
X112961905Y-66561905D01*
X112961905Y-66323810D01*
X112914286Y-66228571D01*
X112866667Y-66180952D01*
X112771429Y-66133333D01*
X112580952Y-66133333D01*
X112485714Y-66180952D01*
X112438095Y-66228571D01*
X112390476Y-66323810D01*
X127757143Y-84857143D02*
X127709524Y-84904762D01*
X127566667Y-84952381D01*
X127471429Y-84952381D01*
X127328571Y-84904762D01*
X127233333Y-84809524D01*
X127185714Y-84714286D01*
X127138095Y-84523810D01*
X127138095Y-84380952D01*
X127185714Y-84190476D01*
X127233333Y-84095238D01*
X127328571Y-84000000D01*
X127471429Y-83952381D01*
X127566667Y-83952381D01*
X127709524Y-84000000D01*
X127757143Y-84047619D01*
X128138095Y-84047619D02*
X128185714Y-84000000D01*
X128280952Y-83952381D01*
X128519048Y-83952381D01*
X128614286Y-84000000D01*
X128661905Y-84047619D01*
X128709524Y-84142857D01*
X128709524Y-84238095D01*
X128661905Y-84380952D01*
X128090476Y-84952381D01*
X128709524Y-84952381D01*
X129042857Y-83952381D02*
X129709524Y-83952381D01*
X129280952Y-84952381D01*
X119057143Y-69457143D02*
X119009524Y-69504762D01*
X118866667Y-69552381D01*
X118771429Y-69552381D01*
X118628571Y-69504762D01*
X118533333Y-69409524D01*
X118485714Y-69314286D01*
X118438095Y-69123810D01*
X118438095Y-68980952D01*
X118485714Y-68790476D01*
X118533333Y-68695238D01*
X118628571Y-68600000D01*
X118771429Y-68552381D01*
X118866667Y-68552381D01*
X119009524Y-68600000D01*
X119057143Y-68647619D01*
X119438095Y-68647619D02*
X119485714Y-68600000D01*
X119580952Y-68552381D01*
X119819048Y-68552381D01*
X119914286Y-68600000D01*
X119961905Y-68647619D01*
X120009524Y-68742857D01*
X120009524Y-68838095D01*
X119961905Y-68980952D01*
X119390476Y-69552381D01*
X120009524Y-69552381D01*
X120580952Y-68980952D02*
X120485714Y-68933333D01*
X120438095Y-68885714D01*
X120390476Y-68790476D01*
X120390476Y-68742857D01*
X120438095Y-68647619D01*
X120485714Y-68600000D01*
X120580952Y-68552381D01*
X120771429Y-68552381D01*
X120866667Y-68600000D01*
X120914286Y-68647619D01*
X120961905Y-68742857D01*
X120961905Y-68790476D01*
X120914286Y-68885714D01*
X120866667Y-68933333D01*
X120771429Y-68980952D01*
X120580952Y-68980952D01*
X120485714Y-69028571D01*
X120438095Y-69076190D01*
X120390476Y-69171429D01*
X120390476Y-69361905D01*
X120438095Y-69457143D01*
X120485714Y-69504762D01*
X120580952Y-69552381D01*
X120771429Y-69552381D01*
X120866667Y-69504762D01*
X120914286Y-69457143D01*
X120961905Y-69361905D01*
X120961905Y-69171429D01*
X120914286Y-69076190D01*
X120866667Y-69028571D01*
X120771429Y-68980952D01*
X105657143Y-60457143D02*
X105609524Y-60504762D01*
X105466667Y-60552381D01*
X105371429Y-60552381D01*
X105228571Y-60504762D01*
X105133333Y-60409524D01*
X105085714Y-60314286D01*
X105038095Y-60123810D01*
X105038095Y-59980952D01*
X105085714Y-59790476D01*
X105133333Y-59695238D01*
X105228571Y-59600000D01*
X105371429Y-59552381D01*
X105466667Y-59552381D01*
X105609524Y-59600000D01*
X105657143Y-59647619D01*
X106038095Y-59647619D02*
X106085714Y-59600000D01*
X106180952Y-59552381D01*
X106419048Y-59552381D01*
X106514286Y-59600000D01*
X106561905Y-59647619D01*
X106609524Y-59742857D01*
X106609524Y-59838095D01*
X106561905Y-59980952D01*
X105990476Y-60552381D01*
X106609524Y-60552381D01*
X107085714Y-60552381D02*
X107276190Y-60552381D01*
X107371429Y-60504762D01*
X107419048Y-60457143D01*
X107514286Y-60314286D01*
X107561905Y-60123810D01*
X107561905Y-59742857D01*
X107514286Y-59647619D01*
X107466667Y-59600000D01*
X107371429Y-59552381D01*
X107180952Y-59552381D01*
X107085714Y-59600000D01*
X107038095Y-59647619D01*
X106990476Y-59742857D01*
X106990476Y-59980952D01*
X107038095Y-60076190D01*
X107085714Y-60123810D01*
X107180952Y-60171429D01*
X107371429Y-60171429D01*
X107466667Y-60123810D01*
X107514286Y-60076190D01*
X107561905Y-59980952D01*
X119957143Y-66657143D02*
X119909524Y-66704762D01*
X119766667Y-66752381D01*
X119671429Y-66752381D01*
X119528571Y-66704762D01*
X119433333Y-66609524D01*
X119385714Y-66514286D01*
X119338095Y-66323810D01*
X119338095Y-66180952D01*
X119385714Y-65990476D01*
X119433333Y-65895238D01*
X119528571Y-65800000D01*
X119671429Y-65752381D01*
X119766667Y-65752381D01*
X119909524Y-65800000D01*
X119957143Y-65847619D01*
X120290476Y-65752381D02*
X120909524Y-65752381D01*
X120576190Y-66133333D01*
X120719048Y-66133333D01*
X120814286Y-66180952D01*
X120861905Y-66228571D01*
X120909524Y-66323810D01*
X120909524Y-66561905D01*
X120861905Y-66657143D01*
X120814286Y-66704762D01*
X120719048Y-66752381D01*
X120433333Y-66752381D01*
X120338095Y-66704762D01*
X120290476Y-66657143D01*
X121528571Y-65752381D02*
X121623810Y-65752381D01*
X121719048Y-65800000D01*
X121766667Y-65847619D01*
X121814286Y-65942857D01*
X121861905Y-66133333D01*
X121861905Y-66371429D01*
X121814286Y-66561905D01*
X121766667Y-66657143D01*
X121719048Y-66704762D01*
X121623810Y-66752381D01*
X121528571Y-66752381D01*
X121433333Y-66704762D01*
X121385714Y-66657143D01*
X121338095Y-66561905D01*
X121290476Y-66371429D01*
X121290476Y-66133333D01*
X121338095Y-65942857D01*
X121385714Y-65847619D01*
X121433333Y-65800000D01*
X121528571Y-65752381D01*
X103757143Y-59157143D02*
X103709524Y-59204762D01*
X103566667Y-59252381D01*
X103471429Y-59252381D01*
X103328571Y-59204762D01*
X103233333Y-59109524D01*
X103185714Y-59014286D01*
X103138095Y-58823810D01*
X103138095Y-58680952D01*
X103185714Y-58490476D01*
X103233333Y-58395238D01*
X103328571Y-58300000D01*
X103471429Y-58252381D01*
X103566667Y-58252381D01*
X103709524Y-58300000D01*
X103757143Y-58347619D01*
X104090476Y-58252381D02*
X104709524Y-58252381D01*
X104376190Y-58633333D01*
X104519048Y-58633333D01*
X104614286Y-58680952D01*
X104661905Y-58728571D01*
X104709524Y-58823810D01*
X104709524Y-59061905D01*
X104661905Y-59157143D01*
X104614286Y-59204762D01*
X104519048Y-59252381D01*
X104233333Y-59252381D01*
X104138095Y-59204762D01*
X104090476Y-59157143D01*
X105661905Y-59252381D02*
X105090476Y-59252381D01*
X105376190Y-59252381D02*
X105376190Y-58252381D01*
X105280952Y-58395238D01*
X105185714Y-58490476D01*
X105090476Y-58538095D01*
X133357143Y-98057143D02*
X133309524Y-98104762D01*
X133166667Y-98152381D01*
X133071429Y-98152381D01*
X132928571Y-98104762D01*
X132833333Y-98009524D01*
X132785714Y-97914286D01*
X132738095Y-97723810D01*
X132738095Y-97580952D01*
X132785714Y-97390476D01*
X132833333Y-97295238D01*
X132928571Y-97200000D01*
X133071429Y-97152381D01*
X133166667Y-97152381D01*
X133309524Y-97200000D01*
X133357143Y-97247619D01*
X133690476Y-97152381D02*
X134309524Y-97152381D01*
X133976190Y-97533333D01*
X134119048Y-97533333D01*
X134214286Y-97580952D01*
X134261905Y-97628571D01*
X134309524Y-97723810D01*
X134309524Y-97961905D01*
X134261905Y-98057143D01*
X134214286Y-98104762D01*
X134119048Y-98152381D01*
X133833333Y-98152381D01*
X133738095Y-98104762D01*
X133690476Y-98057143D01*
X134690476Y-97247619D02*
X134738095Y-97200000D01*
X134833333Y-97152381D01*
X135071429Y-97152381D01*
X135166667Y-97200000D01*
X135214286Y-97247619D01*
X135261905Y-97342857D01*
X135261905Y-97438095D01*
X135214286Y-97580952D01*
X134642857Y-98152381D01*
X135261905Y-98152381D01*
X133357143Y-96757143D02*
X133309524Y-96804762D01*
X133166667Y-96852381D01*
X133071429Y-96852381D01*
X132928571Y-96804762D01*
X132833333Y-96709524D01*
X132785714Y-96614286D01*
X132738095Y-96423810D01*
X132738095Y-96280952D01*
X132785714Y-96090476D01*
X132833333Y-95995238D01*
X132928571Y-95900000D01*
X133071429Y-95852381D01*
X133166667Y-95852381D01*
X133309524Y-95900000D01*
X133357143Y-95947619D01*
X133690476Y-95852381D02*
X134309524Y-95852381D01*
X133976190Y-96233333D01*
X134119048Y-96233333D01*
X134214286Y-96280952D01*
X134261905Y-96328571D01*
X134309524Y-96423810D01*
X134309524Y-96661905D01*
X134261905Y-96757143D01*
X134214286Y-96804762D01*
X134119048Y-96852381D01*
X133833333Y-96852381D01*
X133738095Y-96804762D01*
X133690476Y-96757143D01*
X134642857Y-95852381D02*
X135261905Y-95852381D01*
X134928571Y-96233333D01*
X135071429Y-96233333D01*
X135166667Y-96280952D01*
X135214286Y-96328571D01*
X135261905Y-96423810D01*
X135261905Y-96661905D01*
X135214286Y-96757143D01*
X135166667Y-96804762D01*
X135071429Y-96852381D01*
X134785714Y-96852381D01*
X134690476Y-96804762D01*
X134642857Y-96757143D01*
X71557143Y-101657143D02*
X71509524Y-101704762D01*
X71366667Y-101752381D01*
X71271429Y-101752381D01*
X71128571Y-101704762D01*
X71033333Y-101609524D01*
X70985714Y-101514286D01*
X70938095Y-101323810D01*
X70938095Y-101180952D01*
X70985714Y-100990476D01*
X71033333Y-100895238D01*
X71128571Y-100800000D01*
X71271429Y-100752381D01*
X71366667Y-100752381D01*
X71509524Y-100800000D01*
X71557143Y-100847619D01*
X71890476Y-100752381D02*
X72509524Y-100752381D01*
X72176190Y-101133333D01*
X72319048Y-101133333D01*
X72414286Y-101180952D01*
X72461905Y-101228571D01*
X72509524Y-101323810D01*
X72509524Y-101561905D01*
X72461905Y-101657143D01*
X72414286Y-101704762D01*
X72319048Y-101752381D01*
X72033333Y-101752381D01*
X71938095Y-101704762D01*
X71890476Y-101657143D01*
X73366667Y-101085714D02*
X73366667Y-101752381D01*
X73128571Y-100704762D02*
X72890476Y-101419048D01*
X73509524Y-101419048D01*
X113257143Y-111657143D02*
X113209524Y-111704762D01*
X113066667Y-111752381D01*
X112971429Y-111752381D01*
X112828571Y-111704762D01*
X112733333Y-111609524D01*
X112685714Y-111514286D01*
X112638095Y-111323810D01*
X112638095Y-111180952D01*
X112685714Y-110990476D01*
X112733333Y-110895238D01*
X112828571Y-110800000D01*
X112971429Y-110752381D01*
X113066667Y-110752381D01*
X113209524Y-110800000D01*
X113257143Y-110847619D01*
X113590476Y-110752381D02*
X114209524Y-110752381D01*
X113876190Y-111133333D01*
X114019048Y-111133333D01*
X114114286Y-111180952D01*
X114161905Y-111228571D01*
X114209524Y-111323810D01*
X114209524Y-111561905D01*
X114161905Y-111657143D01*
X114114286Y-111704762D01*
X114019048Y-111752381D01*
X113733333Y-111752381D01*
X113638095Y-111704762D01*
X113590476Y-111657143D01*
X115114286Y-110752381D02*
X114638095Y-110752381D01*
X114590476Y-111228571D01*
X114638095Y-111180952D01*
X114733333Y-111133333D01*
X114971429Y-111133333D01*
X115066667Y-111180952D01*
X115114286Y-111228571D01*
X115161905Y-111323810D01*
X115161905Y-111561905D01*
X115114286Y-111657143D01*
X115066667Y-111704762D01*
X114971429Y-111752381D01*
X114733333Y-111752381D01*
X114638095Y-111704762D01*
X114590476Y-111657143D01*
X71557143Y-103257143D02*
X71509524Y-103304762D01*
X71366667Y-103352381D01*
X71271429Y-103352381D01*
X71128571Y-103304762D01*
X71033333Y-103209524D01*
X70985714Y-103114286D01*
X70938095Y-102923810D01*
X70938095Y-102780952D01*
X70985714Y-102590476D01*
X71033333Y-102495238D01*
X71128571Y-102400000D01*
X71271429Y-102352381D01*
X71366667Y-102352381D01*
X71509524Y-102400000D01*
X71557143Y-102447619D01*
X71890476Y-102352381D02*
X72509524Y-102352381D01*
X72176190Y-102733333D01*
X72319048Y-102733333D01*
X72414286Y-102780952D01*
X72461905Y-102828571D01*
X72509524Y-102923810D01*
X72509524Y-103161905D01*
X72461905Y-103257143D01*
X72414286Y-103304762D01*
X72319048Y-103352381D01*
X72033333Y-103352381D01*
X71938095Y-103304762D01*
X71890476Y-103257143D01*
X73366667Y-102352381D02*
X73176190Y-102352381D01*
X73080952Y-102400000D01*
X73033333Y-102447619D01*
X72938095Y-102590476D01*
X72890476Y-102780952D01*
X72890476Y-103161905D01*
X72938095Y-103257143D01*
X72985714Y-103304762D01*
X73080952Y-103352381D01*
X73271429Y-103352381D01*
X73366667Y-103304762D01*
X73414286Y-103257143D01*
X73461905Y-103161905D01*
X73461905Y-102923810D01*
X73414286Y-102828571D01*
X73366667Y-102780952D01*
X73271429Y-102733333D01*
X73080952Y-102733333D01*
X72985714Y-102780952D01*
X72938095Y-102828571D01*
X72890476Y-102923810D01*
X116157143Y-111657143D02*
X116109524Y-111704762D01*
X115966667Y-111752381D01*
X115871429Y-111752381D01*
X115728571Y-111704762D01*
X115633333Y-111609524D01*
X115585714Y-111514286D01*
X115538095Y-111323810D01*
X115538095Y-111180952D01*
X115585714Y-110990476D01*
X115633333Y-110895238D01*
X115728571Y-110800000D01*
X115871429Y-110752381D01*
X115966667Y-110752381D01*
X116109524Y-110800000D01*
X116157143Y-110847619D01*
X116490476Y-110752381D02*
X117109524Y-110752381D01*
X116776190Y-111133333D01*
X116919048Y-111133333D01*
X117014286Y-111180952D01*
X117061905Y-111228571D01*
X117109524Y-111323810D01*
X117109524Y-111561905D01*
X117061905Y-111657143D01*
X117014286Y-111704762D01*
X116919048Y-111752381D01*
X116633333Y-111752381D01*
X116538095Y-111704762D01*
X116490476Y-111657143D01*
X117442857Y-110752381D02*
X118109524Y-110752381D01*
X117680952Y-111752381D01*
X119057143Y-111657143D02*
X119009524Y-111704762D01*
X118866667Y-111752381D01*
X118771429Y-111752381D01*
X118628571Y-111704762D01*
X118533333Y-111609524D01*
X118485714Y-111514286D01*
X118438095Y-111323810D01*
X118438095Y-111180952D01*
X118485714Y-110990476D01*
X118533333Y-110895238D01*
X118628571Y-110800000D01*
X118771429Y-110752381D01*
X118866667Y-110752381D01*
X119009524Y-110800000D01*
X119057143Y-110847619D01*
X119390476Y-110752381D02*
X120009524Y-110752381D01*
X119676190Y-111133333D01*
X119819048Y-111133333D01*
X119914286Y-111180952D01*
X119961905Y-111228571D01*
X120009524Y-111323810D01*
X120009524Y-111561905D01*
X119961905Y-111657143D01*
X119914286Y-111704762D01*
X119819048Y-111752381D01*
X119533333Y-111752381D01*
X119438095Y-111704762D01*
X119390476Y-111657143D01*
X120580952Y-111180952D02*
X120485714Y-111133333D01*
X120438095Y-111085714D01*
X120390476Y-110990476D01*
X120390476Y-110942857D01*
X120438095Y-110847619D01*
X120485714Y-110800000D01*
X120580952Y-110752381D01*
X120771429Y-110752381D01*
X120866667Y-110800000D01*
X120914286Y-110847619D01*
X120961905Y-110942857D01*
X120961905Y-110990476D01*
X120914286Y-111085714D01*
X120866667Y-111133333D01*
X120771429Y-111180952D01*
X120580952Y-111180952D01*
X120485714Y-111228571D01*
X120438095Y-111276190D01*
X120390476Y-111371429D01*
X120390476Y-111561905D01*
X120438095Y-111657143D01*
X120485714Y-111704762D01*
X120580952Y-111752381D01*
X120771429Y-111752381D01*
X120866667Y-111704762D01*
X120914286Y-111657143D01*
X120961905Y-111561905D01*
X120961905Y-111371429D01*
X120914286Y-111276190D01*
X120866667Y-111228571D01*
X120771429Y-111180952D01*
X51861905Y-72652381D02*
X51861905Y-71652381D01*
X52100000Y-71652381D01*
X52242858Y-71700000D01*
X52338096Y-71795238D01*
X52385715Y-71890476D01*
X52433334Y-72080952D01*
X52433334Y-72223810D01*
X52385715Y-72414286D01*
X52338096Y-72509524D01*
X52242858Y-72604762D01*
X52100000Y-72652381D01*
X51861905Y-72652381D01*
X53385715Y-72652381D02*
X52814286Y-72652381D01*
X53100000Y-72652381D02*
X53100000Y-71652381D01*
X53004762Y-71795238D01*
X52909524Y-71890476D01*
X52814286Y-71938095D01*
X130261905Y-135852381D02*
X130261905Y-134852381D01*
X130500000Y-134852381D01*
X130642858Y-134900000D01*
X130738096Y-134995238D01*
X130785715Y-135090476D01*
X130833334Y-135280952D01*
X130833334Y-135423810D01*
X130785715Y-135614286D01*
X130738096Y-135709524D01*
X130642858Y-135804762D01*
X130500000Y-135852381D01*
X130261905Y-135852381D01*
X131214286Y-134947619D02*
X131261905Y-134900000D01*
X131357143Y-134852381D01*
X131595239Y-134852381D01*
X131690477Y-134900000D01*
X131738096Y-134947619D01*
X131785715Y-135042857D01*
X131785715Y-135138095D01*
X131738096Y-135280952D01*
X131166667Y-135852381D01*
X131785715Y-135852381D01*
X132561905Y-135852381D02*
X132561905Y-134852381D01*
X132800000Y-134852381D01*
X132942858Y-134900000D01*
X133038096Y-134995238D01*
X133085715Y-135090476D01*
X133133334Y-135280952D01*
X133133334Y-135423810D01*
X133085715Y-135614286D01*
X133038096Y-135709524D01*
X132942858Y-135804762D01*
X132800000Y-135852381D01*
X132561905Y-135852381D01*
X133466667Y-134852381D02*
X134085715Y-134852381D01*
X133752381Y-135233333D01*
X133895239Y-135233333D01*
X133990477Y-135280952D01*
X134038096Y-135328571D01*
X134085715Y-135423810D01*
X134085715Y-135661905D01*
X134038096Y-135757143D01*
X133990477Y-135804762D01*
X133895239Y-135852381D01*
X133609524Y-135852381D01*
X133514286Y-135804762D01*
X133466667Y-135757143D01*
X127861905Y-135852381D02*
X127861905Y-134852381D01*
X128100000Y-134852381D01*
X128242858Y-134900000D01*
X128338096Y-134995238D01*
X128385715Y-135090476D01*
X128433334Y-135280952D01*
X128433334Y-135423810D01*
X128385715Y-135614286D01*
X128338096Y-135709524D01*
X128242858Y-135804762D01*
X128100000Y-135852381D01*
X127861905Y-135852381D01*
X129290477Y-135185714D02*
X129290477Y-135852381D01*
X129052381Y-134804762D02*
X128814286Y-135519048D01*
X129433334Y-135519048D01*
D13*
X69335715Y-133507143D02*
X69335715Y-132607143D01*
X69550000Y-132607143D01*
X69678572Y-132650000D01*
X69764286Y-132735714D01*
X69807143Y-132821429D01*
X69850000Y-132992857D01*
X69850000Y-133121429D01*
X69807143Y-133292857D01*
X69764286Y-133378571D01*
X69678572Y-133464286D01*
X69550000Y-133507143D01*
X69335715Y-133507143D01*
X70664286Y-132607143D02*
X70235715Y-132607143D01*
X70192858Y-133035714D01*
X70235715Y-132992857D01*
X70321429Y-132950000D01*
X70535715Y-132950000D01*
X70621429Y-132992857D01*
X70664286Y-133035714D01*
X70707143Y-133121429D01*
X70707143Y-133335714D01*
X70664286Y-133421429D01*
X70621429Y-133464286D01*
X70535715Y-133507143D01*
X70321429Y-133507143D01*
X70235715Y-133464286D01*
X70192858Y-133421429D01*
X72035715Y-133507143D02*
X72035715Y-132607143D01*
X72250000Y-132607143D01*
X72378572Y-132650000D01*
X72464286Y-132735714D01*
X72507143Y-132821429D01*
X72550000Y-132992857D01*
X72550000Y-133121429D01*
X72507143Y-133292857D01*
X72464286Y-133378571D01*
X72378572Y-133464286D01*
X72250000Y-133507143D01*
X72035715Y-133507143D01*
X73321429Y-132607143D02*
X73150000Y-132607143D01*
X73064286Y-132650000D01*
X73021429Y-132692857D01*
X72935715Y-132821429D01*
X72892858Y-132992857D01*
X72892858Y-133335714D01*
X72935715Y-133421429D01*
X72978572Y-133464286D01*
X73064286Y-133507143D01*
X73235715Y-133507143D01*
X73321429Y-133464286D01*
X73364286Y-133421429D01*
X73407143Y-133335714D01*
X73407143Y-133121429D01*
X73364286Y-133035714D01*
X73321429Y-132992857D01*
X73235715Y-132950000D01*
X73064286Y-132950000D01*
X72978572Y-132992857D01*
X72935715Y-133035714D01*
X72892858Y-133121429D01*
X66835715Y-133507143D02*
X66835715Y-132607143D01*
X67050000Y-132607143D01*
X67178572Y-132650000D01*
X67264286Y-132735714D01*
X67307143Y-132821429D01*
X67350000Y-132992857D01*
X67350000Y-133121429D01*
X67307143Y-133292857D01*
X67264286Y-133378571D01*
X67178572Y-133464286D01*
X67050000Y-133507143D01*
X66835715Y-133507143D01*
X67650000Y-132607143D02*
X68250000Y-132607143D01*
X67864286Y-133507143D01*
D14*
X64866667Y-64728571D02*
X64533333Y-64728571D01*
X64533333Y-65252381D02*
X64533333Y-64252381D01*
X65009524Y-64252381D01*
X65914286Y-65252381D02*
X65342857Y-65252381D01*
X65628571Y-65252381D02*
X65628571Y-64252381D01*
X65533333Y-64395238D01*
X65438095Y-64490476D01*
X65342857Y-64538095D01*
X56666667Y-66652381D02*
X56666667Y-67366667D01*
X56619047Y-67509524D01*
X56523809Y-67604762D01*
X56380952Y-67652381D01*
X56285714Y-67652381D01*
X57666667Y-67652381D02*
X57095238Y-67652381D01*
X57380952Y-67652381D02*
X57380952Y-66652381D01*
X57285714Y-66795238D01*
X57190476Y-66890476D01*
X57095238Y-66938095D01*
X146466667Y-79752381D02*
X146466667Y-80466667D01*
X146419047Y-80609524D01*
X146323809Y-80704762D01*
X146180952Y-80752381D01*
X146085714Y-80752381D01*
X147371429Y-80085714D02*
X147371429Y-80752381D01*
X147133333Y-79704762D02*
X146895238Y-80419048D01*
X147514286Y-80419048D01*
D13*
X141892381Y-55834285D02*
X141892381Y-56405714D01*
X141892381Y-56120000D02*
X140892381Y-56120000D01*
X141035238Y-56215238D01*
X141130476Y-56310476D01*
X141178095Y-56405714D01*
D14*
X143236667Y-114622381D02*
X143236667Y-115336667D01*
X143189047Y-115479524D01*
X143093809Y-115574762D01*
X142950952Y-115622381D01*
X142855714Y-115622381D01*
X143855714Y-115050952D02*
X143760476Y-115003333D01*
X143712857Y-114955714D01*
X143665238Y-114860476D01*
X143665238Y-114812857D01*
X143712857Y-114717619D01*
X143760476Y-114670000D01*
X143855714Y-114622381D01*
X144046191Y-114622381D01*
X144141429Y-114670000D01*
X144189048Y-114717619D01*
X144236667Y-114812857D01*
X144236667Y-114860476D01*
X144189048Y-114955714D01*
X144141429Y-115003333D01*
X144046191Y-115050952D01*
X143855714Y-115050952D01*
X143760476Y-115098571D01*
X143712857Y-115146190D01*
X143665238Y-115241429D01*
X143665238Y-115431905D01*
X143712857Y-115527143D01*
X143760476Y-115574762D01*
X143855714Y-115622381D01*
X144046191Y-115622381D01*
X144141429Y-115574762D01*
X144189048Y-115527143D01*
X144236667Y-115431905D01*
X144236667Y-115241429D01*
X144189048Y-115146190D01*
X144141429Y-115098571D01*
X144046191Y-115050952D01*
X125466667Y-92412381D02*
X125466667Y-93126667D01*
X125419047Y-93269524D01*
X125323809Y-93364762D01*
X125180952Y-93412381D01*
X125085714Y-93412381D01*
X125990476Y-93412381D02*
X126180952Y-93412381D01*
X126276191Y-93364762D01*
X126323810Y-93317143D01*
X126419048Y-93174286D01*
X126466667Y-92983810D01*
X126466667Y-92602857D01*
X126419048Y-92507619D01*
X126371429Y-92460000D01*
X126276191Y-92412381D01*
X126085714Y-92412381D01*
X125990476Y-92460000D01*
X125942857Y-92507619D01*
X125895238Y-92602857D01*
X125895238Y-92840952D01*
X125942857Y-92936190D01*
X125990476Y-92983810D01*
X126085714Y-93031429D01*
X126276191Y-93031429D01*
X126371429Y-92983810D01*
X126419048Y-92936190D01*
X126466667Y-92840952D01*
X131090477Y-82352381D02*
X131090477Y-83066667D01*
X131042857Y-83209524D01*
X130947619Y-83304762D01*
X130804762Y-83352381D01*
X130709524Y-83352381D01*
X132090477Y-83352381D02*
X131519048Y-83352381D01*
X131804762Y-83352381D02*
X131804762Y-82352381D01*
X131709524Y-82495238D01*
X131614286Y-82590476D01*
X131519048Y-82638095D01*
X132709524Y-82352381D02*
X132804763Y-82352381D01*
X132900001Y-82400000D01*
X132947620Y-82447619D01*
X132995239Y-82542857D01*
X133042858Y-82733333D01*
X133042858Y-82971429D01*
X132995239Y-83161905D01*
X132947620Y-83257143D01*
X132900001Y-83304762D01*
X132804763Y-83352381D01*
X132709524Y-83352381D01*
X132614286Y-83304762D01*
X132566667Y-83257143D01*
X132519048Y-83161905D01*
X132471429Y-82971429D01*
X132471429Y-82733333D01*
X132519048Y-82542857D01*
X132566667Y-82447619D01*
X132614286Y-82400000D01*
X132709524Y-82352381D01*
X55060477Y-107002381D02*
X55060477Y-107716667D01*
X55012857Y-107859524D01*
X54917619Y-107954762D01*
X54774762Y-108002381D01*
X54679524Y-108002381D01*
X56060477Y-108002381D02*
X55489048Y-108002381D01*
X55774762Y-108002381D02*
X55774762Y-107002381D01*
X55679524Y-107145238D01*
X55584286Y-107240476D01*
X55489048Y-107288095D01*
X57012858Y-108002381D02*
X56441429Y-108002381D01*
X56727143Y-108002381D02*
X56727143Y-107002381D01*
X56631905Y-107145238D01*
X56536667Y-107240476D01*
X56441429Y-107288095D01*
X121090477Y-92402381D02*
X121090477Y-93116667D01*
X121042857Y-93259524D01*
X120947619Y-93354762D01*
X120804762Y-93402381D01*
X120709524Y-93402381D01*
X122090477Y-93402381D02*
X121519048Y-93402381D01*
X121804762Y-93402381D02*
X121804762Y-92402381D01*
X121709524Y-92545238D01*
X121614286Y-92640476D01*
X121519048Y-92688095D01*
X122471429Y-92497619D02*
X122519048Y-92450000D01*
X122614286Y-92402381D01*
X122852382Y-92402381D01*
X122947620Y-92450000D01*
X122995239Y-92497619D01*
X123042858Y-92592857D01*
X123042858Y-92688095D01*
X122995239Y-92830952D01*
X122423810Y-93402381D01*
X123042858Y-93402381D01*
X99190477Y-131202381D02*
X99190477Y-131916667D01*
X99142857Y-132059524D01*
X99047619Y-132154762D01*
X98904762Y-132202381D01*
X98809524Y-132202381D01*
X100190477Y-132202381D02*
X99619048Y-132202381D01*
X99904762Y-132202381D02*
X99904762Y-131202381D01*
X99809524Y-131345238D01*
X99714286Y-131440476D01*
X99619048Y-131488095D01*
X100523810Y-131202381D02*
X101142858Y-131202381D01*
X100809524Y-131583333D01*
X100952382Y-131583333D01*
X101047620Y-131630952D01*
X101095239Y-131678571D01*
X101142858Y-131773810D01*
X101142858Y-132011905D01*
X101095239Y-132107143D01*
X101047620Y-132154762D01*
X100952382Y-132202381D01*
X100666667Y-132202381D01*
X100571429Y-132154762D01*
X100523810Y-132107143D01*
X77690477Y-96352381D02*
X77690477Y-97066667D01*
X77642857Y-97209524D01*
X77547619Y-97304762D01*
X77404762Y-97352381D01*
X77309524Y-97352381D01*
X78690477Y-97352381D02*
X78119048Y-97352381D01*
X78404762Y-97352381D02*
X78404762Y-96352381D01*
X78309524Y-96495238D01*
X78214286Y-96590476D01*
X78119048Y-96638095D01*
X79547620Y-96685714D02*
X79547620Y-97352381D01*
X79309524Y-96304762D02*
X79071429Y-97019048D01*
X79690477Y-97019048D01*
X63666667Y-60782381D02*
X63666667Y-61496667D01*
X63619047Y-61639524D01*
X63523809Y-61734762D01*
X63380952Y-61782381D01*
X63285714Y-61782381D01*
X64142857Y-61782381D02*
X64142857Y-60782381D01*
X64523810Y-60782381D01*
X64619048Y-60830000D01*
X64666667Y-60877619D01*
X64714286Y-60972857D01*
X64714286Y-61115714D01*
X64666667Y-61210952D01*
X64619048Y-61258571D01*
X64523810Y-61306190D01*
X64142857Y-61306190D01*
X65666667Y-61782381D02*
X65095238Y-61782381D01*
X65380952Y-61782381D02*
X65380952Y-60782381D01*
X65285714Y-60925238D01*
X65190476Y-61020476D01*
X65095238Y-61068095D01*
X105933334Y-92852381D02*
X105600000Y-92376190D01*
X105361905Y-92852381D02*
X105361905Y-91852381D01*
X105742858Y-91852381D01*
X105838096Y-91900000D01*
X105885715Y-91947619D01*
X105933334Y-92042857D01*
X105933334Y-92185714D01*
X105885715Y-92280952D01*
X105838096Y-92328571D01*
X105742858Y-92376190D01*
X105361905Y-92376190D01*
X106885715Y-92852381D02*
X106314286Y-92852381D01*
X106600000Y-92852381D02*
X106600000Y-91852381D01*
X106504762Y-91995238D01*
X106409524Y-92090476D01*
X106314286Y-92138095D01*
X59643334Y-68442381D02*
X59310000Y-67966190D01*
X59071905Y-68442381D02*
X59071905Y-67442381D01*
X59452858Y-67442381D01*
X59548096Y-67490000D01*
X59595715Y-67537619D01*
X59643334Y-67632857D01*
X59643334Y-67775714D01*
X59595715Y-67870952D01*
X59548096Y-67918571D01*
X59452858Y-67966190D01*
X59071905Y-67966190D01*
X60024286Y-67537619D02*
X60071905Y-67490000D01*
X60167143Y-67442381D01*
X60405239Y-67442381D01*
X60500477Y-67490000D01*
X60548096Y-67537619D01*
X60595715Y-67632857D01*
X60595715Y-67728095D01*
X60548096Y-67870952D01*
X59976667Y-68442381D01*
X60595715Y-68442381D01*
X127433334Y-56852381D02*
X127100000Y-56376190D01*
X126861905Y-56852381D02*
X126861905Y-55852381D01*
X127242858Y-55852381D01*
X127338096Y-55900000D01*
X127385715Y-55947619D01*
X127433334Y-56042857D01*
X127433334Y-56185714D01*
X127385715Y-56280952D01*
X127338096Y-56328571D01*
X127242858Y-56376190D01*
X126861905Y-56376190D01*
X127766667Y-55852381D02*
X128385715Y-55852381D01*
X128052381Y-56233333D01*
X128195239Y-56233333D01*
X128290477Y-56280952D01*
X128338096Y-56328571D01*
X128385715Y-56423810D01*
X128385715Y-56661905D01*
X128338096Y-56757143D01*
X128290477Y-56804762D01*
X128195239Y-56852381D01*
X127909524Y-56852381D01*
X127814286Y-56804762D01*
X127766667Y-56757143D01*
X103233334Y-56952381D02*
X102900000Y-56476190D01*
X102661905Y-56952381D02*
X102661905Y-55952381D01*
X103042858Y-55952381D01*
X103138096Y-56000000D01*
X103185715Y-56047619D01*
X103233334Y-56142857D01*
X103233334Y-56285714D01*
X103185715Y-56380952D01*
X103138096Y-56428571D01*
X103042858Y-56476190D01*
X102661905Y-56476190D01*
X104090477Y-56285714D02*
X104090477Y-56952381D01*
X103852381Y-55904762D02*
X103614286Y-56619048D01*
X104233334Y-56619048D01*
X107033334Y-56952381D02*
X106700000Y-56476190D01*
X106461905Y-56952381D02*
X106461905Y-55952381D01*
X106842858Y-55952381D01*
X106938096Y-56000000D01*
X106985715Y-56047619D01*
X107033334Y-56142857D01*
X107033334Y-56285714D01*
X106985715Y-56380952D01*
X106938096Y-56428571D01*
X106842858Y-56476190D01*
X106461905Y-56476190D01*
X107938096Y-55952381D02*
X107461905Y-55952381D01*
X107414286Y-56428571D01*
X107461905Y-56380952D01*
X107557143Y-56333333D01*
X107795239Y-56333333D01*
X107890477Y-56380952D01*
X107938096Y-56428571D01*
X107985715Y-56523810D01*
X107985715Y-56761905D01*
X107938096Y-56857143D01*
X107890477Y-56904762D01*
X107795239Y-56952381D01*
X107557143Y-56952381D01*
X107461905Y-56904762D01*
X107414286Y-56857143D01*
X105133334Y-56952381D02*
X104800000Y-56476190D01*
X104561905Y-56952381D02*
X104561905Y-55952381D01*
X104942858Y-55952381D01*
X105038096Y-56000000D01*
X105085715Y-56047619D01*
X105133334Y-56142857D01*
X105133334Y-56285714D01*
X105085715Y-56380952D01*
X105038096Y-56428571D01*
X104942858Y-56476190D01*
X104561905Y-56476190D01*
X105990477Y-55952381D02*
X105800000Y-55952381D01*
X105704762Y-56000000D01*
X105657143Y-56047619D01*
X105561905Y-56190476D01*
X105514286Y-56380952D01*
X105514286Y-56761905D01*
X105561905Y-56857143D01*
X105609524Y-56904762D01*
X105704762Y-56952381D01*
X105895239Y-56952381D01*
X105990477Y-56904762D01*
X106038096Y-56857143D01*
X106085715Y-56761905D01*
X106085715Y-56523810D01*
X106038096Y-56428571D01*
X105990477Y-56380952D01*
X105895239Y-56333333D01*
X105704762Y-56333333D01*
X105609524Y-56380952D01*
X105561905Y-56428571D01*
X105514286Y-56523810D01*
X130833334Y-137252381D02*
X130500000Y-136776190D01*
X130261905Y-137252381D02*
X130261905Y-136252381D01*
X130642858Y-136252381D01*
X130738096Y-136300000D01*
X130785715Y-136347619D01*
X130833334Y-136442857D01*
X130833334Y-136585714D01*
X130785715Y-136680952D01*
X130738096Y-136728571D01*
X130642858Y-136776190D01*
X130261905Y-136776190D01*
X131166667Y-136252381D02*
X131833334Y-136252381D01*
X131404762Y-137252381D01*
X133133334Y-137252381D02*
X132800000Y-136776190D01*
X132561905Y-137252381D02*
X132561905Y-136252381D01*
X132942858Y-136252381D01*
X133038096Y-136300000D01*
X133085715Y-136347619D01*
X133133334Y-136442857D01*
X133133334Y-136585714D01*
X133085715Y-136680952D01*
X133038096Y-136728571D01*
X132942858Y-136776190D01*
X132561905Y-136776190D01*
X133704762Y-136680952D02*
X133609524Y-136633333D01*
X133561905Y-136585714D01*
X133514286Y-136490476D01*
X133514286Y-136442857D01*
X133561905Y-136347619D01*
X133609524Y-136300000D01*
X133704762Y-136252381D01*
X133895239Y-136252381D01*
X133990477Y-136300000D01*
X134038096Y-136347619D01*
X134085715Y-136442857D01*
X134085715Y-136490476D01*
X134038096Y-136585714D01*
X133990477Y-136633333D01*
X133895239Y-136680952D01*
X133704762Y-136680952D01*
X133609524Y-136728571D01*
X133561905Y-136776190D01*
X133514286Y-136871429D01*
X133514286Y-137061905D01*
X133561905Y-137157143D01*
X133609524Y-137204762D01*
X133704762Y-137252381D01*
X133895239Y-137252381D01*
X133990477Y-137204762D01*
X134038096Y-137157143D01*
X134085715Y-137061905D01*
X134085715Y-136871429D01*
X134038096Y-136776190D01*
X133990477Y-136728571D01*
X133895239Y-136680952D01*
X128433334Y-137252381D02*
X128100000Y-136776190D01*
X127861905Y-137252381D02*
X127861905Y-136252381D01*
X128242858Y-136252381D01*
X128338096Y-136300000D01*
X128385715Y-136347619D01*
X128433334Y-136442857D01*
X128433334Y-136585714D01*
X128385715Y-136680952D01*
X128338096Y-136728571D01*
X128242858Y-136776190D01*
X127861905Y-136776190D01*
X128909524Y-137252381D02*
X129100000Y-137252381D01*
X129195239Y-137204762D01*
X129242858Y-137157143D01*
X129338096Y-137014286D01*
X129385715Y-136823810D01*
X129385715Y-136442857D01*
X129338096Y-136347619D01*
X129290477Y-136300000D01*
X129195239Y-136252381D01*
X129004762Y-136252381D01*
X128909524Y-136300000D01*
X128861905Y-136347619D01*
X128814286Y-136442857D01*
X128814286Y-136680952D01*
X128861905Y-136776190D01*
X128909524Y-136823810D01*
X129004762Y-136871429D01*
X129195239Y-136871429D01*
X129290477Y-136823810D01*
X129338096Y-136776190D01*
X129385715Y-136680952D01*
D13*
X69821428Y-134807143D02*
X69521428Y-134378571D01*
X69307143Y-134807143D02*
X69307143Y-133907143D01*
X69650000Y-133907143D01*
X69735714Y-133950000D01*
X69778571Y-133992857D01*
X69821428Y-134078571D01*
X69821428Y-134207143D01*
X69778571Y-134292857D01*
X69735714Y-134335714D01*
X69650000Y-134378571D01*
X69307143Y-134378571D01*
X70678571Y-134807143D02*
X70164286Y-134807143D01*
X70421428Y-134807143D02*
X70421428Y-133907143D01*
X70335714Y-134035714D01*
X70250000Y-134121429D01*
X70164286Y-134164286D01*
X71235714Y-133907143D02*
X71321429Y-133907143D01*
X71407143Y-133950000D01*
X71450000Y-133992857D01*
X71492857Y-134078571D01*
X71535714Y-134250000D01*
X71535714Y-134464286D01*
X71492857Y-134635714D01*
X71450000Y-134721429D01*
X71407143Y-134764286D01*
X71321429Y-134807143D01*
X71235714Y-134807143D01*
X71150000Y-134764286D01*
X71107143Y-134721429D01*
X71064286Y-134635714D01*
X71021429Y-134464286D01*
X71021429Y-134250000D01*
X71064286Y-134078571D01*
X71107143Y-133992857D01*
X71150000Y-133950000D01*
X71235714Y-133907143D01*
X72521428Y-134807143D02*
X72221428Y-134378571D01*
X72007143Y-134807143D02*
X72007143Y-133907143D01*
X72350000Y-133907143D01*
X72435714Y-133950000D01*
X72478571Y-133992857D01*
X72521428Y-134078571D01*
X72521428Y-134207143D01*
X72478571Y-134292857D01*
X72435714Y-134335714D01*
X72350000Y-134378571D01*
X72007143Y-134378571D01*
X73378571Y-134807143D02*
X72864286Y-134807143D01*
X73121428Y-134807143D02*
X73121428Y-133907143D01*
X73035714Y-134035714D01*
X72950000Y-134121429D01*
X72864286Y-134164286D01*
X74235714Y-134807143D02*
X73721429Y-134807143D01*
X73978571Y-134807143D02*
X73978571Y-133907143D01*
X73892857Y-134035714D01*
X73807143Y-134121429D01*
X73721429Y-134164286D01*
X67321428Y-134807143D02*
X67021428Y-134378571D01*
X66807143Y-134807143D02*
X66807143Y-133907143D01*
X67150000Y-133907143D01*
X67235714Y-133950000D01*
X67278571Y-133992857D01*
X67321428Y-134078571D01*
X67321428Y-134207143D01*
X67278571Y-134292857D01*
X67235714Y-134335714D01*
X67150000Y-134378571D01*
X66807143Y-134378571D01*
X68178571Y-134807143D02*
X67664286Y-134807143D01*
X67921428Y-134807143D02*
X67921428Y-133907143D01*
X67835714Y-134035714D01*
X67750000Y-134121429D01*
X67664286Y-134164286D01*
X68521429Y-133992857D02*
X68564286Y-133950000D01*
X68650000Y-133907143D01*
X68864286Y-133907143D01*
X68950000Y-133950000D01*
X68992857Y-133992857D01*
X69035714Y-134078571D01*
X69035714Y-134164286D01*
X68992857Y-134292857D01*
X68478571Y-134807143D01*
X69035714Y-134807143D01*
D14*
X63238095Y-50452381D02*
X63809524Y-50452381D01*
X63523809Y-51452381D02*
X63523809Y-50452381D01*
X64142857Y-51452381D02*
X64142857Y-50452381D01*
X64523810Y-50452381D01*
X64619048Y-50500000D01*
X64666667Y-50547619D01*
X64714286Y-50642857D01*
X64714286Y-50785714D01*
X64666667Y-50880952D01*
X64619048Y-50928571D01*
X64523810Y-50976190D01*
X64142857Y-50976190D01*
X65666667Y-51452381D02*
X65095238Y-51452381D01*
X65380952Y-51452381D02*
X65380952Y-50452381D01*
X65285714Y-50595238D01*
X65190476Y-50690476D01*
X65095238Y-50738095D01*
X63166667Y-53652381D02*
X63500000Y-54652381D01*
X63833334Y-53652381D01*
X64166667Y-54652381D02*
X64166667Y-53652381D01*
X64404762Y-53652381D01*
X64547620Y-53700000D01*
X64642858Y-53795238D01*
X64690477Y-53890476D01*
X64738096Y-54080952D01*
X64738096Y-54223810D01*
X64690477Y-54414286D01*
X64642858Y-54509524D01*
X64547620Y-54604762D01*
X64404762Y-54652381D01*
X64166667Y-54652381D01*
X65738096Y-54557143D02*
X65690477Y-54604762D01*
X65547620Y-54652381D01*
X65452382Y-54652381D01*
X65309524Y-54604762D01*
X65214286Y-54509524D01*
X65166667Y-54414286D01*
X65119048Y-54223810D01*
X65119048Y-54080952D01*
X65166667Y-53890476D01*
X65214286Y-53795238D01*
X65309524Y-53700000D01*
X65452382Y-53652381D01*
X65547620Y-53652381D01*
X65690477Y-53700000D01*
X65738096Y-53747619D01*
X51438095Y-73652381D02*
X52009524Y-73652381D01*
X51723809Y-74652381D02*
X51723809Y-73652381D01*
X52342857Y-74652381D02*
X52342857Y-73652381D01*
X52723810Y-73652381D01*
X52819048Y-73700000D01*
X52866667Y-73747619D01*
X52914286Y-73842857D01*
X52914286Y-73985714D01*
X52866667Y-74080952D01*
X52819048Y-74128571D01*
X52723810Y-74176190D01*
X52342857Y-74176190D01*
X53295238Y-73747619D02*
X53342857Y-73700000D01*
X53438095Y-73652381D01*
X53676191Y-73652381D01*
X53771429Y-73700000D01*
X53819048Y-73747619D01*
X53866667Y-73842857D01*
X53866667Y-73938095D01*
X53819048Y-74080952D01*
X53247619Y-74652381D01*
X53866667Y-74652381D01*
X51842858Y-78652381D02*
X51271429Y-78652381D01*
X51557143Y-78652381D02*
X51557143Y-77652381D01*
X51461905Y-77795238D01*
X51366667Y-77890476D01*
X51271429Y-77938095D01*
X52271429Y-78557143D02*
X52319048Y-78604762D01*
X52271429Y-78652381D01*
X52223810Y-78604762D01*
X52271429Y-78557143D01*
X52271429Y-78652381D01*
X52890476Y-78080952D02*
X52795238Y-78033333D01*
X52747619Y-77985714D01*
X52700000Y-77890476D01*
X52700000Y-77842857D01*
X52747619Y-77747619D01*
X52795238Y-77700000D01*
X52890476Y-77652381D01*
X53080953Y-77652381D01*
X53176191Y-77700000D01*
X53223810Y-77747619D01*
X53271429Y-77842857D01*
X53271429Y-77890476D01*
X53223810Y-77985714D01*
X53176191Y-78033333D01*
X53080953Y-78080952D01*
X52890476Y-78080952D01*
X52795238Y-78128571D01*
X52747619Y-78176190D01*
X52700000Y-78271429D01*
X52700000Y-78461905D01*
X52747619Y-78557143D01*
X52795238Y-78604762D01*
X52890476Y-78652381D01*
X53080953Y-78652381D01*
X53176191Y-78604762D01*
X53223810Y-78557143D01*
X53271429Y-78461905D01*
X53271429Y-78271429D01*
X53223810Y-78176190D01*
X53176191Y-78128571D01*
X53080953Y-78080952D01*
X53557143Y-77652381D02*
X53890476Y-78652381D01*
X54223810Y-77652381D01*
X51438095Y-81652381D02*
X52009524Y-81652381D01*
X51723809Y-82652381D02*
X51723809Y-81652381D01*
X52342857Y-82652381D02*
X52342857Y-81652381D01*
X52723810Y-81652381D01*
X52819048Y-81700000D01*
X52866667Y-81747619D01*
X52914286Y-81842857D01*
X52914286Y-81985714D01*
X52866667Y-82080952D01*
X52819048Y-82128571D01*
X52723810Y-82176190D01*
X52342857Y-82176190D01*
X53247619Y-81652381D02*
X53866667Y-81652381D01*
X53533333Y-82033333D01*
X53676191Y-82033333D01*
X53771429Y-82080952D01*
X53819048Y-82128571D01*
X53866667Y-82223810D01*
X53866667Y-82461905D01*
X53819048Y-82557143D01*
X53771429Y-82604762D01*
X53676191Y-82652381D01*
X53390476Y-82652381D01*
X53295238Y-82604762D01*
X53247619Y-82557143D01*
X51223810Y-85652381D02*
X51842858Y-85652381D01*
X51509524Y-86033333D01*
X51652382Y-86033333D01*
X51747620Y-86080952D01*
X51795239Y-86128571D01*
X51842858Y-86223810D01*
X51842858Y-86461905D01*
X51795239Y-86557143D01*
X51747620Y-86604762D01*
X51652382Y-86652381D01*
X51366667Y-86652381D01*
X51271429Y-86604762D01*
X51223810Y-86557143D01*
X52271429Y-86557143D02*
X52319048Y-86604762D01*
X52271429Y-86652381D01*
X52223810Y-86604762D01*
X52271429Y-86557143D01*
X52271429Y-86652381D01*
X52652381Y-85652381D02*
X53271429Y-85652381D01*
X52938095Y-86033333D01*
X53080953Y-86033333D01*
X53176191Y-86080952D01*
X53223810Y-86128571D01*
X53271429Y-86223810D01*
X53271429Y-86461905D01*
X53223810Y-86557143D01*
X53176191Y-86604762D01*
X53080953Y-86652381D01*
X52795238Y-86652381D01*
X52700000Y-86604762D01*
X52652381Y-86557143D01*
X53557143Y-85652381D02*
X53890476Y-86652381D01*
X54223810Y-85652381D01*
D13*
X102764286Y-88607143D02*
X103278572Y-88607143D01*
X103021429Y-89507143D02*
X103021429Y-88607143D01*
X103578572Y-89507143D02*
X103578572Y-88607143D01*
X103921429Y-88607143D01*
X104007143Y-88650000D01*
X104050000Y-88692857D01*
X104092857Y-88778571D01*
X104092857Y-88907143D01*
X104050000Y-88992857D01*
X104007143Y-89035714D01*
X103921429Y-89078571D01*
X103578572Y-89078571D01*
X104907143Y-88607143D02*
X104478572Y-88607143D01*
X104435715Y-89035714D01*
X104478572Y-88992857D01*
X104564286Y-88950000D01*
X104778572Y-88950000D01*
X104864286Y-88992857D01*
X104907143Y-89035714D01*
X104950000Y-89121429D01*
X104950000Y-89335714D01*
X104907143Y-89421429D01*
X104864286Y-89464286D01*
X104778572Y-89507143D01*
X104564286Y-89507143D01*
X104478572Y-89464286D01*
X104435715Y-89421429D01*
X103128571Y-89807143D02*
X103728571Y-90707143D01*
X103728571Y-89807143D02*
X103128571Y-90707143D01*
X104242857Y-89807143D02*
X104414286Y-89807143D01*
X104500000Y-89850000D01*
X104585714Y-89935714D01*
X104628572Y-90107143D01*
X104628572Y-90407143D01*
X104585714Y-90578571D01*
X104500000Y-90664286D01*
X104414286Y-90707143D01*
X104242857Y-90707143D01*
X104157143Y-90664286D01*
X104071429Y-90578571D01*
X104028572Y-90407143D01*
X104028572Y-90107143D01*
X104071429Y-89935714D01*
X104157143Y-89850000D01*
X104242857Y-89807143D01*
X98964286Y-88607143D02*
X99478572Y-88607143D01*
X99221429Y-89507143D02*
X99221429Y-88607143D01*
X99778572Y-89507143D02*
X99778572Y-88607143D01*
X100121429Y-88607143D01*
X100207143Y-88650000D01*
X100250000Y-88692857D01*
X100292857Y-88778571D01*
X100292857Y-88907143D01*
X100250000Y-88992857D01*
X100207143Y-89035714D01*
X100121429Y-89078571D01*
X99778572Y-89078571D01*
X101064286Y-88607143D02*
X100892857Y-88607143D01*
X100807143Y-88650000D01*
X100764286Y-88692857D01*
X100678572Y-88821429D01*
X100635715Y-88992857D01*
X100635715Y-89335714D01*
X100678572Y-89421429D01*
X100721429Y-89464286D01*
X100807143Y-89507143D01*
X100978572Y-89507143D01*
X101064286Y-89464286D01*
X101107143Y-89421429D01*
X101150000Y-89335714D01*
X101150000Y-89121429D01*
X101107143Y-89035714D01*
X101064286Y-88992857D01*
X100978572Y-88950000D01*
X100807143Y-88950000D01*
X100721429Y-88992857D01*
X100678572Y-89035714D01*
X100635715Y-89121429D01*
X99414286Y-89807143D02*
X99928572Y-89807143D01*
X99671429Y-90707143D02*
X99671429Y-89807143D01*
X100700000Y-90707143D02*
X100185715Y-90707143D01*
X100442857Y-90707143D02*
X100442857Y-89807143D01*
X100357143Y-89935714D01*
X100271429Y-90021429D01*
X100185715Y-90064286D01*
X97164286Y-95507143D02*
X97678572Y-95507143D01*
X97421429Y-96407143D02*
X97421429Y-95507143D01*
X97978572Y-96407143D02*
X97978572Y-95507143D01*
X98321429Y-95507143D01*
X98407143Y-95550000D01*
X98450000Y-95592857D01*
X98492857Y-95678571D01*
X98492857Y-95807143D01*
X98450000Y-95892857D01*
X98407143Y-95935714D01*
X98321429Y-95978571D01*
X97978572Y-95978571D01*
X98792857Y-95507143D02*
X99392857Y-95507143D01*
X99007143Y-96407143D01*
X97614286Y-96607143D02*
X98128572Y-96607143D01*
X97871429Y-97507143D02*
X97871429Y-96607143D01*
X98385715Y-96692857D02*
X98428572Y-96650000D01*
X98514286Y-96607143D01*
X98728572Y-96607143D01*
X98814286Y-96650000D01*
X98857143Y-96692857D01*
X98900000Y-96778571D01*
X98900000Y-96864286D01*
X98857143Y-96992857D01*
X98342857Y-97507143D01*
X98900000Y-97507143D01*
D14*
X79038095Y-86452381D02*
X79038095Y-87261905D01*
X79085714Y-87357143D01*
X79133333Y-87404762D01*
X79228571Y-87452381D01*
X79419048Y-87452381D01*
X79514286Y-87404762D01*
X79561905Y-87357143D01*
X79609524Y-87261905D01*
X79609524Y-86452381D01*
X80609524Y-87452381D02*
X80038095Y-87452381D01*
X80323809Y-87452381D02*
X80323809Y-86452381D01*
X80228571Y-86595238D01*
X80133333Y-86690476D01*
X80038095Y-86738095D01*
X61088095Y-77552381D02*
X61088095Y-78361905D01*
X61135714Y-78457143D01*
X61183333Y-78504762D01*
X61278571Y-78552381D01*
X61469048Y-78552381D01*
X61564286Y-78504762D01*
X61611905Y-78457143D01*
X61659524Y-78361905D01*
X61659524Y-77552381D01*
X62088095Y-77647619D02*
X62135714Y-77600000D01*
X62230952Y-77552381D01*
X62469048Y-77552381D01*
X62564286Y-77600000D01*
X62611905Y-77647619D01*
X62659524Y-77742857D01*
X62659524Y-77838095D01*
X62611905Y-77980952D01*
X62040476Y-78552381D01*
X62659524Y-78552381D01*
X61088095Y-85552381D02*
X61088095Y-86361905D01*
X61135714Y-86457143D01*
X61183333Y-86504762D01*
X61278571Y-86552381D01*
X61469048Y-86552381D01*
X61564286Y-86504762D01*
X61611905Y-86457143D01*
X61659524Y-86361905D01*
X61659524Y-85552381D01*
X62040476Y-85552381D02*
X62659524Y-85552381D01*
X62326190Y-85933333D01*
X62469048Y-85933333D01*
X62564286Y-85980952D01*
X62611905Y-86028571D01*
X62659524Y-86123810D01*
X62659524Y-86361905D01*
X62611905Y-86457143D01*
X62564286Y-86504762D01*
X62469048Y-86552381D01*
X62183333Y-86552381D01*
X62088095Y-86504762D01*
X62040476Y-86457143D01*
X61088095Y-93552381D02*
X61088095Y-94361905D01*
X61135714Y-94457143D01*
X61183333Y-94504762D01*
X61278571Y-94552381D01*
X61469048Y-94552381D01*
X61564286Y-94504762D01*
X61611905Y-94457143D01*
X61659524Y-94361905D01*
X61659524Y-93552381D01*
X62564286Y-93885714D02*
X62564286Y-94552381D01*
X62326190Y-93504762D02*
X62088095Y-94219048D01*
X62707143Y-94219048D01*
X124338095Y-70852381D02*
X124338095Y-71661905D01*
X124385714Y-71757143D01*
X124433333Y-71804762D01*
X124528571Y-71852381D01*
X124719048Y-71852381D01*
X124814286Y-71804762D01*
X124861905Y-71757143D01*
X124909524Y-71661905D01*
X124909524Y-70852381D01*
X125861905Y-70852381D02*
X125385714Y-70852381D01*
X125338095Y-71328571D01*
X125385714Y-71280952D01*
X125480952Y-71233333D01*
X125719048Y-71233333D01*
X125814286Y-71280952D01*
X125861905Y-71328571D01*
X125909524Y-71423810D01*
X125909524Y-71661905D01*
X125861905Y-71757143D01*
X125814286Y-71804762D01*
X125719048Y-71852381D01*
X125480952Y-71852381D01*
X125385714Y-71804762D01*
X125338095Y-71757143D01*
X101390476Y-78552381D02*
X102057143Y-79552381D01*
X102057143Y-78552381D02*
X101390476Y-79552381D01*
X102961905Y-79552381D02*
X102390476Y-79552381D01*
X102676190Y-79552381D02*
X102676190Y-78552381D01*
X102580952Y-78695238D01*
X102485714Y-78790476D01*
X102390476Y-78838095D01*
X100238095Y-81052381D02*
X100809524Y-81052381D01*
X100523809Y-82052381D02*
X100523809Y-81052381D01*
X101142857Y-82052381D02*
X101142857Y-81052381D01*
X101523810Y-81052381D01*
X101619048Y-81100000D01*
X101666667Y-81147619D01*
X101714286Y-81242857D01*
X101714286Y-81385714D01*
X101666667Y-81480952D01*
X101619048Y-81528571D01*
X101523810Y-81576190D01*
X101142857Y-81576190D01*
X102190476Y-82052381D02*
X102380952Y-82052381D01*
X102476191Y-82004762D01*
X102523810Y-81957143D01*
X102619048Y-81814286D01*
X102666667Y-81623810D01*
X102666667Y-81242857D01*
X102619048Y-81147619D01*
X102571429Y-81100000D01*
X102476191Y-81052381D01*
X102285714Y-81052381D01*
X102190476Y-81100000D01*
X102142857Y-81147619D01*
X102095238Y-81242857D01*
X102095238Y-81480952D01*
X102142857Y-81576190D01*
X102190476Y-81623810D01*
X102285714Y-81671429D01*
X102476191Y-81671429D01*
X102571429Y-81623810D01*
X102619048Y-81576190D01*
X102666667Y-81480952D01*
X98523809Y-85404762D02*
X98666666Y-85452381D01*
X98904762Y-85452381D01*
X99000000Y-85404762D01*
X99047619Y-85357143D01*
X99095238Y-85261905D01*
X99095238Y-85166667D01*
X99047619Y-85071429D01*
X99000000Y-85023810D01*
X98904762Y-84976190D01*
X98714285Y-84928571D01*
X98619047Y-84880952D01*
X98571428Y-84833333D01*
X98523809Y-84738095D01*
X98523809Y-84642857D01*
X98571428Y-84547619D01*
X98619047Y-84500000D01*
X98714285Y-84452381D01*
X98952381Y-84452381D01*
X99095238Y-84500000D01*
X99714285Y-84976190D02*
X99714285Y-85452381D01*
X99380952Y-84452381D02*
X99714285Y-84976190D01*
X100047619Y-84452381D01*
X100333333Y-85404762D02*
X100476190Y-85452381D01*
X100714286Y-85452381D01*
X100809524Y-85404762D01*
X100857143Y-85357143D01*
X100904762Y-85261905D01*
X100904762Y-85166667D01*
X100857143Y-85071429D01*
X100809524Y-85023810D01*
X100714286Y-84976190D01*
X100523809Y-84928571D01*
X100428571Y-84880952D01*
X100380952Y-84833333D01*
X100333333Y-84738095D01*
X100333333Y-84642857D01*
X100380952Y-84547619D01*
X100428571Y-84500000D01*
X100523809Y-84452381D01*
X100761905Y-84452381D01*
X100904762Y-84500000D01*
X101095238Y-85547619D02*
X101857143Y-85547619D01*
X102666667Y-85357143D02*
X102619048Y-85404762D01*
X102476191Y-85452381D01*
X102380953Y-85452381D01*
X102238095Y-85404762D01*
X102142857Y-85309524D01*
X102095238Y-85214286D01*
X102047619Y-85023810D01*
X102047619Y-84880952D01*
X102095238Y-84690476D01*
X102142857Y-84595238D01*
X102238095Y-84500000D01*
X102380953Y-84452381D01*
X102476191Y-84452381D01*
X102619048Y-84500000D01*
X102666667Y-84547619D01*
X103571429Y-85452381D02*
X103095238Y-85452381D01*
X103095238Y-84452381D01*
X103904762Y-85452381D02*
X103904762Y-84452381D01*
X104476191Y-85452381D02*
X104047619Y-84880952D01*
X104476191Y-84452381D02*
X103904762Y-85023810D01*
X122666667Y-53452381D02*
X122666667Y-54166667D01*
X122619047Y-54309524D01*
X122523809Y-54404762D01*
X122380952Y-54452381D01*
X122285714Y-54452381D01*
X123047619Y-53452381D02*
X123714286Y-53452381D01*
X123285714Y-54452381D01*
X71061905Y-74752381D02*
X71061905Y-73752381D01*
X71300000Y-73752381D01*
X71442858Y-73800000D01*
X71538096Y-73895238D01*
X71585715Y-73990476D01*
X71633334Y-74180952D01*
X71633334Y-74323810D01*
X71585715Y-74514286D01*
X71538096Y-74609524D01*
X71442858Y-74704762D01*
X71300000Y-74752381D01*
X71061905Y-74752381D01*
X72204762Y-74180952D02*
X72109524Y-74133333D01*
X72061905Y-74085714D01*
X72014286Y-73990476D01*
X72014286Y-73942857D01*
X72061905Y-73847619D01*
X72109524Y-73800000D01*
X72204762Y-73752381D01*
X72395239Y-73752381D01*
X72490477Y-73800000D01*
X72538096Y-73847619D01*
X72585715Y-73942857D01*
X72585715Y-73990476D01*
X72538096Y-74085714D01*
X72490477Y-74133333D01*
X72395239Y-74180952D01*
X72204762Y-74180952D01*
X72109524Y-74228571D01*
X72061905Y-74276190D01*
X72014286Y-74371429D01*
X72014286Y-74561905D01*
X72061905Y-74657143D01*
X72109524Y-74704762D01*
X72204762Y-74752381D01*
X72395239Y-74752381D01*
X72490477Y-74704762D01*
X72538096Y-74657143D01*
X72585715Y-74561905D01*
X72585715Y-74371429D01*
X72538096Y-74276190D01*
X72490477Y-74228571D01*
X72395239Y-74180952D01*
X74861905Y-74752381D02*
X74861905Y-73752381D01*
X75100000Y-73752381D01*
X75242858Y-73800000D01*
X75338096Y-73895238D01*
X75385715Y-73990476D01*
X75433334Y-74180952D01*
X75433334Y-74323810D01*
X75385715Y-74514286D01*
X75338096Y-74609524D01*
X75242858Y-74704762D01*
X75100000Y-74752381D01*
X74861905Y-74752381D01*
X75909524Y-74752381D02*
X76100000Y-74752381D01*
X76195239Y-74704762D01*
X76242858Y-74657143D01*
X76338096Y-74514286D01*
X76385715Y-74323810D01*
X76385715Y-73942857D01*
X76338096Y-73847619D01*
X76290477Y-73800000D01*
X76195239Y-73752381D01*
X76004762Y-73752381D01*
X75909524Y-73800000D01*
X75861905Y-73847619D01*
X75814286Y-73942857D01*
X75814286Y-74180952D01*
X75861905Y-74276190D01*
X75909524Y-74323810D01*
X76004762Y-74371429D01*
X76195239Y-74371429D01*
X76290477Y-74323810D01*
X76338096Y-74276190D01*
X76385715Y-74180952D01*
X98785714Y-71552381D02*
X98785714Y-70552381D01*
X99023809Y-70552381D01*
X99166667Y-70600000D01*
X99261905Y-70695238D01*
X99309524Y-70790476D01*
X99357143Y-70980952D01*
X99357143Y-71123810D01*
X99309524Y-71314286D01*
X99261905Y-71409524D01*
X99166667Y-71504762D01*
X99023809Y-71552381D01*
X98785714Y-71552381D01*
X100309524Y-71552381D02*
X99738095Y-71552381D01*
X100023809Y-71552381D02*
X100023809Y-70552381D01*
X99928571Y-70695238D01*
X99833333Y-70790476D01*
X99738095Y-70838095D01*
X100928571Y-70552381D02*
X101023810Y-70552381D01*
X101119048Y-70600000D01*
X101166667Y-70647619D01*
X101214286Y-70742857D01*
X101261905Y-70933333D01*
X101261905Y-71171429D01*
X101214286Y-71361905D01*
X101166667Y-71457143D01*
X101119048Y-71504762D01*
X101023810Y-71552381D01*
X100928571Y-71552381D01*
X100833333Y-71504762D01*
X100785714Y-71457143D01*
X100738095Y-71361905D01*
X100690476Y-71171429D01*
X100690476Y-70933333D01*
X100738095Y-70742857D01*
X100785714Y-70647619D01*
X100833333Y-70600000D01*
X100928571Y-70552381D01*
X102285714Y-71552381D02*
X102285714Y-70552381D01*
X102523809Y-70552381D01*
X102666667Y-70600000D01*
X102761905Y-70695238D01*
X102809524Y-70790476D01*
X102857143Y-70980952D01*
X102857143Y-71123810D01*
X102809524Y-71314286D01*
X102761905Y-71409524D01*
X102666667Y-71504762D01*
X102523809Y-71552381D01*
X102285714Y-71552381D01*
X103809524Y-71552381D02*
X103238095Y-71552381D01*
X103523809Y-71552381D02*
X103523809Y-70552381D01*
X103428571Y-70695238D01*
X103333333Y-70790476D01*
X103238095Y-70838095D01*
X104761905Y-71552381D02*
X104190476Y-71552381D01*
X104476190Y-71552381D02*
X104476190Y-70552381D01*
X104380952Y-70695238D01*
X104285714Y-70790476D01*
X104190476Y-70838095D01*
X71157143Y-70352381D02*
X70823809Y-69876190D01*
X70585714Y-70352381D02*
X70585714Y-69352381D01*
X70966667Y-69352381D01*
X71061905Y-69400000D01*
X71109524Y-69447619D01*
X71157143Y-69542857D01*
X71157143Y-69685714D01*
X71109524Y-69780952D01*
X71061905Y-69828571D01*
X70966667Y-69876190D01*
X70585714Y-69876190D01*
X72109524Y-70352381D02*
X71538095Y-70352381D01*
X71823809Y-70352381D02*
X71823809Y-69352381D01*
X71728571Y-69495238D01*
X71633333Y-69590476D01*
X71538095Y-69638095D01*
X72442857Y-69352381D02*
X73061905Y-69352381D01*
X72728571Y-69733333D01*
X72871429Y-69733333D01*
X72966667Y-69780952D01*
X73014286Y-69828571D01*
X73061905Y-69923810D01*
X73061905Y-70161905D01*
X73014286Y-70257143D01*
X72966667Y-70304762D01*
X72871429Y-70352381D01*
X72585714Y-70352381D01*
X72490476Y-70304762D01*
X72442857Y-70257143D01*
X74857143Y-70302381D02*
X74523809Y-69826190D01*
X74285714Y-70302381D02*
X74285714Y-69302381D01*
X74666667Y-69302381D01*
X74761905Y-69350000D01*
X74809524Y-69397619D01*
X74857143Y-69492857D01*
X74857143Y-69635714D01*
X74809524Y-69730952D01*
X74761905Y-69778571D01*
X74666667Y-69826190D01*
X74285714Y-69826190D01*
X75809524Y-70302381D02*
X75238095Y-70302381D01*
X75523809Y-70302381D02*
X75523809Y-69302381D01*
X75428571Y-69445238D01*
X75333333Y-69540476D01*
X75238095Y-69588095D01*
X76666667Y-69635714D02*
X76666667Y-70302381D01*
X76428571Y-69254762D02*
X76190476Y-69969048D01*
X76809524Y-69969048D01*
X99357143Y-70252381D02*
X99023809Y-69776190D01*
X98785714Y-70252381D02*
X98785714Y-69252381D01*
X99166667Y-69252381D01*
X99261905Y-69300000D01*
X99309524Y-69347619D01*
X99357143Y-69442857D01*
X99357143Y-69585714D01*
X99309524Y-69680952D01*
X99261905Y-69728571D01*
X99166667Y-69776190D01*
X98785714Y-69776190D01*
X100309524Y-70252381D02*
X99738095Y-70252381D01*
X100023809Y-70252381D02*
X100023809Y-69252381D01*
X99928571Y-69395238D01*
X99833333Y-69490476D01*
X99738095Y-69538095D01*
X101214286Y-69252381D02*
X100738095Y-69252381D01*
X100690476Y-69728571D01*
X100738095Y-69680952D01*
X100833333Y-69633333D01*
X101071429Y-69633333D01*
X101166667Y-69680952D01*
X101214286Y-69728571D01*
X101261905Y-69823810D01*
X101261905Y-70061905D01*
X101214286Y-70157143D01*
X101166667Y-70204762D01*
X101071429Y-70252381D01*
X100833333Y-70252381D01*
X100738095Y-70204762D01*
X100690476Y-70157143D01*
X102857143Y-70252381D02*
X102523809Y-69776190D01*
X102285714Y-70252381D02*
X102285714Y-69252381D01*
X102666667Y-69252381D01*
X102761905Y-69300000D01*
X102809524Y-69347619D01*
X102857143Y-69442857D01*
X102857143Y-69585714D01*
X102809524Y-69680952D01*
X102761905Y-69728571D01*
X102666667Y-69776190D01*
X102285714Y-69776190D01*
X103809524Y-70252381D02*
X103238095Y-70252381D01*
X103523809Y-70252381D02*
X103523809Y-69252381D01*
X103428571Y-69395238D01*
X103333333Y-69490476D01*
X103238095Y-69538095D01*
X104666667Y-69252381D02*
X104476190Y-69252381D01*
X104380952Y-69300000D01*
X104333333Y-69347619D01*
X104238095Y-69490476D01*
X104190476Y-69680952D01*
X104190476Y-70061905D01*
X104238095Y-70157143D01*
X104285714Y-70204762D01*
X104380952Y-70252381D01*
X104571429Y-70252381D01*
X104666667Y-70204762D01*
X104714286Y-70157143D01*
X104761905Y-70061905D01*
X104761905Y-69823810D01*
X104714286Y-69728571D01*
X104666667Y-69680952D01*
X104571429Y-69633333D01*
X104380952Y-69633333D01*
X104285714Y-69680952D01*
X104238095Y-69728571D01*
X104190476Y-69823810D01*
X88666667Y-53004762D02*
X88809524Y-53052381D01*
X89047620Y-53052381D01*
X89142858Y-53004762D01*
X89190477Y-52957143D01*
X89238096Y-52861905D01*
X89238096Y-52766667D01*
X89190477Y-52671429D01*
X89142858Y-52623810D01*
X89047620Y-52576190D01*
X88857143Y-52528571D01*
X88761905Y-52480952D01*
X88714286Y-52433333D01*
X88666667Y-52338095D01*
X88666667Y-52242857D01*
X88714286Y-52147619D01*
X88761905Y-52100000D01*
X88857143Y-52052381D01*
X89095239Y-52052381D01*
X89238096Y-52100000D01*
X89571429Y-52052381D02*
X89809524Y-53052381D01*
X90000001Y-52338095D01*
X90190477Y-53052381D01*
X90428572Y-52052381D01*
X91333334Y-53052381D02*
X90761905Y-53052381D01*
X91047619Y-53052381D02*
X91047619Y-52052381D01*
X90952381Y-52195238D01*
X90857143Y-52290476D01*
X90761905Y-52338095D01*
M02*
