G04 #@! TF.GenerationSoftware,KiCad,Pcbnew,5.1.6-c6e7f7d~86~ubuntu20.04.1*
G04 #@! TF.CreationDate,2020-05-17T16:05:01+03:00*
G04 #@! TF.ProjectId,GB-BENCH-G1,47422d42-454e-4434-982d-47312e6b6963,rev?*
G04 #@! TF.SameCoordinates,Original*
G04 #@! TF.FileFunction,Soldermask,Top*
G04 #@! TF.FilePolarity,Negative*
%FSLAX46Y46*%
G04 Gerber Fmt 4.6, Leading zero omitted, Abs format (unit mm)*
G04 Created by KiCad (PCBNEW 5.1.6-c6e7f7d~86~ubuntu20.04.1) date 2020-05-17 16:05:01*
%MOMM*%
%LPD*%
G01*
G04 APERTURE LIST*
G04 #@! TA.AperFunction,Profile*
%ADD10C,0.150000*%
G04 #@! TD*
%ADD11R,0.600000X2.200000*%
%ADD12C,3.000000*%
%ADD13R,2.200000X0.600000*%
%ADD14R,0.500000X2.000000*%
%ADD15R,2.000000X0.500000*%
%ADD16C,1.143000*%
%ADD17R,1.727200X1.727200*%
%ADD18O,1.727200X1.727200*%
%ADD19R,1.000000X1.600000*%
%ADD20R,0.750000X0.800000*%
%ADD21R,0.800000X0.750000*%
%ADD22R,1.600000X1.000000*%
%ADD23R,1.250000X1.000000*%
%ADD24R,1.800000X1.800000*%
%ADD25C,1.800000*%
%ADD26R,0.800000X0.800000*%
%ADD27R,1.140000X2.030000*%
%ADD28R,1.700000X1.700000*%
%ADD29O,1.700000X1.700000*%
%ADD30R,1.000000X2.500000*%
%ADD31R,2.500000X4.000000*%
%ADD32R,0.500000X0.900000*%
%ADD33C,1.600000*%
%ADD34O,1.600000X1.600000*%
%ADD35R,0.900000X0.500000*%
%ADD36R,0.300000X1.500000*%
%ADD37R,1.500000X0.300000*%
%ADD38C,0.100000*%
%ADD39R,1.500000X1.000000*%
%ADD40R,1.800000X1.000000*%
%ADD41R,1.840000X2.200000*%
%ADD42R,0.900000X1.000000*%
%ADD43R,2.300000X4.600000*%
%ADD44R,3.000000X4.000000*%
%ADD45R,4.500000X3.000000*%
G04 APERTURE END LIST*
D10*
X77000000Y-139000000D02*
X77000000Y-150000000D01*
X123000000Y-139000000D02*
X77000000Y-139000000D01*
X123000000Y-150000000D02*
X123000000Y-139000000D01*
X123000000Y-150000000D02*
X150000000Y-150000000D01*
X50000000Y-150000000D02*
X77000000Y-150000000D01*
X150000000Y-50000000D02*
X150000000Y-150000000D01*
X50000000Y-50000000D02*
X50000000Y-150000000D01*
X50000000Y-50000000D02*
X150000000Y-50000000D01*
D11*
X131745000Y-100500000D03*
X131745000Y-111500000D03*
X133015000Y-100500000D03*
X133015000Y-111500000D03*
X134285000Y-100500000D03*
X134285000Y-111500000D03*
X135555000Y-100500000D03*
X135555000Y-111500000D03*
X136825000Y-100500000D03*
X136825000Y-111500000D03*
X138095000Y-100500000D03*
X138095000Y-111500000D03*
X139365000Y-100500000D03*
X139365000Y-111500000D03*
X140635000Y-100500000D03*
X140635000Y-111500000D03*
X141905000Y-100500000D03*
X141905000Y-111500000D03*
X143175000Y-100500000D03*
X143175000Y-111500000D03*
X144445000Y-100500000D03*
X144445000Y-111500000D03*
X145715000Y-100500000D03*
X145715000Y-111500000D03*
X146985000Y-100500000D03*
X146985000Y-111500000D03*
X148255000Y-100500000D03*
X148255000Y-111500000D03*
D12*
X58100000Y-97200000D03*
X53020000Y-97200000D03*
D13*
X75700000Y-104760000D03*
X64700000Y-104760000D03*
X75700000Y-106030000D03*
X64700000Y-106030000D03*
X75700000Y-107300000D03*
X64700000Y-107300000D03*
X75700000Y-108570000D03*
X64700000Y-108570000D03*
X75700000Y-109840000D03*
X64700000Y-109840000D03*
X75700000Y-111110000D03*
X64700000Y-111110000D03*
X75700000Y-112380000D03*
X64700000Y-112380000D03*
X75700000Y-113650000D03*
X64700000Y-113650000D03*
X75700000Y-114920000D03*
X64700000Y-114920000D03*
X75700000Y-116190000D03*
X64700000Y-116190000D03*
X75700000Y-117460000D03*
X64700000Y-117460000D03*
X75700000Y-118730000D03*
X64700000Y-118730000D03*
X75700000Y-120000000D03*
X64700000Y-120000000D03*
X75700000Y-121270000D03*
X64700000Y-121270000D03*
D14*
X108400000Y-99500000D03*
D15*
X111200000Y-102000000D03*
X93600000Y-102000000D03*
X93600000Y-102800000D03*
X93600000Y-103600000D03*
X93600000Y-104400000D03*
X93600000Y-105200000D03*
X93600000Y-106000000D03*
X93600000Y-106800000D03*
X93600000Y-107600000D03*
X93600000Y-108400000D03*
X93600000Y-109200000D03*
X93600000Y-110000000D03*
X93600000Y-110800000D03*
X93600000Y-111600000D03*
X93600000Y-112400000D03*
X93600000Y-113200000D03*
X93600000Y-114000000D03*
X93600000Y-114800000D03*
X93600000Y-115600000D03*
X93600000Y-116400000D03*
X93600000Y-117200000D03*
X93600000Y-118000000D03*
X93600000Y-118800000D03*
X93600000Y-119600000D03*
X93600000Y-120400000D03*
D14*
X96400000Y-122900000D03*
X97200000Y-122900000D03*
X98000000Y-122900000D03*
X98800000Y-122900000D03*
X99600000Y-122900000D03*
X100400000Y-122900000D03*
X101200000Y-122900000D03*
X102000000Y-122900000D03*
X102800000Y-122900000D03*
X103600000Y-122900000D03*
X104400000Y-122900000D03*
X105200000Y-122900000D03*
X106000000Y-122900000D03*
X106800000Y-122900000D03*
X107600000Y-122900000D03*
X108400000Y-122900000D03*
D15*
X111200000Y-102800000D03*
X111200000Y-103600000D03*
X111200000Y-104400000D03*
X111200000Y-105200000D03*
X111200000Y-106000000D03*
X111200000Y-106800000D03*
X111200000Y-107600000D03*
X111200000Y-108400000D03*
X111200000Y-109200000D03*
X111200000Y-110000000D03*
X111200000Y-110800000D03*
X111200000Y-111600000D03*
X111200000Y-112400000D03*
X111200000Y-113200000D03*
X111200000Y-114000000D03*
X111200000Y-114800000D03*
X111200000Y-115600000D03*
X111200000Y-116400000D03*
X111200000Y-117200000D03*
X111200000Y-118000000D03*
X111200000Y-118800000D03*
X111200000Y-119600000D03*
X111200000Y-120400000D03*
D14*
X107600000Y-99500000D03*
X106800000Y-99500000D03*
X106000000Y-99500000D03*
X105200000Y-99500000D03*
X104400000Y-99500000D03*
X103600000Y-99500000D03*
X102800000Y-99500000D03*
X102000000Y-99500000D03*
X101200000Y-99500000D03*
X100400000Y-99500000D03*
X99600000Y-99500000D03*
X98800000Y-99500000D03*
X98000000Y-99500000D03*
X97200000Y-99500000D03*
X96400000Y-99500000D03*
D16*
X101900000Y-94200000D03*
X52700000Y-92200000D03*
D17*
X132960000Y-56100000D03*
D18*
X135500000Y-56100000D03*
X132960000Y-58640000D03*
X135500000Y-58640000D03*
X132960000Y-61180000D03*
X135500000Y-61180000D03*
X132960000Y-63720000D03*
X135500000Y-63720000D03*
X132960000Y-66260000D03*
X135500000Y-66260000D03*
X132960000Y-68800000D03*
X135500000Y-68800000D03*
X132960000Y-71340000D03*
X135500000Y-71340000D03*
X132960000Y-73880000D03*
X135500000Y-73880000D03*
D19*
X87200000Y-91500000D03*
X90200000Y-91500000D03*
D20*
X77600000Y-81950000D03*
X77600000Y-83450000D03*
D21*
X87950000Y-88700000D03*
X89450000Y-88700000D03*
D20*
X97200000Y-80850000D03*
X97200000Y-82350000D03*
D19*
X81700000Y-66300000D03*
X78700000Y-66300000D03*
D21*
X80950000Y-69100000D03*
X79450000Y-69100000D03*
D20*
X77600000Y-80150000D03*
X77600000Y-78650000D03*
D21*
X93650000Y-88700000D03*
X95150000Y-88700000D03*
D20*
X97200000Y-77400000D03*
X97200000Y-78900000D03*
D19*
X65600000Y-74700000D03*
X68600000Y-74700000D03*
X65600000Y-82700000D03*
X68600000Y-82700000D03*
X65600000Y-90700000D03*
X68600000Y-90700000D03*
D21*
X88050000Y-69100000D03*
X89550000Y-69100000D03*
D20*
X77600000Y-76950000D03*
X77600000Y-75450000D03*
D22*
X57600000Y-76200000D03*
X57600000Y-73200000D03*
X57600000Y-84200000D03*
X57600000Y-81200000D03*
X57600000Y-92200000D03*
X57600000Y-89200000D03*
D20*
X97200000Y-75850000D03*
X97200000Y-74350000D03*
D21*
X114450000Y-88700000D03*
X112950000Y-88700000D03*
D20*
X125000000Y-80850000D03*
X125000000Y-82350000D03*
X105400000Y-81950000D03*
X105400000Y-83450000D03*
D21*
X121650000Y-88500000D03*
X123150000Y-88500000D03*
D20*
X125000000Y-77650000D03*
X125000000Y-79150000D03*
D21*
X108750000Y-69100000D03*
X107250000Y-69100000D03*
D20*
X105400000Y-80450000D03*
X105400000Y-78950000D03*
D19*
X109400000Y-66300000D03*
X106400000Y-66300000D03*
D20*
X125000000Y-75850000D03*
X125000000Y-74350000D03*
D21*
X115950000Y-69100000D03*
X117450000Y-69100000D03*
D20*
X105400000Y-76850000D03*
X105400000Y-75350000D03*
D19*
X115200000Y-66300000D03*
X118200000Y-66300000D03*
D21*
X102250000Y-73600000D03*
X100750000Y-73600000D03*
X131750000Y-98200000D03*
X130250000Y-98200000D03*
X131750000Y-96600000D03*
X130250000Y-96600000D03*
X75750000Y-101300000D03*
X74250000Y-101300000D03*
D20*
X113500000Y-106850000D03*
X113500000Y-108350000D03*
D21*
X75750000Y-102800000D03*
X74250000Y-102800000D03*
D20*
X115900000Y-106850000D03*
X115900000Y-108350000D03*
D23*
X118600000Y-106600000D03*
X118600000Y-108600000D03*
D24*
X52600000Y-67760000D03*
D25*
X52600000Y-70300000D03*
D26*
X135500000Y-146100000D03*
X135500000Y-144500000D03*
X137100000Y-146100000D03*
X137100000Y-144500000D03*
X133900000Y-146100000D03*
X133900000Y-144500000D03*
X64500000Y-146100000D03*
X64500000Y-144500000D03*
X66100000Y-146100000D03*
X66100000Y-144500000D03*
X62900000Y-146100000D03*
X62900000Y-144500000D03*
D27*
X66400000Y-66800000D03*
X64000000Y-66800000D03*
D17*
X143160000Y-56100000D03*
D18*
X145700000Y-56100000D03*
X143160000Y-58640000D03*
X145700000Y-58640000D03*
X143160000Y-61180000D03*
X145700000Y-61180000D03*
X143160000Y-63720000D03*
X145700000Y-63720000D03*
X143160000Y-66260000D03*
X145700000Y-66260000D03*
X143160000Y-68800000D03*
X145700000Y-68800000D03*
X143160000Y-71340000D03*
X145700000Y-71340000D03*
X143160000Y-73880000D03*
X145700000Y-73880000D03*
D28*
X142300000Y-117500000D03*
D29*
X144840000Y-117500000D03*
X142300000Y-120040000D03*
X144840000Y-120040000D03*
X142300000Y-122580000D03*
X144840000Y-122580000D03*
X142300000Y-125120000D03*
X144840000Y-125120000D03*
X142300000Y-127660000D03*
X144840000Y-127660000D03*
X142300000Y-130200000D03*
X144840000Y-130200000D03*
X142300000Y-132740000D03*
X144840000Y-132740000D03*
X142300000Y-135280000D03*
X144840000Y-135280000D03*
X142300000Y-137820000D03*
X144840000Y-137820000D03*
X142300000Y-140360000D03*
X144840000Y-140360000D03*
X142300000Y-142900000D03*
X144840000Y-142900000D03*
X142300000Y-145440000D03*
X144840000Y-145440000D03*
X142300000Y-147980000D03*
X144840000Y-147980000D03*
D28*
X125800000Y-113060000D03*
D29*
X125800000Y-110520000D03*
X125800000Y-107980000D03*
X125800000Y-105440000D03*
X125800000Y-102900000D03*
X125800000Y-100360000D03*
X125800000Y-97820000D03*
X125800000Y-95280000D03*
D28*
X135180000Y-82900000D03*
D29*
X137720000Y-82900000D03*
X140260000Y-82900000D03*
X142800000Y-82900000D03*
X145340000Y-82900000D03*
X147880000Y-82900000D03*
D28*
X54600000Y-109880000D03*
D29*
X57140000Y-109880000D03*
X54600000Y-112420000D03*
X57140000Y-112420000D03*
X54600000Y-114960000D03*
X57140000Y-114960000D03*
X54600000Y-117500000D03*
X57140000Y-117500000D03*
X54600000Y-120040000D03*
X57140000Y-120040000D03*
X54600000Y-122580000D03*
X57140000Y-122580000D03*
X54600000Y-125120000D03*
X57140000Y-125120000D03*
X54600000Y-127660000D03*
X57140000Y-127660000D03*
X54600000Y-130200000D03*
X57140000Y-130200000D03*
X54600000Y-132740000D03*
X57140000Y-132740000D03*
X54600000Y-135280000D03*
X57140000Y-135280000D03*
X54600000Y-137820000D03*
X57140000Y-137820000D03*
X54600000Y-140360000D03*
X57140000Y-140360000D03*
X54600000Y-142900000D03*
X57140000Y-142900000D03*
X54600000Y-145440000D03*
X57140000Y-145440000D03*
X54600000Y-147980000D03*
X57140000Y-147980000D03*
D28*
X121900000Y-95280000D03*
D29*
X121900000Y-97820000D03*
X121900000Y-100360000D03*
X121900000Y-102900000D03*
X121900000Y-105440000D03*
X121900000Y-107980000D03*
D30*
X123250000Y-135300000D03*
X102250000Y-135300000D03*
X121750000Y-135300000D03*
X120250000Y-135300000D03*
X118750000Y-135300000D03*
X117250000Y-135300000D03*
X115750000Y-135300000D03*
X114250000Y-135300000D03*
X112750000Y-135300000D03*
X111250000Y-135300000D03*
X109750000Y-135300000D03*
X108250000Y-135300000D03*
X106750000Y-135300000D03*
X105250000Y-135300000D03*
X103750000Y-135300000D03*
X100750000Y-135300000D03*
X99250000Y-135300000D03*
X97750000Y-135300000D03*
X96250000Y-135300000D03*
X94750000Y-135300000D03*
X93250000Y-135300000D03*
X91750000Y-135300000D03*
X90250000Y-135300000D03*
X88750000Y-135300000D03*
X87250000Y-135300000D03*
X85750000Y-135300000D03*
X84250000Y-135300000D03*
X82750000Y-135300000D03*
X81250000Y-135300000D03*
X79750000Y-135300000D03*
X78250000Y-135300000D03*
X76750000Y-135300000D03*
D31*
X130200000Y-146550000D03*
X69800000Y-146550000D03*
D28*
X75380000Y-96900000D03*
D29*
X72840000Y-96900000D03*
X70300000Y-96900000D03*
X67760000Y-96900000D03*
X65220000Y-96900000D03*
D28*
X64500000Y-59000000D03*
D29*
X64500000Y-56460000D03*
D32*
X104850000Y-93900000D03*
X106350000Y-93900000D03*
D33*
X56000000Y-70300000D03*
D34*
X63620000Y-70300000D03*
D35*
X127600000Y-55050000D03*
X127600000Y-53550000D03*
X103700000Y-52800000D03*
X103700000Y-54300000D03*
X107300000Y-53700000D03*
X107300000Y-55200000D03*
X105500000Y-52800000D03*
X105500000Y-54300000D03*
X135500000Y-147350000D03*
X135500000Y-148850000D03*
X137100000Y-147350000D03*
X137100000Y-148850000D03*
X133900000Y-147350000D03*
X133900000Y-148850000D03*
X64500000Y-148850000D03*
X64500000Y-147350000D03*
X66100000Y-148850000D03*
X66100000Y-147350000D03*
X62900000Y-148850000D03*
X62900000Y-147350000D03*
D16*
X64500000Y-52600000D03*
X52700000Y-76200000D03*
X52700000Y-84200000D03*
X103900000Y-92000000D03*
X100100000Y-92000000D03*
X98300000Y-94200000D03*
D36*
X93400000Y-71200000D03*
X92900000Y-71200000D03*
X92400000Y-71200000D03*
X91900000Y-71200000D03*
X91400000Y-71200000D03*
X90900000Y-71200000D03*
X90400000Y-71200000D03*
X89900000Y-71200000D03*
X89400000Y-71200000D03*
X88900000Y-71200000D03*
X88400000Y-71200000D03*
X87900000Y-71200000D03*
X87400000Y-71200000D03*
X86900000Y-71200000D03*
X86400000Y-71200000D03*
X85900000Y-71200000D03*
X85400000Y-71200000D03*
X84900000Y-71200000D03*
X84400000Y-71200000D03*
X83900000Y-71200000D03*
X83400000Y-71200000D03*
X82900000Y-71200000D03*
X82400000Y-71200000D03*
X81900000Y-71200000D03*
X81400000Y-71200000D03*
D37*
X79700000Y-72900000D03*
X79700000Y-73400000D03*
X79700000Y-73900000D03*
X79700000Y-74400000D03*
X79700000Y-74900000D03*
X79700000Y-75400000D03*
X79700000Y-75900000D03*
X79700000Y-76400000D03*
X79700000Y-76900000D03*
X79700000Y-77400000D03*
X79700000Y-77900000D03*
X79700000Y-78400000D03*
X79700000Y-78900000D03*
X79700000Y-79400000D03*
X79700000Y-79900000D03*
X79700000Y-80400000D03*
X79700000Y-80900000D03*
X79700000Y-81400000D03*
X79700000Y-81900000D03*
X79700000Y-82400000D03*
X79700000Y-82900000D03*
X79700000Y-83400000D03*
X79700000Y-83900000D03*
X79700000Y-84400000D03*
X79700000Y-84900000D03*
D36*
X81400000Y-86600000D03*
X81900000Y-86600000D03*
X82400000Y-86600000D03*
X82900000Y-86600000D03*
X83400000Y-86600000D03*
X83900000Y-86600000D03*
X84400000Y-86600000D03*
X84900000Y-86600000D03*
X85400000Y-86600000D03*
X85900000Y-86600000D03*
X86400000Y-86600000D03*
X86900000Y-86600000D03*
X87400000Y-86600000D03*
X87900000Y-86600000D03*
X88400000Y-86600000D03*
X88900000Y-86600000D03*
X89400000Y-86600000D03*
X89900000Y-86600000D03*
X90400000Y-86600000D03*
X90900000Y-86600000D03*
X91400000Y-86600000D03*
X91900000Y-86600000D03*
X92400000Y-86600000D03*
X92900000Y-86600000D03*
X93400000Y-86600000D03*
D37*
X95100000Y-84900000D03*
X95100000Y-84400000D03*
X95100000Y-83900000D03*
X95100000Y-83400000D03*
X95100000Y-82900000D03*
X95100000Y-82400000D03*
X95100000Y-81900000D03*
X95100000Y-81400000D03*
X95100000Y-80900000D03*
X95100000Y-80400000D03*
X95100000Y-79900000D03*
X95100000Y-79400000D03*
X95100000Y-78900000D03*
X95100000Y-78400000D03*
X95100000Y-77900000D03*
X95100000Y-77400000D03*
X95100000Y-76900000D03*
X95100000Y-76400000D03*
X95100000Y-75900000D03*
X95100000Y-75400000D03*
X95100000Y-74900000D03*
X95100000Y-74400000D03*
X95100000Y-73900000D03*
X95100000Y-73400000D03*
X95100000Y-72900000D03*
D38*
G36*
X63642000Y-73600000D02*
G01*
X64492000Y-74200000D01*
X64492000Y-75200000D01*
X63642000Y-75800000D01*
X63642000Y-73600000D01*
G37*
D39*
X59920000Y-73200000D03*
D40*
X60066500Y-74700000D03*
D39*
X59920000Y-76200000D03*
D41*
X62733500Y-74700000D03*
D38*
G36*
X61823800Y-75800000D02*
G01*
X60823800Y-75100000D01*
X60823800Y-74300000D01*
X61823800Y-73600000D01*
X61823800Y-75800000D01*
G37*
G36*
X63642000Y-81600000D02*
G01*
X64492000Y-82200000D01*
X64492000Y-83200000D01*
X63642000Y-83800000D01*
X63642000Y-81600000D01*
G37*
D39*
X59920000Y-81200000D03*
D40*
X60066500Y-82700000D03*
D39*
X59920000Y-84200000D03*
D41*
X62733500Y-82700000D03*
D38*
G36*
X61823800Y-83800000D02*
G01*
X60823800Y-83100000D01*
X60823800Y-82300000D01*
X61823800Y-81600000D01*
X61823800Y-83800000D01*
G37*
G36*
X63642000Y-89600000D02*
G01*
X64492000Y-90200000D01*
X64492000Y-91200000D01*
X63642000Y-91800000D01*
X63642000Y-89600000D01*
G37*
D39*
X59920000Y-89200000D03*
D40*
X60066500Y-90700000D03*
D39*
X59920000Y-92200000D03*
D41*
X62733500Y-90700000D03*
D38*
G36*
X61823800Y-91800000D02*
G01*
X60823800Y-91100000D01*
X60823800Y-90300000D01*
X61823800Y-89600000D01*
X61823800Y-91800000D01*
G37*
D36*
X109200000Y-86600000D03*
X109700000Y-86600000D03*
X110200000Y-86600000D03*
X110700000Y-86600000D03*
X111200000Y-86600000D03*
X111700000Y-86600000D03*
X112200000Y-86600000D03*
X112700000Y-86600000D03*
X113200000Y-86600000D03*
X113700000Y-86600000D03*
X114200000Y-86600000D03*
X114700000Y-86600000D03*
X115200000Y-86600000D03*
X115700000Y-86600000D03*
X116200000Y-86600000D03*
X116700000Y-86600000D03*
X117200000Y-86600000D03*
X117700000Y-86600000D03*
X118200000Y-86600000D03*
X118700000Y-86600000D03*
X119200000Y-86600000D03*
X119700000Y-86600000D03*
X120200000Y-86600000D03*
X120700000Y-86600000D03*
X121200000Y-86600000D03*
D37*
X122900000Y-84900000D03*
X122900000Y-84400000D03*
X122900000Y-83900000D03*
X122900000Y-83400000D03*
X122900000Y-82900000D03*
X122900000Y-82400000D03*
X122900000Y-81900000D03*
X122900000Y-81400000D03*
X122900000Y-80900000D03*
X122900000Y-80400000D03*
X122900000Y-79900000D03*
X122900000Y-79400000D03*
X122900000Y-78900000D03*
X122900000Y-78400000D03*
X122900000Y-77900000D03*
X122900000Y-77400000D03*
X122900000Y-76900000D03*
X122900000Y-76400000D03*
X122900000Y-75900000D03*
X122900000Y-75400000D03*
X122900000Y-74900000D03*
X122900000Y-74400000D03*
X122900000Y-73900000D03*
X122900000Y-73400000D03*
X122900000Y-72900000D03*
D36*
X121200000Y-71200000D03*
X120700000Y-71200000D03*
X120200000Y-71200000D03*
X119700000Y-71200000D03*
X119200000Y-71200000D03*
X118700000Y-71200000D03*
X118200000Y-71200000D03*
X117700000Y-71200000D03*
X117200000Y-71200000D03*
X116700000Y-71200000D03*
X116200000Y-71200000D03*
X115700000Y-71200000D03*
X115200000Y-71200000D03*
X114700000Y-71200000D03*
X114200000Y-71200000D03*
X113700000Y-71200000D03*
X113200000Y-71200000D03*
X112700000Y-71200000D03*
X112200000Y-71200000D03*
X111700000Y-71200000D03*
X111200000Y-71200000D03*
X110700000Y-71200000D03*
X110200000Y-71200000D03*
X109700000Y-71200000D03*
X109200000Y-71200000D03*
D37*
X107500000Y-72900000D03*
X107500000Y-73400000D03*
X107500000Y-73900000D03*
X107500000Y-74400000D03*
X107500000Y-74900000D03*
X107500000Y-75400000D03*
X107500000Y-75900000D03*
X107500000Y-76400000D03*
X107500000Y-76900000D03*
X107500000Y-77400000D03*
X107500000Y-77900000D03*
X107500000Y-78400000D03*
X107500000Y-78900000D03*
X107500000Y-79400000D03*
X107500000Y-79900000D03*
X107500000Y-80400000D03*
X107500000Y-80900000D03*
X107500000Y-81400000D03*
X107500000Y-81900000D03*
X107500000Y-82400000D03*
X107500000Y-82900000D03*
X107500000Y-83400000D03*
X107500000Y-83900000D03*
X107500000Y-84400000D03*
X107500000Y-84900000D03*
D42*
X100725000Y-75425000D03*
X100725000Y-77575000D03*
X102275000Y-77575000D03*
X102275000Y-75425000D03*
D16*
X101500000Y-83200000D03*
D28*
X110080000Y-55200000D03*
D29*
X110080000Y-52660000D03*
X112620000Y-55200000D03*
X112620000Y-52660000D03*
X115160000Y-55200000D03*
X115160000Y-52660000D03*
X117700000Y-55200000D03*
X117700000Y-52660000D03*
X120240000Y-55200000D03*
X120240000Y-52660000D03*
D26*
X71000000Y-72800000D03*
X72600000Y-72800000D03*
X76400000Y-72800000D03*
X74800000Y-72800000D03*
X99200000Y-68400000D03*
X100800000Y-68400000D03*
X104300000Y-68400000D03*
X102700000Y-68400000D03*
D32*
X72550000Y-71300000D03*
X71050000Y-71300000D03*
X74750000Y-71300000D03*
X76250000Y-71300000D03*
X100700000Y-66900000D03*
X99200000Y-66900000D03*
X102750000Y-66900000D03*
X104250000Y-66900000D03*
D43*
X70400000Y-57100000D03*
X77400000Y-57100000D03*
D44*
X52200000Y-61500000D03*
D45*
X56900000Y-58500000D03*
X56900000Y-64500000D03*
M02*
