G04 #@! TF.GenerationSoftware,KiCad,Pcbnew,5.0.2-bee76a0~70~ubuntu18.10.1*
G04 #@! TF.CreationDate,2019-01-06T00:08:24+02:00*
G04 #@! TF.ProjectId,GB-BENCH-G1,47422d42-454e-4434-982d-47312e6b6963,rev?*
G04 #@! TF.SameCoordinates,Original*
G04 #@! TF.FileFunction,Soldermask,Bot*
G04 #@! TF.FilePolarity,Negative*
%FSLAX46Y46*%
G04 Gerber Fmt 4.6, Leading zero omitted, Abs format (unit mm)*
G04 Created by KiCad (PCBNEW 5.0.2-bee76a0~70~ubuntu18.10.1) date su  6. tammikuuta 2019 00.08.24*
%MOMM*%
%LPD*%
G01*
G04 APERTURE LIST*
%ADD10C,0.150000*%
%ADD11C,0.100000*%
G04 APERTURE END LIST*
D10*
X77000000Y-139000000D02*
X77000000Y-150000000D01*
X123000000Y-139000000D02*
X77000000Y-139000000D01*
X123000000Y-150000000D02*
X123000000Y-139000000D01*
X123000000Y-150000000D02*
X150000000Y-150000000D01*
X50000000Y-150000000D02*
X77000000Y-150000000D01*
X150000000Y-50000000D02*
X150000000Y-150000000D01*
X50000000Y-50000000D02*
X50000000Y-150000000D01*
X50000000Y-50000000D02*
X150000000Y-50000000D01*
D11*
G36*
X145006627Y-147142299D02*
X145097088Y-147169740D01*
X145166855Y-147190903D01*
X145220712Y-147219691D01*
X145314517Y-147269830D01*
X145443948Y-147376052D01*
X145550170Y-147505483D01*
X145600309Y-147599288D01*
X145629097Y-147653145D01*
X145629097Y-147653146D01*
X145677701Y-147813373D01*
X145694113Y-147980000D01*
X145677701Y-148146627D01*
X145677700Y-148146629D01*
X145629097Y-148306855D01*
X145600309Y-148360712D01*
X145550170Y-148454517D01*
X145443948Y-148583948D01*
X145314517Y-148690170D01*
X145220712Y-148740309D01*
X145166855Y-148769097D01*
X145097088Y-148790260D01*
X145006627Y-148817701D01*
X144881757Y-148830000D01*
X144798243Y-148830000D01*
X144673373Y-148817701D01*
X144582912Y-148790260D01*
X144513145Y-148769097D01*
X144459288Y-148740309D01*
X144365483Y-148690170D01*
X144236052Y-148583948D01*
X144129830Y-148454517D01*
X144079691Y-148360712D01*
X144050903Y-148306855D01*
X144002300Y-148146629D01*
X144002299Y-148146627D01*
X143985887Y-147980000D01*
X144002299Y-147813373D01*
X144050903Y-147653146D01*
X144050903Y-147653145D01*
X144079691Y-147599288D01*
X144129830Y-147505483D01*
X144236052Y-147376052D01*
X144365483Y-147269830D01*
X144459288Y-147219691D01*
X144513145Y-147190903D01*
X144582912Y-147169740D01*
X144673373Y-147142299D01*
X144798243Y-147130000D01*
X144881757Y-147130000D01*
X145006627Y-147142299D01*
X145006627Y-147142299D01*
G37*
G36*
X54766627Y-147142299D02*
X54857088Y-147169740D01*
X54926855Y-147190903D01*
X54980712Y-147219691D01*
X55074517Y-147269830D01*
X55203948Y-147376052D01*
X55310170Y-147505483D01*
X55360309Y-147599288D01*
X55389097Y-147653145D01*
X55389097Y-147653146D01*
X55437701Y-147813373D01*
X55454113Y-147980000D01*
X55437701Y-148146627D01*
X55437700Y-148146629D01*
X55389097Y-148306855D01*
X55360309Y-148360712D01*
X55310170Y-148454517D01*
X55203948Y-148583948D01*
X55074517Y-148690170D01*
X54980712Y-148740309D01*
X54926855Y-148769097D01*
X54857088Y-148790260D01*
X54766627Y-148817701D01*
X54641757Y-148830000D01*
X54558243Y-148830000D01*
X54433373Y-148817701D01*
X54342912Y-148790260D01*
X54273145Y-148769097D01*
X54219288Y-148740309D01*
X54125483Y-148690170D01*
X53996052Y-148583948D01*
X53889830Y-148454517D01*
X53839691Y-148360712D01*
X53810903Y-148306855D01*
X53762300Y-148146629D01*
X53762299Y-148146627D01*
X53745887Y-147980000D01*
X53762299Y-147813373D01*
X53810903Y-147653146D01*
X53810903Y-147653145D01*
X53839691Y-147599288D01*
X53889830Y-147505483D01*
X53996052Y-147376052D01*
X54125483Y-147269830D01*
X54219288Y-147219691D01*
X54273145Y-147190903D01*
X54342912Y-147169740D01*
X54433373Y-147142299D01*
X54558243Y-147130000D01*
X54641757Y-147130000D01*
X54766627Y-147142299D01*
X54766627Y-147142299D01*
G37*
G36*
X57306627Y-147142299D02*
X57397088Y-147169740D01*
X57466855Y-147190903D01*
X57520712Y-147219691D01*
X57614517Y-147269830D01*
X57743948Y-147376052D01*
X57850170Y-147505483D01*
X57900309Y-147599288D01*
X57929097Y-147653145D01*
X57929097Y-147653146D01*
X57977701Y-147813373D01*
X57994113Y-147980000D01*
X57977701Y-148146627D01*
X57977700Y-148146629D01*
X57929097Y-148306855D01*
X57900309Y-148360712D01*
X57850170Y-148454517D01*
X57743948Y-148583948D01*
X57614517Y-148690170D01*
X57520712Y-148740309D01*
X57466855Y-148769097D01*
X57397088Y-148790260D01*
X57306627Y-148817701D01*
X57181757Y-148830000D01*
X57098243Y-148830000D01*
X56973373Y-148817701D01*
X56882912Y-148790260D01*
X56813145Y-148769097D01*
X56759288Y-148740309D01*
X56665483Y-148690170D01*
X56536052Y-148583948D01*
X56429830Y-148454517D01*
X56379691Y-148360712D01*
X56350903Y-148306855D01*
X56302300Y-148146629D01*
X56302299Y-148146627D01*
X56285887Y-147980000D01*
X56302299Y-147813373D01*
X56350903Y-147653146D01*
X56350903Y-147653145D01*
X56379691Y-147599288D01*
X56429830Y-147505483D01*
X56536052Y-147376052D01*
X56665483Y-147269830D01*
X56759288Y-147219691D01*
X56813145Y-147190903D01*
X56882912Y-147169740D01*
X56973373Y-147142299D01*
X57098243Y-147130000D01*
X57181757Y-147130000D01*
X57306627Y-147142299D01*
X57306627Y-147142299D01*
G37*
G36*
X142466627Y-147142299D02*
X142557088Y-147169740D01*
X142626855Y-147190903D01*
X142680712Y-147219691D01*
X142774517Y-147269830D01*
X142903948Y-147376052D01*
X143010170Y-147505483D01*
X143060309Y-147599288D01*
X143089097Y-147653145D01*
X143089097Y-147653146D01*
X143137701Y-147813373D01*
X143154113Y-147980000D01*
X143137701Y-148146627D01*
X143137700Y-148146629D01*
X143089097Y-148306855D01*
X143060309Y-148360712D01*
X143010170Y-148454517D01*
X142903948Y-148583948D01*
X142774517Y-148690170D01*
X142680712Y-148740309D01*
X142626855Y-148769097D01*
X142557088Y-148790260D01*
X142466627Y-148817701D01*
X142341757Y-148830000D01*
X142258243Y-148830000D01*
X142133373Y-148817701D01*
X142042912Y-148790260D01*
X141973145Y-148769097D01*
X141919288Y-148740309D01*
X141825483Y-148690170D01*
X141696052Y-148583948D01*
X141589830Y-148454517D01*
X141539691Y-148360712D01*
X141510903Y-148306855D01*
X141462300Y-148146629D01*
X141462299Y-148146627D01*
X141445887Y-147980000D01*
X141462299Y-147813373D01*
X141510903Y-147653146D01*
X141510903Y-147653145D01*
X141539691Y-147599288D01*
X141589830Y-147505483D01*
X141696052Y-147376052D01*
X141825483Y-147269830D01*
X141919288Y-147219691D01*
X141973145Y-147190903D01*
X142042912Y-147169740D01*
X142133373Y-147142299D01*
X142258243Y-147130000D01*
X142341757Y-147130000D01*
X142466627Y-147142299D01*
X142466627Y-147142299D01*
G37*
G36*
X54766627Y-144602299D02*
X54857088Y-144629740D01*
X54926855Y-144650903D01*
X54980712Y-144679691D01*
X55074517Y-144729830D01*
X55203948Y-144836052D01*
X55310170Y-144965483D01*
X55360309Y-145059288D01*
X55389097Y-145113145D01*
X55389097Y-145113146D01*
X55437701Y-145273373D01*
X55454113Y-145440000D01*
X55437701Y-145606627D01*
X55437700Y-145606629D01*
X55389097Y-145766855D01*
X55360309Y-145820712D01*
X55310170Y-145914517D01*
X55203948Y-146043948D01*
X55074517Y-146150170D01*
X54980712Y-146200309D01*
X54926855Y-146229097D01*
X54857088Y-146250260D01*
X54766627Y-146277701D01*
X54641757Y-146290000D01*
X54558243Y-146290000D01*
X54433373Y-146277701D01*
X54342912Y-146250260D01*
X54273145Y-146229097D01*
X54219288Y-146200309D01*
X54125483Y-146150170D01*
X53996052Y-146043948D01*
X53889830Y-145914517D01*
X53839691Y-145820712D01*
X53810903Y-145766855D01*
X53762300Y-145606629D01*
X53762299Y-145606627D01*
X53745887Y-145440000D01*
X53762299Y-145273373D01*
X53810903Y-145113146D01*
X53810903Y-145113145D01*
X53839691Y-145059288D01*
X53889830Y-144965483D01*
X53996052Y-144836052D01*
X54125483Y-144729830D01*
X54219288Y-144679691D01*
X54273145Y-144650903D01*
X54342912Y-144629740D01*
X54433373Y-144602299D01*
X54558243Y-144590000D01*
X54641757Y-144590000D01*
X54766627Y-144602299D01*
X54766627Y-144602299D01*
G37*
G36*
X142466627Y-144602299D02*
X142557088Y-144629740D01*
X142626855Y-144650903D01*
X142680712Y-144679691D01*
X142774517Y-144729830D01*
X142903948Y-144836052D01*
X143010170Y-144965483D01*
X143060309Y-145059288D01*
X143089097Y-145113145D01*
X143089097Y-145113146D01*
X143137701Y-145273373D01*
X143154113Y-145440000D01*
X143137701Y-145606627D01*
X143137700Y-145606629D01*
X143089097Y-145766855D01*
X143060309Y-145820712D01*
X143010170Y-145914517D01*
X142903948Y-146043948D01*
X142774517Y-146150170D01*
X142680712Y-146200309D01*
X142626855Y-146229097D01*
X142557088Y-146250260D01*
X142466627Y-146277701D01*
X142341757Y-146290000D01*
X142258243Y-146290000D01*
X142133373Y-146277701D01*
X142042912Y-146250260D01*
X141973145Y-146229097D01*
X141919288Y-146200309D01*
X141825483Y-146150170D01*
X141696052Y-146043948D01*
X141589830Y-145914517D01*
X141539691Y-145820712D01*
X141510903Y-145766855D01*
X141462300Y-145606629D01*
X141462299Y-145606627D01*
X141445887Y-145440000D01*
X141462299Y-145273373D01*
X141510903Y-145113146D01*
X141510903Y-145113145D01*
X141539691Y-145059288D01*
X141589830Y-144965483D01*
X141696052Y-144836052D01*
X141825483Y-144729830D01*
X141919288Y-144679691D01*
X141973145Y-144650903D01*
X142042912Y-144629740D01*
X142133373Y-144602299D01*
X142258243Y-144590000D01*
X142341757Y-144590000D01*
X142466627Y-144602299D01*
X142466627Y-144602299D01*
G37*
G36*
X145006627Y-144602299D02*
X145097088Y-144629740D01*
X145166855Y-144650903D01*
X145220712Y-144679691D01*
X145314517Y-144729830D01*
X145443948Y-144836052D01*
X145550170Y-144965483D01*
X145600309Y-145059288D01*
X145629097Y-145113145D01*
X145629097Y-145113146D01*
X145677701Y-145273373D01*
X145694113Y-145440000D01*
X145677701Y-145606627D01*
X145677700Y-145606629D01*
X145629097Y-145766855D01*
X145600309Y-145820712D01*
X145550170Y-145914517D01*
X145443948Y-146043948D01*
X145314517Y-146150170D01*
X145220712Y-146200309D01*
X145166855Y-146229097D01*
X145097088Y-146250260D01*
X145006627Y-146277701D01*
X144881757Y-146290000D01*
X144798243Y-146290000D01*
X144673373Y-146277701D01*
X144582912Y-146250260D01*
X144513145Y-146229097D01*
X144459288Y-146200309D01*
X144365483Y-146150170D01*
X144236052Y-146043948D01*
X144129830Y-145914517D01*
X144079691Y-145820712D01*
X144050903Y-145766855D01*
X144002300Y-145606629D01*
X144002299Y-145606627D01*
X143985887Y-145440000D01*
X144002299Y-145273373D01*
X144050903Y-145113146D01*
X144050903Y-145113145D01*
X144079691Y-145059288D01*
X144129830Y-144965483D01*
X144236052Y-144836052D01*
X144365483Y-144729830D01*
X144459288Y-144679691D01*
X144513145Y-144650903D01*
X144582912Y-144629740D01*
X144673373Y-144602299D01*
X144798243Y-144590000D01*
X144881757Y-144590000D01*
X145006627Y-144602299D01*
X145006627Y-144602299D01*
G37*
G36*
X57306627Y-144602299D02*
X57397088Y-144629740D01*
X57466855Y-144650903D01*
X57520712Y-144679691D01*
X57614517Y-144729830D01*
X57743948Y-144836052D01*
X57850170Y-144965483D01*
X57900309Y-145059288D01*
X57929097Y-145113145D01*
X57929097Y-145113146D01*
X57977701Y-145273373D01*
X57994113Y-145440000D01*
X57977701Y-145606627D01*
X57977700Y-145606629D01*
X57929097Y-145766855D01*
X57900309Y-145820712D01*
X57850170Y-145914517D01*
X57743948Y-146043948D01*
X57614517Y-146150170D01*
X57520712Y-146200309D01*
X57466855Y-146229097D01*
X57397088Y-146250260D01*
X57306627Y-146277701D01*
X57181757Y-146290000D01*
X57098243Y-146290000D01*
X56973373Y-146277701D01*
X56882912Y-146250260D01*
X56813145Y-146229097D01*
X56759288Y-146200309D01*
X56665483Y-146150170D01*
X56536052Y-146043948D01*
X56429830Y-145914517D01*
X56379691Y-145820712D01*
X56350903Y-145766855D01*
X56302300Y-145606629D01*
X56302299Y-145606627D01*
X56285887Y-145440000D01*
X56302299Y-145273373D01*
X56350903Y-145113146D01*
X56350903Y-145113145D01*
X56379691Y-145059288D01*
X56429830Y-144965483D01*
X56536052Y-144836052D01*
X56665483Y-144729830D01*
X56759288Y-144679691D01*
X56813145Y-144650903D01*
X56882912Y-144629740D01*
X56973373Y-144602299D01*
X57098243Y-144590000D01*
X57181757Y-144590000D01*
X57306627Y-144602299D01*
X57306627Y-144602299D01*
G37*
G36*
X57306627Y-142062299D02*
X57397088Y-142089740D01*
X57466855Y-142110903D01*
X57520712Y-142139691D01*
X57614517Y-142189830D01*
X57743948Y-142296052D01*
X57850170Y-142425483D01*
X57900309Y-142519288D01*
X57929097Y-142573145D01*
X57929097Y-142573146D01*
X57977701Y-142733373D01*
X57994113Y-142900000D01*
X57977701Y-143066627D01*
X57977700Y-143066629D01*
X57929097Y-143226855D01*
X57900309Y-143280712D01*
X57850170Y-143374517D01*
X57743948Y-143503948D01*
X57614517Y-143610170D01*
X57520712Y-143660309D01*
X57466855Y-143689097D01*
X57397088Y-143710260D01*
X57306627Y-143737701D01*
X57181757Y-143750000D01*
X57098243Y-143750000D01*
X56973373Y-143737701D01*
X56882912Y-143710260D01*
X56813145Y-143689097D01*
X56759288Y-143660309D01*
X56665483Y-143610170D01*
X56536052Y-143503948D01*
X56429830Y-143374517D01*
X56379691Y-143280712D01*
X56350903Y-143226855D01*
X56302300Y-143066629D01*
X56302299Y-143066627D01*
X56285887Y-142900000D01*
X56302299Y-142733373D01*
X56350903Y-142573146D01*
X56350903Y-142573145D01*
X56379691Y-142519288D01*
X56429830Y-142425483D01*
X56536052Y-142296052D01*
X56665483Y-142189830D01*
X56759288Y-142139691D01*
X56813145Y-142110903D01*
X56882912Y-142089740D01*
X56973373Y-142062299D01*
X57098243Y-142050000D01*
X57181757Y-142050000D01*
X57306627Y-142062299D01*
X57306627Y-142062299D01*
G37*
G36*
X145006627Y-142062299D02*
X145097088Y-142089740D01*
X145166855Y-142110903D01*
X145220712Y-142139691D01*
X145314517Y-142189830D01*
X145443948Y-142296052D01*
X145550170Y-142425483D01*
X145600309Y-142519288D01*
X145629097Y-142573145D01*
X145629097Y-142573146D01*
X145677701Y-142733373D01*
X145694113Y-142900000D01*
X145677701Y-143066627D01*
X145677700Y-143066629D01*
X145629097Y-143226855D01*
X145600309Y-143280712D01*
X145550170Y-143374517D01*
X145443948Y-143503948D01*
X145314517Y-143610170D01*
X145220712Y-143660309D01*
X145166855Y-143689097D01*
X145097088Y-143710260D01*
X145006627Y-143737701D01*
X144881757Y-143750000D01*
X144798243Y-143750000D01*
X144673373Y-143737701D01*
X144582912Y-143710260D01*
X144513145Y-143689097D01*
X144459288Y-143660309D01*
X144365483Y-143610170D01*
X144236052Y-143503948D01*
X144129830Y-143374517D01*
X144079691Y-143280712D01*
X144050903Y-143226855D01*
X144002300Y-143066629D01*
X144002299Y-143066627D01*
X143985887Y-142900000D01*
X144002299Y-142733373D01*
X144050903Y-142573146D01*
X144050903Y-142573145D01*
X144079691Y-142519288D01*
X144129830Y-142425483D01*
X144236052Y-142296052D01*
X144365483Y-142189830D01*
X144459288Y-142139691D01*
X144513145Y-142110903D01*
X144582912Y-142089740D01*
X144673373Y-142062299D01*
X144798243Y-142050000D01*
X144881757Y-142050000D01*
X145006627Y-142062299D01*
X145006627Y-142062299D01*
G37*
G36*
X142466627Y-142062299D02*
X142557088Y-142089740D01*
X142626855Y-142110903D01*
X142680712Y-142139691D01*
X142774517Y-142189830D01*
X142903948Y-142296052D01*
X143010170Y-142425483D01*
X143060309Y-142519288D01*
X143089097Y-142573145D01*
X143089097Y-142573146D01*
X143137701Y-142733373D01*
X143154113Y-142900000D01*
X143137701Y-143066627D01*
X143137700Y-143066629D01*
X143089097Y-143226855D01*
X143060309Y-143280712D01*
X143010170Y-143374517D01*
X142903948Y-143503948D01*
X142774517Y-143610170D01*
X142680712Y-143660309D01*
X142626855Y-143689097D01*
X142557088Y-143710260D01*
X142466627Y-143737701D01*
X142341757Y-143750000D01*
X142258243Y-143750000D01*
X142133373Y-143737701D01*
X142042912Y-143710260D01*
X141973145Y-143689097D01*
X141919288Y-143660309D01*
X141825483Y-143610170D01*
X141696052Y-143503948D01*
X141589830Y-143374517D01*
X141539691Y-143280712D01*
X141510903Y-143226855D01*
X141462300Y-143066629D01*
X141462299Y-143066627D01*
X141445887Y-142900000D01*
X141462299Y-142733373D01*
X141510903Y-142573146D01*
X141510903Y-142573145D01*
X141539691Y-142519288D01*
X141589830Y-142425483D01*
X141696052Y-142296052D01*
X141825483Y-142189830D01*
X141919288Y-142139691D01*
X141973145Y-142110903D01*
X142042912Y-142089740D01*
X142133373Y-142062299D01*
X142258243Y-142050000D01*
X142341757Y-142050000D01*
X142466627Y-142062299D01*
X142466627Y-142062299D01*
G37*
G36*
X54766627Y-142062299D02*
X54857088Y-142089740D01*
X54926855Y-142110903D01*
X54980712Y-142139691D01*
X55074517Y-142189830D01*
X55203948Y-142296052D01*
X55310170Y-142425483D01*
X55360309Y-142519288D01*
X55389097Y-142573145D01*
X55389097Y-142573146D01*
X55437701Y-142733373D01*
X55454113Y-142900000D01*
X55437701Y-143066627D01*
X55437700Y-143066629D01*
X55389097Y-143226855D01*
X55360309Y-143280712D01*
X55310170Y-143374517D01*
X55203948Y-143503948D01*
X55074517Y-143610170D01*
X54980712Y-143660309D01*
X54926855Y-143689097D01*
X54857088Y-143710260D01*
X54766627Y-143737701D01*
X54641757Y-143750000D01*
X54558243Y-143750000D01*
X54433373Y-143737701D01*
X54342912Y-143710260D01*
X54273145Y-143689097D01*
X54219288Y-143660309D01*
X54125483Y-143610170D01*
X53996052Y-143503948D01*
X53889830Y-143374517D01*
X53839691Y-143280712D01*
X53810903Y-143226855D01*
X53762300Y-143066629D01*
X53762299Y-143066627D01*
X53745887Y-142900000D01*
X53762299Y-142733373D01*
X53810903Y-142573146D01*
X53810903Y-142573145D01*
X53839691Y-142519288D01*
X53889830Y-142425483D01*
X53996052Y-142296052D01*
X54125483Y-142189830D01*
X54219288Y-142139691D01*
X54273145Y-142110903D01*
X54342912Y-142089740D01*
X54433373Y-142062299D01*
X54558243Y-142050000D01*
X54641757Y-142050000D01*
X54766627Y-142062299D01*
X54766627Y-142062299D01*
G37*
G36*
X57306627Y-139522299D02*
X57397088Y-139549740D01*
X57466855Y-139570903D01*
X57520712Y-139599691D01*
X57614517Y-139649830D01*
X57743948Y-139756052D01*
X57850170Y-139885483D01*
X57900309Y-139979288D01*
X57929097Y-140033145D01*
X57929097Y-140033146D01*
X57977701Y-140193373D01*
X57994113Y-140360000D01*
X57977701Y-140526627D01*
X57977700Y-140526629D01*
X57929097Y-140686855D01*
X57900309Y-140740712D01*
X57850170Y-140834517D01*
X57743948Y-140963948D01*
X57614517Y-141070170D01*
X57520712Y-141120309D01*
X57466855Y-141149097D01*
X57397088Y-141170260D01*
X57306627Y-141197701D01*
X57181757Y-141210000D01*
X57098243Y-141210000D01*
X56973373Y-141197701D01*
X56882912Y-141170260D01*
X56813145Y-141149097D01*
X56759288Y-141120309D01*
X56665483Y-141070170D01*
X56536052Y-140963948D01*
X56429830Y-140834517D01*
X56379691Y-140740712D01*
X56350903Y-140686855D01*
X56302300Y-140526629D01*
X56302299Y-140526627D01*
X56285887Y-140360000D01*
X56302299Y-140193373D01*
X56350903Y-140033146D01*
X56350903Y-140033145D01*
X56379691Y-139979288D01*
X56429830Y-139885483D01*
X56536052Y-139756052D01*
X56665483Y-139649830D01*
X56759288Y-139599691D01*
X56813145Y-139570903D01*
X56882912Y-139549740D01*
X56973373Y-139522299D01*
X57098243Y-139510000D01*
X57181757Y-139510000D01*
X57306627Y-139522299D01*
X57306627Y-139522299D01*
G37*
G36*
X142466627Y-139522299D02*
X142557088Y-139549740D01*
X142626855Y-139570903D01*
X142680712Y-139599691D01*
X142774517Y-139649830D01*
X142903948Y-139756052D01*
X143010170Y-139885483D01*
X143060309Y-139979288D01*
X143089097Y-140033145D01*
X143089097Y-140033146D01*
X143137701Y-140193373D01*
X143154113Y-140360000D01*
X143137701Y-140526627D01*
X143137700Y-140526629D01*
X143089097Y-140686855D01*
X143060309Y-140740712D01*
X143010170Y-140834517D01*
X142903948Y-140963948D01*
X142774517Y-141070170D01*
X142680712Y-141120309D01*
X142626855Y-141149097D01*
X142557088Y-141170260D01*
X142466627Y-141197701D01*
X142341757Y-141210000D01*
X142258243Y-141210000D01*
X142133373Y-141197701D01*
X142042912Y-141170260D01*
X141973145Y-141149097D01*
X141919288Y-141120309D01*
X141825483Y-141070170D01*
X141696052Y-140963948D01*
X141589830Y-140834517D01*
X141539691Y-140740712D01*
X141510903Y-140686855D01*
X141462300Y-140526629D01*
X141462299Y-140526627D01*
X141445887Y-140360000D01*
X141462299Y-140193373D01*
X141510903Y-140033146D01*
X141510903Y-140033145D01*
X141539691Y-139979288D01*
X141589830Y-139885483D01*
X141696052Y-139756052D01*
X141825483Y-139649830D01*
X141919288Y-139599691D01*
X141973145Y-139570903D01*
X142042912Y-139549740D01*
X142133373Y-139522299D01*
X142258243Y-139510000D01*
X142341757Y-139510000D01*
X142466627Y-139522299D01*
X142466627Y-139522299D01*
G37*
G36*
X145006627Y-139522299D02*
X145097088Y-139549740D01*
X145166855Y-139570903D01*
X145220712Y-139599691D01*
X145314517Y-139649830D01*
X145443948Y-139756052D01*
X145550170Y-139885483D01*
X145600309Y-139979288D01*
X145629097Y-140033145D01*
X145629097Y-140033146D01*
X145677701Y-140193373D01*
X145694113Y-140360000D01*
X145677701Y-140526627D01*
X145677700Y-140526629D01*
X145629097Y-140686855D01*
X145600309Y-140740712D01*
X145550170Y-140834517D01*
X145443948Y-140963948D01*
X145314517Y-141070170D01*
X145220712Y-141120309D01*
X145166855Y-141149097D01*
X145097088Y-141170260D01*
X145006627Y-141197701D01*
X144881757Y-141210000D01*
X144798243Y-141210000D01*
X144673373Y-141197701D01*
X144582912Y-141170260D01*
X144513145Y-141149097D01*
X144459288Y-141120309D01*
X144365483Y-141070170D01*
X144236052Y-140963948D01*
X144129830Y-140834517D01*
X144079691Y-140740712D01*
X144050903Y-140686855D01*
X144002300Y-140526629D01*
X144002299Y-140526627D01*
X143985887Y-140360000D01*
X144002299Y-140193373D01*
X144050903Y-140033146D01*
X144050903Y-140033145D01*
X144079691Y-139979288D01*
X144129830Y-139885483D01*
X144236052Y-139756052D01*
X144365483Y-139649830D01*
X144459288Y-139599691D01*
X144513145Y-139570903D01*
X144582912Y-139549740D01*
X144673373Y-139522299D01*
X144798243Y-139510000D01*
X144881757Y-139510000D01*
X145006627Y-139522299D01*
X145006627Y-139522299D01*
G37*
G36*
X54766627Y-139522299D02*
X54857088Y-139549740D01*
X54926855Y-139570903D01*
X54980712Y-139599691D01*
X55074517Y-139649830D01*
X55203948Y-139756052D01*
X55310170Y-139885483D01*
X55360309Y-139979288D01*
X55389097Y-140033145D01*
X55389097Y-140033146D01*
X55437701Y-140193373D01*
X55454113Y-140360000D01*
X55437701Y-140526627D01*
X55437700Y-140526629D01*
X55389097Y-140686855D01*
X55360309Y-140740712D01*
X55310170Y-140834517D01*
X55203948Y-140963948D01*
X55074517Y-141070170D01*
X54980712Y-141120309D01*
X54926855Y-141149097D01*
X54857088Y-141170260D01*
X54766627Y-141197701D01*
X54641757Y-141210000D01*
X54558243Y-141210000D01*
X54433373Y-141197701D01*
X54342912Y-141170260D01*
X54273145Y-141149097D01*
X54219288Y-141120309D01*
X54125483Y-141070170D01*
X53996052Y-140963948D01*
X53889830Y-140834517D01*
X53839691Y-140740712D01*
X53810903Y-140686855D01*
X53762300Y-140526629D01*
X53762299Y-140526627D01*
X53745887Y-140360000D01*
X53762299Y-140193373D01*
X53810903Y-140033146D01*
X53810903Y-140033145D01*
X53839691Y-139979288D01*
X53889830Y-139885483D01*
X53996052Y-139756052D01*
X54125483Y-139649830D01*
X54219288Y-139599691D01*
X54273145Y-139570903D01*
X54342912Y-139549740D01*
X54433373Y-139522299D01*
X54558243Y-139510000D01*
X54641757Y-139510000D01*
X54766627Y-139522299D01*
X54766627Y-139522299D01*
G37*
G36*
X142466627Y-136982299D02*
X142557088Y-137009740D01*
X142626855Y-137030903D01*
X142680712Y-137059691D01*
X142774517Y-137109830D01*
X142903948Y-137216052D01*
X143010170Y-137345483D01*
X143060309Y-137439288D01*
X143089097Y-137493145D01*
X143089097Y-137493146D01*
X143137701Y-137653373D01*
X143154113Y-137820000D01*
X143137701Y-137986627D01*
X143137700Y-137986629D01*
X143089097Y-138146855D01*
X143060309Y-138200712D01*
X143010170Y-138294517D01*
X142903948Y-138423948D01*
X142774517Y-138530170D01*
X142680712Y-138580309D01*
X142626855Y-138609097D01*
X142557088Y-138630260D01*
X142466627Y-138657701D01*
X142341757Y-138670000D01*
X142258243Y-138670000D01*
X142133373Y-138657701D01*
X142042912Y-138630260D01*
X141973145Y-138609097D01*
X141919288Y-138580309D01*
X141825483Y-138530170D01*
X141696052Y-138423948D01*
X141589830Y-138294517D01*
X141539691Y-138200712D01*
X141510903Y-138146855D01*
X141462300Y-137986629D01*
X141462299Y-137986627D01*
X141445887Y-137820000D01*
X141462299Y-137653373D01*
X141510903Y-137493146D01*
X141510903Y-137493145D01*
X141539691Y-137439288D01*
X141589830Y-137345483D01*
X141696052Y-137216052D01*
X141825483Y-137109830D01*
X141919288Y-137059691D01*
X141973145Y-137030903D01*
X142042912Y-137009740D01*
X142133373Y-136982299D01*
X142258243Y-136970000D01*
X142341757Y-136970000D01*
X142466627Y-136982299D01*
X142466627Y-136982299D01*
G37*
G36*
X145006627Y-136982299D02*
X145097088Y-137009740D01*
X145166855Y-137030903D01*
X145220712Y-137059691D01*
X145314517Y-137109830D01*
X145443948Y-137216052D01*
X145550170Y-137345483D01*
X145600309Y-137439288D01*
X145629097Y-137493145D01*
X145629097Y-137493146D01*
X145677701Y-137653373D01*
X145694113Y-137820000D01*
X145677701Y-137986627D01*
X145677700Y-137986629D01*
X145629097Y-138146855D01*
X145600309Y-138200712D01*
X145550170Y-138294517D01*
X145443948Y-138423948D01*
X145314517Y-138530170D01*
X145220712Y-138580309D01*
X145166855Y-138609097D01*
X145097088Y-138630260D01*
X145006627Y-138657701D01*
X144881757Y-138670000D01*
X144798243Y-138670000D01*
X144673373Y-138657701D01*
X144582912Y-138630260D01*
X144513145Y-138609097D01*
X144459288Y-138580309D01*
X144365483Y-138530170D01*
X144236052Y-138423948D01*
X144129830Y-138294517D01*
X144079691Y-138200712D01*
X144050903Y-138146855D01*
X144002300Y-137986629D01*
X144002299Y-137986627D01*
X143985887Y-137820000D01*
X144002299Y-137653373D01*
X144050903Y-137493146D01*
X144050903Y-137493145D01*
X144079691Y-137439288D01*
X144129830Y-137345483D01*
X144236052Y-137216052D01*
X144365483Y-137109830D01*
X144459288Y-137059691D01*
X144513145Y-137030903D01*
X144582912Y-137009740D01*
X144673373Y-136982299D01*
X144798243Y-136970000D01*
X144881757Y-136970000D01*
X145006627Y-136982299D01*
X145006627Y-136982299D01*
G37*
G36*
X54766627Y-136982299D02*
X54857088Y-137009740D01*
X54926855Y-137030903D01*
X54980712Y-137059691D01*
X55074517Y-137109830D01*
X55203948Y-137216052D01*
X55310170Y-137345483D01*
X55360309Y-137439288D01*
X55389097Y-137493145D01*
X55389097Y-137493146D01*
X55437701Y-137653373D01*
X55454113Y-137820000D01*
X55437701Y-137986627D01*
X55437700Y-137986629D01*
X55389097Y-138146855D01*
X55360309Y-138200712D01*
X55310170Y-138294517D01*
X55203948Y-138423948D01*
X55074517Y-138530170D01*
X54980712Y-138580309D01*
X54926855Y-138609097D01*
X54857088Y-138630260D01*
X54766627Y-138657701D01*
X54641757Y-138670000D01*
X54558243Y-138670000D01*
X54433373Y-138657701D01*
X54342912Y-138630260D01*
X54273145Y-138609097D01*
X54219288Y-138580309D01*
X54125483Y-138530170D01*
X53996052Y-138423948D01*
X53889830Y-138294517D01*
X53839691Y-138200712D01*
X53810903Y-138146855D01*
X53762300Y-137986629D01*
X53762299Y-137986627D01*
X53745887Y-137820000D01*
X53762299Y-137653373D01*
X53810903Y-137493146D01*
X53810903Y-137493145D01*
X53839691Y-137439288D01*
X53889830Y-137345483D01*
X53996052Y-137216052D01*
X54125483Y-137109830D01*
X54219288Y-137059691D01*
X54273145Y-137030903D01*
X54342912Y-137009740D01*
X54433373Y-136982299D01*
X54558243Y-136970000D01*
X54641757Y-136970000D01*
X54766627Y-136982299D01*
X54766627Y-136982299D01*
G37*
G36*
X57306627Y-136982299D02*
X57397088Y-137009740D01*
X57466855Y-137030903D01*
X57520712Y-137059691D01*
X57614517Y-137109830D01*
X57743948Y-137216052D01*
X57850170Y-137345483D01*
X57900309Y-137439288D01*
X57929097Y-137493145D01*
X57929097Y-137493146D01*
X57977701Y-137653373D01*
X57994113Y-137820000D01*
X57977701Y-137986627D01*
X57977700Y-137986629D01*
X57929097Y-138146855D01*
X57900309Y-138200712D01*
X57850170Y-138294517D01*
X57743948Y-138423948D01*
X57614517Y-138530170D01*
X57520712Y-138580309D01*
X57466855Y-138609097D01*
X57397088Y-138630260D01*
X57306627Y-138657701D01*
X57181757Y-138670000D01*
X57098243Y-138670000D01*
X56973373Y-138657701D01*
X56882912Y-138630260D01*
X56813145Y-138609097D01*
X56759288Y-138580309D01*
X56665483Y-138530170D01*
X56536052Y-138423948D01*
X56429830Y-138294517D01*
X56379691Y-138200712D01*
X56350903Y-138146855D01*
X56302300Y-137986629D01*
X56302299Y-137986627D01*
X56285887Y-137820000D01*
X56302299Y-137653373D01*
X56350903Y-137493146D01*
X56350903Y-137493145D01*
X56379691Y-137439288D01*
X56429830Y-137345483D01*
X56536052Y-137216052D01*
X56665483Y-137109830D01*
X56759288Y-137059691D01*
X56813145Y-137030903D01*
X56882912Y-137009740D01*
X56973373Y-136982299D01*
X57098243Y-136970000D01*
X57181757Y-136970000D01*
X57306627Y-136982299D01*
X57306627Y-136982299D01*
G37*
G36*
X57306627Y-134442299D02*
X57397088Y-134469740D01*
X57466855Y-134490903D01*
X57520712Y-134519691D01*
X57614517Y-134569830D01*
X57743948Y-134676052D01*
X57850170Y-134805483D01*
X57900309Y-134899288D01*
X57929097Y-134953145D01*
X57929097Y-134953146D01*
X57977701Y-135113373D01*
X57994113Y-135280000D01*
X57977701Y-135446627D01*
X57977700Y-135446629D01*
X57929097Y-135606855D01*
X57900309Y-135660712D01*
X57850170Y-135754517D01*
X57743948Y-135883948D01*
X57614517Y-135990170D01*
X57520712Y-136040309D01*
X57466855Y-136069097D01*
X57397088Y-136090260D01*
X57306627Y-136117701D01*
X57181757Y-136130000D01*
X57098243Y-136130000D01*
X56973373Y-136117701D01*
X56882912Y-136090260D01*
X56813145Y-136069097D01*
X56759288Y-136040309D01*
X56665483Y-135990170D01*
X56536052Y-135883948D01*
X56429830Y-135754517D01*
X56379691Y-135660712D01*
X56350903Y-135606855D01*
X56302300Y-135446629D01*
X56302299Y-135446627D01*
X56285887Y-135280000D01*
X56302299Y-135113373D01*
X56350903Y-134953146D01*
X56350903Y-134953145D01*
X56379691Y-134899288D01*
X56429830Y-134805483D01*
X56536052Y-134676052D01*
X56665483Y-134569830D01*
X56759288Y-134519691D01*
X56813145Y-134490903D01*
X56882912Y-134469740D01*
X56973373Y-134442299D01*
X57098243Y-134430000D01*
X57181757Y-134430000D01*
X57306627Y-134442299D01*
X57306627Y-134442299D01*
G37*
G36*
X54766627Y-134442299D02*
X54857088Y-134469740D01*
X54926855Y-134490903D01*
X54980712Y-134519691D01*
X55074517Y-134569830D01*
X55203948Y-134676052D01*
X55310170Y-134805483D01*
X55360309Y-134899288D01*
X55389097Y-134953145D01*
X55389097Y-134953146D01*
X55437701Y-135113373D01*
X55454113Y-135280000D01*
X55437701Y-135446627D01*
X55437700Y-135446629D01*
X55389097Y-135606855D01*
X55360309Y-135660712D01*
X55310170Y-135754517D01*
X55203948Y-135883948D01*
X55074517Y-135990170D01*
X54980712Y-136040309D01*
X54926855Y-136069097D01*
X54857088Y-136090260D01*
X54766627Y-136117701D01*
X54641757Y-136130000D01*
X54558243Y-136130000D01*
X54433373Y-136117701D01*
X54342912Y-136090260D01*
X54273145Y-136069097D01*
X54219288Y-136040309D01*
X54125483Y-135990170D01*
X53996052Y-135883948D01*
X53889830Y-135754517D01*
X53839691Y-135660712D01*
X53810903Y-135606855D01*
X53762300Y-135446629D01*
X53762299Y-135446627D01*
X53745887Y-135280000D01*
X53762299Y-135113373D01*
X53810903Y-134953146D01*
X53810903Y-134953145D01*
X53839691Y-134899288D01*
X53889830Y-134805483D01*
X53996052Y-134676052D01*
X54125483Y-134569830D01*
X54219288Y-134519691D01*
X54273145Y-134490903D01*
X54342912Y-134469740D01*
X54433373Y-134442299D01*
X54558243Y-134430000D01*
X54641757Y-134430000D01*
X54766627Y-134442299D01*
X54766627Y-134442299D01*
G37*
G36*
X145006627Y-134442299D02*
X145097088Y-134469740D01*
X145166855Y-134490903D01*
X145220712Y-134519691D01*
X145314517Y-134569830D01*
X145443948Y-134676052D01*
X145550170Y-134805483D01*
X145600309Y-134899288D01*
X145629097Y-134953145D01*
X145629097Y-134953146D01*
X145677701Y-135113373D01*
X145694113Y-135280000D01*
X145677701Y-135446627D01*
X145677700Y-135446629D01*
X145629097Y-135606855D01*
X145600309Y-135660712D01*
X145550170Y-135754517D01*
X145443948Y-135883948D01*
X145314517Y-135990170D01*
X145220712Y-136040309D01*
X145166855Y-136069097D01*
X145097088Y-136090260D01*
X145006627Y-136117701D01*
X144881757Y-136130000D01*
X144798243Y-136130000D01*
X144673373Y-136117701D01*
X144582912Y-136090260D01*
X144513145Y-136069097D01*
X144459288Y-136040309D01*
X144365483Y-135990170D01*
X144236052Y-135883948D01*
X144129830Y-135754517D01*
X144079691Y-135660712D01*
X144050903Y-135606855D01*
X144002300Y-135446629D01*
X144002299Y-135446627D01*
X143985887Y-135280000D01*
X144002299Y-135113373D01*
X144050903Y-134953146D01*
X144050903Y-134953145D01*
X144079691Y-134899288D01*
X144129830Y-134805483D01*
X144236052Y-134676052D01*
X144365483Y-134569830D01*
X144459288Y-134519691D01*
X144513145Y-134490903D01*
X144582912Y-134469740D01*
X144673373Y-134442299D01*
X144798243Y-134430000D01*
X144881757Y-134430000D01*
X145006627Y-134442299D01*
X145006627Y-134442299D01*
G37*
G36*
X142466627Y-134442299D02*
X142557088Y-134469740D01*
X142626855Y-134490903D01*
X142680712Y-134519691D01*
X142774517Y-134569830D01*
X142903948Y-134676052D01*
X143010170Y-134805483D01*
X143060309Y-134899288D01*
X143089097Y-134953145D01*
X143089097Y-134953146D01*
X143137701Y-135113373D01*
X143154113Y-135280000D01*
X143137701Y-135446627D01*
X143137700Y-135446629D01*
X143089097Y-135606855D01*
X143060309Y-135660712D01*
X143010170Y-135754517D01*
X142903948Y-135883948D01*
X142774517Y-135990170D01*
X142680712Y-136040309D01*
X142626855Y-136069097D01*
X142557088Y-136090260D01*
X142466627Y-136117701D01*
X142341757Y-136130000D01*
X142258243Y-136130000D01*
X142133373Y-136117701D01*
X142042912Y-136090260D01*
X141973145Y-136069097D01*
X141919288Y-136040309D01*
X141825483Y-135990170D01*
X141696052Y-135883948D01*
X141589830Y-135754517D01*
X141539691Y-135660712D01*
X141510903Y-135606855D01*
X141462300Y-135446629D01*
X141462299Y-135446627D01*
X141445887Y-135280000D01*
X141462299Y-135113373D01*
X141510903Y-134953146D01*
X141510903Y-134953145D01*
X141539691Y-134899288D01*
X141589830Y-134805483D01*
X141696052Y-134676052D01*
X141825483Y-134569830D01*
X141919288Y-134519691D01*
X141973145Y-134490903D01*
X142042912Y-134469740D01*
X142133373Y-134442299D01*
X142258243Y-134430000D01*
X142341757Y-134430000D01*
X142466627Y-134442299D01*
X142466627Y-134442299D01*
G37*
G36*
X145006627Y-131902299D02*
X145097088Y-131929740D01*
X145166855Y-131950903D01*
X145220712Y-131979691D01*
X145314517Y-132029830D01*
X145443948Y-132136052D01*
X145550170Y-132265483D01*
X145600309Y-132359288D01*
X145629097Y-132413145D01*
X145629097Y-132413146D01*
X145677701Y-132573373D01*
X145694113Y-132740000D01*
X145677701Y-132906627D01*
X145677700Y-132906629D01*
X145629097Y-133066855D01*
X145600309Y-133120712D01*
X145550170Y-133214517D01*
X145443948Y-133343948D01*
X145314517Y-133450170D01*
X145220712Y-133500309D01*
X145166855Y-133529097D01*
X145097088Y-133550260D01*
X145006627Y-133577701D01*
X144881757Y-133590000D01*
X144798243Y-133590000D01*
X144673373Y-133577701D01*
X144582912Y-133550260D01*
X144513145Y-133529097D01*
X144459288Y-133500309D01*
X144365483Y-133450170D01*
X144236052Y-133343948D01*
X144129830Y-133214517D01*
X144079691Y-133120712D01*
X144050903Y-133066855D01*
X144002300Y-132906629D01*
X144002299Y-132906627D01*
X143985887Y-132740000D01*
X144002299Y-132573373D01*
X144050903Y-132413146D01*
X144050903Y-132413145D01*
X144079691Y-132359288D01*
X144129830Y-132265483D01*
X144236052Y-132136052D01*
X144365483Y-132029830D01*
X144459288Y-131979691D01*
X144513145Y-131950903D01*
X144582912Y-131929740D01*
X144673373Y-131902299D01*
X144798243Y-131890000D01*
X144881757Y-131890000D01*
X145006627Y-131902299D01*
X145006627Y-131902299D01*
G37*
G36*
X57306627Y-131902299D02*
X57397088Y-131929740D01*
X57466855Y-131950903D01*
X57520712Y-131979691D01*
X57614517Y-132029830D01*
X57743948Y-132136052D01*
X57850170Y-132265483D01*
X57900309Y-132359288D01*
X57929097Y-132413145D01*
X57929097Y-132413146D01*
X57977701Y-132573373D01*
X57994113Y-132740000D01*
X57977701Y-132906627D01*
X57977700Y-132906629D01*
X57929097Y-133066855D01*
X57900309Y-133120712D01*
X57850170Y-133214517D01*
X57743948Y-133343948D01*
X57614517Y-133450170D01*
X57520712Y-133500309D01*
X57466855Y-133529097D01*
X57397088Y-133550260D01*
X57306627Y-133577701D01*
X57181757Y-133590000D01*
X57098243Y-133590000D01*
X56973373Y-133577701D01*
X56882912Y-133550260D01*
X56813145Y-133529097D01*
X56759288Y-133500309D01*
X56665483Y-133450170D01*
X56536052Y-133343948D01*
X56429830Y-133214517D01*
X56379691Y-133120712D01*
X56350903Y-133066855D01*
X56302300Y-132906629D01*
X56302299Y-132906627D01*
X56285887Y-132740000D01*
X56302299Y-132573373D01*
X56350903Y-132413146D01*
X56350903Y-132413145D01*
X56379691Y-132359288D01*
X56429830Y-132265483D01*
X56536052Y-132136052D01*
X56665483Y-132029830D01*
X56759288Y-131979691D01*
X56813145Y-131950903D01*
X56882912Y-131929740D01*
X56973373Y-131902299D01*
X57098243Y-131890000D01*
X57181757Y-131890000D01*
X57306627Y-131902299D01*
X57306627Y-131902299D01*
G37*
G36*
X54766627Y-131902299D02*
X54857088Y-131929740D01*
X54926855Y-131950903D01*
X54980712Y-131979691D01*
X55074517Y-132029830D01*
X55203948Y-132136052D01*
X55310170Y-132265483D01*
X55360309Y-132359288D01*
X55389097Y-132413145D01*
X55389097Y-132413146D01*
X55437701Y-132573373D01*
X55454113Y-132740000D01*
X55437701Y-132906627D01*
X55437700Y-132906629D01*
X55389097Y-133066855D01*
X55360309Y-133120712D01*
X55310170Y-133214517D01*
X55203948Y-133343948D01*
X55074517Y-133450170D01*
X54980712Y-133500309D01*
X54926855Y-133529097D01*
X54857088Y-133550260D01*
X54766627Y-133577701D01*
X54641757Y-133590000D01*
X54558243Y-133590000D01*
X54433373Y-133577701D01*
X54342912Y-133550260D01*
X54273145Y-133529097D01*
X54219288Y-133500309D01*
X54125483Y-133450170D01*
X53996052Y-133343948D01*
X53889830Y-133214517D01*
X53839691Y-133120712D01*
X53810903Y-133066855D01*
X53762300Y-132906629D01*
X53762299Y-132906627D01*
X53745887Y-132740000D01*
X53762299Y-132573373D01*
X53810903Y-132413146D01*
X53810903Y-132413145D01*
X53839691Y-132359288D01*
X53889830Y-132265483D01*
X53996052Y-132136052D01*
X54125483Y-132029830D01*
X54219288Y-131979691D01*
X54273145Y-131950903D01*
X54342912Y-131929740D01*
X54433373Y-131902299D01*
X54558243Y-131890000D01*
X54641757Y-131890000D01*
X54766627Y-131902299D01*
X54766627Y-131902299D01*
G37*
G36*
X142466627Y-131902299D02*
X142557088Y-131929740D01*
X142626855Y-131950903D01*
X142680712Y-131979691D01*
X142774517Y-132029830D01*
X142903948Y-132136052D01*
X143010170Y-132265483D01*
X143060309Y-132359288D01*
X143089097Y-132413145D01*
X143089097Y-132413146D01*
X143137701Y-132573373D01*
X143154113Y-132740000D01*
X143137701Y-132906627D01*
X143137700Y-132906629D01*
X143089097Y-133066855D01*
X143060309Y-133120712D01*
X143010170Y-133214517D01*
X142903948Y-133343948D01*
X142774517Y-133450170D01*
X142680712Y-133500309D01*
X142626855Y-133529097D01*
X142557088Y-133550260D01*
X142466627Y-133577701D01*
X142341757Y-133590000D01*
X142258243Y-133590000D01*
X142133373Y-133577701D01*
X142042912Y-133550260D01*
X141973145Y-133529097D01*
X141919288Y-133500309D01*
X141825483Y-133450170D01*
X141696052Y-133343948D01*
X141589830Y-133214517D01*
X141539691Y-133120712D01*
X141510903Y-133066855D01*
X141462300Y-132906629D01*
X141462299Y-132906627D01*
X141445887Y-132740000D01*
X141462299Y-132573373D01*
X141510903Y-132413146D01*
X141510903Y-132413145D01*
X141539691Y-132359288D01*
X141589830Y-132265483D01*
X141696052Y-132136052D01*
X141825483Y-132029830D01*
X141919288Y-131979691D01*
X141973145Y-131950903D01*
X142042912Y-131929740D01*
X142133373Y-131902299D01*
X142258243Y-131890000D01*
X142341757Y-131890000D01*
X142466627Y-131902299D01*
X142466627Y-131902299D01*
G37*
G36*
X54766627Y-129362299D02*
X54857088Y-129389740D01*
X54926855Y-129410903D01*
X54980712Y-129439691D01*
X55074517Y-129489830D01*
X55203948Y-129596052D01*
X55310170Y-129725483D01*
X55360309Y-129819288D01*
X55389097Y-129873145D01*
X55389097Y-129873146D01*
X55437701Y-130033373D01*
X55454113Y-130200000D01*
X55437701Y-130366627D01*
X55437700Y-130366629D01*
X55389097Y-130526855D01*
X55360309Y-130580712D01*
X55310170Y-130674517D01*
X55203948Y-130803948D01*
X55074517Y-130910170D01*
X54980712Y-130960309D01*
X54926855Y-130989097D01*
X54857088Y-131010260D01*
X54766627Y-131037701D01*
X54641757Y-131050000D01*
X54558243Y-131050000D01*
X54433373Y-131037701D01*
X54342912Y-131010260D01*
X54273145Y-130989097D01*
X54219288Y-130960309D01*
X54125483Y-130910170D01*
X53996052Y-130803948D01*
X53889830Y-130674517D01*
X53839691Y-130580712D01*
X53810903Y-130526855D01*
X53762300Y-130366629D01*
X53762299Y-130366627D01*
X53745887Y-130200000D01*
X53762299Y-130033373D01*
X53810903Y-129873146D01*
X53810903Y-129873145D01*
X53839691Y-129819288D01*
X53889830Y-129725483D01*
X53996052Y-129596052D01*
X54125483Y-129489830D01*
X54219288Y-129439691D01*
X54273145Y-129410903D01*
X54342912Y-129389740D01*
X54433373Y-129362299D01*
X54558243Y-129350000D01*
X54641757Y-129350000D01*
X54766627Y-129362299D01*
X54766627Y-129362299D01*
G37*
G36*
X145006627Y-129362299D02*
X145097088Y-129389740D01*
X145166855Y-129410903D01*
X145220712Y-129439691D01*
X145314517Y-129489830D01*
X145443948Y-129596052D01*
X145550170Y-129725483D01*
X145600309Y-129819288D01*
X145629097Y-129873145D01*
X145629097Y-129873146D01*
X145677701Y-130033373D01*
X145694113Y-130200000D01*
X145677701Y-130366627D01*
X145677700Y-130366629D01*
X145629097Y-130526855D01*
X145600309Y-130580712D01*
X145550170Y-130674517D01*
X145443948Y-130803948D01*
X145314517Y-130910170D01*
X145220712Y-130960309D01*
X145166855Y-130989097D01*
X145097088Y-131010260D01*
X145006627Y-131037701D01*
X144881757Y-131050000D01*
X144798243Y-131050000D01*
X144673373Y-131037701D01*
X144582912Y-131010260D01*
X144513145Y-130989097D01*
X144459288Y-130960309D01*
X144365483Y-130910170D01*
X144236052Y-130803948D01*
X144129830Y-130674517D01*
X144079691Y-130580712D01*
X144050903Y-130526855D01*
X144002300Y-130366629D01*
X144002299Y-130366627D01*
X143985887Y-130200000D01*
X144002299Y-130033373D01*
X144050903Y-129873146D01*
X144050903Y-129873145D01*
X144079691Y-129819288D01*
X144129830Y-129725483D01*
X144236052Y-129596052D01*
X144365483Y-129489830D01*
X144459288Y-129439691D01*
X144513145Y-129410903D01*
X144582912Y-129389740D01*
X144673373Y-129362299D01*
X144798243Y-129350000D01*
X144881757Y-129350000D01*
X145006627Y-129362299D01*
X145006627Y-129362299D01*
G37*
G36*
X142466627Y-129362299D02*
X142557088Y-129389740D01*
X142626855Y-129410903D01*
X142680712Y-129439691D01*
X142774517Y-129489830D01*
X142903948Y-129596052D01*
X143010170Y-129725483D01*
X143060309Y-129819288D01*
X143089097Y-129873145D01*
X143089097Y-129873146D01*
X143137701Y-130033373D01*
X143154113Y-130200000D01*
X143137701Y-130366627D01*
X143137700Y-130366629D01*
X143089097Y-130526855D01*
X143060309Y-130580712D01*
X143010170Y-130674517D01*
X142903948Y-130803948D01*
X142774517Y-130910170D01*
X142680712Y-130960309D01*
X142626855Y-130989097D01*
X142557088Y-131010260D01*
X142466627Y-131037701D01*
X142341757Y-131050000D01*
X142258243Y-131050000D01*
X142133373Y-131037701D01*
X142042912Y-131010260D01*
X141973145Y-130989097D01*
X141919288Y-130960309D01*
X141825483Y-130910170D01*
X141696052Y-130803948D01*
X141589830Y-130674517D01*
X141539691Y-130580712D01*
X141510903Y-130526855D01*
X141462300Y-130366629D01*
X141462299Y-130366627D01*
X141445887Y-130200000D01*
X141462299Y-130033373D01*
X141510903Y-129873146D01*
X141510903Y-129873145D01*
X141539691Y-129819288D01*
X141589830Y-129725483D01*
X141696052Y-129596052D01*
X141825483Y-129489830D01*
X141919288Y-129439691D01*
X141973145Y-129410903D01*
X142042912Y-129389740D01*
X142133373Y-129362299D01*
X142258243Y-129350000D01*
X142341757Y-129350000D01*
X142466627Y-129362299D01*
X142466627Y-129362299D01*
G37*
G36*
X57306627Y-129362299D02*
X57397088Y-129389740D01*
X57466855Y-129410903D01*
X57520712Y-129439691D01*
X57614517Y-129489830D01*
X57743948Y-129596052D01*
X57850170Y-129725483D01*
X57900309Y-129819288D01*
X57929097Y-129873145D01*
X57929097Y-129873146D01*
X57977701Y-130033373D01*
X57994113Y-130200000D01*
X57977701Y-130366627D01*
X57977700Y-130366629D01*
X57929097Y-130526855D01*
X57900309Y-130580712D01*
X57850170Y-130674517D01*
X57743948Y-130803948D01*
X57614517Y-130910170D01*
X57520712Y-130960309D01*
X57466855Y-130989097D01*
X57397088Y-131010260D01*
X57306627Y-131037701D01*
X57181757Y-131050000D01*
X57098243Y-131050000D01*
X56973373Y-131037701D01*
X56882912Y-131010260D01*
X56813145Y-130989097D01*
X56759288Y-130960309D01*
X56665483Y-130910170D01*
X56536052Y-130803948D01*
X56429830Y-130674517D01*
X56379691Y-130580712D01*
X56350903Y-130526855D01*
X56302300Y-130366629D01*
X56302299Y-130366627D01*
X56285887Y-130200000D01*
X56302299Y-130033373D01*
X56350903Y-129873146D01*
X56350903Y-129873145D01*
X56379691Y-129819288D01*
X56429830Y-129725483D01*
X56536052Y-129596052D01*
X56665483Y-129489830D01*
X56759288Y-129439691D01*
X56813145Y-129410903D01*
X56882912Y-129389740D01*
X56973373Y-129362299D01*
X57098243Y-129350000D01*
X57181757Y-129350000D01*
X57306627Y-129362299D01*
X57306627Y-129362299D01*
G37*
G36*
X54766627Y-126822299D02*
X54857088Y-126849740D01*
X54926855Y-126870903D01*
X54980712Y-126899691D01*
X55074517Y-126949830D01*
X55203948Y-127056052D01*
X55310170Y-127185483D01*
X55360309Y-127279288D01*
X55389097Y-127333145D01*
X55389097Y-127333146D01*
X55437701Y-127493373D01*
X55454113Y-127660000D01*
X55437701Y-127826627D01*
X55437700Y-127826629D01*
X55389097Y-127986855D01*
X55360309Y-128040712D01*
X55310170Y-128134517D01*
X55203948Y-128263948D01*
X55074517Y-128370170D01*
X54980712Y-128420309D01*
X54926855Y-128449097D01*
X54857088Y-128470260D01*
X54766627Y-128497701D01*
X54641757Y-128510000D01*
X54558243Y-128510000D01*
X54433373Y-128497701D01*
X54342912Y-128470260D01*
X54273145Y-128449097D01*
X54219288Y-128420309D01*
X54125483Y-128370170D01*
X53996052Y-128263948D01*
X53889830Y-128134517D01*
X53839691Y-128040712D01*
X53810903Y-127986855D01*
X53762300Y-127826629D01*
X53762299Y-127826627D01*
X53745887Y-127660000D01*
X53762299Y-127493373D01*
X53810903Y-127333146D01*
X53810903Y-127333145D01*
X53839691Y-127279288D01*
X53889830Y-127185483D01*
X53996052Y-127056052D01*
X54125483Y-126949830D01*
X54219288Y-126899691D01*
X54273145Y-126870903D01*
X54342912Y-126849740D01*
X54433373Y-126822299D01*
X54558243Y-126810000D01*
X54641757Y-126810000D01*
X54766627Y-126822299D01*
X54766627Y-126822299D01*
G37*
G36*
X145006627Y-126822299D02*
X145097088Y-126849740D01*
X145166855Y-126870903D01*
X145220712Y-126899691D01*
X145314517Y-126949830D01*
X145443948Y-127056052D01*
X145550170Y-127185483D01*
X145600309Y-127279288D01*
X145629097Y-127333145D01*
X145629097Y-127333146D01*
X145677701Y-127493373D01*
X145694113Y-127660000D01*
X145677701Y-127826627D01*
X145677700Y-127826629D01*
X145629097Y-127986855D01*
X145600309Y-128040712D01*
X145550170Y-128134517D01*
X145443948Y-128263948D01*
X145314517Y-128370170D01*
X145220712Y-128420309D01*
X145166855Y-128449097D01*
X145097088Y-128470260D01*
X145006627Y-128497701D01*
X144881757Y-128510000D01*
X144798243Y-128510000D01*
X144673373Y-128497701D01*
X144582912Y-128470260D01*
X144513145Y-128449097D01*
X144459288Y-128420309D01*
X144365483Y-128370170D01*
X144236052Y-128263948D01*
X144129830Y-128134517D01*
X144079691Y-128040712D01*
X144050903Y-127986855D01*
X144002300Y-127826629D01*
X144002299Y-127826627D01*
X143985887Y-127660000D01*
X144002299Y-127493373D01*
X144050903Y-127333146D01*
X144050903Y-127333145D01*
X144079691Y-127279288D01*
X144129830Y-127185483D01*
X144236052Y-127056052D01*
X144365483Y-126949830D01*
X144459288Y-126899691D01*
X144513145Y-126870903D01*
X144582912Y-126849740D01*
X144673373Y-126822299D01*
X144798243Y-126810000D01*
X144881757Y-126810000D01*
X145006627Y-126822299D01*
X145006627Y-126822299D01*
G37*
G36*
X57306627Y-126822299D02*
X57397088Y-126849740D01*
X57466855Y-126870903D01*
X57520712Y-126899691D01*
X57614517Y-126949830D01*
X57743948Y-127056052D01*
X57850170Y-127185483D01*
X57900309Y-127279288D01*
X57929097Y-127333145D01*
X57929097Y-127333146D01*
X57977701Y-127493373D01*
X57994113Y-127660000D01*
X57977701Y-127826627D01*
X57977700Y-127826629D01*
X57929097Y-127986855D01*
X57900309Y-128040712D01*
X57850170Y-128134517D01*
X57743948Y-128263948D01*
X57614517Y-128370170D01*
X57520712Y-128420309D01*
X57466855Y-128449097D01*
X57397088Y-128470260D01*
X57306627Y-128497701D01*
X57181757Y-128510000D01*
X57098243Y-128510000D01*
X56973373Y-128497701D01*
X56882912Y-128470260D01*
X56813145Y-128449097D01*
X56759288Y-128420309D01*
X56665483Y-128370170D01*
X56536052Y-128263948D01*
X56429830Y-128134517D01*
X56379691Y-128040712D01*
X56350903Y-127986855D01*
X56302300Y-127826629D01*
X56302299Y-127826627D01*
X56285887Y-127660000D01*
X56302299Y-127493373D01*
X56350903Y-127333146D01*
X56350903Y-127333145D01*
X56379691Y-127279288D01*
X56429830Y-127185483D01*
X56536052Y-127056052D01*
X56665483Y-126949830D01*
X56759288Y-126899691D01*
X56813145Y-126870903D01*
X56882912Y-126849740D01*
X56973373Y-126822299D01*
X57098243Y-126810000D01*
X57181757Y-126810000D01*
X57306627Y-126822299D01*
X57306627Y-126822299D01*
G37*
G36*
X142466627Y-126822299D02*
X142557088Y-126849740D01*
X142626855Y-126870903D01*
X142680712Y-126899691D01*
X142774517Y-126949830D01*
X142903948Y-127056052D01*
X143010170Y-127185483D01*
X143060309Y-127279288D01*
X143089097Y-127333145D01*
X143089097Y-127333146D01*
X143137701Y-127493373D01*
X143154113Y-127660000D01*
X143137701Y-127826627D01*
X143137700Y-127826629D01*
X143089097Y-127986855D01*
X143060309Y-128040712D01*
X143010170Y-128134517D01*
X142903948Y-128263948D01*
X142774517Y-128370170D01*
X142680712Y-128420309D01*
X142626855Y-128449097D01*
X142557088Y-128470260D01*
X142466627Y-128497701D01*
X142341757Y-128510000D01*
X142258243Y-128510000D01*
X142133373Y-128497701D01*
X142042912Y-128470260D01*
X141973145Y-128449097D01*
X141919288Y-128420309D01*
X141825483Y-128370170D01*
X141696052Y-128263948D01*
X141589830Y-128134517D01*
X141539691Y-128040712D01*
X141510903Y-127986855D01*
X141462300Y-127826629D01*
X141462299Y-127826627D01*
X141445887Y-127660000D01*
X141462299Y-127493373D01*
X141510903Y-127333146D01*
X141510903Y-127333145D01*
X141539691Y-127279288D01*
X141589830Y-127185483D01*
X141696052Y-127056052D01*
X141825483Y-126949830D01*
X141919288Y-126899691D01*
X141973145Y-126870903D01*
X142042912Y-126849740D01*
X142133373Y-126822299D01*
X142258243Y-126810000D01*
X142341757Y-126810000D01*
X142466627Y-126822299D01*
X142466627Y-126822299D01*
G37*
G36*
X142466627Y-124282299D02*
X142557088Y-124309740D01*
X142626855Y-124330903D01*
X142680712Y-124359691D01*
X142774517Y-124409830D01*
X142903948Y-124516052D01*
X143010170Y-124645483D01*
X143060309Y-124739288D01*
X143089097Y-124793145D01*
X143089097Y-124793146D01*
X143137701Y-124953373D01*
X143154113Y-125120000D01*
X143137701Y-125286627D01*
X143137700Y-125286629D01*
X143089097Y-125446855D01*
X143060309Y-125500712D01*
X143010170Y-125594517D01*
X142903948Y-125723948D01*
X142774517Y-125830170D01*
X142680712Y-125880309D01*
X142626855Y-125909097D01*
X142557088Y-125930260D01*
X142466627Y-125957701D01*
X142341757Y-125970000D01*
X142258243Y-125970000D01*
X142133373Y-125957701D01*
X142042912Y-125930260D01*
X141973145Y-125909097D01*
X141919288Y-125880309D01*
X141825483Y-125830170D01*
X141696052Y-125723948D01*
X141589830Y-125594517D01*
X141539691Y-125500712D01*
X141510903Y-125446855D01*
X141462300Y-125286629D01*
X141462299Y-125286627D01*
X141445887Y-125120000D01*
X141462299Y-124953373D01*
X141510903Y-124793146D01*
X141510903Y-124793145D01*
X141539691Y-124739288D01*
X141589830Y-124645483D01*
X141696052Y-124516052D01*
X141825483Y-124409830D01*
X141919288Y-124359691D01*
X141973145Y-124330903D01*
X142042912Y-124309740D01*
X142133373Y-124282299D01*
X142258243Y-124270000D01*
X142341757Y-124270000D01*
X142466627Y-124282299D01*
X142466627Y-124282299D01*
G37*
G36*
X54766627Y-124282299D02*
X54857088Y-124309740D01*
X54926855Y-124330903D01*
X54980712Y-124359691D01*
X55074517Y-124409830D01*
X55203948Y-124516052D01*
X55310170Y-124645483D01*
X55360309Y-124739288D01*
X55389097Y-124793145D01*
X55389097Y-124793146D01*
X55437701Y-124953373D01*
X55454113Y-125120000D01*
X55437701Y-125286627D01*
X55437700Y-125286629D01*
X55389097Y-125446855D01*
X55360309Y-125500712D01*
X55310170Y-125594517D01*
X55203948Y-125723948D01*
X55074517Y-125830170D01*
X54980712Y-125880309D01*
X54926855Y-125909097D01*
X54857088Y-125930260D01*
X54766627Y-125957701D01*
X54641757Y-125970000D01*
X54558243Y-125970000D01*
X54433373Y-125957701D01*
X54342912Y-125930260D01*
X54273145Y-125909097D01*
X54219288Y-125880309D01*
X54125483Y-125830170D01*
X53996052Y-125723948D01*
X53889830Y-125594517D01*
X53839691Y-125500712D01*
X53810903Y-125446855D01*
X53762300Y-125286629D01*
X53762299Y-125286627D01*
X53745887Y-125120000D01*
X53762299Y-124953373D01*
X53810903Y-124793146D01*
X53810903Y-124793145D01*
X53839691Y-124739288D01*
X53889830Y-124645483D01*
X53996052Y-124516052D01*
X54125483Y-124409830D01*
X54219288Y-124359691D01*
X54273145Y-124330903D01*
X54342912Y-124309740D01*
X54433373Y-124282299D01*
X54558243Y-124270000D01*
X54641757Y-124270000D01*
X54766627Y-124282299D01*
X54766627Y-124282299D01*
G37*
G36*
X145006627Y-124282299D02*
X145097088Y-124309740D01*
X145166855Y-124330903D01*
X145220712Y-124359691D01*
X145314517Y-124409830D01*
X145443948Y-124516052D01*
X145550170Y-124645483D01*
X145600309Y-124739288D01*
X145629097Y-124793145D01*
X145629097Y-124793146D01*
X145677701Y-124953373D01*
X145694113Y-125120000D01*
X145677701Y-125286627D01*
X145677700Y-125286629D01*
X145629097Y-125446855D01*
X145600309Y-125500712D01*
X145550170Y-125594517D01*
X145443948Y-125723948D01*
X145314517Y-125830170D01*
X145220712Y-125880309D01*
X145166855Y-125909097D01*
X145097088Y-125930260D01*
X145006627Y-125957701D01*
X144881757Y-125970000D01*
X144798243Y-125970000D01*
X144673373Y-125957701D01*
X144582912Y-125930260D01*
X144513145Y-125909097D01*
X144459288Y-125880309D01*
X144365483Y-125830170D01*
X144236052Y-125723948D01*
X144129830Y-125594517D01*
X144079691Y-125500712D01*
X144050903Y-125446855D01*
X144002300Y-125286629D01*
X144002299Y-125286627D01*
X143985887Y-125120000D01*
X144002299Y-124953373D01*
X144050903Y-124793146D01*
X144050903Y-124793145D01*
X144079691Y-124739288D01*
X144129830Y-124645483D01*
X144236052Y-124516052D01*
X144365483Y-124409830D01*
X144459288Y-124359691D01*
X144513145Y-124330903D01*
X144582912Y-124309740D01*
X144673373Y-124282299D01*
X144798243Y-124270000D01*
X144881757Y-124270000D01*
X145006627Y-124282299D01*
X145006627Y-124282299D01*
G37*
G36*
X57306627Y-124282299D02*
X57397088Y-124309740D01*
X57466855Y-124330903D01*
X57520712Y-124359691D01*
X57614517Y-124409830D01*
X57743948Y-124516052D01*
X57850170Y-124645483D01*
X57900309Y-124739288D01*
X57929097Y-124793145D01*
X57929097Y-124793146D01*
X57977701Y-124953373D01*
X57994113Y-125120000D01*
X57977701Y-125286627D01*
X57977700Y-125286629D01*
X57929097Y-125446855D01*
X57900309Y-125500712D01*
X57850170Y-125594517D01*
X57743948Y-125723948D01*
X57614517Y-125830170D01*
X57520712Y-125880309D01*
X57466855Y-125909097D01*
X57397088Y-125930260D01*
X57306627Y-125957701D01*
X57181757Y-125970000D01*
X57098243Y-125970000D01*
X56973373Y-125957701D01*
X56882912Y-125930260D01*
X56813145Y-125909097D01*
X56759288Y-125880309D01*
X56665483Y-125830170D01*
X56536052Y-125723948D01*
X56429830Y-125594517D01*
X56379691Y-125500712D01*
X56350903Y-125446855D01*
X56302300Y-125286629D01*
X56302299Y-125286627D01*
X56285887Y-125120000D01*
X56302299Y-124953373D01*
X56350903Y-124793146D01*
X56350903Y-124793145D01*
X56379691Y-124739288D01*
X56429830Y-124645483D01*
X56536052Y-124516052D01*
X56665483Y-124409830D01*
X56759288Y-124359691D01*
X56813145Y-124330903D01*
X56882912Y-124309740D01*
X56973373Y-124282299D01*
X57098243Y-124270000D01*
X57181757Y-124270000D01*
X57306627Y-124282299D01*
X57306627Y-124282299D01*
G37*
G36*
X57306627Y-121742299D02*
X57397088Y-121769740D01*
X57466855Y-121790903D01*
X57520712Y-121819691D01*
X57614517Y-121869830D01*
X57743948Y-121976052D01*
X57850170Y-122105483D01*
X57900309Y-122199288D01*
X57929097Y-122253145D01*
X57929097Y-122253146D01*
X57977701Y-122413373D01*
X57994113Y-122580000D01*
X57977701Y-122746627D01*
X57977700Y-122746629D01*
X57929097Y-122906855D01*
X57900309Y-122960712D01*
X57850170Y-123054517D01*
X57743948Y-123183948D01*
X57614517Y-123290170D01*
X57520712Y-123340309D01*
X57466855Y-123369097D01*
X57397088Y-123390260D01*
X57306627Y-123417701D01*
X57181757Y-123430000D01*
X57098243Y-123430000D01*
X56973373Y-123417701D01*
X56882912Y-123390260D01*
X56813145Y-123369097D01*
X56759288Y-123340309D01*
X56665483Y-123290170D01*
X56536052Y-123183948D01*
X56429830Y-123054517D01*
X56379691Y-122960712D01*
X56350903Y-122906855D01*
X56302300Y-122746629D01*
X56302299Y-122746627D01*
X56285887Y-122580000D01*
X56302299Y-122413373D01*
X56350903Y-122253146D01*
X56350903Y-122253145D01*
X56379691Y-122199288D01*
X56429830Y-122105483D01*
X56536052Y-121976052D01*
X56665483Y-121869830D01*
X56759288Y-121819691D01*
X56813145Y-121790903D01*
X56882912Y-121769740D01*
X56973373Y-121742299D01*
X57098243Y-121730000D01*
X57181757Y-121730000D01*
X57306627Y-121742299D01*
X57306627Y-121742299D01*
G37*
G36*
X142466627Y-121742299D02*
X142557088Y-121769740D01*
X142626855Y-121790903D01*
X142680712Y-121819691D01*
X142774517Y-121869830D01*
X142903948Y-121976052D01*
X143010170Y-122105483D01*
X143060309Y-122199288D01*
X143089097Y-122253145D01*
X143089097Y-122253146D01*
X143137701Y-122413373D01*
X143154113Y-122580000D01*
X143137701Y-122746627D01*
X143137700Y-122746629D01*
X143089097Y-122906855D01*
X143060309Y-122960712D01*
X143010170Y-123054517D01*
X142903948Y-123183948D01*
X142774517Y-123290170D01*
X142680712Y-123340309D01*
X142626855Y-123369097D01*
X142557088Y-123390260D01*
X142466627Y-123417701D01*
X142341757Y-123430000D01*
X142258243Y-123430000D01*
X142133373Y-123417701D01*
X142042912Y-123390260D01*
X141973145Y-123369097D01*
X141919288Y-123340309D01*
X141825483Y-123290170D01*
X141696052Y-123183948D01*
X141589830Y-123054517D01*
X141539691Y-122960712D01*
X141510903Y-122906855D01*
X141462300Y-122746629D01*
X141462299Y-122746627D01*
X141445887Y-122580000D01*
X141462299Y-122413373D01*
X141510903Y-122253146D01*
X141510903Y-122253145D01*
X141539691Y-122199288D01*
X141589830Y-122105483D01*
X141696052Y-121976052D01*
X141825483Y-121869830D01*
X141919288Y-121819691D01*
X141973145Y-121790903D01*
X142042912Y-121769740D01*
X142133373Y-121742299D01*
X142258243Y-121730000D01*
X142341757Y-121730000D01*
X142466627Y-121742299D01*
X142466627Y-121742299D01*
G37*
G36*
X145006627Y-121742299D02*
X145097088Y-121769740D01*
X145166855Y-121790903D01*
X145220712Y-121819691D01*
X145314517Y-121869830D01*
X145443948Y-121976052D01*
X145550170Y-122105483D01*
X145600309Y-122199288D01*
X145629097Y-122253145D01*
X145629097Y-122253146D01*
X145677701Y-122413373D01*
X145694113Y-122580000D01*
X145677701Y-122746627D01*
X145677700Y-122746629D01*
X145629097Y-122906855D01*
X145600309Y-122960712D01*
X145550170Y-123054517D01*
X145443948Y-123183948D01*
X145314517Y-123290170D01*
X145220712Y-123340309D01*
X145166855Y-123369097D01*
X145097088Y-123390260D01*
X145006627Y-123417701D01*
X144881757Y-123430000D01*
X144798243Y-123430000D01*
X144673373Y-123417701D01*
X144582912Y-123390260D01*
X144513145Y-123369097D01*
X144459288Y-123340309D01*
X144365483Y-123290170D01*
X144236052Y-123183948D01*
X144129830Y-123054517D01*
X144079691Y-122960712D01*
X144050903Y-122906855D01*
X144002300Y-122746629D01*
X144002299Y-122746627D01*
X143985887Y-122580000D01*
X144002299Y-122413373D01*
X144050903Y-122253146D01*
X144050903Y-122253145D01*
X144079691Y-122199288D01*
X144129830Y-122105483D01*
X144236052Y-121976052D01*
X144365483Y-121869830D01*
X144459288Y-121819691D01*
X144513145Y-121790903D01*
X144582912Y-121769740D01*
X144673373Y-121742299D01*
X144798243Y-121730000D01*
X144881757Y-121730000D01*
X145006627Y-121742299D01*
X145006627Y-121742299D01*
G37*
G36*
X54766627Y-121742299D02*
X54857088Y-121769740D01*
X54926855Y-121790903D01*
X54980712Y-121819691D01*
X55074517Y-121869830D01*
X55203948Y-121976052D01*
X55310170Y-122105483D01*
X55360309Y-122199288D01*
X55389097Y-122253145D01*
X55389097Y-122253146D01*
X55437701Y-122413373D01*
X55454113Y-122580000D01*
X55437701Y-122746627D01*
X55437700Y-122746629D01*
X55389097Y-122906855D01*
X55360309Y-122960712D01*
X55310170Y-123054517D01*
X55203948Y-123183948D01*
X55074517Y-123290170D01*
X54980712Y-123340309D01*
X54926855Y-123369097D01*
X54857088Y-123390260D01*
X54766627Y-123417701D01*
X54641757Y-123430000D01*
X54558243Y-123430000D01*
X54433373Y-123417701D01*
X54342912Y-123390260D01*
X54273145Y-123369097D01*
X54219288Y-123340309D01*
X54125483Y-123290170D01*
X53996052Y-123183948D01*
X53889830Y-123054517D01*
X53839691Y-122960712D01*
X53810903Y-122906855D01*
X53762300Y-122746629D01*
X53762299Y-122746627D01*
X53745887Y-122580000D01*
X53762299Y-122413373D01*
X53810903Y-122253146D01*
X53810903Y-122253145D01*
X53839691Y-122199288D01*
X53889830Y-122105483D01*
X53996052Y-121976052D01*
X54125483Y-121869830D01*
X54219288Y-121819691D01*
X54273145Y-121790903D01*
X54342912Y-121769740D01*
X54433373Y-121742299D01*
X54558243Y-121730000D01*
X54641757Y-121730000D01*
X54766627Y-121742299D01*
X54766627Y-121742299D01*
G37*
G36*
X145006627Y-119202299D02*
X145097088Y-119229740D01*
X145166855Y-119250903D01*
X145220712Y-119279691D01*
X145314517Y-119329830D01*
X145443948Y-119436052D01*
X145550170Y-119565483D01*
X145600309Y-119659288D01*
X145629097Y-119713145D01*
X145629097Y-119713146D01*
X145677701Y-119873373D01*
X145694113Y-120040000D01*
X145677701Y-120206627D01*
X145677700Y-120206629D01*
X145629097Y-120366855D01*
X145600309Y-120420712D01*
X145550170Y-120514517D01*
X145443948Y-120643948D01*
X145314517Y-120750170D01*
X145220712Y-120800309D01*
X145166855Y-120829097D01*
X145097088Y-120850260D01*
X145006627Y-120877701D01*
X144881757Y-120890000D01*
X144798243Y-120890000D01*
X144673373Y-120877701D01*
X144582912Y-120850260D01*
X144513145Y-120829097D01*
X144459288Y-120800309D01*
X144365483Y-120750170D01*
X144236052Y-120643948D01*
X144129830Y-120514517D01*
X144079691Y-120420712D01*
X144050903Y-120366855D01*
X144002300Y-120206629D01*
X144002299Y-120206627D01*
X143985887Y-120040000D01*
X144002299Y-119873373D01*
X144050903Y-119713146D01*
X144050903Y-119713145D01*
X144079691Y-119659288D01*
X144129830Y-119565483D01*
X144236052Y-119436052D01*
X144365483Y-119329830D01*
X144459288Y-119279691D01*
X144513145Y-119250903D01*
X144582912Y-119229740D01*
X144673373Y-119202299D01*
X144798243Y-119190000D01*
X144881757Y-119190000D01*
X145006627Y-119202299D01*
X145006627Y-119202299D01*
G37*
G36*
X142466627Y-119202299D02*
X142557088Y-119229740D01*
X142626855Y-119250903D01*
X142680712Y-119279691D01*
X142774517Y-119329830D01*
X142903948Y-119436052D01*
X143010170Y-119565483D01*
X143060309Y-119659288D01*
X143089097Y-119713145D01*
X143089097Y-119713146D01*
X143137701Y-119873373D01*
X143154113Y-120040000D01*
X143137701Y-120206627D01*
X143137700Y-120206629D01*
X143089097Y-120366855D01*
X143060309Y-120420712D01*
X143010170Y-120514517D01*
X142903948Y-120643948D01*
X142774517Y-120750170D01*
X142680712Y-120800309D01*
X142626855Y-120829097D01*
X142557088Y-120850260D01*
X142466627Y-120877701D01*
X142341757Y-120890000D01*
X142258243Y-120890000D01*
X142133373Y-120877701D01*
X142042912Y-120850260D01*
X141973145Y-120829097D01*
X141919288Y-120800309D01*
X141825483Y-120750170D01*
X141696052Y-120643948D01*
X141589830Y-120514517D01*
X141539691Y-120420712D01*
X141510903Y-120366855D01*
X141462300Y-120206629D01*
X141462299Y-120206627D01*
X141445887Y-120040000D01*
X141462299Y-119873373D01*
X141510903Y-119713146D01*
X141510903Y-119713145D01*
X141539691Y-119659288D01*
X141589830Y-119565483D01*
X141696052Y-119436052D01*
X141825483Y-119329830D01*
X141919288Y-119279691D01*
X141973145Y-119250903D01*
X142042912Y-119229740D01*
X142133373Y-119202299D01*
X142258243Y-119190000D01*
X142341757Y-119190000D01*
X142466627Y-119202299D01*
X142466627Y-119202299D01*
G37*
G36*
X57306627Y-119202299D02*
X57397088Y-119229740D01*
X57466855Y-119250903D01*
X57520712Y-119279691D01*
X57614517Y-119329830D01*
X57743948Y-119436052D01*
X57850170Y-119565483D01*
X57900309Y-119659288D01*
X57929097Y-119713145D01*
X57929097Y-119713146D01*
X57977701Y-119873373D01*
X57994113Y-120040000D01*
X57977701Y-120206627D01*
X57977700Y-120206629D01*
X57929097Y-120366855D01*
X57900309Y-120420712D01*
X57850170Y-120514517D01*
X57743948Y-120643948D01*
X57614517Y-120750170D01*
X57520712Y-120800309D01*
X57466855Y-120829097D01*
X57397088Y-120850260D01*
X57306627Y-120877701D01*
X57181757Y-120890000D01*
X57098243Y-120890000D01*
X56973373Y-120877701D01*
X56882912Y-120850260D01*
X56813145Y-120829097D01*
X56759288Y-120800309D01*
X56665483Y-120750170D01*
X56536052Y-120643948D01*
X56429830Y-120514517D01*
X56379691Y-120420712D01*
X56350903Y-120366855D01*
X56302300Y-120206629D01*
X56302299Y-120206627D01*
X56285887Y-120040000D01*
X56302299Y-119873373D01*
X56350903Y-119713146D01*
X56350903Y-119713145D01*
X56379691Y-119659288D01*
X56429830Y-119565483D01*
X56536052Y-119436052D01*
X56665483Y-119329830D01*
X56759288Y-119279691D01*
X56813145Y-119250903D01*
X56882912Y-119229740D01*
X56973373Y-119202299D01*
X57098243Y-119190000D01*
X57181757Y-119190000D01*
X57306627Y-119202299D01*
X57306627Y-119202299D01*
G37*
G36*
X54766627Y-119202299D02*
X54857088Y-119229740D01*
X54926855Y-119250903D01*
X54980712Y-119279691D01*
X55074517Y-119329830D01*
X55203948Y-119436052D01*
X55310170Y-119565483D01*
X55360309Y-119659288D01*
X55389097Y-119713145D01*
X55389097Y-119713146D01*
X55437701Y-119873373D01*
X55454113Y-120040000D01*
X55437701Y-120206627D01*
X55437700Y-120206629D01*
X55389097Y-120366855D01*
X55360309Y-120420712D01*
X55310170Y-120514517D01*
X55203948Y-120643948D01*
X55074517Y-120750170D01*
X54980712Y-120800309D01*
X54926855Y-120829097D01*
X54857088Y-120850260D01*
X54766627Y-120877701D01*
X54641757Y-120890000D01*
X54558243Y-120890000D01*
X54433373Y-120877701D01*
X54342912Y-120850260D01*
X54273145Y-120829097D01*
X54219288Y-120800309D01*
X54125483Y-120750170D01*
X53996052Y-120643948D01*
X53889830Y-120514517D01*
X53839691Y-120420712D01*
X53810903Y-120366855D01*
X53762300Y-120206629D01*
X53762299Y-120206627D01*
X53745887Y-120040000D01*
X53762299Y-119873373D01*
X53810903Y-119713146D01*
X53810903Y-119713145D01*
X53839691Y-119659288D01*
X53889830Y-119565483D01*
X53996052Y-119436052D01*
X54125483Y-119329830D01*
X54219288Y-119279691D01*
X54273145Y-119250903D01*
X54342912Y-119229740D01*
X54433373Y-119202299D01*
X54558243Y-119190000D01*
X54641757Y-119190000D01*
X54766627Y-119202299D01*
X54766627Y-119202299D01*
G37*
G36*
X57306627Y-116662299D02*
X57397088Y-116689740D01*
X57466855Y-116710903D01*
X57520712Y-116739691D01*
X57614517Y-116789830D01*
X57743948Y-116896052D01*
X57850170Y-117025483D01*
X57900309Y-117119288D01*
X57929097Y-117173145D01*
X57929097Y-117173146D01*
X57977701Y-117333373D01*
X57994113Y-117500000D01*
X57977701Y-117666627D01*
X57977700Y-117666629D01*
X57929097Y-117826855D01*
X57900309Y-117880712D01*
X57850170Y-117974517D01*
X57743948Y-118103948D01*
X57614517Y-118210170D01*
X57520712Y-118260309D01*
X57466855Y-118289097D01*
X57397088Y-118310260D01*
X57306627Y-118337701D01*
X57181757Y-118350000D01*
X57098243Y-118350000D01*
X56973373Y-118337701D01*
X56882912Y-118310260D01*
X56813145Y-118289097D01*
X56759288Y-118260309D01*
X56665483Y-118210170D01*
X56536052Y-118103948D01*
X56429830Y-117974517D01*
X56379691Y-117880712D01*
X56350903Y-117826855D01*
X56302300Y-117666629D01*
X56302299Y-117666627D01*
X56285887Y-117500000D01*
X56302299Y-117333373D01*
X56350903Y-117173146D01*
X56350903Y-117173145D01*
X56379691Y-117119288D01*
X56429830Y-117025483D01*
X56536052Y-116896052D01*
X56665483Y-116789830D01*
X56759288Y-116739691D01*
X56813145Y-116710903D01*
X56882912Y-116689740D01*
X56973373Y-116662299D01*
X57098243Y-116650000D01*
X57181757Y-116650000D01*
X57306627Y-116662299D01*
X57306627Y-116662299D01*
G37*
G36*
X54766627Y-116662299D02*
X54857088Y-116689740D01*
X54926855Y-116710903D01*
X54980712Y-116739691D01*
X55074517Y-116789830D01*
X55203948Y-116896052D01*
X55310170Y-117025483D01*
X55360309Y-117119288D01*
X55389097Y-117173145D01*
X55389097Y-117173146D01*
X55437701Y-117333373D01*
X55454113Y-117500000D01*
X55437701Y-117666627D01*
X55437700Y-117666629D01*
X55389097Y-117826855D01*
X55360309Y-117880712D01*
X55310170Y-117974517D01*
X55203948Y-118103948D01*
X55074517Y-118210170D01*
X54980712Y-118260309D01*
X54926855Y-118289097D01*
X54857088Y-118310260D01*
X54766627Y-118337701D01*
X54641757Y-118350000D01*
X54558243Y-118350000D01*
X54433373Y-118337701D01*
X54342912Y-118310260D01*
X54273145Y-118289097D01*
X54219288Y-118260309D01*
X54125483Y-118210170D01*
X53996052Y-118103948D01*
X53889830Y-117974517D01*
X53839691Y-117880712D01*
X53810903Y-117826855D01*
X53762300Y-117666629D01*
X53762299Y-117666627D01*
X53745887Y-117500000D01*
X53762299Y-117333373D01*
X53810903Y-117173146D01*
X53810903Y-117173145D01*
X53839691Y-117119288D01*
X53889830Y-117025483D01*
X53996052Y-116896052D01*
X54125483Y-116789830D01*
X54219288Y-116739691D01*
X54273145Y-116710903D01*
X54342912Y-116689740D01*
X54433373Y-116662299D01*
X54558243Y-116650000D01*
X54641757Y-116650000D01*
X54766627Y-116662299D01*
X54766627Y-116662299D01*
G37*
G36*
X143150000Y-118350000D02*
X141450000Y-118350000D01*
X141450000Y-116650000D01*
X143150000Y-116650000D01*
X143150000Y-118350000D01*
X143150000Y-118350000D01*
G37*
G36*
X145006627Y-116662299D02*
X145097088Y-116689740D01*
X145166855Y-116710903D01*
X145220712Y-116739691D01*
X145314517Y-116789830D01*
X145443948Y-116896052D01*
X145550170Y-117025483D01*
X145600309Y-117119288D01*
X145629097Y-117173145D01*
X145629097Y-117173146D01*
X145677701Y-117333373D01*
X145694113Y-117500000D01*
X145677701Y-117666627D01*
X145677700Y-117666629D01*
X145629097Y-117826855D01*
X145600309Y-117880712D01*
X145550170Y-117974517D01*
X145443948Y-118103948D01*
X145314517Y-118210170D01*
X145220712Y-118260309D01*
X145166855Y-118289097D01*
X145097088Y-118310260D01*
X145006627Y-118337701D01*
X144881757Y-118350000D01*
X144798243Y-118350000D01*
X144673373Y-118337701D01*
X144582912Y-118310260D01*
X144513145Y-118289097D01*
X144459288Y-118260309D01*
X144365483Y-118210170D01*
X144236052Y-118103948D01*
X144129830Y-117974517D01*
X144079691Y-117880712D01*
X144050903Y-117826855D01*
X144002300Y-117666629D01*
X144002299Y-117666627D01*
X143985887Y-117500000D01*
X144002299Y-117333373D01*
X144050903Y-117173146D01*
X144050903Y-117173145D01*
X144079691Y-117119288D01*
X144129830Y-117025483D01*
X144236052Y-116896052D01*
X144365483Y-116789830D01*
X144459288Y-116739691D01*
X144513145Y-116710903D01*
X144582912Y-116689740D01*
X144673373Y-116662299D01*
X144798243Y-116650000D01*
X144881757Y-116650000D01*
X145006627Y-116662299D01*
X145006627Y-116662299D01*
G37*
G36*
X54766627Y-114122299D02*
X54857088Y-114149740D01*
X54926855Y-114170903D01*
X54980712Y-114199691D01*
X55074517Y-114249830D01*
X55203948Y-114356052D01*
X55310170Y-114485483D01*
X55360309Y-114579288D01*
X55389097Y-114633145D01*
X55389097Y-114633146D01*
X55437701Y-114793373D01*
X55454113Y-114960000D01*
X55437701Y-115126627D01*
X55437700Y-115126629D01*
X55389097Y-115286855D01*
X55360309Y-115340712D01*
X55310170Y-115434517D01*
X55203948Y-115563948D01*
X55074517Y-115670170D01*
X54980712Y-115720309D01*
X54926855Y-115749097D01*
X54857088Y-115770260D01*
X54766627Y-115797701D01*
X54641757Y-115810000D01*
X54558243Y-115810000D01*
X54433373Y-115797701D01*
X54342912Y-115770260D01*
X54273145Y-115749097D01*
X54219288Y-115720309D01*
X54125483Y-115670170D01*
X53996052Y-115563948D01*
X53889830Y-115434517D01*
X53839691Y-115340712D01*
X53810903Y-115286855D01*
X53762300Y-115126629D01*
X53762299Y-115126627D01*
X53745887Y-114960000D01*
X53762299Y-114793373D01*
X53810903Y-114633146D01*
X53810903Y-114633145D01*
X53839691Y-114579288D01*
X53889830Y-114485483D01*
X53996052Y-114356052D01*
X54125483Y-114249830D01*
X54219288Y-114199691D01*
X54273145Y-114170903D01*
X54342912Y-114149740D01*
X54433373Y-114122299D01*
X54558243Y-114110000D01*
X54641757Y-114110000D01*
X54766627Y-114122299D01*
X54766627Y-114122299D01*
G37*
G36*
X57306627Y-114122299D02*
X57397088Y-114149740D01*
X57466855Y-114170903D01*
X57520712Y-114199691D01*
X57614517Y-114249830D01*
X57743948Y-114356052D01*
X57850170Y-114485483D01*
X57900309Y-114579288D01*
X57929097Y-114633145D01*
X57929097Y-114633146D01*
X57977701Y-114793373D01*
X57994113Y-114960000D01*
X57977701Y-115126627D01*
X57977700Y-115126629D01*
X57929097Y-115286855D01*
X57900309Y-115340712D01*
X57850170Y-115434517D01*
X57743948Y-115563948D01*
X57614517Y-115670170D01*
X57520712Y-115720309D01*
X57466855Y-115749097D01*
X57397088Y-115770260D01*
X57306627Y-115797701D01*
X57181757Y-115810000D01*
X57098243Y-115810000D01*
X56973373Y-115797701D01*
X56882912Y-115770260D01*
X56813145Y-115749097D01*
X56759288Y-115720309D01*
X56665483Y-115670170D01*
X56536052Y-115563948D01*
X56429830Y-115434517D01*
X56379691Y-115340712D01*
X56350903Y-115286855D01*
X56302300Y-115126629D01*
X56302299Y-115126627D01*
X56285887Y-114960000D01*
X56302299Y-114793373D01*
X56350903Y-114633146D01*
X56350903Y-114633145D01*
X56379691Y-114579288D01*
X56429830Y-114485483D01*
X56536052Y-114356052D01*
X56665483Y-114249830D01*
X56759288Y-114199691D01*
X56813145Y-114170903D01*
X56882912Y-114149740D01*
X56973373Y-114122299D01*
X57098243Y-114110000D01*
X57181757Y-114110000D01*
X57306627Y-114122299D01*
X57306627Y-114122299D01*
G37*
G36*
X126650000Y-113910000D02*
X124950000Y-113910000D01*
X124950000Y-112210000D01*
X126650000Y-112210000D01*
X126650000Y-113910000D01*
X126650000Y-113910000D01*
G37*
G36*
X57306627Y-111582299D02*
X57397088Y-111609740D01*
X57466855Y-111630903D01*
X57520712Y-111659691D01*
X57614517Y-111709830D01*
X57743948Y-111816052D01*
X57850170Y-111945483D01*
X57900309Y-112039288D01*
X57929097Y-112093145D01*
X57929097Y-112093146D01*
X57977701Y-112253373D01*
X57994113Y-112420000D01*
X57977701Y-112586627D01*
X57977700Y-112586629D01*
X57929097Y-112746855D01*
X57900309Y-112800712D01*
X57850170Y-112894517D01*
X57743948Y-113023948D01*
X57614517Y-113130170D01*
X57520712Y-113180309D01*
X57466855Y-113209097D01*
X57397088Y-113230260D01*
X57306627Y-113257701D01*
X57181757Y-113270000D01*
X57098243Y-113270000D01*
X56973373Y-113257701D01*
X56882912Y-113230260D01*
X56813145Y-113209097D01*
X56759288Y-113180309D01*
X56665483Y-113130170D01*
X56536052Y-113023948D01*
X56429830Y-112894517D01*
X56379691Y-112800712D01*
X56350903Y-112746855D01*
X56302300Y-112586629D01*
X56302299Y-112586627D01*
X56285887Y-112420000D01*
X56302299Y-112253373D01*
X56350903Y-112093146D01*
X56350903Y-112093145D01*
X56379691Y-112039288D01*
X56429830Y-111945483D01*
X56536052Y-111816052D01*
X56665483Y-111709830D01*
X56759288Y-111659691D01*
X56813145Y-111630903D01*
X56882912Y-111609740D01*
X56973373Y-111582299D01*
X57098243Y-111570000D01*
X57181757Y-111570000D01*
X57306627Y-111582299D01*
X57306627Y-111582299D01*
G37*
G36*
X54766627Y-111582299D02*
X54857088Y-111609740D01*
X54926855Y-111630903D01*
X54980712Y-111659691D01*
X55074517Y-111709830D01*
X55203948Y-111816052D01*
X55310170Y-111945483D01*
X55360309Y-112039288D01*
X55389097Y-112093145D01*
X55389097Y-112093146D01*
X55437701Y-112253373D01*
X55454113Y-112420000D01*
X55437701Y-112586627D01*
X55437700Y-112586629D01*
X55389097Y-112746855D01*
X55360309Y-112800712D01*
X55310170Y-112894517D01*
X55203948Y-113023948D01*
X55074517Y-113130170D01*
X54980712Y-113180309D01*
X54926855Y-113209097D01*
X54857088Y-113230260D01*
X54766627Y-113257701D01*
X54641757Y-113270000D01*
X54558243Y-113270000D01*
X54433373Y-113257701D01*
X54342912Y-113230260D01*
X54273145Y-113209097D01*
X54219288Y-113180309D01*
X54125483Y-113130170D01*
X53996052Y-113023948D01*
X53889830Y-112894517D01*
X53839691Y-112800712D01*
X53810903Y-112746855D01*
X53762300Y-112586629D01*
X53762299Y-112586627D01*
X53745887Y-112420000D01*
X53762299Y-112253373D01*
X53810903Y-112093146D01*
X53810903Y-112093145D01*
X53839691Y-112039288D01*
X53889830Y-111945483D01*
X53996052Y-111816052D01*
X54125483Y-111709830D01*
X54219288Y-111659691D01*
X54273145Y-111630903D01*
X54342912Y-111609740D01*
X54433373Y-111582299D01*
X54558243Y-111570000D01*
X54641757Y-111570000D01*
X54766627Y-111582299D01*
X54766627Y-111582299D01*
G37*
G36*
X125966627Y-109682299D02*
X126057088Y-109709740D01*
X126126855Y-109730903D01*
X126180712Y-109759691D01*
X126274517Y-109809830D01*
X126403948Y-109916052D01*
X126510170Y-110045483D01*
X126560309Y-110139288D01*
X126589097Y-110193145D01*
X126589097Y-110193146D01*
X126637701Y-110353373D01*
X126654113Y-110520000D01*
X126637701Y-110686627D01*
X126637700Y-110686629D01*
X126589097Y-110846855D01*
X126560309Y-110900712D01*
X126510170Y-110994517D01*
X126403948Y-111123948D01*
X126274517Y-111230170D01*
X126180712Y-111280309D01*
X126126855Y-111309097D01*
X126057088Y-111330260D01*
X125966627Y-111357701D01*
X125841757Y-111370000D01*
X125758243Y-111370000D01*
X125633373Y-111357701D01*
X125542912Y-111330260D01*
X125473145Y-111309097D01*
X125419288Y-111280309D01*
X125325483Y-111230170D01*
X125196052Y-111123948D01*
X125089830Y-110994517D01*
X125039691Y-110900712D01*
X125010903Y-110846855D01*
X124962300Y-110686629D01*
X124962299Y-110686627D01*
X124945887Y-110520000D01*
X124962299Y-110353373D01*
X125010903Y-110193146D01*
X125010903Y-110193145D01*
X125039691Y-110139288D01*
X125089830Y-110045483D01*
X125196052Y-109916052D01*
X125325483Y-109809830D01*
X125419288Y-109759691D01*
X125473145Y-109730903D01*
X125542912Y-109709740D01*
X125633373Y-109682299D01*
X125758243Y-109670000D01*
X125841757Y-109670000D01*
X125966627Y-109682299D01*
X125966627Y-109682299D01*
G37*
G36*
X57306627Y-109042299D02*
X57397088Y-109069740D01*
X57466855Y-109090903D01*
X57520712Y-109119691D01*
X57614517Y-109169830D01*
X57743948Y-109276052D01*
X57850170Y-109405483D01*
X57900309Y-109499288D01*
X57929097Y-109553145D01*
X57929097Y-109553146D01*
X57977701Y-109713373D01*
X57994113Y-109880000D01*
X57977701Y-110046627D01*
X57977700Y-110046629D01*
X57929097Y-110206855D01*
X57900309Y-110260712D01*
X57850170Y-110354517D01*
X57743948Y-110483948D01*
X57614517Y-110590170D01*
X57520712Y-110640309D01*
X57466855Y-110669097D01*
X57397088Y-110690260D01*
X57306627Y-110717701D01*
X57181757Y-110730000D01*
X57098243Y-110730000D01*
X56973373Y-110717701D01*
X56882912Y-110690260D01*
X56813145Y-110669097D01*
X56759288Y-110640309D01*
X56665483Y-110590170D01*
X56536052Y-110483948D01*
X56429830Y-110354517D01*
X56379691Y-110260712D01*
X56350903Y-110206855D01*
X56302300Y-110046629D01*
X56302299Y-110046627D01*
X56285887Y-109880000D01*
X56302299Y-109713373D01*
X56350903Y-109553146D01*
X56350903Y-109553145D01*
X56379691Y-109499288D01*
X56429830Y-109405483D01*
X56536052Y-109276052D01*
X56665483Y-109169830D01*
X56759288Y-109119691D01*
X56813145Y-109090903D01*
X56882912Y-109069740D01*
X56973373Y-109042299D01*
X57098243Y-109030000D01*
X57181757Y-109030000D01*
X57306627Y-109042299D01*
X57306627Y-109042299D01*
G37*
G36*
X55450000Y-110730000D02*
X53750000Y-110730000D01*
X53750000Y-109030000D01*
X55450000Y-109030000D01*
X55450000Y-110730000D01*
X55450000Y-110730000D01*
G37*
G36*
X125966627Y-107142299D02*
X126057088Y-107169740D01*
X126126855Y-107190903D01*
X126180712Y-107219691D01*
X126274517Y-107269830D01*
X126403948Y-107376052D01*
X126510170Y-107505483D01*
X126560309Y-107599288D01*
X126589097Y-107653145D01*
X126589097Y-107653146D01*
X126637701Y-107813373D01*
X126654113Y-107980000D01*
X126637701Y-108146627D01*
X126637700Y-108146629D01*
X126589097Y-108306855D01*
X126560309Y-108360712D01*
X126510170Y-108454517D01*
X126403948Y-108583948D01*
X126274517Y-108690170D01*
X126180712Y-108740309D01*
X126126855Y-108769097D01*
X126057088Y-108790260D01*
X125966627Y-108817701D01*
X125841757Y-108830000D01*
X125758243Y-108830000D01*
X125633373Y-108817701D01*
X125542912Y-108790260D01*
X125473145Y-108769097D01*
X125419288Y-108740309D01*
X125325483Y-108690170D01*
X125196052Y-108583948D01*
X125089830Y-108454517D01*
X125039691Y-108360712D01*
X125010903Y-108306855D01*
X124962300Y-108146629D01*
X124962299Y-108146627D01*
X124945887Y-107980000D01*
X124962299Y-107813373D01*
X125010903Y-107653146D01*
X125010903Y-107653145D01*
X125039691Y-107599288D01*
X125089830Y-107505483D01*
X125196052Y-107376052D01*
X125325483Y-107269830D01*
X125419288Y-107219691D01*
X125473145Y-107190903D01*
X125542912Y-107169740D01*
X125633373Y-107142299D01*
X125758243Y-107130000D01*
X125841757Y-107130000D01*
X125966627Y-107142299D01*
X125966627Y-107142299D01*
G37*
G36*
X122066627Y-107142299D02*
X122157088Y-107169740D01*
X122226855Y-107190903D01*
X122280712Y-107219691D01*
X122374517Y-107269830D01*
X122503948Y-107376052D01*
X122610170Y-107505483D01*
X122660309Y-107599288D01*
X122689097Y-107653145D01*
X122689097Y-107653146D01*
X122737701Y-107813373D01*
X122754113Y-107980000D01*
X122737701Y-108146627D01*
X122737700Y-108146629D01*
X122689097Y-108306855D01*
X122660309Y-108360712D01*
X122610170Y-108454517D01*
X122503948Y-108583948D01*
X122374517Y-108690170D01*
X122280712Y-108740309D01*
X122226855Y-108769097D01*
X122157088Y-108790260D01*
X122066627Y-108817701D01*
X121941757Y-108830000D01*
X121858243Y-108830000D01*
X121733373Y-108817701D01*
X121642912Y-108790260D01*
X121573145Y-108769097D01*
X121519288Y-108740309D01*
X121425483Y-108690170D01*
X121296052Y-108583948D01*
X121189830Y-108454517D01*
X121139691Y-108360712D01*
X121110903Y-108306855D01*
X121062300Y-108146629D01*
X121062299Y-108146627D01*
X121045887Y-107980000D01*
X121062299Y-107813373D01*
X121110903Y-107653146D01*
X121110903Y-107653145D01*
X121139691Y-107599288D01*
X121189830Y-107505483D01*
X121296052Y-107376052D01*
X121425483Y-107269830D01*
X121519288Y-107219691D01*
X121573145Y-107190903D01*
X121642912Y-107169740D01*
X121733373Y-107142299D01*
X121858243Y-107130000D01*
X121941757Y-107130000D01*
X122066627Y-107142299D01*
X122066627Y-107142299D01*
G37*
G36*
X125966627Y-104602299D02*
X126057088Y-104629740D01*
X126126855Y-104650903D01*
X126180712Y-104679691D01*
X126274517Y-104729830D01*
X126403948Y-104836052D01*
X126510170Y-104965483D01*
X126560309Y-105059288D01*
X126589097Y-105113145D01*
X126589097Y-105113146D01*
X126637701Y-105273373D01*
X126654113Y-105440000D01*
X126637701Y-105606627D01*
X126637700Y-105606629D01*
X126589097Y-105766855D01*
X126560309Y-105820712D01*
X126510170Y-105914517D01*
X126403948Y-106043948D01*
X126274517Y-106150170D01*
X126180712Y-106200309D01*
X126126855Y-106229097D01*
X126057088Y-106250260D01*
X125966627Y-106277701D01*
X125841757Y-106290000D01*
X125758243Y-106290000D01*
X125633373Y-106277701D01*
X125542912Y-106250260D01*
X125473145Y-106229097D01*
X125419288Y-106200309D01*
X125325483Y-106150170D01*
X125196052Y-106043948D01*
X125089830Y-105914517D01*
X125039691Y-105820712D01*
X125010903Y-105766855D01*
X124962300Y-105606629D01*
X124962299Y-105606627D01*
X124945887Y-105440000D01*
X124962299Y-105273373D01*
X125010903Y-105113146D01*
X125010903Y-105113145D01*
X125039691Y-105059288D01*
X125089830Y-104965483D01*
X125196052Y-104836052D01*
X125325483Y-104729830D01*
X125419288Y-104679691D01*
X125473145Y-104650903D01*
X125542912Y-104629740D01*
X125633373Y-104602299D01*
X125758243Y-104590000D01*
X125841757Y-104590000D01*
X125966627Y-104602299D01*
X125966627Y-104602299D01*
G37*
G36*
X122066627Y-104602299D02*
X122157088Y-104629740D01*
X122226855Y-104650903D01*
X122280712Y-104679691D01*
X122374517Y-104729830D01*
X122503948Y-104836052D01*
X122610170Y-104965483D01*
X122660309Y-105059288D01*
X122689097Y-105113145D01*
X122689097Y-105113146D01*
X122737701Y-105273373D01*
X122754113Y-105440000D01*
X122737701Y-105606627D01*
X122737700Y-105606629D01*
X122689097Y-105766855D01*
X122660309Y-105820712D01*
X122610170Y-105914517D01*
X122503948Y-106043948D01*
X122374517Y-106150170D01*
X122280712Y-106200309D01*
X122226855Y-106229097D01*
X122157088Y-106250260D01*
X122066627Y-106277701D01*
X121941757Y-106290000D01*
X121858243Y-106290000D01*
X121733373Y-106277701D01*
X121642912Y-106250260D01*
X121573145Y-106229097D01*
X121519288Y-106200309D01*
X121425483Y-106150170D01*
X121296052Y-106043948D01*
X121189830Y-105914517D01*
X121139691Y-105820712D01*
X121110903Y-105766855D01*
X121062300Y-105606629D01*
X121062299Y-105606627D01*
X121045887Y-105440000D01*
X121062299Y-105273373D01*
X121110903Y-105113146D01*
X121110903Y-105113145D01*
X121139691Y-105059288D01*
X121189830Y-104965483D01*
X121296052Y-104836052D01*
X121425483Y-104729830D01*
X121519288Y-104679691D01*
X121573145Y-104650903D01*
X121642912Y-104629740D01*
X121733373Y-104602299D01*
X121858243Y-104590000D01*
X121941757Y-104590000D01*
X122066627Y-104602299D01*
X122066627Y-104602299D01*
G37*
G36*
X125966627Y-102062299D02*
X126057088Y-102089740D01*
X126126855Y-102110903D01*
X126180712Y-102139691D01*
X126274517Y-102189830D01*
X126403948Y-102296052D01*
X126510170Y-102425483D01*
X126560309Y-102519288D01*
X126589097Y-102573145D01*
X126589097Y-102573146D01*
X126637701Y-102733373D01*
X126654113Y-102900000D01*
X126637701Y-103066627D01*
X126637700Y-103066629D01*
X126589097Y-103226855D01*
X126560309Y-103280712D01*
X126510170Y-103374517D01*
X126403948Y-103503948D01*
X126274517Y-103610170D01*
X126180712Y-103660309D01*
X126126855Y-103689097D01*
X126057088Y-103710260D01*
X125966627Y-103737701D01*
X125841757Y-103750000D01*
X125758243Y-103750000D01*
X125633373Y-103737701D01*
X125542912Y-103710260D01*
X125473145Y-103689097D01*
X125419288Y-103660309D01*
X125325483Y-103610170D01*
X125196052Y-103503948D01*
X125089830Y-103374517D01*
X125039691Y-103280712D01*
X125010903Y-103226855D01*
X124962300Y-103066629D01*
X124962299Y-103066627D01*
X124945887Y-102900000D01*
X124962299Y-102733373D01*
X125010903Y-102573146D01*
X125010903Y-102573145D01*
X125039691Y-102519288D01*
X125089830Y-102425483D01*
X125196052Y-102296052D01*
X125325483Y-102189830D01*
X125419288Y-102139691D01*
X125473145Y-102110903D01*
X125542912Y-102089740D01*
X125633373Y-102062299D01*
X125758243Y-102050000D01*
X125841757Y-102050000D01*
X125966627Y-102062299D01*
X125966627Y-102062299D01*
G37*
G36*
X122066627Y-102062299D02*
X122157088Y-102089740D01*
X122226855Y-102110903D01*
X122280712Y-102139691D01*
X122374517Y-102189830D01*
X122503948Y-102296052D01*
X122610170Y-102425483D01*
X122660309Y-102519288D01*
X122689097Y-102573145D01*
X122689097Y-102573146D01*
X122737701Y-102733373D01*
X122754113Y-102900000D01*
X122737701Y-103066627D01*
X122737700Y-103066629D01*
X122689097Y-103226855D01*
X122660309Y-103280712D01*
X122610170Y-103374517D01*
X122503948Y-103503948D01*
X122374517Y-103610170D01*
X122280712Y-103660309D01*
X122226855Y-103689097D01*
X122157088Y-103710260D01*
X122066627Y-103737701D01*
X121941757Y-103750000D01*
X121858243Y-103750000D01*
X121733373Y-103737701D01*
X121642912Y-103710260D01*
X121573145Y-103689097D01*
X121519288Y-103660309D01*
X121425483Y-103610170D01*
X121296052Y-103503948D01*
X121189830Y-103374517D01*
X121139691Y-103280712D01*
X121110903Y-103226855D01*
X121062300Y-103066629D01*
X121062299Y-103066627D01*
X121045887Y-102900000D01*
X121062299Y-102733373D01*
X121110903Y-102573146D01*
X121110903Y-102573145D01*
X121139691Y-102519288D01*
X121189830Y-102425483D01*
X121296052Y-102296052D01*
X121425483Y-102189830D01*
X121519288Y-102139691D01*
X121573145Y-102110903D01*
X121642912Y-102089740D01*
X121733373Y-102062299D01*
X121858243Y-102050000D01*
X121941757Y-102050000D01*
X122066627Y-102062299D01*
X122066627Y-102062299D01*
G37*
G36*
X122066627Y-99522299D02*
X122157088Y-99549740D01*
X122226855Y-99570903D01*
X122280712Y-99599691D01*
X122374517Y-99649830D01*
X122503948Y-99756052D01*
X122610170Y-99885483D01*
X122660309Y-99979288D01*
X122689097Y-100033145D01*
X122689097Y-100033146D01*
X122737701Y-100193373D01*
X122754113Y-100360000D01*
X122737701Y-100526627D01*
X122737700Y-100526629D01*
X122689097Y-100686855D01*
X122660309Y-100740712D01*
X122610170Y-100834517D01*
X122503948Y-100963948D01*
X122374517Y-101070170D01*
X122280712Y-101120309D01*
X122226855Y-101149097D01*
X122157088Y-101170260D01*
X122066627Y-101197701D01*
X121941757Y-101210000D01*
X121858243Y-101210000D01*
X121733373Y-101197701D01*
X121642912Y-101170260D01*
X121573145Y-101149097D01*
X121519288Y-101120309D01*
X121425483Y-101070170D01*
X121296052Y-100963948D01*
X121189830Y-100834517D01*
X121139691Y-100740712D01*
X121110903Y-100686855D01*
X121062300Y-100526629D01*
X121062299Y-100526627D01*
X121045887Y-100360000D01*
X121062299Y-100193373D01*
X121110903Y-100033146D01*
X121110903Y-100033145D01*
X121139691Y-99979288D01*
X121189830Y-99885483D01*
X121296052Y-99756052D01*
X121425483Y-99649830D01*
X121519288Y-99599691D01*
X121573145Y-99570903D01*
X121642912Y-99549740D01*
X121733373Y-99522299D01*
X121858243Y-99510000D01*
X121941757Y-99510000D01*
X122066627Y-99522299D01*
X122066627Y-99522299D01*
G37*
G36*
X125966627Y-99522299D02*
X126057088Y-99549740D01*
X126126855Y-99570903D01*
X126180712Y-99599691D01*
X126274517Y-99649830D01*
X126403948Y-99756052D01*
X126510170Y-99885483D01*
X126560309Y-99979288D01*
X126589097Y-100033145D01*
X126589097Y-100033146D01*
X126637701Y-100193373D01*
X126654113Y-100360000D01*
X126637701Y-100526627D01*
X126637700Y-100526629D01*
X126589097Y-100686855D01*
X126560309Y-100740712D01*
X126510170Y-100834517D01*
X126403948Y-100963948D01*
X126274517Y-101070170D01*
X126180712Y-101120309D01*
X126126855Y-101149097D01*
X126057088Y-101170260D01*
X125966627Y-101197701D01*
X125841757Y-101210000D01*
X125758243Y-101210000D01*
X125633373Y-101197701D01*
X125542912Y-101170260D01*
X125473145Y-101149097D01*
X125419288Y-101120309D01*
X125325483Y-101070170D01*
X125196052Y-100963948D01*
X125089830Y-100834517D01*
X125039691Y-100740712D01*
X125010903Y-100686855D01*
X124962300Y-100526629D01*
X124962299Y-100526627D01*
X124945887Y-100360000D01*
X124962299Y-100193373D01*
X125010903Y-100033146D01*
X125010903Y-100033145D01*
X125039691Y-99979288D01*
X125089830Y-99885483D01*
X125196052Y-99756052D01*
X125325483Y-99649830D01*
X125419288Y-99599691D01*
X125473145Y-99570903D01*
X125542912Y-99549740D01*
X125633373Y-99522299D01*
X125758243Y-99510000D01*
X125841757Y-99510000D01*
X125966627Y-99522299D01*
X125966627Y-99522299D01*
G37*
G36*
X53457534Y-95757644D02*
X53457536Y-95757645D01*
X53457537Y-95757645D01*
X53558374Y-95799413D01*
X53730517Y-95870717D01*
X53976194Y-96034874D01*
X54185126Y-96243806D01*
X54349283Y-96489483D01*
X54349283Y-96489484D01*
X54450305Y-96733371D01*
X54462356Y-96762466D01*
X54520000Y-97052263D01*
X54520000Y-97347737D01*
X54462356Y-97637534D01*
X54349283Y-97910517D01*
X54185126Y-98156194D01*
X53976194Y-98365126D01*
X53730517Y-98529283D01*
X53558374Y-98600587D01*
X53457537Y-98642355D01*
X53457536Y-98642355D01*
X53457534Y-98642356D01*
X53167737Y-98700000D01*
X52872263Y-98700000D01*
X52582466Y-98642356D01*
X52582464Y-98642355D01*
X52582463Y-98642355D01*
X52481626Y-98600587D01*
X52309483Y-98529283D01*
X52063806Y-98365126D01*
X51854874Y-98156194D01*
X51690717Y-97910517D01*
X51577644Y-97637534D01*
X51520000Y-97347737D01*
X51520000Y-97052263D01*
X51577644Y-96762466D01*
X51589696Y-96733371D01*
X51690717Y-96489484D01*
X51690717Y-96489483D01*
X51854874Y-96243806D01*
X52063806Y-96034874D01*
X52309483Y-95870717D01*
X52481626Y-95799413D01*
X52582463Y-95757645D01*
X52582464Y-95757645D01*
X52582466Y-95757644D01*
X52872263Y-95700000D01*
X53167737Y-95700000D01*
X53457534Y-95757644D01*
X53457534Y-95757644D01*
G37*
G36*
X58537534Y-95757644D02*
X58537536Y-95757645D01*
X58537537Y-95757645D01*
X58638374Y-95799413D01*
X58810517Y-95870717D01*
X59056194Y-96034874D01*
X59265126Y-96243806D01*
X59429283Y-96489483D01*
X59429283Y-96489484D01*
X59530305Y-96733371D01*
X59542356Y-96762466D01*
X59600000Y-97052263D01*
X59600000Y-97347737D01*
X59542356Y-97637534D01*
X59429283Y-97910517D01*
X59265126Y-98156194D01*
X59056194Y-98365126D01*
X58810517Y-98529283D01*
X58638374Y-98600587D01*
X58537537Y-98642355D01*
X58537536Y-98642355D01*
X58537534Y-98642356D01*
X58247737Y-98700000D01*
X57952263Y-98700000D01*
X57662466Y-98642356D01*
X57662464Y-98642355D01*
X57662463Y-98642355D01*
X57561626Y-98600587D01*
X57389483Y-98529283D01*
X57143806Y-98365126D01*
X56934874Y-98156194D01*
X56770717Y-97910517D01*
X56657644Y-97637534D01*
X56600000Y-97347737D01*
X56600000Y-97052263D01*
X56657644Y-96762466D01*
X56669696Y-96733371D01*
X56770717Y-96489484D01*
X56770717Y-96489483D01*
X56934874Y-96243806D01*
X57143806Y-96034874D01*
X57389483Y-95870717D01*
X57561626Y-95799413D01*
X57662463Y-95757645D01*
X57662464Y-95757645D01*
X57662466Y-95757644D01*
X57952263Y-95700000D01*
X58247737Y-95700000D01*
X58537534Y-95757644D01*
X58537534Y-95757644D01*
G37*
G36*
X125966627Y-96982299D02*
X126057088Y-97009740D01*
X126126855Y-97030903D01*
X126166816Y-97052263D01*
X126274517Y-97109830D01*
X126403948Y-97216052D01*
X126510170Y-97345483D01*
X126560309Y-97439288D01*
X126589097Y-97493145D01*
X126589097Y-97493146D01*
X126637701Y-97653373D01*
X126654113Y-97820000D01*
X126637701Y-97986627D01*
X126637700Y-97986629D01*
X126589097Y-98146855D01*
X126584105Y-98156194D01*
X126510170Y-98294517D01*
X126403948Y-98423948D01*
X126274517Y-98530170D01*
X126180712Y-98580309D01*
X126126855Y-98609097D01*
X126057088Y-98630260D01*
X125966627Y-98657701D01*
X125841757Y-98670000D01*
X125758243Y-98670000D01*
X125633373Y-98657701D01*
X125542912Y-98630260D01*
X125473145Y-98609097D01*
X125419288Y-98580309D01*
X125325483Y-98530170D01*
X125196052Y-98423948D01*
X125089830Y-98294517D01*
X125015895Y-98156194D01*
X125010903Y-98146855D01*
X124962300Y-97986629D01*
X124962299Y-97986627D01*
X124945887Y-97820000D01*
X124962299Y-97653373D01*
X125010903Y-97493146D01*
X125010903Y-97493145D01*
X125039691Y-97439288D01*
X125089830Y-97345483D01*
X125196052Y-97216052D01*
X125325483Y-97109830D01*
X125433184Y-97052263D01*
X125473145Y-97030903D01*
X125542912Y-97009740D01*
X125633373Y-96982299D01*
X125758243Y-96970000D01*
X125841757Y-96970000D01*
X125966627Y-96982299D01*
X125966627Y-96982299D01*
G37*
G36*
X122066627Y-96982299D02*
X122157088Y-97009740D01*
X122226855Y-97030903D01*
X122266816Y-97052263D01*
X122374517Y-97109830D01*
X122503948Y-97216052D01*
X122610170Y-97345483D01*
X122660309Y-97439288D01*
X122689097Y-97493145D01*
X122689097Y-97493146D01*
X122737701Y-97653373D01*
X122754113Y-97820000D01*
X122737701Y-97986627D01*
X122737700Y-97986629D01*
X122689097Y-98146855D01*
X122684105Y-98156194D01*
X122610170Y-98294517D01*
X122503948Y-98423948D01*
X122374517Y-98530170D01*
X122280712Y-98580309D01*
X122226855Y-98609097D01*
X122157088Y-98630260D01*
X122066627Y-98657701D01*
X121941757Y-98670000D01*
X121858243Y-98670000D01*
X121733373Y-98657701D01*
X121642912Y-98630260D01*
X121573145Y-98609097D01*
X121519288Y-98580309D01*
X121425483Y-98530170D01*
X121296052Y-98423948D01*
X121189830Y-98294517D01*
X121115895Y-98156194D01*
X121110903Y-98146855D01*
X121062300Y-97986629D01*
X121062299Y-97986627D01*
X121045887Y-97820000D01*
X121062299Y-97653373D01*
X121110903Y-97493146D01*
X121110903Y-97493145D01*
X121139691Y-97439288D01*
X121189830Y-97345483D01*
X121296052Y-97216052D01*
X121425483Y-97109830D01*
X121533184Y-97052263D01*
X121573145Y-97030903D01*
X121642912Y-97009740D01*
X121733373Y-96982299D01*
X121858243Y-96970000D01*
X121941757Y-96970000D01*
X122066627Y-96982299D01*
X122066627Y-96982299D01*
G37*
G36*
X67926627Y-96062299D02*
X68017088Y-96089740D01*
X68086855Y-96110903D01*
X68140712Y-96139691D01*
X68234517Y-96189830D01*
X68363948Y-96296052D01*
X68470170Y-96425483D01*
X68504378Y-96489483D01*
X68549097Y-96573145D01*
X68549097Y-96573146D01*
X68597701Y-96733373D01*
X68614113Y-96900000D01*
X68597701Y-97066627D01*
X68584595Y-97109832D01*
X68549097Y-97226855D01*
X68520309Y-97280712D01*
X68470170Y-97374517D01*
X68363948Y-97503948D01*
X68234517Y-97610170D01*
X68153693Y-97653371D01*
X68086855Y-97689097D01*
X68017088Y-97710260D01*
X67926627Y-97737701D01*
X67801757Y-97750000D01*
X67718243Y-97750000D01*
X67593373Y-97737701D01*
X67502912Y-97710260D01*
X67433145Y-97689097D01*
X67366307Y-97653371D01*
X67285483Y-97610170D01*
X67156052Y-97503948D01*
X67049830Y-97374517D01*
X66999691Y-97280712D01*
X66970903Y-97226855D01*
X66935405Y-97109832D01*
X66922299Y-97066627D01*
X66905887Y-96900000D01*
X66922299Y-96733373D01*
X66970903Y-96573146D01*
X66970903Y-96573145D01*
X67015622Y-96489483D01*
X67049830Y-96425483D01*
X67156052Y-96296052D01*
X67285483Y-96189830D01*
X67379288Y-96139691D01*
X67433145Y-96110903D01*
X67502912Y-96089740D01*
X67593373Y-96062299D01*
X67718243Y-96050000D01*
X67801757Y-96050000D01*
X67926627Y-96062299D01*
X67926627Y-96062299D01*
G37*
G36*
X65386627Y-96062299D02*
X65477088Y-96089740D01*
X65546855Y-96110903D01*
X65600712Y-96139691D01*
X65694517Y-96189830D01*
X65823948Y-96296052D01*
X65930170Y-96425483D01*
X65964378Y-96489483D01*
X66009097Y-96573145D01*
X66009097Y-96573146D01*
X66057701Y-96733373D01*
X66074113Y-96900000D01*
X66057701Y-97066627D01*
X66044595Y-97109832D01*
X66009097Y-97226855D01*
X65980309Y-97280712D01*
X65930170Y-97374517D01*
X65823948Y-97503948D01*
X65694517Y-97610170D01*
X65613693Y-97653371D01*
X65546855Y-97689097D01*
X65477088Y-97710260D01*
X65386627Y-97737701D01*
X65261757Y-97750000D01*
X65178243Y-97750000D01*
X65053373Y-97737701D01*
X64962912Y-97710260D01*
X64893145Y-97689097D01*
X64826307Y-97653371D01*
X64745483Y-97610170D01*
X64616052Y-97503948D01*
X64509830Y-97374517D01*
X64459691Y-97280712D01*
X64430903Y-97226855D01*
X64395405Y-97109832D01*
X64382299Y-97066627D01*
X64365887Y-96900000D01*
X64382299Y-96733373D01*
X64430903Y-96573146D01*
X64430903Y-96573145D01*
X64475622Y-96489483D01*
X64509830Y-96425483D01*
X64616052Y-96296052D01*
X64745483Y-96189830D01*
X64839288Y-96139691D01*
X64893145Y-96110903D01*
X64962912Y-96089740D01*
X65053373Y-96062299D01*
X65178243Y-96050000D01*
X65261757Y-96050000D01*
X65386627Y-96062299D01*
X65386627Y-96062299D01*
G37*
G36*
X76230000Y-97750000D02*
X74530000Y-97750000D01*
X74530000Y-96050000D01*
X76230000Y-96050000D01*
X76230000Y-97750000D01*
X76230000Y-97750000D01*
G37*
G36*
X73006627Y-96062299D02*
X73097088Y-96089740D01*
X73166855Y-96110903D01*
X73220712Y-96139691D01*
X73314517Y-96189830D01*
X73443948Y-96296052D01*
X73550170Y-96425483D01*
X73584378Y-96489483D01*
X73629097Y-96573145D01*
X73629097Y-96573146D01*
X73677701Y-96733373D01*
X73694113Y-96900000D01*
X73677701Y-97066627D01*
X73664595Y-97109832D01*
X73629097Y-97226855D01*
X73600309Y-97280712D01*
X73550170Y-97374517D01*
X73443948Y-97503948D01*
X73314517Y-97610170D01*
X73233693Y-97653371D01*
X73166855Y-97689097D01*
X73097088Y-97710260D01*
X73006627Y-97737701D01*
X72881757Y-97750000D01*
X72798243Y-97750000D01*
X72673373Y-97737701D01*
X72582912Y-97710260D01*
X72513145Y-97689097D01*
X72446307Y-97653371D01*
X72365483Y-97610170D01*
X72236052Y-97503948D01*
X72129830Y-97374517D01*
X72079691Y-97280712D01*
X72050903Y-97226855D01*
X72015405Y-97109832D01*
X72002299Y-97066627D01*
X71985887Y-96900000D01*
X72002299Y-96733373D01*
X72050903Y-96573146D01*
X72050903Y-96573145D01*
X72095622Y-96489483D01*
X72129830Y-96425483D01*
X72236052Y-96296052D01*
X72365483Y-96189830D01*
X72459288Y-96139691D01*
X72513145Y-96110903D01*
X72582912Y-96089740D01*
X72673373Y-96062299D01*
X72798243Y-96050000D01*
X72881757Y-96050000D01*
X73006627Y-96062299D01*
X73006627Y-96062299D01*
G37*
G36*
X70466627Y-96062299D02*
X70557088Y-96089740D01*
X70626855Y-96110903D01*
X70680712Y-96139691D01*
X70774517Y-96189830D01*
X70903948Y-96296052D01*
X71010170Y-96425483D01*
X71044378Y-96489483D01*
X71089097Y-96573145D01*
X71089097Y-96573146D01*
X71137701Y-96733373D01*
X71154113Y-96900000D01*
X71137701Y-97066627D01*
X71124595Y-97109832D01*
X71089097Y-97226855D01*
X71060309Y-97280712D01*
X71010170Y-97374517D01*
X70903948Y-97503948D01*
X70774517Y-97610170D01*
X70693693Y-97653371D01*
X70626855Y-97689097D01*
X70557088Y-97710260D01*
X70466627Y-97737701D01*
X70341757Y-97750000D01*
X70258243Y-97750000D01*
X70133373Y-97737701D01*
X70042912Y-97710260D01*
X69973145Y-97689097D01*
X69906307Y-97653371D01*
X69825483Y-97610170D01*
X69696052Y-97503948D01*
X69589830Y-97374517D01*
X69539691Y-97280712D01*
X69510903Y-97226855D01*
X69475405Y-97109832D01*
X69462299Y-97066627D01*
X69445887Y-96900000D01*
X69462299Y-96733373D01*
X69510903Y-96573146D01*
X69510903Y-96573145D01*
X69555622Y-96489483D01*
X69589830Y-96425483D01*
X69696052Y-96296052D01*
X69825483Y-96189830D01*
X69919288Y-96139691D01*
X69973145Y-96110903D01*
X70042912Y-96089740D01*
X70133373Y-96062299D01*
X70258243Y-96050000D01*
X70341757Y-96050000D01*
X70466627Y-96062299D01*
X70466627Y-96062299D01*
G37*
G36*
X125966627Y-94442299D02*
X126057088Y-94469740D01*
X126126855Y-94490903D01*
X126180712Y-94519691D01*
X126274517Y-94569830D01*
X126403948Y-94676052D01*
X126510170Y-94805483D01*
X126560309Y-94899288D01*
X126589097Y-94953145D01*
X126589097Y-94953146D01*
X126637701Y-95113373D01*
X126654113Y-95280000D01*
X126637701Y-95446627D01*
X126637700Y-95446629D01*
X126589097Y-95606855D01*
X126560309Y-95660712D01*
X126510170Y-95754517D01*
X126403948Y-95883948D01*
X126274517Y-95990170D01*
X126190883Y-96034873D01*
X126126855Y-96069097D01*
X126057088Y-96090260D01*
X125966627Y-96117701D01*
X125841757Y-96130000D01*
X125758243Y-96130000D01*
X125633373Y-96117701D01*
X125542912Y-96090260D01*
X125473145Y-96069097D01*
X125409117Y-96034873D01*
X125325483Y-95990170D01*
X125196052Y-95883948D01*
X125089830Y-95754517D01*
X125039691Y-95660712D01*
X125010903Y-95606855D01*
X124962300Y-95446629D01*
X124962299Y-95446627D01*
X124945887Y-95280000D01*
X124962299Y-95113373D01*
X125010903Y-94953146D01*
X125010903Y-94953145D01*
X125039691Y-94899288D01*
X125089830Y-94805483D01*
X125196052Y-94676052D01*
X125325483Y-94569830D01*
X125419288Y-94519691D01*
X125473145Y-94490903D01*
X125542912Y-94469740D01*
X125633373Y-94442299D01*
X125758243Y-94430000D01*
X125841757Y-94430000D01*
X125966627Y-94442299D01*
X125966627Y-94442299D01*
G37*
G36*
X122750000Y-96130000D02*
X121050000Y-96130000D01*
X121050000Y-94430000D01*
X122750000Y-94430000D01*
X122750000Y-96130000D01*
X122750000Y-96130000D01*
G37*
G36*
X102029896Y-93643142D02*
X102066701Y-93650463D01*
X102084545Y-93657855D01*
X102170707Y-93693543D01*
X102264310Y-93756087D01*
X102343913Y-93835690D01*
X102406457Y-93929293D01*
X102449537Y-94033300D01*
X102471500Y-94143712D01*
X102471500Y-94256288D01*
X102449537Y-94366700D01*
X102406457Y-94470707D01*
X102343913Y-94564310D01*
X102264310Y-94643913D01*
X102170707Y-94706457D01*
X102084545Y-94742145D01*
X102066701Y-94749537D01*
X102029896Y-94756858D01*
X101956288Y-94771500D01*
X101843712Y-94771500D01*
X101770104Y-94756858D01*
X101733299Y-94749537D01*
X101715455Y-94742145D01*
X101629293Y-94706457D01*
X101535690Y-94643913D01*
X101456087Y-94564310D01*
X101393543Y-94470707D01*
X101350463Y-94366700D01*
X101328500Y-94256288D01*
X101328500Y-94143712D01*
X101350463Y-94033300D01*
X101393543Y-93929293D01*
X101456087Y-93835690D01*
X101535690Y-93756087D01*
X101629293Y-93693543D01*
X101715455Y-93657855D01*
X101733299Y-93650463D01*
X101770104Y-93643142D01*
X101843712Y-93628500D01*
X101956288Y-93628500D01*
X102029896Y-93643142D01*
X102029896Y-93643142D01*
G37*
G36*
X98429896Y-93643142D02*
X98466701Y-93650463D01*
X98484545Y-93657855D01*
X98570707Y-93693543D01*
X98664310Y-93756087D01*
X98743913Y-93835690D01*
X98806457Y-93929293D01*
X98849537Y-94033300D01*
X98871500Y-94143712D01*
X98871500Y-94256288D01*
X98849537Y-94366700D01*
X98806457Y-94470707D01*
X98743913Y-94564310D01*
X98664310Y-94643913D01*
X98570707Y-94706457D01*
X98484545Y-94742145D01*
X98466701Y-94749537D01*
X98429896Y-94756858D01*
X98356288Y-94771500D01*
X98243712Y-94771500D01*
X98170104Y-94756858D01*
X98133299Y-94749537D01*
X98115455Y-94742145D01*
X98029293Y-94706457D01*
X97935690Y-94643913D01*
X97856087Y-94564310D01*
X97793543Y-94470707D01*
X97750463Y-94366700D01*
X97728500Y-94256288D01*
X97728500Y-94143712D01*
X97750463Y-94033300D01*
X97793543Y-93929293D01*
X97856087Y-93835690D01*
X97935690Y-93756087D01*
X98029293Y-93693543D01*
X98115455Y-93657855D01*
X98133299Y-93650463D01*
X98170104Y-93643142D01*
X98243712Y-93628500D01*
X98356288Y-93628500D01*
X98429896Y-93643142D01*
X98429896Y-93643142D01*
G37*
G36*
X52829896Y-91643142D02*
X52866701Y-91650463D01*
X52884545Y-91657855D01*
X52970707Y-91693543D01*
X53064310Y-91756087D01*
X53143913Y-91835690D01*
X53206457Y-91929293D01*
X53249537Y-92033300D01*
X53271500Y-92143712D01*
X53271500Y-92256288D01*
X53256858Y-92329896D01*
X53250013Y-92364310D01*
X53249537Y-92366700D01*
X53206457Y-92470707D01*
X53143913Y-92564310D01*
X53064310Y-92643913D01*
X52970707Y-92706457D01*
X52884545Y-92742145D01*
X52866701Y-92749537D01*
X52829896Y-92756858D01*
X52756288Y-92771500D01*
X52643712Y-92771500D01*
X52570104Y-92756858D01*
X52533299Y-92749537D01*
X52515455Y-92742145D01*
X52429293Y-92706457D01*
X52335690Y-92643913D01*
X52256087Y-92564310D01*
X52193543Y-92470707D01*
X52150463Y-92366700D01*
X52149988Y-92364310D01*
X52143142Y-92329896D01*
X52128500Y-92256288D01*
X52128500Y-92143712D01*
X52150463Y-92033300D01*
X52193543Y-91929293D01*
X52256087Y-91835690D01*
X52335690Y-91756087D01*
X52429293Y-91693543D01*
X52515455Y-91657855D01*
X52533299Y-91650463D01*
X52570104Y-91643142D01*
X52643712Y-91628500D01*
X52756288Y-91628500D01*
X52829896Y-91643142D01*
X52829896Y-91643142D01*
G37*
G36*
X100229896Y-91443142D02*
X100266701Y-91450463D01*
X100284545Y-91457855D01*
X100370707Y-91493543D01*
X100464310Y-91556087D01*
X100543913Y-91635690D01*
X100606457Y-91729293D01*
X100642145Y-91815455D01*
X100649537Y-91833299D01*
X100650013Y-91835692D01*
X100671500Y-91943712D01*
X100671500Y-92056288D01*
X100649537Y-92166700D01*
X100606457Y-92270707D01*
X100543913Y-92364310D01*
X100464310Y-92443913D01*
X100370707Y-92506457D01*
X100284545Y-92542145D01*
X100266701Y-92549537D01*
X100229896Y-92556858D01*
X100156288Y-92571500D01*
X100043712Y-92571500D01*
X99970104Y-92556858D01*
X99933299Y-92549537D01*
X99915455Y-92542145D01*
X99829293Y-92506457D01*
X99735690Y-92443913D01*
X99656087Y-92364310D01*
X99593543Y-92270707D01*
X99550463Y-92166700D01*
X99528500Y-92056288D01*
X99528500Y-91943712D01*
X99549987Y-91835692D01*
X99550463Y-91833299D01*
X99557855Y-91815455D01*
X99593543Y-91729293D01*
X99656087Y-91635690D01*
X99735690Y-91556087D01*
X99829293Y-91493543D01*
X99915455Y-91457855D01*
X99933299Y-91450463D01*
X99970104Y-91443142D01*
X100043712Y-91428500D01*
X100156288Y-91428500D01*
X100229896Y-91443142D01*
X100229896Y-91443142D01*
G37*
G36*
X104029896Y-91443142D02*
X104066701Y-91450463D01*
X104084545Y-91457855D01*
X104170707Y-91493543D01*
X104264310Y-91556087D01*
X104343913Y-91635690D01*
X104406457Y-91729293D01*
X104442145Y-91815455D01*
X104449537Y-91833299D01*
X104450013Y-91835692D01*
X104471500Y-91943712D01*
X104471500Y-92056288D01*
X104449537Y-92166700D01*
X104406457Y-92270707D01*
X104343913Y-92364310D01*
X104264310Y-92443913D01*
X104170707Y-92506457D01*
X104084545Y-92542145D01*
X104066701Y-92549537D01*
X104029896Y-92556858D01*
X103956288Y-92571500D01*
X103843712Y-92571500D01*
X103770104Y-92556858D01*
X103733299Y-92549537D01*
X103715455Y-92542145D01*
X103629293Y-92506457D01*
X103535690Y-92443913D01*
X103456087Y-92364310D01*
X103393543Y-92270707D01*
X103350463Y-92166700D01*
X103328500Y-92056288D01*
X103328500Y-91943712D01*
X103349987Y-91835692D01*
X103350463Y-91833299D01*
X103357855Y-91815455D01*
X103393543Y-91729293D01*
X103456087Y-91635690D01*
X103535690Y-91556087D01*
X103629293Y-91493543D01*
X103715455Y-91457855D01*
X103733299Y-91450463D01*
X103770104Y-91443142D01*
X103843712Y-91428500D01*
X103956288Y-91428500D01*
X104029896Y-91443142D01*
X104029896Y-91443142D01*
G37*
G36*
X52829896Y-83643142D02*
X52866701Y-83650463D01*
X52884545Y-83657855D01*
X52970707Y-83693543D01*
X53064310Y-83756087D01*
X53143913Y-83835690D01*
X53206457Y-83929293D01*
X53249537Y-84033300D01*
X53271500Y-84143712D01*
X53271500Y-84256288D01*
X53249537Y-84366700D01*
X53206457Y-84470707D01*
X53143913Y-84564310D01*
X53064310Y-84643913D01*
X52970707Y-84706457D01*
X52884545Y-84742145D01*
X52866701Y-84749537D01*
X52829896Y-84756858D01*
X52756288Y-84771500D01*
X52643712Y-84771500D01*
X52570104Y-84756858D01*
X52533299Y-84749537D01*
X52515455Y-84742145D01*
X52429293Y-84706457D01*
X52335690Y-84643913D01*
X52256087Y-84564310D01*
X52193543Y-84470707D01*
X52150463Y-84366700D01*
X52128500Y-84256288D01*
X52128500Y-84143712D01*
X52150463Y-84033300D01*
X52193543Y-83929293D01*
X52256087Y-83835690D01*
X52335690Y-83756087D01*
X52429293Y-83693543D01*
X52515455Y-83657855D01*
X52533299Y-83650463D01*
X52570104Y-83643142D01*
X52643712Y-83628500D01*
X52756288Y-83628500D01*
X52829896Y-83643142D01*
X52829896Y-83643142D01*
G37*
G36*
X101629896Y-82643142D02*
X101666701Y-82650463D01*
X101684545Y-82657855D01*
X101770707Y-82693543D01*
X101864310Y-82756087D01*
X101943913Y-82835690D01*
X102006457Y-82929293D01*
X102042145Y-83015455D01*
X102049537Y-83033299D01*
X102071500Y-83143714D01*
X102071500Y-83256286D01*
X102049537Y-83366701D01*
X102042145Y-83384545D01*
X102006457Y-83470707D01*
X101943913Y-83564310D01*
X101864310Y-83643913D01*
X101770707Y-83706457D01*
X101695275Y-83737701D01*
X101666701Y-83749537D01*
X101633777Y-83756086D01*
X101556288Y-83771500D01*
X101443712Y-83771500D01*
X101366223Y-83756086D01*
X101333299Y-83749537D01*
X101304725Y-83737701D01*
X101229293Y-83706457D01*
X101135690Y-83643913D01*
X101056087Y-83564310D01*
X100993543Y-83470707D01*
X100957855Y-83384545D01*
X100950463Y-83366701D01*
X100928500Y-83256286D01*
X100928500Y-83143714D01*
X100950463Y-83033299D01*
X100957855Y-83015455D01*
X100993543Y-82929293D01*
X101056087Y-82835690D01*
X101135690Y-82756087D01*
X101229293Y-82693543D01*
X101315455Y-82657855D01*
X101333299Y-82650463D01*
X101370104Y-82643142D01*
X101443712Y-82628500D01*
X101556288Y-82628500D01*
X101629896Y-82643142D01*
X101629896Y-82643142D01*
G37*
G36*
X145506627Y-82062299D02*
X145597088Y-82089740D01*
X145666855Y-82110903D01*
X145720712Y-82139691D01*
X145814517Y-82189830D01*
X145943948Y-82296052D01*
X146050170Y-82425483D01*
X146100309Y-82519288D01*
X146129097Y-82573145D01*
X146129097Y-82573146D01*
X146177701Y-82733373D01*
X146194113Y-82900000D01*
X146177701Y-83066627D01*
X146177700Y-83066629D01*
X146129097Y-83226855D01*
X146100309Y-83280712D01*
X146050170Y-83374517D01*
X145943948Y-83503948D01*
X145814517Y-83610170D01*
X145720712Y-83660309D01*
X145666855Y-83689097D01*
X145597088Y-83710260D01*
X145506627Y-83737701D01*
X145381757Y-83750000D01*
X145298243Y-83750000D01*
X145173373Y-83737701D01*
X145082912Y-83710260D01*
X145013145Y-83689097D01*
X144959288Y-83660309D01*
X144865483Y-83610170D01*
X144736052Y-83503948D01*
X144629830Y-83374517D01*
X144579691Y-83280712D01*
X144550903Y-83226855D01*
X144502300Y-83066629D01*
X144502299Y-83066627D01*
X144485887Y-82900000D01*
X144502299Y-82733373D01*
X144550903Y-82573146D01*
X144550903Y-82573145D01*
X144579691Y-82519288D01*
X144629830Y-82425483D01*
X144736052Y-82296052D01*
X144865483Y-82189830D01*
X144959288Y-82139691D01*
X145013145Y-82110903D01*
X145082912Y-82089740D01*
X145173373Y-82062299D01*
X145298243Y-82050000D01*
X145381757Y-82050000D01*
X145506627Y-82062299D01*
X145506627Y-82062299D01*
G37*
G36*
X142966627Y-82062299D02*
X143057088Y-82089740D01*
X143126855Y-82110903D01*
X143180712Y-82139691D01*
X143274517Y-82189830D01*
X143403948Y-82296052D01*
X143510170Y-82425483D01*
X143560309Y-82519288D01*
X143589097Y-82573145D01*
X143589097Y-82573146D01*
X143637701Y-82733373D01*
X143654113Y-82900000D01*
X143637701Y-83066627D01*
X143637700Y-83066629D01*
X143589097Y-83226855D01*
X143560309Y-83280712D01*
X143510170Y-83374517D01*
X143403948Y-83503948D01*
X143274517Y-83610170D01*
X143180712Y-83660309D01*
X143126855Y-83689097D01*
X143057088Y-83710260D01*
X142966627Y-83737701D01*
X142841757Y-83750000D01*
X142758243Y-83750000D01*
X142633373Y-83737701D01*
X142542912Y-83710260D01*
X142473145Y-83689097D01*
X142419288Y-83660309D01*
X142325483Y-83610170D01*
X142196052Y-83503948D01*
X142089830Y-83374517D01*
X142039691Y-83280712D01*
X142010903Y-83226855D01*
X141962300Y-83066629D01*
X141962299Y-83066627D01*
X141945887Y-82900000D01*
X141962299Y-82733373D01*
X142010903Y-82573146D01*
X142010903Y-82573145D01*
X142039691Y-82519288D01*
X142089830Y-82425483D01*
X142196052Y-82296052D01*
X142325483Y-82189830D01*
X142419288Y-82139691D01*
X142473145Y-82110903D01*
X142542912Y-82089740D01*
X142633373Y-82062299D01*
X142758243Y-82050000D01*
X142841757Y-82050000D01*
X142966627Y-82062299D01*
X142966627Y-82062299D01*
G37*
G36*
X140426627Y-82062299D02*
X140517088Y-82089740D01*
X140586855Y-82110903D01*
X140640712Y-82139691D01*
X140734517Y-82189830D01*
X140863948Y-82296052D01*
X140970170Y-82425483D01*
X141020309Y-82519288D01*
X141049097Y-82573145D01*
X141049097Y-82573146D01*
X141097701Y-82733373D01*
X141114113Y-82900000D01*
X141097701Y-83066627D01*
X141097700Y-83066629D01*
X141049097Y-83226855D01*
X141020309Y-83280712D01*
X140970170Y-83374517D01*
X140863948Y-83503948D01*
X140734517Y-83610170D01*
X140640712Y-83660309D01*
X140586855Y-83689097D01*
X140517088Y-83710260D01*
X140426627Y-83737701D01*
X140301757Y-83750000D01*
X140218243Y-83750000D01*
X140093373Y-83737701D01*
X140002912Y-83710260D01*
X139933145Y-83689097D01*
X139879288Y-83660309D01*
X139785483Y-83610170D01*
X139656052Y-83503948D01*
X139549830Y-83374517D01*
X139499691Y-83280712D01*
X139470903Y-83226855D01*
X139422300Y-83066629D01*
X139422299Y-83066627D01*
X139405887Y-82900000D01*
X139422299Y-82733373D01*
X139470903Y-82573146D01*
X139470903Y-82573145D01*
X139499691Y-82519288D01*
X139549830Y-82425483D01*
X139656052Y-82296052D01*
X139785483Y-82189830D01*
X139879288Y-82139691D01*
X139933145Y-82110903D01*
X140002912Y-82089740D01*
X140093373Y-82062299D01*
X140218243Y-82050000D01*
X140301757Y-82050000D01*
X140426627Y-82062299D01*
X140426627Y-82062299D01*
G37*
G36*
X137886627Y-82062299D02*
X137977088Y-82089740D01*
X138046855Y-82110903D01*
X138100712Y-82139691D01*
X138194517Y-82189830D01*
X138323948Y-82296052D01*
X138430170Y-82425483D01*
X138480309Y-82519288D01*
X138509097Y-82573145D01*
X138509097Y-82573146D01*
X138557701Y-82733373D01*
X138574113Y-82900000D01*
X138557701Y-83066627D01*
X138557700Y-83066629D01*
X138509097Y-83226855D01*
X138480309Y-83280712D01*
X138430170Y-83374517D01*
X138323948Y-83503948D01*
X138194517Y-83610170D01*
X138100712Y-83660309D01*
X138046855Y-83689097D01*
X137977088Y-83710260D01*
X137886627Y-83737701D01*
X137761757Y-83750000D01*
X137678243Y-83750000D01*
X137553373Y-83737701D01*
X137462912Y-83710260D01*
X137393145Y-83689097D01*
X137339288Y-83660309D01*
X137245483Y-83610170D01*
X137116052Y-83503948D01*
X137009830Y-83374517D01*
X136959691Y-83280712D01*
X136930903Y-83226855D01*
X136882300Y-83066629D01*
X136882299Y-83066627D01*
X136865887Y-82900000D01*
X136882299Y-82733373D01*
X136930903Y-82573146D01*
X136930903Y-82573145D01*
X136959691Y-82519288D01*
X137009830Y-82425483D01*
X137116052Y-82296052D01*
X137245483Y-82189830D01*
X137339288Y-82139691D01*
X137393145Y-82110903D01*
X137462912Y-82089740D01*
X137553373Y-82062299D01*
X137678243Y-82050000D01*
X137761757Y-82050000D01*
X137886627Y-82062299D01*
X137886627Y-82062299D01*
G37*
G36*
X136030000Y-83750000D02*
X134330000Y-83750000D01*
X134330000Y-82050000D01*
X136030000Y-82050000D01*
X136030000Y-83750000D01*
X136030000Y-83750000D01*
G37*
G36*
X148046627Y-82062299D02*
X148137088Y-82089740D01*
X148206855Y-82110903D01*
X148260712Y-82139691D01*
X148354517Y-82189830D01*
X148483948Y-82296052D01*
X148590170Y-82425483D01*
X148640309Y-82519288D01*
X148669097Y-82573145D01*
X148669097Y-82573146D01*
X148717701Y-82733373D01*
X148734113Y-82900000D01*
X148717701Y-83066627D01*
X148717700Y-83066629D01*
X148669097Y-83226855D01*
X148640309Y-83280712D01*
X148590170Y-83374517D01*
X148483948Y-83503948D01*
X148354517Y-83610170D01*
X148260712Y-83660309D01*
X148206855Y-83689097D01*
X148137088Y-83710260D01*
X148046627Y-83737701D01*
X147921757Y-83750000D01*
X147838243Y-83750000D01*
X147713373Y-83737701D01*
X147622912Y-83710260D01*
X147553145Y-83689097D01*
X147499288Y-83660309D01*
X147405483Y-83610170D01*
X147276052Y-83503948D01*
X147169830Y-83374517D01*
X147119691Y-83280712D01*
X147090903Y-83226855D01*
X147042300Y-83066629D01*
X147042299Y-83066627D01*
X147025887Y-82900000D01*
X147042299Y-82733373D01*
X147090903Y-82573146D01*
X147090903Y-82573145D01*
X147119691Y-82519288D01*
X147169830Y-82425483D01*
X147276052Y-82296052D01*
X147405483Y-82189830D01*
X147499288Y-82139691D01*
X147553145Y-82110903D01*
X147622912Y-82089740D01*
X147713373Y-82062299D01*
X147838243Y-82050000D01*
X147921757Y-82050000D01*
X148046627Y-82062299D01*
X148046627Y-82062299D01*
G37*
G36*
X52829896Y-75643142D02*
X52866701Y-75650463D01*
X52884545Y-75657855D01*
X52970707Y-75693543D01*
X53064310Y-75756087D01*
X53143913Y-75835690D01*
X53206457Y-75929293D01*
X53249537Y-76033300D01*
X53271500Y-76143712D01*
X53271500Y-76256288D01*
X53249537Y-76366700D01*
X53206457Y-76470707D01*
X53143913Y-76564310D01*
X53064310Y-76643913D01*
X52970707Y-76706457D01*
X52884545Y-76742145D01*
X52866701Y-76749537D01*
X52829896Y-76756858D01*
X52756288Y-76771500D01*
X52643712Y-76771500D01*
X52570104Y-76756858D01*
X52533299Y-76749537D01*
X52515455Y-76742145D01*
X52429293Y-76706457D01*
X52335690Y-76643913D01*
X52256087Y-76564310D01*
X52193543Y-76470707D01*
X52150463Y-76366700D01*
X52128500Y-76256288D01*
X52128500Y-76143712D01*
X52150463Y-76033300D01*
X52193543Y-75929293D01*
X52256087Y-75835690D01*
X52335690Y-75756087D01*
X52429293Y-75693543D01*
X52515455Y-75657855D01*
X52533299Y-75650463D01*
X52570104Y-75643142D01*
X52643712Y-75628500D01*
X52756288Y-75628500D01*
X52829896Y-75643142D01*
X52829896Y-75643142D01*
G37*
G36*
X133129293Y-73028895D02*
X133292085Y-73078278D01*
X133442114Y-73158470D01*
X133573612Y-73266388D01*
X133681530Y-73397886D01*
X133761722Y-73547915D01*
X133811105Y-73710707D01*
X133827779Y-73880000D01*
X133811105Y-74049293D01*
X133761722Y-74212085D01*
X133681530Y-74362114D01*
X133573612Y-74493612D01*
X133442114Y-74601530D01*
X133292085Y-74681722D01*
X133129293Y-74731105D01*
X133002426Y-74743600D01*
X132917574Y-74743600D01*
X132790707Y-74731105D01*
X132627915Y-74681722D01*
X132477886Y-74601530D01*
X132346388Y-74493612D01*
X132238470Y-74362114D01*
X132158278Y-74212085D01*
X132108895Y-74049293D01*
X132092221Y-73880000D01*
X132108895Y-73710707D01*
X132158278Y-73547915D01*
X132238470Y-73397886D01*
X132346388Y-73266388D01*
X132477886Y-73158470D01*
X132627915Y-73078278D01*
X132790707Y-73028895D01*
X132917574Y-73016400D01*
X133002426Y-73016400D01*
X133129293Y-73028895D01*
X133129293Y-73028895D01*
G37*
G36*
X143329293Y-73028895D02*
X143492085Y-73078278D01*
X143642114Y-73158470D01*
X143773612Y-73266388D01*
X143881530Y-73397886D01*
X143961722Y-73547915D01*
X144011105Y-73710707D01*
X144027779Y-73880000D01*
X144011105Y-74049293D01*
X143961722Y-74212085D01*
X143881530Y-74362114D01*
X143773612Y-74493612D01*
X143642114Y-74601530D01*
X143492085Y-74681722D01*
X143329293Y-74731105D01*
X143202426Y-74743600D01*
X143117574Y-74743600D01*
X142990707Y-74731105D01*
X142827915Y-74681722D01*
X142677886Y-74601530D01*
X142546388Y-74493612D01*
X142438470Y-74362114D01*
X142358278Y-74212085D01*
X142308895Y-74049293D01*
X142292221Y-73880000D01*
X142308895Y-73710707D01*
X142358278Y-73547915D01*
X142438470Y-73397886D01*
X142546388Y-73266388D01*
X142677886Y-73158470D01*
X142827915Y-73078278D01*
X142990707Y-73028895D01*
X143117574Y-73016400D01*
X143202426Y-73016400D01*
X143329293Y-73028895D01*
X143329293Y-73028895D01*
G37*
G36*
X135669293Y-73028895D02*
X135832085Y-73078278D01*
X135982114Y-73158470D01*
X136113612Y-73266388D01*
X136221530Y-73397886D01*
X136301722Y-73547915D01*
X136351105Y-73710707D01*
X136367779Y-73880000D01*
X136351105Y-74049293D01*
X136301722Y-74212085D01*
X136221530Y-74362114D01*
X136113612Y-74493612D01*
X135982114Y-74601530D01*
X135832085Y-74681722D01*
X135669293Y-74731105D01*
X135542426Y-74743600D01*
X135457574Y-74743600D01*
X135330707Y-74731105D01*
X135167915Y-74681722D01*
X135017886Y-74601530D01*
X134886388Y-74493612D01*
X134778470Y-74362114D01*
X134698278Y-74212085D01*
X134648895Y-74049293D01*
X134632221Y-73880000D01*
X134648895Y-73710707D01*
X134698278Y-73547915D01*
X134778470Y-73397886D01*
X134886388Y-73266388D01*
X135017886Y-73158470D01*
X135167915Y-73078278D01*
X135330707Y-73028895D01*
X135457574Y-73016400D01*
X135542426Y-73016400D01*
X135669293Y-73028895D01*
X135669293Y-73028895D01*
G37*
G36*
X145869293Y-73028895D02*
X146032085Y-73078278D01*
X146182114Y-73158470D01*
X146313612Y-73266388D01*
X146421530Y-73397886D01*
X146501722Y-73547915D01*
X146551105Y-73710707D01*
X146567779Y-73880000D01*
X146551105Y-74049293D01*
X146501722Y-74212085D01*
X146421530Y-74362114D01*
X146313612Y-74493612D01*
X146182114Y-74601530D01*
X146032085Y-74681722D01*
X145869293Y-74731105D01*
X145742426Y-74743600D01*
X145657574Y-74743600D01*
X145530707Y-74731105D01*
X145367915Y-74681722D01*
X145217886Y-74601530D01*
X145086388Y-74493612D01*
X144978470Y-74362114D01*
X144898278Y-74212085D01*
X144848895Y-74049293D01*
X144832221Y-73880000D01*
X144848895Y-73710707D01*
X144898278Y-73547915D01*
X144978470Y-73397886D01*
X145086388Y-73266388D01*
X145217886Y-73158470D01*
X145367915Y-73078278D01*
X145530707Y-73028895D01*
X145657574Y-73016400D01*
X145742426Y-73016400D01*
X145869293Y-73028895D01*
X145869293Y-73028895D01*
G37*
G36*
X145869293Y-70488895D02*
X146032085Y-70538278D01*
X146182114Y-70618470D01*
X146313612Y-70726388D01*
X146421530Y-70857886D01*
X146501722Y-71007915D01*
X146551105Y-71170707D01*
X146567779Y-71340000D01*
X146551105Y-71509293D01*
X146501722Y-71672085D01*
X146421530Y-71822114D01*
X146313612Y-71953612D01*
X146182114Y-72061530D01*
X146032085Y-72141722D01*
X145869293Y-72191105D01*
X145742426Y-72203600D01*
X145657574Y-72203600D01*
X145530707Y-72191105D01*
X145367915Y-72141722D01*
X145217886Y-72061530D01*
X145086388Y-71953612D01*
X144978470Y-71822114D01*
X144898278Y-71672085D01*
X144848895Y-71509293D01*
X144832221Y-71340000D01*
X144848895Y-71170707D01*
X144898278Y-71007915D01*
X144978470Y-70857886D01*
X145086388Y-70726388D01*
X145217886Y-70618470D01*
X145367915Y-70538278D01*
X145530707Y-70488895D01*
X145657574Y-70476400D01*
X145742426Y-70476400D01*
X145869293Y-70488895D01*
X145869293Y-70488895D01*
G37*
G36*
X143329293Y-70488895D02*
X143492085Y-70538278D01*
X143642114Y-70618470D01*
X143773612Y-70726388D01*
X143881530Y-70857886D01*
X143961722Y-71007915D01*
X144011105Y-71170707D01*
X144027779Y-71340000D01*
X144011105Y-71509293D01*
X143961722Y-71672085D01*
X143881530Y-71822114D01*
X143773612Y-71953612D01*
X143642114Y-72061530D01*
X143492085Y-72141722D01*
X143329293Y-72191105D01*
X143202426Y-72203600D01*
X143117574Y-72203600D01*
X142990707Y-72191105D01*
X142827915Y-72141722D01*
X142677886Y-72061530D01*
X142546388Y-71953612D01*
X142438470Y-71822114D01*
X142358278Y-71672085D01*
X142308895Y-71509293D01*
X142292221Y-71340000D01*
X142308895Y-71170707D01*
X142358278Y-71007915D01*
X142438470Y-70857886D01*
X142546388Y-70726388D01*
X142677886Y-70618470D01*
X142827915Y-70538278D01*
X142990707Y-70488895D01*
X143117574Y-70476400D01*
X143202426Y-70476400D01*
X143329293Y-70488895D01*
X143329293Y-70488895D01*
G37*
G36*
X135669293Y-70488895D02*
X135832085Y-70538278D01*
X135982114Y-70618470D01*
X136113612Y-70726388D01*
X136221530Y-70857886D01*
X136301722Y-71007915D01*
X136351105Y-71170707D01*
X136367779Y-71340000D01*
X136351105Y-71509293D01*
X136301722Y-71672085D01*
X136221530Y-71822114D01*
X136113612Y-71953612D01*
X135982114Y-72061530D01*
X135832085Y-72141722D01*
X135669293Y-72191105D01*
X135542426Y-72203600D01*
X135457574Y-72203600D01*
X135330707Y-72191105D01*
X135167915Y-72141722D01*
X135017886Y-72061530D01*
X134886388Y-71953612D01*
X134778470Y-71822114D01*
X134698278Y-71672085D01*
X134648895Y-71509293D01*
X134632221Y-71340000D01*
X134648895Y-71170707D01*
X134698278Y-71007915D01*
X134778470Y-70857886D01*
X134886388Y-70726388D01*
X135017886Y-70618470D01*
X135167915Y-70538278D01*
X135330707Y-70488895D01*
X135457574Y-70476400D01*
X135542426Y-70476400D01*
X135669293Y-70488895D01*
X135669293Y-70488895D01*
G37*
G36*
X133129293Y-70488895D02*
X133292085Y-70538278D01*
X133442114Y-70618470D01*
X133573612Y-70726388D01*
X133681530Y-70857886D01*
X133761722Y-71007915D01*
X133811105Y-71170707D01*
X133827779Y-71340000D01*
X133811105Y-71509293D01*
X133761722Y-71672085D01*
X133681530Y-71822114D01*
X133573612Y-71953612D01*
X133442114Y-72061530D01*
X133292085Y-72141722D01*
X133129293Y-72191105D01*
X133002426Y-72203600D01*
X132917574Y-72203600D01*
X132790707Y-72191105D01*
X132627915Y-72141722D01*
X132477886Y-72061530D01*
X132346388Y-71953612D01*
X132238470Y-71822114D01*
X132158278Y-71672085D01*
X132108895Y-71509293D01*
X132092221Y-71340000D01*
X132108895Y-71170707D01*
X132158278Y-71007915D01*
X132238470Y-70857886D01*
X132346388Y-70726388D01*
X132477886Y-70618470D01*
X132627915Y-70538278D01*
X132790707Y-70488895D01*
X132917574Y-70476400D01*
X133002426Y-70476400D01*
X133129293Y-70488895D01*
X133129293Y-70488895D01*
G37*
G36*
X52862520Y-69434586D02*
X52862522Y-69434587D01*
X52862523Y-69434587D01*
X53020443Y-69500000D01*
X53026310Y-69502430D01*
X53173717Y-69600924D01*
X53299076Y-69726283D01*
X53299077Y-69726285D01*
X53397570Y-69873690D01*
X53417191Y-69921058D01*
X53465414Y-70037480D01*
X53500000Y-70211358D01*
X53500000Y-70388642D01*
X53480059Y-70488896D01*
X53465413Y-70562523D01*
X53397570Y-70726310D01*
X53299076Y-70873717D01*
X53173717Y-70999076D01*
X53160488Y-71007915D01*
X53026310Y-71097570D01*
X52862523Y-71165413D01*
X52862522Y-71165413D01*
X52862520Y-71165414D01*
X52688642Y-71200000D01*
X52511358Y-71200000D01*
X52337480Y-71165414D01*
X52337478Y-71165413D01*
X52337477Y-71165413D01*
X52173690Y-71097570D01*
X52039512Y-71007915D01*
X52026283Y-70999076D01*
X51900924Y-70873717D01*
X51802430Y-70726310D01*
X51734587Y-70562523D01*
X51719942Y-70488896D01*
X51700000Y-70388642D01*
X51700000Y-70211358D01*
X51734586Y-70037480D01*
X51782810Y-69921058D01*
X51802430Y-69873690D01*
X51900923Y-69726285D01*
X51900924Y-69726283D01*
X52026283Y-69600924D01*
X52173690Y-69502430D01*
X52179557Y-69500000D01*
X52337477Y-69434587D01*
X52337478Y-69434587D01*
X52337480Y-69434586D01*
X52511358Y-69400000D01*
X52688642Y-69400000D01*
X52862520Y-69434586D01*
X52862520Y-69434586D01*
G37*
G36*
X63776825Y-69511575D02*
X63927628Y-69557321D01*
X64066608Y-69631607D01*
X64188422Y-69731578D01*
X64288393Y-69853392D01*
X64362679Y-69992372D01*
X64408425Y-70143175D01*
X64423871Y-70300000D01*
X64408425Y-70456825D01*
X64362679Y-70607628D01*
X64288393Y-70746608D01*
X64188422Y-70868422D01*
X64066608Y-70968393D01*
X63927628Y-71042679D01*
X63776825Y-71088425D01*
X63659299Y-71100000D01*
X63580701Y-71100000D01*
X63463175Y-71088425D01*
X63312372Y-71042679D01*
X63173392Y-70968393D01*
X63051578Y-70868422D01*
X62951607Y-70746608D01*
X62877321Y-70607628D01*
X62831575Y-70456825D01*
X62816129Y-70300000D01*
X62831575Y-70143175D01*
X62877321Y-69992372D01*
X62951607Y-69853392D01*
X63051578Y-69731578D01*
X63173392Y-69631607D01*
X63312372Y-69557321D01*
X63463175Y-69511575D01*
X63580701Y-69500000D01*
X63659299Y-69500000D01*
X63776825Y-69511575D01*
X63776825Y-69511575D01*
G37*
G36*
X56233351Y-69530743D02*
X56233353Y-69530744D01*
X56233354Y-69530744D01*
X56378942Y-69591049D01*
X56509969Y-69678598D01*
X56621402Y-69790031D01*
X56677301Y-69873690D01*
X56708951Y-69921058D01*
X56769257Y-70066649D01*
X56800000Y-70221207D01*
X56800000Y-70378793D01*
X56778100Y-70488896D01*
X56769256Y-70533354D01*
X56708951Y-70678942D01*
X56621402Y-70809969D01*
X56509969Y-70921402D01*
X56378942Y-71008951D01*
X56233354Y-71069256D01*
X56233353Y-71069256D01*
X56233351Y-71069257D01*
X56078793Y-71100000D01*
X55921207Y-71100000D01*
X55766649Y-71069257D01*
X55766647Y-71069256D01*
X55766646Y-71069256D01*
X55621058Y-71008951D01*
X55490031Y-70921402D01*
X55378598Y-70809969D01*
X55291049Y-70678942D01*
X55230744Y-70533354D01*
X55221901Y-70488896D01*
X55200000Y-70378793D01*
X55200000Y-70221207D01*
X55230743Y-70066649D01*
X55291049Y-69921058D01*
X55322699Y-69873690D01*
X55378598Y-69790031D01*
X55490031Y-69678598D01*
X55621058Y-69591049D01*
X55766646Y-69530744D01*
X55766647Y-69530744D01*
X55766649Y-69530743D01*
X55921207Y-69500000D01*
X56078793Y-69500000D01*
X56233351Y-69530743D01*
X56233351Y-69530743D01*
G37*
G36*
X145869293Y-67948895D02*
X146032085Y-67998278D01*
X146182114Y-68078470D01*
X146313612Y-68186388D01*
X146421530Y-68317886D01*
X146501722Y-68467915D01*
X146551105Y-68630707D01*
X146567779Y-68800000D01*
X146551105Y-68969293D01*
X146501722Y-69132085D01*
X146421530Y-69282114D01*
X146313612Y-69413612D01*
X146182114Y-69521530D01*
X146032085Y-69601722D01*
X145869293Y-69651105D01*
X145742426Y-69663600D01*
X145657574Y-69663600D01*
X145530707Y-69651105D01*
X145367915Y-69601722D01*
X145217886Y-69521530D01*
X145086388Y-69413612D01*
X144978470Y-69282114D01*
X144898278Y-69132085D01*
X144848895Y-68969293D01*
X144832221Y-68800000D01*
X144848895Y-68630707D01*
X144898278Y-68467915D01*
X144978470Y-68317886D01*
X145086388Y-68186388D01*
X145217886Y-68078470D01*
X145367915Y-67998278D01*
X145530707Y-67948895D01*
X145657574Y-67936400D01*
X145742426Y-67936400D01*
X145869293Y-67948895D01*
X145869293Y-67948895D01*
G37*
G36*
X143329293Y-67948895D02*
X143492085Y-67998278D01*
X143642114Y-68078470D01*
X143773612Y-68186388D01*
X143881530Y-68317886D01*
X143961722Y-68467915D01*
X144011105Y-68630707D01*
X144027779Y-68800000D01*
X144011105Y-68969293D01*
X143961722Y-69132085D01*
X143881530Y-69282114D01*
X143773612Y-69413612D01*
X143642114Y-69521530D01*
X143492085Y-69601722D01*
X143329293Y-69651105D01*
X143202426Y-69663600D01*
X143117574Y-69663600D01*
X142990707Y-69651105D01*
X142827915Y-69601722D01*
X142677886Y-69521530D01*
X142546388Y-69413612D01*
X142438470Y-69282114D01*
X142358278Y-69132085D01*
X142308895Y-68969293D01*
X142292221Y-68800000D01*
X142308895Y-68630707D01*
X142358278Y-68467915D01*
X142438470Y-68317886D01*
X142546388Y-68186388D01*
X142677886Y-68078470D01*
X142827915Y-67998278D01*
X142990707Y-67948895D01*
X143117574Y-67936400D01*
X143202426Y-67936400D01*
X143329293Y-67948895D01*
X143329293Y-67948895D01*
G37*
G36*
X133129293Y-67948895D02*
X133292085Y-67998278D01*
X133442114Y-68078470D01*
X133573612Y-68186388D01*
X133681530Y-68317886D01*
X133761722Y-68467915D01*
X133811105Y-68630707D01*
X133827779Y-68800000D01*
X133811105Y-68969293D01*
X133761722Y-69132085D01*
X133681530Y-69282114D01*
X133573612Y-69413612D01*
X133442114Y-69521530D01*
X133292085Y-69601722D01*
X133129293Y-69651105D01*
X133002426Y-69663600D01*
X132917574Y-69663600D01*
X132790707Y-69651105D01*
X132627915Y-69601722D01*
X132477886Y-69521530D01*
X132346388Y-69413612D01*
X132238470Y-69282114D01*
X132158278Y-69132085D01*
X132108895Y-68969293D01*
X132092221Y-68800000D01*
X132108895Y-68630707D01*
X132158278Y-68467915D01*
X132238470Y-68317886D01*
X132346388Y-68186388D01*
X132477886Y-68078470D01*
X132627915Y-67998278D01*
X132790707Y-67948895D01*
X132917574Y-67936400D01*
X133002426Y-67936400D01*
X133129293Y-67948895D01*
X133129293Y-67948895D01*
G37*
G36*
X135669293Y-67948895D02*
X135832085Y-67998278D01*
X135982114Y-68078470D01*
X136113612Y-68186388D01*
X136221530Y-68317886D01*
X136301722Y-68467915D01*
X136351105Y-68630707D01*
X136367779Y-68800000D01*
X136351105Y-68969293D01*
X136301722Y-69132085D01*
X136221530Y-69282114D01*
X136113612Y-69413612D01*
X135982114Y-69521530D01*
X135832085Y-69601722D01*
X135669293Y-69651105D01*
X135542426Y-69663600D01*
X135457574Y-69663600D01*
X135330707Y-69651105D01*
X135167915Y-69601722D01*
X135017886Y-69521530D01*
X134886388Y-69413612D01*
X134778470Y-69282114D01*
X134698278Y-69132085D01*
X134648895Y-68969293D01*
X134632221Y-68800000D01*
X134648895Y-68630707D01*
X134698278Y-68467915D01*
X134778470Y-68317886D01*
X134886388Y-68186388D01*
X135017886Y-68078470D01*
X135167915Y-67998278D01*
X135330707Y-67948895D01*
X135457574Y-67936400D01*
X135542426Y-67936400D01*
X135669293Y-67948895D01*
X135669293Y-67948895D01*
G37*
G36*
X53500000Y-68660000D02*
X51700000Y-68660000D01*
X51700000Y-66860000D01*
X53500000Y-66860000D01*
X53500000Y-68660000D01*
X53500000Y-68660000D01*
G37*
G36*
X143329293Y-65408895D02*
X143492085Y-65458278D01*
X143642114Y-65538470D01*
X143773612Y-65646388D01*
X143881530Y-65777886D01*
X143961722Y-65927915D01*
X144011105Y-66090707D01*
X144027779Y-66260000D01*
X144011105Y-66429293D01*
X143961722Y-66592085D01*
X143881530Y-66742114D01*
X143773612Y-66873612D01*
X143642114Y-66981530D01*
X143492085Y-67061722D01*
X143329293Y-67111105D01*
X143202426Y-67123600D01*
X143117574Y-67123600D01*
X142990707Y-67111105D01*
X142827915Y-67061722D01*
X142677886Y-66981530D01*
X142546388Y-66873612D01*
X142438470Y-66742114D01*
X142358278Y-66592085D01*
X142308895Y-66429293D01*
X142292221Y-66260000D01*
X142308895Y-66090707D01*
X142358278Y-65927915D01*
X142438470Y-65777886D01*
X142546388Y-65646388D01*
X142677886Y-65538470D01*
X142827915Y-65458278D01*
X142990707Y-65408895D01*
X143117574Y-65396400D01*
X143202426Y-65396400D01*
X143329293Y-65408895D01*
X143329293Y-65408895D01*
G37*
G36*
X133129293Y-65408895D02*
X133292085Y-65458278D01*
X133442114Y-65538470D01*
X133573612Y-65646388D01*
X133681530Y-65777886D01*
X133761722Y-65927915D01*
X133811105Y-66090707D01*
X133827779Y-66260000D01*
X133811105Y-66429293D01*
X133761722Y-66592085D01*
X133681530Y-66742114D01*
X133573612Y-66873612D01*
X133442114Y-66981530D01*
X133292085Y-67061722D01*
X133129293Y-67111105D01*
X133002426Y-67123600D01*
X132917574Y-67123600D01*
X132790707Y-67111105D01*
X132627915Y-67061722D01*
X132477886Y-66981530D01*
X132346388Y-66873612D01*
X132238470Y-66742114D01*
X132158278Y-66592085D01*
X132108895Y-66429293D01*
X132092221Y-66260000D01*
X132108895Y-66090707D01*
X132158278Y-65927915D01*
X132238470Y-65777886D01*
X132346388Y-65646388D01*
X132477886Y-65538470D01*
X132627915Y-65458278D01*
X132790707Y-65408895D01*
X132917574Y-65396400D01*
X133002426Y-65396400D01*
X133129293Y-65408895D01*
X133129293Y-65408895D01*
G37*
G36*
X135669293Y-65408895D02*
X135832085Y-65458278D01*
X135982114Y-65538470D01*
X136113612Y-65646388D01*
X136221530Y-65777886D01*
X136301722Y-65927915D01*
X136351105Y-66090707D01*
X136367779Y-66260000D01*
X136351105Y-66429293D01*
X136301722Y-66592085D01*
X136221530Y-66742114D01*
X136113612Y-66873612D01*
X135982114Y-66981530D01*
X135832085Y-67061722D01*
X135669293Y-67111105D01*
X135542426Y-67123600D01*
X135457574Y-67123600D01*
X135330707Y-67111105D01*
X135167915Y-67061722D01*
X135017886Y-66981530D01*
X134886388Y-66873612D01*
X134778470Y-66742114D01*
X134698278Y-66592085D01*
X134648895Y-66429293D01*
X134632221Y-66260000D01*
X134648895Y-66090707D01*
X134698278Y-65927915D01*
X134778470Y-65777886D01*
X134886388Y-65646388D01*
X135017886Y-65538470D01*
X135167915Y-65458278D01*
X135330707Y-65408895D01*
X135457574Y-65396400D01*
X135542426Y-65396400D01*
X135669293Y-65408895D01*
X135669293Y-65408895D01*
G37*
G36*
X145869293Y-65408895D02*
X146032085Y-65458278D01*
X146182114Y-65538470D01*
X146313612Y-65646388D01*
X146421530Y-65777886D01*
X146501722Y-65927915D01*
X146551105Y-66090707D01*
X146567779Y-66260000D01*
X146551105Y-66429293D01*
X146501722Y-66592085D01*
X146421530Y-66742114D01*
X146313612Y-66873612D01*
X146182114Y-66981530D01*
X146032085Y-67061722D01*
X145869293Y-67111105D01*
X145742426Y-67123600D01*
X145657574Y-67123600D01*
X145530707Y-67111105D01*
X145367915Y-67061722D01*
X145217886Y-66981530D01*
X145086388Y-66873612D01*
X144978470Y-66742114D01*
X144898278Y-66592085D01*
X144848895Y-66429293D01*
X144832221Y-66260000D01*
X144848895Y-66090707D01*
X144898278Y-65927915D01*
X144978470Y-65777886D01*
X145086388Y-65646388D01*
X145217886Y-65538470D01*
X145367915Y-65458278D01*
X145530707Y-65408895D01*
X145657574Y-65396400D01*
X145742426Y-65396400D01*
X145869293Y-65408895D01*
X145869293Y-65408895D01*
G37*
G36*
X59150000Y-66000000D02*
X54650000Y-66000000D01*
X54650000Y-63000000D01*
X59150000Y-63000000D01*
X59150000Y-66000000D01*
X59150000Y-66000000D01*
G37*
G36*
X145869293Y-62868895D02*
X146032085Y-62918278D01*
X146182114Y-62998470D01*
X146313612Y-63106388D01*
X146421530Y-63237886D01*
X146501722Y-63387915D01*
X146551105Y-63550707D01*
X146567779Y-63720000D01*
X146551105Y-63889293D01*
X146501722Y-64052085D01*
X146421530Y-64202114D01*
X146313612Y-64333612D01*
X146182114Y-64441530D01*
X146032085Y-64521722D01*
X145869293Y-64571105D01*
X145742426Y-64583600D01*
X145657574Y-64583600D01*
X145530707Y-64571105D01*
X145367915Y-64521722D01*
X145217886Y-64441530D01*
X145086388Y-64333612D01*
X144978470Y-64202114D01*
X144898278Y-64052085D01*
X144848895Y-63889293D01*
X144832221Y-63720000D01*
X144848895Y-63550707D01*
X144898278Y-63387915D01*
X144978470Y-63237886D01*
X145086388Y-63106388D01*
X145217886Y-62998470D01*
X145367915Y-62918278D01*
X145530707Y-62868895D01*
X145657574Y-62856400D01*
X145742426Y-62856400D01*
X145869293Y-62868895D01*
X145869293Y-62868895D01*
G37*
G36*
X143329293Y-62868895D02*
X143492085Y-62918278D01*
X143642114Y-62998470D01*
X143773612Y-63106388D01*
X143881530Y-63237886D01*
X143961722Y-63387915D01*
X144011105Y-63550707D01*
X144027779Y-63720000D01*
X144011105Y-63889293D01*
X143961722Y-64052085D01*
X143881530Y-64202114D01*
X143773612Y-64333612D01*
X143642114Y-64441530D01*
X143492085Y-64521722D01*
X143329293Y-64571105D01*
X143202426Y-64583600D01*
X143117574Y-64583600D01*
X142990707Y-64571105D01*
X142827915Y-64521722D01*
X142677886Y-64441530D01*
X142546388Y-64333612D01*
X142438470Y-64202114D01*
X142358278Y-64052085D01*
X142308895Y-63889293D01*
X142292221Y-63720000D01*
X142308895Y-63550707D01*
X142358278Y-63387915D01*
X142438470Y-63237886D01*
X142546388Y-63106388D01*
X142677886Y-62998470D01*
X142827915Y-62918278D01*
X142990707Y-62868895D01*
X143117574Y-62856400D01*
X143202426Y-62856400D01*
X143329293Y-62868895D01*
X143329293Y-62868895D01*
G37*
G36*
X135669293Y-62868895D02*
X135832085Y-62918278D01*
X135982114Y-62998470D01*
X136113612Y-63106388D01*
X136221530Y-63237886D01*
X136301722Y-63387915D01*
X136351105Y-63550707D01*
X136367779Y-63720000D01*
X136351105Y-63889293D01*
X136301722Y-64052085D01*
X136221530Y-64202114D01*
X136113612Y-64333612D01*
X135982114Y-64441530D01*
X135832085Y-64521722D01*
X135669293Y-64571105D01*
X135542426Y-64583600D01*
X135457574Y-64583600D01*
X135330707Y-64571105D01*
X135167915Y-64521722D01*
X135017886Y-64441530D01*
X134886388Y-64333612D01*
X134778470Y-64202114D01*
X134698278Y-64052085D01*
X134648895Y-63889293D01*
X134632221Y-63720000D01*
X134648895Y-63550707D01*
X134698278Y-63387915D01*
X134778470Y-63237886D01*
X134886388Y-63106388D01*
X135017886Y-62998470D01*
X135167915Y-62918278D01*
X135330707Y-62868895D01*
X135457574Y-62856400D01*
X135542426Y-62856400D01*
X135669293Y-62868895D01*
X135669293Y-62868895D01*
G37*
G36*
X133129293Y-62868895D02*
X133292085Y-62918278D01*
X133442114Y-62998470D01*
X133573612Y-63106388D01*
X133681530Y-63237886D01*
X133761722Y-63387915D01*
X133811105Y-63550707D01*
X133827779Y-63720000D01*
X133811105Y-63889293D01*
X133761722Y-64052085D01*
X133681530Y-64202114D01*
X133573612Y-64333612D01*
X133442114Y-64441530D01*
X133292085Y-64521722D01*
X133129293Y-64571105D01*
X133002426Y-64583600D01*
X132917574Y-64583600D01*
X132790707Y-64571105D01*
X132627915Y-64521722D01*
X132477886Y-64441530D01*
X132346388Y-64333612D01*
X132238470Y-64202114D01*
X132158278Y-64052085D01*
X132108895Y-63889293D01*
X132092221Y-63720000D01*
X132108895Y-63550707D01*
X132158278Y-63387915D01*
X132238470Y-63237886D01*
X132346388Y-63106388D01*
X132477886Y-62998470D01*
X132627915Y-62918278D01*
X132790707Y-62868895D01*
X132917574Y-62856400D01*
X133002426Y-62856400D01*
X133129293Y-62868895D01*
X133129293Y-62868895D01*
G37*
G36*
X53700000Y-63500000D02*
X50700000Y-63500000D01*
X50700000Y-59500000D01*
X53700000Y-59500000D01*
X53700000Y-63500000D01*
X53700000Y-63500000D01*
G37*
G36*
X143329293Y-60328895D02*
X143492085Y-60378278D01*
X143642114Y-60458470D01*
X143773612Y-60566388D01*
X143881530Y-60697886D01*
X143961722Y-60847915D01*
X144011105Y-61010707D01*
X144027779Y-61180000D01*
X144011105Y-61349293D01*
X143961722Y-61512085D01*
X143881530Y-61662114D01*
X143773612Y-61793612D01*
X143642114Y-61901530D01*
X143492085Y-61981722D01*
X143329293Y-62031105D01*
X143202426Y-62043600D01*
X143117574Y-62043600D01*
X142990707Y-62031105D01*
X142827915Y-61981722D01*
X142677886Y-61901530D01*
X142546388Y-61793612D01*
X142438470Y-61662114D01*
X142358278Y-61512085D01*
X142308895Y-61349293D01*
X142292221Y-61180000D01*
X142308895Y-61010707D01*
X142358278Y-60847915D01*
X142438470Y-60697886D01*
X142546388Y-60566388D01*
X142677886Y-60458470D01*
X142827915Y-60378278D01*
X142990707Y-60328895D01*
X143117574Y-60316400D01*
X143202426Y-60316400D01*
X143329293Y-60328895D01*
X143329293Y-60328895D01*
G37*
G36*
X145869293Y-60328895D02*
X146032085Y-60378278D01*
X146182114Y-60458470D01*
X146313612Y-60566388D01*
X146421530Y-60697886D01*
X146501722Y-60847915D01*
X146551105Y-61010707D01*
X146567779Y-61180000D01*
X146551105Y-61349293D01*
X146501722Y-61512085D01*
X146421530Y-61662114D01*
X146313612Y-61793612D01*
X146182114Y-61901530D01*
X146032085Y-61981722D01*
X145869293Y-62031105D01*
X145742426Y-62043600D01*
X145657574Y-62043600D01*
X145530707Y-62031105D01*
X145367915Y-61981722D01*
X145217886Y-61901530D01*
X145086388Y-61793612D01*
X144978470Y-61662114D01*
X144898278Y-61512085D01*
X144848895Y-61349293D01*
X144832221Y-61180000D01*
X144848895Y-61010707D01*
X144898278Y-60847915D01*
X144978470Y-60697886D01*
X145086388Y-60566388D01*
X145217886Y-60458470D01*
X145367915Y-60378278D01*
X145530707Y-60328895D01*
X145657574Y-60316400D01*
X145742426Y-60316400D01*
X145869293Y-60328895D01*
X145869293Y-60328895D01*
G37*
G36*
X133129293Y-60328895D02*
X133292085Y-60378278D01*
X133442114Y-60458470D01*
X133573612Y-60566388D01*
X133681530Y-60697886D01*
X133761722Y-60847915D01*
X133811105Y-61010707D01*
X133827779Y-61180000D01*
X133811105Y-61349293D01*
X133761722Y-61512085D01*
X133681530Y-61662114D01*
X133573612Y-61793612D01*
X133442114Y-61901530D01*
X133292085Y-61981722D01*
X133129293Y-62031105D01*
X133002426Y-62043600D01*
X132917574Y-62043600D01*
X132790707Y-62031105D01*
X132627915Y-61981722D01*
X132477886Y-61901530D01*
X132346388Y-61793612D01*
X132238470Y-61662114D01*
X132158278Y-61512085D01*
X132108895Y-61349293D01*
X132092221Y-61180000D01*
X132108895Y-61010707D01*
X132158278Y-60847915D01*
X132238470Y-60697886D01*
X132346388Y-60566388D01*
X132477886Y-60458470D01*
X132627915Y-60378278D01*
X132790707Y-60328895D01*
X132917574Y-60316400D01*
X133002426Y-60316400D01*
X133129293Y-60328895D01*
X133129293Y-60328895D01*
G37*
G36*
X135669293Y-60328895D02*
X135832085Y-60378278D01*
X135982114Y-60458470D01*
X136113612Y-60566388D01*
X136221530Y-60697886D01*
X136301722Y-60847915D01*
X136351105Y-61010707D01*
X136367779Y-61180000D01*
X136351105Y-61349293D01*
X136301722Y-61512085D01*
X136221530Y-61662114D01*
X136113612Y-61793612D01*
X135982114Y-61901530D01*
X135832085Y-61981722D01*
X135669293Y-62031105D01*
X135542426Y-62043600D01*
X135457574Y-62043600D01*
X135330707Y-62031105D01*
X135167915Y-61981722D01*
X135017886Y-61901530D01*
X134886388Y-61793612D01*
X134778470Y-61662114D01*
X134698278Y-61512085D01*
X134648895Y-61349293D01*
X134632221Y-61180000D01*
X134648895Y-61010707D01*
X134698278Y-60847915D01*
X134778470Y-60697886D01*
X134886388Y-60566388D01*
X135017886Y-60458470D01*
X135167915Y-60378278D01*
X135330707Y-60328895D01*
X135457574Y-60316400D01*
X135542426Y-60316400D01*
X135669293Y-60328895D01*
X135669293Y-60328895D01*
G37*
G36*
X59150000Y-60000000D02*
X54650000Y-60000000D01*
X54650000Y-57000000D01*
X59150000Y-57000000D01*
X59150000Y-60000000D01*
X59150000Y-60000000D01*
G37*
G36*
X65350000Y-59850000D02*
X63650000Y-59850000D01*
X63650000Y-58150000D01*
X65350000Y-58150000D01*
X65350000Y-59850000D01*
X65350000Y-59850000D01*
G37*
G36*
X143329293Y-57788895D02*
X143492085Y-57838278D01*
X143642114Y-57918470D01*
X143773612Y-58026388D01*
X143881530Y-58157886D01*
X143961722Y-58307915D01*
X144011105Y-58470707D01*
X144027779Y-58640000D01*
X144011105Y-58809293D01*
X143961722Y-58972085D01*
X143881530Y-59122114D01*
X143773612Y-59253612D01*
X143642114Y-59361530D01*
X143492085Y-59441722D01*
X143329293Y-59491105D01*
X143202426Y-59503600D01*
X143117574Y-59503600D01*
X142990707Y-59491105D01*
X142827915Y-59441722D01*
X142677886Y-59361530D01*
X142546388Y-59253612D01*
X142438470Y-59122114D01*
X142358278Y-58972085D01*
X142308895Y-58809293D01*
X142292221Y-58640000D01*
X142308895Y-58470707D01*
X142358278Y-58307915D01*
X142438470Y-58157886D01*
X142546388Y-58026388D01*
X142677886Y-57918470D01*
X142827915Y-57838278D01*
X142990707Y-57788895D01*
X143117574Y-57776400D01*
X143202426Y-57776400D01*
X143329293Y-57788895D01*
X143329293Y-57788895D01*
G37*
G36*
X135669293Y-57788895D02*
X135832085Y-57838278D01*
X135982114Y-57918470D01*
X136113612Y-58026388D01*
X136221530Y-58157886D01*
X136301722Y-58307915D01*
X136351105Y-58470707D01*
X136367779Y-58640000D01*
X136351105Y-58809293D01*
X136301722Y-58972085D01*
X136221530Y-59122114D01*
X136113612Y-59253612D01*
X135982114Y-59361530D01*
X135832085Y-59441722D01*
X135669293Y-59491105D01*
X135542426Y-59503600D01*
X135457574Y-59503600D01*
X135330707Y-59491105D01*
X135167915Y-59441722D01*
X135017886Y-59361530D01*
X134886388Y-59253612D01*
X134778470Y-59122114D01*
X134698278Y-58972085D01*
X134648895Y-58809293D01*
X134632221Y-58640000D01*
X134648895Y-58470707D01*
X134698278Y-58307915D01*
X134778470Y-58157886D01*
X134886388Y-58026388D01*
X135017886Y-57918470D01*
X135167915Y-57838278D01*
X135330707Y-57788895D01*
X135457574Y-57776400D01*
X135542426Y-57776400D01*
X135669293Y-57788895D01*
X135669293Y-57788895D01*
G37*
G36*
X145869293Y-57788895D02*
X146032085Y-57838278D01*
X146182114Y-57918470D01*
X146313612Y-58026388D01*
X146421530Y-58157886D01*
X146501722Y-58307915D01*
X146551105Y-58470707D01*
X146567779Y-58640000D01*
X146551105Y-58809293D01*
X146501722Y-58972085D01*
X146421530Y-59122114D01*
X146313612Y-59253612D01*
X146182114Y-59361530D01*
X146032085Y-59441722D01*
X145869293Y-59491105D01*
X145742426Y-59503600D01*
X145657574Y-59503600D01*
X145530707Y-59491105D01*
X145367915Y-59441722D01*
X145217886Y-59361530D01*
X145086388Y-59253612D01*
X144978470Y-59122114D01*
X144898278Y-58972085D01*
X144848895Y-58809293D01*
X144832221Y-58640000D01*
X144848895Y-58470707D01*
X144898278Y-58307915D01*
X144978470Y-58157886D01*
X145086388Y-58026388D01*
X145217886Y-57918470D01*
X145367915Y-57838278D01*
X145530707Y-57788895D01*
X145657574Y-57776400D01*
X145742426Y-57776400D01*
X145869293Y-57788895D01*
X145869293Y-57788895D01*
G37*
G36*
X133129293Y-57788895D02*
X133292085Y-57838278D01*
X133442114Y-57918470D01*
X133573612Y-58026388D01*
X133681530Y-58157886D01*
X133761722Y-58307915D01*
X133811105Y-58470707D01*
X133827779Y-58640000D01*
X133811105Y-58809293D01*
X133761722Y-58972085D01*
X133681530Y-59122114D01*
X133573612Y-59253612D01*
X133442114Y-59361530D01*
X133292085Y-59441722D01*
X133129293Y-59491105D01*
X133002426Y-59503600D01*
X132917574Y-59503600D01*
X132790707Y-59491105D01*
X132627915Y-59441722D01*
X132477886Y-59361530D01*
X132346388Y-59253612D01*
X132238470Y-59122114D01*
X132158278Y-58972085D01*
X132108895Y-58809293D01*
X132092221Y-58640000D01*
X132108895Y-58470707D01*
X132158278Y-58307915D01*
X132238470Y-58157886D01*
X132346388Y-58026388D01*
X132477886Y-57918470D01*
X132627915Y-57838278D01*
X132790707Y-57788895D01*
X132917574Y-57776400D01*
X133002426Y-57776400D01*
X133129293Y-57788895D01*
X133129293Y-57788895D01*
G37*
G36*
X78550000Y-59400000D02*
X76250000Y-59400000D01*
X76250000Y-54800000D01*
X78550000Y-54800000D01*
X78550000Y-59400000D01*
X78550000Y-59400000D01*
G37*
G36*
X71550000Y-59400000D02*
X69250000Y-59400000D01*
X69250000Y-54800000D01*
X71550000Y-54800000D01*
X71550000Y-59400000D01*
X71550000Y-59400000D01*
G37*
G36*
X64666627Y-55622299D02*
X64757088Y-55649740D01*
X64826855Y-55670903D01*
X64880712Y-55699691D01*
X64974517Y-55749830D01*
X65103948Y-55856052D01*
X65210170Y-55985483D01*
X65238080Y-56037700D01*
X65289097Y-56133145D01*
X65289097Y-56133146D01*
X65337701Y-56293373D01*
X65354113Y-56460000D01*
X65337701Y-56626627D01*
X65337700Y-56626629D01*
X65289097Y-56786855D01*
X65270562Y-56821531D01*
X65210170Y-56934517D01*
X65103948Y-57063948D01*
X64974517Y-57170170D01*
X64880712Y-57220309D01*
X64826855Y-57249097D01*
X64757088Y-57270260D01*
X64666627Y-57297701D01*
X64541757Y-57310000D01*
X64458243Y-57310000D01*
X64333373Y-57297701D01*
X64242912Y-57270260D01*
X64173145Y-57249097D01*
X64119288Y-57220309D01*
X64025483Y-57170170D01*
X63896052Y-57063948D01*
X63789830Y-56934517D01*
X63729438Y-56821531D01*
X63710903Y-56786855D01*
X63662300Y-56626629D01*
X63662299Y-56626627D01*
X63645887Y-56460000D01*
X63662299Y-56293373D01*
X63710903Y-56133146D01*
X63710903Y-56133145D01*
X63761920Y-56037700D01*
X63789830Y-55985483D01*
X63896052Y-55856052D01*
X64025483Y-55749830D01*
X64119288Y-55699691D01*
X64173145Y-55670903D01*
X64242912Y-55649740D01*
X64333373Y-55622299D01*
X64458243Y-55610000D01*
X64541757Y-55610000D01*
X64666627Y-55622299D01*
X64666627Y-55622299D01*
G37*
G36*
X145869293Y-55248895D02*
X146032085Y-55298278D01*
X146182114Y-55378470D01*
X146313612Y-55486388D01*
X146421530Y-55617886D01*
X146501722Y-55767915D01*
X146551105Y-55930707D01*
X146567779Y-56100000D01*
X146551105Y-56269293D01*
X146501722Y-56432085D01*
X146421530Y-56582114D01*
X146313612Y-56713612D01*
X146182114Y-56821530D01*
X146032085Y-56901722D01*
X145869293Y-56951105D01*
X145742426Y-56963600D01*
X145657574Y-56963600D01*
X145530707Y-56951105D01*
X145367915Y-56901722D01*
X145217886Y-56821530D01*
X145086388Y-56713612D01*
X144978470Y-56582114D01*
X144898278Y-56432085D01*
X144848895Y-56269293D01*
X144832221Y-56100000D01*
X144848895Y-55930707D01*
X144898278Y-55767915D01*
X144978470Y-55617886D01*
X145086388Y-55486388D01*
X145217886Y-55378470D01*
X145367915Y-55298278D01*
X145530707Y-55248895D01*
X145657574Y-55236400D01*
X145742426Y-55236400D01*
X145869293Y-55248895D01*
X145869293Y-55248895D01*
G37*
G36*
X144023600Y-56963600D02*
X142296400Y-56963600D01*
X142296400Y-55236400D01*
X144023600Y-55236400D01*
X144023600Y-56963600D01*
X144023600Y-56963600D01*
G37*
G36*
X135669293Y-55248895D02*
X135832085Y-55298278D01*
X135982114Y-55378470D01*
X136113612Y-55486388D01*
X136221530Y-55617886D01*
X136301722Y-55767915D01*
X136351105Y-55930707D01*
X136367779Y-56100000D01*
X136351105Y-56269293D01*
X136301722Y-56432085D01*
X136221530Y-56582114D01*
X136113612Y-56713612D01*
X135982114Y-56821530D01*
X135832085Y-56901722D01*
X135669293Y-56951105D01*
X135542426Y-56963600D01*
X135457574Y-56963600D01*
X135330707Y-56951105D01*
X135167915Y-56901722D01*
X135017886Y-56821530D01*
X134886388Y-56713612D01*
X134778470Y-56582114D01*
X134698278Y-56432085D01*
X134648895Y-56269293D01*
X134632221Y-56100000D01*
X134648895Y-55930707D01*
X134698278Y-55767915D01*
X134778470Y-55617886D01*
X134886388Y-55486388D01*
X135017886Y-55378470D01*
X135167915Y-55298278D01*
X135330707Y-55248895D01*
X135457574Y-55236400D01*
X135542426Y-55236400D01*
X135669293Y-55248895D01*
X135669293Y-55248895D01*
G37*
G36*
X133823600Y-56963600D02*
X132096400Y-56963600D01*
X132096400Y-55236400D01*
X133823600Y-55236400D01*
X133823600Y-56963600D01*
X133823600Y-56963600D01*
G37*
G36*
X117866627Y-54362299D02*
X117957088Y-54389740D01*
X118026855Y-54410903D01*
X118080712Y-54439691D01*
X118174517Y-54489830D01*
X118303948Y-54596052D01*
X118410170Y-54725483D01*
X118450000Y-54800000D01*
X118489097Y-54873145D01*
X118489097Y-54873146D01*
X118537701Y-55033373D01*
X118554113Y-55200000D01*
X118537701Y-55366627D01*
X118534108Y-55378470D01*
X118489097Y-55526855D01*
X118460309Y-55580712D01*
X118410170Y-55674517D01*
X118303948Y-55803948D01*
X118174517Y-55910170D01*
X118080712Y-55960309D01*
X118026855Y-55989097D01*
X117957088Y-56010260D01*
X117866627Y-56037701D01*
X117741757Y-56050000D01*
X117658243Y-56050000D01*
X117533373Y-56037701D01*
X117442912Y-56010260D01*
X117373145Y-55989097D01*
X117319288Y-55960309D01*
X117225483Y-55910170D01*
X117096052Y-55803948D01*
X116989830Y-55674517D01*
X116939691Y-55580712D01*
X116910903Y-55526855D01*
X116865892Y-55378470D01*
X116862299Y-55366627D01*
X116845887Y-55200000D01*
X116862299Y-55033373D01*
X116910903Y-54873146D01*
X116910903Y-54873145D01*
X116950000Y-54800000D01*
X116989830Y-54725483D01*
X117096052Y-54596052D01*
X117225483Y-54489830D01*
X117319288Y-54439691D01*
X117373145Y-54410903D01*
X117442912Y-54389740D01*
X117533373Y-54362299D01*
X117658243Y-54350000D01*
X117741757Y-54350000D01*
X117866627Y-54362299D01*
X117866627Y-54362299D01*
G37*
G36*
X110930000Y-56050000D02*
X109230000Y-56050000D01*
X109230000Y-54350000D01*
X110930000Y-54350000D01*
X110930000Y-56050000D01*
X110930000Y-56050000D01*
G37*
G36*
X112786627Y-54362299D02*
X112877088Y-54389740D01*
X112946855Y-54410903D01*
X113000712Y-54439691D01*
X113094517Y-54489830D01*
X113223948Y-54596052D01*
X113330170Y-54725483D01*
X113370000Y-54800000D01*
X113409097Y-54873145D01*
X113409097Y-54873146D01*
X113457701Y-55033373D01*
X113474113Y-55200000D01*
X113457701Y-55366627D01*
X113454108Y-55378470D01*
X113409097Y-55526855D01*
X113380309Y-55580712D01*
X113330170Y-55674517D01*
X113223948Y-55803948D01*
X113094517Y-55910170D01*
X113000712Y-55960309D01*
X112946855Y-55989097D01*
X112877088Y-56010260D01*
X112786627Y-56037701D01*
X112661757Y-56050000D01*
X112578243Y-56050000D01*
X112453373Y-56037701D01*
X112362912Y-56010260D01*
X112293145Y-55989097D01*
X112239288Y-55960309D01*
X112145483Y-55910170D01*
X112016052Y-55803948D01*
X111909830Y-55674517D01*
X111859691Y-55580712D01*
X111830903Y-55526855D01*
X111785892Y-55378470D01*
X111782299Y-55366627D01*
X111765887Y-55200000D01*
X111782299Y-55033373D01*
X111830903Y-54873146D01*
X111830903Y-54873145D01*
X111870000Y-54800000D01*
X111909830Y-54725483D01*
X112016052Y-54596052D01*
X112145483Y-54489830D01*
X112239288Y-54439691D01*
X112293145Y-54410903D01*
X112362912Y-54389740D01*
X112453373Y-54362299D01*
X112578243Y-54350000D01*
X112661757Y-54350000D01*
X112786627Y-54362299D01*
X112786627Y-54362299D01*
G37*
G36*
X120406627Y-54362299D02*
X120497088Y-54389740D01*
X120566855Y-54410903D01*
X120620712Y-54439691D01*
X120714517Y-54489830D01*
X120843948Y-54596052D01*
X120950170Y-54725483D01*
X120990000Y-54800000D01*
X121029097Y-54873145D01*
X121029097Y-54873146D01*
X121077701Y-55033373D01*
X121094113Y-55200000D01*
X121077701Y-55366627D01*
X121074108Y-55378470D01*
X121029097Y-55526855D01*
X121000309Y-55580712D01*
X120950170Y-55674517D01*
X120843948Y-55803948D01*
X120714517Y-55910170D01*
X120620712Y-55960309D01*
X120566855Y-55989097D01*
X120497088Y-56010260D01*
X120406627Y-56037701D01*
X120281757Y-56050000D01*
X120198243Y-56050000D01*
X120073373Y-56037701D01*
X119982912Y-56010260D01*
X119913145Y-55989097D01*
X119859288Y-55960309D01*
X119765483Y-55910170D01*
X119636052Y-55803948D01*
X119529830Y-55674517D01*
X119479691Y-55580712D01*
X119450903Y-55526855D01*
X119405892Y-55378470D01*
X119402299Y-55366627D01*
X119385887Y-55200000D01*
X119402299Y-55033373D01*
X119450903Y-54873146D01*
X119450903Y-54873145D01*
X119490000Y-54800000D01*
X119529830Y-54725483D01*
X119636052Y-54596052D01*
X119765483Y-54489830D01*
X119859288Y-54439691D01*
X119913145Y-54410903D01*
X119982912Y-54389740D01*
X120073373Y-54362299D01*
X120198243Y-54350000D01*
X120281757Y-54350000D01*
X120406627Y-54362299D01*
X120406627Y-54362299D01*
G37*
G36*
X115326627Y-54362299D02*
X115417088Y-54389740D01*
X115486855Y-54410903D01*
X115540712Y-54439691D01*
X115634517Y-54489830D01*
X115763948Y-54596052D01*
X115870170Y-54725483D01*
X115910000Y-54800000D01*
X115949097Y-54873145D01*
X115949097Y-54873146D01*
X115997701Y-55033373D01*
X116014113Y-55200000D01*
X115997701Y-55366627D01*
X115994108Y-55378470D01*
X115949097Y-55526855D01*
X115920309Y-55580712D01*
X115870170Y-55674517D01*
X115763948Y-55803948D01*
X115634517Y-55910170D01*
X115540712Y-55960309D01*
X115486855Y-55989097D01*
X115417088Y-56010260D01*
X115326627Y-56037701D01*
X115201757Y-56050000D01*
X115118243Y-56050000D01*
X114993373Y-56037701D01*
X114902912Y-56010260D01*
X114833145Y-55989097D01*
X114779288Y-55960309D01*
X114685483Y-55910170D01*
X114556052Y-55803948D01*
X114449830Y-55674517D01*
X114399691Y-55580712D01*
X114370903Y-55526855D01*
X114325892Y-55378470D01*
X114322299Y-55366627D01*
X114305887Y-55200000D01*
X114322299Y-55033373D01*
X114370903Y-54873146D01*
X114370903Y-54873145D01*
X114410000Y-54800000D01*
X114449830Y-54725483D01*
X114556052Y-54596052D01*
X114685483Y-54489830D01*
X114779288Y-54439691D01*
X114833145Y-54410903D01*
X114902912Y-54389740D01*
X114993373Y-54362299D01*
X115118243Y-54350000D01*
X115201757Y-54350000D01*
X115326627Y-54362299D01*
X115326627Y-54362299D01*
G37*
G36*
X110246627Y-51822299D02*
X110337088Y-51849740D01*
X110406855Y-51870903D01*
X110460712Y-51899691D01*
X110554517Y-51949830D01*
X110683948Y-52056052D01*
X110790170Y-52185483D01*
X110817006Y-52235690D01*
X110869097Y-52333145D01*
X110869097Y-52333146D01*
X110917701Y-52493373D01*
X110934113Y-52660000D01*
X110917701Y-52826627D01*
X110890260Y-52917088D01*
X110869097Y-52986855D01*
X110840309Y-53040712D01*
X110790170Y-53134517D01*
X110683948Y-53263948D01*
X110554517Y-53370170D01*
X110460712Y-53420309D01*
X110406855Y-53449097D01*
X110337088Y-53470260D01*
X110246627Y-53497701D01*
X110121757Y-53510000D01*
X110038243Y-53510000D01*
X109913373Y-53497701D01*
X109822912Y-53470260D01*
X109753145Y-53449097D01*
X109699288Y-53420309D01*
X109605483Y-53370170D01*
X109476052Y-53263948D01*
X109369830Y-53134517D01*
X109319691Y-53040712D01*
X109290903Y-52986855D01*
X109269740Y-52917088D01*
X109242299Y-52826627D01*
X109225887Y-52660000D01*
X109242299Y-52493373D01*
X109290903Y-52333146D01*
X109290903Y-52333145D01*
X109342994Y-52235690D01*
X109369830Y-52185483D01*
X109476052Y-52056052D01*
X109605483Y-51949830D01*
X109699288Y-51899691D01*
X109753145Y-51870903D01*
X109822912Y-51849740D01*
X109913373Y-51822299D01*
X110038243Y-51810000D01*
X110121757Y-51810000D01*
X110246627Y-51822299D01*
X110246627Y-51822299D01*
G37*
G36*
X120406627Y-51822299D02*
X120497088Y-51849740D01*
X120566855Y-51870903D01*
X120620712Y-51899691D01*
X120714517Y-51949830D01*
X120843948Y-52056052D01*
X120950170Y-52185483D01*
X120977006Y-52235690D01*
X121029097Y-52333145D01*
X121029097Y-52333146D01*
X121077701Y-52493373D01*
X121094113Y-52660000D01*
X121077701Y-52826627D01*
X121050260Y-52917088D01*
X121029097Y-52986855D01*
X121000309Y-53040712D01*
X120950170Y-53134517D01*
X120843948Y-53263948D01*
X120714517Y-53370170D01*
X120620712Y-53420309D01*
X120566855Y-53449097D01*
X120497088Y-53470260D01*
X120406627Y-53497701D01*
X120281757Y-53510000D01*
X120198243Y-53510000D01*
X120073373Y-53497701D01*
X119982912Y-53470260D01*
X119913145Y-53449097D01*
X119859288Y-53420309D01*
X119765483Y-53370170D01*
X119636052Y-53263948D01*
X119529830Y-53134517D01*
X119479691Y-53040712D01*
X119450903Y-52986855D01*
X119429740Y-52917088D01*
X119402299Y-52826627D01*
X119385887Y-52660000D01*
X119402299Y-52493373D01*
X119450903Y-52333146D01*
X119450903Y-52333145D01*
X119502994Y-52235690D01*
X119529830Y-52185483D01*
X119636052Y-52056052D01*
X119765483Y-51949830D01*
X119859288Y-51899691D01*
X119913145Y-51870903D01*
X119982912Y-51849740D01*
X120073373Y-51822299D01*
X120198243Y-51810000D01*
X120281757Y-51810000D01*
X120406627Y-51822299D01*
X120406627Y-51822299D01*
G37*
G36*
X112786627Y-51822299D02*
X112877088Y-51849740D01*
X112946855Y-51870903D01*
X113000712Y-51899691D01*
X113094517Y-51949830D01*
X113223948Y-52056052D01*
X113330170Y-52185483D01*
X113357006Y-52235690D01*
X113409097Y-52333145D01*
X113409097Y-52333146D01*
X113457701Y-52493373D01*
X113474113Y-52660000D01*
X113457701Y-52826627D01*
X113430260Y-52917088D01*
X113409097Y-52986855D01*
X113380309Y-53040712D01*
X113330170Y-53134517D01*
X113223948Y-53263948D01*
X113094517Y-53370170D01*
X113000712Y-53420309D01*
X112946855Y-53449097D01*
X112877088Y-53470260D01*
X112786627Y-53497701D01*
X112661757Y-53510000D01*
X112578243Y-53510000D01*
X112453373Y-53497701D01*
X112362912Y-53470260D01*
X112293145Y-53449097D01*
X112239288Y-53420309D01*
X112145483Y-53370170D01*
X112016052Y-53263948D01*
X111909830Y-53134517D01*
X111859691Y-53040712D01*
X111830903Y-52986855D01*
X111809740Y-52917088D01*
X111782299Y-52826627D01*
X111765887Y-52660000D01*
X111782299Y-52493373D01*
X111830903Y-52333146D01*
X111830903Y-52333145D01*
X111882994Y-52235690D01*
X111909830Y-52185483D01*
X112016052Y-52056052D01*
X112145483Y-51949830D01*
X112239288Y-51899691D01*
X112293145Y-51870903D01*
X112362912Y-51849740D01*
X112453373Y-51822299D01*
X112578243Y-51810000D01*
X112661757Y-51810000D01*
X112786627Y-51822299D01*
X112786627Y-51822299D01*
G37*
G36*
X117866627Y-51822299D02*
X117957088Y-51849740D01*
X118026855Y-51870903D01*
X118080712Y-51899691D01*
X118174517Y-51949830D01*
X118303948Y-52056052D01*
X118410170Y-52185483D01*
X118437006Y-52235690D01*
X118489097Y-52333145D01*
X118489097Y-52333146D01*
X118537701Y-52493373D01*
X118554113Y-52660000D01*
X118537701Y-52826627D01*
X118510260Y-52917088D01*
X118489097Y-52986855D01*
X118460309Y-53040712D01*
X118410170Y-53134517D01*
X118303948Y-53263948D01*
X118174517Y-53370170D01*
X118080712Y-53420309D01*
X118026855Y-53449097D01*
X117957088Y-53470260D01*
X117866627Y-53497701D01*
X117741757Y-53510000D01*
X117658243Y-53510000D01*
X117533373Y-53497701D01*
X117442912Y-53470260D01*
X117373145Y-53449097D01*
X117319288Y-53420309D01*
X117225483Y-53370170D01*
X117096052Y-53263948D01*
X116989830Y-53134517D01*
X116939691Y-53040712D01*
X116910903Y-52986855D01*
X116889740Y-52917088D01*
X116862299Y-52826627D01*
X116845887Y-52660000D01*
X116862299Y-52493373D01*
X116910903Y-52333146D01*
X116910903Y-52333145D01*
X116962994Y-52235690D01*
X116989830Y-52185483D01*
X117096052Y-52056052D01*
X117225483Y-51949830D01*
X117319288Y-51899691D01*
X117373145Y-51870903D01*
X117442912Y-51849740D01*
X117533373Y-51822299D01*
X117658243Y-51810000D01*
X117741757Y-51810000D01*
X117866627Y-51822299D01*
X117866627Y-51822299D01*
G37*
G36*
X115326627Y-51822299D02*
X115417088Y-51849740D01*
X115486855Y-51870903D01*
X115540712Y-51899691D01*
X115634517Y-51949830D01*
X115763948Y-52056052D01*
X115870170Y-52185483D01*
X115897006Y-52235690D01*
X115949097Y-52333145D01*
X115949097Y-52333146D01*
X115997701Y-52493373D01*
X116014113Y-52660000D01*
X115997701Y-52826627D01*
X115970260Y-52917088D01*
X115949097Y-52986855D01*
X115920309Y-53040712D01*
X115870170Y-53134517D01*
X115763948Y-53263948D01*
X115634517Y-53370170D01*
X115540712Y-53420309D01*
X115486855Y-53449097D01*
X115417088Y-53470260D01*
X115326627Y-53497701D01*
X115201757Y-53510000D01*
X115118243Y-53510000D01*
X114993373Y-53497701D01*
X114902912Y-53470260D01*
X114833145Y-53449097D01*
X114779288Y-53420309D01*
X114685483Y-53370170D01*
X114556052Y-53263948D01*
X114449830Y-53134517D01*
X114399691Y-53040712D01*
X114370903Y-52986855D01*
X114349740Y-52917088D01*
X114322299Y-52826627D01*
X114305887Y-52660000D01*
X114322299Y-52493373D01*
X114370903Y-52333146D01*
X114370903Y-52333145D01*
X114422994Y-52235690D01*
X114449830Y-52185483D01*
X114556052Y-52056052D01*
X114685483Y-51949830D01*
X114779288Y-51899691D01*
X114833145Y-51870903D01*
X114902912Y-51849740D01*
X114993373Y-51822299D01*
X115118243Y-51810000D01*
X115201757Y-51810000D01*
X115326627Y-51822299D01*
X115326627Y-51822299D01*
G37*
G36*
X64629896Y-52043142D02*
X64666701Y-52050463D01*
X64684545Y-52057855D01*
X64770707Y-52093543D01*
X64864310Y-52156087D01*
X64943913Y-52235690D01*
X65006457Y-52329293D01*
X65049537Y-52433300D01*
X65071500Y-52543712D01*
X65071500Y-52656288D01*
X65049537Y-52766700D01*
X65006457Y-52870707D01*
X64943913Y-52964310D01*
X64864310Y-53043913D01*
X64770707Y-53106457D01*
X64684545Y-53142145D01*
X64666701Y-53149537D01*
X64629896Y-53156858D01*
X64556288Y-53171500D01*
X64443712Y-53171500D01*
X64370104Y-53156858D01*
X64333299Y-53149537D01*
X64315455Y-53142145D01*
X64229293Y-53106457D01*
X64135690Y-53043913D01*
X64056087Y-52964310D01*
X63993543Y-52870707D01*
X63950463Y-52766700D01*
X63928500Y-52656288D01*
X63928500Y-52543712D01*
X63950463Y-52433300D01*
X63993543Y-52329293D01*
X64056087Y-52235690D01*
X64135690Y-52156087D01*
X64229293Y-52093543D01*
X64315455Y-52057855D01*
X64333299Y-52050463D01*
X64370104Y-52043142D01*
X64443712Y-52028500D01*
X64556288Y-52028500D01*
X64629896Y-52043142D01*
X64629896Y-52043142D01*
G37*
M02*
