G04 #@! TF.FileFunction,Copper,L1,Top,Signal*
%FSLAX46Y46*%
G04 Gerber Fmt 4.6, Leading zero omitted, Abs format (unit mm)*
G04 Created by KiCad (PCBNEW 4.0.7-e1-6374~58~ubuntu17.04.1) date Tue Aug  1 22:36:46 2017*
%MOMM*%
%LPD*%
G01*
G04 APERTURE LIST*
%ADD10C,0.100000*%
%ADD11C,0.150000*%
%ADD12R,0.600000X2.200000*%
%ADD13C,3.000000*%
%ADD14R,2.200000X0.600000*%
%ADD15R,0.500000X2.000000*%
%ADD16R,2.000000X0.500000*%
%ADD17C,1.143000*%
%ADD18R,1.727200X1.727200*%
%ADD19O,1.727200X1.727200*%
%ADD20R,1.000000X1.600000*%
%ADD21R,0.750000X0.800000*%
%ADD22R,0.800000X0.750000*%
%ADD23R,1.600000X1.000000*%
%ADD24R,1.250000X1.000000*%
%ADD25R,1.800000X1.800000*%
%ADD26C,1.800000*%
%ADD27R,0.800000X0.800000*%
%ADD28R,1.140000X2.030000*%
%ADD29R,3.000000X4.000000*%
%ADD30R,4.500000X3.000000*%
%ADD31R,1.700000X1.700000*%
%ADD32O,1.700000X1.700000*%
%ADD33R,1.000000X2.500000*%
%ADD34R,2.500000X4.000000*%
%ADD35R,0.500000X0.900000*%
%ADD36C,1.600000*%
%ADD37O,1.600000X1.600000*%
%ADD38R,0.900000X0.500000*%
%ADD39R,0.300000X1.500000*%
%ADD40R,1.500000X0.300000*%
%ADD41R,1.500000X1.000000*%
%ADD42R,1.800000X1.000000*%
%ADD43R,1.840000X2.200000*%
%ADD44R,0.900000X1.000000*%
%ADD45R,2.300000X4.600000*%
%ADD46C,1.000000*%
%ADD47C,0.600000*%
%ADD48C,0.800000*%
%ADD49C,0.210000*%
%ADD50C,1.200000*%
%ADD51C,0.400000*%
%ADD52C,1.600000*%
%ADD53C,0.203200*%
G04 APERTURE END LIST*
D10*
D11*
X77000000Y-139000000D02*
X77000000Y-150000000D01*
X123000000Y-139000000D02*
X77000000Y-139000000D01*
X123000000Y-150000000D02*
X123000000Y-139000000D01*
X123000000Y-150000000D02*
X150000000Y-150000000D01*
X50000000Y-150000000D02*
X77000000Y-150000000D01*
X150000000Y-50000000D02*
X150000000Y-150000000D01*
X50000000Y-50000000D02*
X50000000Y-150000000D01*
X50000000Y-50000000D02*
X150000000Y-50000000D01*
D12*
X131745000Y-100500000D03*
X131745000Y-111500000D03*
X133015000Y-100500000D03*
X133015000Y-111500000D03*
X134285000Y-100500000D03*
X134285000Y-111500000D03*
X135555000Y-100500000D03*
X135555000Y-111500000D03*
X136825000Y-100500000D03*
X136825000Y-111500000D03*
X138095000Y-100500000D03*
X138095000Y-111500000D03*
X139365000Y-100500000D03*
X139365000Y-111500000D03*
X140635000Y-100500000D03*
X140635000Y-111500000D03*
X141905000Y-100500000D03*
X141905000Y-111500000D03*
X143175000Y-100500000D03*
X143175000Y-111500000D03*
X144445000Y-100500000D03*
X144445000Y-111500000D03*
X145715000Y-100500000D03*
X145715000Y-111500000D03*
X146985000Y-100500000D03*
X146985000Y-111500000D03*
X148255000Y-100500000D03*
X148255000Y-111500000D03*
D13*
X58100000Y-97200000D03*
X53020000Y-97200000D03*
D14*
X75700000Y-104760000D03*
X64700000Y-104760000D03*
X75700000Y-106030000D03*
X64700000Y-106030000D03*
X75700000Y-107300000D03*
X64700000Y-107300000D03*
X75700000Y-108570000D03*
X64700000Y-108570000D03*
X75700000Y-109840000D03*
X64700000Y-109840000D03*
X75700000Y-111110000D03*
X64700000Y-111110000D03*
X75700000Y-112380000D03*
X64700000Y-112380000D03*
X75700000Y-113650000D03*
X64700000Y-113650000D03*
X75700000Y-114920000D03*
X64700000Y-114920000D03*
X75700000Y-116190000D03*
X64700000Y-116190000D03*
X75700000Y-117460000D03*
X64700000Y-117460000D03*
X75700000Y-118730000D03*
X64700000Y-118730000D03*
X75700000Y-120000000D03*
X64700000Y-120000000D03*
X75700000Y-121270000D03*
X64700000Y-121270000D03*
D15*
X108400000Y-99500000D03*
D16*
X111200000Y-102000000D03*
X93600000Y-102000000D03*
X93600000Y-102800000D03*
X93600000Y-103600000D03*
X93600000Y-104400000D03*
X93600000Y-105200000D03*
X93600000Y-106000000D03*
X93600000Y-106800000D03*
X93600000Y-107600000D03*
X93600000Y-108400000D03*
X93600000Y-109200000D03*
X93600000Y-110000000D03*
X93600000Y-110800000D03*
X93600000Y-111600000D03*
X93600000Y-112400000D03*
X93600000Y-113200000D03*
X93600000Y-114000000D03*
X93600000Y-114800000D03*
X93600000Y-115600000D03*
X93600000Y-116400000D03*
X93600000Y-117200000D03*
X93600000Y-118000000D03*
X93600000Y-118800000D03*
X93600000Y-119600000D03*
X93600000Y-120400000D03*
D15*
X96400000Y-122900000D03*
X97200000Y-122900000D03*
X98000000Y-122900000D03*
X98800000Y-122900000D03*
X99600000Y-122900000D03*
X100400000Y-122900000D03*
X101200000Y-122900000D03*
X102000000Y-122900000D03*
X102800000Y-122900000D03*
X103600000Y-122900000D03*
X104400000Y-122900000D03*
X105200000Y-122900000D03*
X106000000Y-122900000D03*
X106800000Y-122900000D03*
X107600000Y-122900000D03*
X108400000Y-122900000D03*
D16*
X111200000Y-102800000D03*
X111200000Y-103600000D03*
X111200000Y-104400000D03*
X111200000Y-105200000D03*
X111200000Y-106000000D03*
X111200000Y-106800000D03*
X111200000Y-107600000D03*
X111200000Y-108400000D03*
X111200000Y-109200000D03*
X111200000Y-110000000D03*
X111200000Y-110800000D03*
X111200000Y-111600000D03*
X111200000Y-112400000D03*
X111200000Y-113200000D03*
X111200000Y-114000000D03*
X111200000Y-114800000D03*
X111200000Y-115600000D03*
X111200000Y-116400000D03*
X111200000Y-117200000D03*
X111200000Y-118000000D03*
X111200000Y-118800000D03*
X111200000Y-119600000D03*
X111200000Y-120400000D03*
D15*
X107600000Y-99500000D03*
X106800000Y-99500000D03*
X106000000Y-99500000D03*
X105200000Y-99500000D03*
X104400000Y-99500000D03*
X103600000Y-99500000D03*
X102800000Y-99500000D03*
X102000000Y-99500000D03*
X101200000Y-99500000D03*
X100400000Y-99500000D03*
X99600000Y-99500000D03*
X98800000Y-99500000D03*
X98000000Y-99500000D03*
X97200000Y-99500000D03*
X96400000Y-99500000D03*
D17*
X101900000Y-94200000D03*
X52700000Y-92200000D03*
D18*
X132960000Y-56100000D03*
D19*
X135500000Y-56100000D03*
X132960000Y-58640000D03*
X135500000Y-58640000D03*
X132960000Y-61180000D03*
X135500000Y-61180000D03*
X132960000Y-63720000D03*
X135500000Y-63720000D03*
X132960000Y-66260000D03*
X135500000Y-66260000D03*
X132960000Y-68800000D03*
X135500000Y-68800000D03*
X132960000Y-71340000D03*
X135500000Y-71340000D03*
X132960000Y-73880000D03*
X135500000Y-73880000D03*
D20*
X87200000Y-91500000D03*
X90200000Y-91500000D03*
D21*
X77600000Y-81950000D03*
X77600000Y-83450000D03*
D22*
X87950000Y-88700000D03*
X89450000Y-88700000D03*
D21*
X97200000Y-80850000D03*
X97200000Y-82350000D03*
D20*
X81700000Y-66300000D03*
X78700000Y-66300000D03*
D22*
X80950000Y-69100000D03*
X79450000Y-69100000D03*
D21*
X77600000Y-80150000D03*
X77600000Y-78650000D03*
D22*
X93650000Y-88700000D03*
X95150000Y-88700000D03*
D21*
X97200000Y-77400000D03*
X97200000Y-78900000D03*
D20*
X65600000Y-74700000D03*
X68600000Y-74700000D03*
X65600000Y-82700000D03*
X68600000Y-82700000D03*
X65600000Y-90700000D03*
X68600000Y-90700000D03*
D22*
X88050000Y-69100000D03*
X89550000Y-69100000D03*
D21*
X77600000Y-76950000D03*
X77600000Y-75450000D03*
D23*
X57600000Y-76200000D03*
X57600000Y-73200000D03*
X57600000Y-84200000D03*
X57600000Y-81200000D03*
X57600000Y-92200000D03*
X57600000Y-89200000D03*
D21*
X97200000Y-75850000D03*
X97200000Y-74350000D03*
D22*
X114450000Y-88700000D03*
X112950000Y-88700000D03*
D21*
X125000000Y-80850000D03*
X125000000Y-82350000D03*
X105400000Y-81950000D03*
X105400000Y-83450000D03*
D22*
X121650000Y-88500000D03*
X123150000Y-88500000D03*
D21*
X125000000Y-77650000D03*
X125000000Y-79150000D03*
D22*
X108750000Y-69100000D03*
X107250000Y-69100000D03*
D21*
X105400000Y-80450000D03*
X105400000Y-78950000D03*
D20*
X109400000Y-66300000D03*
X106400000Y-66300000D03*
D21*
X125000000Y-75850000D03*
X125000000Y-74350000D03*
D22*
X115950000Y-69100000D03*
X117450000Y-69100000D03*
D21*
X105400000Y-76850000D03*
X105400000Y-75350000D03*
D20*
X115200000Y-66300000D03*
X118200000Y-66300000D03*
D22*
X102250000Y-73600000D03*
X100750000Y-73600000D03*
X131750000Y-98200000D03*
X130250000Y-98200000D03*
X131750000Y-96600000D03*
X130250000Y-96600000D03*
X75750000Y-101300000D03*
X74250000Y-101300000D03*
D21*
X113500000Y-106850000D03*
X113500000Y-108350000D03*
D22*
X75750000Y-102800000D03*
X74250000Y-102800000D03*
D21*
X115900000Y-106850000D03*
X115900000Y-108350000D03*
D24*
X118600000Y-106600000D03*
X118600000Y-108600000D03*
D25*
X52600000Y-67760000D03*
D26*
X52600000Y-70300000D03*
D27*
X135500000Y-146100000D03*
X135500000Y-144500000D03*
X137100000Y-146100000D03*
X137100000Y-144500000D03*
X133900000Y-146100000D03*
X133900000Y-144500000D03*
X64500000Y-146100000D03*
X64500000Y-144500000D03*
X66100000Y-146100000D03*
X66100000Y-144500000D03*
X62900000Y-146100000D03*
X62900000Y-144500000D03*
D28*
X66400000Y-66800000D03*
X64000000Y-66800000D03*
D29*
X52300000Y-61500000D03*
D30*
X57000000Y-58500000D03*
X57000000Y-64500000D03*
D18*
X143160000Y-56100000D03*
D19*
X145700000Y-56100000D03*
X143160000Y-58640000D03*
X145700000Y-58640000D03*
X143160000Y-61180000D03*
X145700000Y-61180000D03*
X143160000Y-63720000D03*
X145700000Y-63720000D03*
X143160000Y-66260000D03*
X145700000Y-66260000D03*
X143160000Y-68800000D03*
X145700000Y-68800000D03*
X143160000Y-71340000D03*
X145700000Y-71340000D03*
X143160000Y-73880000D03*
X145700000Y-73880000D03*
D31*
X142300000Y-117500000D03*
D32*
X144840000Y-117500000D03*
X142300000Y-120040000D03*
X144840000Y-120040000D03*
X142300000Y-122580000D03*
X144840000Y-122580000D03*
X142300000Y-125120000D03*
X144840000Y-125120000D03*
X142300000Y-127660000D03*
X144840000Y-127660000D03*
X142300000Y-130200000D03*
X144840000Y-130200000D03*
X142300000Y-132740000D03*
X144840000Y-132740000D03*
X142300000Y-135280000D03*
X144840000Y-135280000D03*
X142300000Y-137820000D03*
X144840000Y-137820000D03*
X142300000Y-140360000D03*
X144840000Y-140360000D03*
X142300000Y-142900000D03*
X144840000Y-142900000D03*
X142300000Y-145440000D03*
X144840000Y-145440000D03*
X142300000Y-147980000D03*
X144840000Y-147980000D03*
D31*
X125800000Y-113060000D03*
D32*
X125800000Y-110520000D03*
X125800000Y-107980000D03*
X125800000Y-105440000D03*
X125800000Y-102900000D03*
X125800000Y-100360000D03*
X125800000Y-97820000D03*
X125800000Y-95280000D03*
D31*
X135180000Y-82900000D03*
D32*
X137720000Y-82900000D03*
X140260000Y-82900000D03*
X142800000Y-82900000D03*
X145340000Y-82900000D03*
X147880000Y-82900000D03*
D31*
X54600000Y-109880000D03*
D32*
X57140000Y-109880000D03*
X54600000Y-112420000D03*
X57140000Y-112420000D03*
X54600000Y-114960000D03*
X57140000Y-114960000D03*
X54600000Y-117500000D03*
X57140000Y-117500000D03*
X54600000Y-120040000D03*
X57140000Y-120040000D03*
X54600000Y-122580000D03*
X57140000Y-122580000D03*
X54600000Y-125120000D03*
X57140000Y-125120000D03*
X54600000Y-127660000D03*
X57140000Y-127660000D03*
X54600000Y-130200000D03*
X57140000Y-130200000D03*
X54600000Y-132740000D03*
X57140000Y-132740000D03*
X54600000Y-135280000D03*
X57140000Y-135280000D03*
X54600000Y-137820000D03*
X57140000Y-137820000D03*
X54600000Y-140360000D03*
X57140000Y-140360000D03*
X54600000Y-142900000D03*
X57140000Y-142900000D03*
X54600000Y-145440000D03*
X57140000Y-145440000D03*
X54600000Y-147980000D03*
X57140000Y-147980000D03*
D31*
X121900000Y-95280000D03*
D32*
X121900000Y-97820000D03*
X121900000Y-100360000D03*
X121900000Y-102900000D03*
X121900000Y-105440000D03*
X121900000Y-107980000D03*
D33*
X123250000Y-135300000D03*
X102250000Y-135300000D03*
X121750000Y-135300000D03*
X120250000Y-135300000D03*
X118750000Y-135300000D03*
X117250000Y-135300000D03*
X115750000Y-135300000D03*
X114250000Y-135300000D03*
X112750000Y-135300000D03*
X111250000Y-135300000D03*
X109750000Y-135300000D03*
X108250000Y-135300000D03*
X106750000Y-135300000D03*
X105250000Y-135300000D03*
X103750000Y-135300000D03*
X100750000Y-135300000D03*
X99250000Y-135300000D03*
X97750000Y-135300000D03*
X96250000Y-135300000D03*
X94750000Y-135300000D03*
X93250000Y-135300000D03*
X91750000Y-135300000D03*
X90250000Y-135300000D03*
X88750000Y-135300000D03*
X87250000Y-135300000D03*
X85750000Y-135300000D03*
X84250000Y-135300000D03*
X82750000Y-135300000D03*
X81250000Y-135300000D03*
X79750000Y-135300000D03*
X78250000Y-135300000D03*
X76750000Y-135300000D03*
D34*
X130200000Y-146550000D03*
X69800000Y-146550000D03*
D31*
X75380000Y-96900000D03*
D32*
X72840000Y-96900000D03*
X70300000Y-96900000D03*
X67760000Y-96900000D03*
X65220000Y-96900000D03*
D31*
X64500000Y-59000000D03*
D32*
X64500000Y-56460000D03*
D35*
X104850000Y-93900000D03*
X106350000Y-93900000D03*
D36*
X56000000Y-70300000D03*
D37*
X63620000Y-70300000D03*
D38*
X127600000Y-55050000D03*
X127600000Y-53550000D03*
X103700000Y-52800000D03*
X103700000Y-54300000D03*
X107300000Y-53700000D03*
X107300000Y-55200000D03*
X105500000Y-52800000D03*
X105500000Y-54300000D03*
X135500000Y-147350000D03*
X135500000Y-148850000D03*
X137100000Y-147350000D03*
X137100000Y-148850000D03*
X133900000Y-147350000D03*
X133900000Y-148850000D03*
X64500000Y-148850000D03*
X64500000Y-147350000D03*
X66100000Y-148850000D03*
X66100000Y-147350000D03*
X62900000Y-148850000D03*
X62900000Y-147350000D03*
D17*
X64500000Y-52600000D03*
X52700000Y-76200000D03*
X52700000Y-84200000D03*
X103900000Y-92000000D03*
X100100000Y-92000000D03*
X98300000Y-94200000D03*
D39*
X93400000Y-71200000D03*
X92900000Y-71200000D03*
X92400000Y-71200000D03*
X91900000Y-71200000D03*
X91400000Y-71200000D03*
X90900000Y-71200000D03*
X90400000Y-71200000D03*
X89900000Y-71200000D03*
X89400000Y-71200000D03*
X88900000Y-71200000D03*
X88400000Y-71200000D03*
X87900000Y-71200000D03*
X87400000Y-71200000D03*
X86900000Y-71200000D03*
X86400000Y-71200000D03*
X85900000Y-71200000D03*
X85400000Y-71200000D03*
X84900000Y-71200000D03*
X84400000Y-71200000D03*
X83900000Y-71200000D03*
X83400000Y-71200000D03*
X82900000Y-71200000D03*
X82400000Y-71200000D03*
X81900000Y-71200000D03*
X81400000Y-71200000D03*
D40*
X79700000Y-72900000D03*
X79700000Y-73400000D03*
X79700000Y-73900000D03*
X79700000Y-74400000D03*
X79700000Y-74900000D03*
X79700000Y-75400000D03*
X79700000Y-75900000D03*
X79700000Y-76400000D03*
X79700000Y-76900000D03*
X79700000Y-77400000D03*
X79700000Y-77900000D03*
X79700000Y-78400000D03*
X79700000Y-78900000D03*
X79700000Y-79400000D03*
X79700000Y-79900000D03*
X79700000Y-80400000D03*
X79700000Y-80900000D03*
X79700000Y-81400000D03*
X79700000Y-81900000D03*
X79700000Y-82400000D03*
X79700000Y-82900000D03*
X79700000Y-83400000D03*
X79700000Y-83900000D03*
X79700000Y-84400000D03*
X79700000Y-84900000D03*
D39*
X81400000Y-86600000D03*
X81900000Y-86600000D03*
X82400000Y-86600000D03*
X82900000Y-86600000D03*
X83400000Y-86600000D03*
X83900000Y-86600000D03*
X84400000Y-86600000D03*
X84900000Y-86600000D03*
X85400000Y-86600000D03*
X85900000Y-86600000D03*
X86400000Y-86600000D03*
X86900000Y-86600000D03*
X87400000Y-86600000D03*
X87900000Y-86600000D03*
X88400000Y-86600000D03*
X88900000Y-86600000D03*
X89400000Y-86600000D03*
X89900000Y-86600000D03*
X90400000Y-86600000D03*
X90900000Y-86600000D03*
X91400000Y-86600000D03*
X91900000Y-86600000D03*
X92400000Y-86600000D03*
X92900000Y-86600000D03*
X93400000Y-86600000D03*
D40*
X95100000Y-84900000D03*
X95100000Y-84400000D03*
X95100000Y-83900000D03*
X95100000Y-83400000D03*
X95100000Y-82900000D03*
X95100000Y-82400000D03*
X95100000Y-81900000D03*
X95100000Y-81400000D03*
X95100000Y-80900000D03*
X95100000Y-80400000D03*
X95100000Y-79900000D03*
X95100000Y-79400000D03*
X95100000Y-78900000D03*
X95100000Y-78400000D03*
X95100000Y-77900000D03*
X95100000Y-77400000D03*
X95100000Y-76900000D03*
X95100000Y-76400000D03*
X95100000Y-75900000D03*
X95100000Y-75400000D03*
X95100000Y-74900000D03*
X95100000Y-74400000D03*
X95100000Y-73900000D03*
X95100000Y-73400000D03*
X95100000Y-72900000D03*
D10*
G36*
X63642000Y-73600000D02*
X64492000Y-74200000D01*
X64492000Y-75200000D01*
X63642000Y-75800000D01*
X63642000Y-73600000D01*
X63642000Y-73600000D01*
G37*
D41*
X59920000Y-73200000D03*
D42*
X60066500Y-74700000D03*
D41*
X59920000Y-76200000D03*
D43*
X62733500Y-74700000D03*
D10*
G36*
X61823800Y-75800000D02*
X60823800Y-75100000D01*
X60823800Y-74300000D01*
X61823800Y-73600000D01*
X61823800Y-75800000D01*
X61823800Y-75800000D01*
G37*
G36*
X63642000Y-81600000D02*
X64492000Y-82200000D01*
X64492000Y-83200000D01*
X63642000Y-83800000D01*
X63642000Y-81600000D01*
X63642000Y-81600000D01*
G37*
D41*
X59920000Y-81200000D03*
D42*
X60066500Y-82700000D03*
D41*
X59920000Y-84200000D03*
D43*
X62733500Y-82700000D03*
D10*
G36*
X61823800Y-83800000D02*
X60823800Y-83100000D01*
X60823800Y-82300000D01*
X61823800Y-81600000D01*
X61823800Y-83800000D01*
X61823800Y-83800000D01*
G37*
G36*
X63642000Y-89600000D02*
X64492000Y-90200000D01*
X64492000Y-91200000D01*
X63642000Y-91800000D01*
X63642000Y-89600000D01*
X63642000Y-89600000D01*
G37*
D41*
X59920000Y-89200000D03*
D42*
X60066500Y-90700000D03*
D41*
X59920000Y-92200000D03*
D43*
X62733500Y-90700000D03*
D10*
G36*
X61823800Y-91800000D02*
X60823800Y-91100000D01*
X60823800Y-90300000D01*
X61823800Y-89600000D01*
X61823800Y-91800000D01*
X61823800Y-91800000D01*
G37*
D39*
X109200000Y-86600000D03*
X109700000Y-86600000D03*
X110200000Y-86600000D03*
X110700000Y-86600000D03*
X111200000Y-86600000D03*
X111700000Y-86600000D03*
X112200000Y-86600000D03*
X112700000Y-86600000D03*
X113200000Y-86600000D03*
X113700000Y-86600000D03*
X114200000Y-86600000D03*
X114700000Y-86600000D03*
X115200000Y-86600000D03*
X115700000Y-86600000D03*
X116200000Y-86600000D03*
X116700000Y-86600000D03*
X117200000Y-86600000D03*
X117700000Y-86600000D03*
X118200000Y-86600000D03*
X118700000Y-86600000D03*
X119200000Y-86600000D03*
X119700000Y-86600000D03*
X120200000Y-86600000D03*
X120700000Y-86600000D03*
X121200000Y-86600000D03*
D40*
X122900000Y-84900000D03*
X122900000Y-84400000D03*
X122900000Y-83900000D03*
X122900000Y-83400000D03*
X122900000Y-82900000D03*
X122900000Y-82400000D03*
X122900000Y-81900000D03*
X122900000Y-81400000D03*
X122900000Y-80900000D03*
X122900000Y-80400000D03*
X122900000Y-79900000D03*
X122900000Y-79400000D03*
X122900000Y-78900000D03*
X122900000Y-78400000D03*
X122900000Y-77900000D03*
X122900000Y-77400000D03*
X122900000Y-76900000D03*
X122900000Y-76400000D03*
X122900000Y-75900000D03*
X122900000Y-75400000D03*
X122900000Y-74900000D03*
X122900000Y-74400000D03*
X122900000Y-73900000D03*
X122900000Y-73400000D03*
X122900000Y-72900000D03*
D39*
X121200000Y-71200000D03*
X120700000Y-71200000D03*
X120200000Y-71200000D03*
X119700000Y-71200000D03*
X119200000Y-71200000D03*
X118700000Y-71200000D03*
X118200000Y-71200000D03*
X117700000Y-71200000D03*
X117200000Y-71200000D03*
X116700000Y-71200000D03*
X116200000Y-71200000D03*
X115700000Y-71200000D03*
X115200000Y-71200000D03*
X114700000Y-71200000D03*
X114200000Y-71200000D03*
X113700000Y-71200000D03*
X113200000Y-71200000D03*
X112700000Y-71200000D03*
X112200000Y-71200000D03*
X111700000Y-71200000D03*
X111200000Y-71200000D03*
X110700000Y-71200000D03*
X110200000Y-71200000D03*
X109700000Y-71200000D03*
X109200000Y-71200000D03*
D40*
X107500000Y-72900000D03*
X107500000Y-73400000D03*
X107500000Y-73900000D03*
X107500000Y-74400000D03*
X107500000Y-74900000D03*
X107500000Y-75400000D03*
X107500000Y-75900000D03*
X107500000Y-76400000D03*
X107500000Y-76900000D03*
X107500000Y-77400000D03*
X107500000Y-77900000D03*
X107500000Y-78400000D03*
X107500000Y-78900000D03*
X107500000Y-79400000D03*
X107500000Y-79900000D03*
X107500000Y-80400000D03*
X107500000Y-80900000D03*
X107500000Y-81400000D03*
X107500000Y-81900000D03*
X107500000Y-82400000D03*
X107500000Y-82900000D03*
X107500000Y-83400000D03*
X107500000Y-83900000D03*
X107500000Y-84400000D03*
X107500000Y-84900000D03*
D44*
X100725000Y-75425000D03*
X100725000Y-77575000D03*
X102275000Y-77575000D03*
X102275000Y-75425000D03*
D17*
X101500000Y-83200000D03*
D31*
X110080000Y-55200000D03*
D32*
X110080000Y-52660000D03*
X112620000Y-55200000D03*
X112620000Y-52660000D03*
X115160000Y-55200000D03*
X115160000Y-52660000D03*
X117700000Y-55200000D03*
X117700000Y-52660000D03*
X120240000Y-55200000D03*
X120240000Y-52660000D03*
D27*
X71000000Y-72800000D03*
X72600000Y-72800000D03*
X76400000Y-72800000D03*
X74800000Y-72800000D03*
X99200000Y-68400000D03*
X100800000Y-68400000D03*
X104300000Y-68400000D03*
X102700000Y-68400000D03*
D35*
X72550000Y-71300000D03*
X71050000Y-71300000D03*
X74750000Y-71300000D03*
X76250000Y-71300000D03*
X100700000Y-66900000D03*
X99200000Y-66900000D03*
X102750000Y-66900000D03*
X104250000Y-66900000D03*
D45*
X70400000Y-57100000D03*
X77400000Y-57100000D03*
D46*
X73600000Y-71300000D03*
X101700000Y-67000000D03*
X88200000Y-67900000D03*
X123500000Y-51200000D03*
X87400000Y-93100000D03*
X102100029Y-72400000D03*
X104200000Y-76700000D03*
X114300017Y-89900000D03*
X126200000Y-75800000D03*
X126200000Y-81000000D03*
X115400000Y-64700000D03*
X88100000Y-89900000D03*
X116000000Y-67900000D03*
X76400000Y-76900000D03*
X76400000Y-82100000D03*
X104200000Y-82000000D03*
X98400000Y-75800000D03*
X98400000Y-80900000D03*
X55500000Y-84200000D03*
X107100000Y-67900000D03*
X106500000Y-71700000D03*
X130500000Y-95400000D03*
X148100000Y-108900000D03*
X120699992Y-84300000D03*
X117900000Y-84500000D03*
X117100000Y-108300000D03*
X114700000Y-108200000D03*
X72000000Y-142300000D03*
X74400000Y-100100000D03*
X62700000Y-121300000D03*
X74900000Y-148400000D03*
X75200000Y-140700000D03*
X75200000Y-144600000D03*
X125300000Y-140200000D03*
X126200000Y-143400000D03*
X128800000Y-142700000D03*
X124800000Y-146400000D03*
X127100000Y-148700000D03*
X72500000Y-146600000D03*
X123000000Y-89700000D03*
X108700000Y-88300000D03*
X81500000Y-88200000D03*
X102800000Y-101800000D03*
X102000000Y-120600000D03*
X106600000Y-64700000D03*
X126200000Y-79000003D03*
X90000000Y-93100000D03*
X100600000Y-78900000D03*
X98400000Y-78800000D03*
X104200000Y-79100000D03*
X100800004Y-72400000D03*
X104200000Y-75500000D03*
X84900000Y-84600000D03*
X78800000Y-64700000D03*
X79600000Y-67900000D03*
X76300000Y-78800000D03*
X107300000Y-52550000D03*
X121600000Y-69500000D03*
X84900000Y-73200000D03*
X93800000Y-69599994D03*
X113100014Y-89900000D03*
X126200000Y-74399984D03*
X126200000Y-82300000D03*
X118100000Y-64700000D03*
X89300003Y-89900000D03*
X117400003Y-67900000D03*
X93300000Y-84400000D03*
X78100000Y-72900000D03*
X76400000Y-75600000D03*
X76400000Y-83300000D03*
X104200000Y-83400000D03*
X98400000Y-74400000D03*
X98400000Y-82400000D03*
X89500000Y-67900000D03*
X112700000Y-73000000D03*
X70000000Y-74700000D03*
X70000000Y-82700000D03*
X70000000Y-90700000D03*
X95100000Y-89900000D03*
X109000000Y-67900000D03*
X121800000Y-89700000D03*
X108800000Y-64700000D03*
X99724002Y-54300000D03*
X126200000Y-77800000D03*
X93800000Y-89900000D03*
X98400000Y-77599997D03*
X104200000Y-80300000D03*
X80800003Y-67900000D03*
X81600000Y-64700000D03*
X76300000Y-80000003D03*
X55500000Y-76200000D03*
X132600000Y-148800000D03*
X133900000Y-103200000D03*
X131700003Y-95400000D03*
X123200000Y-133400000D03*
X117100000Y-107000000D03*
X114700000Y-107000000D03*
X105600000Y-95800000D03*
X67400000Y-148900000D03*
X75700000Y-100100000D03*
X55500000Y-92200000D03*
D47*
X143100000Y-108900000D03*
X139000000Y-108300000D03*
X139000000Y-105900000D03*
X131300000Y-140800000D03*
X123000000Y-117200000D03*
X143500000Y-114500000D03*
X133600000Y-115600000D03*
X131800000Y-103200000D03*
X131300000Y-139900000D03*
X144200000Y-113800000D03*
X131300000Y-113600000D03*
X123000000Y-114000000D03*
X143100000Y-107900000D03*
X131000000Y-87000000D03*
X131300000Y-141700000D03*
X123000000Y-118800000D03*
X142700004Y-115200000D03*
X133600000Y-116600000D03*
X121000000Y-81499994D03*
X77000000Y-100200000D03*
X54100000Y-102900000D03*
X118700000Y-133500000D03*
X97200000Y-102400000D03*
X53000000Y-102000008D03*
X78100000Y-100200000D03*
X117200000Y-133500000D03*
X96400000Y-101700000D03*
X55500000Y-103500006D03*
X69200000Y-100600000D03*
X120200000Y-133500000D03*
X98000000Y-101700000D03*
X97700010Y-64600000D03*
X97700000Y-54200000D03*
X102900000Y-51200000D03*
X105500000Y-51800000D03*
X102300000Y-133500000D03*
X88300000Y-109200000D03*
X67400000Y-101500000D03*
X121800000Y-133500000D03*
X100400000Y-97300000D03*
X92599992Y-81400000D03*
X97800000Y-85800000D03*
X115700000Y-133500000D03*
X91900000Y-102000000D03*
X114200000Y-133500000D03*
X91500000Y-102800000D03*
X112800000Y-133500000D03*
X91100000Y-103600000D03*
X111300000Y-133500000D03*
X90700000Y-104400000D03*
X89400000Y-94600000D03*
X109700000Y-133500000D03*
X90300000Y-105200000D03*
X89600000Y-84800000D03*
X61800000Y-122600000D03*
X88700000Y-95300000D03*
X108300000Y-133500000D03*
X89900000Y-106000000D03*
X89100000Y-84100000D03*
X61800000Y-125120000D03*
X88100000Y-96000000D03*
X106800000Y-133500000D03*
X89500000Y-106800000D03*
X88200010Y-84100000D03*
X87500000Y-96700000D03*
X105300000Y-133500000D03*
X89100000Y-107600000D03*
X87700000Y-84800000D03*
X103700000Y-133500000D03*
X88700000Y-108400000D03*
X100800000Y-133500000D03*
X87900000Y-110000000D03*
X99200000Y-133500000D03*
X87500000Y-110800000D03*
X65800000Y-140300000D03*
X97800000Y-133500000D03*
X87100000Y-111600000D03*
X96300000Y-133500000D03*
X86700000Y-112400000D03*
X52400002Y-146700000D03*
X53900000Y-107000000D03*
X63700000Y-102500000D03*
X94800000Y-133500000D03*
X86300000Y-113200000D03*
X85900000Y-114000000D03*
X93300000Y-133500000D03*
X74600000Y-123900000D03*
X91800000Y-133500000D03*
X85500000Y-114800000D03*
X75100000Y-126400000D03*
X90300000Y-133500000D03*
X85100000Y-115600000D03*
X75700000Y-129000000D03*
X88800000Y-133500000D03*
X84700000Y-116400000D03*
X66700000Y-131500000D03*
X87300000Y-133500000D03*
X84300000Y-117200000D03*
X76800000Y-87400000D03*
X81300000Y-83400000D03*
X65700000Y-134000000D03*
X85800000Y-133500000D03*
X83900000Y-118000000D03*
X76800000Y-88200000D03*
X81300000Y-82600000D03*
X66500000Y-136600000D03*
X84300000Y-133500000D03*
X83500000Y-118800000D03*
X75300000Y-87200000D03*
X81900000Y-81800000D03*
X67100000Y-139000000D03*
X82800000Y-133500000D03*
X83100000Y-119600000D03*
X74400000Y-87500000D03*
X81300000Y-81000000D03*
X67600000Y-141100000D03*
X82400000Y-120400000D03*
X81300000Y-133500000D03*
X73794999Y-88594999D03*
X81300000Y-80100000D03*
X68100000Y-142500002D03*
X82300000Y-123700000D03*
X79800000Y-133500000D03*
X93200012Y-79400000D03*
X97800000Y-84000000D03*
X67599994Y-146700000D03*
X81000000Y-124700000D03*
X78300000Y-133500000D03*
X143000000Y-90804999D03*
X115800002Y-83800000D03*
X144000000Y-90804999D03*
X115400000Y-85000000D03*
X148328795Y-96177781D03*
X148600000Y-102400000D03*
X148800000Y-146500000D03*
X121000000Y-78100000D03*
X147200000Y-97200000D03*
X147200000Y-102600010D03*
X148400000Y-144000000D03*
X119300000Y-78200000D03*
X148000000Y-141600000D03*
X145700000Y-102400000D03*
X144300000Y-102500000D03*
X142900000Y-102600000D03*
X147900000Y-104300000D03*
X120199998Y-78100000D03*
X146395000Y-103400000D03*
X119100000Y-79600000D03*
X145200000Y-98700000D03*
X145000000Y-103400000D03*
X143400000Y-103400000D03*
X143800000Y-98700000D03*
X139500000Y-118800000D03*
X142400000Y-96800000D03*
X141900000Y-109700000D03*
X130600000Y-86300000D03*
X120600000Y-80700000D03*
X138500000Y-118800000D03*
X141300000Y-98400000D03*
X140700000Y-109700000D03*
X130600000Y-87700000D03*
X137500000Y-118800000D03*
X120600000Y-82300000D03*
X139900010Y-96800000D03*
X139400000Y-109700000D03*
X136500000Y-118800000D03*
X138500000Y-96800000D03*
X138100000Y-109700000D03*
X135500000Y-118800000D03*
X136900000Y-109700000D03*
X137500000Y-98700000D03*
X134500000Y-118800000D03*
X136100000Y-98700000D03*
X135600000Y-109700000D03*
X133500000Y-118800000D03*
X109600000Y-81200000D03*
X144600000Y-89000000D03*
X106900000Y-86000000D03*
X110300000Y-81900000D03*
X145100000Y-89900000D03*
X107800000Y-86700000D03*
X123800000Y-100500000D03*
X108500000Y-106200000D03*
X114500000Y-84800000D03*
X123800000Y-103300000D03*
X108700000Y-107700000D03*
X113999978Y-84000000D03*
X112900004Y-84000000D03*
X112400000Y-84800000D03*
X107800000Y-108600000D03*
X112700000Y-95900000D03*
X107400000Y-109300000D03*
X112000000Y-96300000D03*
X107000000Y-110000000D03*
X111300000Y-96700000D03*
X106600000Y-110700000D03*
X110600000Y-97100000D03*
X133000000Y-109700000D03*
X133700000Y-98700000D03*
X131500000Y-114800000D03*
X130305000Y-108900000D03*
X131000000Y-88400000D03*
X121000000Y-83100000D03*
X130600000Y-115600000D03*
X130300000Y-106900000D03*
X128900000Y-116400000D03*
X130300000Y-107900000D03*
X129700000Y-118000000D03*
X130300000Y-105900000D03*
X128100000Y-119600000D03*
X134600000Y-98700000D03*
X134300000Y-109700000D03*
X132500000Y-118800000D03*
X142000000Y-90804999D03*
X116300000Y-83000000D03*
X141000000Y-90804999D03*
X117272200Y-83527800D03*
X104200000Y-86100000D03*
X108895000Y-83000000D03*
X74800000Y-81000000D03*
X106000000Y-97700000D03*
X81300000Y-78600000D03*
X72900000Y-80600000D03*
X105200000Y-97000000D03*
X81300000Y-77700000D03*
X81300000Y-76800000D03*
X104400000Y-96300000D03*
X93000000Y-80500000D03*
X97800000Y-84900000D03*
X93200000Y-82100000D03*
X97800000Y-86700000D03*
X97800000Y-87600000D03*
X93400000Y-83200006D03*
X121300000Y-60300000D03*
X115800000Y-73000000D03*
X128800000Y-70000000D03*
X109500000Y-77400000D03*
X92700000Y-75800000D03*
X122000000Y-61000000D03*
X116600000Y-73300000D03*
X128800000Y-69100000D03*
X110100000Y-76700000D03*
X93300000Y-75100000D03*
X122700000Y-61700000D03*
X117400000Y-72999984D03*
X128800000Y-68200000D03*
X109500000Y-76000000D03*
X92699982Y-74400000D03*
X123400000Y-62400000D03*
X118200000Y-73300000D03*
X128800000Y-67300000D03*
X110099992Y-75300000D03*
X93300000Y-73700014D03*
X124100000Y-63100000D03*
X109500000Y-74600006D03*
X128800000Y-66400000D03*
X123400000Y-63800000D03*
X128800000Y-70900000D03*
X110100000Y-78100000D03*
X93300000Y-76499996D03*
X122700000Y-64500000D03*
X128800000Y-71800000D03*
X109500000Y-78800006D03*
X92700000Y-77200012D03*
X122000000Y-65200000D03*
X109100000Y-63100000D03*
X109800000Y-62700000D03*
X110500000Y-62300000D03*
X111200000Y-61900000D03*
X111900000Y-61500000D03*
X92700000Y-64800000D03*
X90500000Y-73300000D03*
X112600000Y-61100000D03*
X92000000Y-64100000D03*
X89700000Y-73000000D03*
X113300000Y-60700000D03*
X91299992Y-63400000D03*
X88900000Y-73300000D03*
X114000000Y-60300000D03*
X90600000Y-62700000D03*
X88100000Y-73000000D03*
X108400000Y-63500000D03*
X108700000Y-89500000D03*
X92400000Y-85100000D03*
X110100000Y-73900000D03*
X127600000Y-65900000D03*
D48*
X74750000Y-71300000D02*
X73600000Y-71300000D01*
X72550000Y-71300000D02*
X73600000Y-71300000D01*
X100700000Y-66900000D02*
X101600000Y-66900000D01*
X101600000Y-66900000D02*
X101700000Y-67000000D01*
X102750000Y-66900000D02*
X101800000Y-66900000D01*
X101800000Y-66900000D02*
X101700000Y-67000000D01*
D49*
X107500000Y-82400000D02*
X106550998Y-82400000D01*
X106550998Y-82400000D02*
X106100998Y-81950000D01*
X106100998Y-81950000D02*
X105400000Y-81950000D01*
D48*
X105400000Y-81950000D02*
X104250000Y-81950000D01*
X104250000Y-81950000D02*
X104200000Y-82000000D01*
X115950000Y-69100000D02*
X115950000Y-67950000D01*
X115950000Y-67950000D02*
X116000000Y-67900000D01*
D49*
X115200000Y-71200000D02*
X115200000Y-70300000D01*
X115200000Y-70300000D02*
X115950000Y-69550000D01*
X115950000Y-69550000D02*
X115950000Y-69100000D01*
D48*
X88050000Y-69100000D02*
X88050000Y-68050000D01*
X88050000Y-68050000D02*
X88200000Y-67900000D01*
D49*
X88000000Y-69640000D02*
X88000000Y-69150000D01*
X88000000Y-69150000D02*
X88050000Y-69100000D01*
X87400000Y-71200000D02*
X87400000Y-70240000D01*
X87400000Y-70240000D02*
X88000000Y-69640000D01*
D48*
X126300000Y-51200000D02*
X123500000Y-51200000D01*
X127600000Y-53550000D02*
X127600000Y-52500000D01*
X127600000Y-52500000D02*
X126300000Y-51200000D01*
X87200000Y-91500000D02*
X87200000Y-92900000D01*
X87200000Y-92900000D02*
X87400000Y-93100000D01*
X102250000Y-73600000D02*
X102250000Y-72549971D01*
X102250000Y-72549971D02*
X102100029Y-72400000D01*
X105400000Y-76850000D02*
X104350000Y-76850000D01*
X104350000Y-76850000D02*
X104200000Y-76700000D01*
X114450000Y-88700000D02*
X114450000Y-89750017D01*
X114450000Y-89750017D02*
X114300017Y-89900000D01*
X126200000Y-75825000D02*
X126200000Y-75800000D01*
X126175000Y-75850000D02*
X126200000Y-75825000D01*
X125000000Y-75850000D02*
X126175000Y-75850000D01*
X125000000Y-80850000D02*
X126050000Y-80850000D01*
X126050000Y-80850000D02*
X126200000Y-81000000D01*
X115200000Y-66300000D02*
X115200000Y-64900000D01*
X115200000Y-64900000D02*
X115400000Y-64700000D01*
X87200000Y-91500000D02*
X87200000Y-90800000D01*
X87200000Y-90800000D02*
X88100000Y-89900000D01*
X87950000Y-88700000D02*
X87950000Y-89750000D01*
X87950000Y-89750000D02*
X88100000Y-89900000D01*
X115200000Y-66300000D02*
X115200000Y-67100000D01*
X115200000Y-67100000D02*
X116000000Y-67900000D01*
X76400000Y-76925000D02*
X76400000Y-76900000D01*
X76425000Y-76950000D02*
X76400000Y-76925000D01*
X77600000Y-76950000D02*
X76425000Y-76950000D01*
X76400000Y-81975000D02*
X76400000Y-82100000D01*
X76425000Y-81950000D02*
X76400000Y-81975000D01*
X77600000Y-81950000D02*
X76425000Y-81950000D01*
X97200000Y-75850000D02*
X98350000Y-75850000D01*
X98350000Y-75850000D02*
X98400000Y-75800000D01*
X97200000Y-80850000D02*
X98350000Y-80850000D01*
X98350000Y-80850000D02*
X98400000Y-80900000D01*
D50*
X55500000Y-84200000D02*
X52700000Y-84200000D01*
X57600000Y-84200000D02*
X55500000Y-84200000D01*
D49*
X87400000Y-91600000D02*
X87300000Y-91700000D01*
X87400000Y-86600000D02*
X87400000Y-87565000D01*
X87400000Y-87565000D02*
X87950000Y-88115000D01*
X87950000Y-88115000D02*
X87950000Y-88700000D01*
X79700000Y-82400000D02*
X78740000Y-82400000D01*
X78740000Y-82400000D02*
X78290000Y-81950000D01*
X78290000Y-81950000D02*
X77600000Y-81950000D01*
X79700000Y-76400000D02*
X78740000Y-76400000D01*
X78740000Y-76400000D02*
X78190000Y-76950000D01*
X78190000Y-76950000D02*
X77600000Y-76950000D01*
X95100000Y-81400000D02*
X96060000Y-81400000D01*
X96060000Y-81400000D02*
X96610000Y-80850000D01*
X96610000Y-80850000D02*
X97200000Y-80850000D01*
X95100000Y-75400000D02*
X96060000Y-75400000D01*
X96060000Y-75400000D02*
X96510000Y-75850000D01*
X96510000Y-75850000D02*
X97200000Y-75850000D01*
X107500000Y-76400000D02*
X106540000Y-76400000D01*
X106540000Y-76400000D02*
X106090000Y-76850000D01*
X106090000Y-76850000D02*
X105400000Y-76850000D01*
X115900000Y-69150000D02*
X115950000Y-69100000D01*
X123900000Y-75400000D02*
X124350000Y-75850000D01*
X124350000Y-75850000D02*
X125000000Y-75850000D01*
X122900000Y-75400000D02*
X123900000Y-75400000D01*
X124360000Y-80900000D02*
X124750000Y-80900000D01*
X124750000Y-80900000D02*
X124800000Y-80850000D01*
X122900000Y-81400000D02*
X123860000Y-81400000D01*
X123860000Y-81400000D02*
X124360000Y-80900000D01*
X114500000Y-88260000D02*
X114500000Y-88650000D01*
X114500000Y-88650000D02*
X114450000Y-88700000D01*
X115200000Y-86600000D02*
X115200000Y-87560000D01*
X115200000Y-87560000D02*
X114500000Y-88260000D01*
D48*
X102275000Y-75425000D02*
X102275000Y-73625000D01*
X102275000Y-73625000D02*
X102250000Y-73600000D01*
D50*
X59920000Y-84200000D02*
X57600000Y-84200000D01*
D48*
X107225000Y-67900000D02*
X107100000Y-67900000D01*
X107250000Y-67925000D02*
X107225000Y-67900000D01*
X107250000Y-69100000D02*
X107250000Y-67925000D01*
X106400000Y-67200000D02*
X107100000Y-67900000D01*
X106400000Y-66300000D02*
X106400000Y-67200000D01*
D49*
X106660000Y-71700000D02*
X106500000Y-71700000D01*
X107500000Y-72540000D02*
X106660000Y-71700000D01*
X107500000Y-72900000D02*
X107500000Y-72540000D01*
D48*
X130250000Y-96600000D02*
X130250000Y-95650000D01*
X130250000Y-95650000D02*
X130500000Y-95400000D01*
X130250000Y-96600000D02*
X130250000Y-98200000D01*
D51*
X148255000Y-111500000D02*
X148255000Y-109055000D01*
X148255000Y-109055000D02*
X148100000Y-108900000D01*
D49*
X122900000Y-84900000D02*
X121299992Y-84900000D01*
X121299992Y-84900000D02*
X120699992Y-84300000D01*
X117700000Y-86600000D02*
X117700000Y-84700000D01*
X117700000Y-84700000D02*
X117900000Y-84500000D01*
X122900000Y-74900000D02*
X124450000Y-74900000D01*
X124450000Y-74900000D02*
X125000000Y-74350000D01*
D48*
X118600000Y-108600000D02*
X117400000Y-108600000D01*
X117400000Y-108600000D02*
X117100000Y-108300000D01*
X117100000Y-108325000D02*
X117100000Y-108300000D01*
X117075000Y-108350000D02*
X117100000Y-108325000D01*
X115900000Y-108350000D02*
X117075000Y-108350000D01*
X115900000Y-108350000D02*
X114850000Y-108350000D01*
X114850000Y-108350000D02*
X114700000Y-108200000D01*
X113500000Y-108350000D02*
X114550000Y-108350000D01*
X114550000Y-108350000D02*
X114700000Y-108200000D01*
D51*
X73600000Y-140700000D02*
X72000000Y-142300000D01*
X74300000Y-144600000D02*
X72000000Y-142300000D01*
X75200000Y-140700000D02*
X73600000Y-140700000D01*
X75200000Y-144600000D02*
X74300000Y-144600000D01*
D48*
X74250000Y-101300000D02*
X74250000Y-100250000D01*
X74250000Y-100250000D02*
X74400000Y-100100000D01*
X74250000Y-102800000D02*
X74250000Y-101300000D01*
D51*
X64700000Y-121270000D02*
X62730000Y-121270000D01*
X62730000Y-121270000D02*
X62700000Y-121300000D01*
X71400000Y-136800000D02*
X72100000Y-136800000D01*
X72100000Y-136800000D02*
X73900000Y-135000000D01*
X75200000Y-140700000D02*
X71400000Y-136900000D01*
X71400000Y-136900000D02*
X71400000Y-136800000D01*
X72500000Y-146600000D02*
X73100000Y-146600000D01*
X73100000Y-146600000D02*
X74900000Y-148400000D01*
X72500000Y-146600000D02*
X73200000Y-146600000D01*
X73200000Y-146600000D02*
X75200000Y-144600000D01*
X129100000Y-137800000D02*
X128800000Y-137800000D01*
X128800000Y-137800000D02*
X126200000Y-135200000D01*
X125300000Y-140200000D02*
X126700000Y-140200000D01*
X126700000Y-140200000D02*
X129100000Y-137800000D01*
X126200000Y-143400000D02*
X126200000Y-141100000D01*
X126200000Y-141100000D02*
X125300000Y-140200000D01*
X128800000Y-142700000D02*
X126900000Y-142700000D01*
X126900000Y-142700000D02*
X126200000Y-143400000D01*
X124800000Y-146400000D02*
X128500000Y-142700000D01*
X128500000Y-142700000D02*
X128800000Y-142700000D01*
X127100000Y-148700000D02*
X124800000Y-146400000D01*
X127100000Y-148000000D02*
X127100000Y-148700000D01*
X128550000Y-146550000D02*
X127100000Y-148000000D01*
X130200000Y-146550000D02*
X128550000Y-146550000D01*
X69800000Y-146550000D02*
X72450000Y-146550000D01*
X72450000Y-146550000D02*
X72500000Y-146600000D01*
D48*
X123150000Y-88500000D02*
X123150000Y-89550000D01*
X123150000Y-89550000D02*
X123000000Y-89700000D01*
D49*
X109200000Y-86600000D02*
X109200000Y-87800000D01*
X109200000Y-87800000D02*
X108700000Y-88300000D01*
X81400000Y-88100000D02*
X81500000Y-88200000D01*
X81400000Y-86600000D02*
X81400000Y-88100000D01*
D51*
X102800000Y-99500000D02*
X102800000Y-101800000D01*
X102000000Y-122900000D02*
X102000000Y-120600000D01*
D48*
X106400000Y-66300000D02*
X106400000Y-64900000D01*
X106400000Y-64900000D02*
X106600000Y-64700000D01*
X125000000Y-79150000D02*
X126050003Y-79150000D01*
X126050003Y-79150000D02*
X126200000Y-79000003D01*
X90200000Y-92900000D02*
X90000000Y-93100000D01*
X90200000Y-91500000D02*
X90200000Y-92900000D01*
X100725000Y-77575000D02*
X100725000Y-78775000D01*
X100725000Y-78775000D02*
X100600000Y-78900000D01*
X97200000Y-78900000D02*
X98300000Y-78900000D01*
X98300000Y-78900000D02*
X98400000Y-78800000D01*
X105400000Y-75350000D02*
X104350000Y-75350000D01*
X104350000Y-75350000D02*
X104200000Y-75500000D01*
X105400000Y-78950000D02*
X104350000Y-78950000D01*
X104350000Y-78950000D02*
X104200000Y-79100000D01*
X100750000Y-72425000D02*
X100775000Y-72400000D01*
X100750000Y-73600000D02*
X100750000Y-72425000D01*
X100775000Y-72400000D02*
X100800004Y-72400000D01*
D49*
X84400001Y-85099999D02*
X84900000Y-84600000D01*
X84400000Y-86600000D02*
X84400001Y-85099999D01*
D48*
X78700000Y-66300000D02*
X78700000Y-64800000D01*
X78700000Y-64800000D02*
X78800000Y-64700000D01*
X78700000Y-66300000D02*
X78700000Y-67000000D01*
X78700000Y-67000000D02*
X79600000Y-67900000D01*
X79450000Y-69100000D02*
X79450000Y-68050000D01*
X79450000Y-68050000D02*
X79600000Y-67900000D01*
X77600000Y-78650000D02*
X76450000Y-78650000D01*
X76450000Y-78650000D02*
X76300000Y-78800000D01*
D51*
X107300000Y-53700000D02*
X107300000Y-52550000D01*
D49*
X121200000Y-69900000D02*
X121600000Y-69500000D01*
X121200000Y-71200000D02*
X121200000Y-69900000D01*
X84900000Y-71200000D02*
X84900000Y-73200000D01*
X93400000Y-69999994D02*
X93800000Y-69599994D01*
X93400000Y-71200000D02*
X93400000Y-69999994D01*
D48*
X112950000Y-89875000D02*
X112975000Y-89900000D01*
X112950000Y-88700000D02*
X112950000Y-89875000D01*
X112975000Y-89900000D02*
X113100014Y-89900000D01*
X126175000Y-74350000D02*
X126200000Y-74375000D01*
X126200000Y-74375000D02*
X126200000Y-74399984D01*
X125000000Y-74350000D02*
X126175000Y-74350000D01*
X126200000Y-82325000D02*
X126200000Y-82300000D01*
X126175000Y-82350000D02*
X126200000Y-82325000D01*
X125000000Y-82350000D02*
X126175000Y-82350000D01*
X118200000Y-66300000D02*
X118200000Y-64800000D01*
X118200000Y-64800000D02*
X118100000Y-64700000D01*
X90200000Y-91500000D02*
X90200000Y-90799997D01*
X90200000Y-90799997D02*
X89300003Y-89900000D01*
X89450000Y-88700000D02*
X89450000Y-89750003D01*
X89450000Y-89750003D02*
X89300003Y-89900000D01*
X118200000Y-66300000D02*
X118200000Y-67100003D01*
X118200000Y-67100003D02*
X117400003Y-67900000D01*
X117450000Y-69100000D02*
X117450000Y-67949997D01*
X117450000Y-67949997D02*
X117400003Y-67900000D01*
D49*
X93799999Y-84899999D02*
X93300000Y-84400000D01*
X95100000Y-84900000D02*
X93799999Y-84899999D01*
X79700000Y-72900000D02*
X78100000Y-72900000D01*
D48*
X76400000Y-75475000D02*
X76400000Y-75600000D01*
X76425000Y-75450000D02*
X76400000Y-75475000D01*
X77600000Y-75450000D02*
X76425000Y-75450000D01*
X76400000Y-83425000D02*
X76400000Y-83300000D01*
X76425000Y-83450000D02*
X76400000Y-83425000D01*
X77600000Y-83450000D02*
X76425000Y-83450000D01*
X104200000Y-83425000D02*
X104200000Y-83400000D01*
X104225000Y-83450000D02*
X104200000Y-83425000D01*
X105400000Y-83450000D02*
X104225000Y-83450000D01*
X98400000Y-74375000D02*
X98400000Y-74400000D01*
X97200000Y-74350000D02*
X98375000Y-74350000D01*
X98375000Y-74350000D02*
X98400000Y-74375000D01*
X98400000Y-82375000D02*
X98400000Y-82400000D01*
X98375000Y-82350000D02*
X98400000Y-82375000D01*
X97200000Y-82350000D02*
X98375000Y-82350000D01*
X90300000Y-91700000D02*
X90300014Y-91700014D01*
X89525000Y-67900000D02*
X89500000Y-67900000D01*
X89550000Y-67925000D02*
X89525000Y-67900000D01*
X89550000Y-69100000D02*
X89550000Y-67925000D01*
D49*
X112700000Y-71200000D02*
X112700000Y-73000000D01*
D52*
X68600000Y-74700000D02*
X70000000Y-74700000D01*
X68600000Y-82700000D02*
X70000000Y-82700000D01*
X68600000Y-90700000D02*
X70000000Y-90700000D01*
D48*
X95150000Y-88700000D02*
X95150000Y-89850000D01*
X95150000Y-89850000D02*
X95100000Y-89900000D01*
D51*
X97200000Y-74350000D02*
X97250000Y-74400000D01*
X95150000Y-88700000D02*
X95200000Y-88650000D01*
D49*
X89900000Y-86600000D02*
X89900000Y-87665000D01*
X89900000Y-87665000D02*
X89450000Y-88115000D01*
X89450000Y-88115000D02*
X89450000Y-88700000D01*
X78140000Y-83500000D02*
X77650000Y-83500000D01*
X77650000Y-83500000D02*
X77600000Y-83450000D01*
X79700000Y-82900000D02*
X78740000Y-82900000D01*
X78740000Y-82900000D02*
X78140000Y-83500000D01*
X78600000Y-75900000D02*
X78600000Y-75865000D01*
X78600000Y-75865000D02*
X78185000Y-75450000D01*
X78185000Y-75450000D02*
X77600000Y-75450000D01*
X79700000Y-75900000D02*
X78600000Y-75900000D01*
X89660000Y-69500000D02*
X89660000Y-69210000D01*
X89660000Y-69210000D02*
X89550000Y-69100000D01*
X90400000Y-71200000D02*
X90400000Y-70240000D01*
X90400000Y-70240000D02*
X89660000Y-69500000D01*
X95100000Y-81900000D02*
X96060000Y-81900000D01*
X96510000Y-82350000D02*
X97200000Y-82350000D01*
X96060000Y-81900000D02*
X96510000Y-82350000D01*
X95100000Y-74900000D02*
X96060000Y-74900000D01*
X96060000Y-74900000D02*
X96610000Y-74350000D01*
X96610000Y-74350000D02*
X97200000Y-74350000D01*
X107500000Y-75900000D02*
X106540000Y-75900000D01*
X106540000Y-75900000D02*
X105990000Y-75350000D01*
X105990000Y-75350000D02*
X105400000Y-75350000D01*
X107500000Y-82900000D02*
X106540000Y-82900000D01*
X106540000Y-82900000D02*
X105990000Y-83450000D01*
X105990000Y-83450000D02*
X105400000Y-83450000D01*
X117500000Y-69540000D02*
X117500000Y-69150000D01*
X117500000Y-69150000D02*
X117450000Y-69100000D01*
X118200000Y-71200000D02*
X118200000Y-70240000D01*
X118200000Y-70240000D02*
X117500000Y-69540000D01*
X124950000Y-74300000D02*
X125000000Y-74250000D01*
X124260000Y-82300000D02*
X124750000Y-82300000D01*
X124750000Y-82300000D02*
X124800000Y-82350000D01*
X122900000Y-81900000D02*
X123860000Y-81900000D01*
X123860000Y-81900000D02*
X124260000Y-82300000D01*
X112900000Y-88260000D02*
X112900000Y-88650000D01*
X112900000Y-88650000D02*
X112950000Y-88700000D01*
X112200000Y-86600000D02*
X112200000Y-87560000D01*
X112200000Y-87560000D02*
X112900000Y-88260000D01*
D48*
X108775000Y-67900000D02*
X109000000Y-67900000D01*
X108750000Y-67925000D02*
X108775000Y-67900000D01*
X108750000Y-69100000D02*
X108750000Y-67925000D01*
X109000000Y-66700000D02*
X109000000Y-67900000D01*
X109400000Y-66300000D02*
X109000000Y-66700000D01*
X121650000Y-88500000D02*
X121650000Y-89550000D01*
X121650000Y-89550000D02*
X121800000Y-89700000D01*
X109400000Y-66300000D02*
X109400000Y-65300000D01*
X109400000Y-65300000D02*
X108800000Y-64700000D01*
D49*
X106535000Y-79900000D02*
X105985000Y-80450000D01*
X107500000Y-79900000D02*
X106535000Y-79900000D01*
X105985000Y-80450000D02*
X105400000Y-80450000D01*
D48*
X103700000Y-54300000D02*
X99724002Y-54300000D01*
X105500000Y-54300000D02*
X103700000Y-54300000D01*
X125000000Y-77650000D02*
X126050000Y-77650000D01*
X126050000Y-77650000D02*
X126200000Y-77800000D01*
X93650000Y-88700000D02*
X93650000Y-89750000D01*
X93650000Y-89750000D02*
X93800000Y-89900000D01*
D49*
X95100000Y-77900000D02*
X96100000Y-77900000D01*
X96100000Y-77900000D02*
X96600000Y-77400000D01*
X96600000Y-77400000D02*
X97200000Y-77400000D01*
D48*
X97200000Y-77400000D02*
X98200003Y-77400000D01*
X98200003Y-77400000D02*
X98400000Y-77599997D01*
X105400000Y-80450000D02*
X104350000Y-80450000D01*
X104350000Y-80450000D02*
X104200000Y-80300000D01*
X81700000Y-66300000D02*
X81700000Y-64800000D01*
X81700000Y-64800000D02*
X81600000Y-64700000D01*
X81700000Y-66300000D02*
X81700000Y-67000003D01*
X81700000Y-67000003D02*
X80800003Y-67900000D01*
X80950000Y-69100000D02*
X80950000Y-68049997D01*
X80950000Y-68049997D02*
X80800003Y-67900000D01*
D49*
X81400000Y-70100000D02*
X81365000Y-70100000D01*
X81365000Y-70100000D02*
X80950000Y-69685000D01*
X80950000Y-69685000D02*
X80950000Y-69100000D01*
D50*
X55500000Y-76200000D02*
X52700000Y-76200000D01*
D48*
X77600000Y-80150000D02*
X76449997Y-80150000D01*
X76449997Y-80150000D02*
X76300000Y-80000003D01*
D49*
X79700000Y-79900000D02*
X77850000Y-79900000D01*
X77850000Y-79900000D02*
X77600000Y-80150000D01*
X93400000Y-86600000D02*
X93400000Y-88450000D01*
X93400000Y-88450000D02*
X93650000Y-88700000D01*
X81400000Y-71200000D02*
X81400000Y-70100000D01*
X121200000Y-86400000D02*
X121200000Y-87465000D01*
X121200000Y-87465000D02*
X121650000Y-87915000D01*
X121650000Y-87915000D02*
X121650000Y-88500000D01*
X109200000Y-71200000D02*
X109200000Y-70240000D01*
X109200000Y-70240000D02*
X108750000Y-69790000D01*
X108750000Y-69790000D02*
X108750000Y-69200000D01*
X122900000Y-77900000D02*
X124950000Y-77900000D01*
D50*
X57600000Y-76200000D02*
X55500000Y-76200000D01*
X59920000Y-76200000D02*
X57600000Y-76200000D01*
D51*
X133900000Y-148850000D02*
X132650000Y-148850000D01*
X132650000Y-148850000D02*
X132600000Y-148800000D01*
X134285000Y-102815000D02*
X133900000Y-103200000D01*
X134285000Y-100500000D02*
X134285000Y-102815000D01*
D48*
X131750000Y-96600000D02*
X131750000Y-95449997D01*
X131750000Y-95449997D02*
X131700003Y-95400000D01*
X131750000Y-98200000D02*
X131750000Y-96600000D01*
X131745000Y-100500000D02*
X131745000Y-98205000D01*
X131745000Y-98205000D02*
X131750000Y-98200000D01*
D51*
X135500000Y-148850000D02*
X137100000Y-148850000D01*
X133900000Y-148850000D02*
X135500000Y-148850000D01*
X64500000Y-148850000D02*
X62900000Y-148850000D01*
D48*
X123250000Y-135300000D02*
X123250000Y-133450000D01*
X123250000Y-133450000D02*
X123200000Y-133400000D01*
X118600000Y-106600000D02*
X117500000Y-106600000D01*
X117500000Y-106600000D02*
X117100000Y-107000000D01*
X117100000Y-106875000D02*
X117100000Y-107000000D01*
X117075000Y-106850000D02*
X117100000Y-106875000D01*
X115900000Y-106850000D02*
X117075000Y-106850000D01*
X115900000Y-106850000D02*
X114850000Y-106850000D01*
X114850000Y-106850000D02*
X114700000Y-107000000D01*
X113500000Y-106850000D02*
X114550000Y-106850000D01*
X114550000Y-106850000D02*
X114700000Y-107000000D01*
D51*
X111200000Y-106800000D02*
X113450000Y-106800000D01*
X113450000Y-106800000D02*
X113500000Y-106850000D01*
X106350000Y-93900000D02*
X106350000Y-95050000D01*
X106350000Y-95050000D02*
X105600000Y-95800000D01*
X66100000Y-148850000D02*
X67350000Y-148850000D01*
X67350000Y-148850000D02*
X67400000Y-148900000D01*
X64500000Y-148850000D02*
X66100000Y-148850000D01*
D48*
X75750000Y-101300000D02*
X75750000Y-100150000D01*
X75750000Y-100150000D02*
X75700000Y-100100000D01*
X75750000Y-102800000D02*
X75750000Y-104710000D01*
X75750000Y-104710000D02*
X75700000Y-104760000D01*
X75750000Y-102800000D02*
X75750000Y-101300000D01*
D50*
X55500000Y-92200000D02*
X52700000Y-92200000D01*
X57600000Y-92200000D02*
X55500000Y-92200000D01*
X59920000Y-92200000D02*
X57600000Y-92200000D01*
D52*
X56000000Y-70300000D02*
X52600000Y-70300000D01*
D51*
X135500000Y-146100000D02*
X135500000Y-147350000D01*
D49*
X122900000Y-83400000D02*
X124200000Y-83400000D01*
X139200000Y-98000000D02*
X139500000Y-98300000D01*
X124200000Y-83400000D02*
X130400000Y-89600000D01*
X130400000Y-89600000D02*
X132600000Y-89600000D01*
X132600000Y-89600000D02*
X139200000Y-96200000D01*
X139200000Y-96200000D02*
X139200000Y-98000000D01*
X139500000Y-98300000D02*
X139500000Y-100365000D01*
X139500000Y-100365000D02*
X139365000Y-100500000D01*
X139000000Y-108300000D02*
X142500000Y-108300000D01*
X142500000Y-108300000D02*
X143100000Y-108900000D01*
X139365000Y-100500000D02*
X139365000Y-105535000D01*
X139365000Y-105535000D02*
X139000000Y-105900000D01*
X131300000Y-140800000D02*
X132410000Y-140800000D01*
X132410000Y-140800000D02*
X135500000Y-143890000D01*
X135500000Y-143890000D02*
X135500000Y-144500000D01*
X132000000Y-117200000D02*
X123000000Y-117200000D01*
X133600000Y-115600000D02*
X132000000Y-117200000D01*
X111200000Y-117200000D02*
X123000000Y-117200000D01*
X143500000Y-115295404D02*
X143500000Y-114500000D01*
X142990402Y-115805002D02*
X143500000Y-115295404D01*
X141694998Y-115805002D02*
X142990402Y-115805002D01*
X140700000Y-116800000D02*
X141694998Y-115805002D01*
X140700000Y-120980000D02*
X140700000Y-116800000D01*
X142300000Y-122580000D02*
X140700000Y-120980000D01*
X139365000Y-99700000D02*
X139365000Y-100500000D01*
D51*
X137100000Y-147350000D02*
X137100000Y-146100000D01*
D49*
X131800000Y-103200000D02*
X133015000Y-101985000D01*
X133015000Y-101985000D02*
X133015000Y-100500000D01*
X115700000Y-86600000D02*
X115700000Y-89050288D01*
X115700000Y-89050288D02*
X120749712Y-94100000D01*
X131700000Y-94100000D02*
X133000000Y-95400000D01*
X133000000Y-95400000D02*
X133000000Y-100485000D01*
X120749712Y-94100000D02*
X131700000Y-94100000D01*
X133000000Y-100485000D02*
X133015000Y-100500000D01*
X131300000Y-139900000D02*
X133110000Y-139900000D01*
X133110000Y-139900000D02*
X137100000Y-143890000D01*
X137100000Y-143890000D02*
X137100000Y-144500000D01*
X144200000Y-116100000D02*
X144200000Y-113800000D01*
X143600000Y-118740000D02*
X143600000Y-116700000D01*
X142300000Y-120040000D02*
X143600000Y-118740000D01*
X143600000Y-116700000D02*
X144200000Y-116100000D01*
X123000000Y-114000000D02*
X123299999Y-114299999D01*
X123299999Y-114299999D02*
X130600001Y-114299999D01*
X130600001Y-114299999D02*
X131300000Y-113600000D01*
X111200000Y-114000000D02*
X123000000Y-114000000D01*
D51*
X133900000Y-147350000D02*
X133900000Y-146100000D01*
D49*
X141905000Y-100500000D02*
X142000000Y-100405000D01*
X142000000Y-100405000D02*
X142000000Y-97600000D01*
X142000000Y-97600000D02*
X141700000Y-97300000D01*
X141700000Y-97300000D02*
X141700000Y-96300000D01*
X141700000Y-96300000D02*
X132400000Y-87000000D01*
X132400000Y-87000000D02*
X131000000Y-87000000D01*
X141905000Y-106705000D02*
X143100000Y-107900000D01*
X141905000Y-100500000D02*
X141905000Y-106705000D01*
X131300000Y-141700000D02*
X131724264Y-141700000D01*
X131724264Y-141700000D02*
X133900000Y-143875736D01*
X133900000Y-143875736D02*
X133900000Y-144500000D01*
X131400000Y-118800000D02*
X123000000Y-118800000D01*
X133600000Y-116600000D02*
X131400000Y-118800000D01*
X111200000Y-118800000D02*
X123000000Y-118800000D01*
X141675734Y-115200000D02*
X142700004Y-115200000D01*
X140200000Y-123020000D02*
X140200000Y-116675734D01*
X142300000Y-125120000D02*
X140200000Y-123020000D01*
X140200000Y-116675734D02*
X141675734Y-115200000D01*
X141905000Y-99700000D02*
X141905000Y-100500000D01*
X122900000Y-79900000D02*
X121940000Y-79900000D01*
X121940000Y-79900000D02*
X121300000Y-80540000D01*
X121300000Y-80540000D02*
X121300000Y-80900000D01*
X121300000Y-80900000D02*
X121000000Y-81200000D01*
X121000000Y-81200000D02*
X121000000Y-81499994D01*
D51*
X64500000Y-146100000D02*
X64500000Y-147350000D01*
D49*
X54100000Y-102900000D02*
X54524264Y-102900000D01*
X54524264Y-102900000D02*
X54529259Y-102895005D01*
X63505001Y-99294999D02*
X76094999Y-99294999D01*
X54529259Y-102895005D02*
X59904995Y-102895005D01*
X59904995Y-102895005D02*
X63505001Y-99294999D01*
X76094999Y-99294999D02*
X77000000Y-100200000D01*
X64500000Y-144500000D02*
X64500000Y-143890000D01*
X64500000Y-143890000D02*
X63710000Y-143100000D01*
X63710000Y-143100000D02*
X63700000Y-143100000D01*
X63700000Y-143100000D02*
X62200000Y-141600000D01*
X52300000Y-119800000D02*
X54600000Y-117500000D01*
X62200000Y-141600000D02*
X53400000Y-141600000D01*
X53400000Y-141600000D02*
X52300000Y-140500000D01*
X52300000Y-140500000D02*
X52300000Y-119800000D01*
X77600000Y-111790000D02*
X77600000Y-100800000D01*
X77600000Y-100800000D02*
X77000000Y-100200000D01*
X75700000Y-112380000D02*
X77010000Y-112380000D01*
X77010000Y-112380000D02*
X77600000Y-111790000D01*
X95100000Y-83400000D02*
X96139841Y-83400000D01*
X96139841Y-83400000D02*
X96710011Y-83970168D01*
X96710011Y-83970168D02*
X96710011Y-97210011D01*
X97200000Y-97700000D02*
X97200000Y-99500000D01*
X96710011Y-97210011D02*
X97200000Y-97700000D01*
D51*
X118700000Y-133500000D02*
X118700000Y-135250000D01*
X118700000Y-135250000D02*
X118750000Y-135300000D01*
D49*
X97200000Y-99500000D02*
X97200000Y-102400000D01*
D51*
X66100000Y-146100000D02*
X66100000Y-147350000D01*
D49*
X63500000Y-98400000D02*
X76300000Y-98400000D01*
X53000000Y-102000008D02*
X59899992Y-102000008D01*
X59899992Y-102000008D02*
X63500000Y-98400000D01*
X54600000Y-120040000D02*
X52800000Y-121840000D01*
X52800000Y-121840000D02*
X52800000Y-138100000D01*
X52800000Y-138100000D02*
X53800000Y-139100000D01*
X53800000Y-139100000D02*
X61310000Y-139100000D01*
X61310000Y-139100000D02*
X66100000Y-143890000D01*
X66100000Y-143890000D02*
X66100000Y-144500000D01*
X76300000Y-98400000D02*
X78100000Y-100200000D01*
X75700000Y-114920000D02*
X77180000Y-114920000D01*
X77180000Y-114920000D02*
X78100000Y-114000000D01*
X78100000Y-114000000D02*
X78100000Y-100200000D01*
X95100000Y-83900000D02*
X96060000Y-83900000D01*
X96060000Y-83900000D02*
X96300000Y-84140000D01*
X96400000Y-97900000D02*
X96400000Y-99500000D01*
X96300000Y-84140000D02*
X96300000Y-97800000D01*
X96300000Y-97800000D02*
X96400000Y-97900000D01*
D51*
X117200000Y-133500000D02*
X117200000Y-135250000D01*
X117200000Y-135250000D02*
X117250000Y-135300000D01*
D49*
X96400000Y-99500000D02*
X96400000Y-101700000D01*
D51*
X62900000Y-146100000D02*
X62900000Y-147350000D01*
D49*
X69200000Y-100600000D02*
X63200000Y-100600000D01*
X55500000Y-103500006D02*
X60299994Y-103500006D01*
X60299994Y-103500006D02*
X63200000Y-100600000D01*
X69200000Y-100600000D02*
X69200000Y-101024264D01*
X69200000Y-101024264D02*
X74205736Y-106030000D01*
X74205736Y-106030000D02*
X75700000Y-106030000D01*
X51800000Y-144349402D02*
X51800000Y-117760000D01*
X51800000Y-117760000D02*
X54600000Y-114960000D01*
X59890000Y-146700000D02*
X54150598Y-146700000D01*
X54150598Y-146700000D02*
X51800000Y-144349402D01*
X62700000Y-144500000D02*
X62090000Y-144500000D01*
X62090000Y-144500000D02*
X59890000Y-146700000D01*
X98000000Y-97400000D02*
X98000000Y-99500000D01*
X97120022Y-83800336D02*
X97120022Y-96520022D01*
X97120022Y-96520022D02*
X98000000Y-97400000D01*
X95100000Y-82900000D02*
X96219686Y-82900000D01*
X96219686Y-82900000D02*
X97120022Y-83800336D01*
D51*
X120200000Y-133500000D02*
X120200000Y-135250000D01*
X120200000Y-135250000D02*
X120250000Y-135300000D01*
D49*
X98000000Y-99500000D02*
X98000000Y-101700000D01*
D52*
X70400000Y-57100000D02*
X70400000Y-64900000D01*
X70400000Y-64900000D02*
X68500000Y-66800000D01*
X68500000Y-66800000D02*
X66400000Y-66800000D01*
D49*
X81900000Y-71200000D02*
X81900000Y-69000000D01*
X81900000Y-69000000D02*
X83200000Y-67700000D01*
X83200000Y-67700000D02*
X83200000Y-61300000D01*
X83200000Y-61300000D02*
X89300000Y-55200000D01*
X89300000Y-55200000D02*
X107300000Y-55200000D01*
X107300000Y-55200000D02*
X110080000Y-55200000D01*
X120700000Y-86600000D02*
X120700000Y-85491410D01*
X120700000Y-85491410D02*
X118300000Y-83091410D01*
X118300000Y-83091410D02*
X118300000Y-75800000D01*
X119000000Y-54600000D02*
X118300000Y-53900000D01*
X118300000Y-75800000D02*
X125200000Y-68900000D01*
X125200000Y-68900000D02*
X125200000Y-61720159D01*
X125200000Y-61720159D02*
X120879841Y-57400000D01*
X120879841Y-57400000D02*
X120100000Y-57400000D01*
X120100000Y-57400000D02*
X119000000Y-56300000D01*
X118300000Y-53900000D02*
X110320000Y-53900000D01*
X119000000Y-56300000D02*
X119000000Y-54600000D01*
X110320000Y-53900000D02*
X110080000Y-54140000D01*
X110080000Y-54140000D02*
X110080000Y-55200000D01*
X97275746Y-64600000D02*
X97700010Y-64600000D01*
X92900000Y-68975746D02*
X97275746Y-64600000D01*
X92900000Y-71200000D02*
X92900000Y-68975746D01*
X99100000Y-52800000D02*
X97700000Y-54200000D01*
X103700000Y-52800000D02*
X99100000Y-52800000D01*
X103700000Y-51800000D02*
X103700000Y-52800000D01*
X104400000Y-51100000D02*
X103700000Y-51800000D01*
X118100000Y-51100000D02*
X104400000Y-51100000D01*
X118100000Y-51100000D02*
X119000000Y-52000000D01*
X119000000Y-52000000D02*
X119000000Y-53960000D01*
X119000000Y-53960000D02*
X120240000Y-55200000D01*
X88599998Y-51200000D02*
X102900000Y-51200000D01*
X77500000Y-69000000D02*
X77500000Y-62299998D01*
X81900000Y-85600000D02*
X83200000Y-84300000D01*
X77500000Y-62299998D02*
X88599998Y-51200000D01*
X83200000Y-84300000D02*
X83200000Y-74700000D01*
X81900000Y-86600000D02*
X81900000Y-85600000D01*
X83200000Y-74700000D02*
X77500000Y-69000000D01*
X105500000Y-51800000D02*
X105500000Y-52800000D01*
X115160000Y-55200000D02*
X119654999Y-59694999D01*
X119654999Y-59694999D02*
X122594999Y-59694999D01*
X122594999Y-59694999D02*
X124705001Y-61805001D01*
X124705001Y-61805001D02*
X124705001Y-65894999D01*
X121100000Y-68600000D02*
X120700000Y-69000000D01*
X124705001Y-65894999D02*
X122000000Y-68600000D01*
X122000000Y-68600000D02*
X121100000Y-68600000D01*
X120700000Y-69000000D02*
X120700000Y-71200000D01*
X75700000Y-108570000D02*
X74330000Y-108570000D01*
X74330000Y-108570000D02*
X69900000Y-113000000D01*
X69900000Y-113000000D02*
X69900000Y-123200000D01*
X69900000Y-123200000D02*
X60360000Y-132740000D01*
X60360000Y-132740000D02*
X57140000Y-132740000D01*
X85900000Y-86600000D02*
X85900000Y-87560000D01*
X85910011Y-88710148D02*
X85700000Y-88920159D01*
X85900000Y-87560000D02*
X85910011Y-87570011D01*
X85910011Y-87570011D02*
X85910011Y-88710148D01*
X85700000Y-88920159D02*
X85700000Y-106600000D01*
X85700000Y-106600000D02*
X88300000Y-109200000D01*
D51*
X102300000Y-133500000D02*
X102300000Y-135250000D01*
X102300000Y-135250000D02*
X102250000Y-135300000D01*
D49*
X93600000Y-109200000D02*
X88300000Y-109200000D01*
X102250000Y-134550000D02*
X102250000Y-135300000D01*
X54600000Y-112420000D02*
X55900000Y-111120000D01*
X55900000Y-111120000D02*
X55900000Y-109000000D01*
X55900000Y-109000000D02*
X63400000Y-101500000D01*
X63400000Y-101500000D02*
X67400000Y-101500000D01*
X121800000Y-133500000D02*
X121800000Y-135250000D01*
X121800000Y-135250000D02*
X121750000Y-135300000D01*
X97800000Y-85800000D02*
X101400000Y-89400000D01*
X101400000Y-89400000D02*
X101400000Y-92700000D01*
X101400000Y-92700000D02*
X100400000Y-93700000D01*
X100400000Y-93700000D02*
X100400000Y-97300000D01*
X100400000Y-97300000D02*
X100400000Y-99500000D01*
X93000000Y-81400000D02*
X92599992Y-81400000D01*
X95100000Y-80400000D02*
X94000000Y-80400000D01*
X94000000Y-80400000D02*
X93000000Y-81400000D01*
X57140000Y-109880000D02*
X58342081Y-109880000D01*
X59572081Y-111110000D02*
X64700000Y-111110000D01*
X58342081Y-109880000D02*
X59572081Y-111110000D01*
X92600000Y-88400000D02*
X92600000Y-101300000D01*
X92600000Y-101300000D02*
X91900000Y-102000000D01*
X91900000Y-86600000D02*
X91900000Y-87700000D01*
X91900000Y-87700000D02*
X92600000Y-88400000D01*
D51*
X115700000Y-133500000D02*
X115700000Y-135250000D01*
X115700000Y-135250000D02*
X115750000Y-135300000D01*
D49*
X93600000Y-102000000D02*
X91900000Y-102000000D01*
X92850000Y-102000000D02*
X93600000Y-102000000D01*
X57140000Y-112420000D02*
X64660000Y-112420000D01*
X64660000Y-112420000D02*
X64700000Y-112380000D01*
X91400000Y-86600000D02*
X91400000Y-88100000D01*
X91200000Y-101400000D02*
X91200000Y-102500000D01*
X91400000Y-88100000D02*
X92100000Y-88800000D01*
X92100000Y-88800000D02*
X92100000Y-100500000D01*
X92100000Y-100500000D02*
X91200000Y-101400000D01*
X91200000Y-102500000D02*
X91500000Y-102800000D01*
D51*
X114200000Y-133500000D02*
X114200000Y-135250000D01*
X114200000Y-135250000D02*
X114250000Y-135300000D01*
D49*
X93600000Y-102800000D02*
X91500000Y-102800000D01*
X57140000Y-114960000D02*
X58342081Y-114960000D01*
X58342081Y-114960000D02*
X59652081Y-113650000D01*
X59652081Y-113650000D02*
X64700000Y-113650000D01*
X90900000Y-86600000D02*
X90900000Y-88500000D01*
X90900000Y-88500000D02*
X91600000Y-89200000D01*
X90700000Y-103200000D02*
X91100000Y-103600000D01*
X91600000Y-89200000D02*
X91600000Y-100100000D01*
X91600000Y-100100000D02*
X90700000Y-101000000D01*
X90700000Y-101000000D02*
X90700000Y-103200000D01*
D51*
X112800000Y-133500000D02*
X112800000Y-135250000D01*
X112800000Y-135250000D02*
X112750000Y-135300000D01*
D49*
X93600000Y-103600000D02*
X91100000Y-103600000D01*
X57140000Y-117500000D02*
X59720000Y-114920000D01*
X59720000Y-114920000D02*
X64700000Y-114920000D01*
X64660000Y-114960000D02*
X64700000Y-114920000D01*
X90400000Y-86600000D02*
X90400000Y-88900000D01*
X90400000Y-88900000D02*
X91100000Y-89600000D01*
X91100000Y-89600000D02*
X91100000Y-93191402D01*
X91100000Y-93191402D02*
X90200000Y-94091402D01*
X90200000Y-94091402D02*
X90200000Y-103900000D01*
X90200000Y-103900000D02*
X90700000Y-104400000D01*
D51*
X111300000Y-133500000D02*
X111300000Y-135250000D01*
X111300000Y-135250000D02*
X111250000Y-135300000D01*
D49*
X93600000Y-104400000D02*
X90700000Y-104400000D01*
X57140000Y-120040000D02*
X60990000Y-116190000D01*
X60990000Y-116190000D02*
X64700000Y-116190000D01*
X89400000Y-104300000D02*
X89400000Y-94600000D01*
X90300000Y-105200000D02*
X89400000Y-104300000D01*
D51*
X109700000Y-133500000D02*
X109700000Y-135250000D01*
X109700000Y-135250000D02*
X109750000Y-135300000D01*
D49*
X93600000Y-105200000D02*
X90300000Y-105200000D01*
X89400000Y-85000000D02*
X89600000Y-84800000D01*
X89400000Y-86600000D02*
X89400000Y-85000000D01*
X64700000Y-109840000D02*
X66540000Y-109840000D01*
X66540000Y-109840000D02*
X67900000Y-111200000D01*
X67900000Y-111200000D02*
X67900000Y-121200000D01*
X67900000Y-121200000D02*
X66500000Y-122600000D01*
X66500000Y-122600000D02*
X61800000Y-122600000D01*
X88700000Y-95724264D02*
X88700000Y-95300000D01*
X88705001Y-95729265D02*
X88700000Y-95724264D01*
X89900000Y-106000000D02*
X88705001Y-104805001D01*
X88705001Y-104805001D02*
X88705001Y-95729265D01*
D51*
X108300000Y-133500000D02*
X108300000Y-135250000D01*
X108300000Y-135250000D02*
X108250000Y-135300000D01*
D49*
X93600000Y-106000000D02*
X89900000Y-106000000D01*
X88900000Y-84300000D02*
X89100000Y-84100000D01*
X88900000Y-86600000D02*
X88900000Y-84300000D01*
X64700000Y-108570000D02*
X66270000Y-108570000D01*
X66270000Y-108570000D02*
X68400000Y-110700000D01*
X68400000Y-110700000D02*
X68400000Y-122900000D01*
X68400000Y-122900000D02*
X66180000Y-125120000D01*
X66180000Y-125120000D02*
X61800000Y-125120000D01*
X88105001Y-96429265D02*
X88100000Y-96424264D01*
X88105001Y-105405001D02*
X88105001Y-96429265D01*
X89500000Y-106800000D02*
X88105001Y-105405001D01*
X88100000Y-96424264D02*
X88100000Y-96000000D01*
D51*
X106800000Y-133500000D02*
X106800000Y-135250000D01*
X106800000Y-135250000D02*
X106750000Y-135300000D01*
D49*
X93600000Y-106800000D02*
X89500000Y-106800000D01*
X88400000Y-84299990D02*
X88200010Y-84100000D01*
X88400000Y-86600000D02*
X88400000Y-84299990D01*
X64700000Y-107300000D02*
X66500000Y-107300000D01*
X66000000Y-125900000D02*
X66000000Y-125940320D01*
X66500000Y-107300000D02*
X68900000Y-109700000D01*
X68900000Y-109700000D02*
X68900000Y-123000000D01*
X68900000Y-123000000D02*
X66000000Y-125900000D01*
X64280320Y-127660000D02*
X57140000Y-127660000D01*
X66000000Y-125940320D02*
X64280320Y-127660000D01*
X87500000Y-106000000D02*
X87500000Y-96700000D01*
X89100000Y-107600000D02*
X87500000Y-106000000D01*
D51*
X105300000Y-133500000D02*
X105300000Y-135250000D01*
X105300000Y-135250000D02*
X105250000Y-135300000D01*
D49*
X93600000Y-107600000D02*
X89100000Y-107600000D01*
X87900000Y-85000000D02*
X87700000Y-84800000D01*
X87900000Y-86600000D02*
X87900000Y-85000000D01*
X64700000Y-106030000D02*
X66930000Y-106030000D01*
X66930000Y-106030000D02*
X69400000Y-108500000D01*
X69400000Y-108500000D02*
X69400000Y-123120160D01*
X69400000Y-123120160D02*
X62320160Y-130200000D01*
X62320160Y-130200000D02*
X57140000Y-130200000D01*
X86400000Y-86600000D02*
X86400000Y-88800000D01*
X86400000Y-88800000D02*
X86200000Y-89000000D01*
X86200000Y-89000000D02*
X86200000Y-105900000D01*
X86200000Y-105900000D02*
X88700000Y-108400000D01*
D51*
X103700000Y-133500000D02*
X103700000Y-135250000D01*
X103700000Y-135250000D02*
X103750000Y-135300000D01*
D49*
X93600000Y-108400000D02*
X88700000Y-108400000D01*
X75700000Y-109840000D02*
X74460000Y-109840000D01*
X58420000Y-135280000D02*
X57140000Y-135280000D01*
X74460000Y-109840000D02*
X70400000Y-113900000D01*
X70400000Y-113900000D02*
X70400000Y-123300000D01*
X70400000Y-123300000D02*
X58420000Y-135280000D01*
X85400000Y-86600000D02*
X85400000Y-88600000D01*
X85400000Y-88600000D02*
X85200000Y-88800000D01*
X85200000Y-88800000D02*
X85200000Y-107300000D01*
X85200000Y-107300000D02*
X87900000Y-110000000D01*
D51*
X100800000Y-133500000D02*
X100800000Y-135250000D01*
X100800000Y-135250000D02*
X100750000Y-135300000D01*
D49*
X93600000Y-110000000D02*
X87900000Y-110000000D01*
X100750000Y-134550000D02*
X100750000Y-135300000D01*
X57140000Y-137820000D02*
X60080000Y-137820000D01*
X60080000Y-137820000D02*
X63100000Y-134800000D01*
X63100000Y-134800000D02*
X63100000Y-131200000D01*
X63100000Y-131200000D02*
X70900000Y-123400000D01*
X70900000Y-123400000D02*
X70900000Y-114500000D01*
X70900000Y-114500000D02*
X74290000Y-111110000D01*
X74290000Y-111110000D02*
X75700000Y-111110000D01*
X84900000Y-86600000D02*
X84900000Y-88500000D01*
X84900000Y-88500000D02*
X84700000Y-88700000D01*
X84700000Y-88700000D02*
X84700000Y-108000000D01*
X84700000Y-108000000D02*
X87500000Y-110800000D01*
D51*
X99200000Y-133500000D02*
X99200000Y-135250000D01*
X99200000Y-135250000D02*
X99250000Y-135300000D01*
D49*
X93600000Y-110800000D02*
X87500000Y-110800000D01*
X99250000Y-134550000D02*
X99250000Y-135300000D01*
X65800000Y-140300000D02*
X63600000Y-138100000D01*
X63600000Y-138100000D02*
X63600000Y-131300000D01*
X63600000Y-131300000D02*
X71400000Y-123500000D01*
X71400000Y-123500000D02*
X71400000Y-116400000D01*
X71400000Y-116400000D02*
X74150000Y-113650000D01*
X74150000Y-113650000D02*
X75700000Y-113650000D01*
X83900000Y-86600000D02*
X83900000Y-87700000D01*
X84200000Y-88000000D02*
X84200000Y-108700000D01*
X83900000Y-87700000D02*
X84200000Y-88000000D01*
X84200000Y-108700000D02*
X87100000Y-111600000D01*
D51*
X97800000Y-133500000D02*
X97800000Y-135250000D01*
X97800000Y-135250000D02*
X97750000Y-135300000D01*
D49*
X93600000Y-111600000D02*
X87100000Y-111600000D01*
X97750000Y-134550000D02*
X97750000Y-135300000D01*
X83400000Y-86600000D02*
X83400000Y-88000000D01*
X83400000Y-88000000D02*
X83700000Y-88300000D01*
X83700000Y-88300000D02*
X83700000Y-109400000D01*
X83700000Y-109400000D02*
X86700000Y-112400000D01*
D51*
X96300000Y-133500000D02*
X96300000Y-135250000D01*
X96300000Y-135250000D02*
X96250000Y-135300000D01*
D49*
X93600000Y-112400000D02*
X86700000Y-112400000D01*
X96250000Y-134550000D02*
X96250000Y-135300000D01*
X51300000Y-145599998D02*
X52400002Y-146700000D01*
X51300000Y-109600000D02*
X51300000Y-145599998D01*
X53900000Y-107000000D02*
X51300000Y-109600000D01*
X69590000Y-102500000D02*
X63700000Y-102500000D01*
X75700000Y-107300000D02*
X74390000Y-107300000D01*
X74390000Y-107300000D02*
X69590000Y-102500000D01*
X82900000Y-86600000D02*
X82900000Y-88300000D01*
X82900000Y-88300000D02*
X83200000Y-88600000D01*
X83200000Y-88600000D02*
X83200000Y-110100000D01*
X83200000Y-110100000D02*
X86300000Y-113200000D01*
D51*
X94800000Y-133500000D02*
X94800000Y-135250000D01*
X94800000Y-135250000D02*
X94750000Y-135300000D01*
D49*
X93600000Y-113200000D02*
X86300000Y-113200000D01*
X94750000Y-134550000D02*
X94750000Y-135300000D01*
X82400000Y-86600000D02*
X82400000Y-88600000D01*
X82400000Y-88600000D02*
X82700000Y-88900000D01*
X82700000Y-88900000D02*
X82700000Y-110800000D01*
X82700000Y-110800000D02*
X85900000Y-114000000D01*
D51*
X93300000Y-133500000D02*
X93300000Y-135250000D01*
X93300000Y-135250000D02*
X93250000Y-135300000D01*
D49*
X93600000Y-114000000D02*
X85900000Y-114000000D01*
X93250000Y-134550000D02*
X93250000Y-135300000D01*
X64700000Y-117460000D02*
X63140000Y-117460000D01*
X63140000Y-117460000D02*
X59300000Y-121300000D01*
X55880000Y-121300000D02*
X54600000Y-122580000D01*
X59300000Y-121300000D02*
X55880000Y-121300000D01*
X83800000Y-125500000D02*
X76200000Y-125500000D01*
X76200000Y-125500000D02*
X74600000Y-123900000D01*
X91800000Y-133500000D02*
X83800000Y-125500000D01*
X91800000Y-133500000D02*
X91800000Y-135250000D01*
X91800000Y-135250000D02*
X91750000Y-135300000D01*
X85600000Y-114800000D02*
X84600000Y-114800000D01*
X93600000Y-114800000D02*
X85600000Y-114800000D01*
X85600000Y-114800000D02*
X85500000Y-114800000D01*
X78400000Y-87000000D02*
X78400000Y-85200000D01*
X84600000Y-114800000D02*
X82200000Y-112400000D01*
X82200000Y-90800000D02*
X78400000Y-87000000D01*
X82200000Y-112400000D02*
X82200000Y-90800000D01*
X78400000Y-85200000D02*
X78700000Y-84900000D01*
X78700000Y-84900000D02*
X79700000Y-84900000D01*
X64700000Y-118730000D02*
X62870000Y-118730000D01*
X55820000Y-123900000D02*
X54600000Y-125120000D01*
X62870000Y-118730000D02*
X57700000Y-123900000D01*
X57700000Y-123900000D02*
X55820000Y-123900000D01*
X83200000Y-126400000D02*
X75100000Y-126400000D01*
X90300000Y-133500000D02*
X83200000Y-126400000D01*
X90300000Y-133500000D02*
X90300000Y-135250000D01*
X90300000Y-135250000D02*
X90250000Y-135300000D01*
X85500000Y-115600000D02*
X93600000Y-115600000D01*
X85500000Y-115600000D02*
X85100000Y-115600000D01*
X84100000Y-115600000D02*
X85500000Y-115600000D01*
X79700000Y-84400000D02*
X78600000Y-84400000D01*
X78600000Y-84400000D02*
X77900000Y-85100000D01*
X77900000Y-85100000D02*
X77900000Y-87079840D01*
X77900000Y-87079840D02*
X81700000Y-90879840D01*
X81700000Y-90879840D02*
X81700000Y-113200000D01*
X81700000Y-113200000D02*
X84100000Y-115600000D01*
X64700000Y-120000000D02*
X62600000Y-120000000D01*
X57900000Y-126400000D02*
X55860000Y-126400000D01*
X55860000Y-126400000D02*
X54600000Y-127660000D01*
X62600000Y-120000000D02*
X58800000Y-123800000D01*
X58800000Y-123800000D02*
X58800000Y-125500000D01*
X58800000Y-125500000D02*
X57900000Y-126400000D01*
X88800000Y-133500000D02*
X84500000Y-129200000D01*
X84500000Y-129200000D02*
X76324264Y-129200000D01*
X76324264Y-129200000D02*
X76124264Y-129000000D01*
X76124264Y-129000000D02*
X75700000Y-129000000D01*
X88800000Y-133500000D02*
X88800000Y-135250000D01*
X88800000Y-135250000D02*
X88750000Y-135300000D01*
X85500000Y-116400000D02*
X93600000Y-116400000D01*
X83800000Y-116400000D02*
X85500000Y-116400000D01*
X85500000Y-116400000D02*
X84700000Y-116400000D01*
X79700000Y-83900000D02*
X78474002Y-83900000D01*
X77400000Y-87159680D02*
X81200000Y-90959680D01*
X78474002Y-83900000D02*
X77400000Y-84974002D01*
X81200000Y-90959680D02*
X81200000Y-113800000D01*
X77400000Y-84974002D02*
X77400000Y-87159680D01*
X81200000Y-113800000D02*
X83800000Y-116400000D01*
X66700000Y-131500000D02*
X66700000Y-131400000D01*
X66700000Y-131400000D02*
X73900000Y-124200000D01*
X73900000Y-124200000D02*
X73900000Y-121700000D01*
X73900000Y-121700000D02*
X74330000Y-121270000D01*
X74330000Y-121270000D02*
X75700000Y-121270000D01*
X66700000Y-131500000D02*
X67200000Y-131500000D01*
X67200000Y-131500000D02*
X69000000Y-129700000D01*
X69000000Y-129700000D02*
X83500000Y-129700000D01*
X83500000Y-129700000D02*
X87300000Y-133500000D01*
X87300000Y-133500000D02*
X87300000Y-135250000D01*
X87300000Y-135250000D02*
X87250000Y-135300000D01*
X85100000Y-117200000D02*
X83400000Y-117200000D01*
X93600000Y-117200000D02*
X85100000Y-117200000D01*
X85100000Y-117200000D02*
X84300000Y-117200000D01*
X83400000Y-117200000D02*
X80700000Y-114500000D01*
X80700000Y-114500000D02*
X80700000Y-91100000D01*
X80700000Y-91100000D02*
X77000000Y-87400000D01*
X77000000Y-87400000D02*
X76800000Y-87400000D01*
X79700000Y-83400000D02*
X81300000Y-83400000D01*
X75700000Y-120000000D02*
X74000000Y-120000000D01*
X74000000Y-120000000D02*
X73400000Y-120600000D01*
X73400000Y-120600000D02*
X73400000Y-123900000D01*
X73400000Y-123900000D02*
X65700000Y-131600000D01*
X65700000Y-131600000D02*
X65700000Y-134000000D01*
X85800000Y-133500000D02*
X82500000Y-130200000D01*
X82500000Y-130200000D02*
X69100000Y-130200000D01*
X69100000Y-130200000D02*
X66300000Y-133000000D01*
X66300000Y-133000000D02*
X66300000Y-133700000D01*
X66300000Y-133700000D02*
X66000000Y-134000000D01*
X66000000Y-134000000D02*
X65700000Y-134000000D01*
X85800000Y-133500000D02*
X85800000Y-135250000D01*
X85800000Y-135250000D02*
X85750000Y-135300000D01*
X85000000Y-118000000D02*
X83200000Y-118000000D01*
X93600000Y-118000000D02*
X85000000Y-118000000D01*
X85000000Y-118000000D02*
X83900000Y-118000000D01*
X83200000Y-118000000D02*
X80200000Y-115000000D01*
X80200000Y-115000000D02*
X80200000Y-92100000D01*
X80200000Y-92100000D02*
X76800000Y-88700000D01*
X76800000Y-88700000D02*
X76800000Y-88200000D01*
X80660000Y-81900000D02*
X81300000Y-82540000D01*
X79700000Y-81900000D02*
X80660000Y-81900000D01*
X81300000Y-82540000D02*
X81300000Y-82600000D01*
X75700000Y-118730000D02*
X73870000Y-118730000D01*
X73870000Y-118730000D02*
X72900000Y-119700000D01*
X72900000Y-119700000D02*
X72900000Y-123800000D01*
X65094999Y-135194999D02*
X66500000Y-136600000D01*
X72900000Y-123800000D02*
X65094999Y-131605001D01*
X65094999Y-131605001D02*
X65094999Y-135194999D01*
X84300000Y-133500000D02*
X81500000Y-130700000D01*
X81500000Y-130700000D02*
X69200000Y-130700000D01*
X69200000Y-130700000D02*
X66800000Y-133100000D01*
X66800000Y-133100000D02*
X66800000Y-136300000D01*
X66800000Y-136300000D02*
X66500000Y-136600000D01*
X84300000Y-133500000D02*
X84300000Y-135250000D01*
X84300000Y-135250000D02*
X84250000Y-135300000D01*
X84200000Y-118800000D02*
X82700000Y-118800000D01*
X93600000Y-118800000D02*
X84200000Y-118800000D01*
X84200000Y-118800000D02*
X83500000Y-118800000D01*
X82700000Y-118800000D02*
X79700000Y-115800000D01*
X79700000Y-115800000D02*
X79700000Y-92195402D01*
X79700000Y-92195402D02*
X75300000Y-87795402D01*
X75300000Y-87795402D02*
X75300000Y-87200000D01*
X79700000Y-81400000D02*
X80800000Y-81400000D01*
X80800000Y-81400000D02*
X81200000Y-81800000D01*
X81200000Y-81800000D02*
X81900000Y-81800000D01*
X75700000Y-117460000D02*
X74240000Y-117460000D01*
X64600000Y-136500000D02*
X67100000Y-139000000D01*
X74240000Y-117460000D02*
X72400000Y-119300000D01*
X72400000Y-119300000D02*
X72400000Y-123700000D01*
X72400000Y-123700000D02*
X64600000Y-131500000D01*
X64600000Y-131500000D02*
X64600000Y-136500000D01*
X82800000Y-133500000D02*
X80500000Y-131200000D01*
X80500000Y-131200000D02*
X69300000Y-131200000D01*
X69300000Y-131200000D02*
X67299999Y-133200001D01*
X67299999Y-133200001D02*
X67299999Y-138800001D01*
X67299999Y-138800001D02*
X67100000Y-139000000D01*
X82800000Y-133500000D02*
X82800000Y-135250000D01*
X82800000Y-135250000D02*
X82750000Y-135300000D01*
X84200000Y-119600000D02*
X93600000Y-119600000D01*
X82500000Y-119600000D02*
X84200000Y-119600000D01*
X84200000Y-119600000D02*
X83100000Y-119600000D01*
X74400000Y-87500000D02*
X79289990Y-92389990D01*
X79289990Y-92389990D02*
X79289990Y-116389990D01*
X79289990Y-116389990D02*
X82500000Y-119600000D01*
X81200000Y-80900000D02*
X81300000Y-81000000D01*
X79700000Y-80900000D02*
X81200000Y-80900000D01*
X75700000Y-116190000D02*
X74210000Y-116190000D01*
X74210000Y-116190000D02*
X71900000Y-118500000D01*
X71900000Y-118500000D02*
X71900000Y-123600000D01*
X71900000Y-123600000D02*
X64100000Y-131400000D01*
X64100000Y-131400000D02*
X64100000Y-137600000D01*
X64100000Y-137600000D02*
X67600000Y-141100000D01*
X81300000Y-133500000D02*
X79500000Y-131700000D01*
X79500000Y-131700000D02*
X69400000Y-131700000D01*
X69400000Y-131700000D02*
X67799999Y-133300001D01*
X67799999Y-133300001D02*
X67799999Y-140900001D01*
X67799999Y-140900001D02*
X67600000Y-141100000D01*
X82400000Y-120400000D02*
X93600000Y-120400000D01*
X81800000Y-120400000D02*
X82400000Y-120400000D01*
X73794999Y-88594999D02*
X78800000Y-93600000D01*
X78800000Y-93600000D02*
X78800000Y-117400000D01*
X78800000Y-117400000D02*
X81800000Y-120400000D01*
X81300000Y-133500000D02*
X81300000Y-135250000D01*
X81300000Y-135250000D02*
X81250000Y-135300000D01*
X79700000Y-80400000D02*
X81000000Y-80400000D01*
X81000000Y-80400000D02*
X81300000Y-80100000D01*
X97800000Y-84000000D02*
X104900000Y-91100000D01*
X104900000Y-91100000D02*
X104900000Y-93850000D01*
X104900000Y-93850000D02*
X104850000Y-93900000D01*
X104850000Y-94650000D02*
X104850000Y-93900000D01*
X79800000Y-133500000D02*
X78500000Y-132200000D01*
X69500000Y-132200000D02*
X68299999Y-133400001D01*
X78500000Y-132200000D02*
X69500000Y-132200000D01*
X68100000Y-142500000D02*
X68100000Y-142500002D01*
X68299999Y-133400001D02*
X68299999Y-142300001D01*
X68299999Y-142300001D02*
X68100000Y-142500000D01*
X82300000Y-123700000D02*
X84000000Y-122000000D01*
X84000000Y-122000000D02*
X93900000Y-122000000D01*
X93900000Y-122000000D02*
X103605001Y-112294999D01*
X103605001Y-112294999D02*
X103605001Y-100715001D01*
X103605001Y-100715001D02*
X103600000Y-100710000D01*
X103600000Y-100710000D02*
X103600000Y-99500000D01*
X79800000Y-133500000D02*
X79800000Y-135250000D01*
X79800000Y-135250000D02*
X79750000Y-135300000D01*
X104850000Y-94650000D02*
X103600000Y-95900000D01*
X103600000Y-95900000D02*
X103600000Y-99500000D01*
X95100000Y-79400000D02*
X93200012Y-79400000D01*
X103600000Y-98500998D02*
X103600000Y-99500000D01*
X103750000Y-99350000D02*
X103600000Y-99500000D01*
D51*
X111200000Y-104400000D02*
X112551456Y-104400000D01*
X112551456Y-104400000D02*
X113251456Y-103700000D01*
X113251456Y-103700000D02*
X117500000Y-103700000D01*
X117500000Y-103700000D02*
X119700000Y-101500000D01*
X120300000Y-95280000D02*
X121900000Y-95280000D01*
X119700000Y-101500000D02*
X119700000Y-95880000D01*
X119700000Y-95880000D02*
X120300000Y-95280000D01*
X81000000Y-124700000D02*
X92600000Y-124700000D01*
X92600000Y-124700000D02*
X105800000Y-111500000D01*
X108000000Y-104400000D02*
X111200000Y-104400000D01*
X105800000Y-111500000D02*
X105800000Y-106600000D01*
X105800000Y-106600000D02*
X108000000Y-104400000D01*
X78300000Y-133500000D02*
X77900000Y-133100000D01*
X77900000Y-133100000D02*
X69400000Y-133100000D01*
X69400000Y-133100000D02*
X68900000Y-133600000D01*
X68900000Y-133600000D02*
X68900000Y-142900000D01*
X68900000Y-142900000D02*
X67599994Y-144200006D01*
X67599994Y-144200006D02*
X67599994Y-146700000D01*
X78300000Y-133500000D02*
X78300000Y-135250000D01*
X78300000Y-135250000D02*
X78250000Y-135300000D01*
D49*
X143000000Y-90804999D02*
X142410010Y-90215009D01*
X142410010Y-90215009D02*
X142410010Y-85050010D01*
X142410010Y-85050010D02*
X140260000Y-82900000D01*
X114900002Y-82900000D02*
X115800002Y-83800000D01*
X111400000Y-82900000D02*
X114900002Y-82900000D01*
X109900000Y-84400000D02*
X111400000Y-82900000D01*
X107500000Y-84400000D02*
X109900000Y-84400000D01*
X107500000Y-84400000D02*
X106400000Y-84400000D01*
X106400000Y-84400000D02*
X105400000Y-85400000D01*
X105400000Y-85400000D02*
X105400000Y-89320160D01*
X105400000Y-89320160D02*
X107900000Y-91820160D01*
X107900000Y-91820160D02*
X107900000Y-97800000D01*
X107900000Y-97800000D02*
X108400000Y-98300000D01*
X108400000Y-98300000D02*
X108400000Y-99500000D01*
X144000000Y-90804999D02*
X144000000Y-90380735D01*
X144000000Y-90380735D02*
X143649999Y-90030734D01*
X143649999Y-90030734D02*
X143649999Y-83749999D01*
X143649999Y-83749999D02*
X142800000Y-82900000D01*
X115400000Y-84475736D02*
X115400000Y-85000000D01*
X114319263Y-83394999D02*
X115400000Y-84475736D01*
X111484841Y-83394999D02*
X114319263Y-83394999D01*
X109979840Y-84900000D02*
X111484841Y-83394999D01*
X107500000Y-84900000D02*
X109979840Y-84900000D01*
X107500000Y-84900000D02*
X106600000Y-84900000D01*
X106110008Y-89450328D02*
X108400000Y-91740320D01*
X106600000Y-84900000D02*
X106100000Y-85400000D01*
X109990000Y-102000000D02*
X111200000Y-102000000D01*
X106100000Y-85400000D02*
X106110008Y-85410008D01*
X106110008Y-85410008D02*
X106110008Y-89450328D01*
X108400000Y-91740320D02*
X108400000Y-97600000D01*
X109110008Y-98310008D02*
X109110008Y-101120008D01*
X108400000Y-97600000D02*
X109110008Y-98310008D01*
X109110008Y-101120008D02*
X109990000Y-102000000D01*
X148255000Y-96251576D02*
X148328795Y-96177781D01*
X148255000Y-100500000D02*
X148255000Y-96251576D01*
X148255000Y-102055000D02*
X148600000Y-102400000D01*
X148255000Y-100500000D02*
X148255000Y-102055000D01*
X142300000Y-145440000D02*
X143560000Y-146700000D01*
X148600000Y-146700000D02*
X148800000Y-146500000D01*
X143560000Y-146700000D02*
X148600000Y-146700000D01*
X96400000Y-122900000D02*
X96400000Y-124100000D01*
X96400000Y-124100000D02*
X104800000Y-132500000D01*
X104800000Y-132500000D02*
X129360000Y-132500000D01*
X129360000Y-132500000D02*
X142300000Y-145440000D01*
X122900000Y-76900000D02*
X121600000Y-76900000D01*
X121600000Y-76900000D02*
X121000000Y-77500000D01*
X121000000Y-77500000D02*
X121000000Y-78100000D01*
X147200000Y-97200000D02*
X147000000Y-97400000D01*
X147000000Y-97400000D02*
X147000000Y-100485000D01*
X147000000Y-100485000D02*
X146985000Y-100500000D01*
X146985000Y-102385010D02*
X147200000Y-102600010D01*
X146985000Y-100500000D02*
X146985000Y-102385010D01*
X97200000Y-122900000D02*
X97200000Y-124100000D01*
X97200000Y-124100000D02*
X105100000Y-132000000D01*
X105100000Y-132000000D02*
X131400000Y-132000000D01*
X131400000Y-132000000D02*
X142300000Y-142900000D01*
X148400000Y-144000000D02*
X148200000Y-144200000D01*
X142300000Y-142900000D02*
X143600000Y-144200000D01*
X143600000Y-144200000D02*
X148200000Y-144200000D01*
X119300000Y-76540000D02*
X119300000Y-78200000D01*
X122900000Y-73900000D02*
X121940000Y-73900000D01*
X121940000Y-73900000D02*
X119300000Y-76540000D01*
X122900000Y-72900000D02*
X123940319Y-72900000D01*
X123940319Y-72900000D02*
X124260338Y-72579980D01*
X124260338Y-72579980D02*
X126731079Y-72579980D01*
X126731079Y-72579980D02*
X128900000Y-74748901D01*
X128900000Y-74748901D02*
X128900000Y-79900000D01*
X128900000Y-79900000D02*
X145900000Y-96900000D01*
X145900000Y-96900000D02*
X145900000Y-100315000D01*
X145900000Y-100315000D02*
X145715000Y-100500000D01*
X98000000Y-122900000D02*
X98000000Y-124100000D01*
X105400000Y-131500000D02*
X133440000Y-131500000D01*
X98000000Y-124100000D02*
X105400000Y-131500000D01*
X133440000Y-131500000D02*
X142300000Y-140360000D01*
X143540000Y-141600000D02*
X148000000Y-141600000D01*
X142300000Y-140360000D02*
X143540000Y-141600000D01*
X145700000Y-102400000D02*
X145700000Y-100515000D01*
X145700000Y-100515000D02*
X145715000Y-100500000D01*
X122900000Y-74400000D02*
X123900000Y-74400000D01*
X123900000Y-74400000D02*
X124200000Y-74100000D01*
X124200000Y-74100000D02*
X124200000Y-73800000D01*
X124200000Y-73800000D02*
X124600000Y-73400000D01*
X124600000Y-73400000D02*
X126391418Y-73400000D01*
X127900000Y-80100000D02*
X144500000Y-96700000D01*
X126391418Y-73400000D02*
X127900000Y-74908582D01*
X127900000Y-74908582D02*
X127900000Y-80100000D01*
X144500000Y-96700000D02*
X144500000Y-100445000D01*
X144500000Y-100445000D02*
X144445000Y-100500000D01*
X144445000Y-102355000D02*
X144300000Y-102500000D01*
X144445000Y-100500000D02*
X144445000Y-102355000D01*
X98800000Y-122900000D02*
X98800000Y-124100000D01*
X135480000Y-131000000D02*
X142300000Y-137820000D01*
X98800000Y-124100000D02*
X105700000Y-131000000D01*
X105700000Y-131000000D02*
X135480000Y-131000000D01*
X122900000Y-80400000D02*
X124125998Y-80400000D01*
X124125998Y-80400000D02*
X124525998Y-80000000D01*
X124525998Y-80000000D02*
X126600000Y-80000000D01*
X126600000Y-80000000D02*
X143100000Y-96500000D01*
X143100000Y-96500000D02*
X143100000Y-100425000D01*
X143100000Y-100425000D02*
X143175000Y-100500000D01*
X143175000Y-102325000D02*
X142900000Y-102600000D01*
X143175000Y-100500000D02*
X143175000Y-102325000D01*
X99600000Y-122900000D02*
X99600000Y-124110000D01*
X99600000Y-124110000D02*
X105990000Y-130500000D01*
X105990000Y-130500000D02*
X137520000Y-130500000D01*
X137520000Y-130500000D02*
X142300000Y-135280000D01*
X147900000Y-104300000D02*
X146985000Y-105215000D01*
X146985000Y-105215000D02*
X146985000Y-111500000D01*
X120199998Y-77640002D02*
X120199998Y-78100000D01*
X121940000Y-75900000D02*
X120199998Y-77640002D01*
X122900000Y-75900000D02*
X121940000Y-75900000D01*
X100400000Y-122900000D02*
X100400000Y-124110000D01*
X100400000Y-124110000D02*
X106290000Y-130000000D01*
X106290000Y-130000000D02*
X139560000Y-130000000D01*
X139560000Y-130000000D02*
X142300000Y-132740000D01*
X142300000Y-132740000D02*
X143560000Y-134000000D01*
X148100000Y-131600000D02*
X148100000Y-114000000D01*
X143560000Y-134000000D02*
X145700000Y-134000000D01*
X145700000Y-134000000D02*
X148100000Y-131600000D01*
X148100000Y-114000000D02*
X146985000Y-112885000D01*
X146985000Y-112885000D02*
X146985000Y-111500000D01*
X146395000Y-103400000D02*
X146395000Y-103824264D01*
X146395000Y-103824264D02*
X145715000Y-104504264D01*
X145715000Y-104504264D02*
X145715000Y-111500000D01*
X101200000Y-122900000D02*
X101200000Y-124110000D01*
X101200000Y-124110000D02*
X106590000Y-129500000D01*
X141097919Y-130200000D02*
X142300000Y-130200000D01*
X106590000Y-129500000D02*
X140397919Y-129500000D01*
X140397919Y-129500000D02*
X141097919Y-130200000D01*
X142300000Y-130200000D02*
X143130598Y-130200000D01*
X143130598Y-130200000D02*
X144430598Y-131500000D01*
X144430598Y-131500000D02*
X145600000Y-131500000D01*
X145600000Y-131500000D02*
X147600000Y-129500000D01*
X147600000Y-129500000D02*
X147600000Y-114800000D01*
X147600000Y-114800000D02*
X145715000Y-112915000D01*
X145715000Y-112915000D02*
X145715000Y-111500000D01*
X120424264Y-79600000D02*
X119100000Y-79600000D01*
X121605001Y-78419263D02*
X120424264Y-79600000D01*
X121605001Y-77734999D02*
X121605001Y-78419263D01*
X121940000Y-77400000D02*
X121605001Y-77734999D01*
X122900000Y-77400000D02*
X121940000Y-77400000D01*
X122900000Y-73400000D02*
X124020159Y-73400000D01*
X128400000Y-80000000D02*
X145200000Y-96800000D01*
X124020159Y-73400000D02*
X124430169Y-72989990D01*
X124430169Y-72989990D02*
X126561248Y-72989990D01*
X126561248Y-72989990D02*
X128400000Y-74828742D01*
X145200000Y-96800000D02*
X145200000Y-98700000D01*
X128400000Y-74828742D02*
X128400000Y-80000000D01*
X145000000Y-103400000D02*
X144500000Y-103900000D01*
X144500000Y-103900000D02*
X144500000Y-111445000D01*
X144500000Y-111445000D02*
X144445000Y-111500000D01*
X142300000Y-127660000D02*
X140960000Y-129000000D01*
X140960000Y-129000000D02*
X106900000Y-129000000D01*
X106900000Y-129000000D02*
X102800000Y-124900000D01*
X102800000Y-124900000D02*
X102800000Y-122900000D01*
X142300000Y-127660000D02*
X143540000Y-128900000D01*
X143540000Y-128900000D02*
X145309402Y-128900000D01*
X147100000Y-127109402D02*
X147100000Y-115600000D01*
X144445000Y-112945000D02*
X144445000Y-111500000D01*
X145309402Y-128900000D02*
X147100000Y-127109402D01*
X147100000Y-115600000D02*
X144445000Y-112945000D01*
X122900000Y-76400000D02*
X124275000Y-76400000D01*
X124275000Y-76400000D02*
X124675000Y-76800000D01*
X124675000Y-76800000D02*
X126391402Y-76800000D01*
X126391402Y-76800000D02*
X127005001Y-77413599D01*
X127005001Y-77413599D02*
X127005001Y-79805001D01*
X143800000Y-96600000D02*
X143800000Y-98700000D01*
X127005001Y-79805001D02*
X143800000Y-96600000D01*
X143175000Y-111500000D02*
X143175000Y-109825000D01*
X143175000Y-109825000D02*
X143800000Y-109200000D01*
X143800000Y-109200000D02*
X143800000Y-103800000D01*
X143800000Y-103800000D02*
X143400000Y-103400000D01*
X103600000Y-122900000D02*
X103600000Y-124110000D01*
X103600000Y-124110000D02*
X107990000Y-128500000D01*
X107990000Y-128500000D02*
X137200000Y-128500000D01*
X137200000Y-128500000D02*
X139500000Y-126200000D01*
X139500000Y-126200000D02*
X139500000Y-118800000D01*
X139500000Y-118800000D02*
X139500000Y-116200000D01*
X139500000Y-116200000D02*
X143175000Y-112525000D01*
X143175000Y-112525000D02*
X143175000Y-111500000D01*
X130600000Y-86300000D02*
X132299998Y-86300000D01*
X132299998Y-86300000D02*
X142400000Y-96400002D01*
X142400000Y-96400002D02*
X142400000Y-96800000D01*
X141900000Y-109700000D02*
X141900000Y-111495000D01*
X141900000Y-111495000D02*
X141905000Y-111500000D01*
X120600000Y-80275736D02*
X120600000Y-80700000D01*
X121475736Y-79400000D02*
X120600000Y-80275736D01*
X122900000Y-79400000D02*
X121475736Y-79400000D01*
X141905000Y-111500000D02*
X141905000Y-113195000D01*
X141905000Y-113195000D02*
X138500000Y-116600000D01*
X138500000Y-116600000D02*
X138500000Y-118800000D01*
X138500000Y-125100000D02*
X138500000Y-118800000D01*
X104400000Y-124110000D02*
X108290000Y-128000000D01*
X104400000Y-122900000D02*
X104400000Y-124110000D01*
X108290000Y-128000000D02*
X135600000Y-128000000D01*
X135600000Y-128000000D02*
X138500000Y-125100000D01*
X141905000Y-111500000D02*
X141905000Y-112300000D01*
X104400000Y-122900000D02*
X104400000Y-123899002D01*
X130600000Y-87700000D02*
X132520160Y-87700000D01*
X132520160Y-87700000D02*
X141100000Y-96279840D01*
X141100000Y-96279840D02*
X141100000Y-97775736D01*
X141100000Y-97775736D02*
X141300000Y-97975736D01*
X141300000Y-97975736D02*
X141300000Y-98400000D01*
X140700000Y-109700000D02*
X140700000Y-111435000D01*
X140700000Y-111435000D02*
X140635000Y-111500000D01*
X140635000Y-111500000D02*
X140635000Y-113865000D01*
X140635000Y-113865000D02*
X137500000Y-117000000D01*
X137500000Y-117000000D02*
X137500000Y-118800000D01*
X134100000Y-127500000D02*
X137500000Y-124100000D01*
X105200000Y-124110000D02*
X108590000Y-127500000D01*
X105200000Y-122900000D02*
X105200000Y-124110000D01*
X108590000Y-127500000D02*
X134100000Y-127500000D01*
X137500000Y-124100000D02*
X137500000Y-118800000D01*
X105200000Y-122900000D02*
X105200000Y-123899002D01*
X122900000Y-80900000D02*
X121940000Y-80900000D01*
X121940000Y-80900000D02*
X121605002Y-81234998D01*
X121605002Y-81234998D02*
X121605002Y-81794998D01*
X121605002Y-81794998D02*
X121100000Y-82300000D01*
X121100000Y-82300000D02*
X120600000Y-82300000D01*
X139900010Y-96300010D02*
X139900010Y-96800000D01*
X132700000Y-89100000D02*
X139900010Y-96300010D01*
X130479840Y-89100000D02*
X132700000Y-89100000D01*
X122900000Y-82900000D02*
X124279840Y-82900000D01*
X124279840Y-82900000D02*
X130479840Y-89100000D01*
X139400000Y-109700000D02*
X139400000Y-111465000D01*
X139400000Y-111465000D02*
X139365000Y-111500000D01*
X139365000Y-111500000D02*
X139365000Y-114535000D01*
X139365000Y-114535000D02*
X136500000Y-117400000D01*
X136500000Y-117400000D02*
X136500000Y-118800000D01*
X136500000Y-123100000D02*
X136500000Y-118800000D01*
X132600000Y-127000000D02*
X136500000Y-123100000D01*
X108890000Y-127000000D02*
X132600000Y-127000000D01*
X106000000Y-122900000D02*
X106000000Y-124110000D01*
X106000000Y-124110000D02*
X108890000Y-127000000D01*
X122900000Y-83900000D02*
X124000000Y-83900000D01*
X124000000Y-83900000D02*
X130200000Y-90100000D01*
X130200000Y-90100000D02*
X132500000Y-90100000D01*
X132500000Y-90100000D02*
X138500000Y-96100000D01*
X138500000Y-96100000D02*
X138500000Y-96800000D01*
X138100000Y-109700000D02*
X138100000Y-111495000D01*
X138100000Y-111495000D02*
X138095000Y-111500000D01*
X138095000Y-111500000D02*
X138095000Y-115205000D01*
X138095000Y-115205000D02*
X135500000Y-117800000D01*
X135500000Y-117800000D02*
X135500000Y-118800000D01*
X135500000Y-122700000D02*
X135500000Y-118800000D01*
X106800000Y-122900000D02*
X106800000Y-124110000D01*
X109190000Y-126500000D02*
X131700000Y-126500000D01*
X106800000Y-124110000D02*
X109190000Y-126500000D01*
X131700000Y-126500000D02*
X135500000Y-122700000D01*
X137500000Y-98700000D02*
X137430001Y-98630001D01*
X137430001Y-98630001D02*
X137430001Y-98330001D01*
X136900000Y-97800000D02*
X136900000Y-95700000D01*
X137430001Y-98330001D02*
X136900000Y-97800000D01*
X132300000Y-91100000D02*
X121228757Y-91100000D01*
X136900000Y-95700000D02*
X132300000Y-91100000D01*
X121228757Y-91100000D02*
X119200000Y-89071243D01*
X119200000Y-89071243D02*
X119200000Y-86600000D01*
X136900000Y-109700000D02*
X136900000Y-111425000D01*
X136900000Y-111425000D02*
X136825000Y-111500000D01*
X136825000Y-111500000D02*
X136825000Y-115875000D01*
X136825000Y-115875000D02*
X134500000Y-118200000D01*
X134500000Y-118200000D02*
X134500000Y-118800000D01*
X134500000Y-122200000D02*
X134500000Y-118800000D01*
X109490000Y-126000000D02*
X130700000Y-126000000D01*
X107600000Y-124110000D02*
X109490000Y-126000000D01*
X107600000Y-122900000D02*
X107600000Y-124110000D01*
X130700000Y-126000000D02*
X134500000Y-122200000D01*
X118200000Y-86600000D02*
X118200000Y-89230924D01*
X118200000Y-89230924D02*
X121069076Y-92100000D01*
X121069076Y-92100000D02*
X132100000Y-92100000D01*
X132100000Y-92100000D02*
X135600000Y-95600000D01*
X135600000Y-95600000D02*
X135600000Y-97900000D01*
X135600000Y-97900000D02*
X136100000Y-98400000D01*
X136100000Y-98400000D02*
X136100000Y-98700000D01*
X135600000Y-109700000D02*
X135600000Y-111455000D01*
X135600000Y-111455000D02*
X135555000Y-111500000D01*
X135555000Y-111500000D02*
X135555000Y-116545000D01*
X135555000Y-116545000D02*
X133500000Y-118600000D01*
X133500000Y-118600000D02*
X133500000Y-118800000D01*
X133500000Y-121900000D02*
X133500000Y-118800000D01*
X111460000Y-125500000D02*
X129900000Y-125500000D01*
X108400000Y-122900000D02*
X108860000Y-122900000D01*
X129900000Y-125500000D02*
X133500000Y-121900000D01*
X108860000Y-122900000D02*
X111460000Y-125500000D01*
X135500000Y-111445000D02*
X135555000Y-111500000D01*
X109400000Y-81400000D02*
X109600000Y-81200000D01*
X107500000Y-81400000D02*
X109400000Y-81400000D01*
X145340000Y-88260000D02*
X144600000Y-89000000D01*
X145340000Y-82900000D02*
X145340000Y-88260000D01*
X106900000Y-86000000D02*
X106900000Y-89660480D01*
X108900000Y-91660480D02*
X108900000Y-97300000D01*
X106900000Y-89660480D02*
X108900000Y-91660480D01*
X108900000Y-97300000D02*
X113200000Y-101600000D01*
X113200000Y-101600000D02*
X113200000Y-102100000D01*
X113200000Y-102100000D02*
X112500000Y-102800000D01*
X112500000Y-102800000D02*
X111200000Y-102800000D01*
X107500000Y-81900000D02*
X110300000Y-81900000D01*
X147880000Y-87120000D02*
X145100000Y-89900000D01*
X147880000Y-82900000D02*
X147880000Y-87120000D01*
X107800000Y-86700000D02*
X107800000Y-89980640D01*
X107800000Y-89980640D02*
X109419360Y-91600000D01*
X112410000Y-103600000D02*
X111200000Y-103600000D01*
X109419360Y-91600000D02*
X109419360Y-97119360D01*
X109419360Y-97119360D02*
X113700000Y-101400000D01*
X113700000Y-101400000D02*
X113700000Y-102310000D01*
X113700000Y-102310000D02*
X112410000Y-103600000D01*
X125800000Y-95280000D02*
X123800000Y-97280000D01*
X123800000Y-97280000D02*
X123800000Y-100500000D01*
X111200000Y-107600000D02*
X109990000Y-107600000D01*
X109990000Y-107600000D02*
X108590000Y-106200000D01*
X108590000Y-106200000D02*
X108500000Y-106200000D01*
X114200001Y-85099999D02*
X114500000Y-84800000D01*
X114200000Y-86600000D02*
X114200001Y-85099999D01*
X123800000Y-103300000D02*
X123800000Y-101600000D01*
X123800000Y-101600000D02*
X124500000Y-100900000D01*
X124500000Y-100900000D02*
X124500000Y-99120000D01*
X124500000Y-99120000D02*
X125800000Y-97820000D01*
X109400000Y-108400000D02*
X108700000Y-107700000D01*
X111200000Y-108400000D02*
X109400000Y-108400000D01*
X113700000Y-84299978D02*
X113999978Y-84000000D01*
X113700000Y-86600000D02*
X113700000Y-84299978D01*
X111200000Y-109200000D02*
X112410000Y-109200000D01*
X112410000Y-109200000D02*
X112810000Y-109600000D01*
X112810000Y-109600000D02*
X122300000Y-109600000D01*
X122300000Y-109600000D02*
X123500000Y-108400000D01*
X123500000Y-108400000D02*
X123500000Y-106300000D01*
X123500000Y-106300000D02*
X124000000Y-105800000D01*
X124460000Y-103540000D02*
X124460000Y-101700000D01*
X124000000Y-105800000D02*
X124000000Y-104000000D01*
X124000000Y-104000000D02*
X124460000Y-103540000D01*
X124460000Y-101700000D02*
X125800000Y-100360000D01*
X113200000Y-84299996D02*
X112900004Y-84000000D01*
X113200000Y-86600000D02*
X113200000Y-84299996D01*
X111200000Y-110000000D02*
X112630159Y-110000000D01*
X122400000Y-110100000D02*
X123989990Y-108510010D01*
X112630159Y-110000000D02*
X112730159Y-110100000D01*
X123989990Y-106600000D02*
X124500000Y-106089990D01*
X124500000Y-104200000D02*
X125800000Y-102900000D01*
X112730159Y-110100000D02*
X122400000Y-110100000D01*
X123989990Y-108510010D02*
X123989990Y-106600000D01*
X124500000Y-106089990D02*
X124500000Y-104200000D01*
X112700000Y-86600000D02*
X112699999Y-85099999D01*
X112699999Y-85099999D02*
X112400000Y-84800000D01*
X111200000Y-110800000D02*
X109990000Y-110800000D01*
X109990000Y-110800000D02*
X107800000Y-108610000D01*
X107800000Y-108610000D02*
X107800000Y-108600000D01*
X112100000Y-88620160D02*
X112100000Y-95300000D01*
X112100000Y-95300000D02*
X112700000Y-95900000D01*
X111700000Y-88220160D02*
X112100000Y-88620160D01*
X111700000Y-86600000D02*
X111700000Y-88220160D01*
X111200000Y-110800000D02*
X122379840Y-110800000D01*
X122379840Y-110800000D02*
X124400000Y-108779840D01*
X124400000Y-108779840D02*
X124400000Y-106840000D01*
X124400000Y-106840000D02*
X125800000Y-105440000D01*
X111200000Y-111600000D02*
X109700000Y-111600000D01*
X109700000Y-111600000D02*
X107400000Y-109300000D01*
X111600000Y-88700000D02*
X111600000Y-95900000D01*
X111600000Y-95900000D02*
X112000000Y-96300000D01*
X111200000Y-88300000D02*
X111600000Y-88700000D01*
X111200000Y-86600000D02*
X111200000Y-88300000D01*
X111200000Y-111600000D02*
X122180000Y-111600000D01*
X122180000Y-111600000D02*
X125800000Y-107980000D01*
X111200000Y-112400000D02*
X109400000Y-112400000D01*
X109400000Y-112400000D02*
X107000000Y-110000000D01*
X111100000Y-88824758D02*
X111100000Y-96500000D01*
X111100000Y-96500000D02*
X111300000Y-96700000D01*
X110700000Y-88424758D02*
X111100000Y-88824758D01*
X110700000Y-86600000D02*
X110700000Y-88424758D01*
X111200000Y-112400000D02*
X123920000Y-112400000D01*
X123920000Y-112400000D02*
X125800000Y-110520000D01*
X111200000Y-113200000D02*
X109100000Y-113200000D01*
X109100000Y-113200000D02*
X106600000Y-110700000D01*
X110600000Y-88904598D02*
X110600000Y-97100000D01*
X110200000Y-88504598D02*
X110600000Y-88904598D01*
X110200000Y-86600000D02*
X110200000Y-88504598D01*
X111200000Y-113200000D02*
X125660000Y-113200000D01*
X125660000Y-113200000D02*
X125800000Y-113060000D01*
X116200000Y-86600000D02*
X116200000Y-88970446D01*
X116200000Y-88970446D02*
X120829554Y-93600000D01*
X120829554Y-93600000D02*
X131800000Y-93600000D01*
X131800000Y-93600000D02*
X133700000Y-95500000D01*
X133700000Y-95500000D02*
X133700000Y-98700000D01*
X133000000Y-109700000D02*
X133000000Y-111485000D01*
X133000000Y-111485000D02*
X133015000Y-111500000D01*
X131500000Y-114800000D02*
X133015000Y-113285000D01*
X133015000Y-113285000D02*
X133015000Y-111500000D01*
X111200000Y-114800000D02*
X131500000Y-114800000D01*
X140635000Y-100500000D02*
X140600000Y-100465000D01*
X140600000Y-100465000D02*
X140600000Y-96400000D01*
X140600000Y-96400000D02*
X132600000Y-88400000D01*
X132600000Y-88400000D02*
X131000000Y-88400000D01*
X130305000Y-108900000D02*
X130604999Y-108600001D01*
X130604999Y-108600001D02*
X137699999Y-108600001D01*
X137699999Y-108600001D02*
X140635000Y-105665000D01*
X140635000Y-105665000D02*
X140635000Y-100500000D01*
X140600000Y-100535000D02*
X140635000Y-100500000D01*
X121700000Y-82400000D02*
X121000000Y-83100000D01*
X122900000Y-82400000D02*
X121700000Y-82400000D01*
X111200000Y-115600000D02*
X130600000Y-115600000D01*
X140635000Y-99700000D02*
X140635000Y-100500000D01*
X136825000Y-100500000D02*
X136800000Y-100475000D01*
X136800000Y-100475000D02*
X136800000Y-98400000D01*
X136800000Y-98400000D02*
X136200000Y-97800000D01*
X136200000Y-97800000D02*
X136200000Y-95600000D01*
X136200000Y-95600000D02*
X132200000Y-91600000D01*
X121148918Y-91600000D02*
X118700000Y-89151082D01*
X132200000Y-91600000D02*
X121148918Y-91600000D01*
X118700000Y-89151082D02*
X118700000Y-86600000D01*
X130300000Y-106900000D02*
X131971242Y-106900000D01*
X131971242Y-106900000D02*
X136825000Y-102046242D01*
X136825000Y-102046242D02*
X136825000Y-100500000D01*
X111200000Y-116400000D02*
X128900000Y-116400000D01*
X136900000Y-100575000D02*
X136825000Y-100500000D01*
X138095000Y-100500000D02*
X138200000Y-100395000D01*
X138200000Y-100395000D02*
X138200000Y-98400000D01*
X138200000Y-98400000D02*
X137700000Y-97900000D01*
X137700000Y-97900000D02*
X137700000Y-95900000D01*
X137700000Y-95900000D02*
X132400000Y-90600000D01*
X132400000Y-90600000D02*
X121308598Y-90600000D01*
X121308598Y-90600000D02*
X119700000Y-88991402D01*
X119700000Y-88991402D02*
X119700000Y-86600000D01*
X130300000Y-107900000D02*
X130889990Y-107310010D01*
X138095000Y-101810000D02*
X138095000Y-100500000D01*
X130889990Y-107310010D02*
X132594990Y-107310010D01*
X132594990Y-107310010D02*
X138095000Y-101810000D01*
X138200014Y-100605014D02*
X138095000Y-100500000D01*
X111200000Y-118000000D02*
X129700000Y-118000000D01*
X138100000Y-100505000D02*
X138095000Y-100500000D01*
X135555000Y-100500000D02*
X135400000Y-100345000D01*
X135400000Y-100345000D02*
X135400000Y-98500000D01*
X135400000Y-98500000D02*
X135100000Y-98200000D01*
X135100000Y-98200000D02*
X135100000Y-95700000D01*
X120989234Y-92600000D02*
X117200000Y-88810766D01*
X135100000Y-95700000D02*
X132000000Y-92600000D01*
X132000000Y-92600000D02*
X120989234Y-92600000D01*
X117200000Y-88810766D02*
X117200000Y-86600000D01*
X130300000Y-105900000D02*
X132391402Y-105900000D01*
X132391402Y-105900000D02*
X135555000Y-102736402D01*
X135555000Y-102736402D02*
X135555000Y-100500000D01*
X111200000Y-119600000D02*
X128100000Y-119600000D01*
X116700000Y-86600000D02*
X116700000Y-88890604D01*
X131900000Y-93100000D02*
X134400000Y-95600000D01*
X116700000Y-88890604D02*
X120909396Y-93100000D01*
X120909396Y-93100000D02*
X131900000Y-93100000D01*
X134400000Y-95600000D02*
X134400000Y-98500000D01*
X134400000Y-98500000D02*
X134600000Y-98700000D01*
X134300000Y-109700000D02*
X134300000Y-111485000D01*
X134300000Y-111485000D02*
X134285000Y-111500000D01*
X134285000Y-111500000D02*
X134285000Y-117015000D01*
X134285000Y-117015000D02*
X132500000Y-118800000D01*
X111200000Y-120400000D02*
X112410000Y-120400000D01*
X112410000Y-120400000D02*
X117010000Y-125000000D01*
X117010000Y-125000000D02*
X129100000Y-125000000D01*
X129100000Y-125000000D02*
X132500000Y-121600000D01*
X132500000Y-121600000D02*
X132500000Y-118800000D01*
X142000000Y-90804999D02*
X142000000Y-87180000D01*
X142000000Y-87180000D02*
X137720000Y-82900000D01*
X115700000Y-82400000D02*
X116300000Y-83000000D01*
X111300000Y-82400000D02*
X115700000Y-82400000D01*
X109800000Y-83900000D02*
X111300000Y-82400000D01*
X107500000Y-83900000D02*
X109800000Y-83900000D01*
X107500000Y-83900000D02*
X106200000Y-83900000D01*
X106200000Y-83900000D02*
X104910008Y-85189992D01*
X104910008Y-85189992D02*
X104910008Y-89410008D01*
X104910008Y-89410008D02*
X107400000Y-91900000D01*
X107400000Y-91900000D02*
X107400000Y-98100000D01*
X107400000Y-98100000D02*
X107600000Y-98300000D01*
X107600000Y-98300000D02*
X107600000Y-99500000D01*
X141000000Y-90804999D02*
X141000000Y-90800000D01*
X141000000Y-90800000D02*
X135180000Y-84980000D01*
X135180000Y-84980000D02*
X135180000Y-82900000D01*
X116300000Y-81900000D02*
X117272200Y-82872200D01*
X117272200Y-82872200D02*
X117272200Y-83527800D01*
X108895000Y-83000000D02*
X109194999Y-82700001D01*
X109194999Y-82700001D02*
X110399999Y-82700001D01*
X110399999Y-82700001D02*
X111200000Y-81900000D01*
X111200000Y-81900000D02*
X116300000Y-81900000D01*
X104200000Y-86100000D02*
X104200000Y-89400000D01*
X104200000Y-89400000D02*
X106905001Y-92105001D01*
X106905001Y-92105001D02*
X106905001Y-98184999D01*
X106905001Y-98184999D02*
X106800000Y-98290000D01*
X106800000Y-98290000D02*
X106800000Y-99500000D01*
X107500000Y-83400000D02*
X108495000Y-83400000D01*
X108495000Y-83400000D02*
X108895000Y-83000000D01*
X74800000Y-81000000D02*
X72800000Y-83000000D01*
X72800000Y-83000000D02*
X72800000Y-96860000D01*
X72800000Y-96860000D02*
X72840000Y-96900000D01*
X106000000Y-99500000D02*
X106000000Y-97700000D01*
X79700000Y-78400000D02*
X81100000Y-78400000D01*
X81100000Y-78400000D02*
X81300000Y-78600000D01*
X72100000Y-81400000D02*
X72900000Y-80600000D01*
X72100000Y-95100000D02*
X72100000Y-81400000D01*
X70300000Y-96900000D02*
X72100000Y-95100000D01*
X105200000Y-99500000D02*
X105200000Y-97000000D01*
X79700000Y-77900000D02*
X81100000Y-77900000D01*
X81100000Y-77900000D02*
X81300000Y-77700000D01*
X71400000Y-93260000D02*
X67760000Y-96900000D01*
X79700000Y-77400000D02*
X78474002Y-77400000D01*
X78474002Y-77400000D02*
X78169001Y-77705001D01*
X71400000Y-81100000D02*
X71400000Y-93260000D01*
X79700000Y-77400000D02*
X80700000Y-77400000D01*
X80700000Y-77400000D02*
X81300000Y-76800000D01*
X104400000Y-99500000D02*
X104400000Y-96300000D01*
X78169001Y-77705001D02*
X75005001Y-77705001D01*
X75005001Y-77705001D02*
X75000000Y-77700000D01*
X75000000Y-77700000D02*
X74800000Y-77700000D01*
X74800000Y-77700000D02*
X71400000Y-81100000D01*
X97800000Y-84900000D02*
X101900000Y-89000000D01*
X101900000Y-89000000D02*
X101900000Y-94200000D01*
X93600000Y-79900000D02*
X93000000Y-80500000D01*
X95100000Y-79900000D02*
X93600000Y-79900000D01*
X101200000Y-99500000D02*
X101200000Y-94900000D01*
X101200000Y-94900000D02*
X101900000Y-94200000D01*
X97800000Y-86700000D02*
X100100000Y-89000000D01*
X100100000Y-89000000D02*
X100100000Y-92000000D01*
X99600000Y-93308223D02*
X100100000Y-92808223D01*
X100100000Y-92808223D02*
X100100000Y-92000000D01*
X93200000Y-81840000D02*
X93200000Y-82100000D01*
X94140000Y-80900000D02*
X93200000Y-81840000D01*
X95100000Y-80900000D02*
X94140000Y-80900000D01*
X99600000Y-93308223D02*
X99600000Y-99500000D01*
X97800000Y-87600000D02*
X97800000Y-93700000D01*
X97800000Y-93700000D02*
X98300000Y-94200000D01*
X98800000Y-99500000D02*
X98800000Y-94700000D01*
X98800000Y-94700000D02*
X98300000Y-94200000D01*
X93400000Y-83140000D02*
X93400000Y-83200006D01*
X94140000Y-82400000D02*
X93400000Y-83140000D01*
X95100000Y-82400000D02*
X94140000Y-82400000D01*
D48*
X60066500Y-90700000D02*
X62733500Y-90700000D01*
X60066500Y-82700000D02*
X62733500Y-82700000D01*
X60066500Y-74700000D02*
X62733500Y-74700000D01*
D49*
X115629923Y-56429923D02*
X119500000Y-60300000D01*
X83700000Y-61840314D02*
X89110391Y-56429923D01*
X82900000Y-71200000D02*
X82900000Y-68620157D01*
X119500000Y-60300000D02*
X121300000Y-60300000D01*
X82900000Y-68620157D02*
X83700000Y-67820157D01*
X83700000Y-67820157D02*
X83700000Y-61840314D01*
X89110391Y-56429923D02*
X115629923Y-56429923D01*
X116200000Y-72600000D02*
X115800000Y-73000000D01*
X116200000Y-71200000D02*
X116200000Y-72600000D01*
X132960000Y-68800000D02*
X130000000Y-68800000D01*
X130000000Y-68800000D02*
X128800000Y-70000000D01*
X107500000Y-77400000D02*
X109500000Y-77400000D01*
X95100000Y-76400000D02*
X94120160Y-76400000D01*
X94120160Y-76400000D02*
X93520160Y-75800000D01*
X93520160Y-75800000D02*
X92700000Y-75800000D01*
X84200000Y-67920158D02*
X84200000Y-61920157D01*
X119600000Y-61000000D02*
X122000000Y-61000000D01*
X115439934Y-56839934D02*
X119600000Y-61000000D01*
X83400000Y-68720158D02*
X84200000Y-67920158D01*
X83400000Y-71200000D02*
X83400000Y-68720158D01*
X84200000Y-61920157D02*
X89280223Y-56839934D01*
X89280223Y-56839934D02*
X115439934Y-56839934D01*
X116700000Y-73200000D02*
X116600000Y-73300000D01*
X116700000Y-71200000D02*
X116700000Y-73200000D01*
X132960000Y-66260000D02*
X131640000Y-66260000D01*
X131640000Y-66260000D02*
X128800000Y-69100000D01*
X109204596Y-76700000D02*
X110100000Y-76700000D01*
X107500000Y-76900000D02*
X109004596Y-76900000D01*
X109004596Y-76900000D02*
X109204596Y-76700000D01*
X95100000Y-75900000D02*
X94200000Y-75900000D01*
X93400000Y-75100000D02*
X93300000Y-75100000D01*
X94200000Y-75900000D02*
X93400000Y-75100000D01*
X119700000Y-61700000D02*
X122700000Y-61700000D01*
X84700000Y-62000000D02*
X89450055Y-57249945D01*
X84700000Y-68120157D02*
X84700000Y-62000000D01*
X115249945Y-57249945D02*
X119700000Y-61700000D01*
X89450055Y-57249945D02*
X115249945Y-57249945D01*
X83900000Y-68920157D02*
X84700000Y-68120157D01*
X83900000Y-71200000D02*
X83900000Y-68920157D01*
X117200000Y-72799984D02*
X117400000Y-72999984D01*
X117200000Y-71200000D02*
X117200000Y-72799984D01*
X132960000Y-63720000D02*
X132960000Y-64040000D01*
X132960000Y-64040000D02*
X128800000Y-68200000D01*
X109100000Y-76000000D02*
X109500000Y-76000000D01*
X108500000Y-75400000D02*
X109100000Y-76000000D01*
X107500000Y-75400000D02*
X108500000Y-75400000D01*
X95100000Y-74400000D02*
X92699982Y-74400000D01*
X119800000Y-62400000D02*
X123400000Y-62400000D01*
X84400000Y-71200000D02*
X84400000Y-69100000D01*
X85199998Y-62120155D02*
X89660197Y-57659956D01*
X115059956Y-57659956D02*
X119800000Y-62400000D01*
X89660197Y-57659956D02*
X115059956Y-57659956D01*
X85199998Y-68300000D02*
X85199998Y-62120155D01*
X84400000Y-69100000D02*
X85199998Y-68300000D01*
X118200000Y-72904598D02*
X118200000Y-73300000D01*
X117700000Y-71200000D02*
X117700000Y-72404598D01*
X117700000Y-72404598D02*
X118200000Y-72904598D01*
X132960000Y-61180000D02*
X132920000Y-61180000D01*
X132920000Y-61180000D02*
X131400000Y-62700000D01*
X131400000Y-62700000D02*
X131400000Y-64700000D01*
X131400000Y-64700000D02*
X128800000Y-67300000D01*
X109075736Y-75300000D02*
X110099992Y-75300000D01*
X108675736Y-74900000D02*
X109075736Y-75300000D01*
X107500000Y-74900000D02*
X108675736Y-74900000D01*
X95100000Y-73900000D02*
X93499986Y-73900000D01*
X93499986Y-73900000D02*
X93300000Y-73700014D01*
X114869967Y-58069967D02*
X119900000Y-63100000D01*
X85610009Y-68469830D02*
X85610009Y-62289987D01*
X119900000Y-63100000D02*
X124100000Y-63100000D01*
X85610009Y-62289987D02*
X89830029Y-58069967D01*
X85400000Y-68679841D02*
X85610009Y-68469830D01*
X89830029Y-58069967D02*
X114869967Y-58069967D01*
X85400000Y-71200000D02*
X85400000Y-68679841D01*
X120200000Y-71200000D02*
X120200000Y-68828762D01*
X120200000Y-68828762D02*
X121228762Y-67800000D01*
X121228762Y-67800000D02*
X121800000Y-67800000D01*
X121800000Y-67800000D02*
X124100000Y-65500000D01*
X124100000Y-65500000D02*
X124100000Y-63100000D01*
X109500000Y-74600006D02*
X109499994Y-74600000D01*
X109499994Y-74600000D02*
X109100000Y-74600000D01*
X109100000Y-74600000D02*
X108900000Y-74400000D01*
X132960000Y-58640000D02*
X128800000Y-62800000D01*
X128800000Y-62800000D02*
X128800000Y-66400000D01*
X108900000Y-74400000D02*
X107500000Y-74400000D01*
X98160000Y-71300000D02*
X103371155Y-71300000D01*
X103371155Y-71300000D02*
X106471155Y-74400000D01*
X106471155Y-74400000D02*
X107500000Y-74400000D01*
X96060000Y-73400000D02*
X98160000Y-71300000D01*
X95100000Y-73400000D02*
X96060000Y-73400000D01*
X120000000Y-63800000D02*
X123400000Y-63800000D01*
X89999861Y-58479978D02*
X114679978Y-58479978D01*
X114679978Y-58479978D02*
X120000000Y-63800000D01*
X86020020Y-62459819D02*
X89999861Y-58479978D01*
X86020020Y-68639662D02*
X86020020Y-62459819D01*
X85900000Y-68759682D02*
X86020020Y-68639662D01*
X85900000Y-71200000D02*
X85900000Y-68759682D01*
X119700000Y-71200000D02*
X119700000Y-68748920D01*
X119700000Y-68748920D02*
X121148920Y-67300000D01*
X121148920Y-67300000D02*
X121700000Y-67300000D01*
X121700000Y-67300000D02*
X123400000Y-65600000D01*
X123400000Y-65600000D02*
X123400000Y-63800000D01*
X132960000Y-71340000D02*
X129240000Y-71340000D01*
X129240000Y-71340000D02*
X128800000Y-70900000D01*
X132960000Y-71340000D02*
X132820000Y-71200000D01*
X107500000Y-77900000D02*
X109014600Y-77900000D01*
X109670735Y-78094999D02*
X109675736Y-78100000D01*
X109014600Y-77900000D02*
X109209599Y-78094999D01*
X109209599Y-78094999D02*
X109670735Y-78094999D01*
X109675736Y-78100000D02*
X110100000Y-78100000D01*
X95100000Y-76900000D02*
X93700004Y-76900000D01*
X93700004Y-76900000D02*
X93300000Y-76499996D01*
X120100000Y-64500000D02*
X122700000Y-64500000D01*
X114489989Y-58889989D02*
X120100000Y-64500000D01*
X86430031Y-62629651D02*
X90169693Y-58889989D01*
X90169693Y-58889989D02*
X114489989Y-58889989D01*
X86430031Y-68809494D02*
X86430031Y-62629651D01*
X86400000Y-71200000D02*
X86400000Y-68839525D01*
X86400000Y-68839525D02*
X86430031Y-68809494D01*
X119200000Y-71200000D02*
X119200000Y-68669077D01*
X119200000Y-68669077D02*
X121069077Y-66800000D01*
X121069077Y-66800000D02*
X121600000Y-66800000D01*
X121600000Y-66800000D02*
X122700000Y-65700000D01*
X122700000Y-65700000D02*
X122700000Y-64500000D01*
X132960000Y-73880000D02*
X130880000Y-73880000D01*
X130880000Y-73880000D02*
X128800000Y-71800000D01*
X108500000Y-78400000D02*
X108900006Y-78800006D01*
X107500000Y-78400000D02*
X108500000Y-78400000D01*
X108900006Y-78800006D02*
X109500000Y-78800006D01*
X92899988Y-77400000D02*
X92700000Y-77200012D01*
X95100000Y-77400000D02*
X92899988Y-77400000D01*
X114300000Y-59300000D02*
X120200000Y-65200000D01*
X86900000Y-71200000D02*
X86900000Y-62800000D01*
X120200000Y-65200000D02*
X122000000Y-65200000D01*
X86900000Y-62800000D02*
X90400000Y-59300000D01*
X90400000Y-59300000D02*
X114300000Y-59300000D01*
X118789990Y-68410010D02*
X122000000Y-65200000D01*
X118700000Y-71200000D02*
X118700000Y-70300000D01*
X118700000Y-70300000D02*
X118789990Y-70210010D01*
X118789990Y-70210010D02*
X118789990Y-68410010D01*
X110700000Y-71200000D02*
X110700000Y-69600000D01*
X110700000Y-69600000D02*
X111300000Y-69000000D01*
X111300000Y-69000000D02*
X111300000Y-68600000D01*
X111300000Y-68600000D02*
X110800000Y-68100000D01*
X110800000Y-68100000D02*
X110800000Y-64300000D01*
X110800000Y-64300000D02*
X109899999Y-63399999D01*
X109899999Y-63399999D02*
X109399999Y-63399999D01*
X109399999Y-63399999D02*
X109100000Y-63100000D01*
X92400000Y-71200000D02*
X92400000Y-68100000D01*
X108009599Y-62894999D02*
X108894999Y-62894999D01*
X92400000Y-68100000D02*
X96800001Y-63699999D01*
X96800001Y-63699999D02*
X107204599Y-63699999D01*
X107204599Y-63699999D02*
X108009599Y-62894999D01*
X108894999Y-62894999D02*
X109100000Y-63100000D01*
X111200000Y-71200000D02*
X111200000Y-69700000D01*
X110099999Y-62999999D02*
X109800000Y-62700000D01*
X111200000Y-69700000D02*
X111800000Y-69100000D01*
X111800000Y-69100000D02*
X111800000Y-68400000D01*
X111800000Y-68400000D02*
X111300000Y-67900000D01*
X111300000Y-67900000D02*
X111300000Y-63800000D01*
X111300000Y-63800000D02*
X110499999Y-62999999D01*
X110499999Y-62999999D02*
X110099999Y-62999999D01*
X96900001Y-62999999D02*
X107324756Y-62999999D01*
X109380390Y-62484988D02*
X109595402Y-62700000D01*
X107839767Y-62484988D02*
X109380390Y-62484988D01*
X91900000Y-71200000D02*
X91900000Y-68000000D01*
X91900000Y-68000000D02*
X96900001Y-62999999D01*
X107324756Y-62999999D02*
X107839767Y-62484988D01*
X109595402Y-62700000D02*
X109800000Y-62700000D01*
X91400000Y-71200000D02*
X91400000Y-67900000D01*
X91400000Y-67900000D02*
X96900000Y-62400000D01*
X96900000Y-62400000D02*
X107344913Y-62400000D01*
X107344913Y-62400000D02*
X107669935Y-62074977D01*
X107669935Y-62074977D02*
X110274977Y-62074977D01*
X110274977Y-62074977D02*
X110500000Y-62300000D01*
X111700000Y-71200000D02*
X111700000Y-69900000D01*
X111700000Y-69900000D02*
X112289990Y-69310010D01*
X112289990Y-69310010D02*
X112289990Y-68189990D01*
X112289990Y-68189990D02*
X111800000Y-67700000D01*
X111800000Y-67700000D02*
X111800000Y-63600000D01*
X111800000Y-63600000D02*
X110500000Y-62300000D01*
X90900000Y-71200000D02*
X90900000Y-67800000D01*
X96800000Y-61900000D02*
X107265069Y-61900000D01*
X90900000Y-67800000D02*
X96800000Y-61900000D01*
X107265069Y-61900000D02*
X107500103Y-61664966D01*
X107500103Y-61664966D02*
X110964966Y-61664966D01*
X110964966Y-61664966D02*
X111200000Y-61900000D01*
X112200000Y-71200000D02*
X112200000Y-70000000D01*
X112200000Y-70000000D02*
X112700000Y-69500000D01*
X112700000Y-69500000D02*
X112700000Y-68000000D01*
X112300000Y-63000000D02*
X111200000Y-61900000D01*
X112700000Y-68000000D02*
X112300000Y-67600000D01*
X112300000Y-67600000D02*
X112300000Y-63000000D01*
X92700000Y-64800000D02*
X96245045Y-61254955D01*
X96245045Y-61254955D02*
X111654955Y-61254955D01*
X111654955Y-61254955D02*
X111900000Y-61500000D01*
X113200000Y-71200000D02*
X113200000Y-67879834D01*
X113200000Y-67879834D02*
X112800000Y-67479834D01*
X112800000Y-67479834D02*
X112800000Y-62400000D01*
X112800000Y-62400000D02*
X111900000Y-61500000D01*
X89900000Y-71200000D02*
X89900000Y-72304598D01*
X89900000Y-72304598D02*
X90500000Y-72904598D01*
X90500000Y-72904598D02*
X90500000Y-73300000D01*
X92000000Y-64100000D02*
X95300000Y-60800000D01*
X95300000Y-60800000D02*
X112300000Y-60800000D01*
X112300000Y-60800000D02*
X112600000Y-61100000D01*
X113700000Y-71200000D02*
X113700000Y-67779840D01*
X113300000Y-61800000D02*
X112600000Y-61100000D01*
X113700000Y-67779840D02*
X113300000Y-67379840D01*
X113300000Y-67379840D02*
X113300000Y-61800000D01*
X89400001Y-72700001D02*
X89700000Y-73000000D01*
X89400000Y-71200000D02*
X89400001Y-72700001D01*
X91299992Y-63400000D02*
X94399992Y-60300000D01*
X94399992Y-60300000D02*
X112900000Y-60300000D01*
X112900000Y-60300000D02*
X113300000Y-60700000D01*
X114200000Y-71200000D02*
X114200000Y-67700000D01*
X114200000Y-67700000D02*
X113800000Y-67300000D01*
X113800000Y-67300000D02*
X113800000Y-61624264D01*
X113800000Y-61624264D02*
X113300000Y-61124264D01*
X113300000Y-61124264D02*
X113300000Y-60700000D01*
X88900000Y-71200000D02*
X88900000Y-73300000D01*
X90600000Y-62700000D02*
X93500000Y-59800000D01*
X93500000Y-59800000D02*
X113500000Y-59800000D01*
X113500000Y-59800000D02*
X114000000Y-60300000D01*
X114700000Y-71200000D02*
X114700000Y-67597034D01*
X114700000Y-67597034D02*
X114300000Y-67197034D01*
X114300000Y-67197034D02*
X114300000Y-61024264D01*
X114300000Y-61024264D02*
X114000000Y-60724264D01*
X114000000Y-60724264D02*
X114000000Y-60300000D01*
X88399999Y-72700001D02*
X88100000Y-73000000D01*
X88400000Y-71200000D02*
X88399999Y-72700001D01*
X109700000Y-71200000D02*
X109700000Y-69800000D01*
X109700000Y-69800000D02*
X110300000Y-69200000D01*
X110300000Y-64900000D02*
X109199999Y-63799999D01*
X110300000Y-69200000D02*
X110300000Y-64900000D01*
X109199999Y-63799999D02*
X108699999Y-63799999D01*
X108699999Y-63799999D02*
X108400000Y-63500000D01*
X109700000Y-88500000D02*
X108700000Y-89500000D01*
X109700000Y-86600000D02*
X109700000Y-88500000D01*
X92900000Y-86600000D02*
X92900000Y-85600000D01*
X92900000Y-85600000D02*
X92400000Y-85100000D01*
X102275000Y-77575000D02*
X102500000Y-77800000D01*
X102500000Y-77800000D02*
X102500000Y-82200000D01*
X102500000Y-82200000D02*
X101500000Y-83200000D01*
X95100000Y-78400000D02*
X96049002Y-78400000D01*
X96049002Y-78400000D02*
X96300000Y-78650998D01*
X96300000Y-79600000D02*
X96700000Y-80000000D01*
X96300000Y-78650998D02*
X96300000Y-79600000D01*
X96700000Y-80000000D02*
X100800000Y-80000000D01*
X100800000Y-80000000D02*
X102000000Y-78800000D01*
X102000000Y-77900000D02*
X102275000Y-77625000D01*
X102000000Y-78800000D02*
X102000000Y-77900000D01*
X102275000Y-77625000D02*
X102275000Y-77575000D01*
X107500000Y-79400000D02*
X106540000Y-79400000D01*
X106540000Y-79400000D02*
X106300000Y-79160000D01*
X106300000Y-79160000D02*
X106300000Y-78300000D01*
X106300000Y-78300000D02*
X105700000Y-77700000D01*
X105700000Y-77700000D02*
X102400000Y-77700000D01*
X102400000Y-77700000D02*
X102275000Y-77575000D01*
D51*
X111200000Y-105200000D02*
X112600000Y-105200000D01*
X112600000Y-105200000D02*
X113400000Y-104400000D01*
X113400000Y-104400000D02*
X117860000Y-104400000D01*
X117860000Y-104400000D02*
X121900000Y-100360000D01*
X111200000Y-106000000D02*
X112648542Y-106000000D01*
X112648542Y-106000000D02*
X113548542Y-105100000D01*
X121560000Y-105100000D02*
X121900000Y-105440000D01*
X113548542Y-105100000D02*
X121560000Y-105100000D01*
D49*
X102000000Y-99500000D02*
X102000000Y-96100000D01*
X102000000Y-96100000D02*
X103900000Y-94200000D01*
X103900000Y-94200000D02*
X103900000Y-92000000D01*
D50*
X64500000Y-56460000D02*
X64500000Y-52600000D01*
D49*
X127600000Y-56400000D02*
X127600000Y-65900000D01*
X127900000Y-56100000D02*
X127600000Y-56400000D01*
X108465001Y-73905001D02*
X110094999Y-73905001D01*
X110094999Y-73905001D02*
X110100000Y-73900000D01*
X108465001Y-73905001D02*
X108460000Y-73900000D01*
X108460000Y-73900000D02*
X107500000Y-73900000D01*
X132960000Y-56100000D02*
X127900000Y-56100000D01*
X127900000Y-56100000D02*
X127600000Y-55800000D01*
X127600000Y-55800000D02*
X127600000Y-55100000D01*
D51*
X132910000Y-56050000D02*
X132960000Y-56100000D01*
D49*
X95700000Y-72900000D02*
X95100000Y-72900000D01*
X97710011Y-70889989D02*
X95700000Y-72900000D01*
X103540987Y-70889989D02*
X97710011Y-70889989D01*
X107500000Y-73900000D02*
X106550997Y-73900000D01*
X106550997Y-73900000D02*
X103540987Y-70889989D01*
D51*
X71050000Y-71300000D02*
X71050000Y-72750000D01*
X71050000Y-72750000D02*
X71000000Y-72800000D01*
D49*
X79700000Y-74400000D02*
X73590000Y-74400000D01*
X73590000Y-74400000D02*
X72600000Y-73410000D01*
X72600000Y-73410000D02*
X72600000Y-72800000D01*
D51*
X76250000Y-71300000D02*
X76250000Y-72650000D01*
X76250000Y-72650000D02*
X76400000Y-72800000D01*
D49*
X79700000Y-73900000D02*
X75290000Y-73900000D01*
X75290000Y-73900000D02*
X74800000Y-73410000D01*
X74800000Y-73410000D02*
X74800000Y-72800000D01*
D51*
X99200000Y-68400000D02*
X99200000Y-66900000D01*
D49*
X107500000Y-80400000D02*
X108924757Y-80400000D01*
X108924757Y-80400000D02*
X110705001Y-78619756D01*
X110705001Y-78619756D02*
X110705001Y-73505001D01*
X110705001Y-73505001D02*
X110400000Y-73200000D01*
X110400000Y-73200000D02*
X109200000Y-73200000D01*
X101800000Y-70400000D02*
X100800000Y-69400000D01*
X109200000Y-73200000D02*
X106400000Y-70400000D01*
X106400000Y-70400000D02*
X101800000Y-70400000D01*
X100800000Y-69400000D02*
X100800000Y-68400000D01*
D51*
X104250000Y-66900000D02*
X104250000Y-68350000D01*
X104250000Y-68350000D02*
X104300000Y-68400000D01*
D49*
X107500000Y-80900000D02*
X109004598Y-80900000D01*
X109004598Y-80900000D02*
X111200000Y-78704598D01*
X111200000Y-73420159D02*
X110479841Y-72700000D01*
X111200000Y-78704598D02*
X111200000Y-73420159D01*
X110479841Y-72700000D02*
X109279840Y-72700000D01*
X109279840Y-72700000D02*
X106479840Y-69900000D01*
X106479840Y-69900000D02*
X103590000Y-69900000D01*
X103590000Y-69900000D02*
X102700000Y-69010000D01*
X102700000Y-69010000D02*
X102700000Y-68400000D01*
D51*
G36*
X75542000Y-135069000D02*
X75719000Y-135246000D01*
X76696000Y-135246000D01*
X76696000Y-135226000D01*
X76804000Y-135226000D01*
X76804000Y-135246000D01*
X76824000Y-135246000D01*
X76824000Y-135354000D01*
X76804000Y-135354000D01*
X76804000Y-137081000D01*
X76981000Y-137258000D01*
X77390830Y-137258000D01*
X77651050Y-137150213D01*
X77658116Y-137143147D01*
X77750000Y-137161754D01*
X78750000Y-137161754D01*
X78972346Y-137119917D01*
X78997558Y-137103693D01*
X79011993Y-137113556D01*
X79250000Y-137161754D01*
X80250000Y-137161754D01*
X80472346Y-137119917D01*
X80497558Y-137103693D01*
X80511993Y-137113556D01*
X80750000Y-137161754D01*
X81750000Y-137161754D01*
X81972346Y-137119917D01*
X81997558Y-137103693D01*
X82011993Y-137113556D01*
X82250000Y-137161754D01*
X83250000Y-137161754D01*
X83472346Y-137119917D01*
X83497558Y-137103693D01*
X83511993Y-137113556D01*
X83750000Y-137161754D01*
X84750000Y-137161754D01*
X84972346Y-137119917D01*
X84997558Y-137103693D01*
X85011993Y-137113556D01*
X85250000Y-137161754D01*
X86250000Y-137161754D01*
X86472346Y-137119917D01*
X86497558Y-137103693D01*
X86511993Y-137113556D01*
X86750000Y-137161754D01*
X87750000Y-137161754D01*
X87972346Y-137119917D01*
X87997558Y-137103693D01*
X88011993Y-137113556D01*
X88250000Y-137161754D01*
X89250000Y-137161754D01*
X89472346Y-137119917D01*
X89497558Y-137103693D01*
X89511993Y-137113556D01*
X89750000Y-137161754D01*
X90750000Y-137161754D01*
X90972346Y-137119917D01*
X90997558Y-137103693D01*
X91011993Y-137113556D01*
X91250000Y-137161754D01*
X92250000Y-137161754D01*
X92472346Y-137119917D01*
X92497558Y-137103693D01*
X92511993Y-137113556D01*
X92750000Y-137161754D01*
X93750000Y-137161754D01*
X93972346Y-137119917D01*
X93997558Y-137103693D01*
X94011993Y-137113556D01*
X94250000Y-137161754D01*
X95250000Y-137161754D01*
X95472346Y-137119917D01*
X95497558Y-137103693D01*
X95511993Y-137113556D01*
X95750000Y-137161754D01*
X96750000Y-137161754D01*
X96972346Y-137119917D01*
X96997558Y-137103693D01*
X97011993Y-137113556D01*
X97250000Y-137161754D01*
X98250000Y-137161754D01*
X98472346Y-137119917D01*
X98497558Y-137103693D01*
X98511993Y-137113556D01*
X98750000Y-137161754D01*
X99750000Y-137161754D01*
X99972346Y-137119917D01*
X99997558Y-137103693D01*
X100011993Y-137113556D01*
X100250000Y-137161754D01*
X101250000Y-137161754D01*
X101472346Y-137119917D01*
X101497558Y-137103693D01*
X101511993Y-137113556D01*
X101750000Y-137161754D01*
X102750000Y-137161754D01*
X102972346Y-137119917D01*
X102997558Y-137103693D01*
X103011993Y-137113556D01*
X103250000Y-137161754D01*
X104250000Y-137161754D01*
X104472346Y-137119917D01*
X104497558Y-137103693D01*
X104511993Y-137113556D01*
X104750000Y-137161754D01*
X105750000Y-137161754D01*
X105972346Y-137119917D01*
X105997558Y-137103693D01*
X106011993Y-137113556D01*
X106250000Y-137161754D01*
X107250000Y-137161754D01*
X107472346Y-137119917D01*
X107497558Y-137103693D01*
X107511993Y-137113556D01*
X107750000Y-137161754D01*
X108750000Y-137161754D01*
X108972346Y-137119917D01*
X108997558Y-137103693D01*
X109011993Y-137113556D01*
X109250000Y-137161754D01*
X110250000Y-137161754D01*
X110472346Y-137119917D01*
X110497558Y-137103693D01*
X110511993Y-137113556D01*
X110750000Y-137161754D01*
X111750000Y-137161754D01*
X111972346Y-137119917D01*
X111997558Y-137103693D01*
X112011993Y-137113556D01*
X112250000Y-137161754D01*
X113250000Y-137161754D01*
X113472346Y-137119917D01*
X113497558Y-137103693D01*
X113511993Y-137113556D01*
X113750000Y-137161754D01*
X114750000Y-137161754D01*
X114972346Y-137119917D01*
X114997558Y-137103693D01*
X115011993Y-137113556D01*
X115250000Y-137161754D01*
X116250000Y-137161754D01*
X116472346Y-137119917D01*
X116497558Y-137103693D01*
X116511993Y-137113556D01*
X116750000Y-137161754D01*
X117750000Y-137161754D01*
X117972346Y-137119917D01*
X117997558Y-137103693D01*
X118011993Y-137113556D01*
X118250000Y-137161754D01*
X119250000Y-137161754D01*
X119472346Y-137119917D01*
X119497558Y-137103693D01*
X119511993Y-137113556D01*
X119750000Y-137161754D01*
X120750000Y-137161754D01*
X120972346Y-137119917D01*
X120997558Y-137103693D01*
X121011993Y-137113556D01*
X121250000Y-137161754D01*
X122250000Y-137161754D01*
X122472346Y-137119917D01*
X122497558Y-137103693D01*
X122511993Y-137113556D01*
X122750000Y-137161754D01*
X123750000Y-137161754D01*
X123972346Y-137119917D01*
X124176558Y-136988510D01*
X124313556Y-136788007D01*
X124361754Y-136550000D01*
X124361754Y-134050000D01*
X124352346Y-134000000D01*
X129862980Y-134000000D01*
X130300000Y-134437020D01*
X130300000Y-143973000D01*
X130254000Y-144019000D01*
X130254000Y-146496000D01*
X130274000Y-146496000D01*
X130274000Y-146604000D01*
X130254000Y-146604000D01*
X130254000Y-149081000D01*
X130300000Y-149127000D01*
X130300000Y-149325000D01*
X123675000Y-149325000D01*
X123675000Y-146781000D01*
X128242000Y-146781000D01*
X128242000Y-148690830D01*
X128349787Y-148951050D01*
X128548950Y-149150213D01*
X128809170Y-149258000D01*
X129969000Y-149258000D01*
X130146000Y-149081000D01*
X130146000Y-146604000D01*
X128419000Y-146604000D01*
X128242000Y-146781000D01*
X123675000Y-146781000D01*
X123675000Y-144409170D01*
X128242000Y-144409170D01*
X128242000Y-146319000D01*
X128419000Y-146496000D01*
X130146000Y-146496000D01*
X130146000Y-144019000D01*
X129969000Y-143842000D01*
X128809170Y-143842000D01*
X128548950Y-143949787D01*
X128349787Y-144148950D01*
X128242000Y-144409170D01*
X123675000Y-144409170D01*
X123675000Y-139000000D01*
X123623619Y-138741689D01*
X123477297Y-138522703D01*
X123258311Y-138376381D01*
X123000000Y-138325000D01*
X77000000Y-138325000D01*
X76741689Y-138376381D01*
X76522703Y-138522703D01*
X76376381Y-138741689D01*
X76325000Y-139000000D01*
X76325000Y-149325000D01*
X69700000Y-149325000D01*
X69700000Y-149127000D01*
X69746000Y-149081000D01*
X69746000Y-146604000D01*
X69854000Y-146604000D01*
X69854000Y-149081000D01*
X70031000Y-149258000D01*
X71190830Y-149258000D01*
X71451050Y-149150213D01*
X71650213Y-148951050D01*
X71758000Y-148690830D01*
X71758000Y-146781000D01*
X71581000Y-146604000D01*
X69854000Y-146604000D01*
X69746000Y-146604000D01*
X69726000Y-146604000D01*
X69726000Y-146496000D01*
X69746000Y-146496000D01*
X69746000Y-144019000D01*
X69854000Y-144019000D01*
X69854000Y-146496000D01*
X71581000Y-146496000D01*
X71758000Y-146319000D01*
X71758000Y-144409170D01*
X71650213Y-144148950D01*
X71451050Y-143949787D01*
X71190830Y-143842000D01*
X70031000Y-143842000D01*
X69854000Y-144019000D01*
X69746000Y-144019000D01*
X69700000Y-143973000D01*
X69700000Y-135531000D01*
X75542000Y-135531000D01*
X75542000Y-136690830D01*
X75649787Y-136951050D01*
X75848950Y-137150213D01*
X76109170Y-137258000D01*
X76519000Y-137258000D01*
X76696000Y-137081000D01*
X76696000Y-135354000D01*
X75719000Y-135354000D01*
X75542000Y-135531000D01*
X69700000Y-135531000D01*
X69700000Y-134000000D01*
X75542000Y-134000000D01*
X75542000Y-135069000D01*
X75542000Y-135069000D01*
G37*
X75542000Y-135069000D02*
X75719000Y-135246000D01*
X76696000Y-135246000D01*
X76696000Y-135226000D01*
X76804000Y-135226000D01*
X76804000Y-135246000D01*
X76824000Y-135246000D01*
X76824000Y-135354000D01*
X76804000Y-135354000D01*
X76804000Y-137081000D01*
X76981000Y-137258000D01*
X77390830Y-137258000D01*
X77651050Y-137150213D01*
X77658116Y-137143147D01*
X77750000Y-137161754D01*
X78750000Y-137161754D01*
X78972346Y-137119917D01*
X78997558Y-137103693D01*
X79011993Y-137113556D01*
X79250000Y-137161754D01*
X80250000Y-137161754D01*
X80472346Y-137119917D01*
X80497558Y-137103693D01*
X80511993Y-137113556D01*
X80750000Y-137161754D01*
X81750000Y-137161754D01*
X81972346Y-137119917D01*
X81997558Y-137103693D01*
X82011993Y-137113556D01*
X82250000Y-137161754D01*
X83250000Y-137161754D01*
X83472346Y-137119917D01*
X83497558Y-137103693D01*
X83511993Y-137113556D01*
X83750000Y-137161754D01*
X84750000Y-137161754D01*
X84972346Y-137119917D01*
X84997558Y-137103693D01*
X85011993Y-137113556D01*
X85250000Y-137161754D01*
X86250000Y-137161754D01*
X86472346Y-137119917D01*
X86497558Y-137103693D01*
X86511993Y-137113556D01*
X86750000Y-137161754D01*
X87750000Y-137161754D01*
X87972346Y-137119917D01*
X87997558Y-137103693D01*
X88011993Y-137113556D01*
X88250000Y-137161754D01*
X89250000Y-137161754D01*
X89472346Y-137119917D01*
X89497558Y-137103693D01*
X89511993Y-137113556D01*
X89750000Y-137161754D01*
X90750000Y-137161754D01*
X90972346Y-137119917D01*
X90997558Y-137103693D01*
X91011993Y-137113556D01*
X91250000Y-137161754D01*
X92250000Y-137161754D01*
X92472346Y-137119917D01*
X92497558Y-137103693D01*
X92511993Y-137113556D01*
X92750000Y-137161754D01*
X93750000Y-137161754D01*
X93972346Y-137119917D01*
X93997558Y-137103693D01*
X94011993Y-137113556D01*
X94250000Y-137161754D01*
X95250000Y-137161754D01*
X95472346Y-137119917D01*
X95497558Y-137103693D01*
X95511993Y-137113556D01*
X95750000Y-137161754D01*
X96750000Y-137161754D01*
X96972346Y-137119917D01*
X96997558Y-137103693D01*
X97011993Y-137113556D01*
X97250000Y-137161754D01*
X98250000Y-137161754D01*
X98472346Y-137119917D01*
X98497558Y-137103693D01*
X98511993Y-137113556D01*
X98750000Y-137161754D01*
X99750000Y-137161754D01*
X99972346Y-137119917D01*
X99997558Y-137103693D01*
X100011993Y-137113556D01*
X100250000Y-137161754D01*
X101250000Y-137161754D01*
X101472346Y-137119917D01*
X101497558Y-137103693D01*
X101511993Y-137113556D01*
X101750000Y-137161754D01*
X102750000Y-137161754D01*
X102972346Y-137119917D01*
X102997558Y-137103693D01*
X103011993Y-137113556D01*
X103250000Y-137161754D01*
X104250000Y-137161754D01*
X104472346Y-137119917D01*
X104497558Y-137103693D01*
X104511993Y-137113556D01*
X104750000Y-137161754D01*
X105750000Y-137161754D01*
X105972346Y-137119917D01*
X105997558Y-137103693D01*
X106011993Y-137113556D01*
X106250000Y-137161754D01*
X107250000Y-137161754D01*
X107472346Y-137119917D01*
X107497558Y-137103693D01*
X107511993Y-137113556D01*
X107750000Y-137161754D01*
X108750000Y-137161754D01*
X108972346Y-137119917D01*
X108997558Y-137103693D01*
X109011993Y-137113556D01*
X109250000Y-137161754D01*
X110250000Y-137161754D01*
X110472346Y-137119917D01*
X110497558Y-137103693D01*
X110511993Y-137113556D01*
X110750000Y-137161754D01*
X111750000Y-137161754D01*
X111972346Y-137119917D01*
X111997558Y-137103693D01*
X112011993Y-137113556D01*
X112250000Y-137161754D01*
X113250000Y-137161754D01*
X113472346Y-137119917D01*
X113497558Y-137103693D01*
X113511993Y-137113556D01*
X113750000Y-137161754D01*
X114750000Y-137161754D01*
X114972346Y-137119917D01*
X114997558Y-137103693D01*
X115011993Y-137113556D01*
X115250000Y-137161754D01*
X116250000Y-137161754D01*
X116472346Y-137119917D01*
X116497558Y-137103693D01*
X116511993Y-137113556D01*
X116750000Y-137161754D01*
X117750000Y-137161754D01*
X117972346Y-137119917D01*
X117997558Y-137103693D01*
X118011993Y-137113556D01*
X118250000Y-137161754D01*
X119250000Y-137161754D01*
X119472346Y-137119917D01*
X119497558Y-137103693D01*
X119511993Y-137113556D01*
X119750000Y-137161754D01*
X120750000Y-137161754D01*
X120972346Y-137119917D01*
X120997558Y-137103693D01*
X121011993Y-137113556D01*
X121250000Y-137161754D01*
X122250000Y-137161754D01*
X122472346Y-137119917D01*
X122497558Y-137103693D01*
X122511993Y-137113556D01*
X122750000Y-137161754D01*
X123750000Y-137161754D01*
X123972346Y-137119917D01*
X124176558Y-136988510D01*
X124313556Y-136788007D01*
X124361754Y-136550000D01*
X124361754Y-134050000D01*
X124352346Y-134000000D01*
X129862980Y-134000000D01*
X130300000Y-134437020D01*
X130300000Y-143973000D01*
X130254000Y-144019000D01*
X130254000Y-146496000D01*
X130274000Y-146496000D01*
X130274000Y-146604000D01*
X130254000Y-146604000D01*
X130254000Y-149081000D01*
X130300000Y-149127000D01*
X130300000Y-149325000D01*
X123675000Y-149325000D01*
X123675000Y-146781000D01*
X128242000Y-146781000D01*
X128242000Y-148690830D01*
X128349787Y-148951050D01*
X128548950Y-149150213D01*
X128809170Y-149258000D01*
X129969000Y-149258000D01*
X130146000Y-149081000D01*
X130146000Y-146604000D01*
X128419000Y-146604000D01*
X128242000Y-146781000D01*
X123675000Y-146781000D01*
X123675000Y-144409170D01*
X128242000Y-144409170D01*
X128242000Y-146319000D01*
X128419000Y-146496000D01*
X130146000Y-146496000D01*
X130146000Y-144019000D01*
X129969000Y-143842000D01*
X128809170Y-143842000D01*
X128548950Y-143949787D01*
X128349787Y-144148950D01*
X128242000Y-144409170D01*
X123675000Y-144409170D01*
X123675000Y-139000000D01*
X123623619Y-138741689D01*
X123477297Y-138522703D01*
X123258311Y-138376381D01*
X123000000Y-138325000D01*
X77000000Y-138325000D01*
X76741689Y-138376381D01*
X76522703Y-138522703D01*
X76376381Y-138741689D01*
X76325000Y-139000000D01*
X76325000Y-149325000D01*
X69700000Y-149325000D01*
X69700000Y-149127000D01*
X69746000Y-149081000D01*
X69746000Y-146604000D01*
X69854000Y-146604000D01*
X69854000Y-149081000D01*
X70031000Y-149258000D01*
X71190830Y-149258000D01*
X71451050Y-149150213D01*
X71650213Y-148951050D01*
X71758000Y-148690830D01*
X71758000Y-146781000D01*
X71581000Y-146604000D01*
X69854000Y-146604000D01*
X69746000Y-146604000D01*
X69726000Y-146604000D01*
X69726000Y-146496000D01*
X69746000Y-146496000D01*
X69746000Y-144019000D01*
X69854000Y-144019000D01*
X69854000Y-146496000D01*
X71581000Y-146496000D01*
X71758000Y-146319000D01*
X71758000Y-144409170D01*
X71650213Y-144148950D01*
X71451050Y-143949787D01*
X71190830Y-143842000D01*
X70031000Y-143842000D01*
X69854000Y-144019000D01*
X69746000Y-144019000D01*
X69700000Y-143973000D01*
X69700000Y-135531000D01*
X75542000Y-135531000D01*
X75542000Y-136690830D01*
X75649787Y-136951050D01*
X75848950Y-137150213D01*
X76109170Y-137258000D01*
X76519000Y-137258000D01*
X76696000Y-137081000D01*
X76696000Y-135354000D01*
X75719000Y-135354000D01*
X75542000Y-135531000D01*
X69700000Y-135531000D01*
X69700000Y-134000000D01*
X75542000Y-134000000D01*
X75542000Y-135069000D01*
D53*
G36*
X64172400Y-66952400D02*
X64152400Y-66952400D01*
X64152400Y-68272200D01*
X64304800Y-68424600D01*
X64691257Y-68424600D01*
X64746784Y-68401600D01*
X66898400Y-68401600D01*
X66898400Y-92898400D01*
X61101600Y-92898400D01*
X61101600Y-91803866D01*
X61311811Y-91716794D01*
X61483294Y-91545311D01*
X61576100Y-91321257D01*
X61576100Y-91004800D01*
X64490400Y-91004800D01*
X64490400Y-91621257D01*
X64583206Y-91845311D01*
X64754689Y-92016794D01*
X64978743Y-92109600D01*
X65295200Y-92109600D01*
X65447600Y-91957200D01*
X65447600Y-90852400D01*
X65752400Y-90852400D01*
X65752400Y-91957200D01*
X65904800Y-92109600D01*
X66221257Y-92109600D01*
X66445311Y-92016794D01*
X66616794Y-91845311D01*
X66709600Y-91621257D01*
X66709600Y-91004800D01*
X66557200Y-90852400D01*
X65752400Y-90852400D01*
X65447600Y-90852400D01*
X64642800Y-90852400D01*
X64490400Y-91004800D01*
X61576100Y-91004800D01*
X61423700Y-90852400D01*
X61101600Y-90852400D01*
X61101600Y-90547600D01*
X61423700Y-90547600D01*
X61576100Y-90395200D01*
X61576100Y-90078743D01*
X61483294Y-89854689D01*
X61407348Y-89778743D01*
X64490400Y-89778743D01*
X64490400Y-90395200D01*
X64642800Y-90547600D01*
X65447600Y-90547600D01*
X65447600Y-89442800D01*
X65752400Y-89442800D01*
X65752400Y-90547600D01*
X66557200Y-90547600D01*
X66709600Y-90395200D01*
X66709600Y-89778743D01*
X66616794Y-89554689D01*
X66445311Y-89383206D01*
X66221257Y-89290400D01*
X65904800Y-89290400D01*
X65752400Y-89442800D01*
X65447600Y-89442800D01*
X65295200Y-89290400D01*
X64978743Y-89290400D01*
X64754689Y-89383206D01*
X64583206Y-89554689D01*
X64490400Y-89778743D01*
X61407348Y-89778743D01*
X61311811Y-89683206D01*
X61101600Y-89596134D01*
X61101600Y-83803866D01*
X61311811Y-83716794D01*
X61483294Y-83545311D01*
X61576100Y-83321257D01*
X61576100Y-83004800D01*
X64490400Y-83004800D01*
X64490400Y-83621257D01*
X64583206Y-83845311D01*
X64754689Y-84016794D01*
X64978743Y-84109600D01*
X65295200Y-84109600D01*
X65447600Y-83957200D01*
X65447600Y-82852400D01*
X65752400Y-82852400D01*
X65752400Y-83957200D01*
X65904800Y-84109600D01*
X66221257Y-84109600D01*
X66445311Y-84016794D01*
X66616794Y-83845311D01*
X66709600Y-83621257D01*
X66709600Y-83004800D01*
X66557200Y-82852400D01*
X65752400Y-82852400D01*
X65447600Y-82852400D01*
X64642800Y-82852400D01*
X64490400Y-83004800D01*
X61576100Y-83004800D01*
X61423700Y-82852400D01*
X61101600Y-82852400D01*
X61101600Y-82547600D01*
X61423700Y-82547600D01*
X61576100Y-82395200D01*
X61576100Y-82078743D01*
X61483294Y-81854689D01*
X61407348Y-81778743D01*
X64490400Y-81778743D01*
X64490400Y-82395200D01*
X64642800Y-82547600D01*
X65447600Y-82547600D01*
X65447600Y-81442800D01*
X65752400Y-81442800D01*
X65752400Y-82547600D01*
X66557200Y-82547600D01*
X66709600Y-82395200D01*
X66709600Y-81778743D01*
X66616794Y-81554689D01*
X66445311Y-81383206D01*
X66221257Y-81290400D01*
X65904800Y-81290400D01*
X65752400Y-81442800D01*
X65447600Y-81442800D01*
X65295200Y-81290400D01*
X64978743Y-81290400D01*
X64754689Y-81383206D01*
X64583206Y-81554689D01*
X64490400Y-81778743D01*
X61407348Y-81778743D01*
X61311811Y-81683206D01*
X61101600Y-81596134D01*
X61101600Y-75803866D01*
X61311811Y-75716794D01*
X61483294Y-75545311D01*
X61576100Y-75321257D01*
X61576100Y-75004800D01*
X64490400Y-75004800D01*
X64490400Y-75621257D01*
X64583206Y-75845311D01*
X64754689Y-76016794D01*
X64978743Y-76109600D01*
X65295200Y-76109600D01*
X65447600Y-75957200D01*
X65447600Y-74852400D01*
X65752400Y-74852400D01*
X65752400Y-75957200D01*
X65904800Y-76109600D01*
X66221257Y-76109600D01*
X66445311Y-76016794D01*
X66616794Y-75845311D01*
X66709600Y-75621257D01*
X66709600Y-75004800D01*
X66557200Y-74852400D01*
X65752400Y-74852400D01*
X65447600Y-74852400D01*
X64642800Y-74852400D01*
X64490400Y-75004800D01*
X61576100Y-75004800D01*
X61423700Y-74852400D01*
X61101600Y-74852400D01*
X61101600Y-74547600D01*
X61423700Y-74547600D01*
X61576100Y-74395200D01*
X61576100Y-74078743D01*
X61483294Y-73854689D01*
X61407348Y-73778743D01*
X64490400Y-73778743D01*
X64490400Y-74395200D01*
X64642800Y-74547600D01*
X65447600Y-74547600D01*
X65447600Y-73442800D01*
X65752400Y-73442800D01*
X65752400Y-74547600D01*
X66557200Y-74547600D01*
X66709600Y-74395200D01*
X66709600Y-73778743D01*
X66616794Y-73554689D01*
X66445311Y-73383206D01*
X66221257Y-73290400D01*
X65904800Y-73290400D01*
X65752400Y-73442800D01*
X65447600Y-73442800D01*
X65295200Y-73290400D01*
X64978743Y-73290400D01*
X64754689Y-73383206D01*
X64583206Y-73554689D01*
X64490400Y-73778743D01*
X61407348Y-73778743D01*
X61311811Y-73683206D01*
X61101600Y-73596134D01*
X61101600Y-70669741D01*
X62259756Y-70669741D01*
X62396706Y-71000398D01*
X62757855Y-71415218D01*
X63250257Y-71660256D01*
X63467600Y-71548950D01*
X63467600Y-70452400D01*
X63772400Y-70452400D01*
X63772400Y-71548950D01*
X63989743Y-71660256D01*
X64482145Y-71415218D01*
X64843294Y-71000398D01*
X64980244Y-70669741D01*
X64867929Y-70452400D01*
X63772400Y-70452400D01*
X63467600Y-70452400D01*
X62372071Y-70452400D01*
X62259756Y-70669741D01*
X61101600Y-70669741D01*
X61101600Y-69930259D01*
X62259756Y-69930259D01*
X62372071Y-70147600D01*
X63467600Y-70147600D01*
X63467600Y-69051050D01*
X63772400Y-69051050D01*
X63772400Y-70147600D01*
X64867929Y-70147600D01*
X64980244Y-69930259D01*
X64843294Y-69599602D01*
X64482145Y-69184782D01*
X63989743Y-68939744D01*
X63772400Y-69051050D01*
X63467600Y-69051050D01*
X63250257Y-68939744D01*
X62757855Y-69184782D01*
X62396706Y-69599602D01*
X62259756Y-69930259D01*
X61101600Y-69930259D01*
X61101600Y-67104800D01*
X62820400Y-67104800D01*
X62820400Y-67936257D01*
X62913206Y-68160311D01*
X63084689Y-68331794D01*
X63308743Y-68424600D01*
X63695200Y-68424600D01*
X63847600Y-68272200D01*
X63847600Y-66952400D01*
X62972800Y-66952400D01*
X62820400Y-67104800D01*
X61101600Y-67104800D01*
X61101600Y-66701600D01*
X64172400Y-66701600D01*
X64172400Y-66952400D01*
X64172400Y-66952400D01*
G37*
X64172400Y-66952400D02*
X64152400Y-66952400D01*
X64152400Y-68272200D01*
X64304800Y-68424600D01*
X64691257Y-68424600D01*
X64746784Y-68401600D01*
X66898400Y-68401600D01*
X66898400Y-92898400D01*
X61101600Y-92898400D01*
X61101600Y-91803866D01*
X61311811Y-91716794D01*
X61483294Y-91545311D01*
X61576100Y-91321257D01*
X61576100Y-91004800D01*
X64490400Y-91004800D01*
X64490400Y-91621257D01*
X64583206Y-91845311D01*
X64754689Y-92016794D01*
X64978743Y-92109600D01*
X65295200Y-92109600D01*
X65447600Y-91957200D01*
X65447600Y-90852400D01*
X65752400Y-90852400D01*
X65752400Y-91957200D01*
X65904800Y-92109600D01*
X66221257Y-92109600D01*
X66445311Y-92016794D01*
X66616794Y-91845311D01*
X66709600Y-91621257D01*
X66709600Y-91004800D01*
X66557200Y-90852400D01*
X65752400Y-90852400D01*
X65447600Y-90852400D01*
X64642800Y-90852400D01*
X64490400Y-91004800D01*
X61576100Y-91004800D01*
X61423700Y-90852400D01*
X61101600Y-90852400D01*
X61101600Y-90547600D01*
X61423700Y-90547600D01*
X61576100Y-90395200D01*
X61576100Y-90078743D01*
X61483294Y-89854689D01*
X61407348Y-89778743D01*
X64490400Y-89778743D01*
X64490400Y-90395200D01*
X64642800Y-90547600D01*
X65447600Y-90547600D01*
X65447600Y-89442800D01*
X65752400Y-89442800D01*
X65752400Y-90547600D01*
X66557200Y-90547600D01*
X66709600Y-90395200D01*
X66709600Y-89778743D01*
X66616794Y-89554689D01*
X66445311Y-89383206D01*
X66221257Y-89290400D01*
X65904800Y-89290400D01*
X65752400Y-89442800D01*
X65447600Y-89442800D01*
X65295200Y-89290400D01*
X64978743Y-89290400D01*
X64754689Y-89383206D01*
X64583206Y-89554689D01*
X64490400Y-89778743D01*
X61407348Y-89778743D01*
X61311811Y-89683206D01*
X61101600Y-89596134D01*
X61101600Y-83803866D01*
X61311811Y-83716794D01*
X61483294Y-83545311D01*
X61576100Y-83321257D01*
X61576100Y-83004800D01*
X64490400Y-83004800D01*
X64490400Y-83621257D01*
X64583206Y-83845311D01*
X64754689Y-84016794D01*
X64978743Y-84109600D01*
X65295200Y-84109600D01*
X65447600Y-83957200D01*
X65447600Y-82852400D01*
X65752400Y-82852400D01*
X65752400Y-83957200D01*
X65904800Y-84109600D01*
X66221257Y-84109600D01*
X66445311Y-84016794D01*
X66616794Y-83845311D01*
X66709600Y-83621257D01*
X66709600Y-83004800D01*
X66557200Y-82852400D01*
X65752400Y-82852400D01*
X65447600Y-82852400D01*
X64642800Y-82852400D01*
X64490400Y-83004800D01*
X61576100Y-83004800D01*
X61423700Y-82852400D01*
X61101600Y-82852400D01*
X61101600Y-82547600D01*
X61423700Y-82547600D01*
X61576100Y-82395200D01*
X61576100Y-82078743D01*
X61483294Y-81854689D01*
X61407348Y-81778743D01*
X64490400Y-81778743D01*
X64490400Y-82395200D01*
X64642800Y-82547600D01*
X65447600Y-82547600D01*
X65447600Y-81442800D01*
X65752400Y-81442800D01*
X65752400Y-82547600D01*
X66557200Y-82547600D01*
X66709600Y-82395200D01*
X66709600Y-81778743D01*
X66616794Y-81554689D01*
X66445311Y-81383206D01*
X66221257Y-81290400D01*
X65904800Y-81290400D01*
X65752400Y-81442800D01*
X65447600Y-81442800D01*
X65295200Y-81290400D01*
X64978743Y-81290400D01*
X64754689Y-81383206D01*
X64583206Y-81554689D01*
X64490400Y-81778743D01*
X61407348Y-81778743D01*
X61311811Y-81683206D01*
X61101600Y-81596134D01*
X61101600Y-75803866D01*
X61311811Y-75716794D01*
X61483294Y-75545311D01*
X61576100Y-75321257D01*
X61576100Y-75004800D01*
X64490400Y-75004800D01*
X64490400Y-75621257D01*
X64583206Y-75845311D01*
X64754689Y-76016794D01*
X64978743Y-76109600D01*
X65295200Y-76109600D01*
X65447600Y-75957200D01*
X65447600Y-74852400D01*
X65752400Y-74852400D01*
X65752400Y-75957200D01*
X65904800Y-76109600D01*
X66221257Y-76109600D01*
X66445311Y-76016794D01*
X66616794Y-75845311D01*
X66709600Y-75621257D01*
X66709600Y-75004800D01*
X66557200Y-74852400D01*
X65752400Y-74852400D01*
X65447600Y-74852400D01*
X64642800Y-74852400D01*
X64490400Y-75004800D01*
X61576100Y-75004800D01*
X61423700Y-74852400D01*
X61101600Y-74852400D01*
X61101600Y-74547600D01*
X61423700Y-74547600D01*
X61576100Y-74395200D01*
X61576100Y-74078743D01*
X61483294Y-73854689D01*
X61407348Y-73778743D01*
X64490400Y-73778743D01*
X64490400Y-74395200D01*
X64642800Y-74547600D01*
X65447600Y-74547600D01*
X65447600Y-73442800D01*
X65752400Y-73442800D01*
X65752400Y-74547600D01*
X66557200Y-74547600D01*
X66709600Y-74395200D01*
X66709600Y-73778743D01*
X66616794Y-73554689D01*
X66445311Y-73383206D01*
X66221257Y-73290400D01*
X65904800Y-73290400D01*
X65752400Y-73442800D01*
X65447600Y-73442800D01*
X65295200Y-73290400D01*
X64978743Y-73290400D01*
X64754689Y-73383206D01*
X64583206Y-73554689D01*
X64490400Y-73778743D01*
X61407348Y-73778743D01*
X61311811Y-73683206D01*
X61101600Y-73596134D01*
X61101600Y-70669741D01*
X62259756Y-70669741D01*
X62396706Y-71000398D01*
X62757855Y-71415218D01*
X63250257Y-71660256D01*
X63467600Y-71548950D01*
X63467600Y-70452400D01*
X63772400Y-70452400D01*
X63772400Y-71548950D01*
X63989743Y-71660256D01*
X64482145Y-71415218D01*
X64843294Y-71000398D01*
X64980244Y-70669741D01*
X64867929Y-70452400D01*
X63772400Y-70452400D01*
X63467600Y-70452400D01*
X62372071Y-70452400D01*
X62259756Y-70669741D01*
X61101600Y-70669741D01*
X61101600Y-69930259D01*
X62259756Y-69930259D01*
X62372071Y-70147600D01*
X63467600Y-70147600D01*
X63467600Y-69051050D01*
X63772400Y-69051050D01*
X63772400Y-70147600D01*
X64867929Y-70147600D01*
X64980244Y-69930259D01*
X64843294Y-69599602D01*
X64482145Y-69184782D01*
X63989743Y-68939744D01*
X63772400Y-69051050D01*
X63467600Y-69051050D01*
X63250257Y-68939744D01*
X62757855Y-69184782D01*
X62396706Y-69599602D01*
X62259756Y-69930259D01*
X61101600Y-69930259D01*
X61101600Y-67104800D01*
X62820400Y-67104800D01*
X62820400Y-67936257D01*
X62913206Y-68160311D01*
X63084689Y-68331794D01*
X63308743Y-68424600D01*
X63695200Y-68424600D01*
X63847600Y-68272200D01*
X63847600Y-66952400D01*
X62972800Y-66952400D01*
X62820400Y-67104800D01*
X61101600Y-67104800D01*
X61101600Y-66701600D01*
X64172400Y-66701600D01*
X64172400Y-66952400D01*
D51*
G36*
X60200000Y-71992000D02*
X60151000Y-71992000D01*
X59974000Y-72169000D01*
X59974000Y-73146000D01*
X59994000Y-73146000D01*
X59994000Y-73254000D01*
X59974000Y-73254000D01*
X59974000Y-73274000D01*
X59866000Y-73274000D01*
X59866000Y-73254000D01*
X57654000Y-73254000D01*
X57654000Y-74231000D01*
X57831000Y-74408000D01*
X58540830Y-74408000D01*
X58554746Y-74402236D01*
X58554746Y-75000000D01*
X52700000Y-75000000D01*
X52557350Y-75028375D01*
X52467997Y-75028297D01*
X52384688Y-75062720D01*
X52240780Y-75091345D01*
X52119846Y-75172151D01*
X52037266Y-75206272D01*
X51973473Y-75269954D01*
X51851472Y-75351472D01*
X51770667Y-75472406D01*
X51707430Y-75535532D01*
X51672862Y-75618781D01*
X51591345Y-75740780D01*
X51562970Y-75883431D01*
X51528704Y-75965952D01*
X51528625Y-76056092D01*
X51500000Y-76200000D01*
X51528375Y-76342650D01*
X51528297Y-76432003D01*
X51562720Y-76515312D01*
X51591345Y-76659220D01*
X51672151Y-76780154D01*
X51706272Y-76862734D01*
X51769954Y-76926527D01*
X51851472Y-77048528D01*
X51972406Y-77129333D01*
X52035532Y-77192570D01*
X52118781Y-77227138D01*
X52240780Y-77308655D01*
X52383431Y-77337030D01*
X52465952Y-77371296D01*
X52556092Y-77371375D01*
X52700000Y-77400000D01*
X59920000Y-77400000D01*
X60200000Y-77344304D01*
X60200000Y-79992000D01*
X60151000Y-79992000D01*
X59974000Y-80169000D01*
X59974000Y-81146000D01*
X59994000Y-81146000D01*
X59994000Y-81254000D01*
X59974000Y-81254000D01*
X59974000Y-81274000D01*
X59866000Y-81274000D01*
X59866000Y-81254000D01*
X57654000Y-81254000D01*
X57654000Y-82231000D01*
X57831000Y-82408000D01*
X58540830Y-82408000D01*
X58554746Y-82402236D01*
X58554746Y-83000000D01*
X52700000Y-83000000D01*
X52557350Y-83028375D01*
X52467997Y-83028297D01*
X52384688Y-83062720D01*
X52240780Y-83091345D01*
X52119846Y-83172151D01*
X52037266Y-83206272D01*
X51973473Y-83269954D01*
X51851472Y-83351472D01*
X51770667Y-83472406D01*
X51707430Y-83535532D01*
X51672862Y-83618781D01*
X51591345Y-83740780D01*
X51562970Y-83883431D01*
X51528704Y-83965952D01*
X51528625Y-84056092D01*
X51500000Y-84200000D01*
X51528375Y-84342650D01*
X51528297Y-84432003D01*
X51562720Y-84515312D01*
X51591345Y-84659220D01*
X51672151Y-84780154D01*
X51706272Y-84862734D01*
X51769954Y-84926527D01*
X51851472Y-85048528D01*
X51972406Y-85129333D01*
X52035532Y-85192570D01*
X52118781Y-85227138D01*
X52240780Y-85308655D01*
X52383431Y-85337030D01*
X52465952Y-85371296D01*
X52556092Y-85371375D01*
X52700000Y-85400000D01*
X59920000Y-85400000D01*
X60200000Y-85344304D01*
X60200000Y-87992000D01*
X60151000Y-87992000D01*
X59974000Y-88169000D01*
X59974000Y-89146000D01*
X59994000Y-89146000D01*
X59994000Y-89254000D01*
X59974000Y-89254000D01*
X59974000Y-89274000D01*
X59866000Y-89274000D01*
X59866000Y-89254000D01*
X57654000Y-89254000D01*
X57654000Y-90231000D01*
X57831000Y-90408000D01*
X58540830Y-90408000D01*
X58554746Y-90402236D01*
X58554746Y-91000000D01*
X52700000Y-91000000D01*
X52557350Y-91028375D01*
X52467997Y-91028297D01*
X52384688Y-91062720D01*
X52240780Y-91091345D01*
X52119846Y-91172151D01*
X52037266Y-91206272D01*
X51973473Y-91269954D01*
X51851472Y-91351472D01*
X51770667Y-91472406D01*
X51707430Y-91535532D01*
X51672862Y-91618781D01*
X51591345Y-91740780D01*
X51562970Y-91883431D01*
X51528704Y-91965952D01*
X51528625Y-92056092D01*
X51500000Y-92200000D01*
X51528375Y-92342650D01*
X51528297Y-92432003D01*
X51562720Y-92515312D01*
X51591345Y-92659220D01*
X51672151Y-92780154D01*
X51680351Y-92800000D01*
X50675000Y-92800000D01*
X50675000Y-89431000D01*
X56092000Y-89431000D01*
X56092000Y-89840830D01*
X56199787Y-90101050D01*
X56398950Y-90300213D01*
X56659170Y-90408000D01*
X57369000Y-90408000D01*
X57546000Y-90231000D01*
X57546000Y-89254000D01*
X56269000Y-89254000D01*
X56092000Y-89431000D01*
X50675000Y-89431000D01*
X50675000Y-88559170D01*
X56092000Y-88559170D01*
X56092000Y-88969000D01*
X56269000Y-89146000D01*
X57546000Y-89146000D01*
X57546000Y-88169000D01*
X57654000Y-88169000D01*
X57654000Y-89146000D01*
X59866000Y-89146000D01*
X59866000Y-88169000D01*
X59689000Y-87992000D01*
X59029170Y-87992000D01*
X58785000Y-88093139D01*
X58540830Y-87992000D01*
X57831000Y-87992000D01*
X57654000Y-88169000D01*
X57546000Y-88169000D01*
X57369000Y-87992000D01*
X56659170Y-87992000D01*
X56398950Y-88099787D01*
X56199787Y-88298950D01*
X56092000Y-88559170D01*
X50675000Y-88559170D01*
X50675000Y-81431000D01*
X56092000Y-81431000D01*
X56092000Y-81840830D01*
X56199787Y-82101050D01*
X56398950Y-82300213D01*
X56659170Y-82408000D01*
X57369000Y-82408000D01*
X57546000Y-82231000D01*
X57546000Y-81254000D01*
X56269000Y-81254000D01*
X56092000Y-81431000D01*
X50675000Y-81431000D01*
X50675000Y-80559170D01*
X56092000Y-80559170D01*
X56092000Y-80969000D01*
X56269000Y-81146000D01*
X57546000Y-81146000D01*
X57546000Y-80169000D01*
X57654000Y-80169000D01*
X57654000Y-81146000D01*
X59866000Y-81146000D01*
X59866000Y-80169000D01*
X59689000Y-79992000D01*
X59029170Y-79992000D01*
X58785000Y-80093139D01*
X58540830Y-79992000D01*
X57831000Y-79992000D01*
X57654000Y-80169000D01*
X57546000Y-80169000D01*
X57369000Y-79992000D01*
X56659170Y-79992000D01*
X56398950Y-80099787D01*
X56199787Y-80298950D01*
X56092000Y-80559170D01*
X50675000Y-80559170D01*
X50675000Y-73431000D01*
X56092000Y-73431000D01*
X56092000Y-73840830D01*
X56199787Y-74101050D01*
X56398950Y-74300213D01*
X56659170Y-74408000D01*
X57369000Y-74408000D01*
X57546000Y-74231000D01*
X57546000Y-73254000D01*
X56269000Y-73254000D01*
X56092000Y-73431000D01*
X50675000Y-73431000D01*
X50675000Y-72559170D01*
X56092000Y-72559170D01*
X56092000Y-72969000D01*
X56269000Y-73146000D01*
X57546000Y-73146000D01*
X57546000Y-72169000D01*
X57654000Y-72169000D01*
X57654000Y-73146000D01*
X59866000Y-73146000D01*
X59866000Y-72169000D01*
X59689000Y-71992000D01*
X59029170Y-71992000D01*
X58785000Y-72093139D01*
X58540830Y-71992000D01*
X57831000Y-71992000D01*
X57654000Y-72169000D01*
X57546000Y-72169000D01*
X57369000Y-71992000D01*
X56659170Y-71992000D01*
X56398950Y-72099787D01*
X56199787Y-72298950D01*
X56092000Y-72559170D01*
X50675000Y-72559170D01*
X50675000Y-67991000D01*
X50992000Y-67991000D01*
X50992000Y-68800830D01*
X51099787Y-69061050D01*
X51298950Y-69260213D01*
X51454066Y-69324464D01*
X51329103Y-69449209D01*
X51100261Y-70000323D01*
X51099740Y-70597059D01*
X51327620Y-71148572D01*
X51749209Y-71570897D01*
X52300323Y-71799739D01*
X52897059Y-71800260D01*
X53139707Y-71700000D01*
X55998778Y-71700000D01*
X56277256Y-71700243D01*
X56792000Y-71487555D01*
X57186170Y-71094072D01*
X57399757Y-70579699D01*
X57400243Y-70022744D01*
X57187555Y-69508000D01*
X56794072Y-69113830D01*
X56279699Y-68900243D01*
X55722744Y-68899757D01*
X55722156Y-68900000D01*
X54166922Y-68900000D01*
X54208000Y-68800830D01*
X54208000Y-67991000D01*
X54031000Y-67814000D01*
X52654000Y-67814000D01*
X52654000Y-67834000D01*
X52546000Y-67834000D01*
X52546000Y-67814000D01*
X51169000Y-67814000D01*
X50992000Y-67991000D01*
X50675000Y-67991000D01*
X50675000Y-66719170D01*
X50992000Y-66719170D01*
X50992000Y-67529000D01*
X51169000Y-67706000D01*
X52546000Y-67706000D01*
X52546000Y-66329000D01*
X52654000Y-66329000D01*
X52654000Y-67706000D01*
X54031000Y-67706000D01*
X54208000Y-67529000D01*
X54208000Y-66719170D01*
X54100213Y-66458950D01*
X53901050Y-66259787D01*
X53640830Y-66152000D01*
X52831000Y-66152000D01*
X52654000Y-66329000D01*
X52546000Y-66329000D01*
X52369000Y-66152000D01*
X51559170Y-66152000D01*
X51298950Y-66259787D01*
X51099787Y-66458950D01*
X50992000Y-66719170D01*
X50675000Y-66719170D01*
X50675000Y-64208000D01*
X52069000Y-64208000D01*
X52246000Y-64031000D01*
X52246000Y-61554000D01*
X52354000Y-61554000D01*
X52354000Y-64031000D01*
X52531000Y-64208000D01*
X53940830Y-64208000D01*
X54138246Y-64126227D01*
X54138246Y-66000000D01*
X54180083Y-66222346D01*
X54311490Y-66426558D01*
X54511993Y-66563556D01*
X54750000Y-66611754D01*
X59250000Y-66611754D01*
X59472346Y-66569917D01*
X59676558Y-66438510D01*
X59813556Y-66238007D01*
X59861754Y-66000000D01*
X59861754Y-63000000D01*
X59819917Y-62777654D01*
X59688510Y-62573442D01*
X59488007Y-62436444D01*
X59250000Y-62388246D01*
X54750000Y-62388246D01*
X54527654Y-62430083D01*
X54508000Y-62442730D01*
X54508000Y-61731000D01*
X54331000Y-61554000D01*
X52354000Y-61554000D01*
X52246000Y-61554000D01*
X52226000Y-61554000D01*
X52226000Y-61446000D01*
X52246000Y-61446000D01*
X52246000Y-58969000D01*
X52354000Y-58969000D01*
X52354000Y-61446000D01*
X54331000Y-61446000D01*
X54508000Y-61269000D01*
X54508000Y-60666094D01*
X54609170Y-60708000D01*
X56769000Y-60708000D01*
X56946000Y-60531000D01*
X56946000Y-58554000D01*
X57054000Y-58554000D01*
X57054000Y-60531000D01*
X57231000Y-60708000D01*
X59390830Y-60708000D01*
X59651050Y-60600213D01*
X59850213Y-60401050D01*
X59958000Y-60140830D01*
X59958000Y-58731000D01*
X59781000Y-58554000D01*
X57054000Y-58554000D01*
X56946000Y-58554000D01*
X54219000Y-58554000D01*
X54042000Y-58731000D01*
X54042000Y-58833906D01*
X53940830Y-58792000D01*
X52531000Y-58792000D01*
X52354000Y-58969000D01*
X52246000Y-58969000D01*
X52069000Y-58792000D01*
X50675000Y-58792000D01*
X50675000Y-56859170D01*
X54042000Y-56859170D01*
X54042000Y-58269000D01*
X54219000Y-58446000D01*
X56946000Y-58446000D01*
X56946000Y-56469000D01*
X57054000Y-56469000D01*
X57054000Y-58446000D01*
X59781000Y-58446000D01*
X59958000Y-58269000D01*
X59958000Y-56859170D01*
X59850213Y-56598950D01*
X59651050Y-56399787D01*
X59390830Y-56292000D01*
X57231000Y-56292000D01*
X57054000Y-56469000D01*
X56946000Y-56469000D01*
X56769000Y-56292000D01*
X54609170Y-56292000D01*
X54348950Y-56399787D01*
X54149787Y-56598950D01*
X54042000Y-56859170D01*
X50675000Y-56859170D01*
X50675000Y-50675000D01*
X60200000Y-50675000D01*
X60200000Y-71992000D01*
X60200000Y-71992000D01*
G37*
X60200000Y-71992000D02*
X60151000Y-71992000D01*
X59974000Y-72169000D01*
X59974000Y-73146000D01*
X59994000Y-73146000D01*
X59994000Y-73254000D01*
X59974000Y-73254000D01*
X59974000Y-73274000D01*
X59866000Y-73274000D01*
X59866000Y-73254000D01*
X57654000Y-73254000D01*
X57654000Y-74231000D01*
X57831000Y-74408000D01*
X58540830Y-74408000D01*
X58554746Y-74402236D01*
X58554746Y-75000000D01*
X52700000Y-75000000D01*
X52557350Y-75028375D01*
X52467997Y-75028297D01*
X52384688Y-75062720D01*
X52240780Y-75091345D01*
X52119846Y-75172151D01*
X52037266Y-75206272D01*
X51973473Y-75269954D01*
X51851472Y-75351472D01*
X51770667Y-75472406D01*
X51707430Y-75535532D01*
X51672862Y-75618781D01*
X51591345Y-75740780D01*
X51562970Y-75883431D01*
X51528704Y-75965952D01*
X51528625Y-76056092D01*
X51500000Y-76200000D01*
X51528375Y-76342650D01*
X51528297Y-76432003D01*
X51562720Y-76515312D01*
X51591345Y-76659220D01*
X51672151Y-76780154D01*
X51706272Y-76862734D01*
X51769954Y-76926527D01*
X51851472Y-77048528D01*
X51972406Y-77129333D01*
X52035532Y-77192570D01*
X52118781Y-77227138D01*
X52240780Y-77308655D01*
X52383431Y-77337030D01*
X52465952Y-77371296D01*
X52556092Y-77371375D01*
X52700000Y-77400000D01*
X59920000Y-77400000D01*
X60200000Y-77344304D01*
X60200000Y-79992000D01*
X60151000Y-79992000D01*
X59974000Y-80169000D01*
X59974000Y-81146000D01*
X59994000Y-81146000D01*
X59994000Y-81254000D01*
X59974000Y-81254000D01*
X59974000Y-81274000D01*
X59866000Y-81274000D01*
X59866000Y-81254000D01*
X57654000Y-81254000D01*
X57654000Y-82231000D01*
X57831000Y-82408000D01*
X58540830Y-82408000D01*
X58554746Y-82402236D01*
X58554746Y-83000000D01*
X52700000Y-83000000D01*
X52557350Y-83028375D01*
X52467997Y-83028297D01*
X52384688Y-83062720D01*
X52240780Y-83091345D01*
X52119846Y-83172151D01*
X52037266Y-83206272D01*
X51973473Y-83269954D01*
X51851472Y-83351472D01*
X51770667Y-83472406D01*
X51707430Y-83535532D01*
X51672862Y-83618781D01*
X51591345Y-83740780D01*
X51562970Y-83883431D01*
X51528704Y-83965952D01*
X51528625Y-84056092D01*
X51500000Y-84200000D01*
X51528375Y-84342650D01*
X51528297Y-84432003D01*
X51562720Y-84515312D01*
X51591345Y-84659220D01*
X51672151Y-84780154D01*
X51706272Y-84862734D01*
X51769954Y-84926527D01*
X51851472Y-85048528D01*
X51972406Y-85129333D01*
X52035532Y-85192570D01*
X52118781Y-85227138D01*
X52240780Y-85308655D01*
X52383431Y-85337030D01*
X52465952Y-85371296D01*
X52556092Y-85371375D01*
X52700000Y-85400000D01*
X59920000Y-85400000D01*
X60200000Y-85344304D01*
X60200000Y-87992000D01*
X60151000Y-87992000D01*
X59974000Y-88169000D01*
X59974000Y-89146000D01*
X59994000Y-89146000D01*
X59994000Y-89254000D01*
X59974000Y-89254000D01*
X59974000Y-89274000D01*
X59866000Y-89274000D01*
X59866000Y-89254000D01*
X57654000Y-89254000D01*
X57654000Y-90231000D01*
X57831000Y-90408000D01*
X58540830Y-90408000D01*
X58554746Y-90402236D01*
X58554746Y-91000000D01*
X52700000Y-91000000D01*
X52557350Y-91028375D01*
X52467997Y-91028297D01*
X52384688Y-91062720D01*
X52240780Y-91091345D01*
X52119846Y-91172151D01*
X52037266Y-91206272D01*
X51973473Y-91269954D01*
X51851472Y-91351472D01*
X51770667Y-91472406D01*
X51707430Y-91535532D01*
X51672862Y-91618781D01*
X51591345Y-91740780D01*
X51562970Y-91883431D01*
X51528704Y-91965952D01*
X51528625Y-92056092D01*
X51500000Y-92200000D01*
X51528375Y-92342650D01*
X51528297Y-92432003D01*
X51562720Y-92515312D01*
X51591345Y-92659220D01*
X51672151Y-92780154D01*
X51680351Y-92800000D01*
X50675000Y-92800000D01*
X50675000Y-89431000D01*
X56092000Y-89431000D01*
X56092000Y-89840830D01*
X56199787Y-90101050D01*
X56398950Y-90300213D01*
X56659170Y-90408000D01*
X57369000Y-90408000D01*
X57546000Y-90231000D01*
X57546000Y-89254000D01*
X56269000Y-89254000D01*
X56092000Y-89431000D01*
X50675000Y-89431000D01*
X50675000Y-88559170D01*
X56092000Y-88559170D01*
X56092000Y-88969000D01*
X56269000Y-89146000D01*
X57546000Y-89146000D01*
X57546000Y-88169000D01*
X57654000Y-88169000D01*
X57654000Y-89146000D01*
X59866000Y-89146000D01*
X59866000Y-88169000D01*
X59689000Y-87992000D01*
X59029170Y-87992000D01*
X58785000Y-88093139D01*
X58540830Y-87992000D01*
X57831000Y-87992000D01*
X57654000Y-88169000D01*
X57546000Y-88169000D01*
X57369000Y-87992000D01*
X56659170Y-87992000D01*
X56398950Y-88099787D01*
X56199787Y-88298950D01*
X56092000Y-88559170D01*
X50675000Y-88559170D01*
X50675000Y-81431000D01*
X56092000Y-81431000D01*
X56092000Y-81840830D01*
X56199787Y-82101050D01*
X56398950Y-82300213D01*
X56659170Y-82408000D01*
X57369000Y-82408000D01*
X57546000Y-82231000D01*
X57546000Y-81254000D01*
X56269000Y-81254000D01*
X56092000Y-81431000D01*
X50675000Y-81431000D01*
X50675000Y-80559170D01*
X56092000Y-80559170D01*
X56092000Y-80969000D01*
X56269000Y-81146000D01*
X57546000Y-81146000D01*
X57546000Y-80169000D01*
X57654000Y-80169000D01*
X57654000Y-81146000D01*
X59866000Y-81146000D01*
X59866000Y-80169000D01*
X59689000Y-79992000D01*
X59029170Y-79992000D01*
X58785000Y-80093139D01*
X58540830Y-79992000D01*
X57831000Y-79992000D01*
X57654000Y-80169000D01*
X57546000Y-80169000D01*
X57369000Y-79992000D01*
X56659170Y-79992000D01*
X56398950Y-80099787D01*
X56199787Y-80298950D01*
X56092000Y-80559170D01*
X50675000Y-80559170D01*
X50675000Y-73431000D01*
X56092000Y-73431000D01*
X56092000Y-73840830D01*
X56199787Y-74101050D01*
X56398950Y-74300213D01*
X56659170Y-74408000D01*
X57369000Y-74408000D01*
X57546000Y-74231000D01*
X57546000Y-73254000D01*
X56269000Y-73254000D01*
X56092000Y-73431000D01*
X50675000Y-73431000D01*
X50675000Y-72559170D01*
X56092000Y-72559170D01*
X56092000Y-72969000D01*
X56269000Y-73146000D01*
X57546000Y-73146000D01*
X57546000Y-72169000D01*
X57654000Y-72169000D01*
X57654000Y-73146000D01*
X59866000Y-73146000D01*
X59866000Y-72169000D01*
X59689000Y-71992000D01*
X59029170Y-71992000D01*
X58785000Y-72093139D01*
X58540830Y-71992000D01*
X57831000Y-71992000D01*
X57654000Y-72169000D01*
X57546000Y-72169000D01*
X57369000Y-71992000D01*
X56659170Y-71992000D01*
X56398950Y-72099787D01*
X56199787Y-72298950D01*
X56092000Y-72559170D01*
X50675000Y-72559170D01*
X50675000Y-67991000D01*
X50992000Y-67991000D01*
X50992000Y-68800830D01*
X51099787Y-69061050D01*
X51298950Y-69260213D01*
X51454066Y-69324464D01*
X51329103Y-69449209D01*
X51100261Y-70000323D01*
X51099740Y-70597059D01*
X51327620Y-71148572D01*
X51749209Y-71570897D01*
X52300323Y-71799739D01*
X52897059Y-71800260D01*
X53139707Y-71700000D01*
X55998778Y-71700000D01*
X56277256Y-71700243D01*
X56792000Y-71487555D01*
X57186170Y-71094072D01*
X57399757Y-70579699D01*
X57400243Y-70022744D01*
X57187555Y-69508000D01*
X56794072Y-69113830D01*
X56279699Y-68900243D01*
X55722744Y-68899757D01*
X55722156Y-68900000D01*
X54166922Y-68900000D01*
X54208000Y-68800830D01*
X54208000Y-67991000D01*
X54031000Y-67814000D01*
X52654000Y-67814000D01*
X52654000Y-67834000D01*
X52546000Y-67834000D01*
X52546000Y-67814000D01*
X51169000Y-67814000D01*
X50992000Y-67991000D01*
X50675000Y-67991000D01*
X50675000Y-66719170D01*
X50992000Y-66719170D01*
X50992000Y-67529000D01*
X51169000Y-67706000D01*
X52546000Y-67706000D01*
X52546000Y-66329000D01*
X52654000Y-66329000D01*
X52654000Y-67706000D01*
X54031000Y-67706000D01*
X54208000Y-67529000D01*
X54208000Y-66719170D01*
X54100213Y-66458950D01*
X53901050Y-66259787D01*
X53640830Y-66152000D01*
X52831000Y-66152000D01*
X52654000Y-66329000D01*
X52546000Y-66329000D01*
X52369000Y-66152000D01*
X51559170Y-66152000D01*
X51298950Y-66259787D01*
X51099787Y-66458950D01*
X50992000Y-66719170D01*
X50675000Y-66719170D01*
X50675000Y-64208000D01*
X52069000Y-64208000D01*
X52246000Y-64031000D01*
X52246000Y-61554000D01*
X52354000Y-61554000D01*
X52354000Y-64031000D01*
X52531000Y-64208000D01*
X53940830Y-64208000D01*
X54138246Y-64126227D01*
X54138246Y-66000000D01*
X54180083Y-66222346D01*
X54311490Y-66426558D01*
X54511993Y-66563556D01*
X54750000Y-66611754D01*
X59250000Y-66611754D01*
X59472346Y-66569917D01*
X59676558Y-66438510D01*
X59813556Y-66238007D01*
X59861754Y-66000000D01*
X59861754Y-63000000D01*
X59819917Y-62777654D01*
X59688510Y-62573442D01*
X59488007Y-62436444D01*
X59250000Y-62388246D01*
X54750000Y-62388246D01*
X54527654Y-62430083D01*
X54508000Y-62442730D01*
X54508000Y-61731000D01*
X54331000Y-61554000D01*
X52354000Y-61554000D01*
X52246000Y-61554000D01*
X52226000Y-61554000D01*
X52226000Y-61446000D01*
X52246000Y-61446000D01*
X52246000Y-58969000D01*
X52354000Y-58969000D01*
X52354000Y-61446000D01*
X54331000Y-61446000D01*
X54508000Y-61269000D01*
X54508000Y-60666094D01*
X54609170Y-60708000D01*
X56769000Y-60708000D01*
X56946000Y-60531000D01*
X56946000Y-58554000D01*
X57054000Y-58554000D01*
X57054000Y-60531000D01*
X57231000Y-60708000D01*
X59390830Y-60708000D01*
X59651050Y-60600213D01*
X59850213Y-60401050D01*
X59958000Y-60140830D01*
X59958000Y-58731000D01*
X59781000Y-58554000D01*
X57054000Y-58554000D01*
X56946000Y-58554000D01*
X54219000Y-58554000D01*
X54042000Y-58731000D01*
X54042000Y-58833906D01*
X53940830Y-58792000D01*
X52531000Y-58792000D01*
X52354000Y-58969000D01*
X52246000Y-58969000D01*
X52069000Y-58792000D01*
X50675000Y-58792000D01*
X50675000Y-56859170D01*
X54042000Y-56859170D01*
X54042000Y-58269000D01*
X54219000Y-58446000D01*
X56946000Y-58446000D01*
X56946000Y-56469000D01*
X57054000Y-56469000D01*
X57054000Y-58446000D01*
X59781000Y-58446000D01*
X59958000Y-58269000D01*
X59958000Y-56859170D01*
X59850213Y-56598950D01*
X59651050Y-56399787D01*
X59390830Y-56292000D01*
X57231000Y-56292000D01*
X57054000Y-56469000D01*
X56946000Y-56469000D01*
X56769000Y-56292000D01*
X54609170Y-56292000D01*
X54348950Y-56399787D01*
X54149787Y-56598950D01*
X54042000Y-56859170D01*
X50675000Y-56859170D01*
X50675000Y-50675000D01*
X60200000Y-50675000D01*
X60200000Y-71992000D01*
M02*
