G04 #@! TF.GenerationSoftware,KiCad,Pcbnew,5.1.6-c6e7f7d~86~ubuntu20.04.1*
G04 #@! TF.CreationDate,2020-05-17T16:05:01+03:00*
G04 #@! TF.ProjectId,GB-BENCH-G1,47422d42-454e-4434-982d-47312e6b6963,rev?*
G04 #@! TF.SameCoordinates,Original*
G04 #@! TF.FileFunction,Soldermask,Bot*
G04 #@! TF.FilePolarity,Negative*
%FSLAX46Y46*%
G04 Gerber Fmt 4.6, Leading zero omitted, Abs format (unit mm)*
G04 Created by KiCad (PCBNEW 5.1.6-c6e7f7d~86~ubuntu20.04.1) date 2020-05-17 16:05:01*
%MOMM*%
%LPD*%
G01*
G04 APERTURE LIST*
G04 #@! TA.AperFunction,Profile*
%ADD10C,0.150000*%
G04 #@! TD*
%ADD11C,3.000000*%
%ADD12C,1.143000*%
%ADD13R,1.727200X1.727200*%
%ADD14O,1.727200X1.727200*%
%ADD15R,1.800000X1.800000*%
%ADD16C,1.800000*%
%ADD17R,1.700000X1.700000*%
%ADD18O,1.700000X1.700000*%
%ADD19C,1.600000*%
%ADD20O,1.600000X1.600000*%
%ADD21R,2.300000X4.600000*%
%ADD22R,3.000000X4.000000*%
%ADD23R,4.500000X3.000000*%
G04 APERTURE END LIST*
D10*
X77000000Y-139000000D02*
X77000000Y-150000000D01*
X123000000Y-139000000D02*
X77000000Y-139000000D01*
X123000000Y-150000000D02*
X123000000Y-139000000D01*
X123000000Y-150000000D02*
X150000000Y-150000000D01*
X50000000Y-150000000D02*
X77000000Y-150000000D01*
X150000000Y-50000000D02*
X150000000Y-150000000D01*
X50000000Y-50000000D02*
X50000000Y-150000000D01*
X50000000Y-50000000D02*
X150000000Y-50000000D01*
D11*
X58100000Y-97200000D03*
X53020000Y-97200000D03*
D12*
X101900000Y-94200000D03*
X52700000Y-92200000D03*
D13*
X132960000Y-56100000D03*
D14*
X135500000Y-56100000D03*
X132960000Y-58640000D03*
X135500000Y-58640000D03*
X132960000Y-61180000D03*
X135500000Y-61180000D03*
X132960000Y-63720000D03*
X135500000Y-63720000D03*
X132960000Y-66260000D03*
X135500000Y-66260000D03*
X132960000Y-68800000D03*
X135500000Y-68800000D03*
X132960000Y-71340000D03*
X135500000Y-71340000D03*
X132960000Y-73880000D03*
X135500000Y-73880000D03*
D15*
X52600000Y-67760000D03*
D16*
X52600000Y-70300000D03*
D13*
X143160000Y-56100000D03*
D14*
X145700000Y-56100000D03*
X143160000Y-58640000D03*
X145700000Y-58640000D03*
X143160000Y-61180000D03*
X145700000Y-61180000D03*
X143160000Y-63720000D03*
X145700000Y-63720000D03*
X143160000Y-66260000D03*
X145700000Y-66260000D03*
X143160000Y-68800000D03*
X145700000Y-68800000D03*
X143160000Y-71340000D03*
X145700000Y-71340000D03*
X143160000Y-73880000D03*
X145700000Y-73880000D03*
D17*
X142300000Y-117500000D03*
D18*
X144840000Y-117500000D03*
X142300000Y-120040000D03*
X144840000Y-120040000D03*
X142300000Y-122580000D03*
X144840000Y-122580000D03*
X142300000Y-125120000D03*
X144840000Y-125120000D03*
X142300000Y-127660000D03*
X144840000Y-127660000D03*
X142300000Y-130200000D03*
X144840000Y-130200000D03*
X142300000Y-132740000D03*
X144840000Y-132740000D03*
X142300000Y-135280000D03*
X144840000Y-135280000D03*
X142300000Y-137820000D03*
X144840000Y-137820000D03*
X142300000Y-140360000D03*
X144840000Y-140360000D03*
X142300000Y-142900000D03*
X144840000Y-142900000D03*
X142300000Y-145440000D03*
X144840000Y-145440000D03*
X142300000Y-147980000D03*
X144840000Y-147980000D03*
D17*
X125800000Y-113060000D03*
D18*
X125800000Y-110520000D03*
X125800000Y-107980000D03*
X125800000Y-105440000D03*
X125800000Y-102900000D03*
X125800000Y-100360000D03*
X125800000Y-97820000D03*
X125800000Y-95280000D03*
D17*
X135180000Y-82900000D03*
D18*
X137720000Y-82900000D03*
X140260000Y-82900000D03*
X142800000Y-82900000D03*
X145340000Y-82900000D03*
X147880000Y-82900000D03*
D17*
X54600000Y-109880000D03*
D18*
X57140000Y-109880000D03*
X54600000Y-112420000D03*
X57140000Y-112420000D03*
X54600000Y-114960000D03*
X57140000Y-114960000D03*
X54600000Y-117500000D03*
X57140000Y-117500000D03*
X54600000Y-120040000D03*
X57140000Y-120040000D03*
X54600000Y-122580000D03*
X57140000Y-122580000D03*
X54600000Y-125120000D03*
X57140000Y-125120000D03*
X54600000Y-127660000D03*
X57140000Y-127660000D03*
X54600000Y-130200000D03*
X57140000Y-130200000D03*
X54600000Y-132740000D03*
X57140000Y-132740000D03*
X54600000Y-135280000D03*
X57140000Y-135280000D03*
X54600000Y-137820000D03*
X57140000Y-137820000D03*
X54600000Y-140360000D03*
X57140000Y-140360000D03*
X54600000Y-142900000D03*
X57140000Y-142900000D03*
X54600000Y-145440000D03*
X57140000Y-145440000D03*
X54600000Y-147980000D03*
X57140000Y-147980000D03*
D17*
X121900000Y-95280000D03*
D18*
X121900000Y-97820000D03*
X121900000Y-100360000D03*
X121900000Y-102900000D03*
X121900000Y-105440000D03*
X121900000Y-107980000D03*
D17*
X75380000Y-96900000D03*
D18*
X72840000Y-96900000D03*
X70300000Y-96900000D03*
X67760000Y-96900000D03*
X65220000Y-96900000D03*
D17*
X64500000Y-59000000D03*
D18*
X64500000Y-56460000D03*
D19*
X56000000Y-70300000D03*
D20*
X63620000Y-70300000D03*
D12*
X64500000Y-52600000D03*
X52700000Y-76200000D03*
X52700000Y-84200000D03*
X103900000Y-92000000D03*
X100100000Y-92000000D03*
X98300000Y-94200000D03*
X101500000Y-83200000D03*
D17*
X110080000Y-55200000D03*
D18*
X110080000Y-52660000D03*
X112620000Y-55200000D03*
X112620000Y-52660000D03*
X115160000Y-55200000D03*
X115160000Y-52660000D03*
X117700000Y-55200000D03*
X117700000Y-52660000D03*
X120240000Y-55200000D03*
X120240000Y-52660000D03*
D21*
X70400000Y-57100000D03*
X77400000Y-57100000D03*
D22*
X52200000Y-61500000D03*
D23*
X56900000Y-58500000D03*
X56900000Y-64500000D03*
M02*
