G04 #@! TF.GenerationSoftware,KiCad,Pcbnew,5.1.6-c6e7f7d~86~ubuntu20.04.1*
G04 #@! TF.CreationDate,2020-05-17T16:02:51+03:00*
G04 #@! TF.ProjectId,GB-BRK-M-XS,47422d42-524b-42d4-9d2d-58532e6b6963,v1.0*
G04 #@! TF.SameCoordinates,Original*
G04 #@! TF.FileFunction,Copper,L1,Top*
G04 #@! TF.FilePolarity,Positive*
%FSLAX46Y46*%
G04 Gerber Fmt 4.6, Leading zero omitted, Abs format (unit mm)*
G04 Created by KiCad (PCBNEW 5.1.6-c6e7f7d~86~ubuntu20.04.1) date 2020-05-17 16:02:51*
%MOMM*%
%LPD*%
G01*
G04 APERTURE LIST*
G04 #@! TA.AperFunction,Profile*
%ADD10C,0.150000*%
G04 #@! TD*
G04 #@! TA.AperFunction,ConnectorPad*
%ADD11R,1.300000X6.000000*%
G04 #@! TD*
G04 #@! TA.AperFunction,ConnectorPad*
%ADD12R,1.000000X5.500000*%
G04 #@! TD*
G04 #@! TA.AperFunction,SMDPad,CuDef*
%ADD13R,0.670000X1.000000*%
G04 #@! TD*
G04 #@! TA.AperFunction,SMDPad,CuDef*
%ADD14R,1.000000X3.150000*%
G04 #@! TD*
G04 #@! TA.AperFunction,ViaPad*
%ADD15C,0.600000*%
G04 #@! TD*
G04 #@! TA.AperFunction,ViaPad*
%ADD16C,1.000000*%
G04 #@! TD*
G04 #@! TA.AperFunction,Conductor*
%ADD17C,0.800000*%
G04 #@! TD*
G04 #@! TA.AperFunction,Conductor*
%ADD18C,1.000000*%
G04 #@! TD*
G04 #@! TA.AperFunction,Conductor*
%ADD19C,0.400000*%
G04 #@! TD*
G04 #@! TA.AperFunction,Conductor*
%ADD20C,0.254000*%
G04 #@! TD*
G04 APERTURE END LIST*
D10*
X74300000Y-75000000D02*
X125700000Y-75000000D01*
X74300000Y-91400000D02*
X74300000Y-75000000D01*
X75400000Y-91400000D02*
X74300000Y-91400000D01*
X75400000Y-100000000D02*
X75400000Y-91400000D01*
X125700000Y-91400000D02*
X125700000Y-75000000D01*
X124600000Y-91400000D02*
X125700000Y-91400000D01*
X124600000Y-100000000D02*
X124600000Y-91400000D01*
X75400000Y-100000000D02*
X124600000Y-100000000D01*
D11*
X123400000Y-96000000D03*
D12*
X121750000Y-95750000D03*
X120250000Y-95750000D03*
X118750000Y-95750000D03*
X117250000Y-95750000D03*
X115750000Y-95750000D03*
X114250000Y-95750000D03*
X112750000Y-95750000D03*
X111250000Y-95750000D03*
X109750000Y-95750000D03*
X108250000Y-95750000D03*
X106750000Y-95750000D03*
X105250000Y-95750000D03*
X103750000Y-95750000D03*
X102250000Y-95750000D03*
X100750000Y-95750000D03*
X99250000Y-95750000D03*
X97750000Y-95750000D03*
X96250000Y-95750000D03*
X94750000Y-95750000D03*
X93250000Y-95750000D03*
X91750000Y-95750000D03*
X90250000Y-95750000D03*
X88750000Y-95750000D03*
X87250000Y-95750000D03*
X85750000Y-95750000D03*
X84250000Y-95750000D03*
X82750000Y-95750000D03*
X81250000Y-95750000D03*
X79750000Y-95750000D03*
D11*
X76600000Y-96000000D03*
D12*
X78250000Y-95750000D03*
D13*
X77675000Y-76800000D03*
X75925000Y-76800000D03*
D14*
X80950000Y-84525000D03*
X80950000Y-79475000D03*
X83490000Y-84525000D03*
X83490000Y-79475000D03*
X86030000Y-84525000D03*
X86030000Y-79475000D03*
X88570000Y-84525000D03*
X88570000Y-79475000D03*
X91110000Y-84525000D03*
X91110000Y-79475000D03*
X93650000Y-84525000D03*
X93650000Y-79475000D03*
X96190000Y-84525000D03*
X96190000Y-79475000D03*
X98730000Y-84525000D03*
X98730000Y-79475000D03*
X101270000Y-84525000D03*
X101270000Y-79475000D03*
X103810000Y-84525000D03*
X103810000Y-79475000D03*
X106350000Y-84525000D03*
X106350000Y-79475000D03*
X108890000Y-84525000D03*
X108890000Y-79475000D03*
X111430000Y-84525000D03*
X111430000Y-79475000D03*
X113970000Y-84525000D03*
X113970000Y-79475000D03*
X116510000Y-84525000D03*
X116510000Y-79475000D03*
X119050000Y-84525000D03*
X119050000Y-79475000D03*
D13*
X77575000Y-78600000D03*
X75825000Y-78600000D03*
D15*
X76600000Y-92600000D03*
D16*
X78900000Y-76800000D03*
D15*
X123400000Y-92600000D03*
X86000000Y-82000000D03*
X79800000Y-92600000D03*
X88600000Y-82000000D03*
X81300000Y-92600000D03*
X91100000Y-82000000D03*
X82800000Y-92600000D03*
X114000000Y-82000000D03*
X120250000Y-92600000D03*
X84300000Y-92600000D03*
X83500000Y-82000000D03*
X78300000Y-92600000D03*
X85700000Y-92600000D03*
X87250000Y-92600000D03*
X88800000Y-92600000D03*
X90200000Y-92600000D03*
X93700000Y-82000000D03*
X108250000Y-92600000D03*
X91800000Y-92600000D03*
X96200000Y-82000000D03*
X109750000Y-92600000D03*
X93300000Y-92600000D03*
X98700000Y-82000000D03*
X111250000Y-92600000D03*
X94700000Y-92600000D03*
X101300000Y-82000000D03*
X112750000Y-92600000D03*
X96200000Y-92600000D03*
X103800000Y-82000000D03*
X114250000Y-92600000D03*
X97700000Y-92600000D03*
X106300000Y-82000000D03*
X115750000Y-92600000D03*
X99300000Y-92600000D03*
X108900000Y-82000000D03*
X117250000Y-92600000D03*
X100800000Y-92600000D03*
X111400000Y-82000000D03*
X118750000Y-92600000D03*
X102300000Y-92600000D03*
X103800000Y-92600000D03*
X116500000Y-82000000D03*
X121750000Y-92600000D03*
X105300000Y-92600000D03*
X106800000Y-92600000D03*
D17*
X76600000Y-92600000D02*
X76600000Y-91500000D01*
X76600000Y-95750000D02*
X76600000Y-92600000D01*
D18*
X77600000Y-76800000D02*
X78900000Y-76800000D01*
D17*
X123400000Y-96000000D02*
X123400000Y-92600000D01*
D19*
X75950000Y-78600000D02*
X75950000Y-76850000D01*
X75950000Y-76850000D02*
X76000000Y-76800000D01*
X86000000Y-82000000D02*
X86000000Y-79505000D01*
X86000000Y-79505000D02*
X86030000Y-79475000D01*
X79750000Y-95750000D02*
X79750000Y-92650000D01*
X79750000Y-92650000D02*
X79800000Y-92600000D01*
X88600000Y-82000000D02*
X88600000Y-79505000D01*
X88600000Y-79505000D02*
X88570000Y-79475000D01*
X81250000Y-95750000D02*
X81250000Y-92650000D01*
X81250000Y-92650000D02*
X81300000Y-92600000D01*
X91100000Y-82000000D02*
X91100000Y-79485000D01*
X91100000Y-79485000D02*
X91110000Y-79475000D01*
X82750000Y-95750000D02*
X82750000Y-92650000D01*
X82750000Y-92650000D02*
X82800000Y-92600000D01*
X114000000Y-82000000D02*
X114000000Y-79505000D01*
X114000000Y-79505000D02*
X113970000Y-79475000D01*
X120250000Y-92600000D02*
X120250000Y-95750000D01*
X80950000Y-84525000D02*
X80950000Y-89250000D01*
X80950000Y-89250000D02*
X84300000Y-92600000D01*
X84250000Y-95750000D02*
X84250000Y-92650000D01*
X84250000Y-92650000D02*
X84300000Y-92600000D01*
X83490000Y-81990000D02*
X83500000Y-82000000D01*
X83490000Y-79475000D02*
X83490000Y-81990000D01*
X83500000Y-79485000D02*
X83500000Y-82000000D01*
X78250000Y-95750000D02*
X78250000Y-92650000D01*
X78250000Y-92650000D02*
X78300000Y-92600000D01*
X83490000Y-84525000D02*
X83490000Y-90390000D01*
X83490000Y-90390000D02*
X85700000Y-92600000D01*
X85750000Y-95750000D02*
X85750000Y-92650000D01*
X85750000Y-92650000D02*
X85700000Y-92600000D01*
X86030000Y-84525000D02*
X86030000Y-91380000D01*
X86030000Y-91380000D02*
X87250000Y-92600000D01*
X87250000Y-95750000D02*
X87250000Y-92600000D01*
X88570000Y-84525000D02*
X88570000Y-92370000D01*
X88570000Y-92370000D02*
X88800000Y-92600000D01*
X88750000Y-95750000D02*
X88750000Y-92650000D01*
X88750000Y-92650000D02*
X88800000Y-92600000D01*
X91110000Y-84525000D02*
X91110000Y-91690000D01*
X91110000Y-91690000D02*
X90200000Y-92600000D01*
X90250000Y-95750000D02*
X90250000Y-92650000D01*
X90250000Y-92650000D02*
X90200000Y-92600000D01*
X93700000Y-82000000D02*
X93700000Y-79525000D01*
X93700000Y-79525000D02*
X93650000Y-79475000D01*
X108250000Y-92600000D02*
X108250000Y-95750000D01*
X93650000Y-84525000D02*
X93650000Y-90750000D01*
X93650000Y-90750000D02*
X91800000Y-92600000D01*
X91750000Y-95750000D02*
X91750000Y-92650000D01*
X91750000Y-92650000D02*
X91800000Y-92600000D01*
X96200000Y-82000000D02*
X96200000Y-79485000D01*
X96200000Y-79485000D02*
X96190000Y-79475000D01*
X109750000Y-92600000D02*
X109750000Y-95750000D01*
X96190000Y-84525000D02*
X96190000Y-89710000D01*
X96190000Y-89710000D02*
X93300000Y-92600000D01*
X93250000Y-95750000D02*
X93250000Y-92650000D01*
X93250000Y-92650000D02*
X93300000Y-92600000D01*
X98700000Y-82000000D02*
X98700000Y-79505000D01*
X98700000Y-79505000D02*
X98730000Y-79475000D01*
X111250000Y-92600000D02*
X111250000Y-95750000D01*
X98730000Y-84525000D02*
X98730000Y-88570000D01*
X98730000Y-88570000D02*
X94700000Y-92600000D01*
X94750000Y-95750000D02*
X94750000Y-92650000D01*
X94750000Y-92650000D02*
X94700000Y-92600000D01*
X101300000Y-82000000D02*
X101300000Y-79505000D01*
X101300000Y-79505000D02*
X101270000Y-79475000D01*
X112750000Y-92600000D02*
X112750000Y-95750000D01*
X101270000Y-84525000D02*
X101270000Y-87530000D01*
X101270000Y-87530000D02*
X96200000Y-92600000D01*
X96250000Y-95750000D02*
X96250000Y-92650000D01*
X96250000Y-92650000D02*
X96200000Y-92600000D01*
X103800000Y-82000000D02*
X103800000Y-79485000D01*
X103800000Y-79485000D02*
X103810000Y-79475000D01*
X114250000Y-92600000D02*
X114250000Y-95750000D01*
X103810000Y-84525000D02*
X103810000Y-86490000D01*
X103810000Y-86490000D02*
X97700000Y-92600000D01*
X97750000Y-95750000D02*
X97750000Y-92650000D01*
X97750000Y-92650000D02*
X97700000Y-92600000D01*
X106300000Y-82000000D02*
X106300000Y-79525000D01*
X106300000Y-79525000D02*
X106350000Y-79475000D01*
X115750000Y-92600000D02*
X115750000Y-95750000D01*
X106350000Y-84525000D02*
X106350000Y-85600000D01*
X106350000Y-85600000D02*
X99350000Y-92600000D01*
X99350000Y-92600000D02*
X99300000Y-92600000D01*
X99250000Y-95750000D02*
X99250000Y-92650000D01*
X99250000Y-92650000D02*
X99300000Y-92600000D01*
X108900000Y-82000000D02*
X108900000Y-79485000D01*
X108900000Y-79485000D02*
X108890000Y-79475000D01*
X117250000Y-92600000D02*
X117250000Y-95750000D01*
X108890000Y-84525000D02*
X108890000Y-86610000D01*
X108890000Y-86610000D02*
X107900000Y-87600000D01*
X107900000Y-87600000D02*
X105800000Y-87600000D01*
X105800000Y-87600000D02*
X101099999Y-92300001D01*
X101099999Y-92300001D02*
X100800000Y-92600000D01*
X100750000Y-95750000D02*
X100750000Y-92650000D01*
X100750000Y-92650000D02*
X100800000Y-92600000D01*
X111400000Y-82000000D02*
X111400000Y-79505000D01*
X111400000Y-79505000D02*
X111430000Y-79475000D01*
X118750000Y-92600000D02*
X118750000Y-95750000D01*
X111430000Y-84525000D02*
X111430000Y-86670000D01*
X111430000Y-86670000D02*
X109600000Y-88500000D01*
X109600000Y-88500000D02*
X106400000Y-88500000D01*
X106400000Y-88500000D02*
X102599999Y-92300001D01*
X102599999Y-92300001D02*
X102300000Y-92600000D01*
X102250000Y-95750000D02*
X102250000Y-92650000D01*
X102250000Y-92650000D02*
X102300000Y-92600000D01*
X113970000Y-84525000D02*
X113970000Y-86730000D01*
X104099999Y-92300001D02*
X103800000Y-92600000D01*
X113970000Y-86730000D02*
X111300000Y-89400000D01*
X111300000Y-89400000D02*
X107000000Y-89400000D01*
X107000000Y-89400000D02*
X104099999Y-92300001D01*
X103750000Y-95750000D02*
X103750000Y-92650000D01*
X103750000Y-92650000D02*
X103800000Y-92600000D01*
X116500000Y-82000000D02*
X116500000Y-79485000D01*
X116500000Y-79485000D02*
X116510000Y-79475000D01*
X121750000Y-92600000D02*
X121750000Y-95750000D01*
X116510000Y-84525000D02*
X116510000Y-86790000D01*
X116510000Y-86790000D02*
X113000000Y-90300000D01*
X105599999Y-92300001D02*
X105300000Y-92600000D01*
X113000000Y-90300000D02*
X107600000Y-90300000D01*
X107600000Y-90300000D02*
X105599999Y-92300001D01*
X105250000Y-95750000D02*
X105250000Y-92650000D01*
X105250000Y-92650000D02*
X105300000Y-92600000D01*
X119050000Y-84525000D02*
X119050000Y-86750000D01*
X119050000Y-86750000D02*
X114600000Y-91200000D01*
X114600000Y-91200000D02*
X108200000Y-91200000D01*
X108200000Y-91200000D02*
X107099999Y-92300001D01*
X107099999Y-92300001D02*
X106800000Y-92600000D01*
X106750000Y-95750000D02*
X106750000Y-92650000D01*
X106750000Y-92650000D02*
X106800000Y-92600000D01*
D20*
G36*
X82273000Y-81873000D02*
G01*
X79400000Y-81873000D01*
X79375224Y-81875440D01*
X79351399Y-81882667D01*
X79329443Y-81894403D01*
X79310197Y-81910197D01*
X79294403Y-81929443D01*
X79282667Y-81951399D01*
X79275440Y-81975224D01*
X79273000Y-82000000D01*
X79273000Y-90247394D01*
X77210197Y-92310197D01*
X77194403Y-92329443D01*
X77182667Y-92351399D01*
X77179292Y-92362524D01*
X76885750Y-92365000D01*
X76727000Y-92523750D01*
X76727000Y-95873000D01*
X76747000Y-95873000D01*
X76747000Y-96127000D01*
X76727000Y-96127000D01*
X76727000Y-96147000D01*
X76473000Y-96147000D01*
X76473000Y-96127000D01*
X76453000Y-96127000D01*
X76453000Y-95873000D01*
X76473000Y-95873000D01*
X76473000Y-92523750D01*
X76314250Y-92365000D01*
X76110000Y-92363277D01*
X76110000Y-91434876D01*
X76113435Y-91400000D01*
X76099727Y-91260816D01*
X76059128Y-91126980D01*
X75993200Y-91003637D01*
X75904475Y-90895525D01*
X75796363Y-90806800D01*
X75673020Y-90740872D01*
X75539184Y-90700273D01*
X75434877Y-90690000D01*
X75400000Y-90686565D01*
X75365123Y-90690000D01*
X75010000Y-90690000D01*
X75010000Y-81050000D01*
X79811928Y-81050000D01*
X79824188Y-81174482D01*
X79860498Y-81294180D01*
X79919463Y-81404494D01*
X79998815Y-81501185D01*
X80095506Y-81580537D01*
X80205820Y-81639502D01*
X80325518Y-81675812D01*
X80450000Y-81688072D01*
X80664250Y-81685000D01*
X80823000Y-81526250D01*
X80823000Y-79602000D01*
X81077000Y-79602000D01*
X81077000Y-81526250D01*
X81235750Y-81685000D01*
X81450000Y-81688072D01*
X81574482Y-81675812D01*
X81694180Y-81639502D01*
X81804494Y-81580537D01*
X81901185Y-81501185D01*
X81980537Y-81404494D01*
X82039502Y-81294180D01*
X82075812Y-81174482D01*
X82088072Y-81050000D01*
X82085000Y-79760750D01*
X81926250Y-79602000D01*
X81077000Y-79602000D01*
X80823000Y-79602000D01*
X79973750Y-79602000D01*
X79815000Y-79760750D01*
X79811928Y-81050000D01*
X75010000Y-81050000D01*
X75010000Y-79516074D01*
X75038815Y-79551185D01*
X75135506Y-79630537D01*
X75245820Y-79689502D01*
X75365518Y-79725812D01*
X75490000Y-79738072D01*
X76160000Y-79738072D01*
X76284482Y-79725812D01*
X76404180Y-79689502D01*
X76514494Y-79630537D01*
X76611185Y-79551185D01*
X76690537Y-79454494D01*
X76700000Y-79436790D01*
X76709463Y-79454494D01*
X76788815Y-79551185D01*
X76885506Y-79630537D01*
X76995820Y-79689502D01*
X77115518Y-79725812D01*
X77240000Y-79738072D01*
X77289250Y-79735000D01*
X77448000Y-79576250D01*
X77448000Y-78727000D01*
X77702000Y-78727000D01*
X77702000Y-79576250D01*
X77860750Y-79735000D01*
X77910000Y-79738072D01*
X78034482Y-79725812D01*
X78154180Y-79689502D01*
X78264494Y-79630537D01*
X78361185Y-79551185D01*
X78440537Y-79454494D01*
X78499502Y-79344180D01*
X78535812Y-79224482D01*
X78548072Y-79100000D01*
X78545000Y-78885750D01*
X78386250Y-78727000D01*
X77702000Y-78727000D01*
X77448000Y-78727000D01*
X77428000Y-78727000D01*
X77428000Y-78473000D01*
X77448000Y-78473000D01*
X77448000Y-78453000D01*
X77702000Y-78453000D01*
X77702000Y-78473000D01*
X78386250Y-78473000D01*
X78545000Y-78314250D01*
X78548072Y-78100000D01*
X78535812Y-77975518D01*
X78523521Y-77935000D01*
X79011788Y-77935000D01*
X79066747Y-77924068D01*
X79122499Y-77918577D01*
X79176106Y-77902315D01*
X79187744Y-77900000D01*
X79811928Y-77900000D01*
X79815000Y-79189250D01*
X79973750Y-79348000D01*
X80823000Y-79348000D01*
X80823000Y-77423750D01*
X81077000Y-77423750D01*
X81077000Y-79348000D01*
X81926250Y-79348000D01*
X82085000Y-79189250D01*
X82088072Y-77900000D01*
X82075812Y-77775518D01*
X82039502Y-77655820D01*
X81980537Y-77545506D01*
X81901185Y-77448815D01*
X81804494Y-77369463D01*
X81694180Y-77310498D01*
X81574482Y-77274188D01*
X81450000Y-77261928D01*
X81235750Y-77265000D01*
X81077000Y-77423750D01*
X80823000Y-77423750D01*
X80664250Y-77265000D01*
X80450000Y-77261928D01*
X80325518Y-77274188D01*
X80205820Y-77310498D01*
X80095506Y-77369463D01*
X79998815Y-77448815D01*
X79919463Y-77545506D01*
X79860498Y-77655820D01*
X79824188Y-77775518D01*
X79811928Y-77900000D01*
X79187744Y-77900000D01*
X79231067Y-77891383D01*
X79282842Y-77869937D01*
X79336447Y-77853676D01*
X79385851Y-77827269D01*
X79437624Y-77805824D01*
X79484214Y-77774693D01*
X79533623Y-77748284D01*
X79576932Y-77712741D01*
X79623520Y-77681612D01*
X79663141Y-77641991D01*
X79706449Y-77606449D01*
X79741991Y-77563141D01*
X79781612Y-77523520D01*
X79812741Y-77476932D01*
X79848284Y-77433623D01*
X79874693Y-77384214D01*
X79905824Y-77337624D01*
X79927269Y-77285851D01*
X79953676Y-77236447D01*
X79969937Y-77182842D01*
X79991383Y-77131067D01*
X80002315Y-77076106D01*
X80018577Y-77022499D01*
X80024068Y-76966747D01*
X80035000Y-76911788D01*
X80035000Y-76855752D01*
X80040491Y-76800000D01*
X80035000Y-76744248D01*
X80035000Y-76688212D01*
X80024068Y-76633253D01*
X80018577Y-76577501D01*
X80002315Y-76523894D01*
X79991383Y-76468933D01*
X79969937Y-76417158D01*
X79953676Y-76363553D01*
X79927269Y-76314149D01*
X79905824Y-76262376D01*
X79874693Y-76215786D01*
X79848284Y-76166377D01*
X79812741Y-76123068D01*
X79781612Y-76076480D01*
X79741991Y-76036859D01*
X79706449Y-75993551D01*
X79663141Y-75958009D01*
X79623520Y-75918388D01*
X79576932Y-75887259D01*
X79533623Y-75851716D01*
X79484214Y-75825307D01*
X79437624Y-75794176D01*
X79385851Y-75772731D01*
X79336447Y-75746324D01*
X79282842Y-75730063D01*
X79234406Y-75710000D01*
X82273000Y-75710000D01*
X82273000Y-81873000D01*
G37*
X82273000Y-81873000D02*
X79400000Y-81873000D01*
X79375224Y-81875440D01*
X79351399Y-81882667D01*
X79329443Y-81894403D01*
X79310197Y-81910197D01*
X79294403Y-81929443D01*
X79282667Y-81951399D01*
X79275440Y-81975224D01*
X79273000Y-82000000D01*
X79273000Y-90247394D01*
X77210197Y-92310197D01*
X77194403Y-92329443D01*
X77182667Y-92351399D01*
X77179292Y-92362524D01*
X76885750Y-92365000D01*
X76727000Y-92523750D01*
X76727000Y-95873000D01*
X76747000Y-95873000D01*
X76747000Y-96127000D01*
X76727000Y-96127000D01*
X76727000Y-96147000D01*
X76473000Y-96147000D01*
X76473000Y-96127000D01*
X76453000Y-96127000D01*
X76453000Y-95873000D01*
X76473000Y-95873000D01*
X76473000Y-92523750D01*
X76314250Y-92365000D01*
X76110000Y-92363277D01*
X76110000Y-91434876D01*
X76113435Y-91400000D01*
X76099727Y-91260816D01*
X76059128Y-91126980D01*
X75993200Y-91003637D01*
X75904475Y-90895525D01*
X75796363Y-90806800D01*
X75673020Y-90740872D01*
X75539184Y-90700273D01*
X75434877Y-90690000D01*
X75400000Y-90686565D01*
X75365123Y-90690000D01*
X75010000Y-90690000D01*
X75010000Y-81050000D01*
X79811928Y-81050000D01*
X79824188Y-81174482D01*
X79860498Y-81294180D01*
X79919463Y-81404494D01*
X79998815Y-81501185D01*
X80095506Y-81580537D01*
X80205820Y-81639502D01*
X80325518Y-81675812D01*
X80450000Y-81688072D01*
X80664250Y-81685000D01*
X80823000Y-81526250D01*
X80823000Y-79602000D01*
X81077000Y-79602000D01*
X81077000Y-81526250D01*
X81235750Y-81685000D01*
X81450000Y-81688072D01*
X81574482Y-81675812D01*
X81694180Y-81639502D01*
X81804494Y-81580537D01*
X81901185Y-81501185D01*
X81980537Y-81404494D01*
X82039502Y-81294180D01*
X82075812Y-81174482D01*
X82088072Y-81050000D01*
X82085000Y-79760750D01*
X81926250Y-79602000D01*
X81077000Y-79602000D01*
X80823000Y-79602000D01*
X79973750Y-79602000D01*
X79815000Y-79760750D01*
X79811928Y-81050000D01*
X75010000Y-81050000D01*
X75010000Y-79516074D01*
X75038815Y-79551185D01*
X75135506Y-79630537D01*
X75245820Y-79689502D01*
X75365518Y-79725812D01*
X75490000Y-79738072D01*
X76160000Y-79738072D01*
X76284482Y-79725812D01*
X76404180Y-79689502D01*
X76514494Y-79630537D01*
X76611185Y-79551185D01*
X76690537Y-79454494D01*
X76700000Y-79436790D01*
X76709463Y-79454494D01*
X76788815Y-79551185D01*
X76885506Y-79630537D01*
X76995820Y-79689502D01*
X77115518Y-79725812D01*
X77240000Y-79738072D01*
X77289250Y-79735000D01*
X77448000Y-79576250D01*
X77448000Y-78727000D01*
X77702000Y-78727000D01*
X77702000Y-79576250D01*
X77860750Y-79735000D01*
X77910000Y-79738072D01*
X78034482Y-79725812D01*
X78154180Y-79689502D01*
X78264494Y-79630537D01*
X78361185Y-79551185D01*
X78440537Y-79454494D01*
X78499502Y-79344180D01*
X78535812Y-79224482D01*
X78548072Y-79100000D01*
X78545000Y-78885750D01*
X78386250Y-78727000D01*
X77702000Y-78727000D01*
X77448000Y-78727000D01*
X77428000Y-78727000D01*
X77428000Y-78473000D01*
X77448000Y-78473000D01*
X77448000Y-78453000D01*
X77702000Y-78453000D01*
X77702000Y-78473000D01*
X78386250Y-78473000D01*
X78545000Y-78314250D01*
X78548072Y-78100000D01*
X78535812Y-77975518D01*
X78523521Y-77935000D01*
X79011788Y-77935000D01*
X79066747Y-77924068D01*
X79122499Y-77918577D01*
X79176106Y-77902315D01*
X79187744Y-77900000D01*
X79811928Y-77900000D01*
X79815000Y-79189250D01*
X79973750Y-79348000D01*
X80823000Y-79348000D01*
X80823000Y-77423750D01*
X81077000Y-77423750D01*
X81077000Y-79348000D01*
X81926250Y-79348000D01*
X82085000Y-79189250D01*
X82088072Y-77900000D01*
X82075812Y-77775518D01*
X82039502Y-77655820D01*
X81980537Y-77545506D01*
X81901185Y-77448815D01*
X81804494Y-77369463D01*
X81694180Y-77310498D01*
X81574482Y-77274188D01*
X81450000Y-77261928D01*
X81235750Y-77265000D01*
X81077000Y-77423750D01*
X80823000Y-77423750D01*
X80664250Y-77265000D01*
X80450000Y-77261928D01*
X80325518Y-77274188D01*
X80205820Y-77310498D01*
X80095506Y-77369463D01*
X79998815Y-77448815D01*
X79919463Y-77545506D01*
X79860498Y-77655820D01*
X79824188Y-77775518D01*
X79811928Y-77900000D01*
X79187744Y-77900000D01*
X79231067Y-77891383D01*
X79282842Y-77869937D01*
X79336447Y-77853676D01*
X79385851Y-77827269D01*
X79437624Y-77805824D01*
X79484214Y-77774693D01*
X79533623Y-77748284D01*
X79576932Y-77712741D01*
X79623520Y-77681612D01*
X79663141Y-77641991D01*
X79706449Y-77606449D01*
X79741991Y-77563141D01*
X79781612Y-77523520D01*
X79812741Y-77476932D01*
X79848284Y-77433623D01*
X79874693Y-77384214D01*
X79905824Y-77337624D01*
X79927269Y-77285851D01*
X79953676Y-77236447D01*
X79969937Y-77182842D01*
X79991383Y-77131067D01*
X80002315Y-77076106D01*
X80018577Y-77022499D01*
X80024068Y-76966747D01*
X80035000Y-76911788D01*
X80035000Y-76855752D01*
X80040491Y-76800000D01*
X80035000Y-76744248D01*
X80035000Y-76688212D01*
X80024068Y-76633253D01*
X80018577Y-76577501D01*
X80002315Y-76523894D01*
X79991383Y-76468933D01*
X79969937Y-76417158D01*
X79953676Y-76363553D01*
X79927269Y-76314149D01*
X79905824Y-76262376D01*
X79874693Y-76215786D01*
X79848284Y-76166377D01*
X79812741Y-76123068D01*
X79781612Y-76076480D01*
X79741991Y-76036859D01*
X79706449Y-75993551D01*
X79663141Y-75958009D01*
X79623520Y-75918388D01*
X79576932Y-75887259D01*
X79533623Y-75851716D01*
X79484214Y-75825307D01*
X79437624Y-75794176D01*
X79385851Y-75772731D01*
X79336447Y-75746324D01*
X79282842Y-75730063D01*
X79234406Y-75710000D01*
X82273000Y-75710000D01*
X82273000Y-81873000D01*
G36*
X124990000Y-90690000D02*
G01*
X124634877Y-90690000D01*
X124600000Y-90686565D01*
X124565123Y-90690000D01*
X124460816Y-90700273D01*
X124326980Y-90740872D01*
X124203637Y-90806800D01*
X124095525Y-90895525D01*
X124006800Y-91003637D01*
X123940872Y-91126980D01*
X123900273Y-91260816D01*
X123886565Y-91400000D01*
X123890001Y-91434887D01*
X123890001Y-92363277D01*
X123685750Y-92365000D01*
X123527000Y-92523750D01*
X123527000Y-95873000D01*
X123547000Y-95873000D01*
X123547000Y-96127000D01*
X123527000Y-96127000D01*
X123527000Y-96147000D01*
X123273000Y-96147000D01*
X123273000Y-96127000D01*
X123253000Y-96127000D01*
X123253000Y-95873000D01*
X123273000Y-95873000D01*
X123273000Y-92523750D01*
X123114250Y-92365000D01*
X122750000Y-92361928D01*
X122657769Y-92371012D01*
X122649068Y-92327271D01*
X122578586Y-92157111D01*
X122476262Y-92003972D01*
X122346028Y-91873738D01*
X122192889Y-91771414D01*
X122022729Y-91700932D01*
X121842089Y-91665000D01*
X121765752Y-91665000D01*
X120627000Y-90255117D01*
X120627000Y-82000000D01*
X120624560Y-81975224D01*
X120617333Y-81951399D01*
X120605597Y-81929443D01*
X120589803Y-81910197D01*
X120570557Y-81894403D01*
X120548601Y-81882667D01*
X120524776Y-81875440D01*
X120500000Y-81873000D01*
X117727000Y-81873000D01*
X117727000Y-81050000D01*
X117911928Y-81050000D01*
X117924188Y-81174482D01*
X117960498Y-81294180D01*
X118019463Y-81404494D01*
X118098815Y-81501185D01*
X118195506Y-81580537D01*
X118305820Y-81639502D01*
X118425518Y-81675812D01*
X118550000Y-81688072D01*
X118764250Y-81685000D01*
X118923000Y-81526250D01*
X118923000Y-79602000D01*
X119177000Y-79602000D01*
X119177000Y-81526250D01*
X119335750Y-81685000D01*
X119550000Y-81688072D01*
X119674482Y-81675812D01*
X119794180Y-81639502D01*
X119904494Y-81580537D01*
X120001185Y-81501185D01*
X120080537Y-81404494D01*
X120139502Y-81294180D01*
X120175812Y-81174482D01*
X120188072Y-81050000D01*
X120185000Y-79760750D01*
X120026250Y-79602000D01*
X119177000Y-79602000D01*
X118923000Y-79602000D01*
X118073750Y-79602000D01*
X117915000Y-79760750D01*
X117911928Y-81050000D01*
X117727000Y-81050000D01*
X117727000Y-77900000D01*
X117911928Y-77900000D01*
X117915000Y-79189250D01*
X118073750Y-79348000D01*
X118923000Y-79348000D01*
X118923000Y-77423750D01*
X119177000Y-77423750D01*
X119177000Y-79348000D01*
X120026250Y-79348000D01*
X120185000Y-79189250D01*
X120188072Y-77900000D01*
X120175812Y-77775518D01*
X120139502Y-77655820D01*
X120080537Y-77545506D01*
X120001185Y-77448815D01*
X119904494Y-77369463D01*
X119794180Y-77310498D01*
X119674482Y-77274188D01*
X119550000Y-77261928D01*
X119335750Y-77265000D01*
X119177000Y-77423750D01*
X118923000Y-77423750D01*
X118764250Y-77265000D01*
X118550000Y-77261928D01*
X118425518Y-77274188D01*
X118305820Y-77310498D01*
X118195506Y-77369463D01*
X118098815Y-77448815D01*
X118019463Y-77545506D01*
X117960498Y-77655820D01*
X117924188Y-77775518D01*
X117911928Y-77900000D01*
X117727000Y-77900000D01*
X117727000Y-75710000D01*
X124990001Y-75710000D01*
X124990000Y-90690000D01*
G37*
X124990000Y-90690000D02*
X124634877Y-90690000D01*
X124600000Y-90686565D01*
X124565123Y-90690000D01*
X124460816Y-90700273D01*
X124326980Y-90740872D01*
X124203637Y-90806800D01*
X124095525Y-90895525D01*
X124006800Y-91003637D01*
X123940872Y-91126980D01*
X123900273Y-91260816D01*
X123886565Y-91400000D01*
X123890001Y-91434887D01*
X123890001Y-92363277D01*
X123685750Y-92365000D01*
X123527000Y-92523750D01*
X123527000Y-95873000D01*
X123547000Y-95873000D01*
X123547000Y-96127000D01*
X123527000Y-96127000D01*
X123527000Y-96147000D01*
X123273000Y-96147000D01*
X123273000Y-96127000D01*
X123253000Y-96127000D01*
X123253000Y-95873000D01*
X123273000Y-95873000D01*
X123273000Y-92523750D01*
X123114250Y-92365000D01*
X122750000Y-92361928D01*
X122657769Y-92371012D01*
X122649068Y-92327271D01*
X122578586Y-92157111D01*
X122476262Y-92003972D01*
X122346028Y-91873738D01*
X122192889Y-91771414D01*
X122022729Y-91700932D01*
X121842089Y-91665000D01*
X121765752Y-91665000D01*
X120627000Y-90255117D01*
X120627000Y-82000000D01*
X120624560Y-81975224D01*
X120617333Y-81951399D01*
X120605597Y-81929443D01*
X120589803Y-81910197D01*
X120570557Y-81894403D01*
X120548601Y-81882667D01*
X120524776Y-81875440D01*
X120500000Y-81873000D01*
X117727000Y-81873000D01*
X117727000Y-81050000D01*
X117911928Y-81050000D01*
X117924188Y-81174482D01*
X117960498Y-81294180D01*
X118019463Y-81404494D01*
X118098815Y-81501185D01*
X118195506Y-81580537D01*
X118305820Y-81639502D01*
X118425518Y-81675812D01*
X118550000Y-81688072D01*
X118764250Y-81685000D01*
X118923000Y-81526250D01*
X118923000Y-79602000D01*
X119177000Y-79602000D01*
X119177000Y-81526250D01*
X119335750Y-81685000D01*
X119550000Y-81688072D01*
X119674482Y-81675812D01*
X119794180Y-81639502D01*
X119904494Y-81580537D01*
X120001185Y-81501185D01*
X120080537Y-81404494D01*
X120139502Y-81294180D01*
X120175812Y-81174482D01*
X120188072Y-81050000D01*
X120185000Y-79760750D01*
X120026250Y-79602000D01*
X119177000Y-79602000D01*
X118923000Y-79602000D01*
X118073750Y-79602000D01*
X117915000Y-79760750D01*
X117911928Y-81050000D01*
X117727000Y-81050000D01*
X117727000Y-77900000D01*
X117911928Y-77900000D01*
X117915000Y-79189250D01*
X118073750Y-79348000D01*
X118923000Y-79348000D01*
X118923000Y-77423750D01*
X119177000Y-77423750D01*
X119177000Y-79348000D01*
X120026250Y-79348000D01*
X120185000Y-79189250D01*
X120188072Y-77900000D01*
X120175812Y-77775518D01*
X120139502Y-77655820D01*
X120080537Y-77545506D01*
X120001185Y-77448815D01*
X119904494Y-77369463D01*
X119794180Y-77310498D01*
X119674482Y-77274188D01*
X119550000Y-77261928D01*
X119335750Y-77265000D01*
X119177000Y-77423750D01*
X118923000Y-77423750D01*
X118764250Y-77265000D01*
X118550000Y-77261928D01*
X118425518Y-77274188D01*
X118305820Y-77310498D01*
X118195506Y-77369463D01*
X118098815Y-77448815D01*
X118019463Y-77545506D01*
X117960498Y-77655820D01*
X117924188Y-77775518D01*
X117911928Y-77900000D01*
X117727000Y-77900000D01*
X117727000Y-75710000D01*
X124990001Y-75710000D01*
X124990000Y-90690000D01*
M02*
