G04 #@! TF.GenerationSoftware,KiCad,Pcbnew,5.0.1-33cea8e~68~ubuntu18.10.1*
G04 #@! TF.CreationDate,2018-11-26T23:44:30+02:00*
G04 #@! TF.ProjectId,GB-BRK-LINK-A,47422D42524B2D4C494E4B2D412E6B69,v1.0*
G04 #@! TF.SameCoordinates,Original*
G04 #@! TF.FileFunction,Soldermask,Bot*
G04 #@! TF.FilePolarity,Negative*
%FSLAX46Y46*%
G04 Gerber Fmt 4.6, Leading zero omitted, Abs format (unit mm)*
G04 Created by KiCad (PCBNEW 5.0.1-33cea8e~68~ubuntu18.10.1) date ma 26. marraskuuta 2018 23.44.30*
%MOMM*%
%LPD*%
G01*
G04 APERTURE LIST*
%ADD10C,0.150000*%
%ADD11C,0.100000*%
G04 APERTURE END LIST*
D10*
X52000000Y-85000000D02*
G75*
G02X50000000Y-83000000I0J2000000D01*
G01*
X80000000Y-83000000D02*
G75*
G02X78000000Y-85000000I-2000000J0D01*
G01*
X78000000Y-50000000D02*
G75*
G02X80000000Y-52000000I0J-2000000D01*
G01*
X50000000Y-52000000D02*
G75*
G02X52000000Y-50000000I2000000J0D01*
G01*
X52000000Y-85000000D02*
X78000000Y-85000000D01*
X80000000Y-52000000D02*
X80000000Y-83000000D01*
X52000000Y-50000000D02*
X78000000Y-50000000D01*
X50000000Y-52000000D02*
X50000000Y-83000000D01*
D11*
G36*
X75375256Y-78391298D02*
X75481579Y-78412447D01*
X75782042Y-78536903D01*
X76048852Y-78715180D01*
X76052454Y-78717587D01*
X76282413Y-78947546D01*
X76463098Y-79217960D01*
X76587553Y-79518422D01*
X76651000Y-79837389D01*
X76651000Y-80162611D01*
X76587553Y-80481578D01*
X76463098Y-80782040D01*
X76282413Y-81052454D01*
X76052454Y-81282413D01*
X76052451Y-81282415D01*
X75782042Y-81463097D01*
X75481579Y-81587553D01*
X75375256Y-81608702D01*
X75162611Y-81651000D01*
X74837389Y-81651000D01*
X74624744Y-81608702D01*
X74518421Y-81587553D01*
X74217958Y-81463097D01*
X73947549Y-81282415D01*
X73947546Y-81282413D01*
X73717587Y-81052454D01*
X73536902Y-80782040D01*
X73412447Y-80481578D01*
X73349000Y-80162611D01*
X73349000Y-79837389D01*
X73412447Y-79518422D01*
X73536902Y-79217960D01*
X73717587Y-78947546D01*
X73947546Y-78717587D01*
X73951148Y-78715180D01*
X74217958Y-78536903D01*
X74518421Y-78412447D01*
X74624744Y-78391298D01*
X74837389Y-78349000D01*
X75162611Y-78349000D01*
X75375256Y-78391298D01*
X75375256Y-78391298D01*
G37*
G36*
X55375256Y-78391298D02*
X55481579Y-78412447D01*
X55782042Y-78536903D01*
X56048852Y-78715180D01*
X56052454Y-78717587D01*
X56282413Y-78947546D01*
X56463098Y-79217960D01*
X56587553Y-79518422D01*
X56651000Y-79837389D01*
X56651000Y-80162611D01*
X56587553Y-80481578D01*
X56463098Y-80782040D01*
X56282413Y-81052454D01*
X56052454Y-81282413D01*
X56052451Y-81282415D01*
X55782042Y-81463097D01*
X55481579Y-81587553D01*
X55375256Y-81608702D01*
X55162611Y-81651000D01*
X54837389Y-81651000D01*
X54624744Y-81608702D01*
X54518421Y-81587553D01*
X54217958Y-81463097D01*
X53947549Y-81282415D01*
X53947546Y-81282413D01*
X53717587Y-81052454D01*
X53536902Y-80782040D01*
X53412447Y-80481578D01*
X53349000Y-80162611D01*
X53349000Y-79837389D01*
X53412447Y-79518422D01*
X53536902Y-79217960D01*
X53717587Y-78947546D01*
X53947546Y-78717587D01*
X53951148Y-78715180D01*
X54217958Y-78536903D01*
X54518421Y-78412447D01*
X54624744Y-78391298D01*
X54837389Y-78349000D01*
X55162611Y-78349000D01*
X55375256Y-78391298D01*
X55375256Y-78391298D01*
G37*
G36*
X77582510Y-72402041D02*
X77706032Y-72414207D01*
X77904146Y-72474305D01*
X78086729Y-72571897D01*
X78246765Y-72703235D01*
X78378103Y-72863271D01*
X78475695Y-73045854D01*
X78535793Y-73243968D01*
X78556085Y-73450000D01*
X78535793Y-73656032D01*
X78475695Y-73854146D01*
X78378103Y-74036729D01*
X78246765Y-74196765D01*
X78086729Y-74328103D01*
X77904146Y-74425695D01*
X77706032Y-74485793D01*
X77582510Y-74497959D01*
X77551631Y-74501000D01*
X76448369Y-74501000D01*
X76417490Y-74497959D01*
X76293968Y-74485793D01*
X76095854Y-74425695D01*
X75913271Y-74328103D01*
X75753235Y-74196765D01*
X75621897Y-74036729D01*
X75524305Y-73854146D01*
X75464207Y-73656032D01*
X75443915Y-73450000D01*
X75464207Y-73243968D01*
X75524305Y-73045854D01*
X75621897Y-72863271D01*
X75753235Y-72703235D01*
X75913271Y-72571897D01*
X76095854Y-72474305D01*
X76293968Y-72414207D01*
X76417490Y-72402041D01*
X76448369Y-72399000D01*
X77551631Y-72399000D01*
X77582510Y-72402041D01*
X77582510Y-72402041D01*
G37*
G36*
X55110443Y-72655519D02*
X55176627Y-72662037D01*
X55289853Y-72696384D01*
X55346467Y-72713557D01*
X55485087Y-72787652D01*
X55502991Y-72797222D01*
X55538729Y-72826552D01*
X55640186Y-72909814D01*
X55723448Y-73011271D01*
X55752778Y-73047009D01*
X55752779Y-73047011D01*
X55836443Y-73203533D01*
X55848710Y-73243972D01*
X55887963Y-73373373D01*
X55905359Y-73550000D01*
X55887963Y-73726627D01*
X55853616Y-73839853D01*
X55836443Y-73896467D01*
X55762348Y-74035087D01*
X55752778Y-74052991D01*
X55723448Y-74088729D01*
X55640186Y-74190186D01*
X55538729Y-74273448D01*
X55502991Y-74302778D01*
X55502989Y-74302779D01*
X55346467Y-74386443D01*
X55289853Y-74403616D01*
X55176627Y-74437963D01*
X55110442Y-74444482D01*
X55044260Y-74451000D01*
X54955740Y-74451000D01*
X54889558Y-74444482D01*
X54823373Y-74437963D01*
X54710147Y-74403616D01*
X54653533Y-74386443D01*
X54497011Y-74302779D01*
X54497009Y-74302778D01*
X54461271Y-74273448D01*
X54359814Y-74190186D01*
X54276552Y-74088729D01*
X54247222Y-74052991D01*
X54237652Y-74035087D01*
X54163557Y-73896467D01*
X54146384Y-73839853D01*
X54112037Y-73726627D01*
X54094641Y-73550000D01*
X54112037Y-73373373D01*
X54151290Y-73243972D01*
X54163557Y-73203533D01*
X54247221Y-73047011D01*
X54247222Y-73047009D01*
X54276552Y-73011271D01*
X54359814Y-72909814D01*
X54461271Y-72826552D01*
X54497009Y-72797222D01*
X54514913Y-72787652D01*
X54653533Y-72713557D01*
X54710147Y-72696384D01*
X54823373Y-72662037D01*
X54889557Y-72655519D01*
X54955740Y-72649000D01*
X55044260Y-72649000D01*
X55110443Y-72655519D01*
X55110443Y-72655519D01*
G37*
G36*
X55110443Y-70115519D02*
X55176627Y-70122037D01*
X55289853Y-70156384D01*
X55346467Y-70173557D01*
X55485087Y-70247652D01*
X55502991Y-70257222D01*
X55517414Y-70269059D01*
X55640186Y-70369814D01*
X55723448Y-70471271D01*
X55752778Y-70507009D01*
X55752779Y-70507011D01*
X55836443Y-70663533D01*
X55836443Y-70663534D01*
X55887963Y-70833373D01*
X55905359Y-71010000D01*
X55887963Y-71186627D01*
X55853616Y-71299853D01*
X55836443Y-71356467D01*
X55762348Y-71495087D01*
X55752778Y-71512991D01*
X55723448Y-71548729D01*
X55640186Y-71650186D01*
X55538729Y-71733448D01*
X55502991Y-71762778D01*
X55502989Y-71762779D01*
X55346467Y-71846443D01*
X55289853Y-71863616D01*
X55176627Y-71897963D01*
X55110443Y-71904481D01*
X55044260Y-71911000D01*
X54955740Y-71911000D01*
X54889557Y-71904481D01*
X54823373Y-71897963D01*
X54710147Y-71863616D01*
X54653533Y-71846443D01*
X54497011Y-71762779D01*
X54497009Y-71762778D01*
X54461271Y-71733448D01*
X54359814Y-71650186D01*
X54276552Y-71548729D01*
X54247222Y-71512991D01*
X54237652Y-71495087D01*
X54163557Y-71356467D01*
X54146384Y-71299853D01*
X54112037Y-71186627D01*
X54094641Y-71010000D01*
X54112037Y-70833373D01*
X54163557Y-70663534D01*
X54163557Y-70663533D01*
X54247221Y-70507011D01*
X54247222Y-70507009D01*
X54276552Y-70471271D01*
X54359814Y-70369814D01*
X54482586Y-70269059D01*
X54497009Y-70257222D01*
X54514913Y-70247652D01*
X54653533Y-70173557D01*
X54710147Y-70156384D01*
X54823373Y-70122037D01*
X54889557Y-70115519D01*
X54955740Y-70109000D01*
X55044260Y-70109000D01*
X55110443Y-70115519D01*
X55110443Y-70115519D01*
G37*
G36*
X74132004Y-69310544D02*
X74219059Y-69327860D01*
X74355732Y-69384472D01*
X74355733Y-69384473D01*
X74478738Y-69466662D01*
X74583338Y-69571262D01*
X74583340Y-69571265D01*
X74665528Y-69694268D01*
X74722140Y-69830941D01*
X74751000Y-69976033D01*
X74751000Y-70123967D01*
X74722140Y-70269059D01*
X74665528Y-70405732D01*
X74584446Y-70527079D01*
X74583338Y-70528738D01*
X74478738Y-70633338D01*
X74478735Y-70633340D01*
X74355732Y-70715528D01*
X74219059Y-70772140D01*
X74132004Y-70789456D01*
X74073969Y-70801000D01*
X73926031Y-70801000D01*
X73867996Y-70789456D01*
X73780941Y-70772140D01*
X73644268Y-70715528D01*
X73521265Y-70633340D01*
X73521262Y-70633338D01*
X73416662Y-70528738D01*
X73415554Y-70527079D01*
X73334472Y-70405732D01*
X73277860Y-70269059D01*
X73249000Y-70123967D01*
X73249000Y-69976033D01*
X73277860Y-69830941D01*
X73334472Y-69694268D01*
X73416660Y-69571265D01*
X73416662Y-69571262D01*
X73521262Y-69466662D01*
X73644267Y-69384473D01*
X73644268Y-69384472D01*
X73780941Y-69327860D01*
X73867996Y-69310544D01*
X73926031Y-69299000D01*
X74073969Y-69299000D01*
X74132004Y-69310544D01*
X74132004Y-69310544D01*
G37*
G36*
X72132004Y-69310544D02*
X72219059Y-69327860D01*
X72355732Y-69384472D01*
X72355733Y-69384473D01*
X72478738Y-69466662D01*
X72583338Y-69571262D01*
X72583340Y-69571265D01*
X72665528Y-69694268D01*
X72722140Y-69830941D01*
X72751000Y-69976033D01*
X72751000Y-70123967D01*
X72722140Y-70269059D01*
X72665528Y-70405732D01*
X72584446Y-70527079D01*
X72583338Y-70528738D01*
X72478738Y-70633338D01*
X72478735Y-70633340D01*
X72355732Y-70715528D01*
X72219059Y-70772140D01*
X72132004Y-70789456D01*
X72073969Y-70801000D01*
X71926031Y-70801000D01*
X71867996Y-70789456D01*
X71780941Y-70772140D01*
X71644268Y-70715528D01*
X71521265Y-70633340D01*
X71521262Y-70633338D01*
X71416662Y-70528738D01*
X71415554Y-70527079D01*
X71334472Y-70405732D01*
X71277860Y-70269059D01*
X71249000Y-70123967D01*
X71249000Y-69976033D01*
X71277860Y-69830941D01*
X71334472Y-69694268D01*
X71416660Y-69571265D01*
X71416662Y-69571262D01*
X71521262Y-69466662D01*
X71644267Y-69384473D01*
X71644268Y-69384472D01*
X71780941Y-69327860D01*
X71867996Y-69310544D01*
X71926031Y-69299000D01*
X72073969Y-69299000D01*
X72132004Y-69310544D01*
X72132004Y-69310544D01*
G37*
G36*
X55110442Y-67575518D02*
X55176627Y-67582037D01*
X55289853Y-67616384D01*
X55346467Y-67633557D01*
X55485087Y-67707652D01*
X55502991Y-67717222D01*
X55538729Y-67746552D01*
X55640186Y-67829814D01*
X55702489Y-67905732D01*
X55752778Y-67967009D01*
X55752779Y-67967011D01*
X55836443Y-68123533D01*
X55836443Y-68123534D01*
X55887963Y-68293373D01*
X55905359Y-68470000D01*
X55887963Y-68646627D01*
X55853616Y-68759853D01*
X55836443Y-68816467D01*
X55762348Y-68955087D01*
X55752778Y-68972991D01*
X55723448Y-69008729D01*
X55640186Y-69110186D01*
X55538729Y-69193448D01*
X55502991Y-69222778D01*
X55502989Y-69222779D01*
X55346467Y-69306443D01*
X55289853Y-69323616D01*
X55176627Y-69357963D01*
X55110442Y-69364482D01*
X55044260Y-69371000D01*
X54955740Y-69371000D01*
X54889558Y-69364482D01*
X54823373Y-69357963D01*
X54710147Y-69323616D01*
X54653533Y-69306443D01*
X54497011Y-69222779D01*
X54497009Y-69222778D01*
X54461271Y-69193448D01*
X54359814Y-69110186D01*
X54276552Y-69008729D01*
X54247222Y-68972991D01*
X54237652Y-68955087D01*
X54163557Y-68816467D01*
X54146384Y-68759853D01*
X54112037Y-68646627D01*
X54094641Y-68470000D01*
X54112037Y-68293373D01*
X54163557Y-68123534D01*
X54163557Y-68123533D01*
X54247221Y-67967011D01*
X54247222Y-67967009D01*
X54297511Y-67905732D01*
X54359814Y-67829814D01*
X54461271Y-67746552D01*
X54497009Y-67717222D01*
X54514913Y-67707652D01*
X54653533Y-67633557D01*
X54710147Y-67616384D01*
X54823373Y-67582037D01*
X54889558Y-67575518D01*
X54955740Y-67569000D01*
X55044260Y-67569000D01*
X55110442Y-67575518D01*
X55110442Y-67575518D01*
G37*
G36*
X74132004Y-66810544D02*
X74219059Y-66827860D01*
X74355732Y-66884472D01*
X74355733Y-66884473D01*
X74478738Y-66966662D01*
X74583338Y-67071262D01*
X74583340Y-67071265D01*
X74665528Y-67194268D01*
X74722140Y-67330941D01*
X74739456Y-67417996D01*
X74751000Y-67476031D01*
X74751000Y-67623969D01*
X74739456Y-67682004D01*
X74722140Y-67769059D01*
X74665528Y-67905732D01*
X74665527Y-67905733D01*
X74583338Y-68028738D01*
X74478738Y-68133338D01*
X74478735Y-68133340D01*
X74355732Y-68215528D01*
X74219059Y-68272140D01*
X74132004Y-68289456D01*
X74073969Y-68301000D01*
X73926031Y-68301000D01*
X73867996Y-68289456D01*
X73780941Y-68272140D01*
X73644268Y-68215528D01*
X73521265Y-68133340D01*
X73521262Y-68133338D01*
X73416662Y-68028738D01*
X73334473Y-67905733D01*
X73334472Y-67905732D01*
X73277860Y-67769059D01*
X73260544Y-67682004D01*
X73249000Y-67623969D01*
X73249000Y-67476031D01*
X73260544Y-67417996D01*
X73277860Y-67330941D01*
X73334472Y-67194268D01*
X73416660Y-67071265D01*
X73416662Y-67071262D01*
X73521262Y-66966662D01*
X73644267Y-66884473D01*
X73644268Y-66884472D01*
X73780941Y-66827860D01*
X73867996Y-66810544D01*
X73926031Y-66799000D01*
X74073969Y-66799000D01*
X74132004Y-66810544D01*
X74132004Y-66810544D01*
G37*
G36*
X72132004Y-66810544D02*
X72219059Y-66827860D01*
X72355732Y-66884472D01*
X72355733Y-66884473D01*
X72478738Y-66966662D01*
X72583338Y-67071262D01*
X72583340Y-67071265D01*
X72665528Y-67194268D01*
X72722140Y-67330941D01*
X72739456Y-67417996D01*
X72751000Y-67476031D01*
X72751000Y-67623969D01*
X72739456Y-67682004D01*
X72722140Y-67769059D01*
X72665528Y-67905732D01*
X72665527Y-67905733D01*
X72583338Y-68028738D01*
X72478738Y-68133338D01*
X72478735Y-68133340D01*
X72355732Y-68215528D01*
X72219059Y-68272140D01*
X72132004Y-68289456D01*
X72073969Y-68301000D01*
X71926031Y-68301000D01*
X71867996Y-68289456D01*
X71780941Y-68272140D01*
X71644268Y-68215528D01*
X71521265Y-68133340D01*
X71521262Y-68133338D01*
X71416662Y-68028738D01*
X71334473Y-67905733D01*
X71334472Y-67905732D01*
X71277860Y-67769059D01*
X71260544Y-67682004D01*
X71249000Y-67623969D01*
X71249000Y-67476031D01*
X71260544Y-67417996D01*
X71277860Y-67330941D01*
X71334472Y-67194268D01*
X71416660Y-67071265D01*
X71416662Y-67071262D01*
X71521262Y-66966662D01*
X71644267Y-66884473D01*
X71644268Y-66884472D01*
X71780941Y-66827860D01*
X71867996Y-66810544D01*
X71926031Y-66799000D01*
X72073969Y-66799000D01*
X72132004Y-66810544D01*
X72132004Y-66810544D01*
G37*
G36*
X55110443Y-65035519D02*
X55176627Y-65042037D01*
X55289853Y-65076384D01*
X55346467Y-65093557D01*
X55485087Y-65167652D01*
X55502991Y-65177222D01*
X55538729Y-65206552D01*
X55640186Y-65289814D01*
X55723448Y-65391271D01*
X55752778Y-65427009D01*
X55752779Y-65427011D01*
X55836443Y-65583533D01*
X55836443Y-65583534D01*
X55887963Y-65753373D01*
X55905359Y-65930000D01*
X55887963Y-66106627D01*
X55853616Y-66219853D01*
X55836443Y-66276467D01*
X55762348Y-66415087D01*
X55752778Y-66432991D01*
X55723448Y-66468729D01*
X55640186Y-66570186D01*
X55538729Y-66653448D01*
X55502991Y-66682778D01*
X55502989Y-66682779D01*
X55346467Y-66766443D01*
X55289853Y-66783616D01*
X55176627Y-66817963D01*
X55110443Y-66824481D01*
X55044260Y-66831000D01*
X54955740Y-66831000D01*
X54889557Y-66824481D01*
X54823373Y-66817963D01*
X54710147Y-66783616D01*
X54653533Y-66766443D01*
X54497011Y-66682779D01*
X54497009Y-66682778D01*
X54461271Y-66653448D01*
X54359814Y-66570186D01*
X54276552Y-66468729D01*
X54247222Y-66432991D01*
X54237652Y-66415087D01*
X54163557Y-66276467D01*
X54146384Y-66219853D01*
X54112037Y-66106627D01*
X54094641Y-65930000D01*
X54112037Y-65753373D01*
X54163557Y-65583534D01*
X54163557Y-65583533D01*
X54247221Y-65427011D01*
X54247222Y-65427009D01*
X54276552Y-65391271D01*
X54359814Y-65289814D01*
X54461271Y-65206552D01*
X54497009Y-65177222D01*
X54514913Y-65167652D01*
X54653533Y-65093557D01*
X54710147Y-65076384D01*
X54823373Y-65042037D01*
X54889557Y-65035519D01*
X54955740Y-65029000D01*
X55044260Y-65029000D01*
X55110443Y-65035519D01*
X55110443Y-65035519D01*
G37*
G36*
X72751000Y-65801000D02*
X71249000Y-65801000D01*
X71249000Y-64299000D01*
X72751000Y-64299000D01*
X72751000Y-65801000D01*
X72751000Y-65801000D01*
G37*
G36*
X74132004Y-64310544D02*
X74219059Y-64327860D01*
X74355732Y-64384472D01*
X74355733Y-64384473D01*
X74478738Y-64466662D01*
X74583338Y-64571262D01*
X74583340Y-64571265D01*
X74665528Y-64694268D01*
X74722140Y-64830941D01*
X74751000Y-64976033D01*
X74751000Y-65123967D01*
X74722140Y-65269059D01*
X74665528Y-65405732D01*
X74665527Y-65405733D01*
X74583338Y-65528738D01*
X74478738Y-65633338D01*
X74478735Y-65633340D01*
X74355732Y-65715528D01*
X74219059Y-65772140D01*
X74132004Y-65789456D01*
X74073969Y-65801000D01*
X73926031Y-65801000D01*
X73867996Y-65789456D01*
X73780941Y-65772140D01*
X73644268Y-65715528D01*
X73521265Y-65633340D01*
X73521262Y-65633338D01*
X73416662Y-65528738D01*
X73334473Y-65405733D01*
X73334472Y-65405732D01*
X73277860Y-65269059D01*
X73249000Y-65123967D01*
X73249000Y-64976033D01*
X73277860Y-64830941D01*
X73334472Y-64694268D01*
X73416660Y-64571265D01*
X73416662Y-64571262D01*
X73521262Y-64466662D01*
X73644267Y-64384473D01*
X73644268Y-64384472D01*
X73780941Y-64327860D01*
X73867996Y-64310544D01*
X73926031Y-64299000D01*
X74073969Y-64299000D01*
X74132004Y-64310544D01*
X74132004Y-64310544D01*
G37*
G36*
X55110443Y-62495519D02*
X55176627Y-62502037D01*
X55262555Y-62528103D01*
X55346467Y-62553557D01*
X55481424Y-62625694D01*
X55502991Y-62637222D01*
X55538729Y-62666552D01*
X55640186Y-62749814D01*
X55723448Y-62851271D01*
X55752778Y-62887009D01*
X55752779Y-62887011D01*
X55836443Y-63043533D01*
X55836443Y-63043534D01*
X55887963Y-63213373D01*
X55905359Y-63390000D01*
X55887963Y-63566627D01*
X55853616Y-63679853D01*
X55836443Y-63736467D01*
X55762348Y-63875087D01*
X55752778Y-63892991D01*
X55723448Y-63928729D01*
X55640186Y-64030186D01*
X55538729Y-64113448D01*
X55502991Y-64142778D01*
X55502989Y-64142779D01*
X55346467Y-64226443D01*
X55289853Y-64243616D01*
X55176627Y-64277963D01*
X55110442Y-64284482D01*
X55044260Y-64291000D01*
X54955740Y-64291000D01*
X54889558Y-64284482D01*
X54823373Y-64277963D01*
X54710147Y-64243616D01*
X54653533Y-64226443D01*
X54497011Y-64142779D01*
X54497009Y-64142778D01*
X54461271Y-64113448D01*
X54359814Y-64030186D01*
X54276552Y-63928729D01*
X54247222Y-63892991D01*
X54237652Y-63875087D01*
X54163557Y-63736467D01*
X54146384Y-63679853D01*
X54112037Y-63566627D01*
X54094641Y-63390000D01*
X54112037Y-63213373D01*
X54163557Y-63043534D01*
X54163557Y-63043533D01*
X54247221Y-62887011D01*
X54247222Y-62887009D01*
X54276552Y-62851271D01*
X54359814Y-62749814D01*
X54461271Y-62666552D01*
X54497009Y-62637222D01*
X54518576Y-62625694D01*
X54653533Y-62553557D01*
X54737445Y-62528103D01*
X54823373Y-62502037D01*
X54889557Y-62495519D01*
X54955740Y-62489000D01*
X55044260Y-62489000D01*
X55110443Y-62495519D01*
X55110443Y-62495519D01*
G37*
G36*
X77582510Y-60602041D02*
X77706032Y-60614207D01*
X77904146Y-60674305D01*
X78086729Y-60771897D01*
X78246765Y-60903235D01*
X78378103Y-61063271D01*
X78475695Y-61245854D01*
X78535793Y-61443968D01*
X78556085Y-61650000D01*
X78535793Y-61856032D01*
X78475695Y-62054146D01*
X78378103Y-62236729D01*
X78246765Y-62396765D01*
X78086729Y-62528103D01*
X77904146Y-62625695D01*
X77706032Y-62685793D01*
X77582510Y-62697959D01*
X77551631Y-62701000D01*
X76448369Y-62701000D01*
X76417490Y-62697959D01*
X76293968Y-62685793D01*
X76095854Y-62625695D01*
X75913271Y-62528103D01*
X75753235Y-62396765D01*
X75621897Y-62236729D01*
X75524305Y-62054146D01*
X75464207Y-61856032D01*
X75443915Y-61650000D01*
X75464207Y-61443968D01*
X75524305Y-61245854D01*
X75621897Y-61063271D01*
X75753235Y-60903235D01*
X75913271Y-60771897D01*
X76095854Y-60674305D01*
X76293968Y-60614207D01*
X76417490Y-60602041D01*
X76448369Y-60599000D01*
X77551631Y-60599000D01*
X77582510Y-60602041D01*
X77582510Y-60602041D01*
G37*
G36*
X55901000Y-61751000D02*
X54099000Y-61751000D01*
X54099000Y-59949000D01*
X55901000Y-59949000D01*
X55901000Y-61751000D01*
X55901000Y-61751000D01*
G37*
G36*
X55375256Y-53391298D02*
X55481579Y-53412447D01*
X55782042Y-53536903D01*
X56048852Y-53715180D01*
X56052454Y-53717587D01*
X56282413Y-53947546D01*
X56463098Y-54217960D01*
X56587553Y-54518422D01*
X56651000Y-54837389D01*
X56651000Y-55162611D01*
X56587553Y-55481578D01*
X56463098Y-55782040D01*
X56282413Y-56052454D01*
X56052454Y-56282413D01*
X56052451Y-56282415D01*
X55782042Y-56463097D01*
X55481579Y-56587553D01*
X55375256Y-56608702D01*
X55162611Y-56651000D01*
X54837389Y-56651000D01*
X54624744Y-56608702D01*
X54518421Y-56587553D01*
X54217958Y-56463097D01*
X53947549Y-56282415D01*
X53947546Y-56282413D01*
X53717587Y-56052454D01*
X53536902Y-55782040D01*
X53412447Y-55481578D01*
X53349000Y-55162611D01*
X53349000Y-54837389D01*
X53412447Y-54518422D01*
X53536902Y-54217960D01*
X53717587Y-53947546D01*
X53947546Y-53717587D01*
X53951148Y-53715180D01*
X54217958Y-53536903D01*
X54518421Y-53412447D01*
X54624744Y-53391298D01*
X54837389Y-53349000D01*
X55162611Y-53349000D01*
X55375256Y-53391298D01*
X55375256Y-53391298D01*
G37*
G36*
X75375256Y-53391298D02*
X75481579Y-53412447D01*
X75782042Y-53536903D01*
X76048852Y-53715180D01*
X76052454Y-53717587D01*
X76282413Y-53947546D01*
X76463098Y-54217960D01*
X76587553Y-54518422D01*
X76651000Y-54837389D01*
X76651000Y-55162611D01*
X76587553Y-55481578D01*
X76463098Y-55782040D01*
X76282413Y-56052454D01*
X76052454Y-56282413D01*
X76052451Y-56282415D01*
X75782042Y-56463097D01*
X75481579Y-56587553D01*
X75375256Y-56608702D01*
X75162611Y-56651000D01*
X74837389Y-56651000D01*
X74624744Y-56608702D01*
X74518421Y-56587553D01*
X74217958Y-56463097D01*
X73947549Y-56282415D01*
X73947546Y-56282413D01*
X73717587Y-56052454D01*
X73536902Y-55782040D01*
X73412447Y-55481578D01*
X73349000Y-55162611D01*
X73349000Y-54837389D01*
X73412447Y-54518422D01*
X73536902Y-54217960D01*
X73717587Y-53947546D01*
X73947546Y-53717587D01*
X73951148Y-53715180D01*
X74217958Y-53536903D01*
X74518421Y-53412447D01*
X74624744Y-53391298D01*
X74837389Y-53349000D01*
X75162611Y-53349000D01*
X75375256Y-53391298D01*
X75375256Y-53391298D01*
G37*
M02*
