G04 #@! TF.GenerationSoftware,KiCad,Pcbnew,5.1.6-c6e7f7d~86~ubuntu20.04.1*
G04 #@! TF.CreationDate,2020-05-17T16:04:05+03:00*
G04 #@! TF.ProjectId,GB-BRK-LINK-A,47422d42-524b-42d4-9c49-4e4b2d412e6b,v1.0*
G04 #@! TF.SameCoordinates,Original*
G04 #@! TF.FileFunction,Copper,L2,Bot*
G04 #@! TF.FilePolarity,Positive*
%FSLAX46Y46*%
G04 Gerber Fmt 4.6, Leading zero omitted, Abs format (unit mm)*
G04 Created by KiCad (PCBNEW 5.1.6-c6e7f7d~86~ubuntu20.04.1) date 2020-05-17 16:04:05*
%MOMM*%
%LPD*%
G01*
G04 APERTURE LIST*
G04 #@! TA.AperFunction,Profile*
%ADD10C,0.150000*%
G04 #@! TD*
G04 #@! TA.AperFunction,ComponentPad*
%ADD11R,1.700000X1.700000*%
G04 #@! TD*
G04 #@! TA.AperFunction,ComponentPad*
%ADD12O,1.700000X1.700000*%
G04 #@! TD*
G04 #@! TA.AperFunction,ComponentPad*
%ADD13O,3.000000X2.000000*%
G04 #@! TD*
G04 #@! TA.AperFunction,ComponentPad*
%ADD14R,1.400000X1.400000*%
G04 #@! TD*
G04 #@! TA.AperFunction,ComponentPad*
%ADD15C,1.400000*%
G04 #@! TD*
G04 #@! TA.AperFunction,Conductor*
%ADD16C,0.200000*%
G04 #@! TD*
G04 APERTURE END LIST*
D10*
X52000000Y-85000000D02*
G75*
G02*
X50000000Y-83000000I0J2000000D01*
G01*
X80000000Y-83000000D02*
G75*
G02*
X78000000Y-85000000I-2000000J0D01*
G01*
X78000000Y-50000000D02*
G75*
G02*
X80000000Y-52000000I0J-2000000D01*
G01*
X50000000Y-52000000D02*
G75*
G02*
X52000000Y-50000000I2000000J0D01*
G01*
X52000000Y-85000000D02*
X78000000Y-85000000D01*
X80000000Y-52000000D02*
X80000000Y-83000000D01*
X52000000Y-50000000D02*
X78000000Y-50000000D01*
X50000000Y-52000000D02*
X50000000Y-83000000D01*
D11*
X55000000Y-60850000D03*
D12*
X55000000Y-63390000D03*
X55000000Y-65930000D03*
X55000000Y-68470000D03*
X55000000Y-71010000D03*
X55000000Y-73550000D03*
D13*
X77000000Y-61650000D03*
X77000000Y-73450000D03*
D14*
X72000000Y-65050000D03*
D15*
X74000000Y-65050000D03*
X72000000Y-67550000D03*
X74000000Y-67550000D03*
X72000000Y-70050000D03*
X74000000Y-70050000D03*
D16*
G36*
X78276249Y-50604844D02*
G01*
X78541973Y-50685071D01*
X78787055Y-50815383D01*
X79002158Y-50990817D01*
X79179092Y-51204692D01*
X79311113Y-51448860D01*
X79393193Y-51714018D01*
X79425000Y-52016637D01*
X79425001Y-82971864D01*
X79395156Y-83276249D01*
X79314928Y-83541975D01*
X79184615Y-83787058D01*
X79009181Y-84002161D01*
X78795304Y-84179095D01*
X78551141Y-84311113D01*
X78285982Y-84393193D01*
X77983363Y-84425000D01*
X52028126Y-84425000D01*
X51723751Y-84395156D01*
X51458025Y-84314928D01*
X51212942Y-84184615D01*
X50997839Y-84009181D01*
X50820905Y-83795304D01*
X50688887Y-83551141D01*
X50606807Y-83285982D01*
X50575000Y-82983363D01*
X50575000Y-79793168D01*
X52900000Y-79793168D01*
X52900000Y-80206832D01*
X52980702Y-80612547D01*
X53139004Y-80994723D01*
X53368823Y-81338672D01*
X53661328Y-81631177D01*
X54005277Y-81860996D01*
X54387453Y-82019298D01*
X54793168Y-82100000D01*
X55206832Y-82100000D01*
X55612547Y-82019298D01*
X55994723Y-81860996D01*
X56338672Y-81631177D01*
X56631177Y-81338672D01*
X56860996Y-80994723D01*
X57019298Y-80612547D01*
X57100000Y-80206832D01*
X57100000Y-79793168D01*
X72900000Y-79793168D01*
X72900000Y-80206832D01*
X72980702Y-80612547D01*
X73139004Y-80994723D01*
X73368823Y-81338672D01*
X73661328Y-81631177D01*
X74005277Y-81860996D01*
X74387453Y-82019298D01*
X74793168Y-82100000D01*
X75206832Y-82100000D01*
X75612547Y-82019298D01*
X75994723Y-81860996D01*
X76338672Y-81631177D01*
X76631177Y-81338672D01*
X76860996Y-80994723D01*
X77019298Y-80612547D01*
X77100000Y-80206832D01*
X77100000Y-79793168D01*
X77019298Y-79387453D01*
X76860996Y-79005277D01*
X76631177Y-78661328D01*
X76338672Y-78368823D01*
X75994723Y-78139004D01*
X75612547Y-77980702D01*
X75206832Y-77900000D01*
X74793168Y-77900000D01*
X74387453Y-77980702D01*
X74005277Y-78139004D01*
X73661328Y-78368823D01*
X73368823Y-78661328D01*
X73139004Y-79005277D01*
X72980702Y-79387453D01*
X72900000Y-79793168D01*
X57100000Y-79793168D01*
X57019298Y-79387453D01*
X56860996Y-79005277D01*
X56631177Y-78661328D01*
X56338672Y-78368823D01*
X55994723Y-78139004D01*
X55612547Y-77980702D01*
X55206832Y-77900000D01*
X54793168Y-77900000D01*
X54387453Y-77980702D01*
X54005277Y-78139004D01*
X53661328Y-78368823D01*
X53368823Y-78661328D01*
X53139004Y-79005277D01*
X52980702Y-79387453D01*
X52900000Y-79793168D01*
X50575000Y-79793168D01*
X50575000Y-60000000D01*
X53647581Y-60000000D01*
X53647581Y-61700000D01*
X53657235Y-61798017D01*
X53685825Y-61892267D01*
X53732254Y-61979129D01*
X53794736Y-62055264D01*
X53870871Y-62117746D01*
X53957733Y-62164175D01*
X54051983Y-62192765D01*
X54150000Y-62202419D01*
X54347405Y-62202419D01*
X54139425Y-62341387D01*
X53951387Y-62529425D01*
X53803646Y-62750535D01*
X53701880Y-62996220D01*
X53650000Y-63257037D01*
X53650000Y-63522963D01*
X53701880Y-63783780D01*
X53803646Y-64029465D01*
X53951387Y-64250575D01*
X54139425Y-64438613D01*
X54360535Y-64586354D01*
X54538332Y-64660000D01*
X54360535Y-64733646D01*
X54139425Y-64881387D01*
X53951387Y-65069425D01*
X53803646Y-65290535D01*
X53701880Y-65536220D01*
X53650000Y-65797037D01*
X53650000Y-66062963D01*
X53701880Y-66323780D01*
X53803646Y-66569465D01*
X53951387Y-66790575D01*
X54139425Y-66978613D01*
X54360535Y-67126354D01*
X54538332Y-67200000D01*
X54360535Y-67273646D01*
X54139425Y-67421387D01*
X53951387Y-67609425D01*
X53803646Y-67830535D01*
X53701880Y-68076220D01*
X53650000Y-68337037D01*
X53650000Y-68602963D01*
X53701880Y-68863780D01*
X53803646Y-69109465D01*
X53951387Y-69330575D01*
X54139425Y-69518613D01*
X54360535Y-69666354D01*
X54538332Y-69740000D01*
X54360535Y-69813646D01*
X54139425Y-69961387D01*
X53951387Y-70149425D01*
X53803646Y-70370535D01*
X53701880Y-70616220D01*
X53650000Y-70877037D01*
X53650000Y-71142963D01*
X53701880Y-71403780D01*
X53803646Y-71649465D01*
X53951387Y-71870575D01*
X54139425Y-72058613D01*
X54360535Y-72206354D01*
X54606220Y-72308120D01*
X54867037Y-72360000D01*
X55132963Y-72360000D01*
X55393780Y-72308120D01*
X55639465Y-72206354D01*
X55860575Y-72058613D01*
X56048613Y-71870575D01*
X56196354Y-71649465D01*
X56298120Y-71403780D01*
X56350000Y-71142963D01*
X56350000Y-70877037D01*
X56298120Y-70616220D01*
X56196354Y-70370535D01*
X56048613Y-70149425D01*
X55860575Y-69961387D01*
X55816310Y-69931810D01*
X70800000Y-69931810D01*
X70800000Y-70168190D01*
X70846116Y-70400027D01*
X70936574Y-70618413D01*
X71067899Y-70814955D01*
X71235045Y-70982101D01*
X71431587Y-71113426D01*
X71649973Y-71203884D01*
X71881810Y-71250000D01*
X72118190Y-71250000D01*
X72350027Y-71203884D01*
X72568413Y-71113426D01*
X72764955Y-70982101D01*
X72932101Y-70814955D01*
X73063426Y-70618413D01*
X73153884Y-70400027D01*
X73200000Y-70168190D01*
X73200000Y-69931810D01*
X73153884Y-69699973D01*
X73063426Y-69481587D01*
X72932101Y-69285045D01*
X72764955Y-69117899D01*
X72568413Y-68986574D01*
X72350027Y-68896116D01*
X72118190Y-68850000D01*
X71881810Y-68850000D01*
X71649973Y-68896116D01*
X71431587Y-68986574D01*
X71235045Y-69117899D01*
X71067899Y-69285045D01*
X70936574Y-69481587D01*
X70846116Y-69699973D01*
X70800000Y-69931810D01*
X55816310Y-69931810D01*
X55639465Y-69813646D01*
X55461668Y-69740000D01*
X55639465Y-69666354D01*
X55860575Y-69518613D01*
X56048613Y-69330575D01*
X56196354Y-69109465D01*
X56298120Y-68863780D01*
X56350000Y-68602963D01*
X56350000Y-68337037D01*
X56298120Y-68076220D01*
X56196354Y-67830535D01*
X56048613Y-67609425D01*
X55870998Y-67431810D01*
X70800000Y-67431810D01*
X70800000Y-67668190D01*
X70846116Y-67900027D01*
X70936574Y-68118413D01*
X71067899Y-68314955D01*
X71235045Y-68482101D01*
X71431587Y-68613426D01*
X71649973Y-68703884D01*
X71881810Y-68750000D01*
X72118190Y-68750000D01*
X72350027Y-68703884D01*
X72568413Y-68613426D01*
X72764955Y-68482101D01*
X72932101Y-68314955D01*
X73000000Y-68213337D01*
X73067899Y-68314955D01*
X73235045Y-68482101D01*
X73431587Y-68613426D01*
X73649973Y-68703884D01*
X73881810Y-68750000D01*
X74118190Y-68750000D01*
X74350027Y-68703884D01*
X74568413Y-68613426D01*
X74764955Y-68482101D01*
X74932101Y-68314955D01*
X75063426Y-68118413D01*
X75153884Y-67900027D01*
X75200000Y-67668190D01*
X75200000Y-67431810D01*
X75153884Y-67199973D01*
X75063426Y-66981587D01*
X74932101Y-66785045D01*
X74764955Y-66617899D01*
X74568413Y-66486574D01*
X74350027Y-66396116D01*
X74118190Y-66350000D01*
X73881810Y-66350000D01*
X73649973Y-66396116D01*
X73431587Y-66486574D01*
X73235045Y-66617899D01*
X73067899Y-66785045D01*
X73000000Y-66886663D01*
X72932101Y-66785045D01*
X72764955Y-66617899D01*
X72568413Y-66486574D01*
X72350027Y-66396116D01*
X72118190Y-66350000D01*
X71881810Y-66350000D01*
X71649973Y-66396116D01*
X71431587Y-66486574D01*
X71235045Y-66617899D01*
X71067899Y-66785045D01*
X70936574Y-66981587D01*
X70846116Y-67199973D01*
X70800000Y-67431810D01*
X55870998Y-67431810D01*
X55860575Y-67421387D01*
X55639465Y-67273646D01*
X55461668Y-67200000D01*
X55639465Y-67126354D01*
X55860575Y-66978613D01*
X56048613Y-66790575D01*
X56196354Y-66569465D01*
X56298120Y-66323780D01*
X56350000Y-66062963D01*
X56350000Y-65797037D01*
X56298120Y-65536220D01*
X56196354Y-65290535D01*
X56048613Y-65069425D01*
X55860575Y-64881387D01*
X55639465Y-64733646D01*
X55461668Y-64660000D01*
X55639465Y-64586354D01*
X55860575Y-64438613D01*
X55949188Y-64350000D01*
X70797581Y-64350000D01*
X70797581Y-65750000D01*
X70807235Y-65848017D01*
X70835825Y-65942267D01*
X70882254Y-66029129D01*
X70944736Y-66105264D01*
X71020871Y-66167746D01*
X71107733Y-66214175D01*
X71201983Y-66242765D01*
X71300000Y-66252419D01*
X72700000Y-66252419D01*
X72798017Y-66242765D01*
X72892267Y-66214175D01*
X72979129Y-66167746D01*
X73055264Y-66105264D01*
X73117746Y-66029129D01*
X73164175Y-65942267D01*
X73171398Y-65918454D01*
X73235045Y-65982101D01*
X73431587Y-66113426D01*
X73649973Y-66203884D01*
X73881810Y-66250000D01*
X74118190Y-66250000D01*
X74350027Y-66203884D01*
X74568413Y-66113426D01*
X74764955Y-65982101D01*
X74932101Y-65814955D01*
X75063426Y-65618413D01*
X75153884Y-65400027D01*
X75200000Y-65168190D01*
X75200000Y-64931810D01*
X75153884Y-64699973D01*
X75063426Y-64481587D01*
X74932101Y-64285045D01*
X74764955Y-64117899D01*
X74568413Y-63986574D01*
X74350027Y-63896116D01*
X74118190Y-63850000D01*
X73881810Y-63850000D01*
X73649973Y-63896116D01*
X73431587Y-63986574D01*
X73235045Y-64117899D01*
X73171398Y-64181546D01*
X73164175Y-64157733D01*
X73117746Y-64070871D01*
X73055264Y-63994736D01*
X72979129Y-63932254D01*
X72892267Y-63885825D01*
X72798017Y-63857235D01*
X72700000Y-63847581D01*
X71300000Y-63847581D01*
X71201983Y-63857235D01*
X71107733Y-63885825D01*
X71020871Y-63932254D01*
X70944736Y-63994736D01*
X70882254Y-64070871D01*
X70835825Y-64157733D01*
X70807235Y-64251983D01*
X70797581Y-64350000D01*
X55949188Y-64350000D01*
X56048613Y-64250575D01*
X56196354Y-64029465D01*
X56298120Y-63783780D01*
X56350000Y-63522963D01*
X56350000Y-63257037D01*
X56298120Y-62996220D01*
X56196354Y-62750535D01*
X56048613Y-62529425D01*
X55860575Y-62341387D01*
X55652595Y-62202419D01*
X55850000Y-62202419D01*
X55948017Y-62192765D01*
X56042267Y-62164175D01*
X56129129Y-62117746D01*
X56205264Y-62055264D01*
X56267746Y-61979129D01*
X56314175Y-61892267D01*
X56342765Y-61798017D01*
X56352419Y-61700000D01*
X56352419Y-60000000D01*
X56342765Y-59901983D01*
X56314175Y-59807733D01*
X56267746Y-59720871D01*
X56205264Y-59644736D01*
X56129129Y-59582254D01*
X56042267Y-59535825D01*
X55948017Y-59507235D01*
X55850000Y-59497581D01*
X54150000Y-59497581D01*
X54051983Y-59507235D01*
X53957733Y-59535825D01*
X53870871Y-59582254D01*
X53794736Y-59644736D01*
X53732254Y-59720871D01*
X53685825Y-59807733D01*
X53657235Y-59901983D01*
X53647581Y-60000000D01*
X50575000Y-60000000D01*
X50575000Y-54793168D01*
X52900000Y-54793168D01*
X52900000Y-55206832D01*
X52980702Y-55612547D01*
X53139004Y-55994723D01*
X53368823Y-56338672D01*
X53661328Y-56631177D01*
X54005277Y-56860996D01*
X54387453Y-57019298D01*
X54793168Y-57100000D01*
X55206832Y-57100000D01*
X55612547Y-57019298D01*
X55994723Y-56860996D01*
X56338672Y-56631177D01*
X56631177Y-56338672D01*
X56860996Y-55994723D01*
X57019298Y-55612547D01*
X57100000Y-55206832D01*
X57100000Y-54793168D01*
X72900000Y-54793168D01*
X72900000Y-55206832D01*
X72980702Y-55612547D01*
X73139004Y-55994723D01*
X73368823Y-56338672D01*
X73661328Y-56631177D01*
X74005277Y-56860996D01*
X74387453Y-57019298D01*
X74793168Y-57100000D01*
X75206832Y-57100000D01*
X75612547Y-57019298D01*
X75994723Y-56860996D01*
X76338672Y-56631177D01*
X76631177Y-56338672D01*
X76860996Y-55994723D01*
X77019298Y-55612547D01*
X77100000Y-55206832D01*
X77100000Y-54793168D01*
X77019298Y-54387453D01*
X76860996Y-54005277D01*
X76631177Y-53661328D01*
X76338672Y-53368823D01*
X75994723Y-53139004D01*
X75612547Y-52980702D01*
X75206832Y-52900000D01*
X74793168Y-52900000D01*
X74387453Y-52980702D01*
X74005277Y-53139004D01*
X73661328Y-53368823D01*
X73368823Y-53661328D01*
X73139004Y-54005277D01*
X72980702Y-54387453D01*
X72900000Y-54793168D01*
X57100000Y-54793168D01*
X57019298Y-54387453D01*
X56860996Y-54005277D01*
X56631177Y-53661328D01*
X56338672Y-53368823D01*
X55994723Y-53139004D01*
X55612547Y-52980702D01*
X55206832Y-52900000D01*
X54793168Y-52900000D01*
X54387453Y-52980702D01*
X54005277Y-53139004D01*
X53661328Y-53368823D01*
X53368823Y-53661328D01*
X53139004Y-54005277D01*
X52980702Y-54387453D01*
X52900000Y-54793168D01*
X50575000Y-54793168D01*
X50575000Y-52028126D01*
X50604844Y-51723751D01*
X50685071Y-51458027D01*
X50815383Y-51212945D01*
X50990817Y-50997842D01*
X51204692Y-50820908D01*
X51448860Y-50688887D01*
X51714018Y-50606807D01*
X52016637Y-50575000D01*
X77971874Y-50575000D01*
X78276249Y-50604844D01*
G37*
X78276249Y-50604844D02*
X78541973Y-50685071D01*
X78787055Y-50815383D01*
X79002158Y-50990817D01*
X79179092Y-51204692D01*
X79311113Y-51448860D01*
X79393193Y-51714018D01*
X79425000Y-52016637D01*
X79425001Y-82971864D01*
X79395156Y-83276249D01*
X79314928Y-83541975D01*
X79184615Y-83787058D01*
X79009181Y-84002161D01*
X78795304Y-84179095D01*
X78551141Y-84311113D01*
X78285982Y-84393193D01*
X77983363Y-84425000D01*
X52028126Y-84425000D01*
X51723751Y-84395156D01*
X51458025Y-84314928D01*
X51212942Y-84184615D01*
X50997839Y-84009181D01*
X50820905Y-83795304D01*
X50688887Y-83551141D01*
X50606807Y-83285982D01*
X50575000Y-82983363D01*
X50575000Y-79793168D01*
X52900000Y-79793168D01*
X52900000Y-80206832D01*
X52980702Y-80612547D01*
X53139004Y-80994723D01*
X53368823Y-81338672D01*
X53661328Y-81631177D01*
X54005277Y-81860996D01*
X54387453Y-82019298D01*
X54793168Y-82100000D01*
X55206832Y-82100000D01*
X55612547Y-82019298D01*
X55994723Y-81860996D01*
X56338672Y-81631177D01*
X56631177Y-81338672D01*
X56860996Y-80994723D01*
X57019298Y-80612547D01*
X57100000Y-80206832D01*
X57100000Y-79793168D01*
X72900000Y-79793168D01*
X72900000Y-80206832D01*
X72980702Y-80612547D01*
X73139004Y-80994723D01*
X73368823Y-81338672D01*
X73661328Y-81631177D01*
X74005277Y-81860996D01*
X74387453Y-82019298D01*
X74793168Y-82100000D01*
X75206832Y-82100000D01*
X75612547Y-82019298D01*
X75994723Y-81860996D01*
X76338672Y-81631177D01*
X76631177Y-81338672D01*
X76860996Y-80994723D01*
X77019298Y-80612547D01*
X77100000Y-80206832D01*
X77100000Y-79793168D01*
X77019298Y-79387453D01*
X76860996Y-79005277D01*
X76631177Y-78661328D01*
X76338672Y-78368823D01*
X75994723Y-78139004D01*
X75612547Y-77980702D01*
X75206832Y-77900000D01*
X74793168Y-77900000D01*
X74387453Y-77980702D01*
X74005277Y-78139004D01*
X73661328Y-78368823D01*
X73368823Y-78661328D01*
X73139004Y-79005277D01*
X72980702Y-79387453D01*
X72900000Y-79793168D01*
X57100000Y-79793168D01*
X57019298Y-79387453D01*
X56860996Y-79005277D01*
X56631177Y-78661328D01*
X56338672Y-78368823D01*
X55994723Y-78139004D01*
X55612547Y-77980702D01*
X55206832Y-77900000D01*
X54793168Y-77900000D01*
X54387453Y-77980702D01*
X54005277Y-78139004D01*
X53661328Y-78368823D01*
X53368823Y-78661328D01*
X53139004Y-79005277D01*
X52980702Y-79387453D01*
X52900000Y-79793168D01*
X50575000Y-79793168D01*
X50575000Y-60000000D01*
X53647581Y-60000000D01*
X53647581Y-61700000D01*
X53657235Y-61798017D01*
X53685825Y-61892267D01*
X53732254Y-61979129D01*
X53794736Y-62055264D01*
X53870871Y-62117746D01*
X53957733Y-62164175D01*
X54051983Y-62192765D01*
X54150000Y-62202419D01*
X54347405Y-62202419D01*
X54139425Y-62341387D01*
X53951387Y-62529425D01*
X53803646Y-62750535D01*
X53701880Y-62996220D01*
X53650000Y-63257037D01*
X53650000Y-63522963D01*
X53701880Y-63783780D01*
X53803646Y-64029465D01*
X53951387Y-64250575D01*
X54139425Y-64438613D01*
X54360535Y-64586354D01*
X54538332Y-64660000D01*
X54360535Y-64733646D01*
X54139425Y-64881387D01*
X53951387Y-65069425D01*
X53803646Y-65290535D01*
X53701880Y-65536220D01*
X53650000Y-65797037D01*
X53650000Y-66062963D01*
X53701880Y-66323780D01*
X53803646Y-66569465D01*
X53951387Y-66790575D01*
X54139425Y-66978613D01*
X54360535Y-67126354D01*
X54538332Y-67200000D01*
X54360535Y-67273646D01*
X54139425Y-67421387D01*
X53951387Y-67609425D01*
X53803646Y-67830535D01*
X53701880Y-68076220D01*
X53650000Y-68337037D01*
X53650000Y-68602963D01*
X53701880Y-68863780D01*
X53803646Y-69109465D01*
X53951387Y-69330575D01*
X54139425Y-69518613D01*
X54360535Y-69666354D01*
X54538332Y-69740000D01*
X54360535Y-69813646D01*
X54139425Y-69961387D01*
X53951387Y-70149425D01*
X53803646Y-70370535D01*
X53701880Y-70616220D01*
X53650000Y-70877037D01*
X53650000Y-71142963D01*
X53701880Y-71403780D01*
X53803646Y-71649465D01*
X53951387Y-71870575D01*
X54139425Y-72058613D01*
X54360535Y-72206354D01*
X54606220Y-72308120D01*
X54867037Y-72360000D01*
X55132963Y-72360000D01*
X55393780Y-72308120D01*
X55639465Y-72206354D01*
X55860575Y-72058613D01*
X56048613Y-71870575D01*
X56196354Y-71649465D01*
X56298120Y-71403780D01*
X56350000Y-71142963D01*
X56350000Y-70877037D01*
X56298120Y-70616220D01*
X56196354Y-70370535D01*
X56048613Y-70149425D01*
X55860575Y-69961387D01*
X55816310Y-69931810D01*
X70800000Y-69931810D01*
X70800000Y-70168190D01*
X70846116Y-70400027D01*
X70936574Y-70618413D01*
X71067899Y-70814955D01*
X71235045Y-70982101D01*
X71431587Y-71113426D01*
X71649973Y-71203884D01*
X71881810Y-71250000D01*
X72118190Y-71250000D01*
X72350027Y-71203884D01*
X72568413Y-71113426D01*
X72764955Y-70982101D01*
X72932101Y-70814955D01*
X73063426Y-70618413D01*
X73153884Y-70400027D01*
X73200000Y-70168190D01*
X73200000Y-69931810D01*
X73153884Y-69699973D01*
X73063426Y-69481587D01*
X72932101Y-69285045D01*
X72764955Y-69117899D01*
X72568413Y-68986574D01*
X72350027Y-68896116D01*
X72118190Y-68850000D01*
X71881810Y-68850000D01*
X71649973Y-68896116D01*
X71431587Y-68986574D01*
X71235045Y-69117899D01*
X71067899Y-69285045D01*
X70936574Y-69481587D01*
X70846116Y-69699973D01*
X70800000Y-69931810D01*
X55816310Y-69931810D01*
X55639465Y-69813646D01*
X55461668Y-69740000D01*
X55639465Y-69666354D01*
X55860575Y-69518613D01*
X56048613Y-69330575D01*
X56196354Y-69109465D01*
X56298120Y-68863780D01*
X56350000Y-68602963D01*
X56350000Y-68337037D01*
X56298120Y-68076220D01*
X56196354Y-67830535D01*
X56048613Y-67609425D01*
X55870998Y-67431810D01*
X70800000Y-67431810D01*
X70800000Y-67668190D01*
X70846116Y-67900027D01*
X70936574Y-68118413D01*
X71067899Y-68314955D01*
X71235045Y-68482101D01*
X71431587Y-68613426D01*
X71649973Y-68703884D01*
X71881810Y-68750000D01*
X72118190Y-68750000D01*
X72350027Y-68703884D01*
X72568413Y-68613426D01*
X72764955Y-68482101D01*
X72932101Y-68314955D01*
X73000000Y-68213337D01*
X73067899Y-68314955D01*
X73235045Y-68482101D01*
X73431587Y-68613426D01*
X73649973Y-68703884D01*
X73881810Y-68750000D01*
X74118190Y-68750000D01*
X74350027Y-68703884D01*
X74568413Y-68613426D01*
X74764955Y-68482101D01*
X74932101Y-68314955D01*
X75063426Y-68118413D01*
X75153884Y-67900027D01*
X75200000Y-67668190D01*
X75200000Y-67431810D01*
X75153884Y-67199973D01*
X75063426Y-66981587D01*
X74932101Y-66785045D01*
X74764955Y-66617899D01*
X74568413Y-66486574D01*
X74350027Y-66396116D01*
X74118190Y-66350000D01*
X73881810Y-66350000D01*
X73649973Y-66396116D01*
X73431587Y-66486574D01*
X73235045Y-66617899D01*
X73067899Y-66785045D01*
X73000000Y-66886663D01*
X72932101Y-66785045D01*
X72764955Y-66617899D01*
X72568413Y-66486574D01*
X72350027Y-66396116D01*
X72118190Y-66350000D01*
X71881810Y-66350000D01*
X71649973Y-66396116D01*
X71431587Y-66486574D01*
X71235045Y-66617899D01*
X71067899Y-66785045D01*
X70936574Y-66981587D01*
X70846116Y-67199973D01*
X70800000Y-67431810D01*
X55870998Y-67431810D01*
X55860575Y-67421387D01*
X55639465Y-67273646D01*
X55461668Y-67200000D01*
X55639465Y-67126354D01*
X55860575Y-66978613D01*
X56048613Y-66790575D01*
X56196354Y-66569465D01*
X56298120Y-66323780D01*
X56350000Y-66062963D01*
X56350000Y-65797037D01*
X56298120Y-65536220D01*
X56196354Y-65290535D01*
X56048613Y-65069425D01*
X55860575Y-64881387D01*
X55639465Y-64733646D01*
X55461668Y-64660000D01*
X55639465Y-64586354D01*
X55860575Y-64438613D01*
X55949188Y-64350000D01*
X70797581Y-64350000D01*
X70797581Y-65750000D01*
X70807235Y-65848017D01*
X70835825Y-65942267D01*
X70882254Y-66029129D01*
X70944736Y-66105264D01*
X71020871Y-66167746D01*
X71107733Y-66214175D01*
X71201983Y-66242765D01*
X71300000Y-66252419D01*
X72700000Y-66252419D01*
X72798017Y-66242765D01*
X72892267Y-66214175D01*
X72979129Y-66167746D01*
X73055264Y-66105264D01*
X73117746Y-66029129D01*
X73164175Y-65942267D01*
X73171398Y-65918454D01*
X73235045Y-65982101D01*
X73431587Y-66113426D01*
X73649973Y-66203884D01*
X73881810Y-66250000D01*
X74118190Y-66250000D01*
X74350027Y-66203884D01*
X74568413Y-66113426D01*
X74764955Y-65982101D01*
X74932101Y-65814955D01*
X75063426Y-65618413D01*
X75153884Y-65400027D01*
X75200000Y-65168190D01*
X75200000Y-64931810D01*
X75153884Y-64699973D01*
X75063426Y-64481587D01*
X74932101Y-64285045D01*
X74764955Y-64117899D01*
X74568413Y-63986574D01*
X74350027Y-63896116D01*
X74118190Y-63850000D01*
X73881810Y-63850000D01*
X73649973Y-63896116D01*
X73431587Y-63986574D01*
X73235045Y-64117899D01*
X73171398Y-64181546D01*
X73164175Y-64157733D01*
X73117746Y-64070871D01*
X73055264Y-63994736D01*
X72979129Y-63932254D01*
X72892267Y-63885825D01*
X72798017Y-63857235D01*
X72700000Y-63847581D01*
X71300000Y-63847581D01*
X71201983Y-63857235D01*
X71107733Y-63885825D01*
X71020871Y-63932254D01*
X70944736Y-63994736D01*
X70882254Y-64070871D01*
X70835825Y-64157733D01*
X70807235Y-64251983D01*
X70797581Y-64350000D01*
X55949188Y-64350000D01*
X56048613Y-64250575D01*
X56196354Y-64029465D01*
X56298120Y-63783780D01*
X56350000Y-63522963D01*
X56350000Y-63257037D01*
X56298120Y-62996220D01*
X56196354Y-62750535D01*
X56048613Y-62529425D01*
X55860575Y-62341387D01*
X55652595Y-62202419D01*
X55850000Y-62202419D01*
X55948017Y-62192765D01*
X56042267Y-62164175D01*
X56129129Y-62117746D01*
X56205264Y-62055264D01*
X56267746Y-61979129D01*
X56314175Y-61892267D01*
X56342765Y-61798017D01*
X56352419Y-61700000D01*
X56352419Y-60000000D01*
X56342765Y-59901983D01*
X56314175Y-59807733D01*
X56267746Y-59720871D01*
X56205264Y-59644736D01*
X56129129Y-59582254D01*
X56042267Y-59535825D01*
X55948017Y-59507235D01*
X55850000Y-59497581D01*
X54150000Y-59497581D01*
X54051983Y-59507235D01*
X53957733Y-59535825D01*
X53870871Y-59582254D01*
X53794736Y-59644736D01*
X53732254Y-59720871D01*
X53685825Y-59807733D01*
X53657235Y-59901983D01*
X53647581Y-60000000D01*
X50575000Y-60000000D01*
X50575000Y-54793168D01*
X52900000Y-54793168D01*
X52900000Y-55206832D01*
X52980702Y-55612547D01*
X53139004Y-55994723D01*
X53368823Y-56338672D01*
X53661328Y-56631177D01*
X54005277Y-56860996D01*
X54387453Y-57019298D01*
X54793168Y-57100000D01*
X55206832Y-57100000D01*
X55612547Y-57019298D01*
X55994723Y-56860996D01*
X56338672Y-56631177D01*
X56631177Y-56338672D01*
X56860996Y-55994723D01*
X57019298Y-55612547D01*
X57100000Y-55206832D01*
X57100000Y-54793168D01*
X72900000Y-54793168D01*
X72900000Y-55206832D01*
X72980702Y-55612547D01*
X73139004Y-55994723D01*
X73368823Y-56338672D01*
X73661328Y-56631177D01*
X74005277Y-56860996D01*
X74387453Y-57019298D01*
X74793168Y-57100000D01*
X75206832Y-57100000D01*
X75612547Y-57019298D01*
X75994723Y-56860996D01*
X76338672Y-56631177D01*
X76631177Y-56338672D01*
X76860996Y-55994723D01*
X77019298Y-55612547D01*
X77100000Y-55206832D01*
X77100000Y-54793168D01*
X77019298Y-54387453D01*
X76860996Y-54005277D01*
X76631177Y-53661328D01*
X76338672Y-53368823D01*
X75994723Y-53139004D01*
X75612547Y-52980702D01*
X75206832Y-52900000D01*
X74793168Y-52900000D01*
X74387453Y-52980702D01*
X74005277Y-53139004D01*
X73661328Y-53368823D01*
X73368823Y-53661328D01*
X73139004Y-54005277D01*
X72980702Y-54387453D01*
X72900000Y-54793168D01*
X57100000Y-54793168D01*
X57019298Y-54387453D01*
X56860996Y-54005277D01*
X56631177Y-53661328D01*
X56338672Y-53368823D01*
X55994723Y-53139004D01*
X55612547Y-52980702D01*
X55206832Y-52900000D01*
X54793168Y-52900000D01*
X54387453Y-52980702D01*
X54005277Y-53139004D01*
X53661328Y-53368823D01*
X53368823Y-53661328D01*
X53139004Y-54005277D01*
X52980702Y-54387453D01*
X52900000Y-54793168D01*
X50575000Y-54793168D01*
X50575000Y-52028126D01*
X50604844Y-51723751D01*
X50685071Y-51458027D01*
X50815383Y-51212945D01*
X50990817Y-50997842D01*
X51204692Y-50820908D01*
X51448860Y-50688887D01*
X51714018Y-50606807D01*
X52016637Y-50575000D01*
X77971874Y-50575000D01*
X78276249Y-50604844D01*
M02*
