G04 #@! TF.GenerationSoftware,KiCad,Pcbnew,5.0.2-bee76a0~70~ubuntu18.10.1*
G04 #@! TF.CreationDate,2019-01-06T00:10:33+02:00*
G04 #@! TF.ProjectId,GB-BRK-LINK-A,47422d42-524b-42d4-9c49-4e4b2d412e6b,v1.0*
G04 #@! TF.SameCoordinates,Original*
G04 #@! TF.FileFunction,Copper,L2,Bot*
G04 #@! TF.FilePolarity,Positive*
%FSLAX46Y46*%
G04 Gerber Fmt 4.6, Leading zero omitted, Abs format (unit mm)*
G04 Created by KiCad (PCBNEW 5.0.2-bee76a0~70~ubuntu18.10.1) date su  6. tammikuuta 2019 00.10.33*
%MOMM*%
%LPD*%
G01*
G04 APERTURE LIST*
G04 #@! TA.AperFunction,NonConductor*
%ADD10C,0.150000*%
G04 #@! TD*
G04 #@! TA.AperFunction,ComponentPad*
%ADD11R,1.700000X1.700000*%
G04 #@! TD*
G04 #@! TA.AperFunction,ComponentPad*
%ADD12O,1.700000X1.700000*%
G04 #@! TD*
G04 #@! TA.AperFunction,ComponentPad*
%ADD13O,3.000000X2.000000*%
G04 #@! TD*
G04 #@! TA.AperFunction,ComponentPad*
%ADD14R,1.400000X1.400000*%
G04 #@! TD*
G04 #@! TA.AperFunction,ComponentPad*
%ADD15C,1.400000*%
G04 #@! TD*
G04 #@! TA.AperFunction,Conductor*
%ADD16C,0.200000*%
G04 #@! TD*
G04 APERTURE END LIST*
D10*
X52000000Y-85000000D02*
G75*
G02X50000000Y-83000000I0J2000000D01*
G01*
X80000000Y-83000000D02*
G75*
G02X78000000Y-85000000I-2000000J0D01*
G01*
X78000000Y-50000000D02*
G75*
G02X80000000Y-52000000I0J-2000000D01*
G01*
X50000000Y-52000000D02*
G75*
G02X52000000Y-50000000I2000000J0D01*
G01*
X52000000Y-85000000D02*
X78000000Y-85000000D01*
X80000000Y-52000000D02*
X80000000Y-83000000D01*
X52000000Y-50000000D02*
X78000000Y-50000000D01*
X50000000Y-52000000D02*
X50000000Y-83000000D01*
D11*
G04 #@! TO.P,J1,1*
G04 #@! TO.N,Net-(J1-Pad1)*
X55000000Y-60850000D03*
D12*
G04 #@! TO.P,J1,2*
G04 #@! TO.N,Net-(J1-Pad2)*
X55000000Y-63390000D03*
G04 #@! TO.P,J1,3*
G04 #@! TO.N,Net-(J1-Pad3)*
X55000000Y-65930000D03*
G04 #@! TO.P,J1,4*
G04 #@! TO.N,Net-(J1-Pad4)*
X55000000Y-68470000D03*
G04 #@! TO.P,J1,5*
G04 #@! TO.N,Net-(J1-Pad5)*
X55000000Y-71010000D03*
G04 #@! TO.P,J1,6*
G04 #@! TO.N,/GND*
X55000000Y-73550000D03*
G04 #@! TD*
D13*
G04 #@! TO.P,J2,SH*
G04 #@! TO.N,/GND*
X77000000Y-61650000D03*
X77000000Y-73450000D03*
D14*
G04 #@! TO.P,J2,1*
G04 #@! TO.N,Net-(J1-Pad1)*
X72000000Y-65050000D03*
D15*
G04 #@! TO.P,J2,2*
G04 #@! TO.N,Net-(J1-Pad2)*
X74000000Y-65050000D03*
G04 #@! TO.P,J2,3*
G04 #@! TO.N,Net-(J1-Pad3)*
X72000000Y-67550000D03*
G04 #@! TO.P,J2,4*
G04 #@! TO.N,Net-(J1-Pad4)*
X74000000Y-67550000D03*
G04 #@! TO.P,J2,5*
G04 #@! TO.N,Net-(J1-Pad5)*
X72000000Y-70050000D03*
G04 #@! TO.P,J2,6*
G04 #@! TO.N,/GND*
X74000000Y-70050000D03*
G04 #@! TD*
D16*
G04 #@! TO.N,/GND*
G36*
X78398303Y-50637908D02*
X78764590Y-50804449D01*
X79069406Y-51067096D01*
X79288257Y-51404742D01*
X79409242Y-51809287D01*
X79425000Y-52021337D01*
X79425001Y-82959027D01*
X79362092Y-83398304D01*
X79195551Y-83764591D01*
X78932906Y-84069404D01*
X78595257Y-84288258D01*
X78190713Y-84409242D01*
X77978663Y-84425000D01*
X52040966Y-84425000D01*
X51601696Y-84362092D01*
X51235409Y-84195551D01*
X50930596Y-83932906D01*
X50711742Y-83595257D01*
X50590758Y-83190713D01*
X50575000Y-82978663D01*
X50575000Y-79582284D01*
X52900000Y-79582284D01*
X52900000Y-80417716D01*
X53219706Y-81189554D01*
X53810446Y-81780294D01*
X54582284Y-82100000D01*
X55417716Y-82100000D01*
X56189554Y-81780294D01*
X56780294Y-81189554D01*
X57100000Y-80417716D01*
X57100000Y-79582284D01*
X72900000Y-79582284D01*
X72900000Y-80417716D01*
X73219706Y-81189554D01*
X73810446Y-81780294D01*
X74582284Y-82100000D01*
X75417716Y-82100000D01*
X76189554Y-81780294D01*
X76780294Y-81189554D01*
X77100000Y-80417716D01*
X77100000Y-79582284D01*
X76780294Y-78810446D01*
X76189554Y-78219706D01*
X75417716Y-77900000D01*
X74582284Y-77900000D01*
X73810446Y-78219706D01*
X73219706Y-78810446D01*
X72900000Y-79582284D01*
X57100000Y-79582284D01*
X56780294Y-78810446D01*
X56189554Y-78219706D01*
X55417716Y-77900000D01*
X54582284Y-77900000D01*
X53810446Y-78219706D01*
X53219706Y-78810446D01*
X52900000Y-79582284D01*
X50575000Y-79582284D01*
X50575000Y-63390000D01*
X53623552Y-63390000D01*
X53728328Y-63916744D01*
X54026704Y-64363296D01*
X54470754Y-64660000D01*
X54026704Y-64956704D01*
X53728328Y-65403256D01*
X53623552Y-65930000D01*
X53728328Y-66456744D01*
X54026704Y-66903296D01*
X54470754Y-67200000D01*
X54026704Y-67496704D01*
X53728328Y-67943256D01*
X53623552Y-68470000D01*
X53728328Y-68996744D01*
X54026704Y-69443296D01*
X54470754Y-69740000D01*
X54026704Y-70036704D01*
X53728328Y-70483256D01*
X53623552Y-71010000D01*
X53728328Y-71536744D01*
X54026704Y-71983296D01*
X54473256Y-72281672D01*
X54867037Y-72360000D01*
X55132963Y-72360000D01*
X55526744Y-72281672D01*
X55973296Y-71983296D01*
X56271672Y-71536744D01*
X56376448Y-71010000D01*
X56271672Y-70483256D01*
X55973296Y-70036704D01*
X55635962Y-69811305D01*
X70800000Y-69811305D01*
X70800000Y-70288695D01*
X70982689Y-70729745D01*
X71320255Y-71067311D01*
X71761305Y-71250000D01*
X72238695Y-71250000D01*
X72679745Y-71067311D01*
X73017311Y-70729745D01*
X73200000Y-70288695D01*
X73200000Y-69811305D01*
X73017311Y-69370255D01*
X72679745Y-69032689D01*
X72238695Y-68850000D01*
X71761305Y-68850000D01*
X71320255Y-69032689D01*
X70982689Y-69370255D01*
X70800000Y-69811305D01*
X55635962Y-69811305D01*
X55529246Y-69740000D01*
X55973296Y-69443296D01*
X56271672Y-68996744D01*
X56376448Y-68470000D01*
X56271672Y-67943256D01*
X55973296Y-67496704D01*
X55695827Y-67311305D01*
X70800000Y-67311305D01*
X70800000Y-67788695D01*
X70982689Y-68229745D01*
X71320255Y-68567311D01*
X71761305Y-68750000D01*
X72238695Y-68750000D01*
X72679745Y-68567311D01*
X73000000Y-68247056D01*
X73320255Y-68567311D01*
X73761305Y-68750000D01*
X74238695Y-68750000D01*
X74679745Y-68567311D01*
X75017311Y-68229745D01*
X75200000Y-67788695D01*
X75200000Y-67311305D01*
X75017311Y-66870255D01*
X74679745Y-66532689D01*
X74238695Y-66350000D01*
X73761305Y-66350000D01*
X73320255Y-66532689D01*
X73000000Y-66852944D01*
X72679745Y-66532689D01*
X72238695Y-66350000D01*
X71761305Y-66350000D01*
X71320255Y-66532689D01*
X70982689Y-66870255D01*
X70800000Y-67311305D01*
X55695827Y-67311305D01*
X55529246Y-67200000D01*
X55973296Y-66903296D01*
X56271672Y-66456744D01*
X56376448Y-65930000D01*
X56271672Y-65403256D01*
X55973296Y-64956704D01*
X55529246Y-64660000D01*
X55973296Y-64363296D01*
X55982180Y-64350000D01*
X70790205Y-64350000D01*
X70790205Y-65750000D01*
X70829011Y-65945090D01*
X70939520Y-66110480D01*
X71104910Y-66220989D01*
X71300000Y-66259795D01*
X72700000Y-66259795D01*
X72895090Y-66220989D01*
X73060480Y-66110480D01*
X73170989Y-65945090D01*
X73175476Y-65922532D01*
X73320255Y-66067311D01*
X73761305Y-66250000D01*
X74238695Y-66250000D01*
X74679745Y-66067311D01*
X75017311Y-65729745D01*
X75200000Y-65288695D01*
X75200000Y-64811305D01*
X75017311Y-64370255D01*
X74679745Y-64032689D01*
X74238695Y-63850000D01*
X73761305Y-63850000D01*
X73320255Y-64032689D01*
X73175476Y-64177468D01*
X73170989Y-64154910D01*
X73060480Y-63989520D01*
X72895090Y-63879011D01*
X72700000Y-63840205D01*
X71300000Y-63840205D01*
X71104910Y-63879011D01*
X70939520Y-63989520D01*
X70829011Y-64154910D01*
X70790205Y-64350000D01*
X55982180Y-64350000D01*
X56271672Y-63916744D01*
X56376448Y-63390000D01*
X56271672Y-62863256D01*
X55973296Y-62416704D01*
X55663634Y-62209795D01*
X55850000Y-62209795D01*
X56045090Y-62170989D01*
X56210480Y-62060480D01*
X56320989Y-61895090D01*
X56359795Y-61700000D01*
X56359795Y-60000000D01*
X56320989Y-59804910D01*
X56210480Y-59639520D01*
X56045090Y-59529011D01*
X55850000Y-59490205D01*
X54150000Y-59490205D01*
X53954910Y-59529011D01*
X53789520Y-59639520D01*
X53679011Y-59804910D01*
X53640205Y-60000000D01*
X53640205Y-61700000D01*
X53679011Y-61895090D01*
X53789520Y-62060480D01*
X53954910Y-62170989D01*
X54150000Y-62209795D01*
X54336366Y-62209795D01*
X54026704Y-62416704D01*
X53728328Y-62863256D01*
X53623552Y-63390000D01*
X50575000Y-63390000D01*
X50575000Y-54582284D01*
X52900000Y-54582284D01*
X52900000Y-55417716D01*
X53219706Y-56189554D01*
X53810446Y-56780294D01*
X54582284Y-57100000D01*
X55417716Y-57100000D01*
X56189554Y-56780294D01*
X56780294Y-56189554D01*
X57100000Y-55417716D01*
X57100000Y-54582284D01*
X72900000Y-54582284D01*
X72900000Y-55417716D01*
X73219706Y-56189554D01*
X73810446Y-56780294D01*
X74582284Y-57100000D01*
X75417716Y-57100000D01*
X76189554Y-56780294D01*
X76780294Y-56189554D01*
X77100000Y-55417716D01*
X77100000Y-54582284D01*
X76780294Y-53810446D01*
X76189554Y-53219706D01*
X75417716Y-52900000D01*
X74582284Y-52900000D01*
X73810446Y-53219706D01*
X73219706Y-53810446D01*
X72900000Y-54582284D01*
X57100000Y-54582284D01*
X56780294Y-53810446D01*
X56189554Y-53219706D01*
X55417716Y-52900000D01*
X54582284Y-52900000D01*
X53810446Y-53219706D01*
X53219706Y-53810446D01*
X52900000Y-54582284D01*
X50575000Y-54582284D01*
X50575000Y-52040966D01*
X50637908Y-51601697D01*
X50804449Y-51235410D01*
X51067096Y-50930594D01*
X51404742Y-50711743D01*
X51809287Y-50590758D01*
X52021337Y-50575000D01*
X77959034Y-50575000D01*
X78398303Y-50637908D01*
X78398303Y-50637908D01*
G37*
X78398303Y-50637908D02*
X78764590Y-50804449D01*
X79069406Y-51067096D01*
X79288257Y-51404742D01*
X79409242Y-51809287D01*
X79425000Y-52021337D01*
X79425001Y-82959027D01*
X79362092Y-83398304D01*
X79195551Y-83764591D01*
X78932906Y-84069404D01*
X78595257Y-84288258D01*
X78190713Y-84409242D01*
X77978663Y-84425000D01*
X52040966Y-84425000D01*
X51601696Y-84362092D01*
X51235409Y-84195551D01*
X50930596Y-83932906D01*
X50711742Y-83595257D01*
X50590758Y-83190713D01*
X50575000Y-82978663D01*
X50575000Y-79582284D01*
X52900000Y-79582284D01*
X52900000Y-80417716D01*
X53219706Y-81189554D01*
X53810446Y-81780294D01*
X54582284Y-82100000D01*
X55417716Y-82100000D01*
X56189554Y-81780294D01*
X56780294Y-81189554D01*
X57100000Y-80417716D01*
X57100000Y-79582284D01*
X72900000Y-79582284D01*
X72900000Y-80417716D01*
X73219706Y-81189554D01*
X73810446Y-81780294D01*
X74582284Y-82100000D01*
X75417716Y-82100000D01*
X76189554Y-81780294D01*
X76780294Y-81189554D01*
X77100000Y-80417716D01*
X77100000Y-79582284D01*
X76780294Y-78810446D01*
X76189554Y-78219706D01*
X75417716Y-77900000D01*
X74582284Y-77900000D01*
X73810446Y-78219706D01*
X73219706Y-78810446D01*
X72900000Y-79582284D01*
X57100000Y-79582284D01*
X56780294Y-78810446D01*
X56189554Y-78219706D01*
X55417716Y-77900000D01*
X54582284Y-77900000D01*
X53810446Y-78219706D01*
X53219706Y-78810446D01*
X52900000Y-79582284D01*
X50575000Y-79582284D01*
X50575000Y-63390000D01*
X53623552Y-63390000D01*
X53728328Y-63916744D01*
X54026704Y-64363296D01*
X54470754Y-64660000D01*
X54026704Y-64956704D01*
X53728328Y-65403256D01*
X53623552Y-65930000D01*
X53728328Y-66456744D01*
X54026704Y-66903296D01*
X54470754Y-67200000D01*
X54026704Y-67496704D01*
X53728328Y-67943256D01*
X53623552Y-68470000D01*
X53728328Y-68996744D01*
X54026704Y-69443296D01*
X54470754Y-69740000D01*
X54026704Y-70036704D01*
X53728328Y-70483256D01*
X53623552Y-71010000D01*
X53728328Y-71536744D01*
X54026704Y-71983296D01*
X54473256Y-72281672D01*
X54867037Y-72360000D01*
X55132963Y-72360000D01*
X55526744Y-72281672D01*
X55973296Y-71983296D01*
X56271672Y-71536744D01*
X56376448Y-71010000D01*
X56271672Y-70483256D01*
X55973296Y-70036704D01*
X55635962Y-69811305D01*
X70800000Y-69811305D01*
X70800000Y-70288695D01*
X70982689Y-70729745D01*
X71320255Y-71067311D01*
X71761305Y-71250000D01*
X72238695Y-71250000D01*
X72679745Y-71067311D01*
X73017311Y-70729745D01*
X73200000Y-70288695D01*
X73200000Y-69811305D01*
X73017311Y-69370255D01*
X72679745Y-69032689D01*
X72238695Y-68850000D01*
X71761305Y-68850000D01*
X71320255Y-69032689D01*
X70982689Y-69370255D01*
X70800000Y-69811305D01*
X55635962Y-69811305D01*
X55529246Y-69740000D01*
X55973296Y-69443296D01*
X56271672Y-68996744D01*
X56376448Y-68470000D01*
X56271672Y-67943256D01*
X55973296Y-67496704D01*
X55695827Y-67311305D01*
X70800000Y-67311305D01*
X70800000Y-67788695D01*
X70982689Y-68229745D01*
X71320255Y-68567311D01*
X71761305Y-68750000D01*
X72238695Y-68750000D01*
X72679745Y-68567311D01*
X73000000Y-68247056D01*
X73320255Y-68567311D01*
X73761305Y-68750000D01*
X74238695Y-68750000D01*
X74679745Y-68567311D01*
X75017311Y-68229745D01*
X75200000Y-67788695D01*
X75200000Y-67311305D01*
X75017311Y-66870255D01*
X74679745Y-66532689D01*
X74238695Y-66350000D01*
X73761305Y-66350000D01*
X73320255Y-66532689D01*
X73000000Y-66852944D01*
X72679745Y-66532689D01*
X72238695Y-66350000D01*
X71761305Y-66350000D01*
X71320255Y-66532689D01*
X70982689Y-66870255D01*
X70800000Y-67311305D01*
X55695827Y-67311305D01*
X55529246Y-67200000D01*
X55973296Y-66903296D01*
X56271672Y-66456744D01*
X56376448Y-65930000D01*
X56271672Y-65403256D01*
X55973296Y-64956704D01*
X55529246Y-64660000D01*
X55973296Y-64363296D01*
X55982180Y-64350000D01*
X70790205Y-64350000D01*
X70790205Y-65750000D01*
X70829011Y-65945090D01*
X70939520Y-66110480D01*
X71104910Y-66220989D01*
X71300000Y-66259795D01*
X72700000Y-66259795D01*
X72895090Y-66220989D01*
X73060480Y-66110480D01*
X73170989Y-65945090D01*
X73175476Y-65922532D01*
X73320255Y-66067311D01*
X73761305Y-66250000D01*
X74238695Y-66250000D01*
X74679745Y-66067311D01*
X75017311Y-65729745D01*
X75200000Y-65288695D01*
X75200000Y-64811305D01*
X75017311Y-64370255D01*
X74679745Y-64032689D01*
X74238695Y-63850000D01*
X73761305Y-63850000D01*
X73320255Y-64032689D01*
X73175476Y-64177468D01*
X73170989Y-64154910D01*
X73060480Y-63989520D01*
X72895090Y-63879011D01*
X72700000Y-63840205D01*
X71300000Y-63840205D01*
X71104910Y-63879011D01*
X70939520Y-63989520D01*
X70829011Y-64154910D01*
X70790205Y-64350000D01*
X55982180Y-64350000D01*
X56271672Y-63916744D01*
X56376448Y-63390000D01*
X56271672Y-62863256D01*
X55973296Y-62416704D01*
X55663634Y-62209795D01*
X55850000Y-62209795D01*
X56045090Y-62170989D01*
X56210480Y-62060480D01*
X56320989Y-61895090D01*
X56359795Y-61700000D01*
X56359795Y-60000000D01*
X56320989Y-59804910D01*
X56210480Y-59639520D01*
X56045090Y-59529011D01*
X55850000Y-59490205D01*
X54150000Y-59490205D01*
X53954910Y-59529011D01*
X53789520Y-59639520D01*
X53679011Y-59804910D01*
X53640205Y-60000000D01*
X53640205Y-61700000D01*
X53679011Y-61895090D01*
X53789520Y-62060480D01*
X53954910Y-62170989D01*
X54150000Y-62209795D01*
X54336366Y-62209795D01*
X54026704Y-62416704D01*
X53728328Y-62863256D01*
X53623552Y-63390000D01*
X50575000Y-63390000D01*
X50575000Y-54582284D01*
X52900000Y-54582284D01*
X52900000Y-55417716D01*
X53219706Y-56189554D01*
X53810446Y-56780294D01*
X54582284Y-57100000D01*
X55417716Y-57100000D01*
X56189554Y-56780294D01*
X56780294Y-56189554D01*
X57100000Y-55417716D01*
X57100000Y-54582284D01*
X72900000Y-54582284D01*
X72900000Y-55417716D01*
X73219706Y-56189554D01*
X73810446Y-56780294D01*
X74582284Y-57100000D01*
X75417716Y-57100000D01*
X76189554Y-56780294D01*
X76780294Y-56189554D01*
X77100000Y-55417716D01*
X77100000Y-54582284D01*
X76780294Y-53810446D01*
X76189554Y-53219706D01*
X75417716Y-52900000D01*
X74582284Y-52900000D01*
X73810446Y-53219706D01*
X73219706Y-53810446D01*
X72900000Y-54582284D01*
X57100000Y-54582284D01*
X56780294Y-53810446D01*
X56189554Y-53219706D01*
X55417716Y-52900000D01*
X54582284Y-52900000D01*
X53810446Y-53219706D01*
X53219706Y-53810446D01*
X52900000Y-54582284D01*
X50575000Y-54582284D01*
X50575000Y-52040966D01*
X50637908Y-51601697D01*
X50804449Y-51235410D01*
X51067096Y-50930594D01*
X51404742Y-50711743D01*
X51809287Y-50590758D01*
X52021337Y-50575000D01*
X77959034Y-50575000D01*
X78398303Y-50637908D01*
G04 #@! TD*
M02*
