G04 #@! TF.GenerationSoftware,KiCad,Pcbnew,5.0.2-bee76a0~70~ubuntu18.10.1*
G04 #@! TF.CreationDate,2019-01-06T00:10:33+02:00*
G04 #@! TF.ProjectId,GB-BRK-LINK-A,47422d42-524b-42d4-9c49-4e4b2d412e6b,v1.0*
G04 #@! TF.SameCoordinates,Original*
G04 #@! TF.FileFunction,Soldermask,Bot*
G04 #@! TF.FilePolarity,Negative*
%FSLAX46Y46*%
G04 Gerber Fmt 4.6, Leading zero omitted, Abs format (unit mm)*
G04 Created by KiCad (PCBNEW 5.0.2-bee76a0~70~ubuntu18.10.1) date su  6. tammikuuta 2019 00.10.33*
%MOMM*%
%LPD*%
G01*
G04 APERTURE LIST*
%ADD10C,0.150000*%
%ADD11C,0.100000*%
G04 APERTURE END LIST*
D10*
X52000000Y-85000000D02*
G75*
G02X50000000Y-83000000I0J2000000D01*
G01*
X80000000Y-83000000D02*
G75*
G02X78000000Y-85000000I-2000000J0D01*
G01*
X78000000Y-50000000D02*
G75*
G02X80000000Y-52000000I0J-2000000D01*
G01*
X50000000Y-52000000D02*
G75*
G02X52000000Y-50000000I2000000J0D01*
G01*
X52000000Y-85000000D02*
X78000000Y-85000000D01*
X80000000Y-52000000D02*
X80000000Y-83000000D01*
X52000000Y-50000000D02*
X78000000Y-50000000D01*
X50000000Y-52000000D02*
X50000000Y-83000000D01*
D11*
G36*
X75466703Y-78461487D02*
X75466705Y-78461488D01*
X75466706Y-78461488D01*
X75757884Y-78582098D01*
X76019939Y-78757197D01*
X76242803Y-78980061D01*
X76417902Y-79242116D01*
X76538512Y-79533294D01*
X76600000Y-79842416D01*
X76600000Y-80157584D01*
X76538512Y-80466706D01*
X76417902Y-80757884D01*
X76242803Y-81019939D01*
X76019939Y-81242803D01*
X75757884Y-81417902D01*
X75466706Y-81538512D01*
X75466705Y-81538512D01*
X75466703Y-81538513D01*
X75157586Y-81600000D01*
X74842414Y-81600000D01*
X74533297Y-81538513D01*
X74533295Y-81538512D01*
X74533294Y-81538512D01*
X74242116Y-81417902D01*
X73980061Y-81242803D01*
X73757197Y-81019939D01*
X73582098Y-80757884D01*
X73461488Y-80466706D01*
X73400000Y-80157584D01*
X73400000Y-79842416D01*
X73461488Y-79533294D01*
X73582098Y-79242116D01*
X73757197Y-78980061D01*
X73980061Y-78757197D01*
X74242116Y-78582098D01*
X74533294Y-78461488D01*
X74533295Y-78461488D01*
X74533297Y-78461487D01*
X74842414Y-78400000D01*
X75157586Y-78400000D01*
X75466703Y-78461487D01*
X75466703Y-78461487D01*
G37*
G36*
X55466703Y-78461487D02*
X55466705Y-78461488D01*
X55466706Y-78461488D01*
X55757884Y-78582098D01*
X56019939Y-78757197D01*
X56242803Y-78980061D01*
X56417902Y-79242116D01*
X56538512Y-79533294D01*
X56600000Y-79842416D01*
X56600000Y-80157584D01*
X56538512Y-80466706D01*
X56417902Y-80757884D01*
X56242803Y-81019939D01*
X56019939Y-81242803D01*
X55757884Y-81417902D01*
X55466706Y-81538512D01*
X55466705Y-81538512D01*
X55466703Y-81538513D01*
X55157586Y-81600000D01*
X54842414Y-81600000D01*
X54533297Y-81538513D01*
X54533295Y-81538512D01*
X54533294Y-81538512D01*
X54242116Y-81417902D01*
X53980061Y-81242803D01*
X53757197Y-81019939D01*
X53582098Y-80757884D01*
X53461488Y-80466706D01*
X53400000Y-80157584D01*
X53400000Y-79842416D01*
X53461488Y-79533294D01*
X53582098Y-79242116D01*
X53757197Y-78980061D01*
X53980061Y-78757197D01*
X54242116Y-78582098D01*
X54533294Y-78461488D01*
X54533295Y-78461488D01*
X54533297Y-78461487D01*
X54842414Y-78400000D01*
X55157586Y-78400000D01*
X55466703Y-78461487D01*
X55466703Y-78461487D01*
G37*
G36*
X77696031Y-72464468D02*
X77834552Y-72506489D01*
X77884535Y-72521651D01*
X77884537Y-72521652D01*
X78058258Y-72614507D01*
X78210528Y-72739472D01*
X78335493Y-72891742D01*
X78428348Y-73065463D01*
X78485532Y-73253969D01*
X78504839Y-73450000D01*
X78485532Y-73646031D01*
X78428348Y-73834537D01*
X78335493Y-74008258D01*
X78210528Y-74160528D01*
X78058258Y-74285493D01*
X77884537Y-74378348D01*
X77884535Y-74378349D01*
X77834552Y-74393511D01*
X77696031Y-74435532D01*
X77549129Y-74450000D01*
X76450871Y-74450000D01*
X76303969Y-74435532D01*
X76165448Y-74393511D01*
X76115465Y-74378349D01*
X76115463Y-74378348D01*
X75941742Y-74285493D01*
X75789472Y-74160528D01*
X75664507Y-74008258D01*
X75571652Y-73834537D01*
X75514468Y-73646031D01*
X75495161Y-73450000D01*
X75514468Y-73253969D01*
X75571652Y-73065463D01*
X75664507Y-72891742D01*
X75789472Y-72739472D01*
X75941742Y-72614507D01*
X76115463Y-72521652D01*
X76115465Y-72521651D01*
X76165448Y-72506489D01*
X76303969Y-72464468D01*
X76450871Y-72450000D01*
X77549129Y-72450000D01*
X77696031Y-72464468D01*
X77696031Y-72464468D01*
G37*
G36*
X55166627Y-72712299D02*
X55256205Y-72739472D01*
X55326855Y-72760903D01*
X55380712Y-72789691D01*
X55474517Y-72839830D01*
X55603948Y-72946052D01*
X55710170Y-73075483D01*
X55760309Y-73169288D01*
X55789097Y-73223145D01*
X55789097Y-73223146D01*
X55837701Y-73383373D01*
X55854113Y-73550000D01*
X55837701Y-73716627D01*
X55837700Y-73716629D01*
X55789097Y-73876855D01*
X55760309Y-73930712D01*
X55710170Y-74024517D01*
X55603948Y-74153948D01*
X55474517Y-74260170D01*
X55380712Y-74310309D01*
X55326855Y-74339097D01*
X55257088Y-74360260D01*
X55166627Y-74387701D01*
X55041757Y-74400000D01*
X54958243Y-74400000D01*
X54833373Y-74387701D01*
X54742912Y-74360260D01*
X54673145Y-74339097D01*
X54619288Y-74310309D01*
X54525483Y-74260170D01*
X54396052Y-74153948D01*
X54289830Y-74024517D01*
X54239691Y-73930712D01*
X54210903Y-73876855D01*
X54162300Y-73716629D01*
X54162299Y-73716627D01*
X54145887Y-73550000D01*
X54162299Y-73383373D01*
X54210903Y-73223146D01*
X54210903Y-73223145D01*
X54239691Y-73169288D01*
X54289830Y-73075483D01*
X54396052Y-72946052D01*
X54525483Y-72839830D01*
X54619288Y-72789691D01*
X54673145Y-72760903D01*
X54743795Y-72739472D01*
X54833373Y-72712299D01*
X54958243Y-72700000D01*
X55041757Y-72700000D01*
X55166627Y-72712299D01*
X55166627Y-72712299D01*
G37*
G36*
X55166627Y-70172299D02*
X55257088Y-70199740D01*
X55326855Y-70220903D01*
X55380712Y-70249691D01*
X55474517Y-70299830D01*
X55603948Y-70406052D01*
X55710170Y-70535483D01*
X55741301Y-70593726D01*
X55789097Y-70683145D01*
X55789097Y-70683146D01*
X55837701Y-70843373D01*
X55854113Y-71010000D01*
X55837701Y-71176627D01*
X55837700Y-71176629D01*
X55789097Y-71336855D01*
X55760309Y-71390712D01*
X55710170Y-71484517D01*
X55603948Y-71613948D01*
X55474517Y-71720170D01*
X55380712Y-71770309D01*
X55326855Y-71799097D01*
X55257088Y-71820260D01*
X55166627Y-71847701D01*
X55041757Y-71860000D01*
X54958243Y-71860000D01*
X54833373Y-71847701D01*
X54742912Y-71820260D01*
X54673145Y-71799097D01*
X54619288Y-71770309D01*
X54525483Y-71720170D01*
X54396052Y-71613948D01*
X54289830Y-71484517D01*
X54239691Y-71390712D01*
X54210903Y-71336855D01*
X54162300Y-71176629D01*
X54162299Y-71176627D01*
X54145887Y-71010000D01*
X54162299Y-70843373D01*
X54210903Y-70683146D01*
X54210903Y-70683145D01*
X54258699Y-70593726D01*
X54289830Y-70535483D01*
X54396052Y-70406052D01*
X54525483Y-70299830D01*
X54619288Y-70249691D01*
X54673145Y-70220903D01*
X54742912Y-70199740D01*
X54833373Y-70172299D01*
X54958243Y-70160000D01*
X55041757Y-70160000D01*
X55166627Y-70172299D01*
X55166627Y-70172299D01*
G37*
G36*
X74123039Y-69360760D02*
X74204185Y-69376901D01*
X74331574Y-69429668D01*
X74446224Y-69506274D01*
X74543726Y-69603776D01*
X74543727Y-69603778D01*
X74620332Y-69718426D01*
X74673099Y-69845815D01*
X74700000Y-69981058D01*
X74700000Y-70118942D01*
X74673099Y-70254185D01*
X74620332Y-70381574D01*
X74543726Y-70496224D01*
X74446224Y-70593726D01*
X74331574Y-70670332D01*
X74204185Y-70723099D01*
X74123039Y-70739240D01*
X74068944Y-70750000D01*
X73931056Y-70750000D01*
X73876961Y-70739240D01*
X73795815Y-70723099D01*
X73668426Y-70670332D01*
X73553776Y-70593726D01*
X73456274Y-70496224D01*
X73379668Y-70381574D01*
X73326901Y-70254185D01*
X73300000Y-70118942D01*
X73300000Y-69981058D01*
X73326901Y-69845815D01*
X73379668Y-69718426D01*
X73456273Y-69603778D01*
X73456274Y-69603776D01*
X73553776Y-69506274D01*
X73668426Y-69429668D01*
X73795815Y-69376901D01*
X73876961Y-69360760D01*
X73931056Y-69350000D01*
X74068944Y-69350000D01*
X74123039Y-69360760D01*
X74123039Y-69360760D01*
G37*
G36*
X72123039Y-69360760D02*
X72204185Y-69376901D01*
X72331574Y-69429668D01*
X72446224Y-69506274D01*
X72543726Y-69603776D01*
X72543727Y-69603778D01*
X72620332Y-69718426D01*
X72673099Y-69845815D01*
X72700000Y-69981058D01*
X72700000Y-70118942D01*
X72673099Y-70254185D01*
X72620332Y-70381574D01*
X72543726Y-70496224D01*
X72446224Y-70593726D01*
X72331574Y-70670332D01*
X72204185Y-70723099D01*
X72123039Y-70739240D01*
X72068944Y-70750000D01*
X71931056Y-70750000D01*
X71876961Y-70739240D01*
X71795815Y-70723099D01*
X71668426Y-70670332D01*
X71553776Y-70593726D01*
X71456274Y-70496224D01*
X71379668Y-70381574D01*
X71326901Y-70254185D01*
X71300000Y-70118942D01*
X71300000Y-69981058D01*
X71326901Y-69845815D01*
X71379668Y-69718426D01*
X71456273Y-69603778D01*
X71456274Y-69603776D01*
X71553776Y-69506274D01*
X71668426Y-69429668D01*
X71795815Y-69376901D01*
X71876961Y-69360760D01*
X71931056Y-69350000D01*
X72068944Y-69350000D01*
X72123039Y-69360760D01*
X72123039Y-69360760D01*
G37*
G36*
X55166627Y-67632299D02*
X55257088Y-67659740D01*
X55326855Y-67680903D01*
X55380712Y-67709691D01*
X55474517Y-67759830D01*
X55603948Y-67866052D01*
X55710170Y-67995483D01*
X55760309Y-68089288D01*
X55789097Y-68143145D01*
X55789097Y-68143146D01*
X55837701Y-68303373D01*
X55854113Y-68470000D01*
X55837701Y-68636627D01*
X55837700Y-68636629D01*
X55789097Y-68796855D01*
X55760309Y-68850712D01*
X55710170Y-68944517D01*
X55603948Y-69073948D01*
X55474517Y-69180170D01*
X55380712Y-69230309D01*
X55326855Y-69259097D01*
X55257088Y-69280260D01*
X55166627Y-69307701D01*
X55041757Y-69320000D01*
X54958243Y-69320000D01*
X54833373Y-69307701D01*
X54742912Y-69280260D01*
X54673145Y-69259097D01*
X54619288Y-69230309D01*
X54525483Y-69180170D01*
X54396052Y-69073948D01*
X54289830Y-68944517D01*
X54239691Y-68850712D01*
X54210903Y-68796855D01*
X54162300Y-68636629D01*
X54162299Y-68636627D01*
X54145887Y-68470000D01*
X54162299Y-68303373D01*
X54210903Y-68143146D01*
X54210903Y-68143145D01*
X54239691Y-68089288D01*
X54289830Y-67995483D01*
X54396052Y-67866052D01*
X54525483Y-67759830D01*
X54619288Y-67709691D01*
X54673145Y-67680903D01*
X54742912Y-67659740D01*
X54833373Y-67632299D01*
X54958243Y-67620000D01*
X55041757Y-67620000D01*
X55166627Y-67632299D01*
X55166627Y-67632299D01*
G37*
G36*
X74123039Y-66860760D02*
X74204185Y-66876901D01*
X74331574Y-66929668D01*
X74446224Y-67006274D01*
X74543726Y-67103776D01*
X74543727Y-67103778D01*
X74620332Y-67218426D01*
X74673099Y-67345815D01*
X74700000Y-67481058D01*
X74700000Y-67618942D01*
X74673099Y-67754185D01*
X74620332Y-67881574D01*
X74543726Y-67996224D01*
X74446224Y-68093726D01*
X74372261Y-68143146D01*
X74331574Y-68170332D01*
X74204185Y-68223099D01*
X74123039Y-68239240D01*
X74068944Y-68250000D01*
X73931056Y-68250000D01*
X73876961Y-68239240D01*
X73795815Y-68223099D01*
X73668426Y-68170332D01*
X73627739Y-68143146D01*
X73553776Y-68093726D01*
X73456274Y-67996224D01*
X73379668Y-67881574D01*
X73326901Y-67754185D01*
X73300000Y-67618942D01*
X73300000Y-67481058D01*
X73326901Y-67345815D01*
X73379668Y-67218426D01*
X73456273Y-67103778D01*
X73456274Y-67103776D01*
X73553776Y-67006274D01*
X73668426Y-66929668D01*
X73795815Y-66876901D01*
X73876961Y-66860760D01*
X73931056Y-66850000D01*
X74068944Y-66850000D01*
X74123039Y-66860760D01*
X74123039Y-66860760D01*
G37*
G36*
X72123039Y-66860760D02*
X72204185Y-66876901D01*
X72331574Y-66929668D01*
X72446224Y-67006274D01*
X72543726Y-67103776D01*
X72543727Y-67103778D01*
X72620332Y-67218426D01*
X72673099Y-67345815D01*
X72700000Y-67481058D01*
X72700000Y-67618942D01*
X72673099Y-67754185D01*
X72620332Y-67881574D01*
X72543726Y-67996224D01*
X72446224Y-68093726D01*
X72372261Y-68143146D01*
X72331574Y-68170332D01*
X72204185Y-68223099D01*
X72123039Y-68239240D01*
X72068944Y-68250000D01*
X71931056Y-68250000D01*
X71876961Y-68239240D01*
X71795815Y-68223099D01*
X71668426Y-68170332D01*
X71627739Y-68143146D01*
X71553776Y-68093726D01*
X71456274Y-67996224D01*
X71379668Y-67881574D01*
X71326901Y-67754185D01*
X71300000Y-67618942D01*
X71300000Y-67481058D01*
X71326901Y-67345815D01*
X71379668Y-67218426D01*
X71456273Y-67103778D01*
X71456274Y-67103776D01*
X71553776Y-67006274D01*
X71668426Y-66929668D01*
X71795815Y-66876901D01*
X71876961Y-66860760D01*
X71931056Y-66850000D01*
X72068944Y-66850000D01*
X72123039Y-66860760D01*
X72123039Y-66860760D01*
G37*
G36*
X55166627Y-65092299D02*
X55254458Y-65118942D01*
X55326855Y-65140903D01*
X55380712Y-65169691D01*
X55474517Y-65219830D01*
X55603948Y-65326052D01*
X55710170Y-65455483D01*
X55731945Y-65496222D01*
X55789097Y-65603145D01*
X55789097Y-65603146D01*
X55837701Y-65763373D01*
X55854113Y-65930000D01*
X55837701Y-66096627D01*
X55837700Y-66096629D01*
X55789097Y-66256855D01*
X55760309Y-66310712D01*
X55710170Y-66404517D01*
X55603948Y-66533948D01*
X55474517Y-66640170D01*
X55380712Y-66690309D01*
X55326855Y-66719097D01*
X55257088Y-66740260D01*
X55166627Y-66767701D01*
X55041757Y-66780000D01*
X54958243Y-66780000D01*
X54833373Y-66767701D01*
X54742912Y-66740260D01*
X54673145Y-66719097D01*
X54619288Y-66690309D01*
X54525483Y-66640170D01*
X54396052Y-66533948D01*
X54289830Y-66404517D01*
X54239691Y-66310712D01*
X54210903Y-66256855D01*
X54162300Y-66096629D01*
X54162299Y-66096627D01*
X54145887Y-65930000D01*
X54162299Y-65763373D01*
X54210903Y-65603146D01*
X54210903Y-65603145D01*
X54268055Y-65496222D01*
X54289830Y-65455483D01*
X54396052Y-65326052D01*
X54525483Y-65219830D01*
X54619288Y-65169691D01*
X54673145Y-65140903D01*
X54745542Y-65118942D01*
X54833373Y-65092299D01*
X54958243Y-65080000D01*
X55041757Y-65080000D01*
X55166627Y-65092299D01*
X55166627Y-65092299D01*
G37*
G36*
X72700000Y-65750000D02*
X71300000Y-65750000D01*
X71300000Y-64350000D01*
X72700000Y-64350000D01*
X72700000Y-65750000D01*
X72700000Y-65750000D01*
G37*
G36*
X74123039Y-64360760D02*
X74204185Y-64376901D01*
X74331574Y-64429668D01*
X74446224Y-64506274D01*
X74543726Y-64603776D01*
X74543727Y-64603778D01*
X74620332Y-64718426D01*
X74673099Y-64845815D01*
X74700000Y-64981058D01*
X74700000Y-65118942D01*
X74673099Y-65254185D01*
X74643330Y-65326052D01*
X74620332Y-65381574D01*
X74543726Y-65496224D01*
X74446224Y-65593726D01*
X74331574Y-65670332D01*
X74204185Y-65723099D01*
X74123039Y-65739240D01*
X74068944Y-65750000D01*
X73931056Y-65750000D01*
X73876961Y-65739240D01*
X73795815Y-65723099D01*
X73668426Y-65670332D01*
X73553776Y-65593726D01*
X73456274Y-65496224D01*
X73379668Y-65381574D01*
X73356670Y-65326052D01*
X73326901Y-65254185D01*
X73300000Y-65118942D01*
X73300000Y-64981058D01*
X73326901Y-64845815D01*
X73379668Y-64718426D01*
X73456273Y-64603778D01*
X73456274Y-64603776D01*
X73553776Y-64506274D01*
X73668426Y-64429668D01*
X73795815Y-64376901D01*
X73876961Y-64360760D01*
X73931056Y-64350000D01*
X74068944Y-64350000D01*
X74123039Y-64360760D01*
X74123039Y-64360760D01*
G37*
G36*
X55166627Y-62552299D02*
X55252500Y-62578348D01*
X55326855Y-62600903D01*
X55380712Y-62629691D01*
X55474517Y-62679830D01*
X55603948Y-62786052D01*
X55710170Y-62915483D01*
X55760309Y-63009288D01*
X55789097Y-63063145D01*
X55789097Y-63063146D01*
X55837701Y-63223373D01*
X55854113Y-63390000D01*
X55837701Y-63556627D01*
X55837700Y-63556629D01*
X55789097Y-63716855D01*
X55760309Y-63770712D01*
X55710170Y-63864517D01*
X55603948Y-63993948D01*
X55474517Y-64100170D01*
X55380712Y-64150309D01*
X55326855Y-64179097D01*
X55257088Y-64200260D01*
X55166627Y-64227701D01*
X55041757Y-64240000D01*
X54958243Y-64240000D01*
X54833373Y-64227701D01*
X54742912Y-64200260D01*
X54673145Y-64179097D01*
X54619288Y-64150309D01*
X54525483Y-64100170D01*
X54396052Y-63993948D01*
X54289830Y-63864517D01*
X54239691Y-63770712D01*
X54210903Y-63716855D01*
X54162300Y-63556629D01*
X54162299Y-63556627D01*
X54145887Y-63390000D01*
X54162299Y-63223373D01*
X54210903Y-63063146D01*
X54210903Y-63063145D01*
X54239691Y-63009288D01*
X54289830Y-62915483D01*
X54396052Y-62786052D01*
X54525483Y-62679830D01*
X54619288Y-62629691D01*
X54673145Y-62600903D01*
X54747500Y-62578348D01*
X54833373Y-62552299D01*
X54958243Y-62540000D01*
X55041757Y-62540000D01*
X55166627Y-62552299D01*
X55166627Y-62552299D01*
G37*
G36*
X77696031Y-60664468D02*
X77834552Y-60706489D01*
X77884535Y-60721651D01*
X77884537Y-60721652D01*
X78058258Y-60814507D01*
X78210528Y-60939472D01*
X78335493Y-61091742D01*
X78428348Y-61265463D01*
X78485532Y-61453969D01*
X78504839Y-61650000D01*
X78485532Y-61846031D01*
X78428348Y-62034537D01*
X78335493Y-62208258D01*
X78210528Y-62360528D01*
X78058258Y-62485493D01*
X77884537Y-62578348D01*
X77884535Y-62578349D01*
X77834552Y-62593511D01*
X77696031Y-62635532D01*
X77549129Y-62650000D01*
X76450871Y-62650000D01*
X76303969Y-62635532D01*
X76165448Y-62593511D01*
X76115465Y-62578349D01*
X76115463Y-62578348D01*
X75941742Y-62485493D01*
X75789472Y-62360528D01*
X75664507Y-62208258D01*
X75571652Y-62034537D01*
X75514468Y-61846031D01*
X75495161Y-61650000D01*
X75514468Y-61453969D01*
X75571652Y-61265463D01*
X75664507Y-61091742D01*
X75789472Y-60939472D01*
X75941742Y-60814507D01*
X76115463Y-60721652D01*
X76115465Y-60721651D01*
X76165448Y-60706489D01*
X76303969Y-60664468D01*
X76450871Y-60650000D01*
X77549129Y-60650000D01*
X77696031Y-60664468D01*
X77696031Y-60664468D01*
G37*
G36*
X55850000Y-61700000D02*
X54150000Y-61700000D01*
X54150000Y-60000000D01*
X55850000Y-60000000D01*
X55850000Y-61700000D01*
X55850000Y-61700000D01*
G37*
G36*
X55466703Y-53461487D02*
X55466705Y-53461488D01*
X55466706Y-53461488D01*
X55757884Y-53582098D01*
X56019939Y-53757197D01*
X56242803Y-53980061D01*
X56417902Y-54242116D01*
X56538512Y-54533294D01*
X56600000Y-54842416D01*
X56600000Y-55157584D01*
X56538512Y-55466706D01*
X56417902Y-55757884D01*
X56242803Y-56019939D01*
X56019939Y-56242803D01*
X55757884Y-56417902D01*
X55466706Y-56538512D01*
X55466705Y-56538512D01*
X55466703Y-56538513D01*
X55157586Y-56600000D01*
X54842414Y-56600000D01*
X54533297Y-56538513D01*
X54533295Y-56538512D01*
X54533294Y-56538512D01*
X54242116Y-56417902D01*
X53980061Y-56242803D01*
X53757197Y-56019939D01*
X53582098Y-55757884D01*
X53461488Y-55466706D01*
X53400000Y-55157584D01*
X53400000Y-54842416D01*
X53461488Y-54533294D01*
X53582098Y-54242116D01*
X53757197Y-53980061D01*
X53980061Y-53757197D01*
X54242116Y-53582098D01*
X54533294Y-53461488D01*
X54533295Y-53461488D01*
X54533297Y-53461487D01*
X54842414Y-53400000D01*
X55157586Y-53400000D01*
X55466703Y-53461487D01*
X55466703Y-53461487D01*
G37*
G36*
X75466703Y-53461487D02*
X75466705Y-53461488D01*
X75466706Y-53461488D01*
X75757884Y-53582098D01*
X76019939Y-53757197D01*
X76242803Y-53980061D01*
X76417902Y-54242116D01*
X76538512Y-54533294D01*
X76600000Y-54842416D01*
X76600000Y-55157584D01*
X76538512Y-55466706D01*
X76417902Y-55757884D01*
X76242803Y-56019939D01*
X76019939Y-56242803D01*
X75757884Y-56417902D01*
X75466706Y-56538512D01*
X75466705Y-56538512D01*
X75466703Y-56538513D01*
X75157586Y-56600000D01*
X74842414Y-56600000D01*
X74533297Y-56538513D01*
X74533295Y-56538512D01*
X74533294Y-56538512D01*
X74242116Y-56417902D01*
X73980061Y-56242803D01*
X73757197Y-56019939D01*
X73582098Y-55757884D01*
X73461488Y-55466706D01*
X73400000Y-55157584D01*
X73400000Y-54842416D01*
X73461488Y-54533294D01*
X73582098Y-54242116D01*
X73757197Y-53980061D01*
X73980061Y-53757197D01*
X74242116Y-53582098D01*
X74533294Y-53461488D01*
X74533295Y-53461488D01*
X74533297Y-53461487D01*
X74842414Y-53400000D01*
X75157586Y-53400000D01*
X75466703Y-53461487D01*
X75466703Y-53461487D01*
G37*
M02*
