G04 #@! TF.GenerationSoftware,KiCad,Pcbnew,5.0.2-bee76a0~70~ubuntu18.10.1*
G04 #@! TF.CreationDate,2019-01-06T00:10:33+02:00*
G04 #@! TF.ProjectId,GB-BRK-LINK-A,47422d42-524b-42d4-9c49-4e4b2d412e6b,v1.0*
G04 #@! TF.SameCoordinates,Original*
G04 #@! TF.FileFunction,Copper,L1,Top*
G04 #@! TF.FilePolarity,Positive*
%FSLAX46Y46*%
G04 Gerber Fmt 4.6, Leading zero omitted, Abs format (unit mm)*
G04 Created by KiCad (PCBNEW 5.0.2-bee76a0~70~ubuntu18.10.1) date su  6. tammikuuta 2019 00.10.33*
%MOMM*%
%LPD*%
G01*
G04 APERTURE LIST*
G04 #@! TA.AperFunction,NonConductor*
%ADD10C,0.150000*%
G04 #@! TD*
G04 #@! TA.AperFunction,ComponentPad*
%ADD11R,1.700000X1.700000*%
G04 #@! TD*
G04 #@! TA.AperFunction,ComponentPad*
%ADD12O,1.700000X1.700000*%
G04 #@! TD*
G04 #@! TA.AperFunction,ComponentPad*
%ADD13O,3.000000X2.000000*%
G04 #@! TD*
G04 #@! TA.AperFunction,ComponentPad*
%ADD14R,1.400000X1.400000*%
G04 #@! TD*
G04 #@! TA.AperFunction,ComponentPad*
%ADD15C,1.400000*%
G04 #@! TD*
G04 #@! TA.AperFunction,Conductor*
%ADD16C,0.800000*%
G04 #@! TD*
G04 #@! TA.AperFunction,Conductor*
%ADD17C,0.300000*%
G04 #@! TD*
G04 APERTURE END LIST*
D10*
X52000000Y-85000000D02*
G75*
G02X50000000Y-83000000I0J2000000D01*
G01*
X80000000Y-83000000D02*
G75*
G02X78000000Y-85000000I-2000000J0D01*
G01*
X78000000Y-50000000D02*
G75*
G02X80000000Y-52000000I0J-2000000D01*
G01*
X50000000Y-52000000D02*
G75*
G02X52000000Y-50000000I2000000J0D01*
G01*
X52000000Y-85000000D02*
X78000000Y-85000000D01*
X80000000Y-52000000D02*
X80000000Y-83000000D01*
X52000000Y-50000000D02*
X78000000Y-50000000D01*
X50000000Y-52000000D02*
X50000000Y-83000000D01*
D11*
G04 #@! TO.P,J1,1*
G04 #@! TO.N,Net-(J1-Pad1)*
X55000000Y-60850000D03*
D12*
G04 #@! TO.P,J1,2*
G04 #@! TO.N,Net-(J1-Pad2)*
X55000000Y-63390000D03*
G04 #@! TO.P,J1,3*
G04 #@! TO.N,Net-(J1-Pad3)*
X55000000Y-65930000D03*
G04 #@! TO.P,J1,4*
G04 #@! TO.N,Net-(J1-Pad4)*
X55000000Y-68470000D03*
G04 #@! TO.P,J1,5*
G04 #@! TO.N,Net-(J1-Pad5)*
X55000000Y-71010000D03*
G04 #@! TO.P,J1,6*
G04 #@! TO.N,/GND*
X55000000Y-73550000D03*
G04 #@! TD*
D13*
G04 #@! TO.P,J2,SH*
G04 #@! TO.N,/GND*
X77000000Y-61650000D03*
X77000000Y-73450000D03*
D14*
G04 #@! TO.P,J2,1*
G04 #@! TO.N,Net-(J1-Pad1)*
X72000000Y-65050000D03*
D15*
G04 #@! TO.P,J2,2*
G04 #@! TO.N,Net-(J1-Pad2)*
X74000000Y-65050000D03*
G04 #@! TO.P,J2,3*
G04 #@! TO.N,Net-(J1-Pad3)*
X72000000Y-67550000D03*
G04 #@! TO.P,J2,4*
G04 #@! TO.N,Net-(J1-Pad4)*
X74000000Y-67550000D03*
G04 #@! TO.P,J2,5*
G04 #@! TO.N,Net-(J1-Pad5)*
X72000000Y-70050000D03*
G04 #@! TO.P,J2,6*
G04 #@! TO.N,/GND*
X74000000Y-70050000D03*
G04 #@! TD*
D16*
G04 #@! TO.N,Net-(J1-Pad1)*
X59200000Y-65050000D02*
X55000000Y-60850000D01*
X72000000Y-65050000D02*
X59200000Y-65050000D01*
D17*
G04 #@! TO.N,Net-(J1-Pad2)*
X58010000Y-66400000D02*
X55849999Y-64239999D01*
X72860002Y-66400000D02*
X58010000Y-66400000D01*
X74000000Y-65050000D02*
X74000000Y-65260002D01*
X55849999Y-64239999D02*
X55000000Y-63390000D01*
X74000000Y-65260002D02*
X72860002Y-66400000D01*
G04 #@! TO.N,Net-(J1-Pad3)*
X56620000Y-67550000D02*
X55000000Y-65930000D01*
X72000000Y-67550000D02*
X56620000Y-67550000D01*
G04 #@! TO.N,Net-(J1-Pad4)*
X56202081Y-68470000D02*
X55000000Y-68470000D01*
X56582081Y-68850000D02*
X56202081Y-68470000D01*
X72402002Y-68850000D02*
X56582081Y-68850000D01*
X74000000Y-67550000D02*
X73702002Y-67550000D01*
X73702002Y-67550000D02*
X72402002Y-68850000D01*
G04 #@! TO.N,Net-(J1-Pad5)*
X55960000Y-70050000D02*
X55000000Y-71010000D01*
X72000000Y-70050000D02*
X55960000Y-70050000D01*
D16*
G04 #@! TO.N,/GND*
X71300000Y-73550000D02*
X55000000Y-73550000D01*
X74000000Y-70050000D02*
X74000000Y-70850000D01*
X74000000Y-70850000D02*
X71300000Y-73550000D01*
G04 #@! TD*
M02*
