G04 #@! TF.GenerationSoftware,KiCad,Pcbnew,5.0.2-bee76a0~70~ubuntu18.10.1*
G04 #@! TF.CreationDate,2019-01-06T00:11:33+02:00*
G04 #@! TF.ProjectId,GB-LIVE32,47422d4c-4956-4453-9332-2e6b69636164,v2.0*
G04 #@! TF.SameCoordinates,Original*
G04 #@! TF.FileFunction,Soldermask,Bot*
G04 #@! TF.FilePolarity,Negative*
%FSLAX46Y46*%
G04 Gerber Fmt 4.6, Leading zero omitted, Abs format (unit mm)*
G04 Created by KiCad (PCBNEW 5.0.2-bee76a0~70~ubuntu18.10.1) date su  6. tammikuuta 2019 00.11.33*
%MOMM*%
%LPD*%
G01*
G04 APERTURE LIST*
%ADD10C,0.150000*%
%ADD11C,0.100000*%
G04 APERTURE END LIST*
D10*
X121700000Y-41600000D02*
X125700000Y-41600000D01*
X121700000Y-39000000D02*
X121700000Y-41600000D01*
X125700000Y-41600000D02*
X125700000Y-91400000D01*
X74300000Y-39000000D02*
X121700000Y-39000000D01*
X74300000Y-91400000D02*
X74300000Y-39000000D01*
X124600000Y-91400000D02*
X125700000Y-91400000D01*
X75400000Y-91400000D02*
X74300000Y-91400000D01*
X124600000Y-91400000D02*
X124600000Y-100000000D01*
X75400000Y-100000000D02*
X124600000Y-100000000D01*
X75400000Y-91400000D02*
X75400000Y-100000000D01*
D11*
G36*
X101050081Y-81188346D02*
X101050083Y-81188347D01*
X101050084Y-81188347D01*
X101292095Y-81288591D01*
X101705240Y-81459721D01*
X102294866Y-81853697D01*
X102796303Y-82355134D01*
X103190279Y-82944760D01*
X103461654Y-83599919D01*
X103600000Y-84295431D01*
X103600000Y-85004569D01*
X103461654Y-85700081D01*
X103190279Y-86355240D01*
X102796303Y-86944866D01*
X102294866Y-87446303D01*
X101705240Y-87840279D01*
X101292095Y-88011409D01*
X101050084Y-88111653D01*
X101050083Y-88111653D01*
X101050081Y-88111654D01*
X100354569Y-88250000D01*
X99645431Y-88250000D01*
X98949919Y-88111654D01*
X98949917Y-88111653D01*
X98949916Y-88111653D01*
X98707905Y-88011409D01*
X98294760Y-87840279D01*
X97705134Y-87446303D01*
X97203697Y-86944866D01*
X96809721Y-86355240D01*
X96538346Y-85700081D01*
X96400000Y-85004569D01*
X96400000Y-84295431D01*
X96538346Y-83599919D01*
X96809721Y-82944760D01*
X97203697Y-82355134D01*
X97705134Y-81853697D01*
X98294760Y-81459721D01*
X98707905Y-81288591D01*
X98949916Y-81188347D01*
X98949917Y-81188347D01*
X98949919Y-81188346D01*
X99645431Y-81050000D01*
X100354569Y-81050000D01*
X101050081Y-81188346D01*
X101050081Y-81188346D01*
G37*
G36*
X100335443Y-58544194D02*
X100544729Y-58630884D01*
X100733082Y-58756737D01*
X100893263Y-58916918D01*
X101019116Y-59105271D01*
X101105806Y-59314557D01*
X101150000Y-59536735D01*
X101150000Y-59763265D01*
X101105806Y-59985443D01*
X101019116Y-60194729D01*
X100893263Y-60383082D01*
X100733082Y-60543263D01*
X100544729Y-60669116D01*
X100335443Y-60755806D01*
X100113265Y-60800000D01*
X99886735Y-60800000D01*
X99664557Y-60755806D01*
X99455271Y-60669116D01*
X99266918Y-60543263D01*
X99106737Y-60383082D01*
X98980884Y-60194729D01*
X98894194Y-59985443D01*
X98850000Y-59763265D01*
X98850000Y-59536735D01*
X98894194Y-59314557D01*
X98980884Y-59105271D01*
X99106737Y-58916918D01*
X99266918Y-58756737D01*
X99455271Y-58630884D01*
X99664557Y-58544194D01*
X99886735Y-58500000D01*
X100113265Y-58500000D01*
X100335443Y-58544194D01*
X100335443Y-58544194D01*
G37*
M02*
