G04 #@! TF.GenerationSoftware,KiCad,Pcbnew,5.1.6-c6e7f7d~86~ubuntu20.04.1*
G04 #@! TF.CreationDate,2020-05-17T16:09:38+03:00*
G04 #@! TF.ProjectId,GB-LIVE32,47422d4c-4956-4453-9332-2e6b69636164,v2.0*
G04 #@! TF.SameCoordinates,Original*
G04 #@! TF.FileFunction,Copper,L2,Inr*
G04 #@! TF.FilePolarity,Positive*
%FSLAX46Y46*%
G04 Gerber Fmt 4.6, Leading zero omitted, Abs format (unit mm)*
G04 Created by KiCad (PCBNEW 5.1.6-c6e7f7d~86~ubuntu20.04.1) date 2020-05-17 16:09:38*
%MOMM*%
%LPD*%
G01*
G04 APERTURE LIST*
G04 #@! TA.AperFunction,Profile*
%ADD10C,0.150000*%
G04 #@! TD*
G04 #@! TA.AperFunction,ViaPad*
%ADD11C,0.600000*%
G04 #@! TD*
G04 #@! TA.AperFunction,Conductor*
%ADD12C,0.254000*%
G04 #@! TD*
G04 APERTURE END LIST*
D10*
X121700000Y-41600000D02*
X125700000Y-41600000D01*
X121700000Y-39000000D02*
X121700000Y-41600000D01*
X125700000Y-41600000D02*
X125700000Y-91400000D01*
X74300000Y-39000000D02*
X121700000Y-39000000D01*
X74300000Y-91400000D02*
X74300000Y-39000000D01*
X124600000Y-91400000D02*
X125700000Y-91400000D01*
X75400000Y-91400000D02*
X74300000Y-91400000D01*
X124600000Y-91400000D02*
X124600000Y-100000000D01*
X75400000Y-100000000D02*
X124600000Y-100000000D01*
X75400000Y-91400000D02*
X75400000Y-100000000D01*
D11*
X84500000Y-48000000D03*
X92400000Y-48000000D03*
X93100000Y-39900000D03*
X92800000Y-86700000D03*
X120300000Y-86600000D03*
X123400000Y-90400000D03*
X78700000Y-88800000D03*
X81900000Y-89000000D03*
X90200000Y-81100000D03*
X84200000Y-81100000D03*
X110100000Y-89400000D03*
X110200000Y-81400000D03*
X110900000Y-81400000D03*
X86600000Y-46700000D03*
X81800000Y-43100000D03*
X81800000Y-44600000D03*
X96900000Y-40300000D03*
X107100000Y-44000000D03*
X122500000Y-82100000D03*
X120300000Y-80900000D03*
X105500000Y-75400000D03*
X107400000Y-89400000D03*
X107300000Y-82800000D03*
X103000000Y-69600000D03*
X97000000Y-72400000D03*
X97100000Y-58500000D03*
X79300000Y-59300000D03*
X92200000Y-73900000D03*
X114900000Y-50600000D03*
X110600000Y-44500000D03*
X113383309Y-64983309D03*
X97600000Y-53200000D03*
X96100000Y-48200000D03*
X94800000Y-42300000D03*
X83300000Y-46000000D03*
X78500000Y-48200000D03*
X84100000Y-50000000D03*
X120200000Y-52700000D03*
X87100000Y-52100000D03*
X124300000Y-52700000D03*
X92800000Y-88300000D03*
X78700000Y-85000000D03*
X107100000Y-42300000D03*
X122500000Y-83700000D03*
X120200000Y-82500000D03*
X105500000Y-77000000D03*
X107400000Y-87800000D03*
X97100000Y-60100000D03*
X79300000Y-60900000D03*
X92200000Y-72200000D03*
X114900000Y-52200000D03*
X115000000Y-44500000D03*
X119400000Y-44600000D03*
X92600000Y-77300000D03*
X122000000Y-68700000D03*
X95900000Y-53200000D03*
X120200000Y-51200000D03*
X87100000Y-50500000D03*
X80200000Y-40500000D03*
X93500000Y-46000000D03*
X76600000Y-90400004D03*
X120300000Y-88200000D03*
X116800000Y-79600000D03*
X92100000Y-57300000D03*
X103600000Y-47200000D03*
X110700000Y-79600000D03*
X93700000Y-65400000D03*
X95800000Y-69900000D03*
X101700000Y-52000000D03*
X102400000Y-47100000D03*
X98000000Y-60940000D03*
X122400002Y-63900000D03*
X99300000Y-52000000D03*
X99700000Y-48700000D03*
X113900000Y-55800006D03*
X118300000Y-56900000D03*
X100500000Y-52000000D03*
X101000000Y-48700000D03*
X78900000Y-55900000D03*
X114200000Y-72900000D03*
X78500000Y-56700000D03*
X114900000Y-72200000D03*
X78900000Y-57600000D03*
X115700000Y-71200000D03*
X78500000Y-58600000D03*
X116300000Y-69300000D03*
X83900000Y-60600000D03*
X90900000Y-51400000D03*
X84600000Y-61200000D03*
X91900000Y-51400000D03*
X84600000Y-62200000D03*
X92900000Y-51400000D03*
X84700000Y-63100000D03*
X93900000Y-51400000D03*
X90400000Y-57600000D03*
X103799994Y-55300000D03*
X104200000Y-78600000D03*
X88500000Y-78600000D03*
X104800000Y-79400000D03*
X89300006Y-79400000D03*
X105700000Y-80200000D03*
X90099992Y-80200000D03*
X96000000Y-68900000D03*
X106199978Y-64800000D03*
X97100000Y-68400000D03*
X104599978Y-66000000D03*
X117000000Y-65100000D03*
X109200000Y-68500000D03*
X98900000Y-67300000D03*
X102900006Y-66700000D03*
X100125000Y-65500000D03*
X102800000Y-64300000D03*
X101100000Y-66300000D03*
X104200000Y-64199994D03*
X112300000Y-56900000D03*
X110100000Y-56500000D03*
X111000000Y-65000000D03*
X90800000Y-62200000D03*
X111800000Y-64300010D03*
X90000004Y-61700000D03*
X113000000Y-64200000D03*
X89200000Y-61100000D03*
X114400000Y-64900000D03*
X88400000Y-60500000D03*
X83100000Y-86000000D03*
X108700000Y-82800000D03*
X107300000Y-86800000D03*
X116900000Y-89400000D03*
X120200000Y-49700000D03*
X106700000Y-51900000D03*
X101500000Y-55200000D03*
X99400001Y-55200000D03*
X86900000Y-59700000D03*
X120200000Y-54200000D03*
X106699992Y-52900000D03*
X105100000Y-52900000D03*
X86800000Y-61000000D03*
X120200000Y-55700000D03*
X105000000Y-54100000D03*
X106700008Y-54100000D03*
D12*
G36*
X79603972Y-39773738D02*
G01*
X79473738Y-39903972D01*
X79371414Y-40057111D01*
X79300932Y-40227271D01*
X79265000Y-40407911D01*
X79265000Y-40592089D01*
X79300932Y-40772729D01*
X79371414Y-40942889D01*
X79473738Y-41096028D01*
X79603972Y-41226262D01*
X79757111Y-41328586D01*
X79927271Y-41399068D01*
X80107911Y-41435000D01*
X80292089Y-41435000D01*
X80472729Y-41399068D01*
X80642889Y-41328586D01*
X80796028Y-41226262D01*
X80926262Y-41096028D01*
X81028586Y-40942889D01*
X81099068Y-40772729D01*
X81135000Y-40592089D01*
X81135000Y-40407911D01*
X81099068Y-40227271D01*
X81028586Y-40057111D01*
X80926262Y-39903972D01*
X80796028Y-39773738D01*
X80700637Y-39710000D01*
X120990000Y-39710000D01*
X120990001Y-41565113D01*
X120986565Y-41600000D01*
X121000273Y-41739184D01*
X121040872Y-41873020D01*
X121106800Y-41996363D01*
X121195525Y-42104475D01*
X121303637Y-42193200D01*
X121426980Y-42259128D01*
X121560816Y-42299727D01*
X121665123Y-42310000D01*
X121700000Y-42313435D01*
X121734877Y-42310000D01*
X124990000Y-42310000D01*
X124990001Y-90690000D01*
X124634877Y-90690000D01*
X124600000Y-90686565D01*
X124565123Y-90690000D01*
X124460816Y-90700273D01*
X124326980Y-90740872D01*
X124203637Y-90806800D01*
X124095525Y-90895525D01*
X124006800Y-91003637D01*
X123940872Y-91126980D01*
X123900273Y-91260816D01*
X123886565Y-91400000D01*
X123890000Y-91434876D01*
X123890000Y-92373000D01*
X76110000Y-92373000D01*
X76110000Y-91434876D01*
X76113435Y-91400000D01*
X76099727Y-91260816D01*
X76072878Y-91172307D01*
X76157111Y-91228590D01*
X76327271Y-91299072D01*
X76507911Y-91335004D01*
X76692089Y-91335004D01*
X76872729Y-91299072D01*
X77042889Y-91228590D01*
X77196028Y-91126266D01*
X77326262Y-90996032D01*
X77428586Y-90842893D01*
X77499068Y-90672733D01*
X77535000Y-90492093D01*
X77535000Y-90307915D01*
X77499068Y-90127275D01*
X77428586Y-89957115D01*
X77326262Y-89803976D01*
X77196028Y-89673742D01*
X77042889Y-89571418D01*
X76872729Y-89500936D01*
X76692089Y-89465004D01*
X76507911Y-89465004D01*
X76327271Y-89500936D01*
X76157111Y-89571418D01*
X76003972Y-89673742D01*
X75873738Y-89803976D01*
X75771414Y-89957115D01*
X75700932Y-90127275D01*
X75665000Y-90307915D01*
X75665000Y-90492093D01*
X75700932Y-90672733D01*
X75745118Y-90779409D01*
X75673020Y-90740872D01*
X75539184Y-90700273D01*
X75434877Y-90690000D01*
X75400000Y-90686565D01*
X75365123Y-90690000D01*
X75010000Y-90690000D01*
X75010000Y-89307911D01*
X115965000Y-89307911D01*
X115965000Y-89492089D01*
X116000932Y-89672729D01*
X116071414Y-89842889D01*
X116173738Y-89996028D01*
X116303972Y-90126262D01*
X116457111Y-90228586D01*
X116627271Y-90299068D01*
X116807911Y-90335000D01*
X116992089Y-90335000D01*
X117172729Y-90299068D01*
X117342889Y-90228586D01*
X117496028Y-90126262D01*
X117626262Y-89996028D01*
X117728586Y-89842889D01*
X117799068Y-89672729D01*
X117835000Y-89492089D01*
X117835000Y-89307911D01*
X117799068Y-89127271D01*
X117728586Y-88957111D01*
X117626262Y-88803972D01*
X117496028Y-88673738D01*
X117342889Y-88571414D01*
X117172729Y-88500932D01*
X116992089Y-88465000D01*
X116807911Y-88465000D01*
X116627271Y-88500932D01*
X116457111Y-88571414D01*
X116303972Y-88673738D01*
X116173738Y-88803972D01*
X116071414Y-88957111D01*
X116000932Y-89127271D01*
X115965000Y-89307911D01*
X75010000Y-89307911D01*
X75010000Y-88207911D01*
X91865000Y-88207911D01*
X91865000Y-88392089D01*
X91900932Y-88572729D01*
X91971414Y-88742889D01*
X92073738Y-88896028D01*
X92203972Y-89026262D01*
X92357111Y-89128586D01*
X92527271Y-89199068D01*
X92707911Y-89235000D01*
X92892089Y-89235000D01*
X93072729Y-89199068D01*
X93242889Y-89128586D01*
X93396028Y-89026262D01*
X93526262Y-88896028D01*
X93628586Y-88742889D01*
X93699068Y-88572729D01*
X93735000Y-88392089D01*
X93735000Y-88207911D01*
X93699068Y-88027271D01*
X93628586Y-87857111D01*
X93526262Y-87703972D01*
X93396028Y-87573738D01*
X93242889Y-87471414D01*
X93072729Y-87400932D01*
X92892089Y-87365000D01*
X92707911Y-87365000D01*
X92527271Y-87400932D01*
X92357111Y-87471414D01*
X92203972Y-87573738D01*
X92073738Y-87703972D01*
X91971414Y-87857111D01*
X91900932Y-88027271D01*
X91865000Y-88207911D01*
X75010000Y-88207911D01*
X75010000Y-84907911D01*
X77765000Y-84907911D01*
X77765000Y-85092089D01*
X77800932Y-85272729D01*
X77871414Y-85442889D01*
X77973738Y-85596028D01*
X78103972Y-85726262D01*
X78257111Y-85828586D01*
X78427271Y-85899068D01*
X78607911Y-85935000D01*
X78792089Y-85935000D01*
X78928272Y-85907911D01*
X82165000Y-85907911D01*
X82165000Y-86092089D01*
X82200932Y-86272729D01*
X82271414Y-86442889D01*
X82373738Y-86596028D01*
X82503972Y-86726262D01*
X82657111Y-86828586D01*
X82827271Y-86899068D01*
X83007911Y-86935000D01*
X83192089Y-86935000D01*
X83372729Y-86899068D01*
X83542889Y-86828586D01*
X83696028Y-86726262D01*
X83826262Y-86596028D01*
X83928586Y-86442889D01*
X83999068Y-86272729D01*
X84035000Y-86092089D01*
X84035000Y-85907911D01*
X83999068Y-85727271D01*
X83928586Y-85557111D01*
X83826262Y-85403972D01*
X83696028Y-85273738D01*
X83542889Y-85171414D01*
X83372729Y-85100932D01*
X83192089Y-85065000D01*
X83007911Y-85065000D01*
X82827271Y-85100932D01*
X82657111Y-85171414D01*
X82503972Y-85273738D01*
X82373738Y-85403972D01*
X82271414Y-85557111D01*
X82200932Y-85727271D01*
X82165000Y-85907911D01*
X78928272Y-85907911D01*
X78972729Y-85899068D01*
X79142889Y-85828586D01*
X79296028Y-85726262D01*
X79426262Y-85596028D01*
X79528586Y-85442889D01*
X79599068Y-85272729D01*
X79635000Y-85092089D01*
X79635000Y-84907911D01*
X79599068Y-84727271D01*
X79528586Y-84557111D01*
X79426262Y-84403972D01*
X79296028Y-84273738D01*
X79234894Y-84232889D01*
X95765000Y-84232889D01*
X95765000Y-85067111D01*
X95927749Y-85885304D01*
X96246992Y-86656025D01*
X96710461Y-87349655D01*
X97300345Y-87939539D01*
X97993975Y-88403008D01*
X98764696Y-88722251D01*
X99582889Y-88885000D01*
X100417111Y-88885000D01*
X101235304Y-88722251D01*
X102006025Y-88403008D01*
X102699655Y-87939539D01*
X103289539Y-87349655D01*
X103718338Y-86707911D01*
X106365000Y-86707911D01*
X106365000Y-86892089D01*
X106400932Y-87072729D01*
X106471414Y-87242889D01*
X106562352Y-87378988D01*
X106500932Y-87527271D01*
X106465000Y-87707911D01*
X106465000Y-87892089D01*
X106500932Y-88072729D01*
X106571414Y-88242889D01*
X106673738Y-88396028D01*
X106803972Y-88526262D01*
X106957111Y-88628586D01*
X107127271Y-88699068D01*
X107307911Y-88735000D01*
X107492089Y-88735000D01*
X107672729Y-88699068D01*
X107842889Y-88628586D01*
X107996028Y-88526262D01*
X108126262Y-88396028D01*
X108228586Y-88242889D01*
X108284495Y-88107911D01*
X119365000Y-88107911D01*
X119365000Y-88292089D01*
X119400932Y-88472729D01*
X119471414Y-88642889D01*
X119573738Y-88796028D01*
X119703972Y-88926262D01*
X119857111Y-89028586D01*
X120027271Y-89099068D01*
X120207911Y-89135000D01*
X120392089Y-89135000D01*
X120572729Y-89099068D01*
X120742889Y-89028586D01*
X120896028Y-88926262D01*
X121026262Y-88796028D01*
X121128586Y-88642889D01*
X121199068Y-88472729D01*
X121235000Y-88292089D01*
X121235000Y-88107911D01*
X121199068Y-87927271D01*
X121128586Y-87757111D01*
X121026262Y-87603972D01*
X120896028Y-87473738D01*
X120742889Y-87371414D01*
X120572729Y-87300932D01*
X120392089Y-87265000D01*
X120207911Y-87265000D01*
X120027271Y-87300932D01*
X119857111Y-87371414D01*
X119703972Y-87473738D01*
X119573738Y-87603972D01*
X119471414Y-87757111D01*
X119400932Y-87927271D01*
X119365000Y-88107911D01*
X108284495Y-88107911D01*
X108299068Y-88072729D01*
X108335000Y-87892089D01*
X108335000Y-87707911D01*
X108299068Y-87527271D01*
X108228586Y-87357111D01*
X108137648Y-87221012D01*
X108199068Y-87072729D01*
X108235000Y-86892089D01*
X108235000Y-86707911D01*
X108199068Y-86527271D01*
X108128586Y-86357111D01*
X108026262Y-86203972D01*
X107896028Y-86073738D01*
X107742889Y-85971414D01*
X107572729Y-85900932D01*
X107392089Y-85865000D01*
X107207911Y-85865000D01*
X107027271Y-85900932D01*
X106857111Y-85971414D01*
X106703972Y-86073738D01*
X106573738Y-86203972D01*
X106471414Y-86357111D01*
X106400932Y-86527271D01*
X106365000Y-86707911D01*
X103718338Y-86707911D01*
X103753008Y-86656025D01*
X104072251Y-85885304D01*
X104235000Y-85067111D01*
X104235000Y-84232889D01*
X104072251Y-83414696D01*
X103779492Y-82707911D01*
X107765000Y-82707911D01*
X107765000Y-82892089D01*
X107800932Y-83072729D01*
X107871414Y-83242889D01*
X107973738Y-83396028D01*
X108103972Y-83526262D01*
X108257111Y-83628586D01*
X108427271Y-83699068D01*
X108607911Y-83735000D01*
X108792089Y-83735000D01*
X108972729Y-83699068D01*
X109142889Y-83628586D01*
X109173831Y-83607911D01*
X121565000Y-83607911D01*
X121565000Y-83792089D01*
X121600932Y-83972729D01*
X121671414Y-84142889D01*
X121773738Y-84296028D01*
X121903972Y-84426262D01*
X122057111Y-84528586D01*
X122227271Y-84599068D01*
X122407911Y-84635000D01*
X122592089Y-84635000D01*
X122772729Y-84599068D01*
X122942889Y-84528586D01*
X123096028Y-84426262D01*
X123226262Y-84296028D01*
X123328586Y-84142889D01*
X123399068Y-83972729D01*
X123435000Y-83792089D01*
X123435000Y-83607911D01*
X123399068Y-83427271D01*
X123328586Y-83257111D01*
X123226262Y-83103972D01*
X123096028Y-82973738D01*
X122942889Y-82871414D01*
X122772729Y-82800932D01*
X122592089Y-82765000D01*
X122407911Y-82765000D01*
X122227271Y-82800932D01*
X122057111Y-82871414D01*
X121903972Y-82973738D01*
X121773738Y-83103972D01*
X121671414Y-83257111D01*
X121600932Y-83427271D01*
X121565000Y-83607911D01*
X109173831Y-83607911D01*
X109296028Y-83526262D01*
X109426262Y-83396028D01*
X109528586Y-83242889D01*
X109599068Y-83072729D01*
X109635000Y-82892089D01*
X109635000Y-82707911D01*
X109599068Y-82527271D01*
X109549628Y-82407911D01*
X119265000Y-82407911D01*
X119265000Y-82592089D01*
X119300932Y-82772729D01*
X119371414Y-82942889D01*
X119473738Y-83096028D01*
X119603972Y-83226262D01*
X119757111Y-83328586D01*
X119927271Y-83399068D01*
X120107911Y-83435000D01*
X120292089Y-83435000D01*
X120472729Y-83399068D01*
X120642889Y-83328586D01*
X120796028Y-83226262D01*
X120926262Y-83096028D01*
X121028586Y-82942889D01*
X121099068Y-82772729D01*
X121135000Y-82592089D01*
X121135000Y-82407911D01*
X121099068Y-82227271D01*
X121028586Y-82057111D01*
X120926262Y-81903972D01*
X120796028Y-81773738D01*
X120642889Y-81671414D01*
X120472729Y-81600932D01*
X120292089Y-81565000D01*
X120107911Y-81565000D01*
X119927271Y-81600932D01*
X119757111Y-81671414D01*
X119603972Y-81773738D01*
X119473738Y-81903972D01*
X119371414Y-82057111D01*
X119300932Y-82227271D01*
X119265000Y-82407911D01*
X109549628Y-82407911D01*
X109528586Y-82357111D01*
X109426262Y-82203972D01*
X109296028Y-82073738D01*
X109142889Y-81971414D01*
X108972729Y-81900932D01*
X108792089Y-81865000D01*
X108607911Y-81865000D01*
X108427271Y-81900932D01*
X108257111Y-81971414D01*
X108103972Y-82073738D01*
X107973738Y-82203972D01*
X107871414Y-82357111D01*
X107800932Y-82527271D01*
X107765000Y-82707911D01*
X103779492Y-82707911D01*
X103753008Y-82643975D01*
X103289539Y-81950345D01*
X102699655Y-81360461D01*
X102006025Y-80896992D01*
X101235304Y-80577749D01*
X100417111Y-80415000D01*
X99582889Y-80415000D01*
X98764696Y-80577749D01*
X97993975Y-80896992D01*
X97300345Y-81360461D01*
X96710461Y-81950345D01*
X96246992Y-82643975D01*
X95927749Y-83414696D01*
X95765000Y-84232889D01*
X79234894Y-84232889D01*
X79142889Y-84171414D01*
X78972729Y-84100932D01*
X78792089Y-84065000D01*
X78607911Y-84065000D01*
X78427271Y-84100932D01*
X78257111Y-84171414D01*
X78103972Y-84273738D01*
X77973738Y-84403972D01*
X77871414Y-84557111D01*
X77800932Y-84727271D01*
X77765000Y-84907911D01*
X75010000Y-84907911D01*
X75010000Y-78507911D01*
X87565000Y-78507911D01*
X87565000Y-78692089D01*
X87600932Y-78872729D01*
X87671414Y-79042889D01*
X87773738Y-79196028D01*
X87903972Y-79326262D01*
X88057111Y-79428586D01*
X88227271Y-79499068D01*
X88372126Y-79527882D01*
X88400938Y-79672729D01*
X88471420Y-79842889D01*
X88573744Y-79996028D01*
X88703978Y-80126262D01*
X88857117Y-80228586D01*
X89027277Y-80299068D01*
X89172111Y-80327878D01*
X89200924Y-80472729D01*
X89271406Y-80642889D01*
X89373730Y-80796028D01*
X89503964Y-80926262D01*
X89657103Y-81028586D01*
X89827263Y-81099068D01*
X90007903Y-81135000D01*
X90192081Y-81135000D01*
X90372721Y-81099068D01*
X90542881Y-81028586D01*
X90696020Y-80926262D01*
X90826254Y-80796028D01*
X90928578Y-80642889D01*
X90999060Y-80472729D01*
X91034992Y-80292089D01*
X91034992Y-80107911D01*
X90999060Y-79927271D01*
X90928578Y-79757111D01*
X90826254Y-79603972D01*
X90696020Y-79473738D01*
X90542881Y-79371414D01*
X90372721Y-79300932D01*
X90227887Y-79272122D01*
X90199074Y-79127271D01*
X90128592Y-78957111D01*
X90026268Y-78803972D01*
X89896034Y-78673738D01*
X89742895Y-78571414D01*
X89589584Y-78507911D01*
X103265000Y-78507911D01*
X103265000Y-78692089D01*
X103300932Y-78872729D01*
X103371414Y-79042889D01*
X103473738Y-79196028D01*
X103603972Y-79326262D01*
X103757111Y-79428586D01*
X103865000Y-79473275D01*
X103865000Y-79492089D01*
X103900932Y-79672729D01*
X103971414Y-79842889D01*
X104073738Y-79996028D01*
X104203972Y-80126262D01*
X104357111Y-80228586D01*
X104527271Y-80299068D01*
X104707911Y-80335000D01*
X104773536Y-80335000D01*
X104800932Y-80472729D01*
X104871414Y-80642889D01*
X104973738Y-80796028D01*
X105103972Y-80926262D01*
X105257111Y-81028586D01*
X105427271Y-81099068D01*
X105607911Y-81135000D01*
X105792089Y-81135000D01*
X105972729Y-81099068D01*
X106142889Y-81028586D01*
X106296028Y-80926262D01*
X106426262Y-80796028D01*
X106528586Y-80642889D01*
X106599068Y-80472729D01*
X106635000Y-80292089D01*
X106635000Y-80107911D01*
X106599068Y-79927271D01*
X106528586Y-79757111D01*
X106426262Y-79603972D01*
X106330201Y-79507911D01*
X109765000Y-79507911D01*
X109765000Y-79692089D01*
X109800932Y-79872729D01*
X109871414Y-80042889D01*
X109973738Y-80196028D01*
X110103972Y-80326262D01*
X110257111Y-80428586D01*
X110427271Y-80499068D01*
X110607911Y-80535000D01*
X110792089Y-80535000D01*
X110972729Y-80499068D01*
X111142889Y-80428586D01*
X111296028Y-80326262D01*
X111426262Y-80196028D01*
X111528586Y-80042889D01*
X111599068Y-79872729D01*
X111635000Y-79692089D01*
X111635000Y-79507911D01*
X115865000Y-79507911D01*
X115865000Y-79692089D01*
X115900932Y-79872729D01*
X115971414Y-80042889D01*
X116073738Y-80196028D01*
X116203972Y-80326262D01*
X116357111Y-80428586D01*
X116527271Y-80499068D01*
X116707911Y-80535000D01*
X116892089Y-80535000D01*
X117072729Y-80499068D01*
X117242889Y-80428586D01*
X117396028Y-80326262D01*
X117526262Y-80196028D01*
X117628586Y-80042889D01*
X117699068Y-79872729D01*
X117735000Y-79692089D01*
X117735000Y-79507911D01*
X117699068Y-79327271D01*
X117628586Y-79157111D01*
X117526262Y-79003972D01*
X117396028Y-78873738D01*
X117242889Y-78771414D01*
X117072729Y-78700932D01*
X116892089Y-78665000D01*
X116707911Y-78665000D01*
X116527271Y-78700932D01*
X116357111Y-78771414D01*
X116203972Y-78873738D01*
X116073738Y-79003972D01*
X115971414Y-79157111D01*
X115900932Y-79327271D01*
X115865000Y-79507911D01*
X111635000Y-79507911D01*
X111599068Y-79327271D01*
X111528586Y-79157111D01*
X111426262Y-79003972D01*
X111296028Y-78873738D01*
X111142889Y-78771414D01*
X110972729Y-78700932D01*
X110792089Y-78665000D01*
X110607911Y-78665000D01*
X110427271Y-78700932D01*
X110257111Y-78771414D01*
X110103972Y-78873738D01*
X109973738Y-79003972D01*
X109871414Y-79157111D01*
X109800932Y-79327271D01*
X109765000Y-79507911D01*
X106330201Y-79507911D01*
X106296028Y-79473738D01*
X106142889Y-79371414D01*
X105972729Y-79300932D01*
X105792089Y-79265000D01*
X105726464Y-79265000D01*
X105699068Y-79127271D01*
X105628586Y-78957111D01*
X105526262Y-78803972D01*
X105396028Y-78673738D01*
X105242889Y-78571414D01*
X105135000Y-78526725D01*
X105135000Y-78507911D01*
X105099068Y-78327271D01*
X105028586Y-78157111D01*
X104926262Y-78003972D01*
X104796028Y-77873738D01*
X104642889Y-77771414D01*
X104472729Y-77700932D01*
X104292089Y-77665000D01*
X104107911Y-77665000D01*
X103927271Y-77700932D01*
X103757111Y-77771414D01*
X103603972Y-77873738D01*
X103473738Y-78003972D01*
X103371414Y-78157111D01*
X103300932Y-78327271D01*
X103265000Y-78507911D01*
X89589584Y-78507911D01*
X89572735Y-78500932D01*
X89427880Y-78472118D01*
X89399068Y-78327271D01*
X89328586Y-78157111D01*
X89226262Y-78003972D01*
X89096028Y-77873738D01*
X88942889Y-77771414D01*
X88772729Y-77700932D01*
X88592089Y-77665000D01*
X88407911Y-77665000D01*
X88227271Y-77700932D01*
X88057111Y-77771414D01*
X87903972Y-77873738D01*
X87773738Y-78003972D01*
X87671414Y-78157111D01*
X87600932Y-78327271D01*
X87565000Y-78507911D01*
X75010000Y-78507911D01*
X75010000Y-77207911D01*
X91665000Y-77207911D01*
X91665000Y-77392089D01*
X91700932Y-77572729D01*
X91771414Y-77742889D01*
X91873738Y-77896028D01*
X92003972Y-78026262D01*
X92157111Y-78128586D01*
X92327271Y-78199068D01*
X92507911Y-78235000D01*
X92692089Y-78235000D01*
X92872729Y-78199068D01*
X93042889Y-78128586D01*
X93196028Y-78026262D01*
X93326262Y-77896028D01*
X93428586Y-77742889D01*
X93499068Y-77572729D01*
X93535000Y-77392089D01*
X93535000Y-77207911D01*
X93499068Y-77027271D01*
X93449628Y-76907911D01*
X104565000Y-76907911D01*
X104565000Y-77092089D01*
X104600932Y-77272729D01*
X104671414Y-77442889D01*
X104773738Y-77596028D01*
X104903972Y-77726262D01*
X105057111Y-77828586D01*
X105227271Y-77899068D01*
X105407911Y-77935000D01*
X105592089Y-77935000D01*
X105772729Y-77899068D01*
X105942889Y-77828586D01*
X106096028Y-77726262D01*
X106226262Y-77596028D01*
X106328586Y-77442889D01*
X106399068Y-77272729D01*
X106435000Y-77092089D01*
X106435000Y-76907911D01*
X106399068Y-76727271D01*
X106328586Y-76557111D01*
X106226262Y-76403972D01*
X106096028Y-76273738D01*
X105942889Y-76171414D01*
X105772729Y-76100932D01*
X105592089Y-76065000D01*
X105407911Y-76065000D01*
X105227271Y-76100932D01*
X105057111Y-76171414D01*
X104903972Y-76273738D01*
X104773738Y-76403972D01*
X104671414Y-76557111D01*
X104600932Y-76727271D01*
X104565000Y-76907911D01*
X93449628Y-76907911D01*
X93428586Y-76857111D01*
X93326262Y-76703972D01*
X93196028Y-76573738D01*
X93042889Y-76471414D01*
X92872729Y-76400932D01*
X92692089Y-76365000D01*
X92507911Y-76365000D01*
X92327271Y-76400932D01*
X92157111Y-76471414D01*
X92003972Y-76573738D01*
X91873738Y-76703972D01*
X91771414Y-76857111D01*
X91700932Y-77027271D01*
X91665000Y-77207911D01*
X75010000Y-77207911D01*
X75010000Y-72107911D01*
X91265000Y-72107911D01*
X91265000Y-72292089D01*
X91300932Y-72472729D01*
X91371414Y-72642889D01*
X91473738Y-72796028D01*
X91603972Y-72926262D01*
X91757111Y-73028586D01*
X91927271Y-73099068D01*
X92107911Y-73135000D01*
X92292089Y-73135000D01*
X92472729Y-73099068D01*
X92642889Y-73028586D01*
X92796028Y-72926262D01*
X92914379Y-72807911D01*
X113265000Y-72807911D01*
X113265000Y-72992089D01*
X113300932Y-73172729D01*
X113371414Y-73342889D01*
X113473738Y-73496028D01*
X113603972Y-73626262D01*
X113757111Y-73728586D01*
X113927271Y-73799068D01*
X114107911Y-73835000D01*
X114292089Y-73835000D01*
X114472729Y-73799068D01*
X114642889Y-73728586D01*
X114796028Y-73626262D01*
X114926262Y-73496028D01*
X115028586Y-73342889D01*
X115099068Y-73172729D01*
X115111289Y-73111289D01*
X115172729Y-73099068D01*
X115342889Y-73028586D01*
X115496028Y-72926262D01*
X115626262Y-72796028D01*
X115728586Y-72642889D01*
X115799068Y-72472729D01*
X115835000Y-72292089D01*
X115835000Y-72126464D01*
X115972729Y-72099068D01*
X116142889Y-72028586D01*
X116296028Y-71926262D01*
X116426262Y-71796028D01*
X116528586Y-71642889D01*
X116599068Y-71472729D01*
X116635000Y-71292089D01*
X116635000Y-71107911D01*
X116599068Y-70927271D01*
X116528586Y-70757111D01*
X116426262Y-70603972D01*
X116296028Y-70473738D01*
X116142889Y-70371414D01*
X115972729Y-70300932D01*
X115792089Y-70265000D01*
X115607911Y-70265000D01*
X115427271Y-70300932D01*
X115257111Y-70371414D01*
X115103972Y-70473738D01*
X114973738Y-70603972D01*
X114871414Y-70757111D01*
X114800932Y-70927271D01*
X114765000Y-71107911D01*
X114765000Y-71273536D01*
X114627271Y-71300932D01*
X114457111Y-71371414D01*
X114303972Y-71473738D01*
X114173738Y-71603972D01*
X114071414Y-71757111D01*
X114000932Y-71927271D01*
X113988711Y-71988711D01*
X113927271Y-72000932D01*
X113757111Y-72071414D01*
X113603972Y-72173738D01*
X113473738Y-72303972D01*
X113371414Y-72457111D01*
X113300932Y-72627271D01*
X113265000Y-72807911D01*
X92914379Y-72807911D01*
X92926262Y-72796028D01*
X93028586Y-72642889D01*
X93099068Y-72472729D01*
X93135000Y-72292089D01*
X93135000Y-72107911D01*
X93099068Y-71927271D01*
X93028586Y-71757111D01*
X92926262Y-71603972D01*
X92796028Y-71473738D01*
X92642889Y-71371414D01*
X92472729Y-71300932D01*
X92292089Y-71265000D01*
X92107911Y-71265000D01*
X91927271Y-71300932D01*
X91757111Y-71371414D01*
X91603972Y-71473738D01*
X91473738Y-71603972D01*
X91371414Y-71757111D01*
X91300932Y-71927271D01*
X91265000Y-72107911D01*
X75010000Y-72107911D01*
X75010000Y-69807911D01*
X94865000Y-69807911D01*
X94865000Y-69992089D01*
X94900932Y-70172729D01*
X94971414Y-70342889D01*
X95073738Y-70496028D01*
X95203972Y-70626262D01*
X95357111Y-70728586D01*
X95527271Y-70799068D01*
X95707911Y-70835000D01*
X95892089Y-70835000D01*
X96072729Y-70799068D01*
X96242889Y-70728586D01*
X96396028Y-70626262D01*
X96526262Y-70496028D01*
X96628586Y-70342889D01*
X96699068Y-70172729D01*
X96735000Y-69992089D01*
X96735000Y-69807911D01*
X96699068Y-69627271D01*
X96668593Y-69553697D01*
X96726262Y-69496028D01*
X96828586Y-69342889D01*
X96845255Y-69302645D01*
X97007911Y-69335000D01*
X97192089Y-69335000D01*
X97372729Y-69299068D01*
X97542889Y-69228586D01*
X97696028Y-69126262D01*
X97826262Y-68996028D01*
X97928586Y-68842889D01*
X97999068Y-68672729D01*
X98035000Y-68492089D01*
X98035000Y-68407911D01*
X108265000Y-68407911D01*
X108265000Y-68592089D01*
X108300932Y-68772729D01*
X108371414Y-68942889D01*
X108473738Y-69096028D01*
X108603972Y-69226262D01*
X108757111Y-69328586D01*
X108927271Y-69399068D01*
X109107911Y-69435000D01*
X109292089Y-69435000D01*
X109472729Y-69399068D01*
X109642889Y-69328586D01*
X109796028Y-69226262D01*
X109814379Y-69207911D01*
X115365000Y-69207911D01*
X115365000Y-69392089D01*
X115400932Y-69572729D01*
X115471414Y-69742889D01*
X115573738Y-69896028D01*
X115703972Y-70026262D01*
X115857111Y-70128586D01*
X116027271Y-70199068D01*
X116207911Y-70235000D01*
X116392089Y-70235000D01*
X116572729Y-70199068D01*
X116742889Y-70128586D01*
X116896028Y-70026262D01*
X117026262Y-69896028D01*
X117128586Y-69742889D01*
X117199068Y-69572729D01*
X117235000Y-69392089D01*
X117235000Y-69207911D01*
X117199068Y-69027271D01*
X117128586Y-68857111D01*
X117026262Y-68703972D01*
X116930201Y-68607911D01*
X121065000Y-68607911D01*
X121065000Y-68792089D01*
X121100932Y-68972729D01*
X121171414Y-69142889D01*
X121273738Y-69296028D01*
X121403972Y-69426262D01*
X121557111Y-69528586D01*
X121727271Y-69599068D01*
X121907911Y-69635000D01*
X122092089Y-69635000D01*
X122272729Y-69599068D01*
X122442889Y-69528586D01*
X122596028Y-69426262D01*
X122726262Y-69296028D01*
X122828586Y-69142889D01*
X122899068Y-68972729D01*
X122935000Y-68792089D01*
X122935000Y-68607911D01*
X122899068Y-68427271D01*
X122828586Y-68257111D01*
X122726262Y-68103972D01*
X122596028Y-67973738D01*
X122442889Y-67871414D01*
X122272729Y-67800932D01*
X122092089Y-67765000D01*
X121907911Y-67765000D01*
X121727271Y-67800932D01*
X121557111Y-67871414D01*
X121403972Y-67973738D01*
X121273738Y-68103972D01*
X121171414Y-68257111D01*
X121100932Y-68427271D01*
X121065000Y-68607911D01*
X116930201Y-68607911D01*
X116896028Y-68573738D01*
X116742889Y-68471414D01*
X116572729Y-68400932D01*
X116392089Y-68365000D01*
X116207911Y-68365000D01*
X116027271Y-68400932D01*
X115857111Y-68471414D01*
X115703972Y-68573738D01*
X115573738Y-68703972D01*
X115471414Y-68857111D01*
X115400932Y-69027271D01*
X115365000Y-69207911D01*
X109814379Y-69207911D01*
X109926262Y-69096028D01*
X110028586Y-68942889D01*
X110099068Y-68772729D01*
X110135000Y-68592089D01*
X110135000Y-68407911D01*
X110099068Y-68227271D01*
X110028586Y-68057111D01*
X109926262Y-67903972D01*
X109796028Y-67773738D01*
X109642889Y-67671414D01*
X109472729Y-67600932D01*
X109292089Y-67565000D01*
X109107911Y-67565000D01*
X108927271Y-67600932D01*
X108757111Y-67671414D01*
X108603972Y-67773738D01*
X108473738Y-67903972D01*
X108371414Y-68057111D01*
X108300932Y-68227271D01*
X108265000Y-68407911D01*
X98035000Y-68407911D01*
X98035000Y-68307911D01*
X97999068Y-68127271D01*
X97928586Y-67957111D01*
X97826262Y-67803972D01*
X97696028Y-67673738D01*
X97542889Y-67571414D01*
X97372729Y-67500932D01*
X97192089Y-67465000D01*
X97007911Y-67465000D01*
X96827271Y-67500932D01*
X96657111Y-67571414D01*
X96503972Y-67673738D01*
X96373738Y-67803972D01*
X96271414Y-67957111D01*
X96254745Y-67997355D01*
X96092089Y-67965000D01*
X95907911Y-67965000D01*
X95727271Y-68000932D01*
X95557111Y-68071414D01*
X95403972Y-68173738D01*
X95273738Y-68303972D01*
X95171414Y-68457111D01*
X95100932Y-68627271D01*
X95065000Y-68807911D01*
X95065000Y-68992089D01*
X95100932Y-69172729D01*
X95131407Y-69246303D01*
X95073738Y-69303972D01*
X94971414Y-69457111D01*
X94900932Y-69627271D01*
X94865000Y-69807911D01*
X75010000Y-69807911D01*
X75010000Y-67207911D01*
X97965000Y-67207911D01*
X97965000Y-67392089D01*
X98000932Y-67572729D01*
X98071414Y-67742889D01*
X98173738Y-67896028D01*
X98303972Y-68026262D01*
X98457111Y-68128586D01*
X98627271Y-68199068D01*
X98807911Y-68235000D01*
X98992089Y-68235000D01*
X99172729Y-68199068D01*
X99342889Y-68128586D01*
X99496028Y-68026262D01*
X99626262Y-67896028D01*
X99728586Y-67742889D01*
X99799068Y-67572729D01*
X99835000Y-67392089D01*
X99835000Y-67207911D01*
X99799068Y-67027271D01*
X99728586Y-66857111D01*
X99626262Y-66703972D01*
X99496028Y-66573738D01*
X99342889Y-66471414D01*
X99172729Y-66400932D01*
X98992089Y-66365000D01*
X98807911Y-66365000D01*
X98627271Y-66400932D01*
X98457111Y-66471414D01*
X98303972Y-66573738D01*
X98173738Y-66703972D01*
X98071414Y-66857111D01*
X98000932Y-67027271D01*
X97965000Y-67207911D01*
X75010000Y-67207911D01*
X75010000Y-65307911D01*
X92765000Y-65307911D01*
X92765000Y-65492089D01*
X92800932Y-65672729D01*
X92871414Y-65842889D01*
X92973738Y-65996028D01*
X93103972Y-66126262D01*
X93257111Y-66228586D01*
X93427271Y-66299068D01*
X93607911Y-66335000D01*
X93792089Y-66335000D01*
X93972729Y-66299068D01*
X94142889Y-66228586D01*
X94296028Y-66126262D01*
X94426262Y-65996028D01*
X94528586Y-65842889D01*
X94599068Y-65672729D01*
X94635000Y-65492089D01*
X94635000Y-65407911D01*
X99190000Y-65407911D01*
X99190000Y-65592089D01*
X99225932Y-65772729D01*
X99296414Y-65942889D01*
X99398738Y-66096028D01*
X99528972Y-66226262D01*
X99682111Y-66328586D01*
X99852271Y-66399068D01*
X100032911Y-66435000D01*
X100173536Y-66435000D01*
X100200932Y-66572729D01*
X100271414Y-66742889D01*
X100373738Y-66896028D01*
X100503972Y-67026262D01*
X100657111Y-67128586D01*
X100827271Y-67199068D01*
X101007911Y-67235000D01*
X101192089Y-67235000D01*
X101372729Y-67199068D01*
X101542889Y-67128586D01*
X101696028Y-67026262D01*
X101826262Y-66896028D01*
X101928586Y-66742889D01*
X101965006Y-66654963D01*
X101965006Y-66792089D01*
X102000938Y-66972729D01*
X102071420Y-67142889D01*
X102173744Y-67296028D01*
X102303978Y-67426262D01*
X102457117Y-67528586D01*
X102627277Y-67599068D01*
X102807917Y-67635000D01*
X102992095Y-67635000D01*
X103172735Y-67599068D01*
X103342895Y-67528586D01*
X103496034Y-67426262D01*
X103626268Y-67296028D01*
X103728592Y-67142889D01*
X103799074Y-66972729D01*
X103835006Y-66792089D01*
X103835006Y-66607911D01*
X103815232Y-66508500D01*
X103873716Y-66596028D01*
X104003950Y-66726262D01*
X104157089Y-66828586D01*
X104327249Y-66899068D01*
X104507889Y-66935000D01*
X104692067Y-66935000D01*
X104872707Y-66899068D01*
X105042867Y-66828586D01*
X105196006Y-66726262D01*
X105326240Y-66596028D01*
X105428564Y-66442889D01*
X105499046Y-66272729D01*
X105534978Y-66092089D01*
X105534978Y-65907911D01*
X105499046Y-65727271D01*
X105428564Y-65557111D01*
X105326240Y-65403972D01*
X105196006Y-65273738D01*
X105042867Y-65171414D01*
X104872707Y-65100932D01*
X104692067Y-65065000D01*
X104554963Y-65065000D01*
X104642889Y-65028580D01*
X104796028Y-64926256D01*
X104926262Y-64796022D01*
X104985135Y-64707911D01*
X105264978Y-64707911D01*
X105264978Y-64892089D01*
X105300910Y-65072729D01*
X105371392Y-65242889D01*
X105473716Y-65396028D01*
X105603950Y-65526262D01*
X105757089Y-65628586D01*
X105927249Y-65699068D01*
X106107889Y-65735000D01*
X106292067Y-65735000D01*
X106472707Y-65699068D01*
X106642867Y-65628586D01*
X106796006Y-65526262D01*
X106926240Y-65396028D01*
X107028564Y-65242889D01*
X107099046Y-65072729D01*
X107131830Y-64907911D01*
X110065000Y-64907911D01*
X110065000Y-65092089D01*
X110100932Y-65272729D01*
X110171414Y-65442889D01*
X110273738Y-65596028D01*
X110403972Y-65726262D01*
X110557111Y-65828586D01*
X110727271Y-65899068D01*
X110907911Y-65935000D01*
X111092089Y-65935000D01*
X111272729Y-65899068D01*
X111442889Y-65828586D01*
X111596028Y-65726262D01*
X111726262Y-65596028D01*
X111828586Y-65442889D01*
X111899068Y-65272729D01*
X111907167Y-65232011D01*
X112072729Y-65199078D01*
X112242889Y-65128596D01*
X112396028Y-65026272D01*
X112459162Y-64963138D01*
X112557111Y-65028586D01*
X112727271Y-65099068D01*
X112907911Y-65135000D01*
X113092089Y-65135000D01*
X113272729Y-65099068D01*
X113442889Y-65028586D01*
X113468814Y-65011263D01*
X113500932Y-65172729D01*
X113571414Y-65342889D01*
X113673738Y-65496028D01*
X113803972Y-65626262D01*
X113957111Y-65728586D01*
X114127271Y-65799068D01*
X114307911Y-65835000D01*
X114492089Y-65835000D01*
X114672729Y-65799068D01*
X114842889Y-65728586D01*
X114996028Y-65626262D01*
X115126262Y-65496028D01*
X115228586Y-65342889D01*
X115299068Y-65172729D01*
X115331852Y-65007911D01*
X116065000Y-65007911D01*
X116065000Y-65192089D01*
X116100932Y-65372729D01*
X116171414Y-65542889D01*
X116273738Y-65696028D01*
X116403972Y-65826262D01*
X116557111Y-65928586D01*
X116727271Y-65999068D01*
X116907911Y-66035000D01*
X117092089Y-66035000D01*
X117272729Y-65999068D01*
X117442889Y-65928586D01*
X117596028Y-65826262D01*
X117726262Y-65696028D01*
X117828586Y-65542889D01*
X117899068Y-65372729D01*
X117935000Y-65192089D01*
X117935000Y-65007911D01*
X117899068Y-64827271D01*
X117828586Y-64657111D01*
X117726262Y-64503972D01*
X117596028Y-64373738D01*
X117442889Y-64271414D01*
X117272729Y-64200932D01*
X117092089Y-64165000D01*
X116907911Y-64165000D01*
X116727271Y-64200932D01*
X116557111Y-64271414D01*
X116403972Y-64373738D01*
X116273738Y-64503972D01*
X116171414Y-64657111D01*
X116100932Y-64827271D01*
X116065000Y-65007911D01*
X115331852Y-65007911D01*
X115335000Y-64992089D01*
X115335000Y-64807911D01*
X115299068Y-64627271D01*
X115228586Y-64457111D01*
X115126262Y-64303972D01*
X114996028Y-64173738D01*
X114842889Y-64071414D01*
X114672729Y-64000932D01*
X114492089Y-63965000D01*
X114307911Y-63965000D01*
X114127271Y-64000932D01*
X113957111Y-64071414D01*
X113931186Y-64088737D01*
X113899068Y-63927271D01*
X113849628Y-63807911D01*
X121465002Y-63807911D01*
X121465002Y-63992089D01*
X121500934Y-64172729D01*
X121571416Y-64342889D01*
X121673740Y-64496028D01*
X121803974Y-64626262D01*
X121957113Y-64728586D01*
X122127273Y-64799068D01*
X122307913Y-64835000D01*
X122492091Y-64835000D01*
X122672731Y-64799068D01*
X122842891Y-64728586D01*
X122996030Y-64626262D01*
X123126264Y-64496028D01*
X123228588Y-64342889D01*
X123299070Y-64172729D01*
X123335002Y-63992089D01*
X123335002Y-63807911D01*
X123299070Y-63627271D01*
X123228588Y-63457111D01*
X123126264Y-63303972D01*
X122996030Y-63173738D01*
X122842891Y-63071414D01*
X122672731Y-63000932D01*
X122492091Y-62965000D01*
X122307913Y-62965000D01*
X122127273Y-63000932D01*
X121957113Y-63071414D01*
X121803974Y-63173738D01*
X121673740Y-63303972D01*
X121571416Y-63457111D01*
X121500934Y-63627271D01*
X121465002Y-63807911D01*
X113849628Y-63807911D01*
X113828586Y-63757111D01*
X113726262Y-63603972D01*
X113596028Y-63473738D01*
X113442889Y-63371414D01*
X113272729Y-63300932D01*
X113092089Y-63265000D01*
X112907911Y-63265000D01*
X112727271Y-63300932D01*
X112557111Y-63371414D01*
X112403972Y-63473738D01*
X112340838Y-63536872D01*
X112242889Y-63471424D01*
X112072729Y-63400942D01*
X111892089Y-63365010D01*
X111707911Y-63365010D01*
X111527271Y-63400942D01*
X111357111Y-63471424D01*
X111203972Y-63573748D01*
X111073738Y-63703982D01*
X110971414Y-63857121D01*
X110900932Y-64027281D01*
X110892833Y-64067999D01*
X110727271Y-64100932D01*
X110557111Y-64171414D01*
X110403972Y-64273738D01*
X110273738Y-64403972D01*
X110171414Y-64557111D01*
X110100932Y-64727271D01*
X110065000Y-64907911D01*
X107131830Y-64907911D01*
X107134978Y-64892089D01*
X107134978Y-64707911D01*
X107099046Y-64527271D01*
X107028564Y-64357111D01*
X106926240Y-64203972D01*
X106796006Y-64073738D01*
X106642867Y-63971414D01*
X106472707Y-63900932D01*
X106292067Y-63865000D01*
X106107889Y-63865000D01*
X105927249Y-63900932D01*
X105757089Y-63971414D01*
X105603950Y-64073738D01*
X105473716Y-64203972D01*
X105371392Y-64357111D01*
X105300910Y-64527271D01*
X105264978Y-64707911D01*
X104985135Y-64707911D01*
X105028586Y-64642883D01*
X105099068Y-64472723D01*
X105135000Y-64292083D01*
X105135000Y-64107905D01*
X105099068Y-63927265D01*
X105028586Y-63757105D01*
X104926262Y-63603966D01*
X104796028Y-63473732D01*
X104642889Y-63371408D01*
X104472729Y-63300926D01*
X104292089Y-63264994D01*
X104107911Y-63264994D01*
X103927271Y-63300926D01*
X103757111Y-63371408D01*
X103603972Y-63473732D01*
X103473738Y-63603966D01*
X103454719Y-63632429D01*
X103396028Y-63573738D01*
X103242889Y-63471414D01*
X103072729Y-63400932D01*
X102892089Y-63365000D01*
X102707911Y-63365000D01*
X102527271Y-63400932D01*
X102357111Y-63471414D01*
X102203972Y-63573738D01*
X102073738Y-63703972D01*
X101971414Y-63857111D01*
X101900932Y-64027271D01*
X101865000Y-64207911D01*
X101865000Y-64392089D01*
X101900932Y-64572729D01*
X101971414Y-64742889D01*
X102073738Y-64896028D01*
X102203972Y-65026262D01*
X102357111Y-65128586D01*
X102527271Y-65199068D01*
X102707911Y-65235000D01*
X102892089Y-65235000D01*
X103072729Y-65199068D01*
X103242889Y-65128586D01*
X103396028Y-65026262D01*
X103526262Y-64896028D01*
X103545281Y-64867565D01*
X103603972Y-64926256D01*
X103757111Y-65028580D01*
X103927271Y-65099062D01*
X104107911Y-65134994D01*
X104245015Y-65134994D01*
X104157089Y-65171414D01*
X104003950Y-65273738D01*
X103873716Y-65403972D01*
X103771392Y-65557111D01*
X103700910Y-65727271D01*
X103664978Y-65907911D01*
X103664978Y-66092089D01*
X103684752Y-66191500D01*
X103626268Y-66103972D01*
X103496034Y-65973738D01*
X103342895Y-65871414D01*
X103172735Y-65800932D01*
X102992095Y-65765000D01*
X102807917Y-65765000D01*
X102627277Y-65800932D01*
X102457117Y-65871414D01*
X102303978Y-65973738D01*
X102173744Y-66103972D01*
X102071420Y-66257111D01*
X102035000Y-66345037D01*
X102035000Y-66207911D01*
X101999068Y-66027271D01*
X101928586Y-65857111D01*
X101826262Y-65703972D01*
X101696028Y-65573738D01*
X101542889Y-65471414D01*
X101372729Y-65400932D01*
X101192089Y-65365000D01*
X101051464Y-65365000D01*
X101024068Y-65227271D01*
X100953586Y-65057111D01*
X100851262Y-64903972D01*
X100721028Y-64773738D01*
X100567889Y-64671414D01*
X100397729Y-64600932D01*
X100217089Y-64565000D01*
X100032911Y-64565000D01*
X99852271Y-64600932D01*
X99682111Y-64671414D01*
X99528972Y-64773738D01*
X99398738Y-64903972D01*
X99296414Y-65057111D01*
X99225932Y-65227271D01*
X99190000Y-65407911D01*
X94635000Y-65407911D01*
X94635000Y-65307911D01*
X94599068Y-65127271D01*
X94528586Y-64957111D01*
X94426262Y-64803972D01*
X94296028Y-64673738D01*
X94142889Y-64571414D01*
X93972729Y-64500932D01*
X93792089Y-64465000D01*
X93607911Y-64465000D01*
X93427271Y-64500932D01*
X93257111Y-64571414D01*
X93103972Y-64673738D01*
X92973738Y-64803972D01*
X92871414Y-64957111D01*
X92800932Y-65127271D01*
X92765000Y-65307911D01*
X75010000Y-65307911D01*
X75010000Y-60807911D01*
X78365000Y-60807911D01*
X78365000Y-60992089D01*
X78400932Y-61172729D01*
X78471414Y-61342889D01*
X78573738Y-61496028D01*
X78703972Y-61626262D01*
X78857111Y-61728586D01*
X79027271Y-61799068D01*
X79207911Y-61835000D01*
X79392089Y-61835000D01*
X79572729Y-61799068D01*
X79742889Y-61728586D01*
X79896028Y-61626262D01*
X80026262Y-61496028D01*
X80128586Y-61342889D01*
X80199068Y-61172729D01*
X80235000Y-60992089D01*
X80235000Y-60807911D01*
X80199068Y-60627271D01*
X80149628Y-60507911D01*
X82965000Y-60507911D01*
X82965000Y-60692089D01*
X83000932Y-60872729D01*
X83071414Y-61042889D01*
X83173738Y-61196028D01*
X83303972Y-61326262D01*
X83457111Y-61428586D01*
X83627271Y-61499068D01*
X83719436Y-61517401D01*
X83771414Y-61642889D01*
X83809574Y-61700000D01*
X83771414Y-61757111D01*
X83700932Y-61927271D01*
X83665000Y-62107911D01*
X83665000Y-62292089D01*
X83700932Y-62472729D01*
X83771414Y-62642889D01*
X83836782Y-62740720D01*
X83800932Y-62827271D01*
X83765000Y-63007911D01*
X83765000Y-63192089D01*
X83800932Y-63372729D01*
X83871414Y-63542889D01*
X83973738Y-63696028D01*
X84103972Y-63826262D01*
X84257111Y-63928586D01*
X84427271Y-63999068D01*
X84607911Y-64035000D01*
X84792089Y-64035000D01*
X84972729Y-63999068D01*
X85142889Y-63928586D01*
X85296028Y-63826262D01*
X85426262Y-63696028D01*
X85528586Y-63542889D01*
X85599068Y-63372729D01*
X85635000Y-63192089D01*
X85635000Y-63007911D01*
X85599068Y-62827271D01*
X85528586Y-62657111D01*
X85463218Y-62559280D01*
X85499068Y-62472729D01*
X85535000Y-62292089D01*
X85535000Y-62107911D01*
X85499068Y-61927271D01*
X85428586Y-61757111D01*
X85390426Y-61700000D01*
X85428586Y-61642889D01*
X85499068Y-61472729D01*
X85535000Y-61292089D01*
X85535000Y-61107911D01*
X85499068Y-60927271D01*
X85491049Y-60907911D01*
X85865000Y-60907911D01*
X85865000Y-61092089D01*
X85900932Y-61272729D01*
X85971414Y-61442889D01*
X86073738Y-61596028D01*
X86203972Y-61726262D01*
X86357111Y-61828586D01*
X86527271Y-61899068D01*
X86707911Y-61935000D01*
X86892089Y-61935000D01*
X87072729Y-61899068D01*
X87242889Y-61828586D01*
X87396028Y-61726262D01*
X87526262Y-61596028D01*
X87628586Y-61442889D01*
X87699068Y-61272729D01*
X87724182Y-61146472D01*
X87803972Y-61226262D01*
X87957111Y-61328586D01*
X88127271Y-61399068D01*
X88307911Y-61435000D01*
X88326725Y-61435000D01*
X88371414Y-61542889D01*
X88473738Y-61696028D01*
X88603972Y-61826262D01*
X88757111Y-61928586D01*
X88927271Y-61999068D01*
X89107911Y-62035000D01*
X89126729Y-62035000D01*
X89171418Y-62142889D01*
X89273742Y-62296028D01*
X89403976Y-62426262D01*
X89557115Y-62528586D01*
X89727275Y-62599068D01*
X89907915Y-62635000D01*
X89968146Y-62635000D01*
X89971414Y-62642889D01*
X90073738Y-62796028D01*
X90203972Y-62926262D01*
X90357111Y-63028586D01*
X90527271Y-63099068D01*
X90707911Y-63135000D01*
X90892089Y-63135000D01*
X91072729Y-63099068D01*
X91242889Y-63028586D01*
X91396028Y-62926262D01*
X91526262Y-62796028D01*
X91628586Y-62642889D01*
X91699068Y-62472729D01*
X91735000Y-62292089D01*
X91735000Y-62107911D01*
X91699068Y-61927271D01*
X91628586Y-61757111D01*
X91526262Y-61603972D01*
X91396028Y-61473738D01*
X91242889Y-61371414D01*
X91072729Y-61300932D01*
X90892089Y-61265000D01*
X90831858Y-61265000D01*
X90828590Y-61257111D01*
X90726266Y-61103972D01*
X90596032Y-60973738D01*
X90442893Y-60871414D01*
X90272733Y-60800932D01*
X90092093Y-60765000D01*
X90073275Y-60765000D01*
X90028586Y-60657111D01*
X89926262Y-60503972D01*
X89796028Y-60373738D01*
X89642889Y-60271414D01*
X89472729Y-60200932D01*
X89292089Y-60165000D01*
X89273275Y-60165000D01*
X89228586Y-60057111D01*
X89195712Y-60007911D01*
X96165000Y-60007911D01*
X96165000Y-60192089D01*
X96200932Y-60372729D01*
X96271414Y-60542889D01*
X96373738Y-60696028D01*
X96503972Y-60826262D01*
X96657111Y-60928586D01*
X96827271Y-60999068D01*
X97007911Y-61035000D01*
X97065579Y-61035000D01*
X97100932Y-61212729D01*
X97171414Y-61382889D01*
X97273738Y-61536028D01*
X97403972Y-61666262D01*
X97557111Y-61768586D01*
X97727271Y-61839068D01*
X97907911Y-61875000D01*
X98092089Y-61875000D01*
X98272729Y-61839068D01*
X98442889Y-61768586D01*
X98596028Y-61666262D01*
X98726262Y-61536028D01*
X98828586Y-61382889D01*
X98899068Y-61212729D01*
X98925676Y-61078961D01*
X99154485Y-61231847D01*
X99479335Y-61366404D01*
X99824193Y-61435000D01*
X100175807Y-61435000D01*
X100520665Y-61366404D01*
X100845515Y-61231847D01*
X101137871Y-61036500D01*
X101386500Y-60787871D01*
X101581847Y-60495515D01*
X101716404Y-60170665D01*
X101785000Y-59825807D01*
X101785000Y-59474193D01*
X101716404Y-59129335D01*
X101581847Y-58804485D01*
X101386500Y-58512129D01*
X101137871Y-58263500D01*
X100845515Y-58068153D01*
X100520665Y-57933596D01*
X100175807Y-57865000D01*
X99824193Y-57865000D01*
X99479335Y-57933596D01*
X99154485Y-58068153D01*
X98862129Y-58263500D01*
X98613500Y-58512129D01*
X98418153Y-58804485D01*
X98283596Y-59129335D01*
X98215000Y-59474193D01*
X98215000Y-59825807D01*
X98257175Y-60037838D01*
X98092089Y-60005000D01*
X98034421Y-60005000D01*
X97999068Y-59827271D01*
X97928586Y-59657111D01*
X97826262Y-59503972D01*
X97696028Y-59373738D01*
X97542889Y-59271414D01*
X97372729Y-59200932D01*
X97192089Y-59165000D01*
X97007911Y-59165000D01*
X96827271Y-59200932D01*
X96657111Y-59271414D01*
X96503972Y-59373738D01*
X96373738Y-59503972D01*
X96271414Y-59657111D01*
X96200932Y-59827271D01*
X96165000Y-60007911D01*
X89195712Y-60007911D01*
X89126262Y-59903972D01*
X88996028Y-59773738D01*
X88842889Y-59671414D01*
X88672729Y-59600932D01*
X88492089Y-59565000D01*
X88307911Y-59565000D01*
X88127271Y-59600932D01*
X87957111Y-59671414D01*
X87835000Y-59753006D01*
X87835000Y-59607911D01*
X87799068Y-59427271D01*
X87728586Y-59257111D01*
X87626262Y-59103972D01*
X87496028Y-58973738D01*
X87342889Y-58871414D01*
X87172729Y-58800932D01*
X86992089Y-58765000D01*
X86807911Y-58765000D01*
X86627271Y-58800932D01*
X86457111Y-58871414D01*
X86303972Y-58973738D01*
X86173738Y-59103972D01*
X86071414Y-59257111D01*
X86000932Y-59427271D01*
X85965000Y-59607911D01*
X85965000Y-59792089D01*
X86000932Y-59972729D01*
X86071414Y-60142889D01*
X86173738Y-60296028D01*
X86177710Y-60300000D01*
X86073738Y-60403972D01*
X85971414Y-60557111D01*
X85900932Y-60727271D01*
X85865000Y-60907911D01*
X85491049Y-60907911D01*
X85428586Y-60757111D01*
X85326262Y-60603972D01*
X85196028Y-60473738D01*
X85042889Y-60371414D01*
X84872729Y-60300932D01*
X84780564Y-60282599D01*
X84728586Y-60157111D01*
X84626262Y-60003972D01*
X84496028Y-59873738D01*
X84342889Y-59771414D01*
X84172729Y-59700932D01*
X83992089Y-59665000D01*
X83807911Y-59665000D01*
X83627271Y-59700932D01*
X83457111Y-59771414D01*
X83303972Y-59873738D01*
X83173738Y-60003972D01*
X83071414Y-60157111D01*
X83000932Y-60327271D01*
X82965000Y-60507911D01*
X80149628Y-60507911D01*
X80128586Y-60457111D01*
X80026262Y-60303972D01*
X79896028Y-60173738D01*
X79742889Y-60071414D01*
X79572729Y-60000932D01*
X79392089Y-59965000D01*
X79207911Y-59965000D01*
X79027271Y-60000932D01*
X78857111Y-60071414D01*
X78703972Y-60173738D01*
X78573738Y-60303972D01*
X78471414Y-60457111D01*
X78400932Y-60627271D01*
X78365000Y-60807911D01*
X75010000Y-60807911D01*
X75010000Y-56607911D01*
X77565000Y-56607911D01*
X77565000Y-56792089D01*
X77600932Y-56972729D01*
X77671414Y-57142889D01*
X77773738Y-57296028D01*
X77903972Y-57426262D01*
X77972176Y-57471834D01*
X77965000Y-57507911D01*
X77965000Y-57692089D01*
X77989734Y-57816434D01*
X77903972Y-57873738D01*
X77773738Y-58003972D01*
X77671414Y-58157111D01*
X77600932Y-58327271D01*
X77565000Y-58507911D01*
X77565000Y-58692089D01*
X77600932Y-58872729D01*
X77671414Y-59042889D01*
X77773738Y-59196028D01*
X77903972Y-59326262D01*
X78057111Y-59428586D01*
X78227271Y-59499068D01*
X78407911Y-59535000D01*
X78592089Y-59535000D01*
X78772729Y-59499068D01*
X78942889Y-59428586D01*
X79096028Y-59326262D01*
X79226262Y-59196028D01*
X79328586Y-59042889D01*
X79399068Y-58872729D01*
X79435000Y-58692089D01*
X79435000Y-58507911D01*
X79410266Y-58383566D01*
X79496028Y-58326262D01*
X79626262Y-58196028D01*
X79728586Y-58042889D01*
X79799068Y-57872729D01*
X79835000Y-57692089D01*
X79835000Y-57507911D01*
X89465000Y-57507911D01*
X89465000Y-57692089D01*
X89500932Y-57872729D01*
X89571414Y-58042889D01*
X89673738Y-58196028D01*
X89803972Y-58326262D01*
X89957111Y-58428586D01*
X90127271Y-58499068D01*
X90307911Y-58535000D01*
X90492089Y-58535000D01*
X90672729Y-58499068D01*
X90842889Y-58428586D01*
X90996028Y-58326262D01*
X91126262Y-58196028D01*
X91228586Y-58042889D01*
X91299068Y-57872729D01*
X91312626Y-57804568D01*
X91373738Y-57896028D01*
X91503972Y-58026262D01*
X91657111Y-58128586D01*
X91827271Y-58199068D01*
X92007911Y-58235000D01*
X92192089Y-58235000D01*
X92372729Y-58199068D01*
X92542889Y-58128586D01*
X92696028Y-58026262D01*
X92826262Y-57896028D01*
X92928586Y-57742889D01*
X92999068Y-57572729D01*
X93035000Y-57392089D01*
X93035000Y-57207911D01*
X92999068Y-57027271D01*
X92928586Y-56857111D01*
X92826262Y-56703972D01*
X92696028Y-56573738D01*
X92542889Y-56471414D01*
X92389578Y-56407911D01*
X109165000Y-56407911D01*
X109165000Y-56592089D01*
X109200932Y-56772729D01*
X109271414Y-56942889D01*
X109373738Y-57096028D01*
X109503972Y-57226262D01*
X109657111Y-57328586D01*
X109827271Y-57399068D01*
X110007911Y-57435000D01*
X110192089Y-57435000D01*
X110372729Y-57399068D01*
X110542889Y-57328586D01*
X110696028Y-57226262D01*
X110826262Y-57096028D01*
X110928586Y-56942889D01*
X110984495Y-56807911D01*
X111365000Y-56807911D01*
X111365000Y-56992089D01*
X111400932Y-57172729D01*
X111471414Y-57342889D01*
X111573738Y-57496028D01*
X111703972Y-57626262D01*
X111857111Y-57728586D01*
X112027271Y-57799068D01*
X112207911Y-57835000D01*
X112392089Y-57835000D01*
X112572729Y-57799068D01*
X112742889Y-57728586D01*
X112896028Y-57626262D01*
X113026262Y-57496028D01*
X113128586Y-57342889D01*
X113199068Y-57172729D01*
X113235000Y-56992089D01*
X113235000Y-56807911D01*
X117365000Y-56807911D01*
X117365000Y-56992089D01*
X117400932Y-57172729D01*
X117471414Y-57342889D01*
X117573738Y-57496028D01*
X117703972Y-57626262D01*
X117857111Y-57728586D01*
X118027271Y-57799068D01*
X118207911Y-57835000D01*
X118392089Y-57835000D01*
X118572729Y-57799068D01*
X118742889Y-57728586D01*
X118896028Y-57626262D01*
X119026262Y-57496028D01*
X119128586Y-57342889D01*
X119199068Y-57172729D01*
X119235000Y-56992089D01*
X119235000Y-56807911D01*
X119199068Y-56627271D01*
X119128586Y-56457111D01*
X119026262Y-56303972D01*
X118896028Y-56173738D01*
X118742889Y-56071414D01*
X118572729Y-56000932D01*
X118392089Y-55965000D01*
X118207911Y-55965000D01*
X118027271Y-56000932D01*
X117857111Y-56071414D01*
X117703972Y-56173738D01*
X117573738Y-56303972D01*
X117471414Y-56457111D01*
X117400932Y-56627271D01*
X117365000Y-56807911D01*
X113235000Y-56807911D01*
X113199068Y-56627271D01*
X113128586Y-56457111D01*
X113026262Y-56303972D01*
X112896028Y-56173738D01*
X112742889Y-56071414D01*
X112572729Y-56000932D01*
X112392089Y-55965000D01*
X112207911Y-55965000D01*
X112027271Y-56000932D01*
X111857111Y-56071414D01*
X111703972Y-56173738D01*
X111573738Y-56303972D01*
X111471414Y-56457111D01*
X111400932Y-56627271D01*
X111365000Y-56807911D01*
X110984495Y-56807911D01*
X110999068Y-56772729D01*
X111035000Y-56592089D01*
X111035000Y-56407911D01*
X110999068Y-56227271D01*
X110928586Y-56057111D01*
X110826262Y-55903972D01*
X110696028Y-55773738D01*
X110597520Y-55707917D01*
X112965000Y-55707917D01*
X112965000Y-55892095D01*
X113000932Y-56072735D01*
X113071414Y-56242895D01*
X113173738Y-56396034D01*
X113303972Y-56526268D01*
X113457111Y-56628592D01*
X113627271Y-56699074D01*
X113807911Y-56735006D01*
X113992089Y-56735006D01*
X114172729Y-56699074D01*
X114342889Y-56628592D01*
X114496028Y-56526268D01*
X114626262Y-56396034D01*
X114728586Y-56242895D01*
X114799068Y-56072735D01*
X114835000Y-55892095D01*
X114835000Y-55707917D01*
X114799068Y-55527277D01*
X114728586Y-55357117D01*
X114626262Y-55203978D01*
X114496028Y-55073744D01*
X114342889Y-54971420D01*
X114172729Y-54900938D01*
X113992089Y-54865006D01*
X113807911Y-54865006D01*
X113627271Y-54900938D01*
X113457111Y-54971420D01*
X113303972Y-55073744D01*
X113173738Y-55203978D01*
X113071414Y-55357117D01*
X113000932Y-55527277D01*
X112965000Y-55707917D01*
X110597520Y-55707917D01*
X110542889Y-55671414D01*
X110372729Y-55600932D01*
X110192089Y-55565000D01*
X110007911Y-55565000D01*
X109827271Y-55600932D01*
X109657111Y-55671414D01*
X109503972Y-55773738D01*
X109373738Y-55903972D01*
X109271414Y-56057111D01*
X109200932Y-56227271D01*
X109165000Y-56407911D01*
X92389578Y-56407911D01*
X92372729Y-56400932D01*
X92192089Y-56365000D01*
X92007911Y-56365000D01*
X91827271Y-56400932D01*
X91657111Y-56471414D01*
X91503972Y-56573738D01*
X91373738Y-56703972D01*
X91271414Y-56857111D01*
X91200932Y-57027271D01*
X91187374Y-57095432D01*
X91126262Y-57003972D01*
X90996028Y-56873738D01*
X90842889Y-56771414D01*
X90672729Y-56700932D01*
X90492089Y-56665000D01*
X90307911Y-56665000D01*
X90127271Y-56700932D01*
X89957111Y-56771414D01*
X89803972Y-56873738D01*
X89673738Y-57003972D01*
X89571414Y-57157111D01*
X89500932Y-57327271D01*
X89465000Y-57507911D01*
X79835000Y-57507911D01*
X79799068Y-57327271D01*
X79728586Y-57157111D01*
X79626262Y-57003972D01*
X79496028Y-56873738D01*
X79427824Y-56828166D01*
X79435000Y-56792089D01*
X79435000Y-56667040D01*
X79496028Y-56626262D01*
X79626262Y-56496028D01*
X79728586Y-56342889D01*
X79799068Y-56172729D01*
X79835000Y-55992089D01*
X79835000Y-55807911D01*
X79799068Y-55627271D01*
X79728586Y-55457111D01*
X79626262Y-55303972D01*
X79496028Y-55173738D01*
X79397511Y-55107911D01*
X98465001Y-55107911D01*
X98465001Y-55292089D01*
X98500933Y-55472729D01*
X98571415Y-55642889D01*
X98673739Y-55796028D01*
X98803973Y-55926262D01*
X98957112Y-56028586D01*
X99127272Y-56099068D01*
X99307912Y-56135000D01*
X99492090Y-56135000D01*
X99672730Y-56099068D01*
X99842890Y-56028586D01*
X99996029Y-55926262D01*
X100126263Y-55796028D01*
X100228587Y-55642889D01*
X100299069Y-55472729D01*
X100335001Y-55292089D01*
X100335001Y-55107911D01*
X100565000Y-55107911D01*
X100565000Y-55292089D01*
X100600932Y-55472729D01*
X100671414Y-55642889D01*
X100773738Y-55796028D01*
X100903972Y-55926262D01*
X101057111Y-56028586D01*
X101227271Y-56099068D01*
X101407911Y-56135000D01*
X101592089Y-56135000D01*
X101772729Y-56099068D01*
X101942889Y-56028586D01*
X102096028Y-55926262D01*
X102226262Y-55796028D01*
X102328586Y-55642889D01*
X102399068Y-55472729D01*
X102435000Y-55292089D01*
X102435000Y-55207911D01*
X102864994Y-55207911D01*
X102864994Y-55392089D01*
X102900926Y-55572729D01*
X102971408Y-55742889D01*
X103073732Y-55896028D01*
X103203966Y-56026262D01*
X103357105Y-56128586D01*
X103527265Y-56199068D01*
X103707905Y-56235000D01*
X103892083Y-56235000D01*
X104072723Y-56199068D01*
X104242883Y-56128586D01*
X104396022Y-56026262D01*
X104526256Y-55896028D01*
X104628580Y-55742889D01*
X104699062Y-55572729D01*
X104734994Y-55392089D01*
X104734994Y-55207911D01*
X104699062Y-55027271D01*
X104679119Y-54979123D01*
X104727271Y-54999068D01*
X104907911Y-55035000D01*
X105092089Y-55035000D01*
X105272729Y-54999068D01*
X105442889Y-54928586D01*
X105596028Y-54826262D01*
X105726262Y-54696028D01*
X105828586Y-54542889D01*
X105850004Y-54491181D01*
X105871422Y-54542889D01*
X105973746Y-54696028D01*
X106103980Y-54826262D01*
X106257119Y-54928586D01*
X106427279Y-54999068D01*
X106607919Y-55035000D01*
X106792097Y-55035000D01*
X106972737Y-54999068D01*
X107142897Y-54928586D01*
X107296036Y-54826262D01*
X107426270Y-54696028D01*
X107528594Y-54542889D01*
X107599076Y-54372729D01*
X107635008Y-54192089D01*
X107635008Y-54107911D01*
X119265000Y-54107911D01*
X119265000Y-54292089D01*
X119300932Y-54472729D01*
X119371414Y-54642889D01*
X119473738Y-54796028D01*
X119603972Y-54926262D01*
X119639498Y-54950000D01*
X119603972Y-54973738D01*
X119473738Y-55103972D01*
X119371414Y-55257111D01*
X119300932Y-55427271D01*
X119265000Y-55607911D01*
X119265000Y-55792089D01*
X119300932Y-55972729D01*
X119371414Y-56142889D01*
X119473738Y-56296028D01*
X119603972Y-56426262D01*
X119757111Y-56528586D01*
X119927271Y-56599068D01*
X120107911Y-56635000D01*
X120292089Y-56635000D01*
X120472729Y-56599068D01*
X120642889Y-56528586D01*
X120796028Y-56426262D01*
X120926262Y-56296028D01*
X121028586Y-56142889D01*
X121099068Y-55972729D01*
X121135000Y-55792089D01*
X121135000Y-55607911D01*
X121099068Y-55427271D01*
X121028586Y-55257111D01*
X120926262Y-55103972D01*
X120796028Y-54973738D01*
X120760502Y-54950000D01*
X120796028Y-54926262D01*
X120926262Y-54796028D01*
X121028586Y-54642889D01*
X121099068Y-54472729D01*
X121135000Y-54292089D01*
X121135000Y-54107911D01*
X121099068Y-53927271D01*
X121028586Y-53757111D01*
X120926262Y-53603972D01*
X120796028Y-53473738D01*
X120642889Y-53371414D01*
X120472729Y-53300932D01*
X120292089Y-53265000D01*
X120107911Y-53265000D01*
X119927271Y-53300932D01*
X119757111Y-53371414D01*
X119603972Y-53473738D01*
X119473738Y-53603972D01*
X119371414Y-53757111D01*
X119300932Y-53927271D01*
X119265000Y-54107911D01*
X107635008Y-54107911D01*
X107635008Y-54007911D01*
X107599076Y-53827271D01*
X107528594Y-53657111D01*
X107426270Y-53503972D01*
X107422290Y-53499992D01*
X107426254Y-53496028D01*
X107528578Y-53342889D01*
X107599060Y-53172729D01*
X107634992Y-52992089D01*
X107634992Y-52807911D01*
X107599060Y-52627271D01*
X107528578Y-52457111D01*
X107490422Y-52400006D01*
X107528586Y-52342889D01*
X107599068Y-52172729D01*
X107611961Y-52107911D01*
X113965000Y-52107911D01*
X113965000Y-52292089D01*
X114000932Y-52472729D01*
X114071414Y-52642889D01*
X114173738Y-52796028D01*
X114303972Y-52926262D01*
X114457111Y-53028586D01*
X114627271Y-53099068D01*
X114807911Y-53135000D01*
X114992089Y-53135000D01*
X115172729Y-53099068D01*
X115342889Y-53028586D01*
X115496028Y-52926262D01*
X115626262Y-52796028D01*
X115728586Y-52642889D01*
X115799068Y-52472729D01*
X115835000Y-52292089D01*
X115835000Y-52107911D01*
X115799068Y-51927271D01*
X115728586Y-51757111D01*
X115626262Y-51603972D01*
X115496028Y-51473738D01*
X115342889Y-51371414D01*
X115172729Y-51300932D01*
X114992089Y-51265000D01*
X114807911Y-51265000D01*
X114627271Y-51300932D01*
X114457111Y-51371414D01*
X114303972Y-51473738D01*
X114173738Y-51603972D01*
X114071414Y-51757111D01*
X114000932Y-51927271D01*
X113965000Y-52107911D01*
X107611961Y-52107911D01*
X107635000Y-51992089D01*
X107635000Y-51807911D01*
X107599068Y-51627271D01*
X107528586Y-51457111D01*
X107426262Y-51303972D01*
X107296028Y-51173738D01*
X107142889Y-51071414D01*
X106972729Y-51000932D01*
X106792089Y-50965000D01*
X106607911Y-50965000D01*
X106427271Y-51000932D01*
X106257111Y-51071414D01*
X106103972Y-51173738D01*
X105973738Y-51303972D01*
X105871414Y-51457111D01*
X105800932Y-51627271D01*
X105765000Y-51807911D01*
X105765000Y-51992089D01*
X105800932Y-52172729D01*
X105871414Y-52342889D01*
X105909570Y-52399994D01*
X105899996Y-52414323D01*
X105826262Y-52303972D01*
X105696028Y-52173738D01*
X105542889Y-52071414D01*
X105372729Y-52000932D01*
X105192089Y-51965000D01*
X105007911Y-51965000D01*
X104827271Y-52000932D01*
X104657111Y-52071414D01*
X104503972Y-52173738D01*
X104373738Y-52303972D01*
X104271414Y-52457111D01*
X104200932Y-52627271D01*
X104165000Y-52807911D01*
X104165000Y-52992089D01*
X104200932Y-53172729D01*
X104271414Y-53342889D01*
X104336866Y-53440844D01*
X104273738Y-53503972D01*
X104171414Y-53657111D01*
X104100932Y-53827271D01*
X104065000Y-54007911D01*
X104065000Y-54192089D01*
X104100932Y-54372729D01*
X104120875Y-54420877D01*
X104072723Y-54400932D01*
X103892083Y-54365000D01*
X103707905Y-54365000D01*
X103527265Y-54400932D01*
X103357105Y-54471414D01*
X103203966Y-54573738D01*
X103073732Y-54703972D01*
X102971408Y-54857111D01*
X102900926Y-55027271D01*
X102864994Y-55207911D01*
X102435000Y-55207911D01*
X102435000Y-55107911D01*
X102399068Y-54927271D01*
X102328586Y-54757111D01*
X102226262Y-54603972D01*
X102096028Y-54473738D01*
X101942889Y-54371414D01*
X101772729Y-54300932D01*
X101592089Y-54265000D01*
X101407911Y-54265000D01*
X101227271Y-54300932D01*
X101057111Y-54371414D01*
X100903972Y-54473738D01*
X100773738Y-54603972D01*
X100671414Y-54757111D01*
X100600932Y-54927271D01*
X100565000Y-55107911D01*
X100335001Y-55107911D01*
X100299069Y-54927271D01*
X100228587Y-54757111D01*
X100126263Y-54603972D01*
X99996029Y-54473738D01*
X99842890Y-54371414D01*
X99672730Y-54300932D01*
X99492090Y-54265000D01*
X99307912Y-54265000D01*
X99127272Y-54300932D01*
X98957112Y-54371414D01*
X98803973Y-54473738D01*
X98673739Y-54603972D01*
X98571415Y-54757111D01*
X98500933Y-54927271D01*
X98465001Y-55107911D01*
X79397511Y-55107911D01*
X79342889Y-55071414D01*
X79172729Y-55000932D01*
X78992089Y-54965000D01*
X78807911Y-54965000D01*
X78627271Y-55000932D01*
X78457111Y-55071414D01*
X78303972Y-55173738D01*
X78173738Y-55303972D01*
X78071414Y-55457111D01*
X78000932Y-55627271D01*
X77965000Y-55807911D01*
X77965000Y-55932960D01*
X77903972Y-55973738D01*
X77773738Y-56103972D01*
X77671414Y-56257111D01*
X77600932Y-56427271D01*
X77565000Y-56607911D01*
X75010000Y-56607911D01*
X75010000Y-53107911D01*
X94965000Y-53107911D01*
X94965000Y-53292089D01*
X95000932Y-53472729D01*
X95071414Y-53642889D01*
X95173738Y-53796028D01*
X95303972Y-53926262D01*
X95457111Y-54028586D01*
X95627271Y-54099068D01*
X95807911Y-54135000D01*
X95992089Y-54135000D01*
X96172729Y-54099068D01*
X96342889Y-54028586D01*
X96496028Y-53926262D01*
X96626262Y-53796028D01*
X96728586Y-53642889D01*
X96799068Y-53472729D01*
X96835000Y-53292089D01*
X96835000Y-53107911D01*
X96799068Y-52927271D01*
X96728586Y-52757111D01*
X96626262Y-52603972D01*
X96496028Y-52473738D01*
X96342889Y-52371414D01*
X96172729Y-52300932D01*
X95992089Y-52265000D01*
X95807911Y-52265000D01*
X95627271Y-52300932D01*
X95457111Y-52371414D01*
X95303972Y-52473738D01*
X95173738Y-52603972D01*
X95071414Y-52757111D01*
X95000932Y-52927271D01*
X94965000Y-53107911D01*
X75010000Y-53107911D01*
X75010000Y-50407911D01*
X86165000Y-50407911D01*
X86165000Y-50592089D01*
X86200932Y-50772729D01*
X86271414Y-50942889D01*
X86373738Y-51096028D01*
X86503972Y-51226262D01*
X86657111Y-51328586D01*
X86827271Y-51399068D01*
X87007911Y-51435000D01*
X87192089Y-51435000D01*
X87372729Y-51399068D01*
X87542889Y-51328586D01*
X87573831Y-51307911D01*
X89965000Y-51307911D01*
X89965000Y-51492089D01*
X90000932Y-51672729D01*
X90071414Y-51842889D01*
X90173738Y-51996028D01*
X90303972Y-52126262D01*
X90457111Y-52228586D01*
X90627271Y-52299068D01*
X90807911Y-52335000D01*
X90992089Y-52335000D01*
X91172729Y-52299068D01*
X91342889Y-52228586D01*
X91400000Y-52190426D01*
X91457111Y-52228586D01*
X91627271Y-52299068D01*
X91807911Y-52335000D01*
X91992089Y-52335000D01*
X92172729Y-52299068D01*
X92342889Y-52228586D01*
X92400000Y-52190426D01*
X92457111Y-52228586D01*
X92627271Y-52299068D01*
X92807911Y-52335000D01*
X92992089Y-52335000D01*
X93172729Y-52299068D01*
X93342889Y-52228586D01*
X93400000Y-52190426D01*
X93457111Y-52228586D01*
X93627271Y-52299068D01*
X93807911Y-52335000D01*
X93992089Y-52335000D01*
X94172729Y-52299068D01*
X94342889Y-52228586D01*
X94496028Y-52126262D01*
X94626262Y-51996028D01*
X94685139Y-51907911D01*
X98365000Y-51907911D01*
X98365000Y-52092089D01*
X98400932Y-52272729D01*
X98471414Y-52442889D01*
X98573738Y-52596028D01*
X98703972Y-52726262D01*
X98857111Y-52828586D01*
X99027271Y-52899068D01*
X99207911Y-52935000D01*
X99392089Y-52935000D01*
X99572729Y-52899068D01*
X99742889Y-52828586D01*
X99896028Y-52726262D01*
X99900000Y-52722290D01*
X99903972Y-52726262D01*
X100057111Y-52828586D01*
X100227271Y-52899068D01*
X100407911Y-52935000D01*
X100592089Y-52935000D01*
X100772729Y-52899068D01*
X100942889Y-52828586D01*
X101096028Y-52726262D01*
X101100000Y-52722290D01*
X101103972Y-52726262D01*
X101257111Y-52828586D01*
X101427271Y-52899068D01*
X101607911Y-52935000D01*
X101792089Y-52935000D01*
X101972729Y-52899068D01*
X102142889Y-52828586D01*
X102296028Y-52726262D01*
X102426262Y-52596028D01*
X102528586Y-52442889D01*
X102599068Y-52272729D01*
X102635000Y-52092089D01*
X102635000Y-51907911D01*
X102599068Y-51727271D01*
X102528586Y-51557111D01*
X102426262Y-51403972D01*
X102296028Y-51273738D01*
X102142889Y-51171414D01*
X101972729Y-51100932D01*
X101792089Y-51065000D01*
X101607911Y-51065000D01*
X101427271Y-51100932D01*
X101257111Y-51171414D01*
X101103972Y-51273738D01*
X101100000Y-51277710D01*
X101096028Y-51273738D01*
X100942889Y-51171414D01*
X100772729Y-51100932D01*
X100592089Y-51065000D01*
X100407911Y-51065000D01*
X100227271Y-51100932D01*
X100057111Y-51171414D01*
X99903972Y-51273738D01*
X99900000Y-51277710D01*
X99896028Y-51273738D01*
X99742889Y-51171414D01*
X99572729Y-51100932D01*
X99392089Y-51065000D01*
X99207911Y-51065000D01*
X99027271Y-51100932D01*
X98857111Y-51171414D01*
X98703972Y-51273738D01*
X98573738Y-51403972D01*
X98471414Y-51557111D01*
X98400932Y-51727271D01*
X98365000Y-51907911D01*
X94685139Y-51907911D01*
X94728586Y-51842889D01*
X94799068Y-51672729D01*
X94835000Y-51492089D01*
X94835000Y-51307911D01*
X94799068Y-51127271D01*
X94728586Y-50957111D01*
X94626262Y-50803972D01*
X94496028Y-50673738D01*
X94342889Y-50571414D01*
X94172729Y-50500932D01*
X93992089Y-50465000D01*
X93807911Y-50465000D01*
X93627271Y-50500932D01*
X93457111Y-50571414D01*
X93400000Y-50609574D01*
X93342889Y-50571414D01*
X93172729Y-50500932D01*
X92992089Y-50465000D01*
X92807911Y-50465000D01*
X92627271Y-50500932D01*
X92457111Y-50571414D01*
X92400000Y-50609574D01*
X92342889Y-50571414D01*
X92172729Y-50500932D01*
X91992089Y-50465000D01*
X91807911Y-50465000D01*
X91627271Y-50500932D01*
X91457111Y-50571414D01*
X91400000Y-50609574D01*
X91342889Y-50571414D01*
X91172729Y-50500932D01*
X90992089Y-50465000D01*
X90807911Y-50465000D01*
X90627271Y-50500932D01*
X90457111Y-50571414D01*
X90303972Y-50673738D01*
X90173738Y-50803972D01*
X90071414Y-50957111D01*
X90000932Y-51127271D01*
X89965000Y-51307911D01*
X87573831Y-51307911D01*
X87696028Y-51226262D01*
X87826262Y-51096028D01*
X87928586Y-50942889D01*
X87999068Y-50772729D01*
X88035000Y-50592089D01*
X88035000Y-50407911D01*
X87999068Y-50227271D01*
X87928586Y-50057111D01*
X87826262Y-49903972D01*
X87696028Y-49773738D01*
X87542889Y-49671414D01*
X87372729Y-49600932D01*
X87192089Y-49565000D01*
X87007911Y-49565000D01*
X86827271Y-49600932D01*
X86657111Y-49671414D01*
X86503972Y-49773738D01*
X86373738Y-49903972D01*
X86271414Y-50057111D01*
X86200932Y-50227271D01*
X86165000Y-50407911D01*
X75010000Y-50407911D01*
X75010000Y-47907911D01*
X83565000Y-47907911D01*
X83565000Y-48092089D01*
X83600932Y-48272729D01*
X83671414Y-48442889D01*
X83773738Y-48596028D01*
X83903972Y-48726262D01*
X84057111Y-48828586D01*
X84227271Y-48899068D01*
X84407911Y-48935000D01*
X84592089Y-48935000D01*
X84772729Y-48899068D01*
X84942889Y-48828586D01*
X85096028Y-48726262D01*
X85226262Y-48596028D01*
X85328586Y-48442889D01*
X85399068Y-48272729D01*
X85435000Y-48092089D01*
X85435000Y-47907911D01*
X91465000Y-47907911D01*
X91465000Y-48092089D01*
X91500932Y-48272729D01*
X91571414Y-48442889D01*
X91673738Y-48596028D01*
X91803972Y-48726262D01*
X91957111Y-48828586D01*
X92127271Y-48899068D01*
X92307911Y-48935000D01*
X92492089Y-48935000D01*
X92672729Y-48899068D01*
X92842889Y-48828586D01*
X92996028Y-48726262D01*
X93114379Y-48607911D01*
X98765000Y-48607911D01*
X98765000Y-48792089D01*
X98800932Y-48972729D01*
X98871414Y-49142889D01*
X98973738Y-49296028D01*
X99103972Y-49426262D01*
X99257111Y-49528586D01*
X99427271Y-49599068D01*
X99607911Y-49635000D01*
X99792089Y-49635000D01*
X99972729Y-49599068D01*
X100142889Y-49528586D01*
X100296028Y-49426262D01*
X100350000Y-49372290D01*
X100403972Y-49426262D01*
X100557111Y-49528586D01*
X100727271Y-49599068D01*
X100907911Y-49635000D01*
X101092089Y-49635000D01*
X101228272Y-49607911D01*
X119265000Y-49607911D01*
X119265000Y-49792089D01*
X119300932Y-49972729D01*
X119371414Y-50142889D01*
X119473738Y-50296028D01*
X119603972Y-50426262D01*
X119639498Y-50450000D01*
X119603972Y-50473738D01*
X119473738Y-50603972D01*
X119371414Y-50757111D01*
X119300932Y-50927271D01*
X119265000Y-51107911D01*
X119265000Y-51292089D01*
X119300932Y-51472729D01*
X119371414Y-51642889D01*
X119473738Y-51796028D01*
X119603972Y-51926262D01*
X119757111Y-52028586D01*
X119927271Y-52099068D01*
X120107911Y-52135000D01*
X120292089Y-52135000D01*
X120472729Y-52099068D01*
X120642889Y-52028586D01*
X120796028Y-51926262D01*
X120926262Y-51796028D01*
X121028586Y-51642889D01*
X121099068Y-51472729D01*
X121135000Y-51292089D01*
X121135000Y-51107911D01*
X121099068Y-50927271D01*
X121028586Y-50757111D01*
X120926262Y-50603972D01*
X120796028Y-50473738D01*
X120760502Y-50450000D01*
X120796028Y-50426262D01*
X120926262Y-50296028D01*
X121028586Y-50142889D01*
X121099068Y-49972729D01*
X121135000Y-49792089D01*
X121135000Y-49607911D01*
X121099068Y-49427271D01*
X121028586Y-49257111D01*
X120926262Y-49103972D01*
X120796028Y-48973738D01*
X120642889Y-48871414D01*
X120472729Y-48800932D01*
X120292089Y-48765000D01*
X120107911Y-48765000D01*
X119927271Y-48800932D01*
X119757111Y-48871414D01*
X119603972Y-48973738D01*
X119473738Y-49103972D01*
X119371414Y-49257111D01*
X119300932Y-49427271D01*
X119265000Y-49607911D01*
X101228272Y-49607911D01*
X101272729Y-49599068D01*
X101442889Y-49528586D01*
X101596028Y-49426262D01*
X101726262Y-49296028D01*
X101828586Y-49142889D01*
X101899068Y-48972729D01*
X101935000Y-48792089D01*
X101935000Y-48607911D01*
X101899068Y-48427271D01*
X101828586Y-48257111D01*
X101726262Y-48103972D01*
X101596028Y-47973738D01*
X101442889Y-47871414D01*
X101272729Y-47800932D01*
X101092089Y-47765000D01*
X100907911Y-47765000D01*
X100727271Y-47800932D01*
X100557111Y-47871414D01*
X100403972Y-47973738D01*
X100350000Y-48027710D01*
X100296028Y-47973738D01*
X100142889Y-47871414D01*
X99972729Y-47800932D01*
X99792089Y-47765000D01*
X99607911Y-47765000D01*
X99427271Y-47800932D01*
X99257111Y-47871414D01*
X99103972Y-47973738D01*
X98973738Y-48103972D01*
X98871414Y-48257111D01*
X98800932Y-48427271D01*
X98765000Y-48607911D01*
X93114379Y-48607911D01*
X93126262Y-48596028D01*
X93228586Y-48442889D01*
X93299068Y-48272729D01*
X93335000Y-48092089D01*
X93335000Y-47907911D01*
X93299068Y-47727271D01*
X93228586Y-47557111D01*
X93126262Y-47403972D01*
X92996028Y-47273738D01*
X92842889Y-47171414D01*
X92672729Y-47100932D01*
X92492089Y-47065000D01*
X92307911Y-47065000D01*
X92127271Y-47100932D01*
X91957111Y-47171414D01*
X91803972Y-47273738D01*
X91673738Y-47403972D01*
X91571414Y-47557111D01*
X91500932Y-47727271D01*
X91465000Y-47907911D01*
X85435000Y-47907911D01*
X85399068Y-47727271D01*
X85328586Y-47557111D01*
X85226262Y-47403972D01*
X85096028Y-47273738D01*
X84942889Y-47171414D01*
X84772729Y-47100932D01*
X84592089Y-47065000D01*
X84407911Y-47065000D01*
X84227271Y-47100932D01*
X84057111Y-47171414D01*
X83903972Y-47273738D01*
X83773738Y-47403972D01*
X83671414Y-47557111D01*
X83600932Y-47727271D01*
X83565000Y-47907911D01*
X75010000Y-47907911D01*
X75010000Y-47007911D01*
X101465000Y-47007911D01*
X101465000Y-47192089D01*
X101500932Y-47372729D01*
X101571414Y-47542889D01*
X101673738Y-47696028D01*
X101803972Y-47826262D01*
X101957111Y-47928586D01*
X102127271Y-47999068D01*
X102307911Y-48035000D01*
X102492089Y-48035000D01*
X102672729Y-47999068D01*
X102842889Y-47928586D01*
X102940844Y-47863134D01*
X103003972Y-47926262D01*
X103157111Y-48028586D01*
X103327271Y-48099068D01*
X103507911Y-48135000D01*
X103692089Y-48135000D01*
X103872729Y-48099068D01*
X104042889Y-48028586D01*
X104196028Y-47926262D01*
X104326262Y-47796028D01*
X104428586Y-47642889D01*
X104499068Y-47472729D01*
X104535000Y-47292089D01*
X104535000Y-47107911D01*
X104499068Y-46927271D01*
X104428586Y-46757111D01*
X104326262Y-46603972D01*
X104196028Y-46473738D01*
X104042889Y-46371414D01*
X103872729Y-46300932D01*
X103692089Y-46265000D01*
X103507911Y-46265000D01*
X103327271Y-46300932D01*
X103157111Y-46371414D01*
X103059156Y-46436866D01*
X102996028Y-46373738D01*
X102842889Y-46271414D01*
X102672729Y-46200932D01*
X102492089Y-46165000D01*
X102307911Y-46165000D01*
X102127271Y-46200932D01*
X101957111Y-46271414D01*
X101803972Y-46373738D01*
X101673738Y-46503972D01*
X101571414Y-46657111D01*
X101500932Y-46827271D01*
X101465000Y-47007911D01*
X75010000Y-47007911D01*
X75010000Y-45907911D01*
X92565000Y-45907911D01*
X92565000Y-46092089D01*
X92600932Y-46272729D01*
X92671414Y-46442889D01*
X92773738Y-46596028D01*
X92903972Y-46726262D01*
X93057111Y-46828586D01*
X93227271Y-46899068D01*
X93407911Y-46935000D01*
X93592089Y-46935000D01*
X93772729Y-46899068D01*
X93942889Y-46828586D01*
X94096028Y-46726262D01*
X94226262Y-46596028D01*
X94328586Y-46442889D01*
X94399068Y-46272729D01*
X94435000Y-46092089D01*
X94435000Y-45907911D01*
X94399068Y-45727271D01*
X94328586Y-45557111D01*
X94226262Y-45403972D01*
X94096028Y-45273738D01*
X93942889Y-45171414D01*
X93772729Y-45100932D01*
X93592089Y-45065000D01*
X93407911Y-45065000D01*
X93227271Y-45100932D01*
X93057111Y-45171414D01*
X92903972Y-45273738D01*
X92773738Y-45403972D01*
X92671414Y-45557111D01*
X92600932Y-45727271D01*
X92565000Y-45907911D01*
X75010000Y-45907911D01*
X75010000Y-44407911D01*
X114065000Y-44407911D01*
X114065000Y-44592089D01*
X114100932Y-44772729D01*
X114171414Y-44942889D01*
X114273738Y-45096028D01*
X114403972Y-45226262D01*
X114557111Y-45328586D01*
X114727271Y-45399068D01*
X114907911Y-45435000D01*
X115092089Y-45435000D01*
X115272729Y-45399068D01*
X115442889Y-45328586D01*
X115596028Y-45226262D01*
X115726262Y-45096028D01*
X115828586Y-44942889D01*
X115899068Y-44772729D01*
X115935000Y-44592089D01*
X115935000Y-44507911D01*
X118465000Y-44507911D01*
X118465000Y-44692089D01*
X118500932Y-44872729D01*
X118571414Y-45042889D01*
X118673738Y-45196028D01*
X118803972Y-45326262D01*
X118957111Y-45428586D01*
X119127271Y-45499068D01*
X119307911Y-45535000D01*
X119492089Y-45535000D01*
X119672729Y-45499068D01*
X119842889Y-45428586D01*
X119996028Y-45326262D01*
X120126262Y-45196028D01*
X120228586Y-45042889D01*
X120299068Y-44872729D01*
X120335000Y-44692089D01*
X120335000Y-44507911D01*
X120299068Y-44327271D01*
X120228586Y-44157111D01*
X120126262Y-44003972D01*
X119996028Y-43873738D01*
X119842889Y-43771414D01*
X119672729Y-43700932D01*
X119492089Y-43665000D01*
X119307911Y-43665000D01*
X119127271Y-43700932D01*
X118957111Y-43771414D01*
X118803972Y-43873738D01*
X118673738Y-44003972D01*
X118571414Y-44157111D01*
X118500932Y-44327271D01*
X118465000Y-44507911D01*
X115935000Y-44507911D01*
X115935000Y-44407911D01*
X115899068Y-44227271D01*
X115828586Y-44057111D01*
X115726262Y-43903972D01*
X115596028Y-43773738D01*
X115442889Y-43671414D01*
X115272729Y-43600932D01*
X115092089Y-43565000D01*
X114907911Y-43565000D01*
X114727271Y-43600932D01*
X114557111Y-43671414D01*
X114403972Y-43773738D01*
X114273738Y-43903972D01*
X114171414Y-44057111D01*
X114100932Y-44227271D01*
X114065000Y-44407911D01*
X75010000Y-44407911D01*
X75010000Y-42207911D01*
X106165000Y-42207911D01*
X106165000Y-42392089D01*
X106200932Y-42572729D01*
X106271414Y-42742889D01*
X106373738Y-42896028D01*
X106503972Y-43026262D01*
X106657111Y-43128586D01*
X106827271Y-43199068D01*
X107007911Y-43235000D01*
X107192089Y-43235000D01*
X107372729Y-43199068D01*
X107542889Y-43128586D01*
X107696028Y-43026262D01*
X107826262Y-42896028D01*
X107928586Y-42742889D01*
X107999068Y-42572729D01*
X108035000Y-42392089D01*
X108035000Y-42207911D01*
X107999068Y-42027271D01*
X107928586Y-41857111D01*
X107826262Y-41703972D01*
X107696028Y-41573738D01*
X107542889Y-41471414D01*
X107372729Y-41400932D01*
X107192089Y-41365000D01*
X107007911Y-41365000D01*
X106827271Y-41400932D01*
X106657111Y-41471414D01*
X106503972Y-41573738D01*
X106373738Y-41703972D01*
X106271414Y-41857111D01*
X106200932Y-42027271D01*
X106165000Y-42207911D01*
X75010000Y-42207911D01*
X75010000Y-39710000D01*
X79699363Y-39710000D01*
X79603972Y-39773738D01*
G37*
X79603972Y-39773738D02*
X79473738Y-39903972D01*
X79371414Y-40057111D01*
X79300932Y-40227271D01*
X79265000Y-40407911D01*
X79265000Y-40592089D01*
X79300932Y-40772729D01*
X79371414Y-40942889D01*
X79473738Y-41096028D01*
X79603972Y-41226262D01*
X79757111Y-41328586D01*
X79927271Y-41399068D01*
X80107911Y-41435000D01*
X80292089Y-41435000D01*
X80472729Y-41399068D01*
X80642889Y-41328586D01*
X80796028Y-41226262D01*
X80926262Y-41096028D01*
X81028586Y-40942889D01*
X81099068Y-40772729D01*
X81135000Y-40592089D01*
X81135000Y-40407911D01*
X81099068Y-40227271D01*
X81028586Y-40057111D01*
X80926262Y-39903972D01*
X80796028Y-39773738D01*
X80700637Y-39710000D01*
X120990000Y-39710000D01*
X120990001Y-41565113D01*
X120986565Y-41600000D01*
X121000273Y-41739184D01*
X121040872Y-41873020D01*
X121106800Y-41996363D01*
X121195525Y-42104475D01*
X121303637Y-42193200D01*
X121426980Y-42259128D01*
X121560816Y-42299727D01*
X121665123Y-42310000D01*
X121700000Y-42313435D01*
X121734877Y-42310000D01*
X124990000Y-42310000D01*
X124990001Y-90690000D01*
X124634877Y-90690000D01*
X124600000Y-90686565D01*
X124565123Y-90690000D01*
X124460816Y-90700273D01*
X124326980Y-90740872D01*
X124203637Y-90806800D01*
X124095525Y-90895525D01*
X124006800Y-91003637D01*
X123940872Y-91126980D01*
X123900273Y-91260816D01*
X123886565Y-91400000D01*
X123890000Y-91434876D01*
X123890000Y-92373000D01*
X76110000Y-92373000D01*
X76110000Y-91434876D01*
X76113435Y-91400000D01*
X76099727Y-91260816D01*
X76072878Y-91172307D01*
X76157111Y-91228590D01*
X76327271Y-91299072D01*
X76507911Y-91335004D01*
X76692089Y-91335004D01*
X76872729Y-91299072D01*
X77042889Y-91228590D01*
X77196028Y-91126266D01*
X77326262Y-90996032D01*
X77428586Y-90842893D01*
X77499068Y-90672733D01*
X77535000Y-90492093D01*
X77535000Y-90307915D01*
X77499068Y-90127275D01*
X77428586Y-89957115D01*
X77326262Y-89803976D01*
X77196028Y-89673742D01*
X77042889Y-89571418D01*
X76872729Y-89500936D01*
X76692089Y-89465004D01*
X76507911Y-89465004D01*
X76327271Y-89500936D01*
X76157111Y-89571418D01*
X76003972Y-89673742D01*
X75873738Y-89803976D01*
X75771414Y-89957115D01*
X75700932Y-90127275D01*
X75665000Y-90307915D01*
X75665000Y-90492093D01*
X75700932Y-90672733D01*
X75745118Y-90779409D01*
X75673020Y-90740872D01*
X75539184Y-90700273D01*
X75434877Y-90690000D01*
X75400000Y-90686565D01*
X75365123Y-90690000D01*
X75010000Y-90690000D01*
X75010000Y-89307911D01*
X115965000Y-89307911D01*
X115965000Y-89492089D01*
X116000932Y-89672729D01*
X116071414Y-89842889D01*
X116173738Y-89996028D01*
X116303972Y-90126262D01*
X116457111Y-90228586D01*
X116627271Y-90299068D01*
X116807911Y-90335000D01*
X116992089Y-90335000D01*
X117172729Y-90299068D01*
X117342889Y-90228586D01*
X117496028Y-90126262D01*
X117626262Y-89996028D01*
X117728586Y-89842889D01*
X117799068Y-89672729D01*
X117835000Y-89492089D01*
X117835000Y-89307911D01*
X117799068Y-89127271D01*
X117728586Y-88957111D01*
X117626262Y-88803972D01*
X117496028Y-88673738D01*
X117342889Y-88571414D01*
X117172729Y-88500932D01*
X116992089Y-88465000D01*
X116807911Y-88465000D01*
X116627271Y-88500932D01*
X116457111Y-88571414D01*
X116303972Y-88673738D01*
X116173738Y-88803972D01*
X116071414Y-88957111D01*
X116000932Y-89127271D01*
X115965000Y-89307911D01*
X75010000Y-89307911D01*
X75010000Y-88207911D01*
X91865000Y-88207911D01*
X91865000Y-88392089D01*
X91900932Y-88572729D01*
X91971414Y-88742889D01*
X92073738Y-88896028D01*
X92203972Y-89026262D01*
X92357111Y-89128586D01*
X92527271Y-89199068D01*
X92707911Y-89235000D01*
X92892089Y-89235000D01*
X93072729Y-89199068D01*
X93242889Y-89128586D01*
X93396028Y-89026262D01*
X93526262Y-88896028D01*
X93628586Y-88742889D01*
X93699068Y-88572729D01*
X93735000Y-88392089D01*
X93735000Y-88207911D01*
X93699068Y-88027271D01*
X93628586Y-87857111D01*
X93526262Y-87703972D01*
X93396028Y-87573738D01*
X93242889Y-87471414D01*
X93072729Y-87400932D01*
X92892089Y-87365000D01*
X92707911Y-87365000D01*
X92527271Y-87400932D01*
X92357111Y-87471414D01*
X92203972Y-87573738D01*
X92073738Y-87703972D01*
X91971414Y-87857111D01*
X91900932Y-88027271D01*
X91865000Y-88207911D01*
X75010000Y-88207911D01*
X75010000Y-84907911D01*
X77765000Y-84907911D01*
X77765000Y-85092089D01*
X77800932Y-85272729D01*
X77871414Y-85442889D01*
X77973738Y-85596028D01*
X78103972Y-85726262D01*
X78257111Y-85828586D01*
X78427271Y-85899068D01*
X78607911Y-85935000D01*
X78792089Y-85935000D01*
X78928272Y-85907911D01*
X82165000Y-85907911D01*
X82165000Y-86092089D01*
X82200932Y-86272729D01*
X82271414Y-86442889D01*
X82373738Y-86596028D01*
X82503972Y-86726262D01*
X82657111Y-86828586D01*
X82827271Y-86899068D01*
X83007911Y-86935000D01*
X83192089Y-86935000D01*
X83372729Y-86899068D01*
X83542889Y-86828586D01*
X83696028Y-86726262D01*
X83826262Y-86596028D01*
X83928586Y-86442889D01*
X83999068Y-86272729D01*
X84035000Y-86092089D01*
X84035000Y-85907911D01*
X83999068Y-85727271D01*
X83928586Y-85557111D01*
X83826262Y-85403972D01*
X83696028Y-85273738D01*
X83542889Y-85171414D01*
X83372729Y-85100932D01*
X83192089Y-85065000D01*
X83007911Y-85065000D01*
X82827271Y-85100932D01*
X82657111Y-85171414D01*
X82503972Y-85273738D01*
X82373738Y-85403972D01*
X82271414Y-85557111D01*
X82200932Y-85727271D01*
X82165000Y-85907911D01*
X78928272Y-85907911D01*
X78972729Y-85899068D01*
X79142889Y-85828586D01*
X79296028Y-85726262D01*
X79426262Y-85596028D01*
X79528586Y-85442889D01*
X79599068Y-85272729D01*
X79635000Y-85092089D01*
X79635000Y-84907911D01*
X79599068Y-84727271D01*
X79528586Y-84557111D01*
X79426262Y-84403972D01*
X79296028Y-84273738D01*
X79234894Y-84232889D01*
X95765000Y-84232889D01*
X95765000Y-85067111D01*
X95927749Y-85885304D01*
X96246992Y-86656025D01*
X96710461Y-87349655D01*
X97300345Y-87939539D01*
X97993975Y-88403008D01*
X98764696Y-88722251D01*
X99582889Y-88885000D01*
X100417111Y-88885000D01*
X101235304Y-88722251D01*
X102006025Y-88403008D01*
X102699655Y-87939539D01*
X103289539Y-87349655D01*
X103718338Y-86707911D01*
X106365000Y-86707911D01*
X106365000Y-86892089D01*
X106400932Y-87072729D01*
X106471414Y-87242889D01*
X106562352Y-87378988D01*
X106500932Y-87527271D01*
X106465000Y-87707911D01*
X106465000Y-87892089D01*
X106500932Y-88072729D01*
X106571414Y-88242889D01*
X106673738Y-88396028D01*
X106803972Y-88526262D01*
X106957111Y-88628586D01*
X107127271Y-88699068D01*
X107307911Y-88735000D01*
X107492089Y-88735000D01*
X107672729Y-88699068D01*
X107842889Y-88628586D01*
X107996028Y-88526262D01*
X108126262Y-88396028D01*
X108228586Y-88242889D01*
X108284495Y-88107911D01*
X119365000Y-88107911D01*
X119365000Y-88292089D01*
X119400932Y-88472729D01*
X119471414Y-88642889D01*
X119573738Y-88796028D01*
X119703972Y-88926262D01*
X119857111Y-89028586D01*
X120027271Y-89099068D01*
X120207911Y-89135000D01*
X120392089Y-89135000D01*
X120572729Y-89099068D01*
X120742889Y-89028586D01*
X120896028Y-88926262D01*
X121026262Y-88796028D01*
X121128586Y-88642889D01*
X121199068Y-88472729D01*
X121235000Y-88292089D01*
X121235000Y-88107911D01*
X121199068Y-87927271D01*
X121128586Y-87757111D01*
X121026262Y-87603972D01*
X120896028Y-87473738D01*
X120742889Y-87371414D01*
X120572729Y-87300932D01*
X120392089Y-87265000D01*
X120207911Y-87265000D01*
X120027271Y-87300932D01*
X119857111Y-87371414D01*
X119703972Y-87473738D01*
X119573738Y-87603972D01*
X119471414Y-87757111D01*
X119400932Y-87927271D01*
X119365000Y-88107911D01*
X108284495Y-88107911D01*
X108299068Y-88072729D01*
X108335000Y-87892089D01*
X108335000Y-87707911D01*
X108299068Y-87527271D01*
X108228586Y-87357111D01*
X108137648Y-87221012D01*
X108199068Y-87072729D01*
X108235000Y-86892089D01*
X108235000Y-86707911D01*
X108199068Y-86527271D01*
X108128586Y-86357111D01*
X108026262Y-86203972D01*
X107896028Y-86073738D01*
X107742889Y-85971414D01*
X107572729Y-85900932D01*
X107392089Y-85865000D01*
X107207911Y-85865000D01*
X107027271Y-85900932D01*
X106857111Y-85971414D01*
X106703972Y-86073738D01*
X106573738Y-86203972D01*
X106471414Y-86357111D01*
X106400932Y-86527271D01*
X106365000Y-86707911D01*
X103718338Y-86707911D01*
X103753008Y-86656025D01*
X104072251Y-85885304D01*
X104235000Y-85067111D01*
X104235000Y-84232889D01*
X104072251Y-83414696D01*
X103779492Y-82707911D01*
X107765000Y-82707911D01*
X107765000Y-82892089D01*
X107800932Y-83072729D01*
X107871414Y-83242889D01*
X107973738Y-83396028D01*
X108103972Y-83526262D01*
X108257111Y-83628586D01*
X108427271Y-83699068D01*
X108607911Y-83735000D01*
X108792089Y-83735000D01*
X108972729Y-83699068D01*
X109142889Y-83628586D01*
X109173831Y-83607911D01*
X121565000Y-83607911D01*
X121565000Y-83792089D01*
X121600932Y-83972729D01*
X121671414Y-84142889D01*
X121773738Y-84296028D01*
X121903972Y-84426262D01*
X122057111Y-84528586D01*
X122227271Y-84599068D01*
X122407911Y-84635000D01*
X122592089Y-84635000D01*
X122772729Y-84599068D01*
X122942889Y-84528586D01*
X123096028Y-84426262D01*
X123226262Y-84296028D01*
X123328586Y-84142889D01*
X123399068Y-83972729D01*
X123435000Y-83792089D01*
X123435000Y-83607911D01*
X123399068Y-83427271D01*
X123328586Y-83257111D01*
X123226262Y-83103972D01*
X123096028Y-82973738D01*
X122942889Y-82871414D01*
X122772729Y-82800932D01*
X122592089Y-82765000D01*
X122407911Y-82765000D01*
X122227271Y-82800932D01*
X122057111Y-82871414D01*
X121903972Y-82973738D01*
X121773738Y-83103972D01*
X121671414Y-83257111D01*
X121600932Y-83427271D01*
X121565000Y-83607911D01*
X109173831Y-83607911D01*
X109296028Y-83526262D01*
X109426262Y-83396028D01*
X109528586Y-83242889D01*
X109599068Y-83072729D01*
X109635000Y-82892089D01*
X109635000Y-82707911D01*
X109599068Y-82527271D01*
X109549628Y-82407911D01*
X119265000Y-82407911D01*
X119265000Y-82592089D01*
X119300932Y-82772729D01*
X119371414Y-82942889D01*
X119473738Y-83096028D01*
X119603972Y-83226262D01*
X119757111Y-83328586D01*
X119927271Y-83399068D01*
X120107911Y-83435000D01*
X120292089Y-83435000D01*
X120472729Y-83399068D01*
X120642889Y-83328586D01*
X120796028Y-83226262D01*
X120926262Y-83096028D01*
X121028586Y-82942889D01*
X121099068Y-82772729D01*
X121135000Y-82592089D01*
X121135000Y-82407911D01*
X121099068Y-82227271D01*
X121028586Y-82057111D01*
X120926262Y-81903972D01*
X120796028Y-81773738D01*
X120642889Y-81671414D01*
X120472729Y-81600932D01*
X120292089Y-81565000D01*
X120107911Y-81565000D01*
X119927271Y-81600932D01*
X119757111Y-81671414D01*
X119603972Y-81773738D01*
X119473738Y-81903972D01*
X119371414Y-82057111D01*
X119300932Y-82227271D01*
X119265000Y-82407911D01*
X109549628Y-82407911D01*
X109528586Y-82357111D01*
X109426262Y-82203972D01*
X109296028Y-82073738D01*
X109142889Y-81971414D01*
X108972729Y-81900932D01*
X108792089Y-81865000D01*
X108607911Y-81865000D01*
X108427271Y-81900932D01*
X108257111Y-81971414D01*
X108103972Y-82073738D01*
X107973738Y-82203972D01*
X107871414Y-82357111D01*
X107800932Y-82527271D01*
X107765000Y-82707911D01*
X103779492Y-82707911D01*
X103753008Y-82643975D01*
X103289539Y-81950345D01*
X102699655Y-81360461D01*
X102006025Y-80896992D01*
X101235304Y-80577749D01*
X100417111Y-80415000D01*
X99582889Y-80415000D01*
X98764696Y-80577749D01*
X97993975Y-80896992D01*
X97300345Y-81360461D01*
X96710461Y-81950345D01*
X96246992Y-82643975D01*
X95927749Y-83414696D01*
X95765000Y-84232889D01*
X79234894Y-84232889D01*
X79142889Y-84171414D01*
X78972729Y-84100932D01*
X78792089Y-84065000D01*
X78607911Y-84065000D01*
X78427271Y-84100932D01*
X78257111Y-84171414D01*
X78103972Y-84273738D01*
X77973738Y-84403972D01*
X77871414Y-84557111D01*
X77800932Y-84727271D01*
X77765000Y-84907911D01*
X75010000Y-84907911D01*
X75010000Y-78507911D01*
X87565000Y-78507911D01*
X87565000Y-78692089D01*
X87600932Y-78872729D01*
X87671414Y-79042889D01*
X87773738Y-79196028D01*
X87903972Y-79326262D01*
X88057111Y-79428586D01*
X88227271Y-79499068D01*
X88372126Y-79527882D01*
X88400938Y-79672729D01*
X88471420Y-79842889D01*
X88573744Y-79996028D01*
X88703978Y-80126262D01*
X88857117Y-80228586D01*
X89027277Y-80299068D01*
X89172111Y-80327878D01*
X89200924Y-80472729D01*
X89271406Y-80642889D01*
X89373730Y-80796028D01*
X89503964Y-80926262D01*
X89657103Y-81028586D01*
X89827263Y-81099068D01*
X90007903Y-81135000D01*
X90192081Y-81135000D01*
X90372721Y-81099068D01*
X90542881Y-81028586D01*
X90696020Y-80926262D01*
X90826254Y-80796028D01*
X90928578Y-80642889D01*
X90999060Y-80472729D01*
X91034992Y-80292089D01*
X91034992Y-80107911D01*
X90999060Y-79927271D01*
X90928578Y-79757111D01*
X90826254Y-79603972D01*
X90696020Y-79473738D01*
X90542881Y-79371414D01*
X90372721Y-79300932D01*
X90227887Y-79272122D01*
X90199074Y-79127271D01*
X90128592Y-78957111D01*
X90026268Y-78803972D01*
X89896034Y-78673738D01*
X89742895Y-78571414D01*
X89589584Y-78507911D01*
X103265000Y-78507911D01*
X103265000Y-78692089D01*
X103300932Y-78872729D01*
X103371414Y-79042889D01*
X103473738Y-79196028D01*
X103603972Y-79326262D01*
X103757111Y-79428586D01*
X103865000Y-79473275D01*
X103865000Y-79492089D01*
X103900932Y-79672729D01*
X103971414Y-79842889D01*
X104073738Y-79996028D01*
X104203972Y-80126262D01*
X104357111Y-80228586D01*
X104527271Y-80299068D01*
X104707911Y-80335000D01*
X104773536Y-80335000D01*
X104800932Y-80472729D01*
X104871414Y-80642889D01*
X104973738Y-80796028D01*
X105103972Y-80926262D01*
X105257111Y-81028586D01*
X105427271Y-81099068D01*
X105607911Y-81135000D01*
X105792089Y-81135000D01*
X105972729Y-81099068D01*
X106142889Y-81028586D01*
X106296028Y-80926262D01*
X106426262Y-80796028D01*
X106528586Y-80642889D01*
X106599068Y-80472729D01*
X106635000Y-80292089D01*
X106635000Y-80107911D01*
X106599068Y-79927271D01*
X106528586Y-79757111D01*
X106426262Y-79603972D01*
X106330201Y-79507911D01*
X109765000Y-79507911D01*
X109765000Y-79692089D01*
X109800932Y-79872729D01*
X109871414Y-80042889D01*
X109973738Y-80196028D01*
X110103972Y-80326262D01*
X110257111Y-80428586D01*
X110427271Y-80499068D01*
X110607911Y-80535000D01*
X110792089Y-80535000D01*
X110972729Y-80499068D01*
X111142889Y-80428586D01*
X111296028Y-80326262D01*
X111426262Y-80196028D01*
X111528586Y-80042889D01*
X111599068Y-79872729D01*
X111635000Y-79692089D01*
X111635000Y-79507911D01*
X115865000Y-79507911D01*
X115865000Y-79692089D01*
X115900932Y-79872729D01*
X115971414Y-80042889D01*
X116073738Y-80196028D01*
X116203972Y-80326262D01*
X116357111Y-80428586D01*
X116527271Y-80499068D01*
X116707911Y-80535000D01*
X116892089Y-80535000D01*
X117072729Y-80499068D01*
X117242889Y-80428586D01*
X117396028Y-80326262D01*
X117526262Y-80196028D01*
X117628586Y-80042889D01*
X117699068Y-79872729D01*
X117735000Y-79692089D01*
X117735000Y-79507911D01*
X117699068Y-79327271D01*
X117628586Y-79157111D01*
X117526262Y-79003972D01*
X117396028Y-78873738D01*
X117242889Y-78771414D01*
X117072729Y-78700932D01*
X116892089Y-78665000D01*
X116707911Y-78665000D01*
X116527271Y-78700932D01*
X116357111Y-78771414D01*
X116203972Y-78873738D01*
X116073738Y-79003972D01*
X115971414Y-79157111D01*
X115900932Y-79327271D01*
X115865000Y-79507911D01*
X111635000Y-79507911D01*
X111599068Y-79327271D01*
X111528586Y-79157111D01*
X111426262Y-79003972D01*
X111296028Y-78873738D01*
X111142889Y-78771414D01*
X110972729Y-78700932D01*
X110792089Y-78665000D01*
X110607911Y-78665000D01*
X110427271Y-78700932D01*
X110257111Y-78771414D01*
X110103972Y-78873738D01*
X109973738Y-79003972D01*
X109871414Y-79157111D01*
X109800932Y-79327271D01*
X109765000Y-79507911D01*
X106330201Y-79507911D01*
X106296028Y-79473738D01*
X106142889Y-79371414D01*
X105972729Y-79300932D01*
X105792089Y-79265000D01*
X105726464Y-79265000D01*
X105699068Y-79127271D01*
X105628586Y-78957111D01*
X105526262Y-78803972D01*
X105396028Y-78673738D01*
X105242889Y-78571414D01*
X105135000Y-78526725D01*
X105135000Y-78507911D01*
X105099068Y-78327271D01*
X105028586Y-78157111D01*
X104926262Y-78003972D01*
X104796028Y-77873738D01*
X104642889Y-77771414D01*
X104472729Y-77700932D01*
X104292089Y-77665000D01*
X104107911Y-77665000D01*
X103927271Y-77700932D01*
X103757111Y-77771414D01*
X103603972Y-77873738D01*
X103473738Y-78003972D01*
X103371414Y-78157111D01*
X103300932Y-78327271D01*
X103265000Y-78507911D01*
X89589584Y-78507911D01*
X89572735Y-78500932D01*
X89427880Y-78472118D01*
X89399068Y-78327271D01*
X89328586Y-78157111D01*
X89226262Y-78003972D01*
X89096028Y-77873738D01*
X88942889Y-77771414D01*
X88772729Y-77700932D01*
X88592089Y-77665000D01*
X88407911Y-77665000D01*
X88227271Y-77700932D01*
X88057111Y-77771414D01*
X87903972Y-77873738D01*
X87773738Y-78003972D01*
X87671414Y-78157111D01*
X87600932Y-78327271D01*
X87565000Y-78507911D01*
X75010000Y-78507911D01*
X75010000Y-77207911D01*
X91665000Y-77207911D01*
X91665000Y-77392089D01*
X91700932Y-77572729D01*
X91771414Y-77742889D01*
X91873738Y-77896028D01*
X92003972Y-78026262D01*
X92157111Y-78128586D01*
X92327271Y-78199068D01*
X92507911Y-78235000D01*
X92692089Y-78235000D01*
X92872729Y-78199068D01*
X93042889Y-78128586D01*
X93196028Y-78026262D01*
X93326262Y-77896028D01*
X93428586Y-77742889D01*
X93499068Y-77572729D01*
X93535000Y-77392089D01*
X93535000Y-77207911D01*
X93499068Y-77027271D01*
X93449628Y-76907911D01*
X104565000Y-76907911D01*
X104565000Y-77092089D01*
X104600932Y-77272729D01*
X104671414Y-77442889D01*
X104773738Y-77596028D01*
X104903972Y-77726262D01*
X105057111Y-77828586D01*
X105227271Y-77899068D01*
X105407911Y-77935000D01*
X105592089Y-77935000D01*
X105772729Y-77899068D01*
X105942889Y-77828586D01*
X106096028Y-77726262D01*
X106226262Y-77596028D01*
X106328586Y-77442889D01*
X106399068Y-77272729D01*
X106435000Y-77092089D01*
X106435000Y-76907911D01*
X106399068Y-76727271D01*
X106328586Y-76557111D01*
X106226262Y-76403972D01*
X106096028Y-76273738D01*
X105942889Y-76171414D01*
X105772729Y-76100932D01*
X105592089Y-76065000D01*
X105407911Y-76065000D01*
X105227271Y-76100932D01*
X105057111Y-76171414D01*
X104903972Y-76273738D01*
X104773738Y-76403972D01*
X104671414Y-76557111D01*
X104600932Y-76727271D01*
X104565000Y-76907911D01*
X93449628Y-76907911D01*
X93428586Y-76857111D01*
X93326262Y-76703972D01*
X93196028Y-76573738D01*
X93042889Y-76471414D01*
X92872729Y-76400932D01*
X92692089Y-76365000D01*
X92507911Y-76365000D01*
X92327271Y-76400932D01*
X92157111Y-76471414D01*
X92003972Y-76573738D01*
X91873738Y-76703972D01*
X91771414Y-76857111D01*
X91700932Y-77027271D01*
X91665000Y-77207911D01*
X75010000Y-77207911D01*
X75010000Y-72107911D01*
X91265000Y-72107911D01*
X91265000Y-72292089D01*
X91300932Y-72472729D01*
X91371414Y-72642889D01*
X91473738Y-72796028D01*
X91603972Y-72926262D01*
X91757111Y-73028586D01*
X91927271Y-73099068D01*
X92107911Y-73135000D01*
X92292089Y-73135000D01*
X92472729Y-73099068D01*
X92642889Y-73028586D01*
X92796028Y-72926262D01*
X92914379Y-72807911D01*
X113265000Y-72807911D01*
X113265000Y-72992089D01*
X113300932Y-73172729D01*
X113371414Y-73342889D01*
X113473738Y-73496028D01*
X113603972Y-73626262D01*
X113757111Y-73728586D01*
X113927271Y-73799068D01*
X114107911Y-73835000D01*
X114292089Y-73835000D01*
X114472729Y-73799068D01*
X114642889Y-73728586D01*
X114796028Y-73626262D01*
X114926262Y-73496028D01*
X115028586Y-73342889D01*
X115099068Y-73172729D01*
X115111289Y-73111289D01*
X115172729Y-73099068D01*
X115342889Y-73028586D01*
X115496028Y-72926262D01*
X115626262Y-72796028D01*
X115728586Y-72642889D01*
X115799068Y-72472729D01*
X115835000Y-72292089D01*
X115835000Y-72126464D01*
X115972729Y-72099068D01*
X116142889Y-72028586D01*
X116296028Y-71926262D01*
X116426262Y-71796028D01*
X116528586Y-71642889D01*
X116599068Y-71472729D01*
X116635000Y-71292089D01*
X116635000Y-71107911D01*
X116599068Y-70927271D01*
X116528586Y-70757111D01*
X116426262Y-70603972D01*
X116296028Y-70473738D01*
X116142889Y-70371414D01*
X115972729Y-70300932D01*
X115792089Y-70265000D01*
X115607911Y-70265000D01*
X115427271Y-70300932D01*
X115257111Y-70371414D01*
X115103972Y-70473738D01*
X114973738Y-70603972D01*
X114871414Y-70757111D01*
X114800932Y-70927271D01*
X114765000Y-71107911D01*
X114765000Y-71273536D01*
X114627271Y-71300932D01*
X114457111Y-71371414D01*
X114303972Y-71473738D01*
X114173738Y-71603972D01*
X114071414Y-71757111D01*
X114000932Y-71927271D01*
X113988711Y-71988711D01*
X113927271Y-72000932D01*
X113757111Y-72071414D01*
X113603972Y-72173738D01*
X113473738Y-72303972D01*
X113371414Y-72457111D01*
X113300932Y-72627271D01*
X113265000Y-72807911D01*
X92914379Y-72807911D01*
X92926262Y-72796028D01*
X93028586Y-72642889D01*
X93099068Y-72472729D01*
X93135000Y-72292089D01*
X93135000Y-72107911D01*
X93099068Y-71927271D01*
X93028586Y-71757111D01*
X92926262Y-71603972D01*
X92796028Y-71473738D01*
X92642889Y-71371414D01*
X92472729Y-71300932D01*
X92292089Y-71265000D01*
X92107911Y-71265000D01*
X91927271Y-71300932D01*
X91757111Y-71371414D01*
X91603972Y-71473738D01*
X91473738Y-71603972D01*
X91371414Y-71757111D01*
X91300932Y-71927271D01*
X91265000Y-72107911D01*
X75010000Y-72107911D01*
X75010000Y-69807911D01*
X94865000Y-69807911D01*
X94865000Y-69992089D01*
X94900932Y-70172729D01*
X94971414Y-70342889D01*
X95073738Y-70496028D01*
X95203972Y-70626262D01*
X95357111Y-70728586D01*
X95527271Y-70799068D01*
X95707911Y-70835000D01*
X95892089Y-70835000D01*
X96072729Y-70799068D01*
X96242889Y-70728586D01*
X96396028Y-70626262D01*
X96526262Y-70496028D01*
X96628586Y-70342889D01*
X96699068Y-70172729D01*
X96735000Y-69992089D01*
X96735000Y-69807911D01*
X96699068Y-69627271D01*
X96668593Y-69553697D01*
X96726262Y-69496028D01*
X96828586Y-69342889D01*
X96845255Y-69302645D01*
X97007911Y-69335000D01*
X97192089Y-69335000D01*
X97372729Y-69299068D01*
X97542889Y-69228586D01*
X97696028Y-69126262D01*
X97826262Y-68996028D01*
X97928586Y-68842889D01*
X97999068Y-68672729D01*
X98035000Y-68492089D01*
X98035000Y-68407911D01*
X108265000Y-68407911D01*
X108265000Y-68592089D01*
X108300932Y-68772729D01*
X108371414Y-68942889D01*
X108473738Y-69096028D01*
X108603972Y-69226262D01*
X108757111Y-69328586D01*
X108927271Y-69399068D01*
X109107911Y-69435000D01*
X109292089Y-69435000D01*
X109472729Y-69399068D01*
X109642889Y-69328586D01*
X109796028Y-69226262D01*
X109814379Y-69207911D01*
X115365000Y-69207911D01*
X115365000Y-69392089D01*
X115400932Y-69572729D01*
X115471414Y-69742889D01*
X115573738Y-69896028D01*
X115703972Y-70026262D01*
X115857111Y-70128586D01*
X116027271Y-70199068D01*
X116207911Y-70235000D01*
X116392089Y-70235000D01*
X116572729Y-70199068D01*
X116742889Y-70128586D01*
X116896028Y-70026262D01*
X117026262Y-69896028D01*
X117128586Y-69742889D01*
X117199068Y-69572729D01*
X117235000Y-69392089D01*
X117235000Y-69207911D01*
X117199068Y-69027271D01*
X117128586Y-68857111D01*
X117026262Y-68703972D01*
X116930201Y-68607911D01*
X121065000Y-68607911D01*
X121065000Y-68792089D01*
X121100932Y-68972729D01*
X121171414Y-69142889D01*
X121273738Y-69296028D01*
X121403972Y-69426262D01*
X121557111Y-69528586D01*
X121727271Y-69599068D01*
X121907911Y-69635000D01*
X122092089Y-69635000D01*
X122272729Y-69599068D01*
X122442889Y-69528586D01*
X122596028Y-69426262D01*
X122726262Y-69296028D01*
X122828586Y-69142889D01*
X122899068Y-68972729D01*
X122935000Y-68792089D01*
X122935000Y-68607911D01*
X122899068Y-68427271D01*
X122828586Y-68257111D01*
X122726262Y-68103972D01*
X122596028Y-67973738D01*
X122442889Y-67871414D01*
X122272729Y-67800932D01*
X122092089Y-67765000D01*
X121907911Y-67765000D01*
X121727271Y-67800932D01*
X121557111Y-67871414D01*
X121403972Y-67973738D01*
X121273738Y-68103972D01*
X121171414Y-68257111D01*
X121100932Y-68427271D01*
X121065000Y-68607911D01*
X116930201Y-68607911D01*
X116896028Y-68573738D01*
X116742889Y-68471414D01*
X116572729Y-68400932D01*
X116392089Y-68365000D01*
X116207911Y-68365000D01*
X116027271Y-68400932D01*
X115857111Y-68471414D01*
X115703972Y-68573738D01*
X115573738Y-68703972D01*
X115471414Y-68857111D01*
X115400932Y-69027271D01*
X115365000Y-69207911D01*
X109814379Y-69207911D01*
X109926262Y-69096028D01*
X110028586Y-68942889D01*
X110099068Y-68772729D01*
X110135000Y-68592089D01*
X110135000Y-68407911D01*
X110099068Y-68227271D01*
X110028586Y-68057111D01*
X109926262Y-67903972D01*
X109796028Y-67773738D01*
X109642889Y-67671414D01*
X109472729Y-67600932D01*
X109292089Y-67565000D01*
X109107911Y-67565000D01*
X108927271Y-67600932D01*
X108757111Y-67671414D01*
X108603972Y-67773738D01*
X108473738Y-67903972D01*
X108371414Y-68057111D01*
X108300932Y-68227271D01*
X108265000Y-68407911D01*
X98035000Y-68407911D01*
X98035000Y-68307911D01*
X97999068Y-68127271D01*
X97928586Y-67957111D01*
X97826262Y-67803972D01*
X97696028Y-67673738D01*
X97542889Y-67571414D01*
X97372729Y-67500932D01*
X97192089Y-67465000D01*
X97007911Y-67465000D01*
X96827271Y-67500932D01*
X96657111Y-67571414D01*
X96503972Y-67673738D01*
X96373738Y-67803972D01*
X96271414Y-67957111D01*
X96254745Y-67997355D01*
X96092089Y-67965000D01*
X95907911Y-67965000D01*
X95727271Y-68000932D01*
X95557111Y-68071414D01*
X95403972Y-68173738D01*
X95273738Y-68303972D01*
X95171414Y-68457111D01*
X95100932Y-68627271D01*
X95065000Y-68807911D01*
X95065000Y-68992089D01*
X95100932Y-69172729D01*
X95131407Y-69246303D01*
X95073738Y-69303972D01*
X94971414Y-69457111D01*
X94900932Y-69627271D01*
X94865000Y-69807911D01*
X75010000Y-69807911D01*
X75010000Y-67207911D01*
X97965000Y-67207911D01*
X97965000Y-67392089D01*
X98000932Y-67572729D01*
X98071414Y-67742889D01*
X98173738Y-67896028D01*
X98303972Y-68026262D01*
X98457111Y-68128586D01*
X98627271Y-68199068D01*
X98807911Y-68235000D01*
X98992089Y-68235000D01*
X99172729Y-68199068D01*
X99342889Y-68128586D01*
X99496028Y-68026262D01*
X99626262Y-67896028D01*
X99728586Y-67742889D01*
X99799068Y-67572729D01*
X99835000Y-67392089D01*
X99835000Y-67207911D01*
X99799068Y-67027271D01*
X99728586Y-66857111D01*
X99626262Y-66703972D01*
X99496028Y-66573738D01*
X99342889Y-66471414D01*
X99172729Y-66400932D01*
X98992089Y-66365000D01*
X98807911Y-66365000D01*
X98627271Y-66400932D01*
X98457111Y-66471414D01*
X98303972Y-66573738D01*
X98173738Y-66703972D01*
X98071414Y-66857111D01*
X98000932Y-67027271D01*
X97965000Y-67207911D01*
X75010000Y-67207911D01*
X75010000Y-65307911D01*
X92765000Y-65307911D01*
X92765000Y-65492089D01*
X92800932Y-65672729D01*
X92871414Y-65842889D01*
X92973738Y-65996028D01*
X93103972Y-66126262D01*
X93257111Y-66228586D01*
X93427271Y-66299068D01*
X93607911Y-66335000D01*
X93792089Y-66335000D01*
X93972729Y-66299068D01*
X94142889Y-66228586D01*
X94296028Y-66126262D01*
X94426262Y-65996028D01*
X94528586Y-65842889D01*
X94599068Y-65672729D01*
X94635000Y-65492089D01*
X94635000Y-65407911D01*
X99190000Y-65407911D01*
X99190000Y-65592089D01*
X99225932Y-65772729D01*
X99296414Y-65942889D01*
X99398738Y-66096028D01*
X99528972Y-66226262D01*
X99682111Y-66328586D01*
X99852271Y-66399068D01*
X100032911Y-66435000D01*
X100173536Y-66435000D01*
X100200932Y-66572729D01*
X100271414Y-66742889D01*
X100373738Y-66896028D01*
X100503972Y-67026262D01*
X100657111Y-67128586D01*
X100827271Y-67199068D01*
X101007911Y-67235000D01*
X101192089Y-67235000D01*
X101372729Y-67199068D01*
X101542889Y-67128586D01*
X101696028Y-67026262D01*
X101826262Y-66896028D01*
X101928586Y-66742889D01*
X101965006Y-66654963D01*
X101965006Y-66792089D01*
X102000938Y-66972729D01*
X102071420Y-67142889D01*
X102173744Y-67296028D01*
X102303978Y-67426262D01*
X102457117Y-67528586D01*
X102627277Y-67599068D01*
X102807917Y-67635000D01*
X102992095Y-67635000D01*
X103172735Y-67599068D01*
X103342895Y-67528586D01*
X103496034Y-67426262D01*
X103626268Y-67296028D01*
X103728592Y-67142889D01*
X103799074Y-66972729D01*
X103835006Y-66792089D01*
X103835006Y-66607911D01*
X103815232Y-66508500D01*
X103873716Y-66596028D01*
X104003950Y-66726262D01*
X104157089Y-66828586D01*
X104327249Y-66899068D01*
X104507889Y-66935000D01*
X104692067Y-66935000D01*
X104872707Y-66899068D01*
X105042867Y-66828586D01*
X105196006Y-66726262D01*
X105326240Y-66596028D01*
X105428564Y-66442889D01*
X105499046Y-66272729D01*
X105534978Y-66092089D01*
X105534978Y-65907911D01*
X105499046Y-65727271D01*
X105428564Y-65557111D01*
X105326240Y-65403972D01*
X105196006Y-65273738D01*
X105042867Y-65171414D01*
X104872707Y-65100932D01*
X104692067Y-65065000D01*
X104554963Y-65065000D01*
X104642889Y-65028580D01*
X104796028Y-64926256D01*
X104926262Y-64796022D01*
X104985135Y-64707911D01*
X105264978Y-64707911D01*
X105264978Y-64892089D01*
X105300910Y-65072729D01*
X105371392Y-65242889D01*
X105473716Y-65396028D01*
X105603950Y-65526262D01*
X105757089Y-65628586D01*
X105927249Y-65699068D01*
X106107889Y-65735000D01*
X106292067Y-65735000D01*
X106472707Y-65699068D01*
X106642867Y-65628586D01*
X106796006Y-65526262D01*
X106926240Y-65396028D01*
X107028564Y-65242889D01*
X107099046Y-65072729D01*
X107131830Y-64907911D01*
X110065000Y-64907911D01*
X110065000Y-65092089D01*
X110100932Y-65272729D01*
X110171414Y-65442889D01*
X110273738Y-65596028D01*
X110403972Y-65726262D01*
X110557111Y-65828586D01*
X110727271Y-65899068D01*
X110907911Y-65935000D01*
X111092089Y-65935000D01*
X111272729Y-65899068D01*
X111442889Y-65828586D01*
X111596028Y-65726262D01*
X111726262Y-65596028D01*
X111828586Y-65442889D01*
X111899068Y-65272729D01*
X111907167Y-65232011D01*
X112072729Y-65199078D01*
X112242889Y-65128596D01*
X112396028Y-65026272D01*
X112459162Y-64963138D01*
X112557111Y-65028586D01*
X112727271Y-65099068D01*
X112907911Y-65135000D01*
X113092089Y-65135000D01*
X113272729Y-65099068D01*
X113442889Y-65028586D01*
X113468814Y-65011263D01*
X113500932Y-65172729D01*
X113571414Y-65342889D01*
X113673738Y-65496028D01*
X113803972Y-65626262D01*
X113957111Y-65728586D01*
X114127271Y-65799068D01*
X114307911Y-65835000D01*
X114492089Y-65835000D01*
X114672729Y-65799068D01*
X114842889Y-65728586D01*
X114996028Y-65626262D01*
X115126262Y-65496028D01*
X115228586Y-65342889D01*
X115299068Y-65172729D01*
X115331852Y-65007911D01*
X116065000Y-65007911D01*
X116065000Y-65192089D01*
X116100932Y-65372729D01*
X116171414Y-65542889D01*
X116273738Y-65696028D01*
X116403972Y-65826262D01*
X116557111Y-65928586D01*
X116727271Y-65999068D01*
X116907911Y-66035000D01*
X117092089Y-66035000D01*
X117272729Y-65999068D01*
X117442889Y-65928586D01*
X117596028Y-65826262D01*
X117726262Y-65696028D01*
X117828586Y-65542889D01*
X117899068Y-65372729D01*
X117935000Y-65192089D01*
X117935000Y-65007911D01*
X117899068Y-64827271D01*
X117828586Y-64657111D01*
X117726262Y-64503972D01*
X117596028Y-64373738D01*
X117442889Y-64271414D01*
X117272729Y-64200932D01*
X117092089Y-64165000D01*
X116907911Y-64165000D01*
X116727271Y-64200932D01*
X116557111Y-64271414D01*
X116403972Y-64373738D01*
X116273738Y-64503972D01*
X116171414Y-64657111D01*
X116100932Y-64827271D01*
X116065000Y-65007911D01*
X115331852Y-65007911D01*
X115335000Y-64992089D01*
X115335000Y-64807911D01*
X115299068Y-64627271D01*
X115228586Y-64457111D01*
X115126262Y-64303972D01*
X114996028Y-64173738D01*
X114842889Y-64071414D01*
X114672729Y-64000932D01*
X114492089Y-63965000D01*
X114307911Y-63965000D01*
X114127271Y-64000932D01*
X113957111Y-64071414D01*
X113931186Y-64088737D01*
X113899068Y-63927271D01*
X113849628Y-63807911D01*
X121465002Y-63807911D01*
X121465002Y-63992089D01*
X121500934Y-64172729D01*
X121571416Y-64342889D01*
X121673740Y-64496028D01*
X121803974Y-64626262D01*
X121957113Y-64728586D01*
X122127273Y-64799068D01*
X122307913Y-64835000D01*
X122492091Y-64835000D01*
X122672731Y-64799068D01*
X122842891Y-64728586D01*
X122996030Y-64626262D01*
X123126264Y-64496028D01*
X123228588Y-64342889D01*
X123299070Y-64172729D01*
X123335002Y-63992089D01*
X123335002Y-63807911D01*
X123299070Y-63627271D01*
X123228588Y-63457111D01*
X123126264Y-63303972D01*
X122996030Y-63173738D01*
X122842891Y-63071414D01*
X122672731Y-63000932D01*
X122492091Y-62965000D01*
X122307913Y-62965000D01*
X122127273Y-63000932D01*
X121957113Y-63071414D01*
X121803974Y-63173738D01*
X121673740Y-63303972D01*
X121571416Y-63457111D01*
X121500934Y-63627271D01*
X121465002Y-63807911D01*
X113849628Y-63807911D01*
X113828586Y-63757111D01*
X113726262Y-63603972D01*
X113596028Y-63473738D01*
X113442889Y-63371414D01*
X113272729Y-63300932D01*
X113092089Y-63265000D01*
X112907911Y-63265000D01*
X112727271Y-63300932D01*
X112557111Y-63371414D01*
X112403972Y-63473738D01*
X112340838Y-63536872D01*
X112242889Y-63471424D01*
X112072729Y-63400942D01*
X111892089Y-63365010D01*
X111707911Y-63365010D01*
X111527271Y-63400942D01*
X111357111Y-63471424D01*
X111203972Y-63573748D01*
X111073738Y-63703982D01*
X110971414Y-63857121D01*
X110900932Y-64027281D01*
X110892833Y-64067999D01*
X110727271Y-64100932D01*
X110557111Y-64171414D01*
X110403972Y-64273738D01*
X110273738Y-64403972D01*
X110171414Y-64557111D01*
X110100932Y-64727271D01*
X110065000Y-64907911D01*
X107131830Y-64907911D01*
X107134978Y-64892089D01*
X107134978Y-64707911D01*
X107099046Y-64527271D01*
X107028564Y-64357111D01*
X106926240Y-64203972D01*
X106796006Y-64073738D01*
X106642867Y-63971414D01*
X106472707Y-63900932D01*
X106292067Y-63865000D01*
X106107889Y-63865000D01*
X105927249Y-63900932D01*
X105757089Y-63971414D01*
X105603950Y-64073738D01*
X105473716Y-64203972D01*
X105371392Y-64357111D01*
X105300910Y-64527271D01*
X105264978Y-64707911D01*
X104985135Y-64707911D01*
X105028586Y-64642883D01*
X105099068Y-64472723D01*
X105135000Y-64292083D01*
X105135000Y-64107905D01*
X105099068Y-63927265D01*
X105028586Y-63757105D01*
X104926262Y-63603966D01*
X104796028Y-63473732D01*
X104642889Y-63371408D01*
X104472729Y-63300926D01*
X104292089Y-63264994D01*
X104107911Y-63264994D01*
X103927271Y-63300926D01*
X103757111Y-63371408D01*
X103603972Y-63473732D01*
X103473738Y-63603966D01*
X103454719Y-63632429D01*
X103396028Y-63573738D01*
X103242889Y-63471414D01*
X103072729Y-63400932D01*
X102892089Y-63365000D01*
X102707911Y-63365000D01*
X102527271Y-63400932D01*
X102357111Y-63471414D01*
X102203972Y-63573738D01*
X102073738Y-63703972D01*
X101971414Y-63857111D01*
X101900932Y-64027271D01*
X101865000Y-64207911D01*
X101865000Y-64392089D01*
X101900932Y-64572729D01*
X101971414Y-64742889D01*
X102073738Y-64896028D01*
X102203972Y-65026262D01*
X102357111Y-65128586D01*
X102527271Y-65199068D01*
X102707911Y-65235000D01*
X102892089Y-65235000D01*
X103072729Y-65199068D01*
X103242889Y-65128586D01*
X103396028Y-65026262D01*
X103526262Y-64896028D01*
X103545281Y-64867565D01*
X103603972Y-64926256D01*
X103757111Y-65028580D01*
X103927271Y-65099062D01*
X104107911Y-65134994D01*
X104245015Y-65134994D01*
X104157089Y-65171414D01*
X104003950Y-65273738D01*
X103873716Y-65403972D01*
X103771392Y-65557111D01*
X103700910Y-65727271D01*
X103664978Y-65907911D01*
X103664978Y-66092089D01*
X103684752Y-66191500D01*
X103626268Y-66103972D01*
X103496034Y-65973738D01*
X103342895Y-65871414D01*
X103172735Y-65800932D01*
X102992095Y-65765000D01*
X102807917Y-65765000D01*
X102627277Y-65800932D01*
X102457117Y-65871414D01*
X102303978Y-65973738D01*
X102173744Y-66103972D01*
X102071420Y-66257111D01*
X102035000Y-66345037D01*
X102035000Y-66207911D01*
X101999068Y-66027271D01*
X101928586Y-65857111D01*
X101826262Y-65703972D01*
X101696028Y-65573738D01*
X101542889Y-65471414D01*
X101372729Y-65400932D01*
X101192089Y-65365000D01*
X101051464Y-65365000D01*
X101024068Y-65227271D01*
X100953586Y-65057111D01*
X100851262Y-64903972D01*
X100721028Y-64773738D01*
X100567889Y-64671414D01*
X100397729Y-64600932D01*
X100217089Y-64565000D01*
X100032911Y-64565000D01*
X99852271Y-64600932D01*
X99682111Y-64671414D01*
X99528972Y-64773738D01*
X99398738Y-64903972D01*
X99296414Y-65057111D01*
X99225932Y-65227271D01*
X99190000Y-65407911D01*
X94635000Y-65407911D01*
X94635000Y-65307911D01*
X94599068Y-65127271D01*
X94528586Y-64957111D01*
X94426262Y-64803972D01*
X94296028Y-64673738D01*
X94142889Y-64571414D01*
X93972729Y-64500932D01*
X93792089Y-64465000D01*
X93607911Y-64465000D01*
X93427271Y-64500932D01*
X93257111Y-64571414D01*
X93103972Y-64673738D01*
X92973738Y-64803972D01*
X92871414Y-64957111D01*
X92800932Y-65127271D01*
X92765000Y-65307911D01*
X75010000Y-65307911D01*
X75010000Y-60807911D01*
X78365000Y-60807911D01*
X78365000Y-60992089D01*
X78400932Y-61172729D01*
X78471414Y-61342889D01*
X78573738Y-61496028D01*
X78703972Y-61626262D01*
X78857111Y-61728586D01*
X79027271Y-61799068D01*
X79207911Y-61835000D01*
X79392089Y-61835000D01*
X79572729Y-61799068D01*
X79742889Y-61728586D01*
X79896028Y-61626262D01*
X80026262Y-61496028D01*
X80128586Y-61342889D01*
X80199068Y-61172729D01*
X80235000Y-60992089D01*
X80235000Y-60807911D01*
X80199068Y-60627271D01*
X80149628Y-60507911D01*
X82965000Y-60507911D01*
X82965000Y-60692089D01*
X83000932Y-60872729D01*
X83071414Y-61042889D01*
X83173738Y-61196028D01*
X83303972Y-61326262D01*
X83457111Y-61428586D01*
X83627271Y-61499068D01*
X83719436Y-61517401D01*
X83771414Y-61642889D01*
X83809574Y-61700000D01*
X83771414Y-61757111D01*
X83700932Y-61927271D01*
X83665000Y-62107911D01*
X83665000Y-62292089D01*
X83700932Y-62472729D01*
X83771414Y-62642889D01*
X83836782Y-62740720D01*
X83800932Y-62827271D01*
X83765000Y-63007911D01*
X83765000Y-63192089D01*
X83800932Y-63372729D01*
X83871414Y-63542889D01*
X83973738Y-63696028D01*
X84103972Y-63826262D01*
X84257111Y-63928586D01*
X84427271Y-63999068D01*
X84607911Y-64035000D01*
X84792089Y-64035000D01*
X84972729Y-63999068D01*
X85142889Y-63928586D01*
X85296028Y-63826262D01*
X85426262Y-63696028D01*
X85528586Y-63542889D01*
X85599068Y-63372729D01*
X85635000Y-63192089D01*
X85635000Y-63007911D01*
X85599068Y-62827271D01*
X85528586Y-62657111D01*
X85463218Y-62559280D01*
X85499068Y-62472729D01*
X85535000Y-62292089D01*
X85535000Y-62107911D01*
X85499068Y-61927271D01*
X85428586Y-61757111D01*
X85390426Y-61700000D01*
X85428586Y-61642889D01*
X85499068Y-61472729D01*
X85535000Y-61292089D01*
X85535000Y-61107911D01*
X85499068Y-60927271D01*
X85491049Y-60907911D01*
X85865000Y-60907911D01*
X85865000Y-61092089D01*
X85900932Y-61272729D01*
X85971414Y-61442889D01*
X86073738Y-61596028D01*
X86203972Y-61726262D01*
X86357111Y-61828586D01*
X86527271Y-61899068D01*
X86707911Y-61935000D01*
X86892089Y-61935000D01*
X87072729Y-61899068D01*
X87242889Y-61828586D01*
X87396028Y-61726262D01*
X87526262Y-61596028D01*
X87628586Y-61442889D01*
X87699068Y-61272729D01*
X87724182Y-61146472D01*
X87803972Y-61226262D01*
X87957111Y-61328586D01*
X88127271Y-61399068D01*
X88307911Y-61435000D01*
X88326725Y-61435000D01*
X88371414Y-61542889D01*
X88473738Y-61696028D01*
X88603972Y-61826262D01*
X88757111Y-61928586D01*
X88927271Y-61999068D01*
X89107911Y-62035000D01*
X89126729Y-62035000D01*
X89171418Y-62142889D01*
X89273742Y-62296028D01*
X89403976Y-62426262D01*
X89557115Y-62528586D01*
X89727275Y-62599068D01*
X89907915Y-62635000D01*
X89968146Y-62635000D01*
X89971414Y-62642889D01*
X90073738Y-62796028D01*
X90203972Y-62926262D01*
X90357111Y-63028586D01*
X90527271Y-63099068D01*
X90707911Y-63135000D01*
X90892089Y-63135000D01*
X91072729Y-63099068D01*
X91242889Y-63028586D01*
X91396028Y-62926262D01*
X91526262Y-62796028D01*
X91628586Y-62642889D01*
X91699068Y-62472729D01*
X91735000Y-62292089D01*
X91735000Y-62107911D01*
X91699068Y-61927271D01*
X91628586Y-61757111D01*
X91526262Y-61603972D01*
X91396028Y-61473738D01*
X91242889Y-61371414D01*
X91072729Y-61300932D01*
X90892089Y-61265000D01*
X90831858Y-61265000D01*
X90828590Y-61257111D01*
X90726266Y-61103972D01*
X90596032Y-60973738D01*
X90442893Y-60871414D01*
X90272733Y-60800932D01*
X90092093Y-60765000D01*
X90073275Y-60765000D01*
X90028586Y-60657111D01*
X89926262Y-60503972D01*
X89796028Y-60373738D01*
X89642889Y-60271414D01*
X89472729Y-60200932D01*
X89292089Y-60165000D01*
X89273275Y-60165000D01*
X89228586Y-60057111D01*
X89195712Y-60007911D01*
X96165000Y-60007911D01*
X96165000Y-60192089D01*
X96200932Y-60372729D01*
X96271414Y-60542889D01*
X96373738Y-60696028D01*
X96503972Y-60826262D01*
X96657111Y-60928586D01*
X96827271Y-60999068D01*
X97007911Y-61035000D01*
X97065579Y-61035000D01*
X97100932Y-61212729D01*
X97171414Y-61382889D01*
X97273738Y-61536028D01*
X97403972Y-61666262D01*
X97557111Y-61768586D01*
X97727271Y-61839068D01*
X97907911Y-61875000D01*
X98092089Y-61875000D01*
X98272729Y-61839068D01*
X98442889Y-61768586D01*
X98596028Y-61666262D01*
X98726262Y-61536028D01*
X98828586Y-61382889D01*
X98899068Y-61212729D01*
X98925676Y-61078961D01*
X99154485Y-61231847D01*
X99479335Y-61366404D01*
X99824193Y-61435000D01*
X100175807Y-61435000D01*
X100520665Y-61366404D01*
X100845515Y-61231847D01*
X101137871Y-61036500D01*
X101386500Y-60787871D01*
X101581847Y-60495515D01*
X101716404Y-60170665D01*
X101785000Y-59825807D01*
X101785000Y-59474193D01*
X101716404Y-59129335D01*
X101581847Y-58804485D01*
X101386500Y-58512129D01*
X101137871Y-58263500D01*
X100845515Y-58068153D01*
X100520665Y-57933596D01*
X100175807Y-57865000D01*
X99824193Y-57865000D01*
X99479335Y-57933596D01*
X99154485Y-58068153D01*
X98862129Y-58263500D01*
X98613500Y-58512129D01*
X98418153Y-58804485D01*
X98283596Y-59129335D01*
X98215000Y-59474193D01*
X98215000Y-59825807D01*
X98257175Y-60037838D01*
X98092089Y-60005000D01*
X98034421Y-60005000D01*
X97999068Y-59827271D01*
X97928586Y-59657111D01*
X97826262Y-59503972D01*
X97696028Y-59373738D01*
X97542889Y-59271414D01*
X97372729Y-59200932D01*
X97192089Y-59165000D01*
X97007911Y-59165000D01*
X96827271Y-59200932D01*
X96657111Y-59271414D01*
X96503972Y-59373738D01*
X96373738Y-59503972D01*
X96271414Y-59657111D01*
X96200932Y-59827271D01*
X96165000Y-60007911D01*
X89195712Y-60007911D01*
X89126262Y-59903972D01*
X88996028Y-59773738D01*
X88842889Y-59671414D01*
X88672729Y-59600932D01*
X88492089Y-59565000D01*
X88307911Y-59565000D01*
X88127271Y-59600932D01*
X87957111Y-59671414D01*
X87835000Y-59753006D01*
X87835000Y-59607911D01*
X87799068Y-59427271D01*
X87728586Y-59257111D01*
X87626262Y-59103972D01*
X87496028Y-58973738D01*
X87342889Y-58871414D01*
X87172729Y-58800932D01*
X86992089Y-58765000D01*
X86807911Y-58765000D01*
X86627271Y-58800932D01*
X86457111Y-58871414D01*
X86303972Y-58973738D01*
X86173738Y-59103972D01*
X86071414Y-59257111D01*
X86000932Y-59427271D01*
X85965000Y-59607911D01*
X85965000Y-59792089D01*
X86000932Y-59972729D01*
X86071414Y-60142889D01*
X86173738Y-60296028D01*
X86177710Y-60300000D01*
X86073738Y-60403972D01*
X85971414Y-60557111D01*
X85900932Y-60727271D01*
X85865000Y-60907911D01*
X85491049Y-60907911D01*
X85428586Y-60757111D01*
X85326262Y-60603972D01*
X85196028Y-60473738D01*
X85042889Y-60371414D01*
X84872729Y-60300932D01*
X84780564Y-60282599D01*
X84728586Y-60157111D01*
X84626262Y-60003972D01*
X84496028Y-59873738D01*
X84342889Y-59771414D01*
X84172729Y-59700932D01*
X83992089Y-59665000D01*
X83807911Y-59665000D01*
X83627271Y-59700932D01*
X83457111Y-59771414D01*
X83303972Y-59873738D01*
X83173738Y-60003972D01*
X83071414Y-60157111D01*
X83000932Y-60327271D01*
X82965000Y-60507911D01*
X80149628Y-60507911D01*
X80128586Y-60457111D01*
X80026262Y-60303972D01*
X79896028Y-60173738D01*
X79742889Y-60071414D01*
X79572729Y-60000932D01*
X79392089Y-59965000D01*
X79207911Y-59965000D01*
X79027271Y-60000932D01*
X78857111Y-60071414D01*
X78703972Y-60173738D01*
X78573738Y-60303972D01*
X78471414Y-60457111D01*
X78400932Y-60627271D01*
X78365000Y-60807911D01*
X75010000Y-60807911D01*
X75010000Y-56607911D01*
X77565000Y-56607911D01*
X77565000Y-56792089D01*
X77600932Y-56972729D01*
X77671414Y-57142889D01*
X77773738Y-57296028D01*
X77903972Y-57426262D01*
X77972176Y-57471834D01*
X77965000Y-57507911D01*
X77965000Y-57692089D01*
X77989734Y-57816434D01*
X77903972Y-57873738D01*
X77773738Y-58003972D01*
X77671414Y-58157111D01*
X77600932Y-58327271D01*
X77565000Y-58507911D01*
X77565000Y-58692089D01*
X77600932Y-58872729D01*
X77671414Y-59042889D01*
X77773738Y-59196028D01*
X77903972Y-59326262D01*
X78057111Y-59428586D01*
X78227271Y-59499068D01*
X78407911Y-59535000D01*
X78592089Y-59535000D01*
X78772729Y-59499068D01*
X78942889Y-59428586D01*
X79096028Y-59326262D01*
X79226262Y-59196028D01*
X79328586Y-59042889D01*
X79399068Y-58872729D01*
X79435000Y-58692089D01*
X79435000Y-58507911D01*
X79410266Y-58383566D01*
X79496028Y-58326262D01*
X79626262Y-58196028D01*
X79728586Y-58042889D01*
X79799068Y-57872729D01*
X79835000Y-57692089D01*
X79835000Y-57507911D01*
X89465000Y-57507911D01*
X89465000Y-57692089D01*
X89500932Y-57872729D01*
X89571414Y-58042889D01*
X89673738Y-58196028D01*
X89803972Y-58326262D01*
X89957111Y-58428586D01*
X90127271Y-58499068D01*
X90307911Y-58535000D01*
X90492089Y-58535000D01*
X90672729Y-58499068D01*
X90842889Y-58428586D01*
X90996028Y-58326262D01*
X91126262Y-58196028D01*
X91228586Y-58042889D01*
X91299068Y-57872729D01*
X91312626Y-57804568D01*
X91373738Y-57896028D01*
X91503972Y-58026262D01*
X91657111Y-58128586D01*
X91827271Y-58199068D01*
X92007911Y-58235000D01*
X92192089Y-58235000D01*
X92372729Y-58199068D01*
X92542889Y-58128586D01*
X92696028Y-58026262D01*
X92826262Y-57896028D01*
X92928586Y-57742889D01*
X92999068Y-57572729D01*
X93035000Y-57392089D01*
X93035000Y-57207911D01*
X92999068Y-57027271D01*
X92928586Y-56857111D01*
X92826262Y-56703972D01*
X92696028Y-56573738D01*
X92542889Y-56471414D01*
X92389578Y-56407911D01*
X109165000Y-56407911D01*
X109165000Y-56592089D01*
X109200932Y-56772729D01*
X109271414Y-56942889D01*
X109373738Y-57096028D01*
X109503972Y-57226262D01*
X109657111Y-57328586D01*
X109827271Y-57399068D01*
X110007911Y-57435000D01*
X110192089Y-57435000D01*
X110372729Y-57399068D01*
X110542889Y-57328586D01*
X110696028Y-57226262D01*
X110826262Y-57096028D01*
X110928586Y-56942889D01*
X110984495Y-56807911D01*
X111365000Y-56807911D01*
X111365000Y-56992089D01*
X111400932Y-57172729D01*
X111471414Y-57342889D01*
X111573738Y-57496028D01*
X111703972Y-57626262D01*
X111857111Y-57728586D01*
X112027271Y-57799068D01*
X112207911Y-57835000D01*
X112392089Y-57835000D01*
X112572729Y-57799068D01*
X112742889Y-57728586D01*
X112896028Y-57626262D01*
X113026262Y-57496028D01*
X113128586Y-57342889D01*
X113199068Y-57172729D01*
X113235000Y-56992089D01*
X113235000Y-56807911D01*
X117365000Y-56807911D01*
X117365000Y-56992089D01*
X117400932Y-57172729D01*
X117471414Y-57342889D01*
X117573738Y-57496028D01*
X117703972Y-57626262D01*
X117857111Y-57728586D01*
X118027271Y-57799068D01*
X118207911Y-57835000D01*
X118392089Y-57835000D01*
X118572729Y-57799068D01*
X118742889Y-57728586D01*
X118896028Y-57626262D01*
X119026262Y-57496028D01*
X119128586Y-57342889D01*
X119199068Y-57172729D01*
X119235000Y-56992089D01*
X119235000Y-56807911D01*
X119199068Y-56627271D01*
X119128586Y-56457111D01*
X119026262Y-56303972D01*
X118896028Y-56173738D01*
X118742889Y-56071414D01*
X118572729Y-56000932D01*
X118392089Y-55965000D01*
X118207911Y-55965000D01*
X118027271Y-56000932D01*
X117857111Y-56071414D01*
X117703972Y-56173738D01*
X117573738Y-56303972D01*
X117471414Y-56457111D01*
X117400932Y-56627271D01*
X117365000Y-56807911D01*
X113235000Y-56807911D01*
X113199068Y-56627271D01*
X113128586Y-56457111D01*
X113026262Y-56303972D01*
X112896028Y-56173738D01*
X112742889Y-56071414D01*
X112572729Y-56000932D01*
X112392089Y-55965000D01*
X112207911Y-55965000D01*
X112027271Y-56000932D01*
X111857111Y-56071414D01*
X111703972Y-56173738D01*
X111573738Y-56303972D01*
X111471414Y-56457111D01*
X111400932Y-56627271D01*
X111365000Y-56807911D01*
X110984495Y-56807911D01*
X110999068Y-56772729D01*
X111035000Y-56592089D01*
X111035000Y-56407911D01*
X110999068Y-56227271D01*
X110928586Y-56057111D01*
X110826262Y-55903972D01*
X110696028Y-55773738D01*
X110597520Y-55707917D01*
X112965000Y-55707917D01*
X112965000Y-55892095D01*
X113000932Y-56072735D01*
X113071414Y-56242895D01*
X113173738Y-56396034D01*
X113303972Y-56526268D01*
X113457111Y-56628592D01*
X113627271Y-56699074D01*
X113807911Y-56735006D01*
X113992089Y-56735006D01*
X114172729Y-56699074D01*
X114342889Y-56628592D01*
X114496028Y-56526268D01*
X114626262Y-56396034D01*
X114728586Y-56242895D01*
X114799068Y-56072735D01*
X114835000Y-55892095D01*
X114835000Y-55707917D01*
X114799068Y-55527277D01*
X114728586Y-55357117D01*
X114626262Y-55203978D01*
X114496028Y-55073744D01*
X114342889Y-54971420D01*
X114172729Y-54900938D01*
X113992089Y-54865006D01*
X113807911Y-54865006D01*
X113627271Y-54900938D01*
X113457111Y-54971420D01*
X113303972Y-55073744D01*
X113173738Y-55203978D01*
X113071414Y-55357117D01*
X113000932Y-55527277D01*
X112965000Y-55707917D01*
X110597520Y-55707917D01*
X110542889Y-55671414D01*
X110372729Y-55600932D01*
X110192089Y-55565000D01*
X110007911Y-55565000D01*
X109827271Y-55600932D01*
X109657111Y-55671414D01*
X109503972Y-55773738D01*
X109373738Y-55903972D01*
X109271414Y-56057111D01*
X109200932Y-56227271D01*
X109165000Y-56407911D01*
X92389578Y-56407911D01*
X92372729Y-56400932D01*
X92192089Y-56365000D01*
X92007911Y-56365000D01*
X91827271Y-56400932D01*
X91657111Y-56471414D01*
X91503972Y-56573738D01*
X91373738Y-56703972D01*
X91271414Y-56857111D01*
X91200932Y-57027271D01*
X91187374Y-57095432D01*
X91126262Y-57003972D01*
X90996028Y-56873738D01*
X90842889Y-56771414D01*
X90672729Y-56700932D01*
X90492089Y-56665000D01*
X90307911Y-56665000D01*
X90127271Y-56700932D01*
X89957111Y-56771414D01*
X89803972Y-56873738D01*
X89673738Y-57003972D01*
X89571414Y-57157111D01*
X89500932Y-57327271D01*
X89465000Y-57507911D01*
X79835000Y-57507911D01*
X79799068Y-57327271D01*
X79728586Y-57157111D01*
X79626262Y-57003972D01*
X79496028Y-56873738D01*
X79427824Y-56828166D01*
X79435000Y-56792089D01*
X79435000Y-56667040D01*
X79496028Y-56626262D01*
X79626262Y-56496028D01*
X79728586Y-56342889D01*
X79799068Y-56172729D01*
X79835000Y-55992089D01*
X79835000Y-55807911D01*
X79799068Y-55627271D01*
X79728586Y-55457111D01*
X79626262Y-55303972D01*
X79496028Y-55173738D01*
X79397511Y-55107911D01*
X98465001Y-55107911D01*
X98465001Y-55292089D01*
X98500933Y-55472729D01*
X98571415Y-55642889D01*
X98673739Y-55796028D01*
X98803973Y-55926262D01*
X98957112Y-56028586D01*
X99127272Y-56099068D01*
X99307912Y-56135000D01*
X99492090Y-56135000D01*
X99672730Y-56099068D01*
X99842890Y-56028586D01*
X99996029Y-55926262D01*
X100126263Y-55796028D01*
X100228587Y-55642889D01*
X100299069Y-55472729D01*
X100335001Y-55292089D01*
X100335001Y-55107911D01*
X100565000Y-55107911D01*
X100565000Y-55292089D01*
X100600932Y-55472729D01*
X100671414Y-55642889D01*
X100773738Y-55796028D01*
X100903972Y-55926262D01*
X101057111Y-56028586D01*
X101227271Y-56099068D01*
X101407911Y-56135000D01*
X101592089Y-56135000D01*
X101772729Y-56099068D01*
X101942889Y-56028586D01*
X102096028Y-55926262D01*
X102226262Y-55796028D01*
X102328586Y-55642889D01*
X102399068Y-55472729D01*
X102435000Y-55292089D01*
X102435000Y-55207911D01*
X102864994Y-55207911D01*
X102864994Y-55392089D01*
X102900926Y-55572729D01*
X102971408Y-55742889D01*
X103073732Y-55896028D01*
X103203966Y-56026262D01*
X103357105Y-56128586D01*
X103527265Y-56199068D01*
X103707905Y-56235000D01*
X103892083Y-56235000D01*
X104072723Y-56199068D01*
X104242883Y-56128586D01*
X104396022Y-56026262D01*
X104526256Y-55896028D01*
X104628580Y-55742889D01*
X104699062Y-55572729D01*
X104734994Y-55392089D01*
X104734994Y-55207911D01*
X104699062Y-55027271D01*
X104679119Y-54979123D01*
X104727271Y-54999068D01*
X104907911Y-55035000D01*
X105092089Y-55035000D01*
X105272729Y-54999068D01*
X105442889Y-54928586D01*
X105596028Y-54826262D01*
X105726262Y-54696028D01*
X105828586Y-54542889D01*
X105850004Y-54491181D01*
X105871422Y-54542889D01*
X105973746Y-54696028D01*
X106103980Y-54826262D01*
X106257119Y-54928586D01*
X106427279Y-54999068D01*
X106607919Y-55035000D01*
X106792097Y-55035000D01*
X106972737Y-54999068D01*
X107142897Y-54928586D01*
X107296036Y-54826262D01*
X107426270Y-54696028D01*
X107528594Y-54542889D01*
X107599076Y-54372729D01*
X107635008Y-54192089D01*
X107635008Y-54107911D01*
X119265000Y-54107911D01*
X119265000Y-54292089D01*
X119300932Y-54472729D01*
X119371414Y-54642889D01*
X119473738Y-54796028D01*
X119603972Y-54926262D01*
X119639498Y-54950000D01*
X119603972Y-54973738D01*
X119473738Y-55103972D01*
X119371414Y-55257111D01*
X119300932Y-55427271D01*
X119265000Y-55607911D01*
X119265000Y-55792089D01*
X119300932Y-55972729D01*
X119371414Y-56142889D01*
X119473738Y-56296028D01*
X119603972Y-56426262D01*
X119757111Y-56528586D01*
X119927271Y-56599068D01*
X120107911Y-56635000D01*
X120292089Y-56635000D01*
X120472729Y-56599068D01*
X120642889Y-56528586D01*
X120796028Y-56426262D01*
X120926262Y-56296028D01*
X121028586Y-56142889D01*
X121099068Y-55972729D01*
X121135000Y-55792089D01*
X121135000Y-55607911D01*
X121099068Y-55427271D01*
X121028586Y-55257111D01*
X120926262Y-55103972D01*
X120796028Y-54973738D01*
X120760502Y-54950000D01*
X120796028Y-54926262D01*
X120926262Y-54796028D01*
X121028586Y-54642889D01*
X121099068Y-54472729D01*
X121135000Y-54292089D01*
X121135000Y-54107911D01*
X121099068Y-53927271D01*
X121028586Y-53757111D01*
X120926262Y-53603972D01*
X120796028Y-53473738D01*
X120642889Y-53371414D01*
X120472729Y-53300932D01*
X120292089Y-53265000D01*
X120107911Y-53265000D01*
X119927271Y-53300932D01*
X119757111Y-53371414D01*
X119603972Y-53473738D01*
X119473738Y-53603972D01*
X119371414Y-53757111D01*
X119300932Y-53927271D01*
X119265000Y-54107911D01*
X107635008Y-54107911D01*
X107635008Y-54007911D01*
X107599076Y-53827271D01*
X107528594Y-53657111D01*
X107426270Y-53503972D01*
X107422290Y-53499992D01*
X107426254Y-53496028D01*
X107528578Y-53342889D01*
X107599060Y-53172729D01*
X107634992Y-52992089D01*
X107634992Y-52807911D01*
X107599060Y-52627271D01*
X107528578Y-52457111D01*
X107490422Y-52400006D01*
X107528586Y-52342889D01*
X107599068Y-52172729D01*
X107611961Y-52107911D01*
X113965000Y-52107911D01*
X113965000Y-52292089D01*
X114000932Y-52472729D01*
X114071414Y-52642889D01*
X114173738Y-52796028D01*
X114303972Y-52926262D01*
X114457111Y-53028586D01*
X114627271Y-53099068D01*
X114807911Y-53135000D01*
X114992089Y-53135000D01*
X115172729Y-53099068D01*
X115342889Y-53028586D01*
X115496028Y-52926262D01*
X115626262Y-52796028D01*
X115728586Y-52642889D01*
X115799068Y-52472729D01*
X115835000Y-52292089D01*
X115835000Y-52107911D01*
X115799068Y-51927271D01*
X115728586Y-51757111D01*
X115626262Y-51603972D01*
X115496028Y-51473738D01*
X115342889Y-51371414D01*
X115172729Y-51300932D01*
X114992089Y-51265000D01*
X114807911Y-51265000D01*
X114627271Y-51300932D01*
X114457111Y-51371414D01*
X114303972Y-51473738D01*
X114173738Y-51603972D01*
X114071414Y-51757111D01*
X114000932Y-51927271D01*
X113965000Y-52107911D01*
X107611961Y-52107911D01*
X107635000Y-51992089D01*
X107635000Y-51807911D01*
X107599068Y-51627271D01*
X107528586Y-51457111D01*
X107426262Y-51303972D01*
X107296028Y-51173738D01*
X107142889Y-51071414D01*
X106972729Y-51000932D01*
X106792089Y-50965000D01*
X106607911Y-50965000D01*
X106427271Y-51000932D01*
X106257111Y-51071414D01*
X106103972Y-51173738D01*
X105973738Y-51303972D01*
X105871414Y-51457111D01*
X105800932Y-51627271D01*
X105765000Y-51807911D01*
X105765000Y-51992089D01*
X105800932Y-52172729D01*
X105871414Y-52342889D01*
X105909570Y-52399994D01*
X105899996Y-52414323D01*
X105826262Y-52303972D01*
X105696028Y-52173738D01*
X105542889Y-52071414D01*
X105372729Y-52000932D01*
X105192089Y-51965000D01*
X105007911Y-51965000D01*
X104827271Y-52000932D01*
X104657111Y-52071414D01*
X104503972Y-52173738D01*
X104373738Y-52303972D01*
X104271414Y-52457111D01*
X104200932Y-52627271D01*
X104165000Y-52807911D01*
X104165000Y-52992089D01*
X104200932Y-53172729D01*
X104271414Y-53342889D01*
X104336866Y-53440844D01*
X104273738Y-53503972D01*
X104171414Y-53657111D01*
X104100932Y-53827271D01*
X104065000Y-54007911D01*
X104065000Y-54192089D01*
X104100932Y-54372729D01*
X104120875Y-54420877D01*
X104072723Y-54400932D01*
X103892083Y-54365000D01*
X103707905Y-54365000D01*
X103527265Y-54400932D01*
X103357105Y-54471414D01*
X103203966Y-54573738D01*
X103073732Y-54703972D01*
X102971408Y-54857111D01*
X102900926Y-55027271D01*
X102864994Y-55207911D01*
X102435000Y-55207911D01*
X102435000Y-55107911D01*
X102399068Y-54927271D01*
X102328586Y-54757111D01*
X102226262Y-54603972D01*
X102096028Y-54473738D01*
X101942889Y-54371414D01*
X101772729Y-54300932D01*
X101592089Y-54265000D01*
X101407911Y-54265000D01*
X101227271Y-54300932D01*
X101057111Y-54371414D01*
X100903972Y-54473738D01*
X100773738Y-54603972D01*
X100671414Y-54757111D01*
X100600932Y-54927271D01*
X100565000Y-55107911D01*
X100335001Y-55107911D01*
X100299069Y-54927271D01*
X100228587Y-54757111D01*
X100126263Y-54603972D01*
X99996029Y-54473738D01*
X99842890Y-54371414D01*
X99672730Y-54300932D01*
X99492090Y-54265000D01*
X99307912Y-54265000D01*
X99127272Y-54300932D01*
X98957112Y-54371414D01*
X98803973Y-54473738D01*
X98673739Y-54603972D01*
X98571415Y-54757111D01*
X98500933Y-54927271D01*
X98465001Y-55107911D01*
X79397511Y-55107911D01*
X79342889Y-55071414D01*
X79172729Y-55000932D01*
X78992089Y-54965000D01*
X78807911Y-54965000D01*
X78627271Y-55000932D01*
X78457111Y-55071414D01*
X78303972Y-55173738D01*
X78173738Y-55303972D01*
X78071414Y-55457111D01*
X78000932Y-55627271D01*
X77965000Y-55807911D01*
X77965000Y-55932960D01*
X77903972Y-55973738D01*
X77773738Y-56103972D01*
X77671414Y-56257111D01*
X77600932Y-56427271D01*
X77565000Y-56607911D01*
X75010000Y-56607911D01*
X75010000Y-53107911D01*
X94965000Y-53107911D01*
X94965000Y-53292089D01*
X95000932Y-53472729D01*
X95071414Y-53642889D01*
X95173738Y-53796028D01*
X95303972Y-53926262D01*
X95457111Y-54028586D01*
X95627271Y-54099068D01*
X95807911Y-54135000D01*
X95992089Y-54135000D01*
X96172729Y-54099068D01*
X96342889Y-54028586D01*
X96496028Y-53926262D01*
X96626262Y-53796028D01*
X96728586Y-53642889D01*
X96799068Y-53472729D01*
X96835000Y-53292089D01*
X96835000Y-53107911D01*
X96799068Y-52927271D01*
X96728586Y-52757111D01*
X96626262Y-52603972D01*
X96496028Y-52473738D01*
X96342889Y-52371414D01*
X96172729Y-52300932D01*
X95992089Y-52265000D01*
X95807911Y-52265000D01*
X95627271Y-52300932D01*
X95457111Y-52371414D01*
X95303972Y-52473738D01*
X95173738Y-52603972D01*
X95071414Y-52757111D01*
X95000932Y-52927271D01*
X94965000Y-53107911D01*
X75010000Y-53107911D01*
X75010000Y-50407911D01*
X86165000Y-50407911D01*
X86165000Y-50592089D01*
X86200932Y-50772729D01*
X86271414Y-50942889D01*
X86373738Y-51096028D01*
X86503972Y-51226262D01*
X86657111Y-51328586D01*
X86827271Y-51399068D01*
X87007911Y-51435000D01*
X87192089Y-51435000D01*
X87372729Y-51399068D01*
X87542889Y-51328586D01*
X87573831Y-51307911D01*
X89965000Y-51307911D01*
X89965000Y-51492089D01*
X90000932Y-51672729D01*
X90071414Y-51842889D01*
X90173738Y-51996028D01*
X90303972Y-52126262D01*
X90457111Y-52228586D01*
X90627271Y-52299068D01*
X90807911Y-52335000D01*
X90992089Y-52335000D01*
X91172729Y-52299068D01*
X91342889Y-52228586D01*
X91400000Y-52190426D01*
X91457111Y-52228586D01*
X91627271Y-52299068D01*
X91807911Y-52335000D01*
X91992089Y-52335000D01*
X92172729Y-52299068D01*
X92342889Y-52228586D01*
X92400000Y-52190426D01*
X92457111Y-52228586D01*
X92627271Y-52299068D01*
X92807911Y-52335000D01*
X92992089Y-52335000D01*
X93172729Y-52299068D01*
X93342889Y-52228586D01*
X93400000Y-52190426D01*
X93457111Y-52228586D01*
X93627271Y-52299068D01*
X93807911Y-52335000D01*
X93992089Y-52335000D01*
X94172729Y-52299068D01*
X94342889Y-52228586D01*
X94496028Y-52126262D01*
X94626262Y-51996028D01*
X94685139Y-51907911D01*
X98365000Y-51907911D01*
X98365000Y-52092089D01*
X98400932Y-52272729D01*
X98471414Y-52442889D01*
X98573738Y-52596028D01*
X98703972Y-52726262D01*
X98857111Y-52828586D01*
X99027271Y-52899068D01*
X99207911Y-52935000D01*
X99392089Y-52935000D01*
X99572729Y-52899068D01*
X99742889Y-52828586D01*
X99896028Y-52726262D01*
X99900000Y-52722290D01*
X99903972Y-52726262D01*
X100057111Y-52828586D01*
X100227271Y-52899068D01*
X100407911Y-52935000D01*
X100592089Y-52935000D01*
X100772729Y-52899068D01*
X100942889Y-52828586D01*
X101096028Y-52726262D01*
X101100000Y-52722290D01*
X101103972Y-52726262D01*
X101257111Y-52828586D01*
X101427271Y-52899068D01*
X101607911Y-52935000D01*
X101792089Y-52935000D01*
X101972729Y-52899068D01*
X102142889Y-52828586D01*
X102296028Y-52726262D01*
X102426262Y-52596028D01*
X102528586Y-52442889D01*
X102599068Y-52272729D01*
X102635000Y-52092089D01*
X102635000Y-51907911D01*
X102599068Y-51727271D01*
X102528586Y-51557111D01*
X102426262Y-51403972D01*
X102296028Y-51273738D01*
X102142889Y-51171414D01*
X101972729Y-51100932D01*
X101792089Y-51065000D01*
X101607911Y-51065000D01*
X101427271Y-51100932D01*
X101257111Y-51171414D01*
X101103972Y-51273738D01*
X101100000Y-51277710D01*
X101096028Y-51273738D01*
X100942889Y-51171414D01*
X100772729Y-51100932D01*
X100592089Y-51065000D01*
X100407911Y-51065000D01*
X100227271Y-51100932D01*
X100057111Y-51171414D01*
X99903972Y-51273738D01*
X99900000Y-51277710D01*
X99896028Y-51273738D01*
X99742889Y-51171414D01*
X99572729Y-51100932D01*
X99392089Y-51065000D01*
X99207911Y-51065000D01*
X99027271Y-51100932D01*
X98857111Y-51171414D01*
X98703972Y-51273738D01*
X98573738Y-51403972D01*
X98471414Y-51557111D01*
X98400932Y-51727271D01*
X98365000Y-51907911D01*
X94685139Y-51907911D01*
X94728586Y-51842889D01*
X94799068Y-51672729D01*
X94835000Y-51492089D01*
X94835000Y-51307911D01*
X94799068Y-51127271D01*
X94728586Y-50957111D01*
X94626262Y-50803972D01*
X94496028Y-50673738D01*
X94342889Y-50571414D01*
X94172729Y-50500932D01*
X93992089Y-50465000D01*
X93807911Y-50465000D01*
X93627271Y-50500932D01*
X93457111Y-50571414D01*
X93400000Y-50609574D01*
X93342889Y-50571414D01*
X93172729Y-50500932D01*
X92992089Y-50465000D01*
X92807911Y-50465000D01*
X92627271Y-50500932D01*
X92457111Y-50571414D01*
X92400000Y-50609574D01*
X92342889Y-50571414D01*
X92172729Y-50500932D01*
X91992089Y-50465000D01*
X91807911Y-50465000D01*
X91627271Y-50500932D01*
X91457111Y-50571414D01*
X91400000Y-50609574D01*
X91342889Y-50571414D01*
X91172729Y-50500932D01*
X90992089Y-50465000D01*
X90807911Y-50465000D01*
X90627271Y-50500932D01*
X90457111Y-50571414D01*
X90303972Y-50673738D01*
X90173738Y-50803972D01*
X90071414Y-50957111D01*
X90000932Y-51127271D01*
X89965000Y-51307911D01*
X87573831Y-51307911D01*
X87696028Y-51226262D01*
X87826262Y-51096028D01*
X87928586Y-50942889D01*
X87999068Y-50772729D01*
X88035000Y-50592089D01*
X88035000Y-50407911D01*
X87999068Y-50227271D01*
X87928586Y-50057111D01*
X87826262Y-49903972D01*
X87696028Y-49773738D01*
X87542889Y-49671414D01*
X87372729Y-49600932D01*
X87192089Y-49565000D01*
X87007911Y-49565000D01*
X86827271Y-49600932D01*
X86657111Y-49671414D01*
X86503972Y-49773738D01*
X86373738Y-49903972D01*
X86271414Y-50057111D01*
X86200932Y-50227271D01*
X86165000Y-50407911D01*
X75010000Y-50407911D01*
X75010000Y-47907911D01*
X83565000Y-47907911D01*
X83565000Y-48092089D01*
X83600932Y-48272729D01*
X83671414Y-48442889D01*
X83773738Y-48596028D01*
X83903972Y-48726262D01*
X84057111Y-48828586D01*
X84227271Y-48899068D01*
X84407911Y-48935000D01*
X84592089Y-48935000D01*
X84772729Y-48899068D01*
X84942889Y-48828586D01*
X85096028Y-48726262D01*
X85226262Y-48596028D01*
X85328586Y-48442889D01*
X85399068Y-48272729D01*
X85435000Y-48092089D01*
X85435000Y-47907911D01*
X91465000Y-47907911D01*
X91465000Y-48092089D01*
X91500932Y-48272729D01*
X91571414Y-48442889D01*
X91673738Y-48596028D01*
X91803972Y-48726262D01*
X91957111Y-48828586D01*
X92127271Y-48899068D01*
X92307911Y-48935000D01*
X92492089Y-48935000D01*
X92672729Y-48899068D01*
X92842889Y-48828586D01*
X92996028Y-48726262D01*
X93114379Y-48607911D01*
X98765000Y-48607911D01*
X98765000Y-48792089D01*
X98800932Y-48972729D01*
X98871414Y-49142889D01*
X98973738Y-49296028D01*
X99103972Y-49426262D01*
X99257111Y-49528586D01*
X99427271Y-49599068D01*
X99607911Y-49635000D01*
X99792089Y-49635000D01*
X99972729Y-49599068D01*
X100142889Y-49528586D01*
X100296028Y-49426262D01*
X100350000Y-49372290D01*
X100403972Y-49426262D01*
X100557111Y-49528586D01*
X100727271Y-49599068D01*
X100907911Y-49635000D01*
X101092089Y-49635000D01*
X101228272Y-49607911D01*
X119265000Y-49607911D01*
X119265000Y-49792089D01*
X119300932Y-49972729D01*
X119371414Y-50142889D01*
X119473738Y-50296028D01*
X119603972Y-50426262D01*
X119639498Y-50450000D01*
X119603972Y-50473738D01*
X119473738Y-50603972D01*
X119371414Y-50757111D01*
X119300932Y-50927271D01*
X119265000Y-51107911D01*
X119265000Y-51292089D01*
X119300932Y-51472729D01*
X119371414Y-51642889D01*
X119473738Y-51796028D01*
X119603972Y-51926262D01*
X119757111Y-52028586D01*
X119927271Y-52099068D01*
X120107911Y-52135000D01*
X120292089Y-52135000D01*
X120472729Y-52099068D01*
X120642889Y-52028586D01*
X120796028Y-51926262D01*
X120926262Y-51796028D01*
X121028586Y-51642889D01*
X121099068Y-51472729D01*
X121135000Y-51292089D01*
X121135000Y-51107911D01*
X121099068Y-50927271D01*
X121028586Y-50757111D01*
X120926262Y-50603972D01*
X120796028Y-50473738D01*
X120760502Y-50450000D01*
X120796028Y-50426262D01*
X120926262Y-50296028D01*
X121028586Y-50142889D01*
X121099068Y-49972729D01*
X121135000Y-49792089D01*
X121135000Y-49607911D01*
X121099068Y-49427271D01*
X121028586Y-49257111D01*
X120926262Y-49103972D01*
X120796028Y-48973738D01*
X120642889Y-48871414D01*
X120472729Y-48800932D01*
X120292089Y-48765000D01*
X120107911Y-48765000D01*
X119927271Y-48800932D01*
X119757111Y-48871414D01*
X119603972Y-48973738D01*
X119473738Y-49103972D01*
X119371414Y-49257111D01*
X119300932Y-49427271D01*
X119265000Y-49607911D01*
X101228272Y-49607911D01*
X101272729Y-49599068D01*
X101442889Y-49528586D01*
X101596028Y-49426262D01*
X101726262Y-49296028D01*
X101828586Y-49142889D01*
X101899068Y-48972729D01*
X101935000Y-48792089D01*
X101935000Y-48607911D01*
X101899068Y-48427271D01*
X101828586Y-48257111D01*
X101726262Y-48103972D01*
X101596028Y-47973738D01*
X101442889Y-47871414D01*
X101272729Y-47800932D01*
X101092089Y-47765000D01*
X100907911Y-47765000D01*
X100727271Y-47800932D01*
X100557111Y-47871414D01*
X100403972Y-47973738D01*
X100350000Y-48027710D01*
X100296028Y-47973738D01*
X100142889Y-47871414D01*
X99972729Y-47800932D01*
X99792089Y-47765000D01*
X99607911Y-47765000D01*
X99427271Y-47800932D01*
X99257111Y-47871414D01*
X99103972Y-47973738D01*
X98973738Y-48103972D01*
X98871414Y-48257111D01*
X98800932Y-48427271D01*
X98765000Y-48607911D01*
X93114379Y-48607911D01*
X93126262Y-48596028D01*
X93228586Y-48442889D01*
X93299068Y-48272729D01*
X93335000Y-48092089D01*
X93335000Y-47907911D01*
X93299068Y-47727271D01*
X93228586Y-47557111D01*
X93126262Y-47403972D01*
X92996028Y-47273738D01*
X92842889Y-47171414D01*
X92672729Y-47100932D01*
X92492089Y-47065000D01*
X92307911Y-47065000D01*
X92127271Y-47100932D01*
X91957111Y-47171414D01*
X91803972Y-47273738D01*
X91673738Y-47403972D01*
X91571414Y-47557111D01*
X91500932Y-47727271D01*
X91465000Y-47907911D01*
X85435000Y-47907911D01*
X85399068Y-47727271D01*
X85328586Y-47557111D01*
X85226262Y-47403972D01*
X85096028Y-47273738D01*
X84942889Y-47171414D01*
X84772729Y-47100932D01*
X84592089Y-47065000D01*
X84407911Y-47065000D01*
X84227271Y-47100932D01*
X84057111Y-47171414D01*
X83903972Y-47273738D01*
X83773738Y-47403972D01*
X83671414Y-47557111D01*
X83600932Y-47727271D01*
X83565000Y-47907911D01*
X75010000Y-47907911D01*
X75010000Y-47007911D01*
X101465000Y-47007911D01*
X101465000Y-47192089D01*
X101500932Y-47372729D01*
X101571414Y-47542889D01*
X101673738Y-47696028D01*
X101803972Y-47826262D01*
X101957111Y-47928586D01*
X102127271Y-47999068D01*
X102307911Y-48035000D01*
X102492089Y-48035000D01*
X102672729Y-47999068D01*
X102842889Y-47928586D01*
X102940844Y-47863134D01*
X103003972Y-47926262D01*
X103157111Y-48028586D01*
X103327271Y-48099068D01*
X103507911Y-48135000D01*
X103692089Y-48135000D01*
X103872729Y-48099068D01*
X104042889Y-48028586D01*
X104196028Y-47926262D01*
X104326262Y-47796028D01*
X104428586Y-47642889D01*
X104499068Y-47472729D01*
X104535000Y-47292089D01*
X104535000Y-47107911D01*
X104499068Y-46927271D01*
X104428586Y-46757111D01*
X104326262Y-46603972D01*
X104196028Y-46473738D01*
X104042889Y-46371414D01*
X103872729Y-46300932D01*
X103692089Y-46265000D01*
X103507911Y-46265000D01*
X103327271Y-46300932D01*
X103157111Y-46371414D01*
X103059156Y-46436866D01*
X102996028Y-46373738D01*
X102842889Y-46271414D01*
X102672729Y-46200932D01*
X102492089Y-46165000D01*
X102307911Y-46165000D01*
X102127271Y-46200932D01*
X101957111Y-46271414D01*
X101803972Y-46373738D01*
X101673738Y-46503972D01*
X101571414Y-46657111D01*
X101500932Y-46827271D01*
X101465000Y-47007911D01*
X75010000Y-47007911D01*
X75010000Y-45907911D01*
X92565000Y-45907911D01*
X92565000Y-46092089D01*
X92600932Y-46272729D01*
X92671414Y-46442889D01*
X92773738Y-46596028D01*
X92903972Y-46726262D01*
X93057111Y-46828586D01*
X93227271Y-46899068D01*
X93407911Y-46935000D01*
X93592089Y-46935000D01*
X93772729Y-46899068D01*
X93942889Y-46828586D01*
X94096028Y-46726262D01*
X94226262Y-46596028D01*
X94328586Y-46442889D01*
X94399068Y-46272729D01*
X94435000Y-46092089D01*
X94435000Y-45907911D01*
X94399068Y-45727271D01*
X94328586Y-45557111D01*
X94226262Y-45403972D01*
X94096028Y-45273738D01*
X93942889Y-45171414D01*
X93772729Y-45100932D01*
X93592089Y-45065000D01*
X93407911Y-45065000D01*
X93227271Y-45100932D01*
X93057111Y-45171414D01*
X92903972Y-45273738D01*
X92773738Y-45403972D01*
X92671414Y-45557111D01*
X92600932Y-45727271D01*
X92565000Y-45907911D01*
X75010000Y-45907911D01*
X75010000Y-44407911D01*
X114065000Y-44407911D01*
X114065000Y-44592089D01*
X114100932Y-44772729D01*
X114171414Y-44942889D01*
X114273738Y-45096028D01*
X114403972Y-45226262D01*
X114557111Y-45328586D01*
X114727271Y-45399068D01*
X114907911Y-45435000D01*
X115092089Y-45435000D01*
X115272729Y-45399068D01*
X115442889Y-45328586D01*
X115596028Y-45226262D01*
X115726262Y-45096028D01*
X115828586Y-44942889D01*
X115899068Y-44772729D01*
X115935000Y-44592089D01*
X115935000Y-44507911D01*
X118465000Y-44507911D01*
X118465000Y-44692089D01*
X118500932Y-44872729D01*
X118571414Y-45042889D01*
X118673738Y-45196028D01*
X118803972Y-45326262D01*
X118957111Y-45428586D01*
X119127271Y-45499068D01*
X119307911Y-45535000D01*
X119492089Y-45535000D01*
X119672729Y-45499068D01*
X119842889Y-45428586D01*
X119996028Y-45326262D01*
X120126262Y-45196028D01*
X120228586Y-45042889D01*
X120299068Y-44872729D01*
X120335000Y-44692089D01*
X120335000Y-44507911D01*
X120299068Y-44327271D01*
X120228586Y-44157111D01*
X120126262Y-44003972D01*
X119996028Y-43873738D01*
X119842889Y-43771414D01*
X119672729Y-43700932D01*
X119492089Y-43665000D01*
X119307911Y-43665000D01*
X119127271Y-43700932D01*
X118957111Y-43771414D01*
X118803972Y-43873738D01*
X118673738Y-44003972D01*
X118571414Y-44157111D01*
X118500932Y-44327271D01*
X118465000Y-44507911D01*
X115935000Y-44507911D01*
X115935000Y-44407911D01*
X115899068Y-44227271D01*
X115828586Y-44057111D01*
X115726262Y-43903972D01*
X115596028Y-43773738D01*
X115442889Y-43671414D01*
X115272729Y-43600932D01*
X115092089Y-43565000D01*
X114907911Y-43565000D01*
X114727271Y-43600932D01*
X114557111Y-43671414D01*
X114403972Y-43773738D01*
X114273738Y-43903972D01*
X114171414Y-44057111D01*
X114100932Y-44227271D01*
X114065000Y-44407911D01*
X75010000Y-44407911D01*
X75010000Y-42207911D01*
X106165000Y-42207911D01*
X106165000Y-42392089D01*
X106200932Y-42572729D01*
X106271414Y-42742889D01*
X106373738Y-42896028D01*
X106503972Y-43026262D01*
X106657111Y-43128586D01*
X106827271Y-43199068D01*
X107007911Y-43235000D01*
X107192089Y-43235000D01*
X107372729Y-43199068D01*
X107542889Y-43128586D01*
X107696028Y-43026262D01*
X107826262Y-42896028D01*
X107928586Y-42742889D01*
X107999068Y-42572729D01*
X108035000Y-42392089D01*
X108035000Y-42207911D01*
X107999068Y-42027271D01*
X107928586Y-41857111D01*
X107826262Y-41703972D01*
X107696028Y-41573738D01*
X107542889Y-41471414D01*
X107372729Y-41400932D01*
X107192089Y-41365000D01*
X107007911Y-41365000D01*
X106827271Y-41400932D01*
X106657111Y-41471414D01*
X106503972Y-41573738D01*
X106373738Y-41703972D01*
X106271414Y-41857111D01*
X106200932Y-42027271D01*
X106165000Y-42207911D01*
X75010000Y-42207911D01*
X75010000Y-39710000D01*
X79699363Y-39710000D01*
X79603972Y-39773738D01*
M02*
