G04 #@! TF.GenerationSoftware,KiCad,Pcbnew,5.1.6-c6e7f7d~86~ubuntu20.04.1*
G04 #@! TF.CreationDate,2020-05-17T16:09:24+03:00*
G04 #@! TF.ProjectId,GB-BRK-CART,47422d42-524b-42d4-9341-52542e6b6963,v4.0*
G04 #@! TF.SameCoordinates,Original*
G04 #@! TF.FileFunction,Copper,L2,Bot*
G04 #@! TF.FilePolarity,Positive*
%FSLAX46Y46*%
G04 Gerber Fmt 4.6, Leading zero omitted, Abs format (unit mm)*
G04 Created by KiCad (PCBNEW 5.1.6-c6e7f7d~86~ubuntu20.04.1) date 2020-05-17 16:09:24*
%MOMM*%
%LPD*%
G01*
G04 APERTURE LIST*
G04 #@! TA.AperFunction,Profile*
%ADD10C,0.150000*%
G04 #@! TD*
G04 #@! TA.AperFunction,ViaPad*
%ADD11C,0.600000*%
G04 #@! TD*
G04 #@! TA.AperFunction,ViaPad*
%ADD12C,1.000000*%
G04 #@! TD*
G04 #@! TA.AperFunction,Conductor*
%ADD13C,0.400000*%
G04 #@! TD*
G04 #@! TA.AperFunction,Conductor*
%ADD14C,0.254000*%
G04 #@! TD*
G04 APERTURE END LIST*
D10*
X121700000Y-39000000D02*
X121700000Y-41600000D01*
X74300000Y-39000000D02*
X121700000Y-39000000D01*
X125700000Y-41600000D02*
X121700000Y-41600000D01*
X74300000Y-91400000D02*
X74300000Y-39000000D01*
X75400000Y-91400000D02*
X74300000Y-91400000D01*
X75400000Y-100000000D02*
X75400000Y-91400000D01*
X125700000Y-91400000D02*
X125700000Y-41600000D01*
X124600000Y-91400000D02*
X125700000Y-91400000D01*
X124600000Y-100000000D02*
X124600000Y-91400000D01*
X75400000Y-100000000D02*
X124600000Y-100000000D01*
D11*
X123400000Y-92600000D03*
D12*
X123400000Y-90200000D03*
X123900000Y-84000000D03*
X120700000Y-68500000D03*
X120300000Y-78300000D03*
X123300000Y-74500000D03*
X123000000Y-63200000D03*
X120300000Y-59000000D03*
X123300000Y-54900000D03*
X122300000Y-48800000D03*
X120300000Y-86100000D03*
X77600000Y-40300000D03*
X100000000Y-40200000D03*
X120200000Y-42900000D03*
D11*
X84300000Y-92600000D03*
X78300000Y-92600000D03*
X82700000Y-58300000D03*
X83500000Y-56000000D03*
X85700000Y-92600000D03*
X87250000Y-92600000D03*
X88800000Y-92600000D03*
X90200000Y-92600000D03*
X101600000Y-57000000D03*
X93700000Y-47800000D03*
X108250000Y-92600000D03*
X91800000Y-92600000D03*
X102006139Y-56086186D03*
X96200000Y-47800000D03*
X109750000Y-92600000D03*
X93300000Y-92600000D03*
X104100000Y-56800000D03*
X98700000Y-47800000D03*
X111250000Y-92600000D03*
X94700000Y-92600000D03*
X104400000Y-55800000D03*
X101300000Y-47800000D03*
X112750000Y-92600000D03*
X96200000Y-92600000D03*
X114250000Y-92600000D03*
X97700000Y-92600000D03*
X115750000Y-92600000D03*
X103500000Y-62100000D03*
X106300000Y-52800000D03*
X99300000Y-92600000D03*
X117250000Y-92600000D03*
X104499994Y-62700000D03*
X108900000Y-52800000D03*
X100800000Y-92600000D03*
X118750000Y-92600000D03*
X105500000Y-63300000D03*
X111400000Y-52800000D03*
X102300000Y-92600000D03*
X106499994Y-63900000D03*
X114000000Y-52800000D03*
X103800000Y-92600000D03*
X121750000Y-92600000D03*
X107507115Y-64507115D03*
X116500000Y-52800000D03*
X105300000Y-92600000D03*
X108500000Y-65100000D03*
X119000000Y-52800000D03*
X106800000Y-92600000D03*
X114520000Y-48000000D03*
X120250000Y-92600000D03*
X90600000Y-56000000D03*
X82800000Y-92600000D03*
X84499996Y-62600000D03*
X88500000Y-56000000D03*
X81300000Y-92600000D03*
X84600000Y-60700000D03*
X79800000Y-92600000D03*
X83847602Y-58952398D03*
X86200000Y-55400000D03*
D13*
X83500000Y-57500000D02*
X82700000Y-58300000D01*
X83500000Y-56000000D02*
X83500000Y-57500000D01*
X93700000Y-47800000D02*
X93700000Y-49100000D01*
X93700000Y-49100000D02*
X101600000Y-57000000D01*
X96200000Y-47800000D02*
X96200000Y-50280047D01*
X96200000Y-50280047D02*
X102006139Y-56086186D01*
X98700000Y-51400000D02*
X104100000Y-56800000D01*
X98700000Y-47800000D02*
X98700000Y-51400000D01*
X101300000Y-52700000D02*
X104400000Y-55800000D01*
X101300000Y-47800000D02*
X101300000Y-52700000D01*
X106300000Y-52800000D02*
X106300000Y-59300000D01*
X106300000Y-59300000D02*
X103500000Y-62100000D01*
X108900000Y-52800000D02*
X108900000Y-58299994D01*
X108900000Y-58299994D02*
X104499994Y-62700000D01*
X111400000Y-52800000D02*
X111400000Y-57400000D01*
X111400000Y-57400000D02*
X105500000Y-63300000D01*
X114000000Y-56399994D02*
X106499994Y-63900000D01*
X114000000Y-52800000D02*
X114000000Y-56399994D01*
X116500000Y-55514230D02*
X107507115Y-64507115D01*
X116500000Y-52800000D02*
X116500000Y-55514230D01*
X108500000Y-65100000D02*
X119000000Y-54600000D01*
X119000000Y-54600000D02*
X119000000Y-52800000D01*
X90600000Y-56499996D02*
X90600000Y-56000000D01*
X84499996Y-62600000D02*
X90600000Y-56499996D01*
X84500000Y-62600000D02*
X84499996Y-62600000D01*
X84600000Y-59900000D02*
X88500000Y-56000000D01*
X84600000Y-60700000D02*
X84600000Y-59900000D01*
X83847602Y-58952398D02*
X86200000Y-56600000D01*
X86200000Y-56600000D02*
X86200000Y-55400000D01*
D14*
G36*
X120990001Y-41565113D02*
G01*
X120986565Y-41600000D01*
X121000273Y-41739184D01*
X121040872Y-41873020D01*
X121106800Y-41996363D01*
X121195525Y-42104475D01*
X121303637Y-42193200D01*
X121426980Y-42259128D01*
X121560816Y-42299727D01*
X121665123Y-42310000D01*
X121700000Y-42313435D01*
X121734877Y-42310000D01*
X124990001Y-42310000D01*
X124990000Y-90690000D01*
X124634877Y-90690000D01*
X124600000Y-90686565D01*
X124565123Y-90690000D01*
X124460816Y-90700273D01*
X124326980Y-90740872D01*
X124203637Y-90806800D01*
X124095525Y-90895525D01*
X124006800Y-91003637D01*
X123940872Y-91126980D01*
X123900273Y-91260816D01*
X123886565Y-91400000D01*
X123890001Y-91434887D01*
X123890000Y-99290000D01*
X76110000Y-99290000D01*
X76110000Y-92507911D01*
X77365000Y-92507911D01*
X77365000Y-92692089D01*
X77400932Y-92872729D01*
X77471414Y-93042889D01*
X77573738Y-93196028D01*
X77703972Y-93326262D01*
X77857111Y-93428586D01*
X78027271Y-93499068D01*
X78207911Y-93535000D01*
X78392089Y-93535000D01*
X78572729Y-93499068D01*
X78742889Y-93428586D01*
X78896028Y-93326262D01*
X79026262Y-93196028D01*
X79050000Y-93160502D01*
X79073738Y-93196028D01*
X79203972Y-93326262D01*
X79357111Y-93428586D01*
X79527271Y-93499068D01*
X79707911Y-93535000D01*
X79892089Y-93535000D01*
X80072729Y-93499068D01*
X80242889Y-93428586D01*
X80396028Y-93326262D01*
X80526262Y-93196028D01*
X80550000Y-93160502D01*
X80573738Y-93196028D01*
X80703972Y-93326262D01*
X80857111Y-93428586D01*
X81027271Y-93499068D01*
X81207911Y-93535000D01*
X81392089Y-93535000D01*
X81572729Y-93499068D01*
X81742889Y-93428586D01*
X81896028Y-93326262D01*
X82026262Y-93196028D01*
X82050000Y-93160502D01*
X82073738Y-93196028D01*
X82203972Y-93326262D01*
X82357111Y-93428586D01*
X82527271Y-93499068D01*
X82707911Y-93535000D01*
X82892089Y-93535000D01*
X83072729Y-93499068D01*
X83242889Y-93428586D01*
X83396028Y-93326262D01*
X83526262Y-93196028D01*
X83550000Y-93160502D01*
X83573738Y-93196028D01*
X83703972Y-93326262D01*
X83857111Y-93428586D01*
X84027271Y-93499068D01*
X84207911Y-93535000D01*
X84392089Y-93535000D01*
X84572729Y-93499068D01*
X84742889Y-93428586D01*
X84896028Y-93326262D01*
X85000000Y-93222290D01*
X85103972Y-93326262D01*
X85257111Y-93428586D01*
X85427271Y-93499068D01*
X85607911Y-93535000D01*
X85792089Y-93535000D01*
X85972729Y-93499068D01*
X86142889Y-93428586D01*
X86296028Y-93326262D01*
X86426262Y-93196028D01*
X86475000Y-93123086D01*
X86523738Y-93196028D01*
X86653972Y-93326262D01*
X86807111Y-93428586D01*
X86977271Y-93499068D01*
X87157911Y-93535000D01*
X87342089Y-93535000D01*
X87522729Y-93499068D01*
X87692889Y-93428586D01*
X87846028Y-93326262D01*
X87976262Y-93196028D01*
X88025000Y-93123086D01*
X88073738Y-93196028D01*
X88203972Y-93326262D01*
X88357111Y-93428586D01*
X88527271Y-93499068D01*
X88707911Y-93535000D01*
X88892089Y-93535000D01*
X89072729Y-93499068D01*
X89242889Y-93428586D01*
X89396028Y-93326262D01*
X89500000Y-93222290D01*
X89603972Y-93326262D01*
X89757111Y-93428586D01*
X89927271Y-93499068D01*
X90107911Y-93535000D01*
X90292089Y-93535000D01*
X90472729Y-93499068D01*
X90642889Y-93428586D01*
X90796028Y-93326262D01*
X90926262Y-93196028D01*
X91000000Y-93085671D01*
X91073738Y-93196028D01*
X91203972Y-93326262D01*
X91357111Y-93428586D01*
X91527271Y-93499068D01*
X91707911Y-93535000D01*
X91892089Y-93535000D01*
X92072729Y-93499068D01*
X92242889Y-93428586D01*
X92396028Y-93326262D01*
X92526262Y-93196028D01*
X92550000Y-93160502D01*
X92573738Y-93196028D01*
X92703972Y-93326262D01*
X92857111Y-93428586D01*
X93027271Y-93499068D01*
X93207911Y-93535000D01*
X93392089Y-93535000D01*
X93572729Y-93499068D01*
X93742889Y-93428586D01*
X93896028Y-93326262D01*
X94000000Y-93222290D01*
X94103972Y-93326262D01*
X94257111Y-93428586D01*
X94427271Y-93499068D01*
X94607911Y-93535000D01*
X94792089Y-93535000D01*
X94972729Y-93499068D01*
X95142889Y-93428586D01*
X95296028Y-93326262D01*
X95426262Y-93196028D01*
X95450000Y-93160502D01*
X95473738Y-93196028D01*
X95603972Y-93326262D01*
X95757111Y-93428586D01*
X95927271Y-93499068D01*
X96107911Y-93535000D01*
X96292089Y-93535000D01*
X96472729Y-93499068D01*
X96642889Y-93428586D01*
X96796028Y-93326262D01*
X96926262Y-93196028D01*
X96950000Y-93160502D01*
X96973738Y-93196028D01*
X97103972Y-93326262D01*
X97257111Y-93428586D01*
X97427271Y-93499068D01*
X97607911Y-93535000D01*
X97792089Y-93535000D01*
X97972729Y-93499068D01*
X98142889Y-93428586D01*
X98296028Y-93326262D01*
X98426262Y-93196028D01*
X98500000Y-93085671D01*
X98573738Y-93196028D01*
X98703972Y-93326262D01*
X98857111Y-93428586D01*
X99027271Y-93499068D01*
X99207911Y-93535000D01*
X99392089Y-93535000D01*
X99572729Y-93499068D01*
X99742889Y-93428586D01*
X99896028Y-93326262D01*
X100026262Y-93196028D01*
X100050000Y-93160502D01*
X100073738Y-93196028D01*
X100203972Y-93326262D01*
X100357111Y-93428586D01*
X100527271Y-93499068D01*
X100707911Y-93535000D01*
X100892089Y-93535000D01*
X101072729Y-93499068D01*
X101242889Y-93428586D01*
X101396028Y-93326262D01*
X101526262Y-93196028D01*
X101550000Y-93160502D01*
X101573738Y-93196028D01*
X101703972Y-93326262D01*
X101857111Y-93428586D01*
X102027271Y-93499068D01*
X102207911Y-93535000D01*
X102392089Y-93535000D01*
X102572729Y-93499068D01*
X102742889Y-93428586D01*
X102896028Y-93326262D01*
X103026262Y-93196028D01*
X103050000Y-93160502D01*
X103073738Y-93196028D01*
X103203972Y-93326262D01*
X103357111Y-93428586D01*
X103527271Y-93499068D01*
X103707911Y-93535000D01*
X103892089Y-93535000D01*
X104072729Y-93499068D01*
X104242889Y-93428586D01*
X104396028Y-93326262D01*
X104526262Y-93196028D01*
X104550000Y-93160502D01*
X104573738Y-93196028D01*
X104703972Y-93326262D01*
X104857111Y-93428586D01*
X105027271Y-93499068D01*
X105207911Y-93535000D01*
X105392089Y-93535000D01*
X105572729Y-93499068D01*
X105742889Y-93428586D01*
X105896028Y-93326262D01*
X106026262Y-93196028D01*
X106050000Y-93160502D01*
X106073738Y-93196028D01*
X106203972Y-93326262D01*
X106357111Y-93428586D01*
X106527271Y-93499068D01*
X106707911Y-93535000D01*
X106892089Y-93535000D01*
X107072729Y-93499068D01*
X107242889Y-93428586D01*
X107396028Y-93326262D01*
X107525000Y-93197290D01*
X107653972Y-93326262D01*
X107807111Y-93428586D01*
X107977271Y-93499068D01*
X108157911Y-93535000D01*
X108342089Y-93535000D01*
X108522729Y-93499068D01*
X108692889Y-93428586D01*
X108846028Y-93326262D01*
X108976262Y-93196028D01*
X109000000Y-93160502D01*
X109023738Y-93196028D01*
X109153972Y-93326262D01*
X109307111Y-93428586D01*
X109477271Y-93499068D01*
X109657911Y-93535000D01*
X109842089Y-93535000D01*
X110022729Y-93499068D01*
X110192889Y-93428586D01*
X110346028Y-93326262D01*
X110476262Y-93196028D01*
X110500000Y-93160502D01*
X110523738Y-93196028D01*
X110653972Y-93326262D01*
X110807111Y-93428586D01*
X110977271Y-93499068D01*
X111157911Y-93535000D01*
X111342089Y-93535000D01*
X111522729Y-93499068D01*
X111692889Y-93428586D01*
X111846028Y-93326262D01*
X111976262Y-93196028D01*
X112000000Y-93160502D01*
X112023738Y-93196028D01*
X112153972Y-93326262D01*
X112307111Y-93428586D01*
X112477271Y-93499068D01*
X112657911Y-93535000D01*
X112842089Y-93535000D01*
X113022729Y-93499068D01*
X113192889Y-93428586D01*
X113346028Y-93326262D01*
X113476262Y-93196028D01*
X113500000Y-93160502D01*
X113523738Y-93196028D01*
X113653972Y-93326262D01*
X113807111Y-93428586D01*
X113977271Y-93499068D01*
X114157911Y-93535000D01*
X114342089Y-93535000D01*
X114522729Y-93499068D01*
X114692889Y-93428586D01*
X114846028Y-93326262D01*
X114976262Y-93196028D01*
X115000000Y-93160502D01*
X115023738Y-93196028D01*
X115153972Y-93326262D01*
X115307111Y-93428586D01*
X115477271Y-93499068D01*
X115657911Y-93535000D01*
X115842089Y-93535000D01*
X116022729Y-93499068D01*
X116192889Y-93428586D01*
X116346028Y-93326262D01*
X116476262Y-93196028D01*
X116500000Y-93160502D01*
X116523738Y-93196028D01*
X116653972Y-93326262D01*
X116807111Y-93428586D01*
X116977271Y-93499068D01*
X117157911Y-93535000D01*
X117342089Y-93535000D01*
X117522729Y-93499068D01*
X117692889Y-93428586D01*
X117846028Y-93326262D01*
X117976262Y-93196028D01*
X118000000Y-93160502D01*
X118023738Y-93196028D01*
X118153972Y-93326262D01*
X118307111Y-93428586D01*
X118477271Y-93499068D01*
X118657911Y-93535000D01*
X118842089Y-93535000D01*
X119022729Y-93499068D01*
X119192889Y-93428586D01*
X119346028Y-93326262D01*
X119476262Y-93196028D01*
X119500000Y-93160502D01*
X119523738Y-93196028D01*
X119653972Y-93326262D01*
X119807111Y-93428586D01*
X119977271Y-93499068D01*
X120157911Y-93535000D01*
X120342089Y-93535000D01*
X120522729Y-93499068D01*
X120692889Y-93428586D01*
X120846028Y-93326262D01*
X120976262Y-93196028D01*
X121000000Y-93160502D01*
X121023738Y-93196028D01*
X121153972Y-93326262D01*
X121307111Y-93428586D01*
X121477271Y-93499068D01*
X121657911Y-93535000D01*
X121842089Y-93535000D01*
X122022729Y-93499068D01*
X122192889Y-93428586D01*
X122346028Y-93326262D01*
X122476262Y-93196028D01*
X122578586Y-93042889D01*
X122649068Y-92872729D01*
X122685000Y-92692089D01*
X122685000Y-92507911D01*
X122649068Y-92327271D01*
X122578586Y-92157111D01*
X122476262Y-92003972D01*
X122346028Y-91873738D01*
X122192889Y-91771414D01*
X122022729Y-91700932D01*
X121842089Y-91665000D01*
X121657911Y-91665000D01*
X121477271Y-91700932D01*
X121307111Y-91771414D01*
X121153972Y-91873738D01*
X121023738Y-92003972D01*
X121000000Y-92039498D01*
X120976262Y-92003972D01*
X120846028Y-91873738D01*
X120692889Y-91771414D01*
X120522729Y-91700932D01*
X120342089Y-91665000D01*
X120157911Y-91665000D01*
X119977271Y-91700932D01*
X119807111Y-91771414D01*
X119653972Y-91873738D01*
X119523738Y-92003972D01*
X119500000Y-92039498D01*
X119476262Y-92003972D01*
X119346028Y-91873738D01*
X119192889Y-91771414D01*
X119022729Y-91700932D01*
X118842089Y-91665000D01*
X118657911Y-91665000D01*
X118477271Y-91700932D01*
X118307111Y-91771414D01*
X118153972Y-91873738D01*
X118023738Y-92003972D01*
X118000000Y-92039498D01*
X117976262Y-92003972D01*
X117846028Y-91873738D01*
X117692889Y-91771414D01*
X117522729Y-91700932D01*
X117342089Y-91665000D01*
X117157911Y-91665000D01*
X116977271Y-91700932D01*
X116807111Y-91771414D01*
X116653972Y-91873738D01*
X116523738Y-92003972D01*
X116500000Y-92039498D01*
X116476262Y-92003972D01*
X116346028Y-91873738D01*
X116192889Y-91771414D01*
X116022729Y-91700932D01*
X115842089Y-91665000D01*
X115657911Y-91665000D01*
X115477271Y-91700932D01*
X115307111Y-91771414D01*
X115153972Y-91873738D01*
X115023738Y-92003972D01*
X115000000Y-92039498D01*
X114976262Y-92003972D01*
X114846028Y-91873738D01*
X114692889Y-91771414D01*
X114522729Y-91700932D01*
X114342089Y-91665000D01*
X114157911Y-91665000D01*
X113977271Y-91700932D01*
X113807111Y-91771414D01*
X113653972Y-91873738D01*
X113523738Y-92003972D01*
X113500000Y-92039498D01*
X113476262Y-92003972D01*
X113346028Y-91873738D01*
X113192889Y-91771414D01*
X113022729Y-91700932D01*
X112842089Y-91665000D01*
X112657911Y-91665000D01*
X112477271Y-91700932D01*
X112307111Y-91771414D01*
X112153972Y-91873738D01*
X112023738Y-92003972D01*
X112000000Y-92039498D01*
X111976262Y-92003972D01*
X111846028Y-91873738D01*
X111692889Y-91771414D01*
X111522729Y-91700932D01*
X111342089Y-91665000D01*
X111157911Y-91665000D01*
X110977271Y-91700932D01*
X110807111Y-91771414D01*
X110653972Y-91873738D01*
X110523738Y-92003972D01*
X110500000Y-92039498D01*
X110476262Y-92003972D01*
X110346028Y-91873738D01*
X110192889Y-91771414D01*
X110022729Y-91700932D01*
X109842089Y-91665000D01*
X109657911Y-91665000D01*
X109477271Y-91700932D01*
X109307111Y-91771414D01*
X109153972Y-91873738D01*
X109023738Y-92003972D01*
X109000000Y-92039498D01*
X108976262Y-92003972D01*
X108846028Y-91873738D01*
X108692889Y-91771414D01*
X108522729Y-91700932D01*
X108342089Y-91665000D01*
X108157911Y-91665000D01*
X107977271Y-91700932D01*
X107807111Y-91771414D01*
X107653972Y-91873738D01*
X107525000Y-92002710D01*
X107396028Y-91873738D01*
X107242889Y-91771414D01*
X107072729Y-91700932D01*
X106892089Y-91665000D01*
X106707911Y-91665000D01*
X106527271Y-91700932D01*
X106357111Y-91771414D01*
X106203972Y-91873738D01*
X106073738Y-92003972D01*
X106050000Y-92039498D01*
X106026262Y-92003972D01*
X105896028Y-91873738D01*
X105742889Y-91771414D01*
X105572729Y-91700932D01*
X105392089Y-91665000D01*
X105207911Y-91665000D01*
X105027271Y-91700932D01*
X104857111Y-91771414D01*
X104703972Y-91873738D01*
X104573738Y-92003972D01*
X104550000Y-92039498D01*
X104526262Y-92003972D01*
X104396028Y-91873738D01*
X104242889Y-91771414D01*
X104072729Y-91700932D01*
X103892089Y-91665000D01*
X103707911Y-91665000D01*
X103527271Y-91700932D01*
X103357111Y-91771414D01*
X103203972Y-91873738D01*
X103073738Y-92003972D01*
X103050000Y-92039498D01*
X103026262Y-92003972D01*
X102896028Y-91873738D01*
X102742889Y-91771414D01*
X102572729Y-91700932D01*
X102392089Y-91665000D01*
X102207911Y-91665000D01*
X102027271Y-91700932D01*
X101857111Y-91771414D01*
X101703972Y-91873738D01*
X101573738Y-92003972D01*
X101550000Y-92039498D01*
X101526262Y-92003972D01*
X101396028Y-91873738D01*
X101242889Y-91771414D01*
X101072729Y-91700932D01*
X100892089Y-91665000D01*
X100707911Y-91665000D01*
X100527271Y-91700932D01*
X100357111Y-91771414D01*
X100203972Y-91873738D01*
X100073738Y-92003972D01*
X100050000Y-92039498D01*
X100026262Y-92003972D01*
X99896028Y-91873738D01*
X99742889Y-91771414D01*
X99572729Y-91700932D01*
X99392089Y-91665000D01*
X99207911Y-91665000D01*
X99027271Y-91700932D01*
X98857111Y-91771414D01*
X98703972Y-91873738D01*
X98573738Y-92003972D01*
X98500000Y-92114329D01*
X98426262Y-92003972D01*
X98296028Y-91873738D01*
X98142889Y-91771414D01*
X97972729Y-91700932D01*
X97792089Y-91665000D01*
X97607911Y-91665000D01*
X97427271Y-91700932D01*
X97257111Y-91771414D01*
X97103972Y-91873738D01*
X96973738Y-92003972D01*
X96950000Y-92039498D01*
X96926262Y-92003972D01*
X96796028Y-91873738D01*
X96642889Y-91771414D01*
X96472729Y-91700932D01*
X96292089Y-91665000D01*
X96107911Y-91665000D01*
X95927271Y-91700932D01*
X95757111Y-91771414D01*
X95603972Y-91873738D01*
X95473738Y-92003972D01*
X95450000Y-92039498D01*
X95426262Y-92003972D01*
X95296028Y-91873738D01*
X95142889Y-91771414D01*
X94972729Y-91700932D01*
X94792089Y-91665000D01*
X94607911Y-91665000D01*
X94427271Y-91700932D01*
X94257111Y-91771414D01*
X94103972Y-91873738D01*
X94000000Y-91977710D01*
X93896028Y-91873738D01*
X93742889Y-91771414D01*
X93572729Y-91700932D01*
X93392089Y-91665000D01*
X93207911Y-91665000D01*
X93027271Y-91700932D01*
X92857111Y-91771414D01*
X92703972Y-91873738D01*
X92573738Y-92003972D01*
X92550000Y-92039498D01*
X92526262Y-92003972D01*
X92396028Y-91873738D01*
X92242889Y-91771414D01*
X92072729Y-91700932D01*
X91892089Y-91665000D01*
X91707911Y-91665000D01*
X91527271Y-91700932D01*
X91357111Y-91771414D01*
X91203972Y-91873738D01*
X91073738Y-92003972D01*
X91000000Y-92114329D01*
X90926262Y-92003972D01*
X90796028Y-91873738D01*
X90642889Y-91771414D01*
X90472729Y-91700932D01*
X90292089Y-91665000D01*
X90107911Y-91665000D01*
X89927271Y-91700932D01*
X89757111Y-91771414D01*
X89603972Y-91873738D01*
X89500000Y-91977710D01*
X89396028Y-91873738D01*
X89242889Y-91771414D01*
X89072729Y-91700932D01*
X88892089Y-91665000D01*
X88707911Y-91665000D01*
X88527271Y-91700932D01*
X88357111Y-91771414D01*
X88203972Y-91873738D01*
X88073738Y-92003972D01*
X88025000Y-92076914D01*
X87976262Y-92003972D01*
X87846028Y-91873738D01*
X87692889Y-91771414D01*
X87522729Y-91700932D01*
X87342089Y-91665000D01*
X87157911Y-91665000D01*
X86977271Y-91700932D01*
X86807111Y-91771414D01*
X86653972Y-91873738D01*
X86523738Y-92003972D01*
X86475000Y-92076914D01*
X86426262Y-92003972D01*
X86296028Y-91873738D01*
X86142889Y-91771414D01*
X85972729Y-91700932D01*
X85792089Y-91665000D01*
X85607911Y-91665000D01*
X85427271Y-91700932D01*
X85257111Y-91771414D01*
X85103972Y-91873738D01*
X85000000Y-91977710D01*
X84896028Y-91873738D01*
X84742889Y-91771414D01*
X84572729Y-91700932D01*
X84392089Y-91665000D01*
X84207911Y-91665000D01*
X84027271Y-91700932D01*
X83857111Y-91771414D01*
X83703972Y-91873738D01*
X83573738Y-92003972D01*
X83550000Y-92039498D01*
X83526262Y-92003972D01*
X83396028Y-91873738D01*
X83242889Y-91771414D01*
X83072729Y-91700932D01*
X82892089Y-91665000D01*
X82707911Y-91665000D01*
X82527271Y-91700932D01*
X82357111Y-91771414D01*
X82203972Y-91873738D01*
X82073738Y-92003972D01*
X82050000Y-92039498D01*
X82026262Y-92003972D01*
X81896028Y-91873738D01*
X81742889Y-91771414D01*
X81572729Y-91700932D01*
X81392089Y-91665000D01*
X81207911Y-91665000D01*
X81027271Y-91700932D01*
X80857111Y-91771414D01*
X80703972Y-91873738D01*
X80573738Y-92003972D01*
X80550000Y-92039498D01*
X80526262Y-92003972D01*
X80396028Y-91873738D01*
X80242889Y-91771414D01*
X80072729Y-91700932D01*
X79892089Y-91665000D01*
X79707911Y-91665000D01*
X79527271Y-91700932D01*
X79357111Y-91771414D01*
X79203972Y-91873738D01*
X79073738Y-92003972D01*
X79050000Y-92039498D01*
X79026262Y-92003972D01*
X78896028Y-91873738D01*
X78742889Y-91771414D01*
X78572729Y-91700932D01*
X78392089Y-91665000D01*
X78207911Y-91665000D01*
X78027271Y-91700932D01*
X77857111Y-91771414D01*
X77703972Y-91873738D01*
X77573738Y-92003972D01*
X77471414Y-92157111D01*
X77400932Y-92327271D01*
X77365000Y-92507911D01*
X76110000Y-92507911D01*
X76110000Y-91434876D01*
X76113435Y-91400000D01*
X76099727Y-91260816D01*
X76059128Y-91126980D01*
X75993200Y-91003637D01*
X75904475Y-90895525D01*
X75796363Y-90806800D01*
X75673020Y-90740872D01*
X75539184Y-90700273D01*
X75434877Y-90690000D01*
X75400000Y-90686565D01*
X75365123Y-90690000D01*
X75010000Y-90690000D01*
X75010000Y-84232889D01*
X95765000Y-84232889D01*
X95765000Y-85067111D01*
X95927749Y-85885304D01*
X96246992Y-86656025D01*
X96710461Y-87349655D01*
X97300345Y-87939539D01*
X97993975Y-88403008D01*
X98764696Y-88722251D01*
X99582889Y-88885000D01*
X100417111Y-88885000D01*
X101235304Y-88722251D01*
X102006025Y-88403008D01*
X102699655Y-87939539D01*
X103289539Y-87349655D01*
X103753008Y-86656025D01*
X104072251Y-85885304D01*
X104235000Y-85067111D01*
X104235000Y-84232889D01*
X104072251Y-83414696D01*
X103753008Y-82643975D01*
X103289539Y-81950345D01*
X102699655Y-81360461D01*
X102006025Y-80896992D01*
X101235304Y-80577749D01*
X100417111Y-80415000D01*
X99582889Y-80415000D01*
X98764696Y-80577749D01*
X97993975Y-80896992D01*
X97300345Y-81360461D01*
X96710461Y-81950345D01*
X96246992Y-82643975D01*
X95927749Y-83414696D01*
X95765000Y-84232889D01*
X75010000Y-84232889D01*
X75010000Y-58207911D01*
X81765000Y-58207911D01*
X81765000Y-58392089D01*
X81800932Y-58572729D01*
X81871414Y-58742889D01*
X81973738Y-58896028D01*
X82103972Y-59026262D01*
X82257111Y-59128586D01*
X82427271Y-59199068D01*
X82607911Y-59235000D01*
X82792089Y-59235000D01*
X82944469Y-59204689D01*
X82948534Y-59225127D01*
X83019016Y-59395287D01*
X83121340Y-59548426D01*
X83251574Y-59678660D01*
X83404713Y-59780984D01*
X83574873Y-59851466D01*
X83755513Y-59887398D01*
X83762201Y-59887398D01*
X83760960Y-59900000D01*
X83765000Y-59941018D01*
X83765000Y-60272596D01*
X83700932Y-60427271D01*
X83665000Y-60607911D01*
X83665000Y-60792089D01*
X83700932Y-60972729D01*
X83771414Y-61142889D01*
X83873738Y-61296028D01*
X84003972Y-61426262D01*
X84157111Y-61528586D01*
X84322173Y-61596956D01*
X84211784Y-61707345D01*
X84057107Y-61771414D01*
X83903968Y-61873738D01*
X83773734Y-62003972D01*
X83671410Y-62157111D01*
X83600928Y-62327271D01*
X83564996Y-62507911D01*
X83564996Y-62692089D01*
X83600928Y-62872729D01*
X83671410Y-63042889D01*
X83773734Y-63196028D01*
X83903968Y-63326262D01*
X84057107Y-63428586D01*
X84227267Y-63499068D01*
X84407907Y-63535000D01*
X84592085Y-63535000D01*
X84772725Y-63499068D01*
X84942885Y-63428586D01*
X85096024Y-63326262D01*
X85226258Y-63196028D01*
X85328582Y-63042889D01*
X85392651Y-62888212D01*
X86272952Y-62007911D01*
X102565000Y-62007911D01*
X102565000Y-62192089D01*
X102600932Y-62372729D01*
X102671414Y-62542889D01*
X102773738Y-62696028D01*
X102903972Y-62826262D01*
X103057111Y-62928586D01*
X103227271Y-62999068D01*
X103407911Y-63035000D01*
X103592089Y-63035000D01*
X103624083Y-63028636D01*
X103671408Y-63142889D01*
X103773732Y-63296028D01*
X103903966Y-63426262D01*
X104057105Y-63528586D01*
X104227265Y-63599068D01*
X104407905Y-63635000D01*
X104592083Y-63635000D01*
X104624088Y-63628634D01*
X104671414Y-63742889D01*
X104773738Y-63896028D01*
X104903972Y-64026262D01*
X105057111Y-64128586D01*
X105227271Y-64199068D01*
X105407911Y-64235000D01*
X105592089Y-64235000D01*
X105624083Y-64228636D01*
X105671408Y-64342889D01*
X105773732Y-64496028D01*
X105903966Y-64626262D01*
X106057105Y-64728586D01*
X106227265Y-64799068D01*
X106407905Y-64835000D01*
X106592083Y-64835000D01*
X106627939Y-64827868D01*
X106678529Y-64950004D01*
X106780853Y-65103143D01*
X106911087Y-65233377D01*
X107064226Y-65335701D01*
X107234386Y-65406183D01*
X107415026Y-65442115D01*
X107599204Y-65442115D01*
X107627353Y-65436516D01*
X107671414Y-65542889D01*
X107773738Y-65696028D01*
X107903972Y-65826262D01*
X108057111Y-65928586D01*
X108227271Y-65999068D01*
X108407911Y-66035000D01*
X108592089Y-66035000D01*
X108772729Y-65999068D01*
X108942889Y-65928586D01*
X109096028Y-65826262D01*
X109226262Y-65696028D01*
X109328586Y-65542889D01*
X109392655Y-65388212D01*
X119561428Y-55219440D01*
X119593291Y-55193291D01*
X119697636Y-55066146D01*
X119775172Y-54921087D01*
X119822918Y-54763689D01*
X119835000Y-54641019D01*
X119835000Y-54641009D01*
X119839039Y-54600001D01*
X119835000Y-54558993D01*
X119835000Y-53227404D01*
X119899068Y-53072729D01*
X119935000Y-52892089D01*
X119935000Y-52707911D01*
X119899068Y-52527271D01*
X119828586Y-52357111D01*
X119726262Y-52203972D01*
X119596028Y-52073738D01*
X119442889Y-51971414D01*
X119272729Y-51900932D01*
X119092089Y-51865000D01*
X118907911Y-51865000D01*
X118727271Y-51900932D01*
X118557111Y-51971414D01*
X118403972Y-52073738D01*
X118273738Y-52203972D01*
X118171414Y-52357111D01*
X118100932Y-52527271D01*
X118065000Y-52707911D01*
X118065000Y-52892089D01*
X118100932Y-53072729D01*
X118165001Y-53227406D01*
X118165000Y-54254132D01*
X117335000Y-55084132D01*
X117335000Y-53227404D01*
X117399068Y-53072729D01*
X117435000Y-52892089D01*
X117435000Y-52707911D01*
X117399068Y-52527271D01*
X117328586Y-52357111D01*
X117226262Y-52203972D01*
X117096028Y-52073738D01*
X116942889Y-51971414D01*
X116772729Y-51900932D01*
X116592089Y-51865000D01*
X116407911Y-51865000D01*
X116227271Y-51900932D01*
X116057111Y-51971414D01*
X115903972Y-52073738D01*
X115773738Y-52203972D01*
X115671414Y-52357111D01*
X115600932Y-52527271D01*
X115565000Y-52707911D01*
X115565000Y-52892089D01*
X115600932Y-53072729D01*
X115665000Y-53227405D01*
X115665001Y-55168360D01*
X114835000Y-55998361D01*
X114835000Y-53227404D01*
X114899068Y-53072729D01*
X114935000Y-52892089D01*
X114935000Y-52707911D01*
X114899068Y-52527271D01*
X114828586Y-52357111D01*
X114726262Y-52203972D01*
X114596028Y-52073738D01*
X114442889Y-51971414D01*
X114272729Y-51900932D01*
X114092089Y-51865000D01*
X113907911Y-51865000D01*
X113727271Y-51900932D01*
X113557111Y-51971414D01*
X113403972Y-52073738D01*
X113273738Y-52203972D01*
X113171414Y-52357111D01*
X113100932Y-52527271D01*
X113065000Y-52707911D01*
X113065000Y-52892089D01*
X113100932Y-53072729D01*
X113165000Y-53227404D01*
X113165001Y-56054125D01*
X112235000Y-56984126D01*
X112235000Y-53227404D01*
X112299068Y-53072729D01*
X112335000Y-52892089D01*
X112335000Y-52707911D01*
X112299068Y-52527271D01*
X112228586Y-52357111D01*
X112126262Y-52203972D01*
X111996028Y-52073738D01*
X111842889Y-51971414D01*
X111672729Y-51900932D01*
X111492089Y-51865000D01*
X111307911Y-51865000D01*
X111127271Y-51900932D01*
X110957111Y-51971414D01*
X110803972Y-52073738D01*
X110673738Y-52203972D01*
X110571414Y-52357111D01*
X110500932Y-52527271D01*
X110465000Y-52707911D01*
X110465000Y-52892089D01*
X110500932Y-53072729D01*
X110565000Y-53227404D01*
X110565001Y-57054131D01*
X109735000Y-57884132D01*
X109735000Y-53227404D01*
X109799068Y-53072729D01*
X109835000Y-52892089D01*
X109835000Y-52707911D01*
X109799068Y-52527271D01*
X109728586Y-52357111D01*
X109626262Y-52203972D01*
X109496028Y-52073738D01*
X109342889Y-51971414D01*
X109172729Y-51900932D01*
X108992089Y-51865000D01*
X108807911Y-51865000D01*
X108627271Y-51900932D01*
X108457111Y-51971414D01*
X108303972Y-52073738D01*
X108173738Y-52203972D01*
X108071414Y-52357111D01*
X108000932Y-52527271D01*
X107965000Y-52707911D01*
X107965000Y-52892089D01*
X108000932Y-53072729D01*
X108065000Y-53227404D01*
X108065001Y-57954125D01*
X107135000Y-58884126D01*
X107135000Y-53227404D01*
X107199068Y-53072729D01*
X107235000Y-52892089D01*
X107235000Y-52707911D01*
X107199068Y-52527271D01*
X107128586Y-52357111D01*
X107026262Y-52203972D01*
X106896028Y-52073738D01*
X106742889Y-51971414D01*
X106572729Y-51900932D01*
X106392089Y-51865000D01*
X106207911Y-51865000D01*
X106027271Y-51900932D01*
X105857111Y-51971414D01*
X105703972Y-52073738D01*
X105573738Y-52203972D01*
X105471414Y-52357111D01*
X105400932Y-52527271D01*
X105365000Y-52707911D01*
X105365000Y-52892089D01*
X105400932Y-53072729D01*
X105465000Y-53227404D01*
X105465001Y-58954131D01*
X103211787Y-61207345D01*
X103057111Y-61271414D01*
X102903972Y-61373738D01*
X102773738Y-61503972D01*
X102671414Y-61657111D01*
X102600932Y-61827271D01*
X102565000Y-62007911D01*
X86272952Y-62007911D01*
X88806670Y-59474193D01*
X98215000Y-59474193D01*
X98215000Y-59825807D01*
X98283596Y-60170665D01*
X98418153Y-60495515D01*
X98613500Y-60787871D01*
X98862129Y-61036500D01*
X99154485Y-61231847D01*
X99479335Y-61366404D01*
X99824193Y-61435000D01*
X100175807Y-61435000D01*
X100520665Y-61366404D01*
X100845515Y-61231847D01*
X101137871Y-61036500D01*
X101386500Y-60787871D01*
X101581847Y-60495515D01*
X101716404Y-60170665D01*
X101785000Y-59825807D01*
X101785000Y-59474193D01*
X101716404Y-59129335D01*
X101581847Y-58804485D01*
X101386500Y-58512129D01*
X101137871Y-58263500D01*
X100845515Y-58068153D01*
X100520665Y-57933596D01*
X100175807Y-57865000D01*
X99824193Y-57865000D01*
X99479335Y-57933596D01*
X99154485Y-58068153D01*
X98862129Y-58263500D01*
X98613500Y-58512129D01*
X98418153Y-58804485D01*
X98283596Y-59129335D01*
X98215000Y-59474193D01*
X88806670Y-59474193D01*
X91161428Y-57119436D01*
X91193291Y-57093287D01*
X91297636Y-56966142D01*
X91375172Y-56821083D01*
X91422918Y-56663685D01*
X91435000Y-56541015D01*
X91435000Y-56541005D01*
X91439039Y-56499997D01*
X91435000Y-56458989D01*
X91435000Y-56427404D01*
X91499068Y-56272729D01*
X91535000Y-56092089D01*
X91535000Y-55907911D01*
X91499068Y-55727271D01*
X91428586Y-55557111D01*
X91326262Y-55403972D01*
X91196028Y-55273738D01*
X91042889Y-55171414D01*
X90872729Y-55100932D01*
X90692089Y-55065000D01*
X90507911Y-55065000D01*
X90327271Y-55100932D01*
X90157111Y-55171414D01*
X90003972Y-55273738D01*
X89873738Y-55403972D01*
X89771414Y-55557111D01*
X89700932Y-55727271D01*
X89665000Y-55907911D01*
X89665000Y-56092089D01*
X89691884Y-56227244D01*
X85496956Y-60422173D01*
X85435000Y-60272596D01*
X85435000Y-60245867D01*
X88788215Y-56892653D01*
X88942889Y-56828586D01*
X89096028Y-56726262D01*
X89226262Y-56596028D01*
X89328586Y-56442889D01*
X89399068Y-56272729D01*
X89435000Y-56092089D01*
X89435000Y-55907911D01*
X89399068Y-55727271D01*
X89328586Y-55557111D01*
X89226262Y-55403972D01*
X89096028Y-55273738D01*
X88942889Y-55171414D01*
X88772729Y-55100932D01*
X88592089Y-55065000D01*
X88407911Y-55065000D01*
X88227271Y-55100932D01*
X88057111Y-55171414D01*
X87903972Y-55273738D01*
X87773738Y-55403972D01*
X87671414Y-55557111D01*
X87607347Y-55711785D01*
X87035000Y-56284131D01*
X87035000Y-55827404D01*
X87099068Y-55672729D01*
X87135000Y-55492089D01*
X87135000Y-55307911D01*
X87099068Y-55127271D01*
X87028586Y-54957111D01*
X86926262Y-54803972D01*
X86796028Y-54673738D01*
X86642889Y-54571414D01*
X86472729Y-54500932D01*
X86292089Y-54465000D01*
X86107911Y-54465000D01*
X85927271Y-54500932D01*
X85757111Y-54571414D01*
X85603972Y-54673738D01*
X85473738Y-54803972D01*
X85371414Y-54957111D01*
X85300932Y-55127271D01*
X85265000Y-55307911D01*
X85265000Y-55492089D01*
X85300932Y-55672729D01*
X85365001Y-55827406D01*
X85365000Y-56254132D01*
X84335000Y-57284133D01*
X84335000Y-56427404D01*
X84399068Y-56272729D01*
X84435000Y-56092089D01*
X84435000Y-55907911D01*
X84399068Y-55727271D01*
X84328586Y-55557111D01*
X84226262Y-55403972D01*
X84096028Y-55273738D01*
X83942889Y-55171414D01*
X83772729Y-55100932D01*
X83592089Y-55065000D01*
X83407911Y-55065000D01*
X83227271Y-55100932D01*
X83057111Y-55171414D01*
X82903972Y-55273738D01*
X82773738Y-55403972D01*
X82671414Y-55557111D01*
X82600932Y-55727271D01*
X82565000Y-55907911D01*
X82565000Y-56092089D01*
X82600932Y-56272729D01*
X82665000Y-56427405D01*
X82665001Y-57154131D01*
X82411786Y-57407346D01*
X82257111Y-57471414D01*
X82103972Y-57573738D01*
X81973738Y-57703972D01*
X81871414Y-57857111D01*
X81800932Y-58027271D01*
X81765000Y-58207911D01*
X75010000Y-58207911D01*
X75010000Y-47707911D01*
X92765000Y-47707911D01*
X92765000Y-47892089D01*
X92800932Y-48072729D01*
X92865000Y-48227405D01*
X92865001Y-49058972D01*
X92860960Y-49100000D01*
X92877082Y-49263688D01*
X92924828Y-49421086D01*
X93002364Y-49566145D01*
X93002365Y-49566146D01*
X93106710Y-49693291D01*
X93138574Y-49719441D01*
X100707346Y-57288214D01*
X100771414Y-57442889D01*
X100873738Y-57596028D01*
X101003972Y-57726262D01*
X101157111Y-57828586D01*
X101327271Y-57899068D01*
X101507911Y-57935000D01*
X101692089Y-57935000D01*
X101872729Y-57899068D01*
X102042889Y-57828586D01*
X102196028Y-57726262D01*
X102326262Y-57596028D01*
X102428586Y-57442889D01*
X102499068Y-57272729D01*
X102535000Y-57092089D01*
X102535000Y-56907911D01*
X102526119Y-56863262D01*
X102602167Y-56812448D01*
X102732401Y-56682214D01*
X102760017Y-56640884D01*
X103207346Y-57088214D01*
X103271414Y-57242889D01*
X103373738Y-57396028D01*
X103503972Y-57526262D01*
X103657111Y-57628586D01*
X103827271Y-57699068D01*
X104007911Y-57735000D01*
X104192089Y-57735000D01*
X104372729Y-57699068D01*
X104542889Y-57628586D01*
X104696028Y-57526262D01*
X104826262Y-57396028D01*
X104928586Y-57242889D01*
X104999068Y-57072729D01*
X105035000Y-56892089D01*
X105035000Y-56707911D01*
X104999068Y-56527271D01*
X104997882Y-56524408D01*
X105126262Y-56396028D01*
X105228586Y-56242889D01*
X105299068Y-56072729D01*
X105335000Y-55892089D01*
X105335000Y-55707911D01*
X105299068Y-55527271D01*
X105228586Y-55357111D01*
X105126262Y-55203972D01*
X104996028Y-55073738D01*
X104842889Y-54971414D01*
X104688214Y-54907346D01*
X102135000Y-52354133D01*
X102135000Y-48227404D01*
X102199068Y-48072729D01*
X102231852Y-47907911D01*
X113585000Y-47907911D01*
X113585000Y-48092089D01*
X113620932Y-48272729D01*
X113691414Y-48442889D01*
X113793738Y-48596028D01*
X113923972Y-48726262D01*
X114077111Y-48828586D01*
X114247271Y-48899068D01*
X114427911Y-48935000D01*
X114612089Y-48935000D01*
X114792729Y-48899068D01*
X114962889Y-48828586D01*
X115116028Y-48726262D01*
X115246262Y-48596028D01*
X115348586Y-48442889D01*
X115419068Y-48272729D01*
X115455000Y-48092089D01*
X115455000Y-47907911D01*
X115419068Y-47727271D01*
X115348586Y-47557111D01*
X115246262Y-47403972D01*
X115116028Y-47273738D01*
X114962889Y-47171414D01*
X114792729Y-47100932D01*
X114612089Y-47065000D01*
X114427911Y-47065000D01*
X114247271Y-47100932D01*
X114077111Y-47171414D01*
X113923972Y-47273738D01*
X113793738Y-47403972D01*
X113691414Y-47557111D01*
X113620932Y-47727271D01*
X113585000Y-47907911D01*
X102231852Y-47907911D01*
X102235000Y-47892089D01*
X102235000Y-47707911D01*
X102199068Y-47527271D01*
X102128586Y-47357111D01*
X102026262Y-47203972D01*
X101896028Y-47073738D01*
X101742889Y-46971414D01*
X101572729Y-46900932D01*
X101392089Y-46865000D01*
X101207911Y-46865000D01*
X101027271Y-46900932D01*
X100857111Y-46971414D01*
X100703972Y-47073738D01*
X100573738Y-47203972D01*
X100471414Y-47357111D01*
X100400932Y-47527271D01*
X100365000Y-47707911D01*
X100365000Y-47892089D01*
X100400932Y-48072729D01*
X100465000Y-48227404D01*
X100465001Y-51984134D01*
X99535000Y-51054133D01*
X99535000Y-48227404D01*
X99599068Y-48072729D01*
X99635000Y-47892089D01*
X99635000Y-47707911D01*
X99599068Y-47527271D01*
X99528586Y-47357111D01*
X99426262Y-47203972D01*
X99296028Y-47073738D01*
X99142889Y-46971414D01*
X98972729Y-46900932D01*
X98792089Y-46865000D01*
X98607911Y-46865000D01*
X98427271Y-46900932D01*
X98257111Y-46971414D01*
X98103972Y-47073738D01*
X97973738Y-47203972D01*
X97871414Y-47357111D01*
X97800932Y-47527271D01*
X97765000Y-47707911D01*
X97765000Y-47892089D01*
X97800932Y-48072729D01*
X97865000Y-48227404D01*
X97865001Y-50764180D01*
X97035000Y-49934180D01*
X97035000Y-48227404D01*
X97099068Y-48072729D01*
X97135000Y-47892089D01*
X97135000Y-47707911D01*
X97099068Y-47527271D01*
X97028586Y-47357111D01*
X96926262Y-47203972D01*
X96796028Y-47073738D01*
X96642889Y-46971414D01*
X96472729Y-46900932D01*
X96292089Y-46865000D01*
X96107911Y-46865000D01*
X95927271Y-46900932D01*
X95757111Y-46971414D01*
X95603972Y-47073738D01*
X95473738Y-47203972D01*
X95371414Y-47357111D01*
X95300932Y-47527271D01*
X95265000Y-47707911D01*
X95265000Y-47892089D01*
X95300932Y-48072729D01*
X95365000Y-48227405D01*
X95365001Y-49584134D01*
X94535000Y-48754133D01*
X94535000Y-48227404D01*
X94599068Y-48072729D01*
X94635000Y-47892089D01*
X94635000Y-47707911D01*
X94599068Y-47527271D01*
X94528586Y-47357111D01*
X94426262Y-47203972D01*
X94296028Y-47073738D01*
X94142889Y-46971414D01*
X93972729Y-46900932D01*
X93792089Y-46865000D01*
X93607911Y-46865000D01*
X93427271Y-46900932D01*
X93257111Y-46971414D01*
X93103972Y-47073738D01*
X92973738Y-47203972D01*
X92871414Y-47357111D01*
X92800932Y-47527271D01*
X92765000Y-47707911D01*
X75010000Y-47707911D01*
X75010000Y-39710000D01*
X120990000Y-39710000D01*
X120990001Y-41565113D01*
G37*
X120990001Y-41565113D02*
X120986565Y-41600000D01*
X121000273Y-41739184D01*
X121040872Y-41873020D01*
X121106800Y-41996363D01*
X121195525Y-42104475D01*
X121303637Y-42193200D01*
X121426980Y-42259128D01*
X121560816Y-42299727D01*
X121665123Y-42310000D01*
X121700000Y-42313435D01*
X121734877Y-42310000D01*
X124990001Y-42310000D01*
X124990000Y-90690000D01*
X124634877Y-90690000D01*
X124600000Y-90686565D01*
X124565123Y-90690000D01*
X124460816Y-90700273D01*
X124326980Y-90740872D01*
X124203637Y-90806800D01*
X124095525Y-90895525D01*
X124006800Y-91003637D01*
X123940872Y-91126980D01*
X123900273Y-91260816D01*
X123886565Y-91400000D01*
X123890001Y-91434887D01*
X123890000Y-99290000D01*
X76110000Y-99290000D01*
X76110000Y-92507911D01*
X77365000Y-92507911D01*
X77365000Y-92692089D01*
X77400932Y-92872729D01*
X77471414Y-93042889D01*
X77573738Y-93196028D01*
X77703972Y-93326262D01*
X77857111Y-93428586D01*
X78027271Y-93499068D01*
X78207911Y-93535000D01*
X78392089Y-93535000D01*
X78572729Y-93499068D01*
X78742889Y-93428586D01*
X78896028Y-93326262D01*
X79026262Y-93196028D01*
X79050000Y-93160502D01*
X79073738Y-93196028D01*
X79203972Y-93326262D01*
X79357111Y-93428586D01*
X79527271Y-93499068D01*
X79707911Y-93535000D01*
X79892089Y-93535000D01*
X80072729Y-93499068D01*
X80242889Y-93428586D01*
X80396028Y-93326262D01*
X80526262Y-93196028D01*
X80550000Y-93160502D01*
X80573738Y-93196028D01*
X80703972Y-93326262D01*
X80857111Y-93428586D01*
X81027271Y-93499068D01*
X81207911Y-93535000D01*
X81392089Y-93535000D01*
X81572729Y-93499068D01*
X81742889Y-93428586D01*
X81896028Y-93326262D01*
X82026262Y-93196028D01*
X82050000Y-93160502D01*
X82073738Y-93196028D01*
X82203972Y-93326262D01*
X82357111Y-93428586D01*
X82527271Y-93499068D01*
X82707911Y-93535000D01*
X82892089Y-93535000D01*
X83072729Y-93499068D01*
X83242889Y-93428586D01*
X83396028Y-93326262D01*
X83526262Y-93196028D01*
X83550000Y-93160502D01*
X83573738Y-93196028D01*
X83703972Y-93326262D01*
X83857111Y-93428586D01*
X84027271Y-93499068D01*
X84207911Y-93535000D01*
X84392089Y-93535000D01*
X84572729Y-93499068D01*
X84742889Y-93428586D01*
X84896028Y-93326262D01*
X85000000Y-93222290D01*
X85103972Y-93326262D01*
X85257111Y-93428586D01*
X85427271Y-93499068D01*
X85607911Y-93535000D01*
X85792089Y-93535000D01*
X85972729Y-93499068D01*
X86142889Y-93428586D01*
X86296028Y-93326262D01*
X86426262Y-93196028D01*
X86475000Y-93123086D01*
X86523738Y-93196028D01*
X86653972Y-93326262D01*
X86807111Y-93428586D01*
X86977271Y-93499068D01*
X87157911Y-93535000D01*
X87342089Y-93535000D01*
X87522729Y-93499068D01*
X87692889Y-93428586D01*
X87846028Y-93326262D01*
X87976262Y-93196028D01*
X88025000Y-93123086D01*
X88073738Y-93196028D01*
X88203972Y-93326262D01*
X88357111Y-93428586D01*
X88527271Y-93499068D01*
X88707911Y-93535000D01*
X88892089Y-93535000D01*
X89072729Y-93499068D01*
X89242889Y-93428586D01*
X89396028Y-93326262D01*
X89500000Y-93222290D01*
X89603972Y-93326262D01*
X89757111Y-93428586D01*
X89927271Y-93499068D01*
X90107911Y-93535000D01*
X90292089Y-93535000D01*
X90472729Y-93499068D01*
X90642889Y-93428586D01*
X90796028Y-93326262D01*
X90926262Y-93196028D01*
X91000000Y-93085671D01*
X91073738Y-93196028D01*
X91203972Y-93326262D01*
X91357111Y-93428586D01*
X91527271Y-93499068D01*
X91707911Y-93535000D01*
X91892089Y-93535000D01*
X92072729Y-93499068D01*
X92242889Y-93428586D01*
X92396028Y-93326262D01*
X92526262Y-93196028D01*
X92550000Y-93160502D01*
X92573738Y-93196028D01*
X92703972Y-93326262D01*
X92857111Y-93428586D01*
X93027271Y-93499068D01*
X93207911Y-93535000D01*
X93392089Y-93535000D01*
X93572729Y-93499068D01*
X93742889Y-93428586D01*
X93896028Y-93326262D01*
X94000000Y-93222290D01*
X94103972Y-93326262D01*
X94257111Y-93428586D01*
X94427271Y-93499068D01*
X94607911Y-93535000D01*
X94792089Y-93535000D01*
X94972729Y-93499068D01*
X95142889Y-93428586D01*
X95296028Y-93326262D01*
X95426262Y-93196028D01*
X95450000Y-93160502D01*
X95473738Y-93196028D01*
X95603972Y-93326262D01*
X95757111Y-93428586D01*
X95927271Y-93499068D01*
X96107911Y-93535000D01*
X96292089Y-93535000D01*
X96472729Y-93499068D01*
X96642889Y-93428586D01*
X96796028Y-93326262D01*
X96926262Y-93196028D01*
X96950000Y-93160502D01*
X96973738Y-93196028D01*
X97103972Y-93326262D01*
X97257111Y-93428586D01*
X97427271Y-93499068D01*
X97607911Y-93535000D01*
X97792089Y-93535000D01*
X97972729Y-93499068D01*
X98142889Y-93428586D01*
X98296028Y-93326262D01*
X98426262Y-93196028D01*
X98500000Y-93085671D01*
X98573738Y-93196028D01*
X98703972Y-93326262D01*
X98857111Y-93428586D01*
X99027271Y-93499068D01*
X99207911Y-93535000D01*
X99392089Y-93535000D01*
X99572729Y-93499068D01*
X99742889Y-93428586D01*
X99896028Y-93326262D01*
X100026262Y-93196028D01*
X100050000Y-93160502D01*
X100073738Y-93196028D01*
X100203972Y-93326262D01*
X100357111Y-93428586D01*
X100527271Y-93499068D01*
X100707911Y-93535000D01*
X100892089Y-93535000D01*
X101072729Y-93499068D01*
X101242889Y-93428586D01*
X101396028Y-93326262D01*
X101526262Y-93196028D01*
X101550000Y-93160502D01*
X101573738Y-93196028D01*
X101703972Y-93326262D01*
X101857111Y-93428586D01*
X102027271Y-93499068D01*
X102207911Y-93535000D01*
X102392089Y-93535000D01*
X102572729Y-93499068D01*
X102742889Y-93428586D01*
X102896028Y-93326262D01*
X103026262Y-93196028D01*
X103050000Y-93160502D01*
X103073738Y-93196028D01*
X103203972Y-93326262D01*
X103357111Y-93428586D01*
X103527271Y-93499068D01*
X103707911Y-93535000D01*
X103892089Y-93535000D01*
X104072729Y-93499068D01*
X104242889Y-93428586D01*
X104396028Y-93326262D01*
X104526262Y-93196028D01*
X104550000Y-93160502D01*
X104573738Y-93196028D01*
X104703972Y-93326262D01*
X104857111Y-93428586D01*
X105027271Y-93499068D01*
X105207911Y-93535000D01*
X105392089Y-93535000D01*
X105572729Y-93499068D01*
X105742889Y-93428586D01*
X105896028Y-93326262D01*
X106026262Y-93196028D01*
X106050000Y-93160502D01*
X106073738Y-93196028D01*
X106203972Y-93326262D01*
X106357111Y-93428586D01*
X106527271Y-93499068D01*
X106707911Y-93535000D01*
X106892089Y-93535000D01*
X107072729Y-93499068D01*
X107242889Y-93428586D01*
X107396028Y-93326262D01*
X107525000Y-93197290D01*
X107653972Y-93326262D01*
X107807111Y-93428586D01*
X107977271Y-93499068D01*
X108157911Y-93535000D01*
X108342089Y-93535000D01*
X108522729Y-93499068D01*
X108692889Y-93428586D01*
X108846028Y-93326262D01*
X108976262Y-93196028D01*
X109000000Y-93160502D01*
X109023738Y-93196028D01*
X109153972Y-93326262D01*
X109307111Y-93428586D01*
X109477271Y-93499068D01*
X109657911Y-93535000D01*
X109842089Y-93535000D01*
X110022729Y-93499068D01*
X110192889Y-93428586D01*
X110346028Y-93326262D01*
X110476262Y-93196028D01*
X110500000Y-93160502D01*
X110523738Y-93196028D01*
X110653972Y-93326262D01*
X110807111Y-93428586D01*
X110977271Y-93499068D01*
X111157911Y-93535000D01*
X111342089Y-93535000D01*
X111522729Y-93499068D01*
X111692889Y-93428586D01*
X111846028Y-93326262D01*
X111976262Y-93196028D01*
X112000000Y-93160502D01*
X112023738Y-93196028D01*
X112153972Y-93326262D01*
X112307111Y-93428586D01*
X112477271Y-93499068D01*
X112657911Y-93535000D01*
X112842089Y-93535000D01*
X113022729Y-93499068D01*
X113192889Y-93428586D01*
X113346028Y-93326262D01*
X113476262Y-93196028D01*
X113500000Y-93160502D01*
X113523738Y-93196028D01*
X113653972Y-93326262D01*
X113807111Y-93428586D01*
X113977271Y-93499068D01*
X114157911Y-93535000D01*
X114342089Y-93535000D01*
X114522729Y-93499068D01*
X114692889Y-93428586D01*
X114846028Y-93326262D01*
X114976262Y-93196028D01*
X115000000Y-93160502D01*
X115023738Y-93196028D01*
X115153972Y-93326262D01*
X115307111Y-93428586D01*
X115477271Y-93499068D01*
X115657911Y-93535000D01*
X115842089Y-93535000D01*
X116022729Y-93499068D01*
X116192889Y-93428586D01*
X116346028Y-93326262D01*
X116476262Y-93196028D01*
X116500000Y-93160502D01*
X116523738Y-93196028D01*
X116653972Y-93326262D01*
X116807111Y-93428586D01*
X116977271Y-93499068D01*
X117157911Y-93535000D01*
X117342089Y-93535000D01*
X117522729Y-93499068D01*
X117692889Y-93428586D01*
X117846028Y-93326262D01*
X117976262Y-93196028D01*
X118000000Y-93160502D01*
X118023738Y-93196028D01*
X118153972Y-93326262D01*
X118307111Y-93428586D01*
X118477271Y-93499068D01*
X118657911Y-93535000D01*
X118842089Y-93535000D01*
X119022729Y-93499068D01*
X119192889Y-93428586D01*
X119346028Y-93326262D01*
X119476262Y-93196028D01*
X119500000Y-93160502D01*
X119523738Y-93196028D01*
X119653972Y-93326262D01*
X119807111Y-93428586D01*
X119977271Y-93499068D01*
X120157911Y-93535000D01*
X120342089Y-93535000D01*
X120522729Y-93499068D01*
X120692889Y-93428586D01*
X120846028Y-93326262D01*
X120976262Y-93196028D01*
X121000000Y-93160502D01*
X121023738Y-93196028D01*
X121153972Y-93326262D01*
X121307111Y-93428586D01*
X121477271Y-93499068D01*
X121657911Y-93535000D01*
X121842089Y-93535000D01*
X122022729Y-93499068D01*
X122192889Y-93428586D01*
X122346028Y-93326262D01*
X122476262Y-93196028D01*
X122578586Y-93042889D01*
X122649068Y-92872729D01*
X122685000Y-92692089D01*
X122685000Y-92507911D01*
X122649068Y-92327271D01*
X122578586Y-92157111D01*
X122476262Y-92003972D01*
X122346028Y-91873738D01*
X122192889Y-91771414D01*
X122022729Y-91700932D01*
X121842089Y-91665000D01*
X121657911Y-91665000D01*
X121477271Y-91700932D01*
X121307111Y-91771414D01*
X121153972Y-91873738D01*
X121023738Y-92003972D01*
X121000000Y-92039498D01*
X120976262Y-92003972D01*
X120846028Y-91873738D01*
X120692889Y-91771414D01*
X120522729Y-91700932D01*
X120342089Y-91665000D01*
X120157911Y-91665000D01*
X119977271Y-91700932D01*
X119807111Y-91771414D01*
X119653972Y-91873738D01*
X119523738Y-92003972D01*
X119500000Y-92039498D01*
X119476262Y-92003972D01*
X119346028Y-91873738D01*
X119192889Y-91771414D01*
X119022729Y-91700932D01*
X118842089Y-91665000D01*
X118657911Y-91665000D01*
X118477271Y-91700932D01*
X118307111Y-91771414D01*
X118153972Y-91873738D01*
X118023738Y-92003972D01*
X118000000Y-92039498D01*
X117976262Y-92003972D01*
X117846028Y-91873738D01*
X117692889Y-91771414D01*
X117522729Y-91700932D01*
X117342089Y-91665000D01*
X117157911Y-91665000D01*
X116977271Y-91700932D01*
X116807111Y-91771414D01*
X116653972Y-91873738D01*
X116523738Y-92003972D01*
X116500000Y-92039498D01*
X116476262Y-92003972D01*
X116346028Y-91873738D01*
X116192889Y-91771414D01*
X116022729Y-91700932D01*
X115842089Y-91665000D01*
X115657911Y-91665000D01*
X115477271Y-91700932D01*
X115307111Y-91771414D01*
X115153972Y-91873738D01*
X115023738Y-92003972D01*
X115000000Y-92039498D01*
X114976262Y-92003972D01*
X114846028Y-91873738D01*
X114692889Y-91771414D01*
X114522729Y-91700932D01*
X114342089Y-91665000D01*
X114157911Y-91665000D01*
X113977271Y-91700932D01*
X113807111Y-91771414D01*
X113653972Y-91873738D01*
X113523738Y-92003972D01*
X113500000Y-92039498D01*
X113476262Y-92003972D01*
X113346028Y-91873738D01*
X113192889Y-91771414D01*
X113022729Y-91700932D01*
X112842089Y-91665000D01*
X112657911Y-91665000D01*
X112477271Y-91700932D01*
X112307111Y-91771414D01*
X112153972Y-91873738D01*
X112023738Y-92003972D01*
X112000000Y-92039498D01*
X111976262Y-92003972D01*
X111846028Y-91873738D01*
X111692889Y-91771414D01*
X111522729Y-91700932D01*
X111342089Y-91665000D01*
X111157911Y-91665000D01*
X110977271Y-91700932D01*
X110807111Y-91771414D01*
X110653972Y-91873738D01*
X110523738Y-92003972D01*
X110500000Y-92039498D01*
X110476262Y-92003972D01*
X110346028Y-91873738D01*
X110192889Y-91771414D01*
X110022729Y-91700932D01*
X109842089Y-91665000D01*
X109657911Y-91665000D01*
X109477271Y-91700932D01*
X109307111Y-91771414D01*
X109153972Y-91873738D01*
X109023738Y-92003972D01*
X109000000Y-92039498D01*
X108976262Y-92003972D01*
X108846028Y-91873738D01*
X108692889Y-91771414D01*
X108522729Y-91700932D01*
X108342089Y-91665000D01*
X108157911Y-91665000D01*
X107977271Y-91700932D01*
X107807111Y-91771414D01*
X107653972Y-91873738D01*
X107525000Y-92002710D01*
X107396028Y-91873738D01*
X107242889Y-91771414D01*
X107072729Y-91700932D01*
X106892089Y-91665000D01*
X106707911Y-91665000D01*
X106527271Y-91700932D01*
X106357111Y-91771414D01*
X106203972Y-91873738D01*
X106073738Y-92003972D01*
X106050000Y-92039498D01*
X106026262Y-92003972D01*
X105896028Y-91873738D01*
X105742889Y-91771414D01*
X105572729Y-91700932D01*
X105392089Y-91665000D01*
X105207911Y-91665000D01*
X105027271Y-91700932D01*
X104857111Y-91771414D01*
X104703972Y-91873738D01*
X104573738Y-92003972D01*
X104550000Y-92039498D01*
X104526262Y-92003972D01*
X104396028Y-91873738D01*
X104242889Y-91771414D01*
X104072729Y-91700932D01*
X103892089Y-91665000D01*
X103707911Y-91665000D01*
X103527271Y-91700932D01*
X103357111Y-91771414D01*
X103203972Y-91873738D01*
X103073738Y-92003972D01*
X103050000Y-92039498D01*
X103026262Y-92003972D01*
X102896028Y-91873738D01*
X102742889Y-91771414D01*
X102572729Y-91700932D01*
X102392089Y-91665000D01*
X102207911Y-91665000D01*
X102027271Y-91700932D01*
X101857111Y-91771414D01*
X101703972Y-91873738D01*
X101573738Y-92003972D01*
X101550000Y-92039498D01*
X101526262Y-92003972D01*
X101396028Y-91873738D01*
X101242889Y-91771414D01*
X101072729Y-91700932D01*
X100892089Y-91665000D01*
X100707911Y-91665000D01*
X100527271Y-91700932D01*
X100357111Y-91771414D01*
X100203972Y-91873738D01*
X100073738Y-92003972D01*
X100050000Y-92039498D01*
X100026262Y-92003972D01*
X99896028Y-91873738D01*
X99742889Y-91771414D01*
X99572729Y-91700932D01*
X99392089Y-91665000D01*
X99207911Y-91665000D01*
X99027271Y-91700932D01*
X98857111Y-91771414D01*
X98703972Y-91873738D01*
X98573738Y-92003972D01*
X98500000Y-92114329D01*
X98426262Y-92003972D01*
X98296028Y-91873738D01*
X98142889Y-91771414D01*
X97972729Y-91700932D01*
X97792089Y-91665000D01*
X97607911Y-91665000D01*
X97427271Y-91700932D01*
X97257111Y-91771414D01*
X97103972Y-91873738D01*
X96973738Y-92003972D01*
X96950000Y-92039498D01*
X96926262Y-92003972D01*
X96796028Y-91873738D01*
X96642889Y-91771414D01*
X96472729Y-91700932D01*
X96292089Y-91665000D01*
X96107911Y-91665000D01*
X95927271Y-91700932D01*
X95757111Y-91771414D01*
X95603972Y-91873738D01*
X95473738Y-92003972D01*
X95450000Y-92039498D01*
X95426262Y-92003972D01*
X95296028Y-91873738D01*
X95142889Y-91771414D01*
X94972729Y-91700932D01*
X94792089Y-91665000D01*
X94607911Y-91665000D01*
X94427271Y-91700932D01*
X94257111Y-91771414D01*
X94103972Y-91873738D01*
X94000000Y-91977710D01*
X93896028Y-91873738D01*
X93742889Y-91771414D01*
X93572729Y-91700932D01*
X93392089Y-91665000D01*
X93207911Y-91665000D01*
X93027271Y-91700932D01*
X92857111Y-91771414D01*
X92703972Y-91873738D01*
X92573738Y-92003972D01*
X92550000Y-92039498D01*
X92526262Y-92003972D01*
X92396028Y-91873738D01*
X92242889Y-91771414D01*
X92072729Y-91700932D01*
X91892089Y-91665000D01*
X91707911Y-91665000D01*
X91527271Y-91700932D01*
X91357111Y-91771414D01*
X91203972Y-91873738D01*
X91073738Y-92003972D01*
X91000000Y-92114329D01*
X90926262Y-92003972D01*
X90796028Y-91873738D01*
X90642889Y-91771414D01*
X90472729Y-91700932D01*
X90292089Y-91665000D01*
X90107911Y-91665000D01*
X89927271Y-91700932D01*
X89757111Y-91771414D01*
X89603972Y-91873738D01*
X89500000Y-91977710D01*
X89396028Y-91873738D01*
X89242889Y-91771414D01*
X89072729Y-91700932D01*
X88892089Y-91665000D01*
X88707911Y-91665000D01*
X88527271Y-91700932D01*
X88357111Y-91771414D01*
X88203972Y-91873738D01*
X88073738Y-92003972D01*
X88025000Y-92076914D01*
X87976262Y-92003972D01*
X87846028Y-91873738D01*
X87692889Y-91771414D01*
X87522729Y-91700932D01*
X87342089Y-91665000D01*
X87157911Y-91665000D01*
X86977271Y-91700932D01*
X86807111Y-91771414D01*
X86653972Y-91873738D01*
X86523738Y-92003972D01*
X86475000Y-92076914D01*
X86426262Y-92003972D01*
X86296028Y-91873738D01*
X86142889Y-91771414D01*
X85972729Y-91700932D01*
X85792089Y-91665000D01*
X85607911Y-91665000D01*
X85427271Y-91700932D01*
X85257111Y-91771414D01*
X85103972Y-91873738D01*
X85000000Y-91977710D01*
X84896028Y-91873738D01*
X84742889Y-91771414D01*
X84572729Y-91700932D01*
X84392089Y-91665000D01*
X84207911Y-91665000D01*
X84027271Y-91700932D01*
X83857111Y-91771414D01*
X83703972Y-91873738D01*
X83573738Y-92003972D01*
X83550000Y-92039498D01*
X83526262Y-92003972D01*
X83396028Y-91873738D01*
X83242889Y-91771414D01*
X83072729Y-91700932D01*
X82892089Y-91665000D01*
X82707911Y-91665000D01*
X82527271Y-91700932D01*
X82357111Y-91771414D01*
X82203972Y-91873738D01*
X82073738Y-92003972D01*
X82050000Y-92039498D01*
X82026262Y-92003972D01*
X81896028Y-91873738D01*
X81742889Y-91771414D01*
X81572729Y-91700932D01*
X81392089Y-91665000D01*
X81207911Y-91665000D01*
X81027271Y-91700932D01*
X80857111Y-91771414D01*
X80703972Y-91873738D01*
X80573738Y-92003972D01*
X80550000Y-92039498D01*
X80526262Y-92003972D01*
X80396028Y-91873738D01*
X80242889Y-91771414D01*
X80072729Y-91700932D01*
X79892089Y-91665000D01*
X79707911Y-91665000D01*
X79527271Y-91700932D01*
X79357111Y-91771414D01*
X79203972Y-91873738D01*
X79073738Y-92003972D01*
X79050000Y-92039498D01*
X79026262Y-92003972D01*
X78896028Y-91873738D01*
X78742889Y-91771414D01*
X78572729Y-91700932D01*
X78392089Y-91665000D01*
X78207911Y-91665000D01*
X78027271Y-91700932D01*
X77857111Y-91771414D01*
X77703972Y-91873738D01*
X77573738Y-92003972D01*
X77471414Y-92157111D01*
X77400932Y-92327271D01*
X77365000Y-92507911D01*
X76110000Y-92507911D01*
X76110000Y-91434876D01*
X76113435Y-91400000D01*
X76099727Y-91260816D01*
X76059128Y-91126980D01*
X75993200Y-91003637D01*
X75904475Y-90895525D01*
X75796363Y-90806800D01*
X75673020Y-90740872D01*
X75539184Y-90700273D01*
X75434877Y-90690000D01*
X75400000Y-90686565D01*
X75365123Y-90690000D01*
X75010000Y-90690000D01*
X75010000Y-84232889D01*
X95765000Y-84232889D01*
X95765000Y-85067111D01*
X95927749Y-85885304D01*
X96246992Y-86656025D01*
X96710461Y-87349655D01*
X97300345Y-87939539D01*
X97993975Y-88403008D01*
X98764696Y-88722251D01*
X99582889Y-88885000D01*
X100417111Y-88885000D01*
X101235304Y-88722251D01*
X102006025Y-88403008D01*
X102699655Y-87939539D01*
X103289539Y-87349655D01*
X103753008Y-86656025D01*
X104072251Y-85885304D01*
X104235000Y-85067111D01*
X104235000Y-84232889D01*
X104072251Y-83414696D01*
X103753008Y-82643975D01*
X103289539Y-81950345D01*
X102699655Y-81360461D01*
X102006025Y-80896992D01*
X101235304Y-80577749D01*
X100417111Y-80415000D01*
X99582889Y-80415000D01*
X98764696Y-80577749D01*
X97993975Y-80896992D01*
X97300345Y-81360461D01*
X96710461Y-81950345D01*
X96246992Y-82643975D01*
X95927749Y-83414696D01*
X95765000Y-84232889D01*
X75010000Y-84232889D01*
X75010000Y-58207911D01*
X81765000Y-58207911D01*
X81765000Y-58392089D01*
X81800932Y-58572729D01*
X81871414Y-58742889D01*
X81973738Y-58896028D01*
X82103972Y-59026262D01*
X82257111Y-59128586D01*
X82427271Y-59199068D01*
X82607911Y-59235000D01*
X82792089Y-59235000D01*
X82944469Y-59204689D01*
X82948534Y-59225127D01*
X83019016Y-59395287D01*
X83121340Y-59548426D01*
X83251574Y-59678660D01*
X83404713Y-59780984D01*
X83574873Y-59851466D01*
X83755513Y-59887398D01*
X83762201Y-59887398D01*
X83760960Y-59900000D01*
X83765000Y-59941018D01*
X83765000Y-60272596D01*
X83700932Y-60427271D01*
X83665000Y-60607911D01*
X83665000Y-60792089D01*
X83700932Y-60972729D01*
X83771414Y-61142889D01*
X83873738Y-61296028D01*
X84003972Y-61426262D01*
X84157111Y-61528586D01*
X84322173Y-61596956D01*
X84211784Y-61707345D01*
X84057107Y-61771414D01*
X83903968Y-61873738D01*
X83773734Y-62003972D01*
X83671410Y-62157111D01*
X83600928Y-62327271D01*
X83564996Y-62507911D01*
X83564996Y-62692089D01*
X83600928Y-62872729D01*
X83671410Y-63042889D01*
X83773734Y-63196028D01*
X83903968Y-63326262D01*
X84057107Y-63428586D01*
X84227267Y-63499068D01*
X84407907Y-63535000D01*
X84592085Y-63535000D01*
X84772725Y-63499068D01*
X84942885Y-63428586D01*
X85096024Y-63326262D01*
X85226258Y-63196028D01*
X85328582Y-63042889D01*
X85392651Y-62888212D01*
X86272952Y-62007911D01*
X102565000Y-62007911D01*
X102565000Y-62192089D01*
X102600932Y-62372729D01*
X102671414Y-62542889D01*
X102773738Y-62696028D01*
X102903972Y-62826262D01*
X103057111Y-62928586D01*
X103227271Y-62999068D01*
X103407911Y-63035000D01*
X103592089Y-63035000D01*
X103624083Y-63028636D01*
X103671408Y-63142889D01*
X103773732Y-63296028D01*
X103903966Y-63426262D01*
X104057105Y-63528586D01*
X104227265Y-63599068D01*
X104407905Y-63635000D01*
X104592083Y-63635000D01*
X104624088Y-63628634D01*
X104671414Y-63742889D01*
X104773738Y-63896028D01*
X104903972Y-64026262D01*
X105057111Y-64128586D01*
X105227271Y-64199068D01*
X105407911Y-64235000D01*
X105592089Y-64235000D01*
X105624083Y-64228636D01*
X105671408Y-64342889D01*
X105773732Y-64496028D01*
X105903966Y-64626262D01*
X106057105Y-64728586D01*
X106227265Y-64799068D01*
X106407905Y-64835000D01*
X106592083Y-64835000D01*
X106627939Y-64827868D01*
X106678529Y-64950004D01*
X106780853Y-65103143D01*
X106911087Y-65233377D01*
X107064226Y-65335701D01*
X107234386Y-65406183D01*
X107415026Y-65442115D01*
X107599204Y-65442115D01*
X107627353Y-65436516D01*
X107671414Y-65542889D01*
X107773738Y-65696028D01*
X107903972Y-65826262D01*
X108057111Y-65928586D01*
X108227271Y-65999068D01*
X108407911Y-66035000D01*
X108592089Y-66035000D01*
X108772729Y-65999068D01*
X108942889Y-65928586D01*
X109096028Y-65826262D01*
X109226262Y-65696028D01*
X109328586Y-65542889D01*
X109392655Y-65388212D01*
X119561428Y-55219440D01*
X119593291Y-55193291D01*
X119697636Y-55066146D01*
X119775172Y-54921087D01*
X119822918Y-54763689D01*
X119835000Y-54641019D01*
X119835000Y-54641009D01*
X119839039Y-54600001D01*
X119835000Y-54558993D01*
X119835000Y-53227404D01*
X119899068Y-53072729D01*
X119935000Y-52892089D01*
X119935000Y-52707911D01*
X119899068Y-52527271D01*
X119828586Y-52357111D01*
X119726262Y-52203972D01*
X119596028Y-52073738D01*
X119442889Y-51971414D01*
X119272729Y-51900932D01*
X119092089Y-51865000D01*
X118907911Y-51865000D01*
X118727271Y-51900932D01*
X118557111Y-51971414D01*
X118403972Y-52073738D01*
X118273738Y-52203972D01*
X118171414Y-52357111D01*
X118100932Y-52527271D01*
X118065000Y-52707911D01*
X118065000Y-52892089D01*
X118100932Y-53072729D01*
X118165001Y-53227406D01*
X118165000Y-54254132D01*
X117335000Y-55084132D01*
X117335000Y-53227404D01*
X117399068Y-53072729D01*
X117435000Y-52892089D01*
X117435000Y-52707911D01*
X117399068Y-52527271D01*
X117328586Y-52357111D01*
X117226262Y-52203972D01*
X117096028Y-52073738D01*
X116942889Y-51971414D01*
X116772729Y-51900932D01*
X116592089Y-51865000D01*
X116407911Y-51865000D01*
X116227271Y-51900932D01*
X116057111Y-51971414D01*
X115903972Y-52073738D01*
X115773738Y-52203972D01*
X115671414Y-52357111D01*
X115600932Y-52527271D01*
X115565000Y-52707911D01*
X115565000Y-52892089D01*
X115600932Y-53072729D01*
X115665000Y-53227405D01*
X115665001Y-55168360D01*
X114835000Y-55998361D01*
X114835000Y-53227404D01*
X114899068Y-53072729D01*
X114935000Y-52892089D01*
X114935000Y-52707911D01*
X114899068Y-52527271D01*
X114828586Y-52357111D01*
X114726262Y-52203972D01*
X114596028Y-52073738D01*
X114442889Y-51971414D01*
X114272729Y-51900932D01*
X114092089Y-51865000D01*
X113907911Y-51865000D01*
X113727271Y-51900932D01*
X113557111Y-51971414D01*
X113403972Y-52073738D01*
X113273738Y-52203972D01*
X113171414Y-52357111D01*
X113100932Y-52527271D01*
X113065000Y-52707911D01*
X113065000Y-52892089D01*
X113100932Y-53072729D01*
X113165000Y-53227404D01*
X113165001Y-56054125D01*
X112235000Y-56984126D01*
X112235000Y-53227404D01*
X112299068Y-53072729D01*
X112335000Y-52892089D01*
X112335000Y-52707911D01*
X112299068Y-52527271D01*
X112228586Y-52357111D01*
X112126262Y-52203972D01*
X111996028Y-52073738D01*
X111842889Y-51971414D01*
X111672729Y-51900932D01*
X111492089Y-51865000D01*
X111307911Y-51865000D01*
X111127271Y-51900932D01*
X110957111Y-51971414D01*
X110803972Y-52073738D01*
X110673738Y-52203972D01*
X110571414Y-52357111D01*
X110500932Y-52527271D01*
X110465000Y-52707911D01*
X110465000Y-52892089D01*
X110500932Y-53072729D01*
X110565000Y-53227404D01*
X110565001Y-57054131D01*
X109735000Y-57884132D01*
X109735000Y-53227404D01*
X109799068Y-53072729D01*
X109835000Y-52892089D01*
X109835000Y-52707911D01*
X109799068Y-52527271D01*
X109728586Y-52357111D01*
X109626262Y-52203972D01*
X109496028Y-52073738D01*
X109342889Y-51971414D01*
X109172729Y-51900932D01*
X108992089Y-51865000D01*
X108807911Y-51865000D01*
X108627271Y-51900932D01*
X108457111Y-51971414D01*
X108303972Y-52073738D01*
X108173738Y-52203972D01*
X108071414Y-52357111D01*
X108000932Y-52527271D01*
X107965000Y-52707911D01*
X107965000Y-52892089D01*
X108000932Y-53072729D01*
X108065000Y-53227404D01*
X108065001Y-57954125D01*
X107135000Y-58884126D01*
X107135000Y-53227404D01*
X107199068Y-53072729D01*
X107235000Y-52892089D01*
X107235000Y-52707911D01*
X107199068Y-52527271D01*
X107128586Y-52357111D01*
X107026262Y-52203972D01*
X106896028Y-52073738D01*
X106742889Y-51971414D01*
X106572729Y-51900932D01*
X106392089Y-51865000D01*
X106207911Y-51865000D01*
X106027271Y-51900932D01*
X105857111Y-51971414D01*
X105703972Y-52073738D01*
X105573738Y-52203972D01*
X105471414Y-52357111D01*
X105400932Y-52527271D01*
X105365000Y-52707911D01*
X105365000Y-52892089D01*
X105400932Y-53072729D01*
X105465000Y-53227404D01*
X105465001Y-58954131D01*
X103211787Y-61207345D01*
X103057111Y-61271414D01*
X102903972Y-61373738D01*
X102773738Y-61503972D01*
X102671414Y-61657111D01*
X102600932Y-61827271D01*
X102565000Y-62007911D01*
X86272952Y-62007911D01*
X88806670Y-59474193D01*
X98215000Y-59474193D01*
X98215000Y-59825807D01*
X98283596Y-60170665D01*
X98418153Y-60495515D01*
X98613500Y-60787871D01*
X98862129Y-61036500D01*
X99154485Y-61231847D01*
X99479335Y-61366404D01*
X99824193Y-61435000D01*
X100175807Y-61435000D01*
X100520665Y-61366404D01*
X100845515Y-61231847D01*
X101137871Y-61036500D01*
X101386500Y-60787871D01*
X101581847Y-60495515D01*
X101716404Y-60170665D01*
X101785000Y-59825807D01*
X101785000Y-59474193D01*
X101716404Y-59129335D01*
X101581847Y-58804485D01*
X101386500Y-58512129D01*
X101137871Y-58263500D01*
X100845515Y-58068153D01*
X100520665Y-57933596D01*
X100175807Y-57865000D01*
X99824193Y-57865000D01*
X99479335Y-57933596D01*
X99154485Y-58068153D01*
X98862129Y-58263500D01*
X98613500Y-58512129D01*
X98418153Y-58804485D01*
X98283596Y-59129335D01*
X98215000Y-59474193D01*
X88806670Y-59474193D01*
X91161428Y-57119436D01*
X91193291Y-57093287D01*
X91297636Y-56966142D01*
X91375172Y-56821083D01*
X91422918Y-56663685D01*
X91435000Y-56541015D01*
X91435000Y-56541005D01*
X91439039Y-56499997D01*
X91435000Y-56458989D01*
X91435000Y-56427404D01*
X91499068Y-56272729D01*
X91535000Y-56092089D01*
X91535000Y-55907911D01*
X91499068Y-55727271D01*
X91428586Y-55557111D01*
X91326262Y-55403972D01*
X91196028Y-55273738D01*
X91042889Y-55171414D01*
X90872729Y-55100932D01*
X90692089Y-55065000D01*
X90507911Y-55065000D01*
X90327271Y-55100932D01*
X90157111Y-55171414D01*
X90003972Y-55273738D01*
X89873738Y-55403972D01*
X89771414Y-55557111D01*
X89700932Y-55727271D01*
X89665000Y-55907911D01*
X89665000Y-56092089D01*
X89691884Y-56227244D01*
X85496956Y-60422173D01*
X85435000Y-60272596D01*
X85435000Y-60245867D01*
X88788215Y-56892653D01*
X88942889Y-56828586D01*
X89096028Y-56726262D01*
X89226262Y-56596028D01*
X89328586Y-56442889D01*
X89399068Y-56272729D01*
X89435000Y-56092089D01*
X89435000Y-55907911D01*
X89399068Y-55727271D01*
X89328586Y-55557111D01*
X89226262Y-55403972D01*
X89096028Y-55273738D01*
X88942889Y-55171414D01*
X88772729Y-55100932D01*
X88592089Y-55065000D01*
X88407911Y-55065000D01*
X88227271Y-55100932D01*
X88057111Y-55171414D01*
X87903972Y-55273738D01*
X87773738Y-55403972D01*
X87671414Y-55557111D01*
X87607347Y-55711785D01*
X87035000Y-56284131D01*
X87035000Y-55827404D01*
X87099068Y-55672729D01*
X87135000Y-55492089D01*
X87135000Y-55307911D01*
X87099068Y-55127271D01*
X87028586Y-54957111D01*
X86926262Y-54803972D01*
X86796028Y-54673738D01*
X86642889Y-54571414D01*
X86472729Y-54500932D01*
X86292089Y-54465000D01*
X86107911Y-54465000D01*
X85927271Y-54500932D01*
X85757111Y-54571414D01*
X85603972Y-54673738D01*
X85473738Y-54803972D01*
X85371414Y-54957111D01*
X85300932Y-55127271D01*
X85265000Y-55307911D01*
X85265000Y-55492089D01*
X85300932Y-55672729D01*
X85365001Y-55827406D01*
X85365000Y-56254132D01*
X84335000Y-57284133D01*
X84335000Y-56427404D01*
X84399068Y-56272729D01*
X84435000Y-56092089D01*
X84435000Y-55907911D01*
X84399068Y-55727271D01*
X84328586Y-55557111D01*
X84226262Y-55403972D01*
X84096028Y-55273738D01*
X83942889Y-55171414D01*
X83772729Y-55100932D01*
X83592089Y-55065000D01*
X83407911Y-55065000D01*
X83227271Y-55100932D01*
X83057111Y-55171414D01*
X82903972Y-55273738D01*
X82773738Y-55403972D01*
X82671414Y-55557111D01*
X82600932Y-55727271D01*
X82565000Y-55907911D01*
X82565000Y-56092089D01*
X82600932Y-56272729D01*
X82665000Y-56427405D01*
X82665001Y-57154131D01*
X82411786Y-57407346D01*
X82257111Y-57471414D01*
X82103972Y-57573738D01*
X81973738Y-57703972D01*
X81871414Y-57857111D01*
X81800932Y-58027271D01*
X81765000Y-58207911D01*
X75010000Y-58207911D01*
X75010000Y-47707911D01*
X92765000Y-47707911D01*
X92765000Y-47892089D01*
X92800932Y-48072729D01*
X92865000Y-48227405D01*
X92865001Y-49058972D01*
X92860960Y-49100000D01*
X92877082Y-49263688D01*
X92924828Y-49421086D01*
X93002364Y-49566145D01*
X93002365Y-49566146D01*
X93106710Y-49693291D01*
X93138574Y-49719441D01*
X100707346Y-57288214D01*
X100771414Y-57442889D01*
X100873738Y-57596028D01*
X101003972Y-57726262D01*
X101157111Y-57828586D01*
X101327271Y-57899068D01*
X101507911Y-57935000D01*
X101692089Y-57935000D01*
X101872729Y-57899068D01*
X102042889Y-57828586D01*
X102196028Y-57726262D01*
X102326262Y-57596028D01*
X102428586Y-57442889D01*
X102499068Y-57272729D01*
X102535000Y-57092089D01*
X102535000Y-56907911D01*
X102526119Y-56863262D01*
X102602167Y-56812448D01*
X102732401Y-56682214D01*
X102760017Y-56640884D01*
X103207346Y-57088214D01*
X103271414Y-57242889D01*
X103373738Y-57396028D01*
X103503972Y-57526262D01*
X103657111Y-57628586D01*
X103827271Y-57699068D01*
X104007911Y-57735000D01*
X104192089Y-57735000D01*
X104372729Y-57699068D01*
X104542889Y-57628586D01*
X104696028Y-57526262D01*
X104826262Y-57396028D01*
X104928586Y-57242889D01*
X104999068Y-57072729D01*
X105035000Y-56892089D01*
X105035000Y-56707911D01*
X104999068Y-56527271D01*
X104997882Y-56524408D01*
X105126262Y-56396028D01*
X105228586Y-56242889D01*
X105299068Y-56072729D01*
X105335000Y-55892089D01*
X105335000Y-55707911D01*
X105299068Y-55527271D01*
X105228586Y-55357111D01*
X105126262Y-55203972D01*
X104996028Y-55073738D01*
X104842889Y-54971414D01*
X104688214Y-54907346D01*
X102135000Y-52354133D01*
X102135000Y-48227404D01*
X102199068Y-48072729D01*
X102231852Y-47907911D01*
X113585000Y-47907911D01*
X113585000Y-48092089D01*
X113620932Y-48272729D01*
X113691414Y-48442889D01*
X113793738Y-48596028D01*
X113923972Y-48726262D01*
X114077111Y-48828586D01*
X114247271Y-48899068D01*
X114427911Y-48935000D01*
X114612089Y-48935000D01*
X114792729Y-48899068D01*
X114962889Y-48828586D01*
X115116028Y-48726262D01*
X115246262Y-48596028D01*
X115348586Y-48442889D01*
X115419068Y-48272729D01*
X115455000Y-48092089D01*
X115455000Y-47907911D01*
X115419068Y-47727271D01*
X115348586Y-47557111D01*
X115246262Y-47403972D01*
X115116028Y-47273738D01*
X114962889Y-47171414D01*
X114792729Y-47100932D01*
X114612089Y-47065000D01*
X114427911Y-47065000D01*
X114247271Y-47100932D01*
X114077111Y-47171414D01*
X113923972Y-47273738D01*
X113793738Y-47403972D01*
X113691414Y-47557111D01*
X113620932Y-47727271D01*
X113585000Y-47907911D01*
X102231852Y-47907911D01*
X102235000Y-47892089D01*
X102235000Y-47707911D01*
X102199068Y-47527271D01*
X102128586Y-47357111D01*
X102026262Y-47203972D01*
X101896028Y-47073738D01*
X101742889Y-46971414D01*
X101572729Y-46900932D01*
X101392089Y-46865000D01*
X101207911Y-46865000D01*
X101027271Y-46900932D01*
X100857111Y-46971414D01*
X100703972Y-47073738D01*
X100573738Y-47203972D01*
X100471414Y-47357111D01*
X100400932Y-47527271D01*
X100365000Y-47707911D01*
X100365000Y-47892089D01*
X100400932Y-48072729D01*
X100465000Y-48227404D01*
X100465001Y-51984134D01*
X99535000Y-51054133D01*
X99535000Y-48227404D01*
X99599068Y-48072729D01*
X99635000Y-47892089D01*
X99635000Y-47707911D01*
X99599068Y-47527271D01*
X99528586Y-47357111D01*
X99426262Y-47203972D01*
X99296028Y-47073738D01*
X99142889Y-46971414D01*
X98972729Y-46900932D01*
X98792089Y-46865000D01*
X98607911Y-46865000D01*
X98427271Y-46900932D01*
X98257111Y-46971414D01*
X98103972Y-47073738D01*
X97973738Y-47203972D01*
X97871414Y-47357111D01*
X97800932Y-47527271D01*
X97765000Y-47707911D01*
X97765000Y-47892089D01*
X97800932Y-48072729D01*
X97865000Y-48227404D01*
X97865001Y-50764180D01*
X97035000Y-49934180D01*
X97035000Y-48227404D01*
X97099068Y-48072729D01*
X97135000Y-47892089D01*
X97135000Y-47707911D01*
X97099068Y-47527271D01*
X97028586Y-47357111D01*
X96926262Y-47203972D01*
X96796028Y-47073738D01*
X96642889Y-46971414D01*
X96472729Y-46900932D01*
X96292089Y-46865000D01*
X96107911Y-46865000D01*
X95927271Y-46900932D01*
X95757111Y-46971414D01*
X95603972Y-47073738D01*
X95473738Y-47203972D01*
X95371414Y-47357111D01*
X95300932Y-47527271D01*
X95265000Y-47707911D01*
X95265000Y-47892089D01*
X95300932Y-48072729D01*
X95365000Y-48227405D01*
X95365001Y-49584134D01*
X94535000Y-48754133D01*
X94535000Y-48227404D01*
X94599068Y-48072729D01*
X94635000Y-47892089D01*
X94635000Y-47707911D01*
X94599068Y-47527271D01*
X94528586Y-47357111D01*
X94426262Y-47203972D01*
X94296028Y-47073738D01*
X94142889Y-46971414D01*
X93972729Y-46900932D01*
X93792089Y-46865000D01*
X93607911Y-46865000D01*
X93427271Y-46900932D01*
X93257111Y-46971414D01*
X93103972Y-47073738D01*
X92973738Y-47203972D01*
X92871414Y-47357111D01*
X92800932Y-47527271D01*
X92765000Y-47707911D01*
X75010000Y-47707911D01*
X75010000Y-39710000D01*
X120990000Y-39710000D01*
X120990001Y-41565113D01*
M02*
