G04 #@! TF.GenerationSoftware,KiCad,Pcbnew,5.0.0-rc2-unknown-01c2d93~65~ubuntu18.04.1*
G04 #@! TF.CreationDate,2018-07-04T16:37:29+03:00*
G04 #@! TF.ProjectId,GB-BRK-CART,47422D42524B2D434152542E6B696361,v4.0*
G04 #@! TF.SameCoordinates,Original*
G04 #@! TF.FileFunction,Paste,Top*
G04 #@! TF.FilePolarity,Positive*
%FSLAX46Y46*%
G04 Gerber Fmt 4.6, Leading zero omitted, Abs format (unit mm)*
G04 Created by KiCad (PCBNEW 5.0.0-rc2-unknown-01c2d93~65~ubuntu18.04.1) date Wed Jul  4 16:37:29 2018*
%MOMM*%
%LPD*%
G01*
G04 APERTURE LIST*
%ADD10C,0.150000*%
%ADD11R,1.000000X3.150000*%
%ADD12R,1.000000X0.820000*%
%ADD13R,0.820000X1.000000*%
G04 APERTURE END LIST*
D10*
X121700000Y-39000000D02*
X121700000Y-41600000D01*
X74300000Y-39000000D02*
X121700000Y-39000000D01*
X125700000Y-41600000D02*
X121700000Y-41600000D01*
X74300000Y-91400000D02*
X74300000Y-39000000D01*
X75400000Y-91400000D02*
X74300000Y-91400000D01*
X75400000Y-100000000D02*
X75400000Y-91400000D01*
X125700000Y-91400000D02*
X125700000Y-41600000D01*
X124600000Y-91400000D02*
X125700000Y-91400000D01*
X124600000Y-100000000D02*
X124600000Y-91400000D01*
X75400000Y-100000000D02*
X124600000Y-100000000D01*
D11*
G04 #@! TO.C,J1*
X119050000Y-45475000D03*
X119050000Y-50525000D03*
X116510000Y-45475000D03*
X116510000Y-50525000D03*
X113970000Y-45475000D03*
X113970000Y-50525000D03*
X111430000Y-45475000D03*
X111430000Y-50525000D03*
X108890000Y-45475000D03*
X108890000Y-50525000D03*
X106350000Y-45475000D03*
X106350000Y-50525000D03*
X103810000Y-45475000D03*
X103810000Y-50525000D03*
X101270000Y-45475000D03*
X101270000Y-50525000D03*
X98730000Y-45475000D03*
X98730000Y-50525000D03*
X96190000Y-45475000D03*
X96190000Y-50525000D03*
X93650000Y-45475000D03*
X93650000Y-50525000D03*
X91110000Y-45475000D03*
X91110000Y-50525000D03*
X88570000Y-45475000D03*
X88570000Y-50525000D03*
X86030000Y-45475000D03*
X86030000Y-50525000D03*
X83490000Y-45475000D03*
X83490000Y-50525000D03*
X80950000Y-45475000D03*
X80950000Y-50525000D03*
G04 #@! TD*
D12*
G04 #@! TO.C,R1*
X77800000Y-44400000D03*
X77800000Y-46000000D03*
G04 #@! TD*
D13*
G04 #@! TO.C,D1*
X77700000Y-42000000D03*
X76100000Y-42000000D03*
G04 #@! TD*
D12*
G04 #@! TO.C,C1*
X75900000Y-46000000D03*
X75900000Y-44400000D03*
G04 #@! TD*
M02*
