G04 #@! TF.GenerationSoftware,KiCad,Pcbnew,5.0.0-rc2-unknown-01c2d93~65~ubuntu18.04.1*
G04 #@! TF.CreationDate,2018-07-04T16:37:29+03:00*
G04 #@! TF.ProjectId,GB-BRK-CART,47422D42524B2D434152542E6B696361,v4.0*
G04 #@! TF.SameCoordinates,Original*
G04 #@! TF.FileFunction,Copper,L1,Top,Signal*
G04 #@! TF.FilePolarity,Positive*
%FSLAX46Y46*%
G04 Gerber Fmt 4.6, Leading zero omitted, Abs format (unit mm)*
G04 Created by KiCad (PCBNEW 5.0.0-rc2-unknown-01c2d93~65~ubuntu18.04.1) date Wed Jul  4 16:37:29 2018*
%MOMM*%
%LPD*%
G01*
G04 APERTURE LIST*
G04 #@! TA.AperFunction,NonConductor*
%ADD10C,0.150000*%
G04 #@! TD*
G04 #@! TA.AperFunction,SMDPad,CuDef*
%ADD11R,1.000000X3.150000*%
G04 #@! TD*
G04 #@! TA.AperFunction,SMDPad,CuDef*
%ADD12R,1.000000X0.820000*%
G04 #@! TD*
G04 #@! TA.AperFunction,SMDPad,CuDef*
%ADD13R,0.820000X1.000000*%
G04 #@! TD*
G04 #@! TA.AperFunction,ConnectorPad*
%ADD14R,1.300000X6.000000*%
G04 #@! TD*
G04 #@! TA.AperFunction,ConnectorPad*
%ADD15R,1.000000X5.500000*%
G04 #@! TD*
G04 #@! TA.AperFunction,ViaPad*
%ADD16C,0.600000*%
G04 #@! TD*
G04 #@! TA.AperFunction,ViaPad*
%ADD17C,1.000000*%
G04 #@! TD*
G04 #@! TA.AperFunction,Conductor*
%ADD18C,0.800000*%
G04 #@! TD*
G04 #@! TA.AperFunction,Conductor*
%ADD19C,0.400000*%
G04 #@! TD*
G04 #@! TA.AperFunction,Conductor*
%ADD20C,0.254000*%
G04 #@! TD*
G04 APERTURE END LIST*
D10*
X121700000Y-39000000D02*
X121700000Y-41600000D01*
X74300000Y-39000000D02*
X121700000Y-39000000D01*
X125700000Y-41600000D02*
X121700000Y-41600000D01*
X74300000Y-91400000D02*
X74300000Y-39000000D01*
X75400000Y-91400000D02*
X74300000Y-91400000D01*
X75400000Y-100000000D02*
X75400000Y-91400000D01*
X125700000Y-91400000D02*
X125700000Y-41600000D01*
X124600000Y-91400000D02*
X125700000Y-91400000D01*
X124600000Y-100000000D02*
X124600000Y-91400000D01*
X75400000Y-100000000D02*
X124600000Y-100000000D01*
D11*
G04 #@! TO.P,J1,32*
G04 #@! TO.N,GND*
X119050000Y-45475000D03*
G04 #@! TO.P,J1,31*
G04 #@! TO.N,/A15*
X119050000Y-50525000D03*
G04 #@! TO.P,J1,30*
G04 #@! TO.N,/VIN*
X116510000Y-45475000D03*
G04 #@! TO.P,J1,29*
G04 #@! TO.N,/A14*
X116510000Y-50525000D03*
G04 #@! TO.P,J1,28*
G04 #@! TO.N,/~RES*
X113970000Y-45475000D03*
G04 #@! TO.P,J1,27*
G04 #@! TO.N,/A13*
X113970000Y-50525000D03*
G04 #@! TO.P,J1,26*
G04 #@! TO.N,/D7*
X111430000Y-45475000D03*
G04 #@! TO.P,J1,25*
G04 #@! TO.N,/A12*
X111430000Y-50525000D03*
G04 #@! TO.P,J1,24*
G04 #@! TO.N,/D6*
X108890000Y-45475000D03*
G04 #@! TO.P,J1,23*
G04 #@! TO.N,/A11*
X108890000Y-50525000D03*
G04 #@! TO.P,J1,22*
G04 #@! TO.N,/D5*
X106350000Y-45475000D03*
G04 #@! TO.P,J1,21*
G04 #@! TO.N,/A10*
X106350000Y-50525000D03*
G04 #@! TO.P,J1,20*
G04 #@! TO.N,/D4*
X103810000Y-45475000D03*
G04 #@! TO.P,J1,19*
G04 #@! TO.N,/A9*
X103810000Y-50525000D03*
G04 #@! TO.P,J1,18*
G04 #@! TO.N,/D3*
X101270000Y-45475000D03*
G04 #@! TO.P,J1,17*
G04 #@! TO.N,/A8*
X101270000Y-50525000D03*
G04 #@! TO.P,J1,16*
G04 #@! TO.N,/D2*
X98730000Y-45475000D03*
G04 #@! TO.P,J1,15*
G04 #@! TO.N,/A7*
X98730000Y-50525000D03*
G04 #@! TO.P,J1,14*
G04 #@! TO.N,/D1*
X96190000Y-45475000D03*
G04 #@! TO.P,J1,13*
G04 #@! TO.N,/A6*
X96190000Y-50525000D03*
G04 #@! TO.P,J1,12*
G04 #@! TO.N,/D0*
X93650000Y-45475000D03*
G04 #@! TO.P,J1,11*
G04 #@! TO.N,/A5*
X93650000Y-50525000D03*
G04 #@! TO.P,J1,10*
G04 #@! TO.N,/~CS*
X91110000Y-45475000D03*
G04 #@! TO.P,J1,9*
G04 #@! TO.N,/A4*
X91110000Y-50525000D03*
G04 #@! TO.P,J1,8*
G04 #@! TO.N,/~RD*
X88570000Y-45475000D03*
G04 #@! TO.P,J1,7*
G04 #@! TO.N,/A3*
X88570000Y-50525000D03*
G04 #@! TO.P,J1,6*
G04 #@! TO.N,/~WR*
X86030000Y-45475000D03*
G04 #@! TO.P,J1,5*
G04 #@! TO.N,/A2*
X86030000Y-50525000D03*
G04 #@! TO.P,J1,4*
G04 #@! TO.N,/PHI*
X83490000Y-45475000D03*
G04 #@! TO.P,J1,3*
G04 #@! TO.N,/A1*
X83490000Y-50525000D03*
G04 #@! TO.P,J1,2*
G04 #@! TO.N,+5V*
X80950000Y-45475000D03*
G04 #@! TO.P,J1,1*
G04 #@! TO.N,/A0*
X80950000Y-50525000D03*
G04 #@! TD*
D12*
G04 #@! TO.P,R1,2*
G04 #@! TO.N,Net-(D1-Pad2)*
X77800000Y-44400000D03*
G04 #@! TO.P,R1,1*
G04 #@! TO.N,+5V*
X77800000Y-46000000D03*
G04 #@! TD*
D13*
G04 #@! TO.P,D1,2*
G04 #@! TO.N,Net-(D1-Pad2)*
X77700000Y-42000000D03*
G04 #@! TO.P,D1,1*
G04 #@! TO.N,GND*
X76100000Y-42000000D03*
G04 #@! TD*
D14*
G04 #@! TO.P,J2,32*
G04 #@! TO.N,GND*
X123400000Y-96000000D03*
D15*
G04 #@! TO.P,J2,31*
G04 #@! TO.N,/VIN*
X121750000Y-95750000D03*
G04 #@! TO.P,J2,30*
G04 #@! TO.N,/~RES*
X120250000Y-95750000D03*
G04 #@! TO.P,J2,29*
G04 #@! TO.N,/D7*
X118750000Y-95750000D03*
G04 #@! TO.P,J2,28*
G04 #@! TO.N,/D6*
X117250000Y-95750000D03*
G04 #@! TO.P,J2,27*
G04 #@! TO.N,/D5*
X115750000Y-95750000D03*
G04 #@! TO.P,J2,26*
G04 #@! TO.N,/D4*
X114250000Y-95750000D03*
G04 #@! TO.P,J2,25*
G04 #@! TO.N,/D3*
X112750000Y-95750000D03*
G04 #@! TO.P,J2,24*
G04 #@! TO.N,/D2*
X111250000Y-95750000D03*
G04 #@! TO.P,J2,23*
G04 #@! TO.N,/D1*
X109750000Y-95750000D03*
G04 #@! TO.P,J2,22*
G04 #@! TO.N,/D0*
X108250000Y-95750000D03*
G04 #@! TO.P,J2,21*
G04 #@! TO.N,/A15*
X106750000Y-95750000D03*
G04 #@! TO.P,J2,20*
G04 #@! TO.N,/A14*
X105250000Y-95750000D03*
G04 #@! TO.P,J2,19*
G04 #@! TO.N,/A13*
X103750000Y-95750000D03*
G04 #@! TO.P,J2,18*
G04 #@! TO.N,/A12*
X102250000Y-95750000D03*
G04 #@! TO.P,J2,17*
G04 #@! TO.N,/A11*
X100750000Y-95750000D03*
G04 #@! TO.P,J2,16*
G04 #@! TO.N,/A10*
X99250000Y-95750000D03*
G04 #@! TO.P,J2,15*
G04 #@! TO.N,/A9*
X97750000Y-95750000D03*
G04 #@! TO.P,J2,14*
G04 #@! TO.N,/A8*
X96250000Y-95750000D03*
G04 #@! TO.P,J2,13*
G04 #@! TO.N,/A7*
X94750000Y-95750000D03*
G04 #@! TO.P,J2,12*
G04 #@! TO.N,/A6*
X93250000Y-95750000D03*
G04 #@! TO.P,J2,11*
G04 #@! TO.N,/A5*
X91750000Y-95750000D03*
G04 #@! TO.P,J2,10*
G04 #@! TO.N,/A4*
X90250000Y-95750000D03*
G04 #@! TO.P,J2,9*
G04 #@! TO.N,/A3*
X88750000Y-95750000D03*
G04 #@! TO.P,J2,8*
G04 #@! TO.N,/A2*
X87250000Y-95750000D03*
G04 #@! TO.P,J2,7*
G04 #@! TO.N,/A1*
X85750000Y-95750000D03*
G04 #@! TO.P,J2,6*
G04 #@! TO.N,/A0*
X84250000Y-95750000D03*
G04 #@! TO.P,J2,5*
G04 #@! TO.N,/~CS*
X82750000Y-95750000D03*
G04 #@! TO.P,J2,4*
G04 #@! TO.N,/~RD*
X81250000Y-95750000D03*
G04 #@! TO.P,J2,3*
G04 #@! TO.N,/~WR*
X79750000Y-95750000D03*
D14*
G04 #@! TO.P,J2,1*
G04 #@! TO.N,+5V*
X76600000Y-96000000D03*
D15*
G04 #@! TO.P,J2,2*
G04 #@! TO.N,/PHI*
X78250000Y-95750000D03*
G04 #@! TD*
D12*
G04 #@! TO.P,C1,1*
G04 #@! TO.N,+5V*
X75900000Y-46000000D03*
G04 #@! TO.P,C1,2*
G04 #@! TO.N,GND*
X75900000Y-44400000D03*
G04 #@! TD*
D16*
G04 #@! TO.N,GND*
X123400000Y-92600000D03*
D17*
X123400000Y-90200000D03*
X123900000Y-84000000D03*
X120700000Y-68500000D03*
X120300000Y-78300000D03*
X123300000Y-74500000D03*
X123000000Y-63200000D03*
X120300000Y-59000000D03*
X123300000Y-54900000D03*
X122300000Y-48800000D03*
X120300000Y-86100000D03*
X77600000Y-40300000D03*
X100000000Y-40200000D03*
X120200000Y-42900000D03*
D16*
G04 #@! TO.N,/A0*
X84300000Y-92600000D03*
G04 #@! TO.N,/PHI*
X78300000Y-92600000D03*
X82700000Y-58300000D03*
X83500000Y-56000000D03*
G04 #@! TO.N,/A1*
X85700000Y-92600000D03*
G04 #@! TO.N,/A2*
X87250000Y-92600000D03*
G04 #@! TO.N,/A3*
X88800000Y-92600000D03*
G04 #@! TO.N,/A4*
X90200000Y-92600000D03*
G04 #@! TO.N,/D0*
X101600000Y-57000000D03*
X93700000Y-47800000D03*
X108250000Y-92600000D03*
G04 #@! TO.N,/A5*
X91800000Y-92600000D03*
G04 #@! TO.N,/D1*
X102006139Y-56086186D03*
X96200000Y-47800000D03*
X109750000Y-92600000D03*
G04 #@! TO.N,/A6*
X93300000Y-92600000D03*
G04 #@! TO.N,/D2*
X104100000Y-56800000D03*
X98700000Y-47800000D03*
X111250000Y-92600000D03*
G04 #@! TO.N,/A7*
X94700000Y-92600000D03*
G04 #@! TO.N,/D3*
X104400000Y-55800000D03*
X101300000Y-47800000D03*
X112750000Y-92600000D03*
G04 #@! TO.N,/A8*
X96200000Y-92600000D03*
G04 #@! TO.N,/D4*
X114250000Y-92600000D03*
G04 #@! TO.N,/A9*
X97700000Y-92600000D03*
G04 #@! TO.N,/D5*
X115750000Y-92600000D03*
G04 #@! TO.N,/A10*
X103500000Y-62100000D03*
X106300000Y-52800000D03*
X99300000Y-92600000D03*
G04 #@! TO.N,/D6*
X117250000Y-92600000D03*
G04 #@! TO.N,/A11*
X104499994Y-62700000D03*
X108900000Y-52800000D03*
X100800000Y-92600000D03*
G04 #@! TO.N,/D7*
X118750000Y-92600000D03*
G04 #@! TO.N,/A12*
X105500000Y-63300000D03*
X111400000Y-52800000D03*
X102300000Y-92600000D03*
G04 #@! TO.N,/A13*
X106499994Y-63900000D03*
X114000000Y-52800000D03*
X103800000Y-92600000D03*
G04 #@! TO.N,/VIN*
X121750000Y-92600000D03*
G04 #@! TO.N,/A14*
X107507115Y-64507115D03*
X116500000Y-52800000D03*
X105300000Y-92600000D03*
G04 #@! TO.N,/A15*
X108500000Y-65100000D03*
X119000000Y-52800000D03*
X106800000Y-92600000D03*
G04 #@! TO.N,/~RES*
X114520000Y-48000000D03*
X120250000Y-92600000D03*
G04 #@! TO.N,/~CS*
X90600000Y-56000000D03*
X82800000Y-92600000D03*
X84499996Y-62600000D03*
G04 #@! TO.N,/~RD*
X88500000Y-56000000D03*
X81300000Y-92600000D03*
X84600000Y-60700000D03*
G04 #@! TO.N,/~WR*
X79800000Y-92600000D03*
X83847602Y-58952398D03*
X86200000Y-55400000D03*
G04 #@! TD*
D18*
G04 #@! TO.N,GND*
X123400000Y-92600000D02*
X123400000Y-90200000D01*
X123400000Y-96000000D02*
X123400000Y-92600000D01*
X123400000Y-89792894D02*
X123400000Y-90200000D01*
X123400000Y-89700000D02*
X123400000Y-89792894D01*
X123900000Y-84000000D02*
X123400000Y-84500000D01*
X123400000Y-84500000D02*
X123400000Y-89792894D01*
X123900000Y-84000000D02*
X123900000Y-83800000D01*
D19*
X119050000Y-45230000D02*
X119050000Y-46230000D01*
G04 #@! TO.N,Net-(D1-Pad2)*
X77800000Y-42100000D02*
X77700000Y-42000000D01*
X77700000Y-44300000D02*
X77800000Y-44400000D01*
X77700000Y-42000000D02*
X77700000Y-44300000D01*
G04 #@! TO.N,/A0*
X84300000Y-92600000D02*
X84300000Y-64131998D01*
X84300000Y-64131998D02*
X85500001Y-62931997D01*
X85500001Y-62931997D02*
X85500001Y-59332003D01*
X85500001Y-59332003D02*
X80950000Y-54782002D01*
X80950000Y-54782002D02*
X80950000Y-50525000D01*
X84250000Y-95750000D02*
X84250000Y-92650000D01*
X84250000Y-92650000D02*
X84300000Y-92600000D01*
G04 #@! TO.N,/PHI*
X78300000Y-92600000D02*
X80300000Y-90600000D01*
X80300000Y-62328004D02*
X82700000Y-59928004D01*
X80300000Y-90600000D02*
X80300000Y-62328004D01*
X82700000Y-59928004D02*
X82700000Y-58300000D01*
X78250000Y-95750000D02*
X78250000Y-92650000D01*
X78250000Y-92650000D02*
X78300000Y-92600000D01*
X83500000Y-56000000D02*
X82200000Y-54700000D01*
X82200000Y-54700000D02*
X82200000Y-48740000D01*
X82200000Y-48740000D02*
X83490000Y-47450000D01*
X83490000Y-47450000D02*
X83490000Y-45475000D01*
X83490000Y-55990000D02*
X83500000Y-56000000D01*
G04 #@! TO.N,/A1*
X85700000Y-92600000D02*
X85700000Y-63863382D01*
X85700000Y-63863382D02*
X86500000Y-63063382D01*
X86500000Y-63063382D02*
X86500000Y-57832002D01*
X86500000Y-57832002D02*
X84400001Y-55732003D01*
X84400001Y-55732003D02*
X84400001Y-53410001D01*
X84400001Y-53410001D02*
X83490000Y-52500000D01*
X83490000Y-52500000D02*
X83490000Y-50525000D01*
X85750000Y-95750000D02*
X85750000Y-92650000D01*
X85750000Y-92650000D02*
X85700000Y-92600000D01*
G04 #@! TO.N,/A2*
X86030000Y-50525000D02*
X86030000Y-52777232D01*
X87400000Y-92450000D02*
X87250000Y-92600000D01*
X86030000Y-52777232D02*
X87400000Y-54147232D01*
X87400000Y-54147232D02*
X87400000Y-92450000D01*
X87250000Y-95750000D02*
X87250000Y-92600000D01*
G04 #@! TO.N,/A3*
X88800000Y-92600000D02*
X88800000Y-58200000D01*
X88800000Y-58200000D02*
X89500001Y-57499999D01*
X89500001Y-57499999D02*
X89500001Y-53430001D01*
X89500001Y-53430001D02*
X88570000Y-52500000D01*
X88570000Y-52500000D02*
X88570000Y-50525000D01*
X88750000Y-95750000D02*
X88750000Y-92650000D01*
X88750000Y-92650000D02*
X88800000Y-92600000D01*
G04 #@! TO.N,/A4*
X91110000Y-50525000D02*
X91110000Y-52500000D01*
X91110000Y-52500000D02*
X91700000Y-53090000D01*
X91700000Y-53090000D02*
X91700000Y-56900000D01*
X91700000Y-56900000D02*
X90200000Y-58400000D01*
X90200000Y-58400000D02*
X90200000Y-92600000D01*
X90250000Y-95750000D02*
X90250000Y-92650000D01*
X90250000Y-92650000D02*
X90200000Y-92600000D01*
G04 #@! TO.N,/D0*
X108250000Y-92600000D02*
X109800000Y-91050000D01*
X109800000Y-91050000D02*
X109800000Y-63800000D01*
X103500000Y-58900000D02*
X101600000Y-57000000D01*
X109800000Y-63800000D02*
X104900000Y-58900000D01*
X104900000Y-58900000D02*
X103500000Y-58900000D01*
X93700000Y-47800000D02*
X93700000Y-45525000D01*
X93700000Y-45525000D02*
X93650000Y-45475000D01*
X108250000Y-92600000D02*
X108250000Y-95750000D01*
G04 #@! TO.N,/A5*
X93650000Y-50525000D02*
X93650000Y-56950000D01*
X93650000Y-56950000D02*
X91200000Y-59400000D01*
X91200000Y-59400000D02*
X91200000Y-92000000D01*
X91200000Y-92000000D02*
X91800000Y-92600000D01*
X91750000Y-95750000D02*
X91750000Y-92650000D01*
X91750000Y-92650000D02*
X91800000Y-92600000D01*
G04 #@! TO.N,/D1*
X110700000Y-63400006D02*
X105299994Y-58000000D01*
X105299994Y-58000000D02*
X103919953Y-58000000D01*
X103919953Y-58000000D02*
X102006139Y-56086186D01*
X110700000Y-63400006D02*
X110700000Y-63400000D01*
X109750000Y-92600000D02*
X110700000Y-91650000D01*
X110700000Y-91650000D02*
X110700000Y-63400006D01*
X96200000Y-47800000D02*
X96200000Y-45485000D01*
X96200000Y-45485000D02*
X96190000Y-45475000D01*
X109750000Y-92600000D02*
X109750000Y-95750000D01*
G04 #@! TO.N,/A6*
X93300000Y-92600000D02*
X92200000Y-91500000D01*
X92200000Y-91500000D02*
X92200000Y-59900000D01*
X92200000Y-59900000D02*
X96190000Y-55910000D01*
X96190000Y-55910000D02*
X96190000Y-50525000D01*
X93250000Y-95750000D02*
X93250000Y-92650000D01*
X93250000Y-92650000D02*
X93300000Y-92600000D01*
G04 #@! TO.N,/D2*
X105500014Y-56800000D02*
X104100000Y-56800000D01*
X111549999Y-62849985D02*
X105500014Y-56800000D01*
X111549999Y-92300001D02*
X111549999Y-62849985D01*
X111250000Y-92600000D02*
X111549999Y-92300001D01*
X98700000Y-47800000D02*
X98700000Y-45505000D01*
X98700000Y-45505000D02*
X98730000Y-45475000D01*
X111250000Y-92600000D02*
X111250000Y-95750000D01*
G04 #@! TO.N,/A7*
X98730000Y-50525000D02*
X98730000Y-54770000D01*
X98730000Y-54770000D02*
X93200000Y-60300000D01*
X93200000Y-60300000D02*
X93200000Y-91100000D01*
X93200000Y-91100000D02*
X94700000Y-92600000D01*
X94750000Y-95750000D02*
X94750000Y-92650000D01*
X94750000Y-92650000D02*
X94700000Y-92600000D01*
G04 #@! TO.N,/D3*
X105899996Y-55800000D02*
X104400000Y-55800000D01*
X112450001Y-62350005D02*
X105899996Y-55800000D01*
X112450001Y-92300001D02*
X112450001Y-62350005D01*
X112750000Y-92600000D02*
X112450001Y-92300001D01*
X101300000Y-47800000D02*
X101300000Y-45505000D01*
X101300000Y-45505000D02*
X101270000Y-45475000D01*
X112750000Y-92600000D02*
X112750000Y-95750000D01*
G04 #@! TO.N,/A8*
X101270000Y-50525000D02*
X101270000Y-53630000D01*
X101270000Y-53630000D02*
X94200000Y-60700000D01*
X94200000Y-60700000D02*
X94200000Y-90600000D01*
X94200000Y-90600000D02*
X96200000Y-92600000D01*
X96250000Y-95750000D02*
X96250000Y-92650000D01*
X96250000Y-92650000D02*
X96200000Y-92600000D01*
G04 #@! TO.N,/D4*
X114250000Y-92600000D02*
X113400000Y-91750000D01*
X113400000Y-91750000D02*
X113400000Y-61500000D01*
X113400000Y-61500000D02*
X105100000Y-53200000D01*
X105100000Y-53200000D02*
X105100000Y-48740000D01*
X105100000Y-48740000D02*
X103810000Y-47450000D01*
X103810000Y-47450000D02*
X103810000Y-45475000D01*
X114250000Y-92600000D02*
X114250000Y-95750000D01*
G04 #@! TO.N,/A9*
X103810000Y-52500000D02*
X95200000Y-61110000D01*
X103810000Y-50525000D02*
X103810000Y-52500000D01*
X95200000Y-61110000D02*
X95200000Y-90100000D01*
X95200000Y-90100000D02*
X97700000Y-92600000D01*
X97750000Y-95750000D02*
X97750000Y-92650000D01*
X97750000Y-92650000D02*
X97700000Y-92600000D01*
G04 #@! TO.N,/D5*
X115750000Y-92600000D02*
X114300000Y-91150000D01*
X114300000Y-91150000D02*
X114300000Y-60000000D01*
X114300000Y-60000000D02*
X107450001Y-53150001D01*
X107450001Y-53150001D02*
X107450001Y-48550001D01*
X107450001Y-48550001D02*
X106350000Y-47450000D01*
X106350000Y-47450000D02*
X106350000Y-45475000D01*
X115750000Y-92600000D02*
X115750000Y-95750000D01*
G04 #@! TO.N,/A10*
X99300000Y-92600000D02*
X104400000Y-87500000D01*
X104400000Y-87500000D02*
X104400000Y-67400000D01*
X104400000Y-67400000D02*
X103500000Y-66500000D01*
X103500000Y-66500000D02*
X103500000Y-62100000D01*
X106350000Y-50525000D02*
X106350000Y-52750000D01*
X106350000Y-52750000D02*
X106300000Y-52800000D01*
X99250000Y-95750000D02*
X99250000Y-92650000D01*
X99250000Y-92650000D02*
X99300000Y-92600000D01*
G04 #@! TO.N,/D6*
X117250000Y-92600000D02*
X115200000Y-90550000D01*
X115200000Y-90550000D02*
X115200000Y-58200000D01*
X115200000Y-58200000D02*
X109990001Y-52990001D01*
X109990001Y-52990001D02*
X109990001Y-48550001D01*
X109990001Y-48550001D02*
X108890000Y-47450000D01*
X108890000Y-47450000D02*
X108890000Y-45475000D01*
X117250000Y-92600000D02*
X117250000Y-95750000D01*
G04 #@! TO.N,/A11*
X100800000Y-92600000D02*
X105300000Y-88100000D01*
X105300000Y-88100000D02*
X105300000Y-67100000D01*
X105300000Y-67100000D02*
X104499994Y-66299994D01*
X104499994Y-66299994D02*
X104499994Y-62700000D01*
X108890000Y-50525000D02*
X108890000Y-52790000D01*
X108890000Y-52790000D02*
X108900000Y-52800000D01*
X100750000Y-95750000D02*
X100750000Y-92650000D01*
X100750000Y-92650000D02*
X100800000Y-92600000D01*
G04 #@! TO.N,/D7*
X118750000Y-92600000D02*
X116100000Y-89950000D01*
X116100000Y-89950000D02*
X116100000Y-57100000D01*
X116100000Y-57100000D02*
X112700000Y-53700000D01*
X112700000Y-53700000D02*
X112700000Y-48720000D01*
X112700000Y-48720000D02*
X111430000Y-47450000D01*
X111430000Y-47450000D02*
X111430000Y-45475000D01*
X118750000Y-92600000D02*
X118750000Y-95750000D01*
G04 #@! TO.N,/A12*
X102300000Y-92600000D02*
X106200000Y-88700000D01*
X106200000Y-88700000D02*
X106200000Y-66800000D01*
X106200000Y-66800000D02*
X105500000Y-66100000D01*
X105500000Y-66100000D02*
X105500000Y-63300000D01*
X111430000Y-50525000D02*
X111430000Y-52770000D01*
X111430000Y-52770000D02*
X111400000Y-52800000D01*
X102250000Y-95750000D02*
X102250000Y-92650000D01*
X102250000Y-92650000D02*
X102300000Y-92600000D01*
G04 #@! TO.N,/A13*
X103800000Y-92600000D02*
X107100000Y-89300000D01*
X107100000Y-89300000D02*
X107100000Y-66500000D01*
X107100000Y-66500000D02*
X106499994Y-65899994D01*
X106499994Y-65899994D02*
X106499994Y-63900000D01*
X113970000Y-50525000D02*
X113970000Y-52770000D01*
X113970000Y-52770000D02*
X114000000Y-52800000D01*
X103750000Y-95750000D02*
X103750000Y-92650000D01*
X103750000Y-92650000D02*
X103800000Y-92600000D01*
G04 #@! TO.N,/VIN*
X121750000Y-92600000D02*
X117900000Y-88750000D01*
X117900000Y-48840000D02*
X116510000Y-47450000D01*
X117900000Y-88750000D02*
X117900000Y-48840000D01*
X116510000Y-47450000D02*
X116510000Y-45475000D01*
X121750000Y-92600000D02*
X121750000Y-95750000D01*
G04 #@! TO.N,/A14*
X105300000Y-92600000D02*
X108000000Y-89900000D01*
X108000000Y-89900000D02*
X108000000Y-66200000D01*
X108000000Y-66200000D02*
X107500000Y-65700000D01*
X107500000Y-65700000D02*
X107507115Y-65692885D01*
X107507115Y-65692885D02*
X107507115Y-64507115D01*
X116510000Y-50525000D02*
X116510000Y-52790000D01*
X116510000Y-52790000D02*
X116500000Y-52800000D01*
X105250000Y-95750000D02*
X105250000Y-92650000D01*
X105250000Y-92650000D02*
X105300000Y-92600000D01*
G04 #@! TO.N,/A15*
X108900000Y-90500000D02*
X108900000Y-65500000D01*
X108900000Y-65500000D02*
X108500000Y-65100000D01*
X106800000Y-92600000D02*
X108900000Y-90500000D01*
X119050000Y-50525000D02*
X119050000Y-52750000D01*
X119050000Y-52750000D02*
X119000000Y-52800000D01*
X106750000Y-95750000D02*
X106750000Y-92650000D01*
X106750000Y-92650000D02*
X106800000Y-92600000D01*
G04 #@! TO.N,/~RES*
X120250000Y-92600000D02*
X117000000Y-89350000D01*
X117000000Y-89350000D02*
X117000000Y-55800000D01*
X117000000Y-55800000D02*
X115300000Y-54100000D01*
X115300000Y-48780000D02*
X114520000Y-48000000D01*
X115300000Y-54100000D02*
X115300000Y-48780000D01*
X114520000Y-48000000D02*
X113970000Y-47450000D01*
X113970000Y-47450000D02*
X113970000Y-45475000D01*
X120250000Y-92600000D02*
X120250000Y-95750000D01*
G04 #@! TO.N,/~CS*
X91110000Y-45475000D02*
X91110000Y-47450000D01*
X91110000Y-47450000D02*
X89800000Y-48760000D01*
X89800000Y-48760000D02*
X89800000Y-52598616D01*
X89800000Y-52598616D02*
X90600000Y-53398616D01*
X90600000Y-53398616D02*
X90600000Y-56000000D01*
X82800000Y-92600000D02*
X83300000Y-92100000D01*
X83300000Y-92100000D02*
X83300000Y-63799996D01*
X83300000Y-63799996D02*
X84499996Y-62600000D01*
X82750000Y-95750000D02*
X82750000Y-92650000D01*
X82750000Y-92650000D02*
X82800000Y-92600000D01*
G04 #@! TO.N,/~RD*
X87200000Y-52815848D02*
X88500000Y-54115848D01*
X88570000Y-55970000D02*
X88540000Y-56000000D01*
X87200000Y-48820000D02*
X87200000Y-52815848D01*
X88570000Y-45475000D02*
X88570000Y-47450000D01*
X88540000Y-56000000D02*
X88500000Y-56000000D01*
X88500000Y-54115848D02*
X88500000Y-56000000D01*
X88570000Y-47450000D02*
X87200000Y-48820000D01*
X88500000Y-55900000D02*
X88500000Y-56000000D01*
X81300000Y-92600000D02*
X82300000Y-91600000D01*
X82300000Y-91600000D02*
X82300000Y-63000000D01*
X82300000Y-63000000D02*
X84600000Y-60700000D01*
X81250000Y-95750000D02*
X81250000Y-92650000D01*
X81250000Y-92650000D02*
X81300000Y-92600000D01*
G04 #@! TO.N,/~WR*
X79750000Y-95750000D02*
X79750000Y-92650000D01*
X79750000Y-92650000D02*
X79800000Y-92600000D01*
X83847602Y-59911786D02*
X83847602Y-58952398D01*
X81100010Y-62659378D02*
X83847602Y-59911786D01*
X79800000Y-92600000D02*
X81100010Y-91299990D01*
X81100010Y-91299990D02*
X81100010Y-62659378D01*
X86030000Y-47450000D02*
X86030000Y-45475000D01*
X84700000Y-48780000D02*
X86030000Y-47450000D01*
X84700000Y-52578616D02*
X84700000Y-48780000D01*
X86200000Y-55400000D02*
X86200000Y-54078616D01*
X86200000Y-54078616D02*
X84700000Y-52578616D01*
G04 #@! TD*
D20*
G04 #@! TO.N,+5V*
G36*
X82273000Y-47486131D02*
X81667718Y-48091415D01*
X81598000Y-48137999D01*
X81551416Y-48207717D01*
X81483581Y-48309240D01*
X81450000Y-48302560D01*
X80450000Y-48302560D01*
X80202235Y-48351843D01*
X79992191Y-48492191D01*
X79851843Y-48702235D01*
X79802560Y-48950000D01*
X79802560Y-52100000D01*
X79851843Y-52347765D01*
X79992191Y-52557809D01*
X80115001Y-52639868D01*
X80115000Y-54699769D01*
X80098643Y-54782002D01*
X80115000Y-54864235D01*
X80115000Y-54864238D01*
X80163448Y-55107802D01*
X80347999Y-55384003D01*
X80417720Y-55430589D01*
X82273000Y-57285869D01*
X82273000Y-57464832D01*
X82170365Y-57507345D01*
X81907345Y-57770365D01*
X81765000Y-58114017D01*
X81765000Y-58485983D01*
X81865001Y-58727407D01*
X81865000Y-59470210D01*
X79308738Y-62111681D01*
X79281886Y-62153329D01*
X79273000Y-62200000D01*
X79273000Y-90247394D01*
X77210197Y-92310197D01*
X77182667Y-92351399D01*
X77179962Y-92365000D01*
X76885750Y-92365000D01*
X76727000Y-92523750D01*
X76727000Y-95873000D01*
X76747000Y-95873000D01*
X76747000Y-96127000D01*
X76727000Y-96127000D01*
X76727000Y-96147000D01*
X76473000Y-96147000D01*
X76473000Y-96127000D01*
X76453000Y-96127000D01*
X76453000Y-95873000D01*
X76473000Y-95873000D01*
X76473000Y-92523750D01*
X76314250Y-92365000D01*
X76110000Y-92365000D01*
X76110000Y-91469925D01*
X76123909Y-91400000D01*
X76068805Y-91122972D01*
X75911881Y-90888119D01*
X75677028Y-90731195D01*
X75469926Y-90690000D01*
X75400000Y-90676091D01*
X75330075Y-90690000D01*
X75010000Y-90690000D01*
X75010000Y-46918026D01*
X75040301Y-46948327D01*
X75273690Y-47045000D01*
X75614250Y-47045000D01*
X75773000Y-46886250D01*
X75773000Y-46127000D01*
X76027000Y-46127000D01*
X76027000Y-46886250D01*
X76185750Y-47045000D01*
X76526310Y-47045000D01*
X76759699Y-46948327D01*
X76850000Y-46858025D01*
X76940301Y-46948327D01*
X77173690Y-47045000D01*
X77514250Y-47045000D01*
X77673000Y-46886250D01*
X77673000Y-46127000D01*
X77927000Y-46127000D01*
X77927000Y-46886250D01*
X78085750Y-47045000D01*
X78426310Y-47045000D01*
X78659699Y-46948327D01*
X78838327Y-46769698D01*
X78935000Y-46536309D01*
X78935000Y-46285750D01*
X78776250Y-46127000D01*
X77927000Y-46127000D01*
X77673000Y-46127000D01*
X76027000Y-46127000D01*
X75773000Y-46127000D01*
X75753000Y-46127000D01*
X75753000Y-45873000D01*
X75773000Y-45873000D01*
X75773000Y-45853000D01*
X76027000Y-45853000D01*
X76027000Y-45873000D01*
X77673000Y-45873000D01*
X77673000Y-45853000D01*
X77927000Y-45853000D01*
X77927000Y-45873000D01*
X78776250Y-45873000D01*
X78888500Y-45760750D01*
X79815000Y-45760750D01*
X79815000Y-47176309D01*
X79911673Y-47409698D01*
X80090301Y-47588327D01*
X80323690Y-47685000D01*
X80664250Y-47685000D01*
X80823000Y-47526250D01*
X80823000Y-45602000D01*
X81077000Y-45602000D01*
X81077000Y-47526250D01*
X81235750Y-47685000D01*
X81576310Y-47685000D01*
X81809699Y-47588327D01*
X81988327Y-47409698D01*
X82085000Y-47176309D01*
X82085000Y-45760750D01*
X81926250Y-45602000D01*
X81077000Y-45602000D01*
X80823000Y-45602000D01*
X79973750Y-45602000D01*
X79815000Y-45760750D01*
X78888500Y-45760750D01*
X78935000Y-45714250D01*
X78935000Y-45463691D01*
X78838327Y-45230302D01*
X78827000Y-45218975D01*
X78827000Y-45164257D01*
X78898157Y-45057765D01*
X78947440Y-44810000D01*
X78947440Y-43990000D01*
X78904414Y-43773691D01*
X79815000Y-43773691D01*
X79815000Y-45189250D01*
X79973750Y-45348000D01*
X80823000Y-45348000D01*
X80823000Y-43423750D01*
X81077000Y-43423750D01*
X81077000Y-45348000D01*
X81926250Y-45348000D01*
X82085000Y-45189250D01*
X82085000Y-43773691D01*
X81988327Y-43540302D01*
X81809699Y-43361673D01*
X81576310Y-43265000D01*
X81235750Y-43265000D01*
X81077000Y-43423750D01*
X80823000Y-43423750D01*
X80664250Y-43265000D01*
X80323690Y-43265000D01*
X80090301Y-43361673D01*
X79911673Y-43540302D01*
X79815000Y-43773691D01*
X78904414Y-43773691D01*
X78898157Y-43742235D01*
X78827000Y-43635742D01*
X78827000Y-43227000D01*
X82273000Y-43227000D01*
X82273000Y-47486131D01*
X82273000Y-47486131D01*
G37*
X82273000Y-47486131D02*
X81667718Y-48091415D01*
X81598000Y-48137999D01*
X81551416Y-48207717D01*
X81483581Y-48309240D01*
X81450000Y-48302560D01*
X80450000Y-48302560D01*
X80202235Y-48351843D01*
X79992191Y-48492191D01*
X79851843Y-48702235D01*
X79802560Y-48950000D01*
X79802560Y-52100000D01*
X79851843Y-52347765D01*
X79992191Y-52557809D01*
X80115001Y-52639868D01*
X80115000Y-54699769D01*
X80098643Y-54782002D01*
X80115000Y-54864235D01*
X80115000Y-54864238D01*
X80163448Y-55107802D01*
X80347999Y-55384003D01*
X80417720Y-55430589D01*
X82273000Y-57285869D01*
X82273000Y-57464832D01*
X82170365Y-57507345D01*
X81907345Y-57770365D01*
X81765000Y-58114017D01*
X81765000Y-58485983D01*
X81865001Y-58727407D01*
X81865000Y-59470210D01*
X79308738Y-62111681D01*
X79281886Y-62153329D01*
X79273000Y-62200000D01*
X79273000Y-90247394D01*
X77210197Y-92310197D01*
X77182667Y-92351399D01*
X77179962Y-92365000D01*
X76885750Y-92365000D01*
X76727000Y-92523750D01*
X76727000Y-95873000D01*
X76747000Y-95873000D01*
X76747000Y-96127000D01*
X76727000Y-96127000D01*
X76727000Y-96147000D01*
X76473000Y-96147000D01*
X76473000Y-96127000D01*
X76453000Y-96127000D01*
X76453000Y-95873000D01*
X76473000Y-95873000D01*
X76473000Y-92523750D01*
X76314250Y-92365000D01*
X76110000Y-92365000D01*
X76110000Y-91469925D01*
X76123909Y-91400000D01*
X76068805Y-91122972D01*
X75911881Y-90888119D01*
X75677028Y-90731195D01*
X75469926Y-90690000D01*
X75400000Y-90676091D01*
X75330075Y-90690000D01*
X75010000Y-90690000D01*
X75010000Y-46918026D01*
X75040301Y-46948327D01*
X75273690Y-47045000D01*
X75614250Y-47045000D01*
X75773000Y-46886250D01*
X75773000Y-46127000D01*
X76027000Y-46127000D01*
X76027000Y-46886250D01*
X76185750Y-47045000D01*
X76526310Y-47045000D01*
X76759699Y-46948327D01*
X76850000Y-46858025D01*
X76940301Y-46948327D01*
X77173690Y-47045000D01*
X77514250Y-47045000D01*
X77673000Y-46886250D01*
X77673000Y-46127000D01*
X77927000Y-46127000D01*
X77927000Y-46886250D01*
X78085750Y-47045000D01*
X78426310Y-47045000D01*
X78659699Y-46948327D01*
X78838327Y-46769698D01*
X78935000Y-46536309D01*
X78935000Y-46285750D01*
X78776250Y-46127000D01*
X77927000Y-46127000D01*
X77673000Y-46127000D01*
X76027000Y-46127000D01*
X75773000Y-46127000D01*
X75753000Y-46127000D01*
X75753000Y-45873000D01*
X75773000Y-45873000D01*
X75773000Y-45853000D01*
X76027000Y-45853000D01*
X76027000Y-45873000D01*
X77673000Y-45873000D01*
X77673000Y-45853000D01*
X77927000Y-45853000D01*
X77927000Y-45873000D01*
X78776250Y-45873000D01*
X78888500Y-45760750D01*
X79815000Y-45760750D01*
X79815000Y-47176309D01*
X79911673Y-47409698D01*
X80090301Y-47588327D01*
X80323690Y-47685000D01*
X80664250Y-47685000D01*
X80823000Y-47526250D01*
X80823000Y-45602000D01*
X81077000Y-45602000D01*
X81077000Y-47526250D01*
X81235750Y-47685000D01*
X81576310Y-47685000D01*
X81809699Y-47588327D01*
X81988327Y-47409698D01*
X82085000Y-47176309D01*
X82085000Y-45760750D01*
X81926250Y-45602000D01*
X81077000Y-45602000D01*
X80823000Y-45602000D01*
X79973750Y-45602000D01*
X79815000Y-45760750D01*
X78888500Y-45760750D01*
X78935000Y-45714250D01*
X78935000Y-45463691D01*
X78838327Y-45230302D01*
X78827000Y-45218975D01*
X78827000Y-45164257D01*
X78898157Y-45057765D01*
X78947440Y-44810000D01*
X78947440Y-43990000D01*
X78904414Y-43773691D01*
X79815000Y-43773691D01*
X79815000Y-45189250D01*
X79973750Y-45348000D01*
X80823000Y-45348000D01*
X80823000Y-43423750D01*
X81077000Y-43423750D01*
X81077000Y-45348000D01*
X81926250Y-45348000D01*
X82085000Y-45189250D01*
X82085000Y-43773691D01*
X81988327Y-43540302D01*
X81809699Y-43361673D01*
X81576310Y-43265000D01*
X81235750Y-43265000D01*
X81077000Y-43423750D01*
X80823000Y-43423750D01*
X80664250Y-43265000D01*
X80323690Y-43265000D01*
X80090301Y-43361673D01*
X79911673Y-43540302D01*
X79815000Y-43773691D01*
X78904414Y-43773691D01*
X78898157Y-43742235D01*
X78827000Y-43635742D01*
X78827000Y-43227000D01*
X82273000Y-43227000D01*
X82273000Y-47486131D01*
G04 #@! TO.N,GND*
G36*
X120990001Y-41530070D02*
X120976091Y-41600000D01*
X121031195Y-41877028D01*
X121188119Y-42111881D01*
X121422972Y-42268805D01*
X121630074Y-42310000D01*
X121630075Y-42310000D01*
X121700000Y-42323909D01*
X121769926Y-42310000D01*
X124990001Y-42310000D01*
X124990000Y-90690000D01*
X124669926Y-90690000D01*
X124600000Y-90676091D01*
X124530075Y-90690000D01*
X124530074Y-90690000D01*
X124322972Y-90731195D01*
X124088119Y-90888119D01*
X123931195Y-91122972D01*
X123876091Y-91400000D01*
X123890001Y-91469931D01*
X123890001Y-92365000D01*
X123685750Y-92365000D01*
X123527000Y-92523750D01*
X123527000Y-95873000D01*
X123547000Y-95873000D01*
X123547000Y-96127000D01*
X123527000Y-96127000D01*
X123527000Y-96147000D01*
X123273000Y-96147000D01*
X123273000Y-96127000D01*
X123253000Y-96127000D01*
X123253000Y-95873000D01*
X123273000Y-95873000D01*
X123273000Y-92523750D01*
X123114250Y-92365000D01*
X122664697Y-92365000D01*
X122542655Y-92070365D01*
X122279635Y-91807345D01*
X122038213Y-91707345D01*
X118827000Y-88496133D01*
X118827000Y-53735000D01*
X119185983Y-53735000D01*
X119529635Y-53592655D01*
X119792655Y-53329635D01*
X119935000Y-52985983D01*
X119935000Y-52614017D01*
X119932548Y-52608097D01*
X120007809Y-52557809D01*
X120148157Y-52347765D01*
X120197440Y-52100000D01*
X120197440Y-48950000D01*
X120148157Y-48702235D01*
X120007809Y-48492191D01*
X119797765Y-48351843D01*
X119550000Y-48302560D01*
X118550000Y-48302560D01*
X118545710Y-48303413D01*
X118502001Y-48237999D01*
X118432282Y-48191415D01*
X117580309Y-47339442D01*
X117608157Y-47297765D01*
X117657440Y-47050000D01*
X117657440Y-45760750D01*
X117915000Y-45760750D01*
X117915000Y-47176309D01*
X118011673Y-47409698D01*
X118190301Y-47588327D01*
X118423690Y-47685000D01*
X118764250Y-47685000D01*
X118923000Y-47526250D01*
X118923000Y-45602000D01*
X119177000Y-45602000D01*
X119177000Y-47526250D01*
X119335750Y-47685000D01*
X119676310Y-47685000D01*
X119909699Y-47588327D01*
X120088327Y-47409698D01*
X120185000Y-47176309D01*
X120185000Y-45760750D01*
X120026250Y-45602000D01*
X119177000Y-45602000D01*
X118923000Y-45602000D01*
X118073750Y-45602000D01*
X117915000Y-45760750D01*
X117657440Y-45760750D01*
X117657440Y-43900000D01*
X117632316Y-43773691D01*
X117915000Y-43773691D01*
X117915000Y-45189250D01*
X118073750Y-45348000D01*
X118923000Y-45348000D01*
X118923000Y-43423750D01*
X119177000Y-43423750D01*
X119177000Y-45348000D01*
X120026250Y-45348000D01*
X120185000Y-45189250D01*
X120185000Y-43773691D01*
X120088327Y-43540302D01*
X119909699Y-43361673D01*
X119676310Y-43265000D01*
X119335750Y-43265000D01*
X119177000Y-43423750D01*
X118923000Y-43423750D01*
X118764250Y-43265000D01*
X118423690Y-43265000D01*
X118190301Y-43361673D01*
X118011673Y-43540302D01*
X117915000Y-43773691D01*
X117632316Y-43773691D01*
X117608157Y-43652235D01*
X117467809Y-43442191D01*
X117305559Y-43333779D01*
X117289803Y-43310197D01*
X117248601Y-43282667D01*
X117200000Y-43273000D01*
X117112760Y-43273000D01*
X117010000Y-43252560D01*
X116010000Y-43252560D01*
X115907240Y-43273000D01*
X114572760Y-43273000D01*
X114470000Y-43252560D01*
X113470000Y-43252560D01*
X113367240Y-43273000D01*
X112032760Y-43273000D01*
X111930000Y-43252560D01*
X110930000Y-43252560D01*
X110827240Y-43273000D01*
X109492760Y-43273000D01*
X109390000Y-43252560D01*
X108390000Y-43252560D01*
X108287240Y-43273000D01*
X106952760Y-43273000D01*
X106850000Y-43252560D01*
X105850000Y-43252560D01*
X105747240Y-43273000D01*
X104412760Y-43273000D01*
X104310000Y-43252560D01*
X103310000Y-43252560D01*
X103207240Y-43273000D01*
X101872760Y-43273000D01*
X101770000Y-43252560D01*
X100770000Y-43252560D01*
X100667240Y-43273000D01*
X99332760Y-43273000D01*
X99230000Y-43252560D01*
X98230000Y-43252560D01*
X98127240Y-43273000D01*
X96792760Y-43273000D01*
X96690000Y-43252560D01*
X95690000Y-43252560D01*
X95587240Y-43273000D01*
X94252760Y-43273000D01*
X94150000Y-43252560D01*
X93150000Y-43252560D01*
X93047240Y-43273000D01*
X91712760Y-43273000D01*
X91610000Y-43252560D01*
X90610000Y-43252560D01*
X90507240Y-43273000D01*
X89172760Y-43273000D01*
X89070000Y-43252560D01*
X88070000Y-43252560D01*
X87967240Y-43273000D01*
X86632760Y-43273000D01*
X86530000Y-43252560D01*
X85530000Y-43252560D01*
X85427240Y-43273000D01*
X84092760Y-43273000D01*
X83990000Y-43252560D01*
X83527000Y-43252560D01*
X83527000Y-42100000D01*
X83517333Y-42051399D01*
X83489803Y-42010197D01*
X83448601Y-41982667D01*
X83400000Y-41973000D01*
X78757440Y-41973000D01*
X78757440Y-41500000D01*
X78708157Y-41252235D01*
X78567809Y-41042191D01*
X78357765Y-40901843D01*
X78110000Y-40852560D01*
X77290000Y-40852560D01*
X77042235Y-40901843D01*
X76902942Y-40994917D01*
X76869698Y-40961673D01*
X76636309Y-40865000D01*
X76385750Y-40865000D01*
X76227000Y-41023750D01*
X76227000Y-41873000D01*
X76247000Y-41873000D01*
X76247000Y-42127000D01*
X76227000Y-42127000D01*
X76227000Y-42976250D01*
X76373000Y-43122250D01*
X76373000Y-43355000D01*
X76185750Y-43355000D01*
X76027000Y-43513750D01*
X76027000Y-44273000D01*
X76047000Y-44273000D01*
X76047000Y-44373000D01*
X75753000Y-44373000D01*
X75753000Y-44273000D01*
X75773000Y-44273000D01*
X75773000Y-43513750D01*
X75614250Y-43355000D01*
X75273690Y-43355000D01*
X75040301Y-43451673D01*
X75010000Y-43481974D01*
X75010000Y-42285750D01*
X75055000Y-42285750D01*
X75055000Y-42626310D01*
X75151673Y-42859699D01*
X75330302Y-43038327D01*
X75563691Y-43135000D01*
X75814250Y-43135000D01*
X75973000Y-42976250D01*
X75973000Y-42127000D01*
X75213750Y-42127000D01*
X75055000Y-42285750D01*
X75010000Y-42285750D01*
X75010000Y-41373690D01*
X75055000Y-41373690D01*
X75055000Y-41714250D01*
X75213750Y-41873000D01*
X75973000Y-41873000D01*
X75973000Y-41023750D01*
X75814250Y-40865000D01*
X75563691Y-40865000D01*
X75330302Y-40961673D01*
X75151673Y-41140301D01*
X75055000Y-41373690D01*
X75010000Y-41373690D01*
X75010000Y-39710000D01*
X120990000Y-39710000D01*
X120990001Y-41530070D01*
X120990001Y-41530070D01*
G37*
X120990001Y-41530070D02*
X120976091Y-41600000D01*
X121031195Y-41877028D01*
X121188119Y-42111881D01*
X121422972Y-42268805D01*
X121630074Y-42310000D01*
X121630075Y-42310000D01*
X121700000Y-42323909D01*
X121769926Y-42310000D01*
X124990001Y-42310000D01*
X124990000Y-90690000D01*
X124669926Y-90690000D01*
X124600000Y-90676091D01*
X124530075Y-90690000D01*
X124530074Y-90690000D01*
X124322972Y-90731195D01*
X124088119Y-90888119D01*
X123931195Y-91122972D01*
X123876091Y-91400000D01*
X123890001Y-91469931D01*
X123890001Y-92365000D01*
X123685750Y-92365000D01*
X123527000Y-92523750D01*
X123527000Y-95873000D01*
X123547000Y-95873000D01*
X123547000Y-96127000D01*
X123527000Y-96127000D01*
X123527000Y-96147000D01*
X123273000Y-96147000D01*
X123273000Y-96127000D01*
X123253000Y-96127000D01*
X123253000Y-95873000D01*
X123273000Y-95873000D01*
X123273000Y-92523750D01*
X123114250Y-92365000D01*
X122664697Y-92365000D01*
X122542655Y-92070365D01*
X122279635Y-91807345D01*
X122038213Y-91707345D01*
X118827000Y-88496133D01*
X118827000Y-53735000D01*
X119185983Y-53735000D01*
X119529635Y-53592655D01*
X119792655Y-53329635D01*
X119935000Y-52985983D01*
X119935000Y-52614017D01*
X119932548Y-52608097D01*
X120007809Y-52557809D01*
X120148157Y-52347765D01*
X120197440Y-52100000D01*
X120197440Y-48950000D01*
X120148157Y-48702235D01*
X120007809Y-48492191D01*
X119797765Y-48351843D01*
X119550000Y-48302560D01*
X118550000Y-48302560D01*
X118545710Y-48303413D01*
X118502001Y-48237999D01*
X118432282Y-48191415D01*
X117580309Y-47339442D01*
X117608157Y-47297765D01*
X117657440Y-47050000D01*
X117657440Y-45760750D01*
X117915000Y-45760750D01*
X117915000Y-47176309D01*
X118011673Y-47409698D01*
X118190301Y-47588327D01*
X118423690Y-47685000D01*
X118764250Y-47685000D01*
X118923000Y-47526250D01*
X118923000Y-45602000D01*
X119177000Y-45602000D01*
X119177000Y-47526250D01*
X119335750Y-47685000D01*
X119676310Y-47685000D01*
X119909699Y-47588327D01*
X120088327Y-47409698D01*
X120185000Y-47176309D01*
X120185000Y-45760750D01*
X120026250Y-45602000D01*
X119177000Y-45602000D01*
X118923000Y-45602000D01*
X118073750Y-45602000D01*
X117915000Y-45760750D01*
X117657440Y-45760750D01*
X117657440Y-43900000D01*
X117632316Y-43773691D01*
X117915000Y-43773691D01*
X117915000Y-45189250D01*
X118073750Y-45348000D01*
X118923000Y-45348000D01*
X118923000Y-43423750D01*
X119177000Y-43423750D01*
X119177000Y-45348000D01*
X120026250Y-45348000D01*
X120185000Y-45189250D01*
X120185000Y-43773691D01*
X120088327Y-43540302D01*
X119909699Y-43361673D01*
X119676310Y-43265000D01*
X119335750Y-43265000D01*
X119177000Y-43423750D01*
X118923000Y-43423750D01*
X118764250Y-43265000D01*
X118423690Y-43265000D01*
X118190301Y-43361673D01*
X118011673Y-43540302D01*
X117915000Y-43773691D01*
X117632316Y-43773691D01*
X117608157Y-43652235D01*
X117467809Y-43442191D01*
X117305559Y-43333779D01*
X117289803Y-43310197D01*
X117248601Y-43282667D01*
X117200000Y-43273000D01*
X117112760Y-43273000D01*
X117010000Y-43252560D01*
X116010000Y-43252560D01*
X115907240Y-43273000D01*
X114572760Y-43273000D01*
X114470000Y-43252560D01*
X113470000Y-43252560D01*
X113367240Y-43273000D01*
X112032760Y-43273000D01*
X111930000Y-43252560D01*
X110930000Y-43252560D01*
X110827240Y-43273000D01*
X109492760Y-43273000D01*
X109390000Y-43252560D01*
X108390000Y-43252560D01*
X108287240Y-43273000D01*
X106952760Y-43273000D01*
X106850000Y-43252560D01*
X105850000Y-43252560D01*
X105747240Y-43273000D01*
X104412760Y-43273000D01*
X104310000Y-43252560D01*
X103310000Y-43252560D01*
X103207240Y-43273000D01*
X101872760Y-43273000D01*
X101770000Y-43252560D01*
X100770000Y-43252560D01*
X100667240Y-43273000D01*
X99332760Y-43273000D01*
X99230000Y-43252560D01*
X98230000Y-43252560D01*
X98127240Y-43273000D01*
X96792760Y-43273000D01*
X96690000Y-43252560D01*
X95690000Y-43252560D01*
X95587240Y-43273000D01*
X94252760Y-43273000D01*
X94150000Y-43252560D01*
X93150000Y-43252560D01*
X93047240Y-43273000D01*
X91712760Y-43273000D01*
X91610000Y-43252560D01*
X90610000Y-43252560D01*
X90507240Y-43273000D01*
X89172760Y-43273000D01*
X89070000Y-43252560D01*
X88070000Y-43252560D01*
X87967240Y-43273000D01*
X86632760Y-43273000D01*
X86530000Y-43252560D01*
X85530000Y-43252560D01*
X85427240Y-43273000D01*
X84092760Y-43273000D01*
X83990000Y-43252560D01*
X83527000Y-43252560D01*
X83527000Y-42100000D01*
X83517333Y-42051399D01*
X83489803Y-42010197D01*
X83448601Y-41982667D01*
X83400000Y-41973000D01*
X78757440Y-41973000D01*
X78757440Y-41500000D01*
X78708157Y-41252235D01*
X78567809Y-41042191D01*
X78357765Y-40901843D01*
X78110000Y-40852560D01*
X77290000Y-40852560D01*
X77042235Y-40901843D01*
X76902942Y-40994917D01*
X76869698Y-40961673D01*
X76636309Y-40865000D01*
X76385750Y-40865000D01*
X76227000Y-41023750D01*
X76227000Y-41873000D01*
X76247000Y-41873000D01*
X76247000Y-42127000D01*
X76227000Y-42127000D01*
X76227000Y-42976250D01*
X76373000Y-43122250D01*
X76373000Y-43355000D01*
X76185750Y-43355000D01*
X76027000Y-43513750D01*
X76027000Y-44273000D01*
X76047000Y-44273000D01*
X76047000Y-44373000D01*
X75753000Y-44373000D01*
X75753000Y-44273000D01*
X75773000Y-44273000D01*
X75773000Y-43513750D01*
X75614250Y-43355000D01*
X75273690Y-43355000D01*
X75040301Y-43451673D01*
X75010000Y-43481974D01*
X75010000Y-42285750D01*
X75055000Y-42285750D01*
X75055000Y-42626310D01*
X75151673Y-42859699D01*
X75330302Y-43038327D01*
X75563691Y-43135000D01*
X75814250Y-43135000D01*
X75973000Y-42976250D01*
X75973000Y-42127000D01*
X75213750Y-42127000D01*
X75055000Y-42285750D01*
X75010000Y-42285750D01*
X75010000Y-41373690D01*
X75055000Y-41373690D01*
X75055000Y-41714250D01*
X75213750Y-41873000D01*
X75973000Y-41873000D01*
X75973000Y-41023750D01*
X75814250Y-40865000D01*
X75563691Y-40865000D01*
X75330302Y-40961673D01*
X75151673Y-41140301D01*
X75055000Y-41373690D01*
X75010000Y-41373690D01*
X75010000Y-39710000D01*
X120990000Y-39710000D01*
X120990001Y-41530070D01*
G04 #@! TD*
M02*
