G04 #@! TF.GenerationSoftware,KiCad,Pcbnew,5.1.5-52549c5~84~ubuntu19.10.1*
G04 #@! TF.CreationDate,2020-02-14T19:19:21+02:00*
G04 #@! TF.ProjectId,GB-BRK-TR-A,47422d42-524b-42d5-9452-2d412e6b6963,v1.0*
G04 #@! TF.SameCoordinates,Original*
G04 #@! TF.FileFunction,Legend,Top*
G04 #@! TF.FilePolarity,Positive*
%FSLAX46Y46*%
G04 Gerber Fmt 4.6, Leading zero omitted, Abs format (unit mm)*
G04 Created by KiCad (PCBNEW 5.1.5-52549c5~84~ubuntu19.10.1) date 2020-02-14 19:19:21*
%MOMM*%
%LPD*%
G04 APERTURE LIST*
%ADD10C,0.150000*%
%ADD11C,0.300000*%
%ADD12C,0.200000*%
%ADD13C,0.120000*%
G04 APERTURE END LIST*
D10*
X53000000Y-85000000D02*
G75*
G02X51000000Y-83000000I0J2000000D01*
G01*
X75000000Y-83000000D02*
G75*
G02X73000000Y-85000000I-2000000J0D01*
G01*
X73000000Y-50000000D02*
G75*
G02X75000000Y-52000000I0J-2000000D01*
G01*
X51000000Y-52000000D02*
G75*
G02X53000000Y-50000000I2000000J0D01*
G01*
D11*
X53214285Y-75542857D02*
X53214285Y-74342857D01*
X53728571Y-75542857D02*
X53728571Y-74914285D01*
X53671428Y-74800000D01*
X53557142Y-74742857D01*
X53385714Y-74742857D01*
X53271428Y-74800000D01*
X53214285Y-74857142D01*
X54128571Y-74742857D02*
X54585714Y-74742857D01*
X54300000Y-74342857D02*
X54300000Y-75371428D01*
X54357142Y-75485714D01*
X54471428Y-75542857D01*
X54585714Y-75542857D01*
X54814285Y-74742857D02*
X55271428Y-74742857D01*
X54985714Y-74342857D02*
X54985714Y-75371428D01*
X55042857Y-75485714D01*
X55157142Y-75542857D01*
X55271428Y-75542857D01*
X55671428Y-74742857D02*
X55671428Y-75942857D01*
X55671428Y-74800000D02*
X55785714Y-74742857D01*
X56014285Y-74742857D01*
X56128571Y-74800000D01*
X56185714Y-74857142D01*
X56242857Y-74971428D01*
X56242857Y-75314285D01*
X56185714Y-75428571D01*
X56128571Y-75485714D01*
X56014285Y-75542857D01*
X55785714Y-75542857D01*
X55671428Y-75485714D01*
X56700000Y-75485714D02*
X56814285Y-75542857D01*
X57042857Y-75542857D01*
X57157142Y-75485714D01*
X57214285Y-75371428D01*
X57214285Y-75314285D01*
X57157142Y-75200000D01*
X57042857Y-75142857D01*
X56871428Y-75142857D01*
X56757142Y-75085714D01*
X56700000Y-74971428D01*
X56700000Y-74914285D01*
X56757142Y-74800000D01*
X56871428Y-74742857D01*
X57042857Y-74742857D01*
X57157142Y-74800000D01*
X57728571Y-75428571D02*
X57785714Y-75485714D01*
X57728571Y-75542857D01*
X57671428Y-75485714D01*
X57728571Y-75428571D01*
X57728571Y-75542857D01*
X57728571Y-74800000D02*
X57785714Y-74857142D01*
X57728571Y-74914285D01*
X57671428Y-74857142D01*
X57728571Y-74800000D01*
X57728571Y-74914285D01*
X59157142Y-74285714D02*
X58128571Y-75828571D01*
X60414285Y-74285714D02*
X59385714Y-75828571D01*
X61328571Y-74742857D02*
X61328571Y-75714285D01*
X61271428Y-75828571D01*
X61214285Y-75885714D01*
X61100000Y-75942857D01*
X60928571Y-75942857D01*
X60814285Y-75885714D01*
X61328571Y-75485714D02*
X61214285Y-75542857D01*
X60985714Y-75542857D01*
X60871428Y-75485714D01*
X60814285Y-75428571D01*
X60757142Y-75314285D01*
X60757142Y-74971428D01*
X60814285Y-74857142D01*
X60871428Y-74800000D01*
X60985714Y-74742857D01*
X61214285Y-74742857D01*
X61328571Y-74800000D01*
X62357142Y-75485714D02*
X62242857Y-75542857D01*
X62014285Y-75542857D01*
X61900000Y-75485714D01*
X61842857Y-75371428D01*
X61842857Y-74914285D01*
X61900000Y-74800000D01*
X62014285Y-74742857D01*
X62242857Y-74742857D01*
X62357142Y-74800000D01*
X62414285Y-74914285D01*
X62414285Y-75028571D01*
X61842857Y-75142857D01*
X62928571Y-75542857D02*
X62928571Y-74342857D01*
X63042857Y-75085714D02*
X63385714Y-75542857D01*
X63385714Y-74742857D02*
X62928571Y-75200000D01*
X63900000Y-75542857D02*
X63900000Y-74342857D01*
X64014285Y-75085714D02*
X64357142Y-75542857D01*
X64357142Y-74742857D02*
X63900000Y-75200000D01*
X64871428Y-75542857D02*
X64871428Y-74742857D01*
X64871428Y-74342857D02*
X64814285Y-74400000D01*
X64871428Y-74457142D01*
X64928571Y-74400000D01*
X64871428Y-74342857D01*
X64871428Y-74457142D01*
X65614285Y-75542857D02*
X65500000Y-75485714D01*
X65442857Y-75428571D01*
X65385714Y-75314285D01*
X65385714Y-74971428D01*
X65442857Y-74857142D01*
X65500000Y-74800000D01*
X65614285Y-74742857D01*
X65785714Y-74742857D01*
X65900000Y-74800000D01*
X65957142Y-74857142D01*
X66014285Y-74971428D01*
X66014285Y-75314285D01*
X65957142Y-75428571D01*
X65900000Y-75485714D01*
X65785714Y-75542857D01*
X65614285Y-75542857D01*
X66528571Y-75428571D02*
X66585714Y-75485714D01*
X66528571Y-75542857D01*
X66471428Y-75485714D01*
X66528571Y-75428571D01*
X66528571Y-75542857D01*
X66928571Y-74742857D02*
X67385714Y-74742857D01*
X67099999Y-75542857D02*
X67099999Y-74514285D01*
X67157142Y-74400000D01*
X67271428Y-74342857D01*
X67385714Y-74342857D01*
X67785714Y-75542857D02*
X67785714Y-74742857D01*
X67785714Y-74342857D02*
X67728571Y-74400000D01*
X67785714Y-74457142D01*
X67842857Y-74400000D01*
X67785714Y-74342857D01*
X67785714Y-74457142D01*
X54171428Y-59600000D02*
X54057142Y-59542857D01*
X53885714Y-59542857D01*
X53714285Y-59600000D01*
X53600000Y-59714285D01*
X53542857Y-59828571D01*
X53485714Y-60057142D01*
X53485714Y-60228571D01*
X53542857Y-60457142D01*
X53600000Y-60571428D01*
X53714285Y-60685714D01*
X53885714Y-60742857D01*
X54000000Y-60742857D01*
X54171428Y-60685714D01*
X54228571Y-60628571D01*
X54228571Y-60228571D01*
X54000000Y-60228571D01*
X55142857Y-60114285D02*
X55314285Y-60171428D01*
X55371428Y-60228571D01*
X55428571Y-60342857D01*
X55428571Y-60514285D01*
X55371428Y-60628571D01*
X55314285Y-60685714D01*
X55200000Y-60742857D01*
X54742857Y-60742857D01*
X54742857Y-59542857D01*
X55142857Y-59542857D01*
X55257142Y-59600000D01*
X55314285Y-59657142D01*
X55371428Y-59771428D01*
X55371428Y-59885714D01*
X55314285Y-60000000D01*
X55257142Y-60057142D01*
X55142857Y-60114285D01*
X54742857Y-60114285D01*
X55942857Y-60285714D02*
X56857142Y-60285714D01*
X57828571Y-60114285D02*
X58000000Y-60171428D01*
X58057142Y-60228571D01*
X58114285Y-60342857D01*
X58114285Y-60514285D01*
X58057142Y-60628571D01*
X58000000Y-60685714D01*
X57885714Y-60742857D01*
X57428571Y-60742857D01*
X57428571Y-59542857D01*
X57828571Y-59542857D01*
X57942857Y-59600000D01*
X58000000Y-59657142D01*
X58057142Y-59771428D01*
X58057142Y-59885714D01*
X58000000Y-60000000D01*
X57942857Y-60057142D01*
X57828571Y-60114285D01*
X57428571Y-60114285D01*
X59314285Y-60742857D02*
X58914285Y-60171428D01*
X58628571Y-60742857D02*
X58628571Y-59542857D01*
X59085714Y-59542857D01*
X59200000Y-59600000D01*
X59257142Y-59657142D01*
X59314285Y-59771428D01*
X59314285Y-59942857D01*
X59257142Y-60057142D01*
X59200000Y-60114285D01*
X59085714Y-60171428D01*
X58628571Y-60171428D01*
X59828571Y-60742857D02*
X59828571Y-59542857D01*
X60514285Y-60742857D02*
X60000000Y-60057142D01*
X60514285Y-59542857D02*
X59828571Y-60228571D01*
X61028571Y-60285714D02*
X61942857Y-60285714D01*
X62342857Y-59542857D02*
X63028571Y-59542857D01*
X62685714Y-60742857D02*
X62685714Y-59542857D01*
X64114285Y-60742857D02*
X63714285Y-60171428D01*
X63428571Y-60742857D02*
X63428571Y-59542857D01*
X63885714Y-59542857D01*
X64000000Y-59600000D01*
X64057142Y-59657142D01*
X64114285Y-59771428D01*
X64114285Y-59942857D01*
X64057142Y-60057142D01*
X64000000Y-60114285D01*
X63885714Y-60171428D01*
X63428571Y-60171428D01*
X64628571Y-60285714D02*
X65542857Y-60285714D01*
X66057142Y-60400000D02*
X66628571Y-60400000D01*
X65942857Y-60742857D02*
X66342857Y-59542857D01*
X66742857Y-60742857D01*
X67942857Y-59942857D02*
X68228571Y-60742857D01*
X68514285Y-59942857D01*
X69600000Y-60742857D02*
X68914285Y-60742857D01*
X69257142Y-60742857D02*
X69257142Y-59542857D01*
X69142857Y-59714285D01*
X69028571Y-59828571D01*
X68914285Y-59885714D01*
X70114285Y-60628571D02*
X70171428Y-60685714D01*
X70114285Y-60742857D01*
X70057142Y-60685714D01*
X70114285Y-60628571D01*
X70114285Y-60742857D01*
X70914285Y-59542857D02*
X71028571Y-59542857D01*
X71142857Y-59600000D01*
X71200000Y-59657142D01*
X71257142Y-59771428D01*
X71314285Y-60000000D01*
X71314285Y-60285714D01*
X71257142Y-60514285D01*
X71200000Y-60628571D01*
X71142857Y-60685714D01*
X71028571Y-60742857D01*
X70914285Y-60742857D01*
X70800000Y-60685714D01*
X70742857Y-60628571D01*
X70685714Y-60514285D01*
X70628571Y-60285714D01*
X70628571Y-60000000D01*
X70685714Y-59771428D01*
X70742857Y-59657142D01*
X70800000Y-59600000D01*
X70914285Y-59542857D01*
D12*
X68400000Y-73800000D02*
X69400000Y-73800000D01*
X68400000Y-70000000D02*
X68400000Y-73800000D01*
X69000000Y-70000000D02*
X68400000Y-70000000D01*
X69000000Y-68800000D02*
X69000000Y-71200000D01*
X69000000Y-71200000D02*
X69400000Y-71200000D01*
X69000000Y-68800000D02*
X69400000Y-68800000D01*
X69000000Y-63600000D02*
X69000000Y-66100000D01*
X69000000Y-66100000D02*
X69400000Y-66100000D01*
X69000000Y-63600000D02*
X69400000Y-63600000D01*
X57000000Y-71300000D02*
X57400000Y-71300000D01*
X57400000Y-66200000D02*
X57400000Y-71300000D01*
X57400000Y-66200000D02*
X57000000Y-66200000D01*
X56700000Y-68800000D02*
X56300000Y-68800000D01*
X56700000Y-63700000D02*
X56700000Y-68800000D01*
X56300000Y-63700000D02*
X56700000Y-63700000D01*
D11*
X70105000Y-64378571D02*
X70390714Y-64378571D01*
X70533571Y-64307142D01*
X70605000Y-64235714D01*
X70747857Y-64021428D01*
X70819285Y-63735714D01*
X70819285Y-63164285D01*
X70747857Y-63021428D01*
X70676428Y-62950000D01*
X70533571Y-62878571D01*
X70247857Y-62878571D01*
X70105000Y-62950000D01*
X70033571Y-63021428D01*
X69962142Y-63164285D01*
X69962142Y-63521428D01*
X70033571Y-63664285D01*
X70105000Y-63735714D01*
X70247857Y-63807142D01*
X70533571Y-63807142D01*
X70676428Y-63735714D01*
X70747857Y-63664285D01*
X70819285Y-63521428D01*
X70247857Y-66021428D02*
X70105000Y-65950000D01*
X70033571Y-65878571D01*
X69962142Y-65735714D01*
X69962142Y-65664285D01*
X70033571Y-65521428D01*
X70105000Y-65450000D01*
X70247857Y-65378571D01*
X70533571Y-65378571D01*
X70676428Y-65450000D01*
X70747857Y-65521428D01*
X70819285Y-65664285D01*
X70819285Y-65735714D01*
X70747857Y-65878571D01*
X70676428Y-65950000D01*
X70533571Y-66021428D01*
X70247857Y-66021428D01*
X70105000Y-66092857D01*
X70033571Y-66164285D01*
X69962142Y-66307142D01*
X69962142Y-66592857D01*
X70033571Y-66735714D01*
X70105000Y-66807142D01*
X70247857Y-66878571D01*
X70533571Y-66878571D01*
X70676428Y-66807142D01*
X70747857Y-66735714D01*
X70819285Y-66592857D01*
X70819285Y-66307142D01*
X70747857Y-66164285D01*
X70676428Y-66092857D01*
X70533571Y-66021428D01*
X69890714Y-67978571D02*
X70890714Y-67978571D01*
X70247857Y-69478571D01*
X70676428Y-70478571D02*
X70390714Y-70478571D01*
X70247857Y-70550000D01*
X70176428Y-70621428D01*
X70033571Y-70835714D01*
X69962142Y-71121428D01*
X69962142Y-71692857D01*
X70033571Y-71835714D01*
X70105000Y-71907142D01*
X70247857Y-71978571D01*
X70533571Y-71978571D01*
X70676428Y-71907142D01*
X70747857Y-71835714D01*
X70819285Y-71692857D01*
X70819285Y-71335714D01*
X70747857Y-71192857D01*
X70676428Y-71121428D01*
X70533571Y-71050000D01*
X70247857Y-71050000D01*
X70105000Y-71121428D01*
X70033571Y-71192857D01*
X69962142Y-71335714D01*
X70747857Y-72978571D02*
X70033571Y-72978571D01*
X69962142Y-73692857D01*
X70033571Y-73621428D01*
X70176428Y-73550000D01*
X70533571Y-73550000D01*
X70676428Y-73621428D01*
X70747857Y-73692857D01*
X70819285Y-73835714D01*
X70819285Y-74192857D01*
X70747857Y-74335714D01*
X70676428Y-74407142D01*
X70533571Y-74478571D01*
X70176428Y-74478571D01*
X70033571Y-74407142D01*
X69962142Y-74335714D01*
X55795000Y-70978571D02*
X55795000Y-71978571D01*
X55437857Y-70407142D02*
X55080714Y-71478571D01*
X56009285Y-71478571D01*
X55009285Y-67978571D02*
X55937857Y-67978571D01*
X55437857Y-68550000D01*
X55652142Y-68550000D01*
X55795000Y-68621428D01*
X55866428Y-68692857D01*
X55937857Y-68835714D01*
X55937857Y-69192857D01*
X55866428Y-69335714D01*
X55795000Y-69407142D01*
X55652142Y-69478571D01*
X55223571Y-69478571D01*
X55080714Y-69407142D01*
X55009285Y-69335714D01*
X55080714Y-65521428D02*
X55152142Y-65450000D01*
X55295000Y-65378571D01*
X55652142Y-65378571D01*
X55795000Y-65450000D01*
X55866428Y-65521428D01*
X55937857Y-65664285D01*
X55937857Y-65807142D01*
X55866428Y-66021428D01*
X55009285Y-66878571D01*
X55937857Y-66878571D01*
X55937857Y-64378571D02*
X55080714Y-64378571D01*
X55509285Y-64378571D02*
X55509285Y-62878571D01*
X55366428Y-63092857D01*
X55223571Y-63235714D01*
X55080714Y-63307142D01*
D10*
X51000000Y-83000000D02*
X51000000Y-52000000D01*
X73000000Y-85000000D02*
X53000000Y-85000000D01*
X75000000Y-52000000D02*
X75000000Y-83000000D01*
X53000000Y-50000000D02*
X73000000Y-50000000D01*
D13*
X51470000Y-62360000D02*
X52800000Y-62360000D01*
X51470000Y-63690000D02*
X51470000Y-62360000D01*
X51470000Y-64960000D02*
X54130000Y-64960000D01*
X54130000Y-64960000D02*
X54130000Y-72640000D01*
X51470000Y-64960000D02*
X51470000Y-72640000D01*
X51470000Y-72640000D02*
X54130000Y-72640000D01*
X74450000Y-75180000D02*
X73120000Y-75180000D01*
X74450000Y-73850000D02*
X74450000Y-75180000D01*
X74450000Y-72580000D02*
X71790000Y-72580000D01*
X71790000Y-72580000D02*
X71790000Y-62360000D01*
X74450000Y-72580000D02*
X74450000Y-62360000D01*
X74450000Y-62360000D02*
X71790000Y-62360000D01*
X59900000Y-62800000D02*
G75*
G03X59900000Y-62800000I-200000J0D01*
G01*
X68300000Y-67500000D02*
G75*
G03X68300000Y-67500000I-5300000J0D01*
G01*
M02*
