G04 #@! TF.GenerationSoftware,KiCad,Pcbnew,5.1.5-52549c5~84~ubuntu19.10.1*
G04 #@! TF.CreationDate,2020-02-14T19:19:21+02:00*
G04 #@! TF.ProjectId,GB-BRK-TR-A,47422d42-524b-42d5-9452-2d412e6b6963,v1.0*
G04 #@! TF.SameCoordinates,Original*
G04 #@! TF.FileFunction,Copper,L1,Top*
G04 #@! TF.FilePolarity,Positive*
%FSLAX46Y46*%
G04 Gerber Fmt 4.6, Leading zero omitted, Abs format (unit mm)*
G04 Created by KiCad (PCBNEW 5.1.5-52549c5~84~ubuntu19.10.1) date 2020-02-14 19:19:21*
%MOMM*%
%LPD*%
G04 APERTURE LIST*
%ADD10C,0.150000*%
%ADD11O,1.700000X1.700000*%
%ADD12R,1.700000X1.700000*%
%ADD13C,1.800000*%
%ADD14C,0.400000*%
G04 APERTURE END LIST*
D10*
X53000000Y-85000000D02*
G75*
G02X51000000Y-83000000I0J2000000D01*
G01*
X75000000Y-83000000D02*
G75*
G02X73000000Y-85000000I-2000000J0D01*
G01*
X73000000Y-50000000D02*
G75*
G02X75000000Y-52000000I0J-2000000D01*
G01*
X51000000Y-52000000D02*
G75*
G02X53000000Y-50000000I2000000J0D01*
G01*
X51000000Y-83000000D02*
X51000000Y-52000000D01*
X73000000Y-85000000D02*
X53000000Y-85000000D01*
X75000000Y-52000000D02*
X75000000Y-83000000D01*
X53000000Y-50000000D02*
X73000000Y-50000000D01*
D11*
X52800000Y-71310000D03*
X52800000Y-68770000D03*
X52800000Y-66230000D03*
D12*
X52800000Y-63690000D03*
D11*
X73120000Y-63690000D03*
X73120000Y-66230000D03*
X73120000Y-68770000D03*
X73120000Y-71310000D03*
D12*
X73120000Y-73850000D03*
D13*
X60640000Y-64260000D03*
X59200000Y-66260000D03*
X59200000Y-68740000D03*
X60640000Y-70740000D03*
X63000000Y-71500000D03*
X65360000Y-70740000D03*
X66800000Y-66260000D03*
X66800000Y-68740000D03*
X65360000Y-64260000D03*
D14*
X72550000Y-64260000D02*
X73120000Y-63690000D01*
X65360000Y-64260000D02*
X72550000Y-64260000D01*
X73090000Y-68740000D02*
X73120000Y-68770000D01*
X66800000Y-68740000D02*
X73090000Y-68740000D01*
X73090000Y-66260000D02*
X73120000Y-66230000D01*
X66800000Y-66260000D02*
X73090000Y-66260000D01*
X72550000Y-70740000D02*
X73120000Y-71310000D01*
X65360000Y-70740000D02*
X72550000Y-70740000D01*
X71870000Y-73850000D02*
X73120000Y-73850000D01*
X63000000Y-71500000D02*
X65350000Y-73850000D01*
X65350000Y-73850000D02*
X71870000Y-73850000D01*
X60070000Y-71310000D02*
X60640000Y-70740000D01*
X52800000Y-71310000D02*
X60070000Y-71310000D01*
X59170000Y-68770000D02*
X59200000Y-68740000D01*
X52800000Y-68770000D02*
X59170000Y-68770000D01*
X59170000Y-66230000D02*
X59200000Y-66260000D01*
X52800000Y-66230000D02*
X59170000Y-66230000D01*
X60070000Y-63690000D02*
X60640000Y-64260000D01*
X52800000Y-63690000D02*
X60070000Y-63690000D01*
M02*
