M48
; DRILL file {KiCad 5.1.5-52549c5~84~ubuntu19.10.1} date pe 14. helmikuuta 2020 21.32.02
; FORMAT={-:-/ absolute / inch / decimal}
; #@! TF.CreationDate,2020-02-14T21:32:02+02:00
; #@! TF.GenerationSoftware,Kicad,Pcbnew,5.1.5-52549c5~84~ubuntu19.10.1
; #@! TF.FileFunction,Plated,1,2,PTH
FMAT,2
INCH
T1C0.0118
T2C0.0236
%
G90
G05
T1
X2.9685Y-1.9882
X2.9685Y-2.0512
X3.0118Y-2.4252
X3.0118Y-2.5236
X3.0118Y-2.5866
X3.0591Y-1.8898
X3.063Y-2.2913
X3.0827Y-1.8504
X3.0945Y-1.9488
X3.1299Y-1.9134
X3.1791Y-2.9665
X3.1811Y-1.9016
X3.1949Y-2.4626
X3.2205Y-2.5512
X3.2362Y-2.5039
X3.2717Y-2.1811
X3.2756Y-1.7244
X3.2795Y-1.8386
X3.2835Y-2.3898
X3.2835Y-2.5827
X3.2874Y-3.5551
X3.2913Y-2.6417
X3.315Y-2.4291
X3.3268Y-1.811
X3.3346Y-3.311
X3.3386Y-2.2402
X3.3386Y-3.126
X3.3425Y-1.937
X3.3425Y-2.2047
X3.3622Y-2.4409
X3.3661Y-3.0512
X3.374Y-2.9606
X3.378Y-1.7874
X3.378Y-2.878
X3.3858Y-2.7283
X3.3858Y-2.7992
X3.3858Y-3.1142
X3.3937Y-2.4843
X3.3976Y-2.6457
X3.4016Y-1.6772
X3.4331Y-1.7913
X3.437Y-1.5866
X3.4449Y-1.6299
X3.4488Y-2.4843
X3.5039Y-2.4134
X3.5236Y-2.6063
X3.5394Y-1.6496
X3.5551Y-3.0512
X3.5669Y-2.4764
X3.5748Y-3.4961
X3.5787Y-3.1102
X3.5827Y-2.5433
X3.5984Y-3.3622
X3.6063Y-2.9567
X3.6102Y-2.9055
X3.6142Y-3.0118
X3.622Y-2.8504
X3.6378Y-1.6378
X3.6496Y-2.811
X3.6969Y-3.4331
X3.7047Y-2.7677
X3.7047Y-3.4961
X3.7047Y-3.5591
X3.7362Y-3.0591
X3.7677Y-2.626
X3.7717Y-3.1024
X3.7913Y-3.4488
X3.8189Y-2.7913
X3.8189Y-3.5591
X3.8268Y-2.5551
X3.8307Y-1.7205
X3.8346Y-2.622
X3.8346Y-3.4882
X3.8465Y-3.6102
X3.874Y-3.1614
X3.8858Y-2.5472
X3.9134Y-3.5906
X3.9331Y-2.5315
X3.937Y-1.6693
X3.937Y-1.7795
X3.9449Y-3.1535
X3.9528Y-3.5551
X3.9724Y-2.5
X3.9921Y-3.5079
X4.0039Y-2.4606
X4.0276Y-3.0315
X4.0354Y-2.4252
X4.0354Y-2.9094
X4.0866Y-2.3898
X4.0866Y-3.4567
X4.0906Y-3.1496
X4.1063Y-3.6181
X4.1102Y-2.7835
X4.1299Y-2.8268
X4.1378Y-1.6693
X4.1457Y-2.748
X4.1457Y-3.1457
X4.1575Y-2.8819
X4.1575Y-3.0315
X4.1575Y-3.0945
X4.1614Y-3.3386
X4.1811Y-3.2795
X4.189Y-2.7126
X4.189Y-3.4843
X4.2205Y-2.3189
X4.2205Y-3.3425
X4.2283Y-1.7126
X4.2283Y-2.6772
X4.2362Y-1.878
X4.2362Y-1.9803
X4.2362Y-1.7913
X4.2402Y-2.1181
X4.2402Y-3.248
X4.252Y-3.3858
X4.2756Y-3.5866
X4.2992Y-2.6772
X4.2992Y-3.1969
X4.3012Y-3.1358
X4.3031Y-2.622
X4.3031Y-3.0394
X4.3071Y-3.3622
X4.3346Y-2.9961
X4.3386Y-1.9803
X4.3386Y-2.126
X4.3386Y-2.1732
X4.3504Y-2.9291
X4.3504Y-3.4055
X4.3583Y-2.622
X4.378Y-2.4528
X4.3898Y-2.9685
X4.3976Y-1.6181
X4.3976Y-2.8898
X4.4016Y-2.2717
X4.4252Y-2.8031
X4.4291Y-2.3898
X4.4449Y-2.5906
X4.4488Y-2.937
X4.4488Y-3.1929
X4.4488Y-3.3661
X4.4567Y-2.185
X4.4606Y-2.0709
X4.4646Y-2.2717
X4.4764Y-1.7677
X4.4764Y-3.2402
X4.4803Y-2.7638
X4.4803Y-2.8543
X4.4882Y-2.4409
X4.4921Y-2.3858
X4.5079Y-2.9724
X4.5118Y-2.1614
X4.5236Y-3.5
X4.5315Y-2.8189
X4.5354Y-2.5866
X4.5433Y-2.9252
X4.5453Y-1.8366
X4.5472Y-1.9803
X4.563Y-3.3622
X4.5709Y-2.4213
X4.5827Y-2.874
X4.5984Y-2.1772
X4.622Y-2.063
X4.622Y-2.8031
X4.626Y-1.8307
X4.6535Y-1.7874
X4.6535Y-2.0157
X4.6732Y-3.252
X4.6772Y-3.374
X4.6772Y-3.4843
X4.6772Y-3.5472
X4.6811Y-2.3858
X4.6811Y-2.5118
X4.685Y-1.8228
X4.685Y-3.1732
X4.7047Y-3.1339
X4.7165Y-3.2402
X4.7362Y-1.6378
X4.748Y-2.7756
X4.752Y-2.6929
X4.752Y-3.1457
X4.7559Y-1.7402
X4.7638Y-2.189
X4.7717Y-3.0157
X4.7795Y-2.4291
X4.7795Y-1.6811
X4.7795Y-3.0669
X4.7795Y-3.2402
X4.7795Y-3.5709
X4.7835Y-2.2402
X4.7835Y-2.5433
X4.7953Y-2.3543
X4.7992Y-3.6299
X4.811Y-1.8228
X4.8228Y-2.937
X4.8307Y-1.748
X4.8307Y-2.6024
X4.8346Y-2.4528
X4.8465Y-2.1772
X4.8898Y-2.5472
X4.9055Y-2.311
X4.9055Y-3.2008
T2
X3.0197Y-3.1181
X3.0984Y-3.0945
X3.189Y-3.4764
X4.3386Y-1.7244
X4.8937Y-3.4134
X4.8937Y-3.4724
X4.8937Y-3.5315
T0
M30
