G04 #@! TF.GenerationSoftware,KiCad,Pcbnew,5.1.5-52549c5~84~ubuntu19.10.1*
G04 #@! TF.CreationDate,2020-02-14T21:32:01+02:00*
G04 #@! TF.ProjectId,GB-MBCTEST,47422d4d-4243-4544-9553-542e6b696361,v1.1*
G04 #@! TF.SameCoordinates,Original*
G04 #@! TF.FileFunction,Legend,Top*
G04 #@! TF.FilePolarity,Positive*
%FSLAX46Y46*%
G04 Gerber Fmt 4.6, Leading zero omitted, Abs format (unit mm)*
G04 Created by KiCad (PCBNEW 5.1.5-52549c5~84~ubuntu19.10.1) date 2020-02-14 21:32:01*
%MOMM*%
%LPD*%
G04 APERTURE LIST*
%ADD10C,0.200000*%
%ADD11C,0.150000*%
%ADD12C,0.120000*%
%ADD13C,0.100000*%
G04 APERTURE END LIST*
D10*
X84292857Y-40907142D02*
X83992857Y-40478571D01*
X83778571Y-40907142D02*
X83778571Y-40007142D01*
X84121428Y-40007142D01*
X84207142Y-40050000D01*
X84250000Y-40092857D01*
X84292857Y-40178571D01*
X84292857Y-40307142D01*
X84250000Y-40392857D01*
X84207142Y-40435714D01*
X84121428Y-40478571D01*
X83778571Y-40478571D01*
X84850000Y-40007142D02*
X85021428Y-40007142D01*
X85107142Y-40050000D01*
X85192857Y-40135714D01*
X85235714Y-40307142D01*
X85235714Y-40607142D01*
X85192857Y-40778571D01*
X85107142Y-40864285D01*
X85021428Y-40907142D01*
X84850000Y-40907142D01*
X84764285Y-40864285D01*
X84678571Y-40778571D01*
X84635714Y-40607142D01*
X84635714Y-40307142D01*
X84678571Y-40135714D01*
X84764285Y-40050000D01*
X84850000Y-40007142D01*
X85621428Y-40907142D02*
X85621428Y-40007142D01*
X85921428Y-40650000D01*
X86221428Y-40007142D01*
X86221428Y-40907142D01*
X80309523Y-40952380D02*
X79976190Y-40476190D01*
X79738095Y-40952380D02*
X79738095Y-39952380D01*
X80119047Y-39952380D01*
X80214285Y-40000000D01*
X80261904Y-40047619D01*
X80309523Y-40142857D01*
X80309523Y-40285714D01*
X80261904Y-40380952D01*
X80214285Y-40428571D01*
X80119047Y-40476190D01*
X79738095Y-40476190D01*
X80690476Y-40666666D02*
X81166666Y-40666666D01*
X80595238Y-40952380D02*
X80928571Y-39952380D01*
X81261904Y-40952380D01*
X81595238Y-40952380D02*
X81595238Y-39952380D01*
X81928571Y-40666666D01*
X82261904Y-39952380D01*
X82261904Y-40952380D01*
X75666666Y-40952380D02*
X75666666Y-39952380D01*
X76047619Y-39952380D01*
X76142857Y-40000000D01*
X76190476Y-40047619D01*
X76238095Y-40142857D01*
X76238095Y-40285714D01*
X76190476Y-40380952D01*
X76142857Y-40428571D01*
X76047619Y-40476190D01*
X75666666Y-40476190D01*
X76571428Y-39952380D02*
X76809523Y-40952380D01*
X77000000Y-40238095D01*
X77190476Y-40952380D01*
X77428571Y-39952380D01*
X78380952Y-40952380D02*
X78047619Y-40476190D01*
X77809523Y-40952380D02*
X77809523Y-39952380D01*
X78190476Y-39952380D01*
X78285714Y-40000000D01*
X78333333Y-40047619D01*
X78380952Y-40142857D01*
X78380952Y-40285714D01*
X78333333Y-40380952D01*
X78285714Y-40428571D01*
X78190476Y-40476190D01*
X77809523Y-40476190D01*
X111000000Y-43808095D02*
X110952380Y-43903333D01*
X110952380Y-44046190D01*
X111000000Y-44189047D01*
X111095238Y-44284285D01*
X111190476Y-44331904D01*
X111380952Y-44379523D01*
X111523809Y-44379523D01*
X111714285Y-44331904D01*
X111809523Y-44284285D01*
X111904761Y-44189047D01*
X111952380Y-44046190D01*
X111952380Y-43950952D01*
X111904761Y-43808095D01*
X111857142Y-43760476D01*
X111523809Y-43760476D01*
X111523809Y-43950952D01*
X111952380Y-43331904D02*
X110952380Y-43331904D01*
X111952380Y-42760476D01*
X110952380Y-42760476D01*
X111952380Y-42284285D02*
X110952380Y-42284285D01*
X110952380Y-42046190D01*
X111000000Y-41903333D01*
X111095238Y-41808095D01*
X111190476Y-41760476D01*
X111380952Y-41712857D01*
X111523809Y-41712857D01*
X111714285Y-41760476D01*
X111809523Y-41808095D01*
X111904761Y-41903333D01*
X111952380Y-42046190D01*
X111952380Y-42284285D01*
X106471428Y-44331904D02*
X106471428Y-43570000D01*
X106852380Y-43950952D02*
X106090476Y-43950952D01*
X105852380Y-43189047D02*
X105852380Y-42570000D01*
X106233333Y-42903333D01*
X106233333Y-42760476D01*
X106280952Y-42665238D01*
X106328571Y-42617619D01*
X106423809Y-42570000D01*
X106661904Y-42570000D01*
X106757142Y-42617619D01*
X106804761Y-42665238D01*
X106852380Y-42760476D01*
X106852380Y-43046190D01*
X106804761Y-43141428D01*
X106757142Y-43189047D01*
X105852380Y-42284285D02*
X106852380Y-41950952D01*
X105852380Y-41617619D01*
X105852380Y-41379523D02*
X105852380Y-40760476D01*
X106233333Y-41093809D01*
X106233333Y-40950952D01*
X106280952Y-40855714D01*
X106328571Y-40808095D01*
X106423809Y-40760476D01*
X106661904Y-40760476D01*
X106757142Y-40808095D01*
X106804761Y-40855714D01*
X106852380Y-40950952D01*
X106852380Y-41236666D01*
X106804761Y-41331904D01*
X106757142Y-41379523D01*
X101371428Y-44331904D02*
X101371428Y-43570000D01*
X101752380Y-43950952D02*
X100990476Y-43950952D01*
X100752380Y-43189047D02*
X100752380Y-42570000D01*
X101133333Y-42903333D01*
X101133333Y-42760476D01*
X101180952Y-42665238D01*
X101228571Y-42617619D01*
X101323809Y-42570000D01*
X101561904Y-42570000D01*
X101657142Y-42617619D01*
X101704761Y-42665238D01*
X101752380Y-42760476D01*
X101752380Y-43046190D01*
X101704761Y-43141428D01*
X101657142Y-43189047D01*
X100752380Y-42284285D02*
X101752380Y-41950952D01*
X100752380Y-41617619D01*
X100752380Y-41379523D02*
X100752380Y-40760476D01*
X101133333Y-41093809D01*
X101133333Y-40950952D01*
X101180952Y-40855714D01*
X101228571Y-40808095D01*
X101323809Y-40760476D01*
X101561904Y-40760476D01*
X101657142Y-40808095D01*
X101704761Y-40855714D01*
X101752380Y-40950952D01*
X101752380Y-41236666D01*
X101704761Y-41331904D01*
X101657142Y-41379523D01*
X111952380Y-56382380D02*
X111476190Y-56715714D01*
X111952380Y-56953809D02*
X110952380Y-56953809D01*
X110952380Y-56572857D01*
X111000000Y-56477619D01*
X111047619Y-56430000D01*
X111142857Y-56382380D01*
X111285714Y-56382380D01*
X111380952Y-56430000D01*
X111428571Y-56477619D01*
X111476190Y-56572857D01*
X111476190Y-56953809D01*
X111666666Y-56001428D02*
X111666666Y-55525238D01*
X111952380Y-56096666D02*
X110952380Y-55763333D01*
X111952380Y-55430000D01*
X111047619Y-55144285D02*
X111000000Y-55096666D01*
X110952380Y-55001428D01*
X110952380Y-54763333D01*
X111000000Y-54668095D01*
X111047619Y-54620476D01*
X111142857Y-54572857D01*
X111238095Y-54572857D01*
X111380952Y-54620476D01*
X111952380Y-55191904D01*
X111952380Y-54572857D01*
X111047619Y-54191904D02*
X111000000Y-54144285D01*
X110952380Y-54049047D01*
X110952380Y-53810952D01*
X111000000Y-53715714D01*
X111047619Y-53668095D01*
X111142857Y-53620476D01*
X111238095Y-53620476D01*
X111380952Y-53668095D01*
X111952380Y-54239523D01*
X111952380Y-53620476D01*
X109352380Y-56382380D02*
X108876190Y-56715714D01*
X109352380Y-56953809D02*
X108352380Y-56953809D01*
X108352380Y-56572857D01*
X108400000Y-56477619D01*
X108447619Y-56430000D01*
X108542857Y-56382380D01*
X108685714Y-56382380D01*
X108780952Y-56430000D01*
X108828571Y-56477619D01*
X108876190Y-56572857D01*
X108876190Y-56953809D01*
X109066666Y-56001428D02*
X109066666Y-55525238D01*
X109352380Y-56096666D02*
X108352380Y-55763333D01*
X109352380Y-55430000D01*
X108447619Y-55144285D02*
X108400000Y-55096666D01*
X108352380Y-55001428D01*
X108352380Y-54763333D01*
X108400000Y-54668095D01*
X108447619Y-54620476D01*
X108542857Y-54572857D01*
X108638095Y-54572857D01*
X108780952Y-54620476D01*
X109352380Y-55191904D01*
X109352380Y-54572857D01*
X109352380Y-53620476D02*
X109352380Y-54191904D01*
X109352380Y-53906190D02*
X108352380Y-53906190D01*
X108495238Y-54001428D01*
X108590476Y-54096666D01*
X108638095Y-54191904D01*
X106852380Y-56382380D02*
X106376190Y-56715714D01*
X106852380Y-56953809D02*
X105852380Y-56953809D01*
X105852380Y-56572857D01*
X105900000Y-56477619D01*
X105947619Y-56430000D01*
X106042857Y-56382380D01*
X106185714Y-56382380D01*
X106280952Y-56430000D01*
X106328571Y-56477619D01*
X106376190Y-56572857D01*
X106376190Y-56953809D01*
X106566666Y-56001428D02*
X106566666Y-55525238D01*
X106852380Y-56096666D02*
X105852380Y-55763333D01*
X106852380Y-55430000D01*
X105947619Y-55144285D02*
X105900000Y-55096666D01*
X105852380Y-55001428D01*
X105852380Y-54763333D01*
X105900000Y-54668095D01*
X105947619Y-54620476D01*
X106042857Y-54572857D01*
X106138095Y-54572857D01*
X106280952Y-54620476D01*
X106852380Y-55191904D01*
X106852380Y-54572857D01*
X105852380Y-53953809D02*
X105852380Y-53858571D01*
X105900000Y-53763333D01*
X105947619Y-53715714D01*
X106042857Y-53668095D01*
X106233333Y-53620476D01*
X106471428Y-53620476D01*
X106661904Y-53668095D01*
X106757142Y-53715714D01*
X106804761Y-53763333D01*
X106852380Y-53858571D01*
X106852380Y-53953809D01*
X106804761Y-54049047D01*
X106757142Y-54096666D01*
X106661904Y-54144285D01*
X106471428Y-54191904D01*
X106233333Y-54191904D01*
X106042857Y-54144285D01*
X105947619Y-54096666D01*
X105900000Y-54049047D01*
X105852380Y-53953809D01*
X104352380Y-56382380D02*
X103876190Y-56715714D01*
X104352380Y-56953809D02*
X103352380Y-56953809D01*
X103352380Y-56572857D01*
X103400000Y-56477619D01*
X103447619Y-56430000D01*
X103542857Y-56382380D01*
X103685714Y-56382380D01*
X103780952Y-56430000D01*
X103828571Y-56477619D01*
X103876190Y-56572857D01*
X103876190Y-56953809D01*
X104066666Y-56001428D02*
X104066666Y-55525238D01*
X104352380Y-56096666D02*
X103352380Y-55763333D01*
X104352380Y-55430000D01*
X104352380Y-54572857D02*
X104352380Y-55144285D01*
X104352380Y-54858571D02*
X103352380Y-54858571D01*
X103495238Y-54953809D01*
X103590476Y-55049047D01*
X103638095Y-55144285D01*
X104352380Y-54096666D02*
X104352380Y-53906190D01*
X104304761Y-53810952D01*
X104257142Y-53763333D01*
X104114285Y-53668095D01*
X103923809Y-53620476D01*
X103542857Y-53620476D01*
X103447619Y-53668095D01*
X103400000Y-53715714D01*
X103352380Y-53810952D01*
X103352380Y-54001428D01*
X103400000Y-54096666D01*
X103447619Y-54144285D01*
X103542857Y-54191904D01*
X103780952Y-54191904D01*
X103876190Y-54144285D01*
X103923809Y-54096666D01*
X103971428Y-54001428D01*
X103971428Y-53810952D01*
X103923809Y-53715714D01*
X103876190Y-53668095D01*
X103780952Y-53620476D01*
X101752380Y-56382380D02*
X101276190Y-56715714D01*
X101752380Y-56953809D02*
X100752380Y-56953809D01*
X100752380Y-56572857D01*
X100800000Y-56477619D01*
X100847619Y-56430000D01*
X100942857Y-56382380D01*
X101085714Y-56382380D01*
X101180952Y-56430000D01*
X101228571Y-56477619D01*
X101276190Y-56572857D01*
X101276190Y-56953809D01*
X101466666Y-56001428D02*
X101466666Y-55525238D01*
X101752380Y-56096666D02*
X100752380Y-55763333D01*
X101752380Y-55430000D01*
X101752380Y-54572857D02*
X101752380Y-55144285D01*
X101752380Y-54858571D02*
X100752380Y-54858571D01*
X100895238Y-54953809D01*
X100990476Y-55049047D01*
X101038095Y-55144285D01*
X101180952Y-54001428D02*
X101133333Y-54096666D01*
X101085714Y-54144285D01*
X100990476Y-54191904D01*
X100942857Y-54191904D01*
X100847619Y-54144285D01*
X100800000Y-54096666D01*
X100752380Y-54001428D01*
X100752380Y-53810952D01*
X100800000Y-53715714D01*
X100847619Y-53668095D01*
X100942857Y-53620476D01*
X100990476Y-53620476D01*
X101085714Y-53668095D01*
X101133333Y-53715714D01*
X101180952Y-53810952D01*
X101180952Y-54001428D01*
X101228571Y-54096666D01*
X101276190Y-54144285D01*
X101371428Y-54191904D01*
X101561904Y-54191904D01*
X101657142Y-54144285D01*
X101704761Y-54096666D01*
X101752380Y-54001428D01*
X101752380Y-53810952D01*
X101704761Y-53715714D01*
X101657142Y-53668095D01*
X101561904Y-53620476D01*
X101371428Y-53620476D01*
X101276190Y-53668095D01*
X101228571Y-53715714D01*
X101180952Y-53810952D01*
X99252380Y-56382380D02*
X98776190Y-56715714D01*
X99252380Y-56953809D02*
X98252380Y-56953809D01*
X98252380Y-56572857D01*
X98300000Y-56477619D01*
X98347619Y-56430000D01*
X98442857Y-56382380D01*
X98585714Y-56382380D01*
X98680952Y-56430000D01*
X98728571Y-56477619D01*
X98776190Y-56572857D01*
X98776190Y-56953809D01*
X98966666Y-56001428D02*
X98966666Y-55525238D01*
X99252380Y-56096666D02*
X98252380Y-55763333D01*
X99252380Y-55430000D01*
X99252380Y-54572857D02*
X99252380Y-55144285D01*
X99252380Y-54858571D02*
X98252380Y-54858571D01*
X98395238Y-54953809D01*
X98490476Y-55049047D01*
X98538095Y-55144285D01*
X98252380Y-54239523D02*
X98252380Y-53572857D01*
X99252380Y-54001428D01*
X96652380Y-56382380D02*
X96176190Y-56715714D01*
X96652380Y-56953809D02*
X95652380Y-56953809D01*
X95652380Y-56572857D01*
X95700000Y-56477619D01*
X95747619Y-56430000D01*
X95842857Y-56382380D01*
X95985714Y-56382380D01*
X96080952Y-56430000D01*
X96128571Y-56477619D01*
X96176190Y-56572857D01*
X96176190Y-56953809D01*
X96366666Y-56001428D02*
X96366666Y-55525238D01*
X96652380Y-56096666D02*
X95652380Y-55763333D01*
X96652380Y-55430000D01*
X96652380Y-54572857D02*
X96652380Y-55144285D01*
X96652380Y-54858571D02*
X95652380Y-54858571D01*
X95795238Y-54953809D01*
X95890476Y-55049047D01*
X95938095Y-55144285D01*
X95652380Y-53715714D02*
X95652380Y-53906190D01*
X95700000Y-54001428D01*
X95747619Y-54049047D01*
X95890476Y-54144285D01*
X96080952Y-54191904D01*
X96461904Y-54191904D01*
X96557142Y-54144285D01*
X96604761Y-54096666D01*
X96652380Y-54001428D01*
X96652380Y-53810952D01*
X96604761Y-53715714D01*
X96557142Y-53668095D01*
X96461904Y-53620476D01*
X96223809Y-53620476D01*
X96128571Y-53668095D01*
X96080952Y-53715714D01*
X96033333Y-53810952D01*
X96033333Y-54001428D01*
X96080952Y-54096666D01*
X96128571Y-54144285D01*
X96223809Y-54191904D01*
X94152380Y-56382380D02*
X93676190Y-56715714D01*
X94152380Y-56953809D02*
X93152380Y-56953809D01*
X93152380Y-56572857D01*
X93200000Y-56477619D01*
X93247619Y-56430000D01*
X93342857Y-56382380D01*
X93485714Y-56382380D01*
X93580952Y-56430000D01*
X93628571Y-56477619D01*
X93676190Y-56572857D01*
X93676190Y-56953809D01*
X93866666Y-56001428D02*
X93866666Y-55525238D01*
X94152380Y-56096666D02*
X93152380Y-55763333D01*
X94152380Y-55430000D01*
X94152380Y-54572857D02*
X94152380Y-55144285D01*
X94152380Y-54858571D02*
X93152380Y-54858571D01*
X93295238Y-54953809D01*
X93390476Y-55049047D01*
X93438095Y-55144285D01*
X93152380Y-53668095D02*
X93152380Y-54144285D01*
X93628571Y-54191904D01*
X93580952Y-54144285D01*
X93533333Y-54049047D01*
X93533333Y-53810952D01*
X93580952Y-53715714D01*
X93628571Y-53668095D01*
X93723809Y-53620476D01*
X93961904Y-53620476D01*
X94057142Y-53668095D01*
X94104761Y-53715714D01*
X94152380Y-53810952D01*
X94152380Y-54049047D01*
X94104761Y-54144285D01*
X94057142Y-54191904D01*
X91652380Y-56382380D02*
X91176190Y-56715714D01*
X91652380Y-56953809D02*
X90652380Y-56953809D01*
X90652380Y-56572857D01*
X90700000Y-56477619D01*
X90747619Y-56430000D01*
X90842857Y-56382380D01*
X90985714Y-56382380D01*
X91080952Y-56430000D01*
X91128571Y-56477619D01*
X91176190Y-56572857D01*
X91176190Y-56953809D01*
X91366666Y-56001428D02*
X91366666Y-55525238D01*
X91652380Y-56096666D02*
X90652380Y-55763333D01*
X91652380Y-55430000D01*
X91652380Y-54572857D02*
X91652380Y-55144285D01*
X91652380Y-54858571D02*
X90652380Y-54858571D01*
X90795238Y-54953809D01*
X90890476Y-55049047D01*
X90938095Y-55144285D01*
X90985714Y-53715714D02*
X91652380Y-53715714D01*
X90604761Y-53953809D02*
X91319047Y-54191904D01*
X91319047Y-53572857D01*
X89052380Y-56382380D02*
X88576190Y-56715714D01*
X89052380Y-56953809D02*
X88052380Y-56953809D01*
X88052380Y-56572857D01*
X88100000Y-56477619D01*
X88147619Y-56430000D01*
X88242857Y-56382380D01*
X88385714Y-56382380D01*
X88480952Y-56430000D01*
X88528571Y-56477619D01*
X88576190Y-56572857D01*
X88576190Y-56953809D01*
X88766666Y-56001428D02*
X88766666Y-55525238D01*
X89052380Y-56096666D02*
X88052380Y-55763333D01*
X89052380Y-55430000D01*
X89052380Y-54572857D02*
X89052380Y-55144285D01*
X89052380Y-54858571D02*
X88052380Y-54858571D01*
X88195238Y-54953809D01*
X88290476Y-55049047D01*
X88338095Y-55144285D01*
X88052380Y-54239523D02*
X88052380Y-53620476D01*
X88433333Y-53953809D01*
X88433333Y-53810952D01*
X88480952Y-53715714D01*
X88528571Y-53668095D01*
X88623809Y-53620476D01*
X88861904Y-53620476D01*
X88957142Y-53668095D01*
X89004761Y-53715714D01*
X89052380Y-53810952D01*
X89052380Y-54096666D01*
X89004761Y-54191904D01*
X88957142Y-54239523D01*
X107920000Y-44570000D02*
X107920000Y-43570000D01*
X109352380Y-43760476D02*
X108876190Y-44093809D01*
X109352380Y-44331904D02*
X108352380Y-44331904D01*
X108352380Y-43950952D01*
X108400000Y-43855714D01*
X108447619Y-43808095D01*
X108542857Y-43760476D01*
X108685714Y-43760476D01*
X108780952Y-43808095D01*
X108828571Y-43855714D01*
X108876190Y-43950952D01*
X108876190Y-44331904D01*
X107920000Y-43570000D02*
X107920000Y-42522380D01*
X108352380Y-43141428D02*
X108352380Y-42950952D01*
X108400000Y-42855714D01*
X108495238Y-42760476D01*
X108685714Y-42712857D01*
X109019047Y-42712857D01*
X109209523Y-42760476D01*
X109304761Y-42855714D01*
X109352380Y-42950952D01*
X109352380Y-43141428D01*
X109304761Y-43236666D01*
X109209523Y-43331904D01*
X109019047Y-43379523D01*
X108685714Y-43379523D01*
X108495238Y-43331904D01*
X108400000Y-43236666D01*
X108352380Y-43141428D01*
X107920000Y-42522380D02*
X107920000Y-41379523D01*
X109352380Y-42284285D02*
X108352380Y-42284285D01*
X109066666Y-41950952D01*
X108352380Y-41617619D01*
X109352380Y-41617619D01*
X107920000Y-41379523D02*
X107920000Y-40379523D01*
X109257142Y-40570000D02*
X109304761Y-40617619D01*
X109352380Y-40760476D01*
X109352380Y-40855714D01*
X109304761Y-40998571D01*
X109209523Y-41093809D01*
X109114285Y-41141428D01*
X108923809Y-41189047D01*
X108780952Y-41189047D01*
X108590476Y-41141428D01*
X108495238Y-41093809D01*
X108400000Y-40998571D01*
X108352380Y-40855714D01*
X108352380Y-40760476D01*
X108400000Y-40617619D01*
X108447619Y-40570000D01*
X107920000Y-40379523D02*
X107920000Y-39427142D01*
X109304761Y-40189047D02*
X109352380Y-40046190D01*
X109352380Y-39808095D01*
X109304761Y-39712857D01*
X109257142Y-39665238D01*
X109161904Y-39617619D01*
X109066666Y-39617619D01*
X108971428Y-39665238D01*
X108923809Y-39712857D01*
X108876190Y-39808095D01*
X108828571Y-39998571D01*
X108780952Y-40093809D01*
X108733333Y-40141428D01*
X108638095Y-40189047D01*
X108542857Y-40189047D01*
X108447619Y-40141428D01*
X108400000Y-40093809D01*
X108352380Y-39998571D01*
X108352380Y-39760476D01*
X108400000Y-39617619D01*
X102820000Y-44570000D02*
X102820000Y-43570000D01*
X104252380Y-43760476D02*
X103776190Y-44093809D01*
X104252380Y-44331904D02*
X103252380Y-44331904D01*
X103252380Y-43950952D01*
X103300000Y-43855714D01*
X103347619Y-43808095D01*
X103442857Y-43760476D01*
X103585714Y-43760476D01*
X103680952Y-43808095D01*
X103728571Y-43855714D01*
X103776190Y-43950952D01*
X103776190Y-44331904D01*
X102820000Y-43570000D02*
X102820000Y-42712857D01*
X103966666Y-43379523D02*
X103966666Y-42903333D01*
X104252380Y-43474761D02*
X103252380Y-43141428D01*
X104252380Y-42808095D01*
X102820000Y-42712857D02*
X102820000Y-41570000D01*
X104252380Y-42474761D02*
X103252380Y-42474761D01*
X103966666Y-42141428D01*
X103252380Y-41808095D01*
X104252380Y-41808095D01*
X102820000Y-41570000D02*
X102820000Y-40570000D01*
X104157142Y-40760476D02*
X104204761Y-40808095D01*
X104252380Y-40950952D01*
X104252380Y-41046190D01*
X104204761Y-41189047D01*
X104109523Y-41284285D01*
X104014285Y-41331904D01*
X103823809Y-41379523D01*
X103680952Y-41379523D01*
X103490476Y-41331904D01*
X103395238Y-41284285D01*
X103300000Y-41189047D01*
X103252380Y-41046190D01*
X103252380Y-40950952D01*
X103300000Y-40808095D01*
X103347619Y-40760476D01*
X102820000Y-40570000D02*
X102820000Y-39617619D01*
X104204761Y-40379523D02*
X104252380Y-40236666D01*
X104252380Y-39998571D01*
X104204761Y-39903333D01*
X104157142Y-39855714D01*
X104061904Y-39808095D01*
X103966666Y-39808095D01*
X103871428Y-39855714D01*
X103823809Y-39903333D01*
X103776190Y-39998571D01*
X103728571Y-40189047D01*
X103680952Y-40284285D01*
X103633333Y-40331904D01*
X103538095Y-40379523D01*
X103442857Y-40379523D01*
X103347619Y-40331904D01*
X103300000Y-40284285D01*
X103252380Y-40189047D01*
X103252380Y-39950952D01*
X103300000Y-39808095D01*
X98966666Y-44379523D02*
X98966666Y-43903333D01*
X99252380Y-44474761D02*
X98252380Y-44141428D01*
X99252380Y-43808095D01*
X98966666Y-43522380D02*
X98966666Y-43046190D01*
X99252380Y-43617619D02*
X98252380Y-43284285D01*
X99252380Y-42950952D01*
X99252380Y-42093809D02*
X99252380Y-42665238D01*
X99252380Y-42379523D02*
X98252380Y-42379523D01*
X98395238Y-42474761D01*
X98490476Y-42570000D01*
X98538095Y-42665238D01*
X98252380Y-41236666D02*
X98252380Y-41427142D01*
X98300000Y-41522380D01*
X98347619Y-41570000D01*
X98490476Y-41665238D01*
X98680952Y-41712857D01*
X99061904Y-41712857D01*
X99157142Y-41665238D01*
X99204761Y-41617619D01*
X99252380Y-41522380D01*
X99252380Y-41331904D01*
X99204761Y-41236666D01*
X99157142Y-41189047D01*
X99061904Y-41141428D01*
X98823809Y-41141428D01*
X98728571Y-41189047D01*
X98680952Y-41236666D01*
X98633333Y-41331904D01*
X98633333Y-41522380D01*
X98680952Y-41617619D01*
X98728571Y-41665238D01*
X98823809Y-41712857D01*
X96366666Y-44379523D02*
X96366666Y-43903333D01*
X96652380Y-44474761D02*
X95652380Y-44141428D01*
X96652380Y-43808095D01*
X96366666Y-43522380D02*
X96366666Y-43046190D01*
X96652380Y-43617619D02*
X95652380Y-43284285D01*
X96652380Y-42950952D01*
X96652380Y-42093809D02*
X96652380Y-42665238D01*
X96652380Y-42379523D02*
X95652380Y-42379523D01*
X95795238Y-42474761D01*
X95890476Y-42570000D01*
X95938095Y-42665238D01*
X95652380Y-41189047D02*
X95652380Y-41665238D01*
X96128571Y-41712857D01*
X96080952Y-41665238D01*
X96033333Y-41570000D01*
X96033333Y-41331904D01*
X96080952Y-41236666D01*
X96128571Y-41189047D01*
X96223809Y-41141428D01*
X96461904Y-41141428D01*
X96557142Y-41189047D01*
X96604761Y-41236666D01*
X96652380Y-41331904D01*
X96652380Y-41570000D01*
X96604761Y-41665238D01*
X96557142Y-41712857D01*
X93866666Y-44379523D02*
X93866666Y-43903333D01*
X94152380Y-44474761D02*
X93152380Y-44141428D01*
X94152380Y-43808095D01*
X93866666Y-43522380D02*
X93866666Y-43046190D01*
X94152380Y-43617619D02*
X93152380Y-43284285D01*
X94152380Y-42950952D01*
X94152380Y-42093809D02*
X94152380Y-42665238D01*
X94152380Y-42379523D02*
X93152380Y-42379523D01*
X93295238Y-42474761D01*
X93390476Y-42570000D01*
X93438095Y-42665238D01*
X93485714Y-41236666D02*
X94152380Y-41236666D01*
X93104761Y-41474761D02*
X93819047Y-41712857D01*
X93819047Y-41093809D01*
X91266666Y-44379523D02*
X91266666Y-43903333D01*
X91552380Y-44474761D02*
X90552380Y-44141428D01*
X91552380Y-43808095D01*
X91266666Y-43522380D02*
X91266666Y-43046190D01*
X91552380Y-43617619D02*
X90552380Y-43284285D01*
X91552380Y-42950952D01*
X91552380Y-42093809D02*
X91552380Y-42665238D01*
X91552380Y-42379523D02*
X90552380Y-42379523D01*
X90695238Y-42474761D01*
X90790476Y-42570000D01*
X90838095Y-42665238D01*
X90552380Y-41760476D02*
X90552380Y-41141428D01*
X90933333Y-41474761D01*
X90933333Y-41331904D01*
X90980952Y-41236666D01*
X91028571Y-41189047D01*
X91123809Y-41141428D01*
X91361904Y-41141428D01*
X91457142Y-41189047D01*
X91504761Y-41236666D01*
X91552380Y-41331904D01*
X91552380Y-41617619D01*
X91504761Y-41712857D01*
X91457142Y-41760476D01*
X88766666Y-44379523D02*
X88766666Y-43903333D01*
X89052380Y-44474761D02*
X88052380Y-44141428D01*
X89052380Y-43808095D01*
X88766666Y-43522380D02*
X88766666Y-43046190D01*
X89052380Y-43617619D02*
X88052380Y-43284285D01*
X89052380Y-42950952D01*
X89052380Y-42093809D02*
X89052380Y-42665238D01*
X89052380Y-42379523D02*
X88052380Y-42379523D01*
X88195238Y-42474761D01*
X88290476Y-42570000D01*
X88338095Y-42665238D01*
X88147619Y-41712857D02*
X88100000Y-41665238D01*
X88052380Y-41570000D01*
X88052380Y-41331904D01*
X88100000Y-41236666D01*
X88147619Y-41189047D01*
X88242857Y-41141428D01*
X88338095Y-41141428D01*
X88480952Y-41189047D01*
X89052380Y-41760476D01*
X89052380Y-41141428D01*
D11*
X125700000Y-90900000D02*
G75*
G02X125200000Y-91400000I-500000J0D01*
G01*
X125200000Y-41600000D02*
G75*
G02X125700000Y-42100000I0J-500000D01*
G01*
X125200000Y-41600000D02*
X121700000Y-41600000D01*
X125700000Y-90900000D02*
X125700000Y-42100000D01*
X124600000Y-91400000D02*
X125200000Y-91400000D01*
X74800000Y-91400000D02*
G75*
G02X74300000Y-90900000I0J500000D01*
G01*
X74300000Y-39500000D02*
G75*
G02X74800000Y-39000000I500000J0D01*
G01*
X121200000Y-39000000D02*
G75*
G02X121700000Y-39500000I0J-500000D01*
G01*
X76400000Y-100000000D02*
G75*
G02X75400000Y-99000000I0J1000000D01*
G01*
X124600000Y-99000000D02*
G75*
G02X123600000Y-100000000I-1000000J0D01*
G01*
X121700000Y-39500000D02*
X121700000Y-41600000D01*
X74800000Y-39000000D02*
X121200000Y-39000000D01*
X74300000Y-90900000D02*
X74300000Y-39500000D01*
X75400000Y-91400000D02*
X74800000Y-91400000D01*
X75400000Y-99000000D02*
X75400000Y-91400000D01*
X124600000Y-99000000D02*
X124600000Y-91400000D01*
X76400000Y-100000000D02*
X123600000Y-100000000D01*
D12*
X116310000Y-42962779D02*
X116310000Y-42637221D01*
X115290000Y-42962779D02*
X115290000Y-42637221D01*
X114710000Y-42962779D02*
X114710000Y-42637221D01*
X113690000Y-42962779D02*
X113690000Y-42637221D01*
X77497936Y-89210000D02*
X78702064Y-89210000D01*
X77497936Y-87390000D02*
X78702064Y-87390000D01*
X119000000Y-40940000D02*
X117600000Y-40940000D01*
X117600000Y-43260000D02*
X119500000Y-43260000D01*
D11*
X77450000Y-57550000D02*
X77450000Y-51575000D01*
X84350000Y-56025000D02*
X84350000Y-51575000D01*
X116450000Y-54650000D02*
X116450000Y-48675000D01*
X123350000Y-53125000D02*
X123350000Y-48675000D01*
D12*
X123360000Y-86500000D02*
X123360000Y-85100000D01*
X121040000Y-85100000D02*
X121040000Y-87000000D01*
D11*
X108575000Y-84775000D02*
X108575000Y-89425000D01*
X116675000Y-83700000D02*
X116675000Y-89425000D01*
X108575000Y-84775000D02*
X108600000Y-84775000D01*
X108575000Y-89425000D02*
X108600000Y-89425000D01*
X116625000Y-89425000D02*
X116600000Y-89425000D01*
X103550000Y-71550000D02*
X103550000Y-77525000D01*
X96650000Y-73075000D02*
X96650000Y-77525000D01*
X92050000Y-83350000D02*
X92050000Y-89325000D01*
X85150000Y-84875000D02*
X85150000Y-89325000D01*
D12*
X75700000Y-79990000D02*
X81710000Y-79990000D01*
X77950000Y-86810000D02*
X81710000Y-86810000D01*
X81710000Y-79990000D02*
X81710000Y-81250000D01*
X81710000Y-86810000D02*
X81710000Y-85550000D01*
X121340000Y-79200000D02*
X121340000Y-80600000D01*
X123660000Y-80600000D02*
X123660000Y-78700000D01*
D13*
X120620000Y-77900000D02*
X120620000Y-58500000D01*
D12*
X108380000Y-59500000D02*
X108380000Y-77900000D01*
X121990000Y-75850000D02*
X121990000Y-77250000D01*
X124310000Y-77250000D02*
X124310000Y-75350000D01*
X85900000Y-60240000D02*
X78700000Y-60240000D01*
X85900000Y-60240000D02*
X91800000Y-60240000D01*
X85900000Y-68560000D02*
X80000000Y-68560000D01*
X85900000Y-68560000D02*
X91800000Y-68560000D01*
X78820000Y-45600000D02*
X78820000Y-46600000D01*
X82180000Y-45600000D02*
X82180000Y-46600000D01*
X120410000Y-89462779D02*
X120410000Y-89137221D01*
X119390000Y-89462779D02*
X119390000Y-89137221D01*
X109650000Y-46400000D02*
X110670000Y-46400000D01*
X109650000Y-51600000D02*
X110670000Y-51600000D01*
X107110000Y-46400000D02*
X108130000Y-46400000D01*
X107110000Y-51600000D02*
X108130000Y-51600000D01*
X104570000Y-46400000D02*
X105590000Y-46400000D01*
X104570000Y-51600000D02*
X105590000Y-51600000D01*
X102030000Y-46400000D02*
X103050000Y-46400000D01*
X102030000Y-51600000D02*
X103050000Y-51600000D01*
X99490000Y-46400000D02*
X100510000Y-46400000D01*
X99490000Y-51600000D02*
X100510000Y-51600000D01*
X96950000Y-46400000D02*
X97970000Y-46400000D01*
X96950000Y-51600000D02*
X97970000Y-51600000D01*
X94410000Y-46400000D02*
X95430000Y-46400000D01*
X94410000Y-51600000D02*
X95430000Y-51600000D01*
X91870000Y-46400000D02*
X92890000Y-46400000D01*
X91870000Y-51600000D02*
X92890000Y-51600000D01*
X89330000Y-46400000D02*
X90350000Y-46400000D01*
X89330000Y-51600000D02*
X90350000Y-51600000D01*
X112190000Y-46400000D02*
X112760000Y-46400000D01*
X112190000Y-51600000D02*
X112760000Y-51600000D01*
X87240000Y-46400000D02*
X87810000Y-46400000D01*
X87240000Y-51600000D02*
X87810000Y-51600000D01*
X87810000Y-53040000D02*
X87810000Y-51600000D01*
X112760000Y-51600000D02*
X112760000Y-46400000D01*
X87240000Y-51600000D02*
X87240000Y-46400000D01*
X77735000Y-43985000D02*
X77735000Y-41700000D01*
X76265000Y-43985000D02*
X77735000Y-43985000D01*
X76265000Y-41700000D02*
X76265000Y-43985000D01*
X81735000Y-43985000D02*
X81735000Y-41700000D01*
X80265000Y-43985000D02*
X81735000Y-43985000D01*
X80265000Y-41700000D02*
X80265000Y-43985000D01*
X85735000Y-43985000D02*
X85735000Y-41700000D01*
X84265000Y-43985000D02*
X85735000Y-43985000D01*
X84265000Y-41700000D02*
X84265000Y-43985000D01*
X75990000Y-51149721D02*
X75990000Y-51475279D01*
X77010000Y-51149721D02*
X77010000Y-51475279D01*
X114990000Y-48337221D02*
X114990000Y-48662779D01*
X116010000Y-48337221D02*
X116010000Y-48662779D01*
X118210000Y-89462779D02*
X118210000Y-89137221D01*
X117190000Y-89462779D02*
X117190000Y-89137221D01*
X120762779Y-82890000D02*
X120437221Y-82890000D01*
X120762779Y-83910000D02*
X120437221Y-83910000D01*
X117190000Y-84737221D02*
X117190000Y-85062779D01*
X118210000Y-84737221D02*
X118210000Y-85062779D01*
X105010000Y-77962779D02*
X105010000Y-77637221D01*
X103990000Y-77962779D02*
X103990000Y-77637221D01*
X93510000Y-89762779D02*
X93510000Y-89437221D01*
X92490000Y-89762779D02*
X92490000Y-89437221D01*
X123637221Y-82910000D02*
X123962779Y-82910000D01*
X123637221Y-81890000D02*
X123962779Y-81890000D01*
X82102064Y-77690000D02*
X80897936Y-77690000D01*
X82102064Y-79510000D02*
X80897936Y-79510000D01*
X114290000Y-80737221D02*
X114290000Y-81062779D01*
X115310000Y-80737221D02*
X115310000Y-81062779D01*
X77090000Y-64737221D02*
X77090000Y-65062779D01*
X78110000Y-64737221D02*
X78110000Y-65062779D01*
D11*
X115833333Y-41052380D02*
X115500000Y-40576190D01*
X115261904Y-41052380D02*
X115261904Y-40052380D01*
X115642857Y-40052380D01*
X115738095Y-40100000D01*
X115785714Y-40147619D01*
X115833333Y-40242857D01*
X115833333Y-40385714D01*
X115785714Y-40480952D01*
X115738095Y-40528571D01*
X115642857Y-40576190D01*
X115261904Y-40576190D01*
X116166666Y-40052380D02*
X116785714Y-40052380D01*
X116452380Y-40433333D01*
X116595238Y-40433333D01*
X116690476Y-40480952D01*
X116738095Y-40528571D01*
X116785714Y-40623809D01*
X116785714Y-40861904D01*
X116738095Y-40957142D01*
X116690476Y-41004761D01*
X116595238Y-41052380D01*
X116309523Y-41052380D01*
X116214285Y-41004761D01*
X116166666Y-40957142D01*
X113733333Y-41052380D02*
X113400000Y-40576190D01*
X113161904Y-41052380D02*
X113161904Y-40052380D01*
X113542857Y-40052380D01*
X113638095Y-40100000D01*
X113685714Y-40147619D01*
X113733333Y-40242857D01*
X113733333Y-40385714D01*
X113685714Y-40480952D01*
X113638095Y-40528571D01*
X113542857Y-40576190D01*
X113161904Y-40576190D01*
X114114285Y-40147619D02*
X114161904Y-40100000D01*
X114257142Y-40052380D01*
X114495238Y-40052380D01*
X114590476Y-40100000D01*
X114638095Y-40147619D01*
X114685714Y-40242857D01*
X114685714Y-40338095D01*
X114638095Y-40480952D01*
X114066666Y-41052380D01*
X114685714Y-41052380D01*
X77933333Y-90657142D02*
X77885714Y-90704761D01*
X77742857Y-90752380D01*
X77647619Y-90752380D01*
X77504761Y-90704761D01*
X77409523Y-90609523D01*
X77361904Y-90514285D01*
X77314285Y-90323809D01*
X77314285Y-90180952D01*
X77361904Y-89990476D01*
X77409523Y-89895238D01*
X77504761Y-89800000D01*
X77647619Y-89752380D01*
X77742857Y-89752380D01*
X77885714Y-89800000D01*
X77933333Y-89847619D01*
X78885714Y-90752380D02*
X78314285Y-90752380D01*
X78600000Y-90752380D02*
X78600000Y-89752380D01*
X78504761Y-89895238D01*
X78409523Y-89990476D01*
X78314285Y-90038095D01*
X117061904Y-43752380D02*
X117061904Y-44561904D01*
X117109523Y-44657142D01*
X117157142Y-44704761D01*
X117252380Y-44752380D01*
X117442857Y-44752380D01*
X117538095Y-44704761D01*
X117585714Y-44657142D01*
X117633333Y-44561904D01*
X117633333Y-43752380D01*
X118633333Y-44752380D02*
X118061904Y-44752380D01*
X118347619Y-44752380D02*
X118347619Y-43752380D01*
X118252380Y-43895238D01*
X118157142Y-43990476D01*
X118061904Y-44038095D01*
X119014285Y-43847619D02*
X119061904Y-43800000D01*
X119157142Y-43752380D01*
X119395238Y-43752380D01*
X119490476Y-43800000D01*
X119538095Y-43847619D01*
X119585714Y-43942857D01*
X119585714Y-44038095D01*
X119538095Y-44180952D01*
X118966666Y-44752380D01*
X119585714Y-44752380D01*
X79661904Y-57952380D02*
X79661904Y-58761904D01*
X79709523Y-58857142D01*
X79757142Y-58904761D01*
X79852380Y-58952380D01*
X80042857Y-58952380D01*
X80138095Y-58904761D01*
X80185714Y-58857142D01*
X80233333Y-58761904D01*
X80233333Y-57952380D01*
X81233333Y-58952380D02*
X80661904Y-58952380D01*
X80947619Y-58952380D02*
X80947619Y-57952380D01*
X80852380Y-58095238D01*
X80757142Y-58190476D01*
X80661904Y-58238095D01*
X82185714Y-58952380D02*
X81614285Y-58952380D01*
X81900000Y-58952380D02*
X81900000Y-57952380D01*
X81804761Y-58095238D01*
X81709523Y-58190476D01*
X81614285Y-58238095D01*
X117561904Y-55052380D02*
X117561904Y-55861904D01*
X117609523Y-55957142D01*
X117657142Y-56004761D01*
X117752380Y-56052380D01*
X117942857Y-56052380D01*
X118038095Y-56004761D01*
X118085714Y-55957142D01*
X118133333Y-55861904D01*
X118133333Y-55052380D01*
X119133333Y-56052380D02*
X118561904Y-56052380D01*
X118847619Y-56052380D02*
X118847619Y-55052380D01*
X118752380Y-55195238D01*
X118657142Y-55290476D01*
X118561904Y-55338095D01*
X119752380Y-55052380D02*
X119847619Y-55052380D01*
X119942857Y-55100000D01*
X119990476Y-55147619D01*
X120038095Y-55242857D01*
X120085714Y-55433333D01*
X120085714Y-55671428D01*
X120038095Y-55861904D01*
X119990476Y-55957142D01*
X119942857Y-56004761D01*
X119847619Y-56052380D01*
X119752380Y-56052380D01*
X119657142Y-56004761D01*
X119609523Y-55957142D01*
X119561904Y-55861904D01*
X119514285Y-55671428D01*
X119514285Y-55433333D01*
X119561904Y-55242857D01*
X119609523Y-55147619D01*
X119657142Y-55100000D01*
X119752380Y-55052380D01*
X123638095Y-84952380D02*
X123638095Y-85761904D01*
X123685714Y-85857142D01*
X123733333Y-85904761D01*
X123828571Y-85952380D01*
X124019047Y-85952380D01*
X124114285Y-85904761D01*
X124161904Y-85857142D01*
X124209523Y-85761904D01*
X124209523Y-84952380D01*
X124733333Y-85952380D02*
X124923809Y-85952380D01*
X125019047Y-85904761D01*
X125066666Y-85857142D01*
X125161904Y-85714285D01*
X125209523Y-85523809D01*
X125209523Y-85142857D01*
X125161904Y-85047619D01*
X125114285Y-85000000D01*
X125019047Y-84952380D01*
X124828571Y-84952380D01*
X124733333Y-85000000D01*
X124685714Y-85047619D01*
X124638095Y-85142857D01*
X124638095Y-85380952D01*
X124685714Y-85476190D01*
X124733333Y-85523809D01*
X124828571Y-85571428D01*
X125019047Y-85571428D01*
X125114285Y-85523809D01*
X125161904Y-85476190D01*
X125209523Y-85380952D01*
X106538095Y-86752380D02*
X106538095Y-87561904D01*
X106585714Y-87657142D01*
X106633333Y-87704761D01*
X106728571Y-87752380D01*
X106919047Y-87752380D01*
X107014285Y-87704761D01*
X107061904Y-87657142D01*
X107109523Y-87561904D01*
X107109523Y-86752380D01*
X107728571Y-87180952D02*
X107633333Y-87133333D01*
X107585714Y-87085714D01*
X107538095Y-86990476D01*
X107538095Y-86942857D01*
X107585714Y-86847619D01*
X107633333Y-86800000D01*
X107728571Y-86752380D01*
X107919047Y-86752380D01*
X108014285Y-86800000D01*
X108061904Y-86847619D01*
X108109523Y-86942857D01*
X108109523Y-86990476D01*
X108061904Y-87085714D01*
X108014285Y-87133333D01*
X107919047Y-87180952D01*
X107728571Y-87180952D01*
X107633333Y-87228571D01*
X107585714Y-87276190D01*
X107538095Y-87371428D01*
X107538095Y-87561904D01*
X107585714Y-87657142D01*
X107633333Y-87704761D01*
X107728571Y-87752380D01*
X107919047Y-87752380D01*
X108014285Y-87704761D01*
X108061904Y-87657142D01*
X108109523Y-87561904D01*
X108109523Y-87371428D01*
X108061904Y-87276190D01*
X108014285Y-87228571D01*
X107919047Y-87180952D01*
X94538095Y-74752380D02*
X94538095Y-75561904D01*
X94585714Y-75657142D01*
X94633333Y-75704761D01*
X94728571Y-75752380D01*
X94919047Y-75752380D01*
X95014285Y-75704761D01*
X95061904Y-75657142D01*
X95109523Y-75561904D01*
X95109523Y-74752380D01*
X95490476Y-74752380D02*
X96157142Y-74752380D01*
X95728571Y-75752380D01*
X92438095Y-83552380D02*
X92438095Y-84361904D01*
X92485714Y-84457142D01*
X92533333Y-84504761D01*
X92628571Y-84552380D01*
X92819047Y-84552380D01*
X92914285Y-84504761D01*
X92961904Y-84457142D01*
X93009523Y-84361904D01*
X93009523Y-83552380D01*
X93914285Y-83552380D02*
X93723809Y-83552380D01*
X93628571Y-83600000D01*
X93580952Y-83647619D01*
X93485714Y-83790476D01*
X93438095Y-83980952D01*
X93438095Y-84361904D01*
X93485714Y-84457142D01*
X93533333Y-84504761D01*
X93628571Y-84552380D01*
X93819047Y-84552380D01*
X93914285Y-84504761D01*
X93961904Y-84457142D01*
X94009523Y-84361904D01*
X94009523Y-84123809D01*
X93961904Y-84028571D01*
X93914285Y-83980952D01*
X93819047Y-83933333D01*
X93628571Y-83933333D01*
X93533333Y-83980952D01*
X93485714Y-84028571D01*
X93438095Y-84123809D01*
X81938095Y-87252380D02*
X81938095Y-88061904D01*
X81985714Y-88157142D01*
X82033333Y-88204761D01*
X82128571Y-88252380D01*
X82319047Y-88252380D01*
X82414285Y-88204761D01*
X82461904Y-88157142D01*
X82509523Y-88061904D01*
X82509523Y-87252380D01*
X83461904Y-87252380D02*
X82985714Y-87252380D01*
X82938095Y-87728571D01*
X82985714Y-87680952D01*
X83080952Y-87633333D01*
X83319047Y-87633333D01*
X83414285Y-87680952D01*
X83461904Y-87728571D01*
X83509523Y-87823809D01*
X83509523Y-88061904D01*
X83461904Y-88157142D01*
X83414285Y-88204761D01*
X83319047Y-88252380D01*
X83080952Y-88252380D01*
X82985714Y-88204761D01*
X82938095Y-88157142D01*
X119338095Y-80852380D02*
X119338095Y-81661904D01*
X119385714Y-81757142D01*
X119433333Y-81804761D01*
X119528571Y-81852380D01*
X119719047Y-81852380D01*
X119814285Y-81804761D01*
X119861904Y-81757142D01*
X119909523Y-81661904D01*
X119909523Y-80852380D01*
X120814285Y-81185714D02*
X120814285Y-81852380D01*
X120576190Y-80804761D02*
X120338095Y-81519047D01*
X120957142Y-81519047D01*
X121438095Y-68152380D02*
X121438095Y-68961904D01*
X121485714Y-69057142D01*
X121533333Y-69104761D01*
X121628571Y-69152380D01*
X121819047Y-69152380D01*
X121914285Y-69104761D01*
X121961904Y-69057142D01*
X122009523Y-68961904D01*
X122009523Y-68152380D01*
X122390476Y-68152380D02*
X123009523Y-68152380D01*
X122676190Y-68533333D01*
X122819047Y-68533333D01*
X122914285Y-68580952D01*
X122961904Y-68628571D01*
X123009523Y-68723809D01*
X123009523Y-68961904D01*
X122961904Y-69057142D01*
X122914285Y-69104761D01*
X122819047Y-69152380D01*
X122533333Y-69152380D01*
X122438095Y-69104761D01*
X122390476Y-69057142D01*
X123238095Y-73652380D02*
X123238095Y-74461904D01*
X123285714Y-74557142D01*
X123333333Y-74604761D01*
X123428571Y-74652380D01*
X123619047Y-74652380D01*
X123714285Y-74604761D01*
X123761904Y-74557142D01*
X123809523Y-74461904D01*
X123809523Y-73652380D01*
X124238095Y-73747619D02*
X124285714Y-73700000D01*
X124380952Y-73652380D01*
X124619047Y-73652380D01*
X124714285Y-73700000D01*
X124761904Y-73747619D01*
X124809523Y-73842857D01*
X124809523Y-73938095D01*
X124761904Y-74080952D01*
X124190476Y-74652380D01*
X124809523Y-74652380D01*
X85138095Y-58902380D02*
X85138095Y-59711904D01*
X85185714Y-59807142D01*
X85233333Y-59854761D01*
X85328571Y-59902380D01*
X85519047Y-59902380D01*
X85614285Y-59854761D01*
X85661904Y-59807142D01*
X85709523Y-59711904D01*
X85709523Y-58902380D01*
X86709523Y-59902380D02*
X86138095Y-59902380D01*
X86423809Y-59902380D02*
X86423809Y-58902380D01*
X86328571Y-59045238D01*
X86233333Y-59140476D01*
X86138095Y-59188095D01*
X81909523Y-48952380D02*
X81576190Y-48476190D01*
X81338095Y-48952380D02*
X81338095Y-47952380D01*
X81719047Y-47952380D01*
X81814285Y-48000000D01*
X81861904Y-48047619D01*
X81909523Y-48142857D01*
X81909523Y-48285714D01*
X81861904Y-48380952D01*
X81814285Y-48428571D01*
X81719047Y-48476190D01*
X81338095Y-48476190D01*
X82338095Y-48952380D02*
X82338095Y-47952380D01*
X82909523Y-48952380D01*
X82909523Y-47952380D01*
X83909523Y-48952380D02*
X83338095Y-48952380D01*
X83623809Y-48952380D02*
X83623809Y-47952380D01*
X83528571Y-48095238D01*
X83433333Y-48190476D01*
X83338095Y-48238095D01*
X120133333Y-92052380D02*
X119800000Y-91576190D01*
X119561904Y-92052380D02*
X119561904Y-91052380D01*
X119942857Y-91052380D01*
X120038095Y-91100000D01*
X120085714Y-91147619D01*
X120133333Y-91242857D01*
X120133333Y-91385714D01*
X120085714Y-91480952D01*
X120038095Y-91528571D01*
X119942857Y-91576190D01*
X119561904Y-91576190D01*
X121085714Y-92052380D02*
X120514285Y-92052380D01*
X120800000Y-92052380D02*
X120800000Y-91052380D01*
X120704761Y-91195238D01*
X120609523Y-91290476D01*
X120514285Y-91338095D01*
X85566666Y-49752380D02*
X85566666Y-50466666D01*
X85519047Y-50609523D01*
X85423809Y-50704761D01*
X85280952Y-50752380D01*
X85185714Y-50752380D01*
X85995238Y-49847619D02*
X86042857Y-49800000D01*
X86138095Y-49752380D01*
X86376190Y-49752380D01*
X86471428Y-49800000D01*
X86519047Y-49847619D01*
X86566666Y-49942857D01*
X86566666Y-50038095D01*
X86519047Y-50180952D01*
X85947619Y-50752380D01*
X86566666Y-50752380D01*
X76022380Y-43238095D02*
X75022380Y-43238095D01*
X75022380Y-43000000D01*
X75070000Y-42857142D01*
X75165238Y-42761904D01*
X75260476Y-42714285D01*
X75450952Y-42666666D01*
X75593809Y-42666666D01*
X75784285Y-42714285D01*
X75879523Y-42761904D01*
X75974761Y-42857142D01*
X76022380Y-43000000D01*
X76022380Y-43238095D01*
X75022380Y-42333333D02*
X75022380Y-41714285D01*
X75403333Y-42047619D01*
X75403333Y-41904761D01*
X75450952Y-41809523D01*
X75498571Y-41761904D01*
X75593809Y-41714285D01*
X75831904Y-41714285D01*
X75927142Y-41761904D01*
X75974761Y-41809523D01*
X76022380Y-41904761D01*
X76022380Y-42190476D01*
X75974761Y-42285714D01*
X75927142Y-42333333D01*
X80022380Y-43238095D02*
X79022380Y-43238095D01*
X79022380Y-43000000D01*
X79070000Y-42857142D01*
X79165238Y-42761904D01*
X79260476Y-42714285D01*
X79450952Y-42666666D01*
X79593809Y-42666666D01*
X79784285Y-42714285D01*
X79879523Y-42761904D01*
X79974761Y-42857142D01*
X80022380Y-43000000D01*
X80022380Y-43238095D01*
X79117619Y-42285714D02*
X79070000Y-42238095D01*
X79022380Y-42142857D01*
X79022380Y-41904761D01*
X79070000Y-41809523D01*
X79117619Y-41761904D01*
X79212857Y-41714285D01*
X79308095Y-41714285D01*
X79450952Y-41761904D01*
X80022380Y-42333333D01*
X80022380Y-41714285D01*
X84022380Y-43238095D02*
X83022380Y-43238095D01*
X83022380Y-43000000D01*
X83070000Y-42857142D01*
X83165238Y-42761904D01*
X83260476Y-42714285D01*
X83450952Y-42666666D01*
X83593809Y-42666666D01*
X83784285Y-42714285D01*
X83879523Y-42761904D01*
X83974761Y-42857142D01*
X84022380Y-43000000D01*
X84022380Y-43238095D01*
X84022380Y-41714285D02*
X84022380Y-42285714D01*
X84022380Y-42000000D02*
X83022380Y-42000000D01*
X83165238Y-42095238D01*
X83260476Y-42190476D01*
X83308095Y-42285714D01*
X75857142Y-49557142D02*
X75809523Y-49604761D01*
X75666666Y-49652380D01*
X75571428Y-49652380D01*
X75428571Y-49604761D01*
X75333333Y-49509523D01*
X75285714Y-49414285D01*
X75238095Y-49223809D01*
X75238095Y-49080952D01*
X75285714Y-48890476D01*
X75333333Y-48795238D01*
X75428571Y-48700000D01*
X75571428Y-48652380D01*
X75666666Y-48652380D01*
X75809523Y-48700000D01*
X75857142Y-48747619D01*
X76809523Y-49652380D02*
X76238095Y-49652380D01*
X76523809Y-49652380D02*
X76523809Y-48652380D01*
X76428571Y-48795238D01*
X76333333Y-48890476D01*
X76238095Y-48938095D01*
X77142857Y-48652380D02*
X77761904Y-48652380D01*
X77428571Y-49033333D01*
X77571428Y-49033333D01*
X77666666Y-49080952D01*
X77714285Y-49128571D01*
X77761904Y-49223809D01*
X77761904Y-49461904D01*
X77714285Y-49557142D01*
X77666666Y-49604761D01*
X77571428Y-49652380D01*
X77285714Y-49652380D01*
X77190476Y-49604761D01*
X77142857Y-49557142D01*
X114057142Y-51657142D02*
X114009523Y-51704761D01*
X113866666Y-51752380D01*
X113771428Y-51752380D01*
X113628571Y-51704761D01*
X113533333Y-51609523D01*
X113485714Y-51514285D01*
X113438095Y-51323809D01*
X113438095Y-51180952D01*
X113485714Y-50990476D01*
X113533333Y-50895238D01*
X113628571Y-50800000D01*
X113771428Y-50752380D01*
X113866666Y-50752380D01*
X114009523Y-50800000D01*
X114057142Y-50847619D01*
X115009523Y-51752380D02*
X114438095Y-51752380D01*
X114723809Y-51752380D02*
X114723809Y-50752380D01*
X114628571Y-50895238D01*
X114533333Y-50990476D01*
X114438095Y-51038095D01*
X115390476Y-50847619D02*
X115438095Y-50800000D01*
X115533333Y-50752380D01*
X115771428Y-50752380D01*
X115866666Y-50800000D01*
X115914285Y-50847619D01*
X115961904Y-50942857D01*
X115961904Y-51038095D01*
X115914285Y-51180952D01*
X115342857Y-51752380D01*
X115961904Y-51752380D01*
X116757142Y-91957142D02*
X116709523Y-92004761D01*
X116566666Y-92052380D01*
X116471428Y-92052380D01*
X116328571Y-92004761D01*
X116233333Y-91909523D01*
X116185714Y-91814285D01*
X116138095Y-91623809D01*
X116138095Y-91480952D01*
X116185714Y-91290476D01*
X116233333Y-91195238D01*
X116328571Y-91100000D01*
X116471428Y-91052380D01*
X116566666Y-91052380D01*
X116709523Y-91100000D01*
X116757142Y-91147619D01*
X117709523Y-92052380D02*
X117138095Y-92052380D01*
X117423809Y-92052380D02*
X117423809Y-91052380D01*
X117328571Y-91195238D01*
X117233333Y-91290476D01*
X117138095Y-91338095D01*
X118661904Y-92052380D02*
X118090476Y-92052380D01*
X118376190Y-92052380D02*
X118376190Y-91052380D01*
X118280952Y-91195238D01*
X118185714Y-91290476D01*
X118090476Y-91338095D01*
X120357142Y-86242857D02*
X120404761Y-86290476D01*
X120452380Y-86433333D01*
X120452380Y-86528571D01*
X120404761Y-86671428D01*
X120309523Y-86766666D01*
X120214285Y-86814285D01*
X120023809Y-86861904D01*
X119880952Y-86861904D01*
X119690476Y-86814285D01*
X119595238Y-86766666D01*
X119500000Y-86671428D01*
X119452380Y-86528571D01*
X119452380Y-86433333D01*
X119500000Y-86290476D01*
X119547619Y-86242857D01*
X120452380Y-85290476D02*
X120452380Y-85861904D01*
X120452380Y-85576190D02*
X119452380Y-85576190D01*
X119595238Y-85671428D01*
X119690476Y-85766666D01*
X119738095Y-85861904D01*
X119452380Y-84671428D02*
X119452380Y-84576190D01*
X119500000Y-84480952D01*
X119547619Y-84433333D01*
X119642857Y-84385714D01*
X119833333Y-84338095D01*
X120071428Y-84338095D01*
X120261904Y-84385714D01*
X120357142Y-84433333D01*
X120404761Y-84480952D01*
X120452380Y-84576190D01*
X120452380Y-84671428D01*
X120404761Y-84766666D01*
X120357142Y-84814285D01*
X120261904Y-84861904D01*
X120071428Y-84909523D01*
X119833333Y-84909523D01*
X119642857Y-84861904D01*
X119547619Y-84814285D01*
X119500000Y-84766666D01*
X119452380Y-84671428D01*
X117533333Y-87357142D02*
X117485714Y-87404761D01*
X117342857Y-87452380D01*
X117247619Y-87452380D01*
X117104761Y-87404761D01*
X117009523Y-87309523D01*
X116961904Y-87214285D01*
X116914285Y-87023809D01*
X116914285Y-86880952D01*
X116961904Y-86690476D01*
X117009523Y-86595238D01*
X117104761Y-86500000D01*
X117247619Y-86452380D01*
X117342857Y-86452380D01*
X117485714Y-86500000D01*
X117533333Y-86547619D01*
X118009523Y-87452380D02*
X118200000Y-87452380D01*
X118295238Y-87404761D01*
X118342857Y-87357142D01*
X118438095Y-87214285D01*
X118485714Y-87023809D01*
X118485714Y-86642857D01*
X118438095Y-86547619D01*
X118390476Y-86500000D01*
X118295238Y-86452380D01*
X118104761Y-86452380D01*
X118009523Y-86500000D01*
X117961904Y-86547619D01*
X117914285Y-86642857D01*
X117914285Y-86880952D01*
X117961904Y-86976190D01*
X118009523Y-87023809D01*
X118104761Y-87071428D01*
X118295238Y-87071428D01*
X118390476Y-87023809D01*
X118438095Y-86976190D01*
X118485714Y-86880952D01*
X104433333Y-76057142D02*
X104385714Y-76104761D01*
X104242857Y-76152380D01*
X104147619Y-76152380D01*
X104004761Y-76104761D01*
X103909523Y-76009523D01*
X103861904Y-75914285D01*
X103814285Y-75723809D01*
X103814285Y-75580952D01*
X103861904Y-75390476D01*
X103909523Y-75295238D01*
X104004761Y-75200000D01*
X104147619Y-75152380D01*
X104242857Y-75152380D01*
X104385714Y-75200000D01*
X104433333Y-75247619D01*
X105004761Y-75580952D02*
X104909523Y-75533333D01*
X104861904Y-75485714D01*
X104814285Y-75390476D01*
X104814285Y-75342857D01*
X104861904Y-75247619D01*
X104909523Y-75200000D01*
X105004761Y-75152380D01*
X105195238Y-75152380D01*
X105290476Y-75200000D01*
X105338095Y-75247619D01*
X105385714Y-75342857D01*
X105385714Y-75390476D01*
X105338095Y-75485714D01*
X105290476Y-75533333D01*
X105195238Y-75580952D01*
X105004761Y-75580952D01*
X104909523Y-75628571D01*
X104861904Y-75676190D01*
X104814285Y-75771428D01*
X104814285Y-75961904D01*
X104861904Y-76057142D01*
X104909523Y-76104761D01*
X105004761Y-76152380D01*
X105195238Y-76152380D01*
X105290476Y-76104761D01*
X105338095Y-76057142D01*
X105385714Y-75961904D01*
X105385714Y-75771428D01*
X105338095Y-75676190D01*
X105290476Y-75628571D01*
X105195238Y-75580952D01*
X95133333Y-89957142D02*
X95085714Y-90004761D01*
X94942857Y-90052380D01*
X94847619Y-90052380D01*
X94704761Y-90004761D01*
X94609523Y-89909523D01*
X94561904Y-89814285D01*
X94514285Y-89623809D01*
X94514285Y-89480952D01*
X94561904Y-89290476D01*
X94609523Y-89195238D01*
X94704761Y-89100000D01*
X94847619Y-89052380D01*
X94942857Y-89052380D01*
X95085714Y-89100000D01*
X95133333Y-89147619D01*
X95466666Y-89052380D02*
X96133333Y-89052380D01*
X95704761Y-90052380D01*
X124033333Y-84357142D02*
X123985714Y-84404761D01*
X123842857Y-84452380D01*
X123747619Y-84452380D01*
X123604761Y-84404761D01*
X123509523Y-84309523D01*
X123461904Y-84214285D01*
X123414285Y-84023809D01*
X123414285Y-83880952D01*
X123461904Y-83690476D01*
X123509523Y-83595238D01*
X123604761Y-83500000D01*
X123747619Y-83452380D01*
X123842857Y-83452380D01*
X123985714Y-83500000D01*
X124033333Y-83547619D01*
X124938095Y-83452380D02*
X124461904Y-83452380D01*
X124414285Y-83928571D01*
X124461904Y-83880952D01*
X124557142Y-83833333D01*
X124795238Y-83833333D01*
X124890476Y-83880952D01*
X124938095Y-83928571D01*
X124985714Y-84023809D01*
X124985714Y-84261904D01*
X124938095Y-84357142D01*
X124890476Y-84404761D01*
X124795238Y-84452380D01*
X124557142Y-84452380D01*
X124461904Y-84404761D01*
X124414285Y-84357142D01*
X81333333Y-77157142D02*
X81285714Y-77204761D01*
X81142857Y-77252380D01*
X81047619Y-77252380D01*
X80904761Y-77204761D01*
X80809523Y-77109523D01*
X80761904Y-77014285D01*
X80714285Y-76823809D01*
X80714285Y-76680952D01*
X80761904Y-76490476D01*
X80809523Y-76395238D01*
X80904761Y-76300000D01*
X81047619Y-76252380D01*
X81142857Y-76252380D01*
X81285714Y-76300000D01*
X81333333Y-76347619D01*
X82190476Y-76585714D02*
X82190476Y-77252380D01*
X81952380Y-76204761D02*
X81714285Y-76919047D01*
X82333333Y-76919047D01*
X116433333Y-81257142D02*
X116385714Y-81304761D01*
X116242857Y-81352380D01*
X116147619Y-81352380D01*
X116004761Y-81304761D01*
X115909523Y-81209523D01*
X115861904Y-81114285D01*
X115814285Y-80923809D01*
X115814285Y-80780952D01*
X115861904Y-80590476D01*
X115909523Y-80495238D01*
X116004761Y-80400000D01*
X116147619Y-80352380D01*
X116242857Y-80352380D01*
X116385714Y-80400000D01*
X116433333Y-80447619D01*
X116766666Y-80352380D02*
X117385714Y-80352380D01*
X117052380Y-80733333D01*
X117195238Y-80733333D01*
X117290476Y-80780952D01*
X117338095Y-80828571D01*
X117385714Y-80923809D01*
X117385714Y-81161904D01*
X117338095Y-81257142D01*
X117290476Y-81304761D01*
X117195238Y-81352380D01*
X116909523Y-81352380D01*
X116814285Y-81304761D01*
X116766666Y-81257142D01*
X77233333Y-67557142D02*
X77185714Y-67604761D01*
X77042857Y-67652380D01*
X76947619Y-67652380D01*
X76804761Y-67604761D01*
X76709523Y-67509523D01*
X76661904Y-67414285D01*
X76614285Y-67223809D01*
X76614285Y-67080952D01*
X76661904Y-66890476D01*
X76709523Y-66795238D01*
X76804761Y-66700000D01*
X76947619Y-66652380D01*
X77042857Y-66652380D01*
X77185714Y-66700000D01*
X77233333Y-66747619D01*
X77614285Y-66747619D02*
X77661904Y-66700000D01*
X77757142Y-66652380D01*
X77995238Y-66652380D01*
X78090476Y-66700000D01*
X78138095Y-66747619D01*
X78185714Y-66842857D01*
X78185714Y-66938095D01*
X78138095Y-67080952D01*
X77566666Y-67652380D01*
X78185714Y-67652380D01*
X76585714Y-91952380D02*
X76014285Y-91952380D01*
X76300000Y-91952380D02*
X76300000Y-90952380D01*
X76204761Y-91095238D01*
X76109523Y-91190476D01*
X76014285Y-91238095D01*
X122390476Y-90952380D02*
X123009523Y-90952380D01*
X122676190Y-91333333D01*
X122819047Y-91333333D01*
X122914285Y-91380952D01*
X122961904Y-91428571D01*
X123009523Y-91523809D01*
X123009523Y-91761904D01*
X122961904Y-91857142D01*
X122914285Y-91904761D01*
X122819047Y-91952380D01*
X122533333Y-91952380D01*
X122438095Y-91904761D01*
X122390476Y-91857142D01*
X123390476Y-91047619D02*
X123438095Y-91000000D01*
X123533333Y-90952380D01*
X123771428Y-90952380D01*
X123866666Y-91000000D01*
X123914285Y-91047619D01*
X123961904Y-91142857D01*
X123961904Y-91238095D01*
X123914285Y-91380952D01*
X123342857Y-91952380D01*
X123961904Y-91952380D01*
M02*
